  0
SECTION
  2
HEADER
  9
$ACADVER
  1
AC1014
  9
$HANDSEED
  5
FFFF
  9
$MEASUREMENT
 70
     1
  0
ENDSEC
  0
SECTION
  2
TABLES
  0
TABLE
  2
VPORT
  5
8
330
0
100
AcDbSymbolTable
 70
     4
  0
VPORT
  5
2E
330
8
100
AcDbSymbolTableRecord
100
AcDbViewportTableRecord
  2
*ACTIVE
 70
     0
 10
0.0
 20
0.0
 11
1.0
 21
1.0
 12
210.0
 22
148.5
 13
0.0
 23
0.0
 14
10.0
 24
10.0
 15
10.0
 25
10.0
 16
0.0
 26
0.0
 36
1.0
 17
0.0
 27
0.0
 37
0.0
 40
341.0
 41
1.24
 42
50.0
 43
0.0
 44
0.0
 50
0.0
 51
0.0
 71
     0
 72
   100
 73
     1
 74
     3
 75
     0
 76
     0
 77
     0
 78
     0
  0
ENDTAB
  0
TABLE
  2
LTYPE
  5
5
330
0
100
AcDbSymbolTable
 70
     1
  0
LTYPE
  5
14
330
5
100
AcDbSymbolTableRecord
100
AcDbLinetypeTableRecord
  2
BYBLOCK
 70
     0
  3

 72
    65
 73
     0
 40
0.0
  0
LTYPE
  5
15
330
5
100
AcDbSymbolTableRecord
100
AcDbLinetypeTableRecord
  2
BYLAYER
 70
     0
  3

 72
    65
 73
     0
 40
0.0
  0
LTYPE
  5
16
330
5
100
AcDbSymbolTableRecord
100
AcDbLinetypeTableRecord
  2
CONTINUOUS
 70
     0
  3
Solid line
 72
    65
 73
     0
 40
0.0
  0
ENDTAB
  0
TABLE
  2
LAYER
  5
2
100
AcDbSymbolTable
 70
2
  0
LAYER
  5
50
100
AcDbSymbolTableRecord
100
AcDbLayerTableRecord
  2
0
 70
0
  6
CONTINUOUS
  0
LAYER
  5
51
100
AcDbSymbolTableRecord
100
AcDbLayerTableRecord
  2
Layer_1
 70
0
  6
CONTINUOUS
  0
ENDTAB
  0
TABLE
  2
STYLE
  5
3
330
0
100
AcDbSymbolTable
 70
     1
  0
STYLE
  5
11
330
3
100
AcDbSymbolTableRecord
100
AcDbTextStyleTableRecord
  2
STANDARD
 70
     0
 40
0.0
 41
1.0
 50
0.0
 71
     0
 42
2.5
  3
txt
  4

  0
ENDTAB
  0
TABLE
  2
VIEW
  5
6
330
0
100
AcDbSymbolTable
 70
     0
  0
ENDTAB
  0
TABLE
  2
UCS
  5
7
330
0
100
AcDbSymbolTable
 70
     0
  0
ENDTAB
  0
TABLE
  2
APPID
  5
9
330
0
100
AcDbSymbolTable
 70
     2
  0
APPID
  5
12
330
9
100
AcDbSymbolTableRecord
100
AcDbRegAppTableRecord
  2
ACAD
 70
     0
  0
ENDTAB
  0
TABLE
  2
DIMSTYLE
  5
A
330
0
100
AcDbSymbolTable
 70
     1
  0
DIMSTYLE
105
27
330
A
100
AcDbSymbolTableRecord
100
AcDbDimStyleTableRecord
  2
ISO-25
 70
     0
  3

  4

  5

  6

  7

 40
1.0
 41
2.5
 42
0.625
 43
3.75
 44
1.25
 45
0.0
 46
0.0
 47
0.0
 48
0.0
140
2.5
141
2.5
142
0.0
143
0.03937007874016
144
1.0
145
0.0
146
1.0
147
0.625
 71
     0
 72
     0
 73
     0
 74
     0
 75
     0
 76
     0
 77
     1
 78
     8
170
     0
171
     3
172
     1
173
     0
174
     0
175
     0
176
     0
177
     0
178
     0
270
     2
271
     2
272
     2
273
     2
274
     3
340
11
275
     0
280
     0
281
     0
282
     0
283
     0
284
     8
285
     0
286
     0
287
     3
288
     0
  0
ENDTAB
  0
TABLE
  2
BLOCK_RECORD
  5
1
330
0
100
AcDbSymbolTable
 70
     1
  0
BLOCK_RECORD
  5
1F
330
1
100
AcDbSymbolTableRecord
100
AcDbBlockTableRecord
  2
*MODEL_SPACE
  0
BLOCK_RECORD
  5
1B
330
1
100
AcDbSymbolTableRecord
100
AcDbBlockTableRecord
  2
*PAPER_SPACE
  0
ENDTAB
  0
ENDSEC
  0
SECTION
  2
BLOCKS
  0
BLOCK
  5
20
330
1F
100
AcDbEntity
  8
0
100
AcDbBlockBegin
  2
*MODEL_SPACE
 70
     0
 10
0.0
 20
0.0
 30
0.0
  3
*MODEL_SPACE
  1

  0
ENDBLK
  5
21
330
1F
100
AcDbEntity
  8
0
100
AcDbBlockEnd
  0
BLOCK
  5
1C
330
1B
100
AcDbEntity
 67
     1
  8
0
100
AcDbBlockBegin
  2
*PAPER_SPACE
  1

  0
ENDBLK
  5
1D
330
1B
100
AcDbEntity
 67
     1
  8
0
100
AcDbBlockEnd
  0
ENDSEC
  0
SECTION
  2
ENTITIES
  0
SPLINE
  5
100
100
AcDbEntity
  8
Layer_1
 62
7
100
AcDbSpline
 70
8
 71
3
 72
8
 73
4
 74
0
 40
0
 40
0
 40
0
 40
0
 40
1
 40
1
 40
1
 40
1
 10
7.657456
 20
0.300077
 30
0.0
 10
7.594215
 20
0.315177
 30
0.0
 10
7.503156
 20
0.355077
 30
0.0
 10
7.455103
 20
0.388737
 30
0.0
  0
SPLINE
  5
101
100
AcDbEntity
  8
Layer_1
 62
7
100
AcDbSpline
 70
8
 71
3
 72
8
 73
4
 74
0
 40
0
 40
0
 40
0
 40
0
 40
1
 40
1
 40
1
 40
1
 10
7.455103
 20
0.388737
 30
0.0
 10
7.407050
 20
0.422397
 30
0.0
 10
7.329011
 20
0.449937
 30
0.0
 10
7.281684
 20
0.449937
 30
0.0
  0
SPLINE
  5
102
100
AcDbEntity
  8
Layer_1
 62
7
100
AcDbSpline
 70
8
 71
3
 72
8
 73
4
 74
0
 40
0
 40
0
 40
0
 40
0
 40
1
 40
1
 40
1
 40
1
 10
7.281684
 20
0.449937
 30
0.0
 10
7.058503
 20
0.449937
 30
0.0
 10
6.829545
 20
0.703135
 30
0.0
 10
6.829545
 20
0.949943
 30
0.0
  0
SPLINE
  5
103
100
AcDbEntity
  8
Layer_1
 62
7
100
AcDbSpline
 70
8
 71
3
 72
8
 73
4
 74
0
 40
0
 40
0
 40
0
 40
0
 40
1
 40
1
 40
1
 40
1
 10
6.829545
 20
0.949943
 30
0.0
 10
6.829545
 20
1.302363
 30
0.0
 10
7.457856
 20
1.629347
 30
0.0
 10
8.362457
 20
1.747697
 30
0.0
  0
SPLINE
  5
104
100
AcDbEntity
  8
Layer_1
 62
7
100
AcDbSpline
 70
8
 71
3
 72
8
 73
4
 74
0
 40
0
 40
0
 40
0
 40
0
 40
1
 40
1
 40
1
 40
1
 10
8.362457
 20
1.747697
 30
0.0
 10
8.692686
 20
1.790907
 30
0.0
 10
8.791320
 20
1.840687
 30
0.0
 10
8.681350
 20
1.908649
 30
0.0
  0
SPLINE
  5
105
100
AcDbEntity
  8
Layer_1
 62
7
100
AcDbSpline
 70
8
 71
3
 72
8
 73
4
 74
0
 40
0
 40
0
 40
0
 40
0
 40
1
 40
1
 40
1
 40
1
 10
8.681350
 20
1.908649
 30
0.0
 10
8.445339
 20
2.054513
 30
0.0
 10
8.619129
 20
2.802565
 30
0.0
 10
9.005978
 20
3.305963
 30
0.0
  0
SPLINE
  5
106
100
AcDbEntity
  8
Layer_1
 62
7
100
AcDbSpline
 70
8
 71
3
 72
8
 73
4
 74
0
 40
0
 40
0
 40
0
 40
0
 40
1
 40
1
 40
1
 40
1
 10
9.005978
 20
3.305963
 30
0.0
 10
9.197483
 20
3.555163
 30
0.0
 10
9.197483
 20
3.555163
 30
0.0
 10
9.090907
 20
3.768166
 30
0.0
  0
SPLINE
  5
107
100
AcDbEntity
  8
Layer_1
 62
7
100
AcDbSpline
 70
8
 71
3
 72
8
 73
4
 74
0
 40
0
 40
0
 40
0
 40
0
 40
1
 40
1
 40
1
 40
1
 10
9.090907
 20
3.768166
 30
0.0
 10
8.560513
 20
4.828210
 30
0.0
 10
8.820101
 20
6.000915
 30
0.0
 10
10.119120
 20
8.413171
 30
0.0
  0
SPLINE
  5
108
100
AcDbEntity
  8
Layer_1
 62
7
100
AcDbSpline
 70
8
 71
3
 72
8
 73
4
 74
0
 40
0
 40
0
 40
0
 40
0
 40
1
 40
1
 40
1
 40
1
 10
10.119120
 20
8.413171
 30
0.0
 10
10.594254
 20
9.295487
 30
0.0
 10
10.857967
 20
9.864053
 30
0.0
 10
10.859281
 20
10.008960
 30
0.0
  0
SPLINE
  5
109
100
AcDbEntity
  8
Layer_1
 62
7
100
AcDbSpline
 70
8
 71
3
 72
8
 73
4
 74
0
 40
0
 40
0
 40
0
 40
0
 40
1
 40
1
 40
1
 40
1
 10
10.859281
 20
10.008960
 30
0.0
 10
10.859655
 20
10.050000
 30
0.0
 10
10.903031
 20
10.146967
 30
0.0
 10
10.955691
 20
10.224449
 30
0.0
  0
SPLINE
  5
10a
100
AcDbEntity
  8
Layer_1
 62
7
100
AcDbSpline
 70
8
 71
3
 72
8
 73
4
 74
0
 40
0
 40
0
 40
0
 40
0
 40
1
 40
1
 40
1
 40
1
 10
10.955691
 20
10.224449
 30
0.0
 10
11.093911
 20
10.427858
 30
0.0
 10
11.093003
 20
10.427590
 30
0.0
 10
10.294151
 20
10.029512
 30
0.0
  0
SPLINE
  5
10b
100
AcDbEntity
  8
Layer_1
 62
7
100
AcDbSpline
 70
8
 71
3
 72
8
 73
4
 74
0
 40
0
 40
0
 40
0
 40
0
 40
1
 40
1
 40
1
 40
1
 10
10.294151
 20
10.029512
 30
0.0
 10
9.065952
 20
9.417483
 30
0.0
 10
8.481052
 20
9.284498
 30
0.0
 10
6.626181
 20
9.195548
 30
0.0
  0
SPLINE
  5
10c
100
AcDbEntity
  8
Layer_1
 62
7
100
AcDbSpline
 70
8
 71
3
 72
8
 73
4
 74
0
 40
0
 40
0
 40
0
 40
0
 40
1
 40
1
 40
1
 40
1
 10
6.626181
 20
9.195548
 30
0.0
 10
6.145489
 20
9.172498
 30
0.0
 10
6.145489
 20
9.172498
 30
0.0
 10
5.646310
 20
8.919495
 30
0.0
  0
SPLINE
  5
10d
100
AcDbEntity
  8
Layer_1
 62
7
100
AcDbSpline
 70
8
 71
3
 72
8
 73
4
 74
0
 40
0
 40
0
 40
0
 40
0
 40
1
 40
1
 40
1
 40
1
 10
5.646310
 20
8.919495
 30
0.0
 10
4.204624
 20
8.188800
 30
0.0
 10
2.045318
 20
7.869303
 30
0.0
 10
1.855660
 20
8.358620
 30
0.0
  0
SPLINE
  5
10e
100
AcDbEntity
  8
Layer_1
 62
7
100
AcDbSpline
 70
8
 71
3
 72
8
 73
4
 74
0
 40
0
 40
0
 40
0
 40
0
 40
1
 40
1
 40
1
 40
1
 10
1.855660
 20
8.358620
 30
0.0
 10
1.656330
 20
8.872894
 30
0.0
 10
2.369963
 20
9.398370
 30
0.0
 10
3.541345
 20
9.599855
 30
0.0
  0
SPLINE
  5
10f
100
AcDbEntity
  8
Layer_1
 62
7
100
AcDbSpline
 70
8
 71
3
 72
8
 73
4
 74
0
 40
0
 40
0
 40
0
 40
0
 40
1
 40
1
 40
1
 40
1
 10
3.541345
 20
9.599855
 30
0.0
 10
4.662144
 20
9.792640
 30
0.0
 10
4.884943
 20
9.995736
 30
0.0
 10
4.374343
 20
10.359191
 30
0.0
  0
SPLINE
  5
110
100
AcDbEntity
  8
Layer_1
 62
7
100
AcDbSpline
 70
8
 71
3
 72
8
 73
4
 74
0
 40
0
 40
0
 40
0
 40
0
 40
1
 40
1
 40
1
 40
1
 10
4.374343
 20
10.359191
 30
0.0
 10
3.918039
 20
10.683996
 30
0.0
 10
3.746020
 20
11.077572
 30
0.0
 10
3.948086
 20
11.334458
 30
0.0
  0
SPLINE
  5
111
100
AcDbEntity
  8
Layer_1
 62
7
100
AcDbSpline
 70
8
 71
3
 72
8
 73
4
 74
0
 40
0
 40
0
 40
0
 40
0
 40
1
 40
1
 40
1
 40
1
 10
3.948086
 20
11.334458
 30
0.0
 10
4.093397
 20
11.519191
 30
0.0
 10
4.228185
 20
11.460131
 30
0.0
 10
4.514865
 20
11.086115
 30
0.0
  0
SPLINE
  5
112
100
AcDbEntity
  8
Layer_1
 62
7
100
AcDbSpline
 70
8
 71
3
 72
8
 73
4
 74
0
 40
0
 40
0
 40
0
 40
0
 40
1
 40
1
 40
1
 40
1
 10
4.514865
 20
11.086115
 30
0.0
 10
4.740916
 20
10.791198
 30
0.0
 10
4.865767
 20
10.708316
 30
0.0
 10
5.275952
 20
10.580871
 30
0.0
  0
SPLINE
  5
113
100
AcDbEntity
  8
Layer_1
 62
7
100
AcDbSpline
 70
8
 71
3
 72
8
 73
4
 74
0
 40
0
 40
0
 40
0
 40
0
 40
1
 40
1
 40
1
 40
1
 10
5.275952
 20
10.580871
 30
0.0
 10
5.675597
 20
10.456702
 30
0.0
 10
5.910293
 20
10.286776
 30
0.0
 10
6.078446
 20
9.999846
 30
0.0
  0
SPLINE
  5
114
100
AcDbEntity
  8
Layer_1
 62
7
100
AcDbSpline
 70
8
 71
3
 72
8
 73
4
 74
0
 40
0
 40
0
 40
0
 40
0
 40
1
 40
1
 40
1
 40
1
 10
6.078446
 20
9.999846
 30
0.0
 10
6.209340
 20
9.776491
 30
0.0
 10
6.732013
 20
9.783621
 30
0.0
 10
8.337975
 20
10.030666
 30
0.0
  0
SPLINE
  5
115
100
AcDbEntity
  8
Layer_1
 62
7
100
AcDbSpline
 70
8
 71
3
 72
8
 73
4
 74
0
 40
0
 40
0
 40
0
 40
0
 40
1
 40
1
 40
1
 40
1
 10
8.337975
 20
10.030666
 30
0.0
 10
9.054225
 20
10.140848
 30
0.0
 10
9.425648
 20
10.307986
 30
0.0
 10
10.478524
 20
10.993901
 30
0.0
  0
SPLINE
  5
116
100
AcDbEntity
  8
Layer_1
 62
7
100
AcDbSpline
 70
8
 71
3
 72
8
 73
4
 74
0
 40
0
 40
0
 40
0
 40
0
 40
1
 40
1
 40
1
 40
1
 10
10.478524
 20
10.993901
 30
0.0
 10
11.081647
 20
11.386817
 30
0.0
 10
11.198050
 20
11.446233
 30
0.0
 10
11.444077
 20
11.486754
 30
0.0
  0
SPLINE
  5
117
100
AcDbEntity
  8
Layer_1
 62
7
100
AcDbSpline
 70
8
 71
3
 72
8
 73
4
 74
0
 40
0
 40
0
 40
0
 40
0
 40
1
 40
1
 40
1
 40
1
 10
11.444077
 20
11.486754
 30
0.0
 10
11.689905
 20
11.527244
 30
0.0
 10
11.672699
 20
11.896664
 30
0.0
 10
11.420847
 20
11.985501
 30
0.0
  0
SPLINE
  5
118
100
AcDbEntity
  8
Layer_1
 62
7
100
AcDbSpline
 70
8
 71
3
 72
8
 73
4
 74
0
 40
0
 40
0
 40
0
 40
0
 40
1
 40
1
 40
1
 40
1
 10
11.420847
 20
11.985501
 30
0.0
 10
10.991266
 20
12.137028
 30
0.0
 10
11.138622
 20
12.357699
 30
0.0
 10
11.691927
 20
12.391453
 30
0.0
  0
SPLINE
  5
119
100
AcDbEntity
  8
Layer_1
 62
7
100
AcDbSpline
 70
8
 71
3
 72
8
 73
4
 74
0
 40
0
 40
0
 40
0
 40
0
 40
1
 40
1
 40
1
 40
1
 10
11.691927
 20
12.391453
 30
0.0
 10
12.024713
 20
12.411753
 30
0.0
 10
12.024713
 20
12.411753
 30
0.0
 10
12.073529
 20
12.611507
 30
0.0
  0
SPLINE
  5
11a
100
AcDbEntity
  8
Layer_1
 62
7
100
AcDbSpline
 70
8
 71
3
 72
8
 73
4
 74
0
 40
0
 40
0
 40
0
 40
0
 40
1
 40
1
 40
1
 40
1
 10
12.073529
 20
12.611507
 30
0.0
 10
12.154649
 20
12.943427
 30
0.0
 10
12.129969
 20
12.977448
 30
0.0
 10
11.807237
 20
12.978714
 30
0.0
  0
SPLINE
  5
11b
100
AcDbEntity
  8
Layer_1
 62
7
100
AcDbSpline
 70
8
 71
3
 72
8
 73
4
 74
0
 40
0
 40
0
 40
0
 40
0
 40
1
 40
1
 40
1
 40
1
 10
11.807237
 20
12.978714
 30
0.0
 10
11.017892
 20
12.981814
 30
0.0
 10
10.610611
 20
13.413402
 30
0.0
 10
11.273891
 20
13.543894
 30
0.0
  0
SPLINE
  5
11c
100
AcDbEntity
  8
Layer_1
 62
7
100
AcDbSpline
 70
8
 71
3
 72
8
 73
4
 74
0
 40
0
 40
0
 40
0
 40
0
 40
1
 40
1
 40
1
 40
1
 10
11.273891
 20
13.543894
 30
0.0
 10
11.690719
 20
13.625904
 30
0.0
 10
11.719138
 20
13.706375
 30
0.0
 10
11.690207
 20
14.722770
 30
0.0
  0
SPLINE
  5
11d
100
AcDbEntity
  8
Layer_1
 62
7
100
AcDbSpline
 70
8
 71
3
 72
8
 73
4
 74
0
 40
0
 40
0
 40
0
 40
0
 40
1
 40
1
 40
1
 40
1
 10
11.690207
 20
14.722770
 30
0.0
 10
11.654515
 20
15.976478
 30
0.0
 10
11.667833
 20
15.914100
 30
0.0
 10
11.394148
 20
16.109398
 30
0.0
  0
SPLINE
  5
11e
100
AcDbEntity
  8
Layer_1
 62
7
100
AcDbSpline
 70
8
 71
3
 72
8
 73
4
 74
0
 40
0
 40
0
 40
0
 40
0
 40
1
 40
1
 40
1
 40
1
 10
11.394148
 20
16.109398
 30
0.0
 10
10.481283
 20
16.760805
 30
0.0
 10
10.323044
 20
18.191707
 30
0.0
 10
11.118791
 20
18.599373
 30
0.0
  0
SPLINE
  5
11f
100
AcDbEntity
  8
Layer_1
 62
7
100
AcDbSpline
 70
8
 71
3
 72
8
 73
4
 74
0
 40
0
 40
0
 40
0
 40
0
 40
1
 40
1
 40
1
 40
1
 10
11.118791
 20
18.599373
 30
0.0
 10
11.322160
 20
18.703561
 30
0.0
 10
11.322160
 20
18.703561
 30
0.0
 10
11.345416
 20
19.421673
 30
0.0
  0
SPLINE
  5
120
100
AcDbEntity
  8
Layer_1
 62
7
100
AcDbSpline
 70
8
 71
3
 72
8
 73
4
 74
0
 40
0
 40
0
 40
0
 40
0
 40
1
 40
1
 40
1
 40
1
 10
11.345416
 20
19.421673
 30
0.0
 10
11.438636
 20
22.300119
 30
0.0
 10
12.529672
 20
23.796533
 30
0.0
 10
15.001298
 20
24.435901
 30
0.0
  0
SPLINE
  5
121
100
AcDbEntity
  8
Layer_1
 62
7
100
AcDbSpline
 70
8
 71
3
 72
8
 73
4
 74
0
 40
0
 40
0
 40
0
 40
0
 40
1
 40
1
 40
1
 40
1
 10
15.001298
 20
24.435901
 30
0.0
 10
17.606112
 20
25.109722
 30
0.0
 10
19.616134
 20
23.857645
 30
0.0
 10
20.051035
 20
21.290333
 30
0.0
  0
SPLINE
  5
122
100
AcDbEntity
  8
Layer_1
 62
7
100
AcDbSpline
 70
8
 71
3
 72
8
 73
4
 74
0
 40
0
 40
0
 40
0
 40
0
 40
1
 40
1
 40
1
 40
1
 10
20.051035
 20
21.290333
 30
0.0
 10
20.337932
 20
19.596723
 30
0.0
 10
19.767556
 20
18.693763
 30
0.0
 10
17.788410
 20
17.708377
 30
0.0
  0
SPLINE
  5
123
100
AcDbEntity
  8
Layer_1
 62
7
100
AcDbSpline
 70
8
 71
3
 72
8
 73
4
 74
0
 40
0
 40
0
 40
0
 40
0
 40
1
 40
1
 40
1
 40
1
 10
17.788410
 20
17.708377
 30
0.0
 10
16.321596
 20
16.978073
 30
0.0
 10
16.059924
 20
16.813761
 30
0.0
 10
15.893175
 20
16.518298
 30
0.0
  0
SPLINE
  5
124
100
AcDbEntity
  8
Layer_1
 62
7
100
AcDbSpline
 70
8
 71
3
 72
8
 73
4
 74
0
 40
0
 40
0
 40
0
 40
0
 40
1
 40
1
 40
1
 40
1
 10
15.893175
 20
16.518298
 30
0.0
 10
15.724572
 20
16.219550
 30
0.0
 10
15.430473
 20
15.945155
 30
0.0
 10
15.087792
 20
15.766872
 30
0.0
  0
SPLINE
  5
125
100
AcDbEntity
  8
Layer_1
 62
7
100
AcDbSpline
 70
8
 71
3
 72
8
 73
4
 74
0
 40
0
 40
0
 40
0
 40
0
 40
1
 40
1
 40
1
 40
1
 10
15.087792
 20
15.766872
 30
0.0
 10
14.497439
 20
15.459737
 30
0.0
 10
13.628367
 20
13.769428
 30
0.0
 10
13.845564
 20
13.350791
 30
0.0
  0
SPLINE
  5
126
100
AcDbEntity
  8
Layer_1
 62
7
100
AcDbSpline
 70
8
 71
3
 72
8
 73
4
 74
0
 40
0
 40
0
 40
0
 40
0
 40
1
 40
1
 40
1
 40
1
 10
13.845564
 20
13.350791
 30
0.0
 10
14.098810
 20
12.862670
 30
0.0
 10
13.944134
 20
12.168424
 30
0.0
 10
13.519037
 20
11.885252
 30
0.0
  0
SPLINE
  5
127
100
AcDbEntity
  8
Layer_1
 62
7
100
AcDbSpline
 70
8
 71
3
 72
8
 73
4
 74
0
 40
0
 40
0
 40
0
 40
0
 40
1
 40
1
 40
1
 40
1
 10
13.519037
 20
11.885252
 30
0.0
 10
13.150056
 20
11.639458
 30
0.0
 10
13.066890
 20
11.407627
 30
0.0
 10
13.328655
 20
11.354547
 30
0.0
  0
SPLINE
  5
128
100
AcDbEntity
  8
Layer_1
 62
7
100
AcDbSpline
 70
8
 71
3
 72
8
 73
4
 74
0
 40
0
 40
0
 40
0
 40
0
 40
1
 40
1
 40
1
 40
1
 10
13.328655
 20
11.354547
 30
0.0
 10
13.530240
 20
11.313667
 30
0.0
 10
13.737668
 20
11.149288
 30
0.0
 10
14.317237
 20
10.571124
 30
0.0
  0
SPLINE
  5
129
100
AcDbEntity
  8
Layer_1
 62
7
100
AcDbSpline
 70
8
 71
3
 72
8
 73
4
 74
0
 40
0
 40
0
 40
0
 40
0
 40
1
 40
1
 40
1
 40
1
 10
14.317237
 20
10.571124
 30
0.0
 10
15.217637
 20
9.672905
 30
0.0
 10
15.546254
 20
9.444536
 30
0.0
 10
16.313955
 20
9.183528
 30
0.0
  0
SPLINE
  5
12a
100
AcDbEntity
  8
Layer_1
 62
7
100
AcDbSpline
 70
8
 71
3
 72
8
 73
4
 74
0
 40
0
 40
0
 40
0
 40
0
 40
1
 40
1
 40
1
 40
1
 10
16.313955
 20
9.183528
 30
0.0
 10
16.981169
 20
8.956684
 30
0.0
 10
17.821597
 20
8.767884
 30
0.0
 10
17.901155
 20
8.826967
 30
0.0
  0
SPLINE
  5
12b
100
AcDbEntity
  8
Layer_1
 62
7
100
AcDbSpline
 70
8
 71
3
 72
8
 73
4
 74
0
 40
0
 40
0
 40
0
 40
0
 40
1
 40
1
 40
1
 40
1
 10
17.901155
 20
8.826967
 30
0.0
 10
17.927115
 20
8.846247
 30
0.0
 10
18.018189
 20
8.914867
 30
0.0
 10
18.103529
 20
8.979443
 30
0.0
  0
SPLINE
  5
12c
100
AcDbEntity
  8
Layer_1
 62
7
100
AcDbSpline
 70
8
 71
3
 72
8
 73
4
 74
0
 40
0
 40
0
 40
0
 40
0
 40
1
 40
1
 40
1
 40
1
 10
18.103529
 20
8.979443
 30
0.0
 10
18.227492
 20
9.073253
 30
0.0
 10
18.308532
 20
9.101950
 30
0.0
 10
18.506541
 20
9.122176
 30
0.0
  0
SPLINE
  5
12d
100
AcDbEntity
  8
Layer_1
 62
7
100
AcDbSpline
 70
8
 71
3
 72
8
 73
4
 74
0
 40
0
 40
0
 40
0
 40
0
 40
1
 40
1
 40
1
 40
1
 10
18.506541
 20
9.122176
 30
0.0
 10
18.953976
 20
9.167876
 30
0.0
 10
19.231720
 20
9.284386
 30
0.0
 10
19.697282
 20
9.621670
 30
0.0
  0
SPLINE
  5
12e
100
AcDbEntity
  8
Layer_1
 62
7
100
AcDbSpline
 70
8
 71
3
 72
8
 73
4
 74
0
 40
0
 40
0
 40
0
 40
0
 40
1
 40
1
 40
1
 40
1
 10
19.697282
 20
9.621670
 30
0.0
 10
20.164621
 20
9.960240
 30
0.0
 10
20.363930
 20
9.848218
 30
0.0
 10
20.178063
 20
9.351446
 30
0.0
  0
SPLINE
  5
12f
100
AcDbEntity
  8
Layer_1
 62
7
100
AcDbSpline
 70
8
 71
3
 72
8
 73
4
 74
0
 40
0
 40
0
 40
0
 40
0
 40
1
 40
1
 40
1
 40
1
 10
20.178063
 20
9.351446
 30
0.0
 10
20.057742
 20
9.029858
 30
0.0
 10
19.830676
 20
8.855175
 30
0.0
 10
19.419960
 20
8.768234
 30
0.0
  0
SPLINE
  5
130
100
AcDbEntity
  8
Layer_1
 62
7
100
AcDbSpline
 70
8
 71
3
 72
8
 73
4
 74
0
 40
0
 40
0
 40
0
 40
0
 40
1
 40
1
 40
1
 40
1
 10
19.419960
 20
8.768234
 30
0.0
 10
18.866857
 20
8.651153
 30
0.0
 10
19.098256
 20
8.415217
 30
0.0
 10
20.381343
 20
7.788005
 30
0.0
  0
SPLINE
  5
131
100
AcDbEntity
  8
Layer_1
 62
7
100
AcDbSpline
 70
8
 71
3
 72
8
 73
4
 74
0
 40
0
 40
0
 40
0
 40
0
 40
1
 40
1
 40
1
 40
1
 10
20.381343
 20
7.788005
 30
0.0
 10
21.547857
 20
7.217776
 30
0.0
 10
22.070873
 20
6.739297
 30
0.0
 10
21.850420
 20
6.444024
 30
0.0
  0
SPLINE
  5
132
100
AcDbEntity
  8
Layer_1
 62
7
100
AcDbSpline
 70
8
 71
3
 72
8
 73
4
 74
0
 40
0
 40
0
 40
0
 40
0
 40
1
 40
1
 40
1
 40
1
 10
21.850420
 20
6.444024
 30
0.0
 10
21.294946
 20
5.700027
 30
0.0
 10
18.905591
 20
6.513964
 30
0.0
 10
17.873394
 20
7.798801
 30
0.0
  0
SPLINE
  5
133
100
AcDbEntity
  8
Layer_1
 62
7
100
AcDbSpline
 70
8
 71
3
 72
8
 73
4
 74
0
 40
0
 40
0
 40
0
 40
0
 40
1
 40
1
 40
1
 40
1
 10
17.873394
 20
7.798801
 30
0.0
 10
17.682076
 20
8.036946
 30
0.0
 10
17.682076
 20
8.036946
 30
0.0
 10
16.979527
 20
8.213210
 30
0.0
  0
SPLINE
  5
134
100
AcDbEntity
  8
Layer_1
 62
7
100
AcDbSpline
 70
8
 71
3
 72
8
 73
4
 74
0
 40
0
 40
0
 40
0
 40
0
 40
1
 40
1
 40
1
 40
1
 10
16.979527
 20
8.213210
 30
0.0
 10
15.465377
 20
8.593099
 30
0.0
 10
15.116921
 20
8.759771
 30
0.0
 10
13.855962
 20
9.707262
 30
0.0
  0
SPLINE
  5
135
100
AcDbEntity
  8
Layer_1
 62
7
100
AcDbSpline
 70
8
 71
3
 72
8
 73
4
 74
0
 40
0
 40
0
 40
0
 40
0
 40
1
 40
1
 40
1
 40
1
 10
13.855962
 20
9.707262
 30
0.0
 10
13.187537
 20
10.209520
 30
0.0
 10
13.239654
 20
10.194751
 30
0.0
 10
13.209207
 20
9.890541
 30
0.0
  0
SPLINE
  5
136
100
AcDbEntity
  8
Layer_1
 62
7
100
AcDbSpline
 70
8
 71
3
 72
8
 73
4
 74
0
 40
0
 40
0
 40
0
 40
0
 40
1
 40
1
 40
1
 40
1
 10
13.209207
 20
9.890541
 30
0.0
 10
13.100128
 20
8.800639
 30
0.0
 10
13.407681
 20
7.441775
 30
0.0
 10
14.056036
 20
6.148993
 30
0.0
  0
SPLINE
  5
137
100
AcDbEntity
  8
Layer_1
 62
7
100
AcDbSpline
 70
8
 71
3
 72
8
 73
4
 74
0
 40
0
 40
0
 40
0
 40
0
 40
1
 40
1
 40
1
 40
1
 10
14.056036
 20
6.148993
 30
0.0
 10
14.283547
 20
5.695348
 30
0.0
 10
14.446654
 20
5.248022
 30
0.0
 10
14.446654
 20
5.077709
 30
0.0
  0
SPLINE
  5
138
100
AcDbEntity
  8
Layer_1
 62
7
100
AcDbSpline
 70
8
 71
3
 72
8
 73
4
 74
0
 40
0
 40
0
 40
0
 40
0
 40
1
 40
1
 40
1
 40
1
 10
14.446654
 20
5.077709
 30
0.0
 10
14.446654
 20
4.905093
 30
0.0
 10
14.482024
 20
4.850103
 30
0.0
 10
14.593047
 20
4.850103
 30
0.0
  0
SPLINE
  5
139
100
AcDbEntity
  8
Layer_1
 62
7
100
AcDbSpline
 70
8
 71
3
 72
8
 73
4
 74
0
 40
0
 40
0
 40
0
 40
0
 40
1
 40
1
 40
1
 40
1
 10
14.593047
 20
4.850103
 30
0.0
 10
14.894728
 20
4.850103
 30
0.0
 10
15.035227
 20
4.626259
 30
0.0
 10
15.354781
 20
3.636499
 30
0.0
  0
SPLINE
  5
13a
100
AcDbEntity
  8
Layer_1
 62
7
100
AcDbSpline
 70
8
 71
3
 72
8
 73
4
 74
0
 40
0
 40
0
 40
0
 40
0
 40
1
 40
1
 40
1
 40
1
 10
15.354781
 20
3.636499
 30
0.0
 10
15.488209
 20
3.223228
 30
0.0
 10
15.703430
 20
2.630418
 30
0.0
 10
15.833049
 20
2.319143
 30
0.0
  0
SPLINE
  5
13b
100
AcDbEntity
  8
Layer_1
 62
7
100
AcDbSpline
 70
8
 71
3
 72
8
 73
4
 74
0
 40
0
 40
0
 40
0
 40
0
 40
1
 40
1
 40
1
 40
1
 10
15.833049
 20
2.319143
 30
0.0
 10
16.321558
 20
1.146006
 30
0.0
 10
16.344418
 20
0.708763
 30
0.0
 10
15.917249
 20
0.708763
 30
0.0
  0
SPLINE
  5
13c
100
AcDbEntity
  8
Layer_1
 62
7
100
AcDbSpline
 70
8
 71
3
 72
8
 73
4
 74
0
 40
0
 40
0
 40
0
 40
0
 40
1
 40
1
 40
1
 40
1
 10
15.917249
 20
0.708763
 30
0.0
 10
15.846429
 20
0.708763
 30
0.0
 10
15.760183
 20
0.668483
 30
0.0
 10
15.679713
 20
0.597834
 30
0.0
  0
SPLINE
  5
13d
100
AcDbEntity
  8
Layer_1
 62
7
100
AcDbSpline
 70
8
 71
3
 72
8
 73
4
 74
0
 40
0
 40
0
 40
0
 40
0
 40
1
 40
1
 40
1
 40
1
 10
15.679713
 20
0.597834
 30
0.0
 10
15.541741
 20
0.476693
 30
0.0
 10
15.408835
 20
0.458380
 30
0.0
 10
15.261122
 20
0.540154
 30
0.0
  0
SPLINE
  5
13e
100
AcDbEntity
  8
Layer_1
 62
7
100
AcDbSpline
 70
8
 71
3
 72
8
 73
4
 74
0
 40
0
 40
0
 40
0
 40
0
 40
1
 40
1
 40
1
 40
1
 10
15.261122
 20
0.540154
 30
0.0
 10
15.201252
 20
0.573294
 30
0.0
 10
15.104851
 20
0.584094
 30
0.0
 10
14.982016
 20
0.571414
 30
0.0
  0
SPLINE
  5
13f
100
AcDbEntity
  8
Layer_1
 62
7
100
AcDbSpline
 70
8
 71
3
 72
8
 73
4
 74
0
 40
0
 40
0
 40
0
 40
0
 40
1
 40
1
 40
1
 40
1
 10
14.982016
 20
0.571414
 30
0.0
 10
14.562689
 20
0.528134
 30
0.0
 10
14.203913
 20
0.849745
 30
0.0
 10
13.983189
 20
1.466771
 30
0.0
  0
SPLINE
  5
140
100
AcDbEntity
  8
Layer_1
 62
7
100
AcDbSpline
 70
8
 71
3
 72
8
 73
4
 74
0
 40
0
 40
0
 40
0
 40
0
 40
1
 40
1
 40
1
 40
1
 10
13.983189
 20
1.466771
 30
0.0
 10
13.939539
 20
1.588792
 30
0.0
 10
13.888689
 20
1.685097
 30
0.0
 10
13.870188
 20
1.680781
 30
0.0
  0
SPLINE
  5
141
100
AcDbEntity
  8
Layer_1
 62
7
100
AcDbSpline
 70
8
 71
3
 72
8
 73
4
 74
0
 40
0
 40
0
 40
0
 40
0
 40
1
 40
1
 40
1
 40
1
 10
13.870188
 20
1.680781
 30
0.0
 10
13.851688
 20
1.676481
 30
0.0
 10
13.736714
 20
1.631101
 30
0.0
 10
13.614692
 20
1.579974
 30
0.0
  0
SPLINE
  5
142
100
AcDbEntity
  8
Layer_1
 62
7
100
AcDbSpline
 70
8
 71
3
 72
8
 73
4
 74
0
 40
0
 40
0
 40
0
 40
0
 40
1
 40
1
 40
1
 40
1
 10
13.614692
 20
1.579974
 30
0.0
 10
13.055259
 20
1.345569
 30
0.0
 10
12.458790
 20
1.556074
 30
0.0
 10
12.059944
 20
2.128677
 30
0.0
  0
SPLINE
  5
143
100
AcDbEntity
  8
Layer_1
 62
7
100
AcDbSpline
 70
8
 71
3
 72
8
 73
4
 74
0
 40
0
 40
0
 40
0
 40
0
 40
1
 40
1
 40
1
 40
1
 10
12.059944
 20
2.128677
 30
0.0
 10
11.977584
 20
2.246920
 30
0.0
 10
11.903465
 20
2.233228
 30
0.0
 10
11.719659
 20
2.065817
 30
0.0
  0
SPLINE
  5
144
100
AcDbEntity
  8
Layer_1
 62
7
100
AcDbSpline
 70
8
 71
3
 72
8
 73
4
 74
0
 40
0
 40
0
 40
0
 40
0
 40
1
 40
1
 40
1
 40
1
 10
11.719659
 20
2.065817
 30
0.0
 10
11.601597
 20
1.958283
 30
0.0
 10
11.614153
 20
1.927930
 30
0.0
 10
11.842205
 20
1.769570
 30
0.0
  0
SPLINE
  5
145
100
AcDbEntity
  8
Layer_1
 62
7
100
AcDbSpline
 70
8
 71
3
 72
8
 73
4
 74
0
 40
0
 40
0
 40
0
 40
0
 40
1
 40
1
 40
1
 40
1
 10
11.842205
 20
1.769570
 30
0.0
 10
12.635724
 20
1.218547
 30
0.0
 10
12.310264
 20
0.732237
 30
0.0
 10
11.081818
 20
0.633381
 30
0.0
  0
SPLINE
  5
146
100
AcDbEntity
  8
Layer_1
 62
7
100
AcDbSpline
 70
8
 71
3
 72
8
 73
4
 74
0
 40
0
 40
0
 40
0
 40
0
 40
1
 40
1
 40
1
 40
1
 10
11.081818
 20
0.633381
 30
0.0
 10
10.827607
 20
0.612921
 30
0.0
 10
10.419943
 20
0.580071
 30
0.0
 10
10.175900
 20
0.560371
 30
0.0
  0
SPLINE
  5
147
100
AcDbEntity
  8
Layer_1
 62
7
100
AcDbSpline
 70
8
 71
3
 72
8
 73
4
 74
0
 40
0
 40
0
 40
0
 40
0
 40
1
 40
1
 40
1
 40
1
 10
10.175900
 20
0.560371
 30
0.0
 10
9.931857
 20
0.540671
 30
0.0
 10
9.532513
 20
0.491171
 30
0.0
 10
9.288470
 20
0.450359
 30
0.0
  0
SPLINE
  5
148
100
AcDbEntity
  8
Layer_1
 62
7
100
AcDbSpline
 70
8
 71
3
 72
8
 73
4
 74
0
 40
0
 40
0
 40
0
 40
0
 40
1
 40
1
 40
1
 40
1
 10
9.288470
 20
0.450359
 30
0.0
 10
8.342232
 20
0.292124
 30
0.0
 10
7.872127
 20
0.248807
 30
0.0
 10
7.657460
 20
0.300073
 30
0.0
  0
SPLINE
  5
149
100
AcDbEntity
  8
Layer_1
 62
7
100
AcDbSpline
 70
8
 71
3
 72
8
 73
4
 74
0
 40
0
 40
0
 40
0
 40
0
 40
1
 40
1
 40
1
 40
1
 10
8.918703
 20
0.525089
 30
0.0
 10
9.980099
 20
0.693924
 30
0.0
 10
10.053465
 20
0.702829
 30
0.0
 10
10.730540
 20
0.744999
 30
0.0
  0
SPLINE
  5
14a
100
AcDbEntity
  8
Layer_1
 62
7
100
AcDbSpline
 70
8
 71
3
 72
8
 73
4
 74
0
 40
0
 40
0
 40
0
 40
0
 40
1
 40
1
 40
1
 40
1
 10
10.730540
 20
0.744999
 30
0.0
 10
11.936090
 20
0.820079
 30
0.0
 10
12.299589
 20
1.027021
 30
0.0
 10
11.930080
 20
1.427891
 30
0.0
  0
SPLINE
  5
14b
100
AcDbEntity
  8
Layer_1
 62
7
100
AcDbSpline
 70
8
 71
3
 72
8
 73
4
 74
0
 40
0
 40
0
 40
0
 40
0
 40
1
 40
1
 40
1
 40
1
 10
11.930080
 20
1.427891
 30
0.0
 10
11.634910
 20
1.748112
 30
0.0
 10
11.461318
 20
1.801635
 30
0.0
 10
11.395053
 20
1.592853
 30
0.0
  0
SPLINE
  5
14c
100
AcDbEntity
  8
Layer_1
 62
7
100
AcDbSpline
 70
8
 71
3
 72
8
 73
4
 74
0
 40
0
 40
0
 40
0
 40
0
 40
1
 40
1
 40
1
 40
1
 10
11.395053
 20
1.592853
 30
0.0
 10
11.360613
 20
1.484358
 30
0.0
 10
11.192743
 20
1.497213
 30
0.0
 10
11.192743
 20
1.608343
 30
0.0
  0
SPLINE
  5
14d
100
AcDbEntity
  8
Layer_1
 62
7
100
AcDbSpline
 70
8
 71
3
 72
8
 73
4
 74
0
 40
0
 40
0
 40
0
 40
0
 40
1
 40
1
 40
1
 40
1
 10
11.192743
 20
1.608343
 30
0.0
 10
11.192743
 20
1.708223
 30
0.0
 10
11.386830
 20
2.016264
 30
0.0
 10
11.499476
 20
2.095164
 30
0.0
  0
SPLINE
  5
14e
100
AcDbEntity
  8
Layer_1
 62
7
100
AcDbSpline
 70
8
 71
3
 72
8
 73
4
 74
0
 40
0
 40
0
 40
0
 40
0
 40
1
 40
1
 40
1
 40
1
 10
11.499476
 20
2.095164
 30
0.0
 10
11.597236
 20
2.163634
 30
0.0
 10
11.594916
 20
2.165014
 30
0.0
 10
11.285184
 20
2.221913
 30
0.0
  0
SPLINE
  5
14f
100
AcDbEntity
  8
Layer_1
 62
7
100
AcDbSpline
 70
8
 71
3
 72
8
 73
4
 74
0
 40
0
 40
0
 40
0
 40
0
 40
1
 40
1
 40
1
 40
1
 10
11.285184
 20
2.221913
 30
0.0
 10
10.889115
 20
2.294683
 30
0.0
 10
10.638099
 20
2.418551
 30
0.0
 10
10.638099
 20
2.541240
 30
0.0
  0
SPLINE
  5
150
100
AcDbEntity
  8
Layer_1
 62
7
100
AcDbSpline
 70
8
 71
3
 72
8
 73
4
 74
0
 40
0
 40
0
 40
0
 40
0
 40
1
 40
1
 40
1
 40
1
 10
10.638099
 20
2.541240
 30
0.0
 10
10.638099
 20
2.655171
 30
0.0
 10
10.650989
 20
2.654661
 30
0.0
 10
11.118791
 20
2.522210
 30
0.0
  0
SPLINE
  5
151
100
AcDbEntity
  8
Layer_1
 62
7
100
AcDbSpline
 70
8
 71
3
 72
8
 73
4
 74
0
 40
0
 40
0
 40
0
 40
0
 40
1
 40
1
 40
1
 40
1
 10
11.118791
 20
2.522210
 30
0.0
 10
11.612901
 20
2.382310
 30
0.0
 10
11.869351
 20
2.376337
 30
0.0
 10
11.818981
 20
2.505900
 30
0.0
  0
SPLINE
  5
152
100
AcDbEntity
  8
Layer_1
 62
7
100
AcDbSpline
 70
8
 71
3
 72
8
 73
4
 74
0
 40
0
 40
0
 40
0
 40
0
 40
1
 40
1
 40
1
 40
1
 10
11.818981
 20
2.505900
 30
0.0
 10
11.796071
 20
2.564830
 30
0.0
 10
11.772281
 20
2.671277
 30
0.0
 10
11.766121
 20
2.742457
 30
0.0
  0
SPLINE
  5
153
100
AcDbEntity
  8
Layer_1
 62
7
100
AcDbSpline
 70
8
 71
3
 72
8
 73
4
 74
0
 40
0
 40
0
 40
0
 40
0
 40
1
 40
1
 40
1
 40
1
 10
11.766121
 20
2.742457
 30
0.0
 10
11.759921
 20
2.813637
 30
0.0
 10
11.735831
 20
3.054906
 30
0.0
 10
11.712521
 20
3.278612
 30
0.0
  0
SPLINE
  5
154
100
AcDbEntity
  8
Layer_1
 62
7
100
AcDbSpline
 70
8
 71
3
 72
8
 73
4
 74
0
 40
0
 40
0
 40
0
 40
0
 40
1
 40
1
 40
1
 40
1
 10
11.712521
 20
3.278612
 30
0.0
 10
11.671121
 20
3.675804
 30
0.0
 10
11.683851
 20
3.914250
 30
0.0
 10
11.753541
 20
4.046905
 30
0.0
  0
SPLINE
  5
155
100
AcDbEntity
  8
Layer_1
 62
7
100
AcDbSpline
 70
8
 71
3
 72
8
 73
4
 74
0
 40
0
 40
0
 40
0
 40
0
 40
1
 40
1
 40
1
 40
1
 10
11.753541
 20
4.046905
 30
0.0
 10
11.824981
 20
4.182897
 30
0.0
 10
11.858321
 20
4.056205
 30
0.0
 10
11.858321
 20
3.648610
 30
0.0
  0
SPLINE
  5
156
100
AcDbEntity
  8
Layer_1
 62
7
100
AcDbSpline
 70
8
 71
3
 72
8
 73
4
 74
0
 40
0
 40
0
 40
0
 40
0
 40
1
 40
1
 40
1
 40
1
 10
11.858321
 20
3.648610
 30
0.0
 10
11.858321
 20
1.438461
 30
0.0
 10
13.614492
 20
0.916304
 30
0.0
 10
14.563992
 20
2.844141
 30
0.0
  0
SPLINE
  5
157
100
AcDbEntity
  8
Layer_1
 62
7
100
AcDbSpline
 70
8
 71
3
 72
8
 73
4
 74
0
 40
0
 40
0
 40
0
 40
0
 40
1
 40
1
 40
1
 40
1
 10
14.563992
 20
2.844141
 30
0.0
 10
14.702428
 20
3.125218
 30
0.0
 10
14.768711
 20
3.223148
 30
0.0
 10
14.820518
 20
3.223148
 30
0.0
  0
SPLINE
  5
158
100
AcDbEntity
  8
Layer_1
 62
7
100
AcDbSpline
 70
8
 71
3
 72
8
 73
4
 74
0
 40
0
 40
0
 40
0
 40
0
 40
1
 40
1
 40
1
 40
1
 10
14.820518
 20
3.223148
 30
0.0
 10
15.061494
 20
3.223148
 30
0.0
 10
14.746058
 20
2.544997
 30
0.0
 10
14.266743
 20
2.032613
 30
0.0
  0
SPLINE
  5
159
100
AcDbEntity
  8
Layer_1
 62
7
100
AcDbSpline
 70
8
 71
3
 72
8
 73
4
 74
0
 40
0
 40
0
 40
0
 40
0
 40
1
 40
1
 40
1
 40
1
 10
14.266743
 20
2.032613
 30
0.0
 10
13.931605
 20
1.674349
 30
0.0
 10
14.244693
 20
0.860128
 30
0.0
 10
14.768111
 20
0.728759
 30
0.0
  0
SPLINE
  5
15a
100
AcDbEntity
  8
Layer_1
 62
7
100
AcDbSpline
 70
8
 71
3
 72
8
 73
4
 74
0
 40
0
 40
0
 40
0
 40
0
 40
1
 40
1
 40
1
 40
1
 10
14.768111
 20
0.728759
 30
0.0
 10
14.906510
 20
0.694019
 30
0.0
 10
14.906301
 20
0.714009
 30
0.0
 10
14.765611
 20
0.972412
 30
0.0
  0
SPLINE
  5
15b
100
AcDbEntity
  8
Layer_1
 62
7
100
AcDbSpline
 70
8
 71
3
 72
8
 73
4
 74
0
 40
0
 40
0
 40
0
 40
0
 40
1
 40
1
 40
1
 40
1
 10
14.765611
 20
0.972412
 30
0.0
 10
14.544652
 20
1.378119
 30
0.0
 10
14.404366
 20
1.969915
 30
0.0
 10
14.523430
 20
1.994055
 30
0.0
  0
SPLINE
  5
15c
100
AcDbEntity
  8
Layer_1
 62
7
100
AcDbSpline
 70
8
 71
3
 72
8
 73
4
 74
0
 40
0
 40
0
 40
0
 40
0
 40
1
 40
1
 40
1
 40
1
 10
14.523430
 20
1.994055
 30
0.0
 10
14.566630
 20
2.002855
 30
0.0
 10
14.598260
 20
1.945805
 30
0.0
 10
14.645927
 20
1.773295
 30
0.0
  0
SPLINE
  5
15d
100
AcDbEntity
  8
Layer_1
 62
7
100
AcDbSpline
 70
8
 71
3
 72
8
 73
4
 74
0
 40
0
 40
0
 40
0
 40
0
 40
1
 40
1
 40
1
 40
1
 10
14.645927
 20
1.773295
 30
0.0
 10
14.832574
 20
1.097773
 30
0.0
 10
15.270104
 20
0.545571
 30
0.0
 10
15.537419
 20
0.648150
 30
0.0
  0
SPLINE
  5
15e
100
AcDbEntity
  8
Layer_1
 62
7
100
AcDbSpline
 70
8
 71
3
 72
8
 73
4
 74
0
 40
0
 40
0
 40
0
 40
0
 40
1
 40
1
 40
1
 40
1
 10
15.537419
 20
0.648150
 30
0.0
 10
15.617879
 20
0.679020
 30
0.0
 10
15.605559
 20
0.797091
 30
0.0
 10
15.513359
 20
0.878669
 30
0.0
  0
SPLINE
  5
15f
100
AcDbEntity
  8
Layer_1
 62
7
100
AcDbSpline
 70
8
 71
3
 72
8
 73
4
 74
0
 40
0
 40
0
 40
0
 40
0
 40
1
 40
1
 40
1
 40
1
 10
15.513359
 20
0.878669
 30
0.0
 10
15.209771
 20
1.147304
 30
0.0
 10
14.833672
 20
2.139651
 30
0.0
 10
14.997153
 20
2.240688
 30
0.0
  0
SPLINE
  5
160
100
AcDbEntity
  8
Layer_1
 62
7
100
AcDbSpline
 70
8
 71
3
 72
8
 73
4
 74
0
 40
0
 40
0
 40
0
 40
0
 40
1
 40
1
 40
1
 40
1
 10
14.997153
 20
2.240688
 30
0.0
 10
15.050103
 20
2.273408
 30
0.0
 10
15.096763
 20
2.186878
 30
0.0
 10
15.184686
 20
1.892935
 30
0.0
  0
SPLINE
  5
161
100
AcDbEntity
  8
Layer_1
 62
7
100
AcDbSpline
 70
8
 71
3
 72
8
 73
4
 74
0
 40
0
 40
0
 40
0
 40
0
 40
1
 40
1
 40
1
 40
1
 10
15.184686
 20
1.892935
 30
0.0
 10
15.336206
 20
1.386350
 30
0.0
 10
15.562271
 20
1.025679
 30
0.0
 10
15.798552
 20
0.913557
 30
0.0
  0
SPLINE
  5
162
100
AcDbEntity
  8
Layer_1
 62
7
100
AcDbSpline
 70
8
 71
3
 72
8
 73
4
 74
0
 40
0
 40
0
 40
0
 40
0
 40
1
 40
1
 40
1
 40
1
 10
15.798552
 20
0.913557
 30
0.0
 10
16.179201
 20
0.732927
 30
0.0
 10
16.144265
 20
1.023669
 30
0.0
 10
15.626752
 20
2.343311
 30
0.0
  0
SPLINE
  5
163
100
AcDbEntity
  8
Layer_1
 62
7
100
AcDbSpline
 70
8
 71
3
 72
8
 73
4
 74
0
 40
0
 40
0
 40
0
 40
0
 40
1
 40
1
 40
1
 40
1
 10
15.626752
 20
2.343311
 30
0.0
 10
15.445669
 20
2.805068
 30
0.0
 10
15.232226
 20
3.406124
 30
0.0
 10
15.152435
 20
3.678992
 30
0.0
  0
SPLINE
  5
164
100
AcDbEntity
  8
Layer_1
 62
7
100
AcDbSpline
 70
8
 71
3
 72
8
 73
4
 74
0
 40
0
 40
0
 40
0
 40
0
 40
1
 40
1
 40
1
 40
1
 10
15.152435
 20
3.678992
 30
0.0
 10
14.943642
 20
4.393016
 30
0.0
 10
14.788031
 20
4.665222
 30
0.0
 10
14.588642
 20
4.665222
 30
0.0
  0
SPLINE
  5
165
100
AcDbEntity
  8
Layer_1
 62
7
100
AcDbSpline
 70
8
 71
3
 72
8
 73
4
 74
0
 40
0
 40
0
 40
0
 40
0
 40
1
 40
1
 40
1
 40
1
 10
14.588642
 20
4.665222
 30
0.0
 10
14.500052
 20
4.665222
 30
0.0
 10
14.460658
 20
4.384776
 30
0.0
 10
14.522812
 20
4.196547
 30
0.0
  0
SPLINE
  5
166
100
AcDbEntity
  8
Layer_1
 62
7
100
AcDbSpline
 70
8
 71
3
 72
8
 73
4
 74
0
 40
0
 40
0
 40
0
 40
0
 40
1
 40
1
 40
1
 40
1
 10
14.522812
 20
4.196547
 30
0.0
 10
14.633899
 20
3.860121
 30
0.0
 10
14.529812
 20
3.221219
 30
0.0
 10
14.318927
 20
2.944693
 30
0.0
  0
SPLINE
  5
167
100
AcDbEntity
  8
Layer_1
 62
7
100
AcDbSpline
 70
8
 71
3
 72
8
 73
4
 74
0
 40
0
 40
0
 40
0
 40
0
 40
1
 40
1
 40
1
 40
1
 10
14.318927
 20
2.944693
 30
0.0
 10
14.134495
 20
2.702891
 30
0.0
 10
13.987861
 20
2.829944
 30
0.0
 10
14.149506
 20
3.091491
 30
0.0
  0
SPLINE
  5
168
100
AcDbEntity
  8
Layer_1
 62
7
100
AcDbSpline
 70
8
 71
3
 72
8
 73
4
 74
0
 40
0
 40
0
 40
0
 40
0
 40
1
 40
1
 40
1
 40
1
 10
14.149506
 20
3.091491
 30
0.0
 10
14.327307
 20
3.379179
 30
0.0
 10
14.394193
 20
3.904792
 30
0.0
 10
14.248346
 20
3.868186
 30
0.0
  0
SPLINE
  5
169
100
AcDbEntity
  8
Layer_1
 62
7
100
AcDbSpline
 70
8
 71
3
 72
8
 73
4
 74
0
 40
0
 40
0
 40
0
 40
0
 40
1
 40
1
 40
1
 40
1
 10
14.248346
 20
3.868186
 30
0.0
 10
14.122181
 20
3.836516
 30
0.0
 10
14.109557
 20
3.911136
 30
0.0
 10
14.191236
 20
4.205707
 30
0.0
  0
SPLINE
  5
16a
100
AcDbEntity
  8
Layer_1
 62
7
100
AcDbSpline
 70
8
 71
3
 72
8
 73
4
 74
0
 40
0
 40
0
 40
0
 40
0
 40
1
 40
1
 40
1
 40
1
 10
14.191236
 20
4.205707
 30
0.0
 10
14.365727
 20
4.834974
 30
0.0
 10
14.286186
 20
5.257369
 30
0.0
 10
13.804906
 20
6.257231
 30
0.0
  0
SPLINE
  5
16b
100
AcDbEntity
  8
Layer_1
 62
7
100
AcDbSpline
 70
8
 71
3
 72
8
 73
4
 74
0
 40
0
 40
0
 40
0
 40
0
 40
1
 40
1
 40
1
 40
1
 10
13.804906
 20
6.257231
 30
0.0
 10
13.220609
 20
7.471115
 30
0.0
 10
13.041603
 20
8.251869
 30
0.0
 10
13.041603
 20
9.586455
 30
0.0
  0
SPLINE
  5
16c
100
AcDbEntity
  8
Layer_1
 62
7
100
AcDbSpline
 70
8
 71
3
 72
8
 73
4
 74
0
 40
0
 40
0
 40
0
 40
0
 40
1
 40
1
 40
1
 40
1
 10
13.041603
 20
9.586455
 30
0.0
 10
13.041603
 20
10.169874
 30
0.0
 10
13.036003
 20
10.222266
 30
0.0
 10
12.962673
 20
10.321417
 30
0.0
  0
SPLINE
  5
16d
100
AcDbEntity
  8
Layer_1
 62
7
100
AcDbSpline
 70
8
 71
3
 72
8
 73
4
 74
0
 40
0
 40
0
 40
0
 40
0
 40
1
 40
1
 40
1
 40
1
 10
12.962673
 20
10.321417
 30
0.0
 10
12.787029
 20
10.558989
 30
0.0
 10
12.979613
 20
10.616205
 30
0.0
 10
13.251387
 20
10.407197
 30
0.0
  0
SPLINE
  5
16e
100
AcDbEntity
  8
Layer_1
 62
7
100
AcDbSpline
 70
8
 71
3
 72
8
 73
4
 74
0
 40
0
 40
0
 40
0
 40
0
 40
1
 40
1
 40
1
 40
1
 10
13.251387
 20
10.407197
 30
0.0
 10
15.220725
 20
8.892686
 30
0.0
 10
15.504401
 20
8.748248
 30
0.0
 10
17.375677
 20
8.307261
 30
0.0
  0
SPLINE
  5
16f
100
AcDbEntity
  8
Layer_1
 62
7
100
AcDbSpline
 70
8
 71
3
 72
8
 73
4
 74
0
 40
0
 40
0
 40
0
 40
0
 40
1
 40
1
 40
1
 40
1
 10
17.375677
 20
8.307261
 30
0.0
 10
17.808753
 20
8.205203
 30
0.0
 10
17.808753
 20
8.205203
 30
0.0
 10
18.011049
 20
7.941995
 30
0.0
  0
SPLINE
  5
170
100
AcDbEntity
  8
Layer_1
 62
7
100
AcDbSpline
 70
8
 71
3
 72
8
 73
4
 74
0
 40
0
 40
0
 40
0
 40
0
 40
1
 40
1
 40
1
 40
1
 10
18.011049
 20
7.941995
 30
0.0
 10
18.682400
 20
7.068501
 30
0.0
 10
19.919951
 20
6.393587
 30
0.0
 10
20.862084
 20
6.387147
 30
0.0
  0
SPLINE
  5
171
100
AcDbEntity
  8
Layer_1
 62
7
100
AcDbSpline
 70
8
 71
3
 72
8
 73
4
 74
0
 40
0
 40
0
 40
0
 40
0
 40
1
 40
1
 40
1
 40
1
 10
20.862084
 20
6.387147
 30
0.0
 10
21.438753
 20
6.383247
 30
0.0
 10
21.567561
 20
6.519308
 30
0.0
 10
21.106837
 20
6.645763
 30
0.0
  0
SPLINE
  5
172
100
AcDbEntity
  8
Layer_1
 62
7
100
AcDbSpline
 70
8
 71
3
 72
8
 73
4
 74
0
 40
0
 40
0
 40
0
 40
0
 40
1
 40
1
 40
1
 40
1
 10
21.106837
 20
6.645763
 30
0.0
 10
20.512490
 20
6.808894
 30
0.0
 10
20.250411
 20
6.901161
 30
0.0
 10
20.055201
 20
7.015998
 30
0.0
  0
SPLINE
  5
173
100
AcDbEntity
  8
Layer_1
 62
7
100
AcDbSpline
 70
8
 71
3
 72
8
 73
4
 74
0
 40
0
 40
0
 40
0
 40
0
 40
1
 40
1
 40
1
 40
1
 10
20.055201
 20
7.015998
 30
0.0
 10
19.814633
 20
7.157518
 30
0.0
 10
19.783329
 20
7.163374
 30
0.0
 10
19.681021
 20
7.085988
 30
0.0
  0
SPLINE
  5
174
100
AcDbEntity
  8
Layer_1
 62
7
100
AcDbSpline
 70
8
 71
3
 72
8
 73
4
 74
0
 40
0
 40
0
 40
0
 40
0
 40
1
 40
1
 40
1
 40
1
 10
19.681021
 20
7.085988
 30
0.0
 10
19.588771
 20
7.016208
 30
0.0
 10
19.503625
 20
7.016238
 30
0.0
 10
19.518984
 20
7.086025
 30
0.0
  0
SPLINE
  5
175
100
AcDbEntity
  8
Layer_1
 62
7
100
AcDbSpline
 70
8
 71
3
 72
8
 73
4
 74
0
 40
0
 40
0
 40
0
 40
0
 40
1
 40
1
 40
1
 40
1
 10
19.518984
 20
7.086025
 30
0.0
 10
19.552834
 20
7.239890
 30
0.0
 10
20.288952
 20
7.686635
 30
0.0
 10
20.288952
 20
7.553323
 30
0.0
  0
SPLINE
  5
176
100
AcDbEntity
  8
Layer_1
 62
7
100
AcDbSpline
 70
8
 71
3
 72
8
 73
4
 74
0
 40
0
 40
0
 40
0
 40
0
 40
1
 40
1
 40
1
 40
1
 10
20.288952
 20
7.553323
 30
0.0
 10
20.288952
 20
7.514823
 30
0.0
 10
20.318072
 20
7.471573
 30
0.0
 10
20.353662
 20
7.457213
 30
0.0
  0
SPLINE
  5
177
100
AcDbEntity
  8
Layer_1
 62
7
100
AcDbSpline
 70
8
 71
3
 72
8
 73
4
 74
0
 40
0
 40
0
 40
0
 40
0
 40
1
 40
1
 40
1
 40
1
 10
20.353662
 20
7.457213
 30
0.0
 10
21.429664
 20
7.022909
 30
0.0
 10
21.407089
 20
7.122309
 30
0.0
 10
20.307442
 20
7.660724
 30
0.0
  0
SPLINE
  5
178
100
AcDbEntity
  8
Layer_1
 62
7
100
AcDbSpline
 70
8
 71
3
 72
8
 73
4
 74
0
 40
0
 40
0
 40
0
 40
0
 40
1
 40
1
 40
1
 40
1
 10
20.307442
 20
7.660724
 30
0.0
 10
18.861760
 20
8.368566
 30
0.0
 10
18.565440
 20
8.771845
 30
0.0
 10
19.368049
 20
8.939194
 30
0.0
  0
SPLINE
  5
179
100
AcDbEntity
  8
Layer_1
 62
7
100
AcDbSpline
 70
8
 71
3
 72
8
 73
4
 74
0
 40
0
 40
0
 40
0
 40
0
 40
1
 40
1
 40
1
 40
1
 10
19.368049
 20
8.939194
 30
0.0
 10
19.791958
 20
9.027584
 30
0.0
 10
20.066136
 20
9.262561
 30
0.0
 10
20.079901
 20
9.549277
 30
0.0
  0
SPLINE
  5
17a
100
AcDbEntity
  8
Layer_1
 62
7
100
AcDbSpline
 70
8
 71
3
 72
8
 73
4
 74
0
 40
0
 40
0
 40
0
 40
0
 40
1
 40
1
 40
1
 40
1
 10
20.079901
 20
9.549277
 30
0.0
 10
20.087801
 20
9.713644
 30
0.0
 10
20.029181
 20
9.718082
 30
0.0
 10
19.840806
 20
9.567377
 30
0.0
  0
SPLINE
  5
17b
100
AcDbEntity
  8
Layer_1
 62
7
100
AcDbSpline
 70
8
 71
3
 72
8
 73
4
 74
0
 40
0
 40
0
 40
0
 40
0
 40
1
 40
1
 40
1
 40
1
 10
19.840806
 20
9.567377
 30
0.0
 10
19.403115
 20
9.217220
 30
0.0
 10
18.909273
 20
8.991443
 30
0.0
 10
18.581069
 20
8.991443
 30
0.0
  0
SPLINE
  5
17c
100
AcDbEntity
  8
Layer_1
 62
7
100
AcDbSpline
 70
8
 71
3
 72
8
 73
4
 74
0
 40
0
 40
0
 40
0
 40
0
 40
1
 40
1
 40
1
 40
1
 10
18.581069
 20
8.991443
 30
0.0
 10
18.345852
 20
8.991443
 30
0.0
 10
18.175649
 20
8.917423
 30
0.0
 10
18.070139
 20
8.769250
 30
0.0
  0
SPLINE
  5
17d
100
AcDbEntity
  8
Layer_1
 62
7
100
AcDbSpline
 70
8
 71
3
 72
8
 73
4
 74
0
 40
0
 40
0
 40
0
 40
0
 40
1
 40
1
 40
1
 40
1
 10
18.070139
 20
8.769250
 30
0.0
 10
17.963576
 20
8.619596
 30
0.0
 10
17.776425
 20
8.629306
 30
0.0
 10
17.021755
 20
8.823650
 30
0.0
  0
SPLINE
  5
17e
100
AcDbEntity
  8
Layer_1
 62
7
100
AcDbSpline
 70
8
 71
3
 72
8
 73
4
 74
0
 40
0
 40
0
 40
0
 40
0
 40
1
 40
1
 40
1
 40
1
 10
17.021755
 20
8.823650
 30
0.0
 10
15.694400
 20
9.165465
 30
0.0
 10
15.341820
 20
9.370201
 30
0.0
 10
14.236995
 20
10.440704
 30
0.0
  0
SPLINE
  5
17f
100
AcDbEntity
  8
Layer_1
 62
7
100
AcDbSpline
 70
8
 71
3
 72
8
 73
4
 74
0
 40
0
 40
0
 40
0
 40
0
 40
1
 40
1
 40
1
 40
1
 10
14.236995
 20
10.440704
 30
0.0
 10
13.459837
 20
11.193719
 30
0.0
 10
13.339580
 20
11.265591
 30
0.0
 10
12.973352
 20
11.195919
 30
0.0
  0
SPLINE
  5
180
100
AcDbEntity
  8
Layer_1
 62
7
100
AcDbSpline
 70
8
 71
3
 72
8
 73
4
 74
0
 40
0
 40
0
 40
0
 40
0
 40
1
 40
1
 40
1
 40
1
 10
12.973352
 20
11.195919
 30
0.0
 10
12.712312
 20
11.146259
 30
0.0
 10
12.695108
 20
11.257489
 30
0.0
 10
12.939722
 20
11.413392
 30
0.0
  0
SPLINE
  5
181
100
AcDbEntity
  8
Layer_1
 62
7
100
AcDbSpline
 70
8
 71
3
 72
8
 73
4
 74
0
 40
0
 40
0
 40
0
 40
0
 40
1
 40
1
 40
1
 40
1
 10
12.939722
 20
11.413392
 30
0.0
 10
13.051347
 20
11.484542
 30
0.0
 10
13.059111
 20
11.616761
 30
0.0
 10
12.951662
 20
11.616761
 30
0.0
  0
SPLINE
  5
182
100
AcDbEntity
  8
Layer_1
 62
7
100
AcDbSpline
 70
8
 71
3
 72
8
 73
4
 74
0
 40
0
 40
0
 40
0
 40
0
 40
1
 40
1
 40
1
 40
1
 10
12.951662
 20
11.616761
 30
0.0
 10
12.881042
 20
11.616761
 30
0.0
 10
12.856732
 20
11.635901
 30
0.0
 10
12.856732
 20
11.691511
 30
0.0
  0
SPLINE
  5
183
100
AcDbEntity
  8
Layer_1
 62
7
100
AcDbSpline
 70
8
 71
3
 72
8
 73
4
 74
0
 40
0
 40
0
 40
0
 40
0
 40
1
 40
1
 40
1
 40
1
 10
12.856732
 20
11.691511
 30
0.0
 10
12.856732
 20
11.768271
 30
0.0
 10
12.879582
 20
11.781571
 30
0.0
 10
13.208006
 20
11.895867
 30
0.0
  0
SPLINE
  5
184
100
AcDbEntity
  8
Layer_1
 62
7
100
AcDbSpline
 70
8
 71
3
 72
8
 73
4
 74
0
 40
0
 40
0
 40
0
 40
0
 40
1
 40
1
 40
1
 40
1
 10
13.208006
 20
11.895867
 30
0.0
 10
13.866668
 20
12.125098
 30
0.0
 10
14.020696
 20
13.030151
 30
0.0
 10
13.485345
 20
13.525477
 30
0.0
  0
SPLINE
  5
185
100
AcDbEntity
  8
Layer_1
 62
7
100
AcDbSpline
 70
8
 71
3
 72
8
 73
4
 74
0
 40
0
 40
0
 40
0
 40
0
 40
1
 40
1
 40
1
 40
1
 10
13.485345
 20
13.525477
 30
0.0
 10
13.282683
 20
13.712986
 30
0.0
 10
13.334657
 20
13.881604
 30
0.0
 10
13.558235
 20
13.761950
 30
0.0
  0
SPLINE
  5
186
100
AcDbEntity
  8
Layer_1
 62
7
100
AcDbSpline
 70
8
 71
3
 72
8
 73
4
 74
0
 40
0
 40
0
 40
0
 40
0
 40
1
 40
1
 40
1
 40
1
 10
13.558235
 20
13.761950
 30
0.0
 10
13.622355
 20
13.727630
 30
0.0
 10
13.638965
 20
13.734390
 30
0.0
 10
13.666791
 20
13.806120
 30
0.0
  0
SPLINE
  5
187
100
AcDbEntity
  8
Layer_1
 62
7
100
AcDbSpline
 70
8
 71
3
 72
8
 73
4
 74
0
 40
0
 40
0
 40
0
 40
0
 40
1
 40
1
 40
1
 40
1
 10
13.666791
 20
13.806120
 30
0.0
 10
13.885067
 20
14.368702
 30
0.0
 10
14.096708
 20
14.812191
 30
0.0
 10
14.332033
 20
15.200120
 30
0.0
  0
SPLINE
  5
188
100
AcDbEntity
  8
Layer_1
 62
7
100
AcDbSpline
 70
8
 71
3
 72
8
 73
4
 74
0
 40
0
 40
0
 40
0
 40
0
 40
1
 40
1
 40
1
 40
1
 10
14.332033
 20
15.200120
 30
0.0
 10
14.555491
 20
15.568485
 30
0.0
 10
14.548909
 20
15.536115
 30
0.0
 10
14.400493
 20
15.536814
 30
0.0
  0
SPLINE
  5
189
100
AcDbEntity
  8
Layer_1
 62
7
100
AcDbSpline
 70
8
 71
3
 72
8
 73
4
 74
0
 40
0
 40
0
 40
0
 40
0
 40
1
 40
1
 40
1
 40
1
 10
14.400493
 20
15.536814
 30
0.0
 10
14.062107
 20
15.538404
 30
0.0
 10
14.133615
 20
15.726495
 30
0.0
 10
14.487623
 20
15.765997
 30
0.0
  0
SPLINE
  5
18a
100
AcDbEntity
  8
Layer_1
 62
7
100
AcDbSpline
 70
8
 71
3
 72
8
 73
4
 74
0
 40
0
 40
0
 40
0
 40
0
 40
1
 40
1
 40
1
 40
1
 10
14.487623
 20
15.765997
 30
0.0
 10
15.249978
 20
15.851063
 30
0.0
 10
15.878200
 20
16.446799
 30
0.0
 10
15.902531
 20
17.107739
 30
0.0
  0
SPLINE
  5
18b
100
AcDbEntity
  8
Layer_1
 62
7
100
AcDbSpline
 70
8
 71
3
 72
8
 73
4
 74
0
 40
0
 40
0
 40
0
 40
0
 40
1
 40
1
 40
1
 40
1
 10
15.902531
 20
17.107739
 30
0.0
 10
15.913191
 20
17.397185
 30
0.0
 10
16.066145
 20
17.446599
 30
0.0
 10
16.125462
 20
17.179758
 30
0.0
  0
SPLINE
  5
18c
100
AcDbEntity
  8
Layer_1
 62
7
100
AcDbSpline
 70
8
 71
3
 72
8
 73
4
 74
0
 40
0
 40
0
 40
0
 40
0
 40
1
 40
1
 40
1
 40
1
 10
16.125462
 20
17.179758
 30
0.0
 10
16.158772
 20
17.029920
 30
0.0
 10
16.158772
 20
17.029920
 30
0.0
 10
16.569177
 20
17.264801
 30
0.0
  0
SPLINE
  5
18d
100
AcDbEntity
  8
Layer_1
 62
7
100
AcDbSpline
 70
8
 71
3
 72
8
 73
4
 74
0
 40
0
 40
0
 40
0
 40
0
 40
1
 40
1
 40
1
 40
1
 10
16.569177
 20
17.264801
 30
0.0
 10
16.794901
 20
17.393986
 30
0.0
 10
17.378928
 20
17.697519
 30
0.0
 10
17.867015
 20
17.939319
 30
0.0
  0
SPLINE
  5
18e
100
AcDbEntity
  8
Layer_1
 62
7
100
AcDbSpline
 70
8
 71
3
 72
8
 73
4
 74
0
 40
0
 40
0
 40
0
 40
0
 40
1
 40
1
 40
1
 40
1
 10
17.867015
 20
17.939319
 30
0.0
 10
20.162101
 20
19.076314
 30
0.0
 10
20.579777
 20
20.847551
 30
0.0
 10
19.098318
 20
23.160910
 30
0.0
  0
SPLINE
  5
18f
100
AcDbEntity
  8
Layer_1
 62
7
100
AcDbSpline
 70
8
 71
3
 72
8
 73
4
 74
0
 40
0
 40
0
 40
0
 40
0
 40
1
 40
1
 40
1
 40
1
 10
19.098318
 20
23.160910
 30
0.0
 10
17.542625
 20
25.590188
 30
0.0
 10
12.788078
 20
24.536120
 30
0.0
 10
11.808988
 20
21.544889
 30
0.0
  0
SPLINE
  5
190
100
AcDbEntity
  8
Layer_1
 62
7
100
AcDbSpline
 70
8
 71
3
 72
8
 73
4
 74
0
 40
0
 40
0
 40
0
 40
0
 40
1
 40
1
 40
1
 40
1
 10
11.808988
 20
21.544889
 30
0.0
 10
11.540630
 20
20.725027
 30
0.0
 10
11.347700
 20
18.935801
 30
0.0
 10
11.502223
 20
18.699969
 30
0.0
  0
SPLINE
  5
191
100
AcDbEntity
  8
Layer_1
 62
7
100
AcDbSpline
 70
8
 71
3
 72
8
 73
4
 74
0
 40
0
 40
0
 40
0
 40
0
 40
1
 40
1
 40
1
 40
1
 10
11.502223
 20
18.699969
 30
0.0
 10
11.571383
 20
18.594420
 30
0.0
 10
11.569373
 20
18.592668
 30
0.0
 10
11.309871
 20
18.531768
 30
0.0
  0
SPLINE
  5
192
100
AcDbEntity
  8
Layer_1
 62
7
100
AcDbSpline
 70
8
 71
3
 72
8
 73
4
 74
0
 40
0
 40
0
 40
0
 40
0
 40
1
 40
1
 40
1
 40
1
 10
11.309871
 20
18.531768
 30
0.0
 10
10.359205
 20
18.308669
 30
0.0
 10
10.653663
 20
16.588654
 30
0.0
 10
11.728640
 20
16.085611
 30
0.0
  0
SPLINE
  5
193
100
AcDbEntity
  8
Layer_1
 62
7
100
AcDbSpline
 70
8
 71
3
 72
8
 73
4
 74
0
 40
0
 40
0
 40
0
 40
0
 40
1
 40
1
 40
1
 40
1
 10
11.728640
 20
16.085611
 30
0.0
 10
11.973959
 20
15.970813
 30
0.0
 10
12.035489
 20
15.883577
 30
0.0
 10
11.886105
 20
15.862362
 30
0.0
  0
SPLINE
  5
194
100
AcDbEntity
  8
Layer_1
 62
7
100
AcDbSpline
 70
8
 71
3
 72
8
 73
4
 74
0
 40
0
 40
0
 40
0
 40
0
 40
1
 40
1
 40
1
 40
1
 10
11.886105
 20
15.862362
 30
0.0
 10
11.803095
 20
15.850573
 30
0.0
 10
11.802945
 20
15.849296
 30
0.0
 10
11.821395
 20
15.295902
 30
0.0
  0
SPLINE
  5
195
100
AcDbEntity
  8
Layer_1
 62
7
100
AcDbSpline
 70
8
 71
3
 72
8
 73
4
 74
0
 40
0
 40
0
 40
0
 40
0
 40
1
 40
1
 40
1
 40
1
 10
11.821395
 20
15.295902
 30
0.0
 10
11.876055
 20
13.655958
 30
0.0
 10
11.842195
 20
13.526294
 30
0.0
 10
11.329037
 20
13.410721
 30
0.0
  0
SPLINE
  5
196
100
AcDbEntity
  8
Layer_1
 62
7
100
AcDbSpline
 70
8
 71
3
 72
8
 73
4
 74
0
 40
0
 40
0
 40
0
 40
0
 40
1
 40
1
 40
1
 40
1
 10
11.329037
 20
13.410721
 30
0.0
 10
10.909357
 20
13.316201
 30
0.0
 10
11.271377
 20
13.117434
 30
0.0
 10
11.858372
 20
13.120087
 30
0.0
  0
SPLINE
  5
197
100
AcDbEntity
  8
Layer_1
 62
7
100
AcDbSpline
 70
8
 71
3
 72
8
 73
4
 74
0
 40
0
 40
0
 40
0
 40
0
 40
1
 40
1
 40
1
 40
1
 10
11.858372
 20
13.120087
 30
0.0
 10
12.170430
 20
13.121487
 30
0.0
 10
12.260304
 20
13.138807
 30
0.0
 10
12.663403
 20
13.275138
 30
0.0
  0
SPLINE
  5
198
100
AcDbEntity
  8
Layer_1
 62
7
100
AcDbSpline
 70
8
 71
3
 72
8
 73
4
 74
0
 40
0
 40
0
 40
0
 40
0
 40
1
 40
1
 40
1
 40
1
 10
12.663403
 20
13.275138
 30
0.0
 10
13.393595
 20
13.522092
 30
0.0
 10
13.638166
 20
13.423885
 30
0.0
 10
13.695869
 20
12.860552
 30
0.0
  0
SPLINE
  5
199
100
AcDbEntity
  8
Layer_1
 62
7
100
AcDbSpline
 70
8
 71
3
 72
8
 73
4
 74
0
 40
0
 40
0
 40
0
 40
0
 40
1
 40
1
 40
1
 40
1
 10
13.695869
 20
12.860552
 30
0.0
 10
13.767939
 20
12.156992
 30
0.0
 10
13.250577
 20
11.865046
 30
0.0
 10
12.413016
 20
12.136639
 30
0.0
  0
SPLINE
  5
19a
100
AcDbEntity
  8
Layer_1
 62
7
100
AcDbSpline
 70
8
 71
3
 72
8
 73
4
 74
0
 40
0
 40
0
 40
0
 40
0
 40
1
 40
1
 40
1
 40
1
 10
12.413016
 20
12.136639
 30
0.0
 10
12.124411
 20
12.230229
 30
0.0
 10
11.440431
 20
12.280003
 30
0.0
 10
11.397505
 20
12.210549
 30
0.0
  0
SPLINE
  5
19b
100
AcDbEntity
  8
Layer_1
 62
7
100
AcDbSpline
 70
8
 71
3
 72
8
 73
4
 74
0
 40
0
 40
0
 40
0
 40
0
 40
1
 40
1
 40
1
 40
1
 10
11.397505
 20
12.210549
 30
0.0
 10
11.357435
 20
12.145709
 30
0.0
 10
11.391405
 20
12.127619
 30
0.0
 10
11.588467
 20
12.108909
 30
0.0
  0
SPLINE
  5
19c
100
AcDbEntity
  8
Layer_1
 62
7
100
AcDbSpline
 70
8
 71
3
 72
8
 73
4
 74
0
 40
0
 40
0
 40
0
 40
0
 40
1
 40
1
 40
1
 40
1
 10
11.588467
 20
12.108909
 30
0.0
 10
11.861696
 20
12.082959
 30
0.0
 10
12.095930
 20
11.912576
 30
0.0
 10
11.858372
 20
11.912576
 30
0.0
  0
SPLINE
  5
19d
100
AcDbEntity
  8
Layer_1
 62
7
100
AcDbSpline
 70
8
 71
3
 72
8
 73
4
 74
0
 40
0
 40
0
 40
0
 40
0
 40
1
 40
1
 40
1
 40
1
 10
11.858372
 20
11.912576
 30
0.0
 10
11.756234
 20
11.912576
 30
0.0
 10
11.765742
 20
11.859006
 30
0.0
 10
11.876862
 20
11.808375
 30
0.0
  0
SPLINE
  5
19e
100
AcDbEntity
  8
Layer_1
 62
7
100
AcDbSpline
 70
8
 71
3
 72
8
 73
4
 74
0
 40
0
 40
0
 40
0
 40
0
 40
1
 40
1
 40
1
 40
1
 10
11.876862
 20
11.808375
 30
0.0
 10
12.002755
 20
11.751015
 30
0.0
 10
11.993280
 20
11.690719
 30
0.0
 10
11.858372
 20
11.690719
 30
0.0
  0
SPLINE
  5
19f
100
AcDbEntity
  8
Layer_1
 62
7
100
AcDbSpline
 70
8
 71
3
 72
8
 73
4
 74
0
 40
0
 40
0
 40
0
 40
0
 40
1
 40
1
 40
1
 40
1
 10
11.858372
 20
11.690719
 30
0.0
 10
11.681478
 20
11.690719
 30
0.0
 10
11.751412
 20
11.355767
 30
0.0
 10
11.956342
 20
11.221494
 30
0.0
  0
SPLINE
  5
1a0
100
AcDbEntity
  8
Layer_1
 62
7
100
AcDbSpline
 70
8
 71
3
 72
8
 73
4
 74
0
 40
0
 40
0
 40
0
 40
0
 40
1
 40
1
 40
1
 40
1
 10
11.956342
 20
11.221494
 30
0.0
 10
12.004142
 20
11.190174
 30
0.0
 10
12.043252
 20
11.141504
 30
0.0
 10
12.043252
 20
11.113334
 30
0.0
  0
SPLINE
  5
1a1
100
AcDbEntity
  8
Layer_1
 62
7
100
AcDbSpline
 70
8
 71
3
 72
8
 73
4
 74
0
 40
0
 40
0
 40
0
 40
0
 40
1
 40
1
 40
1
 40
1
 10
12.043252
 20
11.113334
 30
0.0
 10
12.043252
 20
11.017674
 30
0.0
 10
11.900426
 20
11.061614
 30
0.0
 10
11.728954
 20
11.210024
 30
0.0
  0
SPLINE
  5
1a2
100
AcDbEntity
  8
Layer_1
 62
7
100
AcDbSpline
 70
8
 71
3
 72
8
 73
4
 74
0
 40
0
 40
0
 40
0
 40
0
 40
1
 40
1
 40
1
 40
1
 10
11.728954
 20
11.210024
 30
0.0
 10
11.465046
 20
11.438435
 30
0.0
 10
11.354327
 20
11.409988
 30
0.0
 10
10.610414
 20
10.922639
 30
0.0
  0
SPLINE
  5
1a3
100
AcDbEntity
  8
Layer_1
 62
7
100
AcDbSpline
 70
8
 71
3
 72
8
 73
4
 74
0
 40
0
 40
0
 40
0
 40
0
 40
1
 40
1
 40
1
 40
1
 10
10.610414
 20
10.922639
 30
0.0
 10
9.355186
 20
10.100320
 30
0.0
 10
9.034979
 20
9.974634
 30
0.0
 10
7.754006
 20
9.801462
 30
0.0
  0
SPLINE
  5
1a4
100
AcDbEntity
  8
Layer_1
 62
7
100
AcDbSpline
 70
8
 71
3
 72
8
 73
4
 74
0
 40
0
 40
0
 40
0
 40
0
 40
1
 40
1
 40
1
 40
1
 10
7.754006
 20
9.801462
 30
0.0
 10
6.702865
 20
9.659361
 30
0.0
 10
6.104079
 20
9.661854
 30
0.0
 10
6.026813
 20
9.808662
 30
0.0
  0
SPLINE
  5
1a5
100
AcDbEntity
  8
Layer_1
 62
7
100
AcDbSpline
 70
8
 71
3
 72
8
 73
4
 74
0
 40
0
 40
0
 40
0
 40
0
 40
1
 40
1
 40
1
 40
1
 10
6.026813
 20
9.808662
 30
0.0
 10
5.876841
 20
10.093480
 30
0.0
 10
5.572313
 20
10.341308
 30
0.0
 10
5.237138
 20
10.451249
 30
0.0
  0
SPLINE
  5
1a6
100
AcDbEntity
  8
Layer_1
 62
7
100
AcDbSpline
 70
8
 71
3
 72
8
 73
4
 74
0
 40
0
 40
0
 40
0
 40
0
 40
1
 40
1
 40
1
 40
1
 10
5.237138
 20
10.451249
 30
0.0
 10
4.737382
 20
10.615175
 30
0.0
 10
4.587389
 20
10.712219
 30
0.0
 10
4.361123
 20
11.018022
 30
0.0
  0
SPLINE
  5
1a7
100
AcDbEntity
  8
Layer_1
 62
7
100
AcDbSpline
 70
8
 71
3
 72
8
 73
4
 74
0
 40
0
 40
0
 40
0
 40
0
 40
1
 40
1
 40
1
 40
1
 10
4.361123
 20
11.018022
 30
0.0
 10
4.131355
 20
11.328559
 30
0.0
 10
4.043673
 20
11.354699
 30
0.0
 10
4.028252
 20
11.117260
 30
0.0
  0
SPLINE
  5
1a8
100
AcDbEntity
  8
Layer_1
 62
7
100
AcDbSpline
 70
8
 71
3
 72
8
 73
4
 74
0
 40
0
 40
0
 40
0
 40
0
 40
1
 40
1
 40
1
 40
1
 10
4.028252
 20
11.117260
 30
0.0
 10
4.015259
 20
10.917202
 30
0.0
 10
4.140594
 20
10.707410
 30
0.0
 10
4.370463
 20
10.544447
 30
0.0
  0
SPLINE
  5
1a9
100
AcDbEntity
  8
Layer_1
 62
7
100
AcDbSpline
 70
8
 71
3
 72
8
 73
4
 74
0
 40
0
 40
0
 40
0
 40
0
 40
1
 40
1
 40
1
 40
1
 10
4.370463
 20
10.544447
 30
0.0
 10
5.118454
 20
10.014165
 30
0.0
 10
4.956461
 20
9.774064
 30
0.0
 10
3.668228
 20
9.503611
 30
0.0
  0
SPLINE
  5
1aa
100
AcDbEntity
  8
Layer_1
 62
7
100
AcDbSpline
 70
8
 71
3
 72
8
 73
4
 74
0
 40
0
 40
0
 40
0
 40
0
 40
1
 40
1
 40
1
 40
1
 10
3.668228
 20
9.503611
 30
0.0
 10
2.837252
 20
9.329155
 30
0.0
 10
2.382303
 20
9.169639
 30
0.0
 10
2.232343
 20
9.000156
 30
0.0
  0
SPLINE
  5
1ab
100
AcDbEntity
  8
Layer_1
 62
7
100
AcDbSpline
 70
8
 71
3
 72
8
 73
4
 74
0
 40
0
 40
0
 40
0
 40
0
 40
1
 40
1
 40
1
 40
1
 10
2.232343
 20
9.000156
 30
0.0
 10
2.167062
 20
8.926376
 30
0.0
 10
2.172157
 20
8.926726
 30
0.0
 10
2.380248
 20
9.010466
 30
0.0
  0
SPLINE
  5
1ac
100
AcDbEntity
  8
Layer_1
 62
7
100
AcDbSpline
 70
8
 71
3
 72
8
 73
4
 74
0
 40
0
 40
0
 40
0
 40
0
 40
1
 40
1
 40
1
 40
1
 10
2.380248
 20
9.010466
 30
0.0
 10
2.599777
 20
9.098806
 30
0.0
 10
3.670028
 20
9.279137
 30
0.0
 10
3.713972
 20
9.235193
 30
0.0
  0
SPLINE
  5
1ad
100
AcDbEntity
  8
Layer_1
 62
7
100
AcDbSpline
 70
8
 71
3
 72
8
 73
4
 74
0
 40
0
 40
0
 40
0
 40
0
 40
1
 40
1
 40
1
 40
1
 10
3.713972
 20
9.235193
 30
0.0
 10
3.778414
 20
9.170753
 30
0.0
 10
3.592815
 20
9.091575
 30
0.0
 10
3.256860
 20
9.040193
 30
0.0
  0
SPLINE
  5
1ae
100
AcDbEntity
  8
Layer_1
 62
7
100
AcDbSpline
 70
8
 71
3
 72
8
 73
4
 74
0
 40
0
 40
0
 40
0
 40
0
 40
1
 40
1
 40
1
 40
1
 10
3.256860
 20
9.040193
 30
0.0
 10
2.726751
 20
8.959113
 30
0.0
 10
2.460051
 20
8.887680
 30
0.0
 10
2.296480
 20
8.782953
 30
0.0
  0
SPLINE
  5
1af
100
AcDbEntity
  8
Layer_1
 62
7
100
AcDbSpline
 70
8
 71
3
 72
8
 73
4
 74
0
 40
0
 40
0
 40
0
 40
0
 40
1
 40
1
 40
1
 40
1
 10
2.296480
 20
8.782953
 30
0.0
 10
2.188495
 20
8.713813
 30
0.0
 10
2.175375
 20
8.696563
 30
0.0
 10
2.244489
 20
8.714593
 30
0.0
  0
SPLINE
  5
1b0
100
AcDbEntity
  8
Layer_1
 62
7
100
AcDbSpline
 70
8
 71
3
 72
8
 73
4
 74
0
 40
0
 40
0
 40
0
 40
0
 40
1
 40
1
 40
1
 40
1
 10
2.244489
 20
8.714593
 30
0.0
 10
2.718094
 20
8.838135
 30
0.0
 10
2.798686
 20
8.849784
 30
0.0
 10
3.052552
 20
8.831388
 30
0.0
  0
SPLINE
  5
1b1
100
AcDbEntity
  8
Layer_1
 62
7
100
AcDbSpline
 70
8
 71
3
 72
8
 73
4
 74
0
 40
0
 40
0
 40
0
 40
0
 40
1
 40
1
 40
1
 40
1
 10
3.052552
 20
8.831388
 30
0.0
 10
3.283684
 20
8.814638
 30
0.0
 10
3.548149
 20
8.835388
 30
0.0
 10
3.755894
 20
8.886488
 30
0.0
  0
SPLINE
  5
1b2
100
AcDbEntity
  8
Layer_1
 62
7
100
AcDbSpline
 70
8
 71
3
 72
8
 73
4
 74
0
 40
0
 40
0
 40
0
 40
0
 40
1
 40
1
 40
1
 40
1
 10
3.755894
 20
8.886488
 30
0.0
 10
3.851048
 20
8.909908
 30
0.0
 10
3.839438
 20
8.811518
 30
0.0
 10
3.739306
 20
8.745913
 30
0.0
  0
SPLINE
  5
1b3
100
AcDbEntity
  8
Layer_1
 62
7
100
AcDbSpline
 70
8
 71
3
 72
8
 73
4
 74
0
 40
0
 40
0
 40
0
 40
0
 40
1
 40
1
 40
1
 40
1
 10
3.739306
 20
8.745913
 30
0.0
 10
3.657504
 20
8.692313
 30
0.0
 10
3.540123
 20
8.678543
 30
0.0
 10
3.087048
 20
8.669393
 30
0.0
  0
SPLINE
  5
1b4
100
AcDbEntity
  8
Layer_1
 62
7
100
AcDbSpline
 70
8
 71
3
 72
8
 73
4
 74
0
 40
0
 40
0
 40
0
 40
0
 40
1
 40
1
 40
1
 40
1
 10
3.087048
 20
8.669393
 30
0.0
 10
2.003249
 20
8.647503
 30
0.0
 10
1.749635
 20
8.289586
 30
0.0
 10
2.817621
 20
8.289156
 30
0.0
  0
SPLINE
  5
1b5
100
AcDbEntity
  8
Layer_1
 62
7
100
AcDbSpline
 70
8
 71
3
 72
8
 73
4
 74
0
 40
0
 40
0
 40
0
 40
0
 40
1
 40
1
 40
1
 40
1
 10
2.817621
 20
8.289156
 30
0.0
 10
3.587873
 20
8.288860
 30
0.0
 10
4.541995
 20
8.555671
 30
0.0
 10
5.535376
 20
9.049189
 30
0.0
  0
SPLINE
  5
1b6
100
AcDbEntity
  8
Layer_1
 62
7
100
AcDbSpline
 70
8
 71
3
 72
8
 73
4
 74
0
 40
0
 40
0
 40
0
 40
0
 40
1
 40
1
 40
1
 40
1
 10
5.535376
 20
9.049189
 30
0.0
 10
6.145484
 20
9.352296
 30
0.0
 10
6.145484
 20
9.352296
 30
0.0
 10
6.739422
 20
9.376076
 30
0.0
  0
SPLINE
  5
1b7
100
AcDbEntity
  8
Layer_1
 62
7
100
AcDbSpline
 70
8
 71
3
 72
8
 73
4
 74
0
 40
0
 40
0
 40
0
 40
0
 40
1
 40
1
 40
1
 40
1
 10
6.739422
 20
9.376076
 30
0.0
 10
8.593379
 20
9.450306
 30
0.0
 10
8.953698
 20
9.532068
 30
0.0
 10
10.228864
 20
10.167885
 30
0.0
  0
SPLINE
  5
1b8
100
AcDbEntity
  8
Layer_1
 62
7
100
AcDbSpline
 70
8
 71
3
 72
8
 73
4
 74
0
 40
0
 40
0
 40
0
 40
0
 40
1
 40
1
 40
1
 40
1
 10
10.228864
 20
10.167885
 30
0.0
 10
11.004152
 20
10.554455
 30
0.0
 10
11.107020
 20
10.616442
 30
0.0
 10
11.206609
 20
10.757057
 30
0.0
  0
SPLINE
  5
1b9
100
AcDbEntity
  8
Layer_1
 62
7
100
AcDbSpline
 70
8
 71
3
 72
8
 73
4
 74
0
 40
0
 40
0
 40
0
 40
0
 40
1
 40
1
 40
1
 40
1
 10
11.206609
 20
10.757057
 30
0.0
 10
11.314382
 20
10.909228
 30
0.0
 10
11.414620
 20
10.962694
 30
0.0
 10
11.414582
 20
10.867986
 30
0.0
  0
SPLINE
  5
1ba
100
AcDbEntity
  8
Layer_1
 62
7
100
AcDbSpline
 70
8
 71
3
 72
8
 73
4
 74
0
 40
0
 40
0
 40
0
 40
0
 40
1
 40
1
 40
1
 40
1
 10
11.414582
 20
10.867986
 30
0.0
 10
11.414545
 20
10.765544
 30
0.0
 10
11.252991
 20
10.406266
 30
0.0
 10
11.134212
 20
10.244456
 30
0.0
  0
SPLINE
  5
1bb
100
AcDbEntity
  8
Layer_1
 62
7
100
AcDbSpline
 70
8
 71
3
 72
8
 73
4
 74
0
 40
0
 40
0
 40
0
 40
0
 40
1
 40
1
 40
1
 40
1
 10
11.134212
 20
10.244456
 30
0.0
 10
10.948307
 20
9.991203
 30
0.0
 10
10.959968
 20
9.899231
 30
0.0
 10
11.174252
 20
9.928602
 30
0.0
  0
SPLINE
  5
1bc
100
AcDbEntity
  8
Layer_1
 62
7
100
AcDbSpline
 70
8
 71
3
 72
8
 73
4
 74
0
 40
0
 40
0
 40
0
 40
0
 40
1
 40
1
 40
1
 40
1
 10
11.174252
 20
9.928602
 30
0.0
 10
11.304244
 20
9.946422
 30
0.0
 10
11.340645
 20
9.939892
 30
0.0
 10
11.340645
 20
9.898752
 30
0.0
  0
SPLINE
  5
1bd
100
AcDbEntity
  8
Layer_1
 62
7
100
AcDbSpline
 70
8
 71
3
 72
8
 73
4
 74
0
 40
0
 40
0
 40
0
 40
0
 40
1
 40
1
 40
1
 40
1
 10
11.340645
 20
9.898752
 30
0.0
 10
11.340645
 20
9.819552
 30
0.0
 10
11.191529
 20
9.730970
 30
0.0
 10
11.058218
 20
9.730970
 30
0.0
  0
SPLINE
  5
1be
100
AcDbEntity
  8
Layer_1
 62
7
100
AcDbSpline
 70
8
 71
3
 72
8
 73
4
 74
0
 40
0
 40
0
 40
0
 40
0
 40
1
 40
1
 40
1
 40
1
 10
11.058218
 20
9.730970
 30
0.0
 10
10.936246
 20
9.730970
 30
0.0
 10
10.523047
 20
8.994360
 30
0.0
 10
9.710007
 20
7.327513
 30
0.0
  0
SPLINE
  5
1bf
100
AcDbEntity
  8
Layer_1
 62
7
100
AcDbSpline
 70
8
 71
3
 72
8
 73
4
 74
0
 40
0
 40
0
 40
0
 40
0
 40
1
 40
1
 40
1
 40
1
 10
9.710007
 20
7.327513
 30
0.0
 10
8.642645
 20
5.139271
 30
0.0
 10
8.757961
 20
3.746804
 30
0.0
 10
10.070225
 20
2.977765
 30
0.0
  0
SPLINE
  5
1c0
100
AcDbEntity
  8
Layer_1
 62
7
100
AcDbSpline
 70
8
 71
3
 72
8
 73
4
 74
0
 40
0
 40
0
 40
0
 40
0
 40
1
 40
1
 40
1
 40
1
 10
10.070225
 20
2.977765
 30
0.0
 10
10.261865
 20
2.865457
 30
0.0
 10
10.292408
 20
2.742458
 30
0.0
 10
10.128655
 20
2.742458
 30
0.0
  0
SPLINE
  5
1c1
100
AcDbEntity
  8
Layer_1
 62
7
100
AcDbSpline
 70
8
 71
3
 72
8
 73
4
 74
0
 40
0
 40
0
 40
0
 40
0
 40
1
 40
1
 40
1
 40
1
 10
10.128655
 20
2.742458
 30
0.0
 10
9.993940
 20
2.742458
 30
0.0
 10
9.900015
 20
2.808198
 30
0.0
 10
9.561360
 20
3.139540
 30
0.0
  0
SPLINE
  5
1c2
100
AcDbEntity
  8
Layer_1
 62
7
100
AcDbSpline
 70
8
 71
3
 72
8
 73
4
 74
0
 40
0
 40
0
 40
0
 40
0
 40
1
 40
1
 40
1
 40
1
 10
9.561360
 20
3.139540
 30
0.0
 10
9.242024
 20
3.451980
 30
0.0
 10
9.230547
 20
3.449352
 30
0.0
 10
8.957467
 20
3.001290
 30
0.0
  0
SPLINE
  5
1c3
100
AcDbEntity
  8
Layer_1
 62
7
100
AcDbSpline
 70
8
 71
3
 72
8
 73
4
 74
0
 40
0
 40
0
 40
0
 40
0
 40
1
 40
1
 40
1
 40
1
 10
8.957467
 20
3.001290
 30
0.0
 10
8.444135
 20
2.159027
 30
0.0
 10
8.721072
 20
1.702007
 30
0.0
 10
9.907818
 20
1.432956
 30
0.0
  0
SPLINE
  5
1c4
100
AcDbEntity
  8
Layer_1
 62
7
100
AcDbSpline
 70
8
 71
3
 72
8
 73
4
 74
0
 40
0
 40
0
 40
0
 40
0
 40
1
 40
1
 40
1
 40
1
 10
9.907818
 20
1.432956
 30
0.0
 10
10.120620
 20
1.384706
 30
0.0
 10
10.030290
 20
1.289990
 30
0.0
 10
9.788180
 20
1.307503
 30
0.0
  0
SPLINE
  5
1c5
100
AcDbEntity
  8
Layer_1
 62
7
100
AcDbSpline
 70
8
 71
3
 72
8
 73
4
 74
0
 40
0
 40
0
 40
0
 40
0
 40
1
 40
1
 40
1
 40
1
 10
9.788180
 20
1.307503
 30
0.0
 10
9.575345
 20
1.322893
 30
0.0
 10
9.569214
 20
1.320903
 30
0.0
 10
9.628308
 20
1.255613
 30
0.0
  0
SPLINE
  5
1c6
100
AcDbEntity
  8
Layer_1
 62
7
100
AcDbSpline
 70
8
 71
3
 72
8
 73
4
 74
0
 40
0
 40
0
 40
0
 40
0
 40
1
 40
1
 40
1
 40
1
 10
9.628308
 20
1.255613
 30
0.0
 10
9.671648
 20
1.207723
 30
0.0
 10
9.678192
 20
1.176143
 30
0.0
 10
9.650510
 20
1.148460
 30
0.0
  0
SPLINE
  5
1c7
100
AcDbEntity
  8
Layer_1
 62
7
100
AcDbSpline
 70
8
 71
3
 72
8
 73
4
 74
0
 40
0
 40
0
 40
0
 40
0
 40
1
 40
1
 40
1
 40
1
 10
9.650510
 20
1.148460
 30
0.0
 10
9.595739
 20
1.093690
 30
0.0
 10
9.407654
 20
1.195940
 30
0.0
 10
9.309426
 20
1.333891
 30
0.0
  0
SPLINE
  5
1c8
100
AcDbEntity
  8
Layer_1
 62
7
100
AcDbSpline
 70
8
 71
3
 72
8
 73
4
 74
0
 40
0
 40
0
 40
0
 40
0
 40
1
 40
1
 40
1
 40
1
 10
9.309426
 20
1.333891
 30
0.0
 10
9.191743
 20
1.499161
 30
0.0
 10
8.923534
 20
1.633808
 30
0.0
 10
8.719921
 20
1.629837
 30
0.0
  0
SPLINE
  5
1c9
100
AcDbEntity
  8
Layer_1
 62
7
100
AcDbSpline
 70
8
 71
3
 72
8
 73
4
 74
0
 40
0
 40
0
 40
0
 40
0
 40
1
 40
1
 40
1
 40
1
 10
8.719921
 20
1.629837
 30
0.0
 10
8.548941
 20
1.626537
 30
0.0
 10
8.548941
 20
1.626537
 30
0.0
 10
8.671626
 20
1.591157
 30
0.0
  0
SPLINE
  5
1ca
100
AcDbEntity
  8
Layer_1
 62
7
100
AcDbSpline
 70
8
 71
3
 72
8
 73
4
 74
0
 40
0
 40
0
 40
0
 40
0
 40
1
 40
1
 40
1
 40
1
 10
8.671626
 20
1.591157
 30
0.0
 10
8.879209
 20
1.531347
 30
0.0
 10
8.783489
 20
1.472288
 30
0.0
 10
8.342831
 20
1.388300
 30
0.0
  0
SPLINE
  5
1cb
100
AcDbEntity
  8
Layer_1
 62
7
100
AcDbSpline
 70
8
 71
3
 72
8
 73
4
 74
0
 40
0
 40
0
 40
0
 40
0
 40
1
 40
1
 40
1
 40
1
 10
8.342831
 20
1.388300
 30
0.0
 10
7.518953
 20
1.231271
 30
0.0
 10
6.961506
 20
0.908857
 30
0.0
 10
7.092073
 20
0.664891
 30
0.0
  0
SPLINE
  5
1cc
100
AcDbEntity
  8
Layer_1
 62
7
100
AcDbSpline
 70
8
 71
3
 72
8
 73
4
 74
0
 40
0
 40
0
 40
0
 40
0
 40
1
 40
1
 40
1
 40
1
 10
7.092073
 20
0.664891
 30
0.0
 10
7.143653
 20
0.568511
 30
0.0
 10
7.371126
 20
0.572381
 30
0.0
 10
7.402162
 20
0.670191
 30
0.0
  0
SPLINE
  5
1cd
100
AcDbEntity
  8
Layer_1
 62
7
100
AcDbSpline
 70
8
 71
3
 72
8
 73
4
 74
0
 40
0
 40
0
 40
0
 40
0
 40
1
 40
1
 40
1
 40
1
 10
7.402162
 20
0.670191
 30
0.0
 10
7.482651
 20
0.923790
 30
0.0
 10
8.277282
 20
1.226459
 30
0.0
 10
8.862594
 20
1.226459
 30
0.0
  0
SPLINE
  5
1ce
100
AcDbEntity
  8
Layer_1
 62
7
100
AcDbSpline
 70
8
 71
3
 72
8
 73
4
 74
0
 40
0
 40
0
 40
0
 40
0
 40
1
 40
1
 40
1
 40
1
 10
8.862594
 20
1.226459
 30
0.0
 10
9.162249
 20
1.226459
 30
0.0
 10
9.108810
 20
1.131739
 30
0.0
 10
8.780043
 20
1.080136
 30
0.0
  0
SPLINE
  5
1cf
100
AcDbEntity
  8
Layer_1
 62
7
100
AcDbSpline
 70
8
 71
3
 72
8
 73
4
 74
0
 40
0
 40
0
 40
0
 40
0
 40
1
 40
1
 40
1
 40
1
 10
8.780043
 20
1.080136
 30
0.0
 10
7.807867
 20
0.927547
 30
0.0
 10
7.323453
 20
0.674242
 30
0.0
 10
7.614274
 20
0.470542
 30
0.0
  0
SPLINE
  5
1d0
100
AcDbEntity
  8
Layer_1
 62
7
100
AcDbSpline
 70
8
 71
3
 72
8
 73
4
 74
0
 40
0
 40
0
 40
0
 40
0
 40
1
 40
1
 40
1
 40
1
 10
7.614274
 20
0.470542
 30
0.0
 10
7.739700
 20
0.382692
 30
0.0
 10
8.124549
 20
0.398792
 30
0.0
 10
8.918704
 20
0.525122
 30
0.0
  0
LWPOLYLINE
  5
1d1
100
AcDbEntity
  8
Layer_1
 62
7
100
AcDbPolyline
 90
1
 70
1
 10
7.657460
 20
0.300073
 30
0.0
  0
SPLINE
  5
1d2
100
AcDbEntity
  8
Layer_1
 62
7
100
AcDbSpline
 70
8
 71
3
 72
8
 73
4
 74
0
 40
0
 40
0
 40
0
 40
0
 40
1
 40
1
 40
1
 40
1
 10
19.291515
 20
7.631345
 30
0.0
 10
19.192105
 20
7.680535
 30
0.0
 10
19.075247
 20
7.787168
 30
0.0
 10
18.980331
 20
7.915319
 30
0.0
  0
SPLINE
  5
1d3
100
AcDbEntity
  8
Layer_1
 62
7
100
AcDbSpline
 70
8
 71
3
 72
8
 73
4
 74
0
 40
0
 40
0
 40
0
 40
0
 40
1
 40
1
 40
1
 40
1
 10
18.980331
 20
7.915319
 30
0.0
 10
18.896741
 20
8.028186
 30
0.0
 10
18.765943
 20
8.182706
 30
0.0
 10
18.689679
 20
8.258696
 30
0.0
  0
SPLINE
  5
1d4
100
AcDbEntity
  8
Layer_1
 62
7
100
AcDbSpline
 70
8
 71
3
 72
8
 73
4
 74
0
 40
0
 40
0
 40
0
 40
0
 40
1
 40
1
 40
1
 40
1
 10
18.689679
 20
8.258696
 30
0.0
 10
18.523579
 20
8.424203
 30
0.0
 10
18.521104
 20
8.436800
 30
0.0
 10
18.654689
 20
8.436800
 30
0.0
  0
SPLINE
  5
1d5
100
AcDbEntity
  8
Layer_1
 62
7
100
AcDbSpline
 70
8
 71
3
 72
8
 73
4
 74
0
 40
0
 40
0
 40
0
 40
0
 40
1
 40
1
 40
1
 40
1
 10
18.654689
 20
8.436800
 30
0.0
 10
18.766942
 20
8.436800
 30
0.0
 10
18.879556
 20
8.333447
 30
0.0
 10
19.118021
 20
8.011573
 30
0.0
  0
SPLINE
  5
1d6
100
AcDbEntity
  8
Layer_1
 62
7
100
AcDbSpline
 70
8
 71
3
 72
8
 73
4
 74
0
 40
0
 40
0
 40
0
 40
0
 40
1
 40
1
 40
1
 40
1
 10
19.118021
 20
8.011573
 30
0.0
 10
19.193351
 20
7.909888
 30
0.0
 10
19.312909
 20
7.787108
 30
0.0
 10
19.383695
 20
7.738729
 30
0.0
  0
SPLINE
  5
1d7
100
AcDbEntity
  8
Layer_1
 62
7
100
AcDbSpline
 70
8
 71
3
 72
8
 73
4
 74
0
 40
0
 40
0
 40
0
 40
0
 40
1
 40
1
 40
1
 40
1
 10
19.383695
 20
7.738729
 30
0.0
 10
19.602423
 20
7.589237
 30
0.0
 10
19.535108
 20
7.510823
 30
0.0
 10
19.291515
 20
7.631345
 30
0.0
  0
LWPOLYLINE
  5
1d8
100
AcDbEntity
  8
Layer_1
 62
7
100
AcDbPolyline
 90
1
 70
1
 10
8.918704
 20
0.525122
 30
0.0
  0
SPLINE
  5
1d9
100
AcDbEntity
  8
Layer_1
 62
7
100
AcDbSpline
 70
8
 71
3
 72
8
 73
4
 74
0
 40
0
 40
0
 40
0
 40
0
 40
1
 40
1
 40
1
 40
1
 10
4.333647
 20
9.176325
 30
0.0
 10
4.298708
 20
9.232855
 30
0.0
 10
4.342417
 20
9.279203
 30
0.0
 10
4.454244
 20
9.304196
 30
0.0
  0
SPLINE
  5
1da
100
AcDbEntity
  8
Layer_1
 62
7
100
AcDbSpline
 70
8
 71
3
 72
8
 73
4
 74
0
 40
0
 40
0
 40
0
 40
0
 40
1
 40
1
 40
1
 40
1
 10
4.454244
 20
9.304196
 30
0.0
 10
4.509937
 20
9.316646
 30
0.0
 10
4.675842
 20
9.415851
 30
0.0
 10
4.822920
 20
9.524659
 30
0.0
  0
SPLINE
  5
1db
100
AcDbEntity
  8
Layer_1
 62
7
100
AcDbSpline
 70
8
 71
3
 72
8
 73
4
 74
0
 40
0
 40
0
 40
0
 40
0
 40
1
 40
1
 40
1
 40
1
 10
4.822920
 20
9.524659
 30
0.0
 10
5.098492
 20
9.728524
 30
0.0
 10
5.269486
 20
9.788780
 30
0.0
 10
5.449965
 20
9.745619
 30
0.0
  0
SPLINE
  5
1dc
100
AcDbEntity
  8
Layer_1
 62
7
100
AcDbSpline
 70
8
 71
3
 72
8
 73
4
 74
0
 40
0
 40
0
 40
0
 40
0
 40
1
 40
1
 40
1
 40
1
 10
5.449965
 20
9.745619
 30
0.0
 10
5.716340
 20
9.681919
 30
0.0
 10
5.705120
 20
9.583064
 30
0.0
 10
5.431516
 20
9.583064
 30
0.0
  0
SPLINE
  5
1dd
100
AcDbEntity
  8
Layer_1
 62
7
100
AcDbSpline
 70
8
 71
3
 72
8
 73
4
 74
0
 40
0
 40
0
 40
0
 40
0
 40
1
 40
1
 40
1
 40
1
 10
5.431516
 20
9.583064
 30
0.0
 10
5.248623
 20
9.583064
 30
0.0
 10
5.184105
 20
9.562894
 30
0.0
 10
4.997045
 20
9.447219
 30
0.0
  0
SPLINE
  5
1de
100
AcDbEntity
  8
Layer_1
 62
7
100
AcDbSpline
 70
8
 71
3
 72
8
 73
4
 74
0
 40
0
 40
0
 40
0
 40
0
 40
1
 40
1
 40
1
 40
1
 10
4.997045
 20
9.447219
 30
0.0
 10
4.535421
 20
9.161765
 30
0.0
 10
4.381493
 20
9.098910
 30
0.0
 10
4.333647
 20
9.176325
 30
0.0
  0
LWPOLYLINE
  5
1df
100
AcDbEntity
  8
Layer_1
 62
7
100
AcDbPolyline
 90
1
 70
1
 10
19.291515
 20
7.631345
 30
0.0
  0
SPLINE
  5
1e0
100
AcDbEntity
  8
Layer_1
 62
7
100
AcDbSpline
 70
8
 71
3
 72
8
 73
4
 74
0
 40
0
 40
0
 40
0
 40
0
 40
1
 40
1
 40
1
 40
1
 10
12.103414
 20
9.585932
 30
0.0
 10
11.974027
 20
9.687708
 30
0.0
 10
11.913850
 20
9.801294
 30
0.0
 10
11.963182
 20
9.850626
 30
0.0
  0
SPLINE
  5
1e1
100
AcDbEntity
  8
Layer_1
 62
7
100
AcDbSpline
 70
8
 71
3
 72
8
 73
4
 74
0
 40
0
 40
0
 40
0
 40
0
 40
1
 40
1
 40
1
 40
1
 10
11.963182
 20
9.850626
 30
0.0
 10
11.988882
 20
9.876326
 30
0.0
 10
12.032912
 20
9.863246
 30
0.0
 10
12.101011
 20
9.809676
 30
0.0
  0
SPLINE
  5
1e2
100
AcDbEntity
  8
Layer_1
 62
7
100
AcDbSpline
 70
8
 71
3
 72
8
 73
4
 74
0
 40
0
 40
0
 40
0
 40
0
 40
1
 40
1
 40
1
 40
1
 10
12.101011
 20
9.809676
 30
0.0
 10
12.226766
 20
9.710756
 30
0.0
 10
12.355512
 20
9.709494
 30
0.0
 10
12.478171
 20
9.805976
 30
0.0
  0
SPLINE
  5
1e3
100
AcDbEntity
  8
Layer_1
 62
7
100
AcDbSpline
 70
8
 71
3
 72
8
 73
4
 74
0
 40
0
 40
0
 40
0
 40
0
 40
1
 40
1
 40
1
 40
1
 10
12.478171
 20
9.805976
 30
0.0
 10
12.592255
 20
9.895716
 30
0.0
 10
12.655214
 20
9.854246
 30
0.0
 10
12.619701
 20
9.712746
 30
0.0
  0
SPLINE
  5
1e4
100
AcDbEntity
  8
Layer_1
 62
7
100
AcDbSpline
 70
8
 71
3
 72
8
 73
4
 74
0
 40
0
 40
0
 40
0
 40
0
 40
1
 40
1
 40
1
 40
1
 10
12.619701
 20
9.712746
 30
0.0
 10
12.573951
 20
9.530444
 30
0.0
 10
12.269134
 20
9.455571
 30
0.0
 10
12.103414
 20
9.585926
 30
0.0
  0
LWPOLYLINE
  5
1e5
100
AcDbEntity
  8
Layer_1
 62
7
100
AcDbPolyline
 90
1
 70
1
 10
4.333647
 20
9.176325
 30
0.0
  0
SPLINE
  5
1e6
100
AcDbEntity
  8
Layer_1
 62
7
100
AcDbSpline
 70
8
 71
3
 72
8
 73
4
 74
0
 40
0
 40
0
 40
0
 40
0
 40
1
 40
1
 40
1
 40
1
 10
13.836545
 20
15.921085
 30
0.0
 10
13.114844
 20
16.240937
 30
0.0
 10
13.361233
 20
17.211771
 30
0.0
 10
14.279257
 20
17.665484
 30
0.0
  0
SPLINE
  5
1e7
100
AcDbEntity
  8
Layer_1
 62
7
100
AcDbSpline
 70
8
 71
3
 72
8
 73
4
 74
0
 40
0
 40
0
 40
0
 40
0
 40
1
 40
1
 40
1
 40
1
 10
14.279257
 20
17.665484
 30
0.0
 10
15.199143
 20
18.120116
 30
0.0
 10
16.034929
 20
17.550393
 30
0.0
 10
15.625483
 20
16.747813
 30
0.0
  0
SPLINE
  5
1e8
100
AcDbEntity
  8
Layer_1
 62
7
100
AcDbSpline
 70
8
 71
3
 72
8
 73
4
 74
0
 40
0
 40
0
 40
0
 40
0
 40
1
 40
1
 40
1
 40
1
 10
15.625483
 20
16.747813
 30
0.0
 10
15.312830
 20
16.134960
 30
0.0
 10
14.353890
 20
15.691802
 30
0.0
 10
13.836545
 20
15.921085
 30
0.0
  0
LWPOLYLINE
  5
1e9
100
AcDbEntity
  8
Layer_1
 62
7
100
AcDbPolyline
 90
1
 70
1
 10
12.103414
 20
9.585926
 30
0.0
  0
SPLINE
  5
1ea
100
AcDbEntity
  8
Layer_1
 62
7
100
AcDbSpline
 70
8
 71
3
 72
8
 73
4
 74
0
 40
0
 40
0
 40
0
 40
0
 40
1
 40
1
 40
1
 40
1
 10
14.583928
 20
16.096962
 30
0.0
 10
15.346097
 20
16.381988
 30
0.0
 10
15.281099
 20
16.460099
 30
0.0
 10
14.187820
 20
16.572984
 30
0.0
  0
SPLINE
  5
1eb
100
AcDbEntity
  8
Layer_1
 62
7
100
AcDbSpline
 70
8
 71
3
 72
8
 73
4
 74
0
 40
0
 40
0
 40
0
 40
0
 40
1
 40
1
 40
1
 40
1
 10
14.187820
 20
16.572984
 30
0.0
 10
13.974282
 20
16.595032
 30
0.0
 10
13.760345
 20
16.622627
 30
0.0
 10
13.712404
 20
16.634305
 30
0.0
  0
SPLINE
  5
1ec
100
AcDbEntity
  8
Layer_1
 62
7
100
AcDbSpline
 70
8
 71
3
 72
8
 73
4
 74
0
 40
0
 40
0
 40
0
 40
0
 40
1
 40
1
 40
1
 40
1
 10
13.712404
 20
16.634305
 30
0.0
 10
13.598749
 20
16.661991
 30
0.0
 10
13.561320
 20
16.596814
 30
0.0
 10
13.597853
 20
16.434831
 30
0.0
  0
SPLINE
  5
1ed
100
AcDbEntity
  8
Layer_1
 62
7
100
AcDbSpline
 70
8
 71
3
 72
8
 73
4
 74
0
 40
0
 40
0
 40
0
 40
0
 40
1
 40
1
 40
1
 40
1
 10
13.597853
 20
16.434831
 30
0.0
 10
13.681040
 20
16.065989
 30
0.0
 10
14.108998
 20
15.919354
 30
0.0
 10
14.583928
 20
16.096962
 30
0.0
  0
LWPOLYLINE
  5
1ee
100
AcDbEntity
  8
Layer_1
 62
7
100
AcDbPolyline
 90
1
 70
1
 10
13.836545
 20
15.921085
 30
0.0
  0
SPLINE
  5
1ef
100
AcDbEntity
  8
Layer_1
 62
7
100
AcDbSpline
 70
8
 71
3
 72
8
 73
4
 74
0
 40
0
 40
0
 40
0
 40
0
 40
1
 40
1
 40
1
 40
1
 10
15.489315
 20
16.741181
 30
0.0
 10
15.821233
 20
17.311851
 30
0.0
 10
15.352023
 20
17.806796
 30
0.0
 10
14.635668
 20
17.641649
 30
0.0
  0
SPLINE
  5
1f0
100
AcDbEntity
  8
Layer_1
 62
7
100
AcDbSpline
 70
8
 71
3
 72
8
 73
4
 74
0
 40
0
 40
0
 40
0
 40
0
 40
1
 40
1
 40
1
 40
1
 10
14.635668
 20
17.641649
 30
0.0
 10
14.170739
 20
17.534466
 30
0.0
 10
13.489490
 20
16.961771
 30
0.0
 10
13.643599
 20
16.807662
 30
0.0
  0
SPLINE
  5
1f1
100
AcDbEntity
  8
Layer_1
 62
7
100
AcDbSpline
 70
8
 71
3
 72
8
 73
4
 74
0
 40
0
 40
0
 40
0
 40
0
 40
1
 40
1
 40
1
 40
1
 10
13.643599
 20
16.807662
 30
0.0
 10
13.730759
 20
16.720502
 30
0.0
 10
14.208114
 20
16.723636
 30
0.0
 10
14.289963
 20
16.811902
 30
0.0
  0
SPLINE
  5
1f2
100
AcDbEntity
  8
Layer_1
 62
7
100
AcDbSpline
 70
8
 71
3
 72
8
 73
4
 74
0
 40
0
 40
0
 40
0
 40
0
 40
1
 40
1
 40
1
 40
1
 10
14.289963
 20
16.811902
 30
0.0
 10
14.337113
 20
16.862754
 30
0.0
 10
14.386193
 20
16.904359
 30
0.0
 10
14.399018
 20
16.904359
 30
0.0
  0
SPLINE
  5
1f3
100
AcDbEntity
  8
Layer_1
 62
7
100
AcDbSpline
 70
8
 71
3
 72
8
 73
4
 74
0
 40
0
 40
0
 40
0
 40
0
 40
1
 40
1
 40
1
 40
1
 10
14.399018
 20
16.904359
 30
0.0
 10
14.442918
 20
16.904359
 30
0.0
 10
14.557582
 20
16.782022
 30
0.0
 10
14.557582
 20
16.735178
 30
0.0
  0
SPLINE
  5
1f4
100
AcDbEntity
  8
Layer_1
 62
7
100
AcDbSpline
 70
8
 71
3
 72
8
 73
4
 74
0
 40
0
 40
0
 40
0
 40
0
 40
1
 40
1
 40
1
 40
1
 10
14.557582
 20
16.735178
 30
0.0
 10
14.557582
 20
16.704375
 30
0.0
 10
14.642862
 20
16.680389
 30
0.0
 10
14.807172
 20
16.664978
 30
0.0
  0
SPLINE
  5
1f5
100
AcDbEntity
  8
Layer_1
 62
7
100
AcDbSpline
 70
8
 71
3
 72
8
 73
4
 74
0
 40
0
 40
0
 40
0
 40
0
 40
1
 40
1
 40
1
 40
1
 10
14.807172
 20
16.664978
 30
0.0
 10
14.944447
 20
16.652103
 30
0.0
 10
15.090041
 20
16.636038
 30
0.0
 10
15.130714
 20
16.629277
 30
0.0
  0
SPLINE
  5
1f6
100
AcDbEntity
  8
Layer_1
 62
7
100
AcDbSpline
 70
8
 71
3
 72
8
 73
4
 74
0
 40
0
 40
0
 40
0
 40
0
 40
1
 40
1
 40
1
 40
1
 10
15.130714
 20
16.629277
 30
0.0
 10
15.325445
 20
16.596910
 30
0.0
 10
15.423136
 20
16.627397
 30
0.0
 10
15.489315
 20
16.741177
 30
0.0
  0
LWPOLYLINE
  5
1f7
100
AcDbEntity
  8
Layer_1
 62
7
100
AcDbPolyline
 90
1
 70
1
 10
14.583928
 20
16.096962
 30
0.0
  0
SPLINE
  5
1f8
100
AcDbEntity
  8
Layer_1
 62
7
100
AcDbSpline
 70
8
 71
3
 72
8
 73
4
 74
0
 40
0
 40
0
 40
0
 40
0
 40
1
 40
1
 40
1
 40
1
 10
11.839828
 20
16.199413
 30
0.0
 10
10.767813
 20
16.460394
 30
0.0
 10
10.494840
 20
18.420389
 30
0.0
 10
11.530507
 20
18.420389
 30
0.0
  0
SPLINE
  5
1f9
100
AcDbEntity
  8
Layer_1
 62
7
100
AcDbSpline
 70
8
 71
3
 72
8
 73
4
 74
0
 40
0
 40
0
 40
0
 40
0
 40
1
 40
1
 40
1
 40
1
 10
11.530507
 20
18.420389
 30
0.0
 10
12.567808
 20
18.420389
 30
0.0
 10
13.136172
 20
16.448298
 30
0.0
 10
12.169056
 20
16.204775
 30
0.0
  0
SPLINE
  5
1fa
100
AcDbEntity
  8
Layer_1
 62
7
100
AcDbSpline
 70
8
 71
3
 72
8
 73
4
 74
0
 40
0
 40
0
 40
0
 40
0
 40
1
 40
1
 40
1
 40
1
 10
12.169056
 20
16.204775
 30
0.0
 10
11.994604
 20
16.160848
 30
0.0
 10
11.998012
 20
16.160903
 30
0.0
 10
11.839828
 20
16.199415
 30
0.0
  0
LWPOLYLINE
  5
1fb
100
AcDbEntity
  8
Layer_1
 62
7
100
AcDbPolyline
 90
1
 70
1
 10
15.489315
 20
16.741177
 30
0.0
  0
SPLINE
  5
1fc
100
AcDbEntity
  8
Layer_1
 62
7
100
AcDbSpline
 70
8
 71
3
 72
8
 73
4
 74
0
 40
0
 40
0
 40
0
 40
0
 40
1
 40
1
 40
1
 40
1
 10
12.221062
 20
16.399743
 30
0.0
 10
12.405091
 20
16.501863
 30
0.0
 10
12.508173
 20
16.761123
 30
0.0
 10
12.385227
 20
16.812631
 30
0.0
  0
SPLINE
  5
1fd
100
AcDbEntity
  8
Layer_1
 62
7
100
AcDbSpline
 70
8
 71
3
 72
8
 73
4
 74
0
 40
0
 40
0
 40
0
 40
0
 40
1
 40
1
 40
1
 40
1
 10
12.385227
 20
16.812631
 30
0.0
 10
11.911212
 20
17.011220
 30
0.0
 10
11.169543
 20
17.042800
 30
0.0
 10
11.277172
 20
16.859813
 30
0.0
  0
SPLINE
  5
1fe
100
AcDbEntity
  8
Layer_1
 62
7
100
AcDbSpline
 70
8
 71
3
 72
8
 73
4
 74
0
 40
0
 40
0
 40
0
 40
0
 40
1
 40
1
 40
1
 40
1
 10
11.277172
 20
16.859813
 30
0.0
 10
11.505347
 20
16.471879
 30
0.0
 10
11.955584
 20
16.252425
 30
0.0
 10
12.221062
 20
16.399743
 30
0.0
  0
LWPOLYLINE
  5
1ff
100
AcDbEntity
  8
Layer_1
 62
7
100
AcDbPolyline
 90
1
 70
1
 10
11.839828
 20
16.199415
 30
0.0
  0
SPLINE
  5
200
100
AcDbEntity
  8
Layer_1
 62
7
100
AcDbSpline
 70
8
 71
3
 72
8
 73
4
 74
0
 40
0
 40
0
 40
0
 40
0
 40
1
 40
1
 40
1
 40
1
 10
12.514549
 20
17.135464
 30
0.0
 10
12.404222
 20
18.050049
 30
0.0
 10
11.370570
 20
18.656554
 30
0.0
 10
11.072107
 20
17.981830
 30
0.0
  0
SPLINE
  5
201
100
AcDbEntity
  8
Layer_1
 62
7
100
AcDbSpline
 70
8
 71
3
 72
8
 73
4
 74
0
 40
0
 40
0
 40
0
 40
0
 40
1
 40
1
 40
1
 40
1
 10
11.072107
 20
17.981830
 30
0.0
 10
10.994457
 20
17.806284
 30
0.0
 10
10.997937
 20
17.430845
 30
0.0
 10
11.078607
 20
17.280091
 30
0.0
  0
SPLINE
  5
202
100
AcDbEntity
  8
Layer_1
 62
7
100
AcDbSpline
 70
8
 71
3
 72
8
 73
4
 74
0
 40
0
 40
0
 40
0
 40
0
 40
1
 40
1
 40
1
 40
1
 10
11.078607
 20
17.280091
 30
0.0
 10
11.140837
 20
17.163817
 30
0.0
 10
11.592595
 20
17.106873
 30
0.0
 10
11.694359
 20
17.202475
 30
0.0
  0
SPLINE
  5
203
100
AcDbEntity
  8
Layer_1
 62
7
100
AcDbSpline
 70
8
 71
3
 72
8
 73
4
 74
0
 40
0
 40
0
 40
0
 40
0
 40
1
 40
1
 40
1
 40
1
 10
11.694359
 20
17.202475
 30
0.0
 10
11.784659
 20
17.287307
 30
0.0
 10
11.870063
 20
17.268330
 30
0.0
 10
11.922021
 20
17.151890
 30
0.0
  0
SPLINE
  5
204
100
AcDbEntity
  8
Layer_1
 62
7
100
AcDbSpline
 70
8
 71
3
 72
8
 73
4
 74
0
 40
0
 40
0
 40
0
 40
0
 40
1
 40
1
 40
1
 40
1
 10
11.922021
 20
17.151890
 30
0.0
 10
11.948351
 20
17.092882
 30
0.0
 10
12.012251
 20
17.059518
 30
0.0
 10
12.157810
 20
17.028780
 30
0.0
  0
SPLINE
  5
205
100
AcDbEntity
  8
Layer_1
 62
7
100
AcDbSpline
 70
8
 71
3
 72
8
 73
4
 74
0
 40
0
 40
0
 40
0
 40
0
 40
1
 40
1
 40
1
 40
1
 10
12.157810
 20
17.028780
 30
0.0
 10
12.524018
 20
16.951446
 30
0.0
 10
12.536291
 20
16.955116
 30
0.0
 10
12.514535
 20
17.135464
 30
0.0
  0
LWPOLYLINE
  5
206
100
AcDbEntity
  8
Layer_1
 62
7
100
AcDbPolyline
 90
1
 70
1
 10
12.221062
 20
16.399743
 30
0.0
  0
SPLINE
  5
207
100
AcDbEntity
  8
Layer_1
 62
7
100
AcDbSpline
 70
8
 71
3
 72
8
 73
4
 74
0
 40
0
 40
0
 40
0
 40
0
 40
1
 40
1
 40
1
 40
1
 10
16.357455
 20
18.189288
 30
0.0
 10
16.334415
 20
18.228413
 30
0.0
 10
16.397375
 20
18.383413
 30
0.0
 10
16.436305
 20
18.383413
 30
0.0
  0
SPLINE
  5
208
100
AcDbEntity
  8
Layer_1
 62
7
100
AcDbSpline
 70
8
 71
3
 72
8
 73
4
 74
0
 40
0
 40
0
 40
0
 40
0
 40
1
 40
1
 40
1
 40
1
 10
16.436305
 20
18.383413
 30
0.0
 10
16.574014
 20
18.383413
 30
0.0
 10
16.797373
 20
19.109296
 30
0.0
 10
16.753753
 20
19.415073
 30
0.0
  0
SPLINE
  5
209
100
AcDbEntity
  8
Layer_1
 62
7
100
AcDbSpline
 70
8
 71
3
 72
8
 73
4
 74
0
 40
0
 40
0
 40
0
 40
0
 40
1
 40
1
 40
1
 40
1
 10
16.753753
 20
19.415073
 30
0.0
 10
16.714263
 20
19.691938
 30
0.0
 10
16.714063
 20
19.687695
 30
0.0
 10
16.767443
 20
19.705489
 30
0.0
  0
SPLINE
  5
20a
100
AcDbEntity
  8
Layer_1
 62
7
100
AcDbSpline
 70
8
 71
3
 72
8
 73
4
 74
0
 40
0
 40
0
 40
0
 40
0
 40
1
 40
1
 40
1
 40
1
 10
16.767443
 20
19.705489
 30
0.0
 10
16.951610
 20
19.766878
 30
0.0
 10
16.973021
 20
18.966169
 30
0.0
 10
16.797473
 20
18.582358
 30
0.0
  0
SPLINE
  5
20b
100
AcDbEntity
  8
Layer_1
 62
7
100
AcDbSpline
 70
8
 71
3
 72
8
 73
4
 74
0
 40
0
 40
0
 40
0
 40
0
 40
1
 40
1
 40
1
 40
1
 10
16.797473
 20
18.582358
 30
0.0
 10
16.652223
 20
18.264785
 30
0.0
 10
16.429926
 20
18.066206
 30
0.0
 10
16.357455
 20
18.189288
 30
0.0
  0
LWPOLYLINE
  5
20c
100
AcDbEntity
  8
Layer_1
 62
7
100
AcDbPolyline
 90
1
 70
1
 10
12.514535
 20
17.135464
 30
0.0
  0
SPLINE
  5
20d
100
AcDbEntity
  8
Layer_1
 62
7
100
AcDbSpline
 70
8
 71
3
 72
8
 73
4
 74
0
 40
0
 40
0
 40
0
 40
0
 40
1
 40
1
 40
1
 40
1
 10
17.108944
 20
18.751284
 30
0.0
 10
17.108944
 20
18.793747
 30
0.0
 10
17.152724
 20
18.912207
 30
0.0
 10
17.206224
 20
19.014529
 30
0.0
  0
SPLINE
  5
20e
100
AcDbEntity
  8
Layer_1
 62
7
100
AcDbSpline
 70
8
 71
3
 72
8
 73
4
 74
0
 40
0
 40
0
 40
0
 40
0
 40
1
 40
1
 40
1
 40
1
 10
17.206224
 20
19.014529
 30
0.0
 10
17.291964
 20
19.178510
 30
0.0
 10
17.301314
 20
19.231138
 30
0.0
 10
17.285054
 20
19.458396
 30
0.0
  0
SPLINE
  5
20f
100
AcDbEntity
  8
Layer_1
 62
7
100
AcDbSpline
 70
8
 71
3
 72
8
 73
4
 74
0
 40
0
 40
0
 40
0
 40
0
 40
1
 40
1
 40
1
 40
1
 10
17.285054
 20
19.458396
 30
0.0
 10
17.264884
 20
19.740297
 30
0.0
 10
17.286754
 20
19.787572
 30
0.0
 10
17.386311
 20
19.677535
 30
0.0
  0
SPLINE
  5
210
100
AcDbEntity
  8
Layer_1
 62
7
100
AcDbSpline
 70
8
 71
3
 72
8
 73
4
 74
0
 40
0
 40
0
 40
0
 40
0
 40
1
 40
1
 40
1
 40
1
 10
17.386311
 20
19.677535
 30
0.0
 10
17.568194
 20
19.476556
 30
0.0
 10
17.419701
 20
18.718215
 30
0.0
 10
17.192143
 20
18.685895
 30
0.0
  0
SPLINE
  5
211
100
AcDbEntity
  8
Layer_1
 62
7
100
AcDbSpline
 70
8
 71
3
 72
8
 73
4
 74
0
 40
0
 40
0
 40
0
 40
0
 40
1
 40
1
 40
1
 40
1
 10
17.192143
 20
18.685895
 30
0.0
 10
17.128653
 20
18.676875
 30
0.0
 10
17.108943
 20
18.692365
 30
0.0
 10
17.108943
 20
18.751284
 30
0.0
  0
LWPOLYLINE
  5
212
100
AcDbEntity
  8
Layer_1
 62
7
100
AcDbPolyline
 90
1
 70
1
 10
16.357455
 20
18.189288
 30
0.0
  0
SPLINE
  5
213
100
AcDbEntity
  8
Layer_1
 62
7
100
AcDbSpline
 70
8
 71
3
 72
8
 73
4
 74
0
 40
0
 40
0
 40
0
 40
0
 40
1
 40
1
 40
1
 40
1
 10
17.676678
 20
19.031231
 30
0.0
 10
17.664818
 20
19.062140
 30
0.0
 10
17.691288
 20
19.171514
 30
0.0
 10
17.735498
 20
19.274284
 30
0.0
  0
SPLINE
  5
214
100
AcDbEntity
  8
Layer_1
 62
7
100
AcDbSpline
 70
8
 71
3
 72
8
 73
4
 74
0
 40
0
 40
0
 40
0
 40
0
 40
1
 40
1
 40
1
 40
1
 10
17.735498
 20
19.274284
 30
0.0
 10
17.786808
 20
19.393564
 30
0.0
 10
17.811748
 20
19.516990
 30
0.0
 10
17.804448
 20
19.615580
 30
0.0
  0
SPLINE
  5
215
100
AcDbEntity
  8
Layer_1
 62
7
100
AcDbSpline
 70
8
 71
3
 72
8
 73
4
 74
0
 40
0
 40
0
 40
0
 40
0
 40
1
 40
1
 40
1
 40
1
 10
17.804448
 20
19.615580
 30
0.0
 10
17.788578
 20
19.829886
 30
0.0
 10
17.882248
 20
19.823058
 30
0.0
 10
17.963160
 20
19.604009
 30
0.0
  0
SPLINE
  5
216
100
AcDbEntity
  8
Layer_1
 62
7
100
AcDbSpline
 70
8
 71
3
 72
8
 73
4
 74
0
 40
0
 40
0
 40
0
 40
0
 40
1
 40
1
 40
1
 40
1
 10
17.963160
 20
19.604009
 30
0.0
 10
18.016810
 20
19.458770
 30
0.0
 10
18.018240
 20
19.417126
 30
0.0
 10
17.974600
 20
19.271223
 30
0.0
  0
SPLINE
  5
217
100
AcDbEntity
  8
Layer_1
 62
7
100
AcDbSpline
 70
8
 71
3
 72
8
 73
4
 74
0
 40
0
 40
0
 40
0
 40
0
 40
1
 40
1
 40
1
 40
1
 10
17.974600
 20
19.271223
 30
0.0
 10
17.906030
 20
19.041959
 30
0.0
 10
17.727693
 20
18.898300
 30
0.0
 10
17.676682
 20
19.031231
 30
0.0
  0
LWPOLYLINE
  5
218
100
AcDbEntity
  8
Layer_1
 62
7
100
AcDbPolyline
 90
1
 70
1
 10
17.108943
 20
18.751284
 30
0.0
  0
SPLINE
  5
219
100
AcDbEntity
  8
Layer_1
 62
7
100
AcDbSpline
 70
8
 71
3
 72
8
 73
4
 74
0
 40
0
 40
0
 40
0
 40
0
 40
1
 40
1
 40
1
 40
1
 10
7.118553
 20
1.046849
 30
0.0
 10
7.304362
 20
1.209992
 30
0.0
 10
7.711073
 20
1.393262
 30
0.0
 10
8.123714
 20
1.499790
 30
0.0
  0
SPLINE
  5
21a
100
AcDbEntity
  8
Layer_1
 62
7
100
AcDbSpline
 70
8
 71
3
 72
8
 73
4
 74
0
 40
0
 40
0
 40
0
 40
0
 40
1
 40
1
 40
1
 40
1
 10
8.123714
 20
1.499790
 30
0.0
 10
8.376348
 20
1.565010
 30
0.0
 10
8.438647
 20
1.591200
 30
0.0
 10
8.345571
 20
1.593070
 30
0.0
  0
SPLINE
  5
21b
100
AcDbEntity
  8
Layer_1
 62
7
100
AcDbSpline
 70
8
 71
3
 72
8
 73
4
 74
0
 40
0
 40
0
 40
0
 40
0
 40
1
 40
1
 40
1
 40
1
 10
8.345571
 20
1.593070
 30
0.0
 10
7.973018
 20
1.600570
 30
0.0
 10
7.211434
 20
1.320912
 30
0.0
 10
7.035751
 20
1.112125
 30
0.0
  0
SPLINE
  5
21c
100
AcDbEntity
  8
Layer_1
 62
7
100
AcDbSpline
 70
8
 71
3
 72
8
 73
4
 74
0
 40
0
 40
0
 40
0
 40
0
 40
1
 40
1
 40
1
 40
1
 10
7.035751
 20
1.112125
 30
0.0
 10
6.865838
 20
0.910194
 30
0.0
 10
6.916988
 20
0.869868
 30
0.0
 10
7.118553
 20
1.046845
 30
0.0
  0
LWPOLYLINE
  5
21d
100
AcDbEntity
  8
Layer_1
 62
7
100
AcDbPolyline
 90
1
 70
1
 10
17.676682
 20
19.031231
 30
0.0
  0
SPLINE
  5
21e
100
AcDbEntity
  8
Layer_1
 62
7
100
AcDbSpline
 70
8
 71
3
 72
8
 73
4
 74
0
 40
0
 40
0
 40
0
 40
0
 40
1
 40
1
 40
1
 40
1
 10
21.718509
 20
6.534881
 30
0.0
 10
21.787889
 20
6.715675
 30
0.0
 10
21.593342
 20
6.838693
 30
0.0
 10
20.751106
 20
7.146606
 30
0.0
  0
SPLINE
  5
21f
100
AcDbEntity
  8
Layer_1
 62
7
100
AcDbSpline
 70
8
 71
3
 72
8
 73
4
 74
0
 40
0
 40
0
 40
0
 40
0
 40
1
 40
1
 40
1
 40
1
 10
20.751106
 20
7.146606
 30
0.0
 10
20.154740
 20
7.364632
 30
0.0
 10
20.050086
 20
7.389816
 30
0.0
 10
20.009995
 20
7.324947
 30
0.0
  0
SPLINE
  5
220
100
AcDbEntity
  8
Layer_1
 62
7
100
AcDbSpline
 70
8
 71
3
 72
8
 73
4
 74
0
 40
0
 40
0
 40
0
 40
0
 40
1
 40
1
 40
1
 40
1
 10
20.009995
 20
7.324947
 30
0.0
 10
19.939755
 20
7.211289
 30
0.0
 10
20.383385
 20
7.001289
 30
0.0
 10
21.026208
 20
6.843908
 30
0.0
  0
SPLINE
  5
221
100
AcDbEntity
  8
Layer_1
 62
7
100
AcDbSpline
 70
8
 71
3
 72
8
 73
4
 74
0
 40
0
 40
0
 40
0
 40
0
 40
1
 40
1
 40
1
 40
1
 10
21.026208
 20
6.843908
 30
0.0
 10
21.404638
 20
6.751258
 30
0.0
 10
21.514533
 20
6.697564
 30
0.0
 10
21.581383
 20
6.572654
 30
0.0
  0
SPLINE
  5
222
100
AcDbEntity
  8
Layer_1
 62
7
100
AcDbSpline
 70
8
 71
3
 72
8
 73
4
 74
0
 40
0
 40
0
 40
0
 40
0
 40
1
 40
1
 40
1
 40
1
 10
21.581383
 20
6.572654
 30
0.0
 10
21.639663
 20
6.463759
 30
0.0
 10
21.686289
 20
6.450916
 30
0.0
 10
21.718509
 20
6.534884
 30
0.0
  0
LWPOLYLINE
  5
223
100
AcDbEntity
  8
Layer_1
 62
7
100
AcDbPolyline
 90
1
 70
1
 10
7.118553
 20
1.046845
 30
0.0
  0
SPLINE
  5
224
100
AcDbEntity
  8
Layer_1
 62
7
100
AcDbSpline
 70
8
 71
3
 72
8
 73
4
 74
0
 40
0
 40
0
 40
0
 40
0
 40
1
 40
1
 40
1
 40
1
 10
13.115508
 20
12.282331
 30
0.0
 10
13.166348
 20
12.322101
 30
0.0
 10
13.228748
 20
12.355011
 30
0.0
 10
13.254169
 20
12.355461
 30
0.0
  0
SPLINE
  5
225
100
AcDbEntity
  8
Layer_1
 62
7
100
AcDbSpline
 70
8
 71
3
 72
8
 73
4
 74
0
 40
0
 40
0
 40
0
 40
0
 40
1
 40
1
 40
1
 40
1
 10
13.254169
 20
12.355461
 30
0.0
 10
13.404014
 20
12.358161
 30
0.0
 10
13.266769
 20
12.430241
 30
0.0
 10
13.111853
 20
12.430241
 30
0.0
  0
SPLINE
  5
226
100
AcDbEntity
  8
Layer_1
 62
7
100
AcDbSpline
 70
8
 71
3
 72
8
 73
4
 74
0
 40
0
 40
0
 40
0
 40
0
 40
1
 40
1
 40
1
 40
1
 10
13.111853
 20
12.430241
 30
0.0
 10
12.814927
 20
12.430241
 30
0.0
 10
12.538264
 20
12.270500
 30
0.0
 10
12.773478
 20
12.234867
 30
0.0
  0
SPLINE
  5
227
100
AcDbEntity
  8
Layer_1
 62
7
100
AcDbSpline
 70
8
 71
3
 72
8
 73
4
 74
0
 40
0
 40
0
 40
0
 40
0
 40
1
 40
1
 40
1
 40
1
 10
12.773478
 20
12.234867
 30
0.0
 10
12.975149
 20
12.204317
 30
0.0
 10
13.024528
 20
12.211167
 30
0.0
 10
13.115508
 20
12.282337
 30
0.0
  0
LWPOLYLINE
  5
228
100
AcDbEntity
  8
Layer_1
 62
7
100
AcDbPolyline
 90
1
 70
1
 10
21.718509
 20
6.534884
 30
0.0
  0
LWPOLYLINE
  5
229
100
AcDbEntity
  8
Layer_1
 62
7
100
AcDbPolyline
 90
1
 70
1
 10
13.115508
 20
12.282337
 30
0.0
  0
ENDSEC
  0
SECTION
  2
OBJECTS
  0
DICTIONARY
  5
C
330
0
100
AcDbDictionary
  3
ACAD_GROUP
350
D
  3
ACAD_MLINESTYLE
350
17
  0
DICTIONARY
  5
D
330
C
100
AcDbDictionary
  0
DICTIONARY
  5
1A
330
C
100
AcDbDictionary
  0
DICTIONARY
  5
17
330
C
100
AcDbDictionary
  3
STANDARD
350
18
  0
DICTIONARY
  5
19
330
C
100
AcDbDictionary
  0
ENDSEC
  0
EOF
