<?xml version="1.0" standalone="yes"?>
<!DOCTYPE svg PUBLIC "-//W3C//DTD SVG 1.1//EN"
 "http://www.w3.org/Graphics/SVG/1.1/DTD/svg11.dtd">
<svg xmlns="http://www.w3.org/2000/svg" version="1.1"
  width="100%" height="100%" viewBox="0 0 1200 900"
  style="fill: none; font-family: Arial;
 font: Arial;
">

<!-- Creator: NGspice -->

<rect x="0" y="0" width="1200" height="900" fill="black" stroke="none"/>
<text stroke="none" fill="cyan" font-size="24" x="420" y="876">
Frequency
</text>
<text transform="rotate(-90, 32, 530)"  stroke="none" fill="cyan" font-size="24" x="32" y="530">
Ids (db A)
</text>
<text stroke="none" fill="cyan" font-size="24" x="16" y="24">
sp729: Ids spectrum
</text>
<path stroke="cyan" d="M150 804l0 -704"/>
<text stroke="none" fill="cyan" font-size="24" x="126" y="840">
0.0
</text>
<path stroke="cyan" stroke-dasharray="1,2" d="M337 804l0 -704"/>
<text stroke="none" fill="cyan" font-size="24" x="305" y="840">
50.0
</text>
<path stroke="cyan" stroke-dasharray="1,2" d="M524 804l0 -704"/>
<text stroke="none" fill="cyan" font-size="24" x="484" y="840">
100.0
</text>
<path stroke="cyan" stroke-dasharray="1,2" d="M711 804l0 -704"/>
<text stroke="none" fill="cyan" font-size="24" x="671" y="840">
150.0
</text>
<path stroke="cyan" stroke-dasharray="1,2" d="M898 804l0 -704"/>
<text stroke="none" fill="cyan" font-size="24" x="858" y="840">
200.0
</text>
<path stroke="cyan" stroke-dasharray="1,2" d="M1085 804l0 -704"/>
<text stroke="none" fill="cyan" font-size="24" x="1045" y="840">
250.0
</text>
<text stroke="none" fill="cyan" font-size="24" x="720" y="876">
kHz
</text>
<path stroke="cyan" stroke-dasharray="1,2" d="M150 804l935 0"/>
<text stroke="none" fill="cyan" font-size="24" x="52" y="816">
-140.0
</text>
<path stroke="cyan" stroke-dasharray="1,2" d="M150 716l935 0"/>
<text stroke="none" fill="cyan" font-size="24" x="52" y="728">
-120.0
</text>
<path stroke="cyan" stroke-dasharray="1,2" d="M150 628l935 0"/>
<text stroke="none" fill="cyan" font-size="24" x="52" y="640">
-100.0
</text>
<path stroke="cyan" stroke-dasharray="1,2" d="M150 540l935 0"/>
<text stroke="none" fill="cyan" font-size="24" x="68" y="552">
-80.0
</text>
<path stroke="cyan" stroke-dasharray="1,2" d="M150 452l935 0"/>
<text stroke="none" fill="cyan" font-size="24" x="68" y="464">
-60.0
</text>
<path stroke="cyan" stroke-dasharray="1,2" d="M150 364l935 0"/>
<text stroke="none" fill="cyan" font-size="24" x="68" y="376">
-40.0
</text>
<path stroke="cyan" stroke-dasharray="1,2" d="M150 276l935 0"/>
<text stroke="none" fill="cyan" font-size="24" x="68" y="288">
-20.0
</text>
<path stroke="cyan" d="M150 188l935 0"/>
<text stroke="none" fill="cyan" font-size="24" x="100" y="200">
0.0
</text>
<path stroke="cyan" stroke-dasharray="1,2" d="M150 100l935 0"/>
<text stroke="none" fill="cyan" font-size="24" x="84" y="112">
20.0
</text>
<text stroke="none" fill="cyan" font-size="24" x="16" y="48">
dB
</text>
<path stroke="green" d="M467 35l46 0"/>
<text stroke="none" fill="cyan" font-size="24" x="529" y="48">
db(id)
</text>
<path stroke="green" d="M150 127l0 28 0 34 0 35 0 -32 1 36 0 -30 0 -31 0 -23 0 33 0 40 0 40 0 -24 0 46 1 -19 0 -7 0 46 0 -28 0 6 0 20 0 -41 0 29 0 -37 1 -35 0 -27 0 30 0 37 0 38 0 -27 0 45 0 -22 0 -11 1 23 0 6 0 1 0 16 0 -42 0 28 0 -38 0 -36"/>
<path stroke="green" d="M154 234l0 -28 1 29 0 36 0 37 0 -27 0 44 0 -24 0 -13 0 12 0 32 1 -5 0 12 0 -42 0 27 0 -39 0 -36 0 -29 0 28 1 36 0 35 0 -27 0 44 0 -26 0 -14 0 5 0 59 0 -17 1 9 0 -42 0 27 0 -40 0 -37 0 -30 0 28 0 36 0 35 1 -28 0 44 0 -27"/>
<path stroke="green" d="M159 318l0 -16 0 91 0 -34 0 5 0 -43 1 26 0 -41 0 -37 0 -30 0 28 0 35 0 34 0 -27 0 43 1 -28 0 -17 0 -4 0 105 0 -34 0 -43 0 25 0 -41 1 -38 0 -30 0 27 0 35 0 34 0 -28 0 44 0 -29 0 -18 1 -7 0 86 0 -3 0 -4 0 -44 0 25 0 -42"/>
<path stroke="green" d="M163 323l0 -38 0 -30 1 26 0 35 0 33 0 -27 0 43 0 -30 0 -19 0 -9 0 73 1 21 0 -8 0 -44 0 24 0 -42 0 -39 0 -31 0 27 0 34 1 33 0 -28 0 44 0 -31 0 -20 0 -11 0 65 0 35 0 -6 1 -46 0 23 0 -42 0 -39 0 -31 0 26 0 35 0 31 1 -27 0 44"/>
<path stroke="green" d="M168 377l0 -32 0 -21 0 -12 0 58 0 42 0 -47 1 22 0 -42 0 -39 0 -32 0 26 0 35 0 31 0 -27 0 43 1 -33 0 -20 0 -14 0 54 0 43 0 8 0 -48 0 21 0 -41 1 -40 0 -31 0 25 0 35 0 30 0 -27 0 44 0 -34 0 -21 1 -15 0 50 0 43 0 17 0 -49"/>
<path stroke="green" d="M172 379l0 20 0 -41 0 -40 0 -31 1 25 0 34 0 31 0 -27 0 43 0 -33 0 -22 0 -17 0 48 1 41 0 25 0 -50 0 20 0 -40 0 -41 0 -31 0 25 0 34 1 31 0 -28 0 44 0 -34 0 -22 0 -18 0 46 0 38 0 31 1 -50 0 20 0 -39 0 -41 0 -31 0 25 0 34"/>
<path stroke="green" d="M176 358l0 31 0 -28 1 44 0 -35 0 -22 0 -18 0 43 0 36 0 34 0 -49 0 21 1 -39 0 -40 0 -31 0 25 0 35 0 30 0 -28 0 44 1 -35 0 -23 0 -19 0 41 0 35 0 35 0 -48 0 22 0 -38 1 -39 0 -31 0 25 0 35 0 30 0 -27 0 43 0 -34 0 -24 1 -19"/>
<path stroke="green" d="M181 340l0 38 0 34 0 34 0 -46 0 23 0 -37 0 -39 0 -31 1 26 0 35 0 31 0 -28 0 43 0 -34 0 -23 0 -21 0 37 1 32 0 32 0 -43 0 24 0 -37 0 -38 0 -30 0 26 0 35 1 31 0 -27 0 43 0 -33 0 -25 0 -21 0 34 0 32 0 29 1 -41 0 27 0 -38 0 -37"/>
<path stroke="green" d="M185 357l0 -30 0 27 0 35 0 32 0 -27 1 43 0 -33 0 -24 0 -22 0 31 0 30 0 27 0 -39 0 29 1 -38 0 -36 0 -30 0 28 0 35 0 34 0 -28 0 43 0 -31 1 -25 0 -23 0 28 0 29 0 24 0 -36 0 30 0 -39 0 -35 1 -29 0 28 0 36 0 35 0 -27 0 42 0 -28"/>
<path stroke="green" d="M189 423l0 -26 0 -24 1 23 0 29 0 21 0 -34 0 32 0 -39 0 -35 0 -28 1 29 0 36 0 36 0 -26 0 42 0 -26 0 -26 0 -27 0 19 1 29 0 19 0 -32 0 34 0 -41 0 -33 0 -28 0 29 0 37 1 36 0 -24 0 42 0 -21 0 -28 0 -32 0 15 0 30 0 16 1 -30"/>
<path stroke="green" d="M194 417l0 37 0 -42 0 -33 0 -28 0 30 0 37 0 37 0 -22 1 43 0 -15 0 -33 0 -38 0 13 0 30 0 15 0 -28 0 39 1 -44 0 -32 0 -27 0 30 0 38 0 37 0 -20 0 44 0 -4 1 -46 0 -43 0 12 0 31 0 14 0 -26 0 41 0 -45 0 -31 1 -27 0 31 0 38 0 36"/>
<path stroke="green" d="M198 466l0 -16 0 44 0 18 0 -75 0 -44 1 12 0 32 0 14 0 -25 0 44 0 -48 0 -29 0 -27 0 31 1 39 0 35 0 -12 0 43 0 71 0 -137 0 -44 0 13 0 34 1 13 0 -23 0 47 0 -50 0 -28 0 -27 0 32 0 39 1 34 0 -7 0 39 0 10 0 -86 0 -42 0 15 0 35"/>
<path stroke="green" d="M202 440l0 14 1 -22 0 50 0 -51 0 -27 0 -27 0 33 0 40 0 31 1 30 0 -14 0 -68 0 -40 0 17 0 35 0 15 0 -21 0 53 1 -53 0 -25 0 -26 0 34 0 40 0 29 0 9 0 15 0 -25 1 -60 0 -37 0 18 0 35 0 16 0 -20 0 56 0 -55 0 -23 1 -24 0 35 0 41"/>
<path stroke="green" d="M207 468l0 26 0 23 0 -8 0 -31 0 -54 0 -36 1 20 0 35 0 18 0 -20 0 58 0 -55 0 -21 0 -23 0 39 1 42 0 21 0 31 0 -27 0 -33 0 -50 0 -35 0 21 0 36 1 19 0 -20 0 59 0 -54 0 -19 0 -21 0 44 0 44 0 13 1 6 0 -12 0 -35 0 -47 0 -34 0 22"/>
<path stroke="green" d="M211 410l0 36 0 21 0 -20 1 58 0 -51 0 -16 0 -19 0 54 0 43 0 -1 0 -17 1 3 0 -35 0 -44 0 -33 0 23 0 36 0 23 0 -21 0 57 1 -48 0 -14 0 -16 0 66 0 25 0 -6 0 -28 0 14 0 -37 1 -42 0 -32 0 25 0 36 0 24 0 -21 0 54 0 -43 0 -14 1 -15"/>
<path stroke="green" d="M216 435l0 50 0 21 0 2 0 -31 0 22 0 -39 0 -39 0 -31 1 25 0 36 0 27 0 -22 0 50 0 -37 0 -15 0 -17 0 30 1 27 0 7 0 -30 0 27 0 -40 0 -37 0 -30 0 26 0 36 1 30 0 -23 0 46 0 -32 0 -19 0 -22 0 22 0 30 0 10 1 -29 0 32 0 -42 0 -35"/>
<path stroke="green" d="M220 421l0 -30 0 28 0 36 0 32 0 -24 1 42 0 -25 0 -25 0 -26 0 18 0 31 0 11 0 -27 0 37 1 -45 0 -33 0 -29 0 28 0 36 0 34 0 -23 0 38 0 -19 1 -31 0 -30 0 16 0 33 0 11 0 -25 0 39 0 -46 0 -32 1 -29 0 30 0 36 0 35 0 -23 0 35 0 -13"/>
<path stroke="green" d="M224 492l0 -38 1 -32 0 15 0 34 0 11 0 -24 0 43 0 -49 0 -30 0 -29 1 30 0 36 0 36 0 -22 0 32 0 -6 0 -45 0 -34 0 14 1 36 0 10 0 -23 0 45 0 -50 0 -30 0 -28 0 30 0 36 1 37 0 -21 0 29 0 1 0 -52 0 -35 0 14 0 36 0 9 1 -21 0 47"/>
<path stroke="green" d="M229 504l0 -52 0 -29 0 -28 0 31 0 36 0 36 0 -19 1 27 0 8 0 -60 0 -36 0 14 0 37 0 8 0 -20 0 50 1 -54 0 -29 0 -28 0 31 0 36 0 35 0 -16 0 25 0 16 1 -68 0 -36 0 13 0 37 0 8 0 -19 0 52 0 -56 0 -28 1 -28 0 31 0 36 0 34 0 -14"/>
<path stroke="green" d="M233 485l0 23 0 25 0 -77 0 -37 1 14 0 37 0 8 0 -19 0 54 0 -58 0 -27 0 -28 0 31 1 36 0 33 0 -12 0 21 0 35 0 -86 0 -38 0 14 1 38 0 7 0 -18 0 56 0 -60 0 -26 0 -29 0 31 0 37 1 32 0 -11 0 20 0 45 0 -97 0 -37 0 14 0 38 0 6 1 -17"/>
<path stroke="green" d="M238 463l0 58 0 -61 0 -26 0 -29 0 32 0 36 0 31 0 -9 1 18 0 56 0 -108 0 -37 0 14 0 38 0 6 0 -16 0 60 1 -63 0 -26 0 -28 0 32 0 36 0 30 0 -7 0 16 0 66 1 -119 0 -37 0 14 0 39 0 6 0 -16 0 62 0 -64 0 -25 1 -29 0 32 0 36 0 31"/>
<path stroke="green" d="M242 512l0 -5 0 12 0 62 0 -116 0 -37 1 15 0 38 0 8 0 -17 0 65 0 -66 0 -24 0 -28 0 32 1 36 0 31 0 -3 0 7 0 45 0 -101 0 -36 0 16 0 38 1 8 0 -16 0 67 0 -67 0 -23 0 -28 0 34 0 35 0 32 1 0 0 -1 0 27 0 -84 0 -36 0 17 0 38 0 10"/>
<path stroke="green" d="M246 497l1 -16 0 69 0 -69 0 -21 0 -27 0 36 0 34 0 35 0 3 1 -12 0 10 0 -70 0 -35 0 18 0 38 0 12 0 -16 0 70 1 -69 0 -19 0 -25 0 39 0 33 0 38 0 5 0 -25 0 -4 1 -60 0 -33 0 20 0 37 0 15 0 -17 0 68 0 -65 0 -16 1 -23 0 46 0 29"/>
<path stroke="green" d="M251 530l0 37 0 -13 0 -18 0 -16 0 -51 0 -32 1 22 0 37 0 18 0 -18 0 63 0 -57 0 -12 0 -20 0 57 1 19 0 13 0 -24 0 5 0 -28 0 -43 0 -32 0 24 0 37 1 22 0 -19 0 54 0 -43 0 -11 0 -17 0 34 0 28 0 -4 1 -21 0 23 0 -39 0 -37 0 -30"/>
<path stroke="green" d="M255 438l0 25 0 36 0 26 0 -19 1 43 0 -27 0 -17 0 -23 0 13 0 37 0 -3 0 -18 0 37 1 -48 0 -32 0 -31 0 28 0 35 0 29 0 -18 0 32 0 -8 1 -35 0 -31 0 11 0 40 0 -1 0 -16 0 49 0 -57 1 -29 0 -29 0 29 0 34 0 31 0 -15 0 22 0 11 0 -57"/>
<path stroke="green" d="M259 492l1 -34 0 13 0 40 0 1 0 -15 0 58 0 -64 0 -26 0 -29 1 30 0 34 0 31 0 -12 0 14 0 31 0 -79 0 -35 0 14 1 40 0 3 0 -15 0 66 0 -70 0 -24 0 -29 0 31 0 34 1 30 0 -8 0 8 0 44 0 -95 0 -34 0 14 0 40 0 4 1 -14 0 72 0 -75 0 -23"/>
<path stroke="green" d="M264 463l0 -29 0 32 0 33 0 30 0 -5 1 3 0 49 0 -101 0 -34 0 14 0 41 0 4 0 -14 0 77 1 -79 0 -22 0 -29 0 33 0 33 0 28 0 -1 0 -2 0 48 1 -100 0 -34 0 15 0 41 0 4 0 -13 0 80 0 -82 0 -21 1 -29 0 33 0 32 0 28 0 -3 0 44 0 -97 0 -34"/>
<path stroke="green" d="M268 436l1 15 0 41 0 4 0 -12 0 82 0 -84 0 -21 0 -29 1 33 0 33 0 28 0 -5 0 43 0 -95 0 -34 0 16 1 41 0 4 0 -13 0 83 0 -84 0 -21 0 -29 0 34 0 32 1 28 0 -5 0 40 0 -92 0 -34 0 16 0 41 0 4 1 -13 0 84 0 -85 0 -20 0 -29 0 33 0 32"/>
<path stroke="green" d="M273 498l0 30 0 -2 1 -5 0 37 0 -89 0 -33 0 15 0 42 0 4 0 -13 0 83 1 -84 0 -20 0 -29 0 33 0 32 0 31 0 -4 0 -5 0 34 1 -85 0 -33 0 16 0 41 0 5 0 -13 0 81 0 -83 0 -20 1 -29 0 34 0 31 0 33 0 -7 0 -4 0 29 0 -80 0 -33 1 17 0 41"/>
<path stroke="green" d="M278 496l0 5 0 -14 0 80 0 -81 0 -20 0 -29 0 34 1 31 0 36 0 -11 0 -3 0 23 0 -75 0 -32 0 17 0 41 1 6 0 -14 0 77 0 -79 0 -20 0 -29 0 35 0 30 1 40 0 -17 0 -1 0 17 0 -69 0 -32 0 17 0 41 0 7 1 -14 0 74 0 -76 0 -20 0 -29 0 35"/>
<path stroke="green" d="M282 477l0 30 0 45 0 -23 1 0 0 11 0 -65 0 -31 0 18 0 40 0 9 0 -15 0 71 1 -72 0 -21 0 -28 0 36 0 29 0 53 0 -34 0 2 0 4 1 -59 0 -31 0 20 0 39 0 11 0 -17 0 68 0 -68 0 -21 1 -27 0 37 0 28 0 67 0 -50 0 2 0 -2 0 -54 0 -31 1 21"/>
<path stroke="green" d="M287 469l0 39 0 13 0 -18 0 65 0 -64 0 -21 0 -26 0 38 1 27 0 105 0 -92 0 5 0 -9 0 -51 0 -30 0 22 0 38 1 16 0 -19 0 60 0 -57 0 -21 0 -25 0 39 0 27 0 91 1 -84 0 7 0 -15 0 -47 0 -30 0 23 0 37 0 19 0 -19 1 55 0 -51 0 -19 0 -24"/>
<path stroke="green" d="M291 473l0 40 0 26 0 42 0 -42 0 11 1 -23 0 -43 0 -30 0 24 0 36 0 21 0 -19 0 50 1 -43 0 -17 0 -21 0 37 0 28 0 12 0 -22 0 15 0 -30 1 -39 0 -31 0 25 0 36 0 21 0 -17 0 44 0 -33 0 -14 1 -18 0 25 0 39 0 -13 0 -11 0 22 0 -37"/>
<path stroke="green" d="M295 524l0 -36 0 -32 1 25 0 36 0 20 0 -13 0 38 0 -23 0 -9 0 -17 0 3 1 54 0 -29 0 -4 0 29 0 -43 0 -33 0 -32 0 25 0 36 1 17 0 -9 0 32 0 -12 0 -7 0 -28 0 -5 0 56 0 -28 1 -1 0 36 0 -48 0 -30 0 -32 0 24 0 37 0 14 0 -4 1 26"/>
<path stroke="green" d="M300 557l0 -4 0 -16 0 -38 0 53 0 -22 0 1 0 42 1 -52 0 -26 0 -33 0 24 0 37 0 10 0 1 0 20 0 3 1 -30 0 -40 0 5 0 51 0 -17 0 1 0 49 0 -56 0 -22 1 -34 0 24 0 37 0 7 0 6 0 13 0 8 0 -42 1 -39 0 9 0 48 0 -12 0 1 0 53 0 -58 0 -17"/>
<path stroke="green" d="M304 502l0 -35 1 23 0 38 0 4 0 11 0 6 0 10 0 -49 0 -38 0 11 1 47 0 -9 0 58 0 -61 0 -12 0 -36 0 24 0 37 1 1 0 17 0 -2 0 12 0 -55 0 -36 0 12 0 46 0 -6 1 -1 0 63 0 -64 0 -9 0 -35 0 24 0 37 0 -1 0 23 1 -11 0 13 0 -59 0 -36"/>
<path stroke="green" d="M309 464l0 14 0 45 0 -4 0 -2 0 68 1 -68 0 -4 0 -35 0 25 0 36 0 -3 0 32 0 -23 0 13 1 -62 0 -34 0 15 0 44 0 -1 0 -4 0 73 0 -72 0 -1 1 -35 0 29 0 33 0 -3 0 44 0 -40 0 14 0 -64 0 -34 1 16 0 44 0 -5 0 79 0 -77 0 -33 0 35 1 27"/>
<path stroke="green" d="M314 546l0 -1 0 70 0 -71 0 12 0 -64 0 -33 0 17 1 43 0 3 0 -7 0 82 0 -80 0 -30 0 42 0 20 1 2 0 85 0 -92 0 9 0 -62 0 -33 0 19 0 41 0 6 1 -9 0 83 0 -80 0 -3 0 -28 0 53 0 10 0 9 0 34 1 -48 0 4 0 -59 0 -32 0 20 0 40 0 8 0 -10"/>
<path stroke="green" d="M318 516l0 77 1 -74 0 -6 0 -26 0 58 0 5 0 18 0 4 0 -25 0 -3 1 -54 0 -32 0 21 0 40 0 10 0 -12 0 69 0 -66 0 -9 1 -25 0 53 0 10 0 28 0 -18 0 -10 0 -9 0 -51 0 -31 1 22 0 39 0 14 0 -15 0 61 0 -57 0 -13 0 -25 0 46 1 17 0 34"/>
<path stroke="green" d="M323 581l0 -31 0 1 0 -16 0 -46 0 -30 0 23 0 37 1 18 0 -18 0 53 0 -48 0 -17 0 -24 0 38 0 25 0 29 1 -32 0 11 0 -23 0 -42 0 -30 0 24 0 36 0 22 0 -20 1 45 0 -39 0 -22 0 -24 0 33 0 30 0 22 0 -27 1 18 0 -29 0 -39 0 -30 0 25"/>
<path stroke="green" d="M327 484l0 36 0 24 0 -22 0 39 1 -31 0 -26 0 -24 0 29 0 34 0 15 0 -23 0 25 0 -35 1 -35 0 -31 0 26 0 35 0 27 0 -23 0 33 0 -24 0 -29 1 -24 0 25 0 38 0 8 0 -19 0 32 0 -41 0 -33 0 -31 1 27 0 34 0 29 0 -23 0 28 0 -18 0 -32 0 -24"/>
<path stroke="green" d="M331 480l0 22 1 41 0 2 0 -15 0 37 0 -45 0 -32 0 -30 0 27 0 33 1 29 0 -22 0 24 0 -11 0 -36 0 -24 0 20 0 44 0 -3 1 -12 0 41 0 -49 0 -30 0 -31 0 27 0 33 0 28 0 -20 1 22 0 -7 0 -37 0 -25 0 18 0 46 0 -7 0 -9 0 43 1 -52 0 -28"/>
<path stroke="green" d="M336 492l0 -32 0 28 0 32 0 27 0 -18 0 20 0 -2 1 -40 0 -24 0 15 0 49 0 -11 0 -7 0 44 0 -52 1 -28 0 -32 0 27 0 33 0 24 0 -14 0 17 0 2 0 -41 1 -24 0 13 0 51 0 -14 0 -5 0 44 0 -53 0 -27 0 -32 1 27 0 33 0 22 0 -12 0 16 0 6"/>
<path stroke="green" d="M340 554l0 -43 0 -24 0 12 1 52 0 -17 0 -3 0 44 0 -53 0 -26 0 -32 0 26 0 33 1 21 0 -10 0 15 0 8 0 -43 0 -24 0 10 0 54 0 -20 1 -1 0 42 0 -51 0 -25 0 -33 0 26 0 33 0 19 0 -8 1 14 0 11 0 -44 0 -25 0 9 0 56 0 -22 0 1 0 41 1 -50"/>
<path stroke="green" d="M345 527l0 -25 0 -33 0 25 0 34 0 17 0 -6 0 12 0 14 1 -45 0 -25 0 8 0 56 0 -22 0 1 0 40 0 -49 0 -24 1 -33 0 26 0 33 0 16 0 -4 0 11 0 16 0 -46 0 -26 1 7 0 57 0 -23 0 2 0 40 0 -48 0 -23 0 -34 1 26 0 34 0 13 0 -1 0 8 0 21"/>
<path stroke="green" d="M349 577l0 -50 0 -27 0 8 1 56 0 -23 0 3 0 41 0 -48 0 -21 0 -34 0 25 0 34 1 12 0 1 0 6 0 27 0 -56 0 -28 0 7 0 55 0 -21 1 4 0 42 0 -49 0 -18 0 -34 0 25 0 33 0 10 0 5 1 2 0 36 0 -66 0 -30 0 9 0 53 0 -18 0 4 0 45 1 -50 0 -15"/>
<path stroke="green" d="M354 532l0 -35 0 26 0 33 0 7 0 11 0 -6 0 48 1 -80 0 -31 0 11 0 50 0 -14 0 3 0 48 0 -51 0 -7 1 -36 0 25 0 32 0 3 0 21 0 -17 0 44 0 -79 0 -33 1 13 0 47 0 -9 0 2 0 48 0 -47 0 6 0 -39 0 24 1 31 0 -7 0 40 0 -36 0 20 0 -60 0 -33"/>
<path stroke="green" d="M358 505l0 15 0 44 1 -3 0 42 0 -37 0 38 0 -48 0 8 0 42 0 -30 1 41 0 -33 0 -2 0 -44 0 -34 0 18 0 40 0 3 1 -1 0 31 0 -22 0 32 0 -47 0 97 0 -82 0 20 1 -3 0 -20 0 -33 0 -34 0 20 0 37 0 8 0 -2 0 20 1 -5 0 -14 0 -21 0 -4 0 75"/>
<path stroke="green" d="M363 617l0 -50 0 10 0 18 0 -34 1 -25 0 -35 0 23 0 33 0 13 0 -3 0 11 0 10 0 -39 1 -25 0 6 0 61 0 -30 0 4 0 35 0 -46 0 -20 0 -35 1 25 0 31 0 15 0 -3 0 5 0 23 0 -58 0 -26 0 9 1 57 0 -22 0 2 0 46 0 -55 0 -16 0 -35 0 27 0 28"/>
<path stroke="green" d="M367 552l1 17 0 -2 0 -1 0 35 0 -71 0 -28 0 12 0 54 0 -17 1 0 0 54 0 -61 0 -14 0 -35 0 28 0 27 0 18 0 -1 1 -5 0 42 0 -80 0 -28 0 13 0 52 0 -14 0 -1 0 60 1 -66 0 -12 0 -35 0 29 0 26 0 18 0 -7 1 45 0 -85 0 -27 0 13 0 52 0 -13"/>
<path stroke="green" d="M372 544l0 -1 0 63 0 -69 1 -11 0 -35 0 30 0 25 0 19 0 -1 0 -8 0 46 0 -86 1 -27 0 14 0 51 0 -12 0 -1 0 66 0 -72 0 -10 0 -36 1 31 0 25 0 20 0 -2 0 -9 0 45 0 -85 0 -27 0 14 1 51 0 -11 0 -2 0 68 0 -73 0 -11 0 -35 0 32 0 24"/>
<path stroke="green" d="M376 544l1 21 0 -3 0 -9 0 43 0 -83 0 -28 0 15 0 51 0 -11 1 -2 0 71 0 -75 0 -12 0 -34 0 31 0 24 0 23 0 -5 1 -8 0 39 0 -80 0 -27 0 15 0 50 0 -9 0 -3 0 74 1 -79 0 -11 0 -35 0 32 0 24 0 25 0 -8 0 -7 0 35 1 -77 0 -27 0 16 0 50"/>
<path stroke="green" d="M381 550l0 -9 0 -3 0 79 0 -83 0 -13 1 -34 0 33 0 23 0 28 0 -11 0 -6 0 31 0 -73 1 -27 0 16 0 49 0 -7 0 -4 0 84 0 -88 0 -13 0 -34 1 33 0 23 0 31 0 -14 0 -6 0 27 0 -70 0 -27 0 17 1 48 0 -5 0 -5 0 93 0 -97 0 -14 0 -33 0 34"/>
<path stroke="green" d="M385 523l0 23 1 34 0 -18 0 -5 0 23 0 -67 0 -27 0 18 0 47 0 -4 1 -6 0 109 0 -112 0 -14 0 -33 0 35 0 22 0 39 0 -24 1 -3 0 18 0 -64 0 -27 0 19 0 45 0 -8 0 139 1 -142 0 -15 0 -31 0 36 0 21 0 47 0 -32 0 -3 0 14 1 -62 0 -27"/>
<path stroke="green" d="M390 488l0 20 0 44 0 2 0 -9 0 139 0 -141 0 -15 1 -31 0 38 0 20 0 56 0 -42 0 -3 0 10 0 -59 0 -28 1 21 0 42 0 5 0 -10 0 100 0 -101 0 -15 0 -30 0 40 1 18 0 68 0 -54 0 -4 0 6 0 -57 0 -27 0 20 0 42 1 8 0 -13 0 79 0 -78 0 -14"/>
<path stroke="green" d="M394 535l0 -28 0 43 0 15 1 60 0 -47 0 -5 0 2 0 -55 0 -28 0 21 0 40 0 10 1 -13 0 63 0 -60 0 -14 0 -26 0 47 0 12 0 36 0 -24 1 -8 0 -2 0 -52 0 -29 0 21 0 39 0 11 0 -12 0 51 1 -47 0 -11 0 -24 0 50 0 11 0 12 0 -3 0 -13 0 -4"/>
<path stroke="green" d="M398 574l1 -50 0 -30 0 22 0 38 0 10 0 -10 0 41 0 -35 0 -9 1 -19 0 44 0 18 0 -10 0 14 0 -19 0 -5 0 -48 0 -30 1 20 0 38 0 10 0 -8 0 33 0 -26 0 -5 0 -12 0 24 1 41 0 -35 0 26 0 -23 0 -6 0 -44 0 -32 0 20 0 38 1 7 0 -5 0 26"/>
<path stroke="green" d="M403 583l0 -17 0 -2 0 -3 0 -2 0 82 0 -72 1 32 0 -22 0 -7 0 -41 0 -32 0 19 0 38 0 5 0 -2 1 20 0 -9 0 -2 0 -1 0 -18 0 121 0 -105 0 30 1 -17 0 -7 0 -37 0 -33 0 19 0 38 0 2 0 2 0 14 1 -3 0 -6 0 -12 0 -14 0 88 0 -68 0 28 0 -11"/>
<path stroke="green" d="M407 578l0 -9 1 -31 0 -34 0 17 0 38 0 6 0 8 0 4 0 -14 1 -21 0 -7 0 75 0 -51 0 24 0 -5 0 -10 0 -26 0 -35 1 16 0 38 0 -2 0 9 0 3 0 11 0 -24 0 -25 0 -2 1 67 0 -41 0 21 0 1 0 -13 0 -19 0 -37 0 16 0 37 1 -3 0 12 0 -2 0 17 0 -34"/>
<path stroke="green" d="M412 553l0 -28 0 3 0 62 0 -34 1 17 0 7 0 -15 0 -12 0 -39 0 16 0 36 0 -4 0 15 1 -8 0 25 0 -46 0 -28 0 5 0 60 0 -30 0 15 0 12 1 -18 0 -4 0 -41 0 15 0 35 0 -5 0 19 0 -14 0 35 1 -59 0 -29 0 8 0 57 0 -25 0 12 0 18 0 -23 1 4"/>
<path stroke="green" d="M417 567l0 -43 0 16 0 32 0 -5 0 23 0 -20 0 49 0 -77 1 -29 0 10 0 55 0 -21 0 9 0 25 0 -29 0 14 0 -47 1 19 0 27 0 -3 0 26 0 -27 0 71 0 -102 0 -29 0 11 1 54 0 -17 0 6 0 32 0 -35 0 19 0 -48 0 25 0 20 1 0 0 29 0 -34 0 87 0 -122"/>
<path stroke="green" d="M421 538l0 -28 0 13 0 51 0 -13 1 4 0 39 0 -41 0 17 0 -45 0 35 0 10 0 6 0 28 1 -39 0 57 0 -95 0 -28 0 15 0 49 0 -9 0 50 1 -51 0 11 0 -38 0 50 0 -3 0 13 0 18 0 -36 0 33 1 -74 0 -29 0 17 0 46 0 -3 0 -4 0 58 0 -58 0 3 1 -33"/>
<path stroke="green" d="M426 534l0 59 0 -8 0 22 0 1 0 -26 0 16 0 -62 0 -29 1 19 0 43 0 3 0 -7 0 57 0 -56 0 -6 0 -29 0 52 1 4 0 28 0 -14 0 -16 0 3 0 -52 0 -30 0 21 1 40 0 9 0 -11 0 49 0 -47 0 -13 0 -26 0 41 0 20 1 22 0 -17 0 -4 0 -9 0 -45 0 -30"/>
<path stroke="green" d="M430 506l0 22 0 37 0 15 1 -15 0 39 0 -35 0 -20 0 -23 0 32 0 32 0 10 0 -12 1 5 0 -18 0 -39 0 -31 0 23 0 35 0 19 0 -17 0 31 1 -25 0 -25 0 -23 0 28 0 41 0 -2 0 -6 0 12 0 -25 1 -35 0 -32 0 25 0 32 0 21 0 -17 0 23 0 -15 0 -30"/>
<path stroke="green" d="M434 543l1 -21 0 23 0 49 0 -12 0 -1 0 16 0 -30 0 -31 0 -32 1 24 0 32 0 20 0 -16 0 19 0 -9 0 -33 0 -20 0 19 1 57 0 -22 0 3 0 19 0 -32 0 -29 0 -33 0 25 0 30 1 19 0 -13 0 14 0 -3 0 -35 0 -20 0 17 0 62 0 -28 1 6 0 18 0 -32"/>
<path stroke="green" d="M439 563l0 -27 0 -33 0 24 0 30 0 17 1 -10 0 11 0 2 0 -38 0 -19 0 15 0 67 0 -35 0 9 1 16 0 -30 0 -25 0 -35 0 24 0 31 0 15 0 -9 0 10 1 5 0 -39 0 -19 0 13 0 72 0 -41 0 12 0 13 0 -27 1 -25 0 -34 0 23 0 30 0 14 0 -6 0 7 0 8"/>
<path stroke="green" d="M443 579l0 -40 1 -18 0 12 0 76 0 -46 0 13 0 11 0 -25 0 -24 0 -35 1 23 0 31 0 11 0 -4 0 6 0 10 0 -40 0 -17 0 10 1 79 0 -50 0 15 0 9 0 -23 0 -24 0 -35 0 22 0 32 1 9 0 -2 0 5 0 11 0 -40 0 -17 0 9 0 81 0 -53 1 17 0 7 0 -21"/>
<path stroke="green" d="M448 564l0 -23 0 -35 0 21 0 32 0 8 0 -1 1 4 0 13 0 -40 0 -17 0 8 0 82 0 -54 0 18 0 6 1 -20 0 -23 0 -35 0 21 0 32 0 7 0 3 1 15 0 -41 0 -17 0 7 0 82 0 -54 0 18 0 6 0 -19 1 -21 0 -36 0 20 0 32 0 7 0 1 0 2 0 16 0 -42 1 -17"/>
<path stroke="green" d="M453 530l0 7 0 81 0 -53 0 18 0 6 0 -18 0 -21 0 -36 1 21 0 31 0 7 0 2 0 19 0 -44 0 -17 0 6 1 78 0 -50 0 18 0 8 0 -19 0 -19 0 -36 0 20 0 31 1 7 0 3 0 -2 0 23 0 -48 0 -18 0 7 0 73 0 -45 1 18 0 9 0 -20 0 -15 0 -37 0 20 0 30"/>
<path stroke="green" d="M457 575l0 7 0 4 1 -5 0 30 0 -56 0 -19 0 8 0 69 0 -39 0 16 0 14 1 -24 0 -10 0 -38 0 21 0 28 0 7 0 6 0 -9 0 41 1 -68 0 -20 0 9 0 63 0 -31 0 12 0 21 0 -28 0 -3 1 -40 0 24 0 23 0 9 0 7 0 -14 0 62 0 -91 0 -22 1 11 0 56 0 -22"/>
<path stroke="green" d="M462 584l0 9 0 29 0 -34 0 8 0 -43 1 29 0 15 0 9 0 14 0 -25 0 104 0 -135 0 -25 0 14 1 49 0 -13 0 5 0 35 0 -37 0 20 0 -44 0 45 0 -5 1 6 0 31 0 -44 0 44 0 -79 0 -27 0 16 0 43 0 -4 1 0 0 33 0 -31 0 11 0 -25 0 63 0 -23 0 -8"/>
<path stroke="green" d="M466 614l0 62 1 -70 0 15 0 -53 0 -30 0 19 0 37 0 3 0 -3 0 23 1 -18 0 -8 0 -14 0 17 0 47 0 -35 0 36 0 -32 0 -4 1 -36 0 -33 0 20 0 33 0 8 0 -4 0 13 0 -5 0 -24 1 -15 0 10 0 86 0 -62 0 24 0 -10 0 -15 0 -25 0 -35 1 21 0 29"/>
<path stroke="green" d="M471 586l0 10 0 -3 0 6 0 6 0 -37 0 -17 0 10 1 89 0 -61 0 18 0 3 0 -22 0 -17 0 -37 0 22 0 27 1 11 0 -3 0 1 0 14 0 -45 0 -19 0 10 0 82 1 -52 0 16 0 10 0 -25 0 -12 0 -39 0 23 0 25 0 10 1 0 0 -4 0 21 0 -52 0 -19 0 10 0 77"/>
<path stroke="green" d="M475 623l0 -46 0 15 1 13 0 -26 0 -8 0 -40 0 22 0 24 0 10 0 1 0 -6 1 26 0 -57 0 -20 0 10 0 75 0 -43 0 14 0 15 0 -27 1 -5 0 -41 0 23 0 23 0 10 0 2 0 -8 0 29 0 -60 1 -20 0 10 0 73 0 -40 0 13 0 16 0 -27 0 -4 0 -41 1 23 0 22"/>
<path stroke="green" d="M480 573l0 10 0 2 0 -8 0 31 0 -63 0 -20 0 11 1 72 0 -39 0 13 0 17 0 -28 0 -2 0 -42 0 23 0 22 1 10 0 3 0 -10 0 32 0 -63 0 -20 0 11 0 70 0 -37 1 13 0 17 0 -28 0 -2 0 -42 0 23 0 23 0 10 0 2 1 -9 0 32 0 -64 0 -20 0 11 0 70"/>
<path stroke="green" d="M484 604l0 -36 0 12 1 19 0 -29 0 -2 0 -42 0 23 0 23 0 10 0 2 0 -9 1 32 0 -64 0 -21 0 12 0 69 0 -35 0 12 0 20 0 -30 1 -2 0 -42 0 24 0 22 0 12 0 -9 0 32 0 -64 1 -20 0 12 0 68 0 -34 0 11 0 22 0 -31 0 -3 0 -41 1 25 0 21 0 13"/>
<path stroke="green" d="M489 586l0 -1 0 -8 0 31 0 -64 0 -21 0 13 1 67 0 -32 0 10 0 24 0 -32 0 -4 0 -41 0 26 0 21 1 15 0 -3 0 -8 0 31 0 -65 0 -21 0 14 0 65 0 -30 1 9 0 28 0 -36 0 -3 0 -41 0 27 0 20 0 17 0 -5 1 -8 0 32 0 -66 0 -21 0 14 0 62 0 -25"/>
<path stroke="green" d="M493 577l0 7 0 32 1 -39 0 -4 0 -41 0 30 0 18 0 20 0 -7 0 -9 0 32 1 -67 0 -22 0 16 0 58 0 -21 0 5 0 39 0 -45 0 -3 1 -40 0 32 0 16 0 24 0 -11 0 -9 0 32 0 -69 1 -22 0 16 0 55 0 -16 0 3 0 47 0 -52 0 -3 0 -39 1 36 0 12 0 29"/>
<path stroke="green" d="M498 617l0 -15 0 -10 0 32 0 -70 0 -23 0 17 1 51 0 -11 0 1 0 55 0 -59 0 -2 0 -38 0 42 0 6 1 32 0 -15 0 -14 0 32 0 -72 0 -24 0 18 0 48 0 -6 1 -2 0 54 0 -56 0 -2 0 -34 0 51 0 -3 0 28 0 -9 1 -19 0 31 0 -72 0 -25 0 19 0 44"/>
<path stroke="green" d="M502 597l0 -3 0 -3 0 44 1 -44 0 -2 0 -29 0 67 0 -19 0 15 0 9 0 -30 0 28 1 -68 0 -26 0 18 0 41 0 1 0 -4 0 32 0 -29 0 -4 1 -22 0 59 0 -10 0 -4 0 36 0 -46 0 22 0 -62 0 -27 1 19 0 38 0 1 0 -2 0 21 0 -16 0 -9 0 -11 0 26 1 28"/>
<path stroke="green" d="M507 632l0 -27 0 66 0 -67 0 16 0 -53 0 -28 0 17 1 37 0 1 0 13 0 -6 0 -15 0 -5 0 6 0 62 1 -51 0 62 0 -57 0 10 0 -43 0 -29 0 16 0 35 1 3 0 6 0 3 0 -23 0 -4 0 -1 0 94 0 -78 0 48 1 -39 0 6 0 -34 0 -30 0 15 0 34 0 -1 0 5 1 11"/>
<path stroke="green" d="M512 607l0 -30 0 -8 0 -1 0 103 0 -83 0 38 0 -26 0 2 1 -26 0 -31 0 14 0 32 0 -2 0 9 0 -6 0 18 0 -38 1 -11 0 1 0 92 0 -70 0 33 0 -18 0 -1 0 -18 0 -32 1 12 0 31 0 -3 0 11 0 -10 0 25 0 -45 0 -15 0 3 1 84 0 -59 0 28 0 -11 0 -4"/>
<path stroke="green" d="M516 595l0 -11 0 -34 0 12 0 29 1 -3 0 13 0 -14 0 32 0 -54 0 -16 0 5 0 78 0 -52 1 25 0 -6 0 -7 0 -2 0 -37 0 12 0 26 0 -2 1 14 0 -17 0 39 0 -62 0 -18 0 6 0 75 0 -46 0 21 1 -1 0 -10 0 7 0 -42 0 13 0 23 0 -1 0 15 0 -19 1 45"/>
<path stroke="green" d="M521 631l0 -70 0 -19 0 7 0 72 0 -41 0 18 0 4 0 -14 1 17 0 -47 0 14 0 19 0 2 0 15 0 -22 0 53 0 -80 1 -20 0 10 0 68 0 -37 0 16 0 9 0 -18 0 27 0 -55 1 19 0 14 0 4 0 14 0 -23 0 60 0 -89 0 -21 0 11 1 66 0 -33 0 13 0 16 0 -23"/>
<path stroke="green" d="M525 587l0 33 0 -60 0 24 0 9 1 7 0 13 0 -25 0 64 0 -94 0 -22 0 12 0 63 0 -28 1 10 0 22 0 -28 0 33 0 -60 0 32 0 2 0 12 0 9 1 -25 0 60 0 -92 0 -23 0 14 0 59 0 -22 0 7 0 29 1 -35 0 25 0 -53 0 42 0 -5 0 17 0 4 0 -25 0 51 1 -85"/>
<path stroke="green" d="M530 558l0 -23 0 15 0 55 0 -17 0 4 0 37 0 -42 1 16 0 -45 0 52 0 -12 0 23 0 -2 0 -24 0 40 0 -76 1 -25 0 17 0 51 0 -11 0 1 0 44 0 -48 0 6 0 -37 1 57 0 -14 0 28 0 -7 0 -23 0 30 0 -68 0 -26 0 18 1 47 0 -5 0 -3 0 46 0 -48 0 -1"/>
<path stroke="green" d="M534 588l0 -33 0 55 0 -7 1 29 0 -9 0 -22 0 21 0 -62 0 -26 0 19 0 43 1 -5 0 42 0 -43 0 -8 0 -28 0 49 0 4 0 21 0 -3 1 -22 0 14 0 -56 0 -27 0 20 0 40 0 4 0 -8 0 35 1 -34 0 -13 0 -24 0 41 0 16 0 10 0 6 0 -22 0 9 1 -52 0 -28"/>
<path stroke="green" d="M539 534l0 20 0 38 0 6 0 -8 0 27 0 -25 0 -17 1 -22 0 36 0 26 0 -1 0 15 0 -24 0 6 0 -48 0 -29 1 20 0 36 0 8 0 -9 0 22 0 -18 0 -21 0 -19 1 30 0 38 0 -14 0 24 0 -27 0 5 0 -45 0 -30 0 20 1 35 0 7 0 -7 0 17 0 -12 0 -24 0 -16"/>
<path stroke="green" d="M543 554l0 25 0 48 1 -25 0 31 0 -30 0 4 0 -43 0 -29 0 19 0 34 0 7 1 -6 0 13 0 -8 0 -25 0 -14 0 21 0 58 0 -36 0 37 1 -33 0 5 0 -42 0 -30 0 19 0 33 0 6 0 -4 0 10 1 -4 0 -26 0 -13 0 18 0 67 0 -46 0 42 0 -37 0 6 1 -40 0 -30"/>
<path stroke="green" d="M548 536l0 18 0 33 0 5 0 -2 0 6 0 1 0 -28 1 -11 0 15 0 76 0 -56 0 45 0 -39 0 8 0 -40 0 -30 1 17 0 34 0 3 0 4 0 3 0 -29 0 -9 0 12 1 86 0 -67 0 48 0 -41 0 9 0 -38 0 -30 0 16 0 34 1 2 0 1 0 2 0 6 0 -30 0 -8 0 9 0 96 1 -76"/>
<path stroke="green" d="M553 591l0 47 0 -40 0 10 0 -37 0 -30 0 16 0 33 0 1 1 3 0 9 0 -31 0 -8 0 7 0 105 0 -85 0 47 1 -39 0 10 0 -35 0 -29 0 14 0 34 0 -1 0 4 0 -1 1 11 0 -32 0 -7 0 5 0 113 0 -94 0 45 0 -35 0 9 1 -32 0 -30 0 14 0 33 0 5 0 -4 0 15"/>
<path stroke="green" d="M557 611l0 -35 1 -7 0 3 0 117 0 -96 0 42 0 -32 0 9 0 -29 0 -30 1 13 0 33 0 -1 0 6 0 -6 0 19 0 -39 0 -8 0 3 1 113 0 -91 0 38 0 -26 0 6 0 -23 0 -30 0 12 0 31 1 -1 0 7 0 -9 0 25 0 -44 0 -10 0 4 0 100 0 -78 1 34 0 -20 0 3"/>
<path stroke="green" d="M562 614l0 -15 0 -31 0 11 0 28 0 9 1 -13 0 33 0 -53 0 -12 0 5 0 86 0 -61 0 28 0 -12 1 -2 0 -2 0 -34 0 10 0 24 0 12 0 -18 1 46 0 -67 0 -15 0 7 0 73 0 -47 0 22 0 -3 0 -7 1 20 0 -42 0 9 0 16 0 1 0 16 0 -25 0 74 0 -96 1 -18"/>
<path stroke="green" d="M567 571l0 9 0 60 0 -32 0 16 0 6 0 -13 0 66 0 -66 1 6 0 3 0 27 0 -38 0 95 0 -119 0 -21 0 11 1 50 0 -19 0 9 0 12 0 -15 0 23 0 -17 0 14 0 -3 1 -6 0 54 0 -65 0 44 0 -69 0 -25 0 14 0 42 0 -10 1 5 0 12 0 -13 0 -4 0 -12 0 17"/>
<path stroke="green" d="M571 619l0 26 0 -19 0 127 1 -132 0 21 0 -47 0 -28 0 15 0 35 0 -2 0 1 0 9 1 -7 0 -19 0 -14 0 16 0 55 0 -36 0 56 0 -54 0 7 1 -33 0 -31 0 17 0 29 0 4 0 -2 0 5 0 -1 0 -29 1 -14 0 15 0 79 0 -55 0 40 0 -32 0 -1 0 -23 1 -34 0 18"/>
<path stroke="green" d="M576 581l0 25 0 7 0 -3 0 1 0 5 0 -35 0 -15 1 14 0 99 0 -72 0 34 0 -22 0 -6 0 -17 0 -36 0 19 1 23 0 8 0 -2 0 -2 0 9 0 -40 0 -15 0 13 0 112 1 -83 0 30 0 -16 0 -7 0 -13 0 -38 0 19 0 22 0 8 1 -2 0 -4 0 13 0 -44 0 -15 0 14"/>
<path stroke="green" d="M580 569l0 114 0 -85 0 28 1 -13 0 -8 0 -10 0 -39 0 19 0 21 0 9 0 -2 0 -5 1 14 0 -45 0 -15 0 13 0 114 0 -84 0 27 0 -11 0 -9 1 -9 0 -38 0 18 0 21 0 9 0 -2 0 -6 0 16 0 -46 1 -16 0 14 0 112 0 -82 0 27 0 -11 0 -8 0 -9 0 -39"/>
<path stroke="green" d="M584 553l1 19 0 21 0 8 0 -1 0 -6 0 16 0 -47 0 -15 0 14 1 109 0 -79 0 26 0 -10 0 -8 0 -9 0 -39 0 19 1 21 0 9 0 -2 0 -6 0 16 0 -47 0 -15 0 14 0 107 1 -77 0 26 0 -9 0 -9 0 -9 0 -39 0 19 0 21 0 10 1 -3 0 -5 0 16 0 -47 0 -15"/>
<path stroke="green" d="M589 547l0 14 0 104 0 -74 0 26 1 -8 0 -9 0 -10 0 -39 0 19 0 21 0 11 0 -3 0 -6 1 16 0 -47 0 -15 0 15 0 100 0 -70 0 25 0 -7 0 -10 1 -10 0 -39 0 20 0 21 0 11 0 -4 0 -5 0 16 0 -47 1 -15 0 15 0 95 0 -64 0 24 0 -6 0 -10 0 -12"/>
<path stroke="green" d="M593 590l0 -39 1 21 0 21 0 13 0 -6 0 -4 0 16 0 -48 0 -15 0 16 1 89 0 -58 0 23 0 -3 0 -13 0 -12 0 -39 0 22 0 21 1 15 0 -8 0 -4 0 16 0 -48 0 -16 0 18 0 81 0 -49 1 20 0 -15 0 -12 0 -39 0 23 0 21 0 17 0 -10 1 -3 0 15 0 -49"/>
<path stroke="green" d="M598 568l0 -16 0 18 0 75 0 -42 0 17 1 6 0 -18 0 -12 0 -40 0 25 0 19 0 21 0 -13 0 -3 1 16 0 -50 0 -17 0 19 0 68 0 -34 0 14 0 14 0 -25 1 -11 0 -39 0 27 0 17 0 26 0 -18 0 -3 0 18 0 -53 1 -18 0 20 0 62 0 -26 0 10 0 23 0 -32"/>
<path stroke="green" d="M602 613l0 -9 0 -40 1 30 0 14 0 32 0 -23 0 -4 0 21 0 -58 0 -18 0 21 1 55 0 -18 0 6 0 36 0 -43 0 -6 0 -40 0 36 0 8 1 37 0 -27 0 -6 0 27 0 -65 0 -19 0 21 0 51 0 -13 1 3 0 43 0 -48 0 -3 0 -38 0 45 0 -3 0 35 0 -21 1 -13 0 40"/>
<path stroke="green" d="M607 659l0 -78 0 -18 0 20 0 46 0 -9 0 2 0 34 1 -37 0 -1 0 -34 0 65 0 -25 0 20 0 -2 0 -22 0 59 1 -96 0 -18 0 19 0 42 0 -7 0 3 0 20 0 -22 1 -1 0 -25 0 94 0 -57 0 2 0 22 0 -36 0 70 0 -104 1 -18 0 17 0 40 0 -7 0 5 0 9 0 -9"/>
<path stroke="green" d="M611 622l0 -6 0 -10 1 31 0 -13 0 46 0 -53 0 52 0 -83 0 -17 0 15 1 38 0 -8 0 8 0 1 0 -13 0 3 0 2 0 27 1 -25 0 60 0 -63 0 38 0 -65 0 -15 0 12 0 36 0 -9 1 11 0 -6 0 9 0 -22 0 6 0 -8 0 45 0 -35 0 56 1 -55 0 28 0 -51 0 -14"/>
<path stroke="green" d="M616 575l0 9 0 34 0 -9 0 13 0 -11 1 15 0 -29 0 2 0 -7 0 57 0 -42 0 47 0 -44 0 21 1 -41 0 -11 0 6 0 32 0 -10 0 16 0 -16 0 21 0 -36 1 -3 0 -4 0 66 0 -48 0 42 0 -36 0 16 0 -33 0 -9 1 3 0 29 0 -9 0 17 0 -19 0 27 0 -43 0 -7"/>
<path stroke="green" d="M620 581l1 -1 0 71 0 -50 0 37 0 -30 0 12 0 -24 0 -8 1 26 0 -8 0 18 0 -22 0 31 0 -48 0 -10 0 2 0 75 1 -52 0 32 0 -24 0 8 0 -16 0 -7 0 -3 0 23 0 -6 1 18 0 -24 0 35 0 -54 0 -11 0 3 0 80 0 -55 0 30 1 -20 0 5 0 -9 0 -7 0 -4"/>
<path stroke="green" d="M625 594l0 18 0 -4 0 18 0 -25 1 39 0 -60 0 -13 0 5 0 84 0 -57 0 27 0 -15 0 1 1 1 0 -11 0 -3 0 13 0 -2 0 17 0 -26 0 42 0 -64 1 -14 0 7 0 85 0 -57 0 24 0 -10 0 -3 0 13 0 -21 1 1 0 8 0 1 0 15 0 -26 0 44 0 -67 0 -16 0 9 1 86"/>
<path stroke="green" d="M630 658l0 -57 0 22 0 -5 0 -8 0 31 0 -41 0 11 0 2 1 5 0 11 0 -25 0 44 0 -69 0 -17 0 10 0 84 0 -52 1 18 0 1 0 -13 0 64 0 -79 0 24 0 -6 0 11 1 6 0 -24 0 42 0 -69 0 -18 0 12 0 79 0 -46 0 15 1 9 0 -19 0 87 0 -108 0 36 0 -11"/>
<path stroke="green" d="M634 615l0 16 0 -22 1 39 0 -68 0 -19 0 13 0 72 0 -36 0 10 0 18 0 -27 1 37 0 -64 0 46 0 -14 0 24 0 -7 0 -21 0 35 0 -66 1 -20 0 15 0 64 0 -26 0 6 0 28 0 -36 0 16 0 -48 1 49 0 -11 0 34 0 -17 0 -19 0 29 0 -62 0 -22 0 17 1 56"/>
<path stroke="green" d="M639 634l0 -16 0 1 0 39 0 -45 0 2 0 -39 0 47 0 -2 1 41 0 -25 0 -17 0 23 0 -58 0 -24 0 19 0 48 0 -7 1 -3 0 43 0 -47 0 -9 0 -32 0 43 0 8 0 38 0 -22 1 -17 0 18 0 -55 0 -24 0 19 0 43 0 -8 0 37 1 -39 0 -15 0 -28 0 39 0 17 0 25"/>
<path stroke="green" d="M643 652l0 -9 0 -18 1 15 0 -53 0 -25 0 20 0 38 0 4 0 -9 0 28 0 -29 1 -21 0 -23 0 36 0 25 0 11 0 5 0 -22 0 14 0 -51 1 -26 0 20 0 35 0 6 0 -9 0 20 0 -19 0 -25 0 -21 1 33 0 33 0 -2 0 19 0 -28 0 14 0 -49 0 -27 0 20 1 32 0 7"/>
<path stroke="green" d="M648 621l0 -8 0 14 0 -12 0 -28 0 -18 0 30 0 40 1 -13 0 32 0 -37 0 17 0 -49 0 -26 0 18 0 31 0 6 1 -6 0 9 0 -6 0 -30 0 -16 0 27 0 47 0 -23 0 45 1 -46 0 19 0 -50 0 -25 0 18 0 30 0 5 0 -5 0 6 1 -2 0 -32 0 -13 0 25 0 52 0 -31"/>
<path stroke="green" d="M652 616l0 57 0 -57 0 22 1 -50 0 -24 0 16 0 30 0 4 0 -3 0 3 0 1 0 -32 1 -12 0 23 0 57 0 -37 0 69 0 -69 0 24 0 -50 1 -23 0 15 0 30 0 2 0 -1 0 5 0 -33 0 -10 1 21 0 59 0 -41 0 81 0 -80 0 25 0 -49 0 -23 0 14 1 30 0 1 0 1 0 -2"/>
<path stroke="green" d="M657 610l0 7 0 -34 0 -8 0 19 0 62 1 -46 0 88 0 -86 0 26 0 -49 0 -21 0 13 0 30 1 3 0 -5 0 10 0 -35 0 -6 0 16 0 65 0 -49 0 85 1 -83 0 26 0 -47 0 -20 0 11 0 31 0 -1 0 3 0 -6 1 13 0 -36 0 -5 0 14 0 67 0 -52 0 78 0 -75 0 25"/>
<path stroke="green" d="M661 638l1 -45 0 -19 0 10 0 30 0 -1 0 5 0 -8 0 15 0 -37 1 -4 0 12 0 71 0 -56 0 69 0 -65 0 23 0 -41 0 -19 1 9 0 29 0 5 0 -10 0 19 0 -40 0 -2 0 9 1 77 0 -61 0 61 0 -56 0 20 0 -37 0 -17 0 8 0 27 1 0 0 6 0 -12 0 22 0 -42 0 -2"/>
<path stroke="green" d="M666 591l0 8 0 85 1 -69 0 54 0 -48 0 17 0 -31 0 -16 0 6 0 25 0 1 1 6 0 -13 0 27 0 -46 0 -3 0 7 0 99 0 -82 0 46 1 -38 0 12 0 -22 0 -15 0 4 0 21 0 3 0 6 0 -16 1 34 0 -53 0 -3 0 7 0 116 0 -99 0 39 0 -28 0 6 1 -10 0 -14 0 1"/>
<path stroke="green" d="M671 615l0 15 0 5 0 7 0 -20 0 46 0 -64 1 -5 0 7 0 100 0 -81 0 31 0 -18 0 8 0 -11 1 -6 0 5 0 9 0 8 0 -25 0 67 0 -86 0 -6 0 7 1 75 0 -54 0 23 0 -7 0 -7 0 28 0 -7 0 -11 0 -9 1 10 0 13 0 -32 0 156 0 -175 0 -9 0 9 0 56 0 -34"/>
<path stroke="green" d="M675 633l1 16 0 -12 0 16 0 -15 0 18 0 -11 0 6 0 27 1 -45 0 68 0 -87 0 -12 0 11 0 42 0 -20 0 10 1 4 0 -12 0 -4 0 -16 0 22 0 11 0 -2 0 54 0 -68 1 40 0 -58 0 -14 0 12 0 32 0 -10 0 5 0 3 0 -8 1 -18 0 -15 0 20 0 33 0 -14 0 114"/>
<path stroke="green" d="M680 756l0 -121 0 24 0 -41 1 -17 0 13 0 25 0 -4 0 3 0 -1 0 -3 0 -26 0 -15 1 19 0 51 0 -28 0 84 0 -85 0 15 0 -30 0 -19 0 13 1 20 0 1 0 -3 0 2 0 -32 0 -15 0 18 0 65 1 -40 0 63 0 -61 0 11 0 -23 0 -21 0 14 0 16 0 3 1 0 0 -6"/>
<path stroke="green" d="M685 625l0 6 0 -36 0 -14 0 17 0 76 0 -49 0 53 1 -49 0 9 0 -20 0 -22 0 14 0 15 0 4 0 -8 1 9 0 -39 0 -14 0 16 0 87 0 -59 0 49 0 -43 0 7 1 -16 0 -23 0 12 0 15 0 5 0 -9 0 11 1 -41 0 -14 0 16 0 94 0 -66 0 46 0 -39 0 7 0 -15"/>
<path stroke="green" d="M689 617l1 -24 0 12 0 15 0 5 0 -10 0 13 0 -42 0 -14 1 16 0 100 0 -71 0 43 0 -36 0 6 0 -13 0 -26 0 13 1 14 0 6 0 -10 0 13 0 -43 0 -13 0 16 0 105 1 -76 0 41 0 -34 0 6 0 -12 0 -27 0 13 0 14 0 7 1 -1 0 -10 0 14 0 -43 0 -13"/>
<path stroke="green" d="M694 571l0 16 0 107 0 -78 0 39 1 -32 0 6 0 -11 0 -29 0 13 0 15 0 7 0 -1 0 -10 1 15 0 -44 0 -13 0 16 0 110 0 -81 0 38 0 -30 0 6 1 -11 0 -31 0 14 0 15 0 9 0 -3 0 -9 0 15 0 -45 1 -13 0 17 0 111 0 -82 0 36 0 -27 0 4 0 -8 0 -34"/>
<path stroke="green" d="M698 588l1 15 0 15 0 10 0 -4 0 -9 0 15 0 -45 0 -13 0 18 1 110 0 -81 0 34 0 -25 0 4 0 -7 0 -36 0 16 1 14 0 12 0 -5 0 -9 0 16 0 -46 0 -13 0 18 0 107 1 -78 0 32 0 -21 0 1 0 -3 0 -40 0 18 0 13 0 15 1 -8 0 -9 0 17 0 -47 0 -13"/>
<path stroke="green" d="M703 576l0 18 0 102 0 -72 0 28 1 -15 0 -2 0 1 0 -44 0 20 0 11 0 18 0 -11 0 -8 1 19 0 -50 0 -13 0 19 0 93 0 -62 0 24 0 -10 0 -6 1 7 0 -49 0 24 0 8 0 22 0 -15 0 -8 0 22 0 -54 1 -13 0 20 0 83 0 -52 0 20 0 -2 0 -11 0 15 0 -55"/>
<path stroke="green" d="M707 598l1 27 0 4 0 26 0 -18 0 -9 0 26 0 -58 0 -13 0 21 1 72 0 -42 0 16 0 6 0 -16 0 20 0 -59 0 35 0 -3 1 27 0 -18 0 -11 0 34 0 -67 0 -12 0 20 0 63 0 -32 1 12 0 11 0 -19 0 17 0 -52 0 47 0 -17 0 26 1 -15 0 -14 0 48 0 -81"/>
<path stroke="green" d="M712 600l0 -12 0 21 0 53 0 -24 0 10 1 11 0 -17 0 7 0 -39 0 76 0 -46 0 17 0 -4 0 -19 1 74 0 -107 0 -10 0 20 0 46 0 -18 0 8 0 6 0 -10 1 -5 0 -24 0 95 0 -65 0 7 0 9 0 -26 0 122 0 -154 1 -8 0 18 0 39 0 -13 0 8 0 -3 0 -15 0 -13"/>
<path stroke="green" d="M716 615l1 46 0 -13 0 -4 0 24 0 -36 0 71 0 -100 0 -7 0 16 1 35 0 -11 0 10 0 -7 0 5 0 -23 0 -7 0 27 0 11 1 -14 0 37 0 -44 0 48 0 -75 0 -5 0 14 0 30 0 -9 1 11 0 -11 0 10 0 -29 0 -4 0 17 0 28 0 -23 0 47 1 -51 0 37 0 -62 0 -1"/>
<path stroke="green" d="M721 603l0 10 0 26 0 -7 0 12 0 -15 1 15 0 -34 0 -3 0 12 0 40 0 -30 0 53 0 -54 1 29 0 -52 0 1 0 8 0 23 0 -6 0 13 0 -19 0 20 1 -39 0 -3 0 10 0 50 0 -37 0 54 0 -53 0 23 0 -43 1 3 0 5 0 19 0 -4 0 13 0 -20 0 22 0 -42 0 -4 1 9"/>
<path stroke="green" d="M726 608l0 59 0 -43 0 53 0 -51 0 19 0 -36 0 7 0 1 1 16 0 -3 0 13 0 -22 0 25 0 -45 0 -6 0 10 0 67 1 -49 0 50 0 -46 0 15 0 -31 0 10 0 -1 0 11 1 12 0 -23 0 26 0 -46 0 -7 0 9 0 76 0 -55 0 46 1 -41 0 11 0 -24 0 13 0 -5 0 7"/>
<path stroke="green" d="M730 630l0 3 0 11 0 -24 1 27 0 -48 0 -8 0 10 0 85 0 -63 0 43 0 -36 0 8 1 -17 0 12 0 -6 0 3 0 5 0 9 0 -24 0 28 0 -49 1 -10 0 11 0 97 0 -72 0 39 0 -32 0 5 0 -9 0 7 1 -2 0 -3 0 8 0 7 0 -24 0 29 0 -51 0 -10 1 11 0 115 0 -89"/>
<path stroke="green" d="M735 626l0 35 0 -25 0 2 0 -5 0 6 1 -8 0 12 0 3 0 -23 0 28 0 -51 0 -12 0 13 0 137 1 -109 0 30 0 -18 0 -5 0 16 0 -25 0 19 0 -14 0 17 1 -2 0 -22 0 29 0 -53 0 -12 0 13 0 124 0 -94 0 25 1 -10 0 -11 0 42 0 -58 0 33 0 -20 0 23"/>
<path stroke="green" d="M739 656l0 -7 0 -21 1 28 0 -53 0 -14 0 15 0 98 0 -67 0 19 0 1 0 -19 1 129 0 -151 0 44 0 -23 0 30 0 -13 0 -21 0 28 0 -54 1 -15 0 16 0 80 0 -47 0 13 0 12 0 -28 0 44 0 -72 1 50 0 -21 0 38 0 -21 0 -20 0 29 0 -57 0 -15 0 17"/>
<path stroke="green" d="M743 608l1 67 0 -33 0 7 0 24 0 -37 0 17 0 -49 0 49 0 -14 1 43 0 -24 0 -22 0 32 0 -60 0 -16 0 18 0 56 1 -22 0 3 0 30 0 -41 0 2 0 -38 0 47 0 -6 0 38 1 -18 0 -24 0 36 0 -64 0 -16 0 18 0 48 0 -14 0 -1 1 27 0 -35 0 -8 0 -30"/>
<path stroke="green" d="M748 598l0 43 0 3 0 25 0 -3 0 -29 1 42 0 -70 0 -16 0 19 0 42 0 -10 0 -1 0 18 0 -26 1 -14 0 -25 0 40 0 10 0 14 0 11 0 -35 0 50 0 -78 1 -14 0 18 0 38 0 -8 0 -1 0 12 0 -18 0 -19 0 -21 1 37 0 16 0 4 0 24 0 -42 0 58 0 -85 0 -12"/>
<path stroke="green" d="M752 595l0 17 1 34 0 -6 0 6 0 -11 0 -23 0 -18 0 34 0 21 1 -3 0 36 0 -50 0 63 0 -89 0 -11 0 16 0 33 0 -6 1 1 0 1 0 -5 0 -26 0 -15 0 32 0 25 0 -10 0 47 1 -58 0 62 0 -87 0 -9 0 14 0 32 0 -6 0 2 1 -2 0 -1 0 -28 0 -13 0 30"/>
<path stroke="green" d="M757 624l0 28 0 -15 0 56 0 -65 1 58 0 -81 0 -8 0 12 0 31 0 -6 0 4 0 -6 0 3 1 -30 0 -10 0 28 0 30 0 -19 0 63 0 -70 0 53 0 -76 1 -6 0 11 0 30 0 -6 0 6 0 -9 0 7 0 -32 0 -8 1 25 0 33 0 -22 0 65 0 -72 0 48 0 -69 0 -5 0 10 1 29"/>
<path stroke="green" d="M762 639l0 -6 0 7 0 -11 0 9 0 -33 0 -6 0 22 0 36 1 -25 0 67 0 -73 0 43 0 -63 0 -4 0 9 0 28 0 -5 1 7 0 -13 0 13 0 -35 0 -5 0 20 0 38 0 -28 0 67 1 -71 0 38 0 -57 0 -2 0 7 0 26 0 -4 0 8 0 -15 1 16 0 -37 0 -3 0 18 0 40 0 -30"/>
<path stroke="green" d="M766 632l0 64 0 -68 0 34 1 -52 0 1 0 5 0 24 0 -3 0 9 0 -17 0 18 0 -38 1 -2 0 15 0 45 0 -34 0 62 0 -64 0 29 0 -45 1 2 0 3 0 21 0 8 0 -19 0 22 0 -41 0 -1 1 13 0 51 0 -39 0 58 0 -59 0 24 0 -38 0 6 1 16 0 3 0 7 0 -20 0 26"/>
<path stroke="green" d="M771 658l0 -44 0 -1 0 12 0 58 1 -45 0 52 0 -51 0 18 0 -29 0 11 0 -6 0 11 0 7 1 5 0 -21 0 31 0 -49 0 10 0 70 0 -56 0 46 1 -43 0 12 0 -18 0 21 0 -14 0 1 0 13 0 2 0 -23 1 38 0 -56 0 10 0 94 0 -79 0 38 0 -31 0 3 1 -2 0 30"/>
<path stroke="green" d="M776 683l0 -21 0 -14 0 21 0 -2 0 -25 0 46 0 -64 1 -1 0 10 0 161 0 -145 0 29 0 -18 0 -6 0 21 0 -13 1 32 0 -44 0 30 0 -6 0 -29 0 58 0 -76 0 -1 0 10 1 81 0 -63 0 19 0 -4 0 -16 0 26 0 -39 0 71 1 -58 0 35 0 -7 0 -32 0 63 0 -83"/>
<path stroke="green" d="M780 629l0 -1 0 11 0 53 1 -35 0 11 0 5 0 -21 0 5 0 -32 0 44 0 -13 0 29 1 5 0 -39 0 52 0 -72 0 -1 0 13 0 34 0 -18 0 4 1 7 0 -20 0 -10 0 -25 0 34 0 9 0 16 0 27 0 -50 1 40 0 -60 0 14 0 21 0 -7 0 3 0 -14 1 -20 0 -21 0 30 0 23"/>
<path stroke="green" d="M785 660l0 4 0 49 0 -63 0 31 0 -52 1 2 0 14 0 13 0 -1 0 -2 0 -1 0 -8 0 -26 0 -19 1 28 0 33 0 -6 0 73 0 -82 0 27 0 -46 0 2 0 14 1 8 0 1 0 -2 0 -4 0 -3 0 -30 0 -17 0 26 0 41 1 -14 0 101 0 -107 0 25 0 -44 0 3 0 13 0 7 0 2"/>
<path stroke="green" d="M789 650l1 -2 0 -7 0 1 0 -33 0 -15 0 24 0 46 0 -19 1 140 0 -144 0 24 0 -42 0 3 0 11 0 7 0 3 0 -1 1 -9 0 4 0 -35 0 -15 0 24 0 49 0 -23 0 150 0 -153 1 25 0 -41 0 2 0 10 0 7 0 3 0 -10 0 5 1 -36 0 -13 0 23 0 51 0 -25 0 127"/>
<path stroke="green" d="M794 766l0 -130 0 25 0 -41 1 2 0 9 0 8 0 4 0 -11 0 6 0 -36 0 -13 1 23 0 52 0 -27 0 116 0 -118 0 25 0 -40 0 8 1 10 0 4 0 -12 0 8 0 -37 0 -12 0 23 0 52 1 -27 0 109 0 -112 0 26 0 -40 0 -1 0 8 0 10 0 4 1 1 0 -12 0 8 0 -37"/>
<path stroke="green" d="M799 601l0 -11 0 23 0 52 0 -28 0 104 1 -107 0 27 0 -41 0 -2 0 8 0 11 0 5 0 -12 1 9 0 -37 0 -11 0 23 0 51 0 -27 0 100 0 -103 0 27 1 -40 0 -4 0 7 0 13 0 6 0 -1 0 -12 0 9 1 -37 0 -10 0 23 0 51 0 -28 0 95 0 -98 0 27 0 -39"/>
<path stroke="green" d="M803 624l1 -6 0 8 0 13 0 7 0 -2 0 -12 0 10 0 -37 0 -10 1 24 0 50 0 -28 0 89 0 -91 0 26 0 -37 0 -9 0 9 1 12 0 10 0 -4 0 -12 0 11 0 -37 0 -10 0 25 0 49 1 -28 0 82 0 -84 0 25 0 -35 0 -12 0 10 0 12 0 12 1 -6 0 -11 0 12 0 -39"/>
<path stroke="green" d="M808 610l0 -9 0 27 0 49 0 -29 0 73 1 -75 0 23 0 -30 0 -16 0 11 0 10 0 17 0 -11 0 -9 1 13 0 -40 0 -9 0 29 0 49 0 -31 0 63 0 -63 0 19 1 -23 0 -22 0 14 0 7 0 22 0 -15 0 -9 0 16 0 -44 1 -8 0 32 0 49 0 -33 0 52 0 -49 0 12 0 -12"/>
<path stroke="green" d="M812 660l0 -31 1 19 0 2 0 29 0 -22 0 -8 0 20 0 -50 0 -6 1 35 0 52 0 -38 0 42 0 -35 0 4 0 7 0 -47 0 26 1 -6 0 38 0 -30 0 -9 0 29 0 -60 0 -4 0 39 0 54 1 -43 0 31 0 -20 0 -5 0 35 0 -72 0 41 0 -21 0 41 1 -31 0 -11 0 43 0 -76"/>
<path stroke="green" d="M817 622l0 -2 0 42 0 50 0 -42 0 23 1 -10 0 -10 0 16 0 -52 0 74 0 -52 0 32 0 -21 0 -14 1 68 0 -102 0 1 0 43 0 36 0 -31 0 17 0 -8 0 -9 1 -6 0 -29 0 74 0 -48 0 17 0 -4 0 -20 0 81 0 -114 1 3 0 40 0 26 0 -21 0 14 0 -13 0 -2"/>
<path stroke="green" d="M821 669l0 -19 0 -18 1 44 0 -11 0 4 0 10 0 -26 0 55 0 -87 0 6 0 36 1 17 0 -13 0 13 0 -18 0 5 0 -27 0 -13 0 31 0 9 1 -6 0 22 0 -33 0 40 0 -70 0 8 0 33 0 11 1 -9 0 14 0 -23 0 11 0 -33 0 -9 0 23 0 23 0 -14 1 31 0 -38 0 30"/>
<path stroke="green" d="M826 678l0 -59 0 12 0 28 0 7 0 -6 0 13 1 -25 0 15 0 -37 0 -8 0 20 0 33 0 -20 0 37 0 -42 1 24 0 -51 0 15 0 24 0 2 0 -2 0 13 0 -27 0 17 1 -39 0 -8 0 18 0 40 0 -24 0 41 0 -45 0 21 0 -46 1 19 0 21 0 -3 0 12 0 -27 0 18 0 -40"/>
<path stroke="green" d="M830 619l0 -8 1 17 0 46 0 -29 0 44 0 -46 0 17 0 -40 0 24 0 16 1 -7 0 2 0 11 0 -28 0 20 0 -42 0 -7 0 15 0 51 1 -31 0 45 0 -47 0 16 0 -36 0 31 0 10 0 -13 0 5 1 10 0 -28 0 20 0 -42 0 -8 0 15 0 55 0 -34 0 46 1 -46 0 13 0 -31"/>
<path stroke="green" d="M835 625l0 42 0 1 0 -19 0 6 0 9 0 -28 1 20 0 -41 0 -9 0 15 0 59 0 -36 0 45 0 -45 1 11 0 -25 0 64 0 -21 0 -26 0 10 0 6 0 -27 0 20 1 -41 0 -9 0 15 0 63 0 -39 0 43 0 -42 0 8 0 -19 1 124 0 -81 0 -31 0 12 0 3 0 -25 0 19 0 -41"/>
<path stroke="green" d="M839 615l0 -9 1 15 0 67 0 -42 0 41 0 -39 0 6 0 -11 0 42 0 -3 1 -35 0 16 0 -1 0 -24 0 19 0 -40 0 -10 0 16 0 71 1 -45 0 36 0 -33 0 3 0 -1 0 6 0 22 0 -35 0 21 1 -5 0 -23 0 19 0 -41 0 -9 0 16 0 76 0 -49 0 31 1 -26 0 -1 0 14"/>
<path stroke="green" d="M844 670l0 -25 0 33 0 -30 0 26 0 -10 0 -21 1 18 0 -41 0 -10 0 18 0 80 0 -53 0 26 0 -18 0 -7 1 42 0 -63 0 37 0 -23 0 34 0 -18 0 -19 0 18 0 -41 1 -10 0 18 0 84 0 -55 0 19 0 -8 0 -14 0 72 1 -102 0 39 0 -15 0 43 0 -28 0 -17"/>
<path stroke="green" d="M848 649l0 19 0 -43 0 -10 1 21 0 81 0 -53 0 13 0 4 0 -23 0 27 0 -64 0 40 1 -9 0 56 0 -40 0 -17 0 23 0 -48 0 -8 0 22 0 72 1 -44 0 6 0 17 0 -33 0 6 0 -47 0 40 0 -3 0 63 1 -48 0 -15 0 27 0 -54 0 -7 0 25 0 58 0 -31 1 25 0 -38"/>
<path stroke="green" d="M853 659l0 -8 0 -38 0 41 0 2 0 53 0 -38 0 -16 1 35 0 -63 0 -5 0 27 0 45 0 -21 0 -3 0 22 0 -33 1 -17 0 -31 0 41 0 6 0 37 0 -21 0 -19 0 49 0 -78 1 -3 0 29 0 35 0 -14 0 -4 0 13 0 -23 0 -24 0 -26 1 41 0 10 0 24 0 -8 0 -22"/>
<path stroke="green" d="M857 654l0 72 0 -102 0 -1 0 29 1 29 0 -9 0 -4 0 5 0 -14 0 -29 0 -22 0 41 0 12 1 14 0 3 0 -26 0 130 0 -160 0 1 0 28 0 24 1 -6 0 -2 0 -1 0 -7 0 -32 0 -19 0 41 0 13 0 6 1 13 0 -31 0 98 0 -127 0 2 0 27 0 21 0 -4 1 -7 0 -1"/>
<path stroke="green" d="M862 659l0 -34 0 -17 0 42 0 14 0 -1 0 20 0 -35 1 68 0 -96 0 3 0 25 0 19 0 -2 0 2 0 -12 0 5 1 -37 0 -14 0 41 0 15 0 -5 0 26 0 -39 0 53 0 -81 1 5 0 22 0 18 0 4 0 -16 0 9 0 -39 0 -11 1 40 0 15 0 -9 0 32 0 -43 0 43 0 -70 0 6"/>
<path stroke="green" d="M866 625l0 21 1 16 0 1 0 5 0 -18 0 12 0 -40 0 -9 0 39 0 15 1 -12 0 36 0 -45 0 36 0 -62 0 8 0 18 0 14 0 3 1 7 0 -22 0 16 0 -41 0 -7 0 37 0 16 0 -14 0 39 1 -48 0 30 0 -54 0 9 0 17 0 11 0 6 0 6 1 -24 0 20 0 -43 0 -5 0 35"/>
<path stroke="green" d="M871 654l0 17 0 -17 0 43 0 -49 1 24 0 -48 0 12 0 15 0 7 0 9 0 6 0 -26 0 23 1 -44 0 -3 0 31 0 20 0 -19 0 44 0 -49 0 19 0 -42 1 17 0 12 0 1 0 13 0 5 0 -27 0 25 0 -44 0 -1 1 27 0 23 0 -22 0 45 0 -48 0 14 0 -35 0 23 0 8 1 -6"/>
<path stroke="green" d="M876 657l0 17 0 3 0 -28 0 28 0 -46 0 2 0 23 0 27 1 -25 0 44 0 -45 0 8 0 -27 0 34 0 1 0 -16 0 23 1 0 0 -30 0 32 0 -48 0 5 0 18 0 32 0 -28 0 40 1 -39 0 2 0 -17 0 55 0 -14 0 -30 0 30 0 -5 0 -31 1 36 0 -51 0 8 0 14 0 39 0 -34"/>
<path stroke="green" d="M880 664l0 34 0 -30 0 -5 1 -5 0 38 0 16 0 -54 0 41 0 -13 0 -31 0 39 1 -54 0 12 0 9 0 48 0 -41 0 27 0 -19 0 -14 0 10 1 -5 0 55 0 -63 0 54 0 -24 0 -32 0 43 0 -58 0 17 1 5 0 59 0 -51 0 19 0 -7 0 -23 0 25 0 -37 0 45 1 -34"/>
<path stroke="green" d="M885 660l0 72 0 -40 0 -32 0 46 0 -64 0 23 0 3 0 69 1 -62 0 11 0 6 0 -32 0 21 0 -44 0 39 0 -15 0 72 1 -38 0 -34 0 50 0 -69 0 27 0 3 0 60 0 -54 0 5 1 11 0 -35 0 7 0 -37 0 35 0 -2 0 53 0 -18 0 -35 1 52 0 -74 0 30 0 9 0 38"/>
<path stroke="green" d="M889 717l0 -38 0 10 0 -31 1 -5 0 -31 0 33 0 8 0 37 0 -39 0 54 0 -76 1 31 0 17 0 17 0 -25 0 -3 0 5 0 -24 0 -13 0 -27 1 32 0 15 0 26 0 13 0 -43 0 54 0 -78 0 31 0 28 1 -1 0 -17 0 -3 0 -18 0 -19 0 -23 0 30 1 21 0 17 0 24 0 -48"/>
<path stroke="green" d="M894 658l0 54 0 -77 0 30 0 36 0 -14 1 -12 0 -3 0 -4 0 -13 0 -23 0 -21 0 30 0 25 0 11 1 32 0 -53 0 54 0 -77 0 30 0 38 0 -20 0 -8 0 -3 1 -7 0 -9 0 -25 0 -20 0 30 0 27 0 6 0 40 0 -58 1 53 0 -75 0 30 0 33 0 -18 0 -6 0 -2 0 -10"/>
<path stroke="green" d="M898 659l0 -5 1 -28 0 -17 0 30 0 28 0 2 0 46 0 -63 0 53 0 -73 1 29 0 26 0 -14 0 -4 0 -12 0 -3 0 -29 0 -17 1 31 0 28 0 52 0 -68 0 52 0 -71 0 29 0 19 1 -10 0 -1 0 -1 0 -13 0 -1 0 -30 0 -15 0 31 0 29 1 -3 0 58 0 -73 0 50"/>
<path stroke="green" d="M903 701l0 -67 0 28 0 13 0 -6 1 0 0 -15 0 1 0 -31 0 -14 0 32 0 28 0 -5 1 65 0 -79 0 49 0 -64 0 28 0 8 0 -5 0 3 0 -1 1 -15 0 3 0 -32 0 -12 0 32 0 27 0 -7 0 72 0 -85 1 46 0 -60 0 29 0 3 0 -4 0 6 0 -2 0 -15 0 4 1 -32 0 -12"/>
<path stroke="green" d="M908 615l0 34 0 26 0 -9 0 82 0 -94 0 42 0 -54 1 29 0 -2 0 -3 0 9 0 -4 0 -15 0 6 0 -33 0 -10 1 36 0 23 0 -10 0 94 0 -106 0 39 0 -47 0 27 0 -6 1 -3 0 14 0 -7 0 -15 0 8 0 -35 0 -8 0 39 0 21 1 -13 0 108 0 -118 0 33 0 -38 0 23"/>
<path stroke="green" d="M912 678l0 -7 0 -5 0 20 1 -12 0 -14 0 11 0 -37 0 -7 0 45 0 17 0 -16 0 100 1 -109 0 28 0 -26 0 10 0 -1 0 -9 0 29 0 -19 0 -13 1 15 0 -42 0 -4 0 53 0 12 0 -21 0 78 0 -84 1 20 0 -9 0 -11 0 10 0 -13 0 40 0 -30 0 -10 0 19 1 -48"/>
<path stroke="green" d="M917 638l0 -2 0 69 0 3 0 -27 0 58 0 -62 0 11 0 21 1 -47 0 25 0 -19 0 58 0 -47 0 -9 0 27 0 -58 0 1 1 102 0 -16 0 -41 0 42 0 -41 0 81 0 -114 0 42 1 -27 0 84 0 -72 0 -7 0 39 0 -73 0 3 0 106 0 5 1 -63 0 28 0 -24 0 -10 0 17"/>
<path stroke="green" d="M921 701l0 -55 0 55 0 -32 0 71 1 -58 0 -8 0 58 0 -94 0 4 0 71 0 40 0 -59 0 16 1 -12 0 -17 0 -4 0 -37 0 58 0 -28 0 46 0 -33 0 -8 1 64 0 -103 0 5 0 55 0 29 0 -28 0 7 0 -10 0 -16 1 -15 0 -28 0 54 0 -19 0 31 0 -17 0 -11 0 49"/>
<path stroke="green" d="M925 722l0 -88 1 6 0 47 0 20 0 -11 0 4 0 -14 0 -11 0 -21 0 -24 1 49 0 -9 0 21 0 -5 0 -15 0 35 0 -74 0 7 1 43 0 13 0 -1 0 2 0 -19 0 -5 0 -25 0 -20 0 44 1 -1 0 13 0 5 0 -19 0 27 0 -65 0 8 0 41 0 7 1 3 0 2 0 -21 0 -2 0 -27"/>
<path stroke="green" d="M930 642l0 -18 0 40 0 6 0 8 1 12 0 -24 0 22 0 -58 0 9 0 41 0 6 0 4 1 -25 0 2 0 -28 0 -17 0 37 0 10 0 5 0 18 0 -28 1 19 0 -54 0 12 0 41 0 -7 0 8 0 5 0 -27 0 3 1 -28 0 -15 0 34 0 14 0 2 0 24 0 -33 0 17 0 -50 1 15 0 42 0 -15"/>
<path stroke="green" d="M935 671l0 9 0 6 0 -28 0 5 0 -28 0 -14 1 31 0 17 0 30 0 -38 0 15 0 -46 0 19 0 45 1 -25 0 9 0 7 0 -29 0 5 0 -27 0 -13 0 29 0 18 1 0 0 35 0 -43 0 15 0 -43 0 23 0 51 0 -39 1 9 0 9 0 -30 0 5 0 -25 0 -13 0 27 0 19 1 40 0 -48"/>
<path stroke="green" d="M940 660l0 14 0 -40 0 31 0 59 0 -59 0 11 0 8 1 -30 0 6 0 -24 0 -13 0 26 0 20 0 45 0 -53 1 12 0 -35 0 42 0 57 0 -73 0 12 0 8 0 -29 0 5 1 -23 0 -11 0 24 0 20 0 49 0 -57 0 12 0 -31 1 60 0 14 0 -53 0 13 0 8 0 -29 0 4 0 -20"/>
<path stroke="green" d="M944 640l0 -11 1 23 0 19 0 2 0 51 0 -60 0 10 0 -25 0 58 0 -9 1 -34 0 15 0 6 0 -27 0 3 0 -18 0 -10 0 22 0 18 1 3 0 50 0 -59 0 8 0 -17 0 24 0 3 0 -20 0 18 1 3 0 -26 0 3 0 -17 0 -9 0 22 0 16 0 4 0 45 1 -52 0 4 0 -7 0 -4 0 11"/>
<path stroke="green" d="M949 676l0 -10 0 21 0 -1 1 -23 0 3 0 -17 0 -7 0 23 0 14 0 5 0 36 0 -43 1 1 0 9 0 -34 0 16 0 -2 0 26 0 -6 0 -21 0 4 1 -19 0 -4 0 25 0 11 0 7 0 26 0 -32 0 -6 0 45 1 -79 0 20 0 5 0 33 0 -15 0 -18 0 5 0 -23 0 -1 1 32 0 7 0 8"/>
<path stroke="green" d="M954 697l0 14 0 -17 0 -15 0 67 0 -109 0 23 1 11 0 44 0 -27 0 -16 0 8 0 -30 0 1 0 44 0 2 1 8 0 1 0 2 0 -28 0 16 0 -64 0 26 0 15 0 63 1 -48 0 -14 0 13 0 -39 0 1 0 64 0 -5 0 6 0 -11 1 25 0 -48 0 -4 0 -47 0 28 0 17 0 114 0 -100"/>
<path stroke="green" d="M958 688l0 -13 1 22 0 -53 0 2 0 83 0 -4 0 -5 0 -20 0 48 0 -68 1 -16 0 -38 0 30 0 20 0 80 0 -68 0 -14 0 34 0 -67 1 2 0 77 0 34 0 -32 0 -24 0 30 0 -49 0 -24 1 -31 0 33 0 20 0 47 0 -36 0 -16 0 49 0 -83 0 2 1 65 0 70 0 -56"/>
<path stroke="green" d="M963 719l0 -23 0 12 0 -29 0 -29 0 -27 0 36 1 19 0 30 0 -19 0 -19 0 55 0 -89 0 1 0 57 0 40 1 -21 0 -18 0 -16 0 -34 0 -22 0 38 0 18 0 17 1 -6 0 -23 0 49 0 -82 0 2 0 50 0 27 0 -6 0 -13 1 -8 0 -7 0 -37 0 -18 0 41 0 15 0 8"/>
<path stroke="green" d="M967 688l0 3 0 -26 1 40 0 -71 0 1 0 47 0 18 0 3 0 -9 0 -15 1 -38 0 -16 0 45 0 11 0 1 0 10 0 -28 0 31 0 -62 1 3 0 44 0 11 0 8 0 -5 0 -20 0 6 0 -40 0 -13 1 48 0 7 0 -4 0 16 0 -31 0 24 0 -53 0 4 0 42 1 4 0 12 0 -1 0 -25 0 10"/>
<path stroke="green" d="M972 680l0 -40 0 -11 0 52 1 2 0 -8 0 21 0 -33 0 19 0 -47 0 6 0 41 0 -4 1 16 0 2 0 -29 0 14 0 -41 0 -7 0 52 0 -1 0 -12 1 27 0 -36 0 15 0 -40 0 8 0 41 0 -13 0 19 0 4 1 -32 0 17 0 -40 0 -5 0 49 0 -15 0 31 0 -38 1 10 0 -33"/>
<path stroke="green" d="M977 641l0 11 0 42 0 -23 0 21 0 6 0 -34 0 19 1 -39 0 -1 0 40 0 5 0 -18 0 36 0 -40 0 6 0 -27 1 16 0 45 0 -38 0 24 0 7 0 -35 0 21 0 -38 0 2 1 29 0 12 0 -19 0 38 0 -40 0 1 0 -18 0 19 0 54 1 -59 0 27 0 7 0 -35 0 21 0 -35 0 7"/>
<path stroke="green" d="M981 658l0 15 0 19 1 -20 0 39 0 -38 0 -4 0 -9 0 18 0 61 0 -74 0 29 1 7 0 -35 0 22 0 -34 0 14 0 27 0 -22 1 39 0 -34 0 -10 0 3 0 1 0 45 0 -53 0 32 0 5 1 -33 0 21 0 -31 0 21 0 -15 0 34 0 -22 0 35 0 -26 1 -17 0 20 0 -27 0 36"/>
<path stroke="green" d="M986 697l0 -33 0 35 0 3 0 -32 0 21 1 -31 0 29 0 -28 0 41 0 -23 0 30 0 -14 0 -27 0 54 1 -72 0 34 0 -20 0 38 0 -29 0 20 0 -32 0 29 1 -31 0 47 0 -23 0 23 0 2 0 -41 0 91 0 -117 0 33 1 -10 0 42 0 -4 0 -26 0 19 0 -35 0 22 0 -24"/>
<path stroke="green" d="M990 658l0 51 1 -21 0 14 0 26 0 -61 0 34 0 -67 0 33 0 -3 0 47 1 -9 0 -23 0 19 0 -41 0 17 0 -16 0 54 0 -19 0 6 1 68 0 -100 0 13 0 -51 0 32 0 4 0 51 0 -15 0 -20 1 20 0 -48 0 13 0 -7 0 55 0 -15 0 -2 0 57 0 -88 1 1 0 -42 0 32"/>
<path stroke="green" d="M995 657l0 9 0 54 0 -19 0 -19 0 23 1 -56 0 12 0 -1 0 54 0 -10 0 -9 0 28 0 -57 0 -7 1 -37 0 33 0 12 0 56 0 -22 0 -19 0 27 0 -63 0 12 1 5 0 50 0 -6 0 -14 0 14 0 -42 0 -12 0 -33 0 33 1 14 0 55 0 -20 0 -22 0 34 0 -70 0 11"/>
<path stroke="green" d="M999 655l0 11 0 44 1 -3 0 -15 0 4 0 -31 0 -16 0 -30 0 33 0 16 0 50 1 -15 0 -26 0 42 0 -77 0 12 0 17 0 35 0 -1 0 -14 1 -3 0 -24 0 -18 0 -28 0 35 0 15 0 44 0 -8 0 -30 1 49 0 -82 0 14 0 22 0 26 0 -2 0 -10 0 -8 0 -19 1 -20"/>
<path stroke="green" d="M1004 644l0 -25 0 35 0 15 0 37 0 -1 0 -34 0 53 0 -84 1 16 0 29 0 14 0 -2 0 -6 0 -12 0 -15 0 -21 0 -23 1 37 0 13 0 31 0 7 0 -39 0 53 0 -81 0 19 1 34 0 1 0 -1 0 -2 0 -15 0 -13 0 -20 0 -22 0 39 1 9 0 26 0 14 0 -42 0 50 0 -76"/>
<path stroke="green" d="M1008 642l0 23 0 40 0 -13 1 0 0 -17 0 -10 0 -20 0 -20 0 42 0 4 0 21 1 22 0 -47 0 46 0 -69 0 28 0 44 0 -27 0 1 0 3 1 -19 0 -8 0 -20 0 -17 0 45 0 -1 0 15 0 30 0 -51 1 40 0 -60 0 36 0 34 0 -30 0 2 0 5 0 -20 0 -6 1 -19 0 -15"/>
<path stroke="green" d="M1013 634l0 50 0 -10 0 12 0 36 0 -55 0 36 0 -52 1 51 0 7 0 -25 0 5 0 6 0 -20 0 -5 0 -18 0 -13 1 57 0 -20 0 8 0 42 0 -58 0 31 0 -42 0 83 0 -42 1 -16 0 8 0 5 0 -19 0 -3 0 -17 0 -11 0 61 0 -27 1 4 0 46 0 -59 0 25 0 -31 0 58"/>
<path stroke="green" d="M1017 722l0 -32 0 -9 1 10 0 5 0 -18 0 -1 0 -18 0 -7 0 51 0 -21 1 48 0 -56 0 18 0 -18 0 17 0 -8 0 -3 0 14 0 2 1 -15 0 1 0 -20 0 -6 0 35 0 -4 0 -5 0 45 0 -49 1 12 0 -2 0 -15 0 6 0 -1 0 19 0 -1 0 -12 0 4 1 -24 0 -6 0 22 0 12"/>
<path stroke="green" d="M1022 692l0 -9 0 40 0 -40 0 5 0 22 1 -49 0 14 0 3 0 24 0 -7 0 -8 0 8 0 -31 0 -8 1 15 0 28 0 -15 0 34 0 -28 0 -4 0 53 0 -87 0 20 1 5 0 30 0 -12 0 -4 0 13 0 -42 0 -10 0 13 0 44 1 -22 0 27 0 -14 0 -16 0 31 0 -70 0 26 0 6"/>
<path stroke="green" d="M1026 677l0 37 1 -19 0 22 0 -58 0 -12 0 13 0 62 0 -33 0 21 1 3 0 -30 0 10 0 -53 0 30 0 6 0 47 0 -28 0 3 1 39 0 -82 0 -11 0 13 0 86 0 -50 0 14 0 25 1 -51 0 -2 0 -43 0 34 0 6 0 58 0 -39 0 5 0 74 1 -122 0 -11 0 14 0 134 0 -93"/>
<path stroke="green" d="M1031 696l0 8 0 45 0 -70 0 -9 1 -37 0 38 0 5 0 67 0 -47 0 4 0 73 0 -124 0 -10 1 15 0 114 0 -68 0 2 0 32 0 -56 0 -14 0 -33 0 41 1 4 0 67 0 -46 0 1 0 41 0 -92 0 -9 0 16 0 81 1 -33 0 -2 0 16 0 -40 0 -17 0 -29 0 44 0 2 0 58"/>
<path stroke="green" d="M1035 734l1 -36 0 -3 0 27 0 -76 0 -8 0 16 0 64 0 -15 0 -3 1 4 0 -30 0 -18 0 -26 0 47 0 -1 0 48 0 -24 0 -8 1 19 0 -66 0 -5 0 16 0 51 0 -4 0 -4 0 -4 0 -22 1 -18 0 -24 0 49 0 -4 0 39 0 -12 0 -14 0 14 0 -58 1 -3 0 17 0 40"/>
<path stroke="green" d="M1040 699l0 1 0 -12 0 -16 0 -18 1 -22 0 52 0 -8 0 32 0 -2 0 -20 0 11 0 -51 1 16 0 31 0 4 0 3 0 -16 0 -13 0 -17 0 -20 0 53 1 -11 0 26 0 8 0 -26 0 9 0 -45 0 2 0 16 0 22 1 6 0 7 0 -20 0 -11 0 -14 0 -19 0 52 0 -13 0 21 1 18"/>
<path stroke="green" d="M1045 715l0 -33 0 8 0 -40 0 7 0 13 0 15 0 6 0 11 1 -23 0 -9 0 -12 0 -16 0 47 0 -13 0 18 0 26 0 -39 1 7 0 -34 0 9 0 10 0 9 0 6 0 16 0 -27 0 -7 1 -9 0 -14 0 39 0 -9 0 14 0 34 0 -45 0 6 0 -27 1 11 0 5 0 5 0 7 0 18 0 -28 0 -6"/>
<path stroke="green" d="M1049 671l0 -6 0 -10 1 27 0 -4 0 11 0 40 0 -48 0 4 0 -19 0 6 0 2 1 4 0 8 0 19 0 -27 0 -6 0 -2 0 -7 0 14 1 2 0 9 0 41 0 -47 0 2 0 -9 0 -8 0 4 0 6 1 8 0 21 0 -27 0 -6 0 1 0 -2 0 9 0 6 1 40 0 -44 0 1 0 3 0 -27 0 7 0 10 0 9"/>
<path stroke="green" d="M1054 686l0 20 1 -25 0 -6 0 3 0 6 0 -16 0 15 0 4 0 36 0 -37 1 -2 0 21 0 -53 0 11 0 13 0 11 0 18 0 -21 0 -6 1 2 0 7 0 -23 0 22 0 1 0 31 0 -28 0 -7 0 48 1 -86 0 15 0 17 0 13 0 14 0 -17 0 -5 0 -3 0 2 1 -20 0 29 0 -2 0 25"/>
<path stroke="green" d="M1059 713l0 -18 0 -12 0 43 0 -86 0 17 1 20 0 16 0 10 0 -13 0 -4 0 -11 0 -3 0 -13 0 36 1 -5 0 19 0 -8 0 -18 0 19 0 -67 0 20 0 22 0 20 1 5 0 -9 0 -1 0 -21 0 -7 0 -7 0 44 0 -9 0 13 1 4 0 -27 0 5 0 -55 0 22 0 23 0 26 0 -2"/>
<path stroke="green" d="M1063 701l1 -6 0 3 0 -32 0 -7 0 -3 0 54 0 -15 0 8 0 17 1 -40 0 -3 0 -48 0 25 0 22 0 35 0 -10 0 -5 0 10 1 -45 0 -6 0 66 0 -24 0 4 0 32 0 -56 0 -7 1 -42 0 28 0 19 0 46 0 -20 0 -6 0 24 0 -62 0 -4 1 0 0 83 0 -40 0 4 0 39 0 -65"/>
<path stroke="green" d="M1068 674l0 -11 0 -36 0 36 1 12 0 69 0 -43 0 -1 0 69 0 -112 0 -8"/>
</svg>
