<?xml version="1.0" standalone="yes"?>
<!DOCTYPE svg PUBLIC "-//W3C//DTD SVG 1.1//EN"
 "http://www.w3.org/Graphics/SVG/1.1/DTD/svg11.dtd">
<svg xmlns="http://www.w3.org/2000/svg" version="1.1"
  width="100%" height="100%" viewBox="0 0 1200 900"
  style="fill: none; font-family: Arial;
 font: Arial;
">

<!-- Creator: NGspice -->

<rect x="0" y="0" width="1200" height="900" fill="black" stroke="none"/>
<text stroke="none" fill="cyan" font-size="24" x="420" y="876">
Time
</text>
<text transform="rotate(-90, 32, 474)"  stroke="none" fill="cyan" font-size="24" x="32" y="474">
Ids
</text>
<text stroke="none" fill="cyan" font-size="24" x="16" y="24">
tran730: Ids transient
</text>
<path stroke="cyan" d="M118 804l0 -704"/>
<text stroke="none" fill="cyan" font-size="24" x="94" y="840">
0.0
</text>
<path stroke="cyan" stroke-dasharray="1,2" d="M318 804l0 -704"/>
<text stroke="none" fill="cyan" font-size="24" x="294" y="840">
5.0
</text>
<path stroke="cyan" stroke-dasharray="1,2" d="M518 804l0 -704"/>
<text stroke="none" fill="cyan" font-size="24" x="486" y="840">
10.0
</text>
<path stroke="cyan" stroke-dasharray="1,2" d="M718 804l0 -704"/>
<text stroke="none" fill="cyan" font-size="24" x="686" y="840">
15.0
</text>
<path stroke="cyan" stroke-dasharray="1,2" d="M918 804l0 -704"/>
<text stroke="none" fill="cyan" font-size="24" x="886" y="840">
20.0
</text>
<path stroke="cyan" stroke-dasharray="1,2" d="M1118 804l0 -704"/>
<text stroke="none" fill="cyan" font-size="24" x="1086" y="840">
25.0
</text>
<text stroke="none" fill="cyan" font-size="24" x="720" y="876">
ms
</text>
<path stroke="cyan" d="M118 804l1000 0"/>
<text stroke="none" fill="cyan" font-size="24" x="52" y="816">
-0.0
</text>
<path stroke="cyan" stroke-dasharray="1,2" d="M118 716l1000 0"/>
<text stroke="none" fill="cyan" font-size="24" x="68" y="728">
1.0
</text>
<path stroke="cyan" stroke-dasharray="1,2" d="M118 628l1000 0"/>
<text stroke="none" fill="cyan" font-size="24" x="68" y="640">
2.0
</text>
<path stroke="cyan" stroke-dasharray="1,2" d="M118 540l1000 0"/>
<text stroke="none" fill="cyan" font-size="24" x="68" y="552">
3.0
</text>
<path stroke="cyan" stroke-dasharray="1,2" d="M118 452l1000 0"/>
<text stroke="none" fill="cyan" font-size="24" x="68" y="464">
4.0
</text>
<path stroke="cyan" stroke-dasharray="1,2" d="M118 364l1000 0"/>
<text stroke="none" fill="cyan" font-size="24" x="68" y="376">
5.0
</text>
<path stroke="cyan" stroke-dasharray="1,2" d="M118 276l1000 0"/>
<text stroke="none" fill="cyan" font-size="24" x="68" y="288">
6.0
</text>
<path stroke="cyan" stroke-dasharray="1,2" d="M118 188l1000 0"/>
<text stroke="none" fill="cyan" font-size="24" x="68" y="200">
7.0
</text>
<path stroke="cyan" stroke-dasharray="1,2" d="M118 100l1000 0"/>
<text stroke="none" fill="cyan" font-size="24" x="68" y="112">
8.0
</text>
<text stroke="none" fill="cyan" font-size="24" x="16" y="48">
A
</text>
<path stroke="green" d="M500 35l50 0"/>
<text stroke="none" fill="cyan" font-size="24" x="566" y="48">
id
</text>
<path stroke="green" d="M118 804l1 0 1 0 1 0 0 -2 0 -16 0 -17 0 -18 0 -18 0 -19 0 -18 0 -18 0 -18 1 -18 0 -18 0 -17 0 -18 0 -17 0 -17 0 -17 0 -17 0 -16 0 -17 0 -16 0 -16 0 -15 1 -16 0 -15 0 -15 0 -15 0 -15 0 -14 0 -14 0 -14 0 -13 0 -13 0 -13"/>
<path stroke="green" d="M123 284l0 -12 1 -12 0 -12 0 -11 0 -11 0 -10 0 -10 0 -9 0 -9 0 -7 0 -5 0 -6 0 -6 0 -7 1 -8 0 -8 0 -7 0 -8 0 -7 0 -8 0 -6 0 -2 0 -1 1 0 0 -1 1 0 1 0 1 0 1 0 1 0 1 0 1 0 1 0 1 0 1 0 1 0 1 0 1 0 1 0 1 0 1 0 1 0 1 0 1 0 1 0"/>
<path stroke="green" d="M146 101l1 0 1 0 1 0 1 0 1 0 1 0 1 0 1 0 1 0 1 0 1 0 1 0 1 0 1 0 1 0 1 0 1 0 1 0 1 0 1 0 1 0 1 0 1 0 1 0 1 0 1 0 1 0 1 0 1 0 1 0 1 0 1 0 1 0 1 0 1 0 1 0 1 0 1 0 1 0 1 0 1 0 1 0 1 0 1 0 1 0 1 0 1 0 1 0 1 0 1 0 1 0 1 0 1 0"/>
<path stroke="green" d="M199 101l1 0 1 0 1 0 1 0 0 1 0 1 0 1 0 10 0 12 0 12 1 12 0 11 0 12 0 10 0 12 0 9 0 9 0 16 0 17 0 18 0 18 0 20 0 20 1 21 0 21 0 22 0 22 0 23 0 23 0 23 0 24 0 24 0 24 0 24 0 25 1 25 0 25 0 25 0 25 0 25 0 25 0 24 0 23 0 9"/>
<path stroke="green" d="M206 804l1 0 1 0 1 0 1 0 1 0 1 0 1 0 1 0 1 0 1 0 1 0 1 0 1 0 1 0 1 0 1 0 1 0 1 0 1 0 1 0 1 0 1 0 1 0 1 0 1 0 1 0 1 0 1 0 1 0 1 0 1 0 1 0 1 0 1 0 1 0 1 0 1 0 1 0 1 0 1 0 1 0 1 0 1 0 1 0 1 0 1 0 1 0 1 0 1 0 1 0 1 0 1 0 1 0"/>
<path stroke="green" d="M259 804l1 0 1 0 1 0 1 0 1 0 1 0 1 0 1 0 1 0 1 0 1 0 1 0 1 0 1 0 1 0 1 0 1 0 1 0 1 0 1 0 1 0 1 0 1 0 1 0 1 0 1 0 1 0 1 0 0 -12 0 -17 1 -18 0 -18 0 -19 0 -18 0 -18 0 -18 0 -18 0 -18 0 -17 0 -18 0 -17 0 -17 1 -17 0 -17 0 -17"/>
<path stroke="green" d="M289 510l0 -16 0 -16 0 -16 0 -16 0 -16 0 -15 0 -15 0 -15 0 -15 0 -14 1 -14 0 -14 0 -14 0 -13 0 -13 0 -12 0 -12 0 -12 0 -12 0 -11 0 -10 0 -10 1 -9 0 -9 0 -8 0 -6 0 -7 0 -6 0 -7 0 -7 0 -8 0 -7 0 -8 0 -7 0 -8 1 -7 0 -2 0 -1"/>
<path stroke="green" d="M292 102l0 -1 1 0 1 0 1 0 1 0 1 0 1 0 1 0 1 0 1 0 1 0 1 0 1 0 1 0 1 0 1 0 1 0 1 0 1 0 1 0 1 0 1 0 1 0 1 0 1 0 1 0 1 0 1 0 1 0 1 0 1 0 1 0 1 0 1 0 1 0 1 0 1 0 1 0 1 0 1 0 1 0 1 0 1 0 1 0 1 0 1 0 1 0 1 0 1 0 1 0 1 0 1 0"/>
<path stroke="green" d="M343 101l1 0 1 0 1 0 1 0 1 0 1 0 1 0 1 0 1 0 1 0 1 0 1 0 1 0 1 0 1 0 1 0 1 0 1 0 1 0 1 0 1 0 1 0 1 0 1 0 1 0 1 0 1 0 0 1 0 1 0 1 0 10 0 12 0 12 0 12 0 12 0 12 0 9 1 11 0 9 0 9 0 16 0 17 0 18 0 19 0 20 0 20 0 21 0 21 0 22"/>
<path stroke="green" d="M371 386l0 22 1 23 0 23 0 23 0 24 0 23 0 25 0 24 0 25 0 24 0 25 0 25 0 25 1 25 0 25 0 25 0 23 0 9 1 0 1 0 1 0 1 0 1 0 1 0 1 0 1 0 1 0 1 0 1 0 1 0 1 0 1 0 1 0 1 0 1 0 1 0 1 0 1 0 1 0 1 0 1 0 1 0 1 0 1 0 1 0 1 0 1 0 1 0"/>
<path stroke="green" d="M403 804l1 0 1 0 1 0 1 0 1 0 1 0 1 0 1 0 1 0 1 0 1 0 1 0 1 0 1 0 1 0 1 0 1 0 1 0 1 0 1 0 1 0 1 0 1 0 1 0 1 0 1 0 1 0 1 0 1 0 1 0 1 0 1 0 1 0 1 0 1 0 1 0 1 0 1 0 1 0 1 0 1 0 1 0 1 0 1 0 1 0 1 0 1 0 1 0 1 0 1 0 1 0 0 -10"/>
<path stroke="green" d="M454 794l0 -17 0 -18 0 -18 0 -19 0 -18 1 -18 0 -18 0 -18 0 -18 0 -17 0 -18 0 -17 0 -17 0 -17 0 -17 0 -17 0 -16 0 -16 1 -17 0 -15 0 -16 0 -15 0 -16 0 -14 0 -15 0 -14 0 -15 0 -13 0 -14 0 -13 1 -13 0 -13 0 -12 0 -12 0 -11"/>
<path stroke="green" d="M457 242l0 -11 0 -11 0 -10 0 -9 0 -9 0 -8 0 -7 1 -8 0 -6 0 -7 0 -8 0 -8 0 -7 0 -8 0 -7 0 -8 0 -6 0 -1 0 -1 1 0 0 -1 1 0 1 0 1 0 1 0 1 0 1 0 1 0 1 0 1 0 1 0 1 0 1 0 1 0 1 0 1 0 1 0 1 0 1 0 1 0 1 0 1 0 1 0 1 0 1 0 1 0 1 0"/>
<path stroke="green" d="M485 101l1 0 1 0 1 0 1 0 1 0 1 0 1 0 1 0 1 0 1 0 1 0 1 0 1 0 1 0 1 0 1 0 1 0 1 0 1 0 1 0 1 0 1 0 1 0 1 0 1 0 1 0 1 0 1 0 1 0 1 0 1 0 1 0 1 0 1 0 1 0 1 0 1 0 1 0 1 0 1 0 1 0 1 0 1 0 1 0 1 0 1 0 1 0 1 0 1 0 1 0 1 0 0 1 1 1"/>
<path stroke="green" d="M537 103l0 1 0 10 0 12 0 12 0 12 0 12 0 12 0 9 0 11 0 9 0 9 0 16 0 17 1 18 0 19 0 20 0 20 0 21 0 21 0 22 0 22 0 22 0 23 0 24 0 23 1 24 0 24 0 25 0 24 0 25 0 25 0 25 0 25 0 25 0 25 0 24 0 23 1 10 1 0 1 0 1 0 1 0 1 0 1 0"/>
<path stroke="green" d="M546 804l1 0 1 0 1 0 1 0 1 0 1 0 1 0 1 0 1 0 1 0 1 0 1 0 1 0 1 0 1 0 1 0 1 0 1 0 1 0 1 0 1 0 1 0 1 0 1 0 1 0 1 0 1 0 1 0 1 0 1 0 1 0 1 0 1 0 1 0 1 0 1 0 1 0 1 0 1 0 1 0 1 0 1 0 1 0 1 0 1 0 1 0 1 0 1 0 1 0 1 0 1 0 1 0 1 0"/>
<path stroke="green" d="M599 804l1 0 1 0 1 0 1 0 1 0 1 0 1 0 1 0 1 0 1 0 1 0 1 0 1 0 1 0 1 0 1 0 1 0 1 0 1 0 1 0 1 0 1 0 0 -11 0 -17 0 -18 0 -18 0 -18 0 -19 0 -18 0 -18 0 -18 0 -18 1 -17 0 -18 0 -17 0 -17 0 -17 0 -17 0 -17 0 -16 0 -16 0 -16 0 -16"/>
<path stroke="green" d="M622 447l0 -16 0 -15 1 -15 0 -15 0 -15 0 -14 0 -14 0 -14 0 -14 0 -13 0 -13 0 -12 0 -13 0 -11 1 -12 0 -11 0 -10 0 -10 0 -10 0 -8 0 -8 0 -8 0 -7 0 -7 0 -7 0 -8 1 -7 0 -8 0 -7 0 -8 0 -7 0 -6 0 -1 0 -1 1 -1 1 0 1 0 1 0 1 0"/>
<path stroke="green" d="M630 101l1 0 1 0 1 0 1 0 1 0 1 0 1 0 1 0 1 0 1 0 1 0 1 0 1 0 1 0 1 0 1 0 1 0 1 0 1 0 1 0 1 0 1 0 1 0 1 0 1 0 1 0 1 0 1 0 1 0 1 0 1 0 1 0 1 0 1 0 1 0 1 0 1 0 1 0 1 0 1 0 1 0 1 0 1 0 1 0 1 0 1 0 1 0 1 0 1 0 1 0 1 0 1 0 1 0"/>
<path stroke="green" d="M683 101l1 0 1 0 1 0 1 0 1 0 1 0 1 0 1 0 1 0 1 0 1 0 1 0 1 0 1 0 1 0 1 0 1 0 1 0 1 0 1 0 0 1 0 2 0 8 0 12 0 12 1 12 0 12 0 12 0 12 0 12 0 10 0 9 0 16 0 17 0 18 0 19 0 20 0 20 1 21 0 21 0 22 0 22 0 23 0 23 0 24 0 23 0 24"/>
<path stroke="green" d="M705 528l0 24 0 25 0 25 1 24 0 25 0 25 0 25 0 25 0 25 0 24 0 23 0 6 1 0 1 0 1 0 1 0 1 0 1 0 1 0 1 0 1 0 1 0 1 0 1 0 1 0 1 0 1 0 1 0 1 0 1 0 1 0 1 0 1 0 1 0 1 0 1 0 1 0 1 0 1 0 1 0 1 0 1 0 1 0 1 0 1 0 1 0 1 0 1 0 1 0 1 0"/>
<path stroke="green" d="M744 804l1 0 1 0 1 0 1 0 1 0 1 0 1 0 1 0 1 0 1 0 1 0 1 0 1 0 1 0 1 0 1 0 1 0 1 0 1 0 1 0 1 0 1 0 1 0 1 0 1 0 1 0 1 0 1 0 1 0 1 0 1 0 1 0 1 0 1 0 1 0 1 0 1 0 1 0 1 0 1 0 1 0 1 0 1 0 0 -14 0 -18 1 -18 0 -18 0 -18 0 -18 0 -18"/>
<path stroke="green" d="M788 682l0 -18 0 -18 0 -18 0 -18 0 -17 0 -18 0 -17 1 -17 0 -16 0 -17 0 -16 0 -17 0 -16 0 -15 0 -16 0 -15 0 -15 0 -15 0 -15 1 -14 0 -14 0 -14 0 -13 0 -14 0 -12 0 -13 0 -12 0 -12 0 -11 0 -11 0 -10 0 -10 1 -10 0 -8 0 -8 0 -5"/>
<path stroke="green" d="M791 177l0 -6 0 -7 0 -7 0 -7 0 -8 0 -7 0 -8 0 -7 0 -8 1 -7 0 -2 0 -1 0 -1 1 0 1 0 1 0 1 0 1 0 1 0 1 0 1 0 1 0 1 0 1 0 1 0 1 0 1 0 1 0 1 0 1 0 1 0 1 0 1 0 1 0 1 0 1 0 1 0 1 0 1 0 1 0 1 0 1 0 1 0 1 0 1 0 1 0 1 0 1 0 1 0"/>
<path stroke="green" d="M828 101l1 0 1 0 1 0 1 0 1 0 1 0 1 0 1 0 1 0 1 0 1 0 1 0 1 0 1 0 1 0 1 0 1 0 1 0 1 0 1 0 1 0 1 0 1 0 1 0 1 0 1 0 1 0 1 0 1 0 1 0 1 0 1 0 1 0 1 0 1 0 1 0 1 0 1 0 1 0 1 0 1 0 1 0 0 1 0 2 0 9 0 12 0 12 0 12 0 12 0 12 0 11"/>
<path stroke="green" d="M870 184l1 13 0 9 0 9 0 16 0 18 0 18 0 19 0 20 0 20 0 21 0 21 0 22 0 22 1 23 0 23 0 23 0 24 0 24 0 24 0 25 0 24 0 25 0 25 0 25 0 25 1 25 0 25 0 24 0 22 0 6 1 0 1 0 1 0 1 0 1 0 1 0 1 0 1 0 1 0 1 0 1 0 1 0 1 0 1 0 1 0 1 0"/>
<path stroke="green" d="M889 804l1 0 1 0 1 0 1 0 1 0 1 0 1 0 1 0 1 0 1 0 1 0 1 0 1 0 1 0 1 0 1 0 1 0 1 0 1 0 1 0 1 0 1 0 1 0 1 0 1 0 1 0 1 0 1 0 1 0 1 0 1 0 1 0 1 0 1 0 1 0 1 0 1 0 1 0 1 0 1 0 1 0 1 0 1 0 1 0 1 0 1 0 1 0 1 0 1 0 1 0 1 0 1 0 1 0"/>
<path stroke="green" d="M942 804l1 0 1 0 1 0 1 0 1 0 1 0 1 0 1 0 1 0"/>
</svg>
