<?xml version="1.0" standalone="yes"?>
<!DOCTYPE svg PUBLIC "-//W3C//DTD SVG 1.1//EN"
 "http://www.w3.org/Graphics/SVG/1.1/DTD/svg11.dtd">
<svg xmlns="http://www.w3.org/2000/svg" version="1.1"
  width="100%" height="100%" viewBox="0 0 1200 900"
  style="fill: none; font-family: Arial;
 font: Arial;
">

<!-- Creator: NGspice -->

<rect x="0" y="0" width="1200" height="900" fill="black" stroke="none"/>
<text stroke="none" fill="cyan" font-size="24" x="420" y="876">
Time
</text>
<text transform="rotate(-90, 32, 474)"  stroke="none" fill="cyan" font-size="24" x="32" y="474">
Ids
</text>
<text stroke="none" fill="cyan" font-size="24" x="16" y="24">
tran99: Ids transient
</text>
<path stroke="cyan" d="M118 804l0 -704"/>
<text stroke="none" fill="cyan" font-size="24" x="94" y="840">
0.0
</text>
<path stroke="cyan" stroke-dasharray="1,2" d="M318 804l0 -704"/>
<text stroke="none" fill="cyan" font-size="24" x="294" y="840">
5.0
</text>
<path stroke="cyan" stroke-dasharray="1,2" d="M518 804l0 -704"/>
<text stroke="none" fill="cyan" font-size="24" x="486" y="840">
10.0
</text>
<path stroke="cyan" stroke-dasharray="1,2" d="M718 804l0 -704"/>
<text stroke="none" fill="cyan" font-size="24" x="686" y="840">
15.0
</text>
<path stroke="cyan" stroke-dasharray="1,2" d="M918 804l0 -704"/>
<text stroke="none" fill="cyan" font-size="24" x="886" y="840">
20.0
</text>
<path stroke="cyan" stroke-dasharray="1,2" d="M1118 804l0 -704"/>
<text stroke="none" fill="cyan" font-size="24" x="1086" y="840">
25.0
</text>
<text stroke="none" fill="cyan" font-size="24" x="720" y="876">
ms
</text>
<path stroke="cyan" d="M118 804l1000 0"/>
<text stroke="none" fill="cyan" font-size="24" x="52" y="816">
-0.0
</text>
<path stroke="cyan" stroke-dasharray="1,2" d="M118 716l1000 0"/>
<text stroke="none" fill="cyan" font-size="24" x="68" y="728">
1.0
</text>
<path stroke="cyan" stroke-dasharray="1,2" d="M118 628l1000 0"/>
<text stroke="none" fill="cyan" font-size="24" x="68" y="640">
2.0
</text>
<path stroke="cyan" stroke-dasharray="1,2" d="M118 540l1000 0"/>
<text stroke="none" fill="cyan" font-size="24" x="68" y="552">
3.0
</text>
<path stroke="cyan" stroke-dasharray="1,2" d="M118 452l1000 0"/>
<text stroke="none" fill="cyan" font-size="24" x="68" y="464">
4.0
</text>
<path stroke="cyan" stroke-dasharray="1,2" d="M118 364l1000 0"/>
<text stroke="none" fill="cyan" font-size="24" x="68" y="376">
5.0
</text>
<path stroke="cyan" stroke-dasharray="1,2" d="M118 276l1000 0"/>
<text stroke="none" fill="cyan" font-size="24" x="68" y="288">
6.0
</text>
<path stroke="cyan" stroke-dasharray="1,2" d="M118 188l1000 0"/>
<text stroke="none" fill="cyan" font-size="24" x="68" y="200">
7.0
</text>
<path stroke="cyan" stroke-dasharray="1,2" d="M118 100l1000 0"/>
<text stroke="none" fill="cyan" font-size="24" x="68" y="112">
8.0
</text>
<text stroke="none" fill="cyan" font-size="24" x="16" y="48">
A
</text>
<path stroke="green" d="M500 35l50 0"/>
<text stroke="none" fill="cyan" font-size="24" x="566" y="48">
id
</text>
<path stroke="green" d="M118 804l1 0 0 -1 0 -1 0 -1 0 -1 0 -2 0 -1 0 -1 0 -2 0 -2 0 -3 0 -3 0 -3 0 -5 0 -4 0 -6 0 -6 0 -7 0 -8 0 -8 0 -10 0 -10 0 -12 0 -15 0 -19 0 -20 0 -20 0 -21 0 -21 0 -21 0 -21 0 -21 0 -21 0 -21 0 -22 0 -21 0 -21 0 -21 0 -21"/>
<path stroke="green" d="M119 380l0 -21 0 -21 0 -21 0 -20 0 -20 0 -21 0 -19 0 -20 0 -19 1 -19 0 -19 0 -18 0 -16 0 -15 0 -5 0 -1 0 -1 0 -1 0 -1 1 0 1 0 1 0 1 0 1 0 1 0 1 0 1 0 1 0 1 0 1 0 1 0 1 0 1 0 1 0 1 0 1 0 1 0 1 0 1 0 1 0 1 0 1 0 1 0 1 0"/>
<path stroke="green" d="M145 102l1 0 1 0 1 0 1 0 1 0 1 0 1 0 1 0 1 0 1 0 1 0 1 0 1 0 1 0 1 0 1 0 1 0 1 0 1 0 1 0 1 0 1 0 1 0 1 0 1 0 1 0 1 0 1 0 1 0 1 0 1 0 1 0 1 0 1 0 1 0 1 0 1 0 1 0 1 0 1 0 1 0 1 0 1 0 1 0 1 0 1 0 1 0 1 0 1 0 1 0 1 0 1 0 1 0"/>
<path stroke="green" d="M198 102l1 0 1 0 1 0 1 0 0 1 0 1 0 1 0 1 0 9 0 17 0 17 0 19 0 28 0 27 0 28 0 27 0 28 0 27 0 27 0 27 0 26 0 26 0 25 0 25 0 25 0 24 0 24 0 23 1 22 0 22 0 21 0 20 0 20 0 16 0 12 0 10 0 9 0 8 0 7 0 6 0 6 0 5 0 5 0 4 0 3 0 3"/>
<path stroke="green" d="M203 784l0 3 0 2 0 2 0 2 0 1 0 1 0 1 0 1 0 1 0 1 0 1 0 1 0 1 0 1 0 1 1 0 1 0 1 0 1 0 1 0 1 0 1 0 1 0 1 0 1 0 1 0 1 0 1 0 1 0 1 0 1 0 1 0 1 0 1 0 1 0 1 0 1 0 1 0 1 0 1 0 1 0 1 0 1 0 1 0 1 0 1 0 1 0 1 0 1 0 1 0 1 0 1 0 1 0"/>
<path stroke="green" d="M241 804l1 0 1 0 1 0 1 0 1 0 1 0 1 0 1 0 1 0 1 0 1 0 1 0 1 0 1 0 1 0 1 0 1 0 1 0 1 0 1 0 1 0 1 0 1 0 1 0 1 0 1 0 1 0 1 0 1 0 1 0 1 0 1 0 1 0 1 0 1 0 1 0 1 0 1 0 1 0 1 0 1 0 1 0 1 0 1 0 1 0 0 -1 0 -1 0 -1 0 -1 0 -1 0 -1"/>
<path stroke="green" d="M286 798l0 -1 0 -2 0 -1 0 -3 0 -2 0 -3 0 -4 0 -4 0 -5 0 -6 0 -6 0 -7 0 -8 0 -9 0 -10 0 -10 0 -12 0 -16 0 -20 0 -20 0 -20 0 -21 0 -20 0 -21 0 -21 0 -22 0 -21 0 -21 0 -21 0 -22 0 -21 0 -21 0 -21 0 -21 0 -21 0 -20 0 -21 0 -20"/>
<path stroke="green" d="M286 273l0 -20 0 -20 0 -20 0 -19 0 -19 0 -18 0 -18 0 -16 0 -15 0 -2 0 -1 0 -1 0 -1 0 -1 1 0 1 0 1 0 1 0 1 0 1 0 1 0 1 0 1 0 1 0 1 0 1 0 1 0 1 0 1 0 1 0 1 0 1 0 1 0 1 0 1 0 1 0 1 0 1 0 1 0 1 0 1 0 1 0 1 0 1 0 1 0 1 0 1 0"/>
<path stroke="green" d="M319 102l1 0 1 0 1 0 1 0 1 0 1 0 1 0 1 0 1 0 1 0 1 0 1 0 1 0 1 0 1 0 1 0 1 0 1 0 1 0 1 0 1 0 1 0 1 0 1 0 1 0 1 0 1 0 1 0 1 0 1 0 1 0 1 0 1 0 1 0 1 0 1 0 1 0 1 0 1 0 1 0 1 0 1 0 1 0 1 0 1 0 1 0 1 0 1 0 1 0 1 0 0 1 0 1 0 1"/>
<path stroke="green" d="M369 105l0 3 0 13 0 19 0 18 0 28 0 27 0 28 0 27 0 28 0 27 0 27 0 27 0 26 0 26 0 26 0 25 0 25 0 24 0 24 0 24 0 22 0 22 0 22 0 20 0 20 0 19 0 12 0 10 0 10 0 8 0 8 0 6 0 6 0 5 0 5 0 4 0 4 0 3 0 3 0 2 0 2 0 2 0 2 0 1 0 1 0 1"/>
<path stroke="green" d="M369 797l0 1 0 1 0 1 0 1 1 1 0 1 0 1 1 0 1 0 1 0 1 0 1 0 1 0 1 0 1 0 1 0 1 0 1 0 1 0 1 0 1 0 1 0 1 0 1 0 1 0 1 0 1 0 1 0 1 0 1 0 1 0 1 0 1 0 1 0 1 0 1 0 1 0 1 0 1 0 1 0 1 0 1 0 1 0 1 0 1 0 1 0 1 0 1 0 1 0 1 0 1 0 1 0 1 0"/>
<path stroke="green" d="M416 804l1 0 1 0 1 0 1 0 1 0 1 0 1 0 1 0 1 0 1 0 1 0 1 0 1 0 1 0 1 0 1 0 1 0 1 0 1 0 1 0 1 0 1 0 1 0 1 0 1 0 1 0 1 0 1 0 1 0 1 0 1 0 1 0 1 0 1 0 1 0 1 0 0 -1 0 -1 0 -1 0 -1 0 -1 0 -1 0 -1 0 -1 0 -2 0 -3 0 -2 0 -3 0 -4"/>
<path stroke="green" d="M452 782l0 -4 0 -5 0 -5 0 -7 0 -7 0 -7 0 -9 0 -10 0 -10 0 -12 0 -16 1 -19 0 -20 0 -20 0 -21 0 -20 0 -21 0 -21 0 -22 0 -21 0 -21 0 -21 0 -22 0 -21 0 -21 0 -21 0 -21 0 -21 0 -20 0 -21 0 -20 0 -20 0 -20 0 -20 0 -19 0 -19"/>
<path stroke="green" d="M453 177l0 -18 0 -18 0 -17 0 -15 0 -3 0 -1 0 -1 0 -1 0 -1 1 0 1 0 1 0 1 0 1 0 1 0 1 0 1 0 1 0 1 0 1 0 1 0 1 0 1 0 1 0 1 0 1 0 1 0 1 0 1 0 1 0 1 0 1 0 1 0 1 0 1 0 1 0 1 0 1 0 1 0 1 0 1 0 1 0 1 0 1 0 1 0 1 0 1 0 1 0 1 0"/>
<path stroke="green" d="M493 102l1 0 1 0 1 0 1 0 1 0 1 0 1 0 1 0 1 0 1 0 1 0 1 0 1 0 1 0 1 0 1 0 1 0 1 0 1 0 1 0 1 0 1 0 1 0 1 0 1 0 1 0 1 0 1 0 1 0 1 0 1 0 1 0 1 0 1 0 1 0 1 0 1 0 1 0 1 0 1 0 1 0 1 0 0 1 1 0 0 1 0 1 0 1 0 12 0 18 0 17 0 20 0 27"/>
<path stroke="green" d="M536 200l0 28 0 28 0 27 0 27 0 28 0 27 0 26 0 26 0 26 0 26 0 25 0 24 0 24 0 24 0 23 0 22 0 22 0 21 0 20 0 19 0 15 0 11 0 10 0 9 0 8 0 7 0 7 0 5 0 5 0 4 0 4 0 4 0 3 0 2 0 2 0 2 0 2 0 1 0 1 0 2 0 1 0 1 0 1 0 1 0 1 0 1 0 1"/>
<path stroke="green" d="M536 804l1 0 1 0 1 0 1 0 1 0 1 0 1 0 1 0 1 0 1 0 1 0 1 0 1 0 1 0 1 0 1 0 1 0 1 0 1 0 1 0 1 0 1 0 1 0 1 0 1 0 1 0 1 0 1 0 1 0 1 0 1 0 1 0 1 0 1 0 1 0 1 0 1 0 1 0 1 0 1 0 1 0 1 0 1 0 1 0 1 0 1 0 1 0 1 0 1 0 1 0 1 0 1 0 1 0"/>
<path stroke="green" d="M589 804l1 0 1 0 1 0 1 0 1 0 1 0 1 0 1 0 1 0 1 0 1 0 1 0 1 0 1 0 1 0 1 0 1 0 1 0 1 0 1 0 1 0 1 0 1 0 1 0 1 0 1 0 1 0 1 0 1 0 1 0 0 -1 0 -1 0 -1 0 -1 0 -1 0 -1 0 -1 0 -1 0 -2 0 -3 0 -2 0 -3 0 -4 0 -4 0 -5 0 -5 0 -7 0 -7"/>
<path stroke="green" d="M619 754l0 -8 0 -8 0 -10 0 -10 0 -12 0 -16 0 -19 0 -20 0 -20 0 -21 0 -21 0 -21 0 -21 0 -21 0 -21 0 -21 0 -22 0 -21 0 -21 0 -21 0 -21 0 -21 0 -21 0 -21 0 -20 0 -20 0 -21 0 -19 0 -20 0 -19 0 -19 0 -19 0 -17 0 -17 0 -15 0 -3"/>
<path stroke="green" d="M619 106l0 -1 1 -1 0 -1 0 -1 1 0 1 0 1 0 1 0 1 0 1 0 1 0 1 0 1 0 1 0 1 0 1 0 1 0 1 0 1 0 1 0 1 0 1 0 1 0 1 0 1 0 1 0 1 0 1 0 1 0 1 0 1 0 1 0 1 0 1 0 1 0 1 0 1 0 1 0 1 0 1 0 1 0 1 0 1 0 1 0 1 0 1 0 1 0 1 0 1 0 1 0 1 0 1 0"/>
<path stroke="green" d="M668 102l1 0 1 0 1 0 1 0 1 0 1 0 1 0 1 0 1 0 1 0 1 0 1 0 1 0 1 0 1 0 1 0 1 0 1 0 1 0 1 0 1 0 1 0 1 0 1 0 1 0 1 0 1 0 1 0 1 0 1 0 1 0 1 0 1 0 1 0 0 1 0 1 0 1 0 1 0 14 0 19 0 20 0 25 0 27 0 28 0 28 0 27 0 27 0 27 0 27 0 27"/>
<path stroke="green" d="M702 402l0 26 0 26 0 25 0 25 0 24 0 24 0 23 1 23 0 22 0 21 0 21 0 20 0 19 0 12 0 10 0 10 0 8 0 8 0 7 0 6 0 5 0 5 0 4 0 4 0 3 0 3 0 2 0 2 0 2 0 1 0 2 0 1 0 1 0 1 0 1 0 1 0 1 0 1 0 1 0 1 1 0 1 0 1 0 1 0 1 0 1 0 1 0 1 0 1 0"/>
<path stroke="green" d="M712 804l1 0 1 0 1 0 1 0 1 0 1 0 1 0 1 0 1 0 1 0 1 0 1 0 1 0 1 0 1 0 1 0 1 0 1 0 1 0 1 0 1 0 1 0 1 0 1 0 1 0 1 0 1 0 1 0 1 0 1 0 1 0 1 0 1 0 1 0 1 0 1 0 1 0 1 0 1 0 1 0 1 0 1 0 1 0 1 0 1 0 1 0 1 0 1 0 1 0 1 0 1 0 1 0 1 0"/>
<path stroke="green" d="M765 804l1 0 1 0 1 0 1 0 1 0 1 0 1 0 1 0 1 0 1 0 1 0 1 0 1 0 1 0 1 0 1 0 1 0 1 0 1 0 1 0 1 0 0 -1 0 -1 0 -1 0 -1 0 -1 0 -1 0 -1 0 -2 0 -2 0 -2 0 -3 0 -3 0 -3 0 -5 0 -4 0 -6 0 -6 0 -8 0 -8 0 -9 0 -9 0 -11 0 -11 0 -17 0 -20"/>
<path stroke="green" d="M786 668l0 -20 0 -20 0 -20 0 -21 0 -21 0 -21 0 -22 0 -21 0 -21 0 -21 0 -22 0 -21 0 -21 0 -21 0 -21 0 -21 0 -20 0 -21 0 -20 0 -20 0 -20 0 -19 0 -20 0 -19 0 -18 0 -18 0 -16 0 -14 0 -2 0 -1 0 -1 0 -1 0 -1 1 0 1 0 1 0 1 0"/>
<path stroke="green" d="M790 102l1 0 1 0 1 0 1 0 1 0 1 0 1 0 1 0 1 0 1 0 1 0 1 0 1 0 1 0 1 0 1 0 1 0 1 0 1 0 1 0 1 0 1 0 1 0 1 0 1 0 1 0 1 0 1 0 1 0 1 0 1 0 1 0 1 0 1 0 1 0 1 0 1 0 1 0 1 0 1 0 1 0 1 0 1 0 1 0 1 0 1 0 1 0 1 0 1 0 1 0 1 0 1 0 1 0"/>
<path stroke="green" d="M843 102l1 0 1 0 1 0 1 0 1 0 1 0 1 0 1 0 1 0 1 0 1 0 1 0 1 0 1 0 1 0 1 0 1 0 1 0 1 0 1 0 1 0 1 0 1 0 1 0 1 0 1 0 0 1 0 1 0 1 0 2 0 19 0 27 0 26 0 28 0 28 0 28 0 27 0 27 0 27 0 27 0 27 0 26 0 26 0 25 0 25 0 24 0 24 0 24"/>
<path stroke="green" d="M869 572l0 22 0 23 0 21 0 21 0 20 0 19 0 13 0 11 0 10 0 8 0 8 0 7 0 6 0 5 0 5 0 4 0 4 0 3 0 3 0 3 0 2 0 2 0 1 0 2 0 1 0 1 0 1 0 1 0 1 0 1 1 1 0 1 0 1 1 0 1 0 1 0 1 0 1 0 1 0 1 0 1 0 1 0 1 0 1 0 1 0 1 0 1 0 1 0 1 0 1 0"/>
<path stroke="green" d="M887 804l1 0 1 0 1 0 1 0 1 0 1 0 1 0 1 0 1 0 1 0 1 0 1 0 1 0 1 0 1 0 1 0 1 0 1 0 1 0 1 0 1 0 1 0 1 0 1 0 1 0 1 0 1 0 1 0 1 0 1 0 1 0 1 0 1 0 1 0 1 0 1 0 1 0 1 0 1 0 1 0 1 0 1 0 1 0 1 0 1 0 1 0 1 0 1 0 1 0 1 0 1 0 1 0 1 0"/>
<path stroke="green" d="M940 804l1 0 1 0 1 0 1 0 1 0 1 0 1 0 1 0 1 0 1 0 1 0"/>
</svg>
