%FSLAX45Y45*%
G04 Gerber Fmt 4.5, Leading zero omitted, Abs format (unit mm)*
G04 Created by KiCad (PCBNEW 5.1.10) date 2022-01-01 14:55:12*
%MOMM*%
%LPD*%
G01*
G04 APERTURE LIST*
%TA.AperFunction,Profile*%
%ADD10C,0.050000*%
%TD*%
%ADD11C,0.200000*%
%ADD12C,0.300000*%
G04 APERTURE END LIST*
D10*
X7870000Y-12620000D02*
G75*
G02*
X7620000Y-12370000I0J250000D01*
G01*
X7620000Y-7870000D02*
G75*
G02*
X7870000Y-7620000I250000J0D01*
G01*
X12370000Y-7620000D02*
G75*
G02*
X12620000Y-7870000I0J-250000D01*
G01*
X12620000Y-12370000D02*
G75*
G02*
X12370000Y-12620000I-250000J0D01*
G01*
X7620000Y-7870000D02*
X7620000Y-12370000D01*
X12370000Y-7620000D02*
X7870000Y-7620000D01*
X12620000Y-12370000D02*
X12620000Y-7870000D01*
X7870000Y-12620000D02*
X12370000Y-12620000D01*
D11*
X7748200Y-9941800D02*
X7778200Y-9971800D01*
X7778200Y-9941800D02*
X7748200Y-9971800D01*
X7749964Y-9838356D02*
X7779964Y-9868356D01*
X7779964Y-9838356D02*
X7749964Y-9868356D01*
X7808200Y-8875000D02*
X7838200Y-8905000D01*
X7838200Y-8875000D02*
X7808200Y-8905000D01*
X7909800Y-9992600D02*
X7939800Y-10022600D01*
X7939800Y-9992600D02*
X7909800Y-10022600D01*
X7909800Y-10094200D02*
X7939800Y-10124200D01*
X7939800Y-10094200D02*
X7909800Y-10124200D01*
X7922500Y-10905740D02*
X7952500Y-10935740D01*
X7952500Y-10905740D02*
X7922500Y-10935740D01*
X7922500Y-11159740D02*
X7952500Y-11189740D01*
X7952500Y-11159740D02*
X7922500Y-11189740D01*
X7922500Y-11415000D02*
X7952500Y-11445000D01*
X7952500Y-11415000D02*
X7922500Y-11445000D01*
X7922500Y-11669000D02*
X7952500Y-11699000D01*
X7952500Y-11669000D02*
X7922500Y-11699000D01*
X7922500Y-11923000D02*
X7952500Y-11953000D01*
X7952500Y-11923000D02*
X7922500Y-11953000D01*
X7986000Y-9023600D02*
X8016000Y-9053600D01*
X8016000Y-9023600D02*
X7986000Y-9053600D01*
X7986000Y-9125200D02*
X8016000Y-9155200D01*
X8016000Y-9125200D02*
X7986000Y-9155200D01*
X8163800Y-9861800D02*
X8193800Y-9891800D01*
X8193800Y-9861800D02*
X8163800Y-9891800D01*
X8176500Y-11415000D02*
X8206500Y-11445000D01*
X8206500Y-11415000D02*
X8176500Y-11445000D01*
X8176500Y-11669000D02*
X8206500Y-11699000D01*
X8206500Y-11669000D02*
X8176500Y-11699000D01*
X8176500Y-11923000D02*
X8206500Y-11953000D01*
X8206500Y-11923000D02*
X8176500Y-11953000D01*
X8392400Y-9353800D02*
X8422400Y-9383800D01*
X8422400Y-9353800D02*
X8392400Y-9383800D01*
X8430500Y-10905740D02*
X8460500Y-10935740D01*
X8460500Y-10905740D02*
X8430500Y-10935740D01*
X8430500Y-11161000D02*
X8460500Y-11191000D01*
X8460500Y-11161000D02*
X8430500Y-11191000D01*
X8430500Y-11415000D02*
X8460500Y-11445000D01*
X8460500Y-11415000D02*
X8430500Y-11445000D01*
X8430500Y-11669000D02*
X8460500Y-11699000D01*
X8460500Y-11669000D02*
X8430500Y-11699000D01*
X8430500Y-11923000D02*
X8460500Y-11953000D01*
X8460500Y-11923000D02*
X8430500Y-11953000D01*
X8430500Y-12175740D02*
X8460500Y-12205740D01*
X8460500Y-12175740D02*
X8430500Y-12205740D01*
X8430500Y-12431000D02*
X8460500Y-12461000D01*
X8460500Y-12431000D02*
X8430500Y-12461000D01*
X8468600Y-9861800D02*
X8498600Y-9891800D01*
X8498600Y-9861800D02*
X8468600Y-9891800D01*
X8684500Y-10145000D02*
X8714500Y-10175000D01*
X8714500Y-10145000D02*
X8684500Y-10175000D01*
X8684500Y-10399000D02*
X8714500Y-10429000D01*
X8714500Y-10399000D02*
X8684500Y-10429000D01*
X8684500Y-10653000D02*
X8714500Y-10683000D01*
X8714500Y-10653000D02*
X8684500Y-10683000D01*
X8684500Y-11161000D02*
X8714500Y-11191000D01*
X8714500Y-11161000D02*
X8684500Y-11191000D01*
X8684500Y-11415000D02*
X8714500Y-11445000D01*
X8714500Y-11415000D02*
X8684500Y-11445000D01*
X8684500Y-11669000D02*
X8714500Y-11699000D01*
X8714500Y-11669000D02*
X8684500Y-11699000D01*
X8684500Y-12431000D02*
X8714500Y-12461000D01*
X8714500Y-12431000D02*
X8684500Y-12461000D01*
X8718274Y-8565874D02*
X8748274Y-8595874D01*
X8748274Y-8565874D02*
X8718274Y-8595874D01*
X8937240Y-11923000D02*
X8967240Y-11953000D01*
X8967240Y-11923000D02*
X8937240Y-11953000D01*
X8938500Y-10145000D02*
X8968500Y-10175000D01*
X8968500Y-10145000D02*
X8938500Y-10175000D01*
X8938500Y-10399000D02*
X8968500Y-10429000D01*
X8968500Y-10399000D02*
X8938500Y-10429000D01*
X8938500Y-10653000D02*
X8968500Y-10683000D01*
X8968500Y-10653000D02*
X8938500Y-10683000D01*
X8938500Y-11159740D02*
X8968500Y-11189740D01*
X8968500Y-11159740D02*
X8938500Y-11189740D01*
X8938500Y-11415000D02*
X8968500Y-11445000D01*
X8968500Y-11415000D02*
X8938500Y-11445000D01*
X8938500Y-11669000D02*
X8968500Y-11699000D01*
X8968500Y-11669000D02*
X8938500Y-11699000D01*
X8938500Y-12175740D02*
X8968500Y-12205740D01*
X8968500Y-12175740D02*
X8938500Y-12205740D01*
X8938500Y-12431000D02*
X8968500Y-12461000D01*
X8968500Y-12431000D02*
X8938500Y-12461000D01*
X8976600Y-9357600D02*
X9006600Y-9387600D01*
X9006600Y-9357600D02*
X8976600Y-9387600D01*
X9103600Y-9687800D02*
X9133600Y-9717800D01*
X9133600Y-9687800D02*
X9103600Y-9717800D01*
X9179800Y-8773400D02*
X9209800Y-8803400D01*
X9209800Y-8773400D02*
X9179800Y-8803400D01*
X9192500Y-10145000D02*
X9222500Y-10175000D01*
X9222500Y-10145000D02*
X9192500Y-10175000D01*
X9192500Y-10399000D02*
X9222500Y-10429000D01*
X9222500Y-10399000D02*
X9192500Y-10429000D01*
X9192500Y-10653000D02*
X9222500Y-10683000D01*
X9222500Y-10653000D02*
X9192500Y-10683000D01*
X9192500Y-11413740D02*
X9222500Y-11443740D01*
X9222500Y-11413740D02*
X9192500Y-11443740D01*
X9192500Y-11669000D02*
X9222500Y-11699000D01*
X9222500Y-11669000D02*
X9192500Y-11699000D01*
X9192500Y-12431000D02*
X9222500Y-12461000D01*
X9222500Y-12431000D02*
X9192500Y-12461000D01*
X9281400Y-8773400D02*
X9311400Y-8803400D01*
X9311400Y-8773400D02*
X9281400Y-8803400D01*
X9366499Y-9137899D02*
X9396499Y-9167899D01*
X9396499Y-9137899D02*
X9366499Y-9167899D01*
X9446500Y-10145000D02*
X9476500Y-10175000D01*
X9476500Y-10145000D02*
X9446500Y-10175000D01*
X9446500Y-10399000D02*
X9476500Y-10429000D01*
X9476500Y-10399000D02*
X9446500Y-10429000D01*
X9446500Y-10653000D02*
X9476500Y-10683000D01*
X9476500Y-10653000D02*
X9446500Y-10683000D01*
X9611600Y-8693400D02*
X9641600Y-8723400D01*
X9641600Y-8693400D02*
X9611600Y-8723400D01*
X9637000Y-10856200D02*
X9667000Y-10886200D01*
X9667000Y-10856200D02*
X9637000Y-10886200D01*
X9656631Y-8626400D02*
X9686631Y-8656400D01*
X9686631Y-8626400D02*
X9656631Y-8656400D01*
X9700500Y-10145000D02*
X9730500Y-10175000D01*
X9730500Y-10145000D02*
X9700500Y-10175000D01*
X9700500Y-10399000D02*
X9730500Y-10429000D01*
X9730500Y-10399000D02*
X9700500Y-10429000D01*
X9700500Y-10653000D02*
X9730500Y-10683000D01*
X9730500Y-10653000D02*
X9700500Y-10683000D01*
X9713200Y-8566400D02*
X9743200Y-8596400D01*
X9743200Y-8566400D02*
X9713200Y-8596400D01*
X9764000Y-11415000D02*
X9794000Y-11445000D01*
X9794000Y-11415000D02*
X9764000Y-11445000D01*
X9764000Y-11669000D02*
X9794000Y-11699000D01*
X9794000Y-11669000D02*
X9764000Y-11699000D01*
X9764000Y-11923000D02*
X9794000Y-11953000D01*
X9794000Y-11923000D02*
X9764000Y-11953000D01*
X9764000Y-12177000D02*
X9794000Y-12207000D01*
X9794000Y-12177000D02*
X9764000Y-12207000D01*
X9764000Y-12431000D02*
X9794000Y-12461000D01*
X9794000Y-12431000D02*
X9764000Y-12461000D01*
X9840200Y-8769600D02*
X9870200Y-8799600D01*
X9870200Y-8769600D02*
X9840200Y-8799600D01*
X9840200Y-9023600D02*
X9870200Y-9053600D01*
X9870200Y-9023600D02*
X9840200Y-9053600D01*
X9840200Y-9687800D02*
X9870200Y-9717800D01*
X9870200Y-9687800D02*
X9840200Y-9717800D01*
X9954500Y-10145000D02*
X9984500Y-10175000D01*
X9984500Y-10145000D02*
X9954500Y-10175000D01*
X9954500Y-10399000D02*
X9984500Y-10429000D01*
X9984500Y-10399000D02*
X9954500Y-10429000D01*
X9954500Y-10653000D02*
X9984500Y-10683000D01*
X9984500Y-10653000D02*
X9954500Y-10683000D01*
X9967200Y-8566400D02*
X9997200Y-8596400D01*
X9997200Y-8566400D02*
X9967200Y-8596400D01*
X10018000Y-11415000D02*
X10048000Y-11445000D01*
X10048000Y-11415000D02*
X10018000Y-11445000D01*
X10018000Y-11669000D02*
X10048000Y-11699000D01*
X10048000Y-11669000D02*
X10018000Y-11699000D01*
X10018000Y-11923000D02*
X10048000Y-11953000D01*
X10048000Y-11923000D02*
X10018000Y-11953000D01*
X10018000Y-12177000D02*
X10048000Y-12207000D01*
X10048000Y-12177000D02*
X10018000Y-12207000D01*
X10018000Y-12431000D02*
X10048000Y-12461000D01*
X10048000Y-12431000D02*
X10018000Y-12461000D01*
X10024087Y-8626091D02*
X10054087Y-8656091D01*
X10054087Y-8626091D02*
X10024087Y-8656091D01*
X10068800Y-8693400D02*
X10098800Y-8723400D01*
X10098800Y-8693400D02*
X10068800Y-8723400D01*
X10142890Y-8313993D02*
X10172890Y-8343993D01*
X10172890Y-8313993D02*
X10142890Y-8343993D01*
X10145000Y-8443200D02*
X10175000Y-8473200D01*
X10175000Y-8443200D02*
X10145000Y-8473200D01*
X10145000Y-8567401D02*
X10175000Y-8597401D01*
X10175000Y-8567401D02*
X10145000Y-8597401D01*
X10195800Y-10856200D02*
X10225800Y-10886200D01*
X10225800Y-10856200D02*
X10195800Y-10886200D01*
X10208500Y-10145000D02*
X10238500Y-10175000D01*
X10238500Y-10145000D02*
X10208500Y-10175000D01*
X10208500Y-10399000D02*
X10238500Y-10429000D01*
X10238500Y-10399000D02*
X10208500Y-10429000D01*
X10208500Y-10653000D02*
X10238500Y-10683000D01*
X10238500Y-10653000D02*
X10208500Y-10683000D01*
X10272000Y-11415000D02*
X10302000Y-11445000D01*
X10302000Y-11415000D02*
X10272000Y-11445000D01*
X10272000Y-11669000D02*
X10302000Y-11699000D01*
X10302000Y-11669000D02*
X10272000Y-11699000D01*
X10272000Y-11923000D02*
X10302000Y-11953000D01*
X10302000Y-11923000D02*
X10272000Y-11953000D01*
X10272000Y-12177000D02*
X10302000Y-12207000D01*
X10302000Y-12177000D02*
X10272000Y-12207000D01*
X10272000Y-12431000D02*
X10302000Y-12461000D01*
X10302000Y-12431000D02*
X10272000Y-12461000D01*
X10462500Y-10145000D02*
X10492500Y-10175000D01*
X10492500Y-10145000D02*
X10462500Y-10175000D01*
X10462500Y-10399000D02*
X10492500Y-10429000D01*
X10492500Y-10399000D02*
X10462500Y-10429000D01*
X10462500Y-10653000D02*
X10492500Y-10683000D01*
X10492500Y-10653000D02*
X10462500Y-10683000D01*
X10526000Y-11415000D02*
X10556000Y-11445000D01*
X10556000Y-11415000D02*
X10526000Y-11445000D01*
X10526000Y-11669000D02*
X10556000Y-11699000D01*
X10556000Y-11669000D02*
X10526000Y-11699000D01*
X10526000Y-12431000D02*
X10556000Y-12461000D01*
X10556000Y-12431000D02*
X10526000Y-12461000D01*
X10627600Y-9878300D02*
X10657600Y-9908300D01*
X10657600Y-9878300D02*
X10627600Y-9908300D01*
X10678400Y-9506200D02*
X10708400Y-9536200D01*
X10708400Y-9506200D02*
X10678400Y-9536200D01*
X10716500Y-10145000D02*
X10746500Y-10175000D01*
X10746500Y-10145000D02*
X10716500Y-10175000D01*
X10716500Y-10399000D02*
X10746500Y-10429000D01*
X10746500Y-10399000D02*
X10716500Y-10429000D01*
X10716500Y-10653000D02*
X10746500Y-10683000D01*
X10746500Y-10653000D02*
X10716500Y-10683000D01*
X10733000Y-9357600D02*
X10763000Y-9387600D01*
X10763000Y-9357600D02*
X10733000Y-9387600D01*
X10957800Y-9357600D02*
X10987800Y-9387600D01*
X10987800Y-9357600D02*
X10957800Y-9387600D01*
X10957800Y-9506200D02*
X10987800Y-9536200D01*
X10987800Y-9506200D02*
X10957800Y-9536200D01*
X10957800Y-10856200D02*
X10987800Y-10886200D01*
X10987800Y-10856200D02*
X10957800Y-10886200D01*
X10970500Y-10145000D02*
X11000500Y-10175000D01*
X11000500Y-10145000D02*
X10970500Y-10175000D01*
X10970500Y-10399000D02*
X11000500Y-10429000D01*
X11000500Y-10399000D02*
X10970500Y-10429000D01*
X10970500Y-10653000D02*
X11000500Y-10683000D01*
X11000500Y-10653000D02*
X10970500Y-10683000D01*
X11034000Y-11415000D02*
X11064000Y-11445000D01*
X11064000Y-11415000D02*
X11034000Y-11445000D01*
X11034000Y-11669000D02*
X11064000Y-11699000D01*
X11064000Y-11669000D02*
X11034000Y-11699000D01*
X11034000Y-12431000D02*
X11064000Y-12461000D01*
X11064000Y-12431000D02*
X11034000Y-12461000D01*
X11224500Y-10145000D02*
X11254500Y-10175000D01*
X11254500Y-10145000D02*
X11224500Y-10175000D01*
X11224500Y-10399000D02*
X11254500Y-10429000D01*
X11254500Y-10399000D02*
X11224500Y-10429000D01*
X11224500Y-10653000D02*
X11254500Y-10683000D01*
X11254500Y-10653000D02*
X11224500Y-10683000D01*
X11288000Y-11415000D02*
X11318000Y-11445000D01*
X11318000Y-11415000D02*
X11288000Y-11445000D01*
X11288000Y-11669000D02*
X11318000Y-11699000D01*
X11318000Y-11669000D02*
X11288000Y-11699000D01*
X11288000Y-11923000D02*
X11318000Y-11953000D01*
X11318000Y-11923000D02*
X11288000Y-11953000D01*
X11288000Y-12177000D02*
X11318000Y-12207000D01*
X11318000Y-12177000D02*
X11288000Y-12207000D01*
X11288000Y-12431000D02*
X11318000Y-12461000D01*
X11318000Y-12431000D02*
X11288000Y-12461000D01*
X11478500Y-10145000D02*
X11508500Y-10175000D01*
X11508500Y-10145000D02*
X11478500Y-10175000D01*
X11478500Y-10399000D02*
X11508500Y-10429000D01*
X11508500Y-10399000D02*
X11478500Y-10429000D01*
X11478500Y-10653000D02*
X11508500Y-10683000D01*
X11508500Y-10653000D02*
X11478500Y-10683000D01*
X11516600Y-10856200D02*
X11546600Y-10886200D01*
X11546600Y-10856200D02*
X11516600Y-10886200D01*
X11542000Y-11415000D02*
X11572000Y-11445000D01*
X11572000Y-11415000D02*
X11542000Y-11445000D01*
X11542000Y-11669000D02*
X11572000Y-11699000D01*
X11572000Y-11669000D02*
X11542000Y-11699000D01*
X11542000Y-11923000D02*
X11572000Y-11953000D01*
X11572000Y-11923000D02*
X11542000Y-11953000D01*
X11542000Y-12177000D02*
X11572000Y-12207000D01*
X11572000Y-12177000D02*
X11542000Y-12207000D01*
X11542000Y-12431000D02*
X11572000Y-12461000D01*
X11572000Y-12431000D02*
X11542000Y-12461000D01*
X11592800Y-9357600D02*
X11622800Y-9387600D01*
X11622800Y-9357600D02*
X11592800Y-9387600D01*
X11669000Y-9878300D02*
X11699000Y-9908300D01*
X11699000Y-9878300D02*
X11669000Y-9908300D01*
X11719800Y-9506200D02*
X11749800Y-9536200D01*
X11749800Y-9506200D02*
X11719800Y-9536200D01*
X11732500Y-10145000D02*
X11762500Y-10175000D01*
X11762500Y-10145000D02*
X11732500Y-10175000D01*
X11732500Y-10399000D02*
X11762500Y-10429000D01*
X11762500Y-10399000D02*
X11732500Y-10429000D01*
X11732500Y-10653000D02*
X11762500Y-10683000D01*
X11762500Y-10653000D02*
X11732500Y-10683000D01*
X11796000Y-11415000D02*
X11826000Y-11445000D01*
X11826000Y-11415000D02*
X11796000Y-11445000D01*
X11796000Y-11669000D02*
X11826000Y-11699000D01*
X11826000Y-11669000D02*
X11796000Y-11699000D01*
X11796000Y-11923000D02*
X11826000Y-11953000D01*
X11826000Y-11923000D02*
X11796000Y-11953000D01*
X11796000Y-12177000D02*
X11826000Y-12207000D01*
X11826000Y-12177000D02*
X11796000Y-12207000D01*
X11796000Y-12431000D02*
X11826000Y-12461000D01*
X11826000Y-12431000D02*
X11796000Y-12461000D01*
X11821400Y-9357600D02*
X11851400Y-9387600D01*
X11851400Y-9357600D02*
X11821400Y-9387600D01*
X11986500Y-10145000D02*
X12016500Y-10175000D01*
X12016500Y-10145000D02*
X11986500Y-10175000D01*
X11986500Y-10399000D02*
X12016500Y-10429000D01*
X12016500Y-10399000D02*
X11986500Y-10429000D01*
X11986500Y-10653000D02*
X12016500Y-10683000D01*
X12016500Y-10653000D02*
X11986500Y-10683000D01*
X11999200Y-9506200D02*
X12029200Y-9536200D01*
X12029200Y-9506200D02*
X11999200Y-9536200D01*
X12126200Y-10145000D02*
X12156200Y-10175000D01*
X12156200Y-10145000D02*
X12126200Y-10175000D01*
X12227800Y-10145000D02*
X12257800Y-10175000D01*
X12257800Y-10145000D02*
X12227800Y-10175000D01*
X12431000Y-10145000D02*
X12461000Y-10175000D01*
X12461000Y-10145000D02*
X12431000Y-10175000D01*
X12431000Y-10399000D02*
X12461000Y-10429000D01*
X12461000Y-10399000D02*
X12431000Y-10429000D01*
X12431000Y-10653000D02*
X12461000Y-10683000D01*
X12461000Y-10653000D02*
X12431000Y-10683000D01*
X10372800Y-8915400D02*
G75*
G03*
X10372800Y-8915400I-35000J0D01*
G01*
X7950200Y-7976400D02*
X7950200Y-8076400D01*
X7900200Y-8026400D02*
X8000200Y-8026400D01*
X7950200Y-8230400D02*
X7950200Y-8330400D01*
X7900200Y-8280400D02*
X8000200Y-8280400D01*
X8204200Y-7976400D02*
X8204200Y-8076400D01*
X8154200Y-8026400D02*
X8254200Y-8026400D01*
X8204200Y-8230400D02*
X8204200Y-8330400D01*
X8154200Y-8280400D02*
X8254200Y-8280400D01*
X8458200Y-7976400D02*
X8458200Y-8076400D01*
X8408200Y-8026400D02*
X8508200Y-8026400D01*
X8458200Y-8230400D02*
X8458200Y-8330400D01*
X8408200Y-8280400D02*
X8508200Y-8280400D01*
X8712200Y-7976400D02*
X8712200Y-8076400D01*
X8662200Y-8026400D02*
X8762200Y-8026400D01*
X8712200Y-8230400D02*
X8712200Y-8330400D01*
X8662200Y-8280400D02*
X8762200Y-8280400D01*
X8966200Y-7976400D02*
X8966200Y-8076400D01*
X8916200Y-8026400D02*
X9016200Y-8026400D01*
X8966200Y-8230400D02*
X8966200Y-8330400D01*
X8916200Y-8280400D02*
X9016200Y-8280400D01*
X9220200Y-7976400D02*
X9220200Y-8076400D01*
X9170200Y-8026400D02*
X9270200Y-8026400D01*
X9220200Y-8230400D02*
X9220200Y-8330400D01*
X9170200Y-8280400D02*
X9270200Y-8280400D01*
X9474200Y-7976400D02*
X9474200Y-8076400D01*
X9424200Y-8026400D02*
X9524200Y-8026400D01*
X9474200Y-8230400D02*
X9474200Y-8330400D01*
X9424200Y-8280400D02*
X9524200Y-8280400D01*
X9728200Y-7976400D02*
X9728200Y-8076400D01*
X9678200Y-8026400D02*
X9778200Y-8026400D01*
X9728200Y-8230400D02*
X9728200Y-8330400D01*
X9678200Y-8280400D02*
X9778200Y-8280400D01*
X9982200Y-7976400D02*
X9982200Y-8076400D01*
X9932200Y-8026400D02*
X10032200Y-8026400D01*
X9982200Y-8230400D02*
X9982200Y-8330400D01*
X9932200Y-8280400D02*
X10032200Y-8280400D01*
X11532391Y-8011491D02*
X11532391Y-7933709D01*
X11454609Y-7933709D01*
X11454609Y-8011491D01*
X11532391Y-8011491D01*
X8178800Y-10524800D02*
X8238800Y-10464800D01*
X8178800Y-10404800D01*
X8118800Y-10464800D01*
X8178800Y-10524800D01*
X8178800Y-11032800D02*
X8238800Y-10972800D01*
X8178800Y-10912800D01*
X8118800Y-10972800D01*
X8178800Y-11032800D01*
X8699500Y-12133900D02*
X8759500Y-12073900D01*
X8699500Y-12013900D01*
X8639500Y-12073900D01*
X8699500Y-12133900D01*
X9207500Y-12133900D02*
X9267500Y-12073900D01*
X9207500Y-12013900D01*
X9147500Y-12073900D01*
X9207500Y-12133900D01*
X10541000Y-12133900D02*
X10601000Y-12073900D01*
X10541000Y-12013900D01*
X10481000Y-12073900D01*
X10541000Y-12133900D01*
X10938500Y-8302600D02*
X10998500Y-8242600D01*
X10938500Y-8182600D01*
X10878500Y-8242600D01*
X10938500Y-8302600D01*
X10938500Y-9132600D02*
X10998500Y-9072600D01*
X10938500Y-9012600D01*
X10878500Y-9072600D01*
X10938500Y-9132600D01*
X11049000Y-12133900D02*
X11109000Y-12073900D01*
X11049000Y-12013900D01*
X10989000Y-12073900D01*
X11049000Y-12133900D01*
X12048500Y-8302600D02*
X12108500Y-8242600D01*
X12048500Y-8182600D01*
X11988500Y-8242600D01*
X12048500Y-8302600D01*
X12088500Y-9062600D02*
X12148500Y-9002600D01*
X12088500Y-8942600D01*
X12028500Y-9002600D01*
X12088500Y-9062600D01*
X10788500Y-8557600D02*
X10998500Y-8767600D01*
X10998500Y-8557600D02*
X10788500Y-8767600D01*
X10998500Y-8662600D02*
G75*
G03*
X10998500Y-8662600I-105000J0D01*
G01*
X10798500Y-8607600D02*
X10798500Y-8717600D01*
X10988500Y-8607600D02*
X10988500Y-8717600D01*
X10798500Y-8717600D02*
G75*
G03*
X10988500Y-8717600I95000J0D01*
G01*
X10988500Y-8607600D02*
G75*
G03*
X10798500Y-8607600I-95000J0D01*
G01*
X11988500Y-8557600D02*
X12198500Y-8767600D01*
X12198500Y-8557600D02*
X11988500Y-8767600D01*
X12198500Y-8662600D02*
G75*
G03*
X12198500Y-8662600I-105000J0D01*
G01*
X11998500Y-8607600D02*
X11998500Y-8717600D01*
X12188500Y-8607600D02*
X12188500Y-8717600D01*
X11998500Y-8717600D02*
G75*
G03*
X12188500Y-8717600I95000J0D01*
G01*
X12188500Y-8607600D02*
G75*
G03*
X11998500Y-8607600I-95000J0D01*
G01*
D12*
X7903928Y-13088214D02*
X7903928Y-12788214D01*
X7975357Y-12788214D01*
X8018214Y-12802500D01*
X8046786Y-12831071D01*
X8061071Y-12859643D01*
X8075357Y-12916786D01*
X8075357Y-12959643D01*
X8061071Y-13016786D01*
X8046786Y-13045357D01*
X8018214Y-13073929D01*
X7975357Y-13088214D01*
X7903928Y-13088214D01*
X8203928Y-13088214D02*
X8203928Y-12888214D01*
X8203928Y-12945357D02*
X8218214Y-12916786D01*
X8232500Y-12902500D01*
X8261071Y-12888214D01*
X8289643Y-12888214D01*
X8389643Y-13088214D02*
X8389643Y-12888214D01*
X8389643Y-12788214D02*
X8375357Y-12802500D01*
X8389643Y-12816786D01*
X8403928Y-12802500D01*
X8389643Y-12788214D01*
X8389643Y-12816786D01*
X8575357Y-13088214D02*
X8546786Y-13073929D01*
X8532500Y-13045357D01*
X8532500Y-12788214D01*
X8732500Y-13088214D02*
X8703928Y-13073929D01*
X8689643Y-13045357D01*
X8689643Y-12788214D01*
X9075357Y-13088214D02*
X9075357Y-12788214D01*
X9175357Y-13002500D01*
X9275357Y-12788214D01*
X9275357Y-13088214D01*
X9546786Y-13088214D02*
X9546786Y-12931071D01*
X9532500Y-12902500D01*
X9503928Y-12888214D01*
X9446786Y-12888214D01*
X9418214Y-12902500D01*
X9546786Y-13073929D02*
X9518214Y-13088214D01*
X9446786Y-13088214D01*
X9418214Y-13073929D01*
X9403928Y-13045357D01*
X9403928Y-13016786D01*
X9418214Y-12988214D01*
X9446786Y-12973929D01*
X9518214Y-12973929D01*
X9546786Y-12959643D01*
X9689643Y-12888214D02*
X9689643Y-13188214D01*
X9689643Y-12902500D02*
X9718214Y-12888214D01*
X9775357Y-12888214D01*
X9803928Y-12902500D01*
X9818214Y-12916786D01*
X9832500Y-12945357D01*
X9832500Y-13031071D01*
X9818214Y-13059643D01*
X9803928Y-13073929D01*
X9775357Y-13088214D01*
X9718214Y-13088214D01*
X9689643Y-13073929D01*
X9961071Y-13059643D02*
X9975357Y-13073929D01*
X9961071Y-13088214D01*
X9946786Y-13073929D01*
X9961071Y-13059643D01*
X9961071Y-13088214D01*
X9961071Y-12902500D02*
X9975357Y-12916786D01*
X9961071Y-12931071D01*
X9946786Y-12916786D01*
X9961071Y-12902500D01*
X9961071Y-12931071D01*
X7587500Y-13567500D02*
X7617500Y-13597500D01*
X7617500Y-13567500D02*
X7587500Y-13597500D01*
X7961071Y-13418214D02*
X7989643Y-13418214D01*
X8018214Y-13432500D01*
X8032500Y-13446786D01*
X8046786Y-13475357D01*
X8061071Y-13532500D01*
X8061071Y-13603929D01*
X8046786Y-13661071D01*
X8032500Y-13689643D01*
X8018214Y-13703929D01*
X7989643Y-13718214D01*
X7961071Y-13718214D01*
X7932500Y-13703929D01*
X7918214Y-13689643D01*
X7903928Y-13661071D01*
X7889643Y-13603929D01*
X7889643Y-13532500D01*
X7903928Y-13475357D01*
X7918214Y-13446786D01*
X7932500Y-13432500D01*
X7961071Y-13418214D01*
X8189643Y-13689643D02*
X8203928Y-13703929D01*
X8189643Y-13718214D01*
X8175357Y-13703929D01*
X8189643Y-13689643D01*
X8189643Y-13718214D01*
X8303928Y-13418214D02*
X8489643Y-13418214D01*
X8389643Y-13532500D01*
X8432500Y-13532500D01*
X8461071Y-13546786D01*
X8475357Y-13561071D01*
X8489643Y-13589643D01*
X8489643Y-13661071D01*
X8475357Y-13689643D01*
X8461071Y-13703929D01*
X8432500Y-13718214D01*
X8346786Y-13718214D01*
X8318214Y-13703929D01*
X8303928Y-13689643D01*
X8675357Y-13418214D02*
X8703928Y-13418214D01*
X8732500Y-13432500D01*
X8746786Y-13446786D01*
X8761071Y-13475357D01*
X8775357Y-13532500D01*
X8775357Y-13603929D01*
X8761071Y-13661071D01*
X8746786Y-13689643D01*
X8732500Y-13703929D01*
X8703928Y-13718214D01*
X8675357Y-13718214D01*
X8646786Y-13703929D01*
X8632500Y-13689643D01*
X8618214Y-13661071D01*
X8603928Y-13603929D01*
X8603928Y-13532500D01*
X8618214Y-13475357D01*
X8632500Y-13446786D01*
X8646786Y-13432500D01*
X8675357Y-13418214D01*
X8961071Y-13418214D02*
X8989643Y-13418214D01*
X9018214Y-13432500D01*
X9032500Y-13446786D01*
X9046786Y-13475357D01*
X9061071Y-13532500D01*
X9061071Y-13603929D01*
X9046786Y-13661071D01*
X9032500Y-13689643D01*
X9018214Y-13703929D01*
X8989643Y-13718214D01*
X8961071Y-13718214D01*
X8932500Y-13703929D01*
X8918214Y-13689643D01*
X8903928Y-13661071D01*
X8889643Y-13603929D01*
X8889643Y-13532500D01*
X8903928Y-13475357D01*
X8918214Y-13446786D01*
X8932500Y-13432500D01*
X8961071Y-13418214D01*
X9189643Y-13718214D02*
X9189643Y-13518214D01*
X9189643Y-13546786D02*
X9203928Y-13532500D01*
X9232500Y-13518214D01*
X9275357Y-13518214D01*
X9303928Y-13532500D01*
X9318214Y-13561071D01*
X9318214Y-13718214D01*
X9318214Y-13561071D02*
X9332500Y-13532500D01*
X9361071Y-13518214D01*
X9403928Y-13518214D01*
X9432500Y-13532500D01*
X9446786Y-13561071D01*
X9446786Y-13718214D01*
X9589643Y-13718214D02*
X9589643Y-13518214D01*
X9589643Y-13546786D02*
X9603928Y-13532500D01*
X9632500Y-13518214D01*
X9675357Y-13518214D01*
X9703928Y-13532500D01*
X9718214Y-13561071D01*
X9718214Y-13718214D01*
X9718214Y-13561071D02*
X9732500Y-13532500D01*
X9761071Y-13518214D01*
X9803928Y-13518214D01*
X9832500Y-13532500D01*
X9846786Y-13561071D01*
X9846786Y-13718214D01*
X10432500Y-13403929D02*
X10175357Y-13789643D01*
X10818214Y-13418214D02*
X10846786Y-13418214D01*
X10875357Y-13432500D01*
X10889643Y-13446786D01*
X10903928Y-13475357D01*
X10918214Y-13532500D01*
X10918214Y-13603929D01*
X10903928Y-13661071D01*
X10889643Y-13689643D01*
X10875357Y-13703929D01*
X10846786Y-13718214D01*
X10818214Y-13718214D01*
X10789643Y-13703929D01*
X10775357Y-13689643D01*
X10761071Y-13661071D01*
X10746786Y-13603929D01*
X10746786Y-13532500D01*
X10761071Y-13475357D01*
X10775357Y-13446786D01*
X10789643Y-13432500D01*
X10818214Y-13418214D01*
X11046786Y-13689643D02*
X11061071Y-13703929D01*
X11046786Y-13718214D01*
X11032500Y-13703929D01*
X11046786Y-13689643D01*
X11046786Y-13718214D01*
X11246786Y-13418214D02*
X11275357Y-13418214D01*
X11303928Y-13432500D01*
X11318214Y-13446786D01*
X11332500Y-13475357D01*
X11346786Y-13532500D01*
X11346786Y-13603929D01*
X11332500Y-13661071D01*
X11318214Y-13689643D01*
X11303928Y-13703929D01*
X11275357Y-13718214D01*
X11246786Y-13718214D01*
X11218214Y-13703929D01*
X11203928Y-13689643D01*
X11189643Y-13661071D01*
X11175357Y-13603929D01*
X11175357Y-13532500D01*
X11189643Y-13475357D01*
X11203928Y-13446786D01*
X11218214Y-13432500D01*
X11246786Y-13418214D01*
X11632500Y-13718214D02*
X11461071Y-13718214D01*
X11546786Y-13718214D02*
X11546786Y-13418214D01*
X11518214Y-13461071D01*
X11489643Y-13489643D01*
X11461071Y-13503929D01*
X11918214Y-13718214D02*
X11746786Y-13718214D01*
X11832500Y-13718214D02*
X11832500Y-13418214D01*
X11803928Y-13461071D01*
X11775357Y-13489643D01*
X11746786Y-13503929D01*
X12089643Y-13546786D02*
X12061071Y-13532500D01*
X12046786Y-13518214D01*
X12032500Y-13489643D01*
X12032500Y-13475357D01*
X12046786Y-13446786D01*
X12061071Y-13432500D01*
X12089643Y-13418214D01*
X12146786Y-13418214D01*
X12175357Y-13432500D01*
X12189643Y-13446786D01*
X12203928Y-13475357D01*
X12203928Y-13489643D01*
X12189643Y-13518214D01*
X12175357Y-13532500D01*
X12146786Y-13546786D01*
X12089643Y-13546786D01*
X12061071Y-13561071D01*
X12046786Y-13575357D01*
X12032500Y-13603929D01*
X12032500Y-13661071D01*
X12046786Y-13689643D01*
X12061071Y-13703929D01*
X12089643Y-13718214D01*
X12146786Y-13718214D01*
X12175357Y-13703929D01*
X12189643Y-13689643D01*
X12203928Y-13661071D01*
X12203928Y-13603929D01*
X12189643Y-13575357D01*
X12175357Y-13561071D01*
X12146786Y-13546786D01*
X12318214Y-13418214D02*
X12318214Y-13475357D01*
X12432500Y-13418214D02*
X12432500Y-13475357D01*
X12875357Y-13832500D02*
X12861071Y-13818214D01*
X12832500Y-13775357D01*
X12818214Y-13746786D01*
X12803928Y-13703929D01*
X12789643Y-13632500D01*
X12789643Y-13575357D01*
X12803928Y-13503929D01*
X12818214Y-13461071D01*
X12832500Y-13432500D01*
X12861071Y-13389643D01*
X12875357Y-13375357D01*
X13146786Y-13718214D02*
X12975357Y-13718214D01*
X13061071Y-13718214D02*
X13061071Y-13418214D01*
X13032500Y-13461071D01*
X13003928Y-13489643D01*
X12975357Y-13503929D01*
X13418214Y-13418214D02*
X13275357Y-13418214D01*
X13261071Y-13561071D01*
X13275357Y-13546786D01*
X13303928Y-13532500D01*
X13375357Y-13532500D01*
X13403928Y-13546786D01*
X13418214Y-13561071D01*
X13432500Y-13589643D01*
X13432500Y-13661071D01*
X13418214Y-13689643D01*
X13403928Y-13703929D01*
X13375357Y-13718214D01*
X13303928Y-13718214D01*
X13275357Y-13703929D01*
X13261071Y-13689643D01*
X13532500Y-13418214D02*
X13718214Y-13418214D01*
X13618214Y-13532500D01*
X13661071Y-13532500D01*
X13689643Y-13546786D01*
X13703928Y-13561071D01*
X13718214Y-13589643D01*
X13718214Y-13661071D01*
X13703928Y-13689643D01*
X13689643Y-13703929D01*
X13661071Y-13718214D01*
X13575357Y-13718214D01*
X13546786Y-13703929D01*
X13532500Y-13689643D01*
X14075357Y-13718214D02*
X14075357Y-13418214D01*
X14203928Y-13718214D02*
X14203928Y-13561071D01*
X14189643Y-13532500D01*
X14161071Y-13518214D01*
X14118214Y-13518214D01*
X14089643Y-13532500D01*
X14075357Y-13546786D01*
X14389643Y-13718214D02*
X14361071Y-13703929D01*
X14346786Y-13689643D01*
X14332500Y-13661071D01*
X14332500Y-13575357D01*
X14346786Y-13546786D01*
X14361071Y-13532500D01*
X14389643Y-13518214D01*
X14432500Y-13518214D01*
X14461071Y-13532500D01*
X14475357Y-13546786D01*
X14489643Y-13575357D01*
X14489643Y-13661071D01*
X14475357Y-13689643D01*
X14461071Y-13703929D01*
X14432500Y-13718214D01*
X14389643Y-13718214D01*
X14661071Y-13718214D02*
X14632500Y-13703929D01*
X14618214Y-13675357D01*
X14618214Y-13418214D01*
X14889643Y-13703929D02*
X14861071Y-13718214D01*
X14803928Y-13718214D01*
X14775357Y-13703929D01*
X14761071Y-13675357D01*
X14761071Y-13561071D01*
X14775357Y-13532500D01*
X14803928Y-13518214D01*
X14861071Y-13518214D01*
X14889643Y-13532500D01*
X14903928Y-13561071D01*
X14903928Y-13589643D01*
X14761071Y-13618214D01*
X15018214Y-13703929D02*
X15046786Y-13718214D01*
X15103928Y-13718214D01*
X15132500Y-13703929D01*
X15146786Y-13675357D01*
X15146786Y-13661071D01*
X15132500Y-13632500D01*
X15103928Y-13618214D01*
X15061071Y-13618214D01*
X15032500Y-13603929D01*
X15018214Y-13575357D01*
X15018214Y-13561071D01*
X15032500Y-13532500D01*
X15061071Y-13518214D01*
X15103928Y-13518214D01*
X15132500Y-13532500D01*
X15246786Y-13832500D02*
X15261071Y-13818214D01*
X15289643Y-13775357D01*
X15303928Y-13746786D01*
X15318214Y-13703929D01*
X15332500Y-13632500D01*
X15332500Y-13575357D01*
X15318214Y-13503929D01*
X15303928Y-13461071D01*
X15289643Y-13432500D01*
X15261071Y-13389643D01*
X15246786Y-13375357D01*
X7617500Y-13978500D02*
G75*
G03*
X7617500Y-13978500I-35000J0D01*
G01*
X7961071Y-13814214D02*
X7989643Y-13814214D01*
X8018214Y-13828500D01*
X8032500Y-13842786D01*
X8046786Y-13871357D01*
X8061071Y-13928500D01*
X8061071Y-13999929D01*
X8046786Y-14057071D01*
X8032500Y-14085643D01*
X8018214Y-14099929D01*
X7989643Y-14114214D01*
X7961071Y-14114214D01*
X7932500Y-14099929D01*
X7918214Y-14085643D01*
X7903928Y-14057071D01*
X7889643Y-13999929D01*
X7889643Y-13928500D01*
X7903928Y-13871357D01*
X7918214Y-13842786D01*
X7932500Y-13828500D01*
X7961071Y-13814214D01*
X8189643Y-14085643D02*
X8203928Y-14099929D01*
X8189643Y-14114214D01*
X8175357Y-14099929D01*
X8189643Y-14085643D01*
X8189643Y-14114214D01*
X8303928Y-13814214D02*
X8503928Y-13814214D01*
X8375357Y-14114214D01*
X8675357Y-13814214D02*
X8703928Y-13814214D01*
X8732500Y-13828500D01*
X8746786Y-13842786D01*
X8761071Y-13871357D01*
X8775357Y-13928500D01*
X8775357Y-13999929D01*
X8761071Y-14057071D01*
X8746786Y-14085643D01*
X8732500Y-14099929D01*
X8703928Y-14114214D01*
X8675357Y-14114214D01*
X8646786Y-14099929D01*
X8632500Y-14085643D01*
X8618214Y-14057071D01*
X8603928Y-13999929D01*
X8603928Y-13928500D01*
X8618214Y-13871357D01*
X8632500Y-13842786D01*
X8646786Y-13828500D01*
X8675357Y-13814214D01*
X8961071Y-13814214D02*
X8989643Y-13814214D01*
X9018214Y-13828500D01*
X9032500Y-13842786D01*
X9046786Y-13871357D01*
X9061071Y-13928500D01*
X9061071Y-13999929D01*
X9046786Y-14057071D01*
X9032500Y-14085643D01*
X9018214Y-14099929D01*
X8989643Y-14114214D01*
X8961071Y-14114214D01*
X8932500Y-14099929D01*
X8918214Y-14085643D01*
X8903928Y-14057071D01*
X8889643Y-13999929D01*
X8889643Y-13928500D01*
X8903928Y-13871357D01*
X8918214Y-13842786D01*
X8932500Y-13828500D01*
X8961071Y-13814214D01*
X9189643Y-14114214D02*
X9189643Y-13914214D01*
X9189643Y-13942786D02*
X9203928Y-13928500D01*
X9232500Y-13914214D01*
X9275357Y-13914214D01*
X9303928Y-13928500D01*
X9318214Y-13957071D01*
X9318214Y-14114214D01*
X9318214Y-13957071D02*
X9332500Y-13928500D01*
X9361071Y-13914214D01*
X9403928Y-13914214D01*
X9432500Y-13928500D01*
X9446786Y-13957071D01*
X9446786Y-14114214D01*
X9589643Y-14114214D02*
X9589643Y-13914214D01*
X9589643Y-13942786D02*
X9603928Y-13928500D01*
X9632500Y-13914214D01*
X9675357Y-13914214D01*
X9703928Y-13928500D01*
X9718214Y-13957071D01*
X9718214Y-14114214D01*
X9718214Y-13957071D02*
X9732500Y-13928500D01*
X9761071Y-13914214D01*
X9803928Y-13914214D01*
X9832500Y-13928500D01*
X9846786Y-13957071D01*
X9846786Y-14114214D01*
X10432500Y-13799929D02*
X10175357Y-14185643D01*
X10818214Y-13814214D02*
X10846786Y-13814214D01*
X10875357Y-13828500D01*
X10889643Y-13842786D01*
X10903928Y-13871357D01*
X10918214Y-13928500D01*
X10918214Y-13999929D01*
X10903928Y-14057071D01*
X10889643Y-14085643D01*
X10875357Y-14099929D01*
X10846786Y-14114214D01*
X10818214Y-14114214D01*
X10789643Y-14099929D01*
X10775357Y-14085643D01*
X10761071Y-14057071D01*
X10746786Y-13999929D01*
X10746786Y-13928500D01*
X10761071Y-13871357D01*
X10775357Y-13842786D01*
X10789643Y-13828500D01*
X10818214Y-13814214D01*
X11046786Y-14085643D02*
X11061071Y-14099929D01*
X11046786Y-14114214D01*
X11032500Y-14099929D01*
X11046786Y-14085643D01*
X11046786Y-14114214D01*
X11246786Y-13814214D02*
X11275357Y-13814214D01*
X11303928Y-13828500D01*
X11318214Y-13842786D01*
X11332500Y-13871357D01*
X11346786Y-13928500D01*
X11346786Y-13999929D01*
X11332500Y-14057071D01*
X11318214Y-14085643D01*
X11303928Y-14099929D01*
X11275357Y-14114214D01*
X11246786Y-14114214D01*
X11218214Y-14099929D01*
X11203928Y-14085643D01*
X11189643Y-14057071D01*
X11175357Y-13999929D01*
X11175357Y-13928500D01*
X11189643Y-13871357D01*
X11203928Y-13842786D01*
X11218214Y-13828500D01*
X11246786Y-13814214D01*
X11461071Y-13842786D02*
X11475357Y-13828500D01*
X11503928Y-13814214D01*
X11575357Y-13814214D01*
X11603928Y-13828500D01*
X11618214Y-13842786D01*
X11632500Y-13871357D01*
X11632500Y-13899929D01*
X11618214Y-13942786D01*
X11446786Y-14114214D01*
X11632500Y-14114214D01*
X11732500Y-13814214D02*
X11932500Y-13814214D01*
X11803928Y-14114214D01*
X12175357Y-13814214D02*
X12118214Y-13814214D01*
X12089643Y-13828500D01*
X12075357Y-13842786D01*
X12046786Y-13885643D01*
X12032500Y-13942786D01*
X12032500Y-14057071D01*
X12046786Y-14085643D01*
X12061071Y-14099929D01*
X12089643Y-14114214D01*
X12146786Y-14114214D01*
X12175357Y-14099929D01*
X12189643Y-14085643D01*
X12203928Y-14057071D01*
X12203928Y-13985643D01*
X12189643Y-13957071D01*
X12175357Y-13942786D01*
X12146786Y-13928500D01*
X12089643Y-13928500D01*
X12061071Y-13942786D01*
X12046786Y-13957071D01*
X12032500Y-13985643D01*
X12318214Y-13814214D02*
X12318214Y-13871357D01*
X12432500Y-13814214D02*
X12432500Y-13871357D01*
X12875357Y-14228500D02*
X12861071Y-14214214D01*
X12832500Y-14171357D01*
X12818214Y-14142786D01*
X12803928Y-14099929D01*
X12789643Y-14028500D01*
X12789643Y-13971357D01*
X12803928Y-13899929D01*
X12818214Y-13857071D01*
X12832500Y-13828500D01*
X12861071Y-13785643D01*
X12875357Y-13771357D01*
X13146786Y-14114214D02*
X12975357Y-14114214D01*
X13061071Y-14114214D02*
X13061071Y-13814214D01*
X13032500Y-13857071D01*
X13003928Y-13885643D01*
X12975357Y-13899929D01*
X13503928Y-14114214D02*
X13503928Y-13814214D01*
X13632500Y-14114214D02*
X13632500Y-13957071D01*
X13618214Y-13928500D01*
X13589643Y-13914214D01*
X13546786Y-13914214D01*
X13518214Y-13928500D01*
X13503928Y-13942786D01*
X13818214Y-14114214D02*
X13789643Y-14099929D01*
X13775357Y-14085643D01*
X13761071Y-14057071D01*
X13761071Y-13971357D01*
X13775357Y-13942786D01*
X13789643Y-13928500D01*
X13818214Y-13914214D01*
X13861071Y-13914214D01*
X13889643Y-13928500D01*
X13903928Y-13942786D01*
X13918214Y-13971357D01*
X13918214Y-14057071D01*
X13903928Y-14085643D01*
X13889643Y-14099929D01*
X13861071Y-14114214D01*
X13818214Y-14114214D01*
X14089643Y-14114214D02*
X14061071Y-14099929D01*
X14046786Y-14071357D01*
X14046786Y-13814214D01*
X14318214Y-14099929D02*
X14289643Y-14114214D01*
X14232500Y-14114214D01*
X14203928Y-14099929D01*
X14189643Y-14071357D01*
X14189643Y-13957071D01*
X14203928Y-13928500D01*
X14232500Y-13914214D01*
X14289643Y-13914214D01*
X14318214Y-13928500D01*
X14332500Y-13957071D01*
X14332500Y-13985643D01*
X14189643Y-14014214D01*
X14432500Y-14228500D02*
X14446786Y-14214214D01*
X14475357Y-14171357D01*
X14489643Y-14142786D01*
X14503928Y-14099929D01*
X14518214Y-14028500D01*
X14518214Y-13971357D01*
X14503928Y-13899929D01*
X14489643Y-13857071D01*
X14475357Y-13828500D01*
X14446786Y-13785643D01*
X14432500Y-13771357D01*
X7567500Y-14324500D02*
X7567500Y-14424500D01*
X7517500Y-14374500D02*
X7617500Y-14374500D01*
X8061071Y-14510214D02*
X7889643Y-14510214D01*
X7975357Y-14510214D02*
X7975357Y-14210214D01*
X7946786Y-14253071D01*
X7918214Y-14281643D01*
X7889643Y-14295929D01*
X8189643Y-14481643D02*
X8203928Y-14495929D01*
X8189643Y-14510214D01*
X8175357Y-14495929D01*
X8189643Y-14481643D01*
X8189643Y-14510214D01*
X8389643Y-14210214D02*
X8418214Y-14210214D01*
X8446786Y-14224500D01*
X8461071Y-14238786D01*
X8475357Y-14267357D01*
X8489643Y-14324500D01*
X8489643Y-14395929D01*
X8475357Y-14453071D01*
X8461071Y-14481643D01*
X8446786Y-14495929D01*
X8418214Y-14510214D01*
X8389643Y-14510214D01*
X8361071Y-14495929D01*
X8346786Y-14481643D01*
X8332500Y-14453071D01*
X8318214Y-14395929D01*
X8318214Y-14324500D01*
X8332500Y-14267357D01*
X8346786Y-14238786D01*
X8361071Y-14224500D01*
X8389643Y-14210214D01*
X8675357Y-14210214D02*
X8703928Y-14210214D01*
X8732500Y-14224500D01*
X8746786Y-14238786D01*
X8761071Y-14267357D01*
X8775357Y-14324500D01*
X8775357Y-14395929D01*
X8761071Y-14453071D01*
X8746786Y-14481643D01*
X8732500Y-14495929D01*
X8703928Y-14510214D01*
X8675357Y-14510214D01*
X8646786Y-14495929D01*
X8632500Y-14481643D01*
X8618214Y-14453071D01*
X8603928Y-14395929D01*
X8603928Y-14324500D01*
X8618214Y-14267357D01*
X8632500Y-14238786D01*
X8646786Y-14224500D01*
X8675357Y-14210214D01*
X8961071Y-14210214D02*
X8989643Y-14210214D01*
X9018214Y-14224500D01*
X9032500Y-14238786D01*
X9046786Y-14267357D01*
X9061071Y-14324500D01*
X9061071Y-14395929D01*
X9046786Y-14453071D01*
X9032500Y-14481643D01*
X9018214Y-14495929D01*
X8989643Y-14510214D01*
X8961071Y-14510214D01*
X8932500Y-14495929D01*
X8918214Y-14481643D01*
X8903928Y-14453071D01*
X8889643Y-14395929D01*
X8889643Y-14324500D01*
X8903928Y-14267357D01*
X8918214Y-14238786D01*
X8932500Y-14224500D01*
X8961071Y-14210214D01*
X9189643Y-14510214D02*
X9189643Y-14310214D01*
X9189643Y-14338786D02*
X9203928Y-14324500D01*
X9232500Y-14310214D01*
X9275357Y-14310214D01*
X9303928Y-14324500D01*
X9318214Y-14353071D01*
X9318214Y-14510214D01*
X9318214Y-14353071D02*
X9332500Y-14324500D01*
X9361071Y-14310214D01*
X9403928Y-14310214D01*
X9432500Y-14324500D01*
X9446786Y-14353071D01*
X9446786Y-14510214D01*
X9589643Y-14510214D02*
X9589643Y-14310214D01*
X9589643Y-14338786D02*
X9603928Y-14324500D01*
X9632500Y-14310214D01*
X9675357Y-14310214D01*
X9703928Y-14324500D01*
X9718214Y-14353071D01*
X9718214Y-14510214D01*
X9718214Y-14353071D02*
X9732500Y-14324500D01*
X9761071Y-14310214D01*
X9803928Y-14310214D01*
X9832500Y-14324500D01*
X9846786Y-14353071D01*
X9846786Y-14510214D01*
X10432500Y-14195929D02*
X10175357Y-14581643D01*
X10818214Y-14210214D02*
X10846786Y-14210214D01*
X10875357Y-14224500D01*
X10889643Y-14238786D01*
X10903928Y-14267357D01*
X10918214Y-14324500D01*
X10918214Y-14395929D01*
X10903928Y-14453071D01*
X10889643Y-14481643D01*
X10875357Y-14495929D01*
X10846786Y-14510214D01*
X10818214Y-14510214D01*
X10789643Y-14495929D01*
X10775357Y-14481643D01*
X10761071Y-14453071D01*
X10746786Y-14395929D01*
X10746786Y-14324500D01*
X10761071Y-14267357D01*
X10775357Y-14238786D01*
X10789643Y-14224500D01*
X10818214Y-14210214D01*
X11046786Y-14481643D02*
X11061071Y-14495929D01*
X11046786Y-14510214D01*
X11032500Y-14495929D01*
X11046786Y-14481643D01*
X11046786Y-14510214D01*
X11246786Y-14210214D02*
X11275357Y-14210214D01*
X11303928Y-14224500D01*
X11318214Y-14238786D01*
X11332500Y-14267357D01*
X11346786Y-14324500D01*
X11346786Y-14395929D01*
X11332500Y-14453071D01*
X11318214Y-14481643D01*
X11303928Y-14495929D01*
X11275357Y-14510214D01*
X11246786Y-14510214D01*
X11218214Y-14495929D01*
X11203928Y-14481643D01*
X11189643Y-14453071D01*
X11175357Y-14395929D01*
X11175357Y-14324500D01*
X11189643Y-14267357D01*
X11203928Y-14238786D01*
X11218214Y-14224500D01*
X11246786Y-14210214D01*
X11446786Y-14210214D02*
X11632500Y-14210214D01*
X11532500Y-14324500D01*
X11575357Y-14324500D01*
X11603928Y-14338786D01*
X11618214Y-14353071D01*
X11632500Y-14381643D01*
X11632500Y-14453071D01*
X11618214Y-14481643D01*
X11603928Y-14495929D01*
X11575357Y-14510214D01*
X11489643Y-14510214D01*
X11461071Y-14495929D01*
X11446786Y-14481643D01*
X11775357Y-14510214D02*
X11832500Y-14510214D01*
X11861071Y-14495929D01*
X11875357Y-14481643D01*
X11903928Y-14438786D01*
X11918214Y-14381643D01*
X11918214Y-14267357D01*
X11903928Y-14238786D01*
X11889643Y-14224500D01*
X11861071Y-14210214D01*
X11803928Y-14210214D01*
X11775357Y-14224500D01*
X11761071Y-14238786D01*
X11746786Y-14267357D01*
X11746786Y-14338786D01*
X11761071Y-14367357D01*
X11775357Y-14381643D01*
X11803928Y-14395929D01*
X11861071Y-14395929D01*
X11889643Y-14381643D01*
X11903928Y-14367357D01*
X11918214Y-14338786D01*
X12175357Y-14310214D02*
X12175357Y-14510214D01*
X12103928Y-14195929D02*
X12032500Y-14410214D01*
X12218214Y-14410214D01*
X12318214Y-14210214D02*
X12318214Y-14267357D01*
X12432500Y-14210214D02*
X12432500Y-14267357D01*
X12875357Y-14624500D02*
X12861071Y-14610214D01*
X12832500Y-14567357D01*
X12818214Y-14538786D01*
X12803928Y-14495929D01*
X12789643Y-14424500D01*
X12789643Y-14367357D01*
X12803928Y-14295929D01*
X12818214Y-14253071D01*
X12832500Y-14224500D01*
X12861071Y-14181643D01*
X12875357Y-14167357D01*
X13146786Y-14510214D02*
X12975357Y-14510214D01*
X13061071Y-14510214D02*
X13061071Y-14210214D01*
X13032500Y-14253071D01*
X13003928Y-14281643D01*
X12975357Y-14295929D01*
X13318214Y-14338786D02*
X13289643Y-14324500D01*
X13275357Y-14310214D01*
X13261071Y-14281643D01*
X13261071Y-14267357D01*
X13275357Y-14238786D01*
X13289643Y-14224500D01*
X13318214Y-14210214D01*
X13375357Y-14210214D01*
X13403928Y-14224500D01*
X13418214Y-14238786D01*
X13432500Y-14267357D01*
X13432500Y-14281643D01*
X13418214Y-14310214D01*
X13403928Y-14324500D01*
X13375357Y-14338786D01*
X13318214Y-14338786D01*
X13289643Y-14353071D01*
X13275357Y-14367357D01*
X13261071Y-14395929D01*
X13261071Y-14453071D01*
X13275357Y-14481643D01*
X13289643Y-14495929D01*
X13318214Y-14510214D01*
X13375357Y-14510214D01*
X13403928Y-14495929D01*
X13418214Y-14481643D01*
X13432500Y-14453071D01*
X13432500Y-14395929D01*
X13418214Y-14367357D01*
X13403928Y-14353071D01*
X13375357Y-14338786D01*
X13789643Y-14510214D02*
X13789643Y-14210214D01*
X13918214Y-14510214D02*
X13918214Y-14353071D01*
X13903928Y-14324500D01*
X13875357Y-14310214D01*
X13832500Y-14310214D01*
X13803928Y-14324500D01*
X13789643Y-14338786D01*
X14103928Y-14510214D02*
X14075357Y-14495929D01*
X14061071Y-14481643D01*
X14046786Y-14453071D01*
X14046786Y-14367357D01*
X14061071Y-14338786D01*
X14075357Y-14324500D01*
X14103928Y-14310214D01*
X14146786Y-14310214D01*
X14175357Y-14324500D01*
X14189643Y-14338786D01*
X14203928Y-14367357D01*
X14203928Y-14453071D01*
X14189643Y-14481643D01*
X14175357Y-14495929D01*
X14146786Y-14510214D01*
X14103928Y-14510214D01*
X14375357Y-14510214D02*
X14346786Y-14495929D01*
X14332500Y-14467357D01*
X14332500Y-14210214D01*
X14603928Y-14495929D02*
X14575357Y-14510214D01*
X14518214Y-14510214D01*
X14489643Y-14495929D01*
X14475357Y-14467357D01*
X14475357Y-14353071D01*
X14489643Y-14324500D01*
X14518214Y-14310214D01*
X14575357Y-14310214D01*
X14603928Y-14324500D01*
X14618214Y-14353071D01*
X14618214Y-14381643D01*
X14475357Y-14410214D01*
X14732500Y-14495929D02*
X14761071Y-14510214D01*
X14818214Y-14510214D01*
X14846786Y-14495929D01*
X14861071Y-14467357D01*
X14861071Y-14453071D01*
X14846786Y-14424500D01*
X14818214Y-14410214D01*
X14775357Y-14410214D01*
X14746786Y-14395929D01*
X14732500Y-14367357D01*
X14732500Y-14353071D01*
X14746786Y-14324500D01*
X14775357Y-14310214D01*
X14818214Y-14310214D01*
X14846786Y-14324500D01*
X14961071Y-14624500D02*
X14975357Y-14610214D01*
X15003928Y-14567357D01*
X15018214Y-14538786D01*
X15032500Y-14495929D01*
X15046786Y-14424500D01*
X15046786Y-14367357D01*
X15032500Y-14295929D01*
X15018214Y-14253071D01*
X15003928Y-14224500D01*
X14975357Y-14181643D01*
X14961071Y-14167357D01*
X7601391Y-14809391D02*
X7601391Y-14731609D01*
X7523609Y-14731609D01*
X7523609Y-14809391D01*
X7601391Y-14809391D01*
X8061071Y-14906214D02*
X7889643Y-14906214D01*
X7975357Y-14906214D02*
X7975357Y-14606214D01*
X7946786Y-14649071D01*
X7918214Y-14677643D01*
X7889643Y-14691929D01*
X8189643Y-14877643D02*
X8203928Y-14891929D01*
X8189643Y-14906214D01*
X8175357Y-14891929D01*
X8189643Y-14877643D01*
X8189643Y-14906214D01*
X8489643Y-14906214D02*
X8318214Y-14906214D01*
X8403928Y-14906214D02*
X8403928Y-14606214D01*
X8375357Y-14649071D01*
X8346786Y-14677643D01*
X8318214Y-14691929D01*
X8675357Y-14606214D02*
X8703928Y-14606214D01*
X8732500Y-14620500D01*
X8746786Y-14634786D01*
X8761071Y-14663357D01*
X8775357Y-14720500D01*
X8775357Y-14791929D01*
X8761071Y-14849071D01*
X8746786Y-14877643D01*
X8732500Y-14891929D01*
X8703928Y-14906214D01*
X8675357Y-14906214D01*
X8646786Y-14891929D01*
X8632500Y-14877643D01*
X8618214Y-14849071D01*
X8603928Y-14791929D01*
X8603928Y-14720500D01*
X8618214Y-14663357D01*
X8632500Y-14634786D01*
X8646786Y-14620500D01*
X8675357Y-14606214D01*
X8961071Y-14606214D02*
X8989643Y-14606214D01*
X9018214Y-14620500D01*
X9032500Y-14634786D01*
X9046786Y-14663357D01*
X9061071Y-14720500D01*
X9061071Y-14791929D01*
X9046786Y-14849071D01*
X9032500Y-14877643D01*
X9018214Y-14891929D01*
X8989643Y-14906214D01*
X8961071Y-14906214D01*
X8932500Y-14891929D01*
X8918214Y-14877643D01*
X8903928Y-14849071D01*
X8889643Y-14791929D01*
X8889643Y-14720500D01*
X8903928Y-14663357D01*
X8918214Y-14634786D01*
X8932500Y-14620500D01*
X8961071Y-14606214D01*
X9189643Y-14906214D02*
X9189643Y-14706214D01*
X9189643Y-14734786D02*
X9203928Y-14720500D01*
X9232500Y-14706214D01*
X9275357Y-14706214D01*
X9303928Y-14720500D01*
X9318214Y-14749071D01*
X9318214Y-14906214D01*
X9318214Y-14749071D02*
X9332500Y-14720500D01*
X9361071Y-14706214D01*
X9403928Y-14706214D01*
X9432500Y-14720500D01*
X9446786Y-14749071D01*
X9446786Y-14906214D01*
X9589643Y-14906214D02*
X9589643Y-14706214D01*
X9589643Y-14734786D02*
X9603928Y-14720500D01*
X9632500Y-14706214D01*
X9675357Y-14706214D01*
X9703928Y-14720500D01*
X9718214Y-14749071D01*
X9718214Y-14906214D01*
X9718214Y-14749071D02*
X9732500Y-14720500D01*
X9761071Y-14706214D01*
X9803928Y-14706214D01*
X9832500Y-14720500D01*
X9846786Y-14749071D01*
X9846786Y-14906214D01*
X10432500Y-14591929D02*
X10175357Y-14977643D01*
X10818214Y-14606214D02*
X10846786Y-14606214D01*
X10875357Y-14620500D01*
X10889643Y-14634786D01*
X10903928Y-14663357D01*
X10918214Y-14720500D01*
X10918214Y-14791929D01*
X10903928Y-14849071D01*
X10889643Y-14877643D01*
X10875357Y-14891929D01*
X10846786Y-14906214D01*
X10818214Y-14906214D01*
X10789643Y-14891929D01*
X10775357Y-14877643D01*
X10761071Y-14849071D01*
X10746786Y-14791929D01*
X10746786Y-14720500D01*
X10761071Y-14663357D01*
X10775357Y-14634786D01*
X10789643Y-14620500D01*
X10818214Y-14606214D01*
X11046786Y-14877643D02*
X11061071Y-14891929D01*
X11046786Y-14906214D01*
X11032500Y-14891929D01*
X11046786Y-14877643D01*
X11046786Y-14906214D01*
X11246786Y-14606214D02*
X11275357Y-14606214D01*
X11303928Y-14620500D01*
X11318214Y-14634786D01*
X11332500Y-14663357D01*
X11346786Y-14720500D01*
X11346786Y-14791929D01*
X11332500Y-14849071D01*
X11318214Y-14877643D01*
X11303928Y-14891929D01*
X11275357Y-14906214D01*
X11246786Y-14906214D01*
X11218214Y-14891929D01*
X11203928Y-14877643D01*
X11189643Y-14849071D01*
X11175357Y-14791929D01*
X11175357Y-14720500D01*
X11189643Y-14663357D01*
X11203928Y-14634786D01*
X11218214Y-14620500D01*
X11246786Y-14606214D01*
X11603928Y-14706214D02*
X11603928Y-14906214D01*
X11532500Y-14591929D02*
X11461071Y-14806214D01*
X11646786Y-14806214D01*
X11732500Y-14606214D02*
X11918214Y-14606214D01*
X11818214Y-14720500D01*
X11861071Y-14720500D01*
X11889643Y-14734786D01*
X11903928Y-14749071D01*
X11918214Y-14777643D01*
X11918214Y-14849071D01*
X11903928Y-14877643D01*
X11889643Y-14891929D01*
X11861071Y-14906214D01*
X11775357Y-14906214D01*
X11746786Y-14891929D01*
X11732500Y-14877643D01*
X12018214Y-14606214D02*
X12203928Y-14606214D01*
X12103928Y-14720500D01*
X12146786Y-14720500D01*
X12175357Y-14734786D01*
X12189643Y-14749071D01*
X12203928Y-14777643D01*
X12203928Y-14849071D01*
X12189643Y-14877643D01*
X12175357Y-14891929D01*
X12146786Y-14906214D01*
X12061071Y-14906214D01*
X12032500Y-14891929D01*
X12018214Y-14877643D01*
X12318214Y-14606214D02*
X12318214Y-14663357D01*
X12432500Y-14606214D02*
X12432500Y-14663357D01*
X12875357Y-15020500D02*
X12861071Y-15006214D01*
X12832500Y-14963357D01*
X12818214Y-14934786D01*
X12803928Y-14891929D01*
X12789643Y-14820500D01*
X12789643Y-14763357D01*
X12803928Y-14691929D01*
X12818214Y-14649071D01*
X12832500Y-14620500D01*
X12861071Y-14577643D01*
X12875357Y-14563357D01*
X13146786Y-14906214D02*
X12975357Y-14906214D01*
X13061071Y-14906214D02*
X13061071Y-14606214D01*
X13032500Y-14649071D01*
X13003928Y-14677643D01*
X12975357Y-14691929D01*
X13503928Y-14906214D02*
X13503928Y-14606214D01*
X13632500Y-14906214D02*
X13632500Y-14749071D01*
X13618214Y-14720500D01*
X13589643Y-14706214D01*
X13546786Y-14706214D01*
X13518214Y-14720500D01*
X13503928Y-14734786D01*
X13818214Y-14906214D02*
X13789643Y-14891929D01*
X13775357Y-14877643D01*
X13761071Y-14849071D01*
X13761071Y-14763357D01*
X13775357Y-14734786D01*
X13789643Y-14720500D01*
X13818214Y-14706214D01*
X13861071Y-14706214D01*
X13889643Y-14720500D01*
X13903928Y-14734786D01*
X13918214Y-14763357D01*
X13918214Y-14849071D01*
X13903928Y-14877643D01*
X13889643Y-14891929D01*
X13861071Y-14906214D01*
X13818214Y-14906214D01*
X14089643Y-14906214D02*
X14061071Y-14891929D01*
X14046786Y-14863357D01*
X14046786Y-14606214D01*
X14318214Y-14891929D02*
X14289643Y-14906214D01*
X14232500Y-14906214D01*
X14203928Y-14891929D01*
X14189643Y-14863357D01*
X14189643Y-14749071D01*
X14203928Y-14720500D01*
X14232500Y-14706214D01*
X14289643Y-14706214D01*
X14318214Y-14720500D01*
X14332500Y-14749071D01*
X14332500Y-14777643D01*
X14189643Y-14806214D01*
X14432500Y-15020500D02*
X14446786Y-15006214D01*
X14475357Y-14963357D01*
X14489643Y-14934786D01*
X14503928Y-14891929D01*
X14518214Y-14820500D01*
X14518214Y-14763357D01*
X14503928Y-14691929D01*
X14489643Y-14649071D01*
X14475357Y-14620500D01*
X14446786Y-14577643D01*
X14432500Y-14563357D01*
X7557500Y-15226500D02*
X7617500Y-15166500D01*
X7557500Y-15106500D01*
X7497500Y-15166500D01*
X7557500Y-15226500D01*
X8061071Y-15302214D02*
X7889643Y-15302214D01*
X7975357Y-15302214D02*
X7975357Y-15002214D01*
X7946786Y-15045071D01*
X7918214Y-15073643D01*
X7889643Y-15087929D01*
X8189643Y-15273643D02*
X8203928Y-15287929D01*
X8189643Y-15302214D01*
X8175357Y-15287929D01*
X8189643Y-15273643D01*
X8189643Y-15302214D01*
X8318214Y-15030786D02*
X8332500Y-15016500D01*
X8361071Y-15002214D01*
X8432500Y-15002214D01*
X8461071Y-15016500D01*
X8475357Y-15030786D01*
X8489643Y-15059357D01*
X8489643Y-15087929D01*
X8475357Y-15130786D01*
X8303928Y-15302214D01*
X8489643Y-15302214D01*
X8675357Y-15002214D02*
X8703928Y-15002214D01*
X8732500Y-15016500D01*
X8746786Y-15030786D01*
X8761071Y-15059357D01*
X8775357Y-15116500D01*
X8775357Y-15187929D01*
X8761071Y-15245071D01*
X8746786Y-15273643D01*
X8732500Y-15287929D01*
X8703928Y-15302214D01*
X8675357Y-15302214D01*
X8646786Y-15287929D01*
X8632500Y-15273643D01*
X8618214Y-15245071D01*
X8603928Y-15187929D01*
X8603928Y-15116500D01*
X8618214Y-15059357D01*
X8632500Y-15030786D01*
X8646786Y-15016500D01*
X8675357Y-15002214D01*
X8961071Y-15002214D02*
X8989643Y-15002214D01*
X9018214Y-15016500D01*
X9032500Y-15030786D01*
X9046786Y-15059357D01*
X9061071Y-15116500D01*
X9061071Y-15187929D01*
X9046786Y-15245071D01*
X9032500Y-15273643D01*
X9018214Y-15287929D01*
X8989643Y-15302214D01*
X8961071Y-15302214D01*
X8932500Y-15287929D01*
X8918214Y-15273643D01*
X8903928Y-15245071D01*
X8889643Y-15187929D01*
X8889643Y-15116500D01*
X8903928Y-15059357D01*
X8918214Y-15030786D01*
X8932500Y-15016500D01*
X8961071Y-15002214D01*
X9189643Y-15302214D02*
X9189643Y-15102214D01*
X9189643Y-15130786D02*
X9203928Y-15116500D01*
X9232500Y-15102214D01*
X9275357Y-15102214D01*
X9303928Y-15116500D01*
X9318214Y-15145071D01*
X9318214Y-15302214D01*
X9318214Y-15145071D02*
X9332500Y-15116500D01*
X9361071Y-15102214D01*
X9403928Y-15102214D01*
X9432500Y-15116500D01*
X9446786Y-15145071D01*
X9446786Y-15302214D01*
X9589643Y-15302214D02*
X9589643Y-15102214D01*
X9589643Y-15130786D02*
X9603928Y-15116500D01*
X9632500Y-15102214D01*
X9675357Y-15102214D01*
X9703928Y-15116500D01*
X9718214Y-15145071D01*
X9718214Y-15302214D01*
X9718214Y-15145071D02*
X9732500Y-15116500D01*
X9761071Y-15102214D01*
X9803928Y-15102214D01*
X9832500Y-15116500D01*
X9846786Y-15145071D01*
X9846786Y-15302214D01*
X10432500Y-14987929D02*
X10175357Y-15373643D01*
X10818214Y-15002214D02*
X10846786Y-15002214D01*
X10875357Y-15016500D01*
X10889643Y-15030786D01*
X10903928Y-15059357D01*
X10918214Y-15116500D01*
X10918214Y-15187929D01*
X10903928Y-15245071D01*
X10889643Y-15273643D01*
X10875357Y-15287929D01*
X10846786Y-15302214D01*
X10818214Y-15302214D01*
X10789643Y-15287929D01*
X10775357Y-15273643D01*
X10761071Y-15245071D01*
X10746786Y-15187929D01*
X10746786Y-15116500D01*
X10761071Y-15059357D01*
X10775357Y-15030786D01*
X10789643Y-15016500D01*
X10818214Y-15002214D01*
X11046786Y-15273643D02*
X11061071Y-15287929D01*
X11046786Y-15302214D01*
X11032500Y-15287929D01*
X11046786Y-15273643D01*
X11046786Y-15302214D01*
X11246786Y-15002214D02*
X11275357Y-15002214D01*
X11303928Y-15016500D01*
X11318214Y-15030786D01*
X11332500Y-15059357D01*
X11346786Y-15116500D01*
X11346786Y-15187929D01*
X11332500Y-15245071D01*
X11318214Y-15273643D01*
X11303928Y-15287929D01*
X11275357Y-15302214D01*
X11246786Y-15302214D01*
X11218214Y-15287929D01*
X11203928Y-15273643D01*
X11189643Y-15245071D01*
X11175357Y-15187929D01*
X11175357Y-15116500D01*
X11189643Y-15059357D01*
X11203928Y-15030786D01*
X11218214Y-15016500D01*
X11246786Y-15002214D01*
X11603928Y-15102214D02*
X11603928Y-15302214D01*
X11532500Y-14987929D02*
X11461071Y-15202214D01*
X11646786Y-15202214D01*
X11732500Y-15002214D02*
X11932500Y-15002214D01*
X11803928Y-15302214D01*
X12032500Y-15030786D02*
X12046786Y-15016500D01*
X12075357Y-15002214D01*
X12146786Y-15002214D01*
X12175357Y-15016500D01*
X12189643Y-15030786D01*
X12203928Y-15059357D01*
X12203928Y-15087929D01*
X12189643Y-15130786D01*
X12018214Y-15302214D01*
X12203928Y-15302214D01*
X12318214Y-15002214D02*
X12318214Y-15059357D01*
X12432500Y-15002214D02*
X12432500Y-15059357D01*
X12875357Y-15416500D02*
X12861071Y-15402214D01*
X12832500Y-15359357D01*
X12818214Y-15330786D01*
X12803928Y-15287929D01*
X12789643Y-15216500D01*
X12789643Y-15159357D01*
X12803928Y-15087929D01*
X12818214Y-15045071D01*
X12832500Y-15016500D01*
X12861071Y-14973643D01*
X12875357Y-14959357D01*
X13146786Y-15302214D02*
X12975357Y-15302214D01*
X13061071Y-15302214D02*
X13061071Y-15002214D01*
X13032500Y-15045071D01*
X13003928Y-15073643D01*
X12975357Y-15087929D01*
X13332500Y-15002214D02*
X13361071Y-15002214D01*
X13389643Y-15016500D01*
X13403928Y-15030786D01*
X13418214Y-15059357D01*
X13432500Y-15116500D01*
X13432500Y-15187929D01*
X13418214Y-15245071D01*
X13403928Y-15273643D01*
X13389643Y-15287929D01*
X13361071Y-15302214D01*
X13332500Y-15302214D01*
X13303928Y-15287929D01*
X13289643Y-15273643D01*
X13275357Y-15245071D01*
X13261071Y-15187929D01*
X13261071Y-15116500D01*
X13275357Y-15059357D01*
X13289643Y-15030786D01*
X13303928Y-15016500D01*
X13332500Y-15002214D01*
X13789643Y-15302214D02*
X13789643Y-15002214D01*
X13918214Y-15302214D02*
X13918214Y-15145071D01*
X13903928Y-15116500D01*
X13875357Y-15102214D01*
X13832500Y-15102214D01*
X13803928Y-15116500D01*
X13789643Y-15130786D01*
X14103928Y-15302214D02*
X14075357Y-15287929D01*
X14061071Y-15273643D01*
X14046786Y-15245071D01*
X14046786Y-15159357D01*
X14061071Y-15130786D01*
X14075357Y-15116500D01*
X14103928Y-15102214D01*
X14146786Y-15102214D01*
X14175357Y-15116500D01*
X14189643Y-15130786D01*
X14203928Y-15159357D01*
X14203928Y-15245071D01*
X14189643Y-15273643D01*
X14175357Y-15287929D01*
X14146786Y-15302214D01*
X14103928Y-15302214D01*
X14375357Y-15302214D02*
X14346786Y-15287929D01*
X14332500Y-15259357D01*
X14332500Y-15002214D01*
X14603928Y-15287929D02*
X14575357Y-15302214D01*
X14518214Y-15302214D01*
X14489643Y-15287929D01*
X14475357Y-15259357D01*
X14475357Y-15145071D01*
X14489643Y-15116500D01*
X14518214Y-15102214D01*
X14575357Y-15102214D01*
X14603928Y-15116500D01*
X14618214Y-15145071D01*
X14618214Y-15173643D01*
X14475357Y-15202214D01*
X14732500Y-15287929D02*
X14761071Y-15302214D01*
X14818214Y-15302214D01*
X14846786Y-15287929D01*
X14861071Y-15259357D01*
X14861071Y-15245071D01*
X14846786Y-15216500D01*
X14818214Y-15202214D01*
X14775357Y-15202214D01*
X14746786Y-15187929D01*
X14732500Y-15159357D01*
X14732500Y-15145071D01*
X14746786Y-15116500D01*
X14775357Y-15102214D01*
X14818214Y-15102214D01*
X14846786Y-15116500D01*
X14961071Y-15416500D02*
X14975357Y-15402214D01*
X15003928Y-15359357D01*
X15018214Y-15330786D01*
X15032500Y-15287929D01*
X15046786Y-15216500D01*
X15046786Y-15159357D01*
X15032500Y-15087929D01*
X15018214Y-15045071D01*
X15003928Y-15016500D01*
X14975357Y-14973643D01*
X14961071Y-14959357D01*
X7407500Y-15457500D02*
X7617500Y-15667500D01*
X7617500Y-15457500D02*
X7407500Y-15667500D01*
X7617500Y-15562500D02*
G75*
G03*
X7617500Y-15562500I-105000J0D01*
G01*
X7889643Y-15426786D02*
X7903928Y-15412500D01*
X7932500Y-15398214D01*
X8003928Y-15398214D01*
X8032500Y-15412500D01*
X8046786Y-15426786D01*
X8061071Y-15455357D01*
X8061071Y-15483929D01*
X8046786Y-15526786D01*
X7875357Y-15698214D01*
X8061071Y-15698214D01*
X8189643Y-15669643D02*
X8203928Y-15683929D01*
X8189643Y-15698214D01*
X8175357Y-15683929D01*
X8189643Y-15669643D01*
X8189643Y-15698214D01*
X8489643Y-15698214D02*
X8318214Y-15698214D01*
X8403928Y-15698214D02*
X8403928Y-15398214D01*
X8375357Y-15441071D01*
X8346786Y-15469643D01*
X8318214Y-15483929D01*
X8675357Y-15398214D02*
X8703928Y-15398214D01*
X8732500Y-15412500D01*
X8746786Y-15426786D01*
X8761071Y-15455357D01*
X8775357Y-15512500D01*
X8775357Y-15583929D01*
X8761071Y-15641071D01*
X8746786Y-15669643D01*
X8732500Y-15683929D01*
X8703928Y-15698214D01*
X8675357Y-15698214D01*
X8646786Y-15683929D01*
X8632500Y-15669643D01*
X8618214Y-15641071D01*
X8603928Y-15583929D01*
X8603928Y-15512500D01*
X8618214Y-15455357D01*
X8632500Y-15426786D01*
X8646786Y-15412500D01*
X8675357Y-15398214D01*
X8961071Y-15398214D02*
X8989643Y-15398214D01*
X9018214Y-15412500D01*
X9032500Y-15426786D01*
X9046786Y-15455357D01*
X9061071Y-15512500D01*
X9061071Y-15583929D01*
X9046786Y-15641071D01*
X9032500Y-15669643D01*
X9018214Y-15683929D01*
X8989643Y-15698214D01*
X8961071Y-15698214D01*
X8932500Y-15683929D01*
X8918214Y-15669643D01*
X8903928Y-15641071D01*
X8889643Y-15583929D01*
X8889643Y-15512500D01*
X8903928Y-15455357D01*
X8918214Y-15426786D01*
X8932500Y-15412500D01*
X8961071Y-15398214D01*
X9189643Y-15698214D02*
X9189643Y-15498214D01*
X9189643Y-15526786D02*
X9203928Y-15512500D01*
X9232500Y-15498214D01*
X9275357Y-15498214D01*
X9303928Y-15512500D01*
X9318214Y-15541071D01*
X9318214Y-15698214D01*
X9318214Y-15541071D02*
X9332500Y-15512500D01*
X9361071Y-15498214D01*
X9403928Y-15498214D01*
X9432500Y-15512500D01*
X9446786Y-15541071D01*
X9446786Y-15698214D01*
X9589643Y-15698214D02*
X9589643Y-15498214D01*
X9589643Y-15526786D02*
X9603928Y-15512500D01*
X9632500Y-15498214D01*
X9675357Y-15498214D01*
X9703928Y-15512500D01*
X9718214Y-15541071D01*
X9718214Y-15698214D01*
X9718214Y-15541071D02*
X9732500Y-15512500D01*
X9761071Y-15498214D01*
X9803928Y-15498214D01*
X9832500Y-15512500D01*
X9846786Y-15541071D01*
X9846786Y-15698214D01*
X10432500Y-15383929D02*
X10175357Y-15769643D01*
X10818214Y-15398214D02*
X10846786Y-15398214D01*
X10875357Y-15412500D01*
X10889643Y-15426786D01*
X10903928Y-15455357D01*
X10918214Y-15512500D01*
X10918214Y-15583929D01*
X10903928Y-15641071D01*
X10889643Y-15669643D01*
X10875357Y-15683929D01*
X10846786Y-15698214D01*
X10818214Y-15698214D01*
X10789643Y-15683929D01*
X10775357Y-15669643D01*
X10761071Y-15641071D01*
X10746786Y-15583929D01*
X10746786Y-15512500D01*
X10761071Y-15455357D01*
X10775357Y-15426786D01*
X10789643Y-15412500D01*
X10818214Y-15398214D01*
X11046786Y-15669643D02*
X11061071Y-15683929D01*
X11046786Y-15698214D01*
X11032500Y-15683929D01*
X11046786Y-15669643D01*
X11046786Y-15698214D01*
X11246786Y-15398214D02*
X11275357Y-15398214D01*
X11303928Y-15412500D01*
X11318214Y-15426786D01*
X11332500Y-15455357D01*
X11346786Y-15512500D01*
X11346786Y-15583929D01*
X11332500Y-15641071D01*
X11318214Y-15669643D01*
X11303928Y-15683929D01*
X11275357Y-15698214D01*
X11246786Y-15698214D01*
X11218214Y-15683929D01*
X11203928Y-15669643D01*
X11189643Y-15641071D01*
X11175357Y-15583929D01*
X11175357Y-15512500D01*
X11189643Y-15455357D01*
X11203928Y-15426786D01*
X11218214Y-15412500D01*
X11246786Y-15398214D01*
X11518214Y-15526786D02*
X11489643Y-15512500D01*
X11475357Y-15498214D01*
X11461071Y-15469643D01*
X11461071Y-15455357D01*
X11475357Y-15426786D01*
X11489643Y-15412500D01*
X11518214Y-15398214D01*
X11575357Y-15398214D01*
X11603928Y-15412500D01*
X11618214Y-15426786D01*
X11632500Y-15455357D01*
X11632500Y-15469643D01*
X11618214Y-15498214D01*
X11603928Y-15512500D01*
X11575357Y-15526786D01*
X11518214Y-15526786D01*
X11489643Y-15541071D01*
X11475357Y-15555357D01*
X11461071Y-15583929D01*
X11461071Y-15641071D01*
X11475357Y-15669643D01*
X11489643Y-15683929D01*
X11518214Y-15698214D01*
X11575357Y-15698214D01*
X11603928Y-15683929D01*
X11618214Y-15669643D01*
X11632500Y-15641071D01*
X11632500Y-15583929D01*
X11618214Y-15555357D01*
X11603928Y-15541071D01*
X11575357Y-15526786D01*
X11746786Y-15426786D02*
X11761071Y-15412500D01*
X11789643Y-15398214D01*
X11861071Y-15398214D01*
X11889643Y-15412500D01*
X11903928Y-15426786D01*
X11918214Y-15455357D01*
X11918214Y-15483929D01*
X11903928Y-15526786D01*
X11732500Y-15698214D01*
X11918214Y-15698214D01*
X12018214Y-15398214D02*
X12218214Y-15398214D01*
X12089643Y-15698214D01*
X12318214Y-15398214D02*
X12318214Y-15455357D01*
X12432500Y-15398214D02*
X12432500Y-15455357D01*
X12875357Y-15812500D02*
X12861071Y-15798214D01*
X12832500Y-15755357D01*
X12818214Y-15726786D01*
X12803928Y-15683929D01*
X12789643Y-15612500D01*
X12789643Y-15555357D01*
X12803928Y-15483929D01*
X12818214Y-15441071D01*
X12832500Y-15412500D01*
X12861071Y-15369643D01*
X12875357Y-15355357D01*
X13046786Y-15398214D02*
X13075357Y-15398214D01*
X13103928Y-15412500D01*
X13118214Y-15426786D01*
X13132500Y-15455357D01*
X13146786Y-15512500D01*
X13146786Y-15583929D01*
X13132500Y-15641071D01*
X13118214Y-15669643D01*
X13103928Y-15683929D01*
X13075357Y-15698214D01*
X13046786Y-15698214D01*
X13018214Y-15683929D01*
X13003928Y-15669643D01*
X12989643Y-15641071D01*
X12975357Y-15583929D01*
X12975357Y-15512500D01*
X12989643Y-15455357D01*
X13003928Y-15426786D01*
X13018214Y-15412500D01*
X13046786Y-15398214D01*
X13503928Y-15698214D02*
X13503928Y-15398214D01*
X13632500Y-15698214D02*
X13632500Y-15541071D01*
X13618214Y-15512500D01*
X13589643Y-15498214D01*
X13546786Y-15498214D01*
X13518214Y-15512500D01*
X13503928Y-15526786D01*
X13818214Y-15698214D02*
X13789643Y-15683929D01*
X13775357Y-15669643D01*
X13761071Y-15641071D01*
X13761071Y-15555357D01*
X13775357Y-15526786D01*
X13789643Y-15512500D01*
X13818214Y-15498214D01*
X13861071Y-15498214D01*
X13889643Y-15512500D01*
X13903928Y-15526786D01*
X13918214Y-15555357D01*
X13918214Y-15641071D01*
X13903928Y-15669643D01*
X13889643Y-15683929D01*
X13861071Y-15698214D01*
X13818214Y-15698214D01*
X14089643Y-15698214D02*
X14061071Y-15683929D01*
X14046786Y-15655357D01*
X14046786Y-15398214D01*
X14318214Y-15683929D02*
X14289643Y-15698214D01*
X14232500Y-15698214D01*
X14203928Y-15683929D01*
X14189643Y-15655357D01*
X14189643Y-15541071D01*
X14203928Y-15512500D01*
X14232500Y-15498214D01*
X14289643Y-15498214D01*
X14318214Y-15512500D01*
X14332500Y-15541071D01*
X14332500Y-15569643D01*
X14189643Y-15598214D01*
X14446786Y-15683929D02*
X14475357Y-15698214D01*
X14532500Y-15698214D01*
X14561071Y-15683929D01*
X14575357Y-15655357D01*
X14575357Y-15641071D01*
X14561071Y-15612500D01*
X14532500Y-15598214D01*
X14489643Y-15598214D01*
X14461071Y-15583929D01*
X14446786Y-15555357D01*
X14446786Y-15541071D01*
X14461071Y-15512500D01*
X14489643Y-15498214D01*
X14532500Y-15498214D01*
X14561071Y-15512500D01*
X14932500Y-15583929D02*
X15161071Y-15583929D01*
X15046786Y-15698214D02*
X15046786Y-15469643D01*
X15518214Y-15426786D02*
X15532500Y-15412500D01*
X15561071Y-15398214D01*
X15632500Y-15398214D01*
X15661071Y-15412500D01*
X15675357Y-15426786D01*
X15689643Y-15455357D01*
X15689643Y-15483929D01*
X15675357Y-15526786D01*
X15503928Y-15698214D01*
X15689643Y-15698214D01*
X16032500Y-15683929D02*
X16061071Y-15698214D01*
X16118214Y-15698214D01*
X16146786Y-15683929D01*
X16161071Y-15655357D01*
X16161071Y-15641071D01*
X16146786Y-15612500D01*
X16118214Y-15598214D01*
X16075357Y-15598214D01*
X16046786Y-15583929D01*
X16032500Y-15555357D01*
X16032500Y-15541071D01*
X16046786Y-15512500D01*
X16075357Y-15498214D01*
X16118214Y-15498214D01*
X16146786Y-15512500D01*
X16332500Y-15698214D02*
X16303928Y-15683929D01*
X16289643Y-15655357D01*
X16289643Y-15398214D01*
X16489643Y-15698214D02*
X16461071Y-15683929D01*
X16446786Y-15669643D01*
X16432500Y-15641071D01*
X16432500Y-15555357D01*
X16446786Y-15526786D01*
X16461071Y-15512500D01*
X16489643Y-15498214D01*
X16532500Y-15498214D01*
X16561071Y-15512500D01*
X16575357Y-15526786D01*
X16589643Y-15555357D01*
X16589643Y-15641071D01*
X16575357Y-15669643D01*
X16561071Y-15683929D01*
X16532500Y-15698214D01*
X16489643Y-15698214D01*
X16675357Y-15498214D02*
X16789643Y-15498214D01*
X16718214Y-15398214D02*
X16718214Y-15655357D01*
X16732500Y-15683929D01*
X16761071Y-15698214D01*
X16789643Y-15698214D01*
X16875357Y-15683929D02*
X16903928Y-15698214D01*
X16961071Y-15698214D01*
X16989643Y-15683929D01*
X17003928Y-15655357D01*
X17003928Y-15641071D01*
X16989643Y-15612500D01*
X16961071Y-15598214D01*
X16918214Y-15598214D01*
X16889643Y-15583929D01*
X16875357Y-15555357D01*
X16875357Y-15541071D01*
X16889643Y-15512500D01*
X16918214Y-15498214D01*
X16961071Y-15498214D01*
X16989643Y-15512500D01*
X17103928Y-15812500D02*
X17118214Y-15798214D01*
X17146786Y-15755357D01*
X17161071Y-15726786D01*
X17175357Y-15683929D01*
X17189643Y-15612500D01*
X17189643Y-15555357D01*
X17175357Y-15483929D01*
X17161071Y-15441071D01*
X17146786Y-15412500D01*
X17118214Y-15369643D01*
X17103928Y-15355357D01*
M02*
