%TF.GenerationSoftware,KiCad,Pcbnew,5.1.10*%
%TF.CreationDate,2021-12-19T01:12:45+02:00*%
%TF.ProjectId,pwm-controller,70776d2d-636f-46e7-9472-6f6c6c65722e,rev?*%
%TF.SameCoordinates,Original*%
%TF.FileFunction,Copper,L2,Bot*%
%TF.FilePolarity,Positive*%
%FSLAX46Y46*%
G04 Gerber Fmt 4.6, Leading zero omitted, Abs format (unit mm)*
G04 Created by KiCad (PCBNEW 5.1.10) date 2021-12-19 01:12:45*
%MOMM*%
%LPD*%
G01*
G04 APERTURE LIST*
%TA.AperFunction,ComponentPad*%
%ADD10C,1.524000*%
%TD*%
%TA.AperFunction,ComponentPad*%
%ADD11C,1.800000*%
%TD*%
%TA.AperFunction,ComponentPad*%
%ADD12C,2.000000*%
%TD*%
%TA.AperFunction,ComponentPad*%
%ADD13O,1.700000X1.700000*%
%TD*%
%TA.AperFunction,ComponentPad*%
%ADD14R,1.700000X1.700000*%
%TD*%
%TA.AperFunction,ViaPad*%
%ADD15C,0.600000*%
%TD*%
%TA.AperFunction,Conductor*%
%ADD16C,0.200000*%
%TD*%
%TA.AperFunction,Conductor*%
%ADD17C,0.250000*%
%TD*%
%TA.AperFunction,Conductor*%
%ADD18C,0.100000*%
%TD*%
%TA.AperFunction,Conductor*%
%ADD19C,0.254000*%
%TD*%
G04 APERTURE END LIST*
D10*
%TO.P,SW1,S1*%
%TO.N,RE_B*%
X115100000Y-111846000D03*
%TO.P,SW1,S2*%
%TO.N,GND*%
X126600000Y-111146000D03*
D11*
%TO.P,SW1,B*%
%TO.N,RE_Q*%
X126200000Y-103546000D03*
%TO.P,SW1,A*%
%TO.N,RE_I*%
X115100000Y-103546000D03*
%TO.P,SW1,C*%
%TO.N,GND*%
X120650000Y-100846000D03*
%TO.P,SW1,*%
%TO.N,*%
%TA.AperFunction,ComponentPad*%
G36*
G01*
X112675000Y-108446000D02*
X112675000Y-107046000D01*
G75*
G02*
X113375000Y-106346000I700000J0D01*
G01*
X114975000Y-106346000D01*
G75*
G02*
X115675000Y-107046000I0J-700000D01*
G01*
X115675000Y-108446000D01*
G75*
G02*
X114975000Y-109146000I-700000J0D01*
G01*
X113375000Y-109146000D01*
G75*
G02*
X112675000Y-108446000I0J700000D01*
G01*
G37*
%TD.AperFunction*%
%TA.AperFunction,ComponentPad*%
G36*
G01*
X125625000Y-108446000D02*
X125625000Y-107046000D01*
G75*
G02*
X126325000Y-106346000I700000J0D01*
G01*
X127925000Y-106346000D01*
G75*
G02*
X128625000Y-107046000I0J-700000D01*
G01*
X128625000Y-108446000D01*
G75*
G02*
X127925000Y-109146000I-700000J0D01*
G01*
X126325000Y-109146000D01*
G75*
G02*
X125625000Y-108446000I0J700000D01*
G01*
G37*
%TD.AperFunction*%
%TD*%
D12*
%TO.P,J5,2*%
%TO.N,/VIN*%
X97790000Y-140462000D03*
%TO.P,J5,1*%
X92710000Y-140462000D03*
%TD*%
%TO.P,J4,1*%
%TO.N,/VIN*%
X92075000Y-120650000D03*
%TO.P,J4,2*%
X92075000Y-125730000D03*
%TD*%
%TO.P,J2,2*%
%TO.N,DRAIN1*%
X117475000Y-140462000D03*
%TO.P,J2,1*%
%TO.N,DRAIN2*%
X112395000Y-140462000D03*
%TD*%
%TO.P,J1,1*%
%TO.N,GND*%
X104140000Y-125730000D03*
%TO.P,J1,2*%
X104140000Y-120650000D03*
%TD*%
D13*
%TO.P,J7,10*%
%TO.N,GND*%
X110490000Y-99949000D03*
%TO.P,J7,9*%
%TO.N,SADD0*%
X110490000Y-102489000D03*
%TO.P,J7,8*%
%TO.N,GND*%
X107950000Y-99949000D03*
%TO.P,J7,7*%
%TO.N,SADD1*%
X107950000Y-102489000D03*
%TO.P,J7,6*%
%TO.N,GND*%
X105410000Y-99949000D03*
%TO.P,J7,5*%
%TO.N,SADD2*%
X105410000Y-102489000D03*
%TO.P,J7,4*%
%TO.N,GND*%
X102870000Y-99949000D03*
%TO.P,J7,3*%
%TO.N,SDA*%
X102870000Y-102489000D03*
%TO.P,J7,2*%
%TO.N,GND*%
X100330000Y-99949000D03*
D14*
%TO.P,J7,1*%
%TO.N,SCL*%
X100330000Y-102489000D03*
%TD*%
D13*
%TO.P,J6,5*%
%TO.N,GND*%
X94742000Y-99949000D03*
%TO.P,J6,4*%
%TO.N,INT*%
X92202000Y-99949000D03*
%TO.P,J6,3*%
%TO.N,UTX*%
X89662000Y-99949000D03*
%TO.P,J6,2*%
%TO.N,URX*%
X87122000Y-99949000D03*
D14*
%TO.P,J6,1*%
%TO.N,SWIM*%
X84582000Y-99949000D03*
%TD*%
D15*
%TO.N,GND*%
X85090000Y-117475000D03*
X85090000Y-116205000D03*
X85090000Y-114935000D03*
X85090000Y-113665000D03*
X129540000Y-114935000D03*
X129540000Y-113665000D03*
X129540000Y-112395000D03*
X129540000Y-111125000D03*
%TO.N,DRAIN1*%
X123952000Y-137795000D03*
X123952000Y-136525000D03*
%TO.N,GND*%
X114300000Y-130175000D03*
%TO.N,/VIN*%
X93345000Y-130175000D03*
X90805000Y-130175000D03*
X95885000Y-130175000D03*
X94615000Y-130175000D03*
X92075000Y-130175000D03*
X89535000Y-130175000D03*
X97155000Y-130175000D03*
%TO.N,DRAIN1*%
X117602000Y-136525000D03*
X120142000Y-137795000D03*
X116332000Y-136525000D03*
X118872000Y-137795000D03*
X121412000Y-137795000D03*
X116332000Y-137795000D03*
X117602000Y-137795000D03*
X122682000Y-137795000D03*
X120142000Y-136525000D03*
X118872000Y-136525000D03*
X121412000Y-136525000D03*
X122682000Y-136525000D03*
%TO.N,DRAIN2*%
X113538000Y-137795000D03*
X105918000Y-136525000D03*
X112268000Y-137795000D03*
X108458000Y-137795000D03*
X107188000Y-137795000D03*
X109728000Y-137795000D03*
X105918000Y-137795000D03*
X110998000Y-137795000D03*
X108458000Y-136525000D03*
X107188000Y-136525000D03*
X112268000Y-136525000D03*
X109728000Y-136525000D03*
X113538000Y-136525000D03*
X110998000Y-136525000D03*
%TO.N,/VIN*%
X99695000Y-137795000D03*
X92075000Y-136525000D03*
X98425000Y-137795000D03*
X94615000Y-137795000D03*
X90805000Y-136525000D03*
X93345000Y-137795000D03*
X95885000Y-137795000D03*
X90805000Y-137795000D03*
X92075000Y-137795000D03*
X97155000Y-137795000D03*
X94615000Y-136525000D03*
X93345000Y-136525000D03*
X98425000Y-136525000D03*
X95885000Y-136525000D03*
X99695000Y-136525000D03*
X97155000Y-136525000D03*
%TO.N,GND*%
X128270000Y-133985000D03*
X121920000Y-145415000D03*
X123190000Y-145415000D03*
X124460000Y-145415000D03*
X113030000Y-130175000D03*
X111760000Y-130175000D03*
X127000000Y-130175000D03*
X125730000Y-130175000D03*
X119380000Y-130175000D03*
X124460000Y-130175000D03*
X116840000Y-130175000D03*
X121920000Y-130175000D03*
X120650000Y-130175000D03*
X118110000Y-130175000D03*
X115570000Y-130175000D03*
X123190000Y-130175000D03*
X85090000Y-120015000D03*
X85090000Y-121285000D03*
X85090000Y-122555000D03*
X85090000Y-118745000D03*
X87630000Y-136525000D03*
X87630000Y-137795000D03*
X87630000Y-139065000D03*
X106680000Y-145415000D03*
X93980000Y-145415000D03*
X119380000Y-145415000D03*
X118110000Y-145415000D03*
X97790000Y-145415000D03*
X107950000Y-145415000D03*
X110490000Y-145415000D03*
X91440000Y-145415000D03*
X105410000Y-145415000D03*
X113030000Y-145415000D03*
X90170000Y-145415000D03*
X111760000Y-145415000D03*
X104140000Y-145415000D03*
X109220000Y-145415000D03*
X114300000Y-145415000D03*
X116840000Y-145415000D03*
X96520000Y-145415000D03*
X101600000Y-145415000D03*
X100330000Y-145415000D03*
X102870000Y-145415000D03*
X120650000Y-145415000D03*
X115570000Y-145415000D03*
X99060000Y-145415000D03*
X92710000Y-145415000D03*
X95250000Y-145415000D03*
X128270000Y-136525000D03*
X128270000Y-139065000D03*
X129540000Y-136525000D03*
X128270000Y-137795000D03*
X129540000Y-139065000D03*
X129540000Y-135255000D03*
X129540000Y-133985000D03*
X129540000Y-137795000D03*
X128270000Y-135255000D03*
X128270000Y-140335000D03*
X129540000Y-140335000D03*
X110490000Y-130175000D03*
X105410000Y-130175000D03*
X102870000Y-130175000D03*
X107950000Y-130175000D03*
X106680000Y-130175000D03*
X104140000Y-130175000D03*
X109220000Y-130175000D03*
X101600000Y-130175000D03*
X129540000Y-130175000D03*
X129540000Y-117475000D03*
X129540000Y-125095000D03*
X129540000Y-120015000D03*
X129540000Y-121285000D03*
X129540000Y-131445000D03*
X129540000Y-126365000D03*
X129540000Y-123825000D03*
X129540000Y-118745000D03*
X129540000Y-127635000D03*
X129540000Y-122555000D03*
X129540000Y-128905000D03*
X129540000Y-132715000D03*
X86360000Y-130175000D03*
X86360000Y-139065000D03*
X86360000Y-136525000D03*
X86360000Y-140335000D03*
X86360000Y-137795000D03*
X86360000Y-131445000D03*
X86360000Y-132715000D03*
X86360000Y-133985000D03*
X85090000Y-130175000D03*
X85090000Y-139065000D03*
X85090000Y-136525000D03*
X85090000Y-140335000D03*
X85090000Y-137795000D03*
X85090000Y-127635000D03*
X85090000Y-131445000D03*
X85090000Y-132715000D03*
X85090000Y-128905000D03*
X85090000Y-135255000D03*
X85090000Y-133985000D03*
X85090000Y-123825000D03*
X85090000Y-125095000D03*
X85090000Y-126365000D03*
X129540000Y-116205000D03*
X128524000Y-117729000D03*
X110236000Y-121793000D03*
X115316000Y-121793000D03*
X126238000Y-123063000D03*
X124460000Y-123571000D03*
X122174000Y-117729000D03*
X119888000Y-123063000D03*
X118110000Y-123571000D03*
X123952000Y-120523000D03*
X117602000Y-120523000D03*
X84293000Y-109557735D03*
X84293000Y-108585000D03*
X107315000Y-111760000D03*
X111760000Y-116332000D03*
X113411000Y-116840000D03*
X111760000Y-106553000D03*
X111760000Y-108458000D03*
X111760000Y-110363000D03*
X100965000Y-107188000D03*
X104775000Y-113030000D03*
X101727000Y-112522000D03*
%TO.N,+3V3*%
X85725000Y-110779000D03*
X86614000Y-103378000D03*
%TO.N,SWIM*%
X92178010Y-105791000D03*
%TO.N,/VIN*%
X110731000Y-115903000D03*
X110744000Y-114046000D03*
%TO.N,LED1*%
X86487000Y-107299980D03*
X83947000Y-106934000D03*
%TO.N,LED2*%
X85647003Y-107641333D03*
X83947000Y-107823000D03*
%TO.N,PWM1*%
X123190000Y-118618000D03*
X122225000Y-116205000D03*
%TO.N,PWM2*%
X116332000Y-118110000D03*
X114561000Y-115570000D03*
X94615000Y-115570000D03*
X90805000Y-111760000D03*
%TO.N,/channel2/GATE*%
X114476999Y-132665001D03*
X127848500Y-130848000D03*
%TD*%
D16*
%TO.N,GND*%
X85090000Y-117475000D02*
X85090000Y-118745000D01*
X85090000Y-116205000D02*
X85090000Y-117475000D01*
X85090000Y-114935000D02*
X85090000Y-116205000D01*
X85090000Y-113665000D02*
X85090000Y-114935000D01*
X129540000Y-114935000D02*
X129540000Y-116205000D01*
X129540000Y-114935000D02*
X129540000Y-113665000D01*
X129540000Y-112395000D02*
X129540000Y-113665000D01*
X129540000Y-112395000D02*
X129540000Y-111125000D01*
%TO.N,DRAIN1*%
X123952000Y-137795000D02*
X122682000Y-137795000D01*
X123952000Y-136525000D02*
X122682000Y-136525000D01*
%TO.N,GND*%
X115570000Y-130175000D02*
X114300000Y-130175000D01*
X114300000Y-130175000D02*
X113030000Y-130175000D01*
%TO.N,/VIN*%
X94615000Y-130175000D02*
X93345000Y-130175000D01*
X92075000Y-130175000D02*
X90805000Y-130175000D01*
X93345000Y-130175000D02*
X92075000Y-130175000D01*
X97155000Y-130175000D02*
X95885000Y-130175000D01*
X95885000Y-130175000D02*
X94615000Y-130175000D01*
X90805000Y-130175000D02*
X89535000Y-130175000D01*
%TO.N,DRAIN1*%
X122682000Y-136525000D02*
X121412000Y-136525000D01*
X117602000Y-137795000D02*
X116332000Y-137795000D01*
X121412000Y-136525000D02*
X120142000Y-136525000D01*
X118872000Y-136525000D02*
X117602000Y-136525000D01*
X122682000Y-137795000D02*
X121412000Y-137795000D01*
X117602000Y-136525000D02*
X116332000Y-136525000D01*
X120142000Y-137795000D02*
X118872000Y-137795000D01*
X120142000Y-136525000D02*
X118872000Y-136525000D01*
X118872000Y-137795000D02*
X117602000Y-137795000D01*
X121412000Y-137795000D02*
X120142000Y-137795000D01*
%TO.N,DRAIN2*%
X110998000Y-136525000D02*
X109728000Y-136525000D01*
X112268000Y-136525000D02*
X110998000Y-136525000D01*
X113538000Y-136525000D02*
X112268000Y-136525000D01*
X112268000Y-137795000D02*
X110998000Y-137795000D01*
X109728000Y-136525000D02*
X108458000Y-136525000D01*
X107188000Y-136525000D02*
X105918000Y-136525000D01*
X110998000Y-137795000D02*
X109728000Y-137795000D01*
X108458000Y-137795000D02*
X107188000Y-137795000D01*
X108458000Y-136525000D02*
X107188000Y-136525000D01*
X107188000Y-137795000D02*
X105918000Y-137795000D01*
X109728000Y-137795000D02*
X108458000Y-137795000D01*
X113538000Y-137795000D02*
X112268000Y-137795000D01*
%TO.N,/VIN*%
X97155000Y-136525000D02*
X95885000Y-136525000D01*
X98425000Y-136525000D02*
X97155000Y-136525000D01*
X99695000Y-136525000D02*
X98425000Y-136525000D01*
X98425000Y-137795000D02*
X97155000Y-137795000D01*
X92075000Y-137795000D02*
X90805000Y-137795000D01*
X95885000Y-136525000D02*
X94615000Y-136525000D01*
X93345000Y-136525000D02*
X92075000Y-136525000D01*
X97155000Y-137795000D02*
X95885000Y-137795000D01*
X92075000Y-136525000D02*
X90805000Y-136525000D01*
X94615000Y-137795000D02*
X93345000Y-137795000D01*
X94615000Y-136525000D02*
X93345000Y-136525000D01*
X93345000Y-137795000D02*
X92075000Y-137795000D01*
X95885000Y-137795000D02*
X94615000Y-137795000D01*
X99695000Y-137795000D02*
X98425000Y-137795000D01*
%TO.N,GND*%
X128270000Y-133985000D02*
X128270000Y-135255000D01*
X121920000Y-145415000D02*
X120650000Y-145415000D01*
X123190000Y-145415000D02*
X121920000Y-145415000D01*
X124460000Y-145415000D02*
X123190000Y-145415000D01*
X113030000Y-130175000D02*
X111760000Y-130175000D01*
X111760000Y-130175000D02*
X110490000Y-130175000D01*
X127000000Y-130175000D02*
X125730000Y-130175000D01*
X125730000Y-130175000D02*
X124460000Y-130175000D01*
X124460000Y-130175000D02*
X123190000Y-130175000D01*
X120650000Y-130175000D02*
X119380000Y-130175000D01*
X118110000Y-130175000D02*
X116840000Y-130175000D01*
X119380000Y-130175000D02*
X118110000Y-130175000D01*
X123190000Y-130175000D02*
X121920000Y-130175000D01*
X121920000Y-130175000D02*
X120650000Y-130175000D01*
X116840000Y-130175000D02*
X115570000Y-130175000D01*
X85090000Y-121285000D02*
X85090000Y-122555000D01*
X85090000Y-120015000D02*
X85090000Y-121285000D01*
X85090000Y-122555000D02*
X85090000Y-123825000D01*
X85090000Y-118745000D02*
X85090000Y-120015000D01*
X87630000Y-136525000D02*
X87630000Y-137795000D01*
X87630000Y-137795000D02*
X87630000Y-139065000D01*
X119380000Y-145415000D02*
X118110000Y-145415000D01*
X116840000Y-145415000D02*
X115570000Y-145415000D01*
X107950000Y-145415000D02*
X106680000Y-145415000D01*
X92710000Y-145415000D02*
X91440000Y-145415000D01*
X118110000Y-145415000D02*
X116840000Y-145415000D01*
X96520000Y-145415000D02*
X95250000Y-145415000D01*
X115570000Y-145415000D02*
X114300000Y-145415000D01*
X102870000Y-145415000D02*
X101600000Y-145415000D01*
X113030000Y-145415000D02*
X111760000Y-145415000D01*
X110490000Y-145415000D02*
X109220000Y-145415000D01*
X105410000Y-145415000D02*
X104140000Y-145415000D01*
X91440000Y-145415000D02*
X90170000Y-145415000D01*
X99060000Y-145415000D02*
X97790000Y-145415000D01*
X95250000Y-145415000D02*
X93980000Y-145415000D01*
X120650000Y-145415000D02*
X119380000Y-145415000D01*
X101600000Y-145415000D02*
X100330000Y-145415000D01*
X93980000Y-145415000D02*
X92710000Y-145415000D01*
X109220000Y-145415000D02*
X107950000Y-145415000D01*
X97790000Y-145415000D02*
X96520000Y-145415000D01*
X111760000Y-145415000D02*
X110490000Y-145415000D01*
X114300000Y-145415000D02*
X113030000Y-145415000D01*
X104140000Y-145415000D02*
X102870000Y-145415000D01*
X100330000Y-145415000D02*
X99060000Y-145415000D01*
X129540000Y-137795000D02*
X129540000Y-139065000D01*
X128270000Y-136525000D02*
X128270000Y-137795000D01*
X128270000Y-135255000D02*
X128270000Y-136525000D01*
X128270000Y-137795000D02*
X128270000Y-139065000D01*
X129540000Y-133985000D02*
X129540000Y-135255000D01*
X129540000Y-135255000D02*
X129540000Y-136525000D01*
X129540000Y-136525000D02*
X129540000Y-137795000D01*
X129540000Y-132715000D02*
X129540000Y-133985000D01*
X129540000Y-139065000D02*
X129540000Y-140335000D01*
X128270000Y-139065000D02*
X128270000Y-140335000D01*
X104140000Y-130175000D02*
X102870000Y-130175000D01*
X107950000Y-130175000D02*
X106680000Y-130175000D01*
X105410000Y-130175000D02*
X104140000Y-130175000D01*
X106680000Y-130175000D02*
X105410000Y-130175000D01*
X109220000Y-130175000D02*
X107950000Y-130175000D01*
X110490000Y-130175000D02*
X109220000Y-130175000D01*
X102870000Y-130175000D02*
X101600000Y-130175000D01*
X129540000Y-123825000D02*
X129540000Y-125095000D01*
X129540000Y-130175000D02*
X129540000Y-131445000D01*
X129540000Y-126365000D02*
X129540000Y-127635000D01*
X129540000Y-128905000D02*
X129540000Y-130175000D01*
X129540000Y-120015000D02*
X129540000Y-121285000D01*
X129540000Y-118745000D02*
X129540000Y-120015000D01*
X129540000Y-121285000D02*
X129540000Y-122555000D01*
X129540000Y-127635000D02*
X129540000Y-128905000D01*
X129540000Y-122555000D02*
X129540000Y-123825000D01*
X129540000Y-117475000D02*
X129540000Y-118745000D01*
X129540000Y-125095000D02*
X129540000Y-126365000D01*
X129540000Y-131445000D02*
X129540000Y-132715000D01*
X86360000Y-136525000D02*
X86360000Y-137795000D01*
X86360000Y-131445000D02*
X86360000Y-132715000D01*
X86360000Y-132715000D02*
X86360000Y-133985000D01*
X86360000Y-130175000D02*
X86360000Y-131445000D01*
X86360000Y-137795000D02*
X86360000Y-139065000D01*
X86360000Y-139065000D02*
X86360000Y-140335000D01*
X86360000Y-135255000D02*
X86360000Y-136525000D01*
X85090000Y-128905000D02*
X85090000Y-130175000D01*
X85090000Y-136525000D02*
X85090000Y-137795000D01*
X85090000Y-131445000D02*
X85090000Y-132715000D01*
X85090000Y-132715000D02*
X85090000Y-133985000D01*
X85090000Y-130175000D02*
X85090000Y-131445000D01*
X85090000Y-137795000D02*
X85090000Y-139065000D01*
X85090000Y-139065000D02*
X85090000Y-140335000D01*
X85090000Y-127635000D02*
X85090000Y-128905000D01*
X85090000Y-135255000D02*
X85090000Y-136525000D01*
X85090000Y-133985000D02*
X85090000Y-135255000D01*
X85090000Y-125095000D02*
X85090000Y-126365000D01*
X85090000Y-123825000D02*
X85090000Y-125095000D01*
X85090000Y-126365000D02*
X85090000Y-127635000D01*
X129540000Y-117475000D02*
X129540000Y-116205000D01*
X105410000Y-145415000D02*
X106680000Y-145415000D01*
%TO.N,SWIM*%
X84582000Y-99949000D02*
X84687002Y-99949000D01*
%TO.N,GND*%
X86360000Y-133985000D02*
X86360000Y-135255000D01*
%TO.N,+3V3*%
X86614000Y-103378000D02*
X85090000Y-103378000D01*
X85090000Y-103378000D02*
X83185000Y-105283000D01*
X83855000Y-110779000D02*
X83185000Y-110109000D01*
X85725000Y-110779000D02*
X83855000Y-110779000D01*
X83185000Y-110109000D02*
X83185000Y-105283000D01*
%TO.N,SWIM*%
X90529002Y-105791000D02*
X90286001Y-105547999D01*
X92178010Y-105791000D02*
X90529002Y-105791000D01*
X90286001Y-105547999D02*
X90443002Y-105705000D01*
X84687002Y-99949000D02*
X90286001Y-105547999D01*
%TO.N,/VIN*%
X110731000Y-114059000D02*
X110744000Y-114046000D01*
X110731000Y-115903000D02*
X110731000Y-114059000D01*
%TO.N,LED1*%
X86121020Y-106934000D02*
X83947000Y-106934000D01*
X86487000Y-107299980D02*
X86121020Y-106934000D01*
%TO.N,LED2*%
X84128667Y-107641333D02*
X83947000Y-107823000D01*
X85647003Y-107641333D02*
X84128667Y-107641333D01*
%TO.N,PWM1*%
X123190000Y-117170000D02*
X122225000Y-116205000D01*
X123190000Y-117170000D02*
X123190000Y-118618000D01*
%TO.N,PWM2*%
X116332000Y-117341000D02*
X116332000Y-118110000D01*
X114561000Y-115570000D02*
X116332000Y-117341000D01*
X94615000Y-115570000D02*
X90805000Y-111760000D01*
%TO.N,/channel2/GATE*%
X114619000Y-132523000D02*
X114476999Y-132665001D01*
X127848500Y-131674500D02*
X127000000Y-132523000D01*
X127000000Y-132523000D02*
X114619000Y-132523000D01*
X127848500Y-130848000D02*
X127848500Y-131674500D01*
%TD*%
D17*
%TO.N,GND*%
X129773727Y-98008291D02*
X130118791Y-98112471D01*
X130437049Y-98281691D01*
X130716378Y-98509507D01*
X130946136Y-98787237D01*
X131117574Y-99104306D01*
X131224161Y-99448633D01*
X131265001Y-99837200D01*
X131265000Y-144788208D01*
X131226709Y-145178728D01*
X131122528Y-145523793D01*
X130953308Y-145842049D01*
X130725494Y-146121378D01*
X130447763Y-146351136D01*
X130130698Y-146522573D01*
X129786366Y-146629161D01*
X129397809Y-146670000D01*
X84446792Y-146670000D01*
X84056272Y-146631709D01*
X83711207Y-146527528D01*
X83392951Y-146358308D01*
X83113622Y-146130494D01*
X82883864Y-145852763D01*
X82712427Y-145535698D01*
X82605839Y-145191366D01*
X82565000Y-144802809D01*
X82565000Y-143975102D01*
X83365000Y-143975102D01*
X83365000Y-144314898D01*
X83431290Y-144648164D01*
X83561324Y-144962094D01*
X83750105Y-145244624D01*
X83990376Y-145484895D01*
X84272906Y-145673676D01*
X84586836Y-145803710D01*
X84920102Y-145870000D01*
X85259898Y-145870000D01*
X85593164Y-145803710D01*
X85907094Y-145673676D01*
X86189624Y-145484895D01*
X86429895Y-145244624D01*
X86618676Y-144962094D01*
X86748710Y-144648164D01*
X86815000Y-144314898D01*
X86815000Y-143975102D01*
X127015000Y-143975102D01*
X127015000Y-144314898D01*
X127081290Y-144648164D01*
X127211324Y-144962094D01*
X127400105Y-145244624D01*
X127640376Y-145484895D01*
X127922906Y-145673676D01*
X128236836Y-145803710D01*
X128570102Y-145870000D01*
X128909898Y-145870000D01*
X129243164Y-145803710D01*
X129557094Y-145673676D01*
X129839624Y-145484895D01*
X130079895Y-145244624D01*
X130268676Y-144962094D01*
X130398710Y-144648164D01*
X130465000Y-144314898D01*
X130465000Y-143975102D01*
X130398710Y-143641836D01*
X130268676Y-143327906D01*
X130079895Y-143045376D01*
X129839624Y-142805105D01*
X129557094Y-142616324D01*
X129243164Y-142486290D01*
X128909898Y-142420000D01*
X128570102Y-142420000D01*
X128236836Y-142486290D01*
X127922906Y-142616324D01*
X127640376Y-142805105D01*
X127400105Y-143045376D01*
X127211324Y-143327906D01*
X127081290Y-143641836D01*
X127015000Y-143975102D01*
X86815000Y-143975102D01*
X86748710Y-143641836D01*
X86618676Y-143327906D01*
X86429895Y-143045376D01*
X86189624Y-142805105D01*
X85907094Y-142616324D01*
X85593164Y-142486290D01*
X85259898Y-142420000D01*
X84920102Y-142420000D01*
X84586836Y-142486290D01*
X84272906Y-142616324D01*
X83990376Y-142805105D01*
X83750105Y-143045376D01*
X83561324Y-143327906D01*
X83431290Y-143641836D01*
X83365000Y-143975102D01*
X82565000Y-143975102D01*
X82565000Y-141486712D01*
X87064000Y-141486712D01*
X87064000Y-141723288D01*
X87110154Y-141955319D01*
X87200688Y-142173887D01*
X87332122Y-142370593D01*
X87499407Y-142537878D01*
X87696113Y-142669312D01*
X87914681Y-142759846D01*
X88146712Y-142806000D01*
X88275000Y-142806000D01*
X88275000Y-142875000D01*
X88287009Y-142996931D01*
X88322575Y-143114177D01*
X88380331Y-143222231D01*
X88458058Y-143316942D01*
X88552769Y-143394669D01*
X88660823Y-143452425D01*
X88778069Y-143487991D01*
X88900000Y-143500000D01*
X101600000Y-143500000D01*
X101721931Y-143487991D01*
X101839177Y-143452425D01*
X101947231Y-143394669D01*
X102041942Y-143316942D01*
X102119669Y-143222231D01*
X102177425Y-143114177D01*
X102212991Y-142996931D01*
X102225000Y-142875000D01*
X102225000Y-133350000D01*
X102872000Y-133350000D01*
X102872000Y-142875000D01*
X102884163Y-142998492D01*
X102920184Y-143117239D01*
X102978680Y-143226676D01*
X103057401Y-143322599D01*
X103153324Y-143401320D01*
X103262761Y-143459816D01*
X103381508Y-143495837D01*
X103505000Y-143508000D01*
X126365000Y-143508000D01*
X126488492Y-143495837D01*
X126607239Y-143459816D01*
X126716676Y-143401320D01*
X126812599Y-143322599D01*
X126891320Y-143226676D01*
X126949816Y-143117239D01*
X126985837Y-142998492D01*
X126998000Y-142875000D01*
X126998000Y-133350000D01*
X126988184Y-133250342D01*
X127000000Y-133251506D01*
X127035597Y-133248000D01*
X127035607Y-133248000D01*
X127142125Y-133237509D01*
X127278788Y-133196053D01*
X127404737Y-133128731D01*
X127515132Y-133038132D01*
X127537832Y-133010472D01*
X128335977Y-132212328D01*
X128363632Y-132189632D01*
X128422203Y-132118264D01*
X128454231Y-132079237D01*
X128521553Y-131953288D01*
X128532479Y-131917269D01*
X128563009Y-131816625D01*
X128573500Y-131710107D01*
X128573500Y-131710098D01*
X128577006Y-131674501D01*
X128573500Y-131638904D01*
X128573500Y-131427918D01*
X128668225Y-131286152D01*
X128737953Y-131117813D01*
X128773500Y-130939105D01*
X128773500Y-130756895D01*
X128737953Y-130578187D01*
X128668225Y-130409848D01*
X128566995Y-130258347D01*
X128438153Y-130129505D01*
X128286652Y-130028275D01*
X128118313Y-129958547D01*
X127939605Y-129923000D01*
X127757395Y-129923000D01*
X127578687Y-129958547D01*
X127410348Y-130028275D01*
X127258847Y-130129505D01*
X127130005Y-130258347D01*
X127028775Y-130409848D01*
X126959047Y-130578187D01*
X126923500Y-130756895D01*
X126923500Y-130939105D01*
X126959047Y-131117813D01*
X127028775Y-131286152D01*
X127101982Y-131395713D01*
X126699696Y-131798000D01*
X114801016Y-131798000D01*
X114746812Y-131775548D01*
X114568104Y-131740001D01*
X114385894Y-131740001D01*
X114207186Y-131775548D01*
X114038847Y-131845276D01*
X113887346Y-131946506D01*
X113758504Y-132075348D01*
X113657274Y-132226849D01*
X113587546Y-132395188D01*
X113551999Y-132573896D01*
X113551999Y-132717000D01*
X103505000Y-132717000D01*
X103381508Y-132729163D01*
X103262761Y-132765184D01*
X103153324Y-132823680D01*
X103057401Y-132902401D01*
X102978680Y-132998324D01*
X102920184Y-133107761D01*
X102884163Y-133226508D01*
X102872000Y-133350000D01*
X102225000Y-133350000D01*
X102225000Y-132715000D01*
X102212991Y-132593069D01*
X102177425Y-132475823D01*
X102119669Y-132367769D01*
X102041942Y-132273058D01*
X99050000Y-129281116D01*
X99050000Y-126724774D01*
X103322003Y-126724774D01*
X103432342Y-126916670D01*
X103677448Y-127031926D01*
X103940329Y-127097149D01*
X104210883Y-127109834D01*
X104478714Y-127069492D01*
X104733527Y-126977674D01*
X104847658Y-126916670D01*
X104957997Y-126724774D01*
X104140000Y-125906777D01*
X103322003Y-126724774D01*
X99050000Y-126724774D01*
X99050000Y-125800883D01*
X102760166Y-125800883D01*
X102800508Y-126068714D01*
X102892326Y-126323527D01*
X102953330Y-126437658D01*
X103145226Y-126547997D01*
X103963223Y-125730000D01*
X104316777Y-125730000D01*
X105134774Y-126547997D01*
X105326670Y-126437658D01*
X105441926Y-126192552D01*
X105507149Y-125929671D01*
X105519834Y-125659117D01*
X105479492Y-125391286D01*
X105387674Y-125136473D01*
X105326670Y-125022342D01*
X105134774Y-124912003D01*
X104316777Y-125730000D01*
X103963223Y-125730000D01*
X103145226Y-124912003D01*
X102953330Y-125022342D01*
X102838074Y-125267448D01*
X102772851Y-125530329D01*
X102760166Y-125800883D01*
X99050000Y-125800883D01*
X99050000Y-124735226D01*
X103322003Y-124735226D01*
X104140000Y-125553223D01*
X104957997Y-124735226D01*
X104847658Y-124543330D01*
X104602552Y-124428074D01*
X104339671Y-124362851D01*
X104069117Y-124350166D01*
X103801286Y-124390508D01*
X103546473Y-124482326D01*
X103432342Y-124543330D01*
X103322003Y-124735226D01*
X99050000Y-124735226D01*
X99050000Y-123990000D01*
X110365000Y-123990000D01*
X110365000Y-124625000D01*
X110367402Y-124649386D01*
X110374515Y-124672835D01*
X110386066Y-124694446D01*
X110401612Y-124713388D01*
X110420554Y-124728934D01*
X110442165Y-124740485D01*
X110465614Y-124747598D01*
X110490000Y-124750000D01*
X116788224Y-124750000D01*
X119761612Y-127723388D01*
X119780554Y-127738934D01*
X119802165Y-127750485D01*
X119825614Y-127757598D01*
X119850000Y-127760000D01*
X127343000Y-127760000D01*
X127371042Y-127756814D01*
X127394268Y-127749003D01*
X127415524Y-127736810D01*
X127433992Y-127720705D01*
X127448964Y-127701307D01*
X127459864Y-127679360D01*
X127466273Y-127655709D01*
X127467944Y-127631262D01*
X127448944Y-126996262D01*
X127446598Y-126975614D01*
X127439485Y-126952165D01*
X127427934Y-126930554D01*
X127412388Y-126911612D01*
X127393446Y-126896066D01*
X127371835Y-126884515D01*
X127348386Y-126877402D01*
X127324000Y-126875000D01*
X119901776Y-126875000D01*
X116928388Y-123901612D01*
X116909446Y-123886066D01*
X116887835Y-123874515D01*
X116864386Y-123867402D01*
X116840000Y-123865000D01*
X110490000Y-123865000D01*
X110465614Y-123867402D01*
X110442165Y-123874515D01*
X110420554Y-123886066D01*
X110401612Y-123901612D01*
X110386066Y-123920554D01*
X110374515Y-123942165D01*
X110367402Y-123965614D01*
X110365000Y-123990000D01*
X99050000Y-123990000D01*
X99050000Y-121644774D01*
X103322003Y-121644774D01*
X103432342Y-121836670D01*
X103677448Y-121951926D01*
X103940329Y-122017149D01*
X104210883Y-122029834D01*
X104478714Y-121989492D01*
X104733527Y-121897674D01*
X104847658Y-121836670D01*
X104957997Y-121644774D01*
X104140000Y-120826777D01*
X103322003Y-121644774D01*
X99050000Y-121644774D01*
X99050000Y-120720883D01*
X102760166Y-120720883D01*
X102800508Y-120988714D01*
X102892326Y-121243527D01*
X102953330Y-121357658D01*
X103145226Y-121467997D01*
X103963223Y-120650000D01*
X104316777Y-120650000D01*
X105134774Y-121467997D01*
X105326670Y-121357658D01*
X105441926Y-121112552D01*
X105507149Y-120849671D01*
X105519834Y-120579117D01*
X105479492Y-120311286D01*
X105387674Y-120056473D01*
X105326670Y-119942342D01*
X105134774Y-119832003D01*
X104316777Y-120650000D01*
X103963223Y-120650000D01*
X103145226Y-119832003D01*
X102953330Y-119942342D01*
X102838074Y-120187448D01*
X102772851Y-120450329D01*
X102760166Y-120720883D01*
X99050000Y-120720883D01*
X99050000Y-119655226D01*
X103322003Y-119655226D01*
X104140000Y-120473223D01*
X104957997Y-119655226D01*
X104847658Y-119463330D01*
X104602552Y-119348074D01*
X104339671Y-119282851D01*
X104069117Y-119270166D01*
X103801286Y-119310508D01*
X103546473Y-119402326D01*
X103432342Y-119463330D01*
X103322003Y-119655226D01*
X99050000Y-119655226D01*
X99050000Y-116840000D01*
X99037991Y-116718069D01*
X99002425Y-116600823D01*
X98944669Y-116492769D01*
X98866942Y-116398058D01*
X98772231Y-116320331D01*
X98664177Y-116262575D01*
X98546931Y-116227009D01*
X98425000Y-116215000D01*
X95278148Y-116215000D01*
X95333495Y-116159653D01*
X95434725Y-116008152D01*
X95504453Y-115839813D01*
X95510006Y-115811895D01*
X109806000Y-115811895D01*
X109806000Y-115994105D01*
X109841547Y-116172813D01*
X109911275Y-116341152D01*
X110012505Y-116492653D01*
X110141347Y-116621495D01*
X110292848Y-116722725D01*
X110461187Y-116792453D01*
X110639895Y-116828000D01*
X110822105Y-116828000D01*
X111000813Y-116792453D01*
X111169152Y-116722725D01*
X111320653Y-116621495D01*
X111449495Y-116492653D01*
X111550725Y-116341152D01*
X111620453Y-116172813D01*
X111656000Y-115994105D01*
X111656000Y-115811895D01*
X111620453Y-115633187D01*
X111556544Y-115478895D01*
X113636000Y-115478895D01*
X113636000Y-115661105D01*
X113671547Y-115839813D01*
X113741275Y-116008152D01*
X113842505Y-116159653D01*
X113971347Y-116288495D01*
X114122848Y-116389725D01*
X114291187Y-116459453D01*
X114458412Y-116492716D01*
X115562450Y-117596755D01*
X115512275Y-117671848D01*
X115442547Y-117840187D01*
X115407000Y-118018895D01*
X115407000Y-118201105D01*
X115442547Y-118379813D01*
X115512275Y-118548152D01*
X115613505Y-118699653D01*
X115742347Y-118828495D01*
X115893848Y-118929725D01*
X116062187Y-118999453D01*
X116240895Y-119035000D01*
X116423105Y-119035000D01*
X116601813Y-118999453D01*
X116770152Y-118929725D01*
X116921653Y-118828495D01*
X117050495Y-118699653D01*
X117151725Y-118548152D01*
X117221453Y-118379813D01*
X117257000Y-118201105D01*
X117257000Y-118018895D01*
X117221453Y-117840187D01*
X117151725Y-117671848D01*
X117057000Y-117530082D01*
X117057000Y-117376596D01*
X117060506Y-117340999D01*
X117057000Y-117305402D01*
X117057000Y-117305393D01*
X117046509Y-117198875D01*
X117005053Y-117062212D01*
X116937731Y-116936263D01*
X116869830Y-116853525D01*
X116869823Y-116853518D01*
X116847131Y-116825868D01*
X116819482Y-116803177D01*
X116130200Y-116113895D01*
X121300000Y-116113895D01*
X121300000Y-116296105D01*
X121335547Y-116474813D01*
X121405275Y-116643152D01*
X121506505Y-116794653D01*
X121635347Y-116923495D01*
X121786848Y-117024725D01*
X121955187Y-117094453D01*
X122122411Y-117127716D01*
X122465000Y-117470305D01*
X122465001Y-118038082D01*
X122370275Y-118179848D01*
X122300547Y-118348187D01*
X122265000Y-118526895D01*
X122265000Y-118709105D01*
X122300547Y-118887813D01*
X122370275Y-119056152D01*
X122471505Y-119207653D01*
X122600347Y-119336495D01*
X122751848Y-119437725D01*
X122920187Y-119507453D01*
X123098895Y-119543000D01*
X123281105Y-119543000D01*
X123459813Y-119507453D01*
X123628152Y-119437725D01*
X123779653Y-119336495D01*
X123908495Y-119207653D01*
X124009725Y-119056152D01*
X124079453Y-118887813D01*
X124115000Y-118709105D01*
X124115000Y-118526895D01*
X124079453Y-118348187D01*
X124009725Y-118179848D01*
X123915000Y-118038082D01*
X123915000Y-117205596D01*
X123918506Y-117169999D01*
X123915000Y-117134402D01*
X123915000Y-117134393D01*
X123904509Y-117027875D01*
X123863053Y-116891212D01*
X123795731Y-116765263D01*
X123727830Y-116682525D01*
X123727823Y-116682518D01*
X123705131Y-116654868D01*
X123677482Y-116632177D01*
X123147716Y-116102411D01*
X123114453Y-115935187D01*
X123044725Y-115766848D01*
X122943495Y-115615347D01*
X122814653Y-115486505D01*
X122663152Y-115385275D01*
X122494813Y-115315547D01*
X122316105Y-115280000D01*
X122133895Y-115280000D01*
X121955187Y-115315547D01*
X121786848Y-115385275D01*
X121635347Y-115486505D01*
X121506505Y-115615347D01*
X121405275Y-115766848D01*
X121335547Y-115935187D01*
X121300000Y-116113895D01*
X116130200Y-116113895D01*
X115483716Y-115467412D01*
X115450453Y-115300187D01*
X115380725Y-115131848D01*
X115279495Y-114980347D01*
X115150653Y-114851505D01*
X114999152Y-114750275D01*
X114830813Y-114680547D01*
X114652105Y-114645000D01*
X114469895Y-114645000D01*
X114291187Y-114680547D01*
X114122848Y-114750275D01*
X113971347Y-114851505D01*
X113842505Y-114980347D01*
X113741275Y-115131848D01*
X113671547Y-115300187D01*
X113636000Y-115478895D01*
X111556544Y-115478895D01*
X111550725Y-115464848D01*
X111456000Y-115323082D01*
X111456000Y-114642148D01*
X111462495Y-114635653D01*
X111563725Y-114484152D01*
X111633453Y-114315813D01*
X111669000Y-114137105D01*
X111669000Y-113954895D01*
X111633453Y-113776187D01*
X111563725Y-113607848D01*
X111462495Y-113456347D01*
X111333653Y-113327505D01*
X111182152Y-113226275D01*
X111013813Y-113156547D01*
X110835105Y-113121000D01*
X110652895Y-113121000D01*
X110474187Y-113156547D01*
X110305848Y-113226275D01*
X110154347Y-113327505D01*
X110025505Y-113456347D01*
X109924275Y-113607848D01*
X109854547Y-113776187D01*
X109819000Y-113954895D01*
X109819000Y-114137105D01*
X109854547Y-114315813D01*
X109924275Y-114484152D01*
X110006001Y-114606463D01*
X110006000Y-115323082D01*
X109911275Y-115464848D01*
X109841547Y-115633187D01*
X109806000Y-115811895D01*
X95510006Y-115811895D01*
X95540000Y-115661105D01*
X95540000Y-115478895D01*
X95504453Y-115300187D01*
X95434725Y-115131848D01*
X95333495Y-114980347D01*
X95204653Y-114851505D01*
X95053152Y-114750275D01*
X94884813Y-114680547D01*
X94717589Y-114647284D01*
X91779697Y-111709392D01*
X113713000Y-111709392D01*
X113713000Y-111982608D01*
X113766302Y-112250573D01*
X113870857Y-112502991D01*
X114022647Y-112730161D01*
X114215839Y-112923353D01*
X114443009Y-113075143D01*
X114695427Y-113179698D01*
X114963392Y-113233000D01*
X115236608Y-113233000D01*
X115504573Y-113179698D01*
X115756991Y-113075143D01*
X115984161Y-112923353D01*
X116177353Y-112730161D01*
X116329143Y-112502991D01*
X116433698Y-112250573D01*
X116487000Y-111982608D01*
X116487000Y-111970681D01*
X125952096Y-111970681D01*
X126033614Y-112138227D01*
X126238070Y-112229658D01*
X126456435Y-112279445D01*
X126680318Y-112285674D01*
X126901114Y-112248107D01*
X127110339Y-112168185D01*
X127166386Y-112138227D01*
X127247904Y-111970681D01*
X126600000Y-111322777D01*
X125952096Y-111970681D01*
X116487000Y-111970681D01*
X116487000Y-111709392D01*
X116433698Y-111441427D01*
X116344597Y-111226318D01*
X125460326Y-111226318D01*
X125497893Y-111447114D01*
X125577815Y-111656339D01*
X125607773Y-111712386D01*
X125775319Y-111793904D01*
X126423223Y-111146000D01*
X126776777Y-111146000D01*
X127424681Y-111793904D01*
X127592227Y-111712386D01*
X127683658Y-111507930D01*
X127733445Y-111289565D01*
X127739674Y-111065682D01*
X127702107Y-110844886D01*
X127622185Y-110635661D01*
X127592227Y-110579614D01*
X127424681Y-110498096D01*
X126776777Y-111146000D01*
X126423223Y-111146000D01*
X125775319Y-110498096D01*
X125607773Y-110579614D01*
X125516342Y-110784070D01*
X125466555Y-111002435D01*
X125460326Y-111226318D01*
X116344597Y-111226318D01*
X116329143Y-111189009D01*
X116177353Y-110961839D01*
X115984161Y-110768647D01*
X115756991Y-110616857D01*
X115504573Y-110512302D01*
X115236608Y-110459000D01*
X114963392Y-110459000D01*
X114695427Y-110512302D01*
X114443009Y-110616857D01*
X114215839Y-110768647D01*
X114022647Y-110961839D01*
X113870857Y-111189009D01*
X113766302Y-111441427D01*
X113713000Y-111709392D01*
X91779697Y-111709392D01*
X91727716Y-111657412D01*
X91694453Y-111490187D01*
X91624725Y-111321848D01*
X91523495Y-111170347D01*
X91394653Y-111041505D01*
X91243152Y-110940275D01*
X91074813Y-110870547D01*
X90896105Y-110835000D01*
X90713895Y-110835000D01*
X90535187Y-110870547D01*
X90366848Y-110940275D01*
X90215347Y-111041505D01*
X90086505Y-111170347D01*
X89985275Y-111321848D01*
X89915547Y-111490187D01*
X89880000Y-111668895D01*
X89880000Y-111851105D01*
X89915547Y-112029813D01*
X89985275Y-112198152D01*
X90086505Y-112349653D01*
X90215347Y-112478495D01*
X90366848Y-112579725D01*
X90535187Y-112649453D01*
X90702412Y-112682716D01*
X93692284Y-115672589D01*
X93725547Y-115839813D01*
X93795275Y-116008152D01*
X93896505Y-116159653D01*
X93951852Y-116215000D01*
X88265000Y-116215000D01*
X88143069Y-116227009D01*
X88025823Y-116262575D01*
X87917769Y-116320331D01*
X87823058Y-116398058D01*
X87745331Y-116492769D01*
X87687575Y-116600823D01*
X87652009Y-116718069D01*
X87640000Y-116840000D01*
X87640000Y-133350000D01*
X87652009Y-133471931D01*
X87687575Y-133589177D01*
X87745331Y-133697231D01*
X87823058Y-133791942D01*
X88275000Y-134243884D01*
X88275000Y-140404000D01*
X88146712Y-140404000D01*
X87914681Y-140450154D01*
X87696113Y-140540688D01*
X87499407Y-140672122D01*
X87332122Y-140839407D01*
X87200688Y-141036113D01*
X87110154Y-141254681D01*
X87064000Y-141486712D01*
X82565000Y-141486712D01*
X82565000Y-110487041D01*
X82579269Y-110513736D01*
X82633334Y-110579614D01*
X82669868Y-110624131D01*
X82697524Y-110646828D01*
X83317172Y-111266477D01*
X83339868Y-111294132D01*
X83367523Y-111316828D01*
X83367525Y-111316830D01*
X83414357Y-111355264D01*
X83450263Y-111384731D01*
X83576212Y-111452053D01*
X83712875Y-111493509D01*
X83819393Y-111504000D01*
X83819402Y-111504000D01*
X83854999Y-111507506D01*
X83890596Y-111504000D01*
X85145082Y-111504000D01*
X85286848Y-111598725D01*
X85455187Y-111668453D01*
X85633895Y-111704000D01*
X85816105Y-111704000D01*
X85994813Y-111668453D01*
X86163152Y-111598725D01*
X86314653Y-111497495D01*
X86443495Y-111368653D01*
X86544725Y-111217152D01*
X86614453Y-111048813D01*
X86650000Y-110870105D01*
X86650000Y-110687895D01*
X86614453Y-110509187D01*
X86544725Y-110340848D01*
X86531677Y-110321319D01*
X125952096Y-110321319D01*
X126600000Y-110969223D01*
X127247904Y-110321319D01*
X127166386Y-110153773D01*
X126961930Y-110062342D01*
X126743565Y-110012555D01*
X126519682Y-110006326D01*
X126298886Y-110043893D01*
X126089661Y-110123815D01*
X126033614Y-110153773D01*
X125952096Y-110321319D01*
X86531677Y-110321319D01*
X86443495Y-110189347D01*
X86314653Y-110060505D01*
X86163152Y-109959275D01*
X85994813Y-109889547D01*
X85816105Y-109854000D01*
X85633895Y-109854000D01*
X85455187Y-109889547D01*
X85286848Y-109959275D01*
X85145082Y-110054000D01*
X84155305Y-110054000D01*
X83910000Y-109808696D01*
X83910000Y-108748000D01*
X84038105Y-108748000D01*
X84216813Y-108712453D01*
X84385152Y-108642725D01*
X84536653Y-108541495D01*
X84665495Y-108412653D01*
X84696445Y-108366333D01*
X85067085Y-108366333D01*
X85208851Y-108461058D01*
X85377190Y-108530786D01*
X85555898Y-108566333D01*
X85738108Y-108566333D01*
X85916816Y-108530786D01*
X86085155Y-108461058D01*
X86236656Y-108359828D01*
X86365498Y-108230986D01*
X86372606Y-108220348D01*
X86395895Y-108224980D01*
X86578105Y-108224980D01*
X86756813Y-108189433D01*
X86925152Y-108119705D01*
X87076653Y-108018475D01*
X87205495Y-107889633D01*
X87306725Y-107738132D01*
X87376453Y-107569793D01*
X87412000Y-107391085D01*
X87412000Y-107208875D01*
X87379603Y-107046000D01*
X112046976Y-107046000D01*
X112046976Y-108446000D01*
X112072494Y-108705085D01*
X112148066Y-108954213D01*
X112270788Y-109183811D01*
X112435945Y-109385055D01*
X112637189Y-109550212D01*
X112866787Y-109672934D01*
X113115915Y-109748506D01*
X113375000Y-109774024D01*
X114975000Y-109774024D01*
X115234085Y-109748506D01*
X115483213Y-109672934D01*
X115712811Y-109550212D01*
X115914055Y-109385055D01*
X116079212Y-109183811D01*
X116201934Y-108954213D01*
X116277506Y-108705085D01*
X116303024Y-108446000D01*
X116303024Y-107046000D01*
X124996976Y-107046000D01*
X124996976Y-108446000D01*
X125022494Y-108705085D01*
X125098066Y-108954213D01*
X125220788Y-109183811D01*
X125385945Y-109385055D01*
X125587189Y-109550212D01*
X125816787Y-109672934D01*
X126065915Y-109748506D01*
X126325000Y-109774024D01*
X127925000Y-109774024D01*
X128184085Y-109748506D01*
X128433213Y-109672934D01*
X128662811Y-109550212D01*
X128864055Y-109385055D01*
X129029212Y-109183811D01*
X129151934Y-108954213D01*
X129227506Y-108705085D01*
X129253024Y-108446000D01*
X129253024Y-107046000D01*
X129227506Y-106786915D01*
X129151934Y-106537787D01*
X129029212Y-106308189D01*
X128864055Y-106106945D01*
X128662811Y-105941788D01*
X128433213Y-105819066D01*
X128184085Y-105743494D01*
X127925000Y-105717976D01*
X126325000Y-105717976D01*
X126065915Y-105743494D01*
X125816787Y-105819066D01*
X125587189Y-105941788D01*
X125385945Y-106106945D01*
X125220788Y-106308189D01*
X125098066Y-106537787D01*
X125022494Y-106786915D01*
X124996976Y-107046000D01*
X116303024Y-107046000D01*
X116277506Y-106786915D01*
X116201934Y-106537787D01*
X116079212Y-106308189D01*
X115914055Y-106106945D01*
X115712811Y-105941788D01*
X115483213Y-105819066D01*
X115234085Y-105743494D01*
X114975000Y-105717976D01*
X113375000Y-105717976D01*
X113115915Y-105743494D01*
X112866787Y-105819066D01*
X112637189Y-105941788D01*
X112435945Y-106106945D01*
X112270788Y-106308189D01*
X112148066Y-106537787D01*
X112072494Y-106786915D01*
X112046976Y-107046000D01*
X87379603Y-107046000D01*
X87376453Y-107030167D01*
X87306725Y-106861828D01*
X87205495Y-106710327D01*
X87076653Y-106581485D01*
X86925152Y-106480255D01*
X86756813Y-106410527D01*
X86584136Y-106376180D01*
X86525757Y-106328269D01*
X86399808Y-106260947D01*
X86263145Y-106219491D01*
X86156627Y-106209000D01*
X86156617Y-106209000D01*
X86121020Y-106205494D01*
X86085423Y-106209000D01*
X84526918Y-106209000D01*
X84385152Y-106114275D01*
X84216813Y-106044547D01*
X84038105Y-106009000D01*
X83910000Y-106009000D01*
X83910000Y-105583304D01*
X85390305Y-104103000D01*
X86034082Y-104103000D01*
X86175848Y-104197725D01*
X86344187Y-104267453D01*
X86522895Y-104303000D01*
X86705105Y-104303000D01*
X86883813Y-104267453D01*
X87052152Y-104197725D01*
X87203653Y-104096495D01*
X87332495Y-103967653D01*
X87433725Y-103816152D01*
X87461586Y-103748889D01*
X89798526Y-106085829D01*
X89798532Y-106085834D01*
X89991170Y-106278472D01*
X90013870Y-106306132D01*
X90124265Y-106396731D01*
X90250214Y-106464053D01*
X90386877Y-106505509D01*
X90493395Y-106516000D01*
X90493404Y-106516000D01*
X90529001Y-106519506D01*
X90564598Y-106516000D01*
X91598092Y-106516000D01*
X91739858Y-106610725D01*
X91908197Y-106680453D01*
X92086905Y-106716000D01*
X92269115Y-106716000D01*
X92447823Y-106680453D01*
X92616162Y-106610725D01*
X92767663Y-106509495D01*
X92896505Y-106380653D01*
X92997735Y-106229152D01*
X93067463Y-106060813D01*
X93103010Y-105882105D01*
X93103010Y-105699895D01*
X93067463Y-105521187D01*
X92997735Y-105352848D01*
X92896505Y-105201347D01*
X92767663Y-105072505D01*
X92616162Y-104971275D01*
X92447823Y-104901547D01*
X92269115Y-104866000D01*
X92086905Y-104866000D01*
X91908197Y-104901547D01*
X91739858Y-104971275D01*
X91598092Y-105066000D01*
X90829306Y-105066000D01*
X90823836Y-105060530D01*
X90823831Y-105060524D01*
X87402307Y-101639000D01*
X98851976Y-101639000D01*
X98851976Y-103339000D01*
X98864043Y-103461521D01*
X98899781Y-103579334D01*
X98957817Y-103687911D01*
X99035920Y-103783080D01*
X99131089Y-103861183D01*
X99239666Y-103919219D01*
X99357479Y-103954957D01*
X99480000Y-103967024D01*
X101180000Y-103967024D01*
X101302521Y-103954957D01*
X101420334Y-103919219D01*
X101528911Y-103861183D01*
X101624080Y-103783080D01*
X101702183Y-103687911D01*
X101760219Y-103579334D01*
X101786787Y-103491752D01*
X101929742Y-103634707D01*
X102171325Y-103796128D01*
X102439758Y-103907317D01*
X102724725Y-103964000D01*
X103015275Y-103964000D01*
X103300242Y-103907317D01*
X103568675Y-103796128D01*
X103810258Y-103634707D01*
X104015707Y-103429258D01*
X104140000Y-103243241D01*
X104264293Y-103429258D01*
X104469742Y-103634707D01*
X104711325Y-103796128D01*
X104979758Y-103907317D01*
X105264725Y-103964000D01*
X105555275Y-103964000D01*
X105840242Y-103907317D01*
X106108675Y-103796128D01*
X106350258Y-103634707D01*
X106555707Y-103429258D01*
X106680000Y-103243241D01*
X106804293Y-103429258D01*
X107009742Y-103634707D01*
X107251325Y-103796128D01*
X107519758Y-103907317D01*
X107804725Y-103964000D01*
X108095275Y-103964000D01*
X108380242Y-103907317D01*
X108648675Y-103796128D01*
X108890258Y-103634707D01*
X109095707Y-103429258D01*
X109220000Y-103243241D01*
X109344293Y-103429258D01*
X109549742Y-103634707D01*
X109791325Y-103796128D01*
X110059758Y-103907317D01*
X110344725Y-103964000D01*
X110635275Y-103964000D01*
X110920242Y-103907317D01*
X111188675Y-103796128D01*
X111430258Y-103634707D01*
X111635707Y-103429258D01*
X111658062Y-103395801D01*
X113575000Y-103395801D01*
X113575000Y-103696199D01*
X113633605Y-103990826D01*
X113748562Y-104268358D01*
X113915455Y-104518131D01*
X114127869Y-104730545D01*
X114377642Y-104897438D01*
X114655174Y-105012395D01*
X114949801Y-105071000D01*
X115250199Y-105071000D01*
X115544826Y-105012395D01*
X115822358Y-104897438D01*
X116072131Y-104730545D01*
X116284545Y-104518131D01*
X116451438Y-104268358D01*
X116566395Y-103990826D01*
X116625000Y-103696199D01*
X116625000Y-103395801D01*
X124675000Y-103395801D01*
X124675000Y-103696199D01*
X124733605Y-103990826D01*
X124848562Y-104268358D01*
X125015455Y-104518131D01*
X125227869Y-104730545D01*
X125477642Y-104897438D01*
X125755174Y-105012395D01*
X126049801Y-105071000D01*
X126350199Y-105071000D01*
X126644826Y-105012395D01*
X126922358Y-104897438D01*
X127172131Y-104730545D01*
X127384545Y-104518131D01*
X127551438Y-104268358D01*
X127585256Y-104186712D01*
X128174000Y-104186712D01*
X128174000Y-104423288D01*
X128220154Y-104655319D01*
X128310688Y-104873887D01*
X128442122Y-105070593D01*
X128609407Y-105237878D01*
X128806113Y-105369312D01*
X129024681Y-105459846D01*
X129256712Y-105506000D01*
X129493288Y-105506000D01*
X129725319Y-105459846D01*
X129943887Y-105369312D01*
X130140593Y-105237878D01*
X130307878Y-105070593D01*
X130439312Y-104873887D01*
X130529846Y-104655319D01*
X130576000Y-104423288D01*
X130576000Y-104186712D01*
X130529846Y-103954681D01*
X130439312Y-103736113D01*
X130307878Y-103539407D01*
X130140593Y-103372122D01*
X129943887Y-103240688D01*
X129725319Y-103150154D01*
X129493288Y-103104000D01*
X129256712Y-103104000D01*
X129024681Y-103150154D01*
X128806113Y-103240688D01*
X128609407Y-103372122D01*
X128442122Y-103539407D01*
X128310688Y-103736113D01*
X128220154Y-103954681D01*
X128174000Y-104186712D01*
X127585256Y-104186712D01*
X127666395Y-103990826D01*
X127725000Y-103696199D01*
X127725000Y-103395801D01*
X127666395Y-103101174D01*
X127551438Y-102823642D01*
X127384545Y-102573869D01*
X127172131Y-102361455D01*
X126922358Y-102194562D01*
X126644826Y-102079605D01*
X126350199Y-102021000D01*
X126049801Y-102021000D01*
X125755174Y-102079605D01*
X125477642Y-102194562D01*
X125227869Y-102361455D01*
X125015455Y-102573869D01*
X124848562Y-102823642D01*
X124733605Y-103101174D01*
X124675000Y-103395801D01*
X116625000Y-103395801D01*
X116566395Y-103101174D01*
X116451438Y-102823642D01*
X116284545Y-102573869D01*
X116072131Y-102361455D01*
X115822358Y-102194562D01*
X115544826Y-102079605D01*
X115250199Y-102021000D01*
X114949801Y-102021000D01*
X114655174Y-102079605D01*
X114377642Y-102194562D01*
X114127869Y-102361455D01*
X113915455Y-102573869D01*
X113748562Y-102823642D01*
X113633605Y-103101174D01*
X113575000Y-103395801D01*
X111658062Y-103395801D01*
X111797128Y-103187675D01*
X111908317Y-102919242D01*
X111965000Y-102634275D01*
X111965000Y-102343725D01*
X111908317Y-102058758D01*
X111797128Y-101790325D01*
X111783117Y-101769355D01*
X119903422Y-101769355D01*
X120001668Y-101951016D01*
X120229704Y-102056266D01*
X120473890Y-102115007D01*
X120724844Y-102124981D01*
X120972923Y-102085804D01*
X121208592Y-101998983D01*
X121298332Y-101951016D01*
X121396578Y-101769355D01*
X120650000Y-101022777D01*
X119903422Y-101769355D01*
X111783117Y-101769355D01*
X111635707Y-101548742D01*
X111430258Y-101343293D01*
X111188675Y-101181872D01*
X110945531Y-101081158D01*
X111105156Y-101008351D01*
X111226628Y-100920844D01*
X119371019Y-100920844D01*
X119410196Y-101168923D01*
X119497017Y-101404592D01*
X119544984Y-101494332D01*
X119726645Y-101592578D01*
X120473223Y-100846000D01*
X120826777Y-100846000D01*
X121573355Y-101592578D01*
X121755016Y-101494332D01*
X121860266Y-101266296D01*
X121919007Y-101022110D01*
X121928981Y-100771156D01*
X121889804Y-100523077D01*
X121816870Y-100325102D01*
X127015000Y-100325102D01*
X127015000Y-100664898D01*
X127081290Y-100998164D01*
X127211324Y-101312094D01*
X127400105Y-101594624D01*
X127640376Y-101834895D01*
X127922906Y-102023676D01*
X128236836Y-102153710D01*
X128570102Y-102220000D01*
X128909898Y-102220000D01*
X129243164Y-102153710D01*
X129557094Y-102023676D01*
X129839624Y-101834895D01*
X130079895Y-101594624D01*
X130268676Y-101312094D01*
X130398710Y-100998164D01*
X130465000Y-100664898D01*
X130465000Y-100325102D01*
X130398710Y-99991836D01*
X130268676Y-99677906D01*
X130079895Y-99395376D01*
X129839624Y-99155105D01*
X129557094Y-98966324D01*
X129243164Y-98836290D01*
X128909898Y-98770000D01*
X128570102Y-98770000D01*
X128236836Y-98836290D01*
X127922906Y-98966324D01*
X127640376Y-99155105D01*
X127400105Y-99395376D01*
X127211324Y-99677906D01*
X127081290Y-99991836D01*
X127015000Y-100325102D01*
X121816870Y-100325102D01*
X121802983Y-100287408D01*
X121755016Y-100197668D01*
X121573355Y-100099422D01*
X120826777Y-100846000D01*
X120473223Y-100846000D01*
X119726645Y-100099422D01*
X119544984Y-100197668D01*
X119439734Y-100425704D01*
X119380993Y-100669890D01*
X119371019Y-100920844D01*
X111226628Y-100920844D01*
X111300005Y-100867985D01*
X111463726Y-100692303D01*
X111590027Y-100488056D01*
X111674055Y-100263094D01*
X111614862Y-100074000D01*
X110615000Y-100074000D01*
X110615000Y-100094000D01*
X110365000Y-100094000D01*
X110365000Y-100074000D01*
X109365138Y-100074000D01*
X109305945Y-100263094D01*
X109389973Y-100488056D01*
X109516274Y-100692303D01*
X109679995Y-100867985D01*
X109874844Y-101008351D01*
X110034469Y-101081158D01*
X109791325Y-101181872D01*
X109549742Y-101343293D01*
X109344293Y-101548742D01*
X109220000Y-101734759D01*
X109095707Y-101548742D01*
X108890258Y-101343293D01*
X108648675Y-101181872D01*
X108405531Y-101081158D01*
X108565156Y-101008351D01*
X108760005Y-100867985D01*
X108923726Y-100692303D01*
X109050027Y-100488056D01*
X109134055Y-100263094D01*
X109074862Y-100074000D01*
X108075000Y-100074000D01*
X108075000Y-100094000D01*
X107825000Y-100094000D01*
X107825000Y-100074000D01*
X106825138Y-100074000D01*
X106765945Y-100263094D01*
X106849973Y-100488056D01*
X106976274Y-100692303D01*
X107139995Y-100867985D01*
X107334844Y-101008351D01*
X107494469Y-101081158D01*
X107251325Y-101181872D01*
X107009742Y-101343293D01*
X106804293Y-101548742D01*
X106680000Y-101734759D01*
X106555707Y-101548742D01*
X106350258Y-101343293D01*
X106108675Y-101181872D01*
X105865531Y-101081158D01*
X106025156Y-101008351D01*
X106220005Y-100867985D01*
X106383726Y-100692303D01*
X106510027Y-100488056D01*
X106594055Y-100263094D01*
X106534862Y-100074000D01*
X105535000Y-100074000D01*
X105535000Y-100094000D01*
X105285000Y-100094000D01*
X105285000Y-100074000D01*
X104285138Y-100074000D01*
X104225945Y-100263094D01*
X104309973Y-100488056D01*
X104436274Y-100692303D01*
X104599995Y-100867985D01*
X104794844Y-101008351D01*
X104954469Y-101081158D01*
X104711325Y-101181872D01*
X104469742Y-101343293D01*
X104264293Y-101548742D01*
X104140000Y-101734759D01*
X104015707Y-101548742D01*
X103810258Y-101343293D01*
X103568675Y-101181872D01*
X103325531Y-101081158D01*
X103485156Y-101008351D01*
X103680005Y-100867985D01*
X103843726Y-100692303D01*
X103970027Y-100488056D01*
X104054055Y-100263094D01*
X103994862Y-100074000D01*
X102995000Y-100074000D01*
X102995000Y-100094000D01*
X102745000Y-100094000D01*
X102745000Y-100074000D01*
X101745138Y-100074000D01*
X101685945Y-100263094D01*
X101769973Y-100488056D01*
X101896274Y-100692303D01*
X102059995Y-100867985D01*
X102254844Y-101008351D01*
X102414469Y-101081158D01*
X102171325Y-101181872D01*
X101929742Y-101343293D01*
X101786787Y-101486248D01*
X101760219Y-101398666D01*
X101702183Y-101290089D01*
X101624080Y-101194920D01*
X101528911Y-101116817D01*
X101420334Y-101058781D01*
X101302521Y-101023043D01*
X101180000Y-101010976D01*
X100939401Y-101010976D01*
X100945156Y-101008351D01*
X101140005Y-100867985D01*
X101303726Y-100692303D01*
X101430027Y-100488056D01*
X101514055Y-100263094D01*
X101454862Y-100074000D01*
X100455000Y-100074000D01*
X100455000Y-100094000D01*
X100205000Y-100094000D01*
X100205000Y-100074000D01*
X99205138Y-100074000D01*
X99145945Y-100263094D01*
X99229973Y-100488056D01*
X99356274Y-100692303D01*
X99519995Y-100867985D01*
X99714844Y-101008351D01*
X99720599Y-101010976D01*
X99480000Y-101010976D01*
X99357479Y-101023043D01*
X99239666Y-101058781D01*
X99131089Y-101116817D01*
X99035920Y-101194920D01*
X98957817Y-101290089D01*
X98899781Y-101398666D01*
X98864043Y-101516479D01*
X98851976Y-101639000D01*
X87402307Y-101639000D01*
X87187306Y-101424000D01*
X87267275Y-101424000D01*
X87552242Y-101367317D01*
X87820675Y-101256128D01*
X88062258Y-101094707D01*
X88267707Y-100889258D01*
X88392000Y-100703241D01*
X88516293Y-100889258D01*
X88721742Y-101094707D01*
X88963325Y-101256128D01*
X89231758Y-101367317D01*
X89516725Y-101424000D01*
X89807275Y-101424000D01*
X90092242Y-101367317D01*
X90360675Y-101256128D01*
X90602258Y-101094707D01*
X90807707Y-100889258D01*
X90932000Y-100703241D01*
X91056293Y-100889258D01*
X91261742Y-101094707D01*
X91503325Y-101256128D01*
X91771758Y-101367317D01*
X92056725Y-101424000D01*
X92347275Y-101424000D01*
X92632242Y-101367317D01*
X92900675Y-101256128D01*
X93142258Y-101094707D01*
X93347707Y-100889258D01*
X93509128Y-100647675D01*
X93610332Y-100403347D01*
X93641973Y-100488056D01*
X93768274Y-100692303D01*
X93931995Y-100867985D01*
X94126844Y-101008351D01*
X94345333Y-101108007D01*
X94427907Y-101133049D01*
X94617000Y-101073323D01*
X94617000Y-100074000D01*
X94867000Y-100074000D01*
X94867000Y-101073323D01*
X95056093Y-101133049D01*
X95138667Y-101108007D01*
X95357156Y-101008351D01*
X95552005Y-100867985D01*
X95715726Y-100692303D01*
X95842027Y-100488056D01*
X95926055Y-100263094D01*
X95866862Y-100074000D01*
X94867000Y-100074000D01*
X94617000Y-100074000D01*
X94597000Y-100074000D01*
X94597000Y-99922645D01*
X119903422Y-99922645D01*
X120650000Y-100669223D01*
X121396578Y-99922645D01*
X121298332Y-99740984D01*
X121070296Y-99635734D01*
X120826110Y-99576993D01*
X120575156Y-99567019D01*
X120327077Y-99606196D01*
X120091408Y-99693017D01*
X120001668Y-99740984D01*
X119903422Y-99922645D01*
X94597000Y-99922645D01*
X94597000Y-99824000D01*
X94617000Y-99824000D01*
X94617000Y-98824677D01*
X94867000Y-98824677D01*
X94867000Y-99824000D01*
X95866862Y-99824000D01*
X95926055Y-99634906D01*
X99145945Y-99634906D01*
X99205138Y-99824000D01*
X100205000Y-99824000D01*
X100205000Y-98824677D01*
X100455000Y-98824677D01*
X100455000Y-99824000D01*
X101454862Y-99824000D01*
X101514055Y-99634906D01*
X101685945Y-99634906D01*
X101745138Y-99824000D01*
X102745000Y-99824000D01*
X102745000Y-98824677D01*
X102995000Y-98824677D01*
X102995000Y-99824000D01*
X103994862Y-99824000D01*
X104054055Y-99634906D01*
X104225945Y-99634906D01*
X104285138Y-99824000D01*
X105285000Y-99824000D01*
X105285000Y-98824677D01*
X105535000Y-98824677D01*
X105535000Y-99824000D01*
X106534862Y-99824000D01*
X106594055Y-99634906D01*
X106765945Y-99634906D01*
X106825138Y-99824000D01*
X107825000Y-99824000D01*
X107825000Y-98824677D01*
X108075000Y-98824677D01*
X108075000Y-99824000D01*
X109074862Y-99824000D01*
X109134055Y-99634906D01*
X109305945Y-99634906D01*
X109365138Y-99824000D01*
X110365000Y-99824000D01*
X110365000Y-98824677D01*
X110615000Y-98824677D01*
X110615000Y-99824000D01*
X111614862Y-99824000D01*
X111674055Y-99634906D01*
X111590027Y-99409944D01*
X111463726Y-99205697D01*
X111300005Y-99030015D01*
X111105156Y-98889649D01*
X110886667Y-98789993D01*
X110804093Y-98764951D01*
X110615000Y-98824677D01*
X110365000Y-98824677D01*
X110175907Y-98764951D01*
X110093333Y-98789993D01*
X109874844Y-98889649D01*
X109679995Y-99030015D01*
X109516274Y-99205697D01*
X109389973Y-99409944D01*
X109305945Y-99634906D01*
X109134055Y-99634906D01*
X109050027Y-99409944D01*
X108923726Y-99205697D01*
X108760005Y-99030015D01*
X108565156Y-98889649D01*
X108346667Y-98789993D01*
X108264093Y-98764951D01*
X108075000Y-98824677D01*
X107825000Y-98824677D01*
X107635907Y-98764951D01*
X107553333Y-98789993D01*
X107334844Y-98889649D01*
X107139995Y-99030015D01*
X106976274Y-99205697D01*
X106849973Y-99409944D01*
X106765945Y-99634906D01*
X106594055Y-99634906D01*
X106510027Y-99409944D01*
X106383726Y-99205697D01*
X106220005Y-99030015D01*
X106025156Y-98889649D01*
X105806667Y-98789993D01*
X105724093Y-98764951D01*
X105535000Y-98824677D01*
X105285000Y-98824677D01*
X105095907Y-98764951D01*
X105013333Y-98789993D01*
X104794844Y-98889649D01*
X104599995Y-99030015D01*
X104436274Y-99205697D01*
X104309973Y-99409944D01*
X104225945Y-99634906D01*
X104054055Y-99634906D01*
X103970027Y-99409944D01*
X103843726Y-99205697D01*
X103680005Y-99030015D01*
X103485156Y-98889649D01*
X103266667Y-98789993D01*
X103184093Y-98764951D01*
X102995000Y-98824677D01*
X102745000Y-98824677D01*
X102555907Y-98764951D01*
X102473333Y-98789993D01*
X102254844Y-98889649D01*
X102059995Y-99030015D01*
X101896274Y-99205697D01*
X101769973Y-99409944D01*
X101685945Y-99634906D01*
X101514055Y-99634906D01*
X101430027Y-99409944D01*
X101303726Y-99205697D01*
X101140005Y-99030015D01*
X100945156Y-98889649D01*
X100726667Y-98789993D01*
X100644093Y-98764951D01*
X100455000Y-98824677D01*
X100205000Y-98824677D01*
X100015907Y-98764951D01*
X99933333Y-98789993D01*
X99714844Y-98889649D01*
X99519995Y-99030015D01*
X99356274Y-99205697D01*
X99229973Y-99409944D01*
X99145945Y-99634906D01*
X95926055Y-99634906D01*
X95842027Y-99409944D01*
X95715726Y-99205697D01*
X95552005Y-99030015D01*
X95357156Y-98889649D01*
X95138667Y-98789993D01*
X95056093Y-98764951D01*
X94867000Y-98824677D01*
X94617000Y-98824677D01*
X94427907Y-98764951D01*
X94345333Y-98789993D01*
X94126844Y-98889649D01*
X93931995Y-99030015D01*
X93768274Y-99205697D01*
X93641973Y-99409944D01*
X93610332Y-99494653D01*
X93509128Y-99250325D01*
X93347707Y-99008742D01*
X93142258Y-98803293D01*
X92900675Y-98641872D01*
X92632242Y-98530683D01*
X92347275Y-98474000D01*
X92056725Y-98474000D01*
X91771758Y-98530683D01*
X91503325Y-98641872D01*
X91261742Y-98803293D01*
X91056293Y-99008742D01*
X90932000Y-99194759D01*
X90807707Y-99008742D01*
X90602258Y-98803293D01*
X90360675Y-98641872D01*
X90092242Y-98530683D01*
X89807275Y-98474000D01*
X89516725Y-98474000D01*
X89231758Y-98530683D01*
X88963325Y-98641872D01*
X88721742Y-98803293D01*
X88516293Y-99008742D01*
X88392000Y-99194759D01*
X88267707Y-99008742D01*
X88062258Y-98803293D01*
X87820675Y-98641872D01*
X87552242Y-98530683D01*
X87267275Y-98474000D01*
X86976725Y-98474000D01*
X86691758Y-98530683D01*
X86423325Y-98641872D01*
X86181742Y-98803293D01*
X86038787Y-98946248D01*
X86012219Y-98858666D01*
X85954183Y-98750089D01*
X85876080Y-98654920D01*
X85780911Y-98576817D01*
X85672334Y-98518781D01*
X85554521Y-98483043D01*
X85432000Y-98470976D01*
X83732000Y-98470976D01*
X83609479Y-98483043D01*
X83491666Y-98518781D01*
X83383089Y-98576817D01*
X83287920Y-98654920D01*
X83209817Y-98750089D01*
X83151781Y-98858666D01*
X83116043Y-98976479D01*
X83103976Y-99099000D01*
X83103976Y-100799000D01*
X83116043Y-100921521D01*
X83151781Y-101039334D01*
X83209817Y-101147911D01*
X83287920Y-101243080D01*
X83383089Y-101321183D01*
X83491666Y-101379219D01*
X83609479Y-101414957D01*
X83732000Y-101427024D01*
X85139722Y-101427024D01*
X86243111Y-102530414D01*
X86175848Y-102558275D01*
X86034082Y-102653000D01*
X85125597Y-102653000D01*
X85090000Y-102649494D01*
X85054403Y-102653000D01*
X85054393Y-102653000D01*
X84947875Y-102663491D01*
X84811212Y-102704947D01*
X84685263Y-102772269D01*
X84602525Y-102840170D01*
X84602523Y-102840172D01*
X84574868Y-102862868D01*
X84552172Y-102890523D01*
X82697523Y-104745173D01*
X82669869Y-104767868D01*
X82647173Y-104795523D01*
X82647170Y-104795526D01*
X82579269Y-104878264D01*
X82565000Y-104904959D01*
X82565000Y-99851792D01*
X82603291Y-99461273D01*
X82707471Y-99116209D01*
X82876691Y-98797951D01*
X83104507Y-98518622D01*
X83382237Y-98288864D01*
X83699306Y-98117426D01*
X84043633Y-98010839D01*
X84432191Y-97970000D01*
X129383208Y-97970000D01*
X129773727Y-98008291D01*
%TA.AperFunction,Conductor*%
D18*
G36*
X129773727Y-98008291D02*
G01*
X130118791Y-98112471D01*
X130437049Y-98281691D01*
X130716378Y-98509507D01*
X130946136Y-98787237D01*
X131117574Y-99104306D01*
X131224161Y-99448633D01*
X131265001Y-99837200D01*
X131265000Y-144788208D01*
X131226709Y-145178728D01*
X131122528Y-145523793D01*
X130953308Y-145842049D01*
X130725494Y-146121378D01*
X130447763Y-146351136D01*
X130130698Y-146522573D01*
X129786366Y-146629161D01*
X129397809Y-146670000D01*
X84446792Y-146670000D01*
X84056272Y-146631709D01*
X83711207Y-146527528D01*
X83392951Y-146358308D01*
X83113622Y-146130494D01*
X82883864Y-145852763D01*
X82712427Y-145535698D01*
X82605839Y-145191366D01*
X82565000Y-144802809D01*
X82565000Y-143975102D01*
X83365000Y-143975102D01*
X83365000Y-144314898D01*
X83431290Y-144648164D01*
X83561324Y-144962094D01*
X83750105Y-145244624D01*
X83990376Y-145484895D01*
X84272906Y-145673676D01*
X84586836Y-145803710D01*
X84920102Y-145870000D01*
X85259898Y-145870000D01*
X85593164Y-145803710D01*
X85907094Y-145673676D01*
X86189624Y-145484895D01*
X86429895Y-145244624D01*
X86618676Y-144962094D01*
X86748710Y-144648164D01*
X86815000Y-144314898D01*
X86815000Y-143975102D01*
X127015000Y-143975102D01*
X127015000Y-144314898D01*
X127081290Y-144648164D01*
X127211324Y-144962094D01*
X127400105Y-145244624D01*
X127640376Y-145484895D01*
X127922906Y-145673676D01*
X128236836Y-145803710D01*
X128570102Y-145870000D01*
X128909898Y-145870000D01*
X129243164Y-145803710D01*
X129557094Y-145673676D01*
X129839624Y-145484895D01*
X130079895Y-145244624D01*
X130268676Y-144962094D01*
X130398710Y-144648164D01*
X130465000Y-144314898D01*
X130465000Y-143975102D01*
X130398710Y-143641836D01*
X130268676Y-143327906D01*
X130079895Y-143045376D01*
X129839624Y-142805105D01*
X129557094Y-142616324D01*
X129243164Y-142486290D01*
X128909898Y-142420000D01*
X128570102Y-142420000D01*
X128236836Y-142486290D01*
X127922906Y-142616324D01*
X127640376Y-142805105D01*
X127400105Y-143045376D01*
X127211324Y-143327906D01*
X127081290Y-143641836D01*
X127015000Y-143975102D01*
X86815000Y-143975102D01*
X86748710Y-143641836D01*
X86618676Y-143327906D01*
X86429895Y-143045376D01*
X86189624Y-142805105D01*
X85907094Y-142616324D01*
X85593164Y-142486290D01*
X85259898Y-142420000D01*
X84920102Y-142420000D01*
X84586836Y-142486290D01*
X84272906Y-142616324D01*
X83990376Y-142805105D01*
X83750105Y-143045376D01*
X83561324Y-143327906D01*
X83431290Y-143641836D01*
X83365000Y-143975102D01*
X82565000Y-143975102D01*
X82565000Y-141486712D01*
X87064000Y-141486712D01*
X87064000Y-141723288D01*
X87110154Y-141955319D01*
X87200688Y-142173887D01*
X87332122Y-142370593D01*
X87499407Y-142537878D01*
X87696113Y-142669312D01*
X87914681Y-142759846D01*
X88146712Y-142806000D01*
X88275000Y-142806000D01*
X88275000Y-142875000D01*
X88287009Y-142996931D01*
X88322575Y-143114177D01*
X88380331Y-143222231D01*
X88458058Y-143316942D01*
X88552769Y-143394669D01*
X88660823Y-143452425D01*
X88778069Y-143487991D01*
X88900000Y-143500000D01*
X101600000Y-143500000D01*
X101721931Y-143487991D01*
X101839177Y-143452425D01*
X101947231Y-143394669D01*
X102041942Y-143316942D01*
X102119669Y-143222231D01*
X102177425Y-143114177D01*
X102212991Y-142996931D01*
X102225000Y-142875000D01*
X102225000Y-133350000D01*
X102872000Y-133350000D01*
X102872000Y-142875000D01*
X102884163Y-142998492D01*
X102920184Y-143117239D01*
X102978680Y-143226676D01*
X103057401Y-143322599D01*
X103153324Y-143401320D01*
X103262761Y-143459816D01*
X103381508Y-143495837D01*
X103505000Y-143508000D01*
X126365000Y-143508000D01*
X126488492Y-143495837D01*
X126607239Y-143459816D01*
X126716676Y-143401320D01*
X126812599Y-143322599D01*
X126891320Y-143226676D01*
X126949816Y-143117239D01*
X126985837Y-142998492D01*
X126998000Y-142875000D01*
X126998000Y-133350000D01*
X126988184Y-133250342D01*
X127000000Y-133251506D01*
X127035597Y-133248000D01*
X127035607Y-133248000D01*
X127142125Y-133237509D01*
X127278788Y-133196053D01*
X127404737Y-133128731D01*
X127515132Y-133038132D01*
X127537832Y-133010472D01*
X128335977Y-132212328D01*
X128363632Y-132189632D01*
X128422203Y-132118264D01*
X128454231Y-132079237D01*
X128521553Y-131953288D01*
X128532479Y-131917269D01*
X128563009Y-131816625D01*
X128573500Y-131710107D01*
X128573500Y-131710098D01*
X128577006Y-131674501D01*
X128573500Y-131638904D01*
X128573500Y-131427918D01*
X128668225Y-131286152D01*
X128737953Y-131117813D01*
X128773500Y-130939105D01*
X128773500Y-130756895D01*
X128737953Y-130578187D01*
X128668225Y-130409848D01*
X128566995Y-130258347D01*
X128438153Y-130129505D01*
X128286652Y-130028275D01*
X128118313Y-129958547D01*
X127939605Y-129923000D01*
X127757395Y-129923000D01*
X127578687Y-129958547D01*
X127410348Y-130028275D01*
X127258847Y-130129505D01*
X127130005Y-130258347D01*
X127028775Y-130409848D01*
X126959047Y-130578187D01*
X126923500Y-130756895D01*
X126923500Y-130939105D01*
X126959047Y-131117813D01*
X127028775Y-131286152D01*
X127101982Y-131395713D01*
X126699696Y-131798000D01*
X114801016Y-131798000D01*
X114746812Y-131775548D01*
X114568104Y-131740001D01*
X114385894Y-131740001D01*
X114207186Y-131775548D01*
X114038847Y-131845276D01*
X113887346Y-131946506D01*
X113758504Y-132075348D01*
X113657274Y-132226849D01*
X113587546Y-132395188D01*
X113551999Y-132573896D01*
X113551999Y-132717000D01*
X103505000Y-132717000D01*
X103381508Y-132729163D01*
X103262761Y-132765184D01*
X103153324Y-132823680D01*
X103057401Y-132902401D01*
X102978680Y-132998324D01*
X102920184Y-133107761D01*
X102884163Y-133226508D01*
X102872000Y-133350000D01*
X102225000Y-133350000D01*
X102225000Y-132715000D01*
X102212991Y-132593069D01*
X102177425Y-132475823D01*
X102119669Y-132367769D01*
X102041942Y-132273058D01*
X99050000Y-129281116D01*
X99050000Y-126724774D01*
X103322003Y-126724774D01*
X103432342Y-126916670D01*
X103677448Y-127031926D01*
X103940329Y-127097149D01*
X104210883Y-127109834D01*
X104478714Y-127069492D01*
X104733527Y-126977674D01*
X104847658Y-126916670D01*
X104957997Y-126724774D01*
X104140000Y-125906777D01*
X103322003Y-126724774D01*
X99050000Y-126724774D01*
X99050000Y-125800883D01*
X102760166Y-125800883D01*
X102800508Y-126068714D01*
X102892326Y-126323527D01*
X102953330Y-126437658D01*
X103145226Y-126547997D01*
X103963223Y-125730000D01*
X104316777Y-125730000D01*
X105134774Y-126547997D01*
X105326670Y-126437658D01*
X105441926Y-126192552D01*
X105507149Y-125929671D01*
X105519834Y-125659117D01*
X105479492Y-125391286D01*
X105387674Y-125136473D01*
X105326670Y-125022342D01*
X105134774Y-124912003D01*
X104316777Y-125730000D01*
X103963223Y-125730000D01*
X103145226Y-124912003D01*
X102953330Y-125022342D01*
X102838074Y-125267448D01*
X102772851Y-125530329D01*
X102760166Y-125800883D01*
X99050000Y-125800883D01*
X99050000Y-124735226D01*
X103322003Y-124735226D01*
X104140000Y-125553223D01*
X104957997Y-124735226D01*
X104847658Y-124543330D01*
X104602552Y-124428074D01*
X104339671Y-124362851D01*
X104069117Y-124350166D01*
X103801286Y-124390508D01*
X103546473Y-124482326D01*
X103432342Y-124543330D01*
X103322003Y-124735226D01*
X99050000Y-124735226D01*
X99050000Y-123990000D01*
X110365000Y-123990000D01*
X110365000Y-124625000D01*
X110367402Y-124649386D01*
X110374515Y-124672835D01*
X110386066Y-124694446D01*
X110401612Y-124713388D01*
X110420554Y-124728934D01*
X110442165Y-124740485D01*
X110465614Y-124747598D01*
X110490000Y-124750000D01*
X116788224Y-124750000D01*
X119761612Y-127723388D01*
X119780554Y-127738934D01*
X119802165Y-127750485D01*
X119825614Y-127757598D01*
X119850000Y-127760000D01*
X127343000Y-127760000D01*
X127371042Y-127756814D01*
X127394268Y-127749003D01*
X127415524Y-127736810D01*
X127433992Y-127720705D01*
X127448964Y-127701307D01*
X127459864Y-127679360D01*
X127466273Y-127655709D01*
X127467944Y-127631262D01*
X127448944Y-126996262D01*
X127446598Y-126975614D01*
X127439485Y-126952165D01*
X127427934Y-126930554D01*
X127412388Y-126911612D01*
X127393446Y-126896066D01*
X127371835Y-126884515D01*
X127348386Y-126877402D01*
X127324000Y-126875000D01*
X119901776Y-126875000D01*
X116928388Y-123901612D01*
X116909446Y-123886066D01*
X116887835Y-123874515D01*
X116864386Y-123867402D01*
X116840000Y-123865000D01*
X110490000Y-123865000D01*
X110465614Y-123867402D01*
X110442165Y-123874515D01*
X110420554Y-123886066D01*
X110401612Y-123901612D01*
X110386066Y-123920554D01*
X110374515Y-123942165D01*
X110367402Y-123965614D01*
X110365000Y-123990000D01*
X99050000Y-123990000D01*
X99050000Y-121644774D01*
X103322003Y-121644774D01*
X103432342Y-121836670D01*
X103677448Y-121951926D01*
X103940329Y-122017149D01*
X104210883Y-122029834D01*
X104478714Y-121989492D01*
X104733527Y-121897674D01*
X104847658Y-121836670D01*
X104957997Y-121644774D01*
X104140000Y-120826777D01*
X103322003Y-121644774D01*
X99050000Y-121644774D01*
X99050000Y-120720883D01*
X102760166Y-120720883D01*
X102800508Y-120988714D01*
X102892326Y-121243527D01*
X102953330Y-121357658D01*
X103145226Y-121467997D01*
X103963223Y-120650000D01*
X104316777Y-120650000D01*
X105134774Y-121467997D01*
X105326670Y-121357658D01*
X105441926Y-121112552D01*
X105507149Y-120849671D01*
X105519834Y-120579117D01*
X105479492Y-120311286D01*
X105387674Y-120056473D01*
X105326670Y-119942342D01*
X105134774Y-119832003D01*
X104316777Y-120650000D01*
X103963223Y-120650000D01*
X103145226Y-119832003D01*
X102953330Y-119942342D01*
X102838074Y-120187448D01*
X102772851Y-120450329D01*
X102760166Y-120720883D01*
X99050000Y-120720883D01*
X99050000Y-119655226D01*
X103322003Y-119655226D01*
X104140000Y-120473223D01*
X104957997Y-119655226D01*
X104847658Y-119463330D01*
X104602552Y-119348074D01*
X104339671Y-119282851D01*
X104069117Y-119270166D01*
X103801286Y-119310508D01*
X103546473Y-119402326D01*
X103432342Y-119463330D01*
X103322003Y-119655226D01*
X99050000Y-119655226D01*
X99050000Y-116840000D01*
X99037991Y-116718069D01*
X99002425Y-116600823D01*
X98944669Y-116492769D01*
X98866942Y-116398058D01*
X98772231Y-116320331D01*
X98664177Y-116262575D01*
X98546931Y-116227009D01*
X98425000Y-116215000D01*
X95278148Y-116215000D01*
X95333495Y-116159653D01*
X95434725Y-116008152D01*
X95504453Y-115839813D01*
X95510006Y-115811895D01*
X109806000Y-115811895D01*
X109806000Y-115994105D01*
X109841547Y-116172813D01*
X109911275Y-116341152D01*
X110012505Y-116492653D01*
X110141347Y-116621495D01*
X110292848Y-116722725D01*
X110461187Y-116792453D01*
X110639895Y-116828000D01*
X110822105Y-116828000D01*
X111000813Y-116792453D01*
X111169152Y-116722725D01*
X111320653Y-116621495D01*
X111449495Y-116492653D01*
X111550725Y-116341152D01*
X111620453Y-116172813D01*
X111656000Y-115994105D01*
X111656000Y-115811895D01*
X111620453Y-115633187D01*
X111556544Y-115478895D01*
X113636000Y-115478895D01*
X113636000Y-115661105D01*
X113671547Y-115839813D01*
X113741275Y-116008152D01*
X113842505Y-116159653D01*
X113971347Y-116288495D01*
X114122848Y-116389725D01*
X114291187Y-116459453D01*
X114458412Y-116492716D01*
X115562450Y-117596755D01*
X115512275Y-117671848D01*
X115442547Y-117840187D01*
X115407000Y-118018895D01*
X115407000Y-118201105D01*
X115442547Y-118379813D01*
X115512275Y-118548152D01*
X115613505Y-118699653D01*
X115742347Y-118828495D01*
X115893848Y-118929725D01*
X116062187Y-118999453D01*
X116240895Y-119035000D01*
X116423105Y-119035000D01*
X116601813Y-118999453D01*
X116770152Y-118929725D01*
X116921653Y-118828495D01*
X117050495Y-118699653D01*
X117151725Y-118548152D01*
X117221453Y-118379813D01*
X117257000Y-118201105D01*
X117257000Y-118018895D01*
X117221453Y-117840187D01*
X117151725Y-117671848D01*
X117057000Y-117530082D01*
X117057000Y-117376596D01*
X117060506Y-117340999D01*
X117057000Y-117305402D01*
X117057000Y-117305393D01*
X117046509Y-117198875D01*
X117005053Y-117062212D01*
X116937731Y-116936263D01*
X116869830Y-116853525D01*
X116869823Y-116853518D01*
X116847131Y-116825868D01*
X116819482Y-116803177D01*
X116130200Y-116113895D01*
X121300000Y-116113895D01*
X121300000Y-116296105D01*
X121335547Y-116474813D01*
X121405275Y-116643152D01*
X121506505Y-116794653D01*
X121635347Y-116923495D01*
X121786848Y-117024725D01*
X121955187Y-117094453D01*
X122122411Y-117127716D01*
X122465000Y-117470305D01*
X122465001Y-118038082D01*
X122370275Y-118179848D01*
X122300547Y-118348187D01*
X122265000Y-118526895D01*
X122265000Y-118709105D01*
X122300547Y-118887813D01*
X122370275Y-119056152D01*
X122471505Y-119207653D01*
X122600347Y-119336495D01*
X122751848Y-119437725D01*
X122920187Y-119507453D01*
X123098895Y-119543000D01*
X123281105Y-119543000D01*
X123459813Y-119507453D01*
X123628152Y-119437725D01*
X123779653Y-119336495D01*
X123908495Y-119207653D01*
X124009725Y-119056152D01*
X124079453Y-118887813D01*
X124115000Y-118709105D01*
X124115000Y-118526895D01*
X124079453Y-118348187D01*
X124009725Y-118179848D01*
X123915000Y-118038082D01*
X123915000Y-117205596D01*
X123918506Y-117169999D01*
X123915000Y-117134402D01*
X123915000Y-117134393D01*
X123904509Y-117027875D01*
X123863053Y-116891212D01*
X123795731Y-116765263D01*
X123727830Y-116682525D01*
X123727823Y-116682518D01*
X123705131Y-116654868D01*
X123677482Y-116632177D01*
X123147716Y-116102411D01*
X123114453Y-115935187D01*
X123044725Y-115766848D01*
X122943495Y-115615347D01*
X122814653Y-115486505D01*
X122663152Y-115385275D01*
X122494813Y-115315547D01*
X122316105Y-115280000D01*
X122133895Y-115280000D01*
X121955187Y-115315547D01*
X121786848Y-115385275D01*
X121635347Y-115486505D01*
X121506505Y-115615347D01*
X121405275Y-115766848D01*
X121335547Y-115935187D01*
X121300000Y-116113895D01*
X116130200Y-116113895D01*
X115483716Y-115467412D01*
X115450453Y-115300187D01*
X115380725Y-115131848D01*
X115279495Y-114980347D01*
X115150653Y-114851505D01*
X114999152Y-114750275D01*
X114830813Y-114680547D01*
X114652105Y-114645000D01*
X114469895Y-114645000D01*
X114291187Y-114680547D01*
X114122848Y-114750275D01*
X113971347Y-114851505D01*
X113842505Y-114980347D01*
X113741275Y-115131848D01*
X113671547Y-115300187D01*
X113636000Y-115478895D01*
X111556544Y-115478895D01*
X111550725Y-115464848D01*
X111456000Y-115323082D01*
X111456000Y-114642148D01*
X111462495Y-114635653D01*
X111563725Y-114484152D01*
X111633453Y-114315813D01*
X111669000Y-114137105D01*
X111669000Y-113954895D01*
X111633453Y-113776187D01*
X111563725Y-113607848D01*
X111462495Y-113456347D01*
X111333653Y-113327505D01*
X111182152Y-113226275D01*
X111013813Y-113156547D01*
X110835105Y-113121000D01*
X110652895Y-113121000D01*
X110474187Y-113156547D01*
X110305848Y-113226275D01*
X110154347Y-113327505D01*
X110025505Y-113456347D01*
X109924275Y-113607848D01*
X109854547Y-113776187D01*
X109819000Y-113954895D01*
X109819000Y-114137105D01*
X109854547Y-114315813D01*
X109924275Y-114484152D01*
X110006001Y-114606463D01*
X110006000Y-115323082D01*
X109911275Y-115464848D01*
X109841547Y-115633187D01*
X109806000Y-115811895D01*
X95510006Y-115811895D01*
X95540000Y-115661105D01*
X95540000Y-115478895D01*
X95504453Y-115300187D01*
X95434725Y-115131848D01*
X95333495Y-114980347D01*
X95204653Y-114851505D01*
X95053152Y-114750275D01*
X94884813Y-114680547D01*
X94717589Y-114647284D01*
X91779697Y-111709392D01*
X113713000Y-111709392D01*
X113713000Y-111982608D01*
X113766302Y-112250573D01*
X113870857Y-112502991D01*
X114022647Y-112730161D01*
X114215839Y-112923353D01*
X114443009Y-113075143D01*
X114695427Y-113179698D01*
X114963392Y-113233000D01*
X115236608Y-113233000D01*
X115504573Y-113179698D01*
X115756991Y-113075143D01*
X115984161Y-112923353D01*
X116177353Y-112730161D01*
X116329143Y-112502991D01*
X116433698Y-112250573D01*
X116487000Y-111982608D01*
X116487000Y-111970681D01*
X125952096Y-111970681D01*
X126033614Y-112138227D01*
X126238070Y-112229658D01*
X126456435Y-112279445D01*
X126680318Y-112285674D01*
X126901114Y-112248107D01*
X127110339Y-112168185D01*
X127166386Y-112138227D01*
X127247904Y-111970681D01*
X126600000Y-111322777D01*
X125952096Y-111970681D01*
X116487000Y-111970681D01*
X116487000Y-111709392D01*
X116433698Y-111441427D01*
X116344597Y-111226318D01*
X125460326Y-111226318D01*
X125497893Y-111447114D01*
X125577815Y-111656339D01*
X125607773Y-111712386D01*
X125775319Y-111793904D01*
X126423223Y-111146000D01*
X126776777Y-111146000D01*
X127424681Y-111793904D01*
X127592227Y-111712386D01*
X127683658Y-111507930D01*
X127733445Y-111289565D01*
X127739674Y-111065682D01*
X127702107Y-110844886D01*
X127622185Y-110635661D01*
X127592227Y-110579614D01*
X127424681Y-110498096D01*
X126776777Y-111146000D01*
X126423223Y-111146000D01*
X125775319Y-110498096D01*
X125607773Y-110579614D01*
X125516342Y-110784070D01*
X125466555Y-111002435D01*
X125460326Y-111226318D01*
X116344597Y-111226318D01*
X116329143Y-111189009D01*
X116177353Y-110961839D01*
X115984161Y-110768647D01*
X115756991Y-110616857D01*
X115504573Y-110512302D01*
X115236608Y-110459000D01*
X114963392Y-110459000D01*
X114695427Y-110512302D01*
X114443009Y-110616857D01*
X114215839Y-110768647D01*
X114022647Y-110961839D01*
X113870857Y-111189009D01*
X113766302Y-111441427D01*
X113713000Y-111709392D01*
X91779697Y-111709392D01*
X91727716Y-111657412D01*
X91694453Y-111490187D01*
X91624725Y-111321848D01*
X91523495Y-111170347D01*
X91394653Y-111041505D01*
X91243152Y-110940275D01*
X91074813Y-110870547D01*
X90896105Y-110835000D01*
X90713895Y-110835000D01*
X90535187Y-110870547D01*
X90366848Y-110940275D01*
X90215347Y-111041505D01*
X90086505Y-111170347D01*
X89985275Y-111321848D01*
X89915547Y-111490187D01*
X89880000Y-111668895D01*
X89880000Y-111851105D01*
X89915547Y-112029813D01*
X89985275Y-112198152D01*
X90086505Y-112349653D01*
X90215347Y-112478495D01*
X90366848Y-112579725D01*
X90535187Y-112649453D01*
X90702412Y-112682716D01*
X93692284Y-115672589D01*
X93725547Y-115839813D01*
X93795275Y-116008152D01*
X93896505Y-116159653D01*
X93951852Y-116215000D01*
X88265000Y-116215000D01*
X88143069Y-116227009D01*
X88025823Y-116262575D01*
X87917769Y-116320331D01*
X87823058Y-116398058D01*
X87745331Y-116492769D01*
X87687575Y-116600823D01*
X87652009Y-116718069D01*
X87640000Y-116840000D01*
X87640000Y-133350000D01*
X87652009Y-133471931D01*
X87687575Y-133589177D01*
X87745331Y-133697231D01*
X87823058Y-133791942D01*
X88275000Y-134243884D01*
X88275000Y-140404000D01*
X88146712Y-140404000D01*
X87914681Y-140450154D01*
X87696113Y-140540688D01*
X87499407Y-140672122D01*
X87332122Y-140839407D01*
X87200688Y-141036113D01*
X87110154Y-141254681D01*
X87064000Y-141486712D01*
X82565000Y-141486712D01*
X82565000Y-110487041D01*
X82579269Y-110513736D01*
X82633334Y-110579614D01*
X82669868Y-110624131D01*
X82697524Y-110646828D01*
X83317172Y-111266477D01*
X83339868Y-111294132D01*
X83367523Y-111316828D01*
X83367525Y-111316830D01*
X83414357Y-111355264D01*
X83450263Y-111384731D01*
X83576212Y-111452053D01*
X83712875Y-111493509D01*
X83819393Y-111504000D01*
X83819402Y-111504000D01*
X83854999Y-111507506D01*
X83890596Y-111504000D01*
X85145082Y-111504000D01*
X85286848Y-111598725D01*
X85455187Y-111668453D01*
X85633895Y-111704000D01*
X85816105Y-111704000D01*
X85994813Y-111668453D01*
X86163152Y-111598725D01*
X86314653Y-111497495D01*
X86443495Y-111368653D01*
X86544725Y-111217152D01*
X86614453Y-111048813D01*
X86650000Y-110870105D01*
X86650000Y-110687895D01*
X86614453Y-110509187D01*
X86544725Y-110340848D01*
X86531677Y-110321319D01*
X125952096Y-110321319D01*
X126600000Y-110969223D01*
X127247904Y-110321319D01*
X127166386Y-110153773D01*
X126961930Y-110062342D01*
X126743565Y-110012555D01*
X126519682Y-110006326D01*
X126298886Y-110043893D01*
X126089661Y-110123815D01*
X126033614Y-110153773D01*
X125952096Y-110321319D01*
X86531677Y-110321319D01*
X86443495Y-110189347D01*
X86314653Y-110060505D01*
X86163152Y-109959275D01*
X85994813Y-109889547D01*
X85816105Y-109854000D01*
X85633895Y-109854000D01*
X85455187Y-109889547D01*
X85286848Y-109959275D01*
X85145082Y-110054000D01*
X84155305Y-110054000D01*
X83910000Y-109808696D01*
X83910000Y-108748000D01*
X84038105Y-108748000D01*
X84216813Y-108712453D01*
X84385152Y-108642725D01*
X84536653Y-108541495D01*
X84665495Y-108412653D01*
X84696445Y-108366333D01*
X85067085Y-108366333D01*
X85208851Y-108461058D01*
X85377190Y-108530786D01*
X85555898Y-108566333D01*
X85738108Y-108566333D01*
X85916816Y-108530786D01*
X86085155Y-108461058D01*
X86236656Y-108359828D01*
X86365498Y-108230986D01*
X86372606Y-108220348D01*
X86395895Y-108224980D01*
X86578105Y-108224980D01*
X86756813Y-108189433D01*
X86925152Y-108119705D01*
X87076653Y-108018475D01*
X87205495Y-107889633D01*
X87306725Y-107738132D01*
X87376453Y-107569793D01*
X87412000Y-107391085D01*
X87412000Y-107208875D01*
X87379603Y-107046000D01*
X112046976Y-107046000D01*
X112046976Y-108446000D01*
X112072494Y-108705085D01*
X112148066Y-108954213D01*
X112270788Y-109183811D01*
X112435945Y-109385055D01*
X112637189Y-109550212D01*
X112866787Y-109672934D01*
X113115915Y-109748506D01*
X113375000Y-109774024D01*
X114975000Y-109774024D01*
X115234085Y-109748506D01*
X115483213Y-109672934D01*
X115712811Y-109550212D01*
X115914055Y-109385055D01*
X116079212Y-109183811D01*
X116201934Y-108954213D01*
X116277506Y-108705085D01*
X116303024Y-108446000D01*
X116303024Y-107046000D01*
X124996976Y-107046000D01*
X124996976Y-108446000D01*
X125022494Y-108705085D01*
X125098066Y-108954213D01*
X125220788Y-109183811D01*
X125385945Y-109385055D01*
X125587189Y-109550212D01*
X125816787Y-109672934D01*
X126065915Y-109748506D01*
X126325000Y-109774024D01*
X127925000Y-109774024D01*
X128184085Y-109748506D01*
X128433213Y-109672934D01*
X128662811Y-109550212D01*
X128864055Y-109385055D01*
X129029212Y-109183811D01*
X129151934Y-108954213D01*
X129227506Y-108705085D01*
X129253024Y-108446000D01*
X129253024Y-107046000D01*
X129227506Y-106786915D01*
X129151934Y-106537787D01*
X129029212Y-106308189D01*
X128864055Y-106106945D01*
X128662811Y-105941788D01*
X128433213Y-105819066D01*
X128184085Y-105743494D01*
X127925000Y-105717976D01*
X126325000Y-105717976D01*
X126065915Y-105743494D01*
X125816787Y-105819066D01*
X125587189Y-105941788D01*
X125385945Y-106106945D01*
X125220788Y-106308189D01*
X125098066Y-106537787D01*
X125022494Y-106786915D01*
X124996976Y-107046000D01*
X116303024Y-107046000D01*
X116277506Y-106786915D01*
X116201934Y-106537787D01*
X116079212Y-106308189D01*
X115914055Y-106106945D01*
X115712811Y-105941788D01*
X115483213Y-105819066D01*
X115234085Y-105743494D01*
X114975000Y-105717976D01*
X113375000Y-105717976D01*
X113115915Y-105743494D01*
X112866787Y-105819066D01*
X112637189Y-105941788D01*
X112435945Y-106106945D01*
X112270788Y-106308189D01*
X112148066Y-106537787D01*
X112072494Y-106786915D01*
X112046976Y-107046000D01*
X87379603Y-107046000D01*
X87376453Y-107030167D01*
X87306725Y-106861828D01*
X87205495Y-106710327D01*
X87076653Y-106581485D01*
X86925152Y-106480255D01*
X86756813Y-106410527D01*
X86584136Y-106376180D01*
X86525757Y-106328269D01*
X86399808Y-106260947D01*
X86263145Y-106219491D01*
X86156627Y-106209000D01*
X86156617Y-106209000D01*
X86121020Y-106205494D01*
X86085423Y-106209000D01*
X84526918Y-106209000D01*
X84385152Y-106114275D01*
X84216813Y-106044547D01*
X84038105Y-106009000D01*
X83910000Y-106009000D01*
X83910000Y-105583304D01*
X85390305Y-104103000D01*
X86034082Y-104103000D01*
X86175848Y-104197725D01*
X86344187Y-104267453D01*
X86522895Y-104303000D01*
X86705105Y-104303000D01*
X86883813Y-104267453D01*
X87052152Y-104197725D01*
X87203653Y-104096495D01*
X87332495Y-103967653D01*
X87433725Y-103816152D01*
X87461586Y-103748889D01*
X89798526Y-106085829D01*
X89798532Y-106085834D01*
X89991170Y-106278472D01*
X90013870Y-106306132D01*
X90124265Y-106396731D01*
X90250214Y-106464053D01*
X90386877Y-106505509D01*
X90493395Y-106516000D01*
X90493404Y-106516000D01*
X90529001Y-106519506D01*
X90564598Y-106516000D01*
X91598092Y-106516000D01*
X91739858Y-106610725D01*
X91908197Y-106680453D01*
X92086905Y-106716000D01*
X92269115Y-106716000D01*
X92447823Y-106680453D01*
X92616162Y-106610725D01*
X92767663Y-106509495D01*
X92896505Y-106380653D01*
X92997735Y-106229152D01*
X93067463Y-106060813D01*
X93103010Y-105882105D01*
X93103010Y-105699895D01*
X93067463Y-105521187D01*
X92997735Y-105352848D01*
X92896505Y-105201347D01*
X92767663Y-105072505D01*
X92616162Y-104971275D01*
X92447823Y-104901547D01*
X92269115Y-104866000D01*
X92086905Y-104866000D01*
X91908197Y-104901547D01*
X91739858Y-104971275D01*
X91598092Y-105066000D01*
X90829306Y-105066000D01*
X90823836Y-105060530D01*
X90823831Y-105060524D01*
X87402307Y-101639000D01*
X98851976Y-101639000D01*
X98851976Y-103339000D01*
X98864043Y-103461521D01*
X98899781Y-103579334D01*
X98957817Y-103687911D01*
X99035920Y-103783080D01*
X99131089Y-103861183D01*
X99239666Y-103919219D01*
X99357479Y-103954957D01*
X99480000Y-103967024D01*
X101180000Y-103967024D01*
X101302521Y-103954957D01*
X101420334Y-103919219D01*
X101528911Y-103861183D01*
X101624080Y-103783080D01*
X101702183Y-103687911D01*
X101760219Y-103579334D01*
X101786787Y-103491752D01*
X101929742Y-103634707D01*
X102171325Y-103796128D01*
X102439758Y-103907317D01*
X102724725Y-103964000D01*
X103015275Y-103964000D01*
X103300242Y-103907317D01*
X103568675Y-103796128D01*
X103810258Y-103634707D01*
X104015707Y-103429258D01*
X104140000Y-103243241D01*
X104264293Y-103429258D01*
X104469742Y-103634707D01*
X104711325Y-103796128D01*
X104979758Y-103907317D01*
X105264725Y-103964000D01*
X105555275Y-103964000D01*
X105840242Y-103907317D01*
X106108675Y-103796128D01*
X106350258Y-103634707D01*
X106555707Y-103429258D01*
X106680000Y-103243241D01*
X106804293Y-103429258D01*
X107009742Y-103634707D01*
X107251325Y-103796128D01*
X107519758Y-103907317D01*
X107804725Y-103964000D01*
X108095275Y-103964000D01*
X108380242Y-103907317D01*
X108648675Y-103796128D01*
X108890258Y-103634707D01*
X109095707Y-103429258D01*
X109220000Y-103243241D01*
X109344293Y-103429258D01*
X109549742Y-103634707D01*
X109791325Y-103796128D01*
X110059758Y-103907317D01*
X110344725Y-103964000D01*
X110635275Y-103964000D01*
X110920242Y-103907317D01*
X111188675Y-103796128D01*
X111430258Y-103634707D01*
X111635707Y-103429258D01*
X111658062Y-103395801D01*
X113575000Y-103395801D01*
X113575000Y-103696199D01*
X113633605Y-103990826D01*
X113748562Y-104268358D01*
X113915455Y-104518131D01*
X114127869Y-104730545D01*
X114377642Y-104897438D01*
X114655174Y-105012395D01*
X114949801Y-105071000D01*
X115250199Y-105071000D01*
X115544826Y-105012395D01*
X115822358Y-104897438D01*
X116072131Y-104730545D01*
X116284545Y-104518131D01*
X116451438Y-104268358D01*
X116566395Y-103990826D01*
X116625000Y-103696199D01*
X116625000Y-103395801D01*
X124675000Y-103395801D01*
X124675000Y-103696199D01*
X124733605Y-103990826D01*
X124848562Y-104268358D01*
X125015455Y-104518131D01*
X125227869Y-104730545D01*
X125477642Y-104897438D01*
X125755174Y-105012395D01*
X126049801Y-105071000D01*
X126350199Y-105071000D01*
X126644826Y-105012395D01*
X126922358Y-104897438D01*
X127172131Y-104730545D01*
X127384545Y-104518131D01*
X127551438Y-104268358D01*
X127585256Y-104186712D01*
X128174000Y-104186712D01*
X128174000Y-104423288D01*
X128220154Y-104655319D01*
X128310688Y-104873887D01*
X128442122Y-105070593D01*
X128609407Y-105237878D01*
X128806113Y-105369312D01*
X129024681Y-105459846D01*
X129256712Y-105506000D01*
X129493288Y-105506000D01*
X129725319Y-105459846D01*
X129943887Y-105369312D01*
X130140593Y-105237878D01*
X130307878Y-105070593D01*
X130439312Y-104873887D01*
X130529846Y-104655319D01*
X130576000Y-104423288D01*
X130576000Y-104186712D01*
X130529846Y-103954681D01*
X130439312Y-103736113D01*
X130307878Y-103539407D01*
X130140593Y-103372122D01*
X129943887Y-103240688D01*
X129725319Y-103150154D01*
X129493288Y-103104000D01*
X129256712Y-103104000D01*
X129024681Y-103150154D01*
X128806113Y-103240688D01*
X128609407Y-103372122D01*
X128442122Y-103539407D01*
X128310688Y-103736113D01*
X128220154Y-103954681D01*
X128174000Y-104186712D01*
X127585256Y-104186712D01*
X127666395Y-103990826D01*
X127725000Y-103696199D01*
X127725000Y-103395801D01*
X127666395Y-103101174D01*
X127551438Y-102823642D01*
X127384545Y-102573869D01*
X127172131Y-102361455D01*
X126922358Y-102194562D01*
X126644826Y-102079605D01*
X126350199Y-102021000D01*
X126049801Y-102021000D01*
X125755174Y-102079605D01*
X125477642Y-102194562D01*
X125227869Y-102361455D01*
X125015455Y-102573869D01*
X124848562Y-102823642D01*
X124733605Y-103101174D01*
X124675000Y-103395801D01*
X116625000Y-103395801D01*
X116566395Y-103101174D01*
X116451438Y-102823642D01*
X116284545Y-102573869D01*
X116072131Y-102361455D01*
X115822358Y-102194562D01*
X115544826Y-102079605D01*
X115250199Y-102021000D01*
X114949801Y-102021000D01*
X114655174Y-102079605D01*
X114377642Y-102194562D01*
X114127869Y-102361455D01*
X113915455Y-102573869D01*
X113748562Y-102823642D01*
X113633605Y-103101174D01*
X113575000Y-103395801D01*
X111658062Y-103395801D01*
X111797128Y-103187675D01*
X111908317Y-102919242D01*
X111965000Y-102634275D01*
X111965000Y-102343725D01*
X111908317Y-102058758D01*
X111797128Y-101790325D01*
X111783117Y-101769355D01*
X119903422Y-101769355D01*
X120001668Y-101951016D01*
X120229704Y-102056266D01*
X120473890Y-102115007D01*
X120724844Y-102124981D01*
X120972923Y-102085804D01*
X121208592Y-101998983D01*
X121298332Y-101951016D01*
X121396578Y-101769355D01*
X120650000Y-101022777D01*
X119903422Y-101769355D01*
X111783117Y-101769355D01*
X111635707Y-101548742D01*
X111430258Y-101343293D01*
X111188675Y-101181872D01*
X110945531Y-101081158D01*
X111105156Y-101008351D01*
X111226628Y-100920844D01*
X119371019Y-100920844D01*
X119410196Y-101168923D01*
X119497017Y-101404592D01*
X119544984Y-101494332D01*
X119726645Y-101592578D01*
X120473223Y-100846000D01*
X120826777Y-100846000D01*
X121573355Y-101592578D01*
X121755016Y-101494332D01*
X121860266Y-101266296D01*
X121919007Y-101022110D01*
X121928981Y-100771156D01*
X121889804Y-100523077D01*
X121816870Y-100325102D01*
X127015000Y-100325102D01*
X127015000Y-100664898D01*
X127081290Y-100998164D01*
X127211324Y-101312094D01*
X127400105Y-101594624D01*
X127640376Y-101834895D01*
X127922906Y-102023676D01*
X128236836Y-102153710D01*
X128570102Y-102220000D01*
X128909898Y-102220000D01*
X129243164Y-102153710D01*
X129557094Y-102023676D01*
X129839624Y-101834895D01*
X130079895Y-101594624D01*
X130268676Y-101312094D01*
X130398710Y-100998164D01*
X130465000Y-100664898D01*
X130465000Y-100325102D01*
X130398710Y-99991836D01*
X130268676Y-99677906D01*
X130079895Y-99395376D01*
X129839624Y-99155105D01*
X129557094Y-98966324D01*
X129243164Y-98836290D01*
X128909898Y-98770000D01*
X128570102Y-98770000D01*
X128236836Y-98836290D01*
X127922906Y-98966324D01*
X127640376Y-99155105D01*
X127400105Y-99395376D01*
X127211324Y-99677906D01*
X127081290Y-99991836D01*
X127015000Y-100325102D01*
X121816870Y-100325102D01*
X121802983Y-100287408D01*
X121755016Y-100197668D01*
X121573355Y-100099422D01*
X120826777Y-100846000D01*
X120473223Y-100846000D01*
X119726645Y-100099422D01*
X119544984Y-100197668D01*
X119439734Y-100425704D01*
X119380993Y-100669890D01*
X119371019Y-100920844D01*
X111226628Y-100920844D01*
X111300005Y-100867985D01*
X111463726Y-100692303D01*
X111590027Y-100488056D01*
X111674055Y-100263094D01*
X111614862Y-100074000D01*
X110615000Y-100074000D01*
X110615000Y-100094000D01*
X110365000Y-100094000D01*
X110365000Y-100074000D01*
X109365138Y-100074000D01*
X109305945Y-100263094D01*
X109389973Y-100488056D01*
X109516274Y-100692303D01*
X109679995Y-100867985D01*
X109874844Y-101008351D01*
X110034469Y-101081158D01*
X109791325Y-101181872D01*
X109549742Y-101343293D01*
X109344293Y-101548742D01*
X109220000Y-101734759D01*
X109095707Y-101548742D01*
X108890258Y-101343293D01*
X108648675Y-101181872D01*
X108405531Y-101081158D01*
X108565156Y-101008351D01*
X108760005Y-100867985D01*
X108923726Y-100692303D01*
X109050027Y-100488056D01*
X109134055Y-100263094D01*
X109074862Y-100074000D01*
X108075000Y-100074000D01*
X108075000Y-100094000D01*
X107825000Y-100094000D01*
X107825000Y-100074000D01*
X106825138Y-100074000D01*
X106765945Y-100263094D01*
X106849973Y-100488056D01*
X106976274Y-100692303D01*
X107139995Y-100867985D01*
X107334844Y-101008351D01*
X107494469Y-101081158D01*
X107251325Y-101181872D01*
X107009742Y-101343293D01*
X106804293Y-101548742D01*
X106680000Y-101734759D01*
X106555707Y-101548742D01*
X106350258Y-101343293D01*
X106108675Y-101181872D01*
X105865531Y-101081158D01*
X106025156Y-101008351D01*
X106220005Y-100867985D01*
X106383726Y-100692303D01*
X106510027Y-100488056D01*
X106594055Y-100263094D01*
X106534862Y-100074000D01*
X105535000Y-100074000D01*
X105535000Y-100094000D01*
X105285000Y-100094000D01*
X105285000Y-100074000D01*
X104285138Y-100074000D01*
X104225945Y-100263094D01*
X104309973Y-100488056D01*
X104436274Y-100692303D01*
X104599995Y-100867985D01*
X104794844Y-101008351D01*
X104954469Y-101081158D01*
X104711325Y-101181872D01*
X104469742Y-101343293D01*
X104264293Y-101548742D01*
X104140000Y-101734759D01*
X104015707Y-101548742D01*
X103810258Y-101343293D01*
X103568675Y-101181872D01*
X103325531Y-101081158D01*
X103485156Y-101008351D01*
X103680005Y-100867985D01*
X103843726Y-100692303D01*
X103970027Y-100488056D01*
X104054055Y-100263094D01*
X103994862Y-100074000D01*
X102995000Y-100074000D01*
X102995000Y-100094000D01*
X102745000Y-100094000D01*
X102745000Y-100074000D01*
X101745138Y-100074000D01*
X101685945Y-100263094D01*
X101769973Y-100488056D01*
X101896274Y-100692303D01*
X102059995Y-100867985D01*
X102254844Y-101008351D01*
X102414469Y-101081158D01*
X102171325Y-101181872D01*
X101929742Y-101343293D01*
X101786787Y-101486248D01*
X101760219Y-101398666D01*
X101702183Y-101290089D01*
X101624080Y-101194920D01*
X101528911Y-101116817D01*
X101420334Y-101058781D01*
X101302521Y-101023043D01*
X101180000Y-101010976D01*
X100939401Y-101010976D01*
X100945156Y-101008351D01*
X101140005Y-100867985D01*
X101303726Y-100692303D01*
X101430027Y-100488056D01*
X101514055Y-100263094D01*
X101454862Y-100074000D01*
X100455000Y-100074000D01*
X100455000Y-100094000D01*
X100205000Y-100094000D01*
X100205000Y-100074000D01*
X99205138Y-100074000D01*
X99145945Y-100263094D01*
X99229973Y-100488056D01*
X99356274Y-100692303D01*
X99519995Y-100867985D01*
X99714844Y-101008351D01*
X99720599Y-101010976D01*
X99480000Y-101010976D01*
X99357479Y-101023043D01*
X99239666Y-101058781D01*
X99131089Y-101116817D01*
X99035920Y-101194920D01*
X98957817Y-101290089D01*
X98899781Y-101398666D01*
X98864043Y-101516479D01*
X98851976Y-101639000D01*
X87402307Y-101639000D01*
X87187306Y-101424000D01*
X87267275Y-101424000D01*
X87552242Y-101367317D01*
X87820675Y-101256128D01*
X88062258Y-101094707D01*
X88267707Y-100889258D01*
X88392000Y-100703241D01*
X88516293Y-100889258D01*
X88721742Y-101094707D01*
X88963325Y-101256128D01*
X89231758Y-101367317D01*
X89516725Y-101424000D01*
X89807275Y-101424000D01*
X90092242Y-101367317D01*
X90360675Y-101256128D01*
X90602258Y-101094707D01*
X90807707Y-100889258D01*
X90932000Y-100703241D01*
X91056293Y-100889258D01*
X91261742Y-101094707D01*
X91503325Y-101256128D01*
X91771758Y-101367317D01*
X92056725Y-101424000D01*
X92347275Y-101424000D01*
X92632242Y-101367317D01*
X92900675Y-101256128D01*
X93142258Y-101094707D01*
X93347707Y-100889258D01*
X93509128Y-100647675D01*
X93610332Y-100403347D01*
X93641973Y-100488056D01*
X93768274Y-100692303D01*
X93931995Y-100867985D01*
X94126844Y-101008351D01*
X94345333Y-101108007D01*
X94427907Y-101133049D01*
X94617000Y-101073323D01*
X94617000Y-100074000D01*
X94867000Y-100074000D01*
X94867000Y-101073323D01*
X95056093Y-101133049D01*
X95138667Y-101108007D01*
X95357156Y-101008351D01*
X95552005Y-100867985D01*
X95715726Y-100692303D01*
X95842027Y-100488056D01*
X95926055Y-100263094D01*
X95866862Y-100074000D01*
X94867000Y-100074000D01*
X94617000Y-100074000D01*
X94597000Y-100074000D01*
X94597000Y-99922645D01*
X119903422Y-99922645D01*
X120650000Y-100669223D01*
X121396578Y-99922645D01*
X121298332Y-99740984D01*
X121070296Y-99635734D01*
X120826110Y-99576993D01*
X120575156Y-99567019D01*
X120327077Y-99606196D01*
X120091408Y-99693017D01*
X120001668Y-99740984D01*
X119903422Y-99922645D01*
X94597000Y-99922645D01*
X94597000Y-99824000D01*
X94617000Y-99824000D01*
X94617000Y-98824677D01*
X94867000Y-98824677D01*
X94867000Y-99824000D01*
X95866862Y-99824000D01*
X95926055Y-99634906D01*
X99145945Y-99634906D01*
X99205138Y-99824000D01*
X100205000Y-99824000D01*
X100205000Y-98824677D01*
X100455000Y-98824677D01*
X100455000Y-99824000D01*
X101454862Y-99824000D01*
X101514055Y-99634906D01*
X101685945Y-99634906D01*
X101745138Y-99824000D01*
X102745000Y-99824000D01*
X102745000Y-98824677D01*
X102995000Y-98824677D01*
X102995000Y-99824000D01*
X103994862Y-99824000D01*
X104054055Y-99634906D01*
X104225945Y-99634906D01*
X104285138Y-99824000D01*
X105285000Y-99824000D01*
X105285000Y-98824677D01*
X105535000Y-98824677D01*
X105535000Y-99824000D01*
X106534862Y-99824000D01*
X106594055Y-99634906D01*
X106765945Y-99634906D01*
X106825138Y-99824000D01*
X107825000Y-99824000D01*
X107825000Y-98824677D01*
X108075000Y-98824677D01*
X108075000Y-99824000D01*
X109074862Y-99824000D01*
X109134055Y-99634906D01*
X109305945Y-99634906D01*
X109365138Y-99824000D01*
X110365000Y-99824000D01*
X110365000Y-98824677D01*
X110615000Y-98824677D01*
X110615000Y-99824000D01*
X111614862Y-99824000D01*
X111674055Y-99634906D01*
X111590027Y-99409944D01*
X111463726Y-99205697D01*
X111300005Y-99030015D01*
X111105156Y-98889649D01*
X110886667Y-98789993D01*
X110804093Y-98764951D01*
X110615000Y-98824677D01*
X110365000Y-98824677D01*
X110175907Y-98764951D01*
X110093333Y-98789993D01*
X109874844Y-98889649D01*
X109679995Y-99030015D01*
X109516274Y-99205697D01*
X109389973Y-99409944D01*
X109305945Y-99634906D01*
X109134055Y-99634906D01*
X109050027Y-99409944D01*
X108923726Y-99205697D01*
X108760005Y-99030015D01*
X108565156Y-98889649D01*
X108346667Y-98789993D01*
X108264093Y-98764951D01*
X108075000Y-98824677D01*
X107825000Y-98824677D01*
X107635907Y-98764951D01*
X107553333Y-98789993D01*
X107334844Y-98889649D01*
X107139995Y-99030015D01*
X106976274Y-99205697D01*
X106849973Y-99409944D01*
X106765945Y-99634906D01*
X106594055Y-99634906D01*
X106510027Y-99409944D01*
X106383726Y-99205697D01*
X106220005Y-99030015D01*
X106025156Y-98889649D01*
X105806667Y-98789993D01*
X105724093Y-98764951D01*
X105535000Y-98824677D01*
X105285000Y-98824677D01*
X105095907Y-98764951D01*
X105013333Y-98789993D01*
X104794844Y-98889649D01*
X104599995Y-99030015D01*
X104436274Y-99205697D01*
X104309973Y-99409944D01*
X104225945Y-99634906D01*
X104054055Y-99634906D01*
X103970027Y-99409944D01*
X103843726Y-99205697D01*
X103680005Y-99030015D01*
X103485156Y-98889649D01*
X103266667Y-98789993D01*
X103184093Y-98764951D01*
X102995000Y-98824677D01*
X102745000Y-98824677D01*
X102555907Y-98764951D01*
X102473333Y-98789993D01*
X102254844Y-98889649D01*
X102059995Y-99030015D01*
X101896274Y-99205697D01*
X101769973Y-99409944D01*
X101685945Y-99634906D01*
X101514055Y-99634906D01*
X101430027Y-99409944D01*
X101303726Y-99205697D01*
X101140005Y-99030015D01*
X100945156Y-98889649D01*
X100726667Y-98789993D01*
X100644093Y-98764951D01*
X100455000Y-98824677D01*
X100205000Y-98824677D01*
X100015907Y-98764951D01*
X99933333Y-98789993D01*
X99714844Y-98889649D01*
X99519995Y-99030015D01*
X99356274Y-99205697D01*
X99229973Y-99409944D01*
X99145945Y-99634906D01*
X95926055Y-99634906D01*
X95842027Y-99409944D01*
X95715726Y-99205697D01*
X95552005Y-99030015D01*
X95357156Y-98889649D01*
X95138667Y-98789993D01*
X95056093Y-98764951D01*
X94867000Y-98824677D01*
X94617000Y-98824677D01*
X94427907Y-98764951D01*
X94345333Y-98789993D01*
X94126844Y-98889649D01*
X93931995Y-99030015D01*
X93768274Y-99205697D01*
X93641973Y-99409944D01*
X93610332Y-99494653D01*
X93509128Y-99250325D01*
X93347707Y-99008742D01*
X93142258Y-98803293D01*
X92900675Y-98641872D01*
X92632242Y-98530683D01*
X92347275Y-98474000D01*
X92056725Y-98474000D01*
X91771758Y-98530683D01*
X91503325Y-98641872D01*
X91261742Y-98803293D01*
X91056293Y-99008742D01*
X90932000Y-99194759D01*
X90807707Y-99008742D01*
X90602258Y-98803293D01*
X90360675Y-98641872D01*
X90092242Y-98530683D01*
X89807275Y-98474000D01*
X89516725Y-98474000D01*
X89231758Y-98530683D01*
X88963325Y-98641872D01*
X88721742Y-98803293D01*
X88516293Y-99008742D01*
X88392000Y-99194759D01*
X88267707Y-99008742D01*
X88062258Y-98803293D01*
X87820675Y-98641872D01*
X87552242Y-98530683D01*
X87267275Y-98474000D01*
X86976725Y-98474000D01*
X86691758Y-98530683D01*
X86423325Y-98641872D01*
X86181742Y-98803293D01*
X86038787Y-98946248D01*
X86012219Y-98858666D01*
X85954183Y-98750089D01*
X85876080Y-98654920D01*
X85780911Y-98576817D01*
X85672334Y-98518781D01*
X85554521Y-98483043D01*
X85432000Y-98470976D01*
X83732000Y-98470976D01*
X83609479Y-98483043D01*
X83491666Y-98518781D01*
X83383089Y-98576817D01*
X83287920Y-98654920D01*
X83209817Y-98750089D01*
X83151781Y-98858666D01*
X83116043Y-98976479D01*
X83103976Y-99099000D01*
X83103976Y-100799000D01*
X83116043Y-100921521D01*
X83151781Y-101039334D01*
X83209817Y-101147911D01*
X83287920Y-101243080D01*
X83383089Y-101321183D01*
X83491666Y-101379219D01*
X83609479Y-101414957D01*
X83732000Y-101427024D01*
X85139722Y-101427024D01*
X86243111Y-102530414D01*
X86175848Y-102558275D01*
X86034082Y-102653000D01*
X85125597Y-102653000D01*
X85090000Y-102649494D01*
X85054403Y-102653000D01*
X85054393Y-102653000D01*
X84947875Y-102663491D01*
X84811212Y-102704947D01*
X84685263Y-102772269D01*
X84602525Y-102840170D01*
X84602523Y-102840172D01*
X84574868Y-102862868D01*
X84552172Y-102890523D01*
X82697523Y-104745173D01*
X82669869Y-104767868D01*
X82647173Y-104795523D01*
X82647170Y-104795526D01*
X82579269Y-104878264D01*
X82565000Y-104904959D01*
X82565000Y-99851792D01*
X82603291Y-99461273D01*
X82707471Y-99116209D01*
X82876691Y-98797951D01*
X83104507Y-98518622D01*
X83382237Y-98288864D01*
X83699306Y-98117426D01*
X84043633Y-98010839D01*
X84432191Y-97970000D01*
X129383208Y-97970000D01*
X129773727Y-98008291D01*
G37*
%TD.AperFunction*%
%TD*%
D19*
%TO.N,/VIN*%
X98298000Y-129540000D02*
X98300440Y-129564776D01*
X98307667Y-129588601D01*
X98319403Y-129610557D01*
X98335197Y-129629803D01*
X101473000Y-132767606D01*
X101473000Y-142748000D01*
X89027000Y-142748000D01*
X89027000Y-142542684D01*
X89031868Y-142539431D01*
X89199431Y-142371868D01*
X89331085Y-142174834D01*
X89421770Y-141955902D01*
X89468000Y-141723485D01*
X89468000Y-141597413D01*
X91754192Y-141597413D01*
X91849956Y-141861814D01*
X92139571Y-142002704D01*
X92451108Y-142084384D01*
X92772595Y-142103718D01*
X93091675Y-142059961D01*
X93396088Y-141954795D01*
X93570044Y-141861814D01*
X93665808Y-141597413D01*
X96834192Y-141597413D01*
X96929956Y-141861814D01*
X97219571Y-142002704D01*
X97531108Y-142084384D01*
X97852595Y-142103718D01*
X98171675Y-142059961D01*
X98476088Y-141954795D01*
X98650044Y-141861814D01*
X98745808Y-141597413D01*
X97790000Y-140641605D01*
X96834192Y-141597413D01*
X93665808Y-141597413D01*
X92710000Y-140641605D01*
X91754192Y-141597413D01*
X89468000Y-141597413D01*
X89468000Y-141486515D01*
X89421770Y-141254098D01*
X89331085Y-141035166D01*
X89199431Y-140838132D01*
X89031868Y-140670569D01*
X89027000Y-140667316D01*
X89027000Y-140524595D01*
X91068282Y-140524595D01*
X91112039Y-140843675D01*
X91217205Y-141148088D01*
X91310186Y-141322044D01*
X91574587Y-141417808D01*
X92530395Y-140462000D01*
X92889605Y-140462000D01*
X93845413Y-141417808D01*
X94109814Y-141322044D01*
X94250704Y-141032429D01*
X94332384Y-140720892D01*
X94344189Y-140524595D01*
X96148282Y-140524595D01*
X96192039Y-140843675D01*
X96297205Y-141148088D01*
X96390186Y-141322044D01*
X96654587Y-141417808D01*
X97610395Y-140462000D01*
X97969605Y-140462000D01*
X98925413Y-141417808D01*
X99189814Y-141322044D01*
X99330704Y-141032429D01*
X99412384Y-140720892D01*
X99431718Y-140399405D01*
X99387961Y-140080325D01*
X99282795Y-139775912D01*
X99189814Y-139601956D01*
X98925413Y-139506192D01*
X97969605Y-140462000D01*
X97610395Y-140462000D01*
X96654587Y-139506192D01*
X96390186Y-139601956D01*
X96249296Y-139891571D01*
X96167616Y-140203108D01*
X96148282Y-140524595D01*
X94344189Y-140524595D01*
X94351718Y-140399405D01*
X94307961Y-140080325D01*
X94202795Y-139775912D01*
X94109814Y-139601956D01*
X93845413Y-139506192D01*
X92889605Y-140462000D01*
X92530395Y-140462000D01*
X91574587Y-139506192D01*
X91310186Y-139601956D01*
X91169296Y-139891571D01*
X91087616Y-140203108D01*
X91068282Y-140524595D01*
X89027000Y-140524595D01*
X89027000Y-139326587D01*
X91754192Y-139326587D01*
X92710000Y-140282395D01*
X93665808Y-139326587D01*
X96834192Y-139326587D01*
X97790000Y-140282395D01*
X98745808Y-139326587D01*
X98650044Y-139062186D01*
X98360429Y-138921296D01*
X98048892Y-138839616D01*
X97727405Y-138820282D01*
X97408325Y-138864039D01*
X97103912Y-138969205D01*
X96929956Y-139062186D01*
X96834192Y-139326587D01*
X93665808Y-139326587D01*
X93570044Y-139062186D01*
X93280429Y-138921296D01*
X92968892Y-138839616D01*
X92647405Y-138820282D01*
X92328325Y-138864039D01*
X92023912Y-138969205D01*
X91849956Y-139062186D01*
X91754192Y-139326587D01*
X89027000Y-139326587D01*
X89027000Y-133985000D01*
X89024560Y-133960224D01*
X89017333Y-133936399D01*
X89005597Y-133914443D01*
X88989803Y-133895197D01*
X88392000Y-133297394D01*
X88392000Y-126865413D01*
X91119192Y-126865413D01*
X91214956Y-127129814D01*
X91504571Y-127270704D01*
X91816108Y-127352384D01*
X92137595Y-127371718D01*
X92456675Y-127327961D01*
X92761088Y-127222795D01*
X92935044Y-127129814D01*
X93030808Y-126865413D01*
X92075000Y-125909605D01*
X91119192Y-126865413D01*
X88392000Y-126865413D01*
X88392000Y-125792595D01*
X90433282Y-125792595D01*
X90477039Y-126111675D01*
X90582205Y-126416088D01*
X90675186Y-126590044D01*
X90939587Y-126685808D01*
X91895395Y-125730000D01*
X92254605Y-125730000D01*
X93210413Y-126685808D01*
X93474814Y-126590044D01*
X93615704Y-126300429D01*
X93697384Y-125988892D01*
X93716718Y-125667405D01*
X93672961Y-125348325D01*
X93567795Y-125043912D01*
X93474814Y-124869956D01*
X93210413Y-124774192D01*
X92254605Y-125730000D01*
X91895395Y-125730000D01*
X90939587Y-124774192D01*
X90675186Y-124869956D01*
X90534296Y-125159571D01*
X90452616Y-125471108D01*
X90433282Y-125792595D01*
X88392000Y-125792595D01*
X88392000Y-124594587D01*
X91119192Y-124594587D01*
X92075000Y-125550395D01*
X93030808Y-124594587D01*
X92935044Y-124330186D01*
X92645429Y-124189296D01*
X92333892Y-124107616D01*
X92012405Y-124088282D01*
X91693325Y-124132039D01*
X91388912Y-124237205D01*
X91214956Y-124330186D01*
X91119192Y-124594587D01*
X88392000Y-124594587D01*
X88392000Y-121785413D01*
X91119192Y-121785413D01*
X91214956Y-122049814D01*
X91504571Y-122190704D01*
X91816108Y-122272384D01*
X92137595Y-122291718D01*
X92456675Y-122247961D01*
X92761088Y-122142795D01*
X92935044Y-122049814D01*
X93030808Y-121785413D01*
X92075000Y-120829605D01*
X91119192Y-121785413D01*
X88392000Y-121785413D01*
X88392000Y-120712595D01*
X90433282Y-120712595D01*
X90477039Y-121031675D01*
X90582205Y-121336088D01*
X90675186Y-121510044D01*
X90939587Y-121605808D01*
X91895395Y-120650000D01*
X92254605Y-120650000D01*
X93210413Y-121605808D01*
X93474814Y-121510044D01*
X93615704Y-121220429D01*
X93697384Y-120908892D01*
X93716718Y-120587405D01*
X93672961Y-120268325D01*
X93567795Y-119963912D01*
X93474814Y-119789956D01*
X93210413Y-119694192D01*
X92254605Y-120650000D01*
X91895395Y-120650000D01*
X90939587Y-119694192D01*
X90675186Y-119789956D01*
X90534296Y-120079571D01*
X90452616Y-120391108D01*
X90433282Y-120712595D01*
X88392000Y-120712595D01*
X88392000Y-119514587D01*
X91119192Y-119514587D01*
X92075000Y-120470395D01*
X93030808Y-119514587D01*
X92935044Y-119250186D01*
X92645429Y-119109296D01*
X92333892Y-119027616D01*
X92012405Y-119008282D01*
X91693325Y-119052039D01*
X91388912Y-119157205D01*
X91214956Y-119250186D01*
X91119192Y-119514587D01*
X88392000Y-119514587D01*
X88392000Y-116967000D01*
X98298000Y-116967000D01*
X98298000Y-129540000D01*
%TA.AperFunction,Conductor*%
D18*
G36*
X98298000Y-129540000D02*
G01*
X98300440Y-129564776D01*
X98307667Y-129588601D01*
X98319403Y-129610557D01*
X98335197Y-129629803D01*
X101473000Y-132767606D01*
X101473000Y-142748000D01*
X89027000Y-142748000D01*
X89027000Y-142542684D01*
X89031868Y-142539431D01*
X89199431Y-142371868D01*
X89331085Y-142174834D01*
X89421770Y-141955902D01*
X89468000Y-141723485D01*
X89468000Y-141597413D01*
X91754192Y-141597413D01*
X91849956Y-141861814D01*
X92139571Y-142002704D01*
X92451108Y-142084384D01*
X92772595Y-142103718D01*
X93091675Y-142059961D01*
X93396088Y-141954795D01*
X93570044Y-141861814D01*
X93665808Y-141597413D01*
X96834192Y-141597413D01*
X96929956Y-141861814D01*
X97219571Y-142002704D01*
X97531108Y-142084384D01*
X97852595Y-142103718D01*
X98171675Y-142059961D01*
X98476088Y-141954795D01*
X98650044Y-141861814D01*
X98745808Y-141597413D01*
X97790000Y-140641605D01*
X96834192Y-141597413D01*
X93665808Y-141597413D01*
X92710000Y-140641605D01*
X91754192Y-141597413D01*
X89468000Y-141597413D01*
X89468000Y-141486515D01*
X89421770Y-141254098D01*
X89331085Y-141035166D01*
X89199431Y-140838132D01*
X89031868Y-140670569D01*
X89027000Y-140667316D01*
X89027000Y-140524595D01*
X91068282Y-140524595D01*
X91112039Y-140843675D01*
X91217205Y-141148088D01*
X91310186Y-141322044D01*
X91574587Y-141417808D01*
X92530395Y-140462000D01*
X92889605Y-140462000D01*
X93845413Y-141417808D01*
X94109814Y-141322044D01*
X94250704Y-141032429D01*
X94332384Y-140720892D01*
X94344189Y-140524595D01*
X96148282Y-140524595D01*
X96192039Y-140843675D01*
X96297205Y-141148088D01*
X96390186Y-141322044D01*
X96654587Y-141417808D01*
X97610395Y-140462000D01*
X97969605Y-140462000D01*
X98925413Y-141417808D01*
X99189814Y-141322044D01*
X99330704Y-141032429D01*
X99412384Y-140720892D01*
X99431718Y-140399405D01*
X99387961Y-140080325D01*
X99282795Y-139775912D01*
X99189814Y-139601956D01*
X98925413Y-139506192D01*
X97969605Y-140462000D01*
X97610395Y-140462000D01*
X96654587Y-139506192D01*
X96390186Y-139601956D01*
X96249296Y-139891571D01*
X96167616Y-140203108D01*
X96148282Y-140524595D01*
X94344189Y-140524595D01*
X94351718Y-140399405D01*
X94307961Y-140080325D01*
X94202795Y-139775912D01*
X94109814Y-139601956D01*
X93845413Y-139506192D01*
X92889605Y-140462000D01*
X92530395Y-140462000D01*
X91574587Y-139506192D01*
X91310186Y-139601956D01*
X91169296Y-139891571D01*
X91087616Y-140203108D01*
X91068282Y-140524595D01*
X89027000Y-140524595D01*
X89027000Y-139326587D01*
X91754192Y-139326587D01*
X92710000Y-140282395D01*
X93665808Y-139326587D01*
X96834192Y-139326587D01*
X97790000Y-140282395D01*
X98745808Y-139326587D01*
X98650044Y-139062186D01*
X98360429Y-138921296D01*
X98048892Y-138839616D01*
X97727405Y-138820282D01*
X97408325Y-138864039D01*
X97103912Y-138969205D01*
X96929956Y-139062186D01*
X96834192Y-139326587D01*
X93665808Y-139326587D01*
X93570044Y-139062186D01*
X93280429Y-138921296D01*
X92968892Y-138839616D01*
X92647405Y-138820282D01*
X92328325Y-138864039D01*
X92023912Y-138969205D01*
X91849956Y-139062186D01*
X91754192Y-139326587D01*
X89027000Y-139326587D01*
X89027000Y-133985000D01*
X89024560Y-133960224D01*
X89017333Y-133936399D01*
X89005597Y-133914443D01*
X88989803Y-133895197D01*
X88392000Y-133297394D01*
X88392000Y-126865413D01*
X91119192Y-126865413D01*
X91214956Y-127129814D01*
X91504571Y-127270704D01*
X91816108Y-127352384D01*
X92137595Y-127371718D01*
X92456675Y-127327961D01*
X92761088Y-127222795D01*
X92935044Y-127129814D01*
X93030808Y-126865413D01*
X92075000Y-125909605D01*
X91119192Y-126865413D01*
X88392000Y-126865413D01*
X88392000Y-125792595D01*
X90433282Y-125792595D01*
X90477039Y-126111675D01*
X90582205Y-126416088D01*
X90675186Y-126590044D01*
X90939587Y-126685808D01*
X91895395Y-125730000D01*
X92254605Y-125730000D01*
X93210413Y-126685808D01*
X93474814Y-126590044D01*
X93615704Y-126300429D01*
X93697384Y-125988892D01*
X93716718Y-125667405D01*
X93672961Y-125348325D01*
X93567795Y-125043912D01*
X93474814Y-124869956D01*
X93210413Y-124774192D01*
X92254605Y-125730000D01*
X91895395Y-125730000D01*
X90939587Y-124774192D01*
X90675186Y-124869956D01*
X90534296Y-125159571D01*
X90452616Y-125471108D01*
X90433282Y-125792595D01*
X88392000Y-125792595D01*
X88392000Y-124594587D01*
X91119192Y-124594587D01*
X92075000Y-125550395D01*
X93030808Y-124594587D01*
X92935044Y-124330186D01*
X92645429Y-124189296D01*
X92333892Y-124107616D01*
X92012405Y-124088282D01*
X91693325Y-124132039D01*
X91388912Y-124237205D01*
X91214956Y-124330186D01*
X91119192Y-124594587D01*
X88392000Y-124594587D01*
X88392000Y-121785413D01*
X91119192Y-121785413D01*
X91214956Y-122049814D01*
X91504571Y-122190704D01*
X91816108Y-122272384D01*
X92137595Y-122291718D01*
X92456675Y-122247961D01*
X92761088Y-122142795D01*
X92935044Y-122049814D01*
X93030808Y-121785413D01*
X92075000Y-120829605D01*
X91119192Y-121785413D01*
X88392000Y-121785413D01*
X88392000Y-120712595D01*
X90433282Y-120712595D01*
X90477039Y-121031675D01*
X90582205Y-121336088D01*
X90675186Y-121510044D01*
X90939587Y-121605808D01*
X91895395Y-120650000D01*
X92254605Y-120650000D01*
X93210413Y-121605808D01*
X93474814Y-121510044D01*
X93615704Y-121220429D01*
X93697384Y-120908892D01*
X93716718Y-120587405D01*
X93672961Y-120268325D01*
X93567795Y-119963912D01*
X93474814Y-119789956D01*
X93210413Y-119694192D01*
X92254605Y-120650000D01*
X91895395Y-120650000D01*
X90939587Y-119694192D01*
X90675186Y-119789956D01*
X90534296Y-120079571D01*
X90452616Y-120391108D01*
X90433282Y-120712595D01*
X88392000Y-120712595D01*
X88392000Y-119514587D01*
X91119192Y-119514587D01*
X92075000Y-120470395D01*
X93030808Y-119514587D01*
X92935044Y-119250186D01*
X92645429Y-119109296D01*
X92333892Y-119027616D01*
X92012405Y-119008282D01*
X91693325Y-119052039D01*
X91388912Y-119157205D01*
X91214956Y-119250186D01*
X91119192Y-119514587D01*
X88392000Y-119514587D01*
X88392000Y-116967000D01*
X98298000Y-116967000D01*
X98298000Y-129540000D01*
G37*
%TD.AperFunction*%
%TD*%
D19*
%TO.N,DRAIN2*%
X114034110Y-133493587D02*
X114204270Y-133564069D01*
X114300000Y-133583111D01*
X114300000Y-142748000D01*
X103632000Y-142748000D01*
X103632000Y-141737115D01*
X111647387Y-141737115D01*
X111761154Y-141968999D01*
X112067334Y-142063699D01*
X112386107Y-142096847D01*
X112705220Y-142067169D01*
X113012413Y-141975805D01*
X113028846Y-141968999D01*
X113142613Y-141737115D01*
X112395000Y-140989502D01*
X111647387Y-141737115D01*
X103632000Y-141737115D01*
X103632000Y-140453107D01*
X110760153Y-140453107D01*
X110789831Y-140772220D01*
X110881195Y-141079413D01*
X110888001Y-141095846D01*
X111119885Y-141209613D01*
X111867498Y-140462000D01*
X112922502Y-140462000D01*
X113670115Y-141209613D01*
X113901999Y-141095846D01*
X113996699Y-140789666D01*
X114029847Y-140470893D01*
X114000169Y-140151780D01*
X113908805Y-139844587D01*
X113901999Y-139828154D01*
X113670115Y-139714387D01*
X112922502Y-140462000D01*
X111867498Y-140462000D01*
X111119885Y-139714387D01*
X110888001Y-139828154D01*
X110793301Y-140134334D01*
X110760153Y-140453107D01*
X103632000Y-140453107D01*
X103632000Y-139186885D01*
X111647387Y-139186885D01*
X112395000Y-139934498D01*
X113142613Y-139186885D01*
X113028846Y-138955001D01*
X112722666Y-138860301D01*
X112403893Y-138827153D01*
X112084780Y-138856831D01*
X111777587Y-138948195D01*
X111761154Y-138955001D01*
X111647387Y-139186885D01*
X103632000Y-139186885D01*
X103632000Y-133477000D01*
X114009286Y-133477000D01*
X114034110Y-133493587D01*
%TA.AperFunction,Conductor*%
D18*
G36*
X114034110Y-133493587D02*
G01*
X114204270Y-133564069D01*
X114300000Y-133583111D01*
X114300000Y-142748000D01*
X103632000Y-142748000D01*
X103632000Y-141737115D01*
X111647387Y-141737115D01*
X111761154Y-141968999D01*
X112067334Y-142063699D01*
X112386107Y-142096847D01*
X112705220Y-142067169D01*
X113012413Y-141975805D01*
X113028846Y-141968999D01*
X113142613Y-141737115D01*
X112395000Y-140989502D01*
X111647387Y-141737115D01*
X103632000Y-141737115D01*
X103632000Y-140453107D01*
X110760153Y-140453107D01*
X110789831Y-140772220D01*
X110881195Y-141079413D01*
X110888001Y-141095846D01*
X111119885Y-141209613D01*
X111867498Y-140462000D01*
X112922502Y-140462000D01*
X113670115Y-141209613D01*
X113901999Y-141095846D01*
X113996699Y-140789666D01*
X114029847Y-140470893D01*
X114000169Y-140151780D01*
X113908805Y-139844587D01*
X113901999Y-139828154D01*
X113670115Y-139714387D01*
X112922502Y-140462000D01*
X111867498Y-140462000D01*
X111119885Y-139714387D01*
X110888001Y-139828154D01*
X110793301Y-140134334D01*
X110760153Y-140453107D01*
X103632000Y-140453107D01*
X103632000Y-139186885D01*
X111647387Y-139186885D01*
X112395000Y-139934498D01*
X113142613Y-139186885D01*
X113028846Y-138955001D01*
X112722666Y-138860301D01*
X112403893Y-138827153D01*
X112084780Y-138856831D01*
X111777587Y-138948195D01*
X111761154Y-138955001D01*
X111647387Y-139186885D01*
X103632000Y-139186885D01*
X103632000Y-133477000D01*
X114009286Y-133477000D01*
X114034110Y-133493587D01*
G37*
%TD.AperFunction*%
%TD*%
D19*
%TO.N,DRAIN1*%
X126238000Y-142748000D02*
X115062000Y-142748000D01*
X115062000Y-141737115D01*
X116727387Y-141737115D01*
X116841154Y-141968999D01*
X117147334Y-142063699D01*
X117466107Y-142096847D01*
X117785220Y-142067169D01*
X118092413Y-141975805D01*
X118108846Y-141968999D01*
X118222613Y-141737115D01*
X117475000Y-140989502D01*
X116727387Y-141737115D01*
X115062000Y-141737115D01*
X115062000Y-140453107D01*
X115840153Y-140453107D01*
X115869831Y-140772220D01*
X115961195Y-141079413D01*
X115968001Y-141095846D01*
X116199885Y-141209613D01*
X116947498Y-140462000D01*
X118002502Y-140462000D01*
X118750115Y-141209613D01*
X118981999Y-141095846D01*
X119076699Y-140789666D01*
X119109847Y-140470893D01*
X119080169Y-140151780D01*
X118988805Y-139844587D01*
X118981999Y-139828154D01*
X118750115Y-139714387D01*
X118002502Y-140462000D01*
X116947498Y-140462000D01*
X116199885Y-139714387D01*
X115968001Y-139828154D01*
X115873301Y-140134334D01*
X115840153Y-140453107D01*
X115062000Y-140453107D01*
X115062000Y-139186885D01*
X116727387Y-139186885D01*
X117475000Y-139934498D01*
X118222613Y-139186885D01*
X118108846Y-138955001D01*
X117802666Y-138860301D01*
X117483893Y-138827153D01*
X117164780Y-138856831D01*
X116857587Y-138948195D01*
X116841154Y-138955001D01*
X116727387Y-139186885D01*
X115062000Y-139186885D01*
X115062000Y-133477000D01*
X126238000Y-133477000D01*
X126238000Y-142748000D01*
%TA.AperFunction,Conductor*%
D18*
G36*
X126238000Y-142748000D02*
G01*
X115062000Y-142748000D01*
X115062000Y-141737115D01*
X116727387Y-141737115D01*
X116841154Y-141968999D01*
X117147334Y-142063699D01*
X117466107Y-142096847D01*
X117785220Y-142067169D01*
X118092413Y-141975805D01*
X118108846Y-141968999D01*
X118222613Y-141737115D01*
X117475000Y-140989502D01*
X116727387Y-141737115D01*
X115062000Y-141737115D01*
X115062000Y-140453107D01*
X115840153Y-140453107D01*
X115869831Y-140772220D01*
X115961195Y-141079413D01*
X115968001Y-141095846D01*
X116199885Y-141209613D01*
X116947498Y-140462000D01*
X118002502Y-140462000D01*
X118750115Y-141209613D01*
X118981999Y-141095846D01*
X119076699Y-140789666D01*
X119109847Y-140470893D01*
X119080169Y-140151780D01*
X118988805Y-139844587D01*
X118981999Y-139828154D01*
X118750115Y-139714387D01*
X118002502Y-140462000D01*
X116947498Y-140462000D01*
X116199885Y-139714387D01*
X115968001Y-139828154D01*
X115873301Y-140134334D01*
X115840153Y-140453107D01*
X115062000Y-140453107D01*
X115062000Y-139186885D01*
X116727387Y-139186885D01*
X117475000Y-139934498D01*
X118222613Y-139186885D01*
X118108846Y-138955001D01*
X117802666Y-138860301D01*
X117483893Y-138827153D01*
X117164780Y-138856831D01*
X116857587Y-138948195D01*
X116841154Y-138955001D01*
X116727387Y-139186885D01*
X115062000Y-139186885D01*
X115062000Y-133477000D01*
X126238000Y-133477000D01*
X126238000Y-142748000D01*
G37*
%TD.AperFunction*%
%TD*%
M02*
