M48
; DRILL file {KiCad 5.1.10} date Fri Dec 31 02:57:04 2021
; FORMAT={-:-/ absolute / metric / decimal}
; #@! TF.CreationDate,2021-12-31T02:57:04+02:00
; #@! TF.GenerationSoftware,Kicad,Pcbnew,5.1.10
; #@! TF.FileFunction,Plated,1,4,PTH
FMAT,2
METRIC
T1C0.300
T2C0.700
T3C1.000
T4C1.100
T5C1.200
T6C2.100
%
G90
G05
T1
X77.632Y-99.568
X77.65Y-98.534
X78.232Y-88.9
X79.248Y-100.076
X79.248Y-101.092
X79.375Y-109.207
X79.375Y-111.747
X79.375Y-114.3
X79.375Y-116.84
X79.375Y-119.38
X80.01Y-90.386
X80.01Y-91.402
X81.788Y-98.768
X81.915Y-114.3
X81.915Y-116.84
X81.915Y-119.38
X84.074Y-93.688
X84.455Y-109.207
X84.455Y-111.76
X84.455Y-114.3
X84.455Y-116.84
X84.455Y-119.38
X84.455Y-121.907
X84.455Y-124.46
X84.836Y-98.768
X86.995Y-101.6
X86.995Y-104.14
X86.995Y-106.68
X86.995Y-111.76
X86.995Y-114.3
X86.995Y-116.84
X86.995Y-124.46
X87.333Y-85.809
X89.522Y-119.38
X89.535Y-101.6
X89.535Y-104.14
X89.535Y-106.68
X89.535Y-111.747
X89.535Y-114.3
X89.535Y-116.84
X89.535Y-121.907
X89.535Y-124.46
X89.916Y-93.726
X91.186Y-97.028
X91.948Y-87.884
X92.075Y-101.6
X92.075Y-104.14
X92.075Y-106.68
X92.075Y-114.287
X92.075Y-116.84
X92.075Y-124.46
X92.964Y-87.884
X93.815Y-91.529
X94.615Y-101.6
X94.615Y-104.14
X94.615Y-106.68
X96.266Y-87.084
X96.52Y-108.712
X96.716Y-86.414
X97.155Y-101.6
X97.155Y-104.14
X97.155Y-106.68
X97.282Y-85.814
X97.79Y-114.3
X97.79Y-116.84
X97.79Y-119.38
X97.79Y-121.92
X97.79Y-124.46
X98.552Y-87.846
X98.552Y-90.386
X98.552Y-97.028
X99.695Y-101.6
X99.695Y-104.14
X99.695Y-106.68
X99.822Y-85.814
X100.33Y-114.3
X100.33Y-116.84
X100.33Y-119.38
X100.33Y-121.92
X100.33Y-124.46
X100.391Y-86.411
X100.838Y-87.084
X101.579Y-83.29
X101.6Y-84.582
X101.6Y-85.824
X102.108Y-108.712
X102.235Y-101.6
X102.235Y-104.14
X102.235Y-106.68
X102.87Y-114.3
X102.87Y-116.84
X102.87Y-119.38
X102.87Y-121.92
X102.87Y-124.46
X104.775Y-101.6
X104.775Y-104.14
X104.775Y-106.68
X105.41Y-114.3
X105.41Y-116.84
X105.41Y-124.46
X106.426Y-98.933
X106.934Y-95.212
X107.315Y-101.6
X107.315Y-104.14
X107.315Y-106.68
X107.48Y-93.726
X109.728Y-93.726
X109.728Y-95.212
X109.728Y-108.712
X109.855Y-101.6
X109.855Y-104.14
X109.855Y-106.68
X110.49Y-114.3
X110.49Y-116.84
X110.49Y-124.46
X112.395Y-101.6
X112.395Y-104.14
X112.395Y-106.68
X113.03Y-114.3
X113.03Y-116.84
X113.03Y-119.38
X113.03Y-121.92
X113.03Y-124.46
X114.935Y-101.6
X114.935Y-104.14
X114.935Y-106.68
X115.316Y-108.712
X115.57Y-114.3
X115.57Y-116.84
X115.57Y-119.38
X115.57Y-121.92
X115.57Y-124.46
X116.078Y-93.726
X116.84Y-98.933
X117.348Y-95.212
X117.475Y-101.6
X117.475Y-104.14
X117.475Y-106.68
X118.11Y-114.3
X118.11Y-116.84
X118.11Y-119.38
X118.11Y-121.92
X118.11Y-124.46
X118.364Y-93.726
X120.015Y-101.6
X120.015Y-104.14
X120.015Y-106.68
X120.142Y-95.212
X121.412Y-101.6
X122.428Y-101.6
X124.46Y-101.6
X124.46Y-104.14
X124.46Y-106.68
T2
X103.378Y-89.154
T3
X79.502Y-80.264
X79.502Y-82.804
X82.042Y-80.264
X82.042Y-82.804
X84.582Y-80.264
X84.582Y-82.804
X87.122Y-80.264
X87.122Y-82.804
X89.662Y-80.264
X89.662Y-82.804
X92.202Y-80.264
X92.202Y-82.804
X94.742Y-80.264
X94.742Y-82.804
X97.282Y-80.264
X97.282Y-82.804
X99.822Y-80.264
X99.822Y-82.804
T4
X114.935Y-79.726
T5
X81.788Y-104.648
X81.788Y-109.728
X86.995Y-120.739
X92.075Y-120.739
X105.41Y-120.739
X109.385Y-82.426
X109.385Y-90.726
X110.49Y-120.739
X120.485Y-82.426
X120.885Y-90.026
T6
X108.935Y-86.076G85X108.935Y-87.176
G05
X120.935Y-86.076G85X120.935Y-87.176
G05
T0
M30
