G04 #@! TF.GenerationSoftware,KiCad,Pcbnew,5.1.10*
G04 #@! TF.CreationDate,2022-01-01T15:26:54+02:00*
G04 #@! TF.ProjectId,pwm-controller,70776d2d-636f-46e7-9472-6f6c6c65722e,rev?*
G04 #@! TF.SameCoordinates,Original*
G04 #@! TF.FileFunction,Legend,Top*
G04 #@! TF.FilePolarity,Positive*
%FSLAX46Y46*%
G04 Gerber Fmt 4.6, Leading zero omitted, Abs format (unit mm)*
G04 Created by KiCad (PCBNEW 5.1.10) date 2022-01-01 15:26:54*
%MOMM*%
%LPD*%
G01*
G04 APERTURE LIST*
%ADD10C,0.300000*%
%ADD11C,0.120000*%
%ADD12C,0.150000*%
%ADD13C,0.200000*%
%ADD14C,0.100000*%
%ADD15R,0.405000X0.990000*%
%ADD16C,2.200000*%
%ADD17C,1.500000*%
%ADD18R,1.200000X0.900000*%
%ADD19O,1.700000X1.700000*%
%ADD20R,1.700000X1.700000*%
%ADD21C,1.800000*%
%ADD22C,2.000000*%
%ADD23R,0.800000X0.900000*%
%ADD24R,0.900000X1.300000*%
%ADD25R,0.900000X0.800000*%
%ADD26C,1.310000*%
G04 APERTURE END LIST*
D10*
X96592857Y-103548571D02*
X96592857Y-102048571D01*
X97092857Y-103120000D01*
X97592857Y-102048571D01*
X97592857Y-103548571D01*
X98950000Y-103548571D02*
X98950000Y-102762857D01*
X98878571Y-102620000D01*
X98735714Y-102548571D01*
X98450000Y-102548571D01*
X98307142Y-102620000D01*
X98950000Y-103477142D02*
X98807142Y-103548571D01*
X98450000Y-103548571D01*
X98307142Y-103477142D01*
X98235714Y-103334285D01*
X98235714Y-103191428D01*
X98307142Y-103048571D01*
X98450000Y-102977142D01*
X98807142Y-102977142D01*
X98950000Y-102905714D01*
X99664285Y-103548571D02*
X99664285Y-102548571D01*
X99664285Y-102834285D02*
X99735714Y-102691428D01*
X99807142Y-102620000D01*
X99950000Y-102548571D01*
X100092857Y-102548571D01*
X100592857Y-103548571D02*
X100592857Y-102048571D01*
X100735714Y-102977142D02*
X101164285Y-103548571D01*
X101164285Y-102548571D02*
X100592857Y-103120000D01*
X102950000Y-103548571D02*
X102950000Y-102048571D01*
X103807142Y-103548571D02*
X103164285Y-102691428D01*
X103807142Y-102048571D02*
X102950000Y-102905714D01*
X105092857Y-102548571D02*
X105092857Y-103548571D01*
X104450000Y-102548571D02*
X104450000Y-103334285D01*
X104521428Y-103477142D01*
X104664285Y-103548571D01*
X104878571Y-103548571D01*
X105021428Y-103477142D01*
X105092857Y-103405714D01*
X106450000Y-103477142D02*
X106307142Y-103548571D01*
X106021428Y-103548571D01*
X105878571Y-103477142D01*
X105807142Y-103405714D01*
X105735714Y-103262857D01*
X105735714Y-102834285D01*
X105807142Y-102691428D01*
X105878571Y-102620000D01*
X106021428Y-102548571D01*
X106307142Y-102548571D01*
X106450000Y-102620000D01*
X107092857Y-103548571D02*
X107092857Y-102048571D01*
X107235714Y-102977142D02*
X107664285Y-103548571D01*
X107664285Y-102548571D02*
X107092857Y-103120000D01*
X108307142Y-103548571D02*
X108307142Y-102548571D01*
X108307142Y-102048571D02*
X108235714Y-102120000D01*
X108307142Y-102191428D01*
X108378571Y-102120000D01*
X108307142Y-102048571D01*
X108307142Y-102191428D01*
X109664285Y-103548571D02*
X109664285Y-102762857D01*
X109592857Y-102620000D01*
X109450000Y-102548571D01*
X109164285Y-102548571D01*
X109021428Y-102620000D01*
X109664285Y-103477142D02*
X109521428Y-103548571D01*
X109164285Y-103548571D01*
X109021428Y-103477142D01*
X108950000Y-103334285D01*
X108950000Y-103191428D01*
X109021428Y-103048571D01*
X109164285Y-102977142D01*
X109521428Y-102977142D01*
X109664285Y-102905714D01*
X110378571Y-102548571D02*
X110378571Y-103548571D01*
X110378571Y-102691428D02*
X110450000Y-102620000D01*
X110592857Y-102548571D01*
X110807142Y-102548571D01*
X110950000Y-102620000D01*
X111021428Y-102762857D01*
X111021428Y-103548571D01*
X113735714Y-103405714D02*
X113664285Y-103477142D01*
X113450000Y-103548571D01*
X113307142Y-103548571D01*
X113092857Y-103477142D01*
X112950000Y-103334285D01*
X112878571Y-103191428D01*
X112807142Y-102905714D01*
X112807142Y-102691428D01*
X112878571Y-102405714D01*
X112950000Y-102262857D01*
X113092857Y-102120000D01*
X113307142Y-102048571D01*
X113450000Y-102048571D01*
X113664285Y-102120000D01*
X113735714Y-102191428D01*
X114592857Y-103548571D02*
X114450000Y-103477142D01*
X114378571Y-103405714D01*
X114307142Y-103262857D01*
X114307142Y-102834285D01*
X114378571Y-102691428D01*
X114450000Y-102620000D01*
X114592857Y-102548571D01*
X114807142Y-102548571D01*
X114950000Y-102620000D01*
X115021428Y-102691428D01*
X115092857Y-102834285D01*
X115092857Y-103262857D01*
X115021428Y-103405714D01*
X114950000Y-103477142D01*
X114807142Y-103548571D01*
X114592857Y-103548571D01*
X115592857Y-102548571D02*
X115878571Y-103548571D01*
X116164285Y-102834285D01*
X116450000Y-103548571D01*
X116735714Y-102548571D01*
X117950000Y-103548571D02*
X117950000Y-102762857D01*
X117878571Y-102620000D01*
X117735714Y-102548571D01*
X117450000Y-102548571D01*
X117307142Y-102620000D01*
X117950000Y-103477142D02*
X117807142Y-103548571D01*
X117450000Y-103548571D01*
X117307142Y-103477142D01*
X117235714Y-103334285D01*
X117235714Y-103191428D01*
X117307142Y-103048571D01*
X117450000Y-102977142D01*
X117807142Y-102977142D01*
X117950000Y-102905714D01*
X118664285Y-102548571D02*
X118664285Y-103548571D01*
X118664285Y-102691428D02*
X118735714Y-102620000D01*
X118878571Y-102548571D01*
X119092857Y-102548571D01*
X119235714Y-102620000D01*
X119307142Y-102762857D01*
X119307142Y-103548571D01*
D11*
X81166580Y-91696000D02*
X80885420Y-91696000D01*
X81166580Y-90676000D02*
X80885420Y-90676000D01*
X81426164Y-89556000D02*
X81641836Y-89556000D01*
X81426164Y-90276000D02*
X81641836Y-90276000D01*
X79348359Y-86742000D02*
X79655641Y-86742000D01*
X79348359Y-87502000D02*
X79655641Y-87502000D01*
X81380359Y-86704000D02*
X81687641Y-86704000D01*
X81380359Y-87464000D02*
X81687641Y-87464000D01*
X81380359Y-85688000D02*
X81687641Y-85688000D01*
X81380359Y-86448000D02*
X81687641Y-86448000D01*
X90804000Y-95096359D02*
X90804000Y-95403641D01*
X90044000Y-95096359D02*
X90044000Y-95403641D01*
X105775000Y-108620000D02*
X105775000Y-112125000D01*
X102505000Y-108855000D02*
X102505000Y-112125000D01*
X102840000Y-108855000D02*
X102505000Y-108855000D01*
X102840000Y-112125000D02*
X102505000Y-112125000D01*
X105775000Y-112125000D02*
X105440000Y-112125000D01*
X118983000Y-108620000D02*
X118983000Y-112125000D01*
X115713000Y-108855000D02*
X115713000Y-112125000D01*
X116048000Y-108855000D02*
X115713000Y-108855000D01*
X116048000Y-112125000D02*
X115713000Y-112125000D01*
X118983000Y-112125000D02*
X118648000Y-112125000D01*
X98170000Y-95096359D02*
X98170000Y-95403641D01*
X97410000Y-95096359D02*
X97410000Y-95403641D01*
X97154000Y-95096359D02*
X97154000Y-95403641D01*
X96394000Y-95096359D02*
X96394000Y-95403641D01*
X89788000Y-95096359D02*
X89788000Y-95403641D01*
X89028000Y-95096359D02*
X89028000Y-95403641D01*
X93117641Y-86448000D02*
X92810359Y-86448000D01*
X93117641Y-85688000D02*
X92810359Y-85688000D01*
X100187000Y-112125000D02*
X99852000Y-112125000D01*
X97252000Y-112125000D02*
X96917000Y-112125000D01*
X97252000Y-108855000D02*
X96917000Y-108855000D01*
X96917000Y-108855000D02*
X96917000Y-112125000D01*
X100187000Y-108620000D02*
X100187000Y-112125000D01*
X113395000Y-112125000D02*
X113060000Y-112125000D01*
X110460000Y-112125000D02*
X110125000Y-112125000D01*
X110460000Y-108855000D02*
X110125000Y-108855000D01*
X110125000Y-108855000D02*
X110125000Y-112125000D01*
X113395000Y-108620000D02*
X113395000Y-112125000D01*
X83755000Y-124723000D02*
X83755000Y-125223000D01*
X83755000Y-117247000D02*
X83755000Y-117747000D01*
X84355000Y-116239000D02*
X84355000Y-126239000D01*
X94715000Y-116239000D02*
X94715000Y-126239000D01*
D12*
X84355000Y-126239000D02*
X85725000Y-126239000D01*
X85725000Y-126239000D02*
X85725000Y-125739000D01*
X85725000Y-125739000D02*
X88265000Y-125739000D01*
X88265000Y-125739000D02*
X88265000Y-126239000D01*
X88265000Y-126239000D02*
X90805000Y-126239000D01*
X90805000Y-126239000D02*
X90805000Y-125739000D01*
X90805000Y-125739000D02*
X93345000Y-125739000D01*
X93345000Y-125739000D02*
X93345000Y-126239000D01*
X93345000Y-126239000D02*
X94715000Y-126239000D01*
D11*
X84355000Y-116239000D02*
X94715000Y-116239000D01*
X104328000Y-89154000D02*
G75*
G03*
X104328000Y-89154000I-950000J0D01*
G01*
X86376000Y-98516000D02*
X88376000Y-98516000D01*
X88376000Y-98516000D02*
X88376000Y-94616000D01*
X86376000Y-98516000D02*
X86376000Y-94616000D01*
X78232000Y-84074000D02*
X78232000Y-82804000D01*
X79502000Y-84074000D02*
X78232000Y-84074000D01*
X100202000Y-81761071D02*
X100202000Y-81306929D01*
X99442000Y-81761071D02*
X99442000Y-81306929D01*
X100202000Y-79221071D02*
X100202000Y-78824000D01*
X99442000Y-79221071D02*
X99442000Y-78824000D01*
X100202000Y-70164000D02*
X100202000Y-76164000D01*
X99442000Y-70164000D02*
X100202000Y-70164000D01*
X99442000Y-76164000D02*
X99442000Y-70164000D01*
X98552000Y-78824000D02*
X98552000Y-76164000D01*
X97662000Y-81761071D02*
X97662000Y-81306929D01*
X96902000Y-81761071D02*
X96902000Y-81306929D01*
X97662000Y-79221071D02*
X97662000Y-78824000D01*
X96902000Y-79221071D02*
X96902000Y-78824000D01*
X97662000Y-70164000D02*
X97662000Y-76164000D01*
X96902000Y-70164000D02*
X97662000Y-70164000D01*
X96902000Y-76164000D02*
X96902000Y-70164000D01*
X96012000Y-78824000D02*
X96012000Y-76164000D01*
X95122000Y-81761071D02*
X95122000Y-81306929D01*
X94362000Y-81761071D02*
X94362000Y-81306929D01*
X95122000Y-79221071D02*
X95122000Y-78824000D01*
X94362000Y-79221071D02*
X94362000Y-78824000D01*
X95122000Y-70164000D02*
X95122000Y-76164000D01*
X94362000Y-70164000D02*
X95122000Y-70164000D01*
X94362000Y-76164000D02*
X94362000Y-70164000D01*
X93472000Y-78824000D02*
X93472000Y-76164000D01*
X92582000Y-81761071D02*
X92582000Y-81306929D01*
X91822000Y-81761071D02*
X91822000Y-81306929D01*
X92582000Y-79221071D02*
X92582000Y-78824000D01*
X91822000Y-79221071D02*
X91822000Y-78824000D01*
X92582000Y-70164000D02*
X92582000Y-76164000D01*
X91822000Y-70164000D02*
X92582000Y-70164000D01*
X91822000Y-76164000D02*
X91822000Y-70164000D01*
X90932000Y-78824000D02*
X90932000Y-76164000D01*
X90042000Y-81761071D02*
X90042000Y-81306929D01*
X89282000Y-81761071D02*
X89282000Y-81306929D01*
X90042000Y-79221071D02*
X90042000Y-78824000D01*
X89282000Y-79221071D02*
X89282000Y-78824000D01*
X90042000Y-70164000D02*
X90042000Y-76164000D01*
X89282000Y-70164000D02*
X90042000Y-70164000D01*
X89282000Y-76164000D02*
X89282000Y-70164000D01*
X88392000Y-78824000D02*
X88392000Y-76164000D01*
X87502000Y-81761071D02*
X87502000Y-81306929D01*
X86742000Y-81761071D02*
X86742000Y-81306929D01*
X87502000Y-79221071D02*
X87502000Y-78824000D01*
X86742000Y-79221071D02*
X86742000Y-78824000D01*
X87502000Y-70164000D02*
X87502000Y-76164000D01*
X86742000Y-70164000D02*
X87502000Y-70164000D01*
X86742000Y-76164000D02*
X86742000Y-70164000D01*
X85852000Y-78824000D02*
X85852000Y-76164000D01*
X84962000Y-81761071D02*
X84962000Y-81306929D01*
X84202000Y-81761071D02*
X84202000Y-81306929D01*
X84962000Y-79221071D02*
X84962000Y-78824000D01*
X84202000Y-79221071D02*
X84202000Y-78824000D01*
X84962000Y-70164000D02*
X84962000Y-76164000D01*
X84202000Y-70164000D02*
X84962000Y-70164000D01*
X84202000Y-76164000D02*
X84202000Y-70164000D01*
X83312000Y-78824000D02*
X83312000Y-76164000D01*
X82422000Y-81761071D02*
X82422000Y-81306929D01*
X81662000Y-81761071D02*
X81662000Y-81306929D01*
X82422000Y-79221071D02*
X82422000Y-78824000D01*
X81662000Y-79221071D02*
X81662000Y-78824000D01*
X82422000Y-70164000D02*
X82422000Y-76164000D01*
X81662000Y-70164000D02*
X82422000Y-70164000D01*
X81662000Y-76164000D02*
X81662000Y-70164000D01*
X80772000Y-78824000D02*
X80772000Y-76164000D01*
X79882000Y-81694000D02*
X79882000Y-81306929D01*
X79122000Y-81694000D02*
X79122000Y-81306929D01*
X79882000Y-79221071D02*
X79882000Y-78824000D01*
X79122000Y-79221071D02*
X79122000Y-78824000D01*
X79782000Y-76164000D02*
X79782000Y-70164000D01*
X79662000Y-76164000D02*
X79662000Y-70164000D01*
X79542000Y-76164000D02*
X79542000Y-70164000D01*
X79422000Y-76164000D02*
X79422000Y-70164000D01*
X79302000Y-76164000D02*
X79302000Y-70164000D01*
X79182000Y-76164000D02*
X79182000Y-70164000D01*
X79882000Y-70164000D02*
X79882000Y-76164000D01*
X79122000Y-70164000D02*
X79882000Y-70164000D01*
X79122000Y-76164000D02*
X79122000Y-70164000D01*
X78172000Y-76164000D02*
X78172000Y-78824000D01*
X101152000Y-76164000D02*
X78172000Y-76164000D01*
X101152000Y-78824000D02*
X101152000Y-76164000D01*
X78172000Y-78824000D02*
X101152000Y-78824000D01*
D12*
X123214387Y-86576000D02*
G75*
G03*
X123214387Y-86576000I-8279387J0D01*
G01*
D11*
X117935000Y-86576000D02*
G75*
G03*
X117935000Y-86576000I-3000000J0D01*
G01*
X114935000Y-86076000D02*
X114935000Y-87076000D01*
X114435000Y-86576000D02*
X115435000Y-86576000D01*
D12*
X109935000Y-90076000D02*
X113435000Y-90076000D01*
X119935000Y-90076000D02*
X116435000Y-90076000D01*
X113435000Y-90076000D02*
X116435000Y-91076000D01*
X109435000Y-84076000D02*
X109935000Y-84076000D01*
X109935000Y-84076000D02*
X109935000Y-83076000D01*
X109935000Y-83076000D02*
X110935000Y-83076000D01*
X110935000Y-83076000D02*
X110935000Y-84076000D01*
X110935000Y-84076000D02*
X111935000Y-84076000D01*
X111935000Y-84076000D02*
X111935000Y-83076000D01*
X111935000Y-83076000D02*
X112935000Y-83076000D01*
X116935000Y-84076000D02*
X117935000Y-84076000D01*
X117935000Y-84076000D02*
X117935000Y-83076000D01*
X117935000Y-83076000D02*
X118935000Y-83076000D01*
X118935000Y-83076000D02*
X118935000Y-84076000D01*
X118935000Y-84076000D02*
X119935000Y-84076000D01*
X119935000Y-84076000D02*
X119935000Y-83076000D01*
X119935000Y-83076000D02*
X120435000Y-83076000D01*
D11*
X93071836Y-86724000D02*
X92856164Y-86724000D01*
X93071836Y-87444000D02*
X92856164Y-87444000D01*
X80248000Y-93762000D02*
X80248000Y-97662000D01*
X78248000Y-93762000D02*
X78248000Y-97662000D01*
X80248000Y-93762000D02*
X78248000Y-93762000D01*
X97382359Y-89280000D02*
X97689641Y-89280000D01*
X97382359Y-88520000D02*
X97689641Y-88520000D01*
X99721641Y-88520000D02*
X99414359Y-88520000D01*
X99721641Y-89280000D02*
X99414359Y-89280000D01*
D13*
X102889164Y-86174000D02*
X103104836Y-86174000D01*
X102889164Y-85454000D02*
X103104836Y-85454000D01*
X102889164Y-83634000D02*
X103104836Y-83634000D01*
X102889164Y-82914000D02*
X103104836Y-82914000D01*
X102889164Y-84904000D02*
X103104836Y-84904000D01*
X102889164Y-84184000D02*
X103104836Y-84184000D01*
X86649000Y-92239000D02*
X88849000Y-92239000D01*
X86649000Y-92239000D02*
X84449000Y-92239000D01*
X86649000Y-85469000D02*
X88849000Y-85469000D01*
X86649000Y-85469000D02*
X83049000Y-85469000D01*
D11*
X84943836Y-94128000D02*
X84728164Y-94128000D01*
X84943836Y-94848000D02*
X84728164Y-94848000D01*
X92101641Y-91530000D02*
X91794359Y-91530000D01*
X92101641Y-92290000D02*
X91794359Y-92290000D01*
X92101641Y-90514000D02*
X91794359Y-90514000D01*
X92101641Y-91274000D02*
X91794359Y-91274000D01*
X95376000Y-95403641D02*
X95376000Y-95096359D01*
X94616000Y-95403641D02*
X94616000Y-95096359D01*
X101307000Y-98071000D02*
X99022000Y-98071000D01*
X101307000Y-99541000D02*
X101307000Y-98071000D01*
X99022000Y-99541000D02*
X101307000Y-99541000D01*
X93941000Y-98071000D02*
X91656000Y-98071000D01*
X93941000Y-99541000D02*
X93941000Y-98071000D01*
X91656000Y-99541000D02*
X93941000Y-99541000D01*
X102742000Y-95403641D02*
X102742000Y-95096359D01*
X101982000Y-95403641D02*
X101982000Y-95096359D01*
X98496000Y-96772000D02*
X98496000Y-95312000D01*
X101656000Y-96772000D02*
X101656000Y-94612000D01*
X101656000Y-96772000D02*
X100726000Y-96772000D01*
X98496000Y-96772000D02*
X99426000Y-96772000D01*
X91130000Y-96772000D02*
X91130000Y-95312000D01*
X94290000Y-96772000D02*
X94290000Y-94612000D01*
X94290000Y-96772000D02*
X93360000Y-96772000D01*
X91130000Y-96772000D02*
X92060000Y-96772000D01*
X105182641Y-83654000D02*
X104875359Y-83654000D01*
X105182641Y-82894000D02*
X104875359Y-82894000D01*
X105182641Y-84924000D02*
X104875359Y-84924000D01*
X105182641Y-84164000D02*
X104875359Y-84164000D01*
X104875359Y-85434000D02*
X105182641Y-85434000D01*
X104875359Y-86194000D02*
X105182641Y-86194000D01*
X82262000Y-99704000D02*
X80952000Y-99704000D01*
X80952000Y-99704000D02*
X80952000Y-96984000D01*
X85442000Y-95844000D02*
X85442000Y-96984000D01*
X85672000Y-99704000D02*
X84362000Y-99704000D01*
X85672000Y-96984000D02*
X85672000Y-99704000D01*
X85672000Y-96984000D02*
X85442000Y-96984000D01*
X80952000Y-96984000D02*
X81182000Y-96984000D01*
X86288000Y-102008000D02*
X86288000Y-112368000D01*
D12*
X76288000Y-110998000D02*
X76288000Y-112368000D01*
X76788000Y-110998000D02*
X76288000Y-110998000D01*
X76788000Y-108458000D02*
X76788000Y-110998000D01*
X76288000Y-108458000D02*
X76788000Y-108458000D01*
X76288000Y-105918000D02*
X76288000Y-108458000D01*
X76788000Y-105918000D02*
X76288000Y-105918000D01*
X76788000Y-103378000D02*
X76788000Y-105918000D01*
X76288000Y-103378000D02*
X76788000Y-103378000D01*
X76288000Y-102008000D02*
X76288000Y-103378000D01*
D11*
X86288000Y-112368000D02*
X76288000Y-112368000D01*
X86288000Y-102008000D02*
X76288000Y-102008000D01*
X85280000Y-101408000D02*
X84780000Y-101408000D01*
X77804000Y-101408000D02*
X77304000Y-101408000D01*
X102170000Y-124723000D02*
X102170000Y-125223000D01*
X102170000Y-117247000D02*
X102170000Y-117747000D01*
X102770000Y-116239000D02*
X102770000Y-126239000D01*
X113130000Y-116239000D02*
X113130000Y-126239000D01*
D12*
X102770000Y-126239000D02*
X104140000Y-126239000D01*
X104140000Y-126239000D02*
X104140000Y-125739000D01*
X104140000Y-125739000D02*
X106680000Y-125739000D01*
X106680000Y-125739000D02*
X106680000Y-126239000D01*
X106680000Y-126239000D02*
X109220000Y-126239000D01*
X109220000Y-126239000D02*
X109220000Y-125739000D01*
X109220000Y-125739000D02*
X111760000Y-125739000D01*
X111760000Y-125739000D02*
X111760000Y-126239000D01*
X111760000Y-126239000D02*
X113130000Y-126239000D01*
D11*
X102770000Y-116239000D02*
X113130000Y-116239000D01*
X111387836Y-94852000D02*
X111172164Y-94852000D01*
X111387836Y-95572000D02*
X111172164Y-95572000D01*
X121801836Y-94852000D02*
X121586164Y-94852000D01*
X121801836Y-95572000D02*
X121586164Y-95572000D01*
X119025641Y-96354000D02*
X118718359Y-96354000D01*
X119025641Y-95594000D02*
X118718359Y-95594000D01*
X118704379Y-98132000D02*
X119039621Y-98132000D01*
X118704379Y-97372000D02*
X119039621Y-97372000D01*
X116457000Y-99332000D02*
X116457000Y-98402000D01*
X116457000Y-96172000D02*
X116457000Y-97102000D01*
X116457000Y-96172000D02*
X114297000Y-96172000D01*
X116457000Y-99332000D02*
X114997000Y-99332000D01*
X122807000Y-99332000D02*
X122807000Y-98402000D01*
X122807000Y-96172000D02*
X122807000Y-97102000D01*
X122807000Y-96172000D02*
X120647000Y-96172000D01*
X122807000Y-99332000D02*
X121347000Y-99332000D01*
X118987835Y-98662000D02*
X118756165Y-98662000D01*
X118987835Y-99382000D02*
X118756165Y-99382000D01*
X112393000Y-99332000D02*
X112393000Y-98402000D01*
X112393000Y-96172000D02*
X112393000Y-97102000D01*
X112393000Y-96172000D02*
X110233000Y-96172000D01*
X112393000Y-99332000D02*
X110933000Y-99332000D01*
X108611641Y-96354000D02*
X108304359Y-96354000D01*
X108611641Y-95594000D02*
X108304359Y-95594000D01*
X108290379Y-98132000D02*
X108625621Y-98132000D01*
X108290379Y-97372000D02*
X108625621Y-97372000D01*
X106043000Y-99332000D02*
X106043000Y-98402000D01*
X106043000Y-96172000D02*
X106043000Y-97102000D01*
X106043000Y-96172000D02*
X103883000Y-96172000D01*
X106043000Y-99332000D02*
X104583000Y-99332000D01*
X108573835Y-98662000D02*
X108342165Y-98662000D01*
X108573835Y-99382000D02*
X108342165Y-99382000D01*
D13*
X82155420Y-94744000D02*
X82436580Y-94744000D01*
X82155420Y-93724000D02*
X82436580Y-93724000D01*
X81426164Y-92096000D02*
X81641836Y-92096000D01*
X81426164Y-92816000D02*
X81641836Y-92816000D01*
X79609836Y-88498000D02*
X79394164Y-88498000D01*
X79609836Y-87778000D02*
X79394164Y-87778000D01*
D12*
X80383142Y-92973142D02*
X80335523Y-93020761D01*
X80192666Y-93068380D01*
X80097428Y-93068380D01*
X79954571Y-93020761D01*
X79859333Y-92925523D01*
X79811714Y-92830285D01*
X79764095Y-92639809D01*
X79764095Y-92496952D01*
X79811714Y-92306476D01*
X79859333Y-92211238D01*
X79954571Y-92116000D01*
X80097428Y-92068380D01*
X80192666Y-92068380D01*
X80335523Y-92116000D01*
X80383142Y-92163619D01*
X81335523Y-93068380D02*
X80764095Y-93068380D01*
X81049809Y-93068380D02*
X81049809Y-92068380D01*
X80954571Y-92211238D01*
X80859333Y-92306476D01*
X80764095Y-92354095D01*
X82192666Y-92401714D02*
X82192666Y-93068380D01*
X81954571Y-92020761D02*
X81716476Y-92735047D01*
X82335523Y-92735047D01*
X81367333Y-89113142D02*
X81319714Y-89160761D01*
X81176857Y-89208380D01*
X81081619Y-89208380D01*
X80938761Y-89160761D01*
X80843523Y-89065523D01*
X80795904Y-88970285D01*
X80748285Y-88779809D01*
X80748285Y-88636952D01*
X80795904Y-88446476D01*
X80843523Y-88351238D01*
X80938761Y-88256000D01*
X81081619Y-88208380D01*
X81176857Y-88208380D01*
X81319714Y-88256000D01*
X81367333Y-88303619D01*
X82319714Y-89208380D02*
X81748285Y-89208380D01*
X82034000Y-89208380D02*
X82034000Y-88208380D01*
X81938761Y-88351238D01*
X81843523Y-88446476D01*
X81748285Y-88494095D01*
D13*
X89201666Y-120064380D02*
X89201666Y-120778666D01*
X89154047Y-120921523D01*
X89058809Y-121016761D01*
X88915952Y-121064380D01*
X88820714Y-121064380D01*
X89582619Y-120064380D02*
X90201666Y-120064380D01*
X89868333Y-120445333D01*
X90011190Y-120445333D01*
X90106428Y-120492952D01*
X90154047Y-120540571D01*
X90201666Y-120635809D01*
X90201666Y-120873904D01*
X90154047Y-120969142D01*
X90106428Y-121016761D01*
X90011190Y-121064380D01*
X89725476Y-121064380D01*
X89630238Y-121016761D01*
X89582619Y-120969142D01*
X82423047Y-125039428D02*
X83184952Y-125039428D01*
X82804000Y-125420380D02*
X82804000Y-124658476D01*
X95631047Y-125039428D02*
X96392952Y-125039428D01*
X96012000Y-125420380D02*
X96012000Y-124658476D01*
X103187523Y-90638380D02*
X102711333Y-90638380D01*
X102663714Y-91114571D01*
X102711333Y-91066952D01*
X102806571Y-91019333D01*
X103044666Y-91019333D01*
X103139904Y-91066952D01*
X103187523Y-91114571D01*
X103235142Y-91209809D01*
X103235142Y-91447904D01*
X103187523Y-91543142D01*
X103139904Y-91590761D01*
X103044666Y-91638380D01*
X102806571Y-91638380D01*
X102711333Y-91590761D01*
X102663714Y-91543142D01*
X103520857Y-90638380D02*
X103854190Y-91638380D01*
X104187523Y-90638380D01*
X89328666Y-77176380D02*
X89328666Y-77890666D01*
X89281047Y-78033523D01*
X89185809Y-78128761D01*
X89042952Y-78176380D01*
X88947714Y-78176380D01*
X90328666Y-78176380D02*
X89757238Y-78176380D01*
X90042952Y-78176380D02*
X90042952Y-77176380D01*
X89947714Y-77319238D01*
X89852476Y-77414476D01*
X89757238Y-77462095D01*
X79376285Y-85288380D02*
X79042952Y-84812190D01*
X78804857Y-85288380D02*
X78804857Y-84288380D01*
X79185809Y-84288380D01*
X79281047Y-84336000D01*
X79328666Y-84383619D01*
X79376285Y-84478857D01*
X79376285Y-84621714D01*
X79328666Y-84716952D01*
X79281047Y-84764571D01*
X79185809Y-84812190D01*
X78804857Y-84812190D01*
X79709619Y-84288380D02*
X80376285Y-85288380D01*
X80376285Y-84288380D02*
X79709619Y-85288380D01*
X81376285Y-84288380D02*
X81947714Y-84288380D01*
X81662000Y-85288380D02*
X81662000Y-84288380D01*
X82185809Y-84288380D02*
X82852476Y-85288380D01*
X82852476Y-84288380D02*
X82185809Y-85288380D01*
X83947714Y-85002666D02*
X84423904Y-85002666D01*
X83852476Y-85288380D02*
X84185809Y-84288380D01*
X84519142Y-85288380D01*
X85042952Y-84288380D02*
X85138190Y-84288380D01*
X85233428Y-84336000D01*
X85281047Y-84383619D01*
X85328666Y-84478857D01*
X85376285Y-84669333D01*
X85376285Y-84907428D01*
X85328666Y-85097904D01*
X85281047Y-85193142D01*
X85233428Y-85240761D01*
X85138190Y-85288380D01*
X85042952Y-85288380D01*
X84947714Y-85240761D01*
X84900095Y-85193142D01*
X84852476Y-85097904D01*
X84804857Y-84907428D01*
X84804857Y-84669333D01*
X84852476Y-84478857D01*
X84900095Y-84383619D01*
X84947714Y-84336000D01*
X85042952Y-84288380D01*
X86519142Y-85002666D02*
X86995333Y-85002666D01*
X86423904Y-85288380D02*
X86757238Y-84288380D01*
X87090571Y-85288380D01*
X87947714Y-85288380D02*
X87376285Y-85288380D01*
X87662000Y-85288380D02*
X87662000Y-84288380D01*
X87566761Y-84431238D01*
X87471523Y-84526476D01*
X87376285Y-84574095D01*
X89090571Y-85002666D02*
X89566761Y-85002666D01*
X88995333Y-85288380D02*
X89328666Y-84288380D01*
X89662000Y-85288380D01*
X89947714Y-84383619D02*
X89995333Y-84336000D01*
X90090571Y-84288380D01*
X90328666Y-84288380D01*
X90423904Y-84336000D01*
X90471523Y-84383619D01*
X90519142Y-84478857D01*
X90519142Y-84574095D01*
X90471523Y-84716952D01*
X89900095Y-85288380D01*
X90519142Y-85288380D01*
X91900095Y-84288380D02*
X91995333Y-84288380D01*
X92090571Y-84336000D01*
X92138190Y-84383619D01*
X92185809Y-84478857D01*
X92233428Y-84669333D01*
X92233428Y-84907428D01*
X92185809Y-85097904D01*
X92138190Y-85193142D01*
X92090571Y-85240761D01*
X91995333Y-85288380D01*
X91900095Y-85288380D01*
X91804857Y-85240761D01*
X91757238Y-85193142D01*
X91709619Y-85097904D01*
X91662000Y-84907428D01*
X91662000Y-84669333D01*
X91709619Y-84478857D01*
X91757238Y-84383619D01*
X91804857Y-84336000D01*
X91900095Y-84288380D01*
X92519142Y-84288380D02*
X92852476Y-85288380D01*
X93185809Y-84288380D01*
X94042952Y-83856000D02*
X94519142Y-83856000D01*
X94281047Y-85288380D02*
X94281047Y-84288380D01*
X94519142Y-83856000D02*
X95566761Y-83856000D01*
X94757238Y-85288380D02*
X94757238Y-84288380D01*
X95328666Y-85288380D01*
X95328666Y-84288380D01*
X97138190Y-85193142D02*
X97090571Y-85240761D01*
X96947714Y-85288380D01*
X96852476Y-85288380D01*
X96709619Y-85240761D01*
X96614380Y-85145523D01*
X96566761Y-85050285D01*
X96519142Y-84859809D01*
X96519142Y-84716952D01*
X96566761Y-84526476D01*
X96614380Y-84431238D01*
X96709619Y-84336000D01*
X96852476Y-84288380D01*
X96947714Y-84288380D01*
X97090571Y-84336000D01*
X97138190Y-84383619D01*
X98042952Y-85288380D02*
X97566761Y-85288380D01*
X97566761Y-84288380D01*
X99138190Y-85288380D02*
X99138190Y-84288380D01*
X99376285Y-84288380D01*
X99519142Y-84336000D01*
X99614380Y-84431238D01*
X99662000Y-84526476D01*
X99709619Y-84716952D01*
X99709619Y-84859809D01*
X99662000Y-85050285D01*
X99614380Y-85145523D01*
X99519142Y-85240761D01*
X99376285Y-85288380D01*
X99138190Y-85288380D01*
X100090571Y-85002666D02*
X100566761Y-85002666D01*
X99995333Y-85288380D02*
X100328666Y-84288380D01*
X100662000Y-85288380D01*
X76612857Y-80668761D02*
X76755714Y-80716380D01*
X76993809Y-80716380D01*
X77089047Y-80668761D01*
X77136666Y-80621142D01*
X77184285Y-80525904D01*
X77184285Y-80430666D01*
X77136666Y-80335428D01*
X77089047Y-80287809D01*
X76993809Y-80240190D01*
X76803333Y-80192571D01*
X76708095Y-80144952D01*
X76660476Y-80097333D01*
X76612857Y-80002095D01*
X76612857Y-79906857D01*
X76660476Y-79811619D01*
X76708095Y-79764000D01*
X76803333Y-79716380D01*
X77041428Y-79716380D01*
X77184285Y-79764000D01*
X77517619Y-79716380D02*
X77755714Y-80716380D01*
X77946190Y-80002095D01*
X78136666Y-80716380D01*
X78374761Y-79716380D01*
D12*
X114673095Y-82933142D02*
X114625476Y-82980761D01*
X114482619Y-83028380D01*
X114387380Y-83028380D01*
X114244523Y-82980761D01*
X114149285Y-82885523D01*
X114101666Y-82790285D01*
X114054047Y-82599809D01*
X114054047Y-82456952D01*
X114101666Y-82266476D01*
X114149285Y-82171238D01*
X114244523Y-82076000D01*
X114387380Y-82028380D01*
X114482619Y-82028380D01*
X114625476Y-82076000D01*
X114673095Y-82123619D01*
X115006428Y-82028380D02*
X115244523Y-83028380D01*
X115435000Y-82314095D01*
X115625476Y-83028380D01*
X115863571Y-82028380D01*
X102189595Y-79605142D02*
X102237214Y-79652761D01*
X102189595Y-79700380D01*
X102141976Y-79652761D01*
X102189595Y-79605142D01*
X102189595Y-79700380D01*
X102189595Y-79319428D02*
X102141976Y-78748000D01*
X102189595Y-78700380D01*
X102237214Y-78748000D01*
X102189595Y-79319428D01*
X102189595Y-78700380D01*
X103141976Y-78700380D02*
X102665785Y-78700380D01*
X102618166Y-79176571D01*
X102665785Y-79128952D01*
X102761023Y-79081333D01*
X102999119Y-79081333D01*
X103094357Y-79128952D01*
X103141976Y-79176571D01*
X103189595Y-79271809D01*
X103189595Y-79509904D01*
X103141976Y-79605142D01*
X103094357Y-79652761D01*
X102999119Y-79700380D01*
X102761023Y-79700380D01*
X102665785Y-79652761D01*
X102618166Y-79605142D01*
X103475309Y-78700380D02*
X103808642Y-79700380D01*
X104141976Y-78700380D01*
X105713404Y-79700380D02*
X105237214Y-79700380D01*
X105237214Y-78700380D01*
X106237214Y-78700380D02*
X106427690Y-78700380D01*
X106522928Y-78748000D01*
X106618166Y-78843238D01*
X106665785Y-79033714D01*
X106665785Y-79367047D01*
X106618166Y-79557523D01*
X106522928Y-79652761D01*
X106427690Y-79700380D01*
X106237214Y-79700380D01*
X106141976Y-79652761D01*
X106046738Y-79557523D01*
X105999119Y-79367047D01*
X105999119Y-79033714D01*
X106046738Y-78843238D01*
X106141976Y-78748000D01*
X106237214Y-78700380D01*
X107618166Y-78748000D02*
X107522928Y-78700380D01*
X107380071Y-78700380D01*
X107237214Y-78748000D01*
X107141976Y-78843238D01*
X107094357Y-78938476D01*
X107046738Y-79128952D01*
X107046738Y-79271809D01*
X107094357Y-79462285D01*
X107141976Y-79557523D01*
X107237214Y-79652761D01*
X107380071Y-79700380D01*
X107475309Y-79700380D01*
X107618166Y-79652761D01*
X107665785Y-79605142D01*
X107665785Y-79271809D01*
X107475309Y-79271809D01*
X108094357Y-79700380D02*
X108094357Y-78700380D01*
X109141976Y-79605142D02*
X109094357Y-79652761D01*
X108951500Y-79700380D01*
X108856261Y-79700380D01*
X108713404Y-79652761D01*
X108618166Y-79557523D01*
X108570547Y-79462285D01*
X108522928Y-79271809D01*
X108522928Y-79128952D01*
X108570547Y-78938476D01*
X108618166Y-78843238D01*
X108713404Y-78748000D01*
X108856261Y-78700380D01*
X108951500Y-78700380D01*
X109094357Y-78748000D01*
X109141976Y-78795619D01*
X109570547Y-79605142D02*
X109618166Y-79652761D01*
X109570547Y-79700380D01*
X109522928Y-79652761D01*
X109570547Y-79605142D01*
X109570547Y-79700380D01*
X109570547Y-79319428D02*
X109522928Y-78748000D01*
X109570547Y-78700380D01*
X109618166Y-78748000D01*
X109570547Y-79319428D01*
X109570547Y-78700380D01*
D13*
X81454666Y-106640380D02*
X81454666Y-107354666D01*
X81407047Y-107497523D01*
X81311809Y-107592761D01*
X81168952Y-107640380D01*
X81073714Y-107640380D01*
X81883238Y-106735619D02*
X81930857Y-106688000D01*
X82026095Y-106640380D01*
X82264190Y-106640380D01*
X82359428Y-106688000D01*
X82407047Y-106735619D01*
X82454666Y-106830857D01*
X82454666Y-106926095D01*
X82407047Y-107068952D01*
X81835619Y-107640380D01*
X82454666Y-107640380D01*
X77287428Y-114172952D02*
X77287428Y-113411047D01*
X77668380Y-113792000D02*
X76906476Y-113792000D01*
X77414428Y-100964952D02*
X77414428Y-100203047D01*
X78454666Y-101798380D02*
X77883238Y-101798380D01*
X78168952Y-101798380D02*
X78168952Y-100798380D01*
X78073714Y-100941238D01*
X77978476Y-101036476D01*
X77883238Y-101084095D01*
X78835619Y-100893619D02*
X78883238Y-100846000D01*
X78978476Y-100798380D01*
X79216571Y-100798380D01*
X79311809Y-100846000D01*
X79359428Y-100893619D01*
X79407047Y-100988857D01*
X79407047Y-101084095D01*
X79359428Y-101226952D01*
X78788000Y-101798380D01*
X79407047Y-101798380D01*
X79835619Y-101417428D02*
X80597523Y-101417428D01*
X81026095Y-100893619D02*
X81073714Y-100846000D01*
X81168952Y-100798380D01*
X81407047Y-100798380D01*
X81502285Y-100846000D01*
X81549904Y-100893619D01*
X81597523Y-100988857D01*
X81597523Y-101084095D01*
X81549904Y-101226952D01*
X80978476Y-101798380D01*
X81597523Y-101798380D01*
X82454666Y-101131714D02*
X82454666Y-101798380D01*
X82216571Y-100750761D02*
X81978476Y-101465047D01*
X82597523Y-101465047D01*
X82835619Y-100798380D02*
X83168952Y-101798380D01*
X83502285Y-100798380D01*
X84597523Y-101798380D02*
X84597523Y-100798380D01*
X85073714Y-101798380D02*
X85073714Y-100798380D01*
X85645142Y-101798380D01*
X85645142Y-100798380D01*
X107616666Y-120064380D02*
X107616666Y-120778666D01*
X107569047Y-120921523D01*
X107473809Y-121016761D01*
X107330952Y-121064380D01*
X107235714Y-121064380D01*
X108521428Y-120397714D02*
X108521428Y-121064380D01*
X108283333Y-120016761D02*
X108045238Y-120731047D01*
X108664285Y-120731047D01*
X100549428Y-125420380D02*
X99978000Y-125420380D01*
X100263714Y-125420380D02*
X100263714Y-124420380D01*
X100168476Y-124563238D01*
X100073238Y-124658476D01*
X99978000Y-124706095D01*
X100978000Y-125039428D02*
X101739904Y-125039428D01*
X114112476Y-124515619D02*
X114160095Y-124468000D01*
X114255333Y-124420380D01*
X114493428Y-124420380D01*
X114588666Y-124468000D01*
X114636285Y-124515619D01*
X114683904Y-124610857D01*
X114683904Y-124706095D01*
X114636285Y-124848952D01*
X114064857Y-125420380D01*
X114683904Y-125420380D01*
X115112476Y-125039428D02*
X115874380Y-125039428D01*
%LPC*%
G36*
G01*
X80701000Y-90936000D02*
X80701000Y-91436000D01*
G75*
G02*
X80476000Y-91661000I-225000J0D01*
G01*
X80026000Y-91661000D01*
G75*
G02*
X79801000Y-91436000I0J225000D01*
G01*
X79801000Y-90936000D01*
G75*
G02*
X80026000Y-90711000I225000J0D01*
G01*
X80476000Y-90711000D01*
G75*
G02*
X80701000Y-90936000I0J-225000D01*
G01*
G37*
G36*
G01*
X82251000Y-90936000D02*
X82251000Y-91436000D01*
G75*
G02*
X82026000Y-91661000I-225000J0D01*
G01*
X81576000Y-91661000D01*
G75*
G02*
X81351000Y-91436000I0J225000D01*
G01*
X81351000Y-90936000D01*
G75*
G02*
X81576000Y-90711000I225000J0D01*
G01*
X82026000Y-90711000D01*
G75*
G02*
X82251000Y-90936000I0J-225000D01*
G01*
G37*
G36*
G01*
X81734000Y-90086000D02*
X81734000Y-89746000D01*
G75*
G02*
X81874000Y-89606000I140000J0D01*
G01*
X82154000Y-89606000D01*
G75*
G02*
X82294000Y-89746000I0J-140000D01*
G01*
X82294000Y-90086000D01*
G75*
G02*
X82154000Y-90226000I-140000J0D01*
G01*
X81874000Y-90226000D01*
G75*
G02*
X81734000Y-90086000I0J140000D01*
G01*
G37*
G36*
G01*
X80774000Y-90086000D02*
X80774000Y-89746000D01*
G75*
G02*
X80914000Y-89606000I140000J0D01*
G01*
X81194000Y-89606000D01*
G75*
G02*
X81334000Y-89746000I0J-140000D01*
G01*
X81334000Y-90086000D01*
G75*
G02*
X81194000Y-90226000I-140000J0D01*
G01*
X80914000Y-90226000D01*
G75*
G02*
X80774000Y-90086000I0J140000D01*
G01*
G37*
G36*
G01*
X79742000Y-87307000D02*
X79742000Y-86937000D01*
G75*
G02*
X79877000Y-86802000I135000J0D01*
G01*
X80147000Y-86802000D01*
G75*
G02*
X80282000Y-86937000I0J-135000D01*
G01*
X80282000Y-87307000D01*
G75*
G02*
X80147000Y-87442000I-135000J0D01*
G01*
X79877000Y-87442000D01*
G75*
G02*
X79742000Y-87307000I0J135000D01*
G01*
G37*
G36*
G01*
X78722000Y-87307000D02*
X78722000Y-86937000D01*
G75*
G02*
X78857000Y-86802000I135000J0D01*
G01*
X79127000Y-86802000D01*
G75*
G02*
X79262000Y-86937000I0J-135000D01*
G01*
X79262000Y-87307000D01*
G75*
G02*
X79127000Y-87442000I-135000J0D01*
G01*
X78857000Y-87442000D01*
G75*
G02*
X78722000Y-87307000I0J135000D01*
G01*
G37*
G36*
G01*
X81774000Y-87269000D02*
X81774000Y-86899000D01*
G75*
G02*
X81909000Y-86764000I135000J0D01*
G01*
X82179000Y-86764000D01*
G75*
G02*
X82314000Y-86899000I0J-135000D01*
G01*
X82314000Y-87269000D01*
G75*
G02*
X82179000Y-87404000I-135000J0D01*
G01*
X81909000Y-87404000D01*
G75*
G02*
X81774000Y-87269000I0J135000D01*
G01*
G37*
G36*
G01*
X80754000Y-87269000D02*
X80754000Y-86899000D01*
G75*
G02*
X80889000Y-86764000I135000J0D01*
G01*
X81159000Y-86764000D01*
G75*
G02*
X81294000Y-86899000I0J-135000D01*
G01*
X81294000Y-87269000D01*
G75*
G02*
X81159000Y-87404000I-135000J0D01*
G01*
X80889000Y-87404000D01*
G75*
G02*
X80754000Y-87269000I0J135000D01*
G01*
G37*
G36*
G01*
X81774000Y-86253000D02*
X81774000Y-85883000D01*
G75*
G02*
X81909000Y-85748000I135000J0D01*
G01*
X82179000Y-85748000D01*
G75*
G02*
X82314000Y-85883000I0J-135000D01*
G01*
X82314000Y-86253000D01*
G75*
G02*
X82179000Y-86388000I-135000J0D01*
G01*
X81909000Y-86388000D01*
G75*
G02*
X81774000Y-86253000I0J135000D01*
G01*
G37*
G36*
G01*
X80754000Y-86253000D02*
X80754000Y-85883000D01*
G75*
G02*
X80889000Y-85748000I135000J0D01*
G01*
X81159000Y-85748000D01*
G75*
G02*
X81294000Y-85883000I0J-135000D01*
G01*
X81294000Y-86253000D01*
G75*
G02*
X81159000Y-86388000I-135000J0D01*
G01*
X80889000Y-86388000D01*
G75*
G02*
X80754000Y-86253000I0J135000D01*
G01*
G37*
G36*
G01*
X90239000Y-95490000D02*
X90609000Y-95490000D01*
G75*
G02*
X90744000Y-95625000I0J-135000D01*
G01*
X90744000Y-95895000D01*
G75*
G02*
X90609000Y-96030000I-135000J0D01*
G01*
X90239000Y-96030000D01*
G75*
G02*
X90104000Y-95895000I0J135000D01*
G01*
X90104000Y-95625000D01*
G75*
G02*
X90239000Y-95490000I135000J0D01*
G01*
G37*
G36*
G01*
X90239000Y-94470000D02*
X90609000Y-94470000D01*
G75*
G02*
X90744000Y-94605000I0J-135000D01*
G01*
X90744000Y-94875000D01*
G75*
G02*
X90609000Y-95010000I-135000J0D01*
G01*
X90239000Y-95010000D01*
G75*
G02*
X90104000Y-94875000I0J135000D01*
G01*
X90104000Y-94605000D01*
G75*
G02*
X90239000Y-94470000I135000J0D01*
G01*
G37*
D14*
G36*
X104927500Y-112420000D02*
G01*
X104927500Y-111910000D01*
X104672500Y-111910000D01*
X104672500Y-112420000D01*
X104267500Y-112420000D01*
X104267500Y-111910000D01*
X104012500Y-111910000D01*
X104012500Y-112420000D01*
X103607500Y-112420000D01*
X103607500Y-111910000D01*
X103352500Y-111910000D01*
X103352500Y-112420000D01*
X102945000Y-112420000D01*
X102945000Y-111660000D01*
X103022500Y-111660000D01*
X103022500Y-110185000D01*
X105257500Y-110185000D01*
X105257500Y-111660000D01*
X105335000Y-111660000D01*
X105335000Y-112420000D01*
X104927500Y-112420000D01*
G37*
D15*
X103150000Y-109055000D03*
X103810000Y-109055000D03*
X104470000Y-109055000D03*
X105130000Y-109055000D03*
D14*
G36*
X118135500Y-112420000D02*
G01*
X118135500Y-111910000D01*
X117880500Y-111910000D01*
X117880500Y-112420000D01*
X117475500Y-112420000D01*
X117475500Y-111910000D01*
X117220500Y-111910000D01*
X117220500Y-112420000D01*
X116815500Y-112420000D01*
X116815500Y-111910000D01*
X116560500Y-111910000D01*
X116560500Y-112420000D01*
X116153000Y-112420000D01*
X116153000Y-111660000D01*
X116230500Y-111660000D01*
X116230500Y-110185000D01*
X118465500Y-110185000D01*
X118465500Y-111660000D01*
X118543000Y-111660000D01*
X118543000Y-112420000D01*
X118135500Y-112420000D01*
G37*
D15*
X116358000Y-109055000D03*
X117018000Y-109055000D03*
X117678000Y-109055000D03*
X118338000Y-109055000D03*
G36*
G01*
X97605000Y-95490000D02*
X97975000Y-95490000D01*
G75*
G02*
X98110000Y-95625000I0J-135000D01*
G01*
X98110000Y-95895000D01*
G75*
G02*
X97975000Y-96030000I-135000J0D01*
G01*
X97605000Y-96030000D01*
G75*
G02*
X97470000Y-95895000I0J135000D01*
G01*
X97470000Y-95625000D01*
G75*
G02*
X97605000Y-95490000I135000J0D01*
G01*
G37*
G36*
G01*
X97605000Y-94470000D02*
X97975000Y-94470000D01*
G75*
G02*
X98110000Y-94605000I0J-135000D01*
G01*
X98110000Y-94875000D01*
G75*
G02*
X97975000Y-95010000I-135000J0D01*
G01*
X97605000Y-95010000D01*
G75*
G02*
X97470000Y-94875000I0J135000D01*
G01*
X97470000Y-94605000D01*
G75*
G02*
X97605000Y-94470000I135000J0D01*
G01*
G37*
G36*
G01*
X96589000Y-95490000D02*
X96959000Y-95490000D01*
G75*
G02*
X97094000Y-95625000I0J-135000D01*
G01*
X97094000Y-95895000D01*
G75*
G02*
X96959000Y-96030000I-135000J0D01*
G01*
X96589000Y-96030000D01*
G75*
G02*
X96454000Y-95895000I0J135000D01*
G01*
X96454000Y-95625000D01*
G75*
G02*
X96589000Y-95490000I135000J0D01*
G01*
G37*
G36*
G01*
X96589000Y-94470000D02*
X96959000Y-94470000D01*
G75*
G02*
X97094000Y-94605000I0J-135000D01*
G01*
X97094000Y-94875000D01*
G75*
G02*
X96959000Y-95010000I-135000J0D01*
G01*
X96589000Y-95010000D01*
G75*
G02*
X96454000Y-94875000I0J135000D01*
G01*
X96454000Y-94605000D01*
G75*
G02*
X96589000Y-94470000I135000J0D01*
G01*
G37*
G36*
G01*
X89223000Y-95490000D02*
X89593000Y-95490000D01*
G75*
G02*
X89728000Y-95625000I0J-135000D01*
G01*
X89728000Y-95895000D01*
G75*
G02*
X89593000Y-96030000I-135000J0D01*
G01*
X89223000Y-96030000D01*
G75*
G02*
X89088000Y-95895000I0J135000D01*
G01*
X89088000Y-95625000D01*
G75*
G02*
X89223000Y-95490000I135000J0D01*
G01*
G37*
G36*
G01*
X89223000Y-94470000D02*
X89593000Y-94470000D01*
G75*
G02*
X89728000Y-94605000I0J-135000D01*
G01*
X89728000Y-94875000D01*
G75*
G02*
X89593000Y-95010000I-135000J0D01*
G01*
X89223000Y-95010000D01*
G75*
G02*
X89088000Y-94875000I0J135000D01*
G01*
X89088000Y-94605000D01*
G75*
G02*
X89223000Y-94470000I135000J0D01*
G01*
G37*
G36*
G01*
X92724000Y-85883000D02*
X92724000Y-86253000D01*
G75*
G02*
X92589000Y-86388000I-135000J0D01*
G01*
X92319000Y-86388000D01*
G75*
G02*
X92184000Y-86253000I0J135000D01*
G01*
X92184000Y-85883000D01*
G75*
G02*
X92319000Y-85748000I135000J0D01*
G01*
X92589000Y-85748000D01*
G75*
G02*
X92724000Y-85883000I0J-135000D01*
G01*
G37*
G36*
G01*
X93744000Y-85883000D02*
X93744000Y-86253000D01*
G75*
G02*
X93609000Y-86388000I-135000J0D01*
G01*
X93339000Y-86388000D01*
G75*
G02*
X93204000Y-86253000I0J135000D01*
G01*
X93204000Y-85883000D01*
G75*
G02*
X93339000Y-85748000I135000J0D01*
G01*
X93609000Y-85748000D01*
G75*
G02*
X93744000Y-85883000I0J-135000D01*
G01*
G37*
X99542000Y-109055000D03*
X98882000Y-109055000D03*
X98222000Y-109055000D03*
X97562000Y-109055000D03*
D14*
G36*
X99339500Y-112420000D02*
G01*
X99339500Y-111910000D01*
X99084500Y-111910000D01*
X99084500Y-112420000D01*
X98679500Y-112420000D01*
X98679500Y-111910000D01*
X98424500Y-111910000D01*
X98424500Y-112420000D01*
X98019500Y-112420000D01*
X98019500Y-111910000D01*
X97764500Y-111910000D01*
X97764500Y-112420000D01*
X97357000Y-112420000D01*
X97357000Y-111660000D01*
X97434500Y-111660000D01*
X97434500Y-110185000D01*
X99669500Y-110185000D01*
X99669500Y-111660000D01*
X99747000Y-111660000D01*
X99747000Y-112420000D01*
X99339500Y-112420000D01*
G37*
D15*
X112750000Y-109055000D03*
X112090000Y-109055000D03*
X111430000Y-109055000D03*
X110770000Y-109055000D03*
D14*
G36*
X112547500Y-112420000D02*
G01*
X112547500Y-111910000D01*
X112292500Y-111910000D01*
X112292500Y-112420000D01*
X111887500Y-112420000D01*
X111887500Y-111910000D01*
X111632500Y-111910000D01*
X111632500Y-112420000D01*
X111227500Y-112420000D01*
X111227500Y-111910000D01*
X110972500Y-111910000D01*
X110972500Y-112420000D01*
X110565000Y-112420000D01*
X110565000Y-111660000D01*
X110642500Y-111660000D01*
X110642500Y-110185000D01*
X112877500Y-110185000D01*
X112877500Y-111660000D01*
X112955000Y-111660000D01*
X112955000Y-112420000D01*
X112547500Y-112420000D01*
G37*
D16*
X86995000Y-120739000D03*
X92075000Y-120739000D03*
D17*
X103378000Y-89154000D03*
D18*
X87376000Y-94616000D03*
X87376000Y-97916000D03*
D19*
X99822000Y-80264000D03*
X99822000Y-82804000D03*
X97282000Y-80264000D03*
X97282000Y-82804000D03*
X94742000Y-80264000D03*
X94742000Y-82804000D03*
X92202000Y-80264000D03*
X92202000Y-82804000D03*
X89662000Y-80264000D03*
X89662000Y-82804000D03*
X87122000Y-80264000D03*
X87122000Y-82804000D03*
X84582000Y-80264000D03*
X84582000Y-82804000D03*
X82042000Y-80264000D03*
X82042000Y-82804000D03*
X79502000Y-80264000D03*
D20*
X79502000Y-82804000D03*
G36*
G01*
X119335000Y-87726000D02*
X119335000Y-85526000D01*
G75*
G02*
X120135000Y-84726000I800000J0D01*
G01*
X121735000Y-84726000D01*
G75*
G02*
X122535000Y-85526000I0J-800000D01*
G01*
X122535000Y-87726000D01*
G75*
G02*
X121735000Y-88526000I-800000J0D01*
G01*
X120135000Y-88526000D01*
G75*
G02*
X119335000Y-87726000I0J800000D01*
G01*
G37*
G36*
G01*
X107335000Y-87726000D02*
X107335000Y-85526000D01*
G75*
G02*
X108135000Y-84726000I800000J0D01*
G01*
X109735000Y-84726000D01*
G75*
G02*
X110535000Y-85526000I0J-800000D01*
G01*
X110535000Y-87726000D01*
G75*
G02*
X109735000Y-88526000I-800000J0D01*
G01*
X108135000Y-88526000D01*
G75*
G02*
X107335000Y-87726000I0J800000D01*
G01*
G37*
D21*
X114935000Y-79726000D03*
X109385000Y-82426000D03*
X120485000Y-82426000D03*
X120885000Y-90026000D03*
X109385000Y-90726000D03*
G36*
G01*
X92764000Y-86914000D02*
X92764000Y-87254000D01*
G75*
G02*
X92624000Y-87394000I-140000J0D01*
G01*
X92344000Y-87394000D01*
G75*
G02*
X92204000Y-87254000I0J140000D01*
G01*
X92204000Y-86914000D01*
G75*
G02*
X92344000Y-86774000I140000J0D01*
G01*
X92624000Y-86774000D01*
G75*
G02*
X92764000Y-86914000I0J-140000D01*
G01*
G37*
G36*
G01*
X93724000Y-86914000D02*
X93724000Y-87254000D01*
G75*
G02*
X93584000Y-87394000I-140000J0D01*
G01*
X93304000Y-87394000D01*
G75*
G02*
X93164000Y-87254000I0J140000D01*
G01*
X93164000Y-86914000D01*
G75*
G02*
X93304000Y-86774000I140000J0D01*
G01*
X93584000Y-86774000D01*
G75*
G02*
X93724000Y-86914000I0J-140000D01*
G01*
G37*
D18*
X79248000Y-97662000D03*
X79248000Y-94362000D03*
D22*
X123500000Y-111270000D03*
X93500000Y-111270000D03*
D16*
X123025000Y-79375000D03*
G36*
G01*
X97776000Y-89085000D02*
X97776000Y-88715000D01*
G75*
G02*
X97911000Y-88580000I135000J0D01*
G01*
X98181000Y-88580000D01*
G75*
G02*
X98316000Y-88715000I0J-135000D01*
G01*
X98316000Y-89085000D01*
G75*
G02*
X98181000Y-89220000I-135000J0D01*
G01*
X97911000Y-89220000D01*
G75*
G02*
X97776000Y-89085000I0J135000D01*
G01*
G37*
G36*
G01*
X96756000Y-89085000D02*
X96756000Y-88715000D01*
G75*
G02*
X96891000Y-88580000I135000J0D01*
G01*
X97161000Y-88580000D01*
G75*
G02*
X97296000Y-88715000I0J-135000D01*
G01*
X97296000Y-89085000D01*
G75*
G02*
X97161000Y-89220000I-135000J0D01*
G01*
X96891000Y-89220000D01*
G75*
G02*
X96756000Y-89085000I0J135000D01*
G01*
G37*
G36*
G01*
X99328000Y-88715000D02*
X99328000Y-89085000D01*
G75*
G02*
X99193000Y-89220000I-135000J0D01*
G01*
X98923000Y-89220000D01*
G75*
G02*
X98788000Y-89085000I0J135000D01*
G01*
X98788000Y-88715000D01*
G75*
G02*
X98923000Y-88580000I135000J0D01*
G01*
X99193000Y-88580000D01*
G75*
G02*
X99328000Y-88715000I0J-135000D01*
G01*
G37*
G36*
G01*
X100348000Y-88715000D02*
X100348000Y-89085000D01*
G75*
G02*
X100213000Y-89220000I-135000J0D01*
G01*
X99943000Y-89220000D01*
G75*
G02*
X99808000Y-89085000I0J135000D01*
G01*
X99808000Y-88715000D01*
G75*
G02*
X99943000Y-88580000I135000J0D01*
G01*
X100213000Y-88580000D01*
G75*
G02*
X100348000Y-88715000I0J-135000D01*
G01*
G37*
G36*
G01*
X103197000Y-85984000D02*
X103197000Y-85644000D01*
G75*
G02*
X103337000Y-85504000I140000J0D01*
G01*
X103617000Y-85504000D01*
G75*
G02*
X103757000Y-85644000I0J-140000D01*
G01*
X103757000Y-85984000D01*
G75*
G02*
X103617000Y-86124000I-140000J0D01*
G01*
X103337000Y-86124000D01*
G75*
G02*
X103197000Y-85984000I0J140000D01*
G01*
G37*
G36*
G01*
X102237000Y-85984000D02*
X102237000Y-85644000D01*
G75*
G02*
X102377000Y-85504000I140000J0D01*
G01*
X102657000Y-85504000D01*
G75*
G02*
X102797000Y-85644000I0J-140000D01*
G01*
X102797000Y-85984000D01*
G75*
G02*
X102657000Y-86124000I-140000J0D01*
G01*
X102377000Y-86124000D01*
G75*
G02*
X102237000Y-85984000I0J140000D01*
G01*
G37*
G36*
G01*
X103197000Y-83444000D02*
X103197000Y-83104000D01*
G75*
G02*
X103337000Y-82964000I140000J0D01*
G01*
X103617000Y-82964000D01*
G75*
G02*
X103757000Y-83104000I0J-140000D01*
G01*
X103757000Y-83444000D01*
G75*
G02*
X103617000Y-83584000I-140000J0D01*
G01*
X103337000Y-83584000D01*
G75*
G02*
X103197000Y-83444000I0J140000D01*
G01*
G37*
G36*
G01*
X102237000Y-83444000D02*
X102237000Y-83104000D01*
G75*
G02*
X102377000Y-82964000I140000J0D01*
G01*
X102657000Y-82964000D01*
G75*
G02*
X102797000Y-83104000I0J-140000D01*
G01*
X102797000Y-83444000D01*
G75*
G02*
X102657000Y-83584000I-140000J0D01*
G01*
X102377000Y-83584000D01*
G75*
G02*
X102237000Y-83444000I0J140000D01*
G01*
G37*
G36*
G01*
X103197000Y-84714000D02*
X103197000Y-84374000D01*
G75*
G02*
X103337000Y-84234000I140000J0D01*
G01*
X103617000Y-84234000D01*
G75*
G02*
X103757000Y-84374000I0J-140000D01*
G01*
X103757000Y-84714000D01*
G75*
G02*
X103617000Y-84854000I-140000J0D01*
G01*
X103337000Y-84854000D01*
G75*
G02*
X103197000Y-84714000I0J140000D01*
G01*
G37*
G36*
G01*
X102237000Y-84714000D02*
X102237000Y-84374000D01*
G75*
G02*
X102377000Y-84234000I140000J0D01*
G01*
X102657000Y-84234000D01*
G75*
G02*
X102797000Y-84374000I0J-140000D01*
G01*
X102797000Y-84714000D01*
G75*
G02*
X102657000Y-84854000I-140000J0D01*
G01*
X102377000Y-84854000D01*
G75*
G02*
X102237000Y-84714000I0J140000D01*
G01*
G37*
G36*
G01*
X88774000Y-86029000D02*
X88774000Y-85829000D01*
G75*
G02*
X88874000Y-85729000I100000J0D01*
G01*
X90149000Y-85729000D01*
G75*
G02*
X90249000Y-85829000I0J-100000D01*
G01*
X90249000Y-86029000D01*
G75*
G02*
X90149000Y-86129000I-100000J0D01*
G01*
X88874000Y-86129000D01*
G75*
G02*
X88774000Y-86029000I0J100000D01*
G01*
G37*
G36*
G01*
X88774000Y-86679000D02*
X88774000Y-86479000D01*
G75*
G02*
X88874000Y-86379000I100000J0D01*
G01*
X90149000Y-86379000D01*
G75*
G02*
X90249000Y-86479000I0J-100000D01*
G01*
X90249000Y-86679000D01*
G75*
G02*
X90149000Y-86779000I-100000J0D01*
G01*
X88874000Y-86779000D01*
G75*
G02*
X88774000Y-86679000I0J100000D01*
G01*
G37*
G36*
G01*
X88774000Y-87329000D02*
X88774000Y-87129000D01*
G75*
G02*
X88874000Y-87029000I100000J0D01*
G01*
X90149000Y-87029000D01*
G75*
G02*
X90249000Y-87129000I0J-100000D01*
G01*
X90249000Y-87329000D01*
G75*
G02*
X90149000Y-87429000I-100000J0D01*
G01*
X88874000Y-87429000D01*
G75*
G02*
X88774000Y-87329000I0J100000D01*
G01*
G37*
G36*
G01*
X88774000Y-87979000D02*
X88774000Y-87779000D01*
G75*
G02*
X88874000Y-87679000I100000J0D01*
G01*
X90149000Y-87679000D01*
G75*
G02*
X90249000Y-87779000I0J-100000D01*
G01*
X90249000Y-87979000D01*
G75*
G02*
X90149000Y-88079000I-100000J0D01*
G01*
X88874000Y-88079000D01*
G75*
G02*
X88774000Y-87979000I0J100000D01*
G01*
G37*
G36*
G01*
X88774000Y-88629000D02*
X88774000Y-88429000D01*
G75*
G02*
X88874000Y-88329000I100000J0D01*
G01*
X90149000Y-88329000D01*
G75*
G02*
X90249000Y-88429000I0J-100000D01*
G01*
X90249000Y-88629000D01*
G75*
G02*
X90149000Y-88729000I-100000J0D01*
G01*
X88874000Y-88729000D01*
G75*
G02*
X88774000Y-88629000I0J100000D01*
G01*
G37*
G36*
G01*
X88774000Y-89279000D02*
X88774000Y-89079000D01*
G75*
G02*
X88874000Y-88979000I100000J0D01*
G01*
X90149000Y-88979000D01*
G75*
G02*
X90249000Y-89079000I0J-100000D01*
G01*
X90249000Y-89279000D01*
G75*
G02*
X90149000Y-89379000I-100000J0D01*
G01*
X88874000Y-89379000D01*
G75*
G02*
X88774000Y-89279000I0J100000D01*
G01*
G37*
G36*
G01*
X88774000Y-89929000D02*
X88774000Y-89729000D01*
G75*
G02*
X88874000Y-89629000I100000J0D01*
G01*
X90149000Y-89629000D01*
G75*
G02*
X90249000Y-89729000I0J-100000D01*
G01*
X90249000Y-89929000D01*
G75*
G02*
X90149000Y-90029000I-100000J0D01*
G01*
X88874000Y-90029000D01*
G75*
G02*
X88774000Y-89929000I0J100000D01*
G01*
G37*
G36*
G01*
X88774000Y-90579000D02*
X88774000Y-90379000D01*
G75*
G02*
X88874000Y-90279000I100000J0D01*
G01*
X90149000Y-90279000D01*
G75*
G02*
X90249000Y-90379000I0J-100000D01*
G01*
X90249000Y-90579000D01*
G75*
G02*
X90149000Y-90679000I-100000J0D01*
G01*
X88874000Y-90679000D01*
G75*
G02*
X88774000Y-90579000I0J100000D01*
G01*
G37*
G36*
G01*
X88774000Y-91229000D02*
X88774000Y-91029000D01*
G75*
G02*
X88874000Y-90929000I100000J0D01*
G01*
X90149000Y-90929000D01*
G75*
G02*
X90249000Y-91029000I0J-100000D01*
G01*
X90249000Y-91229000D01*
G75*
G02*
X90149000Y-91329000I-100000J0D01*
G01*
X88874000Y-91329000D01*
G75*
G02*
X88774000Y-91229000I0J100000D01*
G01*
G37*
G36*
G01*
X88774000Y-91879000D02*
X88774000Y-91679000D01*
G75*
G02*
X88874000Y-91579000I100000J0D01*
G01*
X90149000Y-91579000D01*
G75*
G02*
X90249000Y-91679000I0J-100000D01*
G01*
X90249000Y-91879000D01*
G75*
G02*
X90149000Y-91979000I-100000J0D01*
G01*
X88874000Y-91979000D01*
G75*
G02*
X88774000Y-91879000I0J100000D01*
G01*
G37*
G36*
G01*
X83049000Y-91879000D02*
X83049000Y-91679000D01*
G75*
G02*
X83149000Y-91579000I100000J0D01*
G01*
X84424000Y-91579000D01*
G75*
G02*
X84524000Y-91679000I0J-100000D01*
G01*
X84524000Y-91879000D01*
G75*
G02*
X84424000Y-91979000I-100000J0D01*
G01*
X83149000Y-91979000D01*
G75*
G02*
X83049000Y-91879000I0J100000D01*
G01*
G37*
G36*
G01*
X83049000Y-91229000D02*
X83049000Y-91029000D01*
G75*
G02*
X83149000Y-90929000I100000J0D01*
G01*
X84424000Y-90929000D01*
G75*
G02*
X84524000Y-91029000I0J-100000D01*
G01*
X84524000Y-91229000D01*
G75*
G02*
X84424000Y-91329000I-100000J0D01*
G01*
X83149000Y-91329000D01*
G75*
G02*
X83049000Y-91229000I0J100000D01*
G01*
G37*
G36*
G01*
X83049000Y-90579000D02*
X83049000Y-90379000D01*
G75*
G02*
X83149000Y-90279000I100000J0D01*
G01*
X84424000Y-90279000D01*
G75*
G02*
X84524000Y-90379000I0J-100000D01*
G01*
X84524000Y-90579000D01*
G75*
G02*
X84424000Y-90679000I-100000J0D01*
G01*
X83149000Y-90679000D01*
G75*
G02*
X83049000Y-90579000I0J100000D01*
G01*
G37*
G36*
G01*
X83049000Y-89929000D02*
X83049000Y-89729000D01*
G75*
G02*
X83149000Y-89629000I100000J0D01*
G01*
X84424000Y-89629000D01*
G75*
G02*
X84524000Y-89729000I0J-100000D01*
G01*
X84524000Y-89929000D01*
G75*
G02*
X84424000Y-90029000I-100000J0D01*
G01*
X83149000Y-90029000D01*
G75*
G02*
X83049000Y-89929000I0J100000D01*
G01*
G37*
G36*
G01*
X83049000Y-89279000D02*
X83049000Y-89079000D01*
G75*
G02*
X83149000Y-88979000I100000J0D01*
G01*
X84424000Y-88979000D01*
G75*
G02*
X84524000Y-89079000I0J-100000D01*
G01*
X84524000Y-89279000D01*
G75*
G02*
X84424000Y-89379000I-100000J0D01*
G01*
X83149000Y-89379000D01*
G75*
G02*
X83049000Y-89279000I0J100000D01*
G01*
G37*
G36*
G01*
X83049000Y-88629000D02*
X83049000Y-88429000D01*
G75*
G02*
X83149000Y-88329000I100000J0D01*
G01*
X84424000Y-88329000D01*
G75*
G02*
X84524000Y-88429000I0J-100000D01*
G01*
X84524000Y-88629000D01*
G75*
G02*
X84424000Y-88729000I-100000J0D01*
G01*
X83149000Y-88729000D01*
G75*
G02*
X83049000Y-88629000I0J100000D01*
G01*
G37*
G36*
G01*
X83049000Y-87979000D02*
X83049000Y-87779000D01*
G75*
G02*
X83149000Y-87679000I100000J0D01*
G01*
X84424000Y-87679000D01*
G75*
G02*
X84524000Y-87779000I0J-100000D01*
G01*
X84524000Y-87979000D01*
G75*
G02*
X84424000Y-88079000I-100000J0D01*
G01*
X83149000Y-88079000D01*
G75*
G02*
X83049000Y-87979000I0J100000D01*
G01*
G37*
G36*
G01*
X83049000Y-87329000D02*
X83049000Y-87129000D01*
G75*
G02*
X83149000Y-87029000I100000J0D01*
G01*
X84424000Y-87029000D01*
G75*
G02*
X84524000Y-87129000I0J-100000D01*
G01*
X84524000Y-87329000D01*
G75*
G02*
X84424000Y-87429000I-100000J0D01*
G01*
X83149000Y-87429000D01*
G75*
G02*
X83049000Y-87329000I0J100000D01*
G01*
G37*
G36*
G01*
X83049000Y-86679000D02*
X83049000Y-86479000D01*
G75*
G02*
X83149000Y-86379000I100000J0D01*
G01*
X84424000Y-86379000D01*
G75*
G02*
X84524000Y-86479000I0J-100000D01*
G01*
X84524000Y-86679000D01*
G75*
G02*
X84424000Y-86779000I-100000J0D01*
G01*
X83149000Y-86779000D01*
G75*
G02*
X83049000Y-86679000I0J100000D01*
G01*
G37*
G36*
G01*
X83049000Y-86029000D02*
X83049000Y-85829000D01*
G75*
G02*
X83149000Y-85729000I100000J0D01*
G01*
X84424000Y-85729000D01*
G75*
G02*
X84524000Y-85829000I0J-100000D01*
G01*
X84524000Y-86029000D01*
G75*
G02*
X84424000Y-86129000I-100000J0D01*
G01*
X83149000Y-86129000D01*
G75*
G02*
X83049000Y-86029000I0J100000D01*
G01*
G37*
G36*
G01*
X84636000Y-94318000D02*
X84636000Y-94658000D01*
G75*
G02*
X84496000Y-94798000I-140000J0D01*
G01*
X84216000Y-94798000D01*
G75*
G02*
X84076000Y-94658000I0J140000D01*
G01*
X84076000Y-94318000D01*
G75*
G02*
X84216000Y-94178000I140000J0D01*
G01*
X84496000Y-94178000D01*
G75*
G02*
X84636000Y-94318000I0J-140000D01*
G01*
G37*
G36*
G01*
X85596000Y-94318000D02*
X85596000Y-94658000D01*
G75*
G02*
X85456000Y-94798000I-140000J0D01*
G01*
X85176000Y-94798000D01*
G75*
G02*
X85036000Y-94658000I0J140000D01*
G01*
X85036000Y-94318000D01*
G75*
G02*
X85176000Y-94178000I140000J0D01*
G01*
X85456000Y-94178000D01*
G75*
G02*
X85596000Y-94318000I0J-140000D01*
G01*
G37*
G36*
G01*
X91708000Y-91725000D02*
X91708000Y-92095000D01*
G75*
G02*
X91573000Y-92230000I-135000J0D01*
G01*
X91303000Y-92230000D01*
G75*
G02*
X91168000Y-92095000I0J135000D01*
G01*
X91168000Y-91725000D01*
G75*
G02*
X91303000Y-91590000I135000J0D01*
G01*
X91573000Y-91590000D01*
G75*
G02*
X91708000Y-91725000I0J-135000D01*
G01*
G37*
G36*
G01*
X92728000Y-91725000D02*
X92728000Y-92095000D01*
G75*
G02*
X92593000Y-92230000I-135000J0D01*
G01*
X92323000Y-92230000D01*
G75*
G02*
X92188000Y-92095000I0J135000D01*
G01*
X92188000Y-91725000D01*
G75*
G02*
X92323000Y-91590000I135000J0D01*
G01*
X92593000Y-91590000D01*
G75*
G02*
X92728000Y-91725000I0J-135000D01*
G01*
G37*
G36*
G01*
X91708000Y-90709000D02*
X91708000Y-91079000D01*
G75*
G02*
X91573000Y-91214000I-135000J0D01*
G01*
X91303000Y-91214000D01*
G75*
G02*
X91168000Y-91079000I0J135000D01*
G01*
X91168000Y-90709000D01*
G75*
G02*
X91303000Y-90574000I135000J0D01*
G01*
X91573000Y-90574000D01*
G75*
G02*
X91708000Y-90709000I0J-135000D01*
G01*
G37*
G36*
G01*
X92728000Y-90709000D02*
X92728000Y-91079000D01*
G75*
G02*
X92593000Y-91214000I-135000J0D01*
G01*
X92323000Y-91214000D01*
G75*
G02*
X92188000Y-91079000I0J135000D01*
G01*
X92188000Y-90709000D01*
G75*
G02*
X92323000Y-90574000I135000J0D01*
G01*
X92593000Y-90574000D01*
G75*
G02*
X92728000Y-90709000I0J-135000D01*
G01*
G37*
G36*
G01*
X95181000Y-95010000D02*
X94811000Y-95010000D01*
G75*
G02*
X94676000Y-94875000I0J135000D01*
G01*
X94676000Y-94605000D01*
G75*
G02*
X94811000Y-94470000I135000J0D01*
G01*
X95181000Y-94470000D01*
G75*
G02*
X95316000Y-94605000I0J-135000D01*
G01*
X95316000Y-94875000D01*
G75*
G02*
X95181000Y-95010000I-135000J0D01*
G01*
G37*
G36*
G01*
X95181000Y-96030000D02*
X94811000Y-96030000D01*
G75*
G02*
X94676000Y-95895000I0J135000D01*
G01*
X94676000Y-95625000D01*
G75*
G02*
X94811000Y-95490000I135000J0D01*
G01*
X95181000Y-95490000D01*
G75*
G02*
X95316000Y-95625000I0J-135000D01*
G01*
X95316000Y-95895000D01*
G75*
G02*
X95181000Y-96030000I-135000J0D01*
G01*
G37*
G36*
G01*
X99472000Y-98549750D02*
X99472000Y-99062250D01*
G75*
G02*
X99253250Y-99281000I-218750J0D01*
G01*
X98815750Y-99281000D01*
G75*
G02*
X98597000Y-99062250I0J218750D01*
G01*
X98597000Y-98549750D01*
G75*
G02*
X98815750Y-98331000I218750J0D01*
G01*
X99253250Y-98331000D01*
G75*
G02*
X99472000Y-98549750I0J-218750D01*
G01*
G37*
G36*
G01*
X101047000Y-98549750D02*
X101047000Y-99062250D01*
G75*
G02*
X100828250Y-99281000I-218750J0D01*
G01*
X100390750Y-99281000D01*
G75*
G02*
X100172000Y-99062250I0J218750D01*
G01*
X100172000Y-98549750D01*
G75*
G02*
X100390750Y-98331000I218750J0D01*
G01*
X100828250Y-98331000D01*
G75*
G02*
X101047000Y-98549750I0J-218750D01*
G01*
G37*
G36*
G01*
X92106000Y-98549750D02*
X92106000Y-99062250D01*
G75*
G02*
X91887250Y-99281000I-218750J0D01*
G01*
X91449750Y-99281000D01*
G75*
G02*
X91231000Y-99062250I0J218750D01*
G01*
X91231000Y-98549750D01*
G75*
G02*
X91449750Y-98331000I218750J0D01*
G01*
X91887250Y-98331000D01*
G75*
G02*
X92106000Y-98549750I0J-218750D01*
G01*
G37*
G36*
G01*
X93681000Y-98549750D02*
X93681000Y-99062250D01*
G75*
G02*
X93462250Y-99281000I-218750J0D01*
G01*
X93024750Y-99281000D01*
G75*
G02*
X92806000Y-99062250I0J218750D01*
G01*
X92806000Y-98549750D01*
G75*
G02*
X93024750Y-98331000I218750J0D01*
G01*
X93462250Y-98331000D01*
G75*
G02*
X93681000Y-98549750I0J-218750D01*
G01*
G37*
G36*
G01*
X102547000Y-95010000D02*
X102177000Y-95010000D01*
G75*
G02*
X102042000Y-94875000I0J135000D01*
G01*
X102042000Y-94605000D01*
G75*
G02*
X102177000Y-94470000I135000J0D01*
G01*
X102547000Y-94470000D01*
G75*
G02*
X102682000Y-94605000I0J-135000D01*
G01*
X102682000Y-94875000D01*
G75*
G02*
X102547000Y-95010000I-135000J0D01*
G01*
G37*
G36*
G01*
X102547000Y-96030000D02*
X102177000Y-96030000D01*
G75*
G02*
X102042000Y-95895000I0J135000D01*
G01*
X102042000Y-95625000D01*
G75*
G02*
X102177000Y-95490000I135000J0D01*
G01*
X102547000Y-95490000D01*
G75*
G02*
X102682000Y-95625000I0J-135000D01*
G01*
X102682000Y-95895000D01*
G75*
G02*
X102547000Y-96030000I-135000J0D01*
G01*
G37*
D23*
X100076000Y-97012000D03*
X99126000Y-95012000D03*
X101026000Y-95012000D03*
X92710000Y-97012000D03*
X91760000Y-95012000D03*
X93660000Y-95012000D03*
G36*
G01*
X104789000Y-83089000D02*
X104789000Y-83459000D01*
G75*
G02*
X104654000Y-83594000I-135000J0D01*
G01*
X104384000Y-83594000D01*
G75*
G02*
X104249000Y-83459000I0J135000D01*
G01*
X104249000Y-83089000D01*
G75*
G02*
X104384000Y-82954000I135000J0D01*
G01*
X104654000Y-82954000D01*
G75*
G02*
X104789000Y-83089000I0J-135000D01*
G01*
G37*
G36*
G01*
X105809000Y-83089000D02*
X105809000Y-83459000D01*
G75*
G02*
X105674000Y-83594000I-135000J0D01*
G01*
X105404000Y-83594000D01*
G75*
G02*
X105269000Y-83459000I0J135000D01*
G01*
X105269000Y-83089000D01*
G75*
G02*
X105404000Y-82954000I135000J0D01*
G01*
X105674000Y-82954000D01*
G75*
G02*
X105809000Y-83089000I0J-135000D01*
G01*
G37*
G36*
G01*
X104789000Y-84359000D02*
X104789000Y-84729000D01*
G75*
G02*
X104654000Y-84864000I-135000J0D01*
G01*
X104384000Y-84864000D01*
G75*
G02*
X104249000Y-84729000I0J135000D01*
G01*
X104249000Y-84359000D01*
G75*
G02*
X104384000Y-84224000I135000J0D01*
G01*
X104654000Y-84224000D01*
G75*
G02*
X104789000Y-84359000I0J-135000D01*
G01*
G37*
G36*
G01*
X105809000Y-84359000D02*
X105809000Y-84729000D01*
G75*
G02*
X105674000Y-84864000I-135000J0D01*
G01*
X105404000Y-84864000D01*
G75*
G02*
X105269000Y-84729000I0J135000D01*
G01*
X105269000Y-84359000D01*
G75*
G02*
X105404000Y-84224000I135000J0D01*
G01*
X105674000Y-84224000D01*
G75*
G02*
X105809000Y-84359000I0J-135000D01*
G01*
G37*
G36*
G01*
X105269000Y-85999000D02*
X105269000Y-85629000D01*
G75*
G02*
X105404000Y-85494000I135000J0D01*
G01*
X105674000Y-85494000D01*
G75*
G02*
X105809000Y-85629000I0J-135000D01*
G01*
X105809000Y-85999000D01*
G75*
G02*
X105674000Y-86134000I-135000J0D01*
G01*
X105404000Y-86134000D01*
G75*
G02*
X105269000Y-85999000I0J135000D01*
G01*
G37*
G36*
G01*
X104249000Y-85999000D02*
X104249000Y-85629000D01*
G75*
G02*
X104384000Y-85494000I135000J0D01*
G01*
X104654000Y-85494000D01*
G75*
G02*
X104789000Y-85629000I0J-135000D01*
G01*
X104789000Y-85999000D01*
G75*
G02*
X104654000Y-86134000I-135000J0D01*
G01*
X104384000Y-86134000D01*
G75*
G02*
X104249000Y-85999000I0J135000D01*
G01*
G37*
D14*
G36*
X82445500Y-100344000D02*
G01*
X82445500Y-97219000D01*
X82862000Y-97219000D01*
X82862000Y-95744000D01*
X83762000Y-95744000D01*
X83762000Y-97219000D01*
X84178500Y-97219000D01*
X84178500Y-100344000D01*
X82445500Y-100344000D01*
G37*
D24*
X81812000Y-96394000D03*
X84812000Y-96394000D03*
D16*
X81788000Y-109728000D03*
X81788000Y-104648000D03*
X105410000Y-120739000D03*
X110490000Y-120739000D03*
G36*
G01*
X111080000Y-95042000D02*
X111080000Y-95382000D01*
G75*
G02*
X110940000Y-95522000I-140000J0D01*
G01*
X110660000Y-95522000D01*
G75*
G02*
X110520000Y-95382000I0J140000D01*
G01*
X110520000Y-95042000D01*
G75*
G02*
X110660000Y-94902000I140000J0D01*
G01*
X110940000Y-94902000D01*
G75*
G02*
X111080000Y-95042000I0J-140000D01*
G01*
G37*
G36*
G01*
X112040000Y-95042000D02*
X112040000Y-95382000D01*
G75*
G02*
X111900000Y-95522000I-140000J0D01*
G01*
X111620000Y-95522000D01*
G75*
G02*
X111480000Y-95382000I0J140000D01*
G01*
X111480000Y-95042000D01*
G75*
G02*
X111620000Y-94902000I140000J0D01*
G01*
X111900000Y-94902000D01*
G75*
G02*
X112040000Y-95042000I0J-140000D01*
G01*
G37*
G36*
G01*
X121494000Y-95042000D02*
X121494000Y-95382000D01*
G75*
G02*
X121354000Y-95522000I-140000J0D01*
G01*
X121074000Y-95522000D01*
G75*
G02*
X120934000Y-95382000I0J140000D01*
G01*
X120934000Y-95042000D01*
G75*
G02*
X121074000Y-94902000I140000J0D01*
G01*
X121354000Y-94902000D01*
G75*
G02*
X121494000Y-95042000I0J-140000D01*
G01*
G37*
G36*
G01*
X122454000Y-95042000D02*
X122454000Y-95382000D01*
G75*
G02*
X122314000Y-95522000I-140000J0D01*
G01*
X122034000Y-95522000D01*
G75*
G02*
X121894000Y-95382000I0J140000D01*
G01*
X121894000Y-95042000D01*
G75*
G02*
X122034000Y-94902000I140000J0D01*
G01*
X122314000Y-94902000D01*
G75*
G02*
X122454000Y-95042000I0J-140000D01*
G01*
G37*
G36*
G01*
X119652000Y-95789000D02*
X119652000Y-96159000D01*
G75*
G02*
X119517000Y-96294000I-135000J0D01*
G01*
X119247000Y-96294000D01*
G75*
G02*
X119112000Y-96159000I0J135000D01*
G01*
X119112000Y-95789000D01*
G75*
G02*
X119247000Y-95654000I135000J0D01*
G01*
X119517000Y-95654000D01*
G75*
G02*
X119652000Y-95789000I0J-135000D01*
G01*
G37*
G36*
G01*
X118632000Y-95789000D02*
X118632000Y-96159000D01*
G75*
G02*
X118497000Y-96294000I-135000J0D01*
G01*
X118227000Y-96294000D01*
G75*
G02*
X118092000Y-96159000I0J135000D01*
G01*
X118092000Y-95789000D01*
G75*
G02*
X118227000Y-95654000I135000J0D01*
G01*
X118497000Y-95654000D01*
G75*
G02*
X118632000Y-95789000I0J-135000D01*
G01*
G37*
G36*
G01*
X119112000Y-97912000D02*
X119112000Y-97592000D01*
G75*
G02*
X119272000Y-97432000I160000J0D01*
G01*
X119667000Y-97432000D01*
G75*
G02*
X119827000Y-97592000I0J-160000D01*
G01*
X119827000Y-97912000D01*
G75*
G02*
X119667000Y-98072000I-160000J0D01*
G01*
X119272000Y-98072000D01*
G75*
G02*
X119112000Y-97912000I0J160000D01*
G01*
G37*
G36*
G01*
X117917000Y-97912000D02*
X117917000Y-97592000D01*
G75*
G02*
X118077000Y-97432000I160000J0D01*
G01*
X118472000Y-97432000D01*
G75*
G02*
X118632000Y-97592000I0J-160000D01*
G01*
X118632000Y-97912000D01*
G75*
G02*
X118472000Y-98072000I-160000J0D01*
G01*
X118077000Y-98072000D01*
G75*
G02*
X117917000Y-97912000I0J160000D01*
G01*
G37*
D25*
X114697000Y-96802000D03*
X114697000Y-98702000D03*
X116697000Y-97752000D03*
X121047000Y-96802000D03*
X121047000Y-98702000D03*
X123047000Y-97752000D03*
G36*
G01*
X118672000Y-98867000D02*
X118672000Y-99177000D01*
G75*
G02*
X118517000Y-99332000I-155000J0D01*
G01*
X118092000Y-99332000D01*
G75*
G02*
X117937000Y-99177000I0J155000D01*
G01*
X117937000Y-98867000D01*
G75*
G02*
X118092000Y-98712000I155000J0D01*
G01*
X118517000Y-98712000D01*
G75*
G02*
X118672000Y-98867000I0J-155000D01*
G01*
G37*
G36*
G01*
X119807000Y-98867000D02*
X119807000Y-99177000D01*
G75*
G02*
X119652000Y-99332000I-155000J0D01*
G01*
X119227000Y-99332000D01*
G75*
G02*
X119072000Y-99177000I0J155000D01*
G01*
X119072000Y-98867000D01*
G75*
G02*
X119227000Y-98712000I155000J0D01*
G01*
X119652000Y-98712000D01*
G75*
G02*
X119807000Y-98867000I0J-155000D01*
G01*
G37*
X110633000Y-96802000D03*
X110633000Y-98702000D03*
X112633000Y-97752000D03*
G36*
G01*
X109238000Y-95789000D02*
X109238000Y-96159000D01*
G75*
G02*
X109103000Y-96294000I-135000J0D01*
G01*
X108833000Y-96294000D01*
G75*
G02*
X108698000Y-96159000I0J135000D01*
G01*
X108698000Y-95789000D01*
G75*
G02*
X108833000Y-95654000I135000J0D01*
G01*
X109103000Y-95654000D01*
G75*
G02*
X109238000Y-95789000I0J-135000D01*
G01*
G37*
G36*
G01*
X108218000Y-95789000D02*
X108218000Y-96159000D01*
G75*
G02*
X108083000Y-96294000I-135000J0D01*
G01*
X107813000Y-96294000D01*
G75*
G02*
X107678000Y-96159000I0J135000D01*
G01*
X107678000Y-95789000D01*
G75*
G02*
X107813000Y-95654000I135000J0D01*
G01*
X108083000Y-95654000D01*
G75*
G02*
X108218000Y-95789000I0J-135000D01*
G01*
G37*
G36*
G01*
X108698000Y-97912000D02*
X108698000Y-97592000D01*
G75*
G02*
X108858000Y-97432000I160000J0D01*
G01*
X109253000Y-97432000D01*
G75*
G02*
X109413000Y-97592000I0J-160000D01*
G01*
X109413000Y-97912000D01*
G75*
G02*
X109253000Y-98072000I-160000J0D01*
G01*
X108858000Y-98072000D01*
G75*
G02*
X108698000Y-97912000I0J160000D01*
G01*
G37*
G36*
G01*
X107503000Y-97912000D02*
X107503000Y-97592000D01*
G75*
G02*
X107663000Y-97432000I160000J0D01*
G01*
X108058000Y-97432000D01*
G75*
G02*
X108218000Y-97592000I0J-160000D01*
G01*
X108218000Y-97912000D01*
G75*
G02*
X108058000Y-98072000I-160000J0D01*
G01*
X107663000Y-98072000D01*
G75*
G02*
X107503000Y-97912000I0J160000D01*
G01*
G37*
X104283000Y-96802000D03*
X104283000Y-98702000D03*
X106283000Y-97752000D03*
G36*
G01*
X108258000Y-98867000D02*
X108258000Y-99177000D01*
G75*
G02*
X108103000Y-99332000I-155000J0D01*
G01*
X107678000Y-99332000D01*
G75*
G02*
X107523000Y-99177000I0J155000D01*
G01*
X107523000Y-98867000D01*
G75*
G02*
X107678000Y-98712000I155000J0D01*
G01*
X108103000Y-98712000D01*
G75*
G02*
X108258000Y-98867000I0J-155000D01*
G01*
G37*
G36*
G01*
X109393000Y-98867000D02*
X109393000Y-99177000D01*
G75*
G02*
X109238000Y-99332000I-155000J0D01*
G01*
X108813000Y-99332000D01*
G75*
G02*
X108658000Y-99177000I0J155000D01*
G01*
X108658000Y-98867000D01*
G75*
G02*
X108813000Y-98712000I155000J0D01*
G01*
X109238000Y-98712000D01*
G75*
G02*
X109393000Y-98867000I0J-155000D01*
G01*
G37*
G36*
G01*
X82621000Y-94484000D02*
X82621000Y-93984000D01*
G75*
G02*
X82846000Y-93759000I225000J0D01*
G01*
X83296000Y-93759000D01*
G75*
G02*
X83521000Y-93984000I0J-225000D01*
G01*
X83521000Y-94484000D01*
G75*
G02*
X83296000Y-94709000I-225000J0D01*
G01*
X82846000Y-94709000D01*
G75*
G02*
X82621000Y-94484000I0J225000D01*
G01*
G37*
G36*
G01*
X81071000Y-94484000D02*
X81071000Y-93984000D01*
G75*
G02*
X81296000Y-93759000I225000J0D01*
G01*
X81746000Y-93759000D01*
G75*
G02*
X81971000Y-93984000I0J-225000D01*
G01*
X81971000Y-94484000D01*
G75*
G02*
X81746000Y-94709000I-225000J0D01*
G01*
X81296000Y-94709000D01*
G75*
G02*
X81071000Y-94484000I0J225000D01*
G01*
G37*
G36*
G01*
X81734000Y-92626000D02*
X81734000Y-92286000D01*
G75*
G02*
X81874000Y-92146000I140000J0D01*
G01*
X82154000Y-92146000D01*
G75*
G02*
X82294000Y-92286000I0J-140000D01*
G01*
X82294000Y-92626000D01*
G75*
G02*
X82154000Y-92766000I-140000J0D01*
G01*
X81874000Y-92766000D01*
G75*
G02*
X81734000Y-92626000I0J140000D01*
G01*
G37*
G36*
G01*
X80774000Y-92626000D02*
X80774000Y-92286000D01*
G75*
G02*
X80914000Y-92146000I140000J0D01*
G01*
X81194000Y-92146000D01*
G75*
G02*
X81334000Y-92286000I0J-140000D01*
G01*
X81334000Y-92626000D01*
G75*
G02*
X81194000Y-92766000I-140000J0D01*
G01*
X80914000Y-92766000D01*
G75*
G02*
X80774000Y-92626000I0J140000D01*
G01*
G37*
G36*
G01*
X79302000Y-87968000D02*
X79302000Y-88308000D01*
G75*
G02*
X79162000Y-88448000I-140000J0D01*
G01*
X78882000Y-88448000D01*
G75*
G02*
X78742000Y-88308000I0J140000D01*
G01*
X78742000Y-87968000D01*
G75*
G02*
X78882000Y-87828000I140000J0D01*
G01*
X79162000Y-87828000D01*
G75*
G02*
X79302000Y-87968000I0J-140000D01*
G01*
G37*
G36*
G01*
X80262000Y-87968000D02*
X80262000Y-88308000D01*
G75*
G02*
X80122000Y-88448000I-140000J0D01*
G01*
X79842000Y-88448000D01*
G75*
G02*
X79702000Y-88308000I0J140000D01*
G01*
X79702000Y-87968000D01*
G75*
G02*
X79842000Y-87828000I140000J0D01*
G01*
X80122000Y-87828000D01*
G75*
G02*
X80262000Y-87968000I0J-140000D01*
G01*
G37*
D16*
X123025000Y-123025000D03*
X79375000Y-123025000D03*
D26*
X80645000Y-117945000D03*
X123444000Y-83655000D03*
M02*
