G04 #@! TF.GenerationSoftware,KiCad,Pcbnew,5.1.10*
G04 #@! TF.CreationDate,2021-12-29T02:33:02+02:00*
G04 #@! TF.ProjectId,pwm-controller,70776d2d-636f-46e7-9472-6f6c6c65722e,rev?*
G04 #@! TF.SameCoordinates,Original*
G04 #@! TF.FileFunction,Copper,L1,Top*
G04 #@! TF.FilePolarity,Positive*
%FSLAX46Y46*%
G04 Gerber Fmt 4.6, Leading zero omitted, Abs format (unit mm)*
G04 Created by KiCad (PCBNEW 5.1.10) date 2021-12-29 02:33:02*
%MOMM*%
%LPD*%
G01*
G04 APERTURE LIST*
G04 #@! TA.AperFunction,ComponentPad*
%ADD10O,1.700000X1.700000*%
G04 #@! TD*
G04 #@! TA.AperFunction,ComponentPad*
%ADD11R,1.700000X1.700000*%
G04 #@! TD*
G04 #@! TA.AperFunction,ComponentPad*
%ADD12C,1.800000*%
G04 #@! TD*
G04 #@! TA.AperFunction,SMDPad,CuDef*
%ADD13R,0.900000X1.200000*%
G04 #@! TD*
G04 #@! TA.AperFunction,SMDPad,CuDef*
%ADD14R,0.900000X0.800000*%
G04 #@! TD*
G04 #@! TA.AperFunction,SMDPad,CuDef*
%ADD15C,0.100000*%
G04 #@! TD*
G04 #@! TA.AperFunction,SMDPad,CuDef*
%ADD16R,1.300000X0.900000*%
G04 #@! TD*
G04 #@! TA.AperFunction,ComponentPad*
%ADD17C,2.200000*%
G04 #@! TD*
G04 #@! TA.AperFunction,ViaPad*
%ADD18C,0.600000*%
G04 #@! TD*
G04 #@! TA.AperFunction,Conductor*
%ADD19C,0.200000*%
G04 #@! TD*
G04 #@! TA.AperFunction,Conductor*
%ADD20C,0.254000*%
G04 #@! TD*
G04 #@! TA.AperFunction,Conductor*
%ADD21C,0.100000*%
G04 #@! TD*
G04 #@! TA.AperFunction,Conductor*
%ADD22C,0.250000*%
G04 #@! TD*
G04 APERTURE END LIST*
D10*
X99822000Y-80264000D03*
X99822000Y-82804000D03*
X97282000Y-80264000D03*
X97282000Y-82804000D03*
X94742000Y-80264000D03*
X94742000Y-82804000D03*
X92202000Y-80264000D03*
X92202000Y-82804000D03*
X89662000Y-80264000D03*
X89662000Y-82804000D03*
X87122000Y-80264000D03*
X87122000Y-82804000D03*
X84582000Y-80264000D03*
X84582000Y-82804000D03*
X82042000Y-80264000D03*
X82042000Y-82804000D03*
X79502000Y-80264000D03*
D11*
X79502000Y-82804000D03*
D12*
X109385000Y-90726000D03*
X120885000Y-90026000D03*
X120485000Y-82426000D03*
X109385000Y-82426000D03*
X114935000Y-79726000D03*
G04 #@! TA.AperFunction,ComponentPad*
G36*
G01*
X107335000Y-87726000D02*
X107335000Y-85526000D01*
G75*
G02*
X108135000Y-84726000I800000J0D01*
G01*
X109735000Y-84726000D01*
G75*
G02*
X110535000Y-85526000I0J-800000D01*
G01*
X110535000Y-87726000D01*
G75*
G02*
X109735000Y-88526000I-800000J0D01*
G01*
X108135000Y-88526000D01*
G75*
G02*
X107335000Y-87726000I0J800000D01*
G01*
G37*
G04 #@! TD.AperFunction*
G04 #@! TA.AperFunction,ComponentPad*
G36*
G01*
X119335000Y-87726000D02*
X119335000Y-85526000D01*
G75*
G02*
X120135000Y-84726000I800000J0D01*
G01*
X121735000Y-84726000D01*
G75*
G02*
X122535000Y-85526000I0J-800000D01*
G01*
X122535000Y-87726000D01*
G75*
G02*
X121735000Y-88526000I-800000J0D01*
G01*
X120135000Y-88526000D01*
G75*
G02*
X119335000Y-87726000I0J800000D01*
G01*
G37*
G04 #@! TD.AperFunction*
G04 #@! TA.AperFunction,SMDPad,CuDef*
G36*
G01*
X91102000Y-86922000D02*
X90762000Y-86922000D01*
G75*
G02*
X90622000Y-86782000I0J140000D01*
G01*
X90622000Y-86502000D01*
G75*
G02*
X90762000Y-86362000I140000J0D01*
G01*
X91102000Y-86362000D01*
G75*
G02*
X91242000Y-86502000I0J-140000D01*
G01*
X91242000Y-86782000D01*
G75*
G02*
X91102000Y-86922000I-140000J0D01*
G01*
G37*
G04 #@! TD.AperFunction*
G04 #@! TA.AperFunction,SMDPad,CuDef*
G36*
G01*
X91102000Y-87882000D02*
X90762000Y-87882000D01*
G75*
G02*
X90622000Y-87742000I0J140000D01*
G01*
X90622000Y-87462000D01*
G75*
G02*
X90762000Y-87322000I140000J0D01*
G01*
X91102000Y-87322000D01*
G75*
G02*
X91242000Y-87462000I0J-140000D01*
G01*
X91242000Y-87742000D01*
G75*
G02*
X91102000Y-87882000I-140000J0D01*
G01*
G37*
G04 #@! TD.AperFunction*
D13*
X91822000Y-99060000D03*
X95122000Y-99060000D03*
G04 #@! TA.AperFunction,SMDPad,CuDef*
G36*
G01*
X97522000Y-88069000D02*
X97522000Y-87699000D01*
G75*
G02*
X97657000Y-87564000I135000J0D01*
G01*
X97927000Y-87564000D01*
G75*
G02*
X98062000Y-87699000I0J-135000D01*
G01*
X98062000Y-88069000D01*
G75*
G02*
X97927000Y-88204000I-135000J0D01*
G01*
X97657000Y-88204000D01*
G75*
G02*
X97522000Y-88069000I0J135000D01*
G01*
G37*
G04 #@! TD.AperFunction*
G04 #@! TA.AperFunction,SMDPad,CuDef*
G36*
G01*
X96502000Y-88069000D02*
X96502000Y-87699000D01*
G75*
G02*
X96637000Y-87564000I135000J0D01*
G01*
X96907000Y-87564000D01*
G75*
G02*
X97042000Y-87699000I0J-135000D01*
G01*
X97042000Y-88069000D01*
G75*
G02*
X96907000Y-88204000I-135000J0D01*
G01*
X96637000Y-88204000D01*
G75*
G02*
X96502000Y-88069000I0J135000D01*
G01*
G37*
G04 #@! TD.AperFunction*
G04 #@! TA.AperFunction,SMDPad,CuDef*
G36*
G01*
X99074000Y-87699000D02*
X99074000Y-88069000D01*
G75*
G02*
X98939000Y-88204000I-135000J0D01*
G01*
X98669000Y-88204000D01*
G75*
G02*
X98534000Y-88069000I0J135000D01*
G01*
X98534000Y-87699000D01*
G75*
G02*
X98669000Y-87564000I135000J0D01*
G01*
X98939000Y-87564000D01*
G75*
G02*
X99074000Y-87699000I0J-135000D01*
G01*
G37*
G04 #@! TD.AperFunction*
G04 #@! TA.AperFunction,SMDPad,CuDef*
G36*
G01*
X100094000Y-87699000D02*
X100094000Y-88069000D01*
G75*
G02*
X99959000Y-88204000I-135000J0D01*
G01*
X99689000Y-88204000D01*
G75*
G02*
X99554000Y-88069000I0J135000D01*
G01*
X99554000Y-87699000D01*
G75*
G02*
X99689000Y-87564000I135000J0D01*
G01*
X99959000Y-87564000D01*
G75*
G02*
X100094000Y-87699000I0J-135000D01*
G01*
G37*
G04 #@! TD.AperFunction*
G04 #@! TA.AperFunction,SMDPad,CuDef*
G36*
G01*
X103197000Y-87508000D02*
X103197000Y-87168000D01*
G75*
G02*
X103337000Y-87028000I140000J0D01*
G01*
X103617000Y-87028000D01*
G75*
G02*
X103757000Y-87168000I0J-140000D01*
G01*
X103757000Y-87508000D01*
G75*
G02*
X103617000Y-87648000I-140000J0D01*
G01*
X103337000Y-87648000D01*
G75*
G02*
X103197000Y-87508000I0J140000D01*
G01*
G37*
G04 #@! TD.AperFunction*
G04 #@! TA.AperFunction,SMDPad,CuDef*
G36*
G01*
X102237000Y-87508000D02*
X102237000Y-87168000D01*
G75*
G02*
X102377000Y-87028000I140000J0D01*
G01*
X102657000Y-87028000D01*
G75*
G02*
X102797000Y-87168000I0J-140000D01*
G01*
X102797000Y-87508000D01*
G75*
G02*
X102657000Y-87648000I-140000J0D01*
G01*
X102377000Y-87648000D01*
G75*
G02*
X102237000Y-87508000I0J140000D01*
G01*
G37*
G04 #@! TD.AperFunction*
G04 #@! TA.AperFunction,SMDPad,CuDef*
G36*
G01*
X103197000Y-84968000D02*
X103197000Y-84628000D01*
G75*
G02*
X103337000Y-84488000I140000J0D01*
G01*
X103617000Y-84488000D01*
G75*
G02*
X103757000Y-84628000I0J-140000D01*
G01*
X103757000Y-84968000D01*
G75*
G02*
X103617000Y-85108000I-140000J0D01*
G01*
X103337000Y-85108000D01*
G75*
G02*
X103197000Y-84968000I0J140000D01*
G01*
G37*
G04 #@! TD.AperFunction*
G04 #@! TA.AperFunction,SMDPad,CuDef*
G36*
G01*
X102237000Y-84968000D02*
X102237000Y-84628000D01*
G75*
G02*
X102377000Y-84488000I140000J0D01*
G01*
X102657000Y-84488000D01*
G75*
G02*
X102797000Y-84628000I0J-140000D01*
G01*
X102797000Y-84968000D01*
G75*
G02*
X102657000Y-85108000I-140000J0D01*
G01*
X102377000Y-85108000D01*
G75*
G02*
X102237000Y-84968000I0J140000D01*
G01*
G37*
G04 #@! TD.AperFunction*
G04 #@! TA.AperFunction,SMDPad,CuDef*
G36*
G01*
X103197000Y-86238000D02*
X103197000Y-85898000D01*
G75*
G02*
X103337000Y-85758000I140000J0D01*
G01*
X103617000Y-85758000D01*
G75*
G02*
X103757000Y-85898000I0J-140000D01*
G01*
X103757000Y-86238000D01*
G75*
G02*
X103617000Y-86378000I-140000J0D01*
G01*
X103337000Y-86378000D01*
G75*
G02*
X103197000Y-86238000I0J140000D01*
G01*
G37*
G04 #@! TD.AperFunction*
G04 #@! TA.AperFunction,SMDPad,CuDef*
G36*
G01*
X102237000Y-86238000D02*
X102237000Y-85898000D01*
G75*
G02*
X102377000Y-85758000I140000J0D01*
G01*
X102657000Y-85758000D01*
G75*
G02*
X102797000Y-85898000I0J-140000D01*
G01*
X102797000Y-86238000D01*
G75*
G02*
X102657000Y-86378000I-140000J0D01*
G01*
X102377000Y-86378000D01*
G75*
G02*
X102237000Y-86238000I0J140000D01*
G01*
G37*
G04 #@! TD.AperFunction*
G04 #@! TA.AperFunction,SMDPad,CuDef*
G36*
G01*
X87504000Y-86029000D02*
X87504000Y-85829000D01*
G75*
G02*
X87604000Y-85729000I100000J0D01*
G01*
X88879000Y-85729000D01*
G75*
G02*
X88979000Y-85829000I0J-100000D01*
G01*
X88979000Y-86029000D01*
G75*
G02*
X88879000Y-86129000I-100000J0D01*
G01*
X87604000Y-86129000D01*
G75*
G02*
X87504000Y-86029000I0J100000D01*
G01*
G37*
G04 #@! TD.AperFunction*
G04 #@! TA.AperFunction,SMDPad,CuDef*
G36*
G01*
X87504000Y-86679000D02*
X87504000Y-86479000D01*
G75*
G02*
X87604000Y-86379000I100000J0D01*
G01*
X88879000Y-86379000D01*
G75*
G02*
X88979000Y-86479000I0J-100000D01*
G01*
X88979000Y-86679000D01*
G75*
G02*
X88879000Y-86779000I-100000J0D01*
G01*
X87604000Y-86779000D01*
G75*
G02*
X87504000Y-86679000I0J100000D01*
G01*
G37*
G04 #@! TD.AperFunction*
G04 #@! TA.AperFunction,SMDPad,CuDef*
G36*
G01*
X87504000Y-87329000D02*
X87504000Y-87129000D01*
G75*
G02*
X87604000Y-87029000I100000J0D01*
G01*
X88879000Y-87029000D01*
G75*
G02*
X88979000Y-87129000I0J-100000D01*
G01*
X88979000Y-87329000D01*
G75*
G02*
X88879000Y-87429000I-100000J0D01*
G01*
X87604000Y-87429000D01*
G75*
G02*
X87504000Y-87329000I0J100000D01*
G01*
G37*
G04 #@! TD.AperFunction*
G04 #@! TA.AperFunction,SMDPad,CuDef*
G36*
G01*
X87504000Y-87979000D02*
X87504000Y-87779000D01*
G75*
G02*
X87604000Y-87679000I100000J0D01*
G01*
X88879000Y-87679000D01*
G75*
G02*
X88979000Y-87779000I0J-100000D01*
G01*
X88979000Y-87979000D01*
G75*
G02*
X88879000Y-88079000I-100000J0D01*
G01*
X87604000Y-88079000D01*
G75*
G02*
X87504000Y-87979000I0J100000D01*
G01*
G37*
G04 #@! TD.AperFunction*
G04 #@! TA.AperFunction,SMDPad,CuDef*
G36*
G01*
X87504000Y-88629000D02*
X87504000Y-88429000D01*
G75*
G02*
X87604000Y-88329000I100000J0D01*
G01*
X88879000Y-88329000D01*
G75*
G02*
X88979000Y-88429000I0J-100000D01*
G01*
X88979000Y-88629000D01*
G75*
G02*
X88879000Y-88729000I-100000J0D01*
G01*
X87604000Y-88729000D01*
G75*
G02*
X87504000Y-88629000I0J100000D01*
G01*
G37*
G04 #@! TD.AperFunction*
G04 #@! TA.AperFunction,SMDPad,CuDef*
G36*
G01*
X87504000Y-89279000D02*
X87504000Y-89079000D01*
G75*
G02*
X87604000Y-88979000I100000J0D01*
G01*
X88879000Y-88979000D01*
G75*
G02*
X88979000Y-89079000I0J-100000D01*
G01*
X88979000Y-89279000D01*
G75*
G02*
X88879000Y-89379000I-100000J0D01*
G01*
X87604000Y-89379000D01*
G75*
G02*
X87504000Y-89279000I0J100000D01*
G01*
G37*
G04 #@! TD.AperFunction*
G04 #@! TA.AperFunction,SMDPad,CuDef*
G36*
G01*
X87504000Y-89929000D02*
X87504000Y-89729000D01*
G75*
G02*
X87604000Y-89629000I100000J0D01*
G01*
X88879000Y-89629000D01*
G75*
G02*
X88979000Y-89729000I0J-100000D01*
G01*
X88979000Y-89929000D01*
G75*
G02*
X88879000Y-90029000I-100000J0D01*
G01*
X87604000Y-90029000D01*
G75*
G02*
X87504000Y-89929000I0J100000D01*
G01*
G37*
G04 #@! TD.AperFunction*
G04 #@! TA.AperFunction,SMDPad,CuDef*
G36*
G01*
X87504000Y-90579000D02*
X87504000Y-90379000D01*
G75*
G02*
X87604000Y-90279000I100000J0D01*
G01*
X88879000Y-90279000D01*
G75*
G02*
X88979000Y-90379000I0J-100000D01*
G01*
X88979000Y-90579000D01*
G75*
G02*
X88879000Y-90679000I-100000J0D01*
G01*
X87604000Y-90679000D01*
G75*
G02*
X87504000Y-90579000I0J100000D01*
G01*
G37*
G04 #@! TD.AperFunction*
G04 #@! TA.AperFunction,SMDPad,CuDef*
G36*
G01*
X87504000Y-91229000D02*
X87504000Y-91029000D01*
G75*
G02*
X87604000Y-90929000I100000J0D01*
G01*
X88879000Y-90929000D01*
G75*
G02*
X88979000Y-91029000I0J-100000D01*
G01*
X88979000Y-91229000D01*
G75*
G02*
X88879000Y-91329000I-100000J0D01*
G01*
X87604000Y-91329000D01*
G75*
G02*
X87504000Y-91229000I0J100000D01*
G01*
G37*
G04 #@! TD.AperFunction*
G04 #@! TA.AperFunction,SMDPad,CuDef*
G36*
G01*
X87504000Y-91879000D02*
X87504000Y-91679000D01*
G75*
G02*
X87604000Y-91579000I100000J0D01*
G01*
X88879000Y-91579000D01*
G75*
G02*
X88979000Y-91679000I0J-100000D01*
G01*
X88979000Y-91879000D01*
G75*
G02*
X88879000Y-91979000I-100000J0D01*
G01*
X87604000Y-91979000D01*
G75*
G02*
X87504000Y-91879000I0J100000D01*
G01*
G37*
G04 #@! TD.AperFunction*
G04 #@! TA.AperFunction,SMDPad,CuDef*
G36*
G01*
X81779000Y-91879000D02*
X81779000Y-91679000D01*
G75*
G02*
X81879000Y-91579000I100000J0D01*
G01*
X83154000Y-91579000D01*
G75*
G02*
X83254000Y-91679000I0J-100000D01*
G01*
X83254000Y-91879000D01*
G75*
G02*
X83154000Y-91979000I-100000J0D01*
G01*
X81879000Y-91979000D01*
G75*
G02*
X81779000Y-91879000I0J100000D01*
G01*
G37*
G04 #@! TD.AperFunction*
G04 #@! TA.AperFunction,SMDPad,CuDef*
G36*
G01*
X81779000Y-91229000D02*
X81779000Y-91029000D01*
G75*
G02*
X81879000Y-90929000I100000J0D01*
G01*
X83154000Y-90929000D01*
G75*
G02*
X83254000Y-91029000I0J-100000D01*
G01*
X83254000Y-91229000D01*
G75*
G02*
X83154000Y-91329000I-100000J0D01*
G01*
X81879000Y-91329000D01*
G75*
G02*
X81779000Y-91229000I0J100000D01*
G01*
G37*
G04 #@! TD.AperFunction*
G04 #@! TA.AperFunction,SMDPad,CuDef*
G36*
G01*
X81779000Y-90579000D02*
X81779000Y-90379000D01*
G75*
G02*
X81879000Y-90279000I100000J0D01*
G01*
X83154000Y-90279000D01*
G75*
G02*
X83254000Y-90379000I0J-100000D01*
G01*
X83254000Y-90579000D01*
G75*
G02*
X83154000Y-90679000I-100000J0D01*
G01*
X81879000Y-90679000D01*
G75*
G02*
X81779000Y-90579000I0J100000D01*
G01*
G37*
G04 #@! TD.AperFunction*
G04 #@! TA.AperFunction,SMDPad,CuDef*
G36*
G01*
X81779000Y-89929000D02*
X81779000Y-89729000D01*
G75*
G02*
X81879000Y-89629000I100000J0D01*
G01*
X83154000Y-89629000D01*
G75*
G02*
X83254000Y-89729000I0J-100000D01*
G01*
X83254000Y-89929000D01*
G75*
G02*
X83154000Y-90029000I-100000J0D01*
G01*
X81879000Y-90029000D01*
G75*
G02*
X81779000Y-89929000I0J100000D01*
G01*
G37*
G04 #@! TD.AperFunction*
G04 #@! TA.AperFunction,SMDPad,CuDef*
G36*
G01*
X81779000Y-89279000D02*
X81779000Y-89079000D01*
G75*
G02*
X81879000Y-88979000I100000J0D01*
G01*
X83154000Y-88979000D01*
G75*
G02*
X83254000Y-89079000I0J-100000D01*
G01*
X83254000Y-89279000D01*
G75*
G02*
X83154000Y-89379000I-100000J0D01*
G01*
X81879000Y-89379000D01*
G75*
G02*
X81779000Y-89279000I0J100000D01*
G01*
G37*
G04 #@! TD.AperFunction*
G04 #@! TA.AperFunction,SMDPad,CuDef*
G36*
G01*
X81779000Y-88629000D02*
X81779000Y-88429000D01*
G75*
G02*
X81879000Y-88329000I100000J0D01*
G01*
X83154000Y-88329000D01*
G75*
G02*
X83254000Y-88429000I0J-100000D01*
G01*
X83254000Y-88629000D01*
G75*
G02*
X83154000Y-88729000I-100000J0D01*
G01*
X81879000Y-88729000D01*
G75*
G02*
X81779000Y-88629000I0J100000D01*
G01*
G37*
G04 #@! TD.AperFunction*
G04 #@! TA.AperFunction,SMDPad,CuDef*
G36*
G01*
X81779000Y-87979000D02*
X81779000Y-87779000D01*
G75*
G02*
X81879000Y-87679000I100000J0D01*
G01*
X83154000Y-87679000D01*
G75*
G02*
X83254000Y-87779000I0J-100000D01*
G01*
X83254000Y-87979000D01*
G75*
G02*
X83154000Y-88079000I-100000J0D01*
G01*
X81879000Y-88079000D01*
G75*
G02*
X81779000Y-87979000I0J100000D01*
G01*
G37*
G04 #@! TD.AperFunction*
G04 #@! TA.AperFunction,SMDPad,CuDef*
G36*
G01*
X81779000Y-87329000D02*
X81779000Y-87129000D01*
G75*
G02*
X81879000Y-87029000I100000J0D01*
G01*
X83154000Y-87029000D01*
G75*
G02*
X83254000Y-87129000I0J-100000D01*
G01*
X83254000Y-87329000D01*
G75*
G02*
X83154000Y-87429000I-100000J0D01*
G01*
X81879000Y-87429000D01*
G75*
G02*
X81779000Y-87329000I0J100000D01*
G01*
G37*
G04 #@! TD.AperFunction*
G04 #@! TA.AperFunction,SMDPad,CuDef*
G36*
G01*
X81779000Y-86679000D02*
X81779000Y-86479000D01*
G75*
G02*
X81879000Y-86379000I100000J0D01*
G01*
X83154000Y-86379000D01*
G75*
G02*
X83254000Y-86479000I0J-100000D01*
G01*
X83254000Y-86679000D01*
G75*
G02*
X83154000Y-86779000I-100000J0D01*
G01*
X81879000Y-86779000D01*
G75*
G02*
X81779000Y-86679000I0J100000D01*
G01*
G37*
G04 #@! TD.AperFunction*
G04 #@! TA.AperFunction,SMDPad,CuDef*
G36*
G01*
X81779000Y-86029000D02*
X81779000Y-85829000D01*
G75*
G02*
X81879000Y-85729000I100000J0D01*
G01*
X83154000Y-85729000D01*
G75*
G02*
X83254000Y-85829000I0J-100000D01*
G01*
X83254000Y-86029000D01*
G75*
G02*
X83154000Y-86129000I-100000J0D01*
G01*
X81879000Y-86129000D01*
G75*
G02*
X81779000Y-86029000I0J100000D01*
G01*
G37*
G04 #@! TD.AperFunction*
G04 #@! TA.AperFunction,SMDPad,CuDef*
G36*
G01*
X95588000Y-92392000D02*
X95928000Y-92392000D01*
G75*
G02*
X96068000Y-92532000I0J-140000D01*
G01*
X96068000Y-92812000D01*
G75*
G02*
X95928000Y-92952000I-140000J0D01*
G01*
X95588000Y-92952000D01*
G75*
G02*
X95448000Y-92812000I0J140000D01*
G01*
X95448000Y-92532000D01*
G75*
G02*
X95588000Y-92392000I140000J0D01*
G01*
G37*
G04 #@! TD.AperFunction*
G04 #@! TA.AperFunction,SMDPad,CuDef*
G36*
G01*
X95588000Y-91432000D02*
X95928000Y-91432000D01*
G75*
G02*
X96068000Y-91572000I0J-140000D01*
G01*
X96068000Y-91852000D01*
G75*
G02*
X95928000Y-91992000I-140000J0D01*
G01*
X95588000Y-91992000D01*
G75*
G02*
X95448000Y-91852000I0J140000D01*
G01*
X95448000Y-91572000D01*
G75*
G02*
X95588000Y-91432000I140000J0D01*
G01*
G37*
G04 #@! TD.AperFunction*
G04 #@! TA.AperFunction,SMDPad,CuDef*
G36*
G01*
X90438000Y-91725000D02*
X90438000Y-92095000D01*
G75*
G02*
X90303000Y-92230000I-135000J0D01*
G01*
X90033000Y-92230000D01*
G75*
G02*
X89898000Y-92095000I0J135000D01*
G01*
X89898000Y-91725000D01*
G75*
G02*
X90033000Y-91590000I135000J0D01*
G01*
X90303000Y-91590000D01*
G75*
G02*
X90438000Y-91725000I0J-135000D01*
G01*
G37*
G04 #@! TD.AperFunction*
G04 #@! TA.AperFunction,SMDPad,CuDef*
G36*
G01*
X91458000Y-91725000D02*
X91458000Y-92095000D01*
G75*
G02*
X91323000Y-92230000I-135000J0D01*
G01*
X91053000Y-92230000D01*
G75*
G02*
X90918000Y-92095000I0J135000D01*
G01*
X90918000Y-91725000D01*
G75*
G02*
X91053000Y-91590000I135000J0D01*
G01*
X91323000Y-91590000D01*
G75*
G02*
X91458000Y-91725000I0J-135000D01*
G01*
G37*
G04 #@! TD.AperFunction*
G04 #@! TA.AperFunction,SMDPad,CuDef*
G36*
G01*
X90438000Y-90709000D02*
X90438000Y-91079000D01*
G75*
G02*
X90303000Y-91214000I-135000J0D01*
G01*
X90033000Y-91214000D01*
G75*
G02*
X89898000Y-91079000I0J135000D01*
G01*
X89898000Y-90709000D01*
G75*
G02*
X90033000Y-90574000I135000J0D01*
G01*
X90303000Y-90574000D01*
G75*
G02*
X90438000Y-90709000I0J-135000D01*
G01*
G37*
G04 #@! TD.AperFunction*
G04 #@! TA.AperFunction,SMDPad,CuDef*
G36*
G01*
X91458000Y-90709000D02*
X91458000Y-91079000D01*
G75*
G02*
X91323000Y-91214000I-135000J0D01*
G01*
X91053000Y-91214000D01*
G75*
G02*
X90918000Y-91079000I0J135000D01*
G01*
X90918000Y-90709000D01*
G75*
G02*
X91053000Y-90574000I135000J0D01*
G01*
X91323000Y-90574000D01*
G75*
G02*
X91458000Y-90709000I0J-135000D01*
G01*
G37*
G04 #@! TD.AperFunction*
G04 #@! TA.AperFunction,SMDPad,CuDef*
G36*
G01*
X80195000Y-94464000D02*
X79825000Y-94464000D01*
G75*
G02*
X79690000Y-94329000I0J135000D01*
G01*
X79690000Y-94059000D01*
G75*
G02*
X79825000Y-93924000I135000J0D01*
G01*
X80195000Y-93924000D01*
G75*
G02*
X80330000Y-94059000I0J-135000D01*
G01*
X80330000Y-94329000D01*
G75*
G02*
X80195000Y-94464000I-135000J0D01*
G01*
G37*
G04 #@! TD.AperFunction*
G04 #@! TA.AperFunction,SMDPad,CuDef*
G36*
G01*
X80195000Y-95484000D02*
X79825000Y-95484000D01*
G75*
G02*
X79690000Y-95349000I0J135000D01*
G01*
X79690000Y-95079000D01*
G75*
G02*
X79825000Y-94944000I135000J0D01*
G01*
X80195000Y-94944000D01*
G75*
G02*
X80330000Y-95079000I0J-135000D01*
G01*
X80330000Y-95349000D01*
G75*
G02*
X80195000Y-95484000I-135000J0D01*
G01*
G37*
G04 #@! TD.AperFunction*
G04 #@! TA.AperFunction,SMDPad,CuDef*
G36*
G01*
X92199750Y-95816000D02*
X92712250Y-95816000D01*
G75*
G02*
X92931000Y-96034750I0J-218750D01*
G01*
X92931000Y-96472250D01*
G75*
G02*
X92712250Y-96691000I-218750J0D01*
G01*
X92199750Y-96691000D01*
G75*
G02*
X91981000Y-96472250I0J218750D01*
G01*
X91981000Y-96034750D01*
G75*
G02*
X92199750Y-95816000I218750J0D01*
G01*
G37*
G04 #@! TD.AperFunction*
G04 #@! TA.AperFunction,SMDPad,CuDef*
G36*
G01*
X92199750Y-94241000D02*
X92712250Y-94241000D01*
G75*
G02*
X92931000Y-94459750I0J-218750D01*
G01*
X92931000Y-94897250D01*
G75*
G02*
X92712250Y-95116000I-218750J0D01*
G01*
X92199750Y-95116000D01*
G75*
G02*
X91981000Y-94897250I0J218750D01*
G01*
X91981000Y-94459750D01*
G75*
G02*
X92199750Y-94241000I218750J0D01*
G01*
G37*
G04 #@! TD.AperFunction*
G04 #@! TA.AperFunction,SMDPad,CuDef*
G36*
G01*
X85087750Y-95816000D02*
X85600250Y-95816000D01*
G75*
G02*
X85819000Y-96034750I0J-218750D01*
G01*
X85819000Y-96472250D01*
G75*
G02*
X85600250Y-96691000I-218750J0D01*
G01*
X85087750Y-96691000D01*
G75*
G02*
X84869000Y-96472250I0J218750D01*
G01*
X84869000Y-96034750D01*
G75*
G02*
X85087750Y-95816000I218750J0D01*
G01*
G37*
G04 #@! TD.AperFunction*
G04 #@! TA.AperFunction,SMDPad,CuDef*
G36*
G01*
X85087750Y-94241000D02*
X85600250Y-94241000D01*
G75*
G02*
X85819000Y-94459750I0J-218750D01*
G01*
X85819000Y-94897250D01*
G75*
G02*
X85600250Y-95116000I-218750J0D01*
G01*
X85087750Y-95116000D01*
G75*
G02*
X84869000Y-94897250I0J218750D01*
G01*
X84869000Y-94459750D01*
G75*
G02*
X85087750Y-94241000I218750J0D01*
G01*
G37*
G04 #@! TD.AperFunction*
G04 #@! TA.AperFunction,SMDPad,CuDef*
G36*
G01*
X87307000Y-96496000D02*
X86937000Y-96496000D01*
G75*
G02*
X86802000Y-96361000I0J135000D01*
G01*
X86802000Y-96091000D01*
G75*
G02*
X86937000Y-95956000I135000J0D01*
G01*
X87307000Y-95956000D01*
G75*
G02*
X87442000Y-96091000I0J-135000D01*
G01*
X87442000Y-96361000D01*
G75*
G02*
X87307000Y-96496000I-135000J0D01*
G01*
G37*
G04 #@! TD.AperFunction*
G04 #@! TA.AperFunction,SMDPad,CuDef*
G36*
G01*
X87307000Y-97516000D02*
X86937000Y-97516000D01*
G75*
G02*
X86802000Y-97381000I0J135000D01*
G01*
X86802000Y-97111000D01*
G75*
G02*
X86937000Y-96976000I135000J0D01*
G01*
X87307000Y-96976000D01*
G75*
G02*
X87442000Y-97111000I0J-135000D01*
G01*
X87442000Y-97381000D01*
G75*
G02*
X87307000Y-97516000I-135000J0D01*
G01*
G37*
G04 #@! TD.AperFunction*
G04 #@! TA.AperFunction,SMDPad,CuDef*
G36*
G01*
X87307000Y-94464000D02*
X86937000Y-94464000D01*
G75*
G02*
X86802000Y-94329000I0J135000D01*
G01*
X86802000Y-94059000D01*
G75*
G02*
X86937000Y-93924000I135000J0D01*
G01*
X87307000Y-93924000D01*
G75*
G02*
X87442000Y-94059000I0J-135000D01*
G01*
X87442000Y-94329000D01*
G75*
G02*
X87307000Y-94464000I-135000J0D01*
G01*
G37*
G04 #@! TD.AperFunction*
G04 #@! TA.AperFunction,SMDPad,CuDef*
G36*
G01*
X87307000Y-95484000D02*
X86937000Y-95484000D01*
G75*
G02*
X86802000Y-95349000I0J135000D01*
G01*
X86802000Y-95079000D01*
G75*
G02*
X86937000Y-94944000I135000J0D01*
G01*
X87307000Y-94944000D01*
G75*
G02*
X87442000Y-95079000I0J-135000D01*
G01*
X87442000Y-95349000D01*
G75*
G02*
X87307000Y-95484000I-135000J0D01*
G01*
G37*
G04 #@! TD.AperFunction*
G04 #@! TA.AperFunction,SMDPad,CuDef*
G36*
G01*
X80195000Y-96496000D02*
X79825000Y-96496000D01*
G75*
G02*
X79690000Y-96361000I0J135000D01*
G01*
X79690000Y-96091000D01*
G75*
G02*
X79825000Y-95956000I135000J0D01*
G01*
X80195000Y-95956000D01*
G75*
G02*
X80330000Y-96091000I0J-135000D01*
G01*
X80330000Y-96361000D01*
G75*
G02*
X80195000Y-96496000I-135000J0D01*
G01*
G37*
G04 #@! TD.AperFunction*
G04 #@! TA.AperFunction,SMDPad,CuDef*
G36*
G01*
X80195000Y-97516000D02*
X79825000Y-97516000D01*
G75*
G02*
X79690000Y-97381000I0J135000D01*
G01*
X79690000Y-97111000D01*
G75*
G02*
X79825000Y-96976000I135000J0D01*
G01*
X80195000Y-96976000D01*
G75*
G02*
X80330000Y-97111000I0J-135000D01*
G01*
X80330000Y-97381000D01*
G75*
G02*
X80195000Y-97516000I-135000J0D01*
G01*
G37*
G04 #@! TD.AperFunction*
D14*
X90662000Y-95466000D03*
X88662000Y-96416000D03*
X88662000Y-94516000D03*
X83550000Y-95466000D03*
X81550000Y-96416000D03*
X81550000Y-94516000D03*
G04 #@! TA.AperFunction,SMDPad,CuDef*
G36*
G01*
X104789000Y-84613000D02*
X104789000Y-84983000D01*
G75*
G02*
X104654000Y-85118000I-135000J0D01*
G01*
X104384000Y-85118000D01*
G75*
G02*
X104249000Y-84983000I0J135000D01*
G01*
X104249000Y-84613000D01*
G75*
G02*
X104384000Y-84478000I135000J0D01*
G01*
X104654000Y-84478000D01*
G75*
G02*
X104789000Y-84613000I0J-135000D01*
G01*
G37*
G04 #@! TD.AperFunction*
G04 #@! TA.AperFunction,SMDPad,CuDef*
G36*
G01*
X105809000Y-84613000D02*
X105809000Y-84983000D01*
G75*
G02*
X105674000Y-85118000I-135000J0D01*
G01*
X105404000Y-85118000D01*
G75*
G02*
X105269000Y-84983000I0J135000D01*
G01*
X105269000Y-84613000D01*
G75*
G02*
X105404000Y-84478000I135000J0D01*
G01*
X105674000Y-84478000D01*
G75*
G02*
X105809000Y-84613000I0J-135000D01*
G01*
G37*
G04 #@! TD.AperFunction*
G04 #@! TA.AperFunction,SMDPad,CuDef*
G36*
G01*
X102339000Y-110936000D02*
X102639000Y-110936000D01*
G75*
G02*
X102789000Y-111086000I0J-150000D01*
G01*
X102789000Y-112736000D01*
G75*
G02*
X102639000Y-112886000I-150000J0D01*
G01*
X102339000Y-112886000D01*
G75*
G02*
X102189000Y-112736000I0J150000D01*
G01*
X102189000Y-111086000D01*
G75*
G02*
X102339000Y-110936000I150000J0D01*
G01*
G37*
G04 #@! TD.AperFunction*
G04 #@! TA.AperFunction,SMDPad,CuDef*
G36*
G01*
X101069000Y-110936000D02*
X101369000Y-110936000D01*
G75*
G02*
X101519000Y-111086000I0J-150000D01*
G01*
X101519000Y-112736000D01*
G75*
G02*
X101369000Y-112886000I-150000J0D01*
G01*
X101069000Y-112886000D01*
G75*
G02*
X100919000Y-112736000I0J150000D01*
G01*
X100919000Y-111086000D01*
G75*
G02*
X101069000Y-110936000I150000J0D01*
G01*
G37*
G04 #@! TD.AperFunction*
G04 #@! TA.AperFunction,SMDPad,CuDef*
G36*
G01*
X99799000Y-110936000D02*
X100099000Y-110936000D01*
G75*
G02*
X100249000Y-111086000I0J-150000D01*
G01*
X100249000Y-112736000D01*
G75*
G02*
X100099000Y-112886000I-150000J0D01*
G01*
X99799000Y-112886000D01*
G75*
G02*
X99649000Y-112736000I0J150000D01*
G01*
X99649000Y-111086000D01*
G75*
G02*
X99799000Y-110936000I150000J0D01*
G01*
G37*
G04 #@! TD.AperFunction*
G04 #@! TA.AperFunction,SMDPad,CuDef*
G36*
G01*
X98529000Y-110936000D02*
X98829000Y-110936000D01*
G75*
G02*
X98979000Y-111086000I0J-150000D01*
G01*
X98979000Y-112736000D01*
G75*
G02*
X98829000Y-112886000I-150000J0D01*
G01*
X98529000Y-112886000D01*
G75*
G02*
X98379000Y-112736000I0J150000D01*
G01*
X98379000Y-111086000D01*
G75*
G02*
X98529000Y-110936000I150000J0D01*
G01*
G37*
G04 #@! TD.AperFunction*
G04 #@! TA.AperFunction,SMDPad,CuDef*
G36*
G01*
X98529000Y-105986000D02*
X98829000Y-105986000D01*
G75*
G02*
X98979000Y-106136000I0J-150000D01*
G01*
X98979000Y-107786000D01*
G75*
G02*
X98829000Y-107936000I-150000J0D01*
G01*
X98529000Y-107936000D01*
G75*
G02*
X98379000Y-107786000I0J150000D01*
G01*
X98379000Y-106136000D01*
G75*
G02*
X98529000Y-105986000I150000J0D01*
G01*
G37*
G04 #@! TD.AperFunction*
G04 #@! TA.AperFunction,SMDPad,CuDef*
G36*
G01*
X99799000Y-105986000D02*
X100099000Y-105986000D01*
G75*
G02*
X100249000Y-106136000I0J-150000D01*
G01*
X100249000Y-107786000D01*
G75*
G02*
X100099000Y-107936000I-150000J0D01*
G01*
X99799000Y-107936000D01*
G75*
G02*
X99649000Y-107786000I0J150000D01*
G01*
X99649000Y-106136000D01*
G75*
G02*
X99799000Y-105986000I150000J0D01*
G01*
G37*
G04 #@! TD.AperFunction*
G04 #@! TA.AperFunction,SMDPad,CuDef*
G36*
G01*
X101069000Y-105986000D02*
X101369000Y-105986000D01*
G75*
G02*
X101519000Y-106136000I0J-150000D01*
G01*
X101519000Y-107786000D01*
G75*
G02*
X101369000Y-107936000I-150000J0D01*
G01*
X101069000Y-107936000D01*
G75*
G02*
X100919000Y-107786000I0J150000D01*
G01*
X100919000Y-106136000D01*
G75*
G02*
X101069000Y-105986000I150000J0D01*
G01*
G37*
G04 #@! TD.AperFunction*
G04 #@! TA.AperFunction,SMDPad,CuDef*
G36*
G01*
X102339000Y-105986000D02*
X102639000Y-105986000D01*
G75*
G02*
X102789000Y-106136000I0J-150000D01*
G01*
X102789000Y-107786000D01*
G75*
G02*
X102639000Y-107936000I-150000J0D01*
G01*
X102339000Y-107936000D01*
G75*
G02*
X102189000Y-107786000I0J150000D01*
G01*
X102189000Y-106136000D01*
G75*
G02*
X102339000Y-105986000I150000J0D01*
G01*
G37*
G04 #@! TD.AperFunction*
G04 #@! TA.AperFunction,SMDPad,CuDef*
G36*
G01*
X107927000Y-110936000D02*
X108227000Y-110936000D01*
G75*
G02*
X108377000Y-111086000I0J-150000D01*
G01*
X108377000Y-112736000D01*
G75*
G02*
X108227000Y-112886000I-150000J0D01*
G01*
X107927000Y-112886000D01*
G75*
G02*
X107777000Y-112736000I0J150000D01*
G01*
X107777000Y-111086000D01*
G75*
G02*
X107927000Y-110936000I150000J0D01*
G01*
G37*
G04 #@! TD.AperFunction*
G04 #@! TA.AperFunction,SMDPad,CuDef*
G36*
G01*
X106657000Y-110936000D02*
X106957000Y-110936000D01*
G75*
G02*
X107107000Y-111086000I0J-150000D01*
G01*
X107107000Y-112736000D01*
G75*
G02*
X106957000Y-112886000I-150000J0D01*
G01*
X106657000Y-112886000D01*
G75*
G02*
X106507000Y-112736000I0J150000D01*
G01*
X106507000Y-111086000D01*
G75*
G02*
X106657000Y-110936000I150000J0D01*
G01*
G37*
G04 #@! TD.AperFunction*
G04 #@! TA.AperFunction,SMDPad,CuDef*
G36*
G01*
X105387000Y-110936000D02*
X105687000Y-110936000D01*
G75*
G02*
X105837000Y-111086000I0J-150000D01*
G01*
X105837000Y-112736000D01*
G75*
G02*
X105687000Y-112886000I-150000J0D01*
G01*
X105387000Y-112886000D01*
G75*
G02*
X105237000Y-112736000I0J150000D01*
G01*
X105237000Y-111086000D01*
G75*
G02*
X105387000Y-110936000I150000J0D01*
G01*
G37*
G04 #@! TD.AperFunction*
G04 #@! TA.AperFunction,SMDPad,CuDef*
G36*
G01*
X104117000Y-110936000D02*
X104417000Y-110936000D01*
G75*
G02*
X104567000Y-111086000I0J-150000D01*
G01*
X104567000Y-112736000D01*
G75*
G02*
X104417000Y-112886000I-150000J0D01*
G01*
X104117000Y-112886000D01*
G75*
G02*
X103967000Y-112736000I0J150000D01*
G01*
X103967000Y-111086000D01*
G75*
G02*
X104117000Y-110936000I150000J0D01*
G01*
G37*
G04 #@! TD.AperFunction*
G04 #@! TA.AperFunction,SMDPad,CuDef*
G36*
G01*
X104117000Y-105986000D02*
X104417000Y-105986000D01*
G75*
G02*
X104567000Y-106136000I0J-150000D01*
G01*
X104567000Y-107786000D01*
G75*
G02*
X104417000Y-107936000I-150000J0D01*
G01*
X104117000Y-107936000D01*
G75*
G02*
X103967000Y-107786000I0J150000D01*
G01*
X103967000Y-106136000D01*
G75*
G02*
X104117000Y-105986000I150000J0D01*
G01*
G37*
G04 #@! TD.AperFunction*
G04 #@! TA.AperFunction,SMDPad,CuDef*
G36*
G01*
X105387000Y-105986000D02*
X105687000Y-105986000D01*
G75*
G02*
X105837000Y-106136000I0J-150000D01*
G01*
X105837000Y-107786000D01*
G75*
G02*
X105687000Y-107936000I-150000J0D01*
G01*
X105387000Y-107936000D01*
G75*
G02*
X105237000Y-107786000I0J150000D01*
G01*
X105237000Y-106136000D01*
G75*
G02*
X105387000Y-105986000I150000J0D01*
G01*
G37*
G04 #@! TD.AperFunction*
G04 #@! TA.AperFunction,SMDPad,CuDef*
G36*
G01*
X106657000Y-105986000D02*
X106957000Y-105986000D01*
G75*
G02*
X107107000Y-106136000I0J-150000D01*
G01*
X107107000Y-107786000D01*
G75*
G02*
X106957000Y-107936000I-150000J0D01*
G01*
X106657000Y-107936000D01*
G75*
G02*
X106507000Y-107786000I0J150000D01*
G01*
X106507000Y-106136000D01*
G75*
G02*
X106657000Y-105986000I150000J0D01*
G01*
G37*
G04 #@! TD.AperFunction*
G04 #@! TA.AperFunction,SMDPad,CuDef*
G36*
G01*
X107927000Y-105986000D02*
X108227000Y-105986000D01*
G75*
G02*
X108377000Y-106136000I0J-150000D01*
G01*
X108377000Y-107786000D01*
G75*
G02*
X108227000Y-107936000I-150000J0D01*
G01*
X107927000Y-107936000D01*
G75*
G02*
X107777000Y-107786000I0J150000D01*
G01*
X107777000Y-106136000D01*
G75*
G02*
X107927000Y-105986000I150000J0D01*
G01*
G37*
G04 #@! TD.AperFunction*
G04 #@! TA.AperFunction,SMDPad,CuDef*
G36*
G01*
X114150000Y-110936000D02*
X114450000Y-110936000D01*
G75*
G02*
X114600000Y-111086000I0J-150000D01*
G01*
X114600000Y-112736000D01*
G75*
G02*
X114450000Y-112886000I-150000J0D01*
G01*
X114150000Y-112886000D01*
G75*
G02*
X114000000Y-112736000I0J150000D01*
G01*
X114000000Y-111086000D01*
G75*
G02*
X114150000Y-110936000I150000J0D01*
G01*
G37*
G04 #@! TD.AperFunction*
G04 #@! TA.AperFunction,SMDPad,CuDef*
G36*
G01*
X112880000Y-110936000D02*
X113180000Y-110936000D01*
G75*
G02*
X113330000Y-111086000I0J-150000D01*
G01*
X113330000Y-112736000D01*
G75*
G02*
X113180000Y-112886000I-150000J0D01*
G01*
X112880000Y-112886000D01*
G75*
G02*
X112730000Y-112736000I0J150000D01*
G01*
X112730000Y-111086000D01*
G75*
G02*
X112880000Y-110936000I150000J0D01*
G01*
G37*
G04 #@! TD.AperFunction*
G04 #@! TA.AperFunction,SMDPad,CuDef*
G36*
G01*
X111610000Y-110936000D02*
X111910000Y-110936000D01*
G75*
G02*
X112060000Y-111086000I0J-150000D01*
G01*
X112060000Y-112736000D01*
G75*
G02*
X111910000Y-112886000I-150000J0D01*
G01*
X111610000Y-112886000D01*
G75*
G02*
X111460000Y-112736000I0J150000D01*
G01*
X111460000Y-111086000D01*
G75*
G02*
X111610000Y-110936000I150000J0D01*
G01*
G37*
G04 #@! TD.AperFunction*
G04 #@! TA.AperFunction,SMDPad,CuDef*
G36*
G01*
X110340000Y-110936000D02*
X110640000Y-110936000D01*
G75*
G02*
X110790000Y-111086000I0J-150000D01*
G01*
X110790000Y-112736000D01*
G75*
G02*
X110640000Y-112886000I-150000J0D01*
G01*
X110340000Y-112886000D01*
G75*
G02*
X110190000Y-112736000I0J150000D01*
G01*
X110190000Y-111086000D01*
G75*
G02*
X110340000Y-110936000I150000J0D01*
G01*
G37*
G04 #@! TD.AperFunction*
G04 #@! TA.AperFunction,SMDPad,CuDef*
G36*
G01*
X110340000Y-105986000D02*
X110640000Y-105986000D01*
G75*
G02*
X110790000Y-106136000I0J-150000D01*
G01*
X110790000Y-107786000D01*
G75*
G02*
X110640000Y-107936000I-150000J0D01*
G01*
X110340000Y-107936000D01*
G75*
G02*
X110190000Y-107786000I0J150000D01*
G01*
X110190000Y-106136000D01*
G75*
G02*
X110340000Y-105986000I150000J0D01*
G01*
G37*
G04 #@! TD.AperFunction*
G04 #@! TA.AperFunction,SMDPad,CuDef*
G36*
G01*
X111610000Y-105986000D02*
X111910000Y-105986000D01*
G75*
G02*
X112060000Y-106136000I0J-150000D01*
G01*
X112060000Y-107786000D01*
G75*
G02*
X111910000Y-107936000I-150000J0D01*
G01*
X111610000Y-107936000D01*
G75*
G02*
X111460000Y-107786000I0J150000D01*
G01*
X111460000Y-106136000D01*
G75*
G02*
X111610000Y-105986000I150000J0D01*
G01*
G37*
G04 #@! TD.AperFunction*
G04 #@! TA.AperFunction,SMDPad,CuDef*
G36*
G01*
X112880000Y-105986000D02*
X113180000Y-105986000D01*
G75*
G02*
X113330000Y-106136000I0J-150000D01*
G01*
X113330000Y-107786000D01*
G75*
G02*
X113180000Y-107936000I-150000J0D01*
G01*
X112880000Y-107936000D01*
G75*
G02*
X112730000Y-107786000I0J150000D01*
G01*
X112730000Y-106136000D01*
G75*
G02*
X112880000Y-105986000I150000J0D01*
G01*
G37*
G04 #@! TD.AperFunction*
G04 #@! TA.AperFunction,SMDPad,CuDef*
G36*
G01*
X114150000Y-105986000D02*
X114450000Y-105986000D01*
G75*
G02*
X114600000Y-106136000I0J-150000D01*
G01*
X114600000Y-107786000D01*
G75*
G02*
X114450000Y-107936000I-150000J0D01*
G01*
X114150000Y-107936000D01*
G75*
G02*
X114000000Y-107786000I0J150000D01*
G01*
X114000000Y-106136000D01*
G75*
G02*
X114150000Y-105986000I150000J0D01*
G01*
G37*
G04 #@! TD.AperFunction*
G04 #@! TA.AperFunction,SMDPad,CuDef*
G36*
G01*
X119865000Y-110936000D02*
X120165000Y-110936000D01*
G75*
G02*
X120315000Y-111086000I0J-150000D01*
G01*
X120315000Y-112736000D01*
G75*
G02*
X120165000Y-112886000I-150000J0D01*
G01*
X119865000Y-112886000D01*
G75*
G02*
X119715000Y-112736000I0J150000D01*
G01*
X119715000Y-111086000D01*
G75*
G02*
X119865000Y-110936000I150000J0D01*
G01*
G37*
G04 #@! TD.AperFunction*
G04 #@! TA.AperFunction,SMDPad,CuDef*
G36*
G01*
X118595000Y-110936000D02*
X118895000Y-110936000D01*
G75*
G02*
X119045000Y-111086000I0J-150000D01*
G01*
X119045000Y-112736000D01*
G75*
G02*
X118895000Y-112886000I-150000J0D01*
G01*
X118595000Y-112886000D01*
G75*
G02*
X118445000Y-112736000I0J150000D01*
G01*
X118445000Y-111086000D01*
G75*
G02*
X118595000Y-110936000I150000J0D01*
G01*
G37*
G04 #@! TD.AperFunction*
G04 #@! TA.AperFunction,SMDPad,CuDef*
G36*
G01*
X117325000Y-110936000D02*
X117625000Y-110936000D01*
G75*
G02*
X117775000Y-111086000I0J-150000D01*
G01*
X117775000Y-112736000D01*
G75*
G02*
X117625000Y-112886000I-150000J0D01*
G01*
X117325000Y-112886000D01*
G75*
G02*
X117175000Y-112736000I0J150000D01*
G01*
X117175000Y-111086000D01*
G75*
G02*
X117325000Y-110936000I150000J0D01*
G01*
G37*
G04 #@! TD.AperFunction*
G04 #@! TA.AperFunction,SMDPad,CuDef*
G36*
G01*
X116055000Y-110936000D02*
X116355000Y-110936000D01*
G75*
G02*
X116505000Y-111086000I0J-150000D01*
G01*
X116505000Y-112736000D01*
G75*
G02*
X116355000Y-112886000I-150000J0D01*
G01*
X116055000Y-112886000D01*
G75*
G02*
X115905000Y-112736000I0J150000D01*
G01*
X115905000Y-111086000D01*
G75*
G02*
X116055000Y-110936000I150000J0D01*
G01*
G37*
G04 #@! TD.AperFunction*
G04 #@! TA.AperFunction,SMDPad,CuDef*
G36*
G01*
X116055000Y-105986000D02*
X116355000Y-105986000D01*
G75*
G02*
X116505000Y-106136000I0J-150000D01*
G01*
X116505000Y-107786000D01*
G75*
G02*
X116355000Y-107936000I-150000J0D01*
G01*
X116055000Y-107936000D01*
G75*
G02*
X115905000Y-107786000I0J150000D01*
G01*
X115905000Y-106136000D01*
G75*
G02*
X116055000Y-105986000I150000J0D01*
G01*
G37*
G04 #@! TD.AperFunction*
G04 #@! TA.AperFunction,SMDPad,CuDef*
G36*
G01*
X117325000Y-105986000D02*
X117625000Y-105986000D01*
G75*
G02*
X117775000Y-106136000I0J-150000D01*
G01*
X117775000Y-107786000D01*
G75*
G02*
X117625000Y-107936000I-150000J0D01*
G01*
X117325000Y-107936000D01*
G75*
G02*
X117175000Y-107786000I0J150000D01*
G01*
X117175000Y-106136000D01*
G75*
G02*
X117325000Y-105986000I150000J0D01*
G01*
G37*
G04 #@! TD.AperFunction*
G04 #@! TA.AperFunction,SMDPad,CuDef*
G36*
G01*
X118595000Y-105986000D02*
X118895000Y-105986000D01*
G75*
G02*
X119045000Y-106136000I0J-150000D01*
G01*
X119045000Y-107786000D01*
G75*
G02*
X118895000Y-107936000I-150000J0D01*
G01*
X118595000Y-107936000D01*
G75*
G02*
X118445000Y-107786000I0J150000D01*
G01*
X118445000Y-106136000D01*
G75*
G02*
X118595000Y-105986000I150000J0D01*
G01*
G37*
G04 #@! TD.AperFunction*
G04 #@! TA.AperFunction,SMDPad,CuDef*
G36*
G01*
X119865000Y-105986000D02*
X120165000Y-105986000D01*
G75*
G02*
X120315000Y-106136000I0J-150000D01*
G01*
X120315000Y-107786000D01*
G75*
G02*
X120165000Y-107936000I-150000J0D01*
G01*
X119865000Y-107936000D01*
G75*
G02*
X119715000Y-107786000I0J150000D01*
G01*
X119715000Y-106136000D01*
G75*
G02*
X119865000Y-105986000I150000J0D01*
G01*
G37*
G04 #@! TD.AperFunction*
G04 #@! TA.AperFunction,SMDPad,CuDef*
G36*
G01*
X104789000Y-85883000D02*
X104789000Y-86253000D01*
G75*
G02*
X104654000Y-86388000I-135000J0D01*
G01*
X104384000Y-86388000D01*
G75*
G02*
X104249000Y-86253000I0J135000D01*
G01*
X104249000Y-85883000D01*
G75*
G02*
X104384000Y-85748000I135000J0D01*
G01*
X104654000Y-85748000D01*
G75*
G02*
X104789000Y-85883000I0J-135000D01*
G01*
G37*
G04 #@! TD.AperFunction*
G04 #@! TA.AperFunction,SMDPad,CuDef*
G36*
G01*
X105809000Y-85883000D02*
X105809000Y-86253000D01*
G75*
G02*
X105674000Y-86388000I-135000J0D01*
G01*
X105404000Y-86388000D01*
G75*
G02*
X105269000Y-86253000I0J135000D01*
G01*
X105269000Y-85883000D01*
G75*
G02*
X105404000Y-85748000I135000J0D01*
G01*
X105674000Y-85748000D01*
G75*
G02*
X105809000Y-85883000I0J-135000D01*
G01*
G37*
G04 #@! TD.AperFunction*
G04 #@! TA.AperFunction,SMDPad,CuDef*
G36*
G01*
X105269000Y-87523000D02*
X105269000Y-87153000D01*
G75*
G02*
X105404000Y-87018000I135000J0D01*
G01*
X105674000Y-87018000D01*
G75*
G02*
X105809000Y-87153000I0J-135000D01*
G01*
X105809000Y-87523000D01*
G75*
G02*
X105674000Y-87658000I-135000J0D01*
G01*
X105404000Y-87658000D01*
G75*
G02*
X105269000Y-87523000I0J135000D01*
G01*
G37*
G04 #@! TD.AperFunction*
G04 #@! TA.AperFunction,SMDPad,CuDef*
G36*
G01*
X104249000Y-87523000D02*
X104249000Y-87153000D01*
G75*
G02*
X104384000Y-87018000I135000J0D01*
G01*
X104654000Y-87018000D01*
G75*
G02*
X104789000Y-87153000I0J-135000D01*
G01*
X104789000Y-87523000D01*
G75*
G02*
X104654000Y-87658000I-135000J0D01*
G01*
X104384000Y-87658000D01*
G75*
G02*
X104249000Y-87523000I0J135000D01*
G01*
G37*
G04 #@! TD.AperFunction*
G04 #@! TA.AperFunction,SMDPad,CuDef*
D15*
G36*
X101995000Y-94262500D02*
G01*
X98870000Y-94262500D01*
X98870000Y-93846000D01*
X97395000Y-93846000D01*
X97395000Y-92946000D01*
X98870000Y-92946000D01*
X98870000Y-92529500D01*
X101995000Y-92529500D01*
X101995000Y-94262500D01*
G37*
G04 #@! TD.AperFunction*
D16*
X98045000Y-94896000D03*
X98045000Y-91896000D03*
D17*
X86995000Y-118707000D03*
X92075000Y-118707000D03*
X85090000Y-108420000D03*
X85090000Y-103340000D03*
X106680000Y-118707000D03*
X111760000Y-118707000D03*
G04 #@! TA.AperFunction,SMDPad,CuDef*
G36*
G01*
X110064000Y-94534000D02*
X110064000Y-94874000D01*
G75*
G02*
X109924000Y-95014000I-140000J0D01*
G01*
X109644000Y-95014000D01*
G75*
G02*
X109504000Y-94874000I0J140000D01*
G01*
X109504000Y-94534000D01*
G75*
G02*
X109644000Y-94394000I140000J0D01*
G01*
X109924000Y-94394000D01*
G75*
G02*
X110064000Y-94534000I0J-140000D01*
G01*
G37*
G04 #@! TD.AperFunction*
G04 #@! TA.AperFunction,SMDPad,CuDef*
G36*
G01*
X111024000Y-94534000D02*
X111024000Y-94874000D01*
G75*
G02*
X110884000Y-95014000I-140000J0D01*
G01*
X110604000Y-95014000D01*
G75*
G02*
X110464000Y-94874000I0J140000D01*
G01*
X110464000Y-94534000D01*
G75*
G02*
X110604000Y-94394000I140000J0D01*
G01*
X110884000Y-94394000D01*
G75*
G02*
X111024000Y-94534000I0J-140000D01*
G01*
G37*
G04 #@! TD.AperFunction*
G04 #@! TA.AperFunction,SMDPad,CuDef*
G36*
G01*
X120478000Y-94534000D02*
X120478000Y-94874000D01*
G75*
G02*
X120338000Y-95014000I-140000J0D01*
G01*
X120058000Y-95014000D01*
G75*
G02*
X119918000Y-94874000I0J140000D01*
G01*
X119918000Y-94534000D01*
G75*
G02*
X120058000Y-94394000I140000J0D01*
G01*
X120338000Y-94394000D01*
G75*
G02*
X120478000Y-94534000I0J-140000D01*
G01*
G37*
G04 #@! TD.AperFunction*
G04 #@! TA.AperFunction,SMDPad,CuDef*
G36*
G01*
X121438000Y-94534000D02*
X121438000Y-94874000D01*
G75*
G02*
X121298000Y-95014000I-140000J0D01*
G01*
X121018000Y-95014000D01*
G75*
G02*
X120878000Y-94874000I0J140000D01*
G01*
X120878000Y-94534000D01*
G75*
G02*
X121018000Y-94394000I140000J0D01*
G01*
X121298000Y-94394000D01*
G75*
G02*
X121438000Y-94534000I0J-140000D01*
G01*
G37*
G04 #@! TD.AperFunction*
G04 #@! TA.AperFunction,SMDPad,CuDef*
G36*
G01*
X118636000Y-95281000D02*
X118636000Y-95651000D01*
G75*
G02*
X118501000Y-95786000I-135000J0D01*
G01*
X118231000Y-95786000D01*
G75*
G02*
X118096000Y-95651000I0J135000D01*
G01*
X118096000Y-95281000D01*
G75*
G02*
X118231000Y-95146000I135000J0D01*
G01*
X118501000Y-95146000D01*
G75*
G02*
X118636000Y-95281000I0J-135000D01*
G01*
G37*
G04 #@! TD.AperFunction*
G04 #@! TA.AperFunction,SMDPad,CuDef*
G36*
G01*
X117616000Y-95281000D02*
X117616000Y-95651000D01*
G75*
G02*
X117481000Y-95786000I-135000J0D01*
G01*
X117211000Y-95786000D01*
G75*
G02*
X117076000Y-95651000I0J135000D01*
G01*
X117076000Y-95281000D01*
G75*
G02*
X117211000Y-95146000I135000J0D01*
G01*
X117481000Y-95146000D01*
G75*
G02*
X117616000Y-95281000I0J-135000D01*
G01*
G37*
G04 #@! TD.AperFunction*
G04 #@! TA.AperFunction,SMDPad,CuDef*
G36*
G01*
X118096000Y-97404000D02*
X118096000Y-97084000D01*
G75*
G02*
X118256000Y-96924000I160000J0D01*
G01*
X118651000Y-96924000D01*
G75*
G02*
X118811000Y-97084000I0J-160000D01*
G01*
X118811000Y-97404000D01*
G75*
G02*
X118651000Y-97564000I-160000J0D01*
G01*
X118256000Y-97564000D01*
G75*
G02*
X118096000Y-97404000I0J160000D01*
G01*
G37*
G04 #@! TD.AperFunction*
G04 #@! TA.AperFunction,SMDPad,CuDef*
G36*
G01*
X116901000Y-97404000D02*
X116901000Y-97084000D01*
G75*
G02*
X117061000Y-96924000I160000J0D01*
G01*
X117456000Y-96924000D01*
G75*
G02*
X117616000Y-97084000I0J-160000D01*
G01*
X117616000Y-97404000D01*
G75*
G02*
X117456000Y-97564000I-160000J0D01*
G01*
X117061000Y-97564000D01*
G75*
G02*
X116901000Y-97404000I0J160000D01*
G01*
G37*
G04 #@! TD.AperFunction*
D14*
X113681000Y-96294000D03*
X113681000Y-98194000D03*
X115681000Y-97244000D03*
X120031000Y-96294000D03*
X120031000Y-98194000D03*
X122031000Y-97244000D03*
G04 #@! TA.AperFunction,SMDPad,CuDef*
G36*
G01*
X117656000Y-98359000D02*
X117656000Y-98669000D01*
G75*
G02*
X117501000Y-98824000I-155000J0D01*
G01*
X117076000Y-98824000D01*
G75*
G02*
X116921000Y-98669000I0J155000D01*
G01*
X116921000Y-98359000D01*
G75*
G02*
X117076000Y-98204000I155000J0D01*
G01*
X117501000Y-98204000D01*
G75*
G02*
X117656000Y-98359000I0J-155000D01*
G01*
G37*
G04 #@! TD.AperFunction*
G04 #@! TA.AperFunction,SMDPad,CuDef*
G36*
G01*
X118791000Y-98359000D02*
X118791000Y-98669000D01*
G75*
G02*
X118636000Y-98824000I-155000J0D01*
G01*
X118211000Y-98824000D01*
G75*
G02*
X118056000Y-98669000I0J155000D01*
G01*
X118056000Y-98359000D01*
G75*
G02*
X118211000Y-98204000I155000J0D01*
G01*
X118636000Y-98204000D01*
G75*
G02*
X118791000Y-98359000I0J-155000D01*
G01*
G37*
G04 #@! TD.AperFunction*
X109617000Y-96294000D03*
X109617000Y-98194000D03*
X111617000Y-97244000D03*
G04 #@! TA.AperFunction,SMDPad,CuDef*
G36*
G01*
X108222000Y-95281000D02*
X108222000Y-95651000D01*
G75*
G02*
X108087000Y-95786000I-135000J0D01*
G01*
X107817000Y-95786000D01*
G75*
G02*
X107682000Y-95651000I0J135000D01*
G01*
X107682000Y-95281000D01*
G75*
G02*
X107817000Y-95146000I135000J0D01*
G01*
X108087000Y-95146000D01*
G75*
G02*
X108222000Y-95281000I0J-135000D01*
G01*
G37*
G04 #@! TD.AperFunction*
G04 #@! TA.AperFunction,SMDPad,CuDef*
G36*
G01*
X107202000Y-95281000D02*
X107202000Y-95651000D01*
G75*
G02*
X107067000Y-95786000I-135000J0D01*
G01*
X106797000Y-95786000D01*
G75*
G02*
X106662000Y-95651000I0J135000D01*
G01*
X106662000Y-95281000D01*
G75*
G02*
X106797000Y-95146000I135000J0D01*
G01*
X107067000Y-95146000D01*
G75*
G02*
X107202000Y-95281000I0J-135000D01*
G01*
G37*
G04 #@! TD.AperFunction*
G04 #@! TA.AperFunction,SMDPad,CuDef*
G36*
G01*
X107682000Y-97404000D02*
X107682000Y-97084000D01*
G75*
G02*
X107842000Y-96924000I160000J0D01*
G01*
X108237000Y-96924000D01*
G75*
G02*
X108397000Y-97084000I0J-160000D01*
G01*
X108397000Y-97404000D01*
G75*
G02*
X108237000Y-97564000I-160000J0D01*
G01*
X107842000Y-97564000D01*
G75*
G02*
X107682000Y-97404000I0J160000D01*
G01*
G37*
G04 #@! TD.AperFunction*
G04 #@! TA.AperFunction,SMDPad,CuDef*
G36*
G01*
X106487000Y-97404000D02*
X106487000Y-97084000D01*
G75*
G02*
X106647000Y-96924000I160000J0D01*
G01*
X107042000Y-96924000D01*
G75*
G02*
X107202000Y-97084000I0J-160000D01*
G01*
X107202000Y-97404000D01*
G75*
G02*
X107042000Y-97564000I-160000J0D01*
G01*
X106647000Y-97564000D01*
G75*
G02*
X106487000Y-97404000I0J160000D01*
G01*
G37*
G04 #@! TD.AperFunction*
X103267000Y-96294000D03*
X103267000Y-98194000D03*
X105267000Y-97244000D03*
G04 #@! TA.AperFunction,SMDPad,CuDef*
G36*
G01*
X107242000Y-98359000D02*
X107242000Y-98669000D01*
G75*
G02*
X107087000Y-98824000I-155000J0D01*
G01*
X106662000Y-98824000D01*
G75*
G02*
X106507000Y-98669000I0J155000D01*
G01*
X106507000Y-98359000D01*
G75*
G02*
X106662000Y-98204000I155000J0D01*
G01*
X107087000Y-98204000D01*
G75*
G02*
X107242000Y-98359000I0J-155000D01*
G01*
G37*
G04 #@! TD.AperFunction*
G04 #@! TA.AperFunction,SMDPad,CuDef*
G36*
G01*
X108377000Y-98359000D02*
X108377000Y-98669000D01*
G75*
G02*
X108222000Y-98824000I-155000J0D01*
G01*
X107797000Y-98824000D01*
G75*
G02*
X107642000Y-98669000I0J155000D01*
G01*
X107642000Y-98359000D01*
G75*
G02*
X107797000Y-98204000I155000J0D01*
G01*
X108222000Y-98204000D01*
G75*
G02*
X108377000Y-98359000I0J-155000D01*
G01*
G37*
G04 #@! TD.AperFunction*
G04 #@! TA.AperFunction,SMDPad,CuDef*
G36*
G01*
X96008000Y-94379000D02*
X95508000Y-94379000D01*
G75*
G02*
X95283000Y-94154000I0J225000D01*
G01*
X95283000Y-93704000D01*
G75*
G02*
X95508000Y-93479000I225000J0D01*
G01*
X96008000Y-93479000D01*
G75*
G02*
X96233000Y-93704000I0J-225000D01*
G01*
X96233000Y-94154000D01*
G75*
G02*
X96008000Y-94379000I-225000J0D01*
G01*
G37*
G04 #@! TD.AperFunction*
G04 #@! TA.AperFunction,SMDPad,CuDef*
G36*
G01*
X96008000Y-95929000D02*
X95508000Y-95929000D01*
G75*
G02*
X95283000Y-95704000I0J225000D01*
G01*
X95283000Y-95254000D01*
G75*
G02*
X95508000Y-95029000I225000J0D01*
G01*
X96008000Y-95029000D01*
G75*
G02*
X96233000Y-95254000I0J-225000D01*
G01*
X96233000Y-95704000D01*
G75*
G02*
X96008000Y-95929000I-225000J0D01*
G01*
G37*
G04 #@! TD.AperFunction*
G04 #@! TA.AperFunction,SMDPad,CuDef*
G36*
G01*
X80518000Y-91550000D02*
X80518000Y-91210000D01*
G75*
G02*
X80658000Y-91070000I140000J0D01*
G01*
X80938000Y-91070000D01*
G75*
G02*
X81078000Y-91210000I0J-140000D01*
G01*
X81078000Y-91550000D01*
G75*
G02*
X80938000Y-91690000I-140000J0D01*
G01*
X80658000Y-91690000D01*
G75*
G02*
X80518000Y-91550000I0J140000D01*
G01*
G37*
G04 #@! TD.AperFunction*
G04 #@! TA.AperFunction,SMDPad,CuDef*
G36*
G01*
X79558000Y-91550000D02*
X79558000Y-91210000D01*
G75*
G02*
X79698000Y-91070000I140000J0D01*
G01*
X79978000Y-91070000D01*
G75*
G02*
X80118000Y-91210000I0J-140000D01*
G01*
X80118000Y-91550000D01*
G75*
G02*
X79978000Y-91690000I-140000J0D01*
G01*
X79698000Y-91690000D01*
G75*
G02*
X79558000Y-91550000I0J140000D01*
G01*
G37*
G04 #@! TD.AperFunction*
G04 #@! TA.AperFunction,SMDPad,CuDef*
G36*
G01*
X80118000Y-87710000D02*
X80118000Y-88050000D01*
G75*
G02*
X79978000Y-88190000I-140000J0D01*
G01*
X79698000Y-88190000D01*
G75*
G02*
X79558000Y-88050000I0J140000D01*
G01*
X79558000Y-87710000D01*
G75*
G02*
X79698000Y-87570000I140000J0D01*
G01*
X79978000Y-87570000D01*
G75*
G02*
X80118000Y-87710000I0J-140000D01*
G01*
G37*
G04 #@! TD.AperFunction*
G04 #@! TA.AperFunction,SMDPad,CuDef*
G36*
G01*
X81078000Y-87710000D02*
X81078000Y-88050000D01*
G75*
G02*
X80938000Y-88190000I-140000J0D01*
G01*
X80658000Y-88190000D01*
G75*
G02*
X80518000Y-88050000I0J140000D01*
G01*
X80518000Y-87710000D01*
G75*
G02*
X80658000Y-87570000I140000J0D01*
G01*
X80938000Y-87570000D01*
G75*
G02*
X81078000Y-87710000I0J-140000D01*
G01*
G37*
G04 #@! TD.AperFunction*
G04 #@! TA.AperFunction,SMDPad,CuDef*
G36*
G01*
X80118000Y-90160000D02*
X80118000Y-90500000D01*
G75*
G02*
X79978000Y-90640000I-140000J0D01*
G01*
X79698000Y-90640000D01*
G75*
G02*
X79558000Y-90500000I0J140000D01*
G01*
X79558000Y-90160000D01*
G75*
G02*
X79698000Y-90020000I140000J0D01*
G01*
X79978000Y-90020000D01*
G75*
G02*
X80118000Y-90160000I0J-140000D01*
G01*
G37*
G04 #@! TD.AperFunction*
G04 #@! TA.AperFunction,SMDPad,CuDef*
G36*
G01*
X81078000Y-90160000D02*
X81078000Y-90500000D01*
G75*
G02*
X80938000Y-90640000I-140000J0D01*
G01*
X80658000Y-90640000D01*
G75*
G02*
X80518000Y-90500000I0J140000D01*
G01*
X80518000Y-90160000D01*
G75*
G02*
X80658000Y-90020000I140000J0D01*
G01*
X80938000Y-90020000D01*
G75*
G02*
X81078000Y-90160000I0J-140000D01*
G01*
G37*
G04 #@! TD.AperFunction*
D18*
X87630000Y-107785000D03*
X88900000Y-107785000D03*
X90170000Y-107785000D03*
X90170000Y-109055000D03*
X88900000Y-109055000D03*
X87630000Y-109055000D03*
X116967000Y-119215000D03*
X116967000Y-117945000D03*
X101473000Y-117945000D03*
X101473000Y-119215000D03*
X85344000Y-87122000D03*
X96520000Y-107150000D03*
X90170000Y-104610000D03*
X90170000Y-100800000D03*
X90170000Y-102070000D03*
X90170000Y-103340000D03*
X92710000Y-104610000D03*
X92710000Y-103340000D03*
X92710000Y-102070000D03*
X92710000Y-100800000D03*
X92710000Y-105880000D03*
X91440000Y-104610000D03*
X91440000Y-103340000D03*
X91440000Y-102070000D03*
X91440000Y-100800000D03*
X96520000Y-105880000D03*
X95250000Y-105880000D03*
X93980000Y-105880000D03*
X80645000Y-114135000D03*
X101600000Y-96990000D03*
X100330000Y-96990000D03*
X97790000Y-96990000D03*
X99060000Y-96990000D03*
X96520000Y-96990000D03*
X100330000Y-98260000D03*
X101600000Y-98260000D03*
X99060000Y-98260000D03*
X95250000Y-102070000D03*
X95250000Y-103340000D03*
X93980000Y-104610000D03*
X93980000Y-103340000D03*
X93980000Y-102070000D03*
X95250000Y-104610000D03*
X95250000Y-100800000D03*
X93980000Y-100800000D03*
X97790000Y-98260000D03*
X97790000Y-99530000D03*
X96520000Y-100800000D03*
X96520000Y-99530000D03*
X96520000Y-98260000D03*
X97790000Y-100800000D03*
X111760000Y-102070000D03*
X114300000Y-102070000D03*
X115570000Y-102070000D03*
X109220000Y-102070000D03*
X97790000Y-102070000D03*
X110490000Y-102070000D03*
X119380000Y-102070000D03*
X120650000Y-102070000D03*
X96520000Y-102070000D03*
X101600000Y-102070000D03*
X113030000Y-102070000D03*
X107950000Y-102070000D03*
X106680000Y-102070000D03*
X104140000Y-102070000D03*
X118110000Y-102070000D03*
X102870000Y-102070000D03*
X100330000Y-102070000D03*
X105410000Y-102070000D03*
X99060000Y-102070000D03*
X116840000Y-102070000D03*
X100330000Y-104610000D03*
X101600000Y-104610000D03*
X107950000Y-104610000D03*
X102870000Y-104610000D03*
X106680000Y-104610000D03*
X96520000Y-104610000D03*
X99060000Y-104610000D03*
X105410000Y-104610000D03*
X97790000Y-104610000D03*
X104140000Y-104610000D03*
X113030000Y-104610000D03*
X114300000Y-104610000D03*
X120650000Y-104610000D03*
X115570000Y-104610000D03*
X119380000Y-104610000D03*
X109220000Y-104610000D03*
X111760000Y-104610000D03*
X118110000Y-104610000D03*
X110490000Y-104610000D03*
X116840000Y-104610000D03*
X114300000Y-103340000D03*
X116840000Y-103340000D03*
X107950000Y-103340000D03*
X106680000Y-103340000D03*
X110490000Y-103340000D03*
X96520000Y-103340000D03*
X118110000Y-103340000D03*
X102870000Y-103340000D03*
X111760000Y-103340000D03*
X105410000Y-103340000D03*
X109220000Y-103340000D03*
X99060000Y-103340000D03*
X104140000Y-103340000D03*
X113030000Y-103340000D03*
X119380000Y-103340000D03*
X100330000Y-103340000D03*
X120650000Y-103340000D03*
X101600000Y-103340000D03*
X97790000Y-103340000D03*
X115570000Y-103340000D03*
X80645000Y-105245000D03*
X80645000Y-106515000D03*
X80645000Y-107785000D03*
X80645000Y-101435000D03*
X80645000Y-102705000D03*
X80645000Y-103975000D03*
X80645000Y-98895000D03*
X80645000Y-100165000D03*
X123825000Y-93815000D03*
X123825000Y-92545000D03*
X123825000Y-91275000D03*
X123825000Y-90005000D03*
X122555000Y-112865000D03*
X116205000Y-124295000D03*
X117475000Y-124295000D03*
X118745000Y-124295000D03*
X79375000Y-98895000D03*
X79375000Y-100165000D03*
X79375000Y-101435000D03*
X81915000Y-115405000D03*
X81915000Y-116675000D03*
X81915000Y-117945000D03*
X100965000Y-124295000D03*
X88265000Y-124295000D03*
X113665000Y-124295000D03*
X112395000Y-124295000D03*
X92075000Y-124295000D03*
X102235000Y-124295000D03*
X104775000Y-124295000D03*
X85725000Y-124295000D03*
X99695000Y-124295000D03*
X107315000Y-124295000D03*
X84455000Y-124295000D03*
X106045000Y-124295000D03*
X98425000Y-124295000D03*
X103505000Y-124295000D03*
X108585000Y-124295000D03*
X111125000Y-124295000D03*
X90805000Y-124295000D03*
X95885000Y-124295000D03*
X94615000Y-124295000D03*
X97155000Y-124295000D03*
X114935000Y-124295000D03*
X109855000Y-124295000D03*
X93345000Y-124295000D03*
X86995000Y-124295000D03*
X89535000Y-124295000D03*
X122555000Y-115405000D03*
X122555000Y-117945000D03*
X123825000Y-115405000D03*
X122555000Y-116675000D03*
X123825000Y-117945000D03*
X123825000Y-114135000D03*
X123825000Y-112865000D03*
X123825000Y-116675000D03*
X122555000Y-114135000D03*
X122555000Y-119215000D03*
X123825000Y-119215000D03*
X80645000Y-109055000D03*
X80645000Y-117945000D03*
X80645000Y-115405000D03*
X80645000Y-116675000D03*
X80645000Y-110325000D03*
X80645000Y-111595000D03*
X80645000Y-112865000D03*
X79375000Y-109055000D03*
X79375000Y-117945000D03*
X79375000Y-115405000D03*
X79375000Y-116675000D03*
X79375000Y-106515000D03*
X79375000Y-110325000D03*
X79375000Y-111595000D03*
X79375000Y-107785000D03*
X79375000Y-114135000D03*
X79375000Y-112865000D03*
X79375000Y-102705000D03*
X79375000Y-103975000D03*
X79375000Y-105245000D03*
X123825000Y-95085000D03*
X79086000Y-90977735D03*
X79086000Y-90005000D03*
X104902000Y-99149000D03*
X108712000Y-94704000D03*
X119126000Y-94704000D03*
X116332000Y-94704000D03*
X105918000Y-94704000D03*
X115316000Y-99149000D03*
X105918000Y-99276000D03*
X116332000Y-99276000D03*
X82550000Y-96646000D03*
X89662000Y-96646000D03*
X102870000Y-93434000D03*
X96774000Y-92710000D03*
X96774000Y-93980000D03*
X101578900Y-84813931D03*
X101600000Y-86106000D03*
X101600000Y-87348010D03*
X90170000Y-88392000D03*
X85344000Y-88392000D03*
X78994000Y-87884000D03*
X86706000Y-87122000D03*
X100308923Y-85914747D03*
X96036263Y-85914266D03*
X100330000Y-85090000D03*
X96012000Y-85090000D03*
X100296529Y-86750882D03*
X96046905Y-86752153D03*
X90932000Y-85090000D03*
X86106000Y-85598000D03*
X119507000Y-117945000D03*
X118237000Y-117945000D03*
X115697000Y-117945000D03*
X119507000Y-119215000D03*
X118237000Y-119215000D03*
X115697000Y-119215000D03*
X119507000Y-115405000D03*
X119507000Y-116675000D03*
X119507000Y-114135000D03*
X114427000Y-114135000D03*
X118237000Y-114135000D03*
X116967000Y-114135000D03*
X115697000Y-114135000D03*
X113157000Y-114135000D03*
X110617000Y-114135000D03*
X111887000Y-114135000D03*
X118237000Y-116675000D03*
X118237000Y-115405000D03*
X111887000Y-115405000D03*
X114427000Y-116675000D03*
X110617000Y-115405000D03*
X113157000Y-116675000D03*
X115697000Y-116675000D03*
X110617000Y-116675000D03*
X111887000Y-116675000D03*
X116967000Y-116675000D03*
X114427000Y-115405000D03*
X113157000Y-115405000D03*
X115697000Y-115405000D03*
X116967000Y-115405000D03*
X102743000Y-117945000D03*
X98933000Y-117945000D03*
X100203000Y-117945000D03*
X102743000Y-119215000D03*
X98933000Y-119215000D03*
X100203000Y-119215000D03*
X98933000Y-114135000D03*
X98933000Y-115405000D03*
X98933000Y-116675000D03*
X106553000Y-114135000D03*
X102743000Y-114135000D03*
X104013000Y-114135000D03*
X101473000Y-114135000D03*
X105283000Y-114135000D03*
X107823000Y-114135000D03*
X100203000Y-114135000D03*
X107823000Y-116675000D03*
X100203000Y-115405000D03*
X106553000Y-116675000D03*
X102743000Y-116675000D03*
X101473000Y-116675000D03*
X104013000Y-116675000D03*
X100203000Y-116675000D03*
X105283000Y-116675000D03*
X102743000Y-115405000D03*
X101473000Y-115405000D03*
X106553000Y-115405000D03*
X104013000Y-115405000D03*
X107823000Y-115405000D03*
X105283000Y-115405000D03*
X92710000Y-112865000D03*
X91440000Y-112865000D03*
X90170000Y-112865000D03*
X88900000Y-112865000D03*
X87630000Y-110325000D03*
X85090000Y-110325000D03*
X90170000Y-110325000D03*
X88900000Y-110325000D03*
X86360000Y-110325000D03*
X88900000Y-111595000D03*
X86360000Y-111595000D03*
X90170000Y-111595000D03*
X87630000Y-111595000D03*
X83820000Y-110325000D03*
X93980000Y-112865000D03*
X85090000Y-111595000D03*
X83820000Y-111595000D03*
X87630000Y-114135000D03*
X90170000Y-114135000D03*
X92710000Y-114135000D03*
X86360000Y-114135000D03*
X85090000Y-114135000D03*
X88900000Y-114135000D03*
X93980000Y-114135000D03*
X91440000Y-114135000D03*
X93980000Y-116675000D03*
X86360000Y-115405000D03*
X92710000Y-116675000D03*
X88900000Y-116675000D03*
X85090000Y-115405000D03*
X87630000Y-116675000D03*
X90170000Y-116675000D03*
X85090000Y-116675000D03*
X86360000Y-116675000D03*
X91440000Y-116675000D03*
X88900000Y-115405000D03*
X87630000Y-115405000D03*
X92710000Y-115405000D03*
X90170000Y-115405000D03*
X93980000Y-115405000D03*
X91440000Y-115405000D03*
X106826736Y-93795264D03*
X120523000Y-93815000D03*
X116195735Y-93824265D03*
X117983000Y-93815000D03*
X108712000Y-93815000D03*
X94751000Y-92211000D03*
X98298000Y-88646000D03*
D19*
X79488265Y-91380000D02*
X79086000Y-90977735D01*
X79838000Y-91380000D02*
X79488265Y-91380000D01*
X79411000Y-90330000D02*
X79086000Y-90005000D01*
X79838000Y-90330000D02*
X79411000Y-90330000D01*
X105267000Y-97244000D02*
X105267000Y-98784000D01*
X105267000Y-98784000D02*
X104902000Y-99149000D01*
X109784000Y-94704000D02*
X108712000Y-94704000D01*
X120198000Y-94704000D02*
X119126000Y-94704000D01*
X117094000Y-95466000D02*
X116332000Y-94704000D01*
X117346000Y-95466000D02*
X117094000Y-95466000D01*
X106680000Y-95466000D02*
X105918000Y-94704000D01*
X106932000Y-95466000D02*
X106680000Y-95466000D01*
X115681000Y-98784000D02*
X115316000Y-99149000D01*
X115681000Y-97244000D02*
X115681000Y-98784000D01*
X106874500Y-98514000D02*
X106680000Y-98514000D01*
X106680000Y-98514000D02*
X105918000Y-99276000D01*
X117348000Y-98514000D02*
X117094000Y-98514000D01*
X117094000Y-98514000D02*
X116332000Y-99276000D01*
X117288500Y-98514000D02*
X117348000Y-98514000D01*
X82320000Y-96416000D02*
X82550000Y-96646000D01*
X81550000Y-96416000D02*
X82320000Y-96416000D01*
X89432000Y-96416000D02*
X89662000Y-96646000D01*
X88662000Y-96416000D02*
X89432000Y-96416000D01*
X102832000Y-93396000D02*
X102870000Y-93434000D01*
X98132500Y-93396000D02*
X102832000Y-93396000D01*
X80448010Y-89719990D02*
X79838000Y-90330000D01*
X82391990Y-89719990D02*
X80448010Y-89719990D01*
X82501000Y-89829000D02*
X82391990Y-89719990D01*
X82516500Y-89829000D02*
X82501000Y-89829000D01*
X79838000Y-90330000D02*
X79838000Y-91380000D01*
X96482000Y-93396000D02*
X95758000Y-92672000D01*
X98132500Y-93396000D02*
X96482000Y-93396000D01*
X96291000Y-93396000D02*
X95758000Y-93929000D01*
X98132500Y-93396000D02*
X96291000Y-93396000D01*
X96736000Y-92672000D02*
X96774000Y-92710000D01*
X95758000Y-92672000D02*
X96736000Y-92672000D01*
X96723000Y-93929000D02*
X96774000Y-93980000D01*
X95758000Y-93929000D02*
X96723000Y-93929000D01*
X101594831Y-84798000D02*
X101578900Y-84813931D01*
X102517000Y-84798000D02*
X101594831Y-84798000D01*
X102170990Y-84773010D02*
X102553010Y-84773010D01*
X101662990Y-84773010D02*
X102553010Y-84773010D01*
X101638000Y-86068000D02*
X101600000Y-86106000D01*
X102517000Y-86068000D02*
X101638000Y-86068000D01*
X101610010Y-87338000D02*
X101600000Y-87348010D01*
X102517000Y-87338000D02*
X101610010Y-87338000D01*
X90932000Y-87630000D02*
X90170000Y-88392000D01*
X90932000Y-87602000D02*
X90932000Y-87630000D01*
X78998000Y-87880000D02*
X78994000Y-87884000D01*
X79838000Y-87880000D02*
X78998000Y-87880000D01*
X80799000Y-87879000D02*
X80798000Y-87880000D01*
X82516500Y-87879000D02*
X80799000Y-87879000D01*
X97282000Y-82804000D02*
X97282000Y-80264000D01*
X96772000Y-87884000D02*
X96774000Y-87884000D01*
X96774000Y-87884000D02*
X98298000Y-86360000D01*
X98298000Y-83820000D02*
X97282000Y-82804000D01*
X98298000Y-86360000D02*
X98298000Y-83820000D01*
X94198000Y-87884000D02*
X92946000Y-89136000D01*
X96772000Y-87884000D02*
X94198000Y-87884000D01*
X92946000Y-89136000D02*
X93690000Y-88392000D01*
X91188000Y-90894000D02*
X92946000Y-89136000D01*
X99822000Y-82804000D02*
X99822000Y-80264000D01*
X91188000Y-91910000D02*
X91188000Y-91829198D01*
X99824000Y-87884000D02*
X99822000Y-87884000D01*
X99824000Y-87884000D02*
X99824000Y-87485990D01*
X99824000Y-87485990D02*
X98698010Y-86360000D01*
X98698010Y-83927990D02*
X99822000Y-82804000D01*
X98698010Y-86360000D02*
X98698010Y-83927990D01*
X99824000Y-88204000D02*
X98781999Y-89246001D01*
X99824000Y-87884000D02*
X99824000Y-88204000D01*
X95157999Y-89246001D02*
X93771197Y-89246001D01*
X91188000Y-91829198D02*
X93286599Y-89730599D01*
X93771197Y-89246001D02*
X93286599Y-89730599D01*
X98781999Y-89246001D02*
X95157999Y-89246001D01*
X86813000Y-87229000D02*
X86706000Y-87122000D01*
X88241500Y-87229000D02*
X86813000Y-87229000D01*
X104519000Y-86068000D02*
X103477000Y-86068000D01*
X102838999Y-86706001D02*
X103477000Y-86068000D01*
X91128302Y-89408000D02*
X93960305Y-86575997D01*
X89465698Y-89408000D02*
X91128302Y-89408000D01*
X89044698Y-89829000D02*
X89465698Y-89408000D01*
X88241500Y-89829000D02*
X89044698Y-89829000D01*
X101100177Y-86706001D02*
X102200001Y-86706001D01*
X100308923Y-85914747D02*
X101100177Y-86706001D01*
X102200001Y-86706001D02*
X102838999Y-86706001D01*
X95374532Y-86575997D02*
X96036263Y-85914266D01*
X93960305Y-86575997D02*
X95374532Y-86575997D01*
X104519000Y-84798000D02*
X103477000Y-84798000D01*
X102817010Y-85457990D02*
X103477000Y-84798000D01*
X88241500Y-89179000D02*
X89128999Y-89179000D01*
X100697990Y-85457990D02*
X101713990Y-85457990D01*
X100330000Y-85090000D02*
X100697990Y-85457990D01*
X101713990Y-85457990D02*
X102817010Y-85457990D01*
X90978603Y-88992001D02*
X93794615Y-86175989D01*
X89315998Y-88992001D02*
X90978603Y-88992001D01*
X89128999Y-89179000D02*
X89315998Y-88992001D01*
X93794615Y-86175989D02*
X94926011Y-86175989D01*
X94926011Y-86175989D02*
X96012000Y-85090000D01*
X88241500Y-86579000D02*
X88903000Y-86579000D01*
X89279010Y-86278990D02*
X89279010Y-85663308D01*
X88979000Y-86579000D02*
X89279010Y-86278990D01*
X88241500Y-86579000D02*
X88979000Y-86579000D01*
X84582000Y-82804000D02*
X86267999Y-84489999D01*
X88105701Y-84489999D02*
X88929851Y-85314149D01*
X86267999Y-84489999D02*
X88105701Y-84489999D01*
X89279010Y-85663308D02*
X88929851Y-85314149D01*
X89679020Y-87094682D02*
X89679020Y-85497619D01*
X88894702Y-87879000D02*
X89679020Y-87094682D01*
X88241500Y-87879000D02*
X88894702Y-87879000D01*
X87122000Y-82940599D02*
X87122000Y-82804000D01*
X89679020Y-85497619D02*
X87122000Y-82940599D01*
X90079028Y-87344674D02*
X90079028Y-85331929D01*
X88894702Y-88529000D02*
X90079028Y-87344674D01*
X88241500Y-88529000D02*
X88894702Y-88529000D01*
X90079028Y-85331929D02*
X89662000Y-84914901D01*
X89662000Y-84914901D02*
X89662000Y-82804000D01*
X82278000Y-87229000D02*
X82260000Y-87211000D01*
X82516500Y-87229000D02*
X82278000Y-87229000D01*
X79502000Y-84952000D02*
X79502000Y-82804000D01*
X81779000Y-87229000D02*
X79502000Y-84952000D01*
X82516500Y-87229000D02*
X81779000Y-87229000D01*
X81478990Y-83367010D02*
X82042000Y-82804000D01*
X81478990Y-86194692D02*
X81478990Y-83367010D01*
X81863298Y-86579000D02*
X81478990Y-86194692D01*
X82516500Y-86579000D02*
X81863298Y-86579000D01*
X104519000Y-87338000D02*
X103477000Y-87338000D01*
X102866990Y-87948010D02*
X103477000Y-87338000D01*
X88241500Y-90479000D02*
X88960396Y-90479000D01*
X91255302Y-89846698D02*
X93726000Y-87376000D01*
X89592698Y-89846698D02*
X91255302Y-89846698D01*
X88960396Y-90479000D02*
X89592698Y-89846698D01*
X101069393Y-87948010D02*
X101918010Y-87948010D01*
X100296529Y-87175146D02*
X101069393Y-87948010D01*
X100296529Y-86750882D02*
X100296529Y-87175146D01*
X101918010Y-87948010D02*
X102866990Y-87948010D01*
X93726000Y-87376000D02*
X93980000Y-87122000D01*
X95677058Y-87122000D02*
X96046905Y-86752153D01*
X93980000Y-87122000D02*
X95677058Y-87122000D01*
X91034010Y-85192010D02*
X90932000Y-85090000D01*
X93822260Y-85192010D02*
X91034010Y-85192010D01*
X94432270Y-84582000D02*
X93822260Y-85192010D01*
X94460000Y-84582000D02*
X94432270Y-84582000D01*
X94742000Y-84300000D02*
X94460000Y-84582000D01*
X94742000Y-82804000D02*
X94742000Y-84300000D01*
X94742000Y-80264000D02*
X94742000Y-82804000D01*
X90932000Y-85090000D02*
X90932000Y-86642000D01*
X85775000Y-85929000D02*
X86106000Y-85598000D01*
X82516500Y-85929000D02*
X85775000Y-85929000D01*
X78085990Y-90747990D02*
X78085989Y-91567690D01*
X78085990Y-89551310D02*
X78085990Y-90747990D01*
X79108300Y-88529000D02*
X78085990Y-89551310D01*
X82516500Y-88529000D02*
X79108300Y-88529000D01*
X80010000Y-94194000D02*
X80008000Y-94194000D01*
X78085989Y-92271989D02*
X78085989Y-91567690D01*
X80008000Y-94194000D02*
X78085989Y-92271989D01*
X79023998Y-89179000D02*
X82516500Y-89179000D01*
X78485999Y-89716999D02*
X79023998Y-89179000D01*
X78485999Y-91909999D02*
X78485999Y-89716999D01*
X80010000Y-93434000D02*
X78485999Y-91909999D01*
X85873838Y-93434000D02*
X80010000Y-93434000D01*
X86633838Y-94194000D02*
X85873838Y-93434000D01*
X87122000Y-94194000D02*
X86633838Y-94194000D01*
X104151312Y-96143989D02*
X109466989Y-96143989D01*
X109466989Y-96143989D02*
X109617000Y-96294000D01*
X104001301Y-96294000D02*
X104151312Y-96143989D01*
X103267000Y-96294000D02*
X104001301Y-96294000D01*
X108789000Y-95466000D02*
X109617000Y-96294000D01*
X107952000Y-95466000D02*
X108789000Y-95466000D01*
X105156000Y-90640000D02*
X107952000Y-93436000D01*
X86969678Y-93223980D02*
X92882020Y-93223980D01*
X107952000Y-93436000D02*
X107952000Y-95466000D01*
X86271689Y-92525990D02*
X86969678Y-93223980D01*
X95466000Y-90640000D02*
X105156000Y-90640000D01*
X92882020Y-93223980D02*
X95466000Y-90640000D01*
X84435990Y-92525990D02*
X86271689Y-92525990D01*
X83689000Y-91779000D02*
X84435990Y-92525990D01*
X82516500Y-91779000D02*
X83689000Y-91779000D01*
X120031000Y-95977748D02*
X120031000Y-96294000D01*
X119880989Y-96143989D02*
X120031000Y-96294000D01*
X114565312Y-96143989D02*
X119880989Y-96143989D01*
X114415301Y-96294000D02*
X114565312Y-96143989D01*
X113681000Y-96294000D02*
X114415301Y-96294000D01*
X119203000Y-95466000D02*
X120031000Y-96294000D01*
X118366000Y-95466000D02*
X119203000Y-95466000D01*
X118366000Y-95466000D02*
X118366000Y-95146000D01*
X86791000Y-85929000D02*
X88241500Y-85929000D01*
X86106000Y-86614000D02*
X86791000Y-85929000D01*
X87135367Y-92823970D02*
X86106000Y-91794604D01*
X92716332Y-92823970D02*
X87135367Y-92823970D01*
X95408302Y-90132000D02*
X92716332Y-92823970D01*
X105213698Y-90132000D02*
X95408302Y-90132000D01*
X107753698Y-92672000D02*
X105213698Y-90132000D01*
X115931472Y-92672000D02*
X107753698Y-92672000D01*
X118366000Y-95106528D02*
X115931472Y-92672000D01*
X86106000Y-91794604D02*
X86106000Y-86614000D01*
X118366000Y-95466000D02*
X118366000Y-95106528D01*
X108039500Y-98484000D02*
X108009500Y-98514000D01*
X110490000Y-107936000D02*
X110490000Y-106961000D01*
X111609000Y-109055000D02*
X110490000Y-107936000D01*
X116205000Y-107936000D02*
X116205000Y-106961000D01*
X117324000Y-109055000D02*
X116205000Y-107936000D01*
X116459000Y-109055000D02*
X117324000Y-109055000D01*
X116459000Y-109055000D02*
X111609000Y-109055000D01*
X108039500Y-97244000D02*
X108039500Y-98484000D01*
X108009500Y-98514000D02*
X109851000Y-100355500D01*
X119532412Y-109055000D02*
X121666000Y-106921412D01*
X117324000Y-109055000D02*
X119532412Y-109055000D01*
X121666000Y-101651000D02*
X120370500Y-100355500D01*
X121666000Y-106921412D02*
X121666000Y-101651000D01*
X109851000Y-100355500D02*
X120370500Y-100355500D01*
X118453500Y-98484000D02*
X118423500Y-98514000D01*
X98679000Y-107936000D02*
X98679000Y-106961000D01*
X100433000Y-109690000D02*
X98679000Y-107936000D01*
X104267000Y-107936000D02*
X104267000Y-106961000D01*
X106021000Y-109690000D02*
X104267000Y-107936000D01*
X119888000Y-109690000D02*
X106021000Y-109690000D01*
X118423500Y-98514000D02*
X119185500Y-99276000D01*
X118453500Y-97244000D02*
X118453500Y-98484000D01*
X119888000Y-109690000D02*
X116294000Y-109690000D01*
X116294000Y-109690000D02*
X119926000Y-109690000D01*
X116294000Y-109690000D02*
X100433000Y-109690000D01*
X119926000Y-109690000D02*
X122174000Y-107442000D01*
X119856698Y-99276000D02*
X119850000Y-99276000D01*
X122174000Y-101593302D02*
X119856698Y-99276000D01*
X122174000Y-107442000D02*
X122174000Y-101593302D01*
X119185500Y-99276000D02*
X119850000Y-99276000D01*
X81788000Y-105118000D02*
X85090000Y-108420000D01*
X81788000Y-103378000D02*
X81788000Y-101092000D01*
X81788000Y-103378000D02*
X81788000Y-105118000D01*
X81788000Y-101092000D02*
X83820000Y-99060000D01*
X90932000Y-99060000D02*
X91822000Y-99060000D01*
X83820000Y-99060000D02*
X90932000Y-99060000D01*
X90932000Y-99060000D02*
X91060000Y-99060000D01*
X81049000Y-91129000D02*
X80798000Y-91380000D01*
X82516500Y-91129000D02*
X81049000Y-91129000D01*
X110744000Y-94704000D02*
X110744000Y-94196000D01*
X121158000Y-94704000D02*
X121158000Y-94450000D01*
X111617000Y-95577000D02*
X110744000Y-94704000D01*
X111617000Y-97244000D02*
X111617000Y-95577000D01*
X122031000Y-95577000D02*
X121158000Y-94704000D01*
X122031000Y-97244000D02*
X122031000Y-95577000D01*
X110744000Y-94196000D02*
X110363000Y-93815000D01*
X121158000Y-94450000D02*
X120523000Y-93815000D01*
X116186470Y-93815000D02*
X116195735Y-93824265D01*
X117983000Y-93815000D02*
X120523000Y-93815000D01*
X108712000Y-93815000D02*
X110490000Y-93815000D01*
X110490000Y-93815000D02*
X116186470Y-93815000D01*
X110363000Y-93815000D02*
X110490000Y-93815000D01*
X97861000Y-91712000D02*
X98045000Y-91896000D01*
X95758000Y-91712000D02*
X97861000Y-91712000D01*
X98045000Y-91896000D02*
X104927472Y-91896000D01*
X86803990Y-93623990D02*
X93338010Y-93623990D01*
X86106000Y-92926000D02*
X86803990Y-93623990D01*
X82344000Y-92926000D02*
X86106000Y-92926000D01*
X80798000Y-91380000D02*
X82344000Y-92926000D01*
X95250000Y-91712000D02*
X95758000Y-91712000D01*
X104927472Y-91896000D02*
X104940736Y-91909264D01*
X104940736Y-91909264D02*
X106826736Y-93795264D01*
X94751000Y-92211000D02*
X95250000Y-91712000D01*
X93338010Y-93623990D02*
X94751000Y-92211000D01*
X98298000Y-87884000D02*
X98298000Y-88646000D01*
X97792000Y-87884000D02*
X98298000Y-87884000D01*
X98298000Y-87884000D02*
X98804000Y-87884000D01*
X84351500Y-97246000D02*
X85344000Y-96253500D01*
X80010000Y-97246000D02*
X84351500Y-97246000D01*
X84337500Y-94678500D02*
X83550000Y-95466000D01*
X85344000Y-94678500D02*
X84337500Y-94678500D01*
X91463500Y-97246000D02*
X92456000Y-96253500D01*
X87122000Y-97246000D02*
X91463500Y-97246000D01*
X91449500Y-94678500D02*
X90662000Y-95466000D01*
X92456000Y-94678500D02*
X91449500Y-94678500D01*
X89933000Y-91129000D02*
X90168000Y-90894000D01*
X88241500Y-91129000D02*
X89933000Y-91129000D01*
X90037000Y-91779000D02*
X90168000Y-91910000D01*
X88241500Y-91779000D02*
X90037000Y-91779000D01*
X80947000Y-90479000D02*
X80798000Y-90330000D01*
X82516500Y-90479000D02*
X80947000Y-90479000D01*
X108347553Y-96543999D02*
X109617000Y-97813446D01*
X109617000Y-97813446D02*
X109617000Y-98194000D01*
X103267000Y-97594000D02*
X104317001Y-96543999D01*
X103267000Y-98194000D02*
X103267000Y-97594000D01*
X106844500Y-96571500D02*
X106872001Y-96543999D01*
X104317001Y-96543999D02*
X106872001Y-96543999D01*
X106872001Y-96543999D02*
X108347553Y-96543999D01*
X106844500Y-97244000D02*
X106844500Y-96571500D01*
X118761553Y-96543999D02*
X120031000Y-97813446D01*
X120031000Y-97813446D02*
X120031000Y-98194000D01*
X113681000Y-97594000D02*
X114731001Y-96543999D01*
X113681000Y-98194000D02*
X113681000Y-97594000D01*
X117258500Y-96568498D02*
X117282999Y-96543999D01*
X114731001Y-96543999D02*
X117282999Y-96543999D01*
X117282999Y-96543999D02*
X118761553Y-96543999D01*
X117258500Y-97244000D02*
X117258500Y-96568498D01*
X80852000Y-95214000D02*
X81550000Y-94516000D01*
X80010000Y-95214000D02*
X80852000Y-95214000D01*
X87964000Y-95214000D02*
X88662000Y-94516000D01*
X87122000Y-95214000D02*
X87964000Y-95214000D01*
X105539000Y-84798000D02*
X106210000Y-84798000D01*
X108582000Y-82426000D02*
X109385000Y-82426000D01*
X106210000Y-84798000D02*
X108582000Y-82426000D01*
X105997000Y-87338000D02*
X109385000Y-90726000D01*
X105539000Y-87338000D02*
X105997000Y-87338000D01*
X105539000Y-86068000D02*
X105702000Y-86068000D01*
X105702000Y-86068000D02*
X107950000Y-83820000D01*
X119091000Y-83820000D02*
X120485000Y-82426000D01*
X107950000Y-83820000D02*
X119091000Y-83820000D01*
X97125500Y-95479000D02*
X97655500Y-94949000D01*
X87122000Y-96310802D02*
X87122000Y-96226000D01*
X86424010Y-97008792D02*
X87122000Y-96310802D01*
X86424010Y-97308010D02*
X86424010Y-97008792D01*
X97125500Y-95479000D02*
X95758000Y-95479000D01*
X95122000Y-96115000D02*
X95758000Y-95479000D01*
X95122000Y-99060000D02*
X95122000Y-96115000D01*
X95122000Y-99060000D02*
X94996000Y-99060000D01*
X94996000Y-99060000D02*
X93980000Y-98044000D01*
X86424010Y-97483208D02*
X86424010Y-96455990D01*
X86984802Y-98044000D02*
X86424010Y-97483208D01*
X93980000Y-98044000D02*
X86984802Y-98044000D01*
X86424010Y-97308010D02*
X86424010Y-96455990D01*
X83685008Y-93940990D02*
X81909999Y-95715999D01*
X80520001Y-95715999D02*
X80010000Y-96226000D01*
X85815130Y-93940990D02*
X83685008Y-93940990D01*
X86424010Y-94549870D02*
X85815130Y-93940990D01*
X81909999Y-95715999D02*
X80520001Y-95715999D01*
X86424010Y-96455990D02*
X86424010Y-94549870D01*
D20*
X108585000Y-121628000D02*
X97917000Y-121628000D01*
X97917000Y-120055386D01*
X105859115Y-120055386D01*
X105985588Y-120297362D01*
X106309195Y-120402276D01*
X106647052Y-120442043D01*
X106986176Y-120415132D01*
X107313532Y-120322579D01*
X107374412Y-120297362D01*
X107500885Y-120055386D01*
X106680000Y-119234502D01*
X105859115Y-120055386D01*
X97917000Y-120055386D01*
X97917000Y-118674052D01*
X104944957Y-118674052D01*
X104971868Y-119013176D01*
X105064421Y-119340532D01*
X105089638Y-119401412D01*
X105331614Y-119527885D01*
X106152498Y-118707000D01*
X107207502Y-118707000D01*
X108028386Y-119527885D01*
X108270362Y-119401412D01*
X108375276Y-119077805D01*
X108415043Y-118739948D01*
X108388132Y-118400824D01*
X108295579Y-118073468D01*
X108270362Y-118012588D01*
X108028386Y-117886115D01*
X107207502Y-118707000D01*
X106152498Y-118707000D01*
X105331614Y-117886115D01*
X105089638Y-118012588D01*
X104984724Y-118336195D01*
X104944957Y-118674052D01*
X97917000Y-118674052D01*
X97917000Y-117358614D01*
X105859115Y-117358614D01*
X106680000Y-118179498D01*
X107500885Y-117358614D01*
X107374412Y-117116638D01*
X107050805Y-117011724D01*
X106712948Y-116971957D01*
X106373824Y-116998868D01*
X106046468Y-117091421D01*
X105985588Y-117116638D01*
X105859115Y-117358614D01*
X97917000Y-117358614D01*
X97917000Y-110452000D01*
X108585000Y-110452000D01*
X108585000Y-121628000D01*
G04 #@! TA.AperFunction,Conductor*
D21*
G36*
X108585000Y-121628000D02*
G01*
X97917000Y-121628000D01*
X97917000Y-120055386D01*
X105859115Y-120055386D01*
X105985588Y-120297362D01*
X106309195Y-120402276D01*
X106647052Y-120442043D01*
X106986176Y-120415132D01*
X107313532Y-120322579D01*
X107374412Y-120297362D01*
X107500885Y-120055386D01*
X106680000Y-119234502D01*
X105859115Y-120055386D01*
X97917000Y-120055386D01*
X97917000Y-118674052D01*
X104944957Y-118674052D01*
X104971868Y-119013176D01*
X105064421Y-119340532D01*
X105089638Y-119401412D01*
X105331614Y-119527885D01*
X106152498Y-118707000D01*
X107207502Y-118707000D01*
X108028386Y-119527885D01*
X108270362Y-119401412D01*
X108375276Y-119077805D01*
X108415043Y-118739948D01*
X108388132Y-118400824D01*
X108295579Y-118073468D01*
X108270362Y-118012588D01*
X108028386Y-117886115D01*
X107207502Y-118707000D01*
X106152498Y-118707000D01*
X105331614Y-117886115D01*
X105089638Y-118012588D01*
X104984724Y-118336195D01*
X104944957Y-118674052D01*
X97917000Y-118674052D01*
X97917000Y-117358614D01*
X105859115Y-117358614D01*
X106680000Y-118179498D01*
X107500885Y-117358614D01*
X107374412Y-117116638D01*
X107050805Y-117011724D01*
X106712948Y-116971957D01*
X106373824Y-116998868D01*
X106046468Y-117091421D01*
X105985588Y-117116638D01*
X105859115Y-117358614D01*
X97917000Y-117358614D01*
X97917000Y-110452000D01*
X108585000Y-110452000D01*
X108585000Y-121628000D01*
G37*
G04 #@! TD.AperFunction*
D22*
X124032382Y-77021355D02*
X124352103Y-77117885D01*
X124646985Y-77274676D01*
X124905797Y-77485758D01*
X125118678Y-77743088D01*
X125277524Y-78036867D01*
X125376283Y-78355908D01*
X125415001Y-78724280D01*
X125415000Y-108202690D01*
X125173340Y-107961030D01*
X124743404Y-107673755D01*
X124265684Y-107475878D01*
X123758540Y-107375000D01*
X123241460Y-107375000D01*
X123035594Y-107415950D01*
X123034000Y-107399762D01*
X123034000Y-101635541D01*
X123038160Y-101593302D01*
X123034000Y-101551063D01*
X123034000Y-101551056D01*
X123021556Y-101424713D01*
X123020946Y-101422700D01*
X122989883Y-101320299D01*
X122972381Y-101262602D01*
X122892524Y-101113200D01*
X122785054Y-100982248D01*
X122752241Y-100955319D01*
X120971526Y-99174604D01*
X121021001Y-99134001D01*
X121115974Y-99018276D01*
X121186546Y-98886247D01*
X121230003Y-98742986D01*
X121244677Y-98594000D01*
X121244677Y-98325987D01*
X121288753Y-98349546D01*
X121432014Y-98393003D01*
X121581000Y-98407677D01*
X122481000Y-98407677D01*
X122629986Y-98393003D01*
X122773247Y-98349546D01*
X122905276Y-98278974D01*
X123021001Y-98184001D01*
X123115974Y-98068276D01*
X123186546Y-97936247D01*
X123230003Y-97792986D01*
X123244677Y-97644000D01*
X123244677Y-96844000D01*
X123230003Y-96695014D01*
X123186546Y-96551753D01*
X123115974Y-96419724D01*
X123021001Y-96303999D01*
X122905276Y-96209026D01*
X122891000Y-96201395D01*
X122891000Y-95619238D01*
X122895160Y-95576999D01*
X122891000Y-95534760D01*
X122891000Y-95534754D01*
X122879946Y-95422524D01*
X122878556Y-95408409D01*
X122849966Y-95314161D01*
X122829381Y-95246300D01*
X122749524Y-95096898D01*
X122642054Y-94965946D01*
X122609235Y-94939012D01*
X122201399Y-94531176D01*
X122184313Y-94357701D01*
X122132889Y-94188178D01*
X122049380Y-94031944D01*
X121936996Y-93895004D01*
X121800056Y-93782620D01*
X121643822Y-93699111D01*
X121614414Y-93690190D01*
X121570132Y-93645909D01*
X121542265Y-93505809D01*
X121462360Y-93312902D01*
X121346356Y-93139289D01*
X121198711Y-92991644D01*
X121025098Y-92875640D01*
X120832191Y-92795735D01*
X120627401Y-92755000D01*
X120418599Y-92755000D01*
X120213809Y-92795735D01*
X120020902Y-92875640D01*
X119902131Y-92955000D01*
X118603869Y-92955000D01*
X118485098Y-92875640D01*
X118292191Y-92795735D01*
X118087401Y-92755000D01*
X117878599Y-92755000D01*
X117673809Y-92795735D01*
X117480902Y-92875640D01*
X117403232Y-92927537D01*
X116569460Y-92093765D01*
X116542526Y-92060946D01*
X116411574Y-91953476D01*
X116262172Y-91873619D01*
X116100061Y-91824444D01*
X115973718Y-91812000D01*
X115973711Y-91812000D01*
X115931472Y-91807840D01*
X115889233Y-91812000D01*
X110646594Y-91812000D01*
X110674406Y-91784188D01*
X110856073Y-91512305D01*
X110981207Y-91210204D01*
X111033093Y-90949355D01*
X120138422Y-90949355D01*
X120236668Y-91131016D01*
X120464704Y-91236266D01*
X120708890Y-91295007D01*
X120959844Y-91304981D01*
X121207923Y-91265804D01*
X121443592Y-91178983D01*
X121533332Y-91131016D01*
X121631578Y-90949355D01*
X120885000Y-90202777D01*
X120138422Y-90949355D01*
X111033093Y-90949355D01*
X111045000Y-90889496D01*
X111045000Y-90562504D01*
X110981207Y-90241796D01*
X110856073Y-89939695D01*
X110674406Y-89667812D01*
X110443188Y-89436594D01*
X110171305Y-89254927D01*
X110122376Y-89234660D01*
X110333393Y-89170649D01*
X110603732Y-89026150D01*
X110840687Y-88831687D01*
X111035150Y-88594732D01*
X111179649Y-88324393D01*
X111268631Y-88031058D01*
X111298677Y-87726000D01*
X111298677Y-85526000D01*
X111268631Y-85220942D01*
X111179649Y-84927607D01*
X111047300Y-84680000D01*
X118822700Y-84680000D01*
X118690351Y-84927607D01*
X118601369Y-85220942D01*
X118571323Y-85526000D01*
X118571323Y-87726000D01*
X118601369Y-88031058D01*
X118690351Y-88324393D01*
X118834850Y-88594732D01*
X119029313Y-88831687D01*
X119266268Y-89026150D01*
X119536607Y-89170649D01*
X119829942Y-89259631D01*
X119954079Y-89271858D01*
X119961644Y-89279423D01*
X119779984Y-89377668D01*
X119674734Y-89605704D01*
X119615993Y-89849890D01*
X119606019Y-90100844D01*
X119645196Y-90348923D01*
X119732017Y-90584592D01*
X119779984Y-90674332D01*
X119961645Y-90772578D01*
X120708223Y-90026000D01*
X120694081Y-90011858D01*
X120870858Y-89835081D01*
X120885000Y-89849223D01*
X120899142Y-89835081D01*
X121075919Y-90011858D01*
X121061777Y-90026000D01*
X121808355Y-90772578D01*
X121990016Y-90674332D01*
X122095266Y-90446296D01*
X122154007Y-90202110D01*
X122163981Y-89951156D01*
X122124804Y-89703077D01*
X122037983Y-89467408D01*
X121990016Y-89377668D01*
X121813095Y-89281985D01*
X122040058Y-89259631D01*
X122333393Y-89170649D01*
X122603732Y-89026150D01*
X122840687Y-88831687D01*
X123035150Y-88594732D01*
X123179649Y-88324393D01*
X123268631Y-88031058D01*
X123298677Y-87726000D01*
X123298677Y-85526000D01*
X123268631Y-85220942D01*
X123179649Y-84927607D01*
X123035150Y-84657268D01*
X122840687Y-84420313D01*
X122603732Y-84225850D01*
X122333393Y-84081351D01*
X122040058Y-83992369D01*
X121735000Y-83962323D01*
X121113777Y-83962323D01*
X121271305Y-83897073D01*
X121543188Y-83715406D01*
X121774406Y-83484188D01*
X121956073Y-83212305D01*
X122081207Y-82910204D01*
X122108000Y-82775507D01*
X122108000Y-82935584D01*
X122159342Y-83193697D01*
X122260052Y-83436833D01*
X122406261Y-83655650D01*
X122592350Y-83841739D01*
X122811167Y-83987948D01*
X123054303Y-84088658D01*
X123312416Y-84140000D01*
X123575584Y-84140000D01*
X123833697Y-84088658D01*
X124076833Y-83987948D01*
X124295650Y-83841739D01*
X124481739Y-83655650D01*
X124627948Y-83436833D01*
X124728658Y-83193697D01*
X124780000Y-82935584D01*
X124780000Y-82672416D01*
X124728658Y-82414303D01*
X124627948Y-82171167D01*
X124481739Y-81952350D01*
X124295650Y-81766261D01*
X124076833Y-81620052D01*
X123833697Y-81519342D01*
X123575584Y-81468000D01*
X123312416Y-81468000D01*
X123054303Y-81519342D01*
X122811167Y-81620052D01*
X122592350Y-81766261D01*
X122406261Y-81952350D01*
X122260052Y-82171167D01*
X122159342Y-82414303D01*
X122145000Y-82486405D01*
X122145000Y-82262504D01*
X122081207Y-81941796D01*
X121956073Y-81639695D01*
X121774406Y-81367812D01*
X121543188Y-81136594D01*
X121271305Y-80954927D01*
X120969204Y-80829793D01*
X120648496Y-80766000D01*
X120321504Y-80766000D01*
X120000796Y-80829793D01*
X119698695Y-80954927D01*
X119426812Y-81136594D01*
X119195594Y-81367812D01*
X119013927Y-81639695D01*
X118888793Y-81941796D01*
X118825000Y-82262504D01*
X118825000Y-82589496D01*
X118871502Y-82823275D01*
X118734777Y-82960000D01*
X110960581Y-82960000D01*
X110981207Y-82910204D01*
X111045000Y-82589496D01*
X111045000Y-82262504D01*
X110981207Y-81941796D01*
X110856073Y-81639695D01*
X110674406Y-81367812D01*
X110443188Y-81136594D01*
X110171305Y-80954927D01*
X109869204Y-80829793D01*
X109548496Y-80766000D01*
X109221504Y-80766000D01*
X108900796Y-80829793D01*
X108598695Y-80954927D01*
X108326812Y-81136594D01*
X108095594Y-81367812D01*
X107913927Y-81639695D01*
X107788793Y-81941796D01*
X107773600Y-82018176D01*
X106011109Y-83780668D01*
X105849323Y-83731591D01*
X105674000Y-83714323D01*
X105404000Y-83714323D01*
X105228677Y-83731591D01*
X105060091Y-83782731D01*
X105029000Y-83799349D01*
X104997909Y-83782731D01*
X104829323Y-83731591D01*
X104654000Y-83714323D01*
X104384000Y-83714323D01*
X104208677Y-83731591D01*
X104040091Y-83782731D01*
X103991747Y-83808572D01*
X103962822Y-83793111D01*
X103793299Y-83741687D01*
X103617000Y-83724323D01*
X103337000Y-83724323D01*
X103160701Y-83741687D01*
X102991178Y-83793111D01*
X102834944Y-83876620D01*
X102698004Y-83989004D01*
X102585620Y-84125944D01*
X102502111Y-84282178D01*
X102450687Y-84451701D01*
X102436279Y-84597990D01*
X101273539Y-84597990D01*
X101269360Y-84587902D01*
X101153356Y-84414289D01*
X101005711Y-84266644D01*
X100832098Y-84150640D01*
X100753351Y-84118022D01*
X100848315Y-84054569D01*
X101072569Y-83830315D01*
X101248763Y-83566621D01*
X101370129Y-83273620D01*
X101432000Y-82962571D01*
X101432000Y-82645429D01*
X101370129Y-82334380D01*
X101248763Y-82041379D01*
X101072569Y-81777685D01*
X100848315Y-81553431D01*
X100819234Y-81534000D01*
X100848315Y-81514569D01*
X101072569Y-81290315D01*
X101248763Y-81026621D01*
X101370129Y-80733620D01*
X101386890Y-80649355D01*
X114188422Y-80649355D01*
X114286668Y-80831016D01*
X114514704Y-80936266D01*
X114758890Y-80995007D01*
X115009844Y-81004981D01*
X115257923Y-80965804D01*
X115493592Y-80878983D01*
X115583332Y-80831016D01*
X115681578Y-80649355D01*
X114935000Y-79902777D01*
X114188422Y-80649355D01*
X101386890Y-80649355D01*
X101432000Y-80422571D01*
X101432000Y-80105429D01*
X101371415Y-79800844D01*
X113656019Y-79800844D01*
X113695196Y-80048923D01*
X113782017Y-80284592D01*
X113829984Y-80374332D01*
X114011645Y-80472578D01*
X114758223Y-79726000D01*
X115111777Y-79726000D01*
X115858355Y-80472578D01*
X116040016Y-80374332D01*
X116145266Y-80146296D01*
X116204007Y-79902110D01*
X116213981Y-79651156D01*
X116174804Y-79403077D01*
X116096972Y-79191806D01*
X121165000Y-79191806D01*
X121165000Y-79558194D01*
X121236479Y-79917542D01*
X121376689Y-80256041D01*
X121580243Y-80560681D01*
X121839319Y-80819757D01*
X122143959Y-81023311D01*
X122482458Y-81163521D01*
X122841806Y-81235000D01*
X123208194Y-81235000D01*
X123567542Y-81163521D01*
X123906041Y-81023311D01*
X124210681Y-80819757D01*
X124469757Y-80560681D01*
X124673311Y-80256041D01*
X124813521Y-79917542D01*
X124885000Y-79558194D01*
X124885000Y-79191806D01*
X124813521Y-78832458D01*
X124673311Y-78493959D01*
X124469757Y-78189319D01*
X124210681Y-77930243D01*
X123906041Y-77726689D01*
X123567542Y-77586479D01*
X123208194Y-77515000D01*
X122841806Y-77515000D01*
X122482458Y-77586479D01*
X122143959Y-77726689D01*
X121839319Y-77930243D01*
X121580243Y-78189319D01*
X121376689Y-78493959D01*
X121236479Y-78832458D01*
X121165000Y-79191806D01*
X116096972Y-79191806D01*
X116087983Y-79167408D01*
X116040016Y-79077668D01*
X115858355Y-78979422D01*
X115111777Y-79726000D01*
X114758223Y-79726000D01*
X114011645Y-78979422D01*
X113829984Y-79077668D01*
X113724734Y-79305704D01*
X113665993Y-79549890D01*
X113656019Y-79800844D01*
X101371415Y-79800844D01*
X101370129Y-79794380D01*
X101248763Y-79501379D01*
X101072569Y-79237685D01*
X100848315Y-79013431D01*
X100584621Y-78837237D01*
X100501110Y-78802645D01*
X114188422Y-78802645D01*
X114935000Y-79549223D01*
X115681578Y-78802645D01*
X115583332Y-78620984D01*
X115355296Y-78515734D01*
X115111110Y-78456993D01*
X114860156Y-78447019D01*
X114612077Y-78486196D01*
X114376408Y-78573017D01*
X114286668Y-78620984D01*
X114188422Y-78802645D01*
X100501110Y-78802645D01*
X100291620Y-78715871D01*
X99980571Y-78654000D01*
X99663429Y-78654000D01*
X99352380Y-78715871D01*
X99059379Y-78837237D01*
X98795685Y-79013431D01*
X98571431Y-79237685D01*
X98552000Y-79266766D01*
X98532569Y-79237685D01*
X98308315Y-79013431D01*
X98044621Y-78837237D01*
X97751620Y-78715871D01*
X97440571Y-78654000D01*
X97123429Y-78654000D01*
X96812380Y-78715871D01*
X96519379Y-78837237D01*
X96255685Y-79013431D01*
X96031431Y-79237685D01*
X96012000Y-79266766D01*
X95992569Y-79237685D01*
X95768315Y-79013431D01*
X95504621Y-78837237D01*
X95211620Y-78715871D01*
X94900571Y-78654000D01*
X94583429Y-78654000D01*
X94272380Y-78715871D01*
X93979379Y-78837237D01*
X93715685Y-79013431D01*
X93491431Y-79237685D01*
X93315237Y-79501379D01*
X93254481Y-79648055D01*
X93175726Y-79520697D01*
X93012005Y-79345015D01*
X92817156Y-79204649D01*
X92598667Y-79104993D01*
X92516093Y-79079951D01*
X92327000Y-79139677D01*
X92327000Y-80139000D01*
X92347000Y-80139000D01*
X92347000Y-80389000D01*
X92327000Y-80389000D01*
X92327000Y-81388323D01*
X92516093Y-81448049D01*
X92598667Y-81423007D01*
X92817156Y-81323351D01*
X93012005Y-81182985D01*
X93175726Y-81007303D01*
X93254481Y-80879945D01*
X93315237Y-81026621D01*
X93491431Y-81290315D01*
X93715685Y-81514569D01*
X93744766Y-81534000D01*
X93715685Y-81553431D01*
X93491431Y-81777685D01*
X93315237Y-82041379D01*
X93254481Y-82188055D01*
X93175726Y-82060697D01*
X93012005Y-81885015D01*
X92817156Y-81744649D01*
X92598667Y-81644993D01*
X92516093Y-81619951D01*
X92327000Y-81679677D01*
X92327000Y-82679000D01*
X92347000Y-82679000D01*
X92347000Y-82929000D01*
X92327000Y-82929000D01*
X92327000Y-83928323D01*
X92516093Y-83988049D01*
X92598667Y-83963007D01*
X92817156Y-83863351D01*
X93012005Y-83722985D01*
X93175726Y-83547303D01*
X93254481Y-83419945D01*
X93315237Y-83566621D01*
X93491431Y-83830315D01*
X93715685Y-84054569D01*
X93732346Y-84065701D01*
X93466037Y-84332010D01*
X91673077Y-84332010D01*
X91607711Y-84266644D01*
X91434098Y-84150640D01*
X91241191Y-84070735D01*
X91036401Y-84030000D01*
X90827599Y-84030000D01*
X90681632Y-84059034D01*
X90688315Y-84054569D01*
X90912569Y-83830315D01*
X91088763Y-83566621D01*
X91149519Y-83419945D01*
X91228274Y-83547303D01*
X91391995Y-83722985D01*
X91586844Y-83863351D01*
X91805333Y-83963007D01*
X91887907Y-83988049D01*
X92077000Y-83928323D01*
X92077000Y-82929000D01*
X92057000Y-82929000D01*
X92057000Y-82679000D01*
X92077000Y-82679000D01*
X92077000Y-81679677D01*
X91887907Y-81619951D01*
X91805333Y-81644993D01*
X91586844Y-81744649D01*
X91391995Y-81885015D01*
X91228274Y-82060697D01*
X91149519Y-82188055D01*
X91088763Y-82041379D01*
X90912569Y-81777685D01*
X90688315Y-81553431D01*
X90424621Y-81377237D01*
X90283499Y-81318782D01*
X90472005Y-81182985D01*
X90635726Y-81007303D01*
X90762027Y-80803056D01*
X90846055Y-80578094D01*
X91017945Y-80578094D01*
X91101973Y-80803056D01*
X91228274Y-81007303D01*
X91391995Y-81182985D01*
X91586844Y-81323351D01*
X91805333Y-81423007D01*
X91887907Y-81448049D01*
X92077000Y-81388323D01*
X92077000Y-80389000D01*
X91077138Y-80389000D01*
X91017945Y-80578094D01*
X90846055Y-80578094D01*
X90786862Y-80389000D01*
X89787000Y-80389000D01*
X89787000Y-80409000D01*
X89537000Y-80409000D01*
X89537000Y-80389000D01*
X88537138Y-80389000D01*
X88477945Y-80578094D01*
X88561973Y-80803056D01*
X88688274Y-81007303D01*
X88851995Y-81182985D01*
X89040501Y-81318782D01*
X88899379Y-81377237D01*
X88635685Y-81553431D01*
X88411431Y-81777685D01*
X88392000Y-81806766D01*
X88372569Y-81777685D01*
X88148315Y-81553431D01*
X87884621Y-81377237D01*
X87743499Y-81318782D01*
X87932005Y-81182985D01*
X88095726Y-81007303D01*
X88222027Y-80803056D01*
X88306055Y-80578094D01*
X88246862Y-80389000D01*
X87247000Y-80389000D01*
X87247000Y-80409000D01*
X86997000Y-80409000D01*
X86997000Y-80389000D01*
X85997138Y-80389000D01*
X85937945Y-80578094D01*
X86021973Y-80803056D01*
X86148274Y-81007303D01*
X86311995Y-81182985D01*
X86500501Y-81318782D01*
X86359379Y-81377237D01*
X86095685Y-81553431D01*
X85871431Y-81777685D01*
X85852000Y-81806766D01*
X85832569Y-81777685D01*
X85608315Y-81553431D01*
X85344621Y-81377237D01*
X85203499Y-81318782D01*
X85392005Y-81182985D01*
X85555726Y-81007303D01*
X85682027Y-80803056D01*
X85766055Y-80578094D01*
X85706862Y-80389000D01*
X84707000Y-80389000D01*
X84707000Y-80409000D01*
X84457000Y-80409000D01*
X84457000Y-80389000D01*
X83457138Y-80389000D01*
X83397945Y-80578094D01*
X83481973Y-80803056D01*
X83608274Y-81007303D01*
X83771995Y-81182985D01*
X83960501Y-81318782D01*
X83819379Y-81377237D01*
X83555685Y-81553431D01*
X83331431Y-81777685D01*
X83312000Y-81806766D01*
X83292569Y-81777685D01*
X83068315Y-81553431D01*
X82804621Y-81377237D01*
X82663499Y-81318782D01*
X82852005Y-81182985D01*
X83015726Y-81007303D01*
X83142027Y-80803056D01*
X83226055Y-80578094D01*
X83166862Y-80389000D01*
X82167000Y-80389000D01*
X82167000Y-80409000D01*
X81917000Y-80409000D01*
X81917000Y-80389000D01*
X81897000Y-80389000D01*
X81897000Y-80139000D01*
X81917000Y-80139000D01*
X81917000Y-79139677D01*
X82167000Y-79139677D01*
X82167000Y-80139000D01*
X83166862Y-80139000D01*
X83226055Y-79949906D01*
X83397945Y-79949906D01*
X83457138Y-80139000D01*
X84457000Y-80139000D01*
X84457000Y-79139677D01*
X84707000Y-79139677D01*
X84707000Y-80139000D01*
X85706862Y-80139000D01*
X85766055Y-79949906D01*
X85937945Y-79949906D01*
X85997138Y-80139000D01*
X86997000Y-80139000D01*
X86997000Y-79139677D01*
X87247000Y-79139677D01*
X87247000Y-80139000D01*
X88246862Y-80139000D01*
X88306055Y-79949906D01*
X88477945Y-79949906D01*
X88537138Y-80139000D01*
X89537000Y-80139000D01*
X89537000Y-79139677D01*
X89787000Y-79139677D01*
X89787000Y-80139000D01*
X90786862Y-80139000D01*
X90846055Y-79949906D01*
X91017945Y-79949906D01*
X91077138Y-80139000D01*
X92077000Y-80139000D01*
X92077000Y-79139677D01*
X91887907Y-79079951D01*
X91805333Y-79104993D01*
X91586844Y-79204649D01*
X91391995Y-79345015D01*
X91228274Y-79520697D01*
X91101973Y-79724944D01*
X91017945Y-79949906D01*
X90846055Y-79949906D01*
X90762027Y-79724944D01*
X90635726Y-79520697D01*
X90472005Y-79345015D01*
X90277156Y-79204649D01*
X90058667Y-79104993D01*
X89976093Y-79079951D01*
X89787000Y-79139677D01*
X89537000Y-79139677D01*
X89347907Y-79079951D01*
X89265333Y-79104993D01*
X89046844Y-79204649D01*
X88851995Y-79345015D01*
X88688274Y-79520697D01*
X88561973Y-79724944D01*
X88477945Y-79949906D01*
X88306055Y-79949906D01*
X88222027Y-79724944D01*
X88095726Y-79520697D01*
X87932005Y-79345015D01*
X87737156Y-79204649D01*
X87518667Y-79104993D01*
X87436093Y-79079951D01*
X87247000Y-79139677D01*
X86997000Y-79139677D01*
X86807907Y-79079951D01*
X86725333Y-79104993D01*
X86506844Y-79204649D01*
X86311995Y-79345015D01*
X86148274Y-79520697D01*
X86021973Y-79724944D01*
X85937945Y-79949906D01*
X85766055Y-79949906D01*
X85682027Y-79724944D01*
X85555726Y-79520697D01*
X85392005Y-79345015D01*
X85197156Y-79204649D01*
X84978667Y-79104993D01*
X84896093Y-79079951D01*
X84707000Y-79139677D01*
X84457000Y-79139677D01*
X84267907Y-79079951D01*
X84185333Y-79104993D01*
X83966844Y-79204649D01*
X83771995Y-79345015D01*
X83608274Y-79520697D01*
X83481973Y-79724944D01*
X83397945Y-79949906D01*
X83226055Y-79949906D01*
X83142027Y-79724944D01*
X83015726Y-79520697D01*
X82852005Y-79345015D01*
X82657156Y-79204649D01*
X82438667Y-79104993D01*
X82356093Y-79079951D01*
X82167000Y-79139677D01*
X81917000Y-79139677D01*
X81727907Y-79079951D01*
X81645333Y-79104993D01*
X81426844Y-79204649D01*
X81231995Y-79345015D01*
X81068274Y-79520697D01*
X80989519Y-79648055D01*
X80928763Y-79501379D01*
X80752569Y-79237685D01*
X80528315Y-79013431D01*
X80264621Y-78837237D01*
X79971620Y-78715871D01*
X79660571Y-78654000D01*
X79343429Y-78654000D01*
X79032380Y-78715871D01*
X78739379Y-78837237D01*
X78475685Y-79013431D01*
X78251431Y-79237685D01*
X78075237Y-79501379D01*
X77953871Y-79794380D01*
X77892000Y-80105429D01*
X77892000Y-80422571D01*
X77953871Y-80733620D01*
X78075237Y-81026621D01*
X78251431Y-81290315D01*
X78261883Y-81300767D01*
X78227724Y-81319026D01*
X78111999Y-81413999D01*
X78017026Y-81529724D01*
X77946454Y-81661753D01*
X77902997Y-81805014D01*
X77888323Y-81954000D01*
X77888323Y-83654000D01*
X77902997Y-83802986D01*
X77946454Y-83946247D01*
X78017026Y-84078276D01*
X78111999Y-84194001D01*
X78227724Y-84288974D01*
X78359753Y-84359546D01*
X78503014Y-84403003D01*
X78642000Y-84416692D01*
X78642000Y-84909761D01*
X78637840Y-84952000D01*
X78642000Y-84994239D01*
X78642000Y-84994245D01*
X78649185Y-85067191D01*
X78654444Y-85120589D01*
X78668498Y-85166918D01*
X78703619Y-85282699D01*
X78783476Y-85432101D01*
X78890946Y-85563054D01*
X78923765Y-85589988D01*
X80244866Y-86911090D01*
X80155944Y-86958620D01*
X80019004Y-87071004D01*
X79906620Y-87207944D01*
X79823111Y-87364178D01*
X79771687Y-87533701D01*
X79758361Y-87669000D01*
X79150546Y-87669000D01*
X79108300Y-87664839D01*
X78939710Y-87681444D01*
X78777599Y-87730619D01*
X78773044Y-87733054D01*
X78628198Y-87810476D01*
X78497246Y-87917946D01*
X78470316Y-87950760D01*
X77507755Y-88913322D01*
X77474936Y-88940256D01*
X77367466Y-89071209D01*
X77287609Y-89220611D01*
X77256941Y-89321711D01*
X77243326Y-89366596D01*
X77238434Y-89382722D01*
X77225990Y-89509065D01*
X77225990Y-89509071D01*
X77221830Y-89551310D01*
X77225990Y-89593549D01*
X77225991Y-90705743D01*
X77225989Y-91525442D01*
X77225989Y-92229750D01*
X77221829Y-92271989D01*
X77225989Y-92314228D01*
X77225989Y-92314234D01*
X77238433Y-92440577D01*
X77287608Y-92602688D01*
X77367465Y-92752090D01*
X77474935Y-92883043D01*
X77507754Y-92909977D01*
X78926323Y-94328547D01*
X78926323Y-94329000D01*
X78943591Y-94504323D01*
X78994731Y-94672909D01*
X79011349Y-94704000D01*
X78994731Y-94735091D01*
X78943591Y-94903677D01*
X78926323Y-95079000D01*
X78926323Y-95349000D01*
X78943591Y-95524323D01*
X78994731Y-95692909D01*
X79009211Y-95720000D01*
X78994731Y-95747091D01*
X78943591Y-95915677D01*
X78926323Y-96091000D01*
X78926323Y-96361000D01*
X78943591Y-96536323D01*
X78994731Y-96704909D01*
X79011349Y-96736000D01*
X78994731Y-96767091D01*
X78943591Y-96935677D01*
X78926323Y-97111000D01*
X78926323Y-97381000D01*
X78943591Y-97556323D01*
X78994731Y-97724909D01*
X79077777Y-97880278D01*
X79189539Y-98016461D01*
X79325722Y-98128223D01*
X79481091Y-98211269D01*
X79649677Y-98262409D01*
X79825000Y-98279677D01*
X80195000Y-98279677D01*
X80370323Y-98262409D01*
X80538909Y-98211269D01*
X80694278Y-98128223D01*
X80721357Y-98106000D01*
X84309261Y-98106000D01*
X84351500Y-98110160D01*
X84393739Y-98106000D01*
X84393746Y-98106000D01*
X84520089Y-98093556D01*
X84682200Y-98044381D01*
X84831602Y-97964524D01*
X84962554Y-97857054D01*
X84989488Y-97824235D01*
X85359046Y-97454677D01*
X85562660Y-97454677D01*
X85559850Y-97483208D01*
X85564010Y-97525447D01*
X85564010Y-97525453D01*
X85570875Y-97595148D01*
X85575960Y-97646776D01*
X85576454Y-97651796D01*
X85625629Y-97813907D01*
X85705486Y-97963309D01*
X85812956Y-98094262D01*
X85845775Y-98121196D01*
X85924579Y-98200000D01*
X83862239Y-98200000D01*
X83820000Y-98195840D01*
X83777761Y-98200000D01*
X83777754Y-98200000D01*
X83666975Y-98210911D01*
X83651410Y-98212444D01*
X83602235Y-98227361D01*
X83489300Y-98261619D01*
X83339898Y-98341476D01*
X83330065Y-98349546D01*
X83254160Y-98411840D01*
X83208946Y-98448946D01*
X83182017Y-98481759D01*
X81209760Y-100454017D01*
X81176947Y-100480946D01*
X81150018Y-100513759D01*
X81150016Y-100513761D01*
X81069477Y-100611898D01*
X80989620Y-100761300D01*
X80940444Y-100923411D01*
X80923840Y-101092000D01*
X80928001Y-101134248D01*
X80928000Y-103335754D01*
X80928000Y-103335755D01*
X80928001Y-105075752D01*
X80923840Y-105118000D01*
X80940444Y-105286589D01*
X80989620Y-105448700D01*
X81069477Y-105598102D01*
X81176947Y-105729054D01*
X81209760Y-105755983D01*
X81808305Y-106354528D01*
X81804603Y-106366731D01*
X81790000Y-106515000D01*
X81790000Y-112230000D01*
X81804603Y-112378269D01*
X81847852Y-112520839D01*
X81918083Y-112652233D01*
X82012599Y-112767401D01*
X82425000Y-113179802D01*
X82425000Y-119468836D01*
X82420833Y-119466052D01*
X82177697Y-119365342D01*
X81919584Y-119314000D01*
X81656416Y-119314000D01*
X81398303Y-119365342D01*
X81155167Y-119466052D01*
X80936350Y-119612261D01*
X80750261Y-119798350D01*
X80604052Y-120017167D01*
X80503342Y-120260303D01*
X80452000Y-120518416D01*
X80452000Y-120781584D01*
X80503342Y-121039697D01*
X80604052Y-121282833D01*
X80750261Y-121501650D01*
X80936350Y-121687739D01*
X81155167Y-121833948D01*
X81398303Y-121934658D01*
X81656416Y-121986000D01*
X81919584Y-121986000D01*
X82177697Y-121934658D01*
X82420833Y-121833948D01*
X82432038Y-121826461D01*
X82439603Y-121903269D01*
X82482852Y-122045839D01*
X82553083Y-122177233D01*
X82647599Y-122292401D01*
X82762767Y-122386917D01*
X82894161Y-122457148D01*
X83036731Y-122500397D01*
X83185000Y-122515000D01*
X95885000Y-122515000D01*
X96033269Y-122500397D01*
X96175839Y-122457148D01*
X96307233Y-122386917D01*
X96422401Y-122292401D01*
X96516917Y-122177233D01*
X96587148Y-122045839D01*
X96630397Y-121903269D01*
X96645000Y-121755000D01*
X96645000Y-111595000D01*
X96630397Y-111446731D01*
X96587148Y-111304161D01*
X96516917Y-111172767D01*
X96422401Y-111057599D01*
X96041769Y-110676967D01*
X96125000Y-110258540D01*
X96125000Y-109741460D01*
X96024122Y-109234316D01*
X95826245Y-108756596D01*
X95538970Y-108326660D01*
X95173340Y-107961030D01*
X94743404Y-107673755D01*
X94265684Y-107475878D01*
X93758540Y-107375000D01*
X93241460Y-107375000D01*
X92823033Y-107458231D01*
X91342401Y-105977599D01*
X91227233Y-105883083D01*
X91095839Y-105812852D01*
X90953269Y-105769603D01*
X90805000Y-105755000D01*
X83641223Y-105755000D01*
X82648000Y-104761777D01*
X82648000Y-104406140D01*
X84200637Y-104406140D01*
X84323053Y-104608275D01*
X84585218Y-104733529D01*
X84866781Y-104805231D01*
X85156922Y-104820625D01*
X85444492Y-104779120D01*
X85718439Y-104682310D01*
X85856947Y-104608275D01*
X85979363Y-104406140D01*
X85090000Y-103516777D01*
X84200637Y-104406140D01*
X82648000Y-104406140D01*
X82648000Y-103406922D01*
X83609375Y-103406922D01*
X83650880Y-103694492D01*
X83747690Y-103968439D01*
X83821725Y-104106947D01*
X84023860Y-104229363D01*
X84913223Y-103340000D01*
X85266777Y-103340000D01*
X86156140Y-104229363D01*
X86358275Y-104106947D01*
X86483529Y-103844782D01*
X86555231Y-103563219D01*
X86570625Y-103273078D01*
X86529120Y-102985508D01*
X86432310Y-102711561D01*
X86358275Y-102573053D01*
X86156140Y-102450637D01*
X85266777Y-103340000D01*
X84913223Y-103340000D01*
X84023860Y-102450637D01*
X83821725Y-102573053D01*
X83696471Y-102835218D01*
X83624769Y-103116781D01*
X83609375Y-103406922D01*
X82648000Y-103406922D01*
X82648000Y-102273860D01*
X84200637Y-102273860D01*
X85090000Y-103163223D01*
X85979363Y-102273860D01*
X85856947Y-102071725D01*
X85594782Y-101946471D01*
X85313219Y-101874769D01*
X85023078Y-101859375D01*
X84735508Y-101900880D01*
X84461561Y-101997690D01*
X84323053Y-102071725D01*
X84200637Y-102273860D01*
X82648000Y-102273860D01*
X82648000Y-101448223D01*
X84176224Y-99920000D01*
X90656672Y-99920000D01*
X90666454Y-99952247D01*
X90737026Y-100084276D01*
X90831999Y-100200001D01*
X90947724Y-100294974D01*
X91079753Y-100365546D01*
X91223014Y-100409003D01*
X91372000Y-100423677D01*
X92272000Y-100423677D01*
X92420986Y-100409003D01*
X92564247Y-100365546D01*
X92696276Y-100294974D01*
X92812001Y-100200001D01*
X92906974Y-100084276D01*
X92977546Y-99952247D01*
X93021003Y-99808986D01*
X93035677Y-99660000D01*
X93035677Y-98904000D01*
X93623777Y-98904000D01*
X93908323Y-99188547D01*
X93908323Y-99660000D01*
X93922997Y-99808986D01*
X93966454Y-99952247D01*
X94037026Y-100084276D01*
X94131999Y-100200001D01*
X94247724Y-100294974D01*
X94379753Y-100365546D01*
X94523014Y-100409003D01*
X94672000Y-100423677D01*
X95572000Y-100423677D01*
X95720986Y-100409003D01*
X95864247Y-100365546D01*
X95996276Y-100294974D01*
X96112001Y-100200001D01*
X96206974Y-100084276D01*
X96277546Y-99952247D01*
X96321003Y-99808986D01*
X96335677Y-99660000D01*
X96335677Y-98460000D01*
X96321003Y-98311014D01*
X96277546Y-98167753D01*
X96206974Y-98035724D01*
X96112001Y-97919999D01*
X95996276Y-97825026D01*
X95982000Y-97817395D01*
X95982000Y-96692677D01*
X96008000Y-96692677D01*
X96200881Y-96673680D01*
X96386350Y-96617418D01*
X96557280Y-96526055D01*
X96707100Y-96403100D01*
X96759706Y-96339000D01*
X97083261Y-96339000D01*
X97125500Y-96343160D01*
X97167739Y-96339000D01*
X97167746Y-96339000D01*
X97294089Y-96326556D01*
X97456200Y-96277381D01*
X97605602Y-96197524D01*
X97712643Y-96109677D01*
X98695000Y-96109677D01*
X98843986Y-96095003D01*
X98987247Y-96051546D01*
X99119276Y-95980974D01*
X99235001Y-95886001D01*
X99329974Y-95770276D01*
X99400546Y-95638247D01*
X99444003Y-95494986D01*
X99458677Y-95346000D01*
X99458677Y-94446000D01*
X99444003Y-94297014D01*
X99400546Y-94153753D01*
X99329974Y-94021724D01*
X99235001Y-93905999D01*
X99119276Y-93811026D01*
X98987247Y-93740454D01*
X98843986Y-93696997D01*
X98695000Y-93682323D01*
X97395000Y-93682323D01*
X97246014Y-93696997D01*
X97102753Y-93740454D01*
X96970724Y-93811026D01*
X96854999Y-93905999D01*
X96760026Y-94021724D01*
X96689454Y-94153753D01*
X96645997Y-94297014D01*
X96631323Y-94446000D01*
X96631323Y-94492711D01*
X96557280Y-94431945D01*
X96386350Y-94340582D01*
X96200881Y-94284320D01*
X96008000Y-94265323D01*
X95508000Y-94265323D01*
X95315119Y-94284320D01*
X95129650Y-94340582D01*
X94958720Y-94431945D01*
X94808900Y-94554900D01*
X94685945Y-94704720D01*
X94594582Y-94875650D01*
X94538320Y-95061119D01*
X94519323Y-95254000D01*
X94519323Y-95497072D01*
X94510947Y-95503946D01*
X94484018Y-95536759D01*
X94484016Y-95536761D01*
X94403477Y-95634898D01*
X94323620Y-95784300D01*
X94274444Y-95946411D01*
X94257840Y-96115000D01*
X94262001Y-96157249D01*
X94262001Y-97230846D01*
X94148589Y-97196444D01*
X94022246Y-97184000D01*
X94022239Y-97184000D01*
X93980000Y-97179840D01*
X93937761Y-97184000D01*
X93386132Y-97184000D01*
X93406931Y-97166931D01*
X93529108Y-97018057D01*
X93619894Y-96848209D01*
X93675800Y-96663912D01*
X93694677Y-96472250D01*
X93694677Y-96034750D01*
X93675800Y-95843088D01*
X93619894Y-95658791D01*
X93529108Y-95488943D01*
X93510279Y-95466000D01*
X93529108Y-95443057D01*
X93619894Y-95273209D01*
X93675800Y-95088912D01*
X93694677Y-94897250D01*
X93694677Y-94459750D01*
X93689881Y-94411055D01*
X93818112Y-94342514D01*
X93949064Y-94235044D01*
X93975998Y-94202225D01*
X94920091Y-93258132D01*
X95060191Y-93230265D01*
X95253098Y-93150360D01*
X95426711Y-93034356D01*
X95574356Y-92886711D01*
X95661910Y-92755677D01*
X95928000Y-92755677D01*
X96104299Y-92738313D01*
X96273822Y-92686889D01*
X96430056Y-92603380D01*
X96468293Y-92572000D01*
X96669359Y-92572000D01*
X96689454Y-92638247D01*
X96760026Y-92770276D01*
X96854999Y-92886001D01*
X96970724Y-92980974D01*
X97102753Y-93051546D01*
X97246014Y-93095003D01*
X97395000Y-93109677D01*
X98695000Y-93109677D01*
X98843986Y-93095003D01*
X98987247Y-93051546D01*
X99119276Y-92980974D01*
X99235001Y-92886001D01*
X99329974Y-92770276D01*
X99337605Y-92756000D01*
X104571249Y-92756000D01*
X105779604Y-93964355D01*
X105807471Y-94104455D01*
X105887376Y-94297362D01*
X106003380Y-94470975D01*
X106151025Y-94618620D01*
X106324638Y-94734624D01*
X106517545Y-94814529D01*
X106722335Y-94855264D01*
X106931137Y-94855264D01*
X107042285Y-94833155D01*
X106986731Y-94937091D01*
X106935591Y-95105677D01*
X106918323Y-95281000D01*
X106918323Y-95283989D01*
X104193558Y-95283989D01*
X104168712Y-95281542D01*
X104141276Y-95259026D01*
X104009247Y-95188454D01*
X103865986Y-95144997D01*
X103717000Y-95130323D01*
X102817000Y-95130323D01*
X102668014Y-95144997D01*
X102524753Y-95188454D01*
X102392724Y-95259026D01*
X102276999Y-95353999D01*
X102182026Y-95469724D01*
X102111454Y-95601753D01*
X102067997Y-95745014D01*
X102053323Y-95894000D01*
X102053323Y-96694000D01*
X102067997Y-96842986D01*
X102111454Y-96986247D01*
X102182026Y-97118276D01*
X102276999Y-97234001D01*
X102289183Y-97244000D01*
X102276999Y-97253999D01*
X102182026Y-97369724D01*
X102111454Y-97501753D01*
X102067997Y-97645014D01*
X102053323Y-97794000D01*
X102053323Y-98594000D01*
X102067997Y-98742986D01*
X102111454Y-98886247D01*
X102182026Y-99018276D01*
X102276999Y-99134001D01*
X102392724Y-99228974D01*
X102524753Y-99299546D01*
X102668014Y-99343003D01*
X102817000Y-99357677D01*
X103717000Y-99357677D01*
X103865986Y-99343003D01*
X104009247Y-99299546D01*
X104141276Y-99228974D01*
X104257001Y-99134001D01*
X104351974Y-99018276D01*
X104422546Y-98886247D01*
X104466003Y-98742986D01*
X104480677Y-98594000D01*
X104480677Y-97794000D01*
X104466003Y-97645014D01*
X104458138Y-97619086D01*
X104673225Y-97403999D01*
X105723323Y-97403999D01*
X105723323Y-97404000D01*
X105741071Y-97584200D01*
X105793634Y-97757476D01*
X105878991Y-97917167D01*
X105993862Y-98057138D01*
X106133833Y-98172009D01*
X106293524Y-98257366D01*
X106466800Y-98309929D01*
X106647000Y-98327677D01*
X106881408Y-98327677D01*
X106878323Y-98359000D01*
X106878323Y-98669000D01*
X106895975Y-98848225D01*
X106948253Y-99020562D01*
X107033148Y-99179390D01*
X107147397Y-99318603D01*
X107286610Y-99432852D01*
X107445438Y-99517747D01*
X107617775Y-99570025D01*
X107797000Y-99587677D01*
X107866954Y-99587677D01*
X109213015Y-100933739D01*
X109239946Y-100966554D01*
X109370898Y-101074024D01*
X109520300Y-101153881D01*
X109606950Y-101180165D01*
X109682409Y-101203056D01*
X109713538Y-101206122D01*
X109808754Y-101215500D01*
X109808760Y-101215500D01*
X109850999Y-101219660D01*
X109893238Y-101215500D01*
X120014277Y-101215500D01*
X120806001Y-102007225D01*
X120806000Y-106565188D01*
X119176189Y-108195000D01*
X117680224Y-108195000D01*
X117268677Y-107783454D01*
X117268677Y-106136000D01*
X117251121Y-105957750D01*
X117199127Y-105786351D01*
X117114695Y-105628388D01*
X117001067Y-105489933D01*
X116862612Y-105376305D01*
X116704649Y-105291873D01*
X116533250Y-105239879D01*
X116355000Y-105222323D01*
X116055000Y-105222323D01*
X115876750Y-105239879D01*
X115705351Y-105291873D01*
X115547388Y-105376305D01*
X115408933Y-105489933D01*
X115295305Y-105628388D01*
X115210873Y-105786351D01*
X115158879Y-105957750D01*
X115141323Y-106136000D01*
X115141323Y-107786000D01*
X115158879Y-107964250D01*
X115210873Y-108135649D01*
X115242596Y-108195000D01*
X111965224Y-108195000D01*
X111553677Y-107783454D01*
X111553677Y-106136000D01*
X111536121Y-105957750D01*
X111484127Y-105786351D01*
X111399695Y-105628388D01*
X111286067Y-105489933D01*
X111147612Y-105376305D01*
X110989649Y-105291873D01*
X110818250Y-105239879D01*
X110640000Y-105222323D01*
X110340000Y-105222323D01*
X110161750Y-105239879D01*
X109990351Y-105291873D01*
X109832388Y-105376305D01*
X109693933Y-105489933D01*
X109580305Y-105628388D01*
X109495873Y-105786351D01*
X109443879Y-105957750D01*
X109426323Y-106136000D01*
X109426323Y-107786000D01*
X109443879Y-107964250D01*
X109495873Y-108135649D01*
X109580305Y-108293612D01*
X109693933Y-108432067D01*
X109832388Y-108545695D01*
X109942129Y-108604352D01*
X110167777Y-108830000D01*
X106377224Y-108830000D01*
X105330677Y-107783454D01*
X105330677Y-106136000D01*
X105313121Y-105957750D01*
X105261127Y-105786351D01*
X105176695Y-105628388D01*
X105063067Y-105489933D01*
X104924612Y-105376305D01*
X104766649Y-105291873D01*
X104595250Y-105239879D01*
X104417000Y-105222323D01*
X104117000Y-105222323D01*
X103938750Y-105239879D01*
X103767351Y-105291873D01*
X103609388Y-105376305D01*
X103470933Y-105489933D01*
X103357305Y-105628388D01*
X103272873Y-105786351D01*
X103220879Y-105957750D01*
X103203323Y-106136000D01*
X103203323Y-107786000D01*
X103220879Y-107964250D01*
X103272873Y-108135649D01*
X103357305Y-108293612D01*
X103470933Y-108432067D01*
X103609388Y-108545695D01*
X103719129Y-108604352D01*
X103944777Y-108830000D01*
X100789224Y-108830000D01*
X99742677Y-107783454D01*
X99742677Y-106136000D01*
X99725121Y-105957750D01*
X99673127Y-105786351D01*
X99588695Y-105628388D01*
X99475067Y-105489933D01*
X99336612Y-105376305D01*
X99178649Y-105291873D01*
X99007250Y-105239879D01*
X98829000Y-105222323D01*
X98529000Y-105222323D01*
X98350750Y-105239879D01*
X98179351Y-105291873D01*
X98021388Y-105376305D01*
X97882933Y-105489933D01*
X97769305Y-105628388D01*
X97684873Y-105786351D01*
X97632879Y-105957750D01*
X97615323Y-106136000D01*
X97615323Y-107786000D01*
X97632879Y-107964250D01*
X97684873Y-108135649D01*
X97769305Y-108293612D01*
X97882933Y-108432067D01*
X98021388Y-108545695D01*
X98131129Y-108604352D01*
X99091776Y-109565000D01*
X97790000Y-109565000D01*
X97641731Y-109579603D01*
X97499161Y-109622852D01*
X97367767Y-109693083D01*
X97252599Y-109787599D01*
X97158083Y-109902767D01*
X97087852Y-110034161D01*
X97044603Y-110176731D01*
X97030000Y-110325000D01*
X97030000Y-121755000D01*
X97044603Y-121903269D01*
X97087852Y-122045839D01*
X97158083Y-122177233D01*
X97252599Y-122292401D01*
X97367767Y-122386917D01*
X97499161Y-122457148D01*
X97641731Y-122500397D01*
X97790000Y-122515000D01*
X120650000Y-122515000D01*
X120798269Y-122500397D01*
X120940839Y-122457148D01*
X121072233Y-122386917D01*
X121187401Y-122292401D01*
X121281917Y-122177233D01*
X121352148Y-122045839D01*
X121395397Y-121903269D01*
X121410000Y-121755000D01*
X121410000Y-111596968D01*
X121461030Y-111673340D01*
X121826660Y-112038970D01*
X122256596Y-112326245D01*
X122734316Y-112524122D01*
X123241460Y-112625000D01*
X123758540Y-112625000D01*
X124265684Y-112524122D01*
X124743404Y-112326245D01*
X125173340Y-112038970D01*
X125415000Y-111797310D01*
X125415000Y-123661611D01*
X125378645Y-124032381D01*
X125282116Y-124352100D01*
X125125325Y-124646983D01*
X124914244Y-124905794D01*
X124656913Y-125118677D01*
X124363133Y-125277524D01*
X124044091Y-125376284D01*
X123675729Y-125415000D01*
X78738389Y-125415000D01*
X78367619Y-125378645D01*
X78047900Y-125282116D01*
X77753017Y-125125325D01*
X77494206Y-124914244D01*
X77281323Y-124656913D01*
X77122476Y-124363133D01*
X77023716Y-124044091D01*
X76985000Y-123675729D01*
X76985000Y-122841806D01*
X77515000Y-122841806D01*
X77515000Y-123208194D01*
X77586479Y-123567542D01*
X77726689Y-123906041D01*
X77930243Y-124210681D01*
X78189319Y-124469757D01*
X78493959Y-124673311D01*
X78832458Y-124813521D01*
X79191806Y-124885000D01*
X79558194Y-124885000D01*
X79917542Y-124813521D01*
X80256041Y-124673311D01*
X80560681Y-124469757D01*
X80819757Y-124210681D01*
X81023311Y-123906041D01*
X81163521Y-123567542D01*
X81235000Y-123208194D01*
X81235000Y-122841806D01*
X121165000Y-122841806D01*
X121165000Y-123208194D01*
X121236479Y-123567542D01*
X121376689Y-123906041D01*
X121580243Y-124210681D01*
X121839319Y-124469757D01*
X122143959Y-124673311D01*
X122482458Y-124813521D01*
X122841806Y-124885000D01*
X123208194Y-124885000D01*
X123567542Y-124813521D01*
X123906041Y-124673311D01*
X124210681Y-124469757D01*
X124469757Y-124210681D01*
X124673311Y-123906041D01*
X124813521Y-123567542D01*
X124885000Y-123208194D01*
X124885000Y-122841806D01*
X124813521Y-122482458D01*
X124673311Y-122143959D01*
X124469757Y-121839319D01*
X124210681Y-121580243D01*
X123906041Y-121376689D01*
X123567542Y-121236479D01*
X123208194Y-121165000D01*
X122841806Y-121165000D01*
X122482458Y-121236479D01*
X122143959Y-121376689D01*
X121839319Y-121580243D01*
X121580243Y-121839319D01*
X121376689Y-122143959D01*
X121236479Y-122482458D01*
X121165000Y-122841806D01*
X81235000Y-122841806D01*
X81163521Y-122482458D01*
X81023311Y-122143959D01*
X80819757Y-121839319D01*
X80560681Y-121580243D01*
X80256041Y-121376689D01*
X79917542Y-121236479D01*
X79558194Y-121165000D01*
X79191806Y-121165000D01*
X78832458Y-121236479D01*
X78493959Y-121376689D01*
X78189319Y-121580243D01*
X77930243Y-121839319D01*
X77726689Y-122143959D01*
X77586479Y-122482458D01*
X77515000Y-122841806D01*
X76985000Y-122841806D01*
X76985000Y-78738397D01*
X77021355Y-78367618D01*
X77117885Y-78047897D01*
X77274676Y-77753015D01*
X77485758Y-77494203D01*
X77743088Y-77281322D01*
X78036867Y-77122476D01*
X78355908Y-77023717D01*
X78724271Y-76985000D01*
X123661603Y-76985000D01*
X124032382Y-77021355D01*
G04 #@! TA.AperFunction,Conductor*
D21*
G36*
X124032382Y-77021355D02*
G01*
X124352103Y-77117885D01*
X124646985Y-77274676D01*
X124905797Y-77485758D01*
X125118678Y-77743088D01*
X125277524Y-78036867D01*
X125376283Y-78355908D01*
X125415001Y-78724280D01*
X125415000Y-108202690D01*
X125173340Y-107961030D01*
X124743404Y-107673755D01*
X124265684Y-107475878D01*
X123758540Y-107375000D01*
X123241460Y-107375000D01*
X123035594Y-107415950D01*
X123034000Y-107399762D01*
X123034000Y-101635541D01*
X123038160Y-101593302D01*
X123034000Y-101551063D01*
X123034000Y-101551056D01*
X123021556Y-101424713D01*
X123020946Y-101422700D01*
X122989883Y-101320299D01*
X122972381Y-101262602D01*
X122892524Y-101113200D01*
X122785054Y-100982248D01*
X122752241Y-100955319D01*
X120971526Y-99174604D01*
X121021001Y-99134001D01*
X121115974Y-99018276D01*
X121186546Y-98886247D01*
X121230003Y-98742986D01*
X121244677Y-98594000D01*
X121244677Y-98325987D01*
X121288753Y-98349546D01*
X121432014Y-98393003D01*
X121581000Y-98407677D01*
X122481000Y-98407677D01*
X122629986Y-98393003D01*
X122773247Y-98349546D01*
X122905276Y-98278974D01*
X123021001Y-98184001D01*
X123115974Y-98068276D01*
X123186546Y-97936247D01*
X123230003Y-97792986D01*
X123244677Y-97644000D01*
X123244677Y-96844000D01*
X123230003Y-96695014D01*
X123186546Y-96551753D01*
X123115974Y-96419724D01*
X123021001Y-96303999D01*
X122905276Y-96209026D01*
X122891000Y-96201395D01*
X122891000Y-95619238D01*
X122895160Y-95576999D01*
X122891000Y-95534760D01*
X122891000Y-95534754D01*
X122879946Y-95422524D01*
X122878556Y-95408409D01*
X122849966Y-95314161D01*
X122829381Y-95246300D01*
X122749524Y-95096898D01*
X122642054Y-94965946D01*
X122609235Y-94939012D01*
X122201399Y-94531176D01*
X122184313Y-94357701D01*
X122132889Y-94188178D01*
X122049380Y-94031944D01*
X121936996Y-93895004D01*
X121800056Y-93782620D01*
X121643822Y-93699111D01*
X121614414Y-93690190D01*
X121570132Y-93645909D01*
X121542265Y-93505809D01*
X121462360Y-93312902D01*
X121346356Y-93139289D01*
X121198711Y-92991644D01*
X121025098Y-92875640D01*
X120832191Y-92795735D01*
X120627401Y-92755000D01*
X120418599Y-92755000D01*
X120213809Y-92795735D01*
X120020902Y-92875640D01*
X119902131Y-92955000D01*
X118603869Y-92955000D01*
X118485098Y-92875640D01*
X118292191Y-92795735D01*
X118087401Y-92755000D01*
X117878599Y-92755000D01*
X117673809Y-92795735D01*
X117480902Y-92875640D01*
X117403232Y-92927537D01*
X116569460Y-92093765D01*
X116542526Y-92060946D01*
X116411574Y-91953476D01*
X116262172Y-91873619D01*
X116100061Y-91824444D01*
X115973718Y-91812000D01*
X115973711Y-91812000D01*
X115931472Y-91807840D01*
X115889233Y-91812000D01*
X110646594Y-91812000D01*
X110674406Y-91784188D01*
X110856073Y-91512305D01*
X110981207Y-91210204D01*
X111033093Y-90949355D01*
X120138422Y-90949355D01*
X120236668Y-91131016D01*
X120464704Y-91236266D01*
X120708890Y-91295007D01*
X120959844Y-91304981D01*
X121207923Y-91265804D01*
X121443592Y-91178983D01*
X121533332Y-91131016D01*
X121631578Y-90949355D01*
X120885000Y-90202777D01*
X120138422Y-90949355D01*
X111033093Y-90949355D01*
X111045000Y-90889496D01*
X111045000Y-90562504D01*
X110981207Y-90241796D01*
X110856073Y-89939695D01*
X110674406Y-89667812D01*
X110443188Y-89436594D01*
X110171305Y-89254927D01*
X110122376Y-89234660D01*
X110333393Y-89170649D01*
X110603732Y-89026150D01*
X110840687Y-88831687D01*
X111035150Y-88594732D01*
X111179649Y-88324393D01*
X111268631Y-88031058D01*
X111298677Y-87726000D01*
X111298677Y-85526000D01*
X111268631Y-85220942D01*
X111179649Y-84927607D01*
X111047300Y-84680000D01*
X118822700Y-84680000D01*
X118690351Y-84927607D01*
X118601369Y-85220942D01*
X118571323Y-85526000D01*
X118571323Y-87726000D01*
X118601369Y-88031058D01*
X118690351Y-88324393D01*
X118834850Y-88594732D01*
X119029313Y-88831687D01*
X119266268Y-89026150D01*
X119536607Y-89170649D01*
X119829942Y-89259631D01*
X119954079Y-89271858D01*
X119961644Y-89279423D01*
X119779984Y-89377668D01*
X119674734Y-89605704D01*
X119615993Y-89849890D01*
X119606019Y-90100844D01*
X119645196Y-90348923D01*
X119732017Y-90584592D01*
X119779984Y-90674332D01*
X119961645Y-90772578D01*
X120708223Y-90026000D01*
X120694081Y-90011858D01*
X120870858Y-89835081D01*
X120885000Y-89849223D01*
X120899142Y-89835081D01*
X121075919Y-90011858D01*
X121061777Y-90026000D01*
X121808355Y-90772578D01*
X121990016Y-90674332D01*
X122095266Y-90446296D01*
X122154007Y-90202110D01*
X122163981Y-89951156D01*
X122124804Y-89703077D01*
X122037983Y-89467408D01*
X121990016Y-89377668D01*
X121813095Y-89281985D01*
X122040058Y-89259631D01*
X122333393Y-89170649D01*
X122603732Y-89026150D01*
X122840687Y-88831687D01*
X123035150Y-88594732D01*
X123179649Y-88324393D01*
X123268631Y-88031058D01*
X123298677Y-87726000D01*
X123298677Y-85526000D01*
X123268631Y-85220942D01*
X123179649Y-84927607D01*
X123035150Y-84657268D01*
X122840687Y-84420313D01*
X122603732Y-84225850D01*
X122333393Y-84081351D01*
X122040058Y-83992369D01*
X121735000Y-83962323D01*
X121113777Y-83962323D01*
X121271305Y-83897073D01*
X121543188Y-83715406D01*
X121774406Y-83484188D01*
X121956073Y-83212305D01*
X122081207Y-82910204D01*
X122108000Y-82775507D01*
X122108000Y-82935584D01*
X122159342Y-83193697D01*
X122260052Y-83436833D01*
X122406261Y-83655650D01*
X122592350Y-83841739D01*
X122811167Y-83987948D01*
X123054303Y-84088658D01*
X123312416Y-84140000D01*
X123575584Y-84140000D01*
X123833697Y-84088658D01*
X124076833Y-83987948D01*
X124295650Y-83841739D01*
X124481739Y-83655650D01*
X124627948Y-83436833D01*
X124728658Y-83193697D01*
X124780000Y-82935584D01*
X124780000Y-82672416D01*
X124728658Y-82414303D01*
X124627948Y-82171167D01*
X124481739Y-81952350D01*
X124295650Y-81766261D01*
X124076833Y-81620052D01*
X123833697Y-81519342D01*
X123575584Y-81468000D01*
X123312416Y-81468000D01*
X123054303Y-81519342D01*
X122811167Y-81620052D01*
X122592350Y-81766261D01*
X122406261Y-81952350D01*
X122260052Y-82171167D01*
X122159342Y-82414303D01*
X122145000Y-82486405D01*
X122145000Y-82262504D01*
X122081207Y-81941796D01*
X121956073Y-81639695D01*
X121774406Y-81367812D01*
X121543188Y-81136594D01*
X121271305Y-80954927D01*
X120969204Y-80829793D01*
X120648496Y-80766000D01*
X120321504Y-80766000D01*
X120000796Y-80829793D01*
X119698695Y-80954927D01*
X119426812Y-81136594D01*
X119195594Y-81367812D01*
X119013927Y-81639695D01*
X118888793Y-81941796D01*
X118825000Y-82262504D01*
X118825000Y-82589496D01*
X118871502Y-82823275D01*
X118734777Y-82960000D01*
X110960581Y-82960000D01*
X110981207Y-82910204D01*
X111045000Y-82589496D01*
X111045000Y-82262504D01*
X110981207Y-81941796D01*
X110856073Y-81639695D01*
X110674406Y-81367812D01*
X110443188Y-81136594D01*
X110171305Y-80954927D01*
X109869204Y-80829793D01*
X109548496Y-80766000D01*
X109221504Y-80766000D01*
X108900796Y-80829793D01*
X108598695Y-80954927D01*
X108326812Y-81136594D01*
X108095594Y-81367812D01*
X107913927Y-81639695D01*
X107788793Y-81941796D01*
X107773600Y-82018176D01*
X106011109Y-83780668D01*
X105849323Y-83731591D01*
X105674000Y-83714323D01*
X105404000Y-83714323D01*
X105228677Y-83731591D01*
X105060091Y-83782731D01*
X105029000Y-83799349D01*
X104997909Y-83782731D01*
X104829323Y-83731591D01*
X104654000Y-83714323D01*
X104384000Y-83714323D01*
X104208677Y-83731591D01*
X104040091Y-83782731D01*
X103991747Y-83808572D01*
X103962822Y-83793111D01*
X103793299Y-83741687D01*
X103617000Y-83724323D01*
X103337000Y-83724323D01*
X103160701Y-83741687D01*
X102991178Y-83793111D01*
X102834944Y-83876620D01*
X102698004Y-83989004D01*
X102585620Y-84125944D01*
X102502111Y-84282178D01*
X102450687Y-84451701D01*
X102436279Y-84597990D01*
X101273539Y-84597990D01*
X101269360Y-84587902D01*
X101153356Y-84414289D01*
X101005711Y-84266644D01*
X100832098Y-84150640D01*
X100753351Y-84118022D01*
X100848315Y-84054569D01*
X101072569Y-83830315D01*
X101248763Y-83566621D01*
X101370129Y-83273620D01*
X101432000Y-82962571D01*
X101432000Y-82645429D01*
X101370129Y-82334380D01*
X101248763Y-82041379D01*
X101072569Y-81777685D01*
X100848315Y-81553431D01*
X100819234Y-81534000D01*
X100848315Y-81514569D01*
X101072569Y-81290315D01*
X101248763Y-81026621D01*
X101370129Y-80733620D01*
X101386890Y-80649355D01*
X114188422Y-80649355D01*
X114286668Y-80831016D01*
X114514704Y-80936266D01*
X114758890Y-80995007D01*
X115009844Y-81004981D01*
X115257923Y-80965804D01*
X115493592Y-80878983D01*
X115583332Y-80831016D01*
X115681578Y-80649355D01*
X114935000Y-79902777D01*
X114188422Y-80649355D01*
X101386890Y-80649355D01*
X101432000Y-80422571D01*
X101432000Y-80105429D01*
X101371415Y-79800844D01*
X113656019Y-79800844D01*
X113695196Y-80048923D01*
X113782017Y-80284592D01*
X113829984Y-80374332D01*
X114011645Y-80472578D01*
X114758223Y-79726000D01*
X115111777Y-79726000D01*
X115858355Y-80472578D01*
X116040016Y-80374332D01*
X116145266Y-80146296D01*
X116204007Y-79902110D01*
X116213981Y-79651156D01*
X116174804Y-79403077D01*
X116096972Y-79191806D01*
X121165000Y-79191806D01*
X121165000Y-79558194D01*
X121236479Y-79917542D01*
X121376689Y-80256041D01*
X121580243Y-80560681D01*
X121839319Y-80819757D01*
X122143959Y-81023311D01*
X122482458Y-81163521D01*
X122841806Y-81235000D01*
X123208194Y-81235000D01*
X123567542Y-81163521D01*
X123906041Y-81023311D01*
X124210681Y-80819757D01*
X124469757Y-80560681D01*
X124673311Y-80256041D01*
X124813521Y-79917542D01*
X124885000Y-79558194D01*
X124885000Y-79191806D01*
X124813521Y-78832458D01*
X124673311Y-78493959D01*
X124469757Y-78189319D01*
X124210681Y-77930243D01*
X123906041Y-77726689D01*
X123567542Y-77586479D01*
X123208194Y-77515000D01*
X122841806Y-77515000D01*
X122482458Y-77586479D01*
X122143959Y-77726689D01*
X121839319Y-77930243D01*
X121580243Y-78189319D01*
X121376689Y-78493959D01*
X121236479Y-78832458D01*
X121165000Y-79191806D01*
X116096972Y-79191806D01*
X116087983Y-79167408D01*
X116040016Y-79077668D01*
X115858355Y-78979422D01*
X115111777Y-79726000D01*
X114758223Y-79726000D01*
X114011645Y-78979422D01*
X113829984Y-79077668D01*
X113724734Y-79305704D01*
X113665993Y-79549890D01*
X113656019Y-79800844D01*
X101371415Y-79800844D01*
X101370129Y-79794380D01*
X101248763Y-79501379D01*
X101072569Y-79237685D01*
X100848315Y-79013431D01*
X100584621Y-78837237D01*
X100501110Y-78802645D01*
X114188422Y-78802645D01*
X114935000Y-79549223D01*
X115681578Y-78802645D01*
X115583332Y-78620984D01*
X115355296Y-78515734D01*
X115111110Y-78456993D01*
X114860156Y-78447019D01*
X114612077Y-78486196D01*
X114376408Y-78573017D01*
X114286668Y-78620984D01*
X114188422Y-78802645D01*
X100501110Y-78802645D01*
X100291620Y-78715871D01*
X99980571Y-78654000D01*
X99663429Y-78654000D01*
X99352380Y-78715871D01*
X99059379Y-78837237D01*
X98795685Y-79013431D01*
X98571431Y-79237685D01*
X98552000Y-79266766D01*
X98532569Y-79237685D01*
X98308315Y-79013431D01*
X98044621Y-78837237D01*
X97751620Y-78715871D01*
X97440571Y-78654000D01*
X97123429Y-78654000D01*
X96812380Y-78715871D01*
X96519379Y-78837237D01*
X96255685Y-79013431D01*
X96031431Y-79237685D01*
X96012000Y-79266766D01*
X95992569Y-79237685D01*
X95768315Y-79013431D01*
X95504621Y-78837237D01*
X95211620Y-78715871D01*
X94900571Y-78654000D01*
X94583429Y-78654000D01*
X94272380Y-78715871D01*
X93979379Y-78837237D01*
X93715685Y-79013431D01*
X93491431Y-79237685D01*
X93315237Y-79501379D01*
X93254481Y-79648055D01*
X93175726Y-79520697D01*
X93012005Y-79345015D01*
X92817156Y-79204649D01*
X92598667Y-79104993D01*
X92516093Y-79079951D01*
X92327000Y-79139677D01*
X92327000Y-80139000D01*
X92347000Y-80139000D01*
X92347000Y-80389000D01*
X92327000Y-80389000D01*
X92327000Y-81388323D01*
X92516093Y-81448049D01*
X92598667Y-81423007D01*
X92817156Y-81323351D01*
X93012005Y-81182985D01*
X93175726Y-81007303D01*
X93254481Y-80879945D01*
X93315237Y-81026621D01*
X93491431Y-81290315D01*
X93715685Y-81514569D01*
X93744766Y-81534000D01*
X93715685Y-81553431D01*
X93491431Y-81777685D01*
X93315237Y-82041379D01*
X93254481Y-82188055D01*
X93175726Y-82060697D01*
X93012005Y-81885015D01*
X92817156Y-81744649D01*
X92598667Y-81644993D01*
X92516093Y-81619951D01*
X92327000Y-81679677D01*
X92327000Y-82679000D01*
X92347000Y-82679000D01*
X92347000Y-82929000D01*
X92327000Y-82929000D01*
X92327000Y-83928323D01*
X92516093Y-83988049D01*
X92598667Y-83963007D01*
X92817156Y-83863351D01*
X93012005Y-83722985D01*
X93175726Y-83547303D01*
X93254481Y-83419945D01*
X93315237Y-83566621D01*
X93491431Y-83830315D01*
X93715685Y-84054569D01*
X93732346Y-84065701D01*
X93466037Y-84332010D01*
X91673077Y-84332010D01*
X91607711Y-84266644D01*
X91434098Y-84150640D01*
X91241191Y-84070735D01*
X91036401Y-84030000D01*
X90827599Y-84030000D01*
X90681632Y-84059034D01*
X90688315Y-84054569D01*
X90912569Y-83830315D01*
X91088763Y-83566621D01*
X91149519Y-83419945D01*
X91228274Y-83547303D01*
X91391995Y-83722985D01*
X91586844Y-83863351D01*
X91805333Y-83963007D01*
X91887907Y-83988049D01*
X92077000Y-83928323D01*
X92077000Y-82929000D01*
X92057000Y-82929000D01*
X92057000Y-82679000D01*
X92077000Y-82679000D01*
X92077000Y-81679677D01*
X91887907Y-81619951D01*
X91805333Y-81644993D01*
X91586844Y-81744649D01*
X91391995Y-81885015D01*
X91228274Y-82060697D01*
X91149519Y-82188055D01*
X91088763Y-82041379D01*
X90912569Y-81777685D01*
X90688315Y-81553431D01*
X90424621Y-81377237D01*
X90283499Y-81318782D01*
X90472005Y-81182985D01*
X90635726Y-81007303D01*
X90762027Y-80803056D01*
X90846055Y-80578094D01*
X91017945Y-80578094D01*
X91101973Y-80803056D01*
X91228274Y-81007303D01*
X91391995Y-81182985D01*
X91586844Y-81323351D01*
X91805333Y-81423007D01*
X91887907Y-81448049D01*
X92077000Y-81388323D01*
X92077000Y-80389000D01*
X91077138Y-80389000D01*
X91017945Y-80578094D01*
X90846055Y-80578094D01*
X90786862Y-80389000D01*
X89787000Y-80389000D01*
X89787000Y-80409000D01*
X89537000Y-80409000D01*
X89537000Y-80389000D01*
X88537138Y-80389000D01*
X88477945Y-80578094D01*
X88561973Y-80803056D01*
X88688274Y-81007303D01*
X88851995Y-81182985D01*
X89040501Y-81318782D01*
X88899379Y-81377237D01*
X88635685Y-81553431D01*
X88411431Y-81777685D01*
X88392000Y-81806766D01*
X88372569Y-81777685D01*
X88148315Y-81553431D01*
X87884621Y-81377237D01*
X87743499Y-81318782D01*
X87932005Y-81182985D01*
X88095726Y-81007303D01*
X88222027Y-80803056D01*
X88306055Y-80578094D01*
X88246862Y-80389000D01*
X87247000Y-80389000D01*
X87247000Y-80409000D01*
X86997000Y-80409000D01*
X86997000Y-80389000D01*
X85997138Y-80389000D01*
X85937945Y-80578094D01*
X86021973Y-80803056D01*
X86148274Y-81007303D01*
X86311995Y-81182985D01*
X86500501Y-81318782D01*
X86359379Y-81377237D01*
X86095685Y-81553431D01*
X85871431Y-81777685D01*
X85852000Y-81806766D01*
X85832569Y-81777685D01*
X85608315Y-81553431D01*
X85344621Y-81377237D01*
X85203499Y-81318782D01*
X85392005Y-81182985D01*
X85555726Y-81007303D01*
X85682027Y-80803056D01*
X85766055Y-80578094D01*
X85706862Y-80389000D01*
X84707000Y-80389000D01*
X84707000Y-80409000D01*
X84457000Y-80409000D01*
X84457000Y-80389000D01*
X83457138Y-80389000D01*
X83397945Y-80578094D01*
X83481973Y-80803056D01*
X83608274Y-81007303D01*
X83771995Y-81182985D01*
X83960501Y-81318782D01*
X83819379Y-81377237D01*
X83555685Y-81553431D01*
X83331431Y-81777685D01*
X83312000Y-81806766D01*
X83292569Y-81777685D01*
X83068315Y-81553431D01*
X82804621Y-81377237D01*
X82663499Y-81318782D01*
X82852005Y-81182985D01*
X83015726Y-81007303D01*
X83142027Y-80803056D01*
X83226055Y-80578094D01*
X83166862Y-80389000D01*
X82167000Y-80389000D01*
X82167000Y-80409000D01*
X81917000Y-80409000D01*
X81917000Y-80389000D01*
X81897000Y-80389000D01*
X81897000Y-80139000D01*
X81917000Y-80139000D01*
X81917000Y-79139677D01*
X82167000Y-79139677D01*
X82167000Y-80139000D01*
X83166862Y-80139000D01*
X83226055Y-79949906D01*
X83397945Y-79949906D01*
X83457138Y-80139000D01*
X84457000Y-80139000D01*
X84457000Y-79139677D01*
X84707000Y-79139677D01*
X84707000Y-80139000D01*
X85706862Y-80139000D01*
X85766055Y-79949906D01*
X85937945Y-79949906D01*
X85997138Y-80139000D01*
X86997000Y-80139000D01*
X86997000Y-79139677D01*
X87247000Y-79139677D01*
X87247000Y-80139000D01*
X88246862Y-80139000D01*
X88306055Y-79949906D01*
X88477945Y-79949906D01*
X88537138Y-80139000D01*
X89537000Y-80139000D01*
X89537000Y-79139677D01*
X89787000Y-79139677D01*
X89787000Y-80139000D01*
X90786862Y-80139000D01*
X90846055Y-79949906D01*
X91017945Y-79949906D01*
X91077138Y-80139000D01*
X92077000Y-80139000D01*
X92077000Y-79139677D01*
X91887907Y-79079951D01*
X91805333Y-79104993D01*
X91586844Y-79204649D01*
X91391995Y-79345015D01*
X91228274Y-79520697D01*
X91101973Y-79724944D01*
X91017945Y-79949906D01*
X90846055Y-79949906D01*
X90762027Y-79724944D01*
X90635726Y-79520697D01*
X90472005Y-79345015D01*
X90277156Y-79204649D01*
X90058667Y-79104993D01*
X89976093Y-79079951D01*
X89787000Y-79139677D01*
X89537000Y-79139677D01*
X89347907Y-79079951D01*
X89265333Y-79104993D01*
X89046844Y-79204649D01*
X88851995Y-79345015D01*
X88688274Y-79520697D01*
X88561973Y-79724944D01*
X88477945Y-79949906D01*
X88306055Y-79949906D01*
X88222027Y-79724944D01*
X88095726Y-79520697D01*
X87932005Y-79345015D01*
X87737156Y-79204649D01*
X87518667Y-79104993D01*
X87436093Y-79079951D01*
X87247000Y-79139677D01*
X86997000Y-79139677D01*
X86807907Y-79079951D01*
X86725333Y-79104993D01*
X86506844Y-79204649D01*
X86311995Y-79345015D01*
X86148274Y-79520697D01*
X86021973Y-79724944D01*
X85937945Y-79949906D01*
X85766055Y-79949906D01*
X85682027Y-79724944D01*
X85555726Y-79520697D01*
X85392005Y-79345015D01*
X85197156Y-79204649D01*
X84978667Y-79104993D01*
X84896093Y-79079951D01*
X84707000Y-79139677D01*
X84457000Y-79139677D01*
X84267907Y-79079951D01*
X84185333Y-79104993D01*
X83966844Y-79204649D01*
X83771995Y-79345015D01*
X83608274Y-79520697D01*
X83481973Y-79724944D01*
X83397945Y-79949906D01*
X83226055Y-79949906D01*
X83142027Y-79724944D01*
X83015726Y-79520697D01*
X82852005Y-79345015D01*
X82657156Y-79204649D01*
X82438667Y-79104993D01*
X82356093Y-79079951D01*
X82167000Y-79139677D01*
X81917000Y-79139677D01*
X81727907Y-79079951D01*
X81645333Y-79104993D01*
X81426844Y-79204649D01*
X81231995Y-79345015D01*
X81068274Y-79520697D01*
X80989519Y-79648055D01*
X80928763Y-79501379D01*
X80752569Y-79237685D01*
X80528315Y-79013431D01*
X80264621Y-78837237D01*
X79971620Y-78715871D01*
X79660571Y-78654000D01*
X79343429Y-78654000D01*
X79032380Y-78715871D01*
X78739379Y-78837237D01*
X78475685Y-79013431D01*
X78251431Y-79237685D01*
X78075237Y-79501379D01*
X77953871Y-79794380D01*
X77892000Y-80105429D01*
X77892000Y-80422571D01*
X77953871Y-80733620D01*
X78075237Y-81026621D01*
X78251431Y-81290315D01*
X78261883Y-81300767D01*
X78227724Y-81319026D01*
X78111999Y-81413999D01*
X78017026Y-81529724D01*
X77946454Y-81661753D01*
X77902997Y-81805014D01*
X77888323Y-81954000D01*
X77888323Y-83654000D01*
X77902997Y-83802986D01*
X77946454Y-83946247D01*
X78017026Y-84078276D01*
X78111999Y-84194001D01*
X78227724Y-84288974D01*
X78359753Y-84359546D01*
X78503014Y-84403003D01*
X78642000Y-84416692D01*
X78642000Y-84909761D01*
X78637840Y-84952000D01*
X78642000Y-84994239D01*
X78642000Y-84994245D01*
X78649185Y-85067191D01*
X78654444Y-85120589D01*
X78668498Y-85166918D01*
X78703619Y-85282699D01*
X78783476Y-85432101D01*
X78890946Y-85563054D01*
X78923765Y-85589988D01*
X80244866Y-86911090D01*
X80155944Y-86958620D01*
X80019004Y-87071004D01*
X79906620Y-87207944D01*
X79823111Y-87364178D01*
X79771687Y-87533701D01*
X79758361Y-87669000D01*
X79150546Y-87669000D01*
X79108300Y-87664839D01*
X78939710Y-87681444D01*
X78777599Y-87730619D01*
X78773044Y-87733054D01*
X78628198Y-87810476D01*
X78497246Y-87917946D01*
X78470316Y-87950760D01*
X77507755Y-88913322D01*
X77474936Y-88940256D01*
X77367466Y-89071209D01*
X77287609Y-89220611D01*
X77256941Y-89321711D01*
X77243326Y-89366596D01*
X77238434Y-89382722D01*
X77225990Y-89509065D01*
X77225990Y-89509071D01*
X77221830Y-89551310D01*
X77225990Y-89593549D01*
X77225991Y-90705743D01*
X77225989Y-91525442D01*
X77225989Y-92229750D01*
X77221829Y-92271989D01*
X77225989Y-92314228D01*
X77225989Y-92314234D01*
X77238433Y-92440577D01*
X77287608Y-92602688D01*
X77367465Y-92752090D01*
X77474935Y-92883043D01*
X77507754Y-92909977D01*
X78926323Y-94328547D01*
X78926323Y-94329000D01*
X78943591Y-94504323D01*
X78994731Y-94672909D01*
X79011349Y-94704000D01*
X78994731Y-94735091D01*
X78943591Y-94903677D01*
X78926323Y-95079000D01*
X78926323Y-95349000D01*
X78943591Y-95524323D01*
X78994731Y-95692909D01*
X79009211Y-95720000D01*
X78994731Y-95747091D01*
X78943591Y-95915677D01*
X78926323Y-96091000D01*
X78926323Y-96361000D01*
X78943591Y-96536323D01*
X78994731Y-96704909D01*
X79011349Y-96736000D01*
X78994731Y-96767091D01*
X78943591Y-96935677D01*
X78926323Y-97111000D01*
X78926323Y-97381000D01*
X78943591Y-97556323D01*
X78994731Y-97724909D01*
X79077777Y-97880278D01*
X79189539Y-98016461D01*
X79325722Y-98128223D01*
X79481091Y-98211269D01*
X79649677Y-98262409D01*
X79825000Y-98279677D01*
X80195000Y-98279677D01*
X80370323Y-98262409D01*
X80538909Y-98211269D01*
X80694278Y-98128223D01*
X80721357Y-98106000D01*
X84309261Y-98106000D01*
X84351500Y-98110160D01*
X84393739Y-98106000D01*
X84393746Y-98106000D01*
X84520089Y-98093556D01*
X84682200Y-98044381D01*
X84831602Y-97964524D01*
X84962554Y-97857054D01*
X84989488Y-97824235D01*
X85359046Y-97454677D01*
X85562660Y-97454677D01*
X85559850Y-97483208D01*
X85564010Y-97525447D01*
X85564010Y-97525453D01*
X85570875Y-97595148D01*
X85575960Y-97646776D01*
X85576454Y-97651796D01*
X85625629Y-97813907D01*
X85705486Y-97963309D01*
X85812956Y-98094262D01*
X85845775Y-98121196D01*
X85924579Y-98200000D01*
X83862239Y-98200000D01*
X83820000Y-98195840D01*
X83777761Y-98200000D01*
X83777754Y-98200000D01*
X83666975Y-98210911D01*
X83651410Y-98212444D01*
X83602235Y-98227361D01*
X83489300Y-98261619D01*
X83339898Y-98341476D01*
X83330065Y-98349546D01*
X83254160Y-98411840D01*
X83208946Y-98448946D01*
X83182017Y-98481759D01*
X81209760Y-100454017D01*
X81176947Y-100480946D01*
X81150018Y-100513759D01*
X81150016Y-100513761D01*
X81069477Y-100611898D01*
X80989620Y-100761300D01*
X80940444Y-100923411D01*
X80923840Y-101092000D01*
X80928001Y-101134248D01*
X80928000Y-103335754D01*
X80928000Y-103335755D01*
X80928001Y-105075752D01*
X80923840Y-105118000D01*
X80940444Y-105286589D01*
X80989620Y-105448700D01*
X81069477Y-105598102D01*
X81176947Y-105729054D01*
X81209760Y-105755983D01*
X81808305Y-106354528D01*
X81804603Y-106366731D01*
X81790000Y-106515000D01*
X81790000Y-112230000D01*
X81804603Y-112378269D01*
X81847852Y-112520839D01*
X81918083Y-112652233D01*
X82012599Y-112767401D01*
X82425000Y-113179802D01*
X82425000Y-119468836D01*
X82420833Y-119466052D01*
X82177697Y-119365342D01*
X81919584Y-119314000D01*
X81656416Y-119314000D01*
X81398303Y-119365342D01*
X81155167Y-119466052D01*
X80936350Y-119612261D01*
X80750261Y-119798350D01*
X80604052Y-120017167D01*
X80503342Y-120260303D01*
X80452000Y-120518416D01*
X80452000Y-120781584D01*
X80503342Y-121039697D01*
X80604052Y-121282833D01*
X80750261Y-121501650D01*
X80936350Y-121687739D01*
X81155167Y-121833948D01*
X81398303Y-121934658D01*
X81656416Y-121986000D01*
X81919584Y-121986000D01*
X82177697Y-121934658D01*
X82420833Y-121833948D01*
X82432038Y-121826461D01*
X82439603Y-121903269D01*
X82482852Y-122045839D01*
X82553083Y-122177233D01*
X82647599Y-122292401D01*
X82762767Y-122386917D01*
X82894161Y-122457148D01*
X83036731Y-122500397D01*
X83185000Y-122515000D01*
X95885000Y-122515000D01*
X96033269Y-122500397D01*
X96175839Y-122457148D01*
X96307233Y-122386917D01*
X96422401Y-122292401D01*
X96516917Y-122177233D01*
X96587148Y-122045839D01*
X96630397Y-121903269D01*
X96645000Y-121755000D01*
X96645000Y-111595000D01*
X96630397Y-111446731D01*
X96587148Y-111304161D01*
X96516917Y-111172767D01*
X96422401Y-111057599D01*
X96041769Y-110676967D01*
X96125000Y-110258540D01*
X96125000Y-109741460D01*
X96024122Y-109234316D01*
X95826245Y-108756596D01*
X95538970Y-108326660D01*
X95173340Y-107961030D01*
X94743404Y-107673755D01*
X94265684Y-107475878D01*
X93758540Y-107375000D01*
X93241460Y-107375000D01*
X92823033Y-107458231D01*
X91342401Y-105977599D01*
X91227233Y-105883083D01*
X91095839Y-105812852D01*
X90953269Y-105769603D01*
X90805000Y-105755000D01*
X83641223Y-105755000D01*
X82648000Y-104761777D01*
X82648000Y-104406140D01*
X84200637Y-104406140D01*
X84323053Y-104608275D01*
X84585218Y-104733529D01*
X84866781Y-104805231D01*
X85156922Y-104820625D01*
X85444492Y-104779120D01*
X85718439Y-104682310D01*
X85856947Y-104608275D01*
X85979363Y-104406140D01*
X85090000Y-103516777D01*
X84200637Y-104406140D01*
X82648000Y-104406140D01*
X82648000Y-103406922D01*
X83609375Y-103406922D01*
X83650880Y-103694492D01*
X83747690Y-103968439D01*
X83821725Y-104106947D01*
X84023860Y-104229363D01*
X84913223Y-103340000D01*
X85266777Y-103340000D01*
X86156140Y-104229363D01*
X86358275Y-104106947D01*
X86483529Y-103844782D01*
X86555231Y-103563219D01*
X86570625Y-103273078D01*
X86529120Y-102985508D01*
X86432310Y-102711561D01*
X86358275Y-102573053D01*
X86156140Y-102450637D01*
X85266777Y-103340000D01*
X84913223Y-103340000D01*
X84023860Y-102450637D01*
X83821725Y-102573053D01*
X83696471Y-102835218D01*
X83624769Y-103116781D01*
X83609375Y-103406922D01*
X82648000Y-103406922D01*
X82648000Y-102273860D01*
X84200637Y-102273860D01*
X85090000Y-103163223D01*
X85979363Y-102273860D01*
X85856947Y-102071725D01*
X85594782Y-101946471D01*
X85313219Y-101874769D01*
X85023078Y-101859375D01*
X84735508Y-101900880D01*
X84461561Y-101997690D01*
X84323053Y-102071725D01*
X84200637Y-102273860D01*
X82648000Y-102273860D01*
X82648000Y-101448223D01*
X84176224Y-99920000D01*
X90656672Y-99920000D01*
X90666454Y-99952247D01*
X90737026Y-100084276D01*
X90831999Y-100200001D01*
X90947724Y-100294974D01*
X91079753Y-100365546D01*
X91223014Y-100409003D01*
X91372000Y-100423677D01*
X92272000Y-100423677D01*
X92420986Y-100409003D01*
X92564247Y-100365546D01*
X92696276Y-100294974D01*
X92812001Y-100200001D01*
X92906974Y-100084276D01*
X92977546Y-99952247D01*
X93021003Y-99808986D01*
X93035677Y-99660000D01*
X93035677Y-98904000D01*
X93623777Y-98904000D01*
X93908323Y-99188547D01*
X93908323Y-99660000D01*
X93922997Y-99808986D01*
X93966454Y-99952247D01*
X94037026Y-100084276D01*
X94131999Y-100200001D01*
X94247724Y-100294974D01*
X94379753Y-100365546D01*
X94523014Y-100409003D01*
X94672000Y-100423677D01*
X95572000Y-100423677D01*
X95720986Y-100409003D01*
X95864247Y-100365546D01*
X95996276Y-100294974D01*
X96112001Y-100200001D01*
X96206974Y-100084276D01*
X96277546Y-99952247D01*
X96321003Y-99808986D01*
X96335677Y-99660000D01*
X96335677Y-98460000D01*
X96321003Y-98311014D01*
X96277546Y-98167753D01*
X96206974Y-98035724D01*
X96112001Y-97919999D01*
X95996276Y-97825026D01*
X95982000Y-97817395D01*
X95982000Y-96692677D01*
X96008000Y-96692677D01*
X96200881Y-96673680D01*
X96386350Y-96617418D01*
X96557280Y-96526055D01*
X96707100Y-96403100D01*
X96759706Y-96339000D01*
X97083261Y-96339000D01*
X97125500Y-96343160D01*
X97167739Y-96339000D01*
X97167746Y-96339000D01*
X97294089Y-96326556D01*
X97456200Y-96277381D01*
X97605602Y-96197524D01*
X97712643Y-96109677D01*
X98695000Y-96109677D01*
X98843986Y-96095003D01*
X98987247Y-96051546D01*
X99119276Y-95980974D01*
X99235001Y-95886001D01*
X99329974Y-95770276D01*
X99400546Y-95638247D01*
X99444003Y-95494986D01*
X99458677Y-95346000D01*
X99458677Y-94446000D01*
X99444003Y-94297014D01*
X99400546Y-94153753D01*
X99329974Y-94021724D01*
X99235001Y-93905999D01*
X99119276Y-93811026D01*
X98987247Y-93740454D01*
X98843986Y-93696997D01*
X98695000Y-93682323D01*
X97395000Y-93682323D01*
X97246014Y-93696997D01*
X97102753Y-93740454D01*
X96970724Y-93811026D01*
X96854999Y-93905999D01*
X96760026Y-94021724D01*
X96689454Y-94153753D01*
X96645997Y-94297014D01*
X96631323Y-94446000D01*
X96631323Y-94492711D01*
X96557280Y-94431945D01*
X96386350Y-94340582D01*
X96200881Y-94284320D01*
X96008000Y-94265323D01*
X95508000Y-94265323D01*
X95315119Y-94284320D01*
X95129650Y-94340582D01*
X94958720Y-94431945D01*
X94808900Y-94554900D01*
X94685945Y-94704720D01*
X94594582Y-94875650D01*
X94538320Y-95061119D01*
X94519323Y-95254000D01*
X94519323Y-95497072D01*
X94510947Y-95503946D01*
X94484018Y-95536759D01*
X94484016Y-95536761D01*
X94403477Y-95634898D01*
X94323620Y-95784300D01*
X94274444Y-95946411D01*
X94257840Y-96115000D01*
X94262001Y-96157249D01*
X94262001Y-97230846D01*
X94148589Y-97196444D01*
X94022246Y-97184000D01*
X94022239Y-97184000D01*
X93980000Y-97179840D01*
X93937761Y-97184000D01*
X93386132Y-97184000D01*
X93406931Y-97166931D01*
X93529108Y-97018057D01*
X93619894Y-96848209D01*
X93675800Y-96663912D01*
X93694677Y-96472250D01*
X93694677Y-96034750D01*
X93675800Y-95843088D01*
X93619894Y-95658791D01*
X93529108Y-95488943D01*
X93510279Y-95466000D01*
X93529108Y-95443057D01*
X93619894Y-95273209D01*
X93675800Y-95088912D01*
X93694677Y-94897250D01*
X93694677Y-94459750D01*
X93689881Y-94411055D01*
X93818112Y-94342514D01*
X93949064Y-94235044D01*
X93975998Y-94202225D01*
X94920091Y-93258132D01*
X95060191Y-93230265D01*
X95253098Y-93150360D01*
X95426711Y-93034356D01*
X95574356Y-92886711D01*
X95661910Y-92755677D01*
X95928000Y-92755677D01*
X96104299Y-92738313D01*
X96273822Y-92686889D01*
X96430056Y-92603380D01*
X96468293Y-92572000D01*
X96669359Y-92572000D01*
X96689454Y-92638247D01*
X96760026Y-92770276D01*
X96854999Y-92886001D01*
X96970724Y-92980974D01*
X97102753Y-93051546D01*
X97246014Y-93095003D01*
X97395000Y-93109677D01*
X98695000Y-93109677D01*
X98843986Y-93095003D01*
X98987247Y-93051546D01*
X99119276Y-92980974D01*
X99235001Y-92886001D01*
X99329974Y-92770276D01*
X99337605Y-92756000D01*
X104571249Y-92756000D01*
X105779604Y-93964355D01*
X105807471Y-94104455D01*
X105887376Y-94297362D01*
X106003380Y-94470975D01*
X106151025Y-94618620D01*
X106324638Y-94734624D01*
X106517545Y-94814529D01*
X106722335Y-94855264D01*
X106931137Y-94855264D01*
X107042285Y-94833155D01*
X106986731Y-94937091D01*
X106935591Y-95105677D01*
X106918323Y-95281000D01*
X106918323Y-95283989D01*
X104193558Y-95283989D01*
X104168712Y-95281542D01*
X104141276Y-95259026D01*
X104009247Y-95188454D01*
X103865986Y-95144997D01*
X103717000Y-95130323D01*
X102817000Y-95130323D01*
X102668014Y-95144997D01*
X102524753Y-95188454D01*
X102392724Y-95259026D01*
X102276999Y-95353999D01*
X102182026Y-95469724D01*
X102111454Y-95601753D01*
X102067997Y-95745014D01*
X102053323Y-95894000D01*
X102053323Y-96694000D01*
X102067997Y-96842986D01*
X102111454Y-96986247D01*
X102182026Y-97118276D01*
X102276999Y-97234001D01*
X102289183Y-97244000D01*
X102276999Y-97253999D01*
X102182026Y-97369724D01*
X102111454Y-97501753D01*
X102067997Y-97645014D01*
X102053323Y-97794000D01*
X102053323Y-98594000D01*
X102067997Y-98742986D01*
X102111454Y-98886247D01*
X102182026Y-99018276D01*
X102276999Y-99134001D01*
X102392724Y-99228974D01*
X102524753Y-99299546D01*
X102668014Y-99343003D01*
X102817000Y-99357677D01*
X103717000Y-99357677D01*
X103865986Y-99343003D01*
X104009247Y-99299546D01*
X104141276Y-99228974D01*
X104257001Y-99134001D01*
X104351974Y-99018276D01*
X104422546Y-98886247D01*
X104466003Y-98742986D01*
X104480677Y-98594000D01*
X104480677Y-97794000D01*
X104466003Y-97645014D01*
X104458138Y-97619086D01*
X104673225Y-97403999D01*
X105723323Y-97403999D01*
X105723323Y-97404000D01*
X105741071Y-97584200D01*
X105793634Y-97757476D01*
X105878991Y-97917167D01*
X105993862Y-98057138D01*
X106133833Y-98172009D01*
X106293524Y-98257366D01*
X106466800Y-98309929D01*
X106647000Y-98327677D01*
X106881408Y-98327677D01*
X106878323Y-98359000D01*
X106878323Y-98669000D01*
X106895975Y-98848225D01*
X106948253Y-99020562D01*
X107033148Y-99179390D01*
X107147397Y-99318603D01*
X107286610Y-99432852D01*
X107445438Y-99517747D01*
X107617775Y-99570025D01*
X107797000Y-99587677D01*
X107866954Y-99587677D01*
X109213015Y-100933739D01*
X109239946Y-100966554D01*
X109370898Y-101074024D01*
X109520300Y-101153881D01*
X109606950Y-101180165D01*
X109682409Y-101203056D01*
X109713538Y-101206122D01*
X109808754Y-101215500D01*
X109808760Y-101215500D01*
X109850999Y-101219660D01*
X109893238Y-101215500D01*
X120014277Y-101215500D01*
X120806001Y-102007225D01*
X120806000Y-106565188D01*
X119176189Y-108195000D01*
X117680224Y-108195000D01*
X117268677Y-107783454D01*
X117268677Y-106136000D01*
X117251121Y-105957750D01*
X117199127Y-105786351D01*
X117114695Y-105628388D01*
X117001067Y-105489933D01*
X116862612Y-105376305D01*
X116704649Y-105291873D01*
X116533250Y-105239879D01*
X116355000Y-105222323D01*
X116055000Y-105222323D01*
X115876750Y-105239879D01*
X115705351Y-105291873D01*
X115547388Y-105376305D01*
X115408933Y-105489933D01*
X115295305Y-105628388D01*
X115210873Y-105786351D01*
X115158879Y-105957750D01*
X115141323Y-106136000D01*
X115141323Y-107786000D01*
X115158879Y-107964250D01*
X115210873Y-108135649D01*
X115242596Y-108195000D01*
X111965224Y-108195000D01*
X111553677Y-107783454D01*
X111553677Y-106136000D01*
X111536121Y-105957750D01*
X111484127Y-105786351D01*
X111399695Y-105628388D01*
X111286067Y-105489933D01*
X111147612Y-105376305D01*
X110989649Y-105291873D01*
X110818250Y-105239879D01*
X110640000Y-105222323D01*
X110340000Y-105222323D01*
X110161750Y-105239879D01*
X109990351Y-105291873D01*
X109832388Y-105376305D01*
X109693933Y-105489933D01*
X109580305Y-105628388D01*
X109495873Y-105786351D01*
X109443879Y-105957750D01*
X109426323Y-106136000D01*
X109426323Y-107786000D01*
X109443879Y-107964250D01*
X109495873Y-108135649D01*
X109580305Y-108293612D01*
X109693933Y-108432067D01*
X109832388Y-108545695D01*
X109942129Y-108604352D01*
X110167777Y-108830000D01*
X106377224Y-108830000D01*
X105330677Y-107783454D01*
X105330677Y-106136000D01*
X105313121Y-105957750D01*
X105261127Y-105786351D01*
X105176695Y-105628388D01*
X105063067Y-105489933D01*
X104924612Y-105376305D01*
X104766649Y-105291873D01*
X104595250Y-105239879D01*
X104417000Y-105222323D01*
X104117000Y-105222323D01*
X103938750Y-105239879D01*
X103767351Y-105291873D01*
X103609388Y-105376305D01*
X103470933Y-105489933D01*
X103357305Y-105628388D01*
X103272873Y-105786351D01*
X103220879Y-105957750D01*
X103203323Y-106136000D01*
X103203323Y-107786000D01*
X103220879Y-107964250D01*
X103272873Y-108135649D01*
X103357305Y-108293612D01*
X103470933Y-108432067D01*
X103609388Y-108545695D01*
X103719129Y-108604352D01*
X103944777Y-108830000D01*
X100789224Y-108830000D01*
X99742677Y-107783454D01*
X99742677Y-106136000D01*
X99725121Y-105957750D01*
X99673127Y-105786351D01*
X99588695Y-105628388D01*
X99475067Y-105489933D01*
X99336612Y-105376305D01*
X99178649Y-105291873D01*
X99007250Y-105239879D01*
X98829000Y-105222323D01*
X98529000Y-105222323D01*
X98350750Y-105239879D01*
X98179351Y-105291873D01*
X98021388Y-105376305D01*
X97882933Y-105489933D01*
X97769305Y-105628388D01*
X97684873Y-105786351D01*
X97632879Y-105957750D01*
X97615323Y-106136000D01*
X97615323Y-107786000D01*
X97632879Y-107964250D01*
X97684873Y-108135649D01*
X97769305Y-108293612D01*
X97882933Y-108432067D01*
X98021388Y-108545695D01*
X98131129Y-108604352D01*
X99091776Y-109565000D01*
X97790000Y-109565000D01*
X97641731Y-109579603D01*
X97499161Y-109622852D01*
X97367767Y-109693083D01*
X97252599Y-109787599D01*
X97158083Y-109902767D01*
X97087852Y-110034161D01*
X97044603Y-110176731D01*
X97030000Y-110325000D01*
X97030000Y-121755000D01*
X97044603Y-121903269D01*
X97087852Y-122045839D01*
X97158083Y-122177233D01*
X97252599Y-122292401D01*
X97367767Y-122386917D01*
X97499161Y-122457148D01*
X97641731Y-122500397D01*
X97790000Y-122515000D01*
X120650000Y-122515000D01*
X120798269Y-122500397D01*
X120940839Y-122457148D01*
X121072233Y-122386917D01*
X121187401Y-122292401D01*
X121281917Y-122177233D01*
X121352148Y-122045839D01*
X121395397Y-121903269D01*
X121410000Y-121755000D01*
X121410000Y-111596968D01*
X121461030Y-111673340D01*
X121826660Y-112038970D01*
X122256596Y-112326245D01*
X122734316Y-112524122D01*
X123241460Y-112625000D01*
X123758540Y-112625000D01*
X124265684Y-112524122D01*
X124743404Y-112326245D01*
X125173340Y-112038970D01*
X125415000Y-111797310D01*
X125415000Y-123661611D01*
X125378645Y-124032381D01*
X125282116Y-124352100D01*
X125125325Y-124646983D01*
X124914244Y-124905794D01*
X124656913Y-125118677D01*
X124363133Y-125277524D01*
X124044091Y-125376284D01*
X123675729Y-125415000D01*
X78738389Y-125415000D01*
X78367619Y-125378645D01*
X78047900Y-125282116D01*
X77753017Y-125125325D01*
X77494206Y-124914244D01*
X77281323Y-124656913D01*
X77122476Y-124363133D01*
X77023716Y-124044091D01*
X76985000Y-123675729D01*
X76985000Y-122841806D01*
X77515000Y-122841806D01*
X77515000Y-123208194D01*
X77586479Y-123567542D01*
X77726689Y-123906041D01*
X77930243Y-124210681D01*
X78189319Y-124469757D01*
X78493959Y-124673311D01*
X78832458Y-124813521D01*
X79191806Y-124885000D01*
X79558194Y-124885000D01*
X79917542Y-124813521D01*
X80256041Y-124673311D01*
X80560681Y-124469757D01*
X80819757Y-124210681D01*
X81023311Y-123906041D01*
X81163521Y-123567542D01*
X81235000Y-123208194D01*
X81235000Y-122841806D01*
X121165000Y-122841806D01*
X121165000Y-123208194D01*
X121236479Y-123567542D01*
X121376689Y-123906041D01*
X121580243Y-124210681D01*
X121839319Y-124469757D01*
X122143959Y-124673311D01*
X122482458Y-124813521D01*
X122841806Y-124885000D01*
X123208194Y-124885000D01*
X123567542Y-124813521D01*
X123906041Y-124673311D01*
X124210681Y-124469757D01*
X124469757Y-124210681D01*
X124673311Y-123906041D01*
X124813521Y-123567542D01*
X124885000Y-123208194D01*
X124885000Y-122841806D01*
X124813521Y-122482458D01*
X124673311Y-122143959D01*
X124469757Y-121839319D01*
X124210681Y-121580243D01*
X123906041Y-121376689D01*
X123567542Y-121236479D01*
X123208194Y-121165000D01*
X122841806Y-121165000D01*
X122482458Y-121236479D01*
X122143959Y-121376689D01*
X121839319Y-121580243D01*
X121580243Y-121839319D01*
X121376689Y-122143959D01*
X121236479Y-122482458D01*
X121165000Y-122841806D01*
X81235000Y-122841806D01*
X81163521Y-122482458D01*
X81023311Y-122143959D01*
X80819757Y-121839319D01*
X80560681Y-121580243D01*
X80256041Y-121376689D01*
X79917542Y-121236479D01*
X79558194Y-121165000D01*
X79191806Y-121165000D01*
X78832458Y-121236479D01*
X78493959Y-121376689D01*
X78189319Y-121580243D01*
X77930243Y-121839319D01*
X77726689Y-122143959D01*
X77586479Y-122482458D01*
X77515000Y-122841806D01*
X76985000Y-122841806D01*
X76985000Y-78738397D01*
X77021355Y-78367618D01*
X77117885Y-78047897D01*
X77274676Y-77753015D01*
X77485758Y-77494203D01*
X77743088Y-77281322D01*
X78036867Y-77122476D01*
X78355908Y-77023717D01*
X78724271Y-76985000D01*
X123661603Y-76985000D01*
X124032382Y-77021355D01*
G37*
G04 #@! TD.AperFunction*
D22*
X116137323Y-97404000D02*
X116155071Y-97584200D01*
X116207634Y-97757476D01*
X116292991Y-97917167D01*
X116407862Y-98057138D01*
X116547833Y-98172009D01*
X116707524Y-98257366D01*
X116880800Y-98309929D01*
X117061000Y-98327677D01*
X117295408Y-98327677D01*
X117292323Y-98359000D01*
X117292323Y-98669000D01*
X117309975Y-98848225D01*
X117362253Y-99020562D01*
X117447148Y-99179390D01*
X117561397Y-99318603D01*
X117700610Y-99432852D01*
X117817817Y-99495500D01*
X110207224Y-99495500D01*
X110069186Y-99357462D01*
X110215986Y-99343003D01*
X110359247Y-99299546D01*
X110491276Y-99228974D01*
X110607001Y-99134001D01*
X110701974Y-99018276D01*
X110772546Y-98886247D01*
X110816003Y-98742986D01*
X110830677Y-98594000D01*
X110830677Y-98325987D01*
X110874753Y-98349546D01*
X111018014Y-98393003D01*
X111167000Y-98407677D01*
X112067000Y-98407677D01*
X112215986Y-98393003D01*
X112359247Y-98349546D01*
X112467323Y-98291777D01*
X112467323Y-98594000D01*
X112481997Y-98742986D01*
X112525454Y-98886247D01*
X112596026Y-99018276D01*
X112690999Y-99134001D01*
X112806724Y-99228974D01*
X112938753Y-99299546D01*
X113082014Y-99343003D01*
X113231000Y-99357677D01*
X114131000Y-99357677D01*
X114279986Y-99343003D01*
X114423247Y-99299546D01*
X114555276Y-99228974D01*
X114671001Y-99134001D01*
X114765974Y-99018276D01*
X114836546Y-98886247D01*
X114880003Y-98742986D01*
X114894677Y-98594000D01*
X114894677Y-97794000D01*
X114880003Y-97645014D01*
X114872138Y-97619086D01*
X115087225Y-97403999D01*
X116137323Y-97403999D01*
X116137323Y-97404000D01*
G04 #@! TA.AperFunction,Conductor*
D21*
G36*
X116137323Y-97404000D02*
G01*
X116155071Y-97584200D01*
X116207634Y-97757476D01*
X116292991Y-97917167D01*
X116407862Y-98057138D01*
X116547833Y-98172009D01*
X116707524Y-98257366D01*
X116880800Y-98309929D01*
X117061000Y-98327677D01*
X117295408Y-98327677D01*
X117292323Y-98359000D01*
X117292323Y-98669000D01*
X117309975Y-98848225D01*
X117362253Y-99020562D01*
X117447148Y-99179390D01*
X117561397Y-99318603D01*
X117700610Y-99432852D01*
X117817817Y-99495500D01*
X110207224Y-99495500D01*
X110069186Y-99357462D01*
X110215986Y-99343003D01*
X110359247Y-99299546D01*
X110491276Y-99228974D01*
X110607001Y-99134001D01*
X110701974Y-99018276D01*
X110772546Y-98886247D01*
X110816003Y-98742986D01*
X110830677Y-98594000D01*
X110830677Y-98325987D01*
X110874753Y-98349546D01*
X111018014Y-98393003D01*
X111167000Y-98407677D01*
X112067000Y-98407677D01*
X112215986Y-98393003D01*
X112359247Y-98349546D01*
X112467323Y-98291777D01*
X112467323Y-98594000D01*
X112481997Y-98742986D01*
X112525454Y-98886247D01*
X112596026Y-99018276D01*
X112690999Y-99134001D01*
X112806724Y-99228974D01*
X112938753Y-99299546D01*
X113082014Y-99343003D01*
X113231000Y-99357677D01*
X114131000Y-99357677D01*
X114279986Y-99343003D01*
X114423247Y-99299546D01*
X114555276Y-99228974D01*
X114671001Y-99134001D01*
X114765974Y-99018276D01*
X114836546Y-98886247D01*
X114880003Y-98742986D01*
X114894677Y-98594000D01*
X114894677Y-97794000D01*
X114880003Y-97645014D01*
X114872138Y-97619086D01*
X115087225Y-97403999D01*
X116137323Y-97403999D01*
X116137323Y-97404000D01*
G37*
G04 #@! TD.AperFunction*
D22*
X109700323Y-94874000D02*
X109717687Y-95050299D01*
X109741962Y-95130323D01*
X109669546Y-95130323D01*
X109426988Y-94887764D01*
X109400054Y-94854946D01*
X109269102Y-94747476D01*
X109244267Y-94734202D01*
X109332869Y-94675000D01*
X109700323Y-94675000D01*
X109700323Y-94874000D01*
G04 #@! TA.AperFunction,Conductor*
D21*
G36*
X109700323Y-94874000D02*
G01*
X109717687Y-95050299D01*
X109741962Y-95130323D01*
X109669546Y-95130323D01*
X109426988Y-94887764D01*
X109400054Y-94854946D01*
X109269102Y-94747476D01*
X109244267Y-94734202D01*
X109332869Y-94675000D01*
X109700323Y-94675000D01*
X109700323Y-94874000D01*
G37*
G04 #@! TD.AperFunction*
D22*
X120020902Y-94754360D02*
X120114323Y-94793056D01*
X120114323Y-94874000D01*
X120131687Y-95050299D01*
X120154577Y-95125759D01*
X120070723Y-95117499D01*
X119840988Y-94887764D01*
X119814054Y-94854946D01*
X119683102Y-94747476D01*
X119547509Y-94675000D01*
X119902131Y-94675000D01*
X120020902Y-94754360D01*
G04 #@! TA.AperFunction,Conductor*
D21*
G36*
X120020902Y-94754360D02*
G01*
X120114323Y-94793056D01*
X120114323Y-94874000D01*
X120131687Y-95050299D01*
X120154577Y-95125759D01*
X120070723Y-95117499D01*
X119840988Y-94887764D01*
X119814054Y-94854946D01*
X119683102Y-94747476D01*
X119547509Y-94675000D01*
X119902131Y-94675000D01*
X120020902Y-94754360D01*
G37*
G04 #@! TD.AperFunction*
D22*
X79754323Y-90160000D02*
X79754323Y-90500000D01*
X79771687Y-90676299D01*
X79823111Y-90845822D01*
X79828017Y-90855000D01*
X79823111Y-90864178D01*
X79771687Y-91033701D01*
X79754323Y-91210000D01*
X79754323Y-91550000D01*
X79771687Y-91726299D01*
X79823111Y-91895822D01*
X79906620Y-92052056D01*
X80019004Y-92188996D01*
X80155944Y-92301380D01*
X80312178Y-92384889D01*
X80481701Y-92436313D01*
X80655176Y-92453399D01*
X80775777Y-92574000D01*
X80366224Y-92574000D01*
X79345999Y-91553776D01*
X79345999Y-90073222D01*
X79380220Y-90039000D01*
X79766241Y-90039000D01*
X79754323Y-90160000D01*
G04 #@! TA.AperFunction,Conductor*
D21*
G36*
X79754323Y-90160000D02*
G01*
X79754323Y-90500000D01*
X79771687Y-90676299D01*
X79823111Y-90845822D01*
X79828017Y-90855000D01*
X79823111Y-90864178D01*
X79771687Y-91033701D01*
X79754323Y-91210000D01*
X79754323Y-91550000D01*
X79771687Y-91726299D01*
X79823111Y-91895822D01*
X79906620Y-92052056D01*
X80019004Y-92188996D01*
X80155944Y-92301380D01*
X80312178Y-92384889D01*
X80481701Y-92436313D01*
X80655176Y-92453399D01*
X80775777Y-92574000D01*
X80366224Y-92574000D01*
X79345999Y-91553776D01*
X79345999Y-90073222D01*
X79380220Y-90039000D01*
X79766241Y-90039000D01*
X79754323Y-90160000D01*
G37*
G04 #@! TD.AperFunction*
D22*
X85246000Y-91665990D02*
X84792213Y-91665990D01*
X84326988Y-91200765D01*
X84300054Y-91167946D01*
X84169102Y-91060476D01*
X84019700Y-90980619D01*
X84012703Y-90978496D01*
X84001082Y-90860505D01*
X83983941Y-90804000D01*
X84001082Y-90747495D01*
X84017677Y-90579000D01*
X84017677Y-90379000D01*
X84001082Y-90210505D01*
X83951934Y-90048485D01*
X83872121Y-89899167D01*
X83814537Y-89829000D01*
X83872121Y-89758833D01*
X83951934Y-89609515D01*
X84001082Y-89447495D01*
X84017677Y-89279000D01*
X84017677Y-89079000D01*
X84001082Y-88910505D01*
X83983941Y-88854000D01*
X84001082Y-88797495D01*
X84017677Y-88629000D01*
X84017677Y-88429000D01*
X84001082Y-88260505D01*
X83983941Y-88204000D01*
X84001082Y-88147495D01*
X84017677Y-87979000D01*
X84017677Y-87779000D01*
X84001082Y-87610505D01*
X83983941Y-87554000D01*
X84001082Y-87497495D01*
X84017677Y-87329000D01*
X84017677Y-87129000D01*
X84001082Y-86960505D01*
X83983941Y-86904000D01*
X84001082Y-86847495D01*
X84006843Y-86789000D01*
X85246001Y-86789000D01*
X85246000Y-91665990D01*
G04 #@! TA.AperFunction,Conductor*
D21*
G36*
X85246000Y-91665990D02*
G01*
X84792213Y-91665990D01*
X84326988Y-91200765D01*
X84300054Y-91167946D01*
X84169102Y-91060476D01*
X84019700Y-90980619D01*
X84012703Y-90978496D01*
X84001082Y-90860505D01*
X83983941Y-90804000D01*
X84001082Y-90747495D01*
X84017677Y-90579000D01*
X84017677Y-90379000D01*
X84001082Y-90210505D01*
X83951934Y-90048485D01*
X83872121Y-89899167D01*
X83814537Y-89829000D01*
X83872121Y-89758833D01*
X83951934Y-89609515D01*
X84001082Y-89447495D01*
X84017677Y-89279000D01*
X84017677Y-89079000D01*
X84001082Y-88910505D01*
X83983941Y-88854000D01*
X84001082Y-88797495D01*
X84017677Y-88629000D01*
X84017677Y-88429000D01*
X84001082Y-88260505D01*
X83983941Y-88204000D01*
X84001082Y-88147495D01*
X84017677Y-87979000D01*
X84017677Y-87779000D01*
X84001082Y-87610505D01*
X83983941Y-87554000D01*
X84001082Y-87497495D01*
X84017677Y-87329000D01*
X84017677Y-87129000D01*
X84001082Y-86960505D01*
X83983941Y-86904000D01*
X84001082Y-86847495D01*
X84006843Y-86789000D01*
X85246001Y-86789000D01*
X85246000Y-91665990D01*
G37*
G04 #@! TD.AperFunction*
D22*
X90622380Y-88132001D02*
X90507925Y-88132001D01*
X90657270Y-87982656D01*
X90690082Y-87955728D01*
X90719092Y-87920380D01*
X90784629Y-87840523D01*
X90797552Y-87824776D01*
X90871902Y-87685677D01*
X91068704Y-87685677D01*
X90622380Y-88132001D01*
G04 #@! TA.AperFunction,Conductor*
D21*
G36*
X90622380Y-88132001D02*
G01*
X90507925Y-88132001D01*
X90657270Y-87982656D01*
X90690082Y-87955728D01*
X90719092Y-87920380D01*
X90784629Y-87840523D01*
X90797552Y-87824776D01*
X90871902Y-87685677D01*
X91068704Y-87685677D01*
X90622380Y-88132001D01*
G37*
G04 #@! TD.AperFunction*
D20*
X120523000Y-121628000D02*
X109347000Y-121628000D01*
X109347000Y-120055386D01*
X110939115Y-120055386D01*
X111065588Y-120297362D01*
X111389195Y-120402276D01*
X111727052Y-120442043D01*
X112066176Y-120415132D01*
X112393532Y-120322579D01*
X112454412Y-120297362D01*
X112580885Y-120055386D01*
X111760000Y-119234502D01*
X110939115Y-120055386D01*
X109347000Y-120055386D01*
X109347000Y-118674052D01*
X110024957Y-118674052D01*
X110051868Y-119013176D01*
X110144421Y-119340532D01*
X110169638Y-119401412D01*
X110411614Y-119527885D01*
X111232498Y-118707000D01*
X112287502Y-118707000D01*
X113108386Y-119527885D01*
X113350362Y-119401412D01*
X113455276Y-119077805D01*
X113495043Y-118739948D01*
X113468132Y-118400824D01*
X113375579Y-118073468D01*
X113350362Y-118012588D01*
X113108386Y-117886115D01*
X112287502Y-118707000D01*
X111232498Y-118707000D01*
X110411614Y-117886115D01*
X110169638Y-118012588D01*
X110064724Y-118336195D01*
X110024957Y-118674052D01*
X109347000Y-118674052D01*
X109347000Y-117358614D01*
X110939115Y-117358614D01*
X111760000Y-118179498D01*
X112580885Y-117358614D01*
X112454412Y-117116638D01*
X112130805Y-117011724D01*
X111792948Y-116971957D01*
X111453824Y-116998868D01*
X111126468Y-117091421D01*
X111065588Y-117116638D01*
X110939115Y-117358614D01*
X109347000Y-117358614D01*
X109347000Y-110452000D01*
X120523000Y-110452000D01*
X120523000Y-121628000D01*
G04 #@! TA.AperFunction,Conductor*
D21*
G36*
X120523000Y-121628000D02*
G01*
X109347000Y-121628000D01*
X109347000Y-120055386D01*
X110939115Y-120055386D01*
X111065588Y-120297362D01*
X111389195Y-120402276D01*
X111727052Y-120442043D01*
X112066176Y-120415132D01*
X112393532Y-120322579D01*
X112454412Y-120297362D01*
X112580885Y-120055386D01*
X111760000Y-119234502D01*
X110939115Y-120055386D01*
X109347000Y-120055386D01*
X109347000Y-118674052D01*
X110024957Y-118674052D01*
X110051868Y-119013176D01*
X110144421Y-119340532D01*
X110169638Y-119401412D01*
X110411614Y-119527885D01*
X111232498Y-118707000D01*
X112287502Y-118707000D01*
X113108386Y-119527885D01*
X113350362Y-119401412D01*
X113455276Y-119077805D01*
X113495043Y-118739948D01*
X113468132Y-118400824D01*
X113375579Y-118073468D01*
X113350362Y-118012588D01*
X113108386Y-117886115D01*
X112287502Y-118707000D01*
X111232498Y-118707000D01*
X110411614Y-117886115D01*
X110169638Y-118012588D01*
X110064724Y-118336195D01*
X110024957Y-118674052D01*
X109347000Y-118674052D01*
X109347000Y-117358614D01*
X110939115Y-117358614D01*
X111760000Y-118179498D01*
X112580885Y-117358614D01*
X112454412Y-117116638D01*
X112130805Y-117011724D01*
X111792948Y-116971957D01*
X111453824Y-116998868D01*
X111126468Y-117091421D01*
X111065588Y-117116638D01*
X110939115Y-117358614D01*
X109347000Y-117358614D01*
X109347000Y-110452000D01*
X120523000Y-110452000D01*
X120523000Y-121628000D01*
G37*
G04 #@! TD.AperFunction*
D20*
X91971943Y-107861549D02*
X91825385Y-107959476D01*
X91459476Y-108325385D01*
X91171983Y-108755649D01*
X90973954Y-109233732D01*
X90873000Y-109741263D01*
X90873000Y-110258737D01*
X90973954Y-110766268D01*
X91171983Y-111244351D01*
X91459476Y-111674615D01*
X91825385Y-112040524D01*
X92255649Y-112328017D01*
X92733732Y-112526046D01*
X93241263Y-112627000D01*
X93758737Y-112627000D01*
X94266268Y-112526046D01*
X94744351Y-112328017D01*
X95174615Y-112040524D01*
X95540524Y-111674615D01*
X95638451Y-111528057D01*
X95758000Y-111647606D01*
X95758000Y-121628000D01*
X83312000Y-121628000D01*
X83312000Y-119913712D01*
X85967893Y-119913712D01*
X86075726Y-120188338D01*
X86382384Y-120339216D01*
X86712585Y-120427369D01*
X87053639Y-120449409D01*
X87392439Y-120404489D01*
X87715966Y-120294336D01*
X87914274Y-120188338D01*
X88022107Y-119913712D01*
X91047893Y-119913712D01*
X91155726Y-120188338D01*
X91462384Y-120339216D01*
X91792585Y-120427369D01*
X92133639Y-120449409D01*
X92472439Y-120404489D01*
X92795966Y-120294336D01*
X92994274Y-120188338D01*
X93102107Y-119913712D01*
X92075000Y-118886605D01*
X91047893Y-119913712D01*
X88022107Y-119913712D01*
X86995000Y-118886605D01*
X85967893Y-119913712D01*
X83312000Y-119913712D01*
X83312000Y-118765639D01*
X85252591Y-118765639D01*
X85297511Y-119104439D01*
X85407664Y-119427966D01*
X85513662Y-119626274D01*
X85788288Y-119734107D01*
X86815395Y-118707000D01*
X87174605Y-118707000D01*
X88201712Y-119734107D01*
X88476338Y-119626274D01*
X88627216Y-119319616D01*
X88715369Y-118989415D01*
X88729830Y-118765639D01*
X90332591Y-118765639D01*
X90377511Y-119104439D01*
X90487664Y-119427966D01*
X90593662Y-119626274D01*
X90868288Y-119734107D01*
X91895395Y-118707000D01*
X92254605Y-118707000D01*
X93281712Y-119734107D01*
X93556338Y-119626274D01*
X93707216Y-119319616D01*
X93795369Y-118989415D01*
X93817409Y-118648361D01*
X93772489Y-118309561D01*
X93662336Y-117986034D01*
X93556338Y-117787726D01*
X93281712Y-117679893D01*
X92254605Y-118707000D01*
X91895395Y-118707000D01*
X90868288Y-117679893D01*
X90593662Y-117787726D01*
X90442784Y-118094384D01*
X90354631Y-118424585D01*
X90332591Y-118765639D01*
X88729830Y-118765639D01*
X88737409Y-118648361D01*
X88692489Y-118309561D01*
X88582336Y-117986034D01*
X88476338Y-117787726D01*
X88201712Y-117679893D01*
X87174605Y-118707000D01*
X86815395Y-118707000D01*
X85788288Y-117679893D01*
X85513662Y-117787726D01*
X85362784Y-118094384D01*
X85274631Y-118424585D01*
X85252591Y-118765639D01*
X83312000Y-118765639D01*
X83312000Y-117500288D01*
X85967893Y-117500288D01*
X86995000Y-118527395D01*
X88022107Y-117500288D01*
X91047893Y-117500288D01*
X92075000Y-118527395D01*
X93102107Y-117500288D01*
X92994274Y-117225662D01*
X92687616Y-117074784D01*
X92357415Y-116986631D01*
X92016361Y-116964591D01*
X91677561Y-117009511D01*
X91354034Y-117119664D01*
X91155726Y-117225662D01*
X91047893Y-117500288D01*
X88022107Y-117500288D01*
X87914274Y-117225662D01*
X87607616Y-117074784D01*
X87277415Y-116986631D01*
X86936361Y-116964591D01*
X86597561Y-117009511D01*
X86274034Y-117119664D01*
X86075726Y-117225662D01*
X85967893Y-117500288D01*
X83312000Y-117500288D01*
X83312000Y-112865000D01*
X83309560Y-112840224D01*
X83302333Y-112816399D01*
X83290597Y-112794443D01*
X83274803Y-112775197D01*
X82677000Y-112177394D01*
X82677000Y-109626712D01*
X84062893Y-109626712D01*
X84170726Y-109901338D01*
X84477384Y-110052216D01*
X84807585Y-110140369D01*
X85148639Y-110162409D01*
X85487439Y-110117489D01*
X85810966Y-110007336D01*
X86009274Y-109901338D01*
X86117107Y-109626712D01*
X85090000Y-108599605D01*
X84062893Y-109626712D01*
X82677000Y-109626712D01*
X82677000Y-108478639D01*
X83347591Y-108478639D01*
X83392511Y-108817439D01*
X83502664Y-109140966D01*
X83608662Y-109339274D01*
X83883288Y-109447107D01*
X84910395Y-108420000D01*
X85269605Y-108420000D01*
X86296712Y-109447107D01*
X86571338Y-109339274D01*
X86722216Y-109032616D01*
X86810369Y-108702415D01*
X86832409Y-108361361D01*
X86787489Y-108022561D01*
X86677336Y-107699034D01*
X86571338Y-107500726D01*
X86296712Y-107392893D01*
X85269605Y-108420000D01*
X84910395Y-108420000D01*
X83883288Y-107392893D01*
X83608662Y-107500726D01*
X83457784Y-107807384D01*
X83369631Y-108137585D01*
X83347591Y-108478639D01*
X82677000Y-108478639D01*
X82677000Y-107213288D01*
X84062893Y-107213288D01*
X85090000Y-108240395D01*
X86117107Y-107213288D01*
X86009274Y-106938662D01*
X85702616Y-106787784D01*
X85372415Y-106699631D01*
X85031361Y-106677591D01*
X84692561Y-106722511D01*
X84369034Y-106832664D01*
X84170726Y-106938662D01*
X84062893Y-107213288D01*
X82677000Y-107213288D01*
X82677000Y-106642000D01*
X90752394Y-106642000D01*
X91971943Y-107861549D01*
G04 #@! TA.AperFunction,Conductor*
D21*
G36*
X91971943Y-107861549D02*
G01*
X91825385Y-107959476D01*
X91459476Y-108325385D01*
X91171983Y-108755649D01*
X90973954Y-109233732D01*
X90873000Y-109741263D01*
X90873000Y-110258737D01*
X90973954Y-110766268D01*
X91171983Y-111244351D01*
X91459476Y-111674615D01*
X91825385Y-112040524D01*
X92255649Y-112328017D01*
X92733732Y-112526046D01*
X93241263Y-112627000D01*
X93758737Y-112627000D01*
X94266268Y-112526046D01*
X94744351Y-112328017D01*
X95174615Y-112040524D01*
X95540524Y-111674615D01*
X95638451Y-111528057D01*
X95758000Y-111647606D01*
X95758000Y-121628000D01*
X83312000Y-121628000D01*
X83312000Y-119913712D01*
X85967893Y-119913712D01*
X86075726Y-120188338D01*
X86382384Y-120339216D01*
X86712585Y-120427369D01*
X87053639Y-120449409D01*
X87392439Y-120404489D01*
X87715966Y-120294336D01*
X87914274Y-120188338D01*
X88022107Y-119913712D01*
X91047893Y-119913712D01*
X91155726Y-120188338D01*
X91462384Y-120339216D01*
X91792585Y-120427369D01*
X92133639Y-120449409D01*
X92472439Y-120404489D01*
X92795966Y-120294336D01*
X92994274Y-120188338D01*
X93102107Y-119913712D01*
X92075000Y-118886605D01*
X91047893Y-119913712D01*
X88022107Y-119913712D01*
X86995000Y-118886605D01*
X85967893Y-119913712D01*
X83312000Y-119913712D01*
X83312000Y-118765639D01*
X85252591Y-118765639D01*
X85297511Y-119104439D01*
X85407664Y-119427966D01*
X85513662Y-119626274D01*
X85788288Y-119734107D01*
X86815395Y-118707000D01*
X87174605Y-118707000D01*
X88201712Y-119734107D01*
X88476338Y-119626274D01*
X88627216Y-119319616D01*
X88715369Y-118989415D01*
X88729830Y-118765639D01*
X90332591Y-118765639D01*
X90377511Y-119104439D01*
X90487664Y-119427966D01*
X90593662Y-119626274D01*
X90868288Y-119734107D01*
X91895395Y-118707000D01*
X92254605Y-118707000D01*
X93281712Y-119734107D01*
X93556338Y-119626274D01*
X93707216Y-119319616D01*
X93795369Y-118989415D01*
X93817409Y-118648361D01*
X93772489Y-118309561D01*
X93662336Y-117986034D01*
X93556338Y-117787726D01*
X93281712Y-117679893D01*
X92254605Y-118707000D01*
X91895395Y-118707000D01*
X90868288Y-117679893D01*
X90593662Y-117787726D01*
X90442784Y-118094384D01*
X90354631Y-118424585D01*
X90332591Y-118765639D01*
X88729830Y-118765639D01*
X88737409Y-118648361D01*
X88692489Y-118309561D01*
X88582336Y-117986034D01*
X88476338Y-117787726D01*
X88201712Y-117679893D01*
X87174605Y-118707000D01*
X86815395Y-118707000D01*
X85788288Y-117679893D01*
X85513662Y-117787726D01*
X85362784Y-118094384D01*
X85274631Y-118424585D01*
X85252591Y-118765639D01*
X83312000Y-118765639D01*
X83312000Y-117500288D01*
X85967893Y-117500288D01*
X86995000Y-118527395D01*
X88022107Y-117500288D01*
X91047893Y-117500288D01*
X92075000Y-118527395D01*
X93102107Y-117500288D01*
X92994274Y-117225662D01*
X92687616Y-117074784D01*
X92357415Y-116986631D01*
X92016361Y-116964591D01*
X91677561Y-117009511D01*
X91354034Y-117119664D01*
X91155726Y-117225662D01*
X91047893Y-117500288D01*
X88022107Y-117500288D01*
X87914274Y-117225662D01*
X87607616Y-117074784D01*
X87277415Y-116986631D01*
X86936361Y-116964591D01*
X86597561Y-117009511D01*
X86274034Y-117119664D01*
X86075726Y-117225662D01*
X85967893Y-117500288D01*
X83312000Y-117500288D01*
X83312000Y-112865000D01*
X83309560Y-112840224D01*
X83302333Y-112816399D01*
X83290597Y-112794443D01*
X83274803Y-112775197D01*
X82677000Y-112177394D01*
X82677000Y-109626712D01*
X84062893Y-109626712D01*
X84170726Y-109901338D01*
X84477384Y-110052216D01*
X84807585Y-110140369D01*
X85148639Y-110162409D01*
X85487439Y-110117489D01*
X85810966Y-110007336D01*
X86009274Y-109901338D01*
X86117107Y-109626712D01*
X85090000Y-108599605D01*
X84062893Y-109626712D01*
X82677000Y-109626712D01*
X82677000Y-108478639D01*
X83347591Y-108478639D01*
X83392511Y-108817439D01*
X83502664Y-109140966D01*
X83608662Y-109339274D01*
X83883288Y-109447107D01*
X84910395Y-108420000D01*
X85269605Y-108420000D01*
X86296712Y-109447107D01*
X86571338Y-109339274D01*
X86722216Y-109032616D01*
X86810369Y-108702415D01*
X86832409Y-108361361D01*
X86787489Y-108022561D01*
X86677336Y-107699034D01*
X86571338Y-107500726D01*
X86296712Y-107392893D01*
X85269605Y-108420000D01*
X84910395Y-108420000D01*
X83883288Y-107392893D01*
X83608662Y-107500726D01*
X83457784Y-107807384D01*
X83369631Y-108137585D01*
X83347591Y-108478639D01*
X82677000Y-108478639D01*
X82677000Y-107213288D01*
X84062893Y-107213288D01*
X85090000Y-108240395D01*
X86117107Y-107213288D01*
X86009274Y-106938662D01*
X85702616Y-106787784D01*
X85372415Y-106699631D01*
X85031361Y-106677591D01*
X84692561Y-106722511D01*
X84369034Y-106832664D01*
X84170726Y-106938662D01*
X84062893Y-107213288D01*
X82677000Y-107213288D01*
X82677000Y-106642000D01*
X90752394Y-106642000D01*
X91971943Y-107861549D01*
G37*
G04 #@! TD.AperFunction*
M02*
