G04 #@! TF.GenerationSoftware,KiCad,Pcbnew,5.1.10*
G04 #@! TF.CreationDate,2022-01-01T14:55:10+02:00*
G04 #@! TF.ProjectId,pwm-controller,70776d2d-636f-46e7-9472-6f6c6c65722e,rev?*
G04 #@! TF.SameCoordinates,Original*
G04 #@! TF.FileFunction,Copper,L4,Bot*
G04 #@! TF.FilePolarity,Positive*
%FSLAX46Y46*%
G04 Gerber Fmt 4.6, Leading zero omitted, Abs format (unit mm)*
G04 Created by KiCad (PCBNEW 5.1.10) date 2022-01-01 14:55:10*
%MOMM*%
%LPD*%
G01*
G04 APERTURE LIST*
G04 #@! TA.AperFunction,ComponentPad*
%ADD10C,2.200000*%
G04 #@! TD*
G04 #@! TA.AperFunction,ComponentPad*
%ADD11C,1.500000*%
G04 #@! TD*
G04 #@! TA.AperFunction,ComponentPad*
%ADD12O,1.700000X1.700000*%
G04 #@! TD*
G04 #@! TA.AperFunction,ComponentPad*
%ADD13R,1.700000X1.700000*%
G04 #@! TD*
G04 #@! TA.AperFunction,ComponentPad*
%ADD14C,1.800000*%
G04 #@! TD*
G04 #@! TA.AperFunction,ViaPad*
%ADD15C,0.600000*%
G04 #@! TD*
G04 #@! TA.AperFunction,Conductor*
%ADD16C,0.200000*%
G04 #@! TD*
G04 #@! TA.AperFunction,Conductor*
%ADD17C,0.250000*%
G04 #@! TD*
G04 #@! TA.AperFunction,Conductor*
%ADD18C,0.100000*%
G04 #@! TD*
G04 #@! TA.AperFunction,Conductor*
%ADD19C,0.254000*%
G04 #@! TD*
G04 APERTURE END LIST*
D10*
X86995000Y-120739000D03*
X92075000Y-120739000D03*
D11*
X103378000Y-89154000D03*
D12*
X99822000Y-80264000D03*
X99822000Y-82804000D03*
X97282000Y-80264000D03*
X97282000Y-82804000D03*
X94742000Y-80264000D03*
X94742000Y-82804000D03*
X92202000Y-80264000D03*
X92202000Y-82804000D03*
X89662000Y-80264000D03*
X89662000Y-82804000D03*
X87122000Y-80264000D03*
X87122000Y-82804000D03*
X84582000Y-80264000D03*
X84582000Y-82804000D03*
X82042000Y-80264000D03*
X82042000Y-82804000D03*
X79502000Y-80264000D03*
D13*
X79502000Y-82804000D03*
G04 #@! TA.AperFunction,ComponentPad*
G36*
G01*
X119335000Y-87726000D02*
X119335000Y-85526000D01*
G75*
G02*
X120135000Y-84726000I800000J0D01*
G01*
X121735000Y-84726000D01*
G75*
G02*
X122535000Y-85526000I0J-800000D01*
G01*
X122535000Y-87726000D01*
G75*
G02*
X121735000Y-88526000I-800000J0D01*
G01*
X120135000Y-88526000D01*
G75*
G02*
X119335000Y-87726000I0J800000D01*
G01*
G37*
G04 #@! TD.AperFunction*
G04 #@! TA.AperFunction,ComponentPad*
G36*
G01*
X107335000Y-87726000D02*
X107335000Y-85526000D01*
G75*
G02*
X108135000Y-84726000I800000J0D01*
G01*
X109735000Y-84726000D01*
G75*
G02*
X110535000Y-85526000I0J-800000D01*
G01*
X110535000Y-87726000D01*
G75*
G02*
X109735000Y-88526000I-800000J0D01*
G01*
X108135000Y-88526000D01*
G75*
G02*
X107335000Y-87726000I0J800000D01*
G01*
G37*
G04 #@! TD.AperFunction*
D14*
X114935000Y-79726000D03*
X109385000Y-82426000D03*
X120485000Y-82426000D03*
X120885000Y-90026000D03*
X109385000Y-90726000D03*
D10*
X81788000Y-109728000D03*
X81788000Y-104648000D03*
X105410000Y-120739000D03*
X110490000Y-120739000D03*
D15*
X120015000Y-101600000D03*
X109728000Y-95212000D03*
X120142000Y-95212000D03*
X117348000Y-95212000D03*
X106934000Y-95212000D03*
X101578900Y-83289931D03*
X101600000Y-84582000D03*
X101600000Y-85824010D03*
X120015000Y-104140000D03*
X117475000Y-104140000D03*
X114935000Y-104140000D03*
X112395000Y-104140000D03*
X109855000Y-104140000D03*
X107315000Y-104140000D03*
X104775000Y-104140000D03*
X102235000Y-104140000D03*
X102235000Y-101600000D03*
X104775000Y-101600000D03*
X107315000Y-101600000D03*
X109855000Y-101600000D03*
X112395000Y-101600000D03*
X114935000Y-101600000D03*
X117475000Y-101600000D03*
X99695000Y-101600000D03*
X99695000Y-104140000D03*
X97155000Y-101600000D03*
X94615000Y-101600000D03*
X92075000Y-101600000D03*
X89535000Y-101600000D03*
X89535000Y-104140000D03*
X92075000Y-104140000D03*
X94615000Y-104140000D03*
X97155000Y-104140000D03*
X97155000Y-106680000D03*
X94615000Y-106680000D03*
X92075000Y-106680000D03*
X89535000Y-106680000D03*
X106426000Y-98933000D03*
X116840000Y-98933000D03*
X86995000Y-101600000D03*
X86995000Y-104140000D03*
X86995000Y-106680000D03*
X124460000Y-104140000D03*
X112395000Y-106680000D03*
X109855000Y-106680000D03*
X107315000Y-106680000D03*
X124460000Y-106680000D03*
X120015000Y-106680000D03*
X104775000Y-106680000D03*
X117475000Y-106680000D03*
X99695000Y-106680000D03*
X114935000Y-106680000D03*
X102235000Y-106680000D03*
X91186000Y-97028000D03*
X98552000Y-97028000D03*
X124460000Y-101600000D03*
X80010000Y-90386000D03*
X80010000Y-91402000D03*
X84074000Y-93688000D03*
X81788000Y-98768000D03*
X84836000Y-98768000D03*
X92964000Y-87884000D03*
X78232000Y-88900000D03*
X96716313Y-86414000D03*
X100390870Y-86410905D03*
X97282000Y-85814000D03*
X99822000Y-85814000D03*
X96266000Y-87084000D03*
X100838000Y-87084000D03*
X77632000Y-99568000D03*
X79248000Y-101092000D03*
X77649645Y-98533558D03*
X79248000Y-100076000D03*
X118110000Y-114300000D03*
X115570000Y-114300000D03*
X113030000Y-114300000D03*
X110490000Y-114300000D03*
X110490000Y-116840000D03*
X113030000Y-116840000D03*
X115570000Y-116840000D03*
X118110000Y-116840000D03*
X118110000Y-119380000D03*
X118110000Y-121920000D03*
X118110000Y-124460000D03*
X115570000Y-124460000D03*
X113030000Y-124460000D03*
X113030000Y-121920000D03*
X113030000Y-119380000D03*
X115570000Y-119380000D03*
X115570000Y-121920000D03*
X110490000Y-124460000D03*
X97790000Y-114300000D03*
X100330000Y-114300000D03*
X102870000Y-114300000D03*
X105410000Y-114300000D03*
X105410000Y-116840000D03*
X102870000Y-116840000D03*
X100330000Y-116840000D03*
X97790000Y-116840000D03*
X97790000Y-119380000D03*
X100330000Y-119380000D03*
X102870000Y-119380000D03*
X102870000Y-121920000D03*
X100330000Y-121920000D03*
X97790000Y-121920000D03*
X97790000Y-124460000D03*
X100330000Y-124460000D03*
X102870000Y-124460000D03*
X105410000Y-124460000D03*
X115316000Y-108712000D03*
X109728000Y-108712000D03*
X121412000Y-101600000D03*
X102108000Y-108712000D03*
X96520000Y-108712000D03*
X122428000Y-101600000D03*
X79375000Y-119380000D03*
X79375000Y-116840000D03*
X79375000Y-114300000D03*
X81915000Y-119380000D03*
X81915000Y-116840000D03*
X81915000Y-114300000D03*
X84455000Y-114300000D03*
X84455000Y-116840000D03*
X84455000Y-119380000D03*
X92075000Y-116840000D03*
X89535000Y-116840000D03*
X86995000Y-116840000D03*
X86995000Y-114300000D03*
X89535000Y-114300000D03*
X86995000Y-111760000D03*
X84455000Y-111760000D03*
X84455000Y-124460000D03*
X86995000Y-124460000D03*
X89535000Y-124460000D03*
X92075000Y-124460000D03*
X89522400Y-119380000D03*
X89535000Y-121907400D03*
X79375000Y-111747400D03*
X84455000Y-109207400D03*
X92075000Y-114287400D03*
X89535000Y-111747400D03*
X79375000Y-109207400D03*
X84455000Y-121907400D03*
X109728000Y-93726000D03*
X116078000Y-93726000D03*
X118364000Y-93726000D03*
X98552000Y-90386000D03*
X98552000Y-87846000D03*
X107480000Y-93726000D03*
X93814994Y-91528994D03*
X89916000Y-93726000D03*
X87332735Y-85808735D03*
X91948000Y-87884000D03*
D16*
X120015000Y-104140000D02*
X117475000Y-104140000D01*
X117475000Y-104140000D02*
X114935000Y-104140000D01*
X114935000Y-104140000D02*
X112395000Y-104140000D01*
X112395000Y-104140000D02*
X109855000Y-104140000D01*
X109855000Y-104140000D02*
X107315000Y-104140000D01*
X107315000Y-104140000D02*
X104775000Y-104140000D01*
X104775000Y-104140000D02*
X102235000Y-104140000D01*
X102235000Y-101600000D02*
X104775000Y-101600000D01*
X104775000Y-101600000D02*
X107315000Y-101600000D01*
X107315000Y-101600000D02*
X109855000Y-101600000D01*
X109855000Y-101600000D02*
X112395000Y-101600000D01*
X112395000Y-101600000D02*
X114935000Y-101600000D01*
X114935000Y-101600000D02*
X117475000Y-101600000D01*
X117475000Y-101600000D02*
X120015000Y-101600000D01*
X102235000Y-101600000D02*
X99695000Y-101600000D01*
X99695000Y-104140000D02*
X102235000Y-104140000D01*
X99695000Y-101600000D02*
X97155000Y-101600000D01*
X97155000Y-101600000D02*
X94615000Y-101600000D01*
X94615000Y-101600000D02*
X92075000Y-101600000D01*
X92075000Y-101600000D02*
X89535000Y-101600000D01*
X89535000Y-101600000D02*
X89535000Y-104140000D01*
X89535000Y-104140000D02*
X92075000Y-104140000D01*
X92075000Y-104140000D02*
X94615000Y-104140000D01*
X94615000Y-104140000D02*
X97155000Y-104140000D01*
X97155000Y-104140000D02*
X99695000Y-104140000D01*
X97155000Y-104140000D02*
X97155000Y-106680000D01*
X97155000Y-106680000D02*
X94615000Y-106680000D01*
X94615000Y-106680000D02*
X92075000Y-106680000D01*
X92075000Y-106680000D02*
X89535000Y-106680000D01*
X89535000Y-106680000D02*
X89535000Y-104140000D01*
X89535000Y-101600000D02*
X86995000Y-101600000D01*
X89535000Y-104140000D02*
X86995000Y-104140000D01*
X89535000Y-106680000D02*
X86995000Y-106680000D01*
X86995000Y-101600000D02*
X86995000Y-106680000D01*
X124460000Y-101600000D02*
X124460000Y-104140000D01*
X112395000Y-106680000D02*
X109855000Y-106680000D01*
X109855000Y-106680000D02*
X107315000Y-106680000D01*
X97155000Y-106680000D02*
X99695000Y-106680000D01*
X124460000Y-104140000D02*
X124460000Y-106680000D01*
X120015000Y-104140000D02*
X120015000Y-106680000D01*
X120015000Y-104140000D02*
X120015000Y-101600000D01*
X107315000Y-106680000D02*
X104775000Y-106680000D01*
X120015000Y-106680000D02*
X117475000Y-106680000D01*
X117475000Y-106680000D02*
X114935000Y-106680000D01*
X114935000Y-106680000D02*
X112395000Y-106680000D01*
X104775000Y-106680000D02*
X102235000Y-106680000D01*
X102235000Y-106680000D02*
X99695000Y-106680000D01*
X100387775Y-86414000D02*
X100390870Y-86410905D01*
X96716313Y-86414000D02*
X100387775Y-86414000D01*
X97282000Y-85814000D02*
X99822000Y-85814000D01*
X96266000Y-87084000D02*
X100838000Y-87084000D01*
X79156000Y-101092000D02*
X79248000Y-101092000D01*
X77632000Y-99568000D02*
X79156000Y-101092000D01*
X79192087Y-100076000D02*
X79248000Y-100076000D01*
X77649645Y-98533558D02*
X79192087Y-100076000D01*
X118110000Y-114300000D02*
X115570000Y-114300000D01*
X115570000Y-114300000D02*
X113030000Y-114300000D01*
X113030000Y-114300000D02*
X110490000Y-114300000D01*
X110490000Y-114300000D02*
X110490000Y-116840000D01*
X110490000Y-116840000D02*
X113030000Y-116840000D01*
X113030000Y-116840000D02*
X115570000Y-116840000D01*
X115570000Y-116840000D02*
X118110000Y-116840000D01*
X118110000Y-116840000D02*
X118110000Y-114300000D01*
X118110000Y-116840000D02*
X118110000Y-119380000D01*
X118110000Y-119380000D02*
X118110000Y-121920000D01*
X118110000Y-121920000D02*
X118110000Y-124460000D01*
X118110000Y-124460000D02*
X115570000Y-124460000D01*
X115570000Y-124460000D02*
X113030000Y-124460000D01*
X113030000Y-124460000D02*
X113030000Y-121920000D01*
X113030000Y-121920000D02*
X113030000Y-119380000D01*
X113030000Y-119380000D02*
X110490000Y-116840000D01*
X113030000Y-119380000D02*
X115570000Y-119380000D01*
X115570000Y-119380000D02*
X118110000Y-119380000D01*
X118110000Y-121920000D02*
X115570000Y-121920000D01*
X115570000Y-121920000D02*
X113030000Y-121920000D01*
X113030000Y-124460000D02*
X110490000Y-124460000D01*
X113030000Y-121920000D02*
X110490000Y-124460000D01*
X97790000Y-114300000D02*
X100330000Y-114300000D01*
X100330000Y-114300000D02*
X102870000Y-114300000D01*
X102870000Y-114300000D02*
X105410000Y-114300000D01*
X105410000Y-114300000D02*
X105410000Y-116840000D01*
X105410000Y-116840000D02*
X102870000Y-116840000D01*
X102870000Y-116840000D02*
X100330000Y-116840000D01*
X100330000Y-116840000D02*
X97790000Y-116840000D01*
X97790000Y-116840000D02*
X97790000Y-114300000D01*
X97790000Y-116840000D02*
X97790000Y-119380000D01*
X97790000Y-119380000D02*
X100330000Y-119380000D01*
X100330000Y-119380000D02*
X102870000Y-119380000D01*
X102870000Y-119380000D02*
X105410000Y-116840000D01*
X102870000Y-119380000D02*
X102870000Y-121920000D01*
X102870000Y-121920000D02*
X100330000Y-121920000D01*
X100330000Y-121920000D02*
X97790000Y-121920000D01*
X97790000Y-121920000D02*
X97790000Y-119380000D01*
X97790000Y-121920000D02*
X97790000Y-124460000D01*
X97790000Y-124460000D02*
X100330000Y-124460000D01*
X100330000Y-124460000D02*
X102870000Y-124460000D01*
X102870000Y-124460000D02*
X102870000Y-121920000D01*
X102870000Y-124460000D02*
X105410000Y-124460000D01*
X105410000Y-124460000D02*
X102870000Y-121920000D01*
X115316000Y-108712000D02*
X109728000Y-108712000D01*
X121412000Y-101600000D02*
X121412000Y-107442000D01*
X120142000Y-108712000D02*
X119380000Y-108712000D01*
X119380000Y-108712000D02*
X115316000Y-108712000D01*
X121412000Y-107442000D02*
X120142000Y-108712000D01*
X119888000Y-108712000D02*
X119380000Y-108712000D01*
X102870000Y-109474000D02*
X102108000Y-108712000D01*
X97282000Y-109474000D02*
X96520000Y-108712000D01*
X102870000Y-109474000D02*
X97282000Y-109474000D01*
X119888000Y-109474000D02*
X102870000Y-109474000D01*
X120396000Y-109474000D02*
X119888000Y-109474000D01*
X120650000Y-109474000D02*
X122428000Y-107696000D01*
X122428000Y-101600000D02*
X122428000Y-107696000D01*
X120650000Y-109474000D02*
X119888000Y-109474000D01*
X79375000Y-119380000D02*
X79375000Y-116840000D01*
X79375000Y-114300000D02*
X79375000Y-116840000D01*
X79375000Y-119380000D02*
X81915000Y-119380000D01*
X81915000Y-119380000D02*
X81915000Y-116840000D01*
X81915000Y-116840000D02*
X79375000Y-116840000D01*
X81915000Y-116840000D02*
X81915000Y-114300000D01*
X81915000Y-114300000D02*
X79375000Y-114300000D01*
X81915000Y-114300000D02*
X84455000Y-114300000D01*
X84455000Y-114300000D02*
X84455000Y-116840000D01*
X84455000Y-116840000D02*
X81915000Y-116840000D01*
X81915000Y-119380000D02*
X84455000Y-119380000D01*
X84455000Y-119380000D02*
X84455000Y-116840000D01*
X92075000Y-116840000D02*
X89535000Y-116840000D01*
X89535000Y-116840000D02*
X86995000Y-116840000D01*
X86995000Y-116840000D02*
X84455000Y-116840000D01*
X84455000Y-114300000D02*
X86995000Y-114300000D01*
X86995000Y-114300000D02*
X86995000Y-116840000D01*
X86995000Y-114300000D02*
X89535000Y-114300000D01*
X89535000Y-114300000D02*
X89535000Y-116840000D01*
X89535000Y-114300000D02*
X92075000Y-116840000D01*
X86995000Y-114300000D02*
X86995000Y-111760000D01*
X84455000Y-114300000D02*
X84455000Y-111760000D01*
X84455000Y-124460000D02*
X86995000Y-124460000D01*
X86995000Y-124460000D02*
X89535000Y-124460000D01*
X89535000Y-124460000D02*
X92075000Y-124460000D01*
X84455000Y-111760000D02*
X81915000Y-114300000D01*
X86995000Y-116840000D02*
X89522400Y-119367400D01*
X89522400Y-119367400D02*
X89522400Y-119380000D01*
X92075000Y-116840000D02*
X89547600Y-119367400D01*
X89535000Y-119367400D02*
X89522400Y-119380000D01*
X89547600Y-119367400D02*
X89535000Y-119367400D01*
X86995000Y-124460000D02*
X89535000Y-121920000D01*
X89535000Y-121920000D02*
X89535000Y-121907400D01*
X92075000Y-124460000D02*
X89535000Y-121920000D01*
X79375000Y-114300000D02*
X79375000Y-111747400D01*
X79375000Y-111760000D02*
X79375000Y-111747400D01*
X81915000Y-114300000D02*
X79375000Y-111760000D01*
X84455000Y-111760000D02*
X86995000Y-111760000D01*
X84455000Y-111760000D02*
X84455000Y-109207400D01*
X84455000Y-109220000D02*
X84455000Y-109207400D01*
X86995000Y-111760000D02*
X84455000Y-109220000D01*
X92062400Y-114300000D02*
X92075000Y-114287400D01*
X89535000Y-114300000D02*
X92062400Y-114300000D01*
X92075000Y-114287400D02*
X92075000Y-116840000D01*
X89535000Y-114300000D02*
X89535000Y-111747400D01*
X89522400Y-111760000D02*
X89535000Y-111747400D01*
X86995000Y-111760000D02*
X89522400Y-111760000D01*
X79375000Y-111747400D02*
X79375000Y-109207400D01*
X84442400Y-121907400D02*
X84455000Y-121907400D01*
X81915000Y-119380000D02*
X84442400Y-121907400D01*
X84455000Y-121907400D02*
X84455000Y-124460000D01*
X84455000Y-119380000D02*
X84455000Y-121907400D01*
X116078000Y-93726000D02*
X118364000Y-93726000D01*
X98552000Y-90386000D02*
X98552000Y-87846000D01*
X98552000Y-90386000D02*
X100076000Y-90386000D01*
X101308000Y-89154000D02*
X103378000Y-89154000D01*
X100076000Y-90386000D02*
X101308000Y-89154000D01*
X107480000Y-93726000D02*
X109728000Y-93726000D01*
X91617988Y-93726000D02*
X91440000Y-93726000D01*
X93814994Y-91528994D02*
X91617988Y-93726000D01*
X91440000Y-93726000D02*
X89916000Y-93726000D01*
X91617989Y-93726000D02*
X91440000Y-93726000D01*
X87332735Y-85808735D02*
X88051470Y-85090000D01*
X88051470Y-85090000D02*
X91948000Y-85090000D01*
X91948000Y-85090000D02*
X92456000Y-85598000D01*
X92456000Y-87376000D02*
X91948000Y-87884000D01*
X92456000Y-85598000D02*
X92456000Y-87376000D01*
D17*
X124058727Y-76888291D02*
X124403791Y-76992471D01*
X124722049Y-77161691D01*
X125001378Y-77389507D01*
X125231136Y-77667237D01*
X125402574Y-77984306D01*
X125509161Y-78328633D01*
X125550001Y-78717200D01*
X125550000Y-109613168D01*
X125538970Y-109596660D01*
X125173340Y-109231030D01*
X124743404Y-108943755D01*
X124265684Y-108745878D01*
X123758540Y-108645000D01*
X123241460Y-108645000D01*
X122734316Y-108745878D01*
X122256596Y-108943755D01*
X122102758Y-109046547D01*
X122915477Y-108233828D01*
X122943132Y-108211132D01*
X122976473Y-108170507D01*
X123033731Y-108100737D01*
X123101053Y-107974788D01*
X123114798Y-107929475D01*
X123142509Y-107838125D01*
X123153000Y-107731607D01*
X123153000Y-107731597D01*
X123156506Y-107696000D01*
X123153000Y-107660403D01*
X123153000Y-102179918D01*
X123247725Y-102038152D01*
X123317453Y-101869813D01*
X123353000Y-101691105D01*
X123353000Y-101508895D01*
X123317453Y-101330187D01*
X123247725Y-101161848D01*
X123146495Y-101010347D01*
X123017653Y-100881505D01*
X122866152Y-100780275D01*
X122697813Y-100710547D01*
X122519105Y-100675000D01*
X122336895Y-100675000D01*
X122158187Y-100710547D01*
X121989848Y-100780275D01*
X121920000Y-100826946D01*
X121850152Y-100780275D01*
X121681813Y-100710547D01*
X121503105Y-100675000D01*
X121320895Y-100675000D01*
X121142187Y-100710547D01*
X120973848Y-100780275D01*
X120822347Y-100881505D01*
X120693505Y-101010347D01*
X120592275Y-101161848D01*
X120522547Y-101330187D01*
X120487000Y-101508895D01*
X120487000Y-101691105D01*
X120522547Y-101869813D01*
X120592275Y-102038152D01*
X120687000Y-102179918D01*
X120687001Y-107141694D01*
X119841696Y-107987000D01*
X115895918Y-107987000D01*
X115754152Y-107892275D01*
X115585813Y-107822547D01*
X115407105Y-107787000D01*
X115224895Y-107787000D01*
X115046187Y-107822547D01*
X114877848Y-107892275D01*
X114736082Y-107987000D01*
X110307918Y-107987000D01*
X110166152Y-107892275D01*
X109997813Y-107822547D01*
X109819105Y-107787000D01*
X109636895Y-107787000D01*
X109458187Y-107822547D01*
X109289848Y-107892275D01*
X109138347Y-107993505D01*
X109009505Y-108122347D01*
X108908275Y-108273848D01*
X108838547Y-108442187D01*
X108803000Y-108620895D01*
X108803000Y-108749000D01*
X103170305Y-108749000D01*
X103030716Y-108609411D01*
X102997453Y-108442187D01*
X102927725Y-108273848D01*
X102826495Y-108122347D01*
X102697653Y-107993505D01*
X102546152Y-107892275D01*
X102377813Y-107822547D01*
X102199105Y-107787000D01*
X102016895Y-107787000D01*
X101838187Y-107822547D01*
X101669848Y-107892275D01*
X101518347Y-107993505D01*
X101389505Y-108122347D01*
X101288275Y-108273848D01*
X101218547Y-108442187D01*
X101183000Y-108620895D01*
X101183000Y-108749000D01*
X97582305Y-108749000D01*
X97442716Y-108609411D01*
X97409453Y-108442187D01*
X97339725Y-108273848D01*
X97238495Y-108122347D01*
X97109653Y-107993505D01*
X96958152Y-107892275D01*
X96789813Y-107822547D01*
X96611105Y-107787000D01*
X96428895Y-107787000D01*
X96250187Y-107822547D01*
X96081848Y-107892275D01*
X95930347Y-107993505D01*
X95801505Y-108122347D01*
X95700275Y-108273848D01*
X95630547Y-108442187D01*
X95595000Y-108620895D01*
X95595000Y-108803105D01*
X95630547Y-108981813D01*
X95700275Y-109150152D01*
X95801505Y-109301653D01*
X95930347Y-109430495D01*
X96081848Y-109531725D01*
X96250187Y-109601453D01*
X96257964Y-109603000D01*
X95543206Y-109603000D01*
X95538970Y-109596660D01*
X95173340Y-109231030D01*
X94743404Y-108943755D01*
X94265684Y-108745878D01*
X93758540Y-108645000D01*
X93241460Y-108645000D01*
X92734316Y-108745878D01*
X92256596Y-108943755D01*
X91826660Y-109231030D01*
X91461030Y-109596660D01*
X91173755Y-110026596D01*
X91071575Y-110273283D01*
X84451066Y-106490135D01*
X84364839Y-106447852D01*
X84222269Y-106404603D01*
X84074000Y-106390000D01*
X76850000Y-106390000D01*
X76850000Y-105714140D01*
X80898637Y-105714140D01*
X81021053Y-105916275D01*
X81283218Y-106041529D01*
X81564781Y-106113231D01*
X81854922Y-106128625D01*
X82142492Y-106087120D01*
X82416439Y-105990310D01*
X82554947Y-105916275D01*
X82677363Y-105714140D01*
X81788000Y-104824777D01*
X80898637Y-105714140D01*
X76850000Y-105714140D01*
X76850000Y-104714922D01*
X80307375Y-104714922D01*
X80348880Y-105002492D01*
X80445690Y-105276439D01*
X80519725Y-105414947D01*
X80721860Y-105537363D01*
X81611223Y-104648000D01*
X81964777Y-104648000D01*
X82854140Y-105537363D01*
X83056275Y-105414947D01*
X83181529Y-105152782D01*
X83253231Y-104871219D01*
X83268625Y-104581078D01*
X83227120Y-104293508D01*
X83130310Y-104019561D01*
X83056275Y-103881053D01*
X82854140Y-103758637D01*
X81964777Y-104648000D01*
X81611223Y-104648000D01*
X80721860Y-103758637D01*
X80519725Y-103881053D01*
X80394471Y-104143218D01*
X80322769Y-104424781D01*
X80307375Y-104714922D01*
X76850000Y-104714922D01*
X76850000Y-103581860D01*
X80898637Y-103581860D01*
X81788000Y-104471223D01*
X82677363Y-103581860D01*
X82554947Y-103379725D01*
X82292782Y-103254471D01*
X82011219Y-103182769D01*
X81721078Y-103167375D01*
X81433508Y-103208880D01*
X81159561Y-103305690D01*
X81021053Y-103379725D01*
X80898637Y-103581860D01*
X76850000Y-103581860D01*
X76850000Y-100062611D01*
X76913505Y-100157653D01*
X77042347Y-100286495D01*
X77193848Y-100387725D01*
X77362187Y-100457453D01*
X77529412Y-100490716D01*
X78348128Y-101309433D01*
X78358547Y-101361813D01*
X78428275Y-101530152D01*
X78529505Y-101681653D01*
X78658347Y-101810495D01*
X78809848Y-101911725D01*
X78978187Y-101981453D01*
X79156895Y-102017000D01*
X79339105Y-102017000D01*
X79517813Y-101981453D01*
X79686152Y-101911725D01*
X79837653Y-101810495D01*
X79966495Y-101681653D01*
X80067725Y-101530152D01*
X80137453Y-101361813D01*
X80173000Y-101183105D01*
X80173000Y-101000895D01*
X80137453Y-100822187D01*
X80067725Y-100653848D01*
X80021054Y-100584000D01*
X80067725Y-100514152D01*
X80137453Y-100345813D01*
X80173000Y-100167105D01*
X80173000Y-99984895D01*
X80137453Y-99806187D01*
X80067725Y-99637848D01*
X79966495Y-99486347D01*
X79837653Y-99357505D01*
X79686152Y-99256275D01*
X79517813Y-99186547D01*
X79339105Y-99151000D01*
X79292392Y-99151000D01*
X78572361Y-98430970D01*
X78539098Y-98263745D01*
X78469370Y-98095406D01*
X78368140Y-97943905D01*
X78239298Y-97815063D01*
X78087797Y-97713833D01*
X77919458Y-97644105D01*
X77740750Y-97608558D01*
X77558540Y-97608558D01*
X77379832Y-97644105D01*
X77211493Y-97713833D01*
X77059992Y-97815063D01*
X76931150Y-97943905D01*
X76850000Y-98065354D01*
X76850000Y-93634895D01*
X88991000Y-93634895D01*
X88991000Y-93817105D01*
X89026547Y-93995813D01*
X89096275Y-94164152D01*
X89197505Y-94315653D01*
X89326347Y-94444495D01*
X89477848Y-94545725D01*
X89646187Y-94615453D01*
X89824895Y-94651000D01*
X90007105Y-94651000D01*
X90185813Y-94615453D01*
X90354152Y-94545725D01*
X90495918Y-94451000D01*
X91582391Y-94451000D01*
X91617988Y-94454506D01*
X91653585Y-94451000D01*
X91653596Y-94451000D01*
X91760114Y-94440509D01*
X91896777Y-94399053D01*
X92022726Y-94331731D01*
X92133121Y-94241132D01*
X92155826Y-94213466D01*
X92734397Y-93634895D01*
X106555000Y-93634895D01*
X106555000Y-93817105D01*
X106590547Y-93995813D01*
X106660275Y-94164152D01*
X106761505Y-94315653D01*
X106890347Y-94444495D01*
X107041848Y-94545725D01*
X107210187Y-94615453D01*
X107388895Y-94651000D01*
X107571105Y-94651000D01*
X107749813Y-94615453D01*
X107918152Y-94545725D01*
X108059918Y-94451000D01*
X109148082Y-94451000D01*
X109289848Y-94545725D01*
X109458187Y-94615453D01*
X109636895Y-94651000D01*
X109819105Y-94651000D01*
X109997813Y-94615453D01*
X110166152Y-94545725D01*
X110317653Y-94444495D01*
X110446495Y-94315653D01*
X110547725Y-94164152D01*
X110617453Y-93995813D01*
X110653000Y-93817105D01*
X110653000Y-93634895D01*
X115153000Y-93634895D01*
X115153000Y-93817105D01*
X115188547Y-93995813D01*
X115258275Y-94164152D01*
X115359505Y-94315653D01*
X115488347Y-94444495D01*
X115639848Y-94545725D01*
X115808187Y-94615453D01*
X115986895Y-94651000D01*
X116169105Y-94651000D01*
X116347813Y-94615453D01*
X116516152Y-94545725D01*
X116657918Y-94451000D01*
X117784082Y-94451000D01*
X117925848Y-94545725D01*
X118094187Y-94615453D01*
X118272895Y-94651000D01*
X118455105Y-94651000D01*
X118633813Y-94615453D01*
X118802152Y-94545725D01*
X118953653Y-94444495D01*
X119082495Y-94315653D01*
X119183725Y-94164152D01*
X119253453Y-93995813D01*
X119289000Y-93817105D01*
X119289000Y-93634895D01*
X119253453Y-93456187D01*
X119183725Y-93287848D01*
X119082495Y-93136347D01*
X118953653Y-93007505D01*
X118802152Y-92906275D01*
X118633813Y-92836547D01*
X118455105Y-92801000D01*
X118272895Y-92801000D01*
X118094187Y-92836547D01*
X117925848Y-92906275D01*
X117784082Y-93001000D01*
X116657918Y-93001000D01*
X116516152Y-92906275D01*
X116347813Y-92836547D01*
X116169105Y-92801000D01*
X115986895Y-92801000D01*
X115808187Y-92836547D01*
X115639848Y-92906275D01*
X115488347Y-93007505D01*
X115359505Y-93136347D01*
X115258275Y-93287848D01*
X115188547Y-93456187D01*
X115153000Y-93634895D01*
X110653000Y-93634895D01*
X110617453Y-93456187D01*
X110547725Y-93287848D01*
X110446495Y-93136347D01*
X110317653Y-93007505D01*
X110166152Y-92906275D01*
X109997813Y-92836547D01*
X109819105Y-92801000D01*
X109636895Y-92801000D01*
X109458187Y-92836547D01*
X109289848Y-92906275D01*
X109148082Y-93001000D01*
X108059918Y-93001000D01*
X107918152Y-92906275D01*
X107749813Y-92836547D01*
X107571105Y-92801000D01*
X107388895Y-92801000D01*
X107210187Y-92836547D01*
X107041848Y-92906275D01*
X106890347Y-93007505D01*
X106761505Y-93136347D01*
X106660275Y-93287848D01*
X106590547Y-93456187D01*
X106555000Y-93634895D01*
X92734397Y-93634895D01*
X93917583Y-92451710D01*
X94084807Y-92418447D01*
X94253146Y-92348719D01*
X94404647Y-92247489D01*
X94533489Y-92118647D01*
X94634719Y-91967146D01*
X94704447Y-91798807D01*
X94739994Y-91620099D01*
X94739994Y-91437889D01*
X94704447Y-91259181D01*
X94634719Y-91090842D01*
X94533489Y-90939341D01*
X94404647Y-90810499D01*
X94253146Y-90709269D01*
X94084807Y-90639541D01*
X93906099Y-90603994D01*
X93723889Y-90603994D01*
X93545181Y-90639541D01*
X93376842Y-90709269D01*
X93225341Y-90810499D01*
X93096499Y-90939341D01*
X92995269Y-91090842D01*
X92925541Y-91259181D01*
X92892278Y-91426405D01*
X91317684Y-93001000D01*
X90495918Y-93001000D01*
X90354152Y-92906275D01*
X90185813Y-92836547D01*
X90007105Y-92801000D01*
X89824895Y-92801000D01*
X89646187Y-92836547D01*
X89477848Y-92906275D01*
X89326347Y-93007505D01*
X89197505Y-93136347D01*
X89096275Y-93287848D01*
X89026547Y-93456187D01*
X88991000Y-93634895D01*
X76850000Y-93634895D01*
X76850000Y-85717630D01*
X86407735Y-85717630D01*
X86407735Y-85899840D01*
X86443282Y-86078548D01*
X86513010Y-86246887D01*
X86614240Y-86398388D01*
X86743082Y-86527230D01*
X86894583Y-86628460D01*
X87062922Y-86698188D01*
X87241630Y-86733735D01*
X87423840Y-86733735D01*
X87602548Y-86698188D01*
X87770887Y-86628460D01*
X87922388Y-86527230D01*
X88051230Y-86398388D01*
X88152460Y-86246887D01*
X88222188Y-86078548D01*
X88255451Y-85911324D01*
X88351775Y-85815000D01*
X91647696Y-85815000D01*
X91731000Y-85898305D01*
X91731001Y-86984042D01*
X91678187Y-86994547D01*
X91509848Y-87064275D01*
X91358347Y-87165505D01*
X91229505Y-87294347D01*
X91128275Y-87445848D01*
X91058547Y-87614187D01*
X91023000Y-87792895D01*
X91023000Y-87975105D01*
X91058547Y-88153813D01*
X91128275Y-88322152D01*
X91229505Y-88473653D01*
X91358347Y-88602495D01*
X91509848Y-88703725D01*
X91678187Y-88773453D01*
X91856895Y-88809000D01*
X92039105Y-88809000D01*
X92217813Y-88773453D01*
X92386152Y-88703725D01*
X92537653Y-88602495D01*
X92666495Y-88473653D01*
X92767725Y-88322152D01*
X92837453Y-88153813D01*
X92870716Y-87986589D01*
X92943477Y-87913828D01*
X92971132Y-87891132D01*
X93061731Y-87780737D01*
X93129053Y-87654788D01*
X93170509Y-87518125D01*
X93181000Y-87411607D01*
X93181000Y-87411598D01*
X93184506Y-87376001D01*
X93181000Y-87340404D01*
X93181000Y-86992895D01*
X95341000Y-86992895D01*
X95341000Y-87175105D01*
X95376547Y-87353813D01*
X95446275Y-87522152D01*
X95547505Y-87673653D01*
X95676347Y-87802495D01*
X95827848Y-87903725D01*
X95996187Y-87973453D01*
X96174895Y-88009000D01*
X96357105Y-88009000D01*
X96535813Y-87973453D01*
X96704152Y-87903725D01*
X96845918Y-87809000D01*
X97627000Y-87809000D01*
X97627000Y-87937105D01*
X97662547Y-88115813D01*
X97732275Y-88284152D01*
X97827001Y-88425919D01*
X97827000Y-89806082D01*
X97732275Y-89947848D01*
X97662547Y-90116187D01*
X97627000Y-90294895D01*
X97627000Y-90477105D01*
X97662547Y-90655813D01*
X97732275Y-90824152D01*
X97833505Y-90975653D01*
X97962347Y-91104495D01*
X98113848Y-91205725D01*
X98282187Y-91275453D01*
X98460895Y-91311000D01*
X98643105Y-91311000D01*
X98821813Y-91275453D01*
X98990152Y-91205725D01*
X99131918Y-91111000D01*
X100040403Y-91111000D01*
X100076000Y-91114506D01*
X100111597Y-91111000D01*
X100111607Y-91111000D01*
X100218125Y-91100509D01*
X100354788Y-91059053D01*
X100480737Y-90991731D01*
X100591132Y-90901132D01*
X100613832Y-90873472D01*
X100911503Y-90575801D01*
X107860000Y-90575801D01*
X107860000Y-90876199D01*
X107918605Y-91170826D01*
X108033562Y-91448358D01*
X108200455Y-91698131D01*
X108412869Y-91910545D01*
X108662642Y-92077438D01*
X108940174Y-92192395D01*
X109234801Y-92251000D01*
X109535199Y-92251000D01*
X109829826Y-92192395D01*
X110107358Y-92077438D01*
X110357131Y-91910545D01*
X110569545Y-91698131D01*
X110736438Y-91448358D01*
X110851395Y-91170826D01*
X110895448Y-90949355D01*
X120138422Y-90949355D01*
X120236668Y-91131016D01*
X120464704Y-91236266D01*
X120708890Y-91295007D01*
X120959844Y-91304981D01*
X121207923Y-91265804D01*
X121443592Y-91178983D01*
X121533332Y-91131016D01*
X121631578Y-90949355D01*
X120885000Y-90202777D01*
X120138422Y-90949355D01*
X110895448Y-90949355D01*
X110910000Y-90876199D01*
X110910000Y-90575801D01*
X110851395Y-90281174D01*
X110736438Y-90003642D01*
X110569545Y-89753869D01*
X110357131Y-89541455D01*
X110107358Y-89374562D01*
X109829826Y-89259605D01*
X109535199Y-89201000D01*
X109234801Y-89201000D01*
X108940174Y-89259605D01*
X108662642Y-89374562D01*
X108412869Y-89541455D01*
X108200455Y-89753869D01*
X108033562Y-90003642D01*
X107918605Y-90281174D01*
X107860000Y-90575801D01*
X100911503Y-90575801D01*
X101608305Y-89879000D01*
X102208731Y-89879000D01*
X102309968Y-90030511D01*
X102501489Y-90222032D01*
X102726693Y-90372509D01*
X102976927Y-90476159D01*
X103242574Y-90529000D01*
X103513426Y-90529000D01*
X103779073Y-90476159D01*
X104029307Y-90372509D01*
X104254511Y-90222032D01*
X104446032Y-90030511D01*
X104596509Y-89805307D01*
X104700159Y-89555073D01*
X104753000Y-89289426D01*
X104753000Y-89018574D01*
X104700159Y-88752927D01*
X104596509Y-88502693D01*
X104446032Y-88277489D01*
X104254511Y-88085968D01*
X104029307Y-87935491D01*
X103779073Y-87831841D01*
X103513426Y-87779000D01*
X103242574Y-87779000D01*
X102976927Y-87831841D01*
X102726693Y-87935491D01*
X102501489Y-88085968D01*
X102309968Y-88277489D01*
X102208731Y-88429000D01*
X101343596Y-88429000D01*
X101307999Y-88425494D01*
X101272402Y-88429000D01*
X101272393Y-88429000D01*
X101165875Y-88439491D01*
X101029212Y-88480947D01*
X100903263Y-88548269D01*
X100820525Y-88616170D01*
X100820523Y-88616172D01*
X100792868Y-88638868D01*
X100770172Y-88666523D01*
X99775696Y-89661000D01*
X99277000Y-89661000D01*
X99277000Y-88425918D01*
X99371725Y-88284152D01*
X99441453Y-88115813D01*
X99477000Y-87937105D01*
X99477000Y-87809000D01*
X100258082Y-87809000D01*
X100399848Y-87903725D01*
X100568187Y-87973453D01*
X100746895Y-88009000D01*
X100929105Y-88009000D01*
X101107813Y-87973453D01*
X101276152Y-87903725D01*
X101427653Y-87802495D01*
X101556495Y-87673653D01*
X101657725Y-87522152D01*
X101727453Y-87353813D01*
X101763000Y-87175105D01*
X101763000Y-86992895D01*
X101727453Y-86814187D01*
X101657725Y-86645848D01*
X101556495Y-86494347D01*
X101427653Y-86365505D01*
X101309221Y-86286371D01*
X101280323Y-86141092D01*
X101210595Y-85972753D01*
X101109365Y-85821252D01*
X100980523Y-85692410D01*
X100829022Y-85591180D01*
X100710600Y-85542128D01*
X100703920Y-85526000D01*
X106706976Y-85526000D01*
X106706976Y-87726000D01*
X106734415Y-88004594D01*
X106815678Y-88272481D01*
X106947641Y-88519368D01*
X107125235Y-88735765D01*
X107341632Y-88913359D01*
X107588519Y-89045322D01*
X107856406Y-89126585D01*
X108135000Y-89154024D01*
X109735000Y-89154024D01*
X110013594Y-89126585D01*
X110281481Y-89045322D01*
X110528368Y-88913359D01*
X110744765Y-88735765D01*
X110922359Y-88519368D01*
X111054322Y-88272481D01*
X111135585Y-88004594D01*
X111163024Y-87726000D01*
X111163024Y-85526000D01*
X118706976Y-85526000D01*
X118706976Y-87726000D01*
X118734415Y-88004594D01*
X118815678Y-88272481D01*
X118947641Y-88519368D01*
X119125235Y-88735765D01*
X119341632Y-88913359D01*
X119588519Y-89045322D01*
X119856406Y-89126585D01*
X119962932Y-89137077D01*
X119891115Y-89208894D01*
X119961644Y-89279423D01*
X119779984Y-89377668D01*
X119674734Y-89605704D01*
X119615993Y-89849890D01*
X119606019Y-90100844D01*
X119645196Y-90348923D01*
X119732017Y-90584592D01*
X119779984Y-90674332D01*
X119961645Y-90772578D01*
X120708223Y-90026000D01*
X120694081Y-90011858D01*
X120870858Y-89835081D01*
X120885000Y-89849223D01*
X120899142Y-89835081D01*
X121075919Y-90011858D01*
X121061777Y-90026000D01*
X121808355Y-90772578D01*
X121990016Y-90674332D01*
X122095266Y-90446296D01*
X122154007Y-90202110D01*
X122163981Y-89951156D01*
X122124804Y-89703077D01*
X122037983Y-89467408D01*
X121990016Y-89377668D01*
X121808356Y-89279423D01*
X121878885Y-89208894D01*
X121816034Y-89146043D01*
X122013594Y-89126585D01*
X122281481Y-89045322D01*
X122528368Y-88913359D01*
X122744765Y-88735765D01*
X122922359Y-88519368D01*
X123054322Y-88272481D01*
X123135585Y-88004594D01*
X123163024Y-87726000D01*
X123163024Y-85526000D01*
X123135585Y-85247406D01*
X123054322Y-84979519D01*
X122926650Y-84740659D01*
X123093681Y-84809846D01*
X123325712Y-84856000D01*
X123562288Y-84856000D01*
X123794319Y-84809846D01*
X124012887Y-84719312D01*
X124209593Y-84587878D01*
X124376878Y-84420593D01*
X124508312Y-84223887D01*
X124598846Y-84005319D01*
X124645000Y-83773288D01*
X124645000Y-83536712D01*
X124598846Y-83304681D01*
X124508312Y-83086113D01*
X124376878Y-82889407D01*
X124209593Y-82722122D01*
X124012887Y-82590688D01*
X123794319Y-82500154D01*
X123562288Y-82454000D01*
X123325712Y-82454000D01*
X123093681Y-82500154D01*
X122875113Y-82590688D01*
X122678407Y-82722122D01*
X122511122Y-82889407D01*
X122379688Y-83086113D01*
X122289154Y-83304681D01*
X122243000Y-83536712D01*
X122243000Y-83773288D01*
X122289154Y-84005319D01*
X122379688Y-84223887D01*
X122416361Y-84278772D01*
X122281481Y-84206678D01*
X122013594Y-84125415D01*
X121735000Y-84097976D01*
X120135000Y-84097976D01*
X119856406Y-84125415D01*
X119588519Y-84206678D01*
X119341632Y-84338641D01*
X119125235Y-84516235D01*
X118947641Y-84732632D01*
X118815678Y-84979519D01*
X118734415Y-85247406D01*
X118706976Y-85526000D01*
X111163024Y-85526000D01*
X111135585Y-85247406D01*
X111054322Y-84979519D01*
X110922359Y-84732632D01*
X110744765Y-84516235D01*
X110528368Y-84338641D01*
X110281481Y-84206678D01*
X110013594Y-84125415D01*
X109735000Y-84097976D01*
X108135000Y-84097976D01*
X107856406Y-84125415D01*
X107588519Y-84206678D01*
X107341632Y-84338641D01*
X107125235Y-84516235D01*
X106947641Y-84732632D01*
X106815678Y-84979519D01*
X106734415Y-85247406D01*
X106706976Y-85526000D01*
X100703920Y-85526000D01*
X100641725Y-85375848D01*
X100540495Y-85224347D01*
X100411653Y-85095505D01*
X100260152Y-84994275D01*
X100091813Y-84924547D01*
X99913105Y-84889000D01*
X99730895Y-84889000D01*
X99552187Y-84924547D01*
X99383848Y-84994275D01*
X99242082Y-85089000D01*
X97861918Y-85089000D01*
X97720152Y-84994275D01*
X97551813Y-84924547D01*
X97373105Y-84889000D01*
X97190895Y-84889000D01*
X97012187Y-84924547D01*
X96843848Y-84994275D01*
X96692347Y-85095505D01*
X96563505Y-85224347D01*
X96462275Y-85375848D01*
X96392547Y-85544187D01*
X96391960Y-85547138D01*
X96278161Y-85594275D01*
X96126660Y-85695505D01*
X95997818Y-85824347D01*
X95896588Y-85975848D01*
X95826860Y-86144187D01*
X95799160Y-86283444D01*
X95676347Y-86365505D01*
X95547505Y-86494347D01*
X95446275Y-86645848D01*
X95376547Y-86814187D01*
X95341000Y-86992895D01*
X93181000Y-86992895D01*
X93181000Y-85633596D01*
X93184506Y-85597999D01*
X93181000Y-85562402D01*
X93181000Y-85562393D01*
X93170509Y-85455875D01*
X93129053Y-85319212D01*
X93061731Y-85193263D01*
X92993830Y-85110525D01*
X92993823Y-85110518D01*
X92971131Y-85082868D01*
X92943482Y-85060177D01*
X92485832Y-84602528D01*
X92463132Y-84574868D01*
X92352737Y-84484269D01*
X92226788Y-84416947D01*
X92090125Y-84375491D01*
X91983607Y-84365000D01*
X91983597Y-84365000D01*
X91948000Y-84361494D01*
X91912403Y-84365000D01*
X88087067Y-84365000D01*
X88051470Y-84361494D01*
X88015873Y-84365000D01*
X88015863Y-84365000D01*
X87909345Y-84375491D01*
X87772682Y-84416947D01*
X87646733Y-84484269D01*
X87563995Y-84552170D01*
X87563993Y-84552172D01*
X87536338Y-84574868D01*
X87513642Y-84602523D01*
X87230146Y-84886019D01*
X87062922Y-84919282D01*
X86894583Y-84989010D01*
X86743082Y-85090240D01*
X86614240Y-85219082D01*
X86513010Y-85370583D01*
X86443282Y-85538922D01*
X86407735Y-85717630D01*
X76850000Y-85717630D01*
X76850000Y-81954000D01*
X78023976Y-81954000D01*
X78023976Y-83654000D01*
X78036043Y-83776521D01*
X78071781Y-83894334D01*
X78129817Y-84002911D01*
X78207920Y-84098080D01*
X78303089Y-84176183D01*
X78411666Y-84234219D01*
X78529479Y-84269957D01*
X78652000Y-84282024D01*
X80352000Y-84282024D01*
X80474521Y-84269957D01*
X80592334Y-84234219D01*
X80700911Y-84176183D01*
X80796080Y-84098080D01*
X80874183Y-84002911D01*
X80932219Y-83894334D01*
X80958787Y-83806752D01*
X81101742Y-83949707D01*
X81343325Y-84111128D01*
X81611758Y-84222317D01*
X81896725Y-84279000D01*
X82187275Y-84279000D01*
X82472242Y-84222317D01*
X82740675Y-84111128D01*
X82982258Y-83949707D01*
X83187707Y-83744258D01*
X83312000Y-83558241D01*
X83436293Y-83744258D01*
X83641742Y-83949707D01*
X83883325Y-84111128D01*
X84151758Y-84222317D01*
X84436725Y-84279000D01*
X84727275Y-84279000D01*
X85012242Y-84222317D01*
X85280675Y-84111128D01*
X85522258Y-83949707D01*
X85727707Y-83744258D01*
X85852000Y-83558241D01*
X85976293Y-83744258D01*
X86181742Y-83949707D01*
X86423325Y-84111128D01*
X86691758Y-84222317D01*
X86976725Y-84279000D01*
X87267275Y-84279000D01*
X87552242Y-84222317D01*
X87820675Y-84111128D01*
X88062258Y-83949707D01*
X88267707Y-83744258D01*
X88392000Y-83558241D01*
X88516293Y-83744258D01*
X88721742Y-83949707D01*
X88963325Y-84111128D01*
X89231758Y-84222317D01*
X89516725Y-84279000D01*
X89807275Y-84279000D01*
X90092242Y-84222317D01*
X90360675Y-84111128D01*
X90602258Y-83949707D01*
X90807707Y-83744258D01*
X90969128Y-83502675D01*
X91070332Y-83258347D01*
X91101973Y-83343056D01*
X91228274Y-83547303D01*
X91391995Y-83722985D01*
X91586844Y-83863351D01*
X91805333Y-83963007D01*
X91887907Y-83988049D01*
X92077000Y-83928323D01*
X92077000Y-82929000D01*
X92057000Y-82929000D01*
X92057000Y-82679000D01*
X92077000Y-82679000D01*
X92077000Y-81679677D01*
X91887907Y-81619951D01*
X91805333Y-81644993D01*
X91586844Y-81744649D01*
X91391995Y-81885015D01*
X91228274Y-82060697D01*
X91101973Y-82264944D01*
X91070332Y-82349653D01*
X90969128Y-82105325D01*
X90807707Y-81863742D01*
X90602258Y-81658293D01*
X90360675Y-81496872D01*
X90117531Y-81396158D01*
X90277156Y-81323351D01*
X90472005Y-81182985D01*
X90635726Y-81007303D01*
X90762027Y-80803056D01*
X90846055Y-80578094D01*
X91017945Y-80578094D01*
X91101973Y-80803056D01*
X91228274Y-81007303D01*
X91391995Y-81182985D01*
X91586844Y-81323351D01*
X91805333Y-81423007D01*
X91887907Y-81448049D01*
X92077000Y-81388323D01*
X92077000Y-80389000D01*
X91077138Y-80389000D01*
X91017945Y-80578094D01*
X90846055Y-80578094D01*
X90786862Y-80389000D01*
X89787000Y-80389000D01*
X89787000Y-80409000D01*
X89537000Y-80409000D01*
X89537000Y-80389000D01*
X88537138Y-80389000D01*
X88477945Y-80578094D01*
X88561973Y-80803056D01*
X88688274Y-81007303D01*
X88851995Y-81182985D01*
X89046844Y-81323351D01*
X89206469Y-81396158D01*
X88963325Y-81496872D01*
X88721742Y-81658293D01*
X88516293Y-81863742D01*
X88392000Y-82049759D01*
X88267707Y-81863742D01*
X88062258Y-81658293D01*
X87820675Y-81496872D01*
X87577531Y-81396158D01*
X87737156Y-81323351D01*
X87932005Y-81182985D01*
X88095726Y-81007303D01*
X88222027Y-80803056D01*
X88306055Y-80578094D01*
X88246862Y-80389000D01*
X87247000Y-80389000D01*
X87247000Y-80409000D01*
X86997000Y-80409000D01*
X86997000Y-80389000D01*
X85997138Y-80389000D01*
X85937945Y-80578094D01*
X86021973Y-80803056D01*
X86148274Y-81007303D01*
X86311995Y-81182985D01*
X86506844Y-81323351D01*
X86666469Y-81396158D01*
X86423325Y-81496872D01*
X86181742Y-81658293D01*
X85976293Y-81863742D01*
X85852000Y-82049759D01*
X85727707Y-81863742D01*
X85522258Y-81658293D01*
X85280675Y-81496872D01*
X85037531Y-81396158D01*
X85197156Y-81323351D01*
X85392005Y-81182985D01*
X85555726Y-81007303D01*
X85682027Y-80803056D01*
X85766055Y-80578094D01*
X85706862Y-80389000D01*
X84707000Y-80389000D01*
X84707000Y-80409000D01*
X84457000Y-80409000D01*
X84457000Y-80389000D01*
X84437000Y-80389000D01*
X84437000Y-80139000D01*
X84457000Y-80139000D01*
X84457000Y-79139677D01*
X84707000Y-79139677D01*
X84707000Y-80139000D01*
X85706862Y-80139000D01*
X85766055Y-79949906D01*
X85937945Y-79949906D01*
X85997138Y-80139000D01*
X86997000Y-80139000D01*
X86997000Y-79139677D01*
X87247000Y-79139677D01*
X87247000Y-80139000D01*
X88246862Y-80139000D01*
X88306055Y-79949906D01*
X88477945Y-79949906D01*
X88537138Y-80139000D01*
X89537000Y-80139000D01*
X89537000Y-79139677D01*
X89787000Y-79139677D01*
X89787000Y-80139000D01*
X90786862Y-80139000D01*
X90846055Y-79949906D01*
X91017945Y-79949906D01*
X91077138Y-80139000D01*
X92077000Y-80139000D01*
X92077000Y-79139677D01*
X92327000Y-79139677D01*
X92327000Y-80139000D01*
X92347000Y-80139000D01*
X92347000Y-80389000D01*
X92327000Y-80389000D01*
X92327000Y-81388323D01*
X92516093Y-81448049D01*
X92598667Y-81423007D01*
X92817156Y-81323351D01*
X93012005Y-81182985D01*
X93175726Y-81007303D01*
X93302027Y-80803056D01*
X93333668Y-80718347D01*
X93434872Y-80962675D01*
X93596293Y-81204258D01*
X93801742Y-81409707D01*
X93987759Y-81534000D01*
X93801742Y-81658293D01*
X93596293Y-81863742D01*
X93434872Y-82105325D01*
X93333668Y-82349653D01*
X93302027Y-82264944D01*
X93175726Y-82060697D01*
X93012005Y-81885015D01*
X92817156Y-81744649D01*
X92598667Y-81644993D01*
X92516093Y-81619951D01*
X92327000Y-81679677D01*
X92327000Y-82679000D01*
X92347000Y-82679000D01*
X92347000Y-82929000D01*
X92327000Y-82929000D01*
X92327000Y-83928323D01*
X92516093Y-83988049D01*
X92598667Y-83963007D01*
X92817156Y-83863351D01*
X93012005Y-83722985D01*
X93175726Y-83547303D01*
X93302027Y-83343056D01*
X93333668Y-83258347D01*
X93434872Y-83502675D01*
X93596293Y-83744258D01*
X93801742Y-83949707D01*
X94043325Y-84111128D01*
X94311758Y-84222317D01*
X94596725Y-84279000D01*
X94887275Y-84279000D01*
X95172242Y-84222317D01*
X95440675Y-84111128D01*
X95682258Y-83949707D01*
X95887707Y-83744258D01*
X96012000Y-83558241D01*
X96136293Y-83744258D01*
X96341742Y-83949707D01*
X96583325Y-84111128D01*
X96851758Y-84222317D01*
X97136725Y-84279000D01*
X97427275Y-84279000D01*
X97712242Y-84222317D01*
X97980675Y-84111128D01*
X98222258Y-83949707D01*
X98427707Y-83744258D01*
X98552000Y-83558241D01*
X98676293Y-83744258D01*
X98881742Y-83949707D01*
X99123325Y-84111128D01*
X99391758Y-84222317D01*
X99676725Y-84279000D01*
X99967275Y-84279000D01*
X100252242Y-84222317D01*
X100520675Y-84111128D01*
X100762258Y-83949707D01*
X100967707Y-83744258D01*
X101129128Y-83502675D01*
X101240317Y-83234242D01*
X101297000Y-82949275D01*
X101297000Y-82658725D01*
X101240317Y-82373758D01*
X101199742Y-82275801D01*
X107860000Y-82275801D01*
X107860000Y-82576199D01*
X107918605Y-82870826D01*
X108033562Y-83148358D01*
X108200455Y-83398131D01*
X108412869Y-83610545D01*
X108662642Y-83777438D01*
X108940174Y-83892395D01*
X109234801Y-83951000D01*
X109535199Y-83951000D01*
X109829826Y-83892395D01*
X110107358Y-83777438D01*
X110357131Y-83610545D01*
X110569545Y-83398131D01*
X110736438Y-83148358D01*
X110851395Y-82870826D01*
X110910000Y-82576199D01*
X110910000Y-82275801D01*
X118960000Y-82275801D01*
X118960000Y-82576199D01*
X119018605Y-82870826D01*
X119133562Y-83148358D01*
X119300455Y-83398131D01*
X119512869Y-83610545D01*
X119762642Y-83777438D01*
X120040174Y-83892395D01*
X120334801Y-83951000D01*
X120635199Y-83951000D01*
X120929826Y-83892395D01*
X121207358Y-83777438D01*
X121457131Y-83610545D01*
X121669545Y-83398131D01*
X121836438Y-83148358D01*
X121951395Y-82870826D01*
X122010000Y-82576199D01*
X122010000Y-82275801D01*
X121951395Y-81981174D01*
X121836438Y-81703642D01*
X121669545Y-81453869D01*
X121457131Y-81241455D01*
X121207358Y-81074562D01*
X120929826Y-80959605D01*
X120635199Y-80901000D01*
X120334801Y-80901000D01*
X120040174Y-80959605D01*
X119762642Y-81074562D01*
X119512869Y-81241455D01*
X119300455Y-81453869D01*
X119133562Y-81703642D01*
X119018605Y-81981174D01*
X118960000Y-82275801D01*
X110910000Y-82275801D01*
X110851395Y-81981174D01*
X110736438Y-81703642D01*
X110569545Y-81453869D01*
X110357131Y-81241455D01*
X110107358Y-81074562D01*
X109829826Y-80959605D01*
X109535199Y-80901000D01*
X109234801Y-80901000D01*
X108940174Y-80959605D01*
X108662642Y-81074562D01*
X108412869Y-81241455D01*
X108200455Y-81453869D01*
X108033562Y-81703642D01*
X107918605Y-81981174D01*
X107860000Y-82275801D01*
X101199742Y-82275801D01*
X101129128Y-82105325D01*
X100967707Y-81863742D01*
X100762258Y-81658293D01*
X100576241Y-81534000D01*
X100762258Y-81409707D01*
X100967707Y-81204258D01*
X101129128Y-80962675D01*
X101240317Y-80694242D01*
X101249245Y-80649355D01*
X114188422Y-80649355D01*
X114286668Y-80831016D01*
X114514704Y-80936266D01*
X114758890Y-80995007D01*
X115009844Y-81004981D01*
X115257923Y-80965804D01*
X115493592Y-80878983D01*
X115583332Y-80831016D01*
X115681578Y-80649355D01*
X114935000Y-79902777D01*
X114188422Y-80649355D01*
X101249245Y-80649355D01*
X101297000Y-80409275D01*
X101297000Y-80118725D01*
X101240317Y-79833758D01*
X101226684Y-79800844D01*
X113656019Y-79800844D01*
X113695196Y-80048923D01*
X113782017Y-80284592D01*
X113829984Y-80374332D01*
X114011645Y-80472578D01*
X114758223Y-79726000D01*
X115111777Y-79726000D01*
X115858355Y-80472578D01*
X116040016Y-80374332D01*
X116145266Y-80146296D01*
X116204007Y-79902110D01*
X116213981Y-79651156D01*
X116174804Y-79403077D01*
X116101870Y-79205102D01*
X121300000Y-79205102D01*
X121300000Y-79544898D01*
X121366290Y-79878164D01*
X121496324Y-80192094D01*
X121685105Y-80474624D01*
X121925376Y-80714895D01*
X122207906Y-80903676D01*
X122521836Y-81033710D01*
X122855102Y-81100000D01*
X123194898Y-81100000D01*
X123528164Y-81033710D01*
X123842094Y-80903676D01*
X124124624Y-80714895D01*
X124364895Y-80474624D01*
X124553676Y-80192094D01*
X124683710Y-79878164D01*
X124750000Y-79544898D01*
X124750000Y-79205102D01*
X124683710Y-78871836D01*
X124553676Y-78557906D01*
X124364895Y-78275376D01*
X124124624Y-78035105D01*
X123842094Y-77846324D01*
X123528164Y-77716290D01*
X123194898Y-77650000D01*
X122855102Y-77650000D01*
X122521836Y-77716290D01*
X122207906Y-77846324D01*
X121925376Y-78035105D01*
X121685105Y-78275376D01*
X121496324Y-78557906D01*
X121366290Y-78871836D01*
X121300000Y-79205102D01*
X116101870Y-79205102D01*
X116087983Y-79167408D01*
X116040016Y-79077668D01*
X115858355Y-78979422D01*
X115111777Y-79726000D01*
X114758223Y-79726000D01*
X114011645Y-78979422D01*
X113829984Y-79077668D01*
X113724734Y-79305704D01*
X113665993Y-79549890D01*
X113656019Y-79800844D01*
X101226684Y-79800844D01*
X101129128Y-79565325D01*
X100967707Y-79323742D01*
X100762258Y-79118293D01*
X100520675Y-78956872D01*
X100252242Y-78845683D01*
X100035874Y-78802645D01*
X114188422Y-78802645D01*
X114935000Y-79549223D01*
X115681578Y-78802645D01*
X115583332Y-78620984D01*
X115355296Y-78515734D01*
X115111110Y-78456993D01*
X114860156Y-78447019D01*
X114612077Y-78486196D01*
X114376408Y-78573017D01*
X114286668Y-78620984D01*
X114188422Y-78802645D01*
X100035874Y-78802645D01*
X99967275Y-78789000D01*
X99676725Y-78789000D01*
X99391758Y-78845683D01*
X99123325Y-78956872D01*
X98881742Y-79118293D01*
X98676293Y-79323742D01*
X98552000Y-79509759D01*
X98427707Y-79323742D01*
X98222258Y-79118293D01*
X97980675Y-78956872D01*
X97712242Y-78845683D01*
X97427275Y-78789000D01*
X97136725Y-78789000D01*
X96851758Y-78845683D01*
X96583325Y-78956872D01*
X96341742Y-79118293D01*
X96136293Y-79323742D01*
X96012000Y-79509759D01*
X95887707Y-79323742D01*
X95682258Y-79118293D01*
X95440675Y-78956872D01*
X95172242Y-78845683D01*
X94887275Y-78789000D01*
X94596725Y-78789000D01*
X94311758Y-78845683D01*
X94043325Y-78956872D01*
X93801742Y-79118293D01*
X93596293Y-79323742D01*
X93434872Y-79565325D01*
X93333668Y-79809653D01*
X93302027Y-79724944D01*
X93175726Y-79520697D01*
X93012005Y-79345015D01*
X92817156Y-79204649D01*
X92598667Y-79104993D01*
X92516093Y-79079951D01*
X92327000Y-79139677D01*
X92077000Y-79139677D01*
X91887907Y-79079951D01*
X91805333Y-79104993D01*
X91586844Y-79204649D01*
X91391995Y-79345015D01*
X91228274Y-79520697D01*
X91101973Y-79724944D01*
X91017945Y-79949906D01*
X90846055Y-79949906D01*
X90762027Y-79724944D01*
X90635726Y-79520697D01*
X90472005Y-79345015D01*
X90277156Y-79204649D01*
X90058667Y-79104993D01*
X89976093Y-79079951D01*
X89787000Y-79139677D01*
X89537000Y-79139677D01*
X89347907Y-79079951D01*
X89265333Y-79104993D01*
X89046844Y-79204649D01*
X88851995Y-79345015D01*
X88688274Y-79520697D01*
X88561973Y-79724944D01*
X88477945Y-79949906D01*
X88306055Y-79949906D01*
X88222027Y-79724944D01*
X88095726Y-79520697D01*
X87932005Y-79345015D01*
X87737156Y-79204649D01*
X87518667Y-79104993D01*
X87436093Y-79079951D01*
X87247000Y-79139677D01*
X86997000Y-79139677D01*
X86807907Y-79079951D01*
X86725333Y-79104993D01*
X86506844Y-79204649D01*
X86311995Y-79345015D01*
X86148274Y-79520697D01*
X86021973Y-79724944D01*
X85937945Y-79949906D01*
X85766055Y-79949906D01*
X85682027Y-79724944D01*
X85555726Y-79520697D01*
X85392005Y-79345015D01*
X85197156Y-79204649D01*
X84978667Y-79104993D01*
X84896093Y-79079951D01*
X84707000Y-79139677D01*
X84457000Y-79139677D01*
X84267907Y-79079951D01*
X84185333Y-79104993D01*
X83966844Y-79204649D01*
X83771995Y-79345015D01*
X83608274Y-79520697D01*
X83481973Y-79724944D01*
X83450332Y-79809653D01*
X83349128Y-79565325D01*
X83187707Y-79323742D01*
X82982258Y-79118293D01*
X82740675Y-78956872D01*
X82472242Y-78845683D01*
X82187275Y-78789000D01*
X81896725Y-78789000D01*
X81611758Y-78845683D01*
X81343325Y-78956872D01*
X81101742Y-79118293D01*
X80896293Y-79323742D01*
X80772000Y-79509759D01*
X80647707Y-79323742D01*
X80442258Y-79118293D01*
X80200675Y-78956872D01*
X79932242Y-78845683D01*
X79647275Y-78789000D01*
X79356725Y-78789000D01*
X79071758Y-78845683D01*
X78803325Y-78956872D01*
X78561742Y-79118293D01*
X78356293Y-79323742D01*
X78194872Y-79565325D01*
X78083683Y-79833758D01*
X78027000Y-80118725D01*
X78027000Y-80409275D01*
X78083683Y-80694242D01*
X78194872Y-80962675D01*
X78356293Y-81204258D01*
X78499248Y-81347213D01*
X78411666Y-81373781D01*
X78303089Y-81431817D01*
X78207920Y-81509920D01*
X78129817Y-81605089D01*
X78071781Y-81713666D01*
X78036043Y-81831479D01*
X78023976Y-81954000D01*
X76850000Y-81954000D01*
X76850000Y-78731792D01*
X76888291Y-78341273D01*
X76992471Y-77996209D01*
X77161691Y-77677951D01*
X77389507Y-77398622D01*
X77667237Y-77168864D01*
X77984306Y-76997426D01*
X78328633Y-76890839D01*
X78717191Y-76850000D01*
X123668208Y-76850000D01*
X124058727Y-76888291D01*
G04 #@! TA.AperFunction,Conductor*
D18*
G36*
X124058727Y-76888291D02*
G01*
X124403791Y-76992471D01*
X124722049Y-77161691D01*
X125001378Y-77389507D01*
X125231136Y-77667237D01*
X125402574Y-77984306D01*
X125509161Y-78328633D01*
X125550001Y-78717200D01*
X125550000Y-109613168D01*
X125538970Y-109596660D01*
X125173340Y-109231030D01*
X124743404Y-108943755D01*
X124265684Y-108745878D01*
X123758540Y-108645000D01*
X123241460Y-108645000D01*
X122734316Y-108745878D01*
X122256596Y-108943755D01*
X122102758Y-109046547D01*
X122915477Y-108233828D01*
X122943132Y-108211132D01*
X122976473Y-108170507D01*
X123033731Y-108100737D01*
X123101053Y-107974788D01*
X123114798Y-107929475D01*
X123142509Y-107838125D01*
X123153000Y-107731607D01*
X123153000Y-107731597D01*
X123156506Y-107696000D01*
X123153000Y-107660403D01*
X123153000Y-102179918D01*
X123247725Y-102038152D01*
X123317453Y-101869813D01*
X123353000Y-101691105D01*
X123353000Y-101508895D01*
X123317453Y-101330187D01*
X123247725Y-101161848D01*
X123146495Y-101010347D01*
X123017653Y-100881505D01*
X122866152Y-100780275D01*
X122697813Y-100710547D01*
X122519105Y-100675000D01*
X122336895Y-100675000D01*
X122158187Y-100710547D01*
X121989848Y-100780275D01*
X121920000Y-100826946D01*
X121850152Y-100780275D01*
X121681813Y-100710547D01*
X121503105Y-100675000D01*
X121320895Y-100675000D01*
X121142187Y-100710547D01*
X120973848Y-100780275D01*
X120822347Y-100881505D01*
X120693505Y-101010347D01*
X120592275Y-101161848D01*
X120522547Y-101330187D01*
X120487000Y-101508895D01*
X120487000Y-101691105D01*
X120522547Y-101869813D01*
X120592275Y-102038152D01*
X120687000Y-102179918D01*
X120687001Y-107141694D01*
X119841696Y-107987000D01*
X115895918Y-107987000D01*
X115754152Y-107892275D01*
X115585813Y-107822547D01*
X115407105Y-107787000D01*
X115224895Y-107787000D01*
X115046187Y-107822547D01*
X114877848Y-107892275D01*
X114736082Y-107987000D01*
X110307918Y-107987000D01*
X110166152Y-107892275D01*
X109997813Y-107822547D01*
X109819105Y-107787000D01*
X109636895Y-107787000D01*
X109458187Y-107822547D01*
X109289848Y-107892275D01*
X109138347Y-107993505D01*
X109009505Y-108122347D01*
X108908275Y-108273848D01*
X108838547Y-108442187D01*
X108803000Y-108620895D01*
X108803000Y-108749000D01*
X103170305Y-108749000D01*
X103030716Y-108609411D01*
X102997453Y-108442187D01*
X102927725Y-108273848D01*
X102826495Y-108122347D01*
X102697653Y-107993505D01*
X102546152Y-107892275D01*
X102377813Y-107822547D01*
X102199105Y-107787000D01*
X102016895Y-107787000D01*
X101838187Y-107822547D01*
X101669848Y-107892275D01*
X101518347Y-107993505D01*
X101389505Y-108122347D01*
X101288275Y-108273848D01*
X101218547Y-108442187D01*
X101183000Y-108620895D01*
X101183000Y-108749000D01*
X97582305Y-108749000D01*
X97442716Y-108609411D01*
X97409453Y-108442187D01*
X97339725Y-108273848D01*
X97238495Y-108122347D01*
X97109653Y-107993505D01*
X96958152Y-107892275D01*
X96789813Y-107822547D01*
X96611105Y-107787000D01*
X96428895Y-107787000D01*
X96250187Y-107822547D01*
X96081848Y-107892275D01*
X95930347Y-107993505D01*
X95801505Y-108122347D01*
X95700275Y-108273848D01*
X95630547Y-108442187D01*
X95595000Y-108620895D01*
X95595000Y-108803105D01*
X95630547Y-108981813D01*
X95700275Y-109150152D01*
X95801505Y-109301653D01*
X95930347Y-109430495D01*
X96081848Y-109531725D01*
X96250187Y-109601453D01*
X96257964Y-109603000D01*
X95543206Y-109603000D01*
X95538970Y-109596660D01*
X95173340Y-109231030D01*
X94743404Y-108943755D01*
X94265684Y-108745878D01*
X93758540Y-108645000D01*
X93241460Y-108645000D01*
X92734316Y-108745878D01*
X92256596Y-108943755D01*
X91826660Y-109231030D01*
X91461030Y-109596660D01*
X91173755Y-110026596D01*
X91071575Y-110273283D01*
X84451066Y-106490135D01*
X84364839Y-106447852D01*
X84222269Y-106404603D01*
X84074000Y-106390000D01*
X76850000Y-106390000D01*
X76850000Y-105714140D01*
X80898637Y-105714140D01*
X81021053Y-105916275D01*
X81283218Y-106041529D01*
X81564781Y-106113231D01*
X81854922Y-106128625D01*
X82142492Y-106087120D01*
X82416439Y-105990310D01*
X82554947Y-105916275D01*
X82677363Y-105714140D01*
X81788000Y-104824777D01*
X80898637Y-105714140D01*
X76850000Y-105714140D01*
X76850000Y-104714922D01*
X80307375Y-104714922D01*
X80348880Y-105002492D01*
X80445690Y-105276439D01*
X80519725Y-105414947D01*
X80721860Y-105537363D01*
X81611223Y-104648000D01*
X81964777Y-104648000D01*
X82854140Y-105537363D01*
X83056275Y-105414947D01*
X83181529Y-105152782D01*
X83253231Y-104871219D01*
X83268625Y-104581078D01*
X83227120Y-104293508D01*
X83130310Y-104019561D01*
X83056275Y-103881053D01*
X82854140Y-103758637D01*
X81964777Y-104648000D01*
X81611223Y-104648000D01*
X80721860Y-103758637D01*
X80519725Y-103881053D01*
X80394471Y-104143218D01*
X80322769Y-104424781D01*
X80307375Y-104714922D01*
X76850000Y-104714922D01*
X76850000Y-103581860D01*
X80898637Y-103581860D01*
X81788000Y-104471223D01*
X82677363Y-103581860D01*
X82554947Y-103379725D01*
X82292782Y-103254471D01*
X82011219Y-103182769D01*
X81721078Y-103167375D01*
X81433508Y-103208880D01*
X81159561Y-103305690D01*
X81021053Y-103379725D01*
X80898637Y-103581860D01*
X76850000Y-103581860D01*
X76850000Y-100062611D01*
X76913505Y-100157653D01*
X77042347Y-100286495D01*
X77193848Y-100387725D01*
X77362187Y-100457453D01*
X77529412Y-100490716D01*
X78348128Y-101309433D01*
X78358547Y-101361813D01*
X78428275Y-101530152D01*
X78529505Y-101681653D01*
X78658347Y-101810495D01*
X78809848Y-101911725D01*
X78978187Y-101981453D01*
X79156895Y-102017000D01*
X79339105Y-102017000D01*
X79517813Y-101981453D01*
X79686152Y-101911725D01*
X79837653Y-101810495D01*
X79966495Y-101681653D01*
X80067725Y-101530152D01*
X80137453Y-101361813D01*
X80173000Y-101183105D01*
X80173000Y-101000895D01*
X80137453Y-100822187D01*
X80067725Y-100653848D01*
X80021054Y-100584000D01*
X80067725Y-100514152D01*
X80137453Y-100345813D01*
X80173000Y-100167105D01*
X80173000Y-99984895D01*
X80137453Y-99806187D01*
X80067725Y-99637848D01*
X79966495Y-99486347D01*
X79837653Y-99357505D01*
X79686152Y-99256275D01*
X79517813Y-99186547D01*
X79339105Y-99151000D01*
X79292392Y-99151000D01*
X78572361Y-98430970D01*
X78539098Y-98263745D01*
X78469370Y-98095406D01*
X78368140Y-97943905D01*
X78239298Y-97815063D01*
X78087797Y-97713833D01*
X77919458Y-97644105D01*
X77740750Y-97608558D01*
X77558540Y-97608558D01*
X77379832Y-97644105D01*
X77211493Y-97713833D01*
X77059992Y-97815063D01*
X76931150Y-97943905D01*
X76850000Y-98065354D01*
X76850000Y-93634895D01*
X88991000Y-93634895D01*
X88991000Y-93817105D01*
X89026547Y-93995813D01*
X89096275Y-94164152D01*
X89197505Y-94315653D01*
X89326347Y-94444495D01*
X89477848Y-94545725D01*
X89646187Y-94615453D01*
X89824895Y-94651000D01*
X90007105Y-94651000D01*
X90185813Y-94615453D01*
X90354152Y-94545725D01*
X90495918Y-94451000D01*
X91582391Y-94451000D01*
X91617988Y-94454506D01*
X91653585Y-94451000D01*
X91653596Y-94451000D01*
X91760114Y-94440509D01*
X91896777Y-94399053D01*
X92022726Y-94331731D01*
X92133121Y-94241132D01*
X92155826Y-94213466D01*
X92734397Y-93634895D01*
X106555000Y-93634895D01*
X106555000Y-93817105D01*
X106590547Y-93995813D01*
X106660275Y-94164152D01*
X106761505Y-94315653D01*
X106890347Y-94444495D01*
X107041848Y-94545725D01*
X107210187Y-94615453D01*
X107388895Y-94651000D01*
X107571105Y-94651000D01*
X107749813Y-94615453D01*
X107918152Y-94545725D01*
X108059918Y-94451000D01*
X109148082Y-94451000D01*
X109289848Y-94545725D01*
X109458187Y-94615453D01*
X109636895Y-94651000D01*
X109819105Y-94651000D01*
X109997813Y-94615453D01*
X110166152Y-94545725D01*
X110317653Y-94444495D01*
X110446495Y-94315653D01*
X110547725Y-94164152D01*
X110617453Y-93995813D01*
X110653000Y-93817105D01*
X110653000Y-93634895D01*
X115153000Y-93634895D01*
X115153000Y-93817105D01*
X115188547Y-93995813D01*
X115258275Y-94164152D01*
X115359505Y-94315653D01*
X115488347Y-94444495D01*
X115639848Y-94545725D01*
X115808187Y-94615453D01*
X115986895Y-94651000D01*
X116169105Y-94651000D01*
X116347813Y-94615453D01*
X116516152Y-94545725D01*
X116657918Y-94451000D01*
X117784082Y-94451000D01*
X117925848Y-94545725D01*
X118094187Y-94615453D01*
X118272895Y-94651000D01*
X118455105Y-94651000D01*
X118633813Y-94615453D01*
X118802152Y-94545725D01*
X118953653Y-94444495D01*
X119082495Y-94315653D01*
X119183725Y-94164152D01*
X119253453Y-93995813D01*
X119289000Y-93817105D01*
X119289000Y-93634895D01*
X119253453Y-93456187D01*
X119183725Y-93287848D01*
X119082495Y-93136347D01*
X118953653Y-93007505D01*
X118802152Y-92906275D01*
X118633813Y-92836547D01*
X118455105Y-92801000D01*
X118272895Y-92801000D01*
X118094187Y-92836547D01*
X117925848Y-92906275D01*
X117784082Y-93001000D01*
X116657918Y-93001000D01*
X116516152Y-92906275D01*
X116347813Y-92836547D01*
X116169105Y-92801000D01*
X115986895Y-92801000D01*
X115808187Y-92836547D01*
X115639848Y-92906275D01*
X115488347Y-93007505D01*
X115359505Y-93136347D01*
X115258275Y-93287848D01*
X115188547Y-93456187D01*
X115153000Y-93634895D01*
X110653000Y-93634895D01*
X110617453Y-93456187D01*
X110547725Y-93287848D01*
X110446495Y-93136347D01*
X110317653Y-93007505D01*
X110166152Y-92906275D01*
X109997813Y-92836547D01*
X109819105Y-92801000D01*
X109636895Y-92801000D01*
X109458187Y-92836547D01*
X109289848Y-92906275D01*
X109148082Y-93001000D01*
X108059918Y-93001000D01*
X107918152Y-92906275D01*
X107749813Y-92836547D01*
X107571105Y-92801000D01*
X107388895Y-92801000D01*
X107210187Y-92836547D01*
X107041848Y-92906275D01*
X106890347Y-93007505D01*
X106761505Y-93136347D01*
X106660275Y-93287848D01*
X106590547Y-93456187D01*
X106555000Y-93634895D01*
X92734397Y-93634895D01*
X93917583Y-92451710D01*
X94084807Y-92418447D01*
X94253146Y-92348719D01*
X94404647Y-92247489D01*
X94533489Y-92118647D01*
X94634719Y-91967146D01*
X94704447Y-91798807D01*
X94739994Y-91620099D01*
X94739994Y-91437889D01*
X94704447Y-91259181D01*
X94634719Y-91090842D01*
X94533489Y-90939341D01*
X94404647Y-90810499D01*
X94253146Y-90709269D01*
X94084807Y-90639541D01*
X93906099Y-90603994D01*
X93723889Y-90603994D01*
X93545181Y-90639541D01*
X93376842Y-90709269D01*
X93225341Y-90810499D01*
X93096499Y-90939341D01*
X92995269Y-91090842D01*
X92925541Y-91259181D01*
X92892278Y-91426405D01*
X91317684Y-93001000D01*
X90495918Y-93001000D01*
X90354152Y-92906275D01*
X90185813Y-92836547D01*
X90007105Y-92801000D01*
X89824895Y-92801000D01*
X89646187Y-92836547D01*
X89477848Y-92906275D01*
X89326347Y-93007505D01*
X89197505Y-93136347D01*
X89096275Y-93287848D01*
X89026547Y-93456187D01*
X88991000Y-93634895D01*
X76850000Y-93634895D01*
X76850000Y-85717630D01*
X86407735Y-85717630D01*
X86407735Y-85899840D01*
X86443282Y-86078548D01*
X86513010Y-86246887D01*
X86614240Y-86398388D01*
X86743082Y-86527230D01*
X86894583Y-86628460D01*
X87062922Y-86698188D01*
X87241630Y-86733735D01*
X87423840Y-86733735D01*
X87602548Y-86698188D01*
X87770887Y-86628460D01*
X87922388Y-86527230D01*
X88051230Y-86398388D01*
X88152460Y-86246887D01*
X88222188Y-86078548D01*
X88255451Y-85911324D01*
X88351775Y-85815000D01*
X91647696Y-85815000D01*
X91731000Y-85898305D01*
X91731001Y-86984042D01*
X91678187Y-86994547D01*
X91509848Y-87064275D01*
X91358347Y-87165505D01*
X91229505Y-87294347D01*
X91128275Y-87445848D01*
X91058547Y-87614187D01*
X91023000Y-87792895D01*
X91023000Y-87975105D01*
X91058547Y-88153813D01*
X91128275Y-88322152D01*
X91229505Y-88473653D01*
X91358347Y-88602495D01*
X91509848Y-88703725D01*
X91678187Y-88773453D01*
X91856895Y-88809000D01*
X92039105Y-88809000D01*
X92217813Y-88773453D01*
X92386152Y-88703725D01*
X92537653Y-88602495D01*
X92666495Y-88473653D01*
X92767725Y-88322152D01*
X92837453Y-88153813D01*
X92870716Y-87986589D01*
X92943477Y-87913828D01*
X92971132Y-87891132D01*
X93061731Y-87780737D01*
X93129053Y-87654788D01*
X93170509Y-87518125D01*
X93181000Y-87411607D01*
X93181000Y-87411598D01*
X93184506Y-87376001D01*
X93181000Y-87340404D01*
X93181000Y-86992895D01*
X95341000Y-86992895D01*
X95341000Y-87175105D01*
X95376547Y-87353813D01*
X95446275Y-87522152D01*
X95547505Y-87673653D01*
X95676347Y-87802495D01*
X95827848Y-87903725D01*
X95996187Y-87973453D01*
X96174895Y-88009000D01*
X96357105Y-88009000D01*
X96535813Y-87973453D01*
X96704152Y-87903725D01*
X96845918Y-87809000D01*
X97627000Y-87809000D01*
X97627000Y-87937105D01*
X97662547Y-88115813D01*
X97732275Y-88284152D01*
X97827001Y-88425919D01*
X97827000Y-89806082D01*
X97732275Y-89947848D01*
X97662547Y-90116187D01*
X97627000Y-90294895D01*
X97627000Y-90477105D01*
X97662547Y-90655813D01*
X97732275Y-90824152D01*
X97833505Y-90975653D01*
X97962347Y-91104495D01*
X98113848Y-91205725D01*
X98282187Y-91275453D01*
X98460895Y-91311000D01*
X98643105Y-91311000D01*
X98821813Y-91275453D01*
X98990152Y-91205725D01*
X99131918Y-91111000D01*
X100040403Y-91111000D01*
X100076000Y-91114506D01*
X100111597Y-91111000D01*
X100111607Y-91111000D01*
X100218125Y-91100509D01*
X100354788Y-91059053D01*
X100480737Y-90991731D01*
X100591132Y-90901132D01*
X100613832Y-90873472D01*
X100911503Y-90575801D01*
X107860000Y-90575801D01*
X107860000Y-90876199D01*
X107918605Y-91170826D01*
X108033562Y-91448358D01*
X108200455Y-91698131D01*
X108412869Y-91910545D01*
X108662642Y-92077438D01*
X108940174Y-92192395D01*
X109234801Y-92251000D01*
X109535199Y-92251000D01*
X109829826Y-92192395D01*
X110107358Y-92077438D01*
X110357131Y-91910545D01*
X110569545Y-91698131D01*
X110736438Y-91448358D01*
X110851395Y-91170826D01*
X110895448Y-90949355D01*
X120138422Y-90949355D01*
X120236668Y-91131016D01*
X120464704Y-91236266D01*
X120708890Y-91295007D01*
X120959844Y-91304981D01*
X121207923Y-91265804D01*
X121443592Y-91178983D01*
X121533332Y-91131016D01*
X121631578Y-90949355D01*
X120885000Y-90202777D01*
X120138422Y-90949355D01*
X110895448Y-90949355D01*
X110910000Y-90876199D01*
X110910000Y-90575801D01*
X110851395Y-90281174D01*
X110736438Y-90003642D01*
X110569545Y-89753869D01*
X110357131Y-89541455D01*
X110107358Y-89374562D01*
X109829826Y-89259605D01*
X109535199Y-89201000D01*
X109234801Y-89201000D01*
X108940174Y-89259605D01*
X108662642Y-89374562D01*
X108412869Y-89541455D01*
X108200455Y-89753869D01*
X108033562Y-90003642D01*
X107918605Y-90281174D01*
X107860000Y-90575801D01*
X100911503Y-90575801D01*
X101608305Y-89879000D01*
X102208731Y-89879000D01*
X102309968Y-90030511D01*
X102501489Y-90222032D01*
X102726693Y-90372509D01*
X102976927Y-90476159D01*
X103242574Y-90529000D01*
X103513426Y-90529000D01*
X103779073Y-90476159D01*
X104029307Y-90372509D01*
X104254511Y-90222032D01*
X104446032Y-90030511D01*
X104596509Y-89805307D01*
X104700159Y-89555073D01*
X104753000Y-89289426D01*
X104753000Y-89018574D01*
X104700159Y-88752927D01*
X104596509Y-88502693D01*
X104446032Y-88277489D01*
X104254511Y-88085968D01*
X104029307Y-87935491D01*
X103779073Y-87831841D01*
X103513426Y-87779000D01*
X103242574Y-87779000D01*
X102976927Y-87831841D01*
X102726693Y-87935491D01*
X102501489Y-88085968D01*
X102309968Y-88277489D01*
X102208731Y-88429000D01*
X101343596Y-88429000D01*
X101307999Y-88425494D01*
X101272402Y-88429000D01*
X101272393Y-88429000D01*
X101165875Y-88439491D01*
X101029212Y-88480947D01*
X100903263Y-88548269D01*
X100820525Y-88616170D01*
X100820523Y-88616172D01*
X100792868Y-88638868D01*
X100770172Y-88666523D01*
X99775696Y-89661000D01*
X99277000Y-89661000D01*
X99277000Y-88425918D01*
X99371725Y-88284152D01*
X99441453Y-88115813D01*
X99477000Y-87937105D01*
X99477000Y-87809000D01*
X100258082Y-87809000D01*
X100399848Y-87903725D01*
X100568187Y-87973453D01*
X100746895Y-88009000D01*
X100929105Y-88009000D01*
X101107813Y-87973453D01*
X101276152Y-87903725D01*
X101427653Y-87802495D01*
X101556495Y-87673653D01*
X101657725Y-87522152D01*
X101727453Y-87353813D01*
X101763000Y-87175105D01*
X101763000Y-86992895D01*
X101727453Y-86814187D01*
X101657725Y-86645848D01*
X101556495Y-86494347D01*
X101427653Y-86365505D01*
X101309221Y-86286371D01*
X101280323Y-86141092D01*
X101210595Y-85972753D01*
X101109365Y-85821252D01*
X100980523Y-85692410D01*
X100829022Y-85591180D01*
X100710600Y-85542128D01*
X100703920Y-85526000D01*
X106706976Y-85526000D01*
X106706976Y-87726000D01*
X106734415Y-88004594D01*
X106815678Y-88272481D01*
X106947641Y-88519368D01*
X107125235Y-88735765D01*
X107341632Y-88913359D01*
X107588519Y-89045322D01*
X107856406Y-89126585D01*
X108135000Y-89154024D01*
X109735000Y-89154024D01*
X110013594Y-89126585D01*
X110281481Y-89045322D01*
X110528368Y-88913359D01*
X110744765Y-88735765D01*
X110922359Y-88519368D01*
X111054322Y-88272481D01*
X111135585Y-88004594D01*
X111163024Y-87726000D01*
X111163024Y-85526000D01*
X118706976Y-85526000D01*
X118706976Y-87726000D01*
X118734415Y-88004594D01*
X118815678Y-88272481D01*
X118947641Y-88519368D01*
X119125235Y-88735765D01*
X119341632Y-88913359D01*
X119588519Y-89045322D01*
X119856406Y-89126585D01*
X119962932Y-89137077D01*
X119891115Y-89208894D01*
X119961644Y-89279423D01*
X119779984Y-89377668D01*
X119674734Y-89605704D01*
X119615993Y-89849890D01*
X119606019Y-90100844D01*
X119645196Y-90348923D01*
X119732017Y-90584592D01*
X119779984Y-90674332D01*
X119961645Y-90772578D01*
X120708223Y-90026000D01*
X120694081Y-90011858D01*
X120870858Y-89835081D01*
X120885000Y-89849223D01*
X120899142Y-89835081D01*
X121075919Y-90011858D01*
X121061777Y-90026000D01*
X121808355Y-90772578D01*
X121990016Y-90674332D01*
X122095266Y-90446296D01*
X122154007Y-90202110D01*
X122163981Y-89951156D01*
X122124804Y-89703077D01*
X122037983Y-89467408D01*
X121990016Y-89377668D01*
X121808356Y-89279423D01*
X121878885Y-89208894D01*
X121816034Y-89146043D01*
X122013594Y-89126585D01*
X122281481Y-89045322D01*
X122528368Y-88913359D01*
X122744765Y-88735765D01*
X122922359Y-88519368D01*
X123054322Y-88272481D01*
X123135585Y-88004594D01*
X123163024Y-87726000D01*
X123163024Y-85526000D01*
X123135585Y-85247406D01*
X123054322Y-84979519D01*
X122926650Y-84740659D01*
X123093681Y-84809846D01*
X123325712Y-84856000D01*
X123562288Y-84856000D01*
X123794319Y-84809846D01*
X124012887Y-84719312D01*
X124209593Y-84587878D01*
X124376878Y-84420593D01*
X124508312Y-84223887D01*
X124598846Y-84005319D01*
X124645000Y-83773288D01*
X124645000Y-83536712D01*
X124598846Y-83304681D01*
X124508312Y-83086113D01*
X124376878Y-82889407D01*
X124209593Y-82722122D01*
X124012887Y-82590688D01*
X123794319Y-82500154D01*
X123562288Y-82454000D01*
X123325712Y-82454000D01*
X123093681Y-82500154D01*
X122875113Y-82590688D01*
X122678407Y-82722122D01*
X122511122Y-82889407D01*
X122379688Y-83086113D01*
X122289154Y-83304681D01*
X122243000Y-83536712D01*
X122243000Y-83773288D01*
X122289154Y-84005319D01*
X122379688Y-84223887D01*
X122416361Y-84278772D01*
X122281481Y-84206678D01*
X122013594Y-84125415D01*
X121735000Y-84097976D01*
X120135000Y-84097976D01*
X119856406Y-84125415D01*
X119588519Y-84206678D01*
X119341632Y-84338641D01*
X119125235Y-84516235D01*
X118947641Y-84732632D01*
X118815678Y-84979519D01*
X118734415Y-85247406D01*
X118706976Y-85526000D01*
X111163024Y-85526000D01*
X111135585Y-85247406D01*
X111054322Y-84979519D01*
X110922359Y-84732632D01*
X110744765Y-84516235D01*
X110528368Y-84338641D01*
X110281481Y-84206678D01*
X110013594Y-84125415D01*
X109735000Y-84097976D01*
X108135000Y-84097976D01*
X107856406Y-84125415D01*
X107588519Y-84206678D01*
X107341632Y-84338641D01*
X107125235Y-84516235D01*
X106947641Y-84732632D01*
X106815678Y-84979519D01*
X106734415Y-85247406D01*
X106706976Y-85526000D01*
X100703920Y-85526000D01*
X100641725Y-85375848D01*
X100540495Y-85224347D01*
X100411653Y-85095505D01*
X100260152Y-84994275D01*
X100091813Y-84924547D01*
X99913105Y-84889000D01*
X99730895Y-84889000D01*
X99552187Y-84924547D01*
X99383848Y-84994275D01*
X99242082Y-85089000D01*
X97861918Y-85089000D01*
X97720152Y-84994275D01*
X97551813Y-84924547D01*
X97373105Y-84889000D01*
X97190895Y-84889000D01*
X97012187Y-84924547D01*
X96843848Y-84994275D01*
X96692347Y-85095505D01*
X96563505Y-85224347D01*
X96462275Y-85375848D01*
X96392547Y-85544187D01*
X96391960Y-85547138D01*
X96278161Y-85594275D01*
X96126660Y-85695505D01*
X95997818Y-85824347D01*
X95896588Y-85975848D01*
X95826860Y-86144187D01*
X95799160Y-86283444D01*
X95676347Y-86365505D01*
X95547505Y-86494347D01*
X95446275Y-86645848D01*
X95376547Y-86814187D01*
X95341000Y-86992895D01*
X93181000Y-86992895D01*
X93181000Y-85633596D01*
X93184506Y-85597999D01*
X93181000Y-85562402D01*
X93181000Y-85562393D01*
X93170509Y-85455875D01*
X93129053Y-85319212D01*
X93061731Y-85193263D01*
X92993830Y-85110525D01*
X92993823Y-85110518D01*
X92971131Y-85082868D01*
X92943482Y-85060177D01*
X92485832Y-84602528D01*
X92463132Y-84574868D01*
X92352737Y-84484269D01*
X92226788Y-84416947D01*
X92090125Y-84375491D01*
X91983607Y-84365000D01*
X91983597Y-84365000D01*
X91948000Y-84361494D01*
X91912403Y-84365000D01*
X88087067Y-84365000D01*
X88051470Y-84361494D01*
X88015873Y-84365000D01*
X88015863Y-84365000D01*
X87909345Y-84375491D01*
X87772682Y-84416947D01*
X87646733Y-84484269D01*
X87563995Y-84552170D01*
X87563993Y-84552172D01*
X87536338Y-84574868D01*
X87513642Y-84602523D01*
X87230146Y-84886019D01*
X87062922Y-84919282D01*
X86894583Y-84989010D01*
X86743082Y-85090240D01*
X86614240Y-85219082D01*
X86513010Y-85370583D01*
X86443282Y-85538922D01*
X86407735Y-85717630D01*
X76850000Y-85717630D01*
X76850000Y-81954000D01*
X78023976Y-81954000D01*
X78023976Y-83654000D01*
X78036043Y-83776521D01*
X78071781Y-83894334D01*
X78129817Y-84002911D01*
X78207920Y-84098080D01*
X78303089Y-84176183D01*
X78411666Y-84234219D01*
X78529479Y-84269957D01*
X78652000Y-84282024D01*
X80352000Y-84282024D01*
X80474521Y-84269957D01*
X80592334Y-84234219D01*
X80700911Y-84176183D01*
X80796080Y-84098080D01*
X80874183Y-84002911D01*
X80932219Y-83894334D01*
X80958787Y-83806752D01*
X81101742Y-83949707D01*
X81343325Y-84111128D01*
X81611758Y-84222317D01*
X81896725Y-84279000D01*
X82187275Y-84279000D01*
X82472242Y-84222317D01*
X82740675Y-84111128D01*
X82982258Y-83949707D01*
X83187707Y-83744258D01*
X83312000Y-83558241D01*
X83436293Y-83744258D01*
X83641742Y-83949707D01*
X83883325Y-84111128D01*
X84151758Y-84222317D01*
X84436725Y-84279000D01*
X84727275Y-84279000D01*
X85012242Y-84222317D01*
X85280675Y-84111128D01*
X85522258Y-83949707D01*
X85727707Y-83744258D01*
X85852000Y-83558241D01*
X85976293Y-83744258D01*
X86181742Y-83949707D01*
X86423325Y-84111128D01*
X86691758Y-84222317D01*
X86976725Y-84279000D01*
X87267275Y-84279000D01*
X87552242Y-84222317D01*
X87820675Y-84111128D01*
X88062258Y-83949707D01*
X88267707Y-83744258D01*
X88392000Y-83558241D01*
X88516293Y-83744258D01*
X88721742Y-83949707D01*
X88963325Y-84111128D01*
X89231758Y-84222317D01*
X89516725Y-84279000D01*
X89807275Y-84279000D01*
X90092242Y-84222317D01*
X90360675Y-84111128D01*
X90602258Y-83949707D01*
X90807707Y-83744258D01*
X90969128Y-83502675D01*
X91070332Y-83258347D01*
X91101973Y-83343056D01*
X91228274Y-83547303D01*
X91391995Y-83722985D01*
X91586844Y-83863351D01*
X91805333Y-83963007D01*
X91887907Y-83988049D01*
X92077000Y-83928323D01*
X92077000Y-82929000D01*
X92057000Y-82929000D01*
X92057000Y-82679000D01*
X92077000Y-82679000D01*
X92077000Y-81679677D01*
X91887907Y-81619951D01*
X91805333Y-81644993D01*
X91586844Y-81744649D01*
X91391995Y-81885015D01*
X91228274Y-82060697D01*
X91101973Y-82264944D01*
X91070332Y-82349653D01*
X90969128Y-82105325D01*
X90807707Y-81863742D01*
X90602258Y-81658293D01*
X90360675Y-81496872D01*
X90117531Y-81396158D01*
X90277156Y-81323351D01*
X90472005Y-81182985D01*
X90635726Y-81007303D01*
X90762027Y-80803056D01*
X90846055Y-80578094D01*
X91017945Y-80578094D01*
X91101973Y-80803056D01*
X91228274Y-81007303D01*
X91391995Y-81182985D01*
X91586844Y-81323351D01*
X91805333Y-81423007D01*
X91887907Y-81448049D01*
X92077000Y-81388323D01*
X92077000Y-80389000D01*
X91077138Y-80389000D01*
X91017945Y-80578094D01*
X90846055Y-80578094D01*
X90786862Y-80389000D01*
X89787000Y-80389000D01*
X89787000Y-80409000D01*
X89537000Y-80409000D01*
X89537000Y-80389000D01*
X88537138Y-80389000D01*
X88477945Y-80578094D01*
X88561973Y-80803056D01*
X88688274Y-81007303D01*
X88851995Y-81182985D01*
X89046844Y-81323351D01*
X89206469Y-81396158D01*
X88963325Y-81496872D01*
X88721742Y-81658293D01*
X88516293Y-81863742D01*
X88392000Y-82049759D01*
X88267707Y-81863742D01*
X88062258Y-81658293D01*
X87820675Y-81496872D01*
X87577531Y-81396158D01*
X87737156Y-81323351D01*
X87932005Y-81182985D01*
X88095726Y-81007303D01*
X88222027Y-80803056D01*
X88306055Y-80578094D01*
X88246862Y-80389000D01*
X87247000Y-80389000D01*
X87247000Y-80409000D01*
X86997000Y-80409000D01*
X86997000Y-80389000D01*
X85997138Y-80389000D01*
X85937945Y-80578094D01*
X86021973Y-80803056D01*
X86148274Y-81007303D01*
X86311995Y-81182985D01*
X86506844Y-81323351D01*
X86666469Y-81396158D01*
X86423325Y-81496872D01*
X86181742Y-81658293D01*
X85976293Y-81863742D01*
X85852000Y-82049759D01*
X85727707Y-81863742D01*
X85522258Y-81658293D01*
X85280675Y-81496872D01*
X85037531Y-81396158D01*
X85197156Y-81323351D01*
X85392005Y-81182985D01*
X85555726Y-81007303D01*
X85682027Y-80803056D01*
X85766055Y-80578094D01*
X85706862Y-80389000D01*
X84707000Y-80389000D01*
X84707000Y-80409000D01*
X84457000Y-80409000D01*
X84457000Y-80389000D01*
X84437000Y-80389000D01*
X84437000Y-80139000D01*
X84457000Y-80139000D01*
X84457000Y-79139677D01*
X84707000Y-79139677D01*
X84707000Y-80139000D01*
X85706862Y-80139000D01*
X85766055Y-79949906D01*
X85937945Y-79949906D01*
X85997138Y-80139000D01*
X86997000Y-80139000D01*
X86997000Y-79139677D01*
X87247000Y-79139677D01*
X87247000Y-80139000D01*
X88246862Y-80139000D01*
X88306055Y-79949906D01*
X88477945Y-79949906D01*
X88537138Y-80139000D01*
X89537000Y-80139000D01*
X89537000Y-79139677D01*
X89787000Y-79139677D01*
X89787000Y-80139000D01*
X90786862Y-80139000D01*
X90846055Y-79949906D01*
X91017945Y-79949906D01*
X91077138Y-80139000D01*
X92077000Y-80139000D01*
X92077000Y-79139677D01*
X92327000Y-79139677D01*
X92327000Y-80139000D01*
X92347000Y-80139000D01*
X92347000Y-80389000D01*
X92327000Y-80389000D01*
X92327000Y-81388323D01*
X92516093Y-81448049D01*
X92598667Y-81423007D01*
X92817156Y-81323351D01*
X93012005Y-81182985D01*
X93175726Y-81007303D01*
X93302027Y-80803056D01*
X93333668Y-80718347D01*
X93434872Y-80962675D01*
X93596293Y-81204258D01*
X93801742Y-81409707D01*
X93987759Y-81534000D01*
X93801742Y-81658293D01*
X93596293Y-81863742D01*
X93434872Y-82105325D01*
X93333668Y-82349653D01*
X93302027Y-82264944D01*
X93175726Y-82060697D01*
X93012005Y-81885015D01*
X92817156Y-81744649D01*
X92598667Y-81644993D01*
X92516093Y-81619951D01*
X92327000Y-81679677D01*
X92327000Y-82679000D01*
X92347000Y-82679000D01*
X92347000Y-82929000D01*
X92327000Y-82929000D01*
X92327000Y-83928323D01*
X92516093Y-83988049D01*
X92598667Y-83963007D01*
X92817156Y-83863351D01*
X93012005Y-83722985D01*
X93175726Y-83547303D01*
X93302027Y-83343056D01*
X93333668Y-83258347D01*
X93434872Y-83502675D01*
X93596293Y-83744258D01*
X93801742Y-83949707D01*
X94043325Y-84111128D01*
X94311758Y-84222317D01*
X94596725Y-84279000D01*
X94887275Y-84279000D01*
X95172242Y-84222317D01*
X95440675Y-84111128D01*
X95682258Y-83949707D01*
X95887707Y-83744258D01*
X96012000Y-83558241D01*
X96136293Y-83744258D01*
X96341742Y-83949707D01*
X96583325Y-84111128D01*
X96851758Y-84222317D01*
X97136725Y-84279000D01*
X97427275Y-84279000D01*
X97712242Y-84222317D01*
X97980675Y-84111128D01*
X98222258Y-83949707D01*
X98427707Y-83744258D01*
X98552000Y-83558241D01*
X98676293Y-83744258D01*
X98881742Y-83949707D01*
X99123325Y-84111128D01*
X99391758Y-84222317D01*
X99676725Y-84279000D01*
X99967275Y-84279000D01*
X100252242Y-84222317D01*
X100520675Y-84111128D01*
X100762258Y-83949707D01*
X100967707Y-83744258D01*
X101129128Y-83502675D01*
X101240317Y-83234242D01*
X101297000Y-82949275D01*
X101297000Y-82658725D01*
X101240317Y-82373758D01*
X101199742Y-82275801D01*
X107860000Y-82275801D01*
X107860000Y-82576199D01*
X107918605Y-82870826D01*
X108033562Y-83148358D01*
X108200455Y-83398131D01*
X108412869Y-83610545D01*
X108662642Y-83777438D01*
X108940174Y-83892395D01*
X109234801Y-83951000D01*
X109535199Y-83951000D01*
X109829826Y-83892395D01*
X110107358Y-83777438D01*
X110357131Y-83610545D01*
X110569545Y-83398131D01*
X110736438Y-83148358D01*
X110851395Y-82870826D01*
X110910000Y-82576199D01*
X110910000Y-82275801D01*
X118960000Y-82275801D01*
X118960000Y-82576199D01*
X119018605Y-82870826D01*
X119133562Y-83148358D01*
X119300455Y-83398131D01*
X119512869Y-83610545D01*
X119762642Y-83777438D01*
X120040174Y-83892395D01*
X120334801Y-83951000D01*
X120635199Y-83951000D01*
X120929826Y-83892395D01*
X121207358Y-83777438D01*
X121457131Y-83610545D01*
X121669545Y-83398131D01*
X121836438Y-83148358D01*
X121951395Y-82870826D01*
X122010000Y-82576199D01*
X122010000Y-82275801D01*
X121951395Y-81981174D01*
X121836438Y-81703642D01*
X121669545Y-81453869D01*
X121457131Y-81241455D01*
X121207358Y-81074562D01*
X120929826Y-80959605D01*
X120635199Y-80901000D01*
X120334801Y-80901000D01*
X120040174Y-80959605D01*
X119762642Y-81074562D01*
X119512869Y-81241455D01*
X119300455Y-81453869D01*
X119133562Y-81703642D01*
X119018605Y-81981174D01*
X118960000Y-82275801D01*
X110910000Y-82275801D01*
X110851395Y-81981174D01*
X110736438Y-81703642D01*
X110569545Y-81453869D01*
X110357131Y-81241455D01*
X110107358Y-81074562D01*
X109829826Y-80959605D01*
X109535199Y-80901000D01*
X109234801Y-80901000D01*
X108940174Y-80959605D01*
X108662642Y-81074562D01*
X108412869Y-81241455D01*
X108200455Y-81453869D01*
X108033562Y-81703642D01*
X107918605Y-81981174D01*
X107860000Y-82275801D01*
X101199742Y-82275801D01*
X101129128Y-82105325D01*
X100967707Y-81863742D01*
X100762258Y-81658293D01*
X100576241Y-81534000D01*
X100762258Y-81409707D01*
X100967707Y-81204258D01*
X101129128Y-80962675D01*
X101240317Y-80694242D01*
X101249245Y-80649355D01*
X114188422Y-80649355D01*
X114286668Y-80831016D01*
X114514704Y-80936266D01*
X114758890Y-80995007D01*
X115009844Y-81004981D01*
X115257923Y-80965804D01*
X115493592Y-80878983D01*
X115583332Y-80831016D01*
X115681578Y-80649355D01*
X114935000Y-79902777D01*
X114188422Y-80649355D01*
X101249245Y-80649355D01*
X101297000Y-80409275D01*
X101297000Y-80118725D01*
X101240317Y-79833758D01*
X101226684Y-79800844D01*
X113656019Y-79800844D01*
X113695196Y-80048923D01*
X113782017Y-80284592D01*
X113829984Y-80374332D01*
X114011645Y-80472578D01*
X114758223Y-79726000D01*
X115111777Y-79726000D01*
X115858355Y-80472578D01*
X116040016Y-80374332D01*
X116145266Y-80146296D01*
X116204007Y-79902110D01*
X116213981Y-79651156D01*
X116174804Y-79403077D01*
X116101870Y-79205102D01*
X121300000Y-79205102D01*
X121300000Y-79544898D01*
X121366290Y-79878164D01*
X121496324Y-80192094D01*
X121685105Y-80474624D01*
X121925376Y-80714895D01*
X122207906Y-80903676D01*
X122521836Y-81033710D01*
X122855102Y-81100000D01*
X123194898Y-81100000D01*
X123528164Y-81033710D01*
X123842094Y-80903676D01*
X124124624Y-80714895D01*
X124364895Y-80474624D01*
X124553676Y-80192094D01*
X124683710Y-79878164D01*
X124750000Y-79544898D01*
X124750000Y-79205102D01*
X124683710Y-78871836D01*
X124553676Y-78557906D01*
X124364895Y-78275376D01*
X124124624Y-78035105D01*
X123842094Y-77846324D01*
X123528164Y-77716290D01*
X123194898Y-77650000D01*
X122855102Y-77650000D01*
X122521836Y-77716290D01*
X122207906Y-77846324D01*
X121925376Y-78035105D01*
X121685105Y-78275376D01*
X121496324Y-78557906D01*
X121366290Y-78871836D01*
X121300000Y-79205102D01*
X116101870Y-79205102D01*
X116087983Y-79167408D01*
X116040016Y-79077668D01*
X115858355Y-78979422D01*
X115111777Y-79726000D01*
X114758223Y-79726000D01*
X114011645Y-78979422D01*
X113829984Y-79077668D01*
X113724734Y-79305704D01*
X113665993Y-79549890D01*
X113656019Y-79800844D01*
X101226684Y-79800844D01*
X101129128Y-79565325D01*
X100967707Y-79323742D01*
X100762258Y-79118293D01*
X100520675Y-78956872D01*
X100252242Y-78845683D01*
X100035874Y-78802645D01*
X114188422Y-78802645D01*
X114935000Y-79549223D01*
X115681578Y-78802645D01*
X115583332Y-78620984D01*
X115355296Y-78515734D01*
X115111110Y-78456993D01*
X114860156Y-78447019D01*
X114612077Y-78486196D01*
X114376408Y-78573017D01*
X114286668Y-78620984D01*
X114188422Y-78802645D01*
X100035874Y-78802645D01*
X99967275Y-78789000D01*
X99676725Y-78789000D01*
X99391758Y-78845683D01*
X99123325Y-78956872D01*
X98881742Y-79118293D01*
X98676293Y-79323742D01*
X98552000Y-79509759D01*
X98427707Y-79323742D01*
X98222258Y-79118293D01*
X97980675Y-78956872D01*
X97712242Y-78845683D01*
X97427275Y-78789000D01*
X97136725Y-78789000D01*
X96851758Y-78845683D01*
X96583325Y-78956872D01*
X96341742Y-79118293D01*
X96136293Y-79323742D01*
X96012000Y-79509759D01*
X95887707Y-79323742D01*
X95682258Y-79118293D01*
X95440675Y-78956872D01*
X95172242Y-78845683D01*
X94887275Y-78789000D01*
X94596725Y-78789000D01*
X94311758Y-78845683D01*
X94043325Y-78956872D01*
X93801742Y-79118293D01*
X93596293Y-79323742D01*
X93434872Y-79565325D01*
X93333668Y-79809653D01*
X93302027Y-79724944D01*
X93175726Y-79520697D01*
X93012005Y-79345015D01*
X92817156Y-79204649D01*
X92598667Y-79104993D01*
X92516093Y-79079951D01*
X92327000Y-79139677D01*
X92077000Y-79139677D01*
X91887907Y-79079951D01*
X91805333Y-79104993D01*
X91586844Y-79204649D01*
X91391995Y-79345015D01*
X91228274Y-79520697D01*
X91101973Y-79724944D01*
X91017945Y-79949906D01*
X90846055Y-79949906D01*
X90762027Y-79724944D01*
X90635726Y-79520697D01*
X90472005Y-79345015D01*
X90277156Y-79204649D01*
X90058667Y-79104993D01*
X89976093Y-79079951D01*
X89787000Y-79139677D01*
X89537000Y-79139677D01*
X89347907Y-79079951D01*
X89265333Y-79104993D01*
X89046844Y-79204649D01*
X88851995Y-79345015D01*
X88688274Y-79520697D01*
X88561973Y-79724944D01*
X88477945Y-79949906D01*
X88306055Y-79949906D01*
X88222027Y-79724944D01*
X88095726Y-79520697D01*
X87932005Y-79345015D01*
X87737156Y-79204649D01*
X87518667Y-79104993D01*
X87436093Y-79079951D01*
X87247000Y-79139677D01*
X86997000Y-79139677D01*
X86807907Y-79079951D01*
X86725333Y-79104993D01*
X86506844Y-79204649D01*
X86311995Y-79345015D01*
X86148274Y-79520697D01*
X86021973Y-79724944D01*
X85937945Y-79949906D01*
X85766055Y-79949906D01*
X85682027Y-79724944D01*
X85555726Y-79520697D01*
X85392005Y-79345015D01*
X85197156Y-79204649D01*
X84978667Y-79104993D01*
X84896093Y-79079951D01*
X84707000Y-79139677D01*
X84457000Y-79139677D01*
X84267907Y-79079951D01*
X84185333Y-79104993D01*
X83966844Y-79204649D01*
X83771995Y-79345015D01*
X83608274Y-79520697D01*
X83481973Y-79724944D01*
X83450332Y-79809653D01*
X83349128Y-79565325D01*
X83187707Y-79323742D01*
X82982258Y-79118293D01*
X82740675Y-78956872D01*
X82472242Y-78845683D01*
X82187275Y-78789000D01*
X81896725Y-78789000D01*
X81611758Y-78845683D01*
X81343325Y-78956872D01*
X81101742Y-79118293D01*
X80896293Y-79323742D01*
X80772000Y-79509759D01*
X80647707Y-79323742D01*
X80442258Y-79118293D01*
X80200675Y-78956872D01*
X79932242Y-78845683D01*
X79647275Y-78789000D01*
X79356725Y-78789000D01*
X79071758Y-78845683D01*
X78803325Y-78956872D01*
X78561742Y-79118293D01*
X78356293Y-79323742D01*
X78194872Y-79565325D01*
X78083683Y-79833758D01*
X78027000Y-80118725D01*
X78027000Y-80409275D01*
X78083683Y-80694242D01*
X78194872Y-80962675D01*
X78356293Y-81204258D01*
X78499248Y-81347213D01*
X78411666Y-81373781D01*
X78303089Y-81431817D01*
X78207920Y-81509920D01*
X78129817Y-81605089D01*
X78071781Y-81713666D01*
X78036043Y-81831479D01*
X78023976Y-81954000D01*
X76850000Y-81954000D01*
X76850000Y-78731792D01*
X76888291Y-78341273D01*
X76992471Y-77996209D01*
X77161691Y-77677951D01*
X77389507Y-77398622D01*
X77667237Y-77168864D01*
X77984306Y-76997426D01*
X78328633Y-76890839D01*
X78717191Y-76850000D01*
X123668208Y-76850000D01*
X124058727Y-76888291D01*
G37*
G04 #@! TD.AperFunction*
D19*
X107315000Y-125540000D02*
X94869000Y-125540000D01*
X94869000Y-122087386D01*
X104589115Y-122087386D01*
X104715588Y-122329362D01*
X105039195Y-122434276D01*
X105377052Y-122474043D01*
X105716176Y-122447132D01*
X106043532Y-122354579D01*
X106104412Y-122329362D01*
X106230885Y-122087386D01*
X105410000Y-121266502D01*
X104589115Y-122087386D01*
X94869000Y-122087386D01*
X94869000Y-120706052D01*
X103674957Y-120706052D01*
X103701868Y-121045176D01*
X103794421Y-121372532D01*
X103819638Y-121433412D01*
X104061614Y-121559885D01*
X104882498Y-120739000D01*
X105937502Y-120739000D01*
X106758386Y-121559885D01*
X107000362Y-121433412D01*
X107105276Y-121109805D01*
X107145043Y-120771948D01*
X107118132Y-120432824D01*
X107025579Y-120105468D01*
X107000362Y-120044588D01*
X106758386Y-119918115D01*
X105937502Y-120739000D01*
X104882498Y-120739000D01*
X104061614Y-119918115D01*
X103819638Y-120044588D01*
X103714724Y-120368195D01*
X103674957Y-120706052D01*
X94869000Y-120706052D01*
X94869000Y-119390614D01*
X104589115Y-119390614D01*
X105410000Y-120211498D01*
X106230885Y-119390614D01*
X106104412Y-119148638D01*
X105780805Y-119043724D01*
X105442948Y-119003957D01*
X105103824Y-119030868D01*
X104776468Y-119123421D01*
X104715588Y-119148638D01*
X104589115Y-119390614D01*
X94869000Y-119390614D01*
X94869000Y-113514729D01*
X95174615Y-113310524D01*
X95540524Y-112944615D01*
X95828017Y-112514351D01*
X96026046Y-112036268D01*
X96127000Y-111528737D01*
X96127000Y-111011263D01*
X96026046Y-110503732D01*
X95967753Y-110363000D01*
X107315000Y-110363000D01*
X107315000Y-125540000D01*
G04 #@! TA.AperFunction,Conductor*
D18*
G36*
X107315000Y-125540000D02*
G01*
X94869000Y-125540000D01*
X94869000Y-122087386D01*
X104589115Y-122087386D01*
X104715588Y-122329362D01*
X105039195Y-122434276D01*
X105377052Y-122474043D01*
X105716176Y-122447132D01*
X106043532Y-122354579D01*
X106104412Y-122329362D01*
X106230885Y-122087386D01*
X105410000Y-121266502D01*
X104589115Y-122087386D01*
X94869000Y-122087386D01*
X94869000Y-120706052D01*
X103674957Y-120706052D01*
X103701868Y-121045176D01*
X103794421Y-121372532D01*
X103819638Y-121433412D01*
X104061614Y-121559885D01*
X104882498Y-120739000D01*
X105937502Y-120739000D01*
X106758386Y-121559885D01*
X107000362Y-121433412D01*
X107105276Y-121109805D01*
X107145043Y-120771948D01*
X107118132Y-120432824D01*
X107025579Y-120105468D01*
X107000362Y-120044588D01*
X106758386Y-119918115D01*
X105937502Y-120739000D01*
X104882498Y-120739000D01*
X104061614Y-119918115D01*
X103819638Y-120044588D01*
X103714724Y-120368195D01*
X103674957Y-120706052D01*
X94869000Y-120706052D01*
X94869000Y-119390614D01*
X104589115Y-119390614D01*
X105410000Y-120211498D01*
X106230885Y-119390614D01*
X106104412Y-119148638D01*
X105780805Y-119043724D01*
X105442948Y-119003957D01*
X105103824Y-119030868D01*
X104776468Y-119123421D01*
X104715588Y-119148638D01*
X104589115Y-119390614D01*
X94869000Y-119390614D01*
X94869000Y-113514729D01*
X95174615Y-113310524D01*
X95540524Y-112944615D01*
X95828017Y-112514351D01*
X96026046Y-112036268D01*
X96127000Y-111528737D01*
X96127000Y-111011263D01*
X96026046Y-110503732D01*
X95967753Y-110363000D01*
X107315000Y-110363000D01*
X107315000Y-125540000D01*
G37*
G04 #@! TD.AperFunction*
D19*
X121031000Y-110366011D02*
X120973954Y-110503732D01*
X120873000Y-111011263D01*
X120873000Y-111528737D01*
X120973954Y-112036268D01*
X121031000Y-112173989D01*
X121031000Y-125540000D01*
X108077000Y-125540000D01*
X108077000Y-122087386D01*
X109669115Y-122087386D01*
X109795588Y-122329362D01*
X110119195Y-122434276D01*
X110457052Y-122474043D01*
X110796176Y-122447132D01*
X111123532Y-122354579D01*
X111184412Y-122329362D01*
X111310885Y-122087386D01*
X110490000Y-121266502D01*
X109669115Y-122087386D01*
X108077000Y-122087386D01*
X108077000Y-120706052D01*
X108754957Y-120706052D01*
X108781868Y-121045176D01*
X108874421Y-121372532D01*
X108899638Y-121433412D01*
X109141614Y-121559885D01*
X109962498Y-120739000D01*
X111017502Y-120739000D01*
X111838386Y-121559885D01*
X112080362Y-121433412D01*
X112185276Y-121109805D01*
X112225043Y-120771948D01*
X112198132Y-120432824D01*
X112105579Y-120105468D01*
X112080362Y-120044588D01*
X111838386Y-119918115D01*
X111017502Y-120739000D01*
X109962498Y-120739000D01*
X109141614Y-119918115D01*
X108899638Y-120044588D01*
X108794724Y-120368195D01*
X108754957Y-120706052D01*
X108077000Y-120706052D01*
X108077000Y-119390614D01*
X109669115Y-119390614D01*
X110490000Y-120211498D01*
X111310885Y-119390614D01*
X111184412Y-119148638D01*
X110860805Y-119043724D01*
X110522948Y-119003957D01*
X110183824Y-119030868D01*
X109856468Y-119123421D01*
X109795588Y-119148638D01*
X109669115Y-119390614D01*
X108077000Y-119390614D01*
X108077000Y-110363000D01*
X121031000Y-110363000D01*
X121031000Y-110366011D01*
G04 #@! TA.AperFunction,Conductor*
D18*
G36*
X121031000Y-110366011D02*
G01*
X120973954Y-110503732D01*
X120873000Y-111011263D01*
X120873000Y-111528737D01*
X120973954Y-112036268D01*
X121031000Y-112173989D01*
X121031000Y-125540000D01*
X108077000Y-125540000D01*
X108077000Y-122087386D01*
X109669115Y-122087386D01*
X109795588Y-122329362D01*
X110119195Y-122434276D01*
X110457052Y-122474043D01*
X110796176Y-122447132D01*
X111123532Y-122354579D01*
X111184412Y-122329362D01*
X111310885Y-122087386D01*
X110490000Y-121266502D01*
X109669115Y-122087386D01*
X108077000Y-122087386D01*
X108077000Y-120706052D01*
X108754957Y-120706052D01*
X108781868Y-121045176D01*
X108874421Y-121372532D01*
X108899638Y-121433412D01*
X109141614Y-121559885D01*
X109962498Y-120739000D01*
X111017502Y-120739000D01*
X111838386Y-121559885D01*
X112080362Y-121433412D01*
X112185276Y-121109805D01*
X112225043Y-120771948D01*
X112198132Y-120432824D01*
X112105579Y-120105468D01*
X112080362Y-120044588D01*
X111838386Y-119918115D01*
X111017502Y-120739000D01*
X109962498Y-120739000D01*
X109141614Y-119918115D01*
X108899638Y-120044588D01*
X108794724Y-120368195D01*
X108754957Y-120706052D01*
X108077000Y-120706052D01*
X108077000Y-119390614D01*
X109669115Y-119390614D01*
X110490000Y-120211498D01*
X111310885Y-119390614D01*
X111184412Y-119148638D01*
X110860805Y-119043724D01*
X110522948Y-119003957D01*
X110183824Y-119030868D01*
X109856468Y-119123421D01*
X109795588Y-119148638D01*
X109669115Y-119390614D01*
X108077000Y-119390614D01*
X108077000Y-110363000D01*
X121031000Y-110363000D01*
X121031000Y-110366011D01*
G37*
G04 #@! TD.AperFunction*
D19*
X90873000Y-111181415D02*
X90873000Y-111528737D01*
X90973954Y-112036268D01*
X91171983Y-112514351D01*
X91459476Y-112944615D01*
X91825385Y-113310524D01*
X92255649Y-113598017D01*
X92733732Y-113796046D01*
X93241263Y-113897000D01*
X93758737Y-113897000D01*
X93980000Y-113852988D01*
X93980000Y-125413000D01*
X78738491Y-125413000D01*
X78368007Y-125376674D01*
X78048667Y-125280259D01*
X77754127Y-125123649D01*
X77495621Y-124912817D01*
X77282986Y-124655785D01*
X77124327Y-124362351D01*
X77025685Y-124043690D01*
X76987000Y-123675625D01*
X76987000Y-122841609D01*
X77513000Y-122841609D01*
X77513000Y-123208391D01*
X77584556Y-123568125D01*
X77724917Y-123906988D01*
X77928690Y-124211956D01*
X78188044Y-124471310D01*
X78493012Y-124675083D01*
X78831875Y-124815444D01*
X79191609Y-124887000D01*
X79558391Y-124887000D01*
X79918125Y-124815444D01*
X80256988Y-124675083D01*
X80561956Y-124471310D01*
X80821310Y-124211956D01*
X81025083Y-123906988D01*
X81165444Y-123568125D01*
X81237000Y-123208391D01*
X81237000Y-122841609D01*
X81165444Y-122481875D01*
X81025083Y-122143012D01*
X80893252Y-121945712D01*
X85967893Y-121945712D01*
X86075726Y-122220338D01*
X86382384Y-122371216D01*
X86712585Y-122459369D01*
X87053639Y-122481409D01*
X87392439Y-122436489D01*
X87715966Y-122326336D01*
X87914274Y-122220338D01*
X88022107Y-121945712D01*
X91047893Y-121945712D01*
X91155726Y-122220338D01*
X91462384Y-122371216D01*
X91792585Y-122459369D01*
X92133639Y-122481409D01*
X92472439Y-122436489D01*
X92795966Y-122326336D01*
X92994274Y-122220338D01*
X93102107Y-121945712D01*
X92075000Y-120918605D01*
X91047893Y-121945712D01*
X88022107Y-121945712D01*
X86995000Y-120918605D01*
X85967893Y-121945712D01*
X80893252Y-121945712D01*
X80821310Y-121838044D01*
X80561956Y-121578690D01*
X80256988Y-121374917D01*
X79918125Y-121234556D01*
X79558391Y-121163000D01*
X79191609Y-121163000D01*
X78831875Y-121234556D01*
X78493012Y-121374917D01*
X78188044Y-121578690D01*
X77928690Y-121838044D01*
X77724917Y-122143012D01*
X77584556Y-122481875D01*
X77513000Y-122841609D01*
X76987000Y-122841609D01*
X76987000Y-120797639D01*
X85252591Y-120797639D01*
X85297511Y-121136439D01*
X85407664Y-121459966D01*
X85513662Y-121658274D01*
X85788288Y-121766107D01*
X86815395Y-120739000D01*
X87174605Y-120739000D01*
X88201712Y-121766107D01*
X88476338Y-121658274D01*
X88627216Y-121351616D01*
X88715369Y-121021415D01*
X88729830Y-120797639D01*
X90332591Y-120797639D01*
X90377511Y-121136439D01*
X90487664Y-121459966D01*
X90593662Y-121658274D01*
X90868288Y-121766107D01*
X91895395Y-120739000D01*
X92254605Y-120739000D01*
X93281712Y-121766107D01*
X93556338Y-121658274D01*
X93707216Y-121351616D01*
X93795369Y-121021415D01*
X93817409Y-120680361D01*
X93772489Y-120341561D01*
X93662336Y-120018034D01*
X93556338Y-119819726D01*
X93281712Y-119711893D01*
X92254605Y-120739000D01*
X91895395Y-120739000D01*
X90868288Y-119711893D01*
X90593662Y-119819726D01*
X90442784Y-120126384D01*
X90354631Y-120456585D01*
X90332591Y-120797639D01*
X88729830Y-120797639D01*
X88737409Y-120680361D01*
X88692489Y-120341561D01*
X88582336Y-120018034D01*
X88476338Y-119819726D01*
X88201712Y-119711893D01*
X87174605Y-120739000D01*
X86815395Y-120739000D01*
X85788288Y-119711893D01*
X85513662Y-119819726D01*
X85362784Y-120126384D01*
X85274631Y-120456585D01*
X85252591Y-120797639D01*
X76987000Y-120797639D01*
X76987000Y-119532288D01*
X85967893Y-119532288D01*
X86995000Y-120559395D01*
X88022107Y-119532288D01*
X91047893Y-119532288D01*
X92075000Y-120559395D01*
X93102107Y-119532288D01*
X92994274Y-119257662D01*
X92687616Y-119106784D01*
X92357415Y-119018631D01*
X92016361Y-118996591D01*
X91677561Y-119041511D01*
X91354034Y-119151664D01*
X91155726Y-119257662D01*
X91047893Y-119532288D01*
X88022107Y-119532288D01*
X87914274Y-119257662D01*
X87607616Y-119106784D01*
X87277415Y-119018631D01*
X86936361Y-118996591D01*
X86597561Y-119041511D01*
X86274034Y-119151664D01*
X86075726Y-119257662D01*
X85967893Y-119532288D01*
X76987000Y-119532288D01*
X76987000Y-117813219D01*
X79307000Y-117813219D01*
X79307000Y-118076781D01*
X79358419Y-118335280D01*
X79459280Y-118578781D01*
X79605708Y-118797925D01*
X79792075Y-118984292D01*
X80011219Y-119130720D01*
X80254720Y-119231581D01*
X80513219Y-119283000D01*
X80776781Y-119283000D01*
X81035280Y-119231581D01*
X81278781Y-119130720D01*
X81497925Y-118984292D01*
X81684292Y-118797925D01*
X81830720Y-118578781D01*
X81931581Y-118335280D01*
X81983000Y-118076781D01*
X81983000Y-117813219D01*
X81931581Y-117554720D01*
X81830720Y-117311219D01*
X81684292Y-117092075D01*
X81497925Y-116905708D01*
X81278781Y-116759280D01*
X81035280Y-116658419D01*
X80776781Y-116607000D01*
X80513219Y-116607000D01*
X80254720Y-116658419D01*
X80011219Y-116759280D01*
X79792075Y-116905708D01*
X79605708Y-117092075D01*
X79459280Y-117311219D01*
X79358419Y-117554720D01*
X79307000Y-117813219D01*
X76987000Y-117813219D01*
X76987000Y-110934712D01*
X80760893Y-110934712D01*
X80868726Y-111209338D01*
X81175384Y-111360216D01*
X81505585Y-111448369D01*
X81846639Y-111470409D01*
X82185439Y-111425489D01*
X82508966Y-111315336D01*
X82707274Y-111209338D01*
X82815107Y-110934712D01*
X81788000Y-109907605D01*
X80760893Y-110934712D01*
X76987000Y-110934712D01*
X76987000Y-109786639D01*
X80045591Y-109786639D01*
X80090511Y-110125439D01*
X80200664Y-110448966D01*
X80306662Y-110647274D01*
X80581288Y-110755107D01*
X81608395Y-109728000D01*
X81967605Y-109728000D01*
X82994712Y-110755107D01*
X83269338Y-110647274D01*
X83420216Y-110340616D01*
X83508369Y-110010415D01*
X83530409Y-109669361D01*
X83485489Y-109330561D01*
X83375336Y-109007034D01*
X83269338Y-108808726D01*
X82994712Y-108700893D01*
X81967605Y-109728000D01*
X81608395Y-109728000D01*
X80581288Y-108700893D01*
X80306662Y-108808726D01*
X80155784Y-109115384D01*
X80067631Y-109445585D01*
X80045591Y-109786639D01*
X76987000Y-109786639D01*
X76987000Y-108521288D01*
X80760893Y-108521288D01*
X81788000Y-109548395D01*
X82815107Y-108521288D01*
X82707274Y-108246662D01*
X82400616Y-108095784D01*
X82070415Y-108007631D01*
X81729361Y-107985591D01*
X81390561Y-108030511D01*
X81067034Y-108140664D01*
X80868726Y-108246662D01*
X80760893Y-108521288D01*
X76987000Y-108521288D01*
X76987000Y-107277000D01*
X84040273Y-107277000D01*
X90873000Y-111181415D01*
G04 #@! TA.AperFunction,Conductor*
D18*
G36*
X90873000Y-111181415D02*
G01*
X90873000Y-111528737D01*
X90973954Y-112036268D01*
X91171983Y-112514351D01*
X91459476Y-112944615D01*
X91825385Y-113310524D01*
X92255649Y-113598017D01*
X92733732Y-113796046D01*
X93241263Y-113897000D01*
X93758737Y-113897000D01*
X93980000Y-113852988D01*
X93980000Y-125413000D01*
X78738491Y-125413000D01*
X78368007Y-125376674D01*
X78048667Y-125280259D01*
X77754127Y-125123649D01*
X77495621Y-124912817D01*
X77282986Y-124655785D01*
X77124327Y-124362351D01*
X77025685Y-124043690D01*
X76987000Y-123675625D01*
X76987000Y-122841609D01*
X77513000Y-122841609D01*
X77513000Y-123208391D01*
X77584556Y-123568125D01*
X77724917Y-123906988D01*
X77928690Y-124211956D01*
X78188044Y-124471310D01*
X78493012Y-124675083D01*
X78831875Y-124815444D01*
X79191609Y-124887000D01*
X79558391Y-124887000D01*
X79918125Y-124815444D01*
X80256988Y-124675083D01*
X80561956Y-124471310D01*
X80821310Y-124211956D01*
X81025083Y-123906988D01*
X81165444Y-123568125D01*
X81237000Y-123208391D01*
X81237000Y-122841609D01*
X81165444Y-122481875D01*
X81025083Y-122143012D01*
X80893252Y-121945712D01*
X85967893Y-121945712D01*
X86075726Y-122220338D01*
X86382384Y-122371216D01*
X86712585Y-122459369D01*
X87053639Y-122481409D01*
X87392439Y-122436489D01*
X87715966Y-122326336D01*
X87914274Y-122220338D01*
X88022107Y-121945712D01*
X91047893Y-121945712D01*
X91155726Y-122220338D01*
X91462384Y-122371216D01*
X91792585Y-122459369D01*
X92133639Y-122481409D01*
X92472439Y-122436489D01*
X92795966Y-122326336D01*
X92994274Y-122220338D01*
X93102107Y-121945712D01*
X92075000Y-120918605D01*
X91047893Y-121945712D01*
X88022107Y-121945712D01*
X86995000Y-120918605D01*
X85967893Y-121945712D01*
X80893252Y-121945712D01*
X80821310Y-121838044D01*
X80561956Y-121578690D01*
X80256988Y-121374917D01*
X79918125Y-121234556D01*
X79558391Y-121163000D01*
X79191609Y-121163000D01*
X78831875Y-121234556D01*
X78493012Y-121374917D01*
X78188044Y-121578690D01*
X77928690Y-121838044D01*
X77724917Y-122143012D01*
X77584556Y-122481875D01*
X77513000Y-122841609D01*
X76987000Y-122841609D01*
X76987000Y-120797639D01*
X85252591Y-120797639D01*
X85297511Y-121136439D01*
X85407664Y-121459966D01*
X85513662Y-121658274D01*
X85788288Y-121766107D01*
X86815395Y-120739000D01*
X87174605Y-120739000D01*
X88201712Y-121766107D01*
X88476338Y-121658274D01*
X88627216Y-121351616D01*
X88715369Y-121021415D01*
X88729830Y-120797639D01*
X90332591Y-120797639D01*
X90377511Y-121136439D01*
X90487664Y-121459966D01*
X90593662Y-121658274D01*
X90868288Y-121766107D01*
X91895395Y-120739000D01*
X92254605Y-120739000D01*
X93281712Y-121766107D01*
X93556338Y-121658274D01*
X93707216Y-121351616D01*
X93795369Y-121021415D01*
X93817409Y-120680361D01*
X93772489Y-120341561D01*
X93662336Y-120018034D01*
X93556338Y-119819726D01*
X93281712Y-119711893D01*
X92254605Y-120739000D01*
X91895395Y-120739000D01*
X90868288Y-119711893D01*
X90593662Y-119819726D01*
X90442784Y-120126384D01*
X90354631Y-120456585D01*
X90332591Y-120797639D01*
X88729830Y-120797639D01*
X88737409Y-120680361D01*
X88692489Y-120341561D01*
X88582336Y-120018034D01*
X88476338Y-119819726D01*
X88201712Y-119711893D01*
X87174605Y-120739000D01*
X86815395Y-120739000D01*
X85788288Y-119711893D01*
X85513662Y-119819726D01*
X85362784Y-120126384D01*
X85274631Y-120456585D01*
X85252591Y-120797639D01*
X76987000Y-120797639D01*
X76987000Y-119532288D01*
X85967893Y-119532288D01*
X86995000Y-120559395D01*
X88022107Y-119532288D01*
X91047893Y-119532288D01*
X92075000Y-120559395D01*
X93102107Y-119532288D01*
X92994274Y-119257662D01*
X92687616Y-119106784D01*
X92357415Y-119018631D01*
X92016361Y-118996591D01*
X91677561Y-119041511D01*
X91354034Y-119151664D01*
X91155726Y-119257662D01*
X91047893Y-119532288D01*
X88022107Y-119532288D01*
X87914274Y-119257662D01*
X87607616Y-119106784D01*
X87277415Y-119018631D01*
X86936361Y-118996591D01*
X86597561Y-119041511D01*
X86274034Y-119151664D01*
X86075726Y-119257662D01*
X85967893Y-119532288D01*
X76987000Y-119532288D01*
X76987000Y-117813219D01*
X79307000Y-117813219D01*
X79307000Y-118076781D01*
X79358419Y-118335280D01*
X79459280Y-118578781D01*
X79605708Y-118797925D01*
X79792075Y-118984292D01*
X80011219Y-119130720D01*
X80254720Y-119231581D01*
X80513219Y-119283000D01*
X80776781Y-119283000D01*
X81035280Y-119231581D01*
X81278781Y-119130720D01*
X81497925Y-118984292D01*
X81684292Y-118797925D01*
X81830720Y-118578781D01*
X81931581Y-118335280D01*
X81983000Y-118076781D01*
X81983000Y-117813219D01*
X81931581Y-117554720D01*
X81830720Y-117311219D01*
X81684292Y-117092075D01*
X81497925Y-116905708D01*
X81278781Y-116759280D01*
X81035280Y-116658419D01*
X80776781Y-116607000D01*
X80513219Y-116607000D01*
X80254720Y-116658419D01*
X80011219Y-116759280D01*
X79792075Y-116905708D01*
X79605708Y-117092075D01*
X79459280Y-117311219D01*
X79358419Y-117554720D01*
X79307000Y-117813219D01*
X76987000Y-117813219D01*
X76987000Y-110934712D01*
X80760893Y-110934712D01*
X80868726Y-111209338D01*
X81175384Y-111360216D01*
X81505585Y-111448369D01*
X81846639Y-111470409D01*
X82185439Y-111425489D01*
X82508966Y-111315336D01*
X82707274Y-111209338D01*
X82815107Y-110934712D01*
X81788000Y-109907605D01*
X80760893Y-110934712D01*
X76987000Y-110934712D01*
X76987000Y-109786639D01*
X80045591Y-109786639D01*
X80090511Y-110125439D01*
X80200664Y-110448966D01*
X80306662Y-110647274D01*
X80581288Y-110755107D01*
X81608395Y-109728000D01*
X81967605Y-109728000D01*
X82994712Y-110755107D01*
X83269338Y-110647274D01*
X83420216Y-110340616D01*
X83508369Y-110010415D01*
X83530409Y-109669361D01*
X83485489Y-109330561D01*
X83375336Y-109007034D01*
X83269338Y-108808726D01*
X82994712Y-108700893D01*
X81967605Y-109728000D01*
X81608395Y-109728000D01*
X80581288Y-108700893D01*
X80306662Y-108808726D01*
X80155784Y-109115384D01*
X80067631Y-109445585D01*
X80045591Y-109786639D01*
X76987000Y-109786639D01*
X76987000Y-108521288D01*
X80760893Y-108521288D01*
X81788000Y-109548395D01*
X82815107Y-108521288D01*
X82707274Y-108246662D01*
X82400616Y-108095784D01*
X82070415Y-108007631D01*
X81729361Y-107985591D01*
X81390561Y-108030511D01*
X81067034Y-108140664D01*
X80868726Y-108246662D01*
X80760893Y-108521288D01*
X76987000Y-108521288D01*
X76987000Y-107277000D01*
X84040273Y-107277000D01*
X90873000Y-111181415D01*
G37*
G04 #@! TD.AperFunction*
M02*
