M48
; DRILL file {KiCad 5.1.10} date Fri Dec 10 00:49:22 2021
; FORMAT={-:-/ absolute / metric / decimal}
; #@! TF.CreationDate,2021-12-10T00:49:22+02:00
; #@! TF.GenerationSoftware,Kicad,Pcbnew,5.1.10
; #@! TF.FileFunction,Plated,1,2,PTH
FMAT,2
METRIC
T1C0.250
T2C1.000
T3C1.300
%
G90
G05
T1
X83.82Y-123.825
X83.82Y-125.095
X83.82Y-126.365
X83.82Y-127.635
X83.82Y-128.905
X83.82Y-130.175
X83.82Y-131.445
X83.82Y-132.715
X83.82Y-133.985
X83.82Y-135.255
X83.82Y-136.525
X83.82Y-137.795
X83.82Y-139.065
X83.82Y-140.335
X85.09Y-123.825
X85.09Y-125.095
X85.09Y-126.365
X85.09Y-127.635
X85.09Y-128.905
X85.09Y-130.175
X85.09Y-131.445
X85.09Y-132.715
X85.09Y-133.985
X85.09Y-135.255
X85.09Y-136.525
X85.09Y-137.795
X85.09Y-139.065
X85.09Y-140.335
X86.36Y-127.635
X86.36Y-128.905
X86.36Y-130.175
X86.36Y-131.445
X86.36Y-132.715
X86.36Y-133.985
X86.36Y-135.255
X86.36Y-136.525
X86.36Y-137.795
X86.36Y-139.065
X86.36Y-140.335
X87.63Y-130.175
X87.63Y-131.445
X87.63Y-132.715
X87.63Y-133.985
X87.63Y-135.255
X87.63Y-136.525
X87.63Y-137.795
X87.63Y-139.065
X87.63Y-140.335
X87.63Y-141.605
X88.9Y-130.175
X88.9Y-131.445
X88.9Y-132.715
X88.9Y-133.985
X88.9Y-135.255
X88.9Y-136.525
X88.9Y-137.795
X88.9Y-139.065
X88.9Y-140.335
X88.9Y-141.605
X88.9Y-142.875
X90.17Y-111.76
X90.17Y-130.175
X90.17Y-131.445
X90.17Y-132.715
X90.17Y-133.985
X90.17Y-135.255
X90.17Y-136.525
X90.17Y-137.795
X90.17Y-139.065
X90.17Y-140.335
X90.17Y-141.605
X90.17Y-142.875
X90.17Y-144.145
X90.17Y-145.415
X91.44Y-111.76
X91.44Y-130.175
X91.44Y-144.145
X91.44Y-145.415
X92.71Y-111.76
X92.71Y-130.175
X92.71Y-135.255
X92.71Y-136.525
X92.71Y-137.795
X92.71Y-144.145
X92.71Y-145.415
X93.98Y-111.76
X93.98Y-130.175
X93.98Y-135.255
X93.98Y-136.525
X93.98Y-137.795
X93.98Y-144.145
X93.98Y-145.415
X95.25Y-111.76
X95.25Y-130.175
X95.25Y-135.255
X95.25Y-136.525
X95.25Y-137.795
X95.25Y-144.145
X95.25Y-145.415
X96.52Y-111.76
X96.52Y-130.175
X96.52Y-135.255
X96.52Y-136.525
X96.52Y-137.795
X96.52Y-144.145
X96.52Y-145.415
X97.79Y-111.76
X97.79Y-130.175
X97.79Y-135.255
X97.79Y-136.525
X97.79Y-137.795
X97.79Y-144.145
X97.79Y-145.415
X99.06Y-111.76
X99.06Y-130.175
X99.06Y-135.255
X99.06Y-136.525
X99.06Y-137.795
X99.06Y-144.145
X99.06Y-145.415
X100.33Y-111.76
X100.33Y-130.175
X100.33Y-135.255
X100.33Y-136.525
X100.33Y-137.795
X100.33Y-144.145
X100.33Y-145.415
X101.6Y-111.76
X101.6Y-130.175
X101.6Y-135.255
X101.6Y-136.525
X101.6Y-137.795
X101.6Y-144.145
X101.6Y-145.415
X102.87Y-111.76
X102.87Y-130.175
X102.87Y-135.255
X102.87Y-136.525
X102.87Y-137.795
X102.87Y-144.145
X102.87Y-145.415
X104.14Y-111.76
X104.14Y-130.175
X104.14Y-135.255
X104.14Y-136.525
X104.14Y-137.795
X104.14Y-144.145
X104.14Y-145.415
X105.41Y-111.76
X105.41Y-130.175
X105.41Y-135.255
X105.41Y-136.525
X105.41Y-137.795
X105.41Y-144.145
X105.41Y-145.415
X106.68Y-111.76
X106.68Y-130.175
X106.68Y-135.255
X106.68Y-136.525
X106.68Y-137.795
X106.68Y-144.145
X106.68Y-145.415
X107.95Y-111.76
X107.95Y-130.175
X107.95Y-135.255
X107.95Y-136.525
X107.95Y-137.795
X107.95Y-144.145
X107.95Y-145.415
X109.22Y-111.76
X109.22Y-130.175
X109.22Y-135.255
X109.22Y-136.525
X109.22Y-137.795
X109.22Y-144.145
X109.22Y-145.415
X110.49Y-111.76
X110.49Y-113.03
X110.49Y-119.38
X110.49Y-126.365
X110.49Y-127.635
X110.49Y-128.905
X110.49Y-130.175
X110.49Y-135.255
X110.49Y-136.525
X110.49Y-137.795
X110.49Y-144.145
X110.49Y-145.415
X111.76Y-111.76
X111.76Y-113.03
X111.76Y-126.365
X111.76Y-127.635
X111.76Y-128.905
X111.76Y-130.175
X111.76Y-135.255
X111.76Y-136.525
X111.76Y-137.795
X111.76Y-144.145
X111.76Y-145.415
X112.395Y-113.665
X113.03Y-111.76
X113.03Y-113.03
X113.03Y-126.365
X113.03Y-127.635
X113.03Y-128.905
X113.03Y-130.175
X113.03Y-135.255
X113.03Y-136.525
X113.03Y-137.795
X113.03Y-144.145
X113.03Y-145.415
X114.3Y-111.76
X114.3Y-113.03
X114.3Y-126.365
X114.3Y-127.635
X114.3Y-128.905
X114.3Y-130.175
X114.3Y-135.255
X114.3Y-136.525
X114.3Y-137.795
X114.3Y-144.145
X114.3Y-145.415
X114.935Y-113.665
X115.57Y-111.76
X115.57Y-113.03
X115.57Y-119.38
X115.57Y-126.365
X115.57Y-127.635
X115.57Y-128.905
X115.57Y-130.175
X115.57Y-135.255
X115.57Y-136.525
X115.57Y-137.795
X115.57Y-144.145
X115.57Y-145.415
X116.84Y-111.76
X116.84Y-113.03
X116.84Y-126.365
X116.84Y-127.635
X116.84Y-128.905
X116.84Y-130.175
X116.84Y-135.255
X116.84Y-136.525
X116.84Y-137.795
X116.84Y-144.145
X116.84Y-145.415
X118.11Y-111.76
X118.11Y-113.03
X118.11Y-126.365
X118.11Y-127.635
X118.11Y-128.905
X118.11Y-130.175
X118.11Y-135.255
X118.11Y-136.525
X118.11Y-137.795
X118.11Y-144.145
X118.11Y-145.415
X119.38Y-111.76
X119.38Y-113.03
X119.38Y-127.635
X119.38Y-128.905
X119.38Y-130.175
X119.38Y-135.255
X119.38Y-136.525
X119.38Y-137.795
X119.38Y-144.145
X119.38Y-145.415
X120.65Y-111.76
X120.65Y-113.03
X120.65Y-127.635
X120.65Y-128.905
X120.65Y-130.175
X120.65Y-135.255
X120.65Y-136.525
X120.65Y-137.795
X120.65Y-144.145
X120.65Y-145.415
X120.904Y-120.396
X121.92Y-111.76
X121.92Y-113.03
X121.92Y-118.11
X121.92Y-127.635
X121.92Y-128.905
X121.92Y-130.175
X121.92Y-135.255
X121.92Y-136.525
X121.92Y-137.795
X121.92Y-144.145
X121.92Y-145.415
X123.19Y-111.76
X123.19Y-113.03
X123.19Y-127.635
X123.19Y-128.905
X123.19Y-130.175
X123.19Y-135.255
X123.19Y-136.525
X123.19Y-137.795
X123.19Y-144.145
X123.19Y-145.415
X123.825Y-120.65
X124.46Y-128.905
X124.46Y-130.175
X124.46Y-135.255
X124.46Y-136.525
X124.46Y-137.795
X126.365Y-115.57
X127.0Y-131.445
X127.0Y-132.715
X127.0Y-133.985
X127.0Y-135.255
X127.0Y-136.525
X127.0Y-137.795
X127.0Y-139.065
X127.0Y-140.335
X128.27Y-117.475
X128.27Y-118.745
X128.27Y-120.015
X128.27Y-121.285
X128.27Y-122.555
X128.27Y-123.825
X128.27Y-125.095
X128.27Y-126.365
X128.27Y-127.635
X128.27Y-128.905
X128.27Y-130.175
X128.27Y-131.445
X128.27Y-132.715
X128.27Y-133.985
X128.27Y-135.255
X128.27Y-136.525
X128.27Y-137.795
X128.27Y-139.065
X128.27Y-140.335
X129.54Y-117.475
X129.54Y-118.745
X129.54Y-120.015
X129.54Y-121.285
X129.54Y-122.555
X129.54Y-123.825
X129.54Y-125.095
X129.54Y-126.365
X129.54Y-127.635
X129.54Y-128.905
X129.54Y-130.175
X129.54Y-131.445
X129.54Y-132.715
X129.54Y-133.985
X129.54Y-135.255
X129.54Y-136.525
X129.54Y-137.795
X129.54Y-139.065
X129.54Y-140.335
T2
X120.65Y-123.825
X123.19Y-123.825
T3
X92.964Y-116.84
X92.964Y-121.92
X92.964Y-127.0
X95.25Y-140.335
X100.33Y-140.335
X104.521Y-116.84
X104.521Y-121.92
X104.521Y-127.0
X105.41Y-140.335
X111.76Y-140.335
X116.84Y-140.335
X121.92Y-140.335
T0
M30
