%TF.GenerationSoftware,KiCad,Pcbnew,6.0.0*%
%TF.CreationDate,2022-01-02T23:15:56+02:00*%
%TF.ProjectId,pwm-controller,70776d2d-636f-46e7-9472-6f6c6c65722e,rev?*%
%TF.SameCoordinates,Original*%
%TF.FileFunction,Legend,Top*%
%TF.FilePolarity,Positive*%
%FSLAX46Y46*%
G04 Gerber Fmt 4.6, Leading zero omitted, Abs format (unit mm)*
G04 Created by KiCad (PCBNEW 6.0.0) date 2022-01-02 23:15:56*
%MOMM*%
%LPD*%
G01*
G04 APERTURE LIST*
G04 Aperture macros list*
%AMRoundRect*
0 Rectangle with rounded corners*
0 $1 Rounding radius*
0 $2 $3 $4 $5 $6 $7 $8 $9 X,Y pos of 4 corners*
0 Add a 4 corners polygon primitive as box body*
4,1,4,$2,$3,$4,$5,$6,$7,$8,$9,$2,$3,0*
0 Add four circle primitives for the rounded corners*
1,1,$1+$1,$2,$3*
1,1,$1+$1,$4,$5*
1,1,$1+$1,$6,$7*
1,1,$1+$1,$8,$9*
0 Add four rect primitives between the rounded corners*
20,1,$1+$1,$2,$3,$4,$5,0*
20,1,$1+$1,$4,$5,$6,$7,0*
20,1,$1+$1,$6,$7,$8,$9,0*
20,1,$1+$1,$8,$9,$2,$3,0*%
%AMFreePoly0*
4,1,9,3.862500,-0.866500,0.737500,-0.866500,0.737500,-0.450000,-0.737500,-0.450000,-0.737500,0.450000,0.737500,0.450000,0.737500,0.866500,3.862500,0.866500,3.862500,-0.866500,3.862500,-0.866500,$1*%
%AMFreePoly1*
4,1,21,1.372500,0.787500,0.862500,0.787500,0.862500,0.532500,1.372500,0.532500,1.372500,0.127500,0.862500,0.127500,0.862500,-0.127500,1.372500,-0.127500,1.372500,-0.532500,0.862500,-0.532500,0.862500,-0.787500,1.372500,-0.787500,1.372500,-1.195000,0.612500,-1.195000,0.612500,-1.117500,-0.862500,-1.117500,-0.862500,1.117500,0.612500,1.117500,0.612500,1.195000,1.372500,1.195000,
1.372500,0.787500,1.372500,0.787500,$1*%
G04 Aperture macros list end*
%ADD10C,0.300000*%
%ADD11C,0.200000*%
%ADD12C,0.150000*%
%ADD13C,0.120000*%
%ADD14C,2.200000*%
%ADD15C,1.310000*%
%ADD16RoundRect,0.800000X-0.800000X-1.100000X0.800000X-1.100000X0.800000X1.100000X-0.800000X1.100000X0*%
%ADD17C,1.800000*%
%ADD18RoundRect,0.225000X-0.225000X-0.250000X0.225000X-0.250000X0.225000X0.250000X-0.225000X0.250000X0*%
%ADD19RoundRect,0.155000X0.212500X0.155000X-0.212500X0.155000X-0.212500X-0.155000X0.212500X-0.155000X0*%
%ADD20RoundRect,0.150000X-0.587500X-0.150000X0.587500X-0.150000X0.587500X0.150000X-0.587500X0.150000X0*%
%ADD21RoundRect,0.160000X-0.197500X-0.160000X0.197500X-0.160000X0.197500X0.160000X-0.197500X0.160000X0*%
%ADD22RoundRect,0.135000X0.135000X0.185000X-0.135000X0.185000X-0.135000X-0.185000X0.135000X-0.185000X0*%
%ADD23RoundRect,0.140000X0.140000X0.170000X-0.140000X0.170000X-0.140000X-0.170000X0.140000X-0.170000X0*%
%ADD24RoundRect,0.140000X-0.140000X-0.170000X0.140000X-0.170000X0.140000X0.170000X-0.140000X0.170000X0*%
%ADD25R,0.900000X1.300000*%
%ADD26FreePoly0,270.000000*%
%ADD27RoundRect,0.135000X-0.135000X-0.185000X0.135000X-0.185000X0.135000X0.185000X-0.135000X0.185000X0*%
%ADD28RoundRect,0.150000X-0.150000X0.587500X-0.150000X-0.587500X0.150000X-0.587500X0.150000X0.587500X0*%
%ADD29RoundRect,0.135000X0.185000X-0.135000X0.185000X0.135000X-0.185000X0.135000X-0.185000X-0.135000X0*%
%ADD30RoundRect,0.218750X0.218750X0.256250X-0.218750X0.256250X-0.218750X-0.256250X0.218750X-0.256250X0*%
%ADD31C,2.000000*%
%ADD32R,1.200000X0.900000*%
%ADD33RoundRect,0.225000X0.225000X0.250000X-0.225000X0.250000X-0.225000X-0.250000X0.225000X-0.250000X0*%
%ADD34R,1.700000X1.700000*%
%ADD35O,1.700000X1.700000*%
%ADD36C,1.500000*%
%ADD37R,0.405000X0.990000*%
%ADD38FreePoly1,270.000000*%
%ADD39RoundRect,0.135000X-0.185000X0.135000X-0.185000X-0.135000X0.185000X-0.135000X0.185000X0.135000X0*%
%ADD40RoundRect,0.100000X-0.637500X-0.100000X0.637500X-0.100000X0.637500X0.100000X-0.637500X0.100000X0*%
G04 APERTURE END LIST*
D10*
X96592857Y-103548571D02*
X96592857Y-102048571D01*
X97092857Y-103120000D01*
X97592857Y-102048571D01*
X97592857Y-103548571D01*
X98950000Y-103548571D02*
X98950000Y-102762857D01*
X98878571Y-102620000D01*
X98735714Y-102548571D01*
X98450000Y-102548571D01*
X98307142Y-102620000D01*
X98950000Y-103477142D02*
X98807142Y-103548571D01*
X98450000Y-103548571D01*
X98307142Y-103477142D01*
X98235714Y-103334285D01*
X98235714Y-103191428D01*
X98307142Y-103048571D01*
X98450000Y-102977142D01*
X98807142Y-102977142D01*
X98950000Y-102905714D01*
X99664285Y-103548571D02*
X99664285Y-102548571D01*
X99664285Y-102834285D02*
X99735714Y-102691428D01*
X99807142Y-102620000D01*
X99950000Y-102548571D01*
X100092857Y-102548571D01*
X100592857Y-103548571D02*
X100592857Y-102048571D01*
X100735714Y-102977142D02*
X101164285Y-103548571D01*
X101164285Y-102548571D02*
X100592857Y-103120000D01*
X102950000Y-103548571D02*
X102950000Y-102048571D01*
X103807142Y-103548571D02*
X103164285Y-102691428D01*
X103807142Y-102048571D02*
X102950000Y-102905714D01*
X105092857Y-102548571D02*
X105092857Y-103548571D01*
X104450000Y-102548571D02*
X104450000Y-103334285D01*
X104521428Y-103477142D01*
X104664285Y-103548571D01*
X104878571Y-103548571D01*
X105021428Y-103477142D01*
X105092857Y-103405714D01*
X106450000Y-103477142D02*
X106307142Y-103548571D01*
X106021428Y-103548571D01*
X105878571Y-103477142D01*
X105807142Y-103405714D01*
X105735714Y-103262857D01*
X105735714Y-102834285D01*
X105807142Y-102691428D01*
X105878571Y-102620000D01*
X106021428Y-102548571D01*
X106307142Y-102548571D01*
X106450000Y-102620000D01*
X107092857Y-103548571D02*
X107092857Y-102048571D01*
X107235714Y-102977142D02*
X107664285Y-103548571D01*
X107664285Y-102548571D02*
X107092857Y-103120000D01*
X108307142Y-103548571D02*
X108307142Y-102548571D01*
X108307142Y-102048571D02*
X108235714Y-102120000D01*
X108307142Y-102191428D01*
X108378571Y-102120000D01*
X108307142Y-102048571D01*
X108307142Y-102191428D01*
X109664285Y-103548571D02*
X109664285Y-102762857D01*
X109592857Y-102620000D01*
X109450000Y-102548571D01*
X109164285Y-102548571D01*
X109021428Y-102620000D01*
X109664285Y-103477142D02*
X109521428Y-103548571D01*
X109164285Y-103548571D01*
X109021428Y-103477142D01*
X108950000Y-103334285D01*
X108950000Y-103191428D01*
X109021428Y-103048571D01*
X109164285Y-102977142D01*
X109521428Y-102977142D01*
X109664285Y-102905714D01*
X110378571Y-102548571D02*
X110378571Y-103548571D01*
X110378571Y-102691428D02*
X110450000Y-102620000D01*
X110592857Y-102548571D01*
X110807142Y-102548571D01*
X110950000Y-102620000D01*
X111021428Y-102762857D01*
X111021428Y-103548571D01*
X113735714Y-103405714D02*
X113664285Y-103477142D01*
X113450000Y-103548571D01*
X113307142Y-103548571D01*
X113092857Y-103477142D01*
X112950000Y-103334285D01*
X112878571Y-103191428D01*
X112807142Y-102905714D01*
X112807142Y-102691428D01*
X112878571Y-102405714D01*
X112950000Y-102262857D01*
X113092857Y-102120000D01*
X113307142Y-102048571D01*
X113450000Y-102048571D01*
X113664285Y-102120000D01*
X113735714Y-102191428D01*
X114592857Y-103548571D02*
X114450000Y-103477142D01*
X114378571Y-103405714D01*
X114307142Y-103262857D01*
X114307142Y-102834285D01*
X114378571Y-102691428D01*
X114450000Y-102620000D01*
X114592857Y-102548571D01*
X114807142Y-102548571D01*
X114950000Y-102620000D01*
X115021428Y-102691428D01*
X115092857Y-102834285D01*
X115092857Y-103262857D01*
X115021428Y-103405714D01*
X114950000Y-103477142D01*
X114807142Y-103548571D01*
X114592857Y-103548571D01*
X115592857Y-102548571D02*
X115878571Y-103548571D01*
X116164285Y-102834285D01*
X116450000Y-103548571D01*
X116735714Y-102548571D01*
X117950000Y-103548571D02*
X117950000Y-102762857D01*
X117878571Y-102620000D01*
X117735714Y-102548571D01*
X117450000Y-102548571D01*
X117307142Y-102620000D01*
X117950000Y-103477142D02*
X117807142Y-103548571D01*
X117450000Y-103548571D01*
X117307142Y-103477142D01*
X117235714Y-103334285D01*
X117235714Y-103191428D01*
X117307142Y-103048571D01*
X117450000Y-102977142D01*
X117807142Y-102977142D01*
X117950000Y-102905714D01*
X118664285Y-102548571D02*
X118664285Y-103548571D01*
X118664285Y-102691428D02*
X118735714Y-102620000D01*
X118878571Y-102548571D01*
X119092857Y-102548571D01*
X119235714Y-102620000D01*
X119307142Y-102762857D01*
X119307142Y-103548571D01*
D11*
%TO.C,J2*%
X81454666Y-106640380D02*
X81454666Y-107354666D01*
X81407047Y-107497523D01*
X81311809Y-107592761D01*
X81168952Y-107640380D01*
X81073714Y-107640380D01*
X81883238Y-106735619D02*
X81930857Y-106688000D01*
X82026095Y-106640380D01*
X82264190Y-106640380D01*
X82359428Y-106688000D01*
X82407047Y-106735619D01*
X82454666Y-106830857D01*
X82454666Y-106926095D01*
X82407047Y-107068952D01*
X81835619Y-107640380D01*
X82454666Y-107640380D01*
X77287428Y-114172952D02*
X77287428Y-113411047D01*
X77668380Y-113792000D02*
X76906476Y-113792000D01*
X78454666Y-101798380D02*
X78645142Y-101798380D01*
X78740380Y-101750761D01*
X78788000Y-101703142D01*
X78883238Y-101560285D01*
X78930857Y-101369809D01*
X78930857Y-100988857D01*
X78883238Y-100893619D01*
X78835619Y-100846000D01*
X78740380Y-100798380D01*
X78549904Y-100798380D01*
X78454666Y-100846000D01*
X78407047Y-100893619D01*
X78359428Y-100988857D01*
X78359428Y-101226952D01*
X78407047Y-101322190D01*
X78454666Y-101369809D01*
X78549904Y-101417428D01*
X78740380Y-101417428D01*
X78835619Y-101369809D01*
X78883238Y-101322190D01*
X78930857Y-101226952D01*
X79359428Y-101417428D02*
X80121333Y-101417428D01*
X80549904Y-100893619D02*
X80597523Y-100846000D01*
X80692761Y-100798380D01*
X80930857Y-100798380D01*
X81026095Y-100846000D01*
X81073714Y-100893619D01*
X81121333Y-100988857D01*
X81121333Y-101084095D01*
X81073714Y-101226952D01*
X80502285Y-101798380D01*
X81121333Y-101798380D01*
X81978476Y-101131714D02*
X81978476Y-101798380D01*
X81740380Y-100750761D02*
X81502285Y-101465047D01*
X82121333Y-101465047D01*
X82359428Y-100798380D02*
X82692761Y-101798380D01*
X83026095Y-100798380D01*
X84121333Y-101798380D02*
X84121333Y-100798380D01*
X84597523Y-101798380D02*
X84597523Y-100798380D01*
X85168952Y-101798380D01*
X85168952Y-100798380D01*
X77414428Y-100964952D02*
X77414428Y-100203047D01*
D12*
%TO.C,SW1*%
X114673095Y-82933142D02*
X114625476Y-82980761D01*
X114482619Y-83028380D01*
X114387380Y-83028380D01*
X114244523Y-82980761D01*
X114149285Y-82885523D01*
X114101666Y-82790285D01*
X114054047Y-82599809D01*
X114054047Y-82456952D01*
X114101666Y-82266476D01*
X114149285Y-82171238D01*
X114244523Y-82076000D01*
X114387380Y-82028380D01*
X114482619Y-82028380D01*
X114625476Y-82076000D01*
X114673095Y-82123619D01*
X115006428Y-82028380D02*
X115244523Y-83028380D01*
X115435000Y-82314095D01*
X115625476Y-83028380D01*
X115863571Y-82028380D01*
D11*
%TO.C,J1*%
X89328666Y-77176380D02*
X89328666Y-77890666D01*
X89281047Y-78033523D01*
X89185809Y-78128761D01*
X89042952Y-78176380D01*
X88947714Y-78176380D01*
X90328666Y-78176380D02*
X89757238Y-78176380D01*
X90042952Y-78176380D02*
X90042952Y-77176380D01*
X89947714Y-77319238D01*
X89852476Y-77414476D01*
X89757238Y-77462095D01*
X76612857Y-80668761D02*
X76755714Y-80716380D01*
X76993809Y-80716380D01*
X77089047Y-80668761D01*
X77136666Y-80621142D01*
X77184285Y-80525904D01*
X77184285Y-80430666D01*
X77136666Y-80335428D01*
X77089047Y-80287809D01*
X76993809Y-80240190D01*
X76803333Y-80192571D01*
X76708095Y-80144952D01*
X76660476Y-80097333D01*
X76612857Y-80002095D01*
X76612857Y-79906857D01*
X76660476Y-79811619D01*
X76708095Y-79764000D01*
X76803333Y-79716380D01*
X77041428Y-79716380D01*
X77184285Y-79764000D01*
X77517619Y-79716380D02*
X77755714Y-80716380D01*
X77946190Y-80002095D01*
X78136666Y-80716380D01*
X78374761Y-79716380D01*
X79376285Y-85288380D02*
X79042952Y-84812190D01*
X78804857Y-85288380D02*
X78804857Y-84288380D01*
X79185809Y-84288380D01*
X79281047Y-84336000D01*
X79328666Y-84383619D01*
X79376285Y-84478857D01*
X79376285Y-84621714D01*
X79328666Y-84716952D01*
X79281047Y-84764571D01*
X79185809Y-84812190D01*
X78804857Y-84812190D01*
X79709619Y-84288380D02*
X80376285Y-85288380D01*
X80376285Y-84288380D02*
X79709619Y-85288380D01*
X81376285Y-84288380D02*
X81947714Y-84288380D01*
X81662000Y-85288380D02*
X81662000Y-84288380D01*
X82185809Y-84288380D02*
X82852476Y-85288380D01*
X82852476Y-84288380D02*
X82185809Y-85288380D01*
X83947714Y-85002666D02*
X84423904Y-85002666D01*
X83852476Y-85288380D02*
X84185809Y-84288380D01*
X84519142Y-85288380D01*
X85042952Y-84288380D02*
X85138190Y-84288380D01*
X85233428Y-84336000D01*
X85281047Y-84383619D01*
X85328666Y-84478857D01*
X85376285Y-84669333D01*
X85376285Y-84907428D01*
X85328666Y-85097904D01*
X85281047Y-85193142D01*
X85233428Y-85240761D01*
X85138190Y-85288380D01*
X85042952Y-85288380D01*
X84947714Y-85240761D01*
X84900095Y-85193142D01*
X84852476Y-85097904D01*
X84804857Y-84907428D01*
X84804857Y-84669333D01*
X84852476Y-84478857D01*
X84900095Y-84383619D01*
X84947714Y-84336000D01*
X85042952Y-84288380D01*
X86519142Y-85002666D02*
X86995333Y-85002666D01*
X86423904Y-85288380D02*
X86757238Y-84288380D01*
X87090571Y-85288380D01*
X87947714Y-85288380D02*
X87376285Y-85288380D01*
X87662000Y-85288380D02*
X87662000Y-84288380D01*
X87566761Y-84431238D01*
X87471523Y-84526476D01*
X87376285Y-84574095D01*
X89090571Y-85002666D02*
X89566761Y-85002666D01*
X88995333Y-85288380D02*
X89328666Y-84288380D01*
X89662000Y-85288380D01*
X89947714Y-84383619D02*
X89995333Y-84336000D01*
X90090571Y-84288380D01*
X90328666Y-84288380D01*
X90423904Y-84336000D01*
X90471523Y-84383619D01*
X90519142Y-84478857D01*
X90519142Y-84574095D01*
X90471523Y-84716952D01*
X89900095Y-85288380D01*
X90519142Y-85288380D01*
X91900095Y-84288380D02*
X91995333Y-84288380D01*
X92090571Y-84336000D01*
X92138190Y-84383619D01*
X92185809Y-84478857D01*
X92233428Y-84669333D01*
X92233428Y-84907428D01*
X92185809Y-85097904D01*
X92138190Y-85193142D01*
X92090571Y-85240761D01*
X91995333Y-85288380D01*
X91900095Y-85288380D01*
X91804857Y-85240761D01*
X91757238Y-85193142D01*
X91709619Y-85097904D01*
X91662000Y-84907428D01*
X91662000Y-84669333D01*
X91709619Y-84478857D01*
X91757238Y-84383619D01*
X91804857Y-84336000D01*
X91900095Y-84288380D01*
X92519142Y-84288380D02*
X92852476Y-85288380D01*
X93185809Y-84288380D01*
X94042952Y-84006000D02*
X94519142Y-84006000D01*
X94281047Y-85288380D02*
X94281047Y-84288380D01*
X94519142Y-84006000D02*
X95566761Y-84006000D01*
X94757238Y-85288380D02*
X94757238Y-84288380D01*
X95328666Y-85288380D01*
X95328666Y-84288380D01*
X97138190Y-85193142D02*
X97090571Y-85240761D01*
X96947714Y-85288380D01*
X96852476Y-85288380D01*
X96709619Y-85240761D01*
X96614380Y-85145523D01*
X96566761Y-85050285D01*
X96519142Y-84859809D01*
X96519142Y-84716952D01*
X96566761Y-84526476D01*
X96614380Y-84431238D01*
X96709619Y-84336000D01*
X96852476Y-84288380D01*
X96947714Y-84288380D01*
X97090571Y-84336000D01*
X97138190Y-84383619D01*
X98042952Y-85288380D02*
X97566761Y-85288380D01*
X97566761Y-84288380D01*
X99138190Y-85288380D02*
X99138190Y-84288380D01*
X99376285Y-84288380D01*
X99519142Y-84336000D01*
X99614380Y-84431238D01*
X99662000Y-84526476D01*
X99709619Y-84716952D01*
X99709619Y-84859809D01*
X99662000Y-85050285D01*
X99614380Y-85145523D01*
X99519142Y-85240761D01*
X99376285Y-85288380D01*
X99138190Y-85288380D01*
X100090571Y-85002666D02*
X100566761Y-85002666D01*
X99995333Y-85288380D02*
X100328666Y-84288380D01*
X100662000Y-85288380D01*
%TO.C,TP1*%
X103187523Y-90638380D02*
X102711333Y-90638380D01*
X102663714Y-91114571D01*
X102711333Y-91066952D01*
X102806571Y-91019333D01*
X103044666Y-91019333D01*
X103139904Y-91066952D01*
X103187523Y-91114571D01*
X103235142Y-91209809D01*
X103235142Y-91447904D01*
X103187523Y-91543142D01*
X103139904Y-91590761D01*
X103044666Y-91638380D01*
X102806571Y-91638380D01*
X102711333Y-91590761D01*
X102663714Y-91543142D01*
X103520857Y-90638380D02*
X103854190Y-91638380D01*
X104187523Y-90638380D01*
%TO.C,J4*%
X107616666Y-120064380D02*
X107616666Y-120778666D01*
X107569047Y-120921523D01*
X107473809Y-121016761D01*
X107330952Y-121064380D01*
X107235714Y-121064380D01*
X108521428Y-120397714D02*
X108521428Y-121064380D01*
X108283333Y-120016761D02*
X108045238Y-120731047D01*
X108664285Y-120731047D01*
X114112476Y-124515619D02*
X114160095Y-124468000D01*
X114255333Y-124420380D01*
X114493428Y-124420380D01*
X114588666Y-124468000D01*
X114636285Y-124515619D01*
X114683904Y-124610857D01*
X114683904Y-124706095D01*
X114636285Y-124848952D01*
X114064857Y-125420380D01*
X114683904Y-125420380D01*
X115112476Y-125039428D02*
X115874380Y-125039428D01*
X100549428Y-125420380D02*
X99978000Y-125420380D01*
X100263714Y-125420380D02*
X100263714Y-124420380D01*
X100168476Y-124563238D01*
X100073238Y-124658476D01*
X99978000Y-124706095D01*
X100978000Y-125039428D02*
X101739904Y-125039428D01*
%TO.C,J3*%
X89201666Y-120064380D02*
X89201666Y-120778666D01*
X89154047Y-120921523D01*
X89058809Y-121016761D01*
X88915952Y-121064380D01*
X88820714Y-121064380D01*
X89582619Y-120064380D02*
X90201666Y-120064380D01*
X89868333Y-120445333D01*
X90011190Y-120445333D01*
X90106428Y-120492952D01*
X90154047Y-120540571D01*
X90201666Y-120635809D01*
X90201666Y-120873904D01*
X90154047Y-120969142D01*
X90106428Y-121016761D01*
X90011190Y-121064380D01*
X89725476Y-121064380D01*
X89630238Y-121016761D01*
X89582619Y-120969142D01*
X82423047Y-125039428D02*
X83184952Y-125039428D01*
X82804000Y-125420380D02*
X82804000Y-124658476D01*
X95631047Y-125039428D02*
X96392952Y-125039428D01*
X96012000Y-125420380D02*
X96012000Y-124658476D01*
D12*
%TO.C,U1*%
X102189595Y-79605142D02*
X102237214Y-79652761D01*
X102189595Y-79700380D01*
X102141976Y-79652761D01*
X102189595Y-79605142D01*
X102189595Y-79700380D01*
X102189595Y-79319428D02*
X102141976Y-78748000D01*
X102189595Y-78700380D01*
X102237214Y-78748000D01*
X102189595Y-79319428D01*
X102189595Y-78700380D01*
X103141976Y-78700380D02*
X102665785Y-78700380D01*
X102618166Y-79176571D01*
X102665785Y-79128952D01*
X102761023Y-79081333D01*
X102999119Y-79081333D01*
X103094357Y-79128952D01*
X103141976Y-79176571D01*
X103189595Y-79271809D01*
X103189595Y-79509904D01*
X103141976Y-79605142D01*
X103094357Y-79652761D01*
X102999119Y-79700380D01*
X102761023Y-79700380D01*
X102665785Y-79652761D01*
X102618166Y-79605142D01*
X103475309Y-78700380D02*
X103808642Y-79700380D01*
X104141976Y-78700380D01*
X105713404Y-79700380D02*
X105237214Y-79700380D01*
X105237214Y-78700380D01*
X106237214Y-78700380D02*
X106427690Y-78700380D01*
X106522928Y-78748000D01*
X106618166Y-78843238D01*
X106665785Y-79033714D01*
X106665785Y-79367047D01*
X106618166Y-79557523D01*
X106522928Y-79652761D01*
X106427690Y-79700380D01*
X106237214Y-79700380D01*
X106141976Y-79652761D01*
X106046738Y-79557523D01*
X105999119Y-79367047D01*
X105999119Y-79033714D01*
X106046738Y-78843238D01*
X106141976Y-78748000D01*
X106237214Y-78700380D01*
X107618166Y-78748000D02*
X107522928Y-78700380D01*
X107380071Y-78700380D01*
X107237214Y-78748000D01*
X107141976Y-78843238D01*
X107094357Y-78938476D01*
X107046738Y-79128952D01*
X107046738Y-79271809D01*
X107094357Y-79462285D01*
X107141976Y-79557523D01*
X107237214Y-79652761D01*
X107380071Y-79700380D01*
X107475309Y-79700380D01*
X107618166Y-79652761D01*
X107665785Y-79605142D01*
X107665785Y-79271809D01*
X107475309Y-79271809D01*
X108094357Y-79700380D02*
X108094357Y-78700380D01*
X109141976Y-79605142D02*
X109094357Y-79652761D01*
X108951500Y-79700380D01*
X108856261Y-79700380D01*
X108713404Y-79652761D01*
X108618166Y-79557523D01*
X108570547Y-79462285D01*
X108522928Y-79271809D01*
X108522928Y-79128952D01*
X108570547Y-78938476D01*
X108618166Y-78843238D01*
X108713404Y-78748000D01*
X108856261Y-78700380D01*
X108951500Y-78700380D01*
X109094357Y-78748000D01*
X109141976Y-78795619D01*
X109570547Y-79605142D02*
X109618166Y-79652761D01*
X109570547Y-79700380D01*
X109522928Y-79652761D01*
X109570547Y-79605142D01*
X109570547Y-79700380D01*
X109570547Y-79319428D02*
X109522928Y-78748000D01*
X109570547Y-78700380D01*
X109618166Y-78748000D01*
X109570547Y-79319428D01*
X109570547Y-78700380D01*
D13*
%TO.C,J2*%
X86288000Y-112368000D02*
X76288000Y-112368000D01*
X85280000Y-101408000D02*
X84780000Y-101408000D01*
D12*
X76788000Y-103378000D02*
X76788000Y-105918000D01*
D13*
X86288000Y-102008000D02*
X86288000Y-112368000D01*
D12*
X76288000Y-103378000D02*
X76788000Y-103378000D01*
X76288000Y-105918000D02*
X76288000Y-108458000D01*
X76788000Y-105918000D02*
X76288000Y-105918000D01*
X76788000Y-110998000D02*
X76288000Y-110998000D01*
X76288000Y-110998000D02*
X76288000Y-112368000D01*
X76288000Y-108458000D02*
X76788000Y-108458000D01*
X76288000Y-102008000D02*
X76288000Y-103378000D01*
D13*
X77804000Y-101408000D02*
X77304000Y-101408000D01*
X86288000Y-102008000D02*
X76288000Y-102008000D01*
D12*
X76788000Y-108458000D02*
X76788000Y-110998000D01*
%TO.C,SW1*%
X113435000Y-90076000D02*
X116435000Y-91076000D01*
X110935000Y-84076000D02*
X111935000Y-84076000D01*
X109935000Y-83076000D02*
X110935000Y-83076000D01*
X118935000Y-84076000D02*
X119935000Y-84076000D01*
X119935000Y-90076000D02*
X116435000Y-90076000D01*
D13*
X114935000Y-86076000D02*
X114935000Y-87076000D01*
D12*
X119935000Y-83076000D02*
X120435000Y-83076000D01*
X111935000Y-84076000D02*
X111935000Y-83076000D01*
X109935000Y-84076000D02*
X109935000Y-83076000D01*
X109935000Y-90076000D02*
X113435000Y-90076000D01*
X119935000Y-84076000D02*
X119935000Y-83076000D01*
X116935000Y-84076000D02*
X117935000Y-84076000D01*
X109435000Y-84076000D02*
X109935000Y-84076000D01*
X111935000Y-83076000D02*
X112935000Y-83076000D01*
X117935000Y-84076000D02*
X117935000Y-83076000D01*
X110935000Y-83076000D02*
X110935000Y-84076000D01*
D13*
X114435000Y-86576000D02*
X115435000Y-86576000D01*
D12*
X118935000Y-83076000D02*
X118935000Y-84076000D01*
X117935000Y-83076000D02*
X118935000Y-83076000D01*
X123214387Y-86576000D02*
G75*
G03*
X123214387Y-86576000I-8279387J0D01*
G01*
D13*
X117935000Y-86576000D02*
G75*
G03*
X117935000Y-86576000I-3000000J0D01*
G01*
%TO.C,C4*%
X82155420Y-93724000D02*
X82436580Y-93724000D01*
X82155420Y-94744000D02*
X82436580Y-94744000D01*
%TO.C,C11*%
X108573835Y-98662000D02*
X108342165Y-98662000D01*
X108573835Y-99382000D02*
X108342165Y-99382000D01*
%TO.C,Q1*%
X111633000Y-96192000D02*
X112283000Y-96192000D01*
X111633000Y-96192000D02*
X109958000Y-96192000D01*
X111633000Y-99312000D02*
X112283000Y-99312000D01*
X111633000Y-99312000D02*
X110983000Y-99312000D01*
%TO.C,Q4*%
X105283000Y-96192000D02*
X105933000Y-96192000D01*
X105283000Y-99312000D02*
X105933000Y-99312000D01*
X105283000Y-96192000D02*
X103608000Y-96192000D01*
X105283000Y-99312000D02*
X104633000Y-99312000D01*
%TO.C,R11*%
X108290379Y-98132000D02*
X108625621Y-98132000D01*
X108290379Y-97372000D02*
X108625621Y-97372000D01*
%TO.C,R12*%
X108611641Y-95594000D02*
X108304359Y-95594000D01*
X108611641Y-96354000D02*
X108304359Y-96354000D01*
%TO.C,C13*%
X118987835Y-98662000D02*
X118756165Y-98662000D01*
X118987835Y-99382000D02*
X118756165Y-99382000D01*
%TO.C,Q5*%
X122047000Y-99312000D02*
X121397000Y-99312000D01*
X122047000Y-96192000D02*
X120372000Y-96192000D01*
X122047000Y-99312000D02*
X122697000Y-99312000D01*
X122047000Y-96192000D02*
X122697000Y-96192000D01*
%TO.C,Q8*%
X115697000Y-96192000D02*
X114022000Y-96192000D01*
X115697000Y-99312000D02*
X115047000Y-99312000D01*
X115697000Y-99312000D02*
X116347000Y-99312000D01*
X115697000Y-96192000D02*
X116347000Y-96192000D01*
%TO.C,R13*%
X118704379Y-98132000D02*
X119039621Y-98132000D01*
X118704379Y-97372000D02*
X119039621Y-97372000D01*
%TO.C,R14*%
X119025641Y-96354000D02*
X118718359Y-96354000D01*
X119025641Y-95594000D02*
X118718359Y-95594000D01*
%TO.C,C10*%
X121801836Y-95572000D02*
X121586164Y-95572000D01*
X121801836Y-94852000D02*
X121586164Y-94852000D01*
%TO.C,C12*%
X111387836Y-94852000D02*
X111172164Y-94852000D01*
X111387836Y-95572000D02*
X111172164Y-95572000D01*
%TO.C,C7*%
X102889164Y-83634000D02*
X103104836Y-83634000D01*
X102889164Y-82914000D02*
X103104836Y-82914000D01*
%TO.C,C8*%
X102889164Y-84184000D02*
X103104836Y-84184000D01*
X102889164Y-84904000D02*
X103104836Y-84904000D01*
%TO.C,C9*%
X102889164Y-86174000D02*
X103104836Y-86174000D01*
X102889164Y-85454000D02*
X103104836Y-85454000D01*
%TO.C,U2*%
X85672000Y-99704000D02*
X84362000Y-99704000D01*
X80952000Y-96984000D02*
X81182000Y-96984000D01*
X82262000Y-99704000D02*
X80952000Y-99704000D01*
X85442000Y-95844000D02*
X85442000Y-96984000D01*
X85672000Y-96984000D02*
X85672000Y-99704000D01*
X80952000Y-99704000D02*
X80952000Y-96984000D01*
X85672000Y-96984000D02*
X85442000Y-96984000D01*
%TO.C,R8*%
X105182641Y-83654000D02*
X104875359Y-83654000D01*
X105182641Y-82894000D02*
X104875359Y-82894000D01*
%TO.C,R9*%
X104875359Y-86194000D02*
X105182641Y-86194000D01*
X104875359Y-85434000D02*
X105182641Y-85434000D01*
%TO.C,R10*%
X105182641Y-84164000D02*
X104875359Y-84164000D01*
X105182641Y-84924000D02*
X104875359Y-84924000D01*
%TO.C,Q9*%
X91150000Y-96316800D02*
X91150000Y-95666800D01*
X94270000Y-96316800D02*
X94270000Y-94641800D01*
X91150000Y-96316800D02*
X91150000Y-96966800D01*
X94270000Y-96316800D02*
X94270000Y-96966800D01*
%TO.C,Q10*%
X101636000Y-96316800D02*
X101636000Y-96966800D01*
X101636000Y-96316800D02*
X101636000Y-94641800D01*
X98516000Y-96316800D02*
X98516000Y-95666800D01*
X98516000Y-96316800D02*
X98516000Y-96966800D01*
%TO.C,R15*%
X94616000Y-95708441D02*
X94616000Y-95401159D01*
X95376000Y-95708441D02*
X95376000Y-95401159D01*
%TO.C,R18*%
X101982000Y-95708441D02*
X101982000Y-95401159D01*
X102742000Y-95708441D02*
X102742000Y-95401159D01*
%TO.C,D4*%
X91656000Y-99845800D02*
X93941000Y-99845800D01*
X93941000Y-99845800D02*
X93941000Y-98375800D01*
X93941000Y-98375800D02*
X91656000Y-98375800D01*
%TO.C,D3*%
X101307000Y-98375800D02*
X99022000Y-98375800D01*
X101307000Y-99845800D02*
X101307000Y-98375800D01*
X99022000Y-99845800D02*
X101307000Y-99845800D01*
%TO.C,R3*%
X97382359Y-88520000D02*
X97689641Y-88520000D01*
X97382359Y-89280000D02*
X97689641Y-89280000D01*
%TO.C,R5*%
X99721641Y-89280000D02*
X99414359Y-89280000D01*
X99721641Y-88520000D02*
X99414359Y-88520000D01*
%TO.C,C5*%
X84943836Y-94128000D02*
X84728164Y-94128000D01*
X84943836Y-94848000D02*
X84728164Y-94848000D01*
%TO.C,D2*%
X78248000Y-93762000D02*
X78248000Y-97662000D01*
X80248000Y-93762000D02*
X78248000Y-93762000D01*
X80248000Y-93762000D02*
X80248000Y-97662000D01*
%TO.C,C1*%
X81426164Y-89556000D02*
X81641836Y-89556000D01*
X81426164Y-90276000D02*
X81641836Y-90276000D01*
%TO.C,C14*%
X81166580Y-91696000D02*
X80885420Y-91696000D01*
X81166580Y-90676000D02*
X80885420Y-90676000D01*
%TO.C,J1*%
X92582000Y-70164000D02*
X92582000Y-76164000D01*
X81662000Y-76164000D02*
X81662000Y-70164000D01*
X84962000Y-79221071D02*
X84962000Y-78824000D01*
X79542000Y-76164000D02*
X79542000Y-70164000D01*
X98552000Y-78824000D02*
X98552000Y-76164000D01*
X100202000Y-79221071D02*
X100202000Y-78824000D01*
X80772000Y-78824000D02*
X80772000Y-76164000D01*
X84962000Y-70164000D02*
X84962000Y-76164000D01*
X84202000Y-81761071D02*
X84202000Y-81306929D01*
X79782000Y-76164000D02*
X79782000Y-70164000D01*
X79122000Y-79221071D02*
X79122000Y-78824000D01*
X101152000Y-76164000D02*
X78172000Y-76164000D01*
X94362000Y-79221071D02*
X94362000Y-78824000D01*
X79302000Y-76164000D02*
X79302000Y-70164000D01*
X79182000Y-76164000D02*
X79182000Y-70164000D01*
X90042000Y-81761071D02*
X90042000Y-81306929D01*
X79882000Y-70164000D02*
X79882000Y-76164000D01*
X91822000Y-81761071D02*
X91822000Y-81306929D01*
X94362000Y-70164000D02*
X95122000Y-70164000D01*
X100202000Y-81761071D02*
X100202000Y-81306929D01*
X93472000Y-78824000D02*
X93472000Y-76164000D01*
X96902000Y-79221071D02*
X96902000Y-78824000D01*
X79122000Y-81694000D02*
X79122000Y-81306929D01*
X97662000Y-81761071D02*
X97662000Y-81306929D01*
X89282000Y-76164000D02*
X89282000Y-70164000D01*
X86742000Y-79221071D02*
X86742000Y-78824000D01*
X79502000Y-84074000D02*
X78232000Y-84074000D01*
X89282000Y-81761071D02*
X89282000Y-81306929D01*
X99442000Y-76164000D02*
X99442000Y-70164000D01*
X96902000Y-70164000D02*
X97662000Y-70164000D01*
X82422000Y-70164000D02*
X82422000Y-76164000D01*
X82422000Y-79221071D02*
X82422000Y-78824000D01*
X81662000Y-79221071D02*
X81662000Y-78824000D01*
X100202000Y-70164000D02*
X100202000Y-76164000D01*
X79422000Y-76164000D02*
X79422000Y-70164000D01*
X87502000Y-79221071D02*
X87502000Y-78824000D01*
X97662000Y-79221071D02*
X97662000Y-78824000D01*
X81662000Y-81761071D02*
X81662000Y-81306929D01*
X79882000Y-79221071D02*
X79882000Y-78824000D01*
X90042000Y-79221071D02*
X90042000Y-78824000D01*
X92582000Y-79221071D02*
X92582000Y-78824000D01*
X94362000Y-81761071D02*
X94362000Y-81306929D01*
X96902000Y-81761071D02*
X96902000Y-81306929D01*
X101152000Y-78824000D02*
X101152000Y-76164000D01*
X79122000Y-76164000D02*
X79122000Y-70164000D01*
X92582000Y-81761071D02*
X92582000Y-81306929D01*
X82422000Y-81761071D02*
X82422000Y-81306929D01*
X91822000Y-79221071D02*
X91822000Y-78824000D01*
X94362000Y-76164000D02*
X94362000Y-70164000D01*
X95122000Y-79221071D02*
X95122000Y-78824000D01*
X84202000Y-76164000D02*
X84202000Y-70164000D01*
X85852000Y-78824000D02*
X85852000Y-76164000D01*
X99442000Y-70164000D02*
X100202000Y-70164000D01*
X91822000Y-70164000D02*
X92582000Y-70164000D01*
X89282000Y-79221071D02*
X89282000Y-78824000D01*
X87502000Y-81761071D02*
X87502000Y-81306929D01*
X86742000Y-81761071D02*
X86742000Y-81306929D01*
X79662000Y-76164000D02*
X79662000Y-70164000D01*
X89282000Y-70164000D02*
X90042000Y-70164000D01*
X78172000Y-76164000D02*
X78172000Y-78824000D01*
X83312000Y-78824000D02*
X83312000Y-76164000D01*
X96012000Y-78824000D02*
X96012000Y-76164000D01*
X86742000Y-70164000D02*
X87502000Y-70164000D01*
X96902000Y-76164000D02*
X96902000Y-70164000D01*
X90042000Y-70164000D02*
X90042000Y-76164000D01*
X86742000Y-76164000D02*
X86742000Y-70164000D01*
X91822000Y-76164000D02*
X91822000Y-70164000D01*
X97662000Y-70164000D02*
X97662000Y-76164000D01*
X90932000Y-78824000D02*
X90932000Y-76164000D01*
X79122000Y-70164000D02*
X79882000Y-70164000D01*
X78232000Y-84074000D02*
X78232000Y-82804000D01*
X78172000Y-78824000D02*
X101152000Y-78824000D01*
X81662000Y-70164000D02*
X82422000Y-70164000D01*
X99442000Y-81761071D02*
X99442000Y-81306929D01*
X95122000Y-81761071D02*
X95122000Y-81306929D01*
X84202000Y-70164000D02*
X84962000Y-70164000D01*
X99442000Y-79221071D02*
X99442000Y-78824000D01*
X88392000Y-78824000D02*
X88392000Y-76164000D01*
X84962000Y-81761071D02*
X84962000Y-81306929D01*
X87502000Y-70164000D02*
X87502000Y-76164000D01*
X84202000Y-79221071D02*
X84202000Y-78824000D01*
X95122000Y-70164000D02*
X95122000Y-76164000D01*
X79882000Y-81694000D02*
X79882000Y-81306929D01*
%TO.C,D1*%
X86376000Y-98820800D02*
X86376000Y-94920800D01*
X88376000Y-98820800D02*
X88376000Y-94920800D01*
X86376000Y-98820800D02*
X88376000Y-98820800D01*
%TO.C,TP1*%
X104328000Y-89154000D02*
G75*
G03*
X104328000Y-89154000I-950000J0D01*
G01*
D12*
%TO.C,J4*%
X111760000Y-125739000D02*
X111760000Y-126239000D01*
X106680000Y-126239000D02*
X109220000Y-126239000D01*
X104140000Y-126239000D02*
X104140000Y-125739000D01*
X106680000Y-125739000D02*
X106680000Y-126239000D01*
D13*
X102170000Y-124723000D02*
X102170000Y-125223000D01*
D12*
X109220000Y-126239000D02*
X109220000Y-125739000D01*
D13*
X102770000Y-116239000D02*
X102770000Y-126239000D01*
X102170000Y-117247000D02*
X102170000Y-117747000D01*
D12*
X104140000Y-125739000D02*
X106680000Y-125739000D01*
X109220000Y-125739000D02*
X111760000Y-125739000D01*
X102770000Y-126239000D02*
X104140000Y-126239000D01*
D13*
X102770000Y-116239000D02*
X113130000Y-116239000D01*
X113130000Y-116239000D02*
X113130000Y-126239000D01*
D12*
X111760000Y-126239000D02*
X113130000Y-126239000D01*
%TO.C,J3*%
X90805000Y-125739000D02*
X93345000Y-125739000D01*
D13*
X83755000Y-124723000D02*
X83755000Y-125223000D01*
D12*
X93345000Y-125739000D02*
X93345000Y-126239000D01*
X90805000Y-126239000D02*
X90805000Y-125739000D01*
X93345000Y-126239000D02*
X94715000Y-126239000D01*
D13*
X83755000Y-117247000D02*
X83755000Y-117747000D01*
X84355000Y-116239000D02*
X84355000Y-126239000D01*
D12*
X84355000Y-126239000D02*
X85725000Y-126239000D01*
X85725000Y-125739000D02*
X88265000Y-125739000D01*
X88265000Y-126239000D02*
X90805000Y-126239000D01*
X85725000Y-126239000D02*
X85725000Y-125739000D01*
D13*
X84355000Y-116239000D02*
X94715000Y-116239000D01*
X94715000Y-116239000D02*
X94715000Y-126239000D01*
D12*
X88265000Y-125739000D02*
X88265000Y-126239000D01*
D13*
%TO.C,Q2*%
X113395000Y-108620000D02*
X113395000Y-112125000D01*
X110460000Y-108855000D02*
X110125000Y-108855000D01*
X110460000Y-112125000D02*
X110125000Y-112125000D01*
X110125000Y-108855000D02*
X110125000Y-112125000D01*
X113395000Y-112125000D02*
X113060000Y-112125000D01*
%TO.C,Q6*%
X100187000Y-112125000D02*
X99852000Y-112125000D01*
X100187000Y-108620000D02*
X100187000Y-112125000D01*
X96917000Y-108855000D02*
X96917000Y-112125000D01*
X97252000Y-112125000D02*
X96917000Y-112125000D01*
X97252000Y-108855000D02*
X96917000Y-108855000D01*
%TO.C,R16*%
X89028000Y-95401159D02*
X89028000Y-95708441D01*
X89788000Y-95401159D02*
X89788000Y-95708441D01*
%TO.C,R17*%
X90044000Y-95401159D02*
X90044000Y-95708441D01*
X90804000Y-95401159D02*
X90804000Y-95708441D01*
%TO.C,R19*%
X96394000Y-95401159D02*
X96394000Y-95708441D01*
X97154000Y-95401159D02*
X97154000Y-95708441D01*
%TO.C,R20*%
X98170000Y-95401159D02*
X98170000Y-95708441D01*
X97410000Y-95401159D02*
X97410000Y-95708441D01*
%TO.C,Q3*%
X118983000Y-112125000D02*
X118648000Y-112125000D01*
X116048000Y-112125000D02*
X115713000Y-112125000D01*
X116048000Y-108855000D02*
X115713000Y-108855000D01*
X115713000Y-108855000D02*
X115713000Y-112125000D01*
X118983000Y-108620000D02*
X118983000Y-112125000D01*
%TO.C,Q7*%
X102840000Y-108855000D02*
X102505000Y-108855000D01*
X105775000Y-108620000D02*
X105775000Y-112125000D01*
X105775000Y-112125000D02*
X105440000Y-112125000D01*
X102840000Y-112125000D02*
X102505000Y-112125000D01*
X102505000Y-108855000D02*
X102505000Y-112125000D01*
%TO.C,C3*%
X93071836Y-86724000D02*
X92856164Y-86724000D01*
X93071836Y-87444000D02*
X92856164Y-87444000D01*
%TO.C,R21*%
X79348359Y-86742000D02*
X79655641Y-86742000D01*
X79348359Y-87502000D02*
X79655641Y-87502000D01*
%TO.C,R4*%
X93117641Y-86448000D02*
X92810359Y-86448000D01*
X93117641Y-85688000D02*
X92810359Y-85688000D01*
%TO.C,R1*%
X92101641Y-91274000D02*
X91794359Y-91274000D01*
X92101641Y-90514000D02*
X91794359Y-90514000D01*
%TO.C,R7*%
X81380359Y-86704000D02*
X81687641Y-86704000D01*
X81380359Y-87464000D02*
X81687641Y-87464000D01*
%TO.C,C2*%
X81426164Y-92096000D02*
X81641836Y-92096000D01*
X81426164Y-92816000D02*
X81641836Y-92816000D01*
%TO.C,U1*%
X86649000Y-92239000D02*
X88849000Y-92239000D01*
X86649000Y-85469000D02*
X88849000Y-85469000D01*
X86649000Y-85469000D02*
X83049000Y-85469000D01*
X86649000Y-92239000D02*
X84449000Y-92239000D01*
%TO.C,C6*%
X79609836Y-88498000D02*
X79394164Y-88498000D01*
X79609836Y-87778000D02*
X79394164Y-87778000D01*
%TO.C,R2*%
X92101641Y-91530000D02*
X91794359Y-91530000D01*
X92101641Y-92290000D02*
X91794359Y-92290000D01*
%TO.C,R6*%
X81380359Y-85688000D02*
X81687641Y-85688000D01*
X81380359Y-86448000D02*
X81687641Y-86448000D01*
%TD*%
%LPC*%
D14*
%TO.C,J2*%
X81788000Y-104648000D03*
X81788000Y-109728000D03*
%TD*%
D15*
%TO.C,H1*%
X123444000Y-83655000D03*
%TD*%
D14*
%TO.C,H2*%
X79375000Y-123025000D03*
%TD*%
D15*
%TO.C,H4*%
X80645000Y-117945000D03*
%TD*%
D16*
%TO.C,SW1*%
X120935000Y-86626000D03*
X108935000Y-86626000D03*
D17*
X109385000Y-82426000D03*
X120485000Y-82426000D03*
X114935000Y-79726000D03*
X109385000Y-90726000D03*
X120885000Y-90026000D03*
%TD*%
D18*
%TO.C,C4*%
X81521000Y-94234000D03*
X83071000Y-94234000D03*
%TD*%
D19*
%TO.C,C11*%
X109025500Y-99022000D03*
X107890500Y-99022000D03*
%TD*%
D20*
%TO.C,Q1*%
X110695500Y-96802000D03*
X110695500Y-98702000D03*
X112570500Y-97752000D03*
%TD*%
%TO.C,Q4*%
X104345500Y-96802000D03*
X104345500Y-98702000D03*
X106220500Y-97752000D03*
%TD*%
D21*
%TO.C,R11*%
X107860500Y-97752000D03*
X109055500Y-97752000D03*
%TD*%
D22*
%TO.C,R12*%
X108968000Y-95974000D03*
X107948000Y-95974000D03*
%TD*%
D19*
%TO.C,C13*%
X119439500Y-99022000D03*
X118304500Y-99022000D03*
%TD*%
D20*
%TO.C,Q5*%
X121109500Y-96802000D03*
X121109500Y-98702000D03*
X122984500Y-97752000D03*
%TD*%
%TO.C,Q8*%
X114759500Y-96802000D03*
X114759500Y-98702000D03*
X116634500Y-97752000D03*
%TD*%
D21*
%TO.C,R13*%
X118274500Y-97752000D03*
X119469500Y-97752000D03*
%TD*%
D22*
%TO.C,R14*%
X119382000Y-95974000D03*
X118362000Y-95974000D03*
%TD*%
D23*
%TO.C,C10*%
X122174000Y-95212000D03*
X121214000Y-95212000D03*
%TD*%
%TO.C,C12*%
X111760000Y-95212000D03*
X110800000Y-95212000D03*
%TD*%
D24*
%TO.C,C7*%
X102517000Y-83274000D03*
X103477000Y-83274000D03*
%TD*%
%TO.C,C8*%
X102517000Y-84544000D03*
X103477000Y-84544000D03*
%TD*%
%TO.C,C9*%
X102517000Y-85814000D03*
X103477000Y-85814000D03*
%TD*%
D25*
%TO.C,U2*%
X84812000Y-96394000D03*
D26*
X83312000Y-96481500D03*
D25*
X81812000Y-96394000D03*
%TD*%
D22*
%TO.C,R8*%
X105539000Y-83274000D03*
X104519000Y-83274000D03*
%TD*%
D27*
%TO.C,R9*%
X104519000Y-85814000D03*
X105539000Y-85814000D03*
%TD*%
D22*
%TO.C,R10*%
X105539000Y-84544000D03*
X104519000Y-84544000D03*
%TD*%
D28*
%TO.C,Q9*%
X93660000Y-95379300D03*
X91760000Y-95379300D03*
X92710000Y-97254300D03*
%TD*%
%TO.C,Q10*%
X101026000Y-95379300D03*
X99126000Y-95379300D03*
X100076000Y-97254300D03*
%TD*%
D29*
%TO.C,R15*%
X94996000Y-96064800D03*
X94996000Y-95044800D03*
%TD*%
%TO.C,R18*%
X102362000Y-96064800D03*
X102362000Y-95044800D03*
%TD*%
D30*
%TO.C,D4*%
X93243500Y-99110800D03*
X91668500Y-99110800D03*
%TD*%
%TO.C,D3*%
X100609500Y-99110800D03*
X99034500Y-99110800D03*
%TD*%
D27*
%TO.C,R3*%
X97026000Y-88900000D03*
X98046000Y-88900000D03*
%TD*%
D22*
%TO.C,R5*%
X100078000Y-88900000D03*
X99058000Y-88900000D03*
%TD*%
D23*
%TO.C,C5*%
X85316000Y-94488000D03*
X84356000Y-94488000D03*
%TD*%
D14*
%TO.C,H5*%
X123025000Y-123025000D03*
%TD*%
%TO.C,H7*%
X123025000Y-79375000D03*
%TD*%
D31*
%TO.C,H3*%
X93500000Y-111270000D03*
%TD*%
%TO.C,H6*%
X123500000Y-111270000D03*
%TD*%
D32*
%TO.C,D2*%
X79248000Y-94362000D03*
X79248000Y-97662000D03*
%TD*%
D24*
%TO.C,C1*%
X81054000Y-89916000D03*
X82014000Y-89916000D03*
%TD*%
D33*
%TO.C,C14*%
X81801000Y-91186000D03*
X80251000Y-91186000D03*
%TD*%
D34*
%TO.C,J1*%
X79502000Y-82804000D03*
D35*
X79502000Y-80264000D03*
X82042000Y-82804000D03*
X82042000Y-80264000D03*
X84582000Y-82804000D03*
X84582000Y-80264000D03*
X87122000Y-82804000D03*
X87122000Y-80264000D03*
X89662000Y-82804000D03*
X89662000Y-80264000D03*
X92202000Y-82804000D03*
X92202000Y-80264000D03*
X94742000Y-82804000D03*
X94742000Y-80264000D03*
X97282000Y-82804000D03*
X97282000Y-80264000D03*
X99822000Y-82804000D03*
X99822000Y-80264000D03*
%TD*%
D32*
%TO.C,D1*%
X87376000Y-98220800D03*
X87376000Y-94920800D03*
%TD*%
D36*
%TO.C,TP1*%
X103378000Y-89154000D03*
%TD*%
D14*
%TO.C,J4*%
X105410000Y-120739000D03*
X110490000Y-120739000D03*
%TD*%
%TO.C,J3*%
X86995000Y-120739000D03*
X92075000Y-120739000D03*
%TD*%
D37*
%TO.C,Q2*%
X112750000Y-109055000D03*
X112090000Y-109055000D03*
X111430000Y-109055000D03*
X110770000Y-109055000D03*
D38*
X111760000Y-111047500D03*
%TD*%
D37*
%TO.C,Q6*%
X99542000Y-109055000D03*
X98882000Y-109055000D03*
X98222000Y-109055000D03*
X97562000Y-109055000D03*
D38*
X98552000Y-111047500D03*
%TD*%
D39*
%TO.C,R16*%
X89408000Y-95044800D03*
X89408000Y-96064800D03*
%TD*%
%TO.C,R17*%
X90424000Y-95044800D03*
X90424000Y-96064800D03*
%TD*%
%TO.C,R19*%
X96774000Y-95044800D03*
X96774000Y-96064800D03*
%TD*%
%TO.C,R20*%
X97790000Y-95044800D03*
X97790000Y-96064800D03*
%TD*%
D37*
%TO.C,Q3*%
X118338000Y-109055000D03*
X117678000Y-109055000D03*
X117018000Y-109055000D03*
X116358000Y-109055000D03*
D38*
X117348000Y-111047500D03*
%TD*%
D37*
%TO.C,Q7*%
X105130000Y-109055000D03*
X104470000Y-109055000D03*
X103810000Y-109055000D03*
X103150000Y-109055000D03*
D38*
X104140000Y-111047500D03*
%TD*%
D23*
%TO.C,C3*%
X93444000Y-87084000D03*
X92484000Y-87084000D03*
%TD*%
D27*
%TO.C,R21*%
X78992000Y-87122000D03*
X80012000Y-87122000D03*
%TD*%
D22*
%TO.C,R4*%
X93474000Y-86068000D03*
X92454000Y-86068000D03*
%TD*%
%TO.C,R1*%
X92458000Y-90894000D03*
X91438000Y-90894000D03*
%TD*%
D27*
%TO.C,R7*%
X81024000Y-87084000D03*
X82044000Y-87084000D03*
%TD*%
D24*
%TO.C,C2*%
X81054000Y-92456000D03*
X82014000Y-92456000D03*
%TD*%
D40*
%TO.C,U1*%
X83786500Y-85929000D03*
X83786500Y-86579000D03*
X83786500Y-87229000D03*
X83786500Y-87879000D03*
X83786500Y-88529000D03*
X83786500Y-89179000D03*
X83786500Y-89829000D03*
X83786500Y-90479000D03*
X83786500Y-91129000D03*
X83786500Y-91779000D03*
X89511500Y-91779000D03*
X89511500Y-91129000D03*
X89511500Y-90479000D03*
X89511500Y-89829000D03*
X89511500Y-89179000D03*
X89511500Y-88529000D03*
X89511500Y-87879000D03*
X89511500Y-87229000D03*
X89511500Y-86579000D03*
X89511500Y-85929000D03*
%TD*%
D23*
%TO.C,C6*%
X79982000Y-88138000D03*
X79022000Y-88138000D03*
%TD*%
D22*
%TO.C,R2*%
X92458000Y-91910000D03*
X91438000Y-91910000D03*
%TD*%
D27*
%TO.C,R6*%
X81024000Y-86068000D03*
X82044000Y-86068000D03*
%TD*%
M02*
