G04 #@! TF.GenerationSoftware,KiCad,Pcbnew,5.1.10*
G04 #@! TF.CreationDate,2021-12-31T02:12:40+02:00*
G04 #@! TF.ProjectId,pwm-controller,70776d2d-636f-46e7-9472-6f6c6c65722e,rev?*
G04 #@! TF.SameCoordinates,Original*
G04 #@! TF.FileFunction,Soldermask,Top*
G04 #@! TF.FilePolarity,Negative*
%FSLAX46Y46*%
G04 Gerber Fmt 4.6, Leading zero omitted, Abs format (unit mm)*
G04 Created by KiCad (PCBNEW 5.1.10) date 2021-12-31 02:12:40*
%MOMM*%
%LPD*%
G01*
G04 APERTURE LIST*
%ADD10C,0.100000*%
%ADD11R,0.405000X0.990000*%
%ADD12C,2.200000*%
%ADD13C,1.500000*%
%ADD14R,1.200000X0.900000*%
%ADD15O,1.700000X1.700000*%
%ADD16R,1.700000X1.700000*%
%ADD17C,1.800000*%
%ADD18C,2.000000*%
%ADD19R,0.800000X0.900000*%
%ADD20R,0.900000X1.300000*%
%ADD21R,0.900000X0.800000*%
%ADD22C,1.310000*%
G04 APERTURE END LIST*
G36*
G01*
X80504000Y-87269000D02*
X80504000Y-86899000D01*
G75*
G02*
X80639000Y-86764000I135000J0D01*
G01*
X80909000Y-86764000D01*
G75*
G02*
X81044000Y-86899000I0J-135000D01*
G01*
X81044000Y-87269000D01*
G75*
G02*
X80909000Y-87404000I-135000J0D01*
G01*
X80639000Y-87404000D01*
G75*
G02*
X80504000Y-87269000I0J135000D01*
G01*
G37*
G36*
G01*
X79484000Y-87269000D02*
X79484000Y-86899000D01*
G75*
G02*
X79619000Y-86764000I135000J0D01*
G01*
X79889000Y-86764000D01*
G75*
G02*
X80024000Y-86899000I0J-135000D01*
G01*
X80024000Y-87269000D01*
G75*
G02*
X79889000Y-87404000I-135000J0D01*
G01*
X79619000Y-87404000D01*
G75*
G02*
X79484000Y-87269000I0J135000D01*
G01*
G37*
G36*
G01*
X80504000Y-86253000D02*
X80504000Y-85883000D01*
G75*
G02*
X80639000Y-85748000I135000J0D01*
G01*
X80909000Y-85748000D01*
G75*
G02*
X81044000Y-85883000I0J-135000D01*
G01*
X81044000Y-86253000D01*
G75*
G02*
X80909000Y-86388000I-135000J0D01*
G01*
X80639000Y-86388000D01*
G75*
G02*
X80504000Y-86253000I0J135000D01*
G01*
G37*
G36*
G01*
X79484000Y-86253000D02*
X79484000Y-85883000D01*
G75*
G02*
X79619000Y-85748000I135000J0D01*
G01*
X79889000Y-85748000D01*
G75*
G02*
X80024000Y-85883000I0J-135000D01*
G01*
X80024000Y-86253000D01*
G75*
G02*
X79889000Y-86388000I-135000J0D01*
G01*
X79619000Y-86388000D01*
G75*
G02*
X79484000Y-86253000I0J135000D01*
G01*
G37*
G36*
G01*
X90239000Y-95490000D02*
X90609000Y-95490000D01*
G75*
G02*
X90744000Y-95625000I0J-135000D01*
G01*
X90744000Y-95895000D01*
G75*
G02*
X90609000Y-96030000I-135000J0D01*
G01*
X90239000Y-96030000D01*
G75*
G02*
X90104000Y-95895000I0J135000D01*
G01*
X90104000Y-95625000D01*
G75*
G02*
X90239000Y-95490000I135000J0D01*
G01*
G37*
G36*
G01*
X90239000Y-94470000D02*
X90609000Y-94470000D01*
G75*
G02*
X90744000Y-94605000I0J-135000D01*
G01*
X90744000Y-94875000D01*
G75*
G02*
X90609000Y-95010000I-135000J0D01*
G01*
X90239000Y-95010000D01*
G75*
G02*
X90104000Y-94875000I0J135000D01*
G01*
X90104000Y-94605000D01*
G75*
G02*
X90239000Y-94470000I135000J0D01*
G01*
G37*
D10*
G36*
X104927500Y-112420000D02*
G01*
X104927500Y-111910000D01*
X104672500Y-111910000D01*
X104672500Y-112420000D01*
X104267500Y-112420000D01*
X104267500Y-111910000D01*
X104012500Y-111910000D01*
X104012500Y-112420000D01*
X103607500Y-112420000D01*
X103607500Y-111910000D01*
X103352500Y-111910000D01*
X103352500Y-112420000D01*
X102945000Y-112420000D01*
X102945000Y-111660000D01*
X103022500Y-111660000D01*
X103022500Y-110185000D01*
X105257500Y-110185000D01*
X105257500Y-111660000D01*
X105335000Y-111660000D01*
X105335000Y-112420000D01*
X104927500Y-112420000D01*
G37*
D11*
X103150000Y-109055000D03*
X103810000Y-109055000D03*
X104470000Y-109055000D03*
X105130000Y-109055000D03*
D10*
G36*
X118135500Y-112420000D02*
G01*
X118135500Y-111910000D01*
X117880500Y-111910000D01*
X117880500Y-112420000D01*
X117475500Y-112420000D01*
X117475500Y-111910000D01*
X117220500Y-111910000D01*
X117220500Y-112420000D01*
X116815500Y-112420000D01*
X116815500Y-111910000D01*
X116560500Y-111910000D01*
X116560500Y-112420000D01*
X116153000Y-112420000D01*
X116153000Y-111660000D01*
X116230500Y-111660000D01*
X116230500Y-110185000D01*
X118465500Y-110185000D01*
X118465500Y-111660000D01*
X118543000Y-111660000D01*
X118543000Y-112420000D01*
X118135500Y-112420000D01*
G37*
D11*
X116358000Y-109055000D03*
X117018000Y-109055000D03*
X117678000Y-109055000D03*
X118338000Y-109055000D03*
G36*
G01*
X97605000Y-95490000D02*
X97975000Y-95490000D01*
G75*
G02*
X98110000Y-95625000I0J-135000D01*
G01*
X98110000Y-95895000D01*
G75*
G02*
X97975000Y-96030000I-135000J0D01*
G01*
X97605000Y-96030000D01*
G75*
G02*
X97470000Y-95895000I0J135000D01*
G01*
X97470000Y-95625000D01*
G75*
G02*
X97605000Y-95490000I135000J0D01*
G01*
G37*
G36*
G01*
X97605000Y-94470000D02*
X97975000Y-94470000D01*
G75*
G02*
X98110000Y-94605000I0J-135000D01*
G01*
X98110000Y-94875000D01*
G75*
G02*
X97975000Y-95010000I-135000J0D01*
G01*
X97605000Y-95010000D01*
G75*
G02*
X97470000Y-94875000I0J135000D01*
G01*
X97470000Y-94605000D01*
G75*
G02*
X97605000Y-94470000I135000J0D01*
G01*
G37*
G36*
G01*
X96589000Y-95490000D02*
X96959000Y-95490000D01*
G75*
G02*
X97094000Y-95625000I0J-135000D01*
G01*
X97094000Y-95895000D01*
G75*
G02*
X96959000Y-96030000I-135000J0D01*
G01*
X96589000Y-96030000D01*
G75*
G02*
X96454000Y-95895000I0J135000D01*
G01*
X96454000Y-95625000D01*
G75*
G02*
X96589000Y-95490000I135000J0D01*
G01*
G37*
G36*
G01*
X96589000Y-94470000D02*
X96959000Y-94470000D01*
G75*
G02*
X97094000Y-94605000I0J-135000D01*
G01*
X97094000Y-94875000D01*
G75*
G02*
X96959000Y-95010000I-135000J0D01*
G01*
X96589000Y-95010000D01*
G75*
G02*
X96454000Y-94875000I0J135000D01*
G01*
X96454000Y-94605000D01*
G75*
G02*
X96589000Y-94470000I135000J0D01*
G01*
G37*
G36*
G01*
X89223000Y-95490000D02*
X89593000Y-95490000D01*
G75*
G02*
X89728000Y-95625000I0J-135000D01*
G01*
X89728000Y-95895000D01*
G75*
G02*
X89593000Y-96030000I-135000J0D01*
G01*
X89223000Y-96030000D01*
G75*
G02*
X89088000Y-95895000I0J135000D01*
G01*
X89088000Y-95625000D01*
G75*
G02*
X89223000Y-95490000I135000J0D01*
G01*
G37*
G36*
G01*
X89223000Y-94470000D02*
X89593000Y-94470000D01*
G75*
G02*
X89728000Y-94605000I0J-135000D01*
G01*
X89728000Y-94875000D01*
G75*
G02*
X89593000Y-95010000I-135000J0D01*
G01*
X89223000Y-95010000D01*
G75*
G02*
X89088000Y-94875000I0J135000D01*
G01*
X89088000Y-94605000D01*
G75*
G02*
X89223000Y-94470000I135000J0D01*
G01*
G37*
G36*
G01*
X91200000Y-85883000D02*
X91200000Y-86253000D01*
G75*
G02*
X91065000Y-86388000I-135000J0D01*
G01*
X90795000Y-86388000D01*
G75*
G02*
X90660000Y-86253000I0J135000D01*
G01*
X90660000Y-85883000D01*
G75*
G02*
X90795000Y-85748000I135000J0D01*
G01*
X91065000Y-85748000D01*
G75*
G02*
X91200000Y-85883000I0J-135000D01*
G01*
G37*
G36*
G01*
X92220000Y-85883000D02*
X92220000Y-86253000D01*
G75*
G02*
X92085000Y-86388000I-135000J0D01*
G01*
X91815000Y-86388000D01*
G75*
G02*
X91680000Y-86253000I0J135000D01*
G01*
X91680000Y-85883000D01*
G75*
G02*
X91815000Y-85748000I135000J0D01*
G01*
X92085000Y-85748000D01*
G75*
G02*
X92220000Y-85883000I0J-135000D01*
G01*
G37*
X99542000Y-109055000D03*
X98882000Y-109055000D03*
X98222000Y-109055000D03*
X97562000Y-109055000D03*
D10*
G36*
X99339500Y-112420000D02*
G01*
X99339500Y-111910000D01*
X99084500Y-111910000D01*
X99084500Y-112420000D01*
X98679500Y-112420000D01*
X98679500Y-111910000D01*
X98424500Y-111910000D01*
X98424500Y-112420000D01*
X98019500Y-112420000D01*
X98019500Y-111910000D01*
X97764500Y-111910000D01*
X97764500Y-112420000D01*
X97357000Y-112420000D01*
X97357000Y-111660000D01*
X97434500Y-111660000D01*
X97434500Y-110185000D01*
X99669500Y-110185000D01*
X99669500Y-111660000D01*
X99747000Y-111660000D01*
X99747000Y-112420000D01*
X99339500Y-112420000D01*
G37*
D11*
X112750000Y-109055000D03*
X112090000Y-109055000D03*
X111430000Y-109055000D03*
X110770000Y-109055000D03*
D10*
G36*
X112547500Y-112420000D02*
G01*
X112547500Y-111910000D01*
X112292500Y-111910000D01*
X112292500Y-112420000D01*
X111887500Y-112420000D01*
X111887500Y-111910000D01*
X111632500Y-111910000D01*
X111632500Y-112420000D01*
X111227500Y-112420000D01*
X111227500Y-111910000D01*
X110972500Y-111910000D01*
X110972500Y-112420000D01*
X110565000Y-112420000D01*
X110565000Y-111660000D01*
X110642500Y-111660000D01*
X110642500Y-110185000D01*
X112877500Y-110185000D01*
X112877500Y-111660000D01*
X112955000Y-111660000D01*
X112955000Y-112420000D01*
X112547500Y-112420000D01*
G37*
D12*
X86995000Y-120739000D03*
X92075000Y-120739000D03*
D13*
X103378000Y-89154000D03*
D14*
X87376000Y-94616000D03*
X87376000Y-97916000D03*
D15*
X99822000Y-80264000D03*
X99822000Y-82804000D03*
X97282000Y-80264000D03*
X97282000Y-82804000D03*
X94742000Y-80264000D03*
X94742000Y-82804000D03*
X92202000Y-80264000D03*
X92202000Y-82804000D03*
X89662000Y-80264000D03*
X89662000Y-82804000D03*
X87122000Y-80264000D03*
X87122000Y-82804000D03*
X84582000Y-80264000D03*
X84582000Y-82804000D03*
X82042000Y-80264000D03*
X82042000Y-82804000D03*
X79502000Y-80264000D03*
D16*
X79502000Y-82804000D03*
G36*
G01*
X119335000Y-87726000D02*
X119335000Y-85526000D01*
G75*
G02*
X120135000Y-84726000I800000J0D01*
G01*
X121735000Y-84726000D01*
G75*
G02*
X122535000Y-85526000I0J-800000D01*
G01*
X122535000Y-87726000D01*
G75*
G02*
X121735000Y-88526000I-800000J0D01*
G01*
X120135000Y-88526000D01*
G75*
G02*
X119335000Y-87726000I0J800000D01*
G01*
G37*
G36*
G01*
X107335000Y-87726000D02*
X107335000Y-85526000D01*
G75*
G02*
X108135000Y-84726000I800000J0D01*
G01*
X109735000Y-84726000D01*
G75*
G02*
X110535000Y-85526000I0J-800000D01*
G01*
X110535000Y-87726000D01*
G75*
G02*
X109735000Y-88526000I-800000J0D01*
G01*
X108135000Y-88526000D01*
G75*
G02*
X107335000Y-87726000I0J800000D01*
G01*
G37*
D17*
X114935000Y-79726000D03*
X109385000Y-82426000D03*
X120485000Y-82426000D03*
X120885000Y-90026000D03*
X109385000Y-90726000D03*
G36*
G01*
X91240000Y-86914000D02*
X91240000Y-87254000D01*
G75*
G02*
X91100000Y-87394000I-140000J0D01*
G01*
X90820000Y-87394000D01*
G75*
G02*
X90680000Y-87254000I0J140000D01*
G01*
X90680000Y-86914000D01*
G75*
G02*
X90820000Y-86774000I140000J0D01*
G01*
X91100000Y-86774000D01*
G75*
G02*
X91240000Y-86914000I0J-140000D01*
G01*
G37*
G36*
G01*
X92200000Y-86914000D02*
X92200000Y-87254000D01*
G75*
G02*
X92060000Y-87394000I-140000J0D01*
G01*
X91780000Y-87394000D01*
G75*
G02*
X91640000Y-87254000I0J140000D01*
G01*
X91640000Y-86914000D01*
G75*
G02*
X91780000Y-86774000I140000J0D01*
G01*
X92060000Y-86774000D01*
G75*
G02*
X92200000Y-86914000I0J-140000D01*
G01*
G37*
D14*
X79248000Y-97662000D03*
X79248000Y-94362000D03*
D18*
X123500000Y-111270000D03*
X93500000Y-111270000D03*
D12*
X123025000Y-79375000D03*
G36*
G01*
X97776000Y-89085000D02*
X97776000Y-88715000D01*
G75*
G02*
X97911000Y-88580000I135000J0D01*
G01*
X98181000Y-88580000D01*
G75*
G02*
X98316000Y-88715000I0J-135000D01*
G01*
X98316000Y-89085000D01*
G75*
G02*
X98181000Y-89220000I-135000J0D01*
G01*
X97911000Y-89220000D01*
G75*
G02*
X97776000Y-89085000I0J135000D01*
G01*
G37*
G36*
G01*
X96756000Y-89085000D02*
X96756000Y-88715000D01*
G75*
G02*
X96891000Y-88580000I135000J0D01*
G01*
X97161000Y-88580000D01*
G75*
G02*
X97296000Y-88715000I0J-135000D01*
G01*
X97296000Y-89085000D01*
G75*
G02*
X97161000Y-89220000I-135000J0D01*
G01*
X96891000Y-89220000D01*
G75*
G02*
X96756000Y-89085000I0J135000D01*
G01*
G37*
G36*
G01*
X99328000Y-88715000D02*
X99328000Y-89085000D01*
G75*
G02*
X99193000Y-89220000I-135000J0D01*
G01*
X98923000Y-89220000D01*
G75*
G02*
X98788000Y-89085000I0J135000D01*
G01*
X98788000Y-88715000D01*
G75*
G02*
X98923000Y-88580000I135000J0D01*
G01*
X99193000Y-88580000D01*
G75*
G02*
X99328000Y-88715000I0J-135000D01*
G01*
G37*
G36*
G01*
X100348000Y-88715000D02*
X100348000Y-89085000D01*
G75*
G02*
X100213000Y-89220000I-135000J0D01*
G01*
X99943000Y-89220000D01*
G75*
G02*
X99808000Y-89085000I0J135000D01*
G01*
X99808000Y-88715000D01*
G75*
G02*
X99943000Y-88580000I135000J0D01*
G01*
X100213000Y-88580000D01*
G75*
G02*
X100348000Y-88715000I0J-135000D01*
G01*
G37*
G36*
G01*
X103197000Y-85984000D02*
X103197000Y-85644000D01*
G75*
G02*
X103337000Y-85504000I140000J0D01*
G01*
X103617000Y-85504000D01*
G75*
G02*
X103757000Y-85644000I0J-140000D01*
G01*
X103757000Y-85984000D01*
G75*
G02*
X103617000Y-86124000I-140000J0D01*
G01*
X103337000Y-86124000D01*
G75*
G02*
X103197000Y-85984000I0J140000D01*
G01*
G37*
G36*
G01*
X102237000Y-85984000D02*
X102237000Y-85644000D01*
G75*
G02*
X102377000Y-85504000I140000J0D01*
G01*
X102657000Y-85504000D01*
G75*
G02*
X102797000Y-85644000I0J-140000D01*
G01*
X102797000Y-85984000D01*
G75*
G02*
X102657000Y-86124000I-140000J0D01*
G01*
X102377000Y-86124000D01*
G75*
G02*
X102237000Y-85984000I0J140000D01*
G01*
G37*
G36*
G01*
X103197000Y-83444000D02*
X103197000Y-83104000D01*
G75*
G02*
X103337000Y-82964000I140000J0D01*
G01*
X103617000Y-82964000D01*
G75*
G02*
X103757000Y-83104000I0J-140000D01*
G01*
X103757000Y-83444000D01*
G75*
G02*
X103617000Y-83584000I-140000J0D01*
G01*
X103337000Y-83584000D01*
G75*
G02*
X103197000Y-83444000I0J140000D01*
G01*
G37*
G36*
G01*
X102237000Y-83444000D02*
X102237000Y-83104000D01*
G75*
G02*
X102377000Y-82964000I140000J0D01*
G01*
X102657000Y-82964000D01*
G75*
G02*
X102797000Y-83104000I0J-140000D01*
G01*
X102797000Y-83444000D01*
G75*
G02*
X102657000Y-83584000I-140000J0D01*
G01*
X102377000Y-83584000D01*
G75*
G02*
X102237000Y-83444000I0J140000D01*
G01*
G37*
G36*
G01*
X103197000Y-84714000D02*
X103197000Y-84374000D01*
G75*
G02*
X103337000Y-84234000I140000J0D01*
G01*
X103617000Y-84234000D01*
G75*
G02*
X103757000Y-84374000I0J-140000D01*
G01*
X103757000Y-84714000D01*
G75*
G02*
X103617000Y-84854000I-140000J0D01*
G01*
X103337000Y-84854000D01*
G75*
G02*
X103197000Y-84714000I0J140000D01*
G01*
G37*
G36*
G01*
X102237000Y-84714000D02*
X102237000Y-84374000D01*
G75*
G02*
X102377000Y-84234000I140000J0D01*
G01*
X102657000Y-84234000D01*
G75*
G02*
X102797000Y-84374000I0J-140000D01*
G01*
X102797000Y-84714000D01*
G75*
G02*
X102657000Y-84854000I-140000J0D01*
G01*
X102377000Y-84854000D01*
G75*
G02*
X102237000Y-84714000I0J140000D01*
G01*
G37*
G36*
G01*
X87504000Y-86029000D02*
X87504000Y-85829000D01*
G75*
G02*
X87604000Y-85729000I100000J0D01*
G01*
X88879000Y-85729000D01*
G75*
G02*
X88979000Y-85829000I0J-100000D01*
G01*
X88979000Y-86029000D01*
G75*
G02*
X88879000Y-86129000I-100000J0D01*
G01*
X87604000Y-86129000D01*
G75*
G02*
X87504000Y-86029000I0J100000D01*
G01*
G37*
G36*
G01*
X87504000Y-86679000D02*
X87504000Y-86479000D01*
G75*
G02*
X87604000Y-86379000I100000J0D01*
G01*
X88879000Y-86379000D01*
G75*
G02*
X88979000Y-86479000I0J-100000D01*
G01*
X88979000Y-86679000D01*
G75*
G02*
X88879000Y-86779000I-100000J0D01*
G01*
X87604000Y-86779000D01*
G75*
G02*
X87504000Y-86679000I0J100000D01*
G01*
G37*
G36*
G01*
X87504000Y-87329000D02*
X87504000Y-87129000D01*
G75*
G02*
X87604000Y-87029000I100000J0D01*
G01*
X88879000Y-87029000D01*
G75*
G02*
X88979000Y-87129000I0J-100000D01*
G01*
X88979000Y-87329000D01*
G75*
G02*
X88879000Y-87429000I-100000J0D01*
G01*
X87604000Y-87429000D01*
G75*
G02*
X87504000Y-87329000I0J100000D01*
G01*
G37*
G36*
G01*
X87504000Y-87979000D02*
X87504000Y-87779000D01*
G75*
G02*
X87604000Y-87679000I100000J0D01*
G01*
X88879000Y-87679000D01*
G75*
G02*
X88979000Y-87779000I0J-100000D01*
G01*
X88979000Y-87979000D01*
G75*
G02*
X88879000Y-88079000I-100000J0D01*
G01*
X87604000Y-88079000D01*
G75*
G02*
X87504000Y-87979000I0J100000D01*
G01*
G37*
G36*
G01*
X87504000Y-88629000D02*
X87504000Y-88429000D01*
G75*
G02*
X87604000Y-88329000I100000J0D01*
G01*
X88879000Y-88329000D01*
G75*
G02*
X88979000Y-88429000I0J-100000D01*
G01*
X88979000Y-88629000D01*
G75*
G02*
X88879000Y-88729000I-100000J0D01*
G01*
X87604000Y-88729000D01*
G75*
G02*
X87504000Y-88629000I0J100000D01*
G01*
G37*
G36*
G01*
X87504000Y-89279000D02*
X87504000Y-89079000D01*
G75*
G02*
X87604000Y-88979000I100000J0D01*
G01*
X88879000Y-88979000D01*
G75*
G02*
X88979000Y-89079000I0J-100000D01*
G01*
X88979000Y-89279000D01*
G75*
G02*
X88879000Y-89379000I-100000J0D01*
G01*
X87604000Y-89379000D01*
G75*
G02*
X87504000Y-89279000I0J100000D01*
G01*
G37*
G36*
G01*
X87504000Y-89929000D02*
X87504000Y-89729000D01*
G75*
G02*
X87604000Y-89629000I100000J0D01*
G01*
X88879000Y-89629000D01*
G75*
G02*
X88979000Y-89729000I0J-100000D01*
G01*
X88979000Y-89929000D01*
G75*
G02*
X88879000Y-90029000I-100000J0D01*
G01*
X87604000Y-90029000D01*
G75*
G02*
X87504000Y-89929000I0J100000D01*
G01*
G37*
G36*
G01*
X87504000Y-90579000D02*
X87504000Y-90379000D01*
G75*
G02*
X87604000Y-90279000I100000J0D01*
G01*
X88879000Y-90279000D01*
G75*
G02*
X88979000Y-90379000I0J-100000D01*
G01*
X88979000Y-90579000D01*
G75*
G02*
X88879000Y-90679000I-100000J0D01*
G01*
X87604000Y-90679000D01*
G75*
G02*
X87504000Y-90579000I0J100000D01*
G01*
G37*
G36*
G01*
X87504000Y-91229000D02*
X87504000Y-91029000D01*
G75*
G02*
X87604000Y-90929000I100000J0D01*
G01*
X88879000Y-90929000D01*
G75*
G02*
X88979000Y-91029000I0J-100000D01*
G01*
X88979000Y-91229000D01*
G75*
G02*
X88879000Y-91329000I-100000J0D01*
G01*
X87604000Y-91329000D01*
G75*
G02*
X87504000Y-91229000I0J100000D01*
G01*
G37*
G36*
G01*
X87504000Y-91879000D02*
X87504000Y-91679000D01*
G75*
G02*
X87604000Y-91579000I100000J0D01*
G01*
X88879000Y-91579000D01*
G75*
G02*
X88979000Y-91679000I0J-100000D01*
G01*
X88979000Y-91879000D01*
G75*
G02*
X88879000Y-91979000I-100000J0D01*
G01*
X87604000Y-91979000D01*
G75*
G02*
X87504000Y-91879000I0J100000D01*
G01*
G37*
G36*
G01*
X81779000Y-91879000D02*
X81779000Y-91679000D01*
G75*
G02*
X81879000Y-91579000I100000J0D01*
G01*
X83154000Y-91579000D01*
G75*
G02*
X83254000Y-91679000I0J-100000D01*
G01*
X83254000Y-91879000D01*
G75*
G02*
X83154000Y-91979000I-100000J0D01*
G01*
X81879000Y-91979000D01*
G75*
G02*
X81779000Y-91879000I0J100000D01*
G01*
G37*
G36*
G01*
X81779000Y-91229000D02*
X81779000Y-91029000D01*
G75*
G02*
X81879000Y-90929000I100000J0D01*
G01*
X83154000Y-90929000D01*
G75*
G02*
X83254000Y-91029000I0J-100000D01*
G01*
X83254000Y-91229000D01*
G75*
G02*
X83154000Y-91329000I-100000J0D01*
G01*
X81879000Y-91329000D01*
G75*
G02*
X81779000Y-91229000I0J100000D01*
G01*
G37*
G36*
G01*
X81779000Y-90579000D02*
X81779000Y-90379000D01*
G75*
G02*
X81879000Y-90279000I100000J0D01*
G01*
X83154000Y-90279000D01*
G75*
G02*
X83254000Y-90379000I0J-100000D01*
G01*
X83254000Y-90579000D01*
G75*
G02*
X83154000Y-90679000I-100000J0D01*
G01*
X81879000Y-90679000D01*
G75*
G02*
X81779000Y-90579000I0J100000D01*
G01*
G37*
G36*
G01*
X81779000Y-89929000D02*
X81779000Y-89729000D01*
G75*
G02*
X81879000Y-89629000I100000J0D01*
G01*
X83154000Y-89629000D01*
G75*
G02*
X83254000Y-89729000I0J-100000D01*
G01*
X83254000Y-89929000D01*
G75*
G02*
X83154000Y-90029000I-100000J0D01*
G01*
X81879000Y-90029000D01*
G75*
G02*
X81779000Y-89929000I0J100000D01*
G01*
G37*
G36*
G01*
X81779000Y-89279000D02*
X81779000Y-89079000D01*
G75*
G02*
X81879000Y-88979000I100000J0D01*
G01*
X83154000Y-88979000D01*
G75*
G02*
X83254000Y-89079000I0J-100000D01*
G01*
X83254000Y-89279000D01*
G75*
G02*
X83154000Y-89379000I-100000J0D01*
G01*
X81879000Y-89379000D01*
G75*
G02*
X81779000Y-89279000I0J100000D01*
G01*
G37*
G36*
G01*
X81779000Y-88629000D02*
X81779000Y-88429000D01*
G75*
G02*
X81879000Y-88329000I100000J0D01*
G01*
X83154000Y-88329000D01*
G75*
G02*
X83254000Y-88429000I0J-100000D01*
G01*
X83254000Y-88629000D01*
G75*
G02*
X83154000Y-88729000I-100000J0D01*
G01*
X81879000Y-88729000D01*
G75*
G02*
X81779000Y-88629000I0J100000D01*
G01*
G37*
G36*
G01*
X81779000Y-87979000D02*
X81779000Y-87779000D01*
G75*
G02*
X81879000Y-87679000I100000J0D01*
G01*
X83154000Y-87679000D01*
G75*
G02*
X83254000Y-87779000I0J-100000D01*
G01*
X83254000Y-87979000D01*
G75*
G02*
X83154000Y-88079000I-100000J0D01*
G01*
X81879000Y-88079000D01*
G75*
G02*
X81779000Y-87979000I0J100000D01*
G01*
G37*
G36*
G01*
X81779000Y-87329000D02*
X81779000Y-87129000D01*
G75*
G02*
X81879000Y-87029000I100000J0D01*
G01*
X83154000Y-87029000D01*
G75*
G02*
X83254000Y-87129000I0J-100000D01*
G01*
X83254000Y-87329000D01*
G75*
G02*
X83154000Y-87429000I-100000J0D01*
G01*
X81879000Y-87429000D01*
G75*
G02*
X81779000Y-87329000I0J100000D01*
G01*
G37*
G36*
G01*
X81779000Y-86679000D02*
X81779000Y-86479000D01*
G75*
G02*
X81879000Y-86379000I100000J0D01*
G01*
X83154000Y-86379000D01*
G75*
G02*
X83254000Y-86479000I0J-100000D01*
G01*
X83254000Y-86679000D01*
G75*
G02*
X83154000Y-86779000I-100000J0D01*
G01*
X81879000Y-86779000D01*
G75*
G02*
X81779000Y-86679000I0J100000D01*
G01*
G37*
G36*
G01*
X81779000Y-86029000D02*
X81779000Y-85829000D01*
G75*
G02*
X81879000Y-85729000I100000J0D01*
G01*
X83154000Y-85729000D01*
G75*
G02*
X83254000Y-85829000I0J-100000D01*
G01*
X83254000Y-86029000D01*
G75*
G02*
X83154000Y-86129000I-100000J0D01*
G01*
X81879000Y-86129000D01*
G75*
G02*
X81779000Y-86029000I0J100000D01*
G01*
G37*
G36*
G01*
X84636000Y-94318000D02*
X84636000Y-94658000D01*
G75*
G02*
X84496000Y-94798000I-140000J0D01*
G01*
X84216000Y-94798000D01*
G75*
G02*
X84076000Y-94658000I0J140000D01*
G01*
X84076000Y-94318000D01*
G75*
G02*
X84216000Y-94178000I140000J0D01*
G01*
X84496000Y-94178000D01*
G75*
G02*
X84636000Y-94318000I0J-140000D01*
G01*
G37*
G36*
G01*
X85596000Y-94318000D02*
X85596000Y-94658000D01*
G75*
G02*
X85456000Y-94798000I-140000J0D01*
G01*
X85176000Y-94798000D01*
G75*
G02*
X85036000Y-94658000I0J140000D01*
G01*
X85036000Y-94318000D01*
G75*
G02*
X85176000Y-94178000I140000J0D01*
G01*
X85456000Y-94178000D01*
G75*
G02*
X85596000Y-94318000I0J-140000D01*
G01*
G37*
G36*
G01*
X90438000Y-91725000D02*
X90438000Y-92095000D01*
G75*
G02*
X90303000Y-92230000I-135000J0D01*
G01*
X90033000Y-92230000D01*
G75*
G02*
X89898000Y-92095000I0J135000D01*
G01*
X89898000Y-91725000D01*
G75*
G02*
X90033000Y-91590000I135000J0D01*
G01*
X90303000Y-91590000D01*
G75*
G02*
X90438000Y-91725000I0J-135000D01*
G01*
G37*
G36*
G01*
X91458000Y-91725000D02*
X91458000Y-92095000D01*
G75*
G02*
X91323000Y-92230000I-135000J0D01*
G01*
X91053000Y-92230000D01*
G75*
G02*
X90918000Y-92095000I0J135000D01*
G01*
X90918000Y-91725000D01*
G75*
G02*
X91053000Y-91590000I135000J0D01*
G01*
X91323000Y-91590000D01*
G75*
G02*
X91458000Y-91725000I0J-135000D01*
G01*
G37*
G36*
G01*
X90438000Y-90709000D02*
X90438000Y-91079000D01*
G75*
G02*
X90303000Y-91214000I-135000J0D01*
G01*
X90033000Y-91214000D01*
G75*
G02*
X89898000Y-91079000I0J135000D01*
G01*
X89898000Y-90709000D01*
G75*
G02*
X90033000Y-90574000I135000J0D01*
G01*
X90303000Y-90574000D01*
G75*
G02*
X90438000Y-90709000I0J-135000D01*
G01*
G37*
G36*
G01*
X91458000Y-90709000D02*
X91458000Y-91079000D01*
G75*
G02*
X91323000Y-91214000I-135000J0D01*
G01*
X91053000Y-91214000D01*
G75*
G02*
X90918000Y-91079000I0J135000D01*
G01*
X90918000Y-90709000D01*
G75*
G02*
X91053000Y-90574000I135000J0D01*
G01*
X91323000Y-90574000D01*
G75*
G02*
X91458000Y-90709000I0J-135000D01*
G01*
G37*
G36*
G01*
X95181000Y-95010000D02*
X94811000Y-95010000D01*
G75*
G02*
X94676000Y-94875000I0J135000D01*
G01*
X94676000Y-94605000D01*
G75*
G02*
X94811000Y-94470000I135000J0D01*
G01*
X95181000Y-94470000D01*
G75*
G02*
X95316000Y-94605000I0J-135000D01*
G01*
X95316000Y-94875000D01*
G75*
G02*
X95181000Y-95010000I-135000J0D01*
G01*
G37*
G36*
G01*
X95181000Y-96030000D02*
X94811000Y-96030000D01*
G75*
G02*
X94676000Y-95895000I0J135000D01*
G01*
X94676000Y-95625000D01*
G75*
G02*
X94811000Y-95490000I135000J0D01*
G01*
X95181000Y-95490000D01*
G75*
G02*
X95316000Y-95625000I0J-135000D01*
G01*
X95316000Y-95895000D01*
G75*
G02*
X95181000Y-96030000I-135000J0D01*
G01*
G37*
G36*
G01*
X99472000Y-98549750D02*
X99472000Y-99062250D01*
G75*
G02*
X99253250Y-99281000I-218750J0D01*
G01*
X98815750Y-99281000D01*
G75*
G02*
X98597000Y-99062250I0J218750D01*
G01*
X98597000Y-98549750D01*
G75*
G02*
X98815750Y-98331000I218750J0D01*
G01*
X99253250Y-98331000D01*
G75*
G02*
X99472000Y-98549750I0J-218750D01*
G01*
G37*
G36*
G01*
X101047000Y-98549750D02*
X101047000Y-99062250D01*
G75*
G02*
X100828250Y-99281000I-218750J0D01*
G01*
X100390750Y-99281000D01*
G75*
G02*
X100172000Y-99062250I0J218750D01*
G01*
X100172000Y-98549750D01*
G75*
G02*
X100390750Y-98331000I218750J0D01*
G01*
X100828250Y-98331000D01*
G75*
G02*
X101047000Y-98549750I0J-218750D01*
G01*
G37*
G36*
G01*
X92106000Y-98549750D02*
X92106000Y-99062250D01*
G75*
G02*
X91887250Y-99281000I-218750J0D01*
G01*
X91449750Y-99281000D01*
G75*
G02*
X91231000Y-99062250I0J218750D01*
G01*
X91231000Y-98549750D01*
G75*
G02*
X91449750Y-98331000I218750J0D01*
G01*
X91887250Y-98331000D01*
G75*
G02*
X92106000Y-98549750I0J-218750D01*
G01*
G37*
G36*
G01*
X93681000Y-98549750D02*
X93681000Y-99062250D01*
G75*
G02*
X93462250Y-99281000I-218750J0D01*
G01*
X93024750Y-99281000D01*
G75*
G02*
X92806000Y-99062250I0J218750D01*
G01*
X92806000Y-98549750D01*
G75*
G02*
X93024750Y-98331000I218750J0D01*
G01*
X93462250Y-98331000D01*
G75*
G02*
X93681000Y-98549750I0J-218750D01*
G01*
G37*
G36*
G01*
X102547000Y-95010000D02*
X102177000Y-95010000D01*
G75*
G02*
X102042000Y-94875000I0J135000D01*
G01*
X102042000Y-94605000D01*
G75*
G02*
X102177000Y-94470000I135000J0D01*
G01*
X102547000Y-94470000D01*
G75*
G02*
X102682000Y-94605000I0J-135000D01*
G01*
X102682000Y-94875000D01*
G75*
G02*
X102547000Y-95010000I-135000J0D01*
G01*
G37*
G36*
G01*
X102547000Y-96030000D02*
X102177000Y-96030000D01*
G75*
G02*
X102042000Y-95895000I0J135000D01*
G01*
X102042000Y-95625000D01*
G75*
G02*
X102177000Y-95490000I135000J0D01*
G01*
X102547000Y-95490000D01*
G75*
G02*
X102682000Y-95625000I0J-135000D01*
G01*
X102682000Y-95895000D01*
G75*
G02*
X102547000Y-96030000I-135000J0D01*
G01*
G37*
D19*
X100076000Y-97012000D03*
X99126000Y-95012000D03*
X101026000Y-95012000D03*
X92710000Y-97012000D03*
X91760000Y-95012000D03*
X93660000Y-95012000D03*
G36*
G01*
X104789000Y-83089000D02*
X104789000Y-83459000D01*
G75*
G02*
X104654000Y-83594000I-135000J0D01*
G01*
X104384000Y-83594000D01*
G75*
G02*
X104249000Y-83459000I0J135000D01*
G01*
X104249000Y-83089000D01*
G75*
G02*
X104384000Y-82954000I135000J0D01*
G01*
X104654000Y-82954000D01*
G75*
G02*
X104789000Y-83089000I0J-135000D01*
G01*
G37*
G36*
G01*
X105809000Y-83089000D02*
X105809000Y-83459000D01*
G75*
G02*
X105674000Y-83594000I-135000J0D01*
G01*
X105404000Y-83594000D01*
G75*
G02*
X105269000Y-83459000I0J135000D01*
G01*
X105269000Y-83089000D01*
G75*
G02*
X105404000Y-82954000I135000J0D01*
G01*
X105674000Y-82954000D01*
G75*
G02*
X105809000Y-83089000I0J-135000D01*
G01*
G37*
G36*
G01*
X104789000Y-84359000D02*
X104789000Y-84729000D01*
G75*
G02*
X104654000Y-84864000I-135000J0D01*
G01*
X104384000Y-84864000D01*
G75*
G02*
X104249000Y-84729000I0J135000D01*
G01*
X104249000Y-84359000D01*
G75*
G02*
X104384000Y-84224000I135000J0D01*
G01*
X104654000Y-84224000D01*
G75*
G02*
X104789000Y-84359000I0J-135000D01*
G01*
G37*
G36*
G01*
X105809000Y-84359000D02*
X105809000Y-84729000D01*
G75*
G02*
X105674000Y-84864000I-135000J0D01*
G01*
X105404000Y-84864000D01*
G75*
G02*
X105269000Y-84729000I0J135000D01*
G01*
X105269000Y-84359000D01*
G75*
G02*
X105404000Y-84224000I135000J0D01*
G01*
X105674000Y-84224000D01*
G75*
G02*
X105809000Y-84359000I0J-135000D01*
G01*
G37*
G36*
G01*
X105269000Y-85999000D02*
X105269000Y-85629000D01*
G75*
G02*
X105404000Y-85494000I135000J0D01*
G01*
X105674000Y-85494000D01*
G75*
G02*
X105809000Y-85629000I0J-135000D01*
G01*
X105809000Y-85999000D01*
G75*
G02*
X105674000Y-86134000I-135000J0D01*
G01*
X105404000Y-86134000D01*
G75*
G02*
X105269000Y-85999000I0J135000D01*
G01*
G37*
G36*
G01*
X104249000Y-85999000D02*
X104249000Y-85629000D01*
G75*
G02*
X104384000Y-85494000I135000J0D01*
G01*
X104654000Y-85494000D01*
G75*
G02*
X104789000Y-85629000I0J-135000D01*
G01*
X104789000Y-85999000D01*
G75*
G02*
X104654000Y-86134000I-135000J0D01*
G01*
X104384000Y-86134000D01*
G75*
G02*
X104249000Y-85999000I0J135000D01*
G01*
G37*
D10*
G36*
X82445500Y-100344000D02*
G01*
X82445500Y-97219000D01*
X82862000Y-97219000D01*
X82862000Y-95744000D01*
X83762000Y-95744000D01*
X83762000Y-97219000D01*
X84178500Y-97219000D01*
X84178500Y-100344000D01*
X82445500Y-100344000D01*
G37*
D20*
X81812000Y-96394000D03*
X84812000Y-96394000D03*
D12*
X81788000Y-109728000D03*
X81788000Y-104648000D03*
X105410000Y-120739000D03*
X110490000Y-120739000D03*
G36*
G01*
X111080000Y-95042000D02*
X111080000Y-95382000D01*
G75*
G02*
X110940000Y-95522000I-140000J0D01*
G01*
X110660000Y-95522000D01*
G75*
G02*
X110520000Y-95382000I0J140000D01*
G01*
X110520000Y-95042000D01*
G75*
G02*
X110660000Y-94902000I140000J0D01*
G01*
X110940000Y-94902000D01*
G75*
G02*
X111080000Y-95042000I0J-140000D01*
G01*
G37*
G36*
G01*
X112040000Y-95042000D02*
X112040000Y-95382000D01*
G75*
G02*
X111900000Y-95522000I-140000J0D01*
G01*
X111620000Y-95522000D01*
G75*
G02*
X111480000Y-95382000I0J140000D01*
G01*
X111480000Y-95042000D01*
G75*
G02*
X111620000Y-94902000I140000J0D01*
G01*
X111900000Y-94902000D01*
G75*
G02*
X112040000Y-95042000I0J-140000D01*
G01*
G37*
G36*
G01*
X121494000Y-95042000D02*
X121494000Y-95382000D01*
G75*
G02*
X121354000Y-95522000I-140000J0D01*
G01*
X121074000Y-95522000D01*
G75*
G02*
X120934000Y-95382000I0J140000D01*
G01*
X120934000Y-95042000D01*
G75*
G02*
X121074000Y-94902000I140000J0D01*
G01*
X121354000Y-94902000D01*
G75*
G02*
X121494000Y-95042000I0J-140000D01*
G01*
G37*
G36*
G01*
X122454000Y-95042000D02*
X122454000Y-95382000D01*
G75*
G02*
X122314000Y-95522000I-140000J0D01*
G01*
X122034000Y-95522000D01*
G75*
G02*
X121894000Y-95382000I0J140000D01*
G01*
X121894000Y-95042000D01*
G75*
G02*
X122034000Y-94902000I140000J0D01*
G01*
X122314000Y-94902000D01*
G75*
G02*
X122454000Y-95042000I0J-140000D01*
G01*
G37*
G36*
G01*
X119652000Y-95789000D02*
X119652000Y-96159000D01*
G75*
G02*
X119517000Y-96294000I-135000J0D01*
G01*
X119247000Y-96294000D01*
G75*
G02*
X119112000Y-96159000I0J135000D01*
G01*
X119112000Y-95789000D01*
G75*
G02*
X119247000Y-95654000I135000J0D01*
G01*
X119517000Y-95654000D01*
G75*
G02*
X119652000Y-95789000I0J-135000D01*
G01*
G37*
G36*
G01*
X118632000Y-95789000D02*
X118632000Y-96159000D01*
G75*
G02*
X118497000Y-96294000I-135000J0D01*
G01*
X118227000Y-96294000D01*
G75*
G02*
X118092000Y-96159000I0J135000D01*
G01*
X118092000Y-95789000D01*
G75*
G02*
X118227000Y-95654000I135000J0D01*
G01*
X118497000Y-95654000D01*
G75*
G02*
X118632000Y-95789000I0J-135000D01*
G01*
G37*
G36*
G01*
X119112000Y-97912000D02*
X119112000Y-97592000D01*
G75*
G02*
X119272000Y-97432000I160000J0D01*
G01*
X119667000Y-97432000D01*
G75*
G02*
X119827000Y-97592000I0J-160000D01*
G01*
X119827000Y-97912000D01*
G75*
G02*
X119667000Y-98072000I-160000J0D01*
G01*
X119272000Y-98072000D01*
G75*
G02*
X119112000Y-97912000I0J160000D01*
G01*
G37*
G36*
G01*
X117917000Y-97912000D02*
X117917000Y-97592000D01*
G75*
G02*
X118077000Y-97432000I160000J0D01*
G01*
X118472000Y-97432000D01*
G75*
G02*
X118632000Y-97592000I0J-160000D01*
G01*
X118632000Y-97912000D01*
G75*
G02*
X118472000Y-98072000I-160000J0D01*
G01*
X118077000Y-98072000D01*
G75*
G02*
X117917000Y-97912000I0J160000D01*
G01*
G37*
D21*
X114697000Y-96802000D03*
X114697000Y-98702000D03*
X116697000Y-97752000D03*
X121047000Y-96802000D03*
X121047000Y-98702000D03*
X123047000Y-97752000D03*
G36*
G01*
X118672000Y-98867000D02*
X118672000Y-99177000D01*
G75*
G02*
X118517000Y-99332000I-155000J0D01*
G01*
X118092000Y-99332000D01*
G75*
G02*
X117937000Y-99177000I0J155000D01*
G01*
X117937000Y-98867000D01*
G75*
G02*
X118092000Y-98712000I155000J0D01*
G01*
X118517000Y-98712000D01*
G75*
G02*
X118672000Y-98867000I0J-155000D01*
G01*
G37*
G36*
G01*
X119807000Y-98867000D02*
X119807000Y-99177000D01*
G75*
G02*
X119652000Y-99332000I-155000J0D01*
G01*
X119227000Y-99332000D01*
G75*
G02*
X119072000Y-99177000I0J155000D01*
G01*
X119072000Y-98867000D01*
G75*
G02*
X119227000Y-98712000I155000J0D01*
G01*
X119652000Y-98712000D01*
G75*
G02*
X119807000Y-98867000I0J-155000D01*
G01*
G37*
X110633000Y-96802000D03*
X110633000Y-98702000D03*
X112633000Y-97752000D03*
G36*
G01*
X109238000Y-95789000D02*
X109238000Y-96159000D01*
G75*
G02*
X109103000Y-96294000I-135000J0D01*
G01*
X108833000Y-96294000D01*
G75*
G02*
X108698000Y-96159000I0J135000D01*
G01*
X108698000Y-95789000D01*
G75*
G02*
X108833000Y-95654000I135000J0D01*
G01*
X109103000Y-95654000D01*
G75*
G02*
X109238000Y-95789000I0J-135000D01*
G01*
G37*
G36*
G01*
X108218000Y-95789000D02*
X108218000Y-96159000D01*
G75*
G02*
X108083000Y-96294000I-135000J0D01*
G01*
X107813000Y-96294000D01*
G75*
G02*
X107678000Y-96159000I0J135000D01*
G01*
X107678000Y-95789000D01*
G75*
G02*
X107813000Y-95654000I135000J0D01*
G01*
X108083000Y-95654000D01*
G75*
G02*
X108218000Y-95789000I0J-135000D01*
G01*
G37*
G36*
G01*
X108698000Y-97912000D02*
X108698000Y-97592000D01*
G75*
G02*
X108858000Y-97432000I160000J0D01*
G01*
X109253000Y-97432000D01*
G75*
G02*
X109413000Y-97592000I0J-160000D01*
G01*
X109413000Y-97912000D01*
G75*
G02*
X109253000Y-98072000I-160000J0D01*
G01*
X108858000Y-98072000D01*
G75*
G02*
X108698000Y-97912000I0J160000D01*
G01*
G37*
G36*
G01*
X107503000Y-97912000D02*
X107503000Y-97592000D01*
G75*
G02*
X107663000Y-97432000I160000J0D01*
G01*
X108058000Y-97432000D01*
G75*
G02*
X108218000Y-97592000I0J-160000D01*
G01*
X108218000Y-97912000D01*
G75*
G02*
X108058000Y-98072000I-160000J0D01*
G01*
X107663000Y-98072000D01*
G75*
G02*
X107503000Y-97912000I0J160000D01*
G01*
G37*
X104283000Y-96802000D03*
X104283000Y-98702000D03*
X106283000Y-97752000D03*
G36*
G01*
X108258000Y-98867000D02*
X108258000Y-99177000D01*
G75*
G02*
X108103000Y-99332000I-155000J0D01*
G01*
X107678000Y-99332000D01*
G75*
G02*
X107523000Y-99177000I0J155000D01*
G01*
X107523000Y-98867000D01*
G75*
G02*
X107678000Y-98712000I155000J0D01*
G01*
X108103000Y-98712000D01*
G75*
G02*
X108258000Y-98867000I0J-155000D01*
G01*
G37*
G36*
G01*
X109393000Y-98867000D02*
X109393000Y-99177000D01*
G75*
G02*
X109238000Y-99332000I-155000J0D01*
G01*
X108813000Y-99332000D01*
G75*
G02*
X108658000Y-99177000I0J155000D01*
G01*
X108658000Y-98867000D01*
G75*
G02*
X108813000Y-98712000I155000J0D01*
G01*
X109238000Y-98712000D01*
G75*
G02*
X109393000Y-98867000I0J-155000D01*
G01*
G37*
G36*
G01*
X82621000Y-94484000D02*
X82621000Y-93984000D01*
G75*
G02*
X82846000Y-93759000I225000J0D01*
G01*
X83296000Y-93759000D01*
G75*
G02*
X83521000Y-93984000I0J-225000D01*
G01*
X83521000Y-94484000D01*
G75*
G02*
X83296000Y-94709000I-225000J0D01*
G01*
X82846000Y-94709000D01*
G75*
G02*
X82621000Y-94484000I0J225000D01*
G01*
G37*
G36*
G01*
X81071000Y-94484000D02*
X81071000Y-93984000D01*
G75*
G02*
X81296000Y-93759000I225000J0D01*
G01*
X81746000Y-93759000D01*
G75*
G02*
X81971000Y-93984000I0J-225000D01*
G01*
X81971000Y-94484000D01*
G75*
G02*
X81746000Y-94709000I-225000J0D01*
G01*
X81296000Y-94709000D01*
G75*
G02*
X81071000Y-94484000I0J225000D01*
G01*
G37*
G36*
G01*
X80518000Y-91550000D02*
X80518000Y-91210000D01*
G75*
G02*
X80658000Y-91070000I140000J0D01*
G01*
X80938000Y-91070000D01*
G75*
G02*
X81078000Y-91210000I0J-140000D01*
G01*
X81078000Y-91550000D01*
G75*
G02*
X80938000Y-91690000I-140000J0D01*
G01*
X80658000Y-91690000D01*
G75*
G02*
X80518000Y-91550000I0J140000D01*
G01*
G37*
G36*
G01*
X79558000Y-91550000D02*
X79558000Y-91210000D01*
G75*
G02*
X79698000Y-91070000I140000J0D01*
G01*
X79978000Y-91070000D01*
G75*
G02*
X80118000Y-91210000I0J-140000D01*
G01*
X80118000Y-91550000D01*
G75*
G02*
X79978000Y-91690000I-140000J0D01*
G01*
X79698000Y-91690000D01*
G75*
G02*
X79558000Y-91550000I0J140000D01*
G01*
G37*
G36*
G01*
X80064000Y-87930000D02*
X80064000Y-88270000D01*
G75*
G02*
X79924000Y-88410000I-140000J0D01*
G01*
X79644000Y-88410000D01*
G75*
G02*
X79504000Y-88270000I0J140000D01*
G01*
X79504000Y-87930000D01*
G75*
G02*
X79644000Y-87790000I140000J0D01*
G01*
X79924000Y-87790000D01*
G75*
G02*
X80064000Y-87930000I0J-140000D01*
G01*
G37*
G36*
G01*
X81024000Y-87930000D02*
X81024000Y-88270000D01*
G75*
G02*
X80884000Y-88410000I-140000J0D01*
G01*
X80604000Y-88410000D01*
G75*
G02*
X80464000Y-88270000I0J140000D01*
G01*
X80464000Y-87930000D01*
G75*
G02*
X80604000Y-87790000I140000J0D01*
G01*
X80884000Y-87790000D01*
G75*
G02*
X81024000Y-87930000I0J-140000D01*
G01*
G37*
G36*
G01*
X80118000Y-90160000D02*
X80118000Y-90500000D01*
G75*
G02*
X79978000Y-90640000I-140000J0D01*
G01*
X79698000Y-90640000D01*
G75*
G02*
X79558000Y-90500000I0J140000D01*
G01*
X79558000Y-90160000D01*
G75*
G02*
X79698000Y-90020000I140000J0D01*
G01*
X79978000Y-90020000D01*
G75*
G02*
X80118000Y-90160000I0J-140000D01*
G01*
G37*
G36*
G01*
X81078000Y-90160000D02*
X81078000Y-90500000D01*
G75*
G02*
X80938000Y-90640000I-140000J0D01*
G01*
X80658000Y-90640000D01*
G75*
G02*
X80518000Y-90500000I0J140000D01*
G01*
X80518000Y-90160000D01*
G75*
G02*
X80658000Y-90020000I140000J0D01*
G01*
X80938000Y-90020000D01*
G75*
G02*
X81078000Y-90160000I0J-140000D01*
G01*
G37*
D12*
X123025000Y-123025000D03*
X79375000Y-123025000D03*
D22*
X80645000Y-117945000D03*
X123444000Y-83655000D03*
M02*
