G04 #@! TF.GenerationSoftware,KiCad,Pcbnew,5.1.10*
G04 #@! TF.CreationDate,2021-12-31T01:07:00+02:00*
G04 #@! TF.ProjectId,pwm-controller,70776d2d-636f-46e7-9472-6f6c6c65722e,rev?*
G04 #@! TF.SameCoordinates,Original*
G04 #@! TF.FileFunction,Copper,L1,Top*
G04 #@! TF.FilePolarity,Positive*
%FSLAX46Y46*%
G04 Gerber Fmt 4.6, Leading zero omitted, Abs format (unit mm)*
G04 Created by KiCad (PCBNEW 5.1.10) date 2021-12-31 01:07:00*
%MOMM*%
%LPD*%
G01*
G04 APERTURE LIST*
G04 #@! TA.AperFunction,SMDPad,CuDef*
%ADD10C,0.100000*%
G04 #@! TD*
G04 #@! TA.AperFunction,SMDPad,CuDef*
%ADD11R,0.405000X0.990000*%
G04 #@! TD*
G04 #@! TA.AperFunction,ComponentPad*
%ADD12C,2.200000*%
G04 #@! TD*
G04 #@! TA.AperFunction,ComponentPad*
%ADD13C,1.500000*%
G04 #@! TD*
G04 #@! TA.AperFunction,SMDPad,CuDef*
%ADD14R,1.200000X0.900000*%
G04 #@! TD*
G04 #@! TA.AperFunction,ComponentPad*
%ADD15O,1.700000X1.700000*%
G04 #@! TD*
G04 #@! TA.AperFunction,ComponentPad*
%ADD16R,1.700000X1.700000*%
G04 #@! TD*
G04 #@! TA.AperFunction,ComponentPad*
%ADD17C,1.800000*%
G04 #@! TD*
G04 #@! TA.AperFunction,SMDPad,CuDef*
%ADD18R,0.800000X0.900000*%
G04 #@! TD*
G04 #@! TA.AperFunction,SMDPad,CuDef*
%ADD19R,0.900000X1.300000*%
G04 #@! TD*
G04 #@! TA.AperFunction,SMDPad,CuDef*
%ADD20R,0.900000X0.800000*%
G04 #@! TD*
G04 #@! TA.AperFunction,ViaPad*
%ADD21C,0.600000*%
G04 #@! TD*
G04 #@! TA.AperFunction,Conductor*
%ADD22C,0.200000*%
G04 #@! TD*
G04 #@! TA.AperFunction,Conductor*
%ADD23C,0.254000*%
G04 #@! TD*
G04 #@! TA.AperFunction,Conductor*
%ADD24C,0.100000*%
G04 #@! TD*
G04 #@! TA.AperFunction,Conductor*
%ADD25C,0.250000*%
G04 #@! TD*
G04 APERTURE END LIST*
G04 #@! TA.AperFunction,SMDPad,CuDef*
G36*
G01*
X80504000Y-87269000D02*
X80504000Y-86899000D01*
G75*
G02*
X80639000Y-86764000I135000J0D01*
G01*
X80909000Y-86764000D01*
G75*
G02*
X81044000Y-86899000I0J-135000D01*
G01*
X81044000Y-87269000D01*
G75*
G02*
X80909000Y-87404000I-135000J0D01*
G01*
X80639000Y-87404000D01*
G75*
G02*
X80504000Y-87269000I0J135000D01*
G01*
G37*
G04 #@! TD.AperFunction*
G04 #@! TA.AperFunction,SMDPad,CuDef*
G36*
G01*
X79484000Y-87269000D02*
X79484000Y-86899000D01*
G75*
G02*
X79619000Y-86764000I135000J0D01*
G01*
X79889000Y-86764000D01*
G75*
G02*
X80024000Y-86899000I0J-135000D01*
G01*
X80024000Y-87269000D01*
G75*
G02*
X79889000Y-87404000I-135000J0D01*
G01*
X79619000Y-87404000D01*
G75*
G02*
X79484000Y-87269000I0J135000D01*
G01*
G37*
G04 #@! TD.AperFunction*
G04 #@! TA.AperFunction,SMDPad,CuDef*
G36*
G01*
X80504000Y-86253000D02*
X80504000Y-85883000D01*
G75*
G02*
X80639000Y-85748000I135000J0D01*
G01*
X80909000Y-85748000D01*
G75*
G02*
X81044000Y-85883000I0J-135000D01*
G01*
X81044000Y-86253000D01*
G75*
G02*
X80909000Y-86388000I-135000J0D01*
G01*
X80639000Y-86388000D01*
G75*
G02*
X80504000Y-86253000I0J135000D01*
G01*
G37*
G04 #@! TD.AperFunction*
G04 #@! TA.AperFunction,SMDPad,CuDef*
G36*
G01*
X79484000Y-86253000D02*
X79484000Y-85883000D01*
G75*
G02*
X79619000Y-85748000I135000J0D01*
G01*
X79889000Y-85748000D01*
G75*
G02*
X80024000Y-85883000I0J-135000D01*
G01*
X80024000Y-86253000D01*
G75*
G02*
X79889000Y-86388000I-135000J0D01*
G01*
X79619000Y-86388000D01*
G75*
G02*
X79484000Y-86253000I0J135000D01*
G01*
G37*
G04 #@! TD.AperFunction*
G04 #@! TA.AperFunction,SMDPad,CuDef*
G36*
G01*
X90239000Y-95490000D02*
X90609000Y-95490000D01*
G75*
G02*
X90744000Y-95625000I0J-135000D01*
G01*
X90744000Y-95895000D01*
G75*
G02*
X90609000Y-96030000I-135000J0D01*
G01*
X90239000Y-96030000D01*
G75*
G02*
X90104000Y-95895000I0J135000D01*
G01*
X90104000Y-95625000D01*
G75*
G02*
X90239000Y-95490000I135000J0D01*
G01*
G37*
G04 #@! TD.AperFunction*
G04 #@! TA.AperFunction,SMDPad,CuDef*
G36*
G01*
X90239000Y-94470000D02*
X90609000Y-94470000D01*
G75*
G02*
X90744000Y-94605000I0J-135000D01*
G01*
X90744000Y-94875000D01*
G75*
G02*
X90609000Y-95010000I-135000J0D01*
G01*
X90239000Y-95010000D01*
G75*
G02*
X90104000Y-94875000I0J135000D01*
G01*
X90104000Y-94605000D01*
G75*
G02*
X90239000Y-94470000I135000J0D01*
G01*
G37*
G04 #@! TD.AperFunction*
G04 #@! TA.AperFunction,SMDPad,CuDef*
D10*
G36*
X104927500Y-112420000D02*
G01*
X104927500Y-111910000D01*
X104672500Y-111910000D01*
X104672500Y-112420000D01*
X104267500Y-112420000D01*
X104267500Y-111910000D01*
X104012500Y-111910000D01*
X104012500Y-112420000D01*
X103607500Y-112420000D01*
X103607500Y-111910000D01*
X103352500Y-111910000D01*
X103352500Y-112420000D01*
X102945000Y-112420000D01*
X102945000Y-111660000D01*
X103022500Y-111660000D01*
X103022500Y-110185000D01*
X105257500Y-110185000D01*
X105257500Y-111660000D01*
X105335000Y-111660000D01*
X105335000Y-112420000D01*
X104927500Y-112420000D01*
G37*
G04 #@! TD.AperFunction*
D11*
X103150000Y-109055000D03*
X103810000Y-109055000D03*
X104470000Y-109055000D03*
X105130000Y-109055000D03*
G04 #@! TA.AperFunction,SMDPad,CuDef*
D10*
G36*
X118135500Y-112420000D02*
G01*
X118135500Y-111910000D01*
X117880500Y-111910000D01*
X117880500Y-112420000D01*
X117475500Y-112420000D01*
X117475500Y-111910000D01*
X117220500Y-111910000D01*
X117220500Y-112420000D01*
X116815500Y-112420000D01*
X116815500Y-111910000D01*
X116560500Y-111910000D01*
X116560500Y-112420000D01*
X116153000Y-112420000D01*
X116153000Y-111660000D01*
X116230500Y-111660000D01*
X116230500Y-110185000D01*
X118465500Y-110185000D01*
X118465500Y-111660000D01*
X118543000Y-111660000D01*
X118543000Y-112420000D01*
X118135500Y-112420000D01*
G37*
G04 #@! TD.AperFunction*
D11*
X116358000Y-109055000D03*
X117018000Y-109055000D03*
X117678000Y-109055000D03*
X118338000Y-109055000D03*
G04 #@! TA.AperFunction,SMDPad,CuDef*
G36*
G01*
X97605000Y-95490000D02*
X97975000Y-95490000D01*
G75*
G02*
X98110000Y-95625000I0J-135000D01*
G01*
X98110000Y-95895000D01*
G75*
G02*
X97975000Y-96030000I-135000J0D01*
G01*
X97605000Y-96030000D01*
G75*
G02*
X97470000Y-95895000I0J135000D01*
G01*
X97470000Y-95625000D01*
G75*
G02*
X97605000Y-95490000I135000J0D01*
G01*
G37*
G04 #@! TD.AperFunction*
G04 #@! TA.AperFunction,SMDPad,CuDef*
G36*
G01*
X97605000Y-94470000D02*
X97975000Y-94470000D01*
G75*
G02*
X98110000Y-94605000I0J-135000D01*
G01*
X98110000Y-94875000D01*
G75*
G02*
X97975000Y-95010000I-135000J0D01*
G01*
X97605000Y-95010000D01*
G75*
G02*
X97470000Y-94875000I0J135000D01*
G01*
X97470000Y-94605000D01*
G75*
G02*
X97605000Y-94470000I135000J0D01*
G01*
G37*
G04 #@! TD.AperFunction*
G04 #@! TA.AperFunction,SMDPad,CuDef*
G36*
G01*
X96589000Y-95490000D02*
X96959000Y-95490000D01*
G75*
G02*
X97094000Y-95625000I0J-135000D01*
G01*
X97094000Y-95895000D01*
G75*
G02*
X96959000Y-96030000I-135000J0D01*
G01*
X96589000Y-96030000D01*
G75*
G02*
X96454000Y-95895000I0J135000D01*
G01*
X96454000Y-95625000D01*
G75*
G02*
X96589000Y-95490000I135000J0D01*
G01*
G37*
G04 #@! TD.AperFunction*
G04 #@! TA.AperFunction,SMDPad,CuDef*
G36*
G01*
X96589000Y-94470000D02*
X96959000Y-94470000D01*
G75*
G02*
X97094000Y-94605000I0J-135000D01*
G01*
X97094000Y-94875000D01*
G75*
G02*
X96959000Y-95010000I-135000J0D01*
G01*
X96589000Y-95010000D01*
G75*
G02*
X96454000Y-94875000I0J135000D01*
G01*
X96454000Y-94605000D01*
G75*
G02*
X96589000Y-94470000I135000J0D01*
G01*
G37*
G04 #@! TD.AperFunction*
G04 #@! TA.AperFunction,SMDPad,CuDef*
G36*
G01*
X89223000Y-95490000D02*
X89593000Y-95490000D01*
G75*
G02*
X89728000Y-95625000I0J-135000D01*
G01*
X89728000Y-95895000D01*
G75*
G02*
X89593000Y-96030000I-135000J0D01*
G01*
X89223000Y-96030000D01*
G75*
G02*
X89088000Y-95895000I0J135000D01*
G01*
X89088000Y-95625000D01*
G75*
G02*
X89223000Y-95490000I135000J0D01*
G01*
G37*
G04 #@! TD.AperFunction*
G04 #@! TA.AperFunction,SMDPad,CuDef*
G36*
G01*
X89223000Y-94470000D02*
X89593000Y-94470000D01*
G75*
G02*
X89728000Y-94605000I0J-135000D01*
G01*
X89728000Y-94875000D01*
G75*
G02*
X89593000Y-95010000I-135000J0D01*
G01*
X89223000Y-95010000D01*
G75*
G02*
X89088000Y-94875000I0J135000D01*
G01*
X89088000Y-94605000D01*
G75*
G02*
X89223000Y-94470000I135000J0D01*
G01*
G37*
G04 #@! TD.AperFunction*
G04 #@! TA.AperFunction,SMDPad,CuDef*
G36*
G01*
X91962000Y-85921000D02*
X91962000Y-86291000D01*
G75*
G02*
X91827000Y-86426000I-135000J0D01*
G01*
X91557000Y-86426000D01*
G75*
G02*
X91422000Y-86291000I0J135000D01*
G01*
X91422000Y-85921000D01*
G75*
G02*
X91557000Y-85786000I135000J0D01*
G01*
X91827000Y-85786000D01*
G75*
G02*
X91962000Y-85921000I0J-135000D01*
G01*
G37*
G04 #@! TD.AperFunction*
G04 #@! TA.AperFunction,SMDPad,CuDef*
G36*
G01*
X92982000Y-85921000D02*
X92982000Y-86291000D01*
G75*
G02*
X92847000Y-86426000I-135000J0D01*
G01*
X92577000Y-86426000D01*
G75*
G02*
X92442000Y-86291000I0J135000D01*
G01*
X92442000Y-85921000D01*
G75*
G02*
X92577000Y-85786000I135000J0D01*
G01*
X92847000Y-85786000D01*
G75*
G02*
X92982000Y-85921000I0J-135000D01*
G01*
G37*
G04 #@! TD.AperFunction*
X99542000Y-109055000D03*
X98882000Y-109055000D03*
X98222000Y-109055000D03*
X97562000Y-109055000D03*
G04 #@! TA.AperFunction,SMDPad,CuDef*
D10*
G36*
X99339500Y-112420000D02*
G01*
X99339500Y-111910000D01*
X99084500Y-111910000D01*
X99084500Y-112420000D01*
X98679500Y-112420000D01*
X98679500Y-111910000D01*
X98424500Y-111910000D01*
X98424500Y-112420000D01*
X98019500Y-112420000D01*
X98019500Y-111910000D01*
X97764500Y-111910000D01*
X97764500Y-112420000D01*
X97357000Y-112420000D01*
X97357000Y-111660000D01*
X97434500Y-111660000D01*
X97434500Y-110185000D01*
X99669500Y-110185000D01*
X99669500Y-111660000D01*
X99747000Y-111660000D01*
X99747000Y-112420000D01*
X99339500Y-112420000D01*
G37*
G04 #@! TD.AperFunction*
D11*
X112750000Y-109055000D03*
X112090000Y-109055000D03*
X111430000Y-109055000D03*
X110770000Y-109055000D03*
G04 #@! TA.AperFunction,SMDPad,CuDef*
D10*
G36*
X112547500Y-112420000D02*
G01*
X112547500Y-111910000D01*
X112292500Y-111910000D01*
X112292500Y-112420000D01*
X111887500Y-112420000D01*
X111887500Y-111910000D01*
X111632500Y-111910000D01*
X111632500Y-112420000D01*
X111227500Y-112420000D01*
X111227500Y-111910000D01*
X110972500Y-111910000D01*
X110972500Y-112420000D01*
X110565000Y-112420000D01*
X110565000Y-111660000D01*
X110642500Y-111660000D01*
X110642500Y-110185000D01*
X112877500Y-110185000D01*
X112877500Y-111660000D01*
X112955000Y-111660000D01*
X112955000Y-112420000D01*
X112547500Y-112420000D01*
G37*
G04 #@! TD.AperFunction*
D12*
X86995000Y-120739000D03*
X92075000Y-120739000D03*
D13*
X103378000Y-89154000D03*
D14*
X87376000Y-94616000D03*
X87376000Y-97916000D03*
D15*
X99822000Y-80264000D03*
X99822000Y-82804000D03*
X97282000Y-80264000D03*
X97282000Y-82804000D03*
X94742000Y-80264000D03*
X94742000Y-82804000D03*
X92202000Y-80264000D03*
X92202000Y-82804000D03*
X89662000Y-80264000D03*
X89662000Y-82804000D03*
X87122000Y-80264000D03*
X87122000Y-82804000D03*
X84582000Y-80264000D03*
X84582000Y-82804000D03*
X82042000Y-80264000D03*
X82042000Y-82804000D03*
X79502000Y-80264000D03*
D16*
X79502000Y-82804000D03*
G04 #@! TA.AperFunction,ComponentPad*
G36*
G01*
X119335000Y-87726000D02*
X119335000Y-85526000D01*
G75*
G02*
X120135000Y-84726000I800000J0D01*
G01*
X121735000Y-84726000D01*
G75*
G02*
X122535000Y-85526000I0J-800000D01*
G01*
X122535000Y-87726000D01*
G75*
G02*
X121735000Y-88526000I-800000J0D01*
G01*
X120135000Y-88526000D01*
G75*
G02*
X119335000Y-87726000I0J800000D01*
G01*
G37*
G04 #@! TD.AperFunction*
G04 #@! TA.AperFunction,ComponentPad*
G36*
G01*
X107335000Y-87726000D02*
X107335000Y-85526000D01*
G75*
G02*
X108135000Y-84726000I800000J0D01*
G01*
X109735000Y-84726000D01*
G75*
G02*
X110535000Y-85526000I0J-800000D01*
G01*
X110535000Y-87726000D01*
G75*
G02*
X109735000Y-88526000I-800000J0D01*
G01*
X108135000Y-88526000D01*
G75*
G02*
X107335000Y-87726000I0J800000D01*
G01*
G37*
G04 #@! TD.AperFunction*
D17*
X114935000Y-79726000D03*
X109385000Y-82426000D03*
X120485000Y-82426000D03*
X120885000Y-90026000D03*
X109385000Y-90726000D03*
G04 #@! TA.AperFunction,SMDPad,CuDef*
G36*
G01*
X91386000Y-87292000D02*
X91386000Y-86952000D01*
G75*
G02*
X91526000Y-86812000I140000J0D01*
G01*
X91806000Y-86812000D01*
G75*
G02*
X91946000Y-86952000I0J-140000D01*
G01*
X91946000Y-87292000D01*
G75*
G02*
X91806000Y-87432000I-140000J0D01*
G01*
X91526000Y-87432000D01*
G75*
G02*
X91386000Y-87292000I0J140000D01*
G01*
G37*
G04 #@! TD.AperFunction*
G04 #@! TA.AperFunction,SMDPad,CuDef*
G36*
G01*
X90426000Y-87292000D02*
X90426000Y-86952000D01*
G75*
G02*
X90566000Y-86812000I140000J0D01*
G01*
X90846000Y-86812000D01*
G75*
G02*
X90986000Y-86952000I0J-140000D01*
G01*
X90986000Y-87292000D01*
G75*
G02*
X90846000Y-87432000I-140000J0D01*
G01*
X90566000Y-87432000D01*
G75*
G02*
X90426000Y-87292000I0J140000D01*
G01*
G37*
G04 #@! TD.AperFunction*
D14*
X79248000Y-97662000D03*
X79248000Y-94362000D03*
G04 #@! TA.AperFunction,SMDPad,CuDef*
G36*
G01*
X97776000Y-89085000D02*
X97776000Y-88715000D01*
G75*
G02*
X97911000Y-88580000I135000J0D01*
G01*
X98181000Y-88580000D01*
G75*
G02*
X98316000Y-88715000I0J-135000D01*
G01*
X98316000Y-89085000D01*
G75*
G02*
X98181000Y-89220000I-135000J0D01*
G01*
X97911000Y-89220000D01*
G75*
G02*
X97776000Y-89085000I0J135000D01*
G01*
G37*
G04 #@! TD.AperFunction*
G04 #@! TA.AperFunction,SMDPad,CuDef*
G36*
G01*
X96756000Y-89085000D02*
X96756000Y-88715000D01*
G75*
G02*
X96891000Y-88580000I135000J0D01*
G01*
X97161000Y-88580000D01*
G75*
G02*
X97296000Y-88715000I0J-135000D01*
G01*
X97296000Y-89085000D01*
G75*
G02*
X97161000Y-89220000I-135000J0D01*
G01*
X96891000Y-89220000D01*
G75*
G02*
X96756000Y-89085000I0J135000D01*
G01*
G37*
G04 #@! TD.AperFunction*
G04 #@! TA.AperFunction,SMDPad,CuDef*
G36*
G01*
X99328000Y-88715000D02*
X99328000Y-89085000D01*
G75*
G02*
X99193000Y-89220000I-135000J0D01*
G01*
X98923000Y-89220000D01*
G75*
G02*
X98788000Y-89085000I0J135000D01*
G01*
X98788000Y-88715000D01*
G75*
G02*
X98923000Y-88580000I135000J0D01*
G01*
X99193000Y-88580000D01*
G75*
G02*
X99328000Y-88715000I0J-135000D01*
G01*
G37*
G04 #@! TD.AperFunction*
G04 #@! TA.AperFunction,SMDPad,CuDef*
G36*
G01*
X100348000Y-88715000D02*
X100348000Y-89085000D01*
G75*
G02*
X100213000Y-89220000I-135000J0D01*
G01*
X99943000Y-89220000D01*
G75*
G02*
X99808000Y-89085000I0J135000D01*
G01*
X99808000Y-88715000D01*
G75*
G02*
X99943000Y-88580000I135000J0D01*
G01*
X100213000Y-88580000D01*
G75*
G02*
X100348000Y-88715000I0J-135000D01*
G01*
G37*
G04 #@! TD.AperFunction*
G04 #@! TA.AperFunction,SMDPad,CuDef*
G36*
G01*
X103197000Y-85984000D02*
X103197000Y-85644000D01*
G75*
G02*
X103337000Y-85504000I140000J0D01*
G01*
X103617000Y-85504000D01*
G75*
G02*
X103757000Y-85644000I0J-140000D01*
G01*
X103757000Y-85984000D01*
G75*
G02*
X103617000Y-86124000I-140000J0D01*
G01*
X103337000Y-86124000D01*
G75*
G02*
X103197000Y-85984000I0J140000D01*
G01*
G37*
G04 #@! TD.AperFunction*
G04 #@! TA.AperFunction,SMDPad,CuDef*
G36*
G01*
X102237000Y-85984000D02*
X102237000Y-85644000D01*
G75*
G02*
X102377000Y-85504000I140000J0D01*
G01*
X102657000Y-85504000D01*
G75*
G02*
X102797000Y-85644000I0J-140000D01*
G01*
X102797000Y-85984000D01*
G75*
G02*
X102657000Y-86124000I-140000J0D01*
G01*
X102377000Y-86124000D01*
G75*
G02*
X102237000Y-85984000I0J140000D01*
G01*
G37*
G04 #@! TD.AperFunction*
G04 #@! TA.AperFunction,SMDPad,CuDef*
G36*
G01*
X103197000Y-83444000D02*
X103197000Y-83104000D01*
G75*
G02*
X103337000Y-82964000I140000J0D01*
G01*
X103617000Y-82964000D01*
G75*
G02*
X103757000Y-83104000I0J-140000D01*
G01*
X103757000Y-83444000D01*
G75*
G02*
X103617000Y-83584000I-140000J0D01*
G01*
X103337000Y-83584000D01*
G75*
G02*
X103197000Y-83444000I0J140000D01*
G01*
G37*
G04 #@! TD.AperFunction*
G04 #@! TA.AperFunction,SMDPad,CuDef*
G36*
G01*
X102237000Y-83444000D02*
X102237000Y-83104000D01*
G75*
G02*
X102377000Y-82964000I140000J0D01*
G01*
X102657000Y-82964000D01*
G75*
G02*
X102797000Y-83104000I0J-140000D01*
G01*
X102797000Y-83444000D01*
G75*
G02*
X102657000Y-83584000I-140000J0D01*
G01*
X102377000Y-83584000D01*
G75*
G02*
X102237000Y-83444000I0J140000D01*
G01*
G37*
G04 #@! TD.AperFunction*
G04 #@! TA.AperFunction,SMDPad,CuDef*
G36*
G01*
X103197000Y-84714000D02*
X103197000Y-84374000D01*
G75*
G02*
X103337000Y-84234000I140000J0D01*
G01*
X103617000Y-84234000D01*
G75*
G02*
X103757000Y-84374000I0J-140000D01*
G01*
X103757000Y-84714000D01*
G75*
G02*
X103617000Y-84854000I-140000J0D01*
G01*
X103337000Y-84854000D01*
G75*
G02*
X103197000Y-84714000I0J140000D01*
G01*
G37*
G04 #@! TD.AperFunction*
G04 #@! TA.AperFunction,SMDPad,CuDef*
G36*
G01*
X102237000Y-84714000D02*
X102237000Y-84374000D01*
G75*
G02*
X102377000Y-84234000I140000J0D01*
G01*
X102657000Y-84234000D01*
G75*
G02*
X102797000Y-84374000I0J-140000D01*
G01*
X102797000Y-84714000D01*
G75*
G02*
X102657000Y-84854000I-140000J0D01*
G01*
X102377000Y-84854000D01*
G75*
G02*
X102237000Y-84714000I0J140000D01*
G01*
G37*
G04 #@! TD.AperFunction*
G04 #@! TA.AperFunction,SMDPad,CuDef*
G36*
G01*
X87504000Y-86029000D02*
X87504000Y-85829000D01*
G75*
G02*
X87604000Y-85729000I100000J0D01*
G01*
X88879000Y-85729000D01*
G75*
G02*
X88979000Y-85829000I0J-100000D01*
G01*
X88979000Y-86029000D01*
G75*
G02*
X88879000Y-86129000I-100000J0D01*
G01*
X87604000Y-86129000D01*
G75*
G02*
X87504000Y-86029000I0J100000D01*
G01*
G37*
G04 #@! TD.AperFunction*
G04 #@! TA.AperFunction,SMDPad,CuDef*
G36*
G01*
X87504000Y-86679000D02*
X87504000Y-86479000D01*
G75*
G02*
X87604000Y-86379000I100000J0D01*
G01*
X88879000Y-86379000D01*
G75*
G02*
X88979000Y-86479000I0J-100000D01*
G01*
X88979000Y-86679000D01*
G75*
G02*
X88879000Y-86779000I-100000J0D01*
G01*
X87604000Y-86779000D01*
G75*
G02*
X87504000Y-86679000I0J100000D01*
G01*
G37*
G04 #@! TD.AperFunction*
G04 #@! TA.AperFunction,SMDPad,CuDef*
G36*
G01*
X87504000Y-87329000D02*
X87504000Y-87129000D01*
G75*
G02*
X87604000Y-87029000I100000J0D01*
G01*
X88879000Y-87029000D01*
G75*
G02*
X88979000Y-87129000I0J-100000D01*
G01*
X88979000Y-87329000D01*
G75*
G02*
X88879000Y-87429000I-100000J0D01*
G01*
X87604000Y-87429000D01*
G75*
G02*
X87504000Y-87329000I0J100000D01*
G01*
G37*
G04 #@! TD.AperFunction*
G04 #@! TA.AperFunction,SMDPad,CuDef*
G36*
G01*
X87504000Y-87979000D02*
X87504000Y-87779000D01*
G75*
G02*
X87604000Y-87679000I100000J0D01*
G01*
X88879000Y-87679000D01*
G75*
G02*
X88979000Y-87779000I0J-100000D01*
G01*
X88979000Y-87979000D01*
G75*
G02*
X88879000Y-88079000I-100000J0D01*
G01*
X87604000Y-88079000D01*
G75*
G02*
X87504000Y-87979000I0J100000D01*
G01*
G37*
G04 #@! TD.AperFunction*
G04 #@! TA.AperFunction,SMDPad,CuDef*
G36*
G01*
X87504000Y-88629000D02*
X87504000Y-88429000D01*
G75*
G02*
X87604000Y-88329000I100000J0D01*
G01*
X88879000Y-88329000D01*
G75*
G02*
X88979000Y-88429000I0J-100000D01*
G01*
X88979000Y-88629000D01*
G75*
G02*
X88879000Y-88729000I-100000J0D01*
G01*
X87604000Y-88729000D01*
G75*
G02*
X87504000Y-88629000I0J100000D01*
G01*
G37*
G04 #@! TD.AperFunction*
G04 #@! TA.AperFunction,SMDPad,CuDef*
G36*
G01*
X87504000Y-89279000D02*
X87504000Y-89079000D01*
G75*
G02*
X87604000Y-88979000I100000J0D01*
G01*
X88879000Y-88979000D01*
G75*
G02*
X88979000Y-89079000I0J-100000D01*
G01*
X88979000Y-89279000D01*
G75*
G02*
X88879000Y-89379000I-100000J0D01*
G01*
X87604000Y-89379000D01*
G75*
G02*
X87504000Y-89279000I0J100000D01*
G01*
G37*
G04 #@! TD.AperFunction*
G04 #@! TA.AperFunction,SMDPad,CuDef*
G36*
G01*
X87504000Y-89929000D02*
X87504000Y-89729000D01*
G75*
G02*
X87604000Y-89629000I100000J0D01*
G01*
X88879000Y-89629000D01*
G75*
G02*
X88979000Y-89729000I0J-100000D01*
G01*
X88979000Y-89929000D01*
G75*
G02*
X88879000Y-90029000I-100000J0D01*
G01*
X87604000Y-90029000D01*
G75*
G02*
X87504000Y-89929000I0J100000D01*
G01*
G37*
G04 #@! TD.AperFunction*
G04 #@! TA.AperFunction,SMDPad,CuDef*
G36*
G01*
X87504000Y-90579000D02*
X87504000Y-90379000D01*
G75*
G02*
X87604000Y-90279000I100000J0D01*
G01*
X88879000Y-90279000D01*
G75*
G02*
X88979000Y-90379000I0J-100000D01*
G01*
X88979000Y-90579000D01*
G75*
G02*
X88879000Y-90679000I-100000J0D01*
G01*
X87604000Y-90679000D01*
G75*
G02*
X87504000Y-90579000I0J100000D01*
G01*
G37*
G04 #@! TD.AperFunction*
G04 #@! TA.AperFunction,SMDPad,CuDef*
G36*
G01*
X87504000Y-91229000D02*
X87504000Y-91029000D01*
G75*
G02*
X87604000Y-90929000I100000J0D01*
G01*
X88879000Y-90929000D01*
G75*
G02*
X88979000Y-91029000I0J-100000D01*
G01*
X88979000Y-91229000D01*
G75*
G02*
X88879000Y-91329000I-100000J0D01*
G01*
X87604000Y-91329000D01*
G75*
G02*
X87504000Y-91229000I0J100000D01*
G01*
G37*
G04 #@! TD.AperFunction*
G04 #@! TA.AperFunction,SMDPad,CuDef*
G36*
G01*
X87504000Y-91879000D02*
X87504000Y-91679000D01*
G75*
G02*
X87604000Y-91579000I100000J0D01*
G01*
X88879000Y-91579000D01*
G75*
G02*
X88979000Y-91679000I0J-100000D01*
G01*
X88979000Y-91879000D01*
G75*
G02*
X88879000Y-91979000I-100000J0D01*
G01*
X87604000Y-91979000D01*
G75*
G02*
X87504000Y-91879000I0J100000D01*
G01*
G37*
G04 #@! TD.AperFunction*
G04 #@! TA.AperFunction,SMDPad,CuDef*
G36*
G01*
X81779000Y-91879000D02*
X81779000Y-91679000D01*
G75*
G02*
X81879000Y-91579000I100000J0D01*
G01*
X83154000Y-91579000D01*
G75*
G02*
X83254000Y-91679000I0J-100000D01*
G01*
X83254000Y-91879000D01*
G75*
G02*
X83154000Y-91979000I-100000J0D01*
G01*
X81879000Y-91979000D01*
G75*
G02*
X81779000Y-91879000I0J100000D01*
G01*
G37*
G04 #@! TD.AperFunction*
G04 #@! TA.AperFunction,SMDPad,CuDef*
G36*
G01*
X81779000Y-91229000D02*
X81779000Y-91029000D01*
G75*
G02*
X81879000Y-90929000I100000J0D01*
G01*
X83154000Y-90929000D01*
G75*
G02*
X83254000Y-91029000I0J-100000D01*
G01*
X83254000Y-91229000D01*
G75*
G02*
X83154000Y-91329000I-100000J0D01*
G01*
X81879000Y-91329000D01*
G75*
G02*
X81779000Y-91229000I0J100000D01*
G01*
G37*
G04 #@! TD.AperFunction*
G04 #@! TA.AperFunction,SMDPad,CuDef*
G36*
G01*
X81779000Y-90579000D02*
X81779000Y-90379000D01*
G75*
G02*
X81879000Y-90279000I100000J0D01*
G01*
X83154000Y-90279000D01*
G75*
G02*
X83254000Y-90379000I0J-100000D01*
G01*
X83254000Y-90579000D01*
G75*
G02*
X83154000Y-90679000I-100000J0D01*
G01*
X81879000Y-90679000D01*
G75*
G02*
X81779000Y-90579000I0J100000D01*
G01*
G37*
G04 #@! TD.AperFunction*
G04 #@! TA.AperFunction,SMDPad,CuDef*
G36*
G01*
X81779000Y-89929000D02*
X81779000Y-89729000D01*
G75*
G02*
X81879000Y-89629000I100000J0D01*
G01*
X83154000Y-89629000D01*
G75*
G02*
X83254000Y-89729000I0J-100000D01*
G01*
X83254000Y-89929000D01*
G75*
G02*
X83154000Y-90029000I-100000J0D01*
G01*
X81879000Y-90029000D01*
G75*
G02*
X81779000Y-89929000I0J100000D01*
G01*
G37*
G04 #@! TD.AperFunction*
G04 #@! TA.AperFunction,SMDPad,CuDef*
G36*
G01*
X81779000Y-89279000D02*
X81779000Y-89079000D01*
G75*
G02*
X81879000Y-88979000I100000J0D01*
G01*
X83154000Y-88979000D01*
G75*
G02*
X83254000Y-89079000I0J-100000D01*
G01*
X83254000Y-89279000D01*
G75*
G02*
X83154000Y-89379000I-100000J0D01*
G01*
X81879000Y-89379000D01*
G75*
G02*
X81779000Y-89279000I0J100000D01*
G01*
G37*
G04 #@! TD.AperFunction*
G04 #@! TA.AperFunction,SMDPad,CuDef*
G36*
G01*
X81779000Y-88629000D02*
X81779000Y-88429000D01*
G75*
G02*
X81879000Y-88329000I100000J0D01*
G01*
X83154000Y-88329000D01*
G75*
G02*
X83254000Y-88429000I0J-100000D01*
G01*
X83254000Y-88629000D01*
G75*
G02*
X83154000Y-88729000I-100000J0D01*
G01*
X81879000Y-88729000D01*
G75*
G02*
X81779000Y-88629000I0J100000D01*
G01*
G37*
G04 #@! TD.AperFunction*
G04 #@! TA.AperFunction,SMDPad,CuDef*
G36*
G01*
X81779000Y-87979000D02*
X81779000Y-87779000D01*
G75*
G02*
X81879000Y-87679000I100000J0D01*
G01*
X83154000Y-87679000D01*
G75*
G02*
X83254000Y-87779000I0J-100000D01*
G01*
X83254000Y-87979000D01*
G75*
G02*
X83154000Y-88079000I-100000J0D01*
G01*
X81879000Y-88079000D01*
G75*
G02*
X81779000Y-87979000I0J100000D01*
G01*
G37*
G04 #@! TD.AperFunction*
G04 #@! TA.AperFunction,SMDPad,CuDef*
G36*
G01*
X81779000Y-87329000D02*
X81779000Y-87129000D01*
G75*
G02*
X81879000Y-87029000I100000J0D01*
G01*
X83154000Y-87029000D01*
G75*
G02*
X83254000Y-87129000I0J-100000D01*
G01*
X83254000Y-87329000D01*
G75*
G02*
X83154000Y-87429000I-100000J0D01*
G01*
X81879000Y-87429000D01*
G75*
G02*
X81779000Y-87329000I0J100000D01*
G01*
G37*
G04 #@! TD.AperFunction*
G04 #@! TA.AperFunction,SMDPad,CuDef*
G36*
G01*
X81779000Y-86679000D02*
X81779000Y-86479000D01*
G75*
G02*
X81879000Y-86379000I100000J0D01*
G01*
X83154000Y-86379000D01*
G75*
G02*
X83254000Y-86479000I0J-100000D01*
G01*
X83254000Y-86679000D01*
G75*
G02*
X83154000Y-86779000I-100000J0D01*
G01*
X81879000Y-86779000D01*
G75*
G02*
X81779000Y-86679000I0J100000D01*
G01*
G37*
G04 #@! TD.AperFunction*
G04 #@! TA.AperFunction,SMDPad,CuDef*
G36*
G01*
X81779000Y-86029000D02*
X81779000Y-85829000D01*
G75*
G02*
X81879000Y-85729000I100000J0D01*
G01*
X83154000Y-85729000D01*
G75*
G02*
X83254000Y-85829000I0J-100000D01*
G01*
X83254000Y-86029000D01*
G75*
G02*
X83154000Y-86129000I-100000J0D01*
G01*
X81879000Y-86129000D01*
G75*
G02*
X81779000Y-86029000I0J100000D01*
G01*
G37*
G04 #@! TD.AperFunction*
G04 #@! TA.AperFunction,SMDPad,CuDef*
G36*
G01*
X84636000Y-94318000D02*
X84636000Y-94658000D01*
G75*
G02*
X84496000Y-94798000I-140000J0D01*
G01*
X84216000Y-94798000D01*
G75*
G02*
X84076000Y-94658000I0J140000D01*
G01*
X84076000Y-94318000D01*
G75*
G02*
X84216000Y-94178000I140000J0D01*
G01*
X84496000Y-94178000D01*
G75*
G02*
X84636000Y-94318000I0J-140000D01*
G01*
G37*
G04 #@! TD.AperFunction*
G04 #@! TA.AperFunction,SMDPad,CuDef*
G36*
G01*
X85596000Y-94318000D02*
X85596000Y-94658000D01*
G75*
G02*
X85456000Y-94798000I-140000J0D01*
G01*
X85176000Y-94798000D01*
G75*
G02*
X85036000Y-94658000I0J140000D01*
G01*
X85036000Y-94318000D01*
G75*
G02*
X85176000Y-94178000I140000J0D01*
G01*
X85456000Y-94178000D01*
G75*
G02*
X85596000Y-94318000I0J-140000D01*
G01*
G37*
G04 #@! TD.AperFunction*
G04 #@! TA.AperFunction,SMDPad,CuDef*
G36*
G01*
X90438000Y-91725000D02*
X90438000Y-92095000D01*
G75*
G02*
X90303000Y-92230000I-135000J0D01*
G01*
X90033000Y-92230000D01*
G75*
G02*
X89898000Y-92095000I0J135000D01*
G01*
X89898000Y-91725000D01*
G75*
G02*
X90033000Y-91590000I135000J0D01*
G01*
X90303000Y-91590000D01*
G75*
G02*
X90438000Y-91725000I0J-135000D01*
G01*
G37*
G04 #@! TD.AperFunction*
G04 #@! TA.AperFunction,SMDPad,CuDef*
G36*
G01*
X91458000Y-91725000D02*
X91458000Y-92095000D01*
G75*
G02*
X91323000Y-92230000I-135000J0D01*
G01*
X91053000Y-92230000D01*
G75*
G02*
X90918000Y-92095000I0J135000D01*
G01*
X90918000Y-91725000D01*
G75*
G02*
X91053000Y-91590000I135000J0D01*
G01*
X91323000Y-91590000D01*
G75*
G02*
X91458000Y-91725000I0J-135000D01*
G01*
G37*
G04 #@! TD.AperFunction*
G04 #@! TA.AperFunction,SMDPad,CuDef*
G36*
G01*
X90438000Y-90709000D02*
X90438000Y-91079000D01*
G75*
G02*
X90303000Y-91214000I-135000J0D01*
G01*
X90033000Y-91214000D01*
G75*
G02*
X89898000Y-91079000I0J135000D01*
G01*
X89898000Y-90709000D01*
G75*
G02*
X90033000Y-90574000I135000J0D01*
G01*
X90303000Y-90574000D01*
G75*
G02*
X90438000Y-90709000I0J-135000D01*
G01*
G37*
G04 #@! TD.AperFunction*
G04 #@! TA.AperFunction,SMDPad,CuDef*
G36*
G01*
X91458000Y-90709000D02*
X91458000Y-91079000D01*
G75*
G02*
X91323000Y-91214000I-135000J0D01*
G01*
X91053000Y-91214000D01*
G75*
G02*
X90918000Y-91079000I0J135000D01*
G01*
X90918000Y-90709000D01*
G75*
G02*
X91053000Y-90574000I135000J0D01*
G01*
X91323000Y-90574000D01*
G75*
G02*
X91458000Y-90709000I0J-135000D01*
G01*
G37*
G04 #@! TD.AperFunction*
G04 #@! TA.AperFunction,SMDPad,CuDef*
G36*
G01*
X95181000Y-95010000D02*
X94811000Y-95010000D01*
G75*
G02*
X94676000Y-94875000I0J135000D01*
G01*
X94676000Y-94605000D01*
G75*
G02*
X94811000Y-94470000I135000J0D01*
G01*
X95181000Y-94470000D01*
G75*
G02*
X95316000Y-94605000I0J-135000D01*
G01*
X95316000Y-94875000D01*
G75*
G02*
X95181000Y-95010000I-135000J0D01*
G01*
G37*
G04 #@! TD.AperFunction*
G04 #@! TA.AperFunction,SMDPad,CuDef*
G36*
G01*
X95181000Y-96030000D02*
X94811000Y-96030000D01*
G75*
G02*
X94676000Y-95895000I0J135000D01*
G01*
X94676000Y-95625000D01*
G75*
G02*
X94811000Y-95490000I135000J0D01*
G01*
X95181000Y-95490000D01*
G75*
G02*
X95316000Y-95625000I0J-135000D01*
G01*
X95316000Y-95895000D01*
G75*
G02*
X95181000Y-96030000I-135000J0D01*
G01*
G37*
G04 #@! TD.AperFunction*
G04 #@! TA.AperFunction,SMDPad,CuDef*
G36*
G01*
X99472000Y-98549750D02*
X99472000Y-99062250D01*
G75*
G02*
X99253250Y-99281000I-218750J0D01*
G01*
X98815750Y-99281000D01*
G75*
G02*
X98597000Y-99062250I0J218750D01*
G01*
X98597000Y-98549750D01*
G75*
G02*
X98815750Y-98331000I218750J0D01*
G01*
X99253250Y-98331000D01*
G75*
G02*
X99472000Y-98549750I0J-218750D01*
G01*
G37*
G04 #@! TD.AperFunction*
G04 #@! TA.AperFunction,SMDPad,CuDef*
G36*
G01*
X101047000Y-98549750D02*
X101047000Y-99062250D01*
G75*
G02*
X100828250Y-99281000I-218750J0D01*
G01*
X100390750Y-99281000D01*
G75*
G02*
X100172000Y-99062250I0J218750D01*
G01*
X100172000Y-98549750D01*
G75*
G02*
X100390750Y-98331000I218750J0D01*
G01*
X100828250Y-98331000D01*
G75*
G02*
X101047000Y-98549750I0J-218750D01*
G01*
G37*
G04 #@! TD.AperFunction*
G04 #@! TA.AperFunction,SMDPad,CuDef*
G36*
G01*
X92106000Y-98549750D02*
X92106000Y-99062250D01*
G75*
G02*
X91887250Y-99281000I-218750J0D01*
G01*
X91449750Y-99281000D01*
G75*
G02*
X91231000Y-99062250I0J218750D01*
G01*
X91231000Y-98549750D01*
G75*
G02*
X91449750Y-98331000I218750J0D01*
G01*
X91887250Y-98331000D01*
G75*
G02*
X92106000Y-98549750I0J-218750D01*
G01*
G37*
G04 #@! TD.AperFunction*
G04 #@! TA.AperFunction,SMDPad,CuDef*
G36*
G01*
X93681000Y-98549750D02*
X93681000Y-99062250D01*
G75*
G02*
X93462250Y-99281000I-218750J0D01*
G01*
X93024750Y-99281000D01*
G75*
G02*
X92806000Y-99062250I0J218750D01*
G01*
X92806000Y-98549750D01*
G75*
G02*
X93024750Y-98331000I218750J0D01*
G01*
X93462250Y-98331000D01*
G75*
G02*
X93681000Y-98549750I0J-218750D01*
G01*
G37*
G04 #@! TD.AperFunction*
G04 #@! TA.AperFunction,SMDPad,CuDef*
G36*
G01*
X102547000Y-95010000D02*
X102177000Y-95010000D01*
G75*
G02*
X102042000Y-94875000I0J135000D01*
G01*
X102042000Y-94605000D01*
G75*
G02*
X102177000Y-94470000I135000J0D01*
G01*
X102547000Y-94470000D01*
G75*
G02*
X102682000Y-94605000I0J-135000D01*
G01*
X102682000Y-94875000D01*
G75*
G02*
X102547000Y-95010000I-135000J0D01*
G01*
G37*
G04 #@! TD.AperFunction*
G04 #@! TA.AperFunction,SMDPad,CuDef*
G36*
G01*
X102547000Y-96030000D02*
X102177000Y-96030000D01*
G75*
G02*
X102042000Y-95895000I0J135000D01*
G01*
X102042000Y-95625000D01*
G75*
G02*
X102177000Y-95490000I135000J0D01*
G01*
X102547000Y-95490000D01*
G75*
G02*
X102682000Y-95625000I0J-135000D01*
G01*
X102682000Y-95895000D01*
G75*
G02*
X102547000Y-96030000I-135000J0D01*
G01*
G37*
G04 #@! TD.AperFunction*
D18*
X100076000Y-97012000D03*
X99126000Y-95012000D03*
X101026000Y-95012000D03*
X92710000Y-97012000D03*
X91760000Y-95012000D03*
X93660000Y-95012000D03*
G04 #@! TA.AperFunction,SMDPad,CuDef*
G36*
G01*
X104789000Y-83089000D02*
X104789000Y-83459000D01*
G75*
G02*
X104654000Y-83594000I-135000J0D01*
G01*
X104384000Y-83594000D01*
G75*
G02*
X104249000Y-83459000I0J135000D01*
G01*
X104249000Y-83089000D01*
G75*
G02*
X104384000Y-82954000I135000J0D01*
G01*
X104654000Y-82954000D01*
G75*
G02*
X104789000Y-83089000I0J-135000D01*
G01*
G37*
G04 #@! TD.AperFunction*
G04 #@! TA.AperFunction,SMDPad,CuDef*
G36*
G01*
X105809000Y-83089000D02*
X105809000Y-83459000D01*
G75*
G02*
X105674000Y-83594000I-135000J0D01*
G01*
X105404000Y-83594000D01*
G75*
G02*
X105269000Y-83459000I0J135000D01*
G01*
X105269000Y-83089000D01*
G75*
G02*
X105404000Y-82954000I135000J0D01*
G01*
X105674000Y-82954000D01*
G75*
G02*
X105809000Y-83089000I0J-135000D01*
G01*
G37*
G04 #@! TD.AperFunction*
G04 #@! TA.AperFunction,SMDPad,CuDef*
G36*
G01*
X104789000Y-84359000D02*
X104789000Y-84729000D01*
G75*
G02*
X104654000Y-84864000I-135000J0D01*
G01*
X104384000Y-84864000D01*
G75*
G02*
X104249000Y-84729000I0J135000D01*
G01*
X104249000Y-84359000D01*
G75*
G02*
X104384000Y-84224000I135000J0D01*
G01*
X104654000Y-84224000D01*
G75*
G02*
X104789000Y-84359000I0J-135000D01*
G01*
G37*
G04 #@! TD.AperFunction*
G04 #@! TA.AperFunction,SMDPad,CuDef*
G36*
G01*
X105809000Y-84359000D02*
X105809000Y-84729000D01*
G75*
G02*
X105674000Y-84864000I-135000J0D01*
G01*
X105404000Y-84864000D01*
G75*
G02*
X105269000Y-84729000I0J135000D01*
G01*
X105269000Y-84359000D01*
G75*
G02*
X105404000Y-84224000I135000J0D01*
G01*
X105674000Y-84224000D01*
G75*
G02*
X105809000Y-84359000I0J-135000D01*
G01*
G37*
G04 #@! TD.AperFunction*
G04 #@! TA.AperFunction,SMDPad,CuDef*
G36*
G01*
X105269000Y-85999000D02*
X105269000Y-85629000D01*
G75*
G02*
X105404000Y-85494000I135000J0D01*
G01*
X105674000Y-85494000D01*
G75*
G02*
X105809000Y-85629000I0J-135000D01*
G01*
X105809000Y-85999000D01*
G75*
G02*
X105674000Y-86134000I-135000J0D01*
G01*
X105404000Y-86134000D01*
G75*
G02*
X105269000Y-85999000I0J135000D01*
G01*
G37*
G04 #@! TD.AperFunction*
G04 #@! TA.AperFunction,SMDPad,CuDef*
G36*
G01*
X104249000Y-85999000D02*
X104249000Y-85629000D01*
G75*
G02*
X104384000Y-85494000I135000J0D01*
G01*
X104654000Y-85494000D01*
G75*
G02*
X104789000Y-85629000I0J-135000D01*
G01*
X104789000Y-85999000D01*
G75*
G02*
X104654000Y-86134000I-135000J0D01*
G01*
X104384000Y-86134000D01*
G75*
G02*
X104249000Y-85999000I0J135000D01*
G01*
G37*
G04 #@! TD.AperFunction*
G04 #@! TA.AperFunction,SMDPad,CuDef*
D10*
G36*
X82445500Y-100344000D02*
G01*
X82445500Y-97219000D01*
X82862000Y-97219000D01*
X82862000Y-95744000D01*
X83762000Y-95744000D01*
X83762000Y-97219000D01*
X84178500Y-97219000D01*
X84178500Y-100344000D01*
X82445500Y-100344000D01*
G37*
G04 #@! TD.AperFunction*
D19*
X81812000Y-96394000D03*
X84812000Y-96394000D03*
D12*
X81788000Y-109728000D03*
X81788000Y-104648000D03*
X105410000Y-120739000D03*
X110490000Y-120739000D03*
G04 #@! TA.AperFunction,SMDPad,CuDef*
G36*
G01*
X111080000Y-95042000D02*
X111080000Y-95382000D01*
G75*
G02*
X110940000Y-95522000I-140000J0D01*
G01*
X110660000Y-95522000D01*
G75*
G02*
X110520000Y-95382000I0J140000D01*
G01*
X110520000Y-95042000D01*
G75*
G02*
X110660000Y-94902000I140000J0D01*
G01*
X110940000Y-94902000D01*
G75*
G02*
X111080000Y-95042000I0J-140000D01*
G01*
G37*
G04 #@! TD.AperFunction*
G04 #@! TA.AperFunction,SMDPad,CuDef*
G36*
G01*
X112040000Y-95042000D02*
X112040000Y-95382000D01*
G75*
G02*
X111900000Y-95522000I-140000J0D01*
G01*
X111620000Y-95522000D01*
G75*
G02*
X111480000Y-95382000I0J140000D01*
G01*
X111480000Y-95042000D01*
G75*
G02*
X111620000Y-94902000I140000J0D01*
G01*
X111900000Y-94902000D01*
G75*
G02*
X112040000Y-95042000I0J-140000D01*
G01*
G37*
G04 #@! TD.AperFunction*
G04 #@! TA.AperFunction,SMDPad,CuDef*
G36*
G01*
X121494000Y-95042000D02*
X121494000Y-95382000D01*
G75*
G02*
X121354000Y-95522000I-140000J0D01*
G01*
X121074000Y-95522000D01*
G75*
G02*
X120934000Y-95382000I0J140000D01*
G01*
X120934000Y-95042000D01*
G75*
G02*
X121074000Y-94902000I140000J0D01*
G01*
X121354000Y-94902000D01*
G75*
G02*
X121494000Y-95042000I0J-140000D01*
G01*
G37*
G04 #@! TD.AperFunction*
G04 #@! TA.AperFunction,SMDPad,CuDef*
G36*
G01*
X122454000Y-95042000D02*
X122454000Y-95382000D01*
G75*
G02*
X122314000Y-95522000I-140000J0D01*
G01*
X122034000Y-95522000D01*
G75*
G02*
X121894000Y-95382000I0J140000D01*
G01*
X121894000Y-95042000D01*
G75*
G02*
X122034000Y-94902000I140000J0D01*
G01*
X122314000Y-94902000D01*
G75*
G02*
X122454000Y-95042000I0J-140000D01*
G01*
G37*
G04 #@! TD.AperFunction*
G04 #@! TA.AperFunction,SMDPad,CuDef*
G36*
G01*
X119652000Y-95789000D02*
X119652000Y-96159000D01*
G75*
G02*
X119517000Y-96294000I-135000J0D01*
G01*
X119247000Y-96294000D01*
G75*
G02*
X119112000Y-96159000I0J135000D01*
G01*
X119112000Y-95789000D01*
G75*
G02*
X119247000Y-95654000I135000J0D01*
G01*
X119517000Y-95654000D01*
G75*
G02*
X119652000Y-95789000I0J-135000D01*
G01*
G37*
G04 #@! TD.AperFunction*
G04 #@! TA.AperFunction,SMDPad,CuDef*
G36*
G01*
X118632000Y-95789000D02*
X118632000Y-96159000D01*
G75*
G02*
X118497000Y-96294000I-135000J0D01*
G01*
X118227000Y-96294000D01*
G75*
G02*
X118092000Y-96159000I0J135000D01*
G01*
X118092000Y-95789000D01*
G75*
G02*
X118227000Y-95654000I135000J0D01*
G01*
X118497000Y-95654000D01*
G75*
G02*
X118632000Y-95789000I0J-135000D01*
G01*
G37*
G04 #@! TD.AperFunction*
G04 #@! TA.AperFunction,SMDPad,CuDef*
G36*
G01*
X119112000Y-97912000D02*
X119112000Y-97592000D01*
G75*
G02*
X119272000Y-97432000I160000J0D01*
G01*
X119667000Y-97432000D01*
G75*
G02*
X119827000Y-97592000I0J-160000D01*
G01*
X119827000Y-97912000D01*
G75*
G02*
X119667000Y-98072000I-160000J0D01*
G01*
X119272000Y-98072000D01*
G75*
G02*
X119112000Y-97912000I0J160000D01*
G01*
G37*
G04 #@! TD.AperFunction*
G04 #@! TA.AperFunction,SMDPad,CuDef*
G36*
G01*
X117917000Y-97912000D02*
X117917000Y-97592000D01*
G75*
G02*
X118077000Y-97432000I160000J0D01*
G01*
X118472000Y-97432000D01*
G75*
G02*
X118632000Y-97592000I0J-160000D01*
G01*
X118632000Y-97912000D01*
G75*
G02*
X118472000Y-98072000I-160000J0D01*
G01*
X118077000Y-98072000D01*
G75*
G02*
X117917000Y-97912000I0J160000D01*
G01*
G37*
G04 #@! TD.AperFunction*
D20*
X114697000Y-96802000D03*
X114697000Y-98702000D03*
X116697000Y-97752000D03*
X121047000Y-96802000D03*
X121047000Y-98702000D03*
X123047000Y-97752000D03*
G04 #@! TA.AperFunction,SMDPad,CuDef*
G36*
G01*
X118672000Y-98867000D02*
X118672000Y-99177000D01*
G75*
G02*
X118517000Y-99332000I-155000J0D01*
G01*
X118092000Y-99332000D01*
G75*
G02*
X117937000Y-99177000I0J155000D01*
G01*
X117937000Y-98867000D01*
G75*
G02*
X118092000Y-98712000I155000J0D01*
G01*
X118517000Y-98712000D01*
G75*
G02*
X118672000Y-98867000I0J-155000D01*
G01*
G37*
G04 #@! TD.AperFunction*
G04 #@! TA.AperFunction,SMDPad,CuDef*
G36*
G01*
X119807000Y-98867000D02*
X119807000Y-99177000D01*
G75*
G02*
X119652000Y-99332000I-155000J0D01*
G01*
X119227000Y-99332000D01*
G75*
G02*
X119072000Y-99177000I0J155000D01*
G01*
X119072000Y-98867000D01*
G75*
G02*
X119227000Y-98712000I155000J0D01*
G01*
X119652000Y-98712000D01*
G75*
G02*
X119807000Y-98867000I0J-155000D01*
G01*
G37*
G04 #@! TD.AperFunction*
X110633000Y-96802000D03*
X110633000Y-98702000D03*
X112633000Y-97752000D03*
G04 #@! TA.AperFunction,SMDPad,CuDef*
G36*
G01*
X109238000Y-95789000D02*
X109238000Y-96159000D01*
G75*
G02*
X109103000Y-96294000I-135000J0D01*
G01*
X108833000Y-96294000D01*
G75*
G02*
X108698000Y-96159000I0J135000D01*
G01*
X108698000Y-95789000D01*
G75*
G02*
X108833000Y-95654000I135000J0D01*
G01*
X109103000Y-95654000D01*
G75*
G02*
X109238000Y-95789000I0J-135000D01*
G01*
G37*
G04 #@! TD.AperFunction*
G04 #@! TA.AperFunction,SMDPad,CuDef*
G36*
G01*
X108218000Y-95789000D02*
X108218000Y-96159000D01*
G75*
G02*
X108083000Y-96294000I-135000J0D01*
G01*
X107813000Y-96294000D01*
G75*
G02*
X107678000Y-96159000I0J135000D01*
G01*
X107678000Y-95789000D01*
G75*
G02*
X107813000Y-95654000I135000J0D01*
G01*
X108083000Y-95654000D01*
G75*
G02*
X108218000Y-95789000I0J-135000D01*
G01*
G37*
G04 #@! TD.AperFunction*
G04 #@! TA.AperFunction,SMDPad,CuDef*
G36*
G01*
X108698000Y-97912000D02*
X108698000Y-97592000D01*
G75*
G02*
X108858000Y-97432000I160000J0D01*
G01*
X109253000Y-97432000D01*
G75*
G02*
X109413000Y-97592000I0J-160000D01*
G01*
X109413000Y-97912000D01*
G75*
G02*
X109253000Y-98072000I-160000J0D01*
G01*
X108858000Y-98072000D01*
G75*
G02*
X108698000Y-97912000I0J160000D01*
G01*
G37*
G04 #@! TD.AperFunction*
G04 #@! TA.AperFunction,SMDPad,CuDef*
G36*
G01*
X107503000Y-97912000D02*
X107503000Y-97592000D01*
G75*
G02*
X107663000Y-97432000I160000J0D01*
G01*
X108058000Y-97432000D01*
G75*
G02*
X108218000Y-97592000I0J-160000D01*
G01*
X108218000Y-97912000D01*
G75*
G02*
X108058000Y-98072000I-160000J0D01*
G01*
X107663000Y-98072000D01*
G75*
G02*
X107503000Y-97912000I0J160000D01*
G01*
G37*
G04 #@! TD.AperFunction*
X104283000Y-96802000D03*
X104283000Y-98702000D03*
X106283000Y-97752000D03*
G04 #@! TA.AperFunction,SMDPad,CuDef*
G36*
G01*
X108258000Y-98867000D02*
X108258000Y-99177000D01*
G75*
G02*
X108103000Y-99332000I-155000J0D01*
G01*
X107678000Y-99332000D01*
G75*
G02*
X107523000Y-99177000I0J155000D01*
G01*
X107523000Y-98867000D01*
G75*
G02*
X107678000Y-98712000I155000J0D01*
G01*
X108103000Y-98712000D01*
G75*
G02*
X108258000Y-98867000I0J-155000D01*
G01*
G37*
G04 #@! TD.AperFunction*
G04 #@! TA.AperFunction,SMDPad,CuDef*
G36*
G01*
X109393000Y-98867000D02*
X109393000Y-99177000D01*
G75*
G02*
X109238000Y-99332000I-155000J0D01*
G01*
X108813000Y-99332000D01*
G75*
G02*
X108658000Y-99177000I0J155000D01*
G01*
X108658000Y-98867000D01*
G75*
G02*
X108813000Y-98712000I155000J0D01*
G01*
X109238000Y-98712000D01*
G75*
G02*
X109393000Y-98867000I0J-155000D01*
G01*
G37*
G04 #@! TD.AperFunction*
G04 #@! TA.AperFunction,SMDPad,CuDef*
G36*
G01*
X82621000Y-94484000D02*
X82621000Y-93984000D01*
G75*
G02*
X82846000Y-93759000I225000J0D01*
G01*
X83296000Y-93759000D01*
G75*
G02*
X83521000Y-93984000I0J-225000D01*
G01*
X83521000Y-94484000D01*
G75*
G02*
X83296000Y-94709000I-225000J0D01*
G01*
X82846000Y-94709000D01*
G75*
G02*
X82621000Y-94484000I0J225000D01*
G01*
G37*
G04 #@! TD.AperFunction*
G04 #@! TA.AperFunction,SMDPad,CuDef*
G36*
G01*
X81071000Y-94484000D02*
X81071000Y-93984000D01*
G75*
G02*
X81296000Y-93759000I225000J0D01*
G01*
X81746000Y-93759000D01*
G75*
G02*
X81971000Y-93984000I0J-225000D01*
G01*
X81971000Y-94484000D01*
G75*
G02*
X81746000Y-94709000I-225000J0D01*
G01*
X81296000Y-94709000D01*
G75*
G02*
X81071000Y-94484000I0J225000D01*
G01*
G37*
G04 #@! TD.AperFunction*
G04 #@! TA.AperFunction,SMDPad,CuDef*
G36*
G01*
X80518000Y-91550000D02*
X80518000Y-91210000D01*
G75*
G02*
X80658000Y-91070000I140000J0D01*
G01*
X80938000Y-91070000D01*
G75*
G02*
X81078000Y-91210000I0J-140000D01*
G01*
X81078000Y-91550000D01*
G75*
G02*
X80938000Y-91690000I-140000J0D01*
G01*
X80658000Y-91690000D01*
G75*
G02*
X80518000Y-91550000I0J140000D01*
G01*
G37*
G04 #@! TD.AperFunction*
G04 #@! TA.AperFunction,SMDPad,CuDef*
G36*
G01*
X79558000Y-91550000D02*
X79558000Y-91210000D01*
G75*
G02*
X79698000Y-91070000I140000J0D01*
G01*
X79978000Y-91070000D01*
G75*
G02*
X80118000Y-91210000I0J-140000D01*
G01*
X80118000Y-91550000D01*
G75*
G02*
X79978000Y-91690000I-140000J0D01*
G01*
X79698000Y-91690000D01*
G75*
G02*
X79558000Y-91550000I0J140000D01*
G01*
G37*
G04 #@! TD.AperFunction*
G04 #@! TA.AperFunction,SMDPad,CuDef*
G36*
G01*
X80064000Y-87930000D02*
X80064000Y-88270000D01*
G75*
G02*
X79924000Y-88410000I-140000J0D01*
G01*
X79644000Y-88410000D01*
G75*
G02*
X79504000Y-88270000I0J140000D01*
G01*
X79504000Y-87930000D01*
G75*
G02*
X79644000Y-87790000I140000J0D01*
G01*
X79924000Y-87790000D01*
G75*
G02*
X80064000Y-87930000I0J-140000D01*
G01*
G37*
G04 #@! TD.AperFunction*
G04 #@! TA.AperFunction,SMDPad,CuDef*
G36*
G01*
X81024000Y-87930000D02*
X81024000Y-88270000D01*
G75*
G02*
X80884000Y-88410000I-140000J0D01*
G01*
X80604000Y-88410000D01*
G75*
G02*
X80464000Y-88270000I0J140000D01*
G01*
X80464000Y-87930000D01*
G75*
G02*
X80604000Y-87790000I140000J0D01*
G01*
X80884000Y-87790000D01*
G75*
G02*
X81024000Y-87930000I0J-140000D01*
G01*
G37*
G04 #@! TD.AperFunction*
G04 #@! TA.AperFunction,SMDPad,CuDef*
G36*
G01*
X80118000Y-90160000D02*
X80118000Y-90500000D01*
G75*
G02*
X79978000Y-90640000I-140000J0D01*
G01*
X79698000Y-90640000D01*
G75*
G02*
X79558000Y-90500000I0J140000D01*
G01*
X79558000Y-90160000D01*
G75*
G02*
X79698000Y-90020000I140000J0D01*
G01*
X79978000Y-90020000D01*
G75*
G02*
X80118000Y-90160000I0J-140000D01*
G01*
G37*
G04 #@! TD.AperFunction*
G04 #@! TA.AperFunction,SMDPad,CuDef*
G36*
G01*
X81078000Y-90160000D02*
X81078000Y-90500000D01*
G75*
G02*
X80938000Y-90640000I-140000J0D01*
G01*
X80658000Y-90640000D01*
G75*
G02*
X80518000Y-90500000I0J140000D01*
G01*
X80518000Y-90160000D01*
G75*
G02*
X80658000Y-90020000I140000J0D01*
G01*
X80938000Y-90020000D01*
G75*
G02*
X81078000Y-90160000I0J-140000D01*
G01*
G37*
G04 #@! TD.AperFunction*
D21*
X120015000Y-101600000D03*
X118110000Y-114300000D03*
X97790000Y-114300000D03*
X109728000Y-95212000D03*
X120142000Y-95212000D03*
X117348000Y-95212000D03*
X106934000Y-95212000D03*
X101578900Y-83289931D03*
X101600000Y-84582000D03*
X101600000Y-85824010D03*
X120015000Y-104140000D03*
X117475000Y-104140000D03*
X114935000Y-104140000D03*
X112395000Y-104140000D03*
X109855000Y-104140000D03*
X107315000Y-104140000D03*
X104775000Y-104140000D03*
X102235000Y-104140000D03*
X102235000Y-101600000D03*
X104775000Y-101600000D03*
X107315000Y-101600000D03*
X109855000Y-101600000D03*
X112395000Y-101600000D03*
X114935000Y-101600000D03*
X117475000Y-101600000D03*
X99695000Y-101600000D03*
X99695000Y-104140000D03*
X97155000Y-101600000D03*
X94615000Y-101600000D03*
X92075000Y-101600000D03*
X89535000Y-101600000D03*
X89535000Y-104140000D03*
X92075000Y-104140000D03*
X94615000Y-104140000D03*
X97155000Y-104140000D03*
X97155000Y-106680000D03*
X94615000Y-106680000D03*
X92075000Y-106680000D03*
X89535000Y-106680000D03*
X106426000Y-98933000D03*
X116840000Y-98933000D03*
X86995000Y-101600000D03*
X86995000Y-104140000D03*
X86995000Y-106680000D03*
X124460000Y-104140000D03*
X112395000Y-106680000D03*
X109855000Y-106680000D03*
X107315000Y-106680000D03*
X124460000Y-106680000D03*
X120015000Y-106680000D03*
X104775000Y-106680000D03*
X117475000Y-106680000D03*
X90678000Y-88138000D03*
X99695000Y-106680000D03*
X114935000Y-106680000D03*
X102235000Y-106680000D03*
X91186000Y-97028000D03*
X98552000Y-97028000D03*
X124460000Y-101600000D03*
X78740000Y-88100000D03*
X78740000Y-90386000D03*
X78740000Y-91402000D03*
X84074000Y-93688000D03*
X81788000Y-98768000D03*
X84836000Y-98768000D03*
X86706000Y-87122000D03*
X96716313Y-86414000D03*
X100390870Y-86410905D03*
X97282000Y-85814000D03*
X99822000Y-85814000D03*
X96266000Y-87084000D03*
X100838000Y-87084000D03*
X77632000Y-99568000D03*
X79248000Y-101092000D03*
X86106000Y-85598000D03*
X77649645Y-98533558D03*
X79248000Y-100076000D03*
X115570000Y-114300000D03*
X113030000Y-114300000D03*
X110490000Y-114300000D03*
X110490000Y-116840000D03*
X113030000Y-116840000D03*
X115570000Y-116840000D03*
X118110000Y-116840000D03*
X118110000Y-119380000D03*
X118110000Y-121920000D03*
X118110000Y-124460000D03*
X115570000Y-124460000D03*
X113030000Y-124460000D03*
X113030000Y-121920000D03*
X113030000Y-119380000D03*
X115570000Y-119380000D03*
X115570000Y-121920000D03*
X110490000Y-124460000D03*
X100330000Y-114300000D03*
X102870000Y-114300000D03*
X105410000Y-114300000D03*
X105410000Y-116840000D03*
X102870000Y-116840000D03*
X100330000Y-116840000D03*
X97790000Y-116840000D03*
X97790000Y-119380000D03*
X100330000Y-119380000D03*
X102870000Y-119380000D03*
X102870000Y-121920000D03*
X100330000Y-121920000D03*
X97790000Y-121920000D03*
X97790000Y-124460000D03*
X100330000Y-124460000D03*
X102870000Y-124460000D03*
X105410000Y-124460000D03*
X115316000Y-108712000D03*
X109728000Y-108712000D03*
X121412000Y-101600000D03*
X102108000Y-108712000D03*
X96520000Y-108712000D03*
X122428000Y-101600000D03*
X79375000Y-119380000D03*
X79375000Y-116840000D03*
X79375000Y-114300000D03*
X81915000Y-119380000D03*
X81915000Y-116840000D03*
X81915000Y-114300000D03*
X84455000Y-114300000D03*
X84455000Y-116840000D03*
X84455000Y-119380000D03*
X92075000Y-116840000D03*
X89535000Y-116840000D03*
X86995000Y-116840000D03*
X86995000Y-114300000D03*
X89535000Y-114300000D03*
X86995000Y-111760000D03*
X84455000Y-111760000D03*
X84455000Y-124460000D03*
X86995000Y-124460000D03*
X89535000Y-124460000D03*
X92075000Y-124460000D03*
X89522400Y-119380000D03*
X89535000Y-121907400D03*
X79375000Y-111747400D03*
X84455000Y-109207400D03*
X92075000Y-114287400D03*
X89535000Y-111747400D03*
X79375000Y-109207400D03*
X84455000Y-121907400D03*
X109728000Y-93726000D03*
X116078000Y-93726000D03*
X118364000Y-93726000D03*
X88646000Y-93980000D03*
X98552000Y-90386000D03*
X98552000Y-87846000D03*
X92329000Y-92037000D03*
X107480000Y-93726000D03*
X90932000Y-85090000D03*
D22*
X110800000Y-95212000D02*
X109728000Y-95212000D01*
X121214000Y-95212000D02*
X120142000Y-95212000D01*
X118110000Y-95974000D02*
X117348000Y-95212000D01*
X118362000Y-95974000D02*
X118110000Y-95974000D01*
X107696000Y-95974000D02*
X106934000Y-95212000D01*
X107948000Y-95974000D02*
X107696000Y-95974000D01*
X80448010Y-89719990D02*
X79838000Y-90330000D01*
X82391990Y-89719990D02*
X80448010Y-89719990D01*
X82501000Y-89829000D02*
X82391990Y-89719990D01*
X82516500Y-89829000D02*
X82501000Y-89829000D01*
X79838000Y-90330000D02*
X79838000Y-91380000D01*
X101594831Y-83274000D02*
X101578900Y-83289931D01*
X102517000Y-83274000D02*
X101594831Y-83274000D01*
X102170990Y-83249010D02*
X102553010Y-83249010D01*
X101662990Y-83249010D02*
X102553010Y-83249010D01*
X101638000Y-84544000D02*
X101600000Y-84582000D01*
X102517000Y-84544000D02*
X101638000Y-84544000D01*
X101610010Y-85814000D02*
X101600000Y-85824010D01*
X102517000Y-85814000D02*
X101610010Y-85814000D01*
X106283000Y-98790000D02*
X106426000Y-98933000D01*
X106283000Y-97752000D02*
X106283000Y-98790000D01*
X106515000Y-99022000D02*
X106426000Y-98933000D01*
X107890500Y-99022000D02*
X106515000Y-99022000D01*
X116697000Y-97752000D02*
X116697000Y-98790000D01*
X116697000Y-98790000D02*
X116840000Y-98933000D01*
X116929000Y-99022000D02*
X116840000Y-98933000D01*
X118304500Y-99022000D02*
X116929000Y-99022000D01*
X98222000Y-109055000D02*
X99542000Y-109055000D01*
X90706000Y-88110000D02*
X90678000Y-88138000D01*
X90706000Y-87122000D02*
X90706000Y-88110000D01*
X111430000Y-109055000D02*
X112750000Y-109055000D01*
X117018000Y-109055000D02*
X118338000Y-109055000D01*
X103810000Y-109055000D02*
X105130000Y-109055000D01*
X98222000Y-107747000D02*
X97155000Y-106680000D01*
X98222000Y-109055000D02*
X98222000Y-107747000D01*
X103810000Y-109055000D02*
X103810000Y-107620000D01*
X102870000Y-106680000D02*
X102235000Y-106680000D01*
X103810000Y-107620000D02*
X102870000Y-106680000D01*
X111430000Y-109055000D02*
X111430000Y-107620000D01*
X111430000Y-107620000D02*
X110490000Y-106680000D01*
X110490000Y-106680000D02*
X109855000Y-106680000D01*
X117018000Y-109055000D02*
X117018000Y-107493000D01*
X117018000Y-107493000D02*
X117475000Y-107036000D01*
X117475000Y-107036000D02*
X117475000Y-106680000D01*
X83312000Y-95532000D02*
X84356000Y-94488000D01*
X83312000Y-96481500D02*
X83312000Y-95532000D01*
X83312000Y-94475000D02*
X83071000Y-94234000D01*
X83312000Y-96481500D02*
X83312000Y-94475000D01*
X83325000Y-94488000D02*
X83071000Y-94234000D01*
X84356000Y-94488000D02*
X83325000Y-94488000D01*
X91760000Y-96454000D02*
X91186000Y-97028000D01*
X91760000Y-95012000D02*
X91760000Y-96454000D01*
X99126000Y-96454000D02*
X98552000Y-97028000D01*
X99126000Y-95012000D02*
X99126000Y-96454000D01*
X79784000Y-88100000D02*
X78740000Y-88100000D01*
X78796000Y-90330000D02*
X78740000Y-90386000D01*
X79838000Y-90330000D02*
X78796000Y-90330000D01*
X78762000Y-91380000D02*
X78740000Y-91402000D01*
X79838000Y-91380000D02*
X78762000Y-91380000D01*
X83528000Y-94234000D02*
X84074000Y-93688000D01*
X83071000Y-94234000D02*
X83528000Y-94234000D01*
X84356000Y-93970000D02*
X84074000Y-93688000D01*
X84356000Y-94488000D02*
X84356000Y-93970000D01*
X84836000Y-98768000D02*
X81788000Y-98768000D01*
X84836000Y-98768000D02*
X83312000Y-98768000D01*
X83312000Y-98768000D02*
X83312000Y-96481500D01*
X80965000Y-87879000D02*
X80744000Y-88100000D01*
X82516500Y-87879000D02*
X80965000Y-87879000D01*
X97282000Y-82804000D02*
X97282000Y-80264000D01*
X98298000Y-83820000D02*
X98298000Y-86830000D01*
X97282000Y-82804000D02*
X98298000Y-83820000D01*
X91188000Y-90894000D02*
X91440000Y-90894000D01*
X91440000Y-90894000D02*
X93218000Y-89116000D01*
X96810000Y-89116000D02*
X97026000Y-88900000D01*
X93218000Y-89116000D02*
X96810000Y-89116000D01*
X97026000Y-88102000D02*
X98298000Y-86830000D01*
X97026000Y-88900000D02*
X97026000Y-88102000D01*
X99822000Y-82804000D02*
X99822000Y-80264000D01*
X98698010Y-83927990D02*
X98698010Y-86722010D01*
X99822000Y-82804000D02*
X98698010Y-83927990D01*
X99354000Y-89624000D02*
X100078000Y-88900000D01*
X93474000Y-89624000D02*
X99354000Y-89624000D01*
X91188000Y-91910000D02*
X93474000Y-89624000D01*
X100078000Y-88102000D02*
X98698010Y-86722010D01*
X100078000Y-88900000D02*
X100078000Y-88102000D01*
X86813000Y-87229000D02*
X86706000Y-87122000D01*
X88241500Y-87229000D02*
X86813000Y-87229000D01*
X104519000Y-84544000D02*
X103477000Y-84544000D01*
X89465698Y-89408000D02*
X91128302Y-89408000D01*
X88241500Y-89829000D02*
X89044698Y-89829000D01*
X89044698Y-89829000D02*
X89465698Y-89408000D01*
X91128302Y-89408000D02*
X93960305Y-86575997D01*
X93960305Y-86575997D02*
X93980003Y-86575997D01*
X94142000Y-86414000D02*
X96716313Y-86414000D01*
X93980003Y-86575997D02*
X94142000Y-86414000D01*
X101332018Y-85203990D02*
X102817010Y-85203990D01*
X100690869Y-85845139D02*
X101332018Y-85203990D01*
X102817010Y-85203990D02*
X103477000Y-84544000D01*
X100690869Y-86110906D02*
X100690869Y-85845139D01*
X100390870Y-86410905D02*
X100690869Y-86110906D01*
X104519000Y-83274000D02*
X103477000Y-83274000D01*
X102817010Y-83933990D02*
X103477000Y-83274000D01*
X101360008Y-83933990D02*
X102817010Y-83933990D01*
X89128999Y-89179000D02*
X88241500Y-89179000D01*
X89315998Y-88992001D02*
X89128999Y-89179000D01*
X90978603Y-88992001D02*
X89315998Y-88992001D01*
X94156604Y-85814000D02*
X90978603Y-88992001D01*
X97282000Y-85814000D02*
X94156604Y-85814000D01*
X100793999Y-84499999D02*
X101360008Y-83933990D01*
X100793999Y-84842001D02*
X100793999Y-84588001D01*
X99822000Y-85814000D02*
X100793999Y-84842001D01*
X100793999Y-84499999D02*
X100793999Y-84588001D01*
X88241500Y-86579000D02*
X88903000Y-86579000D01*
X89279010Y-86278990D02*
X89279010Y-85663308D01*
X88979000Y-86579000D02*
X89279010Y-86278990D01*
X88241500Y-86579000D02*
X88979000Y-86579000D01*
X84582000Y-82804000D02*
X86267999Y-84489999D01*
X88105701Y-84489999D02*
X88929851Y-85314149D01*
X86267999Y-84489999D02*
X88105701Y-84489999D01*
X89279010Y-85663308D02*
X88929851Y-85314149D01*
X89679020Y-87094682D02*
X89679020Y-85497619D01*
X88894702Y-87879000D02*
X89679020Y-87094682D01*
X88241500Y-87879000D02*
X88894702Y-87879000D01*
X87122000Y-82940599D02*
X87122000Y-82804000D01*
X89679020Y-85497619D02*
X87122000Y-82940599D01*
X90079028Y-87344674D02*
X90079028Y-85331929D01*
X88894702Y-88529000D02*
X90079028Y-87344674D01*
X88241500Y-88529000D02*
X88894702Y-88529000D01*
X90079028Y-85331929D02*
X89662000Y-84914901D01*
X89662000Y-84914901D02*
X89662000Y-82804000D01*
X79183990Y-83122010D02*
X79502000Y-82804000D01*
X79183990Y-86513990D02*
X79183990Y-83122010D01*
X79754000Y-87084000D02*
X79183990Y-86513990D01*
X79754000Y-85092000D02*
X82042000Y-82804000D01*
X79754000Y-86068000D02*
X79754000Y-85092000D01*
X82278000Y-87229000D02*
X82260000Y-87211000D01*
X82516500Y-87229000D02*
X82278000Y-87229000D01*
X104519000Y-85814000D02*
X103477000Y-85814000D01*
X88241500Y-90479000D02*
X88960396Y-90479000D01*
X91255302Y-89846698D02*
X93726000Y-87376000D01*
X89592698Y-89846698D02*
X91255302Y-89846698D01*
X88960396Y-90479000D02*
X89592698Y-89846698D01*
X93726000Y-87376000D02*
X93980000Y-87122000D01*
X93980000Y-87122000D02*
X95677058Y-87122000D01*
X96228000Y-87122000D02*
X96266000Y-87084000D01*
X95677058Y-87122000D02*
X96228000Y-87122000D01*
X100838000Y-87084000D02*
X101346000Y-86576000D01*
X103449270Y-85814000D02*
X103477000Y-85814000D01*
X102687270Y-86576000D02*
X103449270Y-85814000D01*
X101346000Y-86576000D02*
X102687270Y-86576000D01*
X94742000Y-80264000D02*
X94742000Y-82804000D01*
X92712000Y-86106000D02*
X92712000Y-86104000D01*
X94742000Y-84074000D02*
X94742000Y-82804000D01*
X92712000Y-86104000D02*
X94742000Y-84074000D01*
X92682000Y-86106000D02*
X91666000Y-87122000D01*
X92712000Y-86106000D02*
X92682000Y-86106000D01*
X79794020Y-101638020D02*
X79248000Y-101092000D01*
X86455720Y-100330000D02*
X85147699Y-101638020D01*
X85147699Y-101638020D02*
X79794020Y-101638020D01*
X101092000Y-100330000D02*
X86455720Y-100330000D01*
X102982010Y-98439990D02*
X101092000Y-100330000D01*
X102982010Y-95360010D02*
X102982010Y-98439990D01*
X102362000Y-94740000D02*
X102982010Y-95360010D01*
X77049644Y-98985644D02*
X77632000Y-99568000D01*
X78858310Y-88778990D02*
X77049644Y-90587655D01*
X77049644Y-90587655D02*
X77049644Y-98985644D01*
X81280000Y-88778990D02*
X78858310Y-88778990D01*
X81529990Y-88529000D02*
X81280000Y-88778990D01*
X82516500Y-88529000D02*
X81529990Y-88529000D01*
X85775000Y-85929000D02*
X86106000Y-85598000D01*
X82516500Y-85929000D02*
X85775000Y-85929000D01*
X77649645Y-90553353D02*
X77649645Y-98533558D01*
X79023998Y-89179000D02*
X77649645Y-90553353D01*
X82516500Y-89179000D02*
X79023998Y-89179000D01*
X80410010Y-101238010D02*
X79248000Y-100076000D01*
X84982010Y-101238010D02*
X80410010Y-101238010D01*
X86290031Y-99929990D02*
X84982010Y-101238010D01*
X93872010Y-99929990D02*
X86290031Y-99929990D01*
X95616010Y-98185990D02*
X93872010Y-99929990D01*
X95616010Y-95360010D02*
X95616010Y-98185990D01*
X94996000Y-94740000D02*
X95616010Y-95360010D01*
X105167312Y-96651989D02*
X110482989Y-96651989D01*
X110482989Y-96651989D02*
X110633000Y-96802000D01*
X105017301Y-96802000D02*
X105167312Y-96651989D01*
X104283000Y-96802000D02*
X105017301Y-96802000D01*
X109805000Y-95974000D02*
X110633000Y-96802000D01*
X108968000Y-95974000D02*
X109805000Y-95974000D01*
X86271689Y-92525990D02*
X84435990Y-92525990D01*
X86871697Y-93125999D02*
X86271689Y-92525990D01*
X83689000Y-91779000D02*
X82516500Y-91779000D01*
X107984001Y-93125999D02*
X86871697Y-93125999D01*
X84435990Y-92525990D02*
X83689000Y-91779000D01*
X108968000Y-94109998D02*
X107984001Y-93125999D01*
X108968000Y-95974000D02*
X108968000Y-94109998D01*
X121047000Y-96485748D02*
X121047000Y-96802000D01*
X120896989Y-96651989D02*
X121047000Y-96802000D01*
X115581312Y-96651989D02*
X120896989Y-96651989D01*
X115431301Y-96802000D02*
X115581312Y-96651989D01*
X114697000Y-96802000D02*
X115431301Y-96802000D01*
X120219000Y-95974000D02*
X121047000Y-96802000D01*
X119382000Y-95974000D02*
X120219000Y-95974000D01*
X86791000Y-85929000D02*
X88241500Y-85929000D01*
X86106000Y-86614000D02*
X86791000Y-85929000D01*
X86106000Y-91794604D02*
X86106000Y-86614000D01*
X87037385Y-92725989D02*
X86106000Y-91794604D01*
X116133989Y-92725989D02*
X87037385Y-92725989D01*
X119382000Y-95974000D02*
X116133989Y-92725989D01*
X109055500Y-97752000D02*
X109055500Y-98992000D01*
X115659000Y-109055000D02*
X115316000Y-108712000D01*
X116358000Y-109055000D02*
X115659000Y-109055000D01*
X110071000Y-109055000D02*
X109728000Y-108712000D01*
X110770000Y-109055000D02*
X110071000Y-109055000D01*
X109025500Y-99022000D02*
X110333500Y-100330000D01*
X120142000Y-100330000D02*
X121412000Y-101600000D01*
X110333500Y-100330000D02*
X120142000Y-100330000D01*
X119469500Y-97752000D02*
X119469500Y-98992000D01*
X102451000Y-109055000D02*
X102108000Y-108712000D01*
X103150000Y-109055000D02*
X102451000Y-109055000D01*
X96863000Y-109055000D02*
X96520000Y-108712000D01*
X97562000Y-109055000D02*
X96863000Y-109055000D01*
X122385000Y-101600000D02*
X122428000Y-101600000D01*
X119807000Y-99022000D02*
X122385000Y-101600000D01*
X119439500Y-99022000D02*
X119807000Y-99022000D01*
X81788000Y-109728000D02*
X78232000Y-106172000D01*
X78232000Y-98678000D02*
X79248000Y-97662000D01*
X78232000Y-106172000D02*
X78232000Y-98678000D01*
X81049000Y-91129000D02*
X80798000Y-91380000D01*
X82516500Y-91129000D02*
X81049000Y-91129000D01*
X112633000Y-96085000D02*
X111760000Y-95212000D01*
X112633000Y-97752000D02*
X112633000Y-96085000D01*
X123047000Y-96085000D02*
X122174000Y-95212000D01*
X123047000Y-97752000D02*
X123047000Y-96085000D01*
X86106000Y-92926000D02*
X86803990Y-93623990D01*
X85316000Y-95890000D02*
X84812000Y-96394000D01*
X85316000Y-94488000D02*
X85316000Y-95890000D01*
X87248000Y-94488000D02*
X87376000Y-94616000D01*
X85316000Y-94488000D02*
X87248000Y-94488000D01*
X87376000Y-94196000D02*
X86106000Y-92926000D01*
X87376000Y-94616000D02*
X87376000Y-94196000D01*
X80798000Y-91380000D02*
X80798000Y-92228000D01*
X81496000Y-92926000D02*
X84544000Y-92926000D01*
X80798000Y-92228000D02*
X81496000Y-92926000D01*
X84544000Y-92926000D02*
X86106000Y-92926000D01*
X109728000Y-93726000D02*
X110744000Y-93726000D01*
X111760000Y-94742000D02*
X111760000Y-95212000D01*
X110744000Y-93726000D02*
X111760000Y-94742000D01*
X109728000Y-93726000D02*
X116078000Y-93726000D01*
X118364000Y-93726000D02*
X121158000Y-93726000D01*
X122174000Y-94742000D02*
X122174000Y-95212000D01*
X121158000Y-93726000D02*
X122174000Y-94742000D01*
X88010000Y-94616000D02*
X88646000Y-93980000D01*
X87376000Y-94616000D02*
X88010000Y-94616000D01*
X98552000Y-88862000D02*
X98514000Y-88900000D01*
X98552000Y-87846000D02*
X98552000Y-88862000D01*
X98514000Y-88900000D02*
X99058000Y-88900000D01*
X98046000Y-88900000D02*
X98514000Y-88900000D01*
X92329000Y-92037000D02*
X93980000Y-90386000D01*
X93980000Y-90386000D02*
X98552000Y-90386000D01*
X88900000Y-93726000D02*
X88646000Y-93980000D01*
X107480000Y-93726000D02*
X88900000Y-93726000D01*
X89408000Y-95760000D02*
X90424000Y-95760000D01*
X90424000Y-97561500D02*
X91668500Y-98806000D01*
X90424000Y-95760000D02*
X90424000Y-97561500D01*
X93243500Y-97545500D02*
X92710000Y-97012000D01*
X93243500Y-98806000D02*
X93243500Y-97545500D01*
X96774000Y-95760000D02*
X97790000Y-95760000D01*
X97790000Y-97561500D02*
X99034500Y-98806000D01*
X97790000Y-95760000D02*
X97790000Y-97561500D01*
X100609500Y-97545500D02*
X100076000Y-97012000D01*
X100609500Y-98806000D02*
X100609500Y-97545500D01*
X89933000Y-91129000D02*
X90168000Y-90894000D01*
X88241500Y-91129000D02*
X89933000Y-91129000D01*
X90037000Y-91779000D02*
X90168000Y-91910000D01*
X88241500Y-91779000D02*
X90037000Y-91779000D01*
X80947000Y-90479000D02*
X80798000Y-90330000D01*
X82516500Y-90479000D02*
X80947000Y-90479000D01*
X109363553Y-97051999D02*
X110633000Y-98321446D01*
X110633000Y-98321446D02*
X110633000Y-98702000D01*
X104283000Y-98102000D02*
X105333001Y-97051999D01*
X104283000Y-98702000D02*
X104283000Y-98102000D01*
X107860500Y-97079500D02*
X107888001Y-97051999D01*
X105333001Y-97051999D02*
X107888001Y-97051999D01*
X107888001Y-97051999D02*
X109363553Y-97051999D01*
X107860500Y-97752000D02*
X107860500Y-97079500D01*
X105539000Y-85814000D02*
X107278980Y-84074020D01*
X107278980Y-84074020D02*
X111252020Y-84074020D01*
X111252020Y-84074020D02*
X111760000Y-84582000D01*
X111760000Y-88351000D02*
X109385000Y-90726000D01*
X111760000Y-84582000D02*
X111760000Y-88351000D01*
X119777553Y-97051999D02*
X121047000Y-98321446D01*
X121047000Y-98321446D02*
X121047000Y-98702000D01*
X114697000Y-98102000D02*
X115747001Y-97051999D01*
X114697000Y-98702000D02*
X114697000Y-98102000D01*
X118274500Y-97076498D02*
X118298999Y-97051999D01*
X115747001Y-97051999D02*
X118298999Y-97051999D01*
X118298999Y-97051999D02*
X119777553Y-97051999D01*
X118274500Y-97752000D02*
X118274500Y-97076498D01*
X94408000Y-95760000D02*
X93660000Y-95012000D01*
X94996000Y-95760000D02*
X94408000Y-95760000D01*
X101774000Y-95760000D02*
X101026000Y-95012000D01*
X102362000Y-95760000D02*
X101774000Y-95760000D01*
X81393000Y-94362000D02*
X81521000Y-94234000D01*
X79248000Y-94362000D02*
X81393000Y-94362000D01*
X81521000Y-96103000D02*
X81812000Y-96394000D01*
X81521000Y-94234000D02*
X81521000Y-96103000D01*
X96774000Y-94740000D02*
X97790000Y-94740000D01*
X89408000Y-94740000D02*
X90424000Y-94740000D01*
X89408000Y-94740000D02*
X88646000Y-95502000D01*
X84816322Y-100838000D02*
X87376000Y-98278322D01*
X81572000Y-100838000D02*
X84816322Y-100838000D01*
X81026000Y-100292000D02*
X81572000Y-100838000D01*
X81026000Y-97244000D02*
X81026000Y-100292000D01*
X87376000Y-98278322D02*
X87376000Y-97916000D01*
X81812000Y-96458000D02*
X81026000Y-97244000D01*
X81812000Y-96394000D02*
X81812000Y-96458000D01*
X87376000Y-96772000D02*
X88646000Y-95502000D01*
X87376000Y-97916000D02*
X87376000Y-96772000D01*
X96203990Y-94169990D02*
X96774000Y-94740000D01*
X90994010Y-94169990D02*
X96203990Y-94169990D01*
X90424000Y-94740000D02*
X90994010Y-94169990D01*
X91692000Y-85850000D02*
X90932000Y-85090000D01*
X91692000Y-86106000D02*
X91692000Y-85850000D01*
X106387000Y-82426000D02*
X105539000Y-83274000D01*
X109385000Y-82426000D02*
X106387000Y-82426000D01*
X106408990Y-83674010D02*
X105539000Y-84544000D01*
X119236990Y-83674010D02*
X106408990Y-83674010D01*
X120485000Y-82426000D02*
X119236990Y-83674010D01*
X82516500Y-86579000D02*
X81537000Y-86579000D01*
X81026000Y-86068000D02*
X80774000Y-86068000D01*
X81537000Y-86579000D02*
X81026000Y-86068000D01*
X80919000Y-87229000D02*
X80774000Y-87084000D01*
X82516500Y-87229000D02*
X80919000Y-87229000D01*
D23*
X107315000Y-125540000D02*
X94869000Y-125540000D01*
X94869000Y-122087386D01*
X104589115Y-122087386D01*
X104715588Y-122329362D01*
X105039195Y-122434276D01*
X105377052Y-122474043D01*
X105716176Y-122447132D01*
X106043532Y-122354579D01*
X106104412Y-122329362D01*
X106230885Y-122087386D01*
X105410000Y-121266502D01*
X104589115Y-122087386D01*
X94869000Y-122087386D01*
X94869000Y-120706052D01*
X103674957Y-120706052D01*
X103701868Y-121045176D01*
X103794421Y-121372532D01*
X103819638Y-121433412D01*
X104061614Y-121559885D01*
X104882498Y-120739000D01*
X105937502Y-120739000D01*
X106758386Y-121559885D01*
X107000362Y-121433412D01*
X107105276Y-121109805D01*
X107145043Y-120771948D01*
X107118132Y-120432824D01*
X107025579Y-120105468D01*
X107000362Y-120044588D01*
X106758386Y-119918115D01*
X105937502Y-120739000D01*
X104882498Y-120739000D01*
X104061614Y-119918115D01*
X103819638Y-120044588D01*
X103714724Y-120368195D01*
X103674957Y-120706052D01*
X94869000Y-120706052D01*
X94869000Y-119390614D01*
X104589115Y-119390614D01*
X105410000Y-120211498D01*
X106230885Y-119390614D01*
X106104412Y-119148638D01*
X105780805Y-119043724D01*
X105442948Y-119003957D01*
X105103824Y-119030868D01*
X104776468Y-119123421D01*
X104715588Y-119148638D01*
X104589115Y-119390614D01*
X94869000Y-119390614D01*
X94869000Y-113514729D01*
X95174615Y-113310524D01*
X95540524Y-112944615D01*
X95828017Y-112514351D01*
X96026046Y-112036268D01*
X96127000Y-111528737D01*
X96127000Y-111011263D01*
X96026046Y-110503732D01*
X95967753Y-110363000D01*
X107315000Y-110363000D01*
X107315000Y-125540000D01*
G04 #@! TA.AperFunction,Conductor*
D24*
G36*
X107315000Y-125540000D02*
G01*
X94869000Y-125540000D01*
X94869000Y-122087386D01*
X104589115Y-122087386D01*
X104715588Y-122329362D01*
X105039195Y-122434276D01*
X105377052Y-122474043D01*
X105716176Y-122447132D01*
X106043532Y-122354579D01*
X106104412Y-122329362D01*
X106230885Y-122087386D01*
X105410000Y-121266502D01*
X104589115Y-122087386D01*
X94869000Y-122087386D01*
X94869000Y-120706052D01*
X103674957Y-120706052D01*
X103701868Y-121045176D01*
X103794421Y-121372532D01*
X103819638Y-121433412D01*
X104061614Y-121559885D01*
X104882498Y-120739000D01*
X105937502Y-120739000D01*
X106758386Y-121559885D01*
X107000362Y-121433412D01*
X107105276Y-121109805D01*
X107145043Y-120771948D01*
X107118132Y-120432824D01*
X107025579Y-120105468D01*
X107000362Y-120044588D01*
X106758386Y-119918115D01*
X105937502Y-120739000D01*
X104882498Y-120739000D01*
X104061614Y-119918115D01*
X103819638Y-120044588D01*
X103714724Y-120368195D01*
X103674957Y-120706052D01*
X94869000Y-120706052D01*
X94869000Y-119390614D01*
X104589115Y-119390614D01*
X105410000Y-120211498D01*
X106230885Y-119390614D01*
X106104412Y-119148638D01*
X105780805Y-119043724D01*
X105442948Y-119003957D01*
X105103824Y-119030868D01*
X104776468Y-119123421D01*
X104715588Y-119148638D01*
X104589115Y-119390614D01*
X94869000Y-119390614D01*
X94869000Y-113514729D01*
X95174615Y-113310524D01*
X95540524Y-112944615D01*
X95828017Y-112514351D01*
X96026046Y-112036268D01*
X96127000Y-111528737D01*
X96127000Y-111011263D01*
X96026046Y-110503732D01*
X95967753Y-110363000D01*
X107315000Y-110363000D01*
X107315000Y-125540000D01*
G37*
G04 #@! TD.AperFunction*
D25*
X120489284Y-101702589D02*
X120522547Y-101869813D01*
X120592275Y-102038152D01*
X120693505Y-102189653D01*
X120822347Y-102318495D01*
X120973848Y-102419725D01*
X121142187Y-102489453D01*
X121320895Y-102525000D01*
X121503105Y-102525000D01*
X121681813Y-102489453D01*
X121850152Y-102419725D01*
X121920000Y-102373054D01*
X121989848Y-102419725D01*
X122158187Y-102489453D01*
X122336895Y-102525000D01*
X122519105Y-102525000D01*
X122697813Y-102489453D01*
X122866152Y-102419725D01*
X123017653Y-102318495D01*
X123146495Y-102189653D01*
X123247725Y-102038152D01*
X123317453Y-101869813D01*
X123353000Y-101691105D01*
X123353000Y-101508895D01*
X123317453Y-101330187D01*
X123247725Y-101161848D01*
X123199718Y-101090000D01*
X125550000Y-101090000D01*
X125550000Y-109613168D01*
X125538970Y-109596660D01*
X125173340Y-109231030D01*
X124743404Y-108943755D01*
X124265684Y-108745878D01*
X123758540Y-108645000D01*
X123241460Y-108645000D01*
X122734316Y-108745878D01*
X122256596Y-108943755D01*
X121826660Y-109231030D01*
X121461030Y-109596660D01*
X121418188Y-109660778D01*
X121400239Y-109651184D01*
X121281492Y-109615163D01*
X121158000Y-109603000D01*
X118699963Y-109603000D01*
X118588021Y-109569043D01*
X118465500Y-109556976D01*
X117187837Y-109556976D01*
X117188524Y-109550000D01*
X117188524Y-108560000D01*
X117176457Y-108437479D01*
X117140719Y-108319666D01*
X117082683Y-108211089D01*
X117004580Y-108115920D01*
X116909411Y-108037817D01*
X116800834Y-107979781D01*
X116683021Y-107944043D01*
X116560500Y-107931976D01*
X116155500Y-107931976D01*
X116032979Y-107944043D01*
X115915166Y-107979781D01*
X115898470Y-107988705D01*
X115754152Y-107892275D01*
X115585813Y-107822547D01*
X115407105Y-107787000D01*
X115224895Y-107787000D01*
X115046187Y-107822547D01*
X114877848Y-107892275D01*
X114726347Y-107993505D01*
X114597505Y-108122347D01*
X114496275Y-108273848D01*
X114426547Y-108442187D01*
X114391000Y-108620895D01*
X114391000Y-108803105D01*
X114426547Y-108981813D01*
X114496275Y-109150152D01*
X114597505Y-109301653D01*
X114726347Y-109430495D01*
X114877848Y-109531725D01*
X115046187Y-109601453D01*
X115053964Y-109603000D01*
X113111963Y-109603000D01*
X113000021Y-109569043D01*
X112877500Y-109556976D01*
X111599837Y-109556976D01*
X111600524Y-109550000D01*
X111600524Y-108560000D01*
X111588457Y-108437479D01*
X111552719Y-108319666D01*
X111494683Y-108211089D01*
X111416580Y-108115920D01*
X111321411Y-108037817D01*
X111212834Y-107979781D01*
X111095021Y-107944043D01*
X110972500Y-107931976D01*
X110567500Y-107931976D01*
X110444979Y-107944043D01*
X110327166Y-107979781D01*
X110310470Y-107988705D01*
X110166152Y-107892275D01*
X109997813Y-107822547D01*
X109819105Y-107787000D01*
X109636895Y-107787000D01*
X109458187Y-107822547D01*
X109289848Y-107892275D01*
X109138347Y-107993505D01*
X109009505Y-108122347D01*
X108908275Y-108273848D01*
X108838547Y-108442187D01*
X108803000Y-108620895D01*
X108803000Y-108803105D01*
X108838547Y-108981813D01*
X108908275Y-109150152D01*
X109009505Y-109301653D01*
X109138347Y-109430495D01*
X109289848Y-109531725D01*
X109458187Y-109601453D01*
X109465964Y-109603000D01*
X105491963Y-109603000D01*
X105380021Y-109569043D01*
X105257500Y-109556976D01*
X103979837Y-109556976D01*
X103980524Y-109550000D01*
X103980524Y-108560000D01*
X103968457Y-108437479D01*
X103932719Y-108319666D01*
X103874683Y-108211089D01*
X103796580Y-108115920D01*
X103701411Y-108037817D01*
X103592834Y-107979781D01*
X103475021Y-107944043D01*
X103352500Y-107931976D01*
X102947500Y-107931976D01*
X102824979Y-107944043D01*
X102707166Y-107979781D01*
X102690470Y-107988705D01*
X102546152Y-107892275D01*
X102377813Y-107822547D01*
X102199105Y-107787000D01*
X102016895Y-107787000D01*
X101838187Y-107822547D01*
X101669848Y-107892275D01*
X101518347Y-107993505D01*
X101389505Y-108122347D01*
X101288275Y-108273848D01*
X101218547Y-108442187D01*
X101183000Y-108620895D01*
X101183000Y-108803105D01*
X101218547Y-108981813D01*
X101288275Y-109150152D01*
X101389505Y-109301653D01*
X101518347Y-109430495D01*
X101669848Y-109531725D01*
X101838187Y-109601453D01*
X101845964Y-109603000D01*
X99903963Y-109603000D01*
X99792021Y-109569043D01*
X99669500Y-109556976D01*
X98391837Y-109556976D01*
X98392524Y-109550000D01*
X98392524Y-108560000D01*
X98380457Y-108437479D01*
X98344719Y-108319666D01*
X98286683Y-108211089D01*
X98208580Y-108115920D01*
X98113411Y-108037817D01*
X98004834Y-107979781D01*
X97887021Y-107944043D01*
X97764500Y-107931976D01*
X97359500Y-107931976D01*
X97236979Y-107944043D01*
X97119166Y-107979781D01*
X97102470Y-107988705D01*
X96958152Y-107892275D01*
X96789813Y-107822547D01*
X96611105Y-107787000D01*
X96428895Y-107787000D01*
X96250187Y-107822547D01*
X96081848Y-107892275D01*
X95930347Y-107993505D01*
X95801505Y-108122347D01*
X95700275Y-108273848D01*
X95630547Y-108442187D01*
X95595000Y-108620895D01*
X95595000Y-108803105D01*
X95630547Y-108981813D01*
X95700275Y-109150152D01*
X95801505Y-109301653D01*
X95930347Y-109430495D01*
X96081848Y-109531725D01*
X96250187Y-109601453D01*
X96257964Y-109603000D01*
X95543206Y-109603000D01*
X95538970Y-109596660D01*
X95173340Y-109231030D01*
X94743404Y-108943755D01*
X94265684Y-108745878D01*
X93758540Y-108645000D01*
X93241460Y-108645000D01*
X92734316Y-108745878D01*
X92256596Y-108943755D01*
X91826660Y-109231030D01*
X91461030Y-109596660D01*
X91173755Y-110026596D01*
X91071575Y-110273283D01*
X84451066Y-106490135D01*
X84364839Y-106447852D01*
X84222269Y-106404603D01*
X84074000Y-106390000D01*
X79475304Y-106390000D01*
X78957000Y-105871696D01*
X78957000Y-105714140D01*
X80898637Y-105714140D01*
X81021053Y-105916275D01*
X81283218Y-106041529D01*
X81564781Y-106113231D01*
X81854922Y-106128625D01*
X82142492Y-106087120D01*
X82416439Y-105990310D01*
X82554947Y-105916275D01*
X82677363Y-105714140D01*
X81788000Y-104824777D01*
X80898637Y-105714140D01*
X78957000Y-105714140D01*
X78957000Y-104714922D01*
X80307375Y-104714922D01*
X80348880Y-105002492D01*
X80445690Y-105276439D01*
X80519725Y-105414947D01*
X80721860Y-105537363D01*
X81611223Y-104648000D01*
X81964777Y-104648000D01*
X82854140Y-105537363D01*
X83056275Y-105414947D01*
X83181529Y-105152782D01*
X83253231Y-104871219D01*
X83268625Y-104581078D01*
X83227120Y-104293508D01*
X83130310Y-104019561D01*
X83056275Y-103881053D01*
X82854140Y-103758637D01*
X81964777Y-104648000D01*
X81611223Y-104648000D01*
X80721860Y-103758637D01*
X80519725Y-103881053D01*
X80394471Y-104143218D01*
X80322769Y-104424781D01*
X80307375Y-104714922D01*
X78957000Y-104714922D01*
X78957000Y-103581860D01*
X80898637Y-103581860D01*
X81788000Y-104471223D01*
X82677363Y-103581860D01*
X82554947Y-103379725D01*
X82292782Y-103254471D01*
X82011219Y-103182769D01*
X81721078Y-103167375D01*
X81433508Y-103208880D01*
X81159561Y-103305690D01*
X81021053Y-103379725D01*
X80898637Y-103581860D01*
X78957000Y-103581860D01*
X78957000Y-101972677D01*
X78978187Y-101981453D01*
X79145411Y-102014716D01*
X79256192Y-102125497D01*
X79278888Y-102153152D01*
X79306543Y-102175848D01*
X79306545Y-102175850D01*
X79389283Y-102243751D01*
X79515232Y-102311073D01*
X79651895Y-102352529D01*
X79758413Y-102363020D01*
X79758423Y-102363020D01*
X79794020Y-102366526D01*
X79829617Y-102363020D01*
X85112102Y-102363020D01*
X85147699Y-102366526D01*
X85183296Y-102363020D01*
X85183306Y-102363020D01*
X85289824Y-102352529D01*
X85426487Y-102311073D01*
X85552436Y-102243751D01*
X85662831Y-102153152D01*
X85685531Y-102125492D01*
X86721024Y-101090000D01*
X119876696Y-101090000D01*
X120489284Y-101702589D01*
G04 #@! TA.AperFunction,Conductor*
D24*
G36*
X120489284Y-101702589D02*
G01*
X120522547Y-101869813D01*
X120592275Y-102038152D01*
X120693505Y-102189653D01*
X120822347Y-102318495D01*
X120973848Y-102419725D01*
X121142187Y-102489453D01*
X121320895Y-102525000D01*
X121503105Y-102525000D01*
X121681813Y-102489453D01*
X121850152Y-102419725D01*
X121920000Y-102373054D01*
X121989848Y-102419725D01*
X122158187Y-102489453D01*
X122336895Y-102525000D01*
X122519105Y-102525000D01*
X122697813Y-102489453D01*
X122866152Y-102419725D01*
X123017653Y-102318495D01*
X123146495Y-102189653D01*
X123247725Y-102038152D01*
X123317453Y-101869813D01*
X123353000Y-101691105D01*
X123353000Y-101508895D01*
X123317453Y-101330187D01*
X123247725Y-101161848D01*
X123199718Y-101090000D01*
X125550000Y-101090000D01*
X125550000Y-109613168D01*
X125538970Y-109596660D01*
X125173340Y-109231030D01*
X124743404Y-108943755D01*
X124265684Y-108745878D01*
X123758540Y-108645000D01*
X123241460Y-108645000D01*
X122734316Y-108745878D01*
X122256596Y-108943755D01*
X121826660Y-109231030D01*
X121461030Y-109596660D01*
X121418188Y-109660778D01*
X121400239Y-109651184D01*
X121281492Y-109615163D01*
X121158000Y-109603000D01*
X118699963Y-109603000D01*
X118588021Y-109569043D01*
X118465500Y-109556976D01*
X117187837Y-109556976D01*
X117188524Y-109550000D01*
X117188524Y-108560000D01*
X117176457Y-108437479D01*
X117140719Y-108319666D01*
X117082683Y-108211089D01*
X117004580Y-108115920D01*
X116909411Y-108037817D01*
X116800834Y-107979781D01*
X116683021Y-107944043D01*
X116560500Y-107931976D01*
X116155500Y-107931976D01*
X116032979Y-107944043D01*
X115915166Y-107979781D01*
X115898470Y-107988705D01*
X115754152Y-107892275D01*
X115585813Y-107822547D01*
X115407105Y-107787000D01*
X115224895Y-107787000D01*
X115046187Y-107822547D01*
X114877848Y-107892275D01*
X114726347Y-107993505D01*
X114597505Y-108122347D01*
X114496275Y-108273848D01*
X114426547Y-108442187D01*
X114391000Y-108620895D01*
X114391000Y-108803105D01*
X114426547Y-108981813D01*
X114496275Y-109150152D01*
X114597505Y-109301653D01*
X114726347Y-109430495D01*
X114877848Y-109531725D01*
X115046187Y-109601453D01*
X115053964Y-109603000D01*
X113111963Y-109603000D01*
X113000021Y-109569043D01*
X112877500Y-109556976D01*
X111599837Y-109556976D01*
X111600524Y-109550000D01*
X111600524Y-108560000D01*
X111588457Y-108437479D01*
X111552719Y-108319666D01*
X111494683Y-108211089D01*
X111416580Y-108115920D01*
X111321411Y-108037817D01*
X111212834Y-107979781D01*
X111095021Y-107944043D01*
X110972500Y-107931976D01*
X110567500Y-107931976D01*
X110444979Y-107944043D01*
X110327166Y-107979781D01*
X110310470Y-107988705D01*
X110166152Y-107892275D01*
X109997813Y-107822547D01*
X109819105Y-107787000D01*
X109636895Y-107787000D01*
X109458187Y-107822547D01*
X109289848Y-107892275D01*
X109138347Y-107993505D01*
X109009505Y-108122347D01*
X108908275Y-108273848D01*
X108838547Y-108442187D01*
X108803000Y-108620895D01*
X108803000Y-108803105D01*
X108838547Y-108981813D01*
X108908275Y-109150152D01*
X109009505Y-109301653D01*
X109138347Y-109430495D01*
X109289848Y-109531725D01*
X109458187Y-109601453D01*
X109465964Y-109603000D01*
X105491963Y-109603000D01*
X105380021Y-109569043D01*
X105257500Y-109556976D01*
X103979837Y-109556976D01*
X103980524Y-109550000D01*
X103980524Y-108560000D01*
X103968457Y-108437479D01*
X103932719Y-108319666D01*
X103874683Y-108211089D01*
X103796580Y-108115920D01*
X103701411Y-108037817D01*
X103592834Y-107979781D01*
X103475021Y-107944043D01*
X103352500Y-107931976D01*
X102947500Y-107931976D01*
X102824979Y-107944043D01*
X102707166Y-107979781D01*
X102690470Y-107988705D01*
X102546152Y-107892275D01*
X102377813Y-107822547D01*
X102199105Y-107787000D01*
X102016895Y-107787000D01*
X101838187Y-107822547D01*
X101669848Y-107892275D01*
X101518347Y-107993505D01*
X101389505Y-108122347D01*
X101288275Y-108273848D01*
X101218547Y-108442187D01*
X101183000Y-108620895D01*
X101183000Y-108803105D01*
X101218547Y-108981813D01*
X101288275Y-109150152D01*
X101389505Y-109301653D01*
X101518347Y-109430495D01*
X101669848Y-109531725D01*
X101838187Y-109601453D01*
X101845964Y-109603000D01*
X99903963Y-109603000D01*
X99792021Y-109569043D01*
X99669500Y-109556976D01*
X98391837Y-109556976D01*
X98392524Y-109550000D01*
X98392524Y-108560000D01*
X98380457Y-108437479D01*
X98344719Y-108319666D01*
X98286683Y-108211089D01*
X98208580Y-108115920D01*
X98113411Y-108037817D01*
X98004834Y-107979781D01*
X97887021Y-107944043D01*
X97764500Y-107931976D01*
X97359500Y-107931976D01*
X97236979Y-107944043D01*
X97119166Y-107979781D01*
X97102470Y-107988705D01*
X96958152Y-107892275D01*
X96789813Y-107822547D01*
X96611105Y-107787000D01*
X96428895Y-107787000D01*
X96250187Y-107822547D01*
X96081848Y-107892275D01*
X95930347Y-107993505D01*
X95801505Y-108122347D01*
X95700275Y-108273848D01*
X95630547Y-108442187D01*
X95595000Y-108620895D01*
X95595000Y-108803105D01*
X95630547Y-108981813D01*
X95700275Y-109150152D01*
X95801505Y-109301653D01*
X95930347Y-109430495D01*
X96081848Y-109531725D01*
X96250187Y-109601453D01*
X96257964Y-109603000D01*
X95543206Y-109603000D01*
X95538970Y-109596660D01*
X95173340Y-109231030D01*
X94743404Y-108943755D01*
X94265684Y-108745878D01*
X93758540Y-108645000D01*
X93241460Y-108645000D01*
X92734316Y-108745878D01*
X92256596Y-108943755D01*
X91826660Y-109231030D01*
X91461030Y-109596660D01*
X91173755Y-110026596D01*
X91071575Y-110273283D01*
X84451066Y-106490135D01*
X84364839Y-106447852D01*
X84222269Y-106404603D01*
X84074000Y-106390000D01*
X79475304Y-106390000D01*
X78957000Y-105871696D01*
X78957000Y-105714140D01*
X80898637Y-105714140D01*
X81021053Y-105916275D01*
X81283218Y-106041529D01*
X81564781Y-106113231D01*
X81854922Y-106128625D01*
X82142492Y-106087120D01*
X82416439Y-105990310D01*
X82554947Y-105916275D01*
X82677363Y-105714140D01*
X81788000Y-104824777D01*
X80898637Y-105714140D01*
X78957000Y-105714140D01*
X78957000Y-104714922D01*
X80307375Y-104714922D01*
X80348880Y-105002492D01*
X80445690Y-105276439D01*
X80519725Y-105414947D01*
X80721860Y-105537363D01*
X81611223Y-104648000D01*
X81964777Y-104648000D01*
X82854140Y-105537363D01*
X83056275Y-105414947D01*
X83181529Y-105152782D01*
X83253231Y-104871219D01*
X83268625Y-104581078D01*
X83227120Y-104293508D01*
X83130310Y-104019561D01*
X83056275Y-103881053D01*
X82854140Y-103758637D01*
X81964777Y-104648000D01*
X81611223Y-104648000D01*
X80721860Y-103758637D01*
X80519725Y-103881053D01*
X80394471Y-104143218D01*
X80322769Y-104424781D01*
X80307375Y-104714922D01*
X78957000Y-104714922D01*
X78957000Y-103581860D01*
X80898637Y-103581860D01*
X81788000Y-104471223D01*
X82677363Y-103581860D01*
X82554947Y-103379725D01*
X82292782Y-103254471D01*
X82011219Y-103182769D01*
X81721078Y-103167375D01*
X81433508Y-103208880D01*
X81159561Y-103305690D01*
X81021053Y-103379725D01*
X80898637Y-103581860D01*
X78957000Y-103581860D01*
X78957000Y-101972677D01*
X78978187Y-101981453D01*
X79145411Y-102014716D01*
X79256192Y-102125497D01*
X79278888Y-102153152D01*
X79306543Y-102175848D01*
X79306545Y-102175850D01*
X79389283Y-102243751D01*
X79515232Y-102311073D01*
X79651895Y-102352529D01*
X79758413Y-102363020D01*
X79758423Y-102363020D01*
X79794020Y-102366526D01*
X79829617Y-102363020D01*
X85112102Y-102363020D01*
X85147699Y-102366526D01*
X85183296Y-102363020D01*
X85183306Y-102363020D01*
X85289824Y-102352529D01*
X85426487Y-102311073D01*
X85552436Y-102243751D01*
X85662831Y-102153152D01*
X85685531Y-102125492D01*
X86721024Y-101090000D01*
X119876696Y-101090000D01*
X120489284Y-101702589D01*
G37*
G04 #@! TD.AperFunction*
D23*
X121031000Y-110366011D02*
X120973954Y-110503732D01*
X120873000Y-111011263D01*
X120873000Y-111528737D01*
X120973954Y-112036268D01*
X121031000Y-112173989D01*
X121031000Y-125540000D01*
X108077000Y-125540000D01*
X108077000Y-122087386D01*
X109669115Y-122087386D01*
X109795588Y-122329362D01*
X110119195Y-122434276D01*
X110457052Y-122474043D01*
X110796176Y-122447132D01*
X111123532Y-122354579D01*
X111184412Y-122329362D01*
X111310885Y-122087386D01*
X110490000Y-121266502D01*
X109669115Y-122087386D01*
X108077000Y-122087386D01*
X108077000Y-120706052D01*
X108754957Y-120706052D01*
X108781868Y-121045176D01*
X108874421Y-121372532D01*
X108899638Y-121433412D01*
X109141614Y-121559885D01*
X109962498Y-120739000D01*
X111017502Y-120739000D01*
X111838386Y-121559885D01*
X112080362Y-121433412D01*
X112185276Y-121109805D01*
X112225043Y-120771948D01*
X112198132Y-120432824D01*
X112105579Y-120105468D01*
X112080362Y-120044588D01*
X111838386Y-119918115D01*
X111017502Y-120739000D01*
X109962498Y-120739000D01*
X109141614Y-119918115D01*
X108899638Y-120044588D01*
X108794724Y-120368195D01*
X108754957Y-120706052D01*
X108077000Y-120706052D01*
X108077000Y-119390614D01*
X109669115Y-119390614D01*
X110490000Y-120211498D01*
X111310885Y-119390614D01*
X111184412Y-119148638D01*
X110860805Y-119043724D01*
X110522948Y-119003957D01*
X110183824Y-119030868D01*
X109856468Y-119123421D01*
X109795588Y-119148638D01*
X109669115Y-119390614D01*
X108077000Y-119390614D01*
X108077000Y-110363000D01*
X121031000Y-110363000D01*
X121031000Y-110366011D01*
G04 #@! TA.AperFunction,Conductor*
D24*
G36*
X121031000Y-110366011D02*
G01*
X120973954Y-110503732D01*
X120873000Y-111011263D01*
X120873000Y-111528737D01*
X120973954Y-112036268D01*
X121031000Y-112173989D01*
X121031000Y-125540000D01*
X108077000Y-125540000D01*
X108077000Y-122087386D01*
X109669115Y-122087386D01*
X109795588Y-122329362D01*
X110119195Y-122434276D01*
X110457052Y-122474043D01*
X110796176Y-122447132D01*
X111123532Y-122354579D01*
X111184412Y-122329362D01*
X111310885Y-122087386D01*
X110490000Y-121266502D01*
X109669115Y-122087386D01*
X108077000Y-122087386D01*
X108077000Y-120706052D01*
X108754957Y-120706052D01*
X108781868Y-121045176D01*
X108874421Y-121372532D01*
X108899638Y-121433412D01*
X109141614Y-121559885D01*
X109962498Y-120739000D01*
X111017502Y-120739000D01*
X111838386Y-121559885D01*
X112080362Y-121433412D01*
X112185276Y-121109805D01*
X112225043Y-120771948D01*
X112198132Y-120432824D01*
X112105579Y-120105468D01*
X112080362Y-120044588D01*
X111838386Y-119918115D01*
X111017502Y-120739000D01*
X109962498Y-120739000D01*
X109141614Y-119918115D01*
X108899638Y-120044588D01*
X108794724Y-120368195D01*
X108754957Y-120706052D01*
X108077000Y-120706052D01*
X108077000Y-119390614D01*
X109669115Y-119390614D01*
X110490000Y-120211498D01*
X111310885Y-119390614D01*
X111184412Y-119148638D01*
X110860805Y-119043724D01*
X110522948Y-119003957D01*
X110183824Y-119030868D01*
X109856468Y-119123421D01*
X109795588Y-119148638D01*
X109669115Y-119390614D01*
X108077000Y-119390614D01*
X108077000Y-110363000D01*
X121031000Y-110363000D01*
X121031000Y-110366011D01*
G37*
G04 #@! TD.AperFunction*
D25*
X84749309Y-93679411D02*
X84632925Y-93774925D01*
X84537411Y-93891309D01*
X84466438Y-94024090D01*
X84422733Y-94168166D01*
X84407976Y-94318000D01*
X84407976Y-94658000D01*
X84422733Y-94807834D01*
X84466438Y-94951910D01*
X84537411Y-95084691D01*
X84563086Y-95115976D01*
X84362000Y-95115976D01*
X84239479Y-95128043D01*
X84121666Y-95163781D01*
X84013089Y-95221817D01*
X83917920Y-95299920D01*
X83839817Y-95395089D01*
X83781781Y-95503666D01*
X83746043Y-95621479D01*
X83733976Y-95744000D01*
X83733976Y-97044000D01*
X83746043Y-97166521D01*
X83781781Y-97284334D01*
X83839817Y-97392911D01*
X83917920Y-97488080D01*
X84013089Y-97566183D01*
X84121666Y-97624219D01*
X84239479Y-97659957D01*
X84362000Y-97672024D01*
X84965000Y-97672024D01*
X84965000Y-99664018D01*
X84516018Y-100113000D01*
X81872305Y-100113000D01*
X81751000Y-99991696D01*
X81751000Y-97672024D01*
X82262000Y-97672024D01*
X82384521Y-97659957D01*
X82502334Y-97624219D01*
X82610911Y-97566183D01*
X82706080Y-97488080D01*
X82784183Y-97392911D01*
X82842219Y-97284334D01*
X82877957Y-97166521D01*
X82890024Y-97044000D01*
X82890024Y-95744000D01*
X82877957Y-95621479D01*
X82842219Y-95503666D01*
X82784183Y-95395089D01*
X82706080Y-95299920D01*
X82610911Y-95221817D01*
X82502334Y-95163781D01*
X82384521Y-95128043D01*
X82308509Y-95120557D01*
X82349179Y-95087179D01*
X82455264Y-94957915D01*
X82534091Y-94810438D01*
X82582633Y-94650417D01*
X82599024Y-94484000D01*
X82599024Y-93984000D01*
X82582633Y-93817583D01*
X82534091Y-93657562D01*
X82530584Y-93651000D01*
X84802462Y-93651000D01*
X84749309Y-93679411D01*
G04 #@! TA.AperFunction,Conductor*
D24*
G36*
X84749309Y-93679411D02*
G01*
X84632925Y-93774925D01*
X84537411Y-93891309D01*
X84466438Y-94024090D01*
X84422733Y-94168166D01*
X84407976Y-94318000D01*
X84407976Y-94658000D01*
X84422733Y-94807834D01*
X84466438Y-94951910D01*
X84537411Y-95084691D01*
X84563086Y-95115976D01*
X84362000Y-95115976D01*
X84239479Y-95128043D01*
X84121666Y-95163781D01*
X84013089Y-95221817D01*
X83917920Y-95299920D01*
X83839817Y-95395089D01*
X83781781Y-95503666D01*
X83746043Y-95621479D01*
X83733976Y-95744000D01*
X83733976Y-97044000D01*
X83746043Y-97166521D01*
X83781781Y-97284334D01*
X83839817Y-97392911D01*
X83917920Y-97488080D01*
X84013089Y-97566183D01*
X84121666Y-97624219D01*
X84239479Y-97659957D01*
X84362000Y-97672024D01*
X84965000Y-97672024D01*
X84965000Y-99664018D01*
X84516018Y-100113000D01*
X81872305Y-100113000D01*
X81751000Y-99991696D01*
X81751000Y-97672024D01*
X82262000Y-97672024D01*
X82384521Y-97659957D01*
X82502334Y-97624219D01*
X82610911Y-97566183D01*
X82706080Y-97488080D01*
X82784183Y-97392911D01*
X82842219Y-97284334D01*
X82877957Y-97166521D01*
X82890024Y-97044000D01*
X82890024Y-95744000D01*
X82877957Y-95621479D01*
X82842219Y-95503666D01*
X82784183Y-95395089D01*
X82706080Y-95299920D01*
X82610911Y-95221817D01*
X82502334Y-95163781D01*
X82384521Y-95128043D01*
X82308509Y-95120557D01*
X82349179Y-95087179D01*
X82455264Y-94957915D01*
X82534091Y-94810438D01*
X82582633Y-94650417D01*
X82599024Y-94484000D01*
X82599024Y-93984000D01*
X82582633Y-93817583D01*
X82534091Y-93657562D01*
X82530584Y-93651000D01*
X84802462Y-93651000D01*
X84749309Y-93679411D01*
G37*
G04 #@! TD.AperFunction*
D23*
X90873000Y-111181415D02*
X90873000Y-111528737D01*
X90973954Y-112036268D01*
X91171983Y-112514351D01*
X91459476Y-112944615D01*
X91825385Y-113310524D01*
X92255649Y-113598017D01*
X92733732Y-113796046D01*
X93241263Y-113897000D01*
X93758737Y-113897000D01*
X93980000Y-113852988D01*
X93980000Y-125413000D01*
X78738491Y-125413000D01*
X78368007Y-125376674D01*
X78048667Y-125280259D01*
X77754127Y-125123649D01*
X77495621Y-124912817D01*
X77282986Y-124655785D01*
X77124327Y-124362351D01*
X77025685Y-124043690D01*
X76987000Y-123675625D01*
X76987000Y-122841609D01*
X77513000Y-122841609D01*
X77513000Y-123208391D01*
X77584556Y-123568125D01*
X77724917Y-123906988D01*
X77928690Y-124211956D01*
X78188044Y-124471310D01*
X78493012Y-124675083D01*
X78831875Y-124815444D01*
X79191609Y-124887000D01*
X79558391Y-124887000D01*
X79918125Y-124815444D01*
X80256988Y-124675083D01*
X80561956Y-124471310D01*
X80821310Y-124211956D01*
X81025083Y-123906988D01*
X81165444Y-123568125D01*
X81237000Y-123208391D01*
X81237000Y-122841609D01*
X81165444Y-122481875D01*
X81025083Y-122143012D01*
X80893252Y-121945712D01*
X85967893Y-121945712D01*
X86075726Y-122220338D01*
X86382384Y-122371216D01*
X86712585Y-122459369D01*
X87053639Y-122481409D01*
X87392439Y-122436489D01*
X87715966Y-122326336D01*
X87914274Y-122220338D01*
X88022107Y-121945712D01*
X91047893Y-121945712D01*
X91155726Y-122220338D01*
X91462384Y-122371216D01*
X91792585Y-122459369D01*
X92133639Y-122481409D01*
X92472439Y-122436489D01*
X92795966Y-122326336D01*
X92994274Y-122220338D01*
X93102107Y-121945712D01*
X92075000Y-120918605D01*
X91047893Y-121945712D01*
X88022107Y-121945712D01*
X86995000Y-120918605D01*
X85967893Y-121945712D01*
X80893252Y-121945712D01*
X80821310Y-121838044D01*
X80561956Y-121578690D01*
X80256988Y-121374917D01*
X79918125Y-121234556D01*
X79558391Y-121163000D01*
X79191609Y-121163000D01*
X78831875Y-121234556D01*
X78493012Y-121374917D01*
X78188044Y-121578690D01*
X77928690Y-121838044D01*
X77724917Y-122143012D01*
X77584556Y-122481875D01*
X77513000Y-122841609D01*
X76987000Y-122841609D01*
X76987000Y-120797639D01*
X85252591Y-120797639D01*
X85297511Y-121136439D01*
X85407664Y-121459966D01*
X85513662Y-121658274D01*
X85788288Y-121766107D01*
X86815395Y-120739000D01*
X87174605Y-120739000D01*
X88201712Y-121766107D01*
X88476338Y-121658274D01*
X88627216Y-121351616D01*
X88715369Y-121021415D01*
X88729830Y-120797639D01*
X90332591Y-120797639D01*
X90377511Y-121136439D01*
X90487664Y-121459966D01*
X90593662Y-121658274D01*
X90868288Y-121766107D01*
X91895395Y-120739000D01*
X92254605Y-120739000D01*
X93281712Y-121766107D01*
X93556338Y-121658274D01*
X93707216Y-121351616D01*
X93795369Y-121021415D01*
X93817409Y-120680361D01*
X93772489Y-120341561D01*
X93662336Y-120018034D01*
X93556338Y-119819726D01*
X93281712Y-119711893D01*
X92254605Y-120739000D01*
X91895395Y-120739000D01*
X90868288Y-119711893D01*
X90593662Y-119819726D01*
X90442784Y-120126384D01*
X90354631Y-120456585D01*
X90332591Y-120797639D01*
X88729830Y-120797639D01*
X88737409Y-120680361D01*
X88692489Y-120341561D01*
X88582336Y-120018034D01*
X88476338Y-119819726D01*
X88201712Y-119711893D01*
X87174605Y-120739000D01*
X86815395Y-120739000D01*
X85788288Y-119711893D01*
X85513662Y-119819726D01*
X85362784Y-120126384D01*
X85274631Y-120456585D01*
X85252591Y-120797639D01*
X76987000Y-120797639D01*
X76987000Y-119532288D01*
X85967893Y-119532288D01*
X86995000Y-120559395D01*
X88022107Y-119532288D01*
X91047893Y-119532288D01*
X92075000Y-120559395D01*
X93102107Y-119532288D01*
X92994274Y-119257662D01*
X92687616Y-119106784D01*
X92357415Y-119018631D01*
X92016361Y-118996591D01*
X91677561Y-119041511D01*
X91354034Y-119151664D01*
X91155726Y-119257662D01*
X91047893Y-119532288D01*
X88022107Y-119532288D01*
X87914274Y-119257662D01*
X87607616Y-119106784D01*
X87277415Y-119018631D01*
X86936361Y-118996591D01*
X86597561Y-119041511D01*
X86274034Y-119151664D01*
X86075726Y-119257662D01*
X85967893Y-119532288D01*
X76987000Y-119532288D01*
X76987000Y-117813219D01*
X79307000Y-117813219D01*
X79307000Y-118076781D01*
X79358419Y-118335280D01*
X79459280Y-118578781D01*
X79605708Y-118797925D01*
X79792075Y-118984292D01*
X80011219Y-119130720D01*
X80254720Y-119231581D01*
X80513219Y-119283000D01*
X80776781Y-119283000D01*
X81035280Y-119231581D01*
X81278781Y-119130720D01*
X81497925Y-118984292D01*
X81684292Y-118797925D01*
X81830720Y-118578781D01*
X81931581Y-118335280D01*
X81983000Y-118076781D01*
X81983000Y-117813219D01*
X81931581Y-117554720D01*
X81830720Y-117311219D01*
X81684292Y-117092075D01*
X81497925Y-116905708D01*
X81278781Y-116759280D01*
X81035280Y-116658419D01*
X80776781Y-116607000D01*
X80513219Y-116607000D01*
X80254720Y-116658419D01*
X80011219Y-116759280D01*
X79792075Y-116905708D01*
X79605708Y-117092075D01*
X79459280Y-117311219D01*
X79358419Y-117554720D01*
X79307000Y-117813219D01*
X76987000Y-117813219D01*
X76987000Y-110934712D01*
X80760893Y-110934712D01*
X80868726Y-111209338D01*
X81175384Y-111360216D01*
X81505585Y-111448369D01*
X81846639Y-111470409D01*
X82185439Y-111425489D01*
X82508966Y-111315336D01*
X82707274Y-111209338D01*
X82815107Y-110934712D01*
X81788000Y-109907605D01*
X80760893Y-110934712D01*
X76987000Y-110934712D01*
X76987000Y-109786639D01*
X80045591Y-109786639D01*
X80090511Y-110125439D01*
X80200664Y-110448966D01*
X80306662Y-110647274D01*
X80581288Y-110755107D01*
X81608395Y-109728000D01*
X81967605Y-109728000D01*
X82994712Y-110755107D01*
X83269338Y-110647274D01*
X83420216Y-110340616D01*
X83508369Y-110010415D01*
X83530409Y-109669361D01*
X83485489Y-109330561D01*
X83375336Y-109007034D01*
X83269338Y-108808726D01*
X82994712Y-108700893D01*
X81967605Y-109728000D01*
X81608395Y-109728000D01*
X80581288Y-108700893D01*
X80306662Y-108808726D01*
X80155784Y-109115384D01*
X80067631Y-109445585D01*
X80045591Y-109786639D01*
X76987000Y-109786639D01*
X76987000Y-108521288D01*
X80760893Y-108521288D01*
X81788000Y-109548395D01*
X82815107Y-108521288D01*
X82707274Y-108246662D01*
X82400616Y-108095784D01*
X82070415Y-108007631D01*
X81729361Y-107985591D01*
X81390561Y-108030511D01*
X81067034Y-108140664D01*
X80868726Y-108246662D01*
X80760893Y-108521288D01*
X76987000Y-108521288D01*
X76987000Y-107277000D01*
X84040273Y-107277000D01*
X90873000Y-111181415D01*
G04 #@! TA.AperFunction,Conductor*
D24*
G36*
X90873000Y-111181415D02*
G01*
X90873000Y-111528737D01*
X90973954Y-112036268D01*
X91171983Y-112514351D01*
X91459476Y-112944615D01*
X91825385Y-113310524D01*
X92255649Y-113598017D01*
X92733732Y-113796046D01*
X93241263Y-113897000D01*
X93758737Y-113897000D01*
X93980000Y-113852988D01*
X93980000Y-125413000D01*
X78738491Y-125413000D01*
X78368007Y-125376674D01*
X78048667Y-125280259D01*
X77754127Y-125123649D01*
X77495621Y-124912817D01*
X77282986Y-124655785D01*
X77124327Y-124362351D01*
X77025685Y-124043690D01*
X76987000Y-123675625D01*
X76987000Y-122841609D01*
X77513000Y-122841609D01*
X77513000Y-123208391D01*
X77584556Y-123568125D01*
X77724917Y-123906988D01*
X77928690Y-124211956D01*
X78188044Y-124471310D01*
X78493012Y-124675083D01*
X78831875Y-124815444D01*
X79191609Y-124887000D01*
X79558391Y-124887000D01*
X79918125Y-124815444D01*
X80256988Y-124675083D01*
X80561956Y-124471310D01*
X80821310Y-124211956D01*
X81025083Y-123906988D01*
X81165444Y-123568125D01*
X81237000Y-123208391D01*
X81237000Y-122841609D01*
X81165444Y-122481875D01*
X81025083Y-122143012D01*
X80893252Y-121945712D01*
X85967893Y-121945712D01*
X86075726Y-122220338D01*
X86382384Y-122371216D01*
X86712585Y-122459369D01*
X87053639Y-122481409D01*
X87392439Y-122436489D01*
X87715966Y-122326336D01*
X87914274Y-122220338D01*
X88022107Y-121945712D01*
X91047893Y-121945712D01*
X91155726Y-122220338D01*
X91462384Y-122371216D01*
X91792585Y-122459369D01*
X92133639Y-122481409D01*
X92472439Y-122436489D01*
X92795966Y-122326336D01*
X92994274Y-122220338D01*
X93102107Y-121945712D01*
X92075000Y-120918605D01*
X91047893Y-121945712D01*
X88022107Y-121945712D01*
X86995000Y-120918605D01*
X85967893Y-121945712D01*
X80893252Y-121945712D01*
X80821310Y-121838044D01*
X80561956Y-121578690D01*
X80256988Y-121374917D01*
X79918125Y-121234556D01*
X79558391Y-121163000D01*
X79191609Y-121163000D01*
X78831875Y-121234556D01*
X78493012Y-121374917D01*
X78188044Y-121578690D01*
X77928690Y-121838044D01*
X77724917Y-122143012D01*
X77584556Y-122481875D01*
X77513000Y-122841609D01*
X76987000Y-122841609D01*
X76987000Y-120797639D01*
X85252591Y-120797639D01*
X85297511Y-121136439D01*
X85407664Y-121459966D01*
X85513662Y-121658274D01*
X85788288Y-121766107D01*
X86815395Y-120739000D01*
X87174605Y-120739000D01*
X88201712Y-121766107D01*
X88476338Y-121658274D01*
X88627216Y-121351616D01*
X88715369Y-121021415D01*
X88729830Y-120797639D01*
X90332591Y-120797639D01*
X90377511Y-121136439D01*
X90487664Y-121459966D01*
X90593662Y-121658274D01*
X90868288Y-121766107D01*
X91895395Y-120739000D01*
X92254605Y-120739000D01*
X93281712Y-121766107D01*
X93556338Y-121658274D01*
X93707216Y-121351616D01*
X93795369Y-121021415D01*
X93817409Y-120680361D01*
X93772489Y-120341561D01*
X93662336Y-120018034D01*
X93556338Y-119819726D01*
X93281712Y-119711893D01*
X92254605Y-120739000D01*
X91895395Y-120739000D01*
X90868288Y-119711893D01*
X90593662Y-119819726D01*
X90442784Y-120126384D01*
X90354631Y-120456585D01*
X90332591Y-120797639D01*
X88729830Y-120797639D01*
X88737409Y-120680361D01*
X88692489Y-120341561D01*
X88582336Y-120018034D01*
X88476338Y-119819726D01*
X88201712Y-119711893D01*
X87174605Y-120739000D01*
X86815395Y-120739000D01*
X85788288Y-119711893D01*
X85513662Y-119819726D01*
X85362784Y-120126384D01*
X85274631Y-120456585D01*
X85252591Y-120797639D01*
X76987000Y-120797639D01*
X76987000Y-119532288D01*
X85967893Y-119532288D01*
X86995000Y-120559395D01*
X88022107Y-119532288D01*
X91047893Y-119532288D01*
X92075000Y-120559395D01*
X93102107Y-119532288D01*
X92994274Y-119257662D01*
X92687616Y-119106784D01*
X92357415Y-119018631D01*
X92016361Y-118996591D01*
X91677561Y-119041511D01*
X91354034Y-119151664D01*
X91155726Y-119257662D01*
X91047893Y-119532288D01*
X88022107Y-119532288D01*
X87914274Y-119257662D01*
X87607616Y-119106784D01*
X87277415Y-119018631D01*
X86936361Y-118996591D01*
X86597561Y-119041511D01*
X86274034Y-119151664D01*
X86075726Y-119257662D01*
X85967893Y-119532288D01*
X76987000Y-119532288D01*
X76987000Y-117813219D01*
X79307000Y-117813219D01*
X79307000Y-118076781D01*
X79358419Y-118335280D01*
X79459280Y-118578781D01*
X79605708Y-118797925D01*
X79792075Y-118984292D01*
X80011219Y-119130720D01*
X80254720Y-119231581D01*
X80513219Y-119283000D01*
X80776781Y-119283000D01*
X81035280Y-119231581D01*
X81278781Y-119130720D01*
X81497925Y-118984292D01*
X81684292Y-118797925D01*
X81830720Y-118578781D01*
X81931581Y-118335280D01*
X81983000Y-118076781D01*
X81983000Y-117813219D01*
X81931581Y-117554720D01*
X81830720Y-117311219D01*
X81684292Y-117092075D01*
X81497925Y-116905708D01*
X81278781Y-116759280D01*
X81035280Y-116658419D01*
X80776781Y-116607000D01*
X80513219Y-116607000D01*
X80254720Y-116658419D01*
X80011219Y-116759280D01*
X79792075Y-116905708D01*
X79605708Y-117092075D01*
X79459280Y-117311219D01*
X79358419Y-117554720D01*
X79307000Y-117813219D01*
X76987000Y-117813219D01*
X76987000Y-110934712D01*
X80760893Y-110934712D01*
X80868726Y-111209338D01*
X81175384Y-111360216D01*
X81505585Y-111448369D01*
X81846639Y-111470409D01*
X82185439Y-111425489D01*
X82508966Y-111315336D01*
X82707274Y-111209338D01*
X82815107Y-110934712D01*
X81788000Y-109907605D01*
X80760893Y-110934712D01*
X76987000Y-110934712D01*
X76987000Y-109786639D01*
X80045591Y-109786639D01*
X80090511Y-110125439D01*
X80200664Y-110448966D01*
X80306662Y-110647274D01*
X80581288Y-110755107D01*
X81608395Y-109728000D01*
X81967605Y-109728000D01*
X82994712Y-110755107D01*
X83269338Y-110647274D01*
X83420216Y-110340616D01*
X83508369Y-110010415D01*
X83530409Y-109669361D01*
X83485489Y-109330561D01*
X83375336Y-109007034D01*
X83269338Y-108808726D01*
X82994712Y-108700893D01*
X81967605Y-109728000D01*
X81608395Y-109728000D01*
X80581288Y-108700893D01*
X80306662Y-108808726D01*
X80155784Y-109115384D01*
X80067631Y-109445585D01*
X80045591Y-109786639D01*
X76987000Y-109786639D01*
X76987000Y-108521288D01*
X80760893Y-108521288D01*
X81788000Y-109548395D01*
X82815107Y-108521288D01*
X82707274Y-108246662D01*
X82400616Y-108095784D01*
X82070415Y-108007631D01*
X81729361Y-107985591D01*
X81390561Y-108030511D01*
X81067034Y-108140664D01*
X80868726Y-108246662D01*
X80760893Y-108521288D01*
X76987000Y-108521288D01*
X76987000Y-107277000D01*
X84040273Y-107277000D01*
X90873000Y-111181415D01*
G37*
G04 #@! TD.AperFunction*
M02*
