M48
; DRILL file {KiCad 5.1.10} date Wed Dec 29 02:33:03 2021
; FORMAT={-:-/ absolute / metric / decimal}
; #@! TF.CreationDate,2021-12-29T02:33:03+02:00
; #@! TF.GenerationSoftware,Kicad,Pcbnew,5.1.10
; #@! TF.FileFunction,Plated,1,4,PTH
FMAT,2
METRIC
T1C0.300
T2C1.000
T3C1.100
T4C1.200
T5C2.100
%
G90
G05
T1
X78.994Y-87.884
X79.086Y-90.005
X79.086Y-90.978
X79.375Y-98.895
X79.375Y-100.165
X79.375Y-101.435
X79.375Y-102.705
X79.375Y-103.975
X79.375Y-105.245
X79.375Y-106.515
X79.375Y-107.785
X79.375Y-109.055
X79.375Y-110.325
X79.375Y-111.595
X79.375Y-112.865
X79.375Y-114.135
X79.375Y-115.405
X79.375Y-116.675
X79.375Y-117.945
X80.645Y-98.895
X80.645Y-100.165
X80.645Y-101.435
X80.645Y-102.705
X80.645Y-103.975
X80.645Y-105.245
X80.645Y-106.515
X80.645Y-107.785
X80.645Y-109.055
X80.645Y-110.325
X80.645Y-111.595
X80.645Y-112.865
X80.645Y-114.135
X80.645Y-115.405
X80.645Y-116.675
X80.645Y-117.945
X81.915Y-115.405
X81.915Y-116.675
X81.915Y-117.945
X82.55Y-96.646
X83.82Y-110.325
X83.82Y-111.595
X84.455Y-124.295
X85.09Y-110.325
X85.09Y-111.595
X85.09Y-114.135
X85.09Y-115.405
X85.09Y-116.675
X85.344Y-87.122
X85.344Y-88.392
X85.725Y-124.295
X86.106Y-85.598
X86.36Y-110.325
X86.36Y-111.595
X86.36Y-114.135
X86.36Y-115.405
X86.36Y-116.675
X86.706Y-87.122
X86.995Y-124.295
X87.63Y-107.785
X87.63Y-109.055
X87.63Y-110.325
X87.63Y-111.595
X87.63Y-114.135
X87.63Y-115.405
X87.63Y-116.675
X88.265Y-124.295
X88.9Y-107.785
X88.9Y-109.055
X88.9Y-110.325
X88.9Y-111.595
X88.9Y-112.865
X88.9Y-114.135
X88.9Y-115.405
X88.9Y-116.675
X89.535Y-124.295
X89.662Y-96.646
X90.17Y-88.392
X90.17Y-100.8
X90.17Y-102.07
X90.17Y-103.34
X90.17Y-104.61
X90.17Y-107.785
X90.17Y-109.055
X90.17Y-110.325
X90.17Y-111.595
X90.17Y-112.865
X90.17Y-114.135
X90.17Y-115.405
X90.17Y-116.675
X90.805Y-124.295
X90.932Y-85.09
X91.44Y-100.8
X91.44Y-102.07
X91.44Y-103.34
X91.44Y-104.61
X91.44Y-112.865
X91.44Y-114.135
X91.44Y-115.405
X91.44Y-116.675
X92.075Y-124.295
X92.71Y-100.8
X92.71Y-102.07
X92.71Y-103.34
X92.71Y-104.61
X92.71Y-105.88
X92.71Y-112.865
X92.71Y-114.135
X92.71Y-115.405
X92.71Y-116.675
X93.345Y-124.295
X93.98Y-100.8
X93.98Y-102.07
X93.98Y-103.34
X93.98Y-104.61
X93.98Y-105.88
X93.98Y-112.865
X93.98Y-114.135
X93.98Y-115.405
X93.98Y-116.675
X94.615Y-124.295
X94.751Y-92.211
X95.25Y-100.8
X95.25Y-102.07
X95.25Y-103.34
X95.25Y-104.61
X95.25Y-105.88
X95.885Y-124.295
X96.012Y-85.09
X96.036Y-85.914
X96.047Y-86.752
X96.52Y-96.99
X96.52Y-98.26
X96.52Y-99.53
X96.52Y-100.8
X96.52Y-102.07
X96.52Y-103.34
X96.52Y-104.61
X96.52Y-105.88
X96.52Y-107.15
X96.774Y-92.71
X96.774Y-93.98
X97.155Y-124.295
X97.79Y-96.99
X97.79Y-98.26
X97.79Y-99.53
X97.79Y-100.8
X97.79Y-102.07
X97.79Y-103.34
X97.79Y-104.61
X98.298Y-88.646
X98.425Y-124.295
X98.933Y-114.135
X98.933Y-115.405
X98.933Y-116.675
X98.933Y-117.945
X98.933Y-119.215
X99.06Y-96.99
X99.06Y-98.26
X99.06Y-102.07
X99.06Y-103.34
X99.06Y-104.61
X99.695Y-124.295
X100.203Y-114.135
X100.203Y-115.405
X100.203Y-116.675
X100.203Y-117.945
X100.203Y-119.215
X100.297Y-86.751
X100.309Y-85.915
X100.33Y-85.09
X100.33Y-96.99
X100.33Y-98.26
X100.33Y-102.07
X100.33Y-103.34
X100.33Y-104.61
X100.965Y-124.295
X101.473Y-114.135
X101.473Y-115.405
X101.473Y-116.675
X101.473Y-117.945
X101.473Y-119.215
X101.579Y-84.814
X101.6Y-86.106
X101.6Y-87.348
X101.6Y-96.99
X101.6Y-98.26
X101.6Y-102.07
X101.6Y-103.34
X101.6Y-104.61
X102.235Y-124.295
X102.743Y-114.135
X102.743Y-115.405
X102.743Y-116.675
X102.743Y-117.945
X102.743Y-119.215
X102.87Y-93.434
X102.87Y-102.07
X102.87Y-103.34
X102.87Y-104.61
X103.505Y-124.295
X104.013Y-114.135
X104.013Y-115.405
X104.013Y-116.675
X104.14Y-102.07
X104.14Y-103.34
X104.14Y-104.61
X104.775Y-124.295
X104.902Y-99.149
X105.283Y-114.135
X105.283Y-115.405
X105.283Y-116.675
X105.41Y-102.07
X105.41Y-103.34
X105.41Y-104.61
X105.918Y-94.704
X105.918Y-99.276
X106.045Y-124.295
X106.553Y-114.135
X106.553Y-115.405
X106.553Y-116.675
X106.68Y-102.07
X106.68Y-103.34
X106.68Y-104.61
X106.827Y-93.795
X107.315Y-124.295
X107.823Y-114.135
X107.823Y-115.405
X107.823Y-116.675
X107.95Y-102.07
X107.95Y-103.34
X107.95Y-104.61
X108.585Y-124.295
X108.712Y-93.815
X108.712Y-94.704
X109.22Y-102.07
X109.22Y-103.34
X109.22Y-104.61
X109.855Y-124.295
X110.49Y-102.07
X110.49Y-103.34
X110.49Y-104.61
X110.617Y-114.135
X110.617Y-115.405
X110.617Y-116.675
X111.125Y-124.295
X111.76Y-102.07
X111.76Y-103.34
X111.76Y-104.61
X111.887Y-114.135
X111.887Y-115.405
X111.887Y-116.675
X112.395Y-124.295
X113.03Y-102.07
X113.03Y-103.34
X113.03Y-104.61
X113.157Y-114.135
X113.157Y-115.405
X113.157Y-116.675
X113.665Y-124.295
X114.3Y-102.07
X114.3Y-103.34
X114.3Y-104.61
X114.427Y-114.135
X114.427Y-115.405
X114.427Y-116.675
X114.935Y-124.295
X115.316Y-99.149
X115.57Y-102.07
X115.57Y-103.34
X115.57Y-104.61
X115.697Y-114.135
X115.697Y-115.405
X115.697Y-116.675
X115.697Y-117.945
X115.697Y-119.215
X116.196Y-93.824
X116.205Y-124.295
X116.332Y-94.704
X116.332Y-99.276
X116.84Y-102.07
X116.84Y-103.34
X116.84Y-104.61
X116.967Y-114.135
X116.967Y-115.405
X116.967Y-116.675
X116.967Y-117.945
X116.967Y-119.215
X117.475Y-124.295
X117.983Y-93.815
X118.11Y-102.07
X118.11Y-103.34
X118.11Y-104.61
X118.237Y-114.135
X118.237Y-115.405
X118.237Y-116.675
X118.237Y-117.945
X118.237Y-119.215
X118.745Y-124.295
X119.126Y-94.704
X119.38Y-102.07
X119.38Y-103.34
X119.38Y-104.61
X119.507Y-114.135
X119.507Y-115.405
X119.507Y-116.675
X119.507Y-117.945
X119.507Y-119.215
X120.523Y-93.815
X120.65Y-102.07
X120.65Y-103.34
X120.65Y-104.61
X122.555Y-112.865
X122.555Y-114.135
X122.555Y-115.405
X122.555Y-116.675
X122.555Y-117.945
X122.555Y-119.215
X123.825Y-90.005
X123.825Y-91.275
X123.825Y-92.545
X123.825Y-93.815
X123.825Y-95.085
X123.825Y-112.865
X123.825Y-114.135
X123.825Y-115.405
X123.825Y-116.675
X123.825Y-117.945
X123.825Y-119.215
T2
X79.502Y-80.264
X79.502Y-82.804
X82.042Y-80.264
X82.042Y-82.804
X84.582Y-80.264
X84.582Y-82.804
X87.122Y-80.264
X87.122Y-82.804
X89.662Y-80.264
X89.662Y-82.804
X92.202Y-80.264
X92.202Y-82.804
X94.742Y-80.264
X94.742Y-82.804
X97.282Y-80.264
X97.282Y-82.804
X99.822Y-80.264
X99.822Y-82.804
T3
X114.935Y-79.726
T4
X85.09Y-103.34
X85.09Y-108.42
X86.995Y-118.707
X92.075Y-118.707
X106.68Y-118.707
X109.385Y-82.426
X109.385Y-90.726
X111.76Y-118.707
X120.485Y-82.426
X120.885Y-90.026
T5
X108.935Y-86.076G85X108.935Y-87.176
G05
X120.935Y-86.076G85X120.935Y-87.176
G05
T0
M30
