%FSLAX45Y45*%
G04 Gerber Fmt 4.5, Leading zero omitted, Abs format (unit mm)*
G04 Created by KiCad (PCBNEW 6.0.0) date 2022-01-02 23:15:58*
%MOMM*%
%LPD*%
G01*
G04 APERTURE LIST*
%TA.AperFunction,Profile*%
%ADD10C,0.050000*%
%TD*%
%ADD11C,0.200000*%
%ADD12C,0.030000*%
%ADD13C,0.070000*%
%ADD14C,0.100000*%
%ADD15C,0.110000*%
%ADD16C,0.120000*%
%ADD17C,0.210000*%
G04 APERTURE END LIST*
D10*
X7620000Y-7870000D02*
X7620000Y-12370000D01*
X12370000Y-7620000D02*
X7870000Y-7620000D01*
X7870000Y-7620000D02*
G75*
G03*
X7620000Y-7870000I0J-250000D01*
G01*
X12620000Y-7870000D02*
G75*
G03*
X12370000Y-7620000I-250000J0D01*
G01*
X12620000Y-12370000D02*
X12620000Y-7870000D01*
X7620000Y-12370000D02*
G75*
G03*
X7870000Y-12620000I250000J0D01*
G01*
X12370000Y-12620000D02*
G75*
G03*
X12620000Y-12370000I0J250000D01*
G01*
X7870000Y-12620000D02*
X12370000Y-12620000D01*
D11*
D12*
X7748200Y-9941800D02*
X7778200Y-9971800D01*
X7778200Y-9941800D02*
X7748200Y-9971800D01*
X7749964Y-9838356D02*
X7779964Y-9868356D01*
X7779964Y-9838356D02*
X7749964Y-9868356D01*
X7808200Y-8875000D02*
X7838200Y-8905000D01*
X7838200Y-8875000D02*
X7808200Y-8905000D01*
X7909800Y-9103600D02*
X7939800Y-9133600D01*
X7939800Y-9103600D02*
X7909800Y-9133600D01*
X7909800Y-9992600D02*
X7939800Y-10022600D01*
X7939800Y-9992600D02*
X7909800Y-10022600D01*
X7909800Y-10094200D02*
X7939800Y-10124200D01*
X7939800Y-10094200D02*
X7909800Y-10124200D01*
X7922500Y-10905740D02*
X7952500Y-10935740D01*
X7952500Y-10905740D02*
X7922500Y-10935740D01*
X7922500Y-11159740D02*
X7952500Y-11189740D01*
X7952500Y-11159740D02*
X7922500Y-11189740D01*
X7922500Y-11415000D02*
X7952500Y-11445000D01*
X7952500Y-11415000D02*
X7922500Y-11445000D01*
X7922500Y-11669000D02*
X7952500Y-11699000D01*
X7952500Y-11669000D02*
X7922500Y-11699000D01*
X7922500Y-11923000D02*
X7952500Y-11953000D01*
X7952500Y-11923000D02*
X7922500Y-11953000D01*
X8011400Y-9230600D02*
X8041400Y-9260600D01*
X8041400Y-9230600D02*
X8011400Y-9260600D01*
X8018476Y-8983676D02*
X8048476Y-9013676D01*
X8048476Y-8983676D02*
X8018476Y-9013676D01*
X8163800Y-9861800D02*
X8193800Y-9891800D01*
X8193800Y-9861800D02*
X8163800Y-9891800D01*
X8176500Y-11415000D02*
X8206500Y-11445000D01*
X8206500Y-11415000D02*
X8176500Y-11445000D01*
X8176500Y-11669000D02*
X8206500Y-11699000D01*
X8206500Y-11669000D02*
X8176500Y-11699000D01*
X8176500Y-11923000D02*
X8206500Y-11953000D01*
X8206500Y-11923000D02*
X8176500Y-11953000D01*
X8392400Y-9353800D02*
X8422400Y-9383800D01*
X8422400Y-9353800D02*
X8392400Y-9383800D01*
X8430500Y-10905740D02*
X8460500Y-10935740D01*
X8460500Y-10905740D02*
X8430500Y-10935740D01*
X8430500Y-11161000D02*
X8460500Y-11191000D01*
X8460500Y-11161000D02*
X8430500Y-11191000D01*
X8430500Y-11415000D02*
X8460500Y-11445000D01*
X8460500Y-11415000D02*
X8430500Y-11445000D01*
X8430500Y-11669000D02*
X8460500Y-11699000D01*
X8460500Y-11669000D02*
X8430500Y-11699000D01*
X8430500Y-11923000D02*
X8460500Y-11953000D01*
X8460500Y-11923000D02*
X8430500Y-11953000D01*
X8430500Y-12175740D02*
X8460500Y-12205740D01*
X8460500Y-12175740D02*
X8430500Y-12205740D01*
X8430500Y-12431000D02*
X8460500Y-12461000D01*
X8460500Y-12431000D02*
X8430500Y-12461000D01*
X8468600Y-9861800D02*
X8498600Y-9891800D01*
X8498600Y-9861800D02*
X8468600Y-9891800D01*
X8519400Y-8976600D02*
X8549400Y-9006600D01*
X8549400Y-8976600D02*
X8519400Y-9006600D01*
X8684500Y-10145000D02*
X8714500Y-10175000D01*
X8714500Y-10145000D02*
X8684500Y-10175000D01*
X8684500Y-10399000D02*
X8714500Y-10429000D01*
X8714500Y-10399000D02*
X8684500Y-10429000D01*
X8684500Y-10653000D02*
X8714500Y-10683000D01*
X8714500Y-10653000D02*
X8684500Y-10683000D01*
X8684500Y-11161000D02*
X8714500Y-11191000D01*
X8714500Y-11161000D02*
X8684500Y-11191000D01*
X8684500Y-11415000D02*
X8714500Y-11445000D01*
X8714500Y-11415000D02*
X8684500Y-11445000D01*
X8684500Y-11669000D02*
X8714500Y-11699000D01*
X8714500Y-11669000D02*
X8684500Y-11699000D01*
X8684500Y-12431000D02*
X8714500Y-12461000D01*
X8714500Y-12431000D02*
X8684500Y-12461000D01*
X8718274Y-8565874D02*
X8748274Y-8595874D01*
X8748274Y-8565874D02*
X8718274Y-8595874D01*
X8937240Y-11923000D02*
X8967240Y-11953000D01*
X8967240Y-11923000D02*
X8937240Y-11953000D01*
X8938500Y-10145000D02*
X8968500Y-10175000D01*
X8968500Y-10145000D02*
X8938500Y-10175000D01*
X8938500Y-10399000D02*
X8968500Y-10429000D01*
X8968500Y-10399000D02*
X8938500Y-10429000D01*
X8938500Y-10653000D02*
X8968500Y-10683000D01*
X8968500Y-10653000D02*
X8938500Y-10683000D01*
X8938500Y-11159740D02*
X8968500Y-11189740D01*
X8968500Y-11159740D02*
X8938500Y-11189740D01*
X8938500Y-11415000D02*
X8968500Y-11445000D01*
X8968500Y-11415000D02*
X8938500Y-11445000D01*
X8938500Y-11669000D02*
X8968500Y-11699000D01*
X8968500Y-11669000D02*
X8938500Y-11699000D01*
X8938500Y-12175740D02*
X8968500Y-12205740D01*
X8968500Y-12175740D02*
X8938500Y-12205740D01*
X8938500Y-12431000D02*
X8968500Y-12461000D01*
X8968500Y-12431000D02*
X8938500Y-12461000D01*
X9103600Y-9718280D02*
X9133600Y-9748280D01*
X9133600Y-9718280D02*
X9103600Y-9748280D01*
X9149320Y-9357600D02*
X9179320Y-9387600D01*
X9179320Y-9357600D02*
X9149320Y-9387600D01*
X9179800Y-8773400D02*
X9209800Y-8803400D01*
X9209800Y-8773400D02*
X9179800Y-8803400D01*
X9192500Y-10145000D02*
X9222500Y-10175000D01*
X9222500Y-10145000D02*
X9192500Y-10175000D01*
X9192500Y-10399000D02*
X9222500Y-10429000D01*
X9222500Y-10399000D02*
X9192500Y-10429000D01*
X9192500Y-10653000D02*
X9222500Y-10683000D01*
X9222500Y-10653000D02*
X9192500Y-10683000D01*
X9192500Y-11413740D02*
X9222500Y-11443740D01*
X9222500Y-11413740D02*
X9192500Y-11443740D01*
X9192500Y-11669000D02*
X9222500Y-11699000D01*
X9222500Y-11669000D02*
X9192500Y-11699000D01*
X9192500Y-12431000D02*
X9222500Y-12461000D01*
X9222500Y-12431000D02*
X9192500Y-12461000D01*
X9281400Y-8773400D02*
X9311400Y-8803400D01*
X9311400Y-8773400D02*
X9281400Y-8803400D01*
X9366499Y-9137899D02*
X9396499Y-9167899D01*
X9396499Y-9137899D02*
X9366499Y-9167899D01*
X9446500Y-10145000D02*
X9476500Y-10175000D01*
X9476500Y-10145000D02*
X9446500Y-10175000D01*
X9446500Y-10399000D02*
X9476500Y-10429000D01*
X9476500Y-10399000D02*
X9446500Y-10429000D01*
X9446500Y-10653000D02*
X9476500Y-10683000D01*
X9476500Y-10653000D02*
X9446500Y-10683000D01*
X9611600Y-8693400D02*
X9641600Y-8723400D01*
X9641600Y-8693400D02*
X9611600Y-8723400D01*
X9637000Y-10856200D02*
X9667000Y-10886200D01*
X9667000Y-10856200D02*
X9637000Y-10886200D01*
X9656631Y-8626400D02*
X9686631Y-8656400D01*
X9686631Y-8626400D02*
X9656631Y-8656400D01*
X9700500Y-10145000D02*
X9730500Y-10175000D01*
X9730500Y-10145000D02*
X9700500Y-10175000D01*
X9700500Y-10399000D02*
X9730500Y-10429000D01*
X9730500Y-10399000D02*
X9700500Y-10429000D01*
X9700500Y-10653000D02*
X9730500Y-10683000D01*
X9730500Y-10653000D02*
X9700500Y-10683000D01*
X9713200Y-8566400D02*
X9743200Y-8596400D01*
X9743200Y-8566400D02*
X9713200Y-8596400D01*
X9764000Y-11415000D02*
X9794000Y-11445000D01*
X9794000Y-11415000D02*
X9764000Y-11445000D01*
X9764000Y-11669000D02*
X9794000Y-11699000D01*
X9794000Y-11669000D02*
X9764000Y-11699000D01*
X9764000Y-11923000D02*
X9794000Y-11953000D01*
X9794000Y-11923000D02*
X9764000Y-11953000D01*
X9764000Y-12177000D02*
X9794000Y-12207000D01*
X9794000Y-12177000D02*
X9764000Y-12207000D01*
X9764000Y-12431000D02*
X9794000Y-12461000D01*
X9794000Y-12431000D02*
X9764000Y-12461000D01*
X9840200Y-8769600D02*
X9870200Y-8799600D01*
X9870200Y-8769600D02*
X9840200Y-8799600D01*
X9840200Y-9023600D02*
X9870200Y-9053600D01*
X9870200Y-9023600D02*
X9840200Y-9053600D01*
X9840200Y-9718280D02*
X9870200Y-9748280D01*
X9870200Y-9718280D02*
X9840200Y-9748280D01*
X9954500Y-10145000D02*
X9984500Y-10175000D01*
X9984500Y-10145000D02*
X9954500Y-10175000D01*
X9954500Y-10399000D02*
X9984500Y-10429000D01*
X9984500Y-10399000D02*
X9954500Y-10429000D01*
X9954500Y-10653000D02*
X9984500Y-10683000D01*
X9984500Y-10653000D02*
X9954500Y-10683000D01*
X9967200Y-8566400D02*
X9997200Y-8596400D01*
X9997200Y-8566400D02*
X9967200Y-8596400D01*
X10018000Y-11415000D02*
X10048000Y-11445000D01*
X10048000Y-11415000D02*
X10018000Y-11445000D01*
X10018000Y-11669000D02*
X10048000Y-11699000D01*
X10048000Y-11669000D02*
X10018000Y-11699000D01*
X10018000Y-11923000D02*
X10048000Y-11953000D01*
X10048000Y-11923000D02*
X10018000Y-11953000D01*
X10018000Y-12177000D02*
X10048000Y-12207000D01*
X10048000Y-12177000D02*
X10018000Y-12207000D01*
X10018000Y-12431000D02*
X10048000Y-12461000D01*
X10048000Y-12431000D02*
X10018000Y-12461000D01*
X10024087Y-8626091D02*
X10054087Y-8656091D01*
X10054087Y-8626091D02*
X10024087Y-8656091D01*
X10068800Y-8693400D02*
X10098800Y-8723400D01*
X10098800Y-8693400D02*
X10068800Y-8723400D01*
X10142890Y-8313993D02*
X10172890Y-8343993D01*
X10172890Y-8313993D02*
X10142890Y-8343993D01*
X10145000Y-8443200D02*
X10175000Y-8473200D01*
X10175000Y-8443200D02*
X10145000Y-8473200D01*
X10145000Y-8567401D02*
X10175000Y-8597401D01*
X10175000Y-8567401D02*
X10145000Y-8597401D01*
X10195800Y-10856200D02*
X10225800Y-10886200D01*
X10225800Y-10856200D02*
X10195800Y-10886200D01*
X10208500Y-10145000D02*
X10238500Y-10175000D01*
X10238500Y-10145000D02*
X10208500Y-10175000D01*
X10208500Y-10399000D02*
X10238500Y-10429000D01*
X10238500Y-10399000D02*
X10208500Y-10429000D01*
X10208500Y-10653000D02*
X10238500Y-10683000D01*
X10238500Y-10653000D02*
X10208500Y-10683000D01*
X10272000Y-11415000D02*
X10302000Y-11445000D01*
X10302000Y-11415000D02*
X10272000Y-11445000D01*
X10272000Y-11669000D02*
X10302000Y-11699000D01*
X10302000Y-11669000D02*
X10272000Y-11699000D01*
X10272000Y-11923000D02*
X10302000Y-11953000D01*
X10302000Y-11923000D02*
X10272000Y-11953000D01*
X10272000Y-12177000D02*
X10302000Y-12207000D01*
X10302000Y-12177000D02*
X10272000Y-12207000D01*
X10272000Y-12431000D02*
X10302000Y-12461000D01*
X10302000Y-12431000D02*
X10272000Y-12461000D01*
X10462500Y-10145000D02*
X10492500Y-10175000D01*
X10492500Y-10145000D02*
X10462500Y-10175000D01*
X10462500Y-10399000D02*
X10492500Y-10429000D01*
X10492500Y-10399000D02*
X10462500Y-10429000D01*
X10462500Y-10653000D02*
X10492500Y-10683000D01*
X10492500Y-10653000D02*
X10462500Y-10683000D01*
X10526000Y-11415000D02*
X10556000Y-11445000D01*
X10556000Y-11415000D02*
X10526000Y-11445000D01*
X10526000Y-11669000D02*
X10556000Y-11699000D01*
X10556000Y-11669000D02*
X10526000Y-11699000D01*
X10526000Y-12431000D02*
X10556000Y-12461000D01*
X10556000Y-12431000D02*
X10526000Y-12461000D01*
X10627600Y-9878300D02*
X10657600Y-9908300D01*
X10657600Y-9878300D02*
X10627600Y-9908300D01*
X10678400Y-9506200D02*
X10708400Y-9536200D01*
X10708400Y-9506200D02*
X10678400Y-9536200D01*
X10716500Y-10145000D02*
X10746500Y-10175000D01*
X10746500Y-10145000D02*
X10716500Y-10175000D01*
X10716500Y-10399000D02*
X10746500Y-10429000D01*
X10746500Y-10399000D02*
X10716500Y-10429000D01*
X10716500Y-10653000D02*
X10746500Y-10683000D01*
X10746500Y-10653000D02*
X10716500Y-10683000D01*
X10733000Y-9357600D02*
X10763000Y-9387600D01*
X10763000Y-9357600D02*
X10733000Y-9387600D01*
X10957800Y-9357600D02*
X10987800Y-9387600D01*
X10987800Y-9357600D02*
X10957800Y-9387600D01*
X10957800Y-9506200D02*
X10987800Y-9536200D01*
X10987800Y-9506200D02*
X10957800Y-9536200D01*
X10957800Y-10856200D02*
X10987800Y-10886200D01*
X10987800Y-10856200D02*
X10957800Y-10886200D01*
X10970500Y-10145000D02*
X11000500Y-10175000D01*
X11000500Y-10145000D02*
X10970500Y-10175000D01*
X10970500Y-10399000D02*
X11000500Y-10429000D01*
X11000500Y-10399000D02*
X10970500Y-10429000D01*
X10970500Y-10653000D02*
X11000500Y-10683000D01*
X11000500Y-10653000D02*
X10970500Y-10683000D01*
X11034000Y-11415000D02*
X11064000Y-11445000D01*
X11064000Y-11415000D02*
X11034000Y-11445000D01*
X11034000Y-11669000D02*
X11064000Y-11699000D01*
X11064000Y-11669000D02*
X11034000Y-11699000D01*
X11034000Y-12431000D02*
X11064000Y-12461000D01*
X11064000Y-12431000D02*
X11034000Y-12461000D01*
X11224500Y-10145000D02*
X11254500Y-10175000D01*
X11254500Y-10145000D02*
X11224500Y-10175000D01*
X11224500Y-10399000D02*
X11254500Y-10429000D01*
X11254500Y-10399000D02*
X11224500Y-10429000D01*
X11224500Y-10653000D02*
X11254500Y-10683000D01*
X11254500Y-10653000D02*
X11224500Y-10683000D01*
X11288000Y-11415000D02*
X11318000Y-11445000D01*
X11318000Y-11415000D02*
X11288000Y-11445000D01*
X11288000Y-11669000D02*
X11318000Y-11699000D01*
X11318000Y-11669000D02*
X11288000Y-11699000D01*
X11288000Y-11923000D02*
X11318000Y-11953000D01*
X11318000Y-11923000D02*
X11288000Y-11953000D01*
X11288000Y-12177000D02*
X11318000Y-12207000D01*
X11318000Y-12177000D02*
X11288000Y-12207000D01*
X11288000Y-12431000D02*
X11318000Y-12461000D01*
X11318000Y-12431000D02*
X11288000Y-12461000D01*
X11478500Y-10145000D02*
X11508500Y-10175000D01*
X11508500Y-10145000D02*
X11478500Y-10175000D01*
X11478500Y-10399000D02*
X11508500Y-10429000D01*
X11508500Y-10399000D02*
X11478500Y-10429000D01*
X11478500Y-10653000D02*
X11508500Y-10683000D01*
X11508500Y-10653000D02*
X11478500Y-10683000D01*
X11516600Y-10856200D02*
X11546600Y-10886200D01*
X11546600Y-10856200D02*
X11516600Y-10886200D01*
X11542000Y-11415000D02*
X11572000Y-11445000D01*
X11572000Y-11415000D02*
X11542000Y-11445000D01*
X11542000Y-11669000D02*
X11572000Y-11699000D01*
X11572000Y-11669000D02*
X11542000Y-11699000D01*
X11542000Y-11923000D02*
X11572000Y-11953000D01*
X11572000Y-11923000D02*
X11542000Y-11953000D01*
X11542000Y-12177000D02*
X11572000Y-12207000D01*
X11572000Y-12177000D02*
X11542000Y-12207000D01*
X11542000Y-12431000D02*
X11572000Y-12461000D01*
X11572000Y-12431000D02*
X11542000Y-12461000D01*
X11592800Y-9357600D02*
X11622800Y-9387600D01*
X11622800Y-9357600D02*
X11592800Y-9387600D01*
X11669000Y-9878300D02*
X11699000Y-9908300D01*
X11699000Y-9878300D02*
X11669000Y-9908300D01*
X11719800Y-9506200D02*
X11749800Y-9536200D01*
X11749800Y-9506200D02*
X11719800Y-9536200D01*
X11732500Y-10145000D02*
X11762500Y-10175000D01*
X11762500Y-10145000D02*
X11732500Y-10175000D01*
X11732500Y-10399000D02*
X11762500Y-10429000D01*
X11762500Y-10399000D02*
X11732500Y-10429000D01*
X11732500Y-10653000D02*
X11762500Y-10683000D01*
X11762500Y-10653000D02*
X11732500Y-10683000D01*
X11796000Y-11415000D02*
X11826000Y-11445000D01*
X11826000Y-11415000D02*
X11796000Y-11445000D01*
X11796000Y-11669000D02*
X11826000Y-11699000D01*
X11826000Y-11669000D02*
X11796000Y-11699000D01*
X11796000Y-11923000D02*
X11826000Y-11953000D01*
X11826000Y-11923000D02*
X11796000Y-11953000D01*
X11796000Y-12177000D02*
X11826000Y-12207000D01*
X11826000Y-12177000D02*
X11796000Y-12207000D01*
X11796000Y-12431000D02*
X11826000Y-12461000D01*
X11826000Y-12431000D02*
X11796000Y-12461000D01*
X11821400Y-9357600D02*
X11851400Y-9387600D01*
X11851400Y-9357600D02*
X11821400Y-9387600D01*
X11986500Y-10145000D02*
X12016500Y-10175000D01*
X12016500Y-10145000D02*
X11986500Y-10175000D01*
X11986500Y-10399000D02*
X12016500Y-10429000D01*
X12016500Y-10399000D02*
X11986500Y-10429000D01*
X11986500Y-10653000D02*
X12016500Y-10683000D01*
X12016500Y-10653000D02*
X11986500Y-10683000D01*
X11999200Y-9506200D02*
X12029200Y-9536200D01*
X12029200Y-9506200D02*
X11999200Y-9536200D01*
X12126200Y-10145000D02*
X12156200Y-10175000D01*
X12156200Y-10145000D02*
X12126200Y-10175000D01*
X12227800Y-10145000D02*
X12257800Y-10175000D01*
X12257800Y-10145000D02*
X12227800Y-10175000D01*
X12431000Y-10145000D02*
X12461000Y-10175000D01*
X12461000Y-10145000D02*
X12431000Y-10175000D01*
X12431000Y-10399000D02*
X12461000Y-10429000D01*
X12461000Y-10399000D02*
X12431000Y-10429000D01*
X12431000Y-10653000D02*
X12461000Y-10683000D01*
X12461000Y-10653000D02*
X12431000Y-10683000D01*
D13*
X10372800Y-8915400D02*
G75*
G03*
X10372800Y-8915400I-35000J0D01*
G01*
D14*
X7950200Y-7976400D02*
X7950200Y-8076400D01*
X7900200Y-8026400D02*
X8000200Y-8026400D01*
X7950200Y-8230400D02*
X7950200Y-8330400D01*
X7900200Y-8280400D02*
X8000200Y-8280400D01*
X8204200Y-7976400D02*
X8204200Y-8076400D01*
X8154200Y-8026400D02*
X8254200Y-8026400D01*
X8204200Y-8230400D02*
X8204200Y-8330400D01*
X8154200Y-8280400D02*
X8254200Y-8280400D01*
X8458200Y-7976400D02*
X8458200Y-8076400D01*
X8408200Y-8026400D02*
X8508200Y-8026400D01*
X8458200Y-8230400D02*
X8458200Y-8330400D01*
X8408200Y-8280400D02*
X8508200Y-8280400D01*
X8712200Y-7976400D02*
X8712200Y-8076400D01*
X8662200Y-8026400D02*
X8762200Y-8026400D01*
X8712200Y-8230400D02*
X8712200Y-8330400D01*
X8662200Y-8280400D02*
X8762200Y-8280400D01*
X8966200Y-7976400D02*
X8966200Y-8076400D01*
X8916200Y-8026400D02*
X9016200Y-8026400D01*
X8966200Y-8230400D02*
X8966200Y-8330400D01*
X8916200Y-8280400D02*
X9016200Y-8280400D01*
X9220200Y-7976400D02*
X9220200Y-8076400D01*
X9170200Y-8026400D02*
X9270200Y-8026400D01*
X9220200Y-8230400D02*
X9220200Y-8330400D01*
X9170200Y-8280400D02*
X9270200Y-8280400D01*
X9474200Y-7976400D02*
X9474200Y-8076400D01*
X9424200Y-8026400D02*
X9524200Y-8026400D01*
X9474200Y-8230400D02*
X9474200Y-8330400D01*
X9424200Y-8280400D02*
X9524200Y-8280400D01*
X9728200Y-7976400D02*
X9728200Y-8076400D01*
X9678200Y-8026400D02*
X9778200Y-8026400D01*
X9728200Y-8230400D02*
X9728200Y-8330400D01*
X9678200Y-8280400D02*
X9778200Y-8280400D01*
X9982200Y-7976400D02*
X9982200Y-8076400D01*
X9932200Y-8026400D02*
X10032200Y-8026400D01*
X9982200Y-8230400D02*
X9982200Y-8330400D01*
X9932200Y-8280400D02*
X10032200Y-8280400D01*
D15*
X11532391Y-8011491D02*
X11532391Y-7933709D01*
X11454609Y-7933709D01*
X11454609Y-8011491D01*
X11532391Y-8011491D01*
D16*
X8178800Y-10524800D02*
X8238800Y-10464800D01*
X8178800Y-10404800D01*
X8118800Y-10464800D01*
X8178800Y-10524800D01*
X8178800Y-11032800D02*
X8238800Y-10972800D01*
X8178800Y-10912800D01*
X8118800Y-10972800D01*
X8178800Y-11032800D01*
X8699500Y-12133900D02*
X8759500Y-12073900D01*
X8699500Y-12013900D01*
X8639500Y-12073900D01*
X8699500Y-12133900D01*
X9207500Y-12133900D02*
X9267500Y-12073900D01*
X9207500Y-12013900D01*
X9147500Y-12073900D01*
X9207500Y-12133900D01*
X10541000Y-12133900D02*
X10601000Y-12073900D01*
X10541000Y-12013900D01*
X10481000Y-12073900D01*
X10541000Y-12133900D01*
X10938500Y-8302600D02*
X10998500Y-8242600D01*
X10938500Y-8182600D01*
X10878500Y-8242600D01*
X10938500Y-8302600D01*
X10938500Y-9132600D02*
X10998500Y-9072600D01*
X10938500Y-9012600D01*
X10878500Y-9072600D01*
X10938500Y-9132600D01*
X11049000Y-12133900D02*
X11109000Y-12073900D01*
X11049000Y-12013900D01*
X10989000Y-12073900D01*
X11049000Y-12133900D01*
X12048500Y-8302600D02*
X12108500Y-8242600D01*
X12048500Y-8182600D01*
X11988500Y-8242600D01*
X12048500Y-8302600D01*
X12088500Y-9062600D02*
X12148500Y-9002600D01*
X12088500Y-8942600D01*
X12028500Y-9002600D01*
X12088500Y-9062600D01*
D17*
X10788500Y-8557600D02*
X10998500Y-8767600D01*
X10998500Y-8557600D02*
X10788500Y-8767600D01*
X10998500Y-8662600D02*
G75*
G03*
X10998500Y-8662600I-105000J0D01*
G01*
D11*
X10798500Y-8607600D02*
X10798500Y-8717600D01*
X10988500Y-8607600D02*
X10988500Y-8717600D01*
X10798500Y-8717600D02*
G75*
G03*
X10988500Y-8717600I95000J0D01*
G01*
X10988500Y-8607600D02*
G75*
G03*
X10798500Y-8607600I-95000J0D01*
G01*
D17*
X11988500Y-8557600D02*
X12198500Y-8767600D01*
X12198500Y-8557600D02*
X11988500Y-8767600D01*
X12198500Y-8662600D02*
G75*
G03*
X12198500Y-8662600I-105000J0D01*
G01*
D11*
X11998500Y-8607600D02*
X11998500Y-8717600D01*
X12188500Y-8607600D02*
X12188500Y-8717600D01*
X11998500Y-8717600D02*
G75*
G03*
X12188500Y-8717600I95000J0D01*
G01*
X12188500Y-8607600D02*
G75*
G03*
X11998500Y-8607600I-95000J0D01*
G01*
X7875119Y-12932976D02*
X7875119Y-12732976D01*
X7922738Y-12732976D01*
X7951309Y-12742500D01*
X7970357Y-12761548D01*
X7979881Y-12780595D01*
X7989405Y-12818690D01*
X7989405Y-12847262D01*
X7979881Y-12885357D01*
X7970357Y-12904405D01*
X7951309Y-12923452D01*
X7922738Y-12932976D01*
X7875119Y-12932976D01*
X8075119Y-12932976D02*
X8075119Y-12799643D01*
X8075119Y-12837738D02*
X8084643Y-12818690D01*
X8094167Y-12809167D01*
X8113214Y-12799643D01*
X8132262Y-12799643D01*
X8198928Y-12932976D02*
X8198928Y-12799643D01*
X8198928Y-12732976D02*
X8189405Y-12742500D01*
X8198928Y-12752024D01*
X8208452Y-12742500D01*
X8198928Y-12732976D01*
X8198928Y-12752024D01*
X8322738Y-12932976D02*
X8303690Y-12923452D01*
X8294167Y-12904405D01*
X8294167Y-12732976D01*
X8427500Y-12932976D02*
X8408452Y-12923452D01*
X8398929Y-12904405D01*
X8398929Y-12732976D01*
X8656071Y-12932976D02*
X8656071Y-12732976D01*
X8722738Y-12875833D01*
X8789405Y-12732976D01*
X8789405Y-12932976D01*
X8970357Y-12932976D02*
X8970357Y-12828214D01*
X8960833Y-12809167D01*
X8941786Y-12799643D01*
X8903690Y-12799643D01*
X8884643Y-12809167D01*
X8970357Y-12923452D02*
X8951310Y-12932976D01*
X8903690Y-12932976D01*
X8884643Y-12923452D01*
X8875119Y-12904405D01*
X8875119Y-12885357D01*
X8884643Y-12866309D01*
X8903690Y-12856786D01*
X8951310Y-12856786D01*
X8970357Y-12847262D01*
X9065595Y-12799643D02*
X9065595Y-12999643D01*
X9065595Y-12809167D02*
X9084643Y-12799643D01*
X9122738Y-12799643D01*
X9141786Y-12809167D01*
X9151310Y-12818690D01*
X9160833Y-12837738D01*
X9160833Y-12894881D01*
X9151310Y-12913928D01*
X9141786Y-12923452D01*
X9122738Y-12932976D01*
X9084643Y-12932976D01*
X9065595Y-12923452D01*
X9246548Y-12913928D02*
X9256071Y-12923452D01*
X9246548Y-12932976D01*
X9237024Y-12923452D01*
X9246548Y-12913928D01*
X9246548Y-12932976D01*
X9246548Y-12809167D02*
X9256071Y-12818690D01*
X9246548Y-12828214D01*
X9237024Y-12818690D01*
X9246548Y-12809167D01*
X9246548Y-12828214D01*
D12*
X7587500Y-13247500D02*
X7617500Y-13277500D01*
X7617500Y-13247500D02*
X7587500Y-13277500D01*
D11*
X7913214Y-13152976D02*
X7932262Y-13152976D01*
X7951309Y-13162500D01*
X7960833Y-13172024D01*
X7970357Y-13191071D01*
X7979881Y-13229167D01*
X7979881Y-13276786D01*
X7970357Y-13314881D01*
X7960833Y-13333928D01*
X7951309Y-13343452D01*
X7932262Y-13352976D01*
X7913214Y-13352976D01*
X7894167Y-13343452D01*
X7884643Y-13333928D01*
X7875119Y-13314881D01*
X7865595Y-13276786D01*
X7865595Y-13229167D01*
X7875119Y-13191071D01*
X7884643Y-13172024D01*
X7894167Y-13162500D01*
X7913214Y-13152976D01*
X8065595Y-13333928D02*
X8075119Y-13343452D01*
X8065595Y-13352976D01*
X8056071Y-13343452D01*
X8065595Y-13333928D01*
X8065595Y-13352976D01*
X8141786Y-13152976D02*
X8265595Y-13152976D01*
X8198928Y-13229167D01*
X8227500Y-13229167D01*
X8246548Y-13238690D01*
X8256071Y-13248214D01*
X8265595Y-13267262D01*
X8265595Y-13314881D01*
X8256071Y-13333928D01*
X8246548Y-13343452D01*
X8227500Y-13352976D01*
X8170357Y-13352976D01*
X8151309Y-13343452D01*
X8141786Y-13333928D01*
X8389405Y-13152976D02*
X8408452Y-13152976D01*
X8427500Y-13162500D01*
X8437024Y-13172024D01*
X8446548Y-13191071D01*
X8456071Y-13229167D01*
X8456071Y-13276786D01*
X8446548Y-13314881D01*
X8437024Y-13333928D01*
X8427500Y-13343452D01*
X8408452Y-13352976D01*
X8389405Y-13352976D01*
X8370357Y-13343452D01*
X8360833Y-13333928D01*
X8351309Y-13314881D01*
X8341786Y-13276786D01*
X8341786Y-13229167D01*
X8351309Y-13191071D01*
X8360833Y-13172024D01*
X8370357Y-13162500D01*
X8389405Y-13152976D01*
X8579881Y-13152976D02*
X8598929Y-13152976D01*
X8617976Y-13162500D01*
X8627500Y-13172024D01*
X8637024Y-13191071D01*
X8646548Y-13229167D01*
X8646548Y-13276786D01*
X8637024Y-13314881D01*
X8627500Y-13333928D01*
X8617976Y-13343452D01*
X8598929Y-13352976D01*
X8579881Y-13352976D01*
X8560833Y-13343452D01*
X8551310Y-13333928D01*
X8541786Y-13314881D01*
X8532262Y-13276786D01*
X8532262Y-13229167D01*
X8541786Y-13191071D01*
X8551310Y-13172024D01*
X8560833Y-13162500D01*
X8579881Y-13152976D01*
X8732262Y-13352976D02*
X8732262Y-13219643D01*
X8732262Y-13238690D02*
X8741786Y-13229167D01*
X8760833Y-13219643D01*
X8789405Y-13219643D01*
X8808452Y-13229167D01*
X8817976Y-13248214D01*
X8817976Y-13352976D01*
X8817976Y-13248214D02*
X8827500Y-13229167D01*
X8846548Y-13219643D01*
X8875119Y-13219643D01*
X8894167Y-13229167D01*
X8903690Y-13248214D01*
X8903690Y-13352976D01*
X8998929Y-13352976D02*
X8998929Y-13219643D01*
X8998929Y-13238690D02*
X9008452Y-13229167D01*
X9027500Y-13219643D01*
X9056071Y-13219643D01*
X9075119Y-13229167D01*
X9084643Y-13248214D01*
X9084643Y-13352976D01*
X9084643Y-13248214D02*
X9094167Y-13229167D01*
X9113214Y-13219643D01*
X9141786Y-13219643D01*
X9160833Y-13229167D01*
X9170357Y-13248214D01*
X9170357Y-13352976D01*
X9560833Y-13143452D02*
X9389405Y-13400595D01*
X9817976Y-13152976D02*
X9837024Y-13152976D01*
X9856071Y-13162500D01*
X9865595Y-13172024D01*
X9875119Y-13191071D01*
X9884643Y-13229167D01*
X9884643Y-13276786D01*
X9875119Y-13314881D01*
X9865595Y-13333928D01*
X9856071Y-13343452D01*
X9837024Y-13352976D01*
X9817976Y-13352976D01*
X9798929Y-13343452D01*
X9789405Y-13333928D01*
X9779881Y-13314881D01*
X9770357Y-13276786D01*
X9770357Y-13229167D01*
X9779881Y-13191071D01*
X9789405Y-13172024D01*
X9798929Y-13162500D01*
X9817976Y-13152976D01*
X9970357Y-13333928D02*
X9979881Y-13343452D01*
X9970357Y-13352976D01*
X9960833Y-13343452D01*
X9970357Y-13333928D01*
X9970357Y-13352976D01*
X10103690Y-13152976D02*
X10122738Y-13152976D01*
X10141786Y-13162500D01*
X10151310Y-13172024D01*
X10160833Y-13191071D01*
X10170357Y-13229167D01*
X10170357Y-13276786D01*
X10160833Y-13314881D01*
X10151310Y-13333928D01*
X10141786Y-13343452D01*
X10122738Y-13352976D01*
X10103690Y-13352976D01*
X10084643Y-13343452D01*
X10075119Y-13333928D01*
X10065595Y-13314881D01*
X10056071Y-13276786D01*
X10056071Y-13229167D01*
X10065595Y-13191071D01*
X10075119Y-13172024D01*
X10084643Y-13162500D01*
X10103690Y-13152976D01*
X10360833Y-13352976D02*
X10246548Y-13352976D01*
X10303690Y-13352976D02*
X10303690Y-13152976D01*
X10284643Y-13181548D01*
X10265595Y-13200595D01*
X10246548Y-13210119D01*
X10551310Y-13352976D02*
X10437024Y-13352976D01*
X10494167Y-13352976D02*
X10494167Y-13152976D01*
X10475119Y-13181548D01*
X10456071Y-13200595D01*
X10437024Y-13210119D01*
X10665595Y-13238690D02*
X10646548Y-13229167D01*
X10637024Y-13219643D01*
X10627500Y-13200595D01*
X10627500Y-13191071D01*
X10637024Y-13172024D01*
X10646548Y-13162500D01*
X10665595Y-13152976D01*
X10703690Y-13152976D01*
X10722738Y-13162500D01*
X10732262Y-13172024D01*
X10741786Y-13191071D01*
X10741786Y-13200595D01*
X10732262Y-13219643D01*
X10722738Y-13229167D01*
X10703690Y-13238690D01*
X10665595Y-13238690D01*
X10646548Y-13248214D01*
X10637024Y-13257738D01*
X10627500Y-13276786D01*
X10627500Y-13314881D01*
X10637024Y-13333928D01*
X10646548Y-13343452D01*
X10665595Y-13352976D01*
X10703690Y-13352976D01*
X10722738Y-13343452D01*
X10732262Y-13333928D01*
X10741786Y-13314881D01*
X10741786Y-13276786D01*
X10732262Y-13257738D01*
X10722738Y-13248214D01*
X10703690Y-13238690D01*
X10817976Y-13152976D02*
X10817976Y-13191071D01*
X10894167Y-13152976D02*
X10894167Y-13191071D01*
X11189405Y-13429167D02*
X11179881Y-13419643D01*
X11160833Y-13391071D01*
X11151310Y-13372024D01*
X11141786Y-13343452D01*
X11132262Y-13295833D01*
X11132262Y-13257738D01*
X11141786Y-13210119D01*
X11151310Y-13181548D01*
X11160833Y-13162500D01*
X11179881Y-13133928D01*
X11189405Y-13124405D01*
X11370357Y-13352976D02*
X11256071Y-13352976D01*
X11313214Y-13352976D02*
X11313214Y-13152976D01*
X11294167Y-13181548D01*
X11275119Y-13200595D01*
X11256071Y-13210119D01*
X11551309Y-13152976D02*
X11456071Y-13152976D01*
X11446548Y-13248214D01*
X11456071Y-13238690D01*
X11475119Y-13229167D01*
X11522738Y-13229167D01*
X11541786Y-13238690D01*
X11551309Y-13248214D01*
X11560833Y-13267262D01*
X11560833Y-13314881D01*
X11551309Y-13333928D01*
X11541786Y-13343452D01*
X11522738Y-13352976D01*
X11475119Y-13352976D01*
X11456071Y-13343452D01*
X11446548Y-13333928D01*
X11741786Y-13152976D02*
X11646548Y-13152976D01*
X11637024Y-13248214D01*
X11646548Y-13238690D01*
X11665595Y-13229167D01*
X11713214Y-13229167D01*
X11732262Y-13238690D01*
X11741786Y-13248214D01*
X11751309Y-13267262D01*
X11751309Y-13314881D01*
X11741786Y-13333928D01*
X11732262Y-13343452D01*
X11713214Y-13352976D01*
X11665595Y-13352976D01*
X11646548Y-13343452D01*
X11637024Y-13333928D01*
X11989405Y-13352976D02*
X11989405Y-13152976D01*
X12075119Y-13352976D02*
X12075119Y-13248214D01*
X12065595Y-13229167D01*
X12046548Y-13219643D01*
X12017976Y-13219643D01*
X11998928Y-13229167D01*
X11989405Y-13238690D01*
X12198928Y-13352976D02*
X12179881Y-13343452D01*
X12170357Y-13333928D01*
X12160833Y-13314881D01*
X12160833Y-13257738D01*
X12170357Y-13238690D01*
X12179881Y-13229167D01*
X12198928Y-13219643D01*
X12227500Y-13219643D01*
X12246548Y-13229167D01*
X12256071Y-13238690D01*
X12265595Y-13257738D01*
X12265595Y-13314881D01*
X12256071Y-13333928D01*
X12246548Y-13343452D01*
X12227500Y-13352976D01*
X12198928Y-13352976D01*
X12379881Y-13352976D02*
X12360833Y-13343452D01*
X12351309Y-13324405D01*
X12351309Y-13152976D01*
X12532262Y-13343452D02*
X12513214Y-13352976D01*
X12475119Y-13352976D01*
X12456071Y-13343452D01*
X12446548Y-13324405D01*
X12446548Y-13248214D01*
X12456071Y-13229167D01*
X12475119Y-13219643D01*
X12513214Y-13219643D01*
X12532262Y-13229167D01*
X12541786Y-13248214D01*
X12541786Y-13267262D01*
X12446548Y-13286309D01*
X12617976Y-13343452D02*
X12637024Y-13352976D01*
X12675119Y-13352976D01*
X12694167Y-13343452D01*
X12703690Y-13324405D01*
X12703690Y-13314881D01*
X12694167Y-13295833D01*
X12675119Y-13286309D01*
X12646548Y-13286309D01*
X12627500Y-13276786D01*
X12617976Y-13257738D01*
X12617976Y-13248214D01*
X12627500Y-13229167D01*
X12646548Y-13219643D01*
X12675119Y-13219643D01*
X12694167Y-13229167D01*
X12770357Y-13429167D02*
X12779881Y-13419643D01*
X12798928Y-13391071D01*
X12808452Y-13372024D01*
X12817976Y-13343452D01*
X12827500Y-13295833D01*
X12827500Y-13257738D01*
X12817976Y-13210119D01*
X12808452Y-13181548D01*
X12798928Y-13162500D01*
X12779881Y-13133928D01*
X12770357Y-13124405D01*
D13*
X7617500Y-13526500D02*
G75*
G03*
X7617500Y-13526500I-35000J0D01*
G01*
D11*
X7913214Y-13416976D02*
X7932262Y-13416976D01*
X7951309Y-13426500D01*
X7960833Y-13436024D01*
X7970357Y-13455071D01*
X7979881Y-13493167D01*
X7979881Y-13540786D01*
X7970357Y-13578881D01*
X7960833Y-13597928D01*
X7951309Y-13607452D01*
X7932262Y-13616976D01*
X7913214Y-13616976D01*
X7894167Y-13607452D01*
X7884643Y-13597928D01*
X7875119Y-13578881D01*
X7865595Y-13540786D01*
X7865595Y-13493167D01*
X7875119Y-13455071D01*
X7884643Y-13436024D01*
X7894167Y-13426500D01*
X7913214Y-13416976D01*
X8065595Y-13597928D02*
X8075119Y-13607452D01*
X8065595Y-13616976D01*
X8056071Y-13607452D01*
X8065595Y-13597928D01*
X8065595Y-13616976D01*
X8141786Y-13416976D02*
X8275119Y-13416976D01*
X8189405Y-13616976D01*
X8389405Y-13416976D02*
X8408452Y-13416976D01*
X8427500Y-13426500D01*
X8437024Y-13436024D01*
X8446548Y-13455071D01*
X8456071Y-13493167D01*
X8456071Y-13540786D01*
X8446548Y-13578881D01*
X8437024Y-13597928D01*
X8427500Y-13607452D01*
X8408452Y-13616976D01*
X8389405Y-13616976D01*
X8370357Y-13607452D01*
X8360833Y-13597928D01*
X8351309Y-13578881D01*
X8341786Y-13540786D01*
X8341786Y-13493167D01*
X8351309Y-13455071D01*
X8360833Y-13436024D01*
X8370357Y-13426500D01*
X8389405Y-13416976D01*
X8579881Y-13416976D02*
X8598929Y-13416976D01*
X8617976Y-13426500D01*
X8627500Y-13436024D01*
X8637024Y-13455071D01*
X8646548Y-13493167D01*
X8646548Y-13540786D01*
X8637024Y-13578881D01*
X8627500Y-13597928D01*
X8617976Y-13607452D01*
X8598929Y-13616976D01*
X8579881Y-13616976D01*
X8560833Y-13607452D01*
X8551310Y-13597928D01*
X8541786Y-13578881D01*
X8532262Y-13540786D01*
X8532262Y-13493167D01*
X8541786Y-13455071D01*
X8551310Y-13436024D01*
X8560833Y-13426500D01*
X8579881Y-13416976D01*
X8732262Y-13616976D02*
X8732262Y-13483643D01*
X8732262Y-13502690D02*
X8741786Y-13493167D01*
X8760833Y-13483643D01*
X8789405Y-13483643D01*
X8808452Y-13493167D01*
X8817976Y-13512214D01*
X8817976Y-13616976D01*
X8817976Y-13512214D02*
X8827500Y-13493167D01*
X8846548Y-13483643D01*
X8875119Y-13483643D01*
X8894167Y-13493167D01*
X8903690Y-13512214D01*
X8903690Y-13616976D01*
X8998929Y-13616976D02*
X8998929Y-13483643D01*
X8998929Y-13502690D02*
X9008452Y-13493167D01*
X9027500Y-13483643D01*
X9056071Y-13483643D01*
X9075119Y-13493167D01*
X9084643Y-13512214D01*
X9084643Y-13616976D01*
X9084643Y-13512214D02*
X9094167Y-13493167D01*
X9113214Y-13483643D01*
X9141786Y-13483643D01*
X9160833Y-13493167D01*
X9170357Y-13512214D01*
X9170357Y-13616976D01*
X9560833Y-13407452D02*
X9389405Y-13664595D01*
X9817976Y-13416976D02*
X9837024Y-13416976D01*
X9856071Y-13426500D01*
X9865595Y-13436024D01*
X9875119Y-13455071D01*
X9884643Y-13493167D01*
X9884643Y-13540786D01*
X9875119Y-13578881D01*
X9865595Y-13597928D01*
X9856071Y-13607452D01*
X9837024Y-13616976D01*
X9817976Y-13616976D01*
X9798929Y-13607452D01*
X9789405Y-13597928D01*
X9779881Y-13578881D01*
X9770357Y-13540786D01*
X9770357Y-13493167D01*
X9779881Y-13455071D01*
X9789405Y-13436024D01*
X9798929Y-13426500D01*
X9817976Y-13416976D01*
X9970357Y-13597928D02*
X9979881Y-13607452D01*
X9970357Y-13616976D01*
X9960833Y-13607452D01*
X9970357Y-13597928D01*
X9970357Y-13616976D01*
X10103690Y-13416976D02*
X10122738Y-13416976D01*
X10141786Y-13426500D01*
X10151310Y-13436024D01*
X10160833Y-13455071D01*
X10170357Y-13493167D01*
X10170357Y-13540786D01*
X10160833Y-13578881D01*
X10151310Y-13597928D01*
X10141786Y-13607452D01*
X10122738Y-13616976D01*
X10103690Y-13616976D01*
X10084643Y-13607452D01*
X10075119Y-13597928D01*
X10065595Y-13578881D01*
X10056071Y-13540786D01*
X10056071Y-13493167D01*
X10065595Y-13455071D01*
X10075119Y-13436024D01*
X10084643Y-13426500D01*
X10103690Y-13416976D01*
X10246548Y-13436024D02*
X10256071Y-13426500D01*
X10275119Y-13416976D01*
X10322738Y-13416976D01*
X10341786Y-13426500D01*
X10351310Y-13436024D01*
X10360833Y-13455071D01*
X10360833Y-13474119D01*
X10351310Y-13502690D01*
X10237024Y-13616976D01*
X10360833Y-13616976D01*
X10427500Y-13416976D02*
X10560833Y-13416976D01*
X10475119Y-13616976D01*
X10722738Y-13416976D02*
X10684643Y-13416976D01*
X10665595Y-13426500D01*
X10656071Y-13436024D01*
X10637024Y-13464595D01*
X10627500Y-13502690D01*
X10627500Y-13578881D01*
X10637024Y-13597928D01*
X10646548Y-13607452D01*
X10665595Y-13616976D01*
X10703690Y-13616976D01*
X10722738Y-13607452D01*
X10732262Y-13597928D01*
X10741786Y-13578881D01*
X10741786Y-13531262D01*
X10732262Y-13512214D01*
X10722738Y-13502690D01*
X10703690Y-13493167D01*
X10665595Y-13493167D01*
X10646548Y-13502690D01*
X10637024Y-13512214D01*
X10627500Y-13531262D01*
X10817976Y-13416976D02*
X10817976Y-13455071D01*
X10894167Y-13416976D02*
X10894167Y-13455071D01*
X11189405Y-13693167D02*
X11179881Y-13683643D01*
X11160833Y-13655071D01*
X11151310Y-13636024D01*
X11141786Y-13607452D01*
X11132262Y-13559833D01*
X11132262Y-13521738D01*
X11141786Y-13474119D01*
X11151310Y-13445548D01*
X11160833Y-13426500D01*
X11179881Y-13397928D01*
X11189405Y-13388405D01*
X11370357Y-13616976D02*
X11256071Y-13616976D01*
X11313214Y-13616976D02*
X11313214Y-13416976D01*
X11294167Y-13445548D01*
X11275119Y-13464595D01*
X11256071Y-13474119D01*
X11608452Y-13616976D02*
X11608452Y-13416976D01*
X11694167Y-13616976D02*
X11694167Y-13512214D01*
X11684643Y-13493167D01*
X11665595Y-13483643D01*
X11637024Y-13483643D01*
X11617976Y-13493167D01*
X11608452Y-13502690D01*
X11817976Y-13616976D02*
X11798928Y-13607452D01*
X11789405Y-13597928D01*
X11779881Y-13578881D01*
X11779881Y-13521738D01*
X11789405Y-13502690D01*
X11798928Y-13493167D01*
X11817976Y-13483643D01*
X11846548Y-13483643D01*
X11865595Y-13493167D01*
X11875119Y-13502690D01*
X11884643Y-13521738D01*
X11884643Y-13578881D01*
X11875119Y-13597928D01*
X11865595Y-13607452D01*
X11846548Y-13616976D01*
X11817976Y-13616976D01*
X11998928Y-13616976D02*
X11979881Y-13607452D01*
X11970357Y-13588405D01*
X11970357Y-13416976D01*
X12151309Y-13607452D02*
X12132262Y-13616976D01*
X12094167Y-13616976D01*
X12075119Y-13607452D01*
X12065595Y-13588405D01*
X12065595Y-13512214D01*
X12075119Y-13493167D01*
X12094167Y-13483643D01*
X12132262Y-13483643D01*
X12151309Y-13493167D01*
X12160833Y-13512214D01*
X12160833Y-13531262D01*
X12065595Y-13550309D01*
X12227500Y-13693167D02*
X12237024Y-13683643D01*
X12256071Y-13655071D01*
X12265595Y-13636024D01*
X12275119Y-13607452D01*
X12284643Y-13559833D01*
X12284643Y-13521738D01*
X12275119Y-13474119D01*
X12265595Y-13445548D01*
X12256071Y-13426500D01*
X12237024Y-13397928D01*
X12227500Y-13388405D01*
D14*
X7567500Y-13740500D02*
X7567500Y-13840500D01*
X7517500Y-13790500D02*
X7617500Y-13790500D01*
D11*
X7979881Y-13880976D02*
X7865595Y-13880976D01*
X7922738Y-13880976D02*
X7922738Y-13680976D01*
X7903690Y-13709548D01*
X7884643Y-13728595D01*
X7865595Y-13738119D01*
X8065595Y-13861928D02*
X8075119Y-13871452D01*
X8065595Y-13880976D01*
X8056071Y-13871452D01*
X8065595Y-13861928D01*
X8065595Y-13880976D01*
X8198928Y-13680976D02*
X8217976Y-13680976D01*
X8237024Y-13690500D01*
X8246548Y-13700024D01*
X8256071Y-13719071D01*
X8265595Y-13757167D01*
X8265595Y-13804786D01*
X8256071Y-13842881D01*
X8246548Y-13861928D01*
X8237024Y-13871452D01*
X8217976Y-13880976D01*
X8198928Y-13880976D01*
X8179881Y-13871452D01*
X8170357Y-13861928D01*
X8160833Y-13842881D01*
X8151309Y-13804786D01*
X8151309Y-13757167D01*
X8160833Y-13719071D01*
X8170357Y-13700024D01*
X8179881Y-13690500D01*
X8198928Y-13680976D01*
X8389405Y-13680976D02*
X8408452Y-13680976D01*
X8427500Y-13690500D01*
X8437024Y-13700024D01*
X8446548Y-13719071D01*
X8456071Y-13757167D01*
X8456071Y-13804786D01*
X8446548Y-13842881D01*
X8437024Y-13861928D01*
X8427500Y-13871452D01*
X8408452Y-13880976D01*
X8389405Y-13880976D01*
X8370357Y-13871452D01*
X8360833Y-13861928D01*
X8351309Y-13842881D01*
X8341786Y-13804786D01*
X8341786Y-13757167D01*
X8351309Y-13719071D01*
X8360833Y-13700024D01*
X8370357Y-13690500D01*
X8389405Y-13680976D01*
X8579881Y-13680976D02*
X8598929Y-13680976D01*
X8617976Y-13690500D01*
X8627500Y-13700024D01*
X8637024Y-13719071D01*
X8646548Y-13757167D01*
X8646548Y-13804786D01*
X8637024Y-13842881D01*
X8627500Y-13861928D01*
X8617976Y-13871452D01*
X8598929Y-13880976D01*
X8579881Y-13880976D01*
X8560833Y-13871452D01*
X8551310Y-13861928D01*
X8541786Y-13842881D01*
X8532262Y-13804786D01*
X8532262Y-13757167D01*
X8541786Y-13719071D01*
X8551310Y-13700024D01*
X8560833Y-13690500D01*
X8579881Y-13680976D01*
X8732262Y-13880976D02*
X8732262Y-13747643D01*
X8732262Y-13766690D02*
X8741786Y-13757167D01*
X8760833Y-13747643D01*
X8789405Y-13747643D01*
X8808452Y-13757167D01*
X8817976Y-13776214D01*
X8817976Y-13880976D01*
X8817976Y-13776214D02*
X8827500Y-13757167D01*
X8846548Y-13747643D01*
X8875119Y-13747643D01*
X8894167Y-13757167D01*
X8903690Y-13776214D01*
X8903690Y-13880976D01*
X8998929Y-13880976D02*
X8998929Y-13747643D01*
X8998929Y-13766690D02*
X9008452Y-13757167D01*
X9027500Y-13747643D01*
X9056071Y-13747643D01*
X9075119Y-13757167D01*
X9084643Y-13776214D01*
X9084643Y-13880976D01*
X9084643Y-13776214D02*
X9094167Y-13757167D01*
X9113214Y-13747643D01*
X9141786Y-13747643D01*
X9160833Y-13757167D01*
X9170357Y-13776214D01*
X9170357Y-13880976D01*
X9560833Y-13671452D02*
X9389405Y-13928595D01*
X9817976Y-13680976D02*
X9837024Y-13680976D01*
X9856071Y-13690500D01*
X9865595Y-13700024D01*
X9875119Y-13719071D01*
X9884643Y-13757167D01*
X9884643Y-13804786D01*
X9875119Y-13842881D01*
X9865595Y-13861928D01*
X9856071Y-13871452D01*
X9837024Y-13880976D01*
X9817976Y-13880976D01*
X9798929Y-13871452D01*
X9789405Y-13861928D01*
X9779881Y-13842881D01*
X9770357Y-13804786D01*
X9770357Y-13757167D01*
X9779881Y-13719071D01*
X9789405Y-13700024D01*
X9798929Y-13690500D01*
X9817976Y-13680976D01*
X9970357Y-13861928D02*
X9979881Y-13871452D01*
X9970357Y-13880976D01*
X9960833Y-13871452D01*
X9970357Y-13861928D01*
X9970357Y-13880976D01*
X10103690Y-13680976D02*
X10122738Y-13680976D01*
X10141786Y-13690500D01*
X10151310Y-13700024D01*
X10160833Y-13719071D01*
X10170357Y-13757167D01*
X10170357Y-13804786D01*
X10160833Y-13842881D01*
X10151310Y-13861928D01*
X10141786Y-13871452D01*
X10122738Y-13880976D01*
X10103690Y-13880976D01*
X10084643Y-13871452D01*
X10075119Y-13861928D01*
X10065595Y-13842881D01*
X10056071Y-13804786D01*
X10056071Y-13757167D01*
X10065595Y-13719071D01*
X10075119Y-13700024D01*
X10084643Y-13690500D01*
X10103690Y-13680976D01*
X10237024Y-13680976D02*
X10360833Y-13680976D01*
X10294167Y-13757167D01*
X10322738Y-13757167D01*
X10341786Y-13766690D01*
X10351310Y-13776214D01*
X10360833Y-13795262D01*
X10360833Y-13842881D01*
X10351310Y-13861928D01*
X10341786Y-13871452D01*
X10322738Y-13880976D01*
X10265595Y-13880976D01*
X10246548Y-13871452D01*
X10237024Y-13861928D01*
X10456071Y-13880976D02*
X10494167Y-13880976D01*
X10513214Y-13871452D01*
X10522738Y-13861928D01*
X10541786Y-13833357D01*
X10551310Y-13795262D01*
X10551310Y-13719071D01*
X10541786Y-13700024D01*
X10532262Y-13690500D01*
X10513214Y-13680976D01*
X10475119Y-13680976D01*
X10456071Y-13690500D01*
X10446548Y-13700024D01*
X10437024Y-13719071D01*
X10437024Y-13766690D01*
X10446548Y-13785738D01*
X10456071Y-13795262D01*
X10475119Y-13804786D01*
X10513214Y-13804786D01*
X10532262Y-13795262D01*
X10541786Y-13785738D01*
X10551310Y-13766690D01*
X10722738Y-13747643D02*
X10722738Y-13880976D01*
X10675119Y-13671452D02*
X10627500Y-13814309D01*
X10751310Y-13814309D01*
X10817976Y-13680976D02*
X10817976Y-13719071D01*
X10894167Y-13680976D02*
X10894167Y-13719071D01*
X11189405Y-13957167D02*
X11179881Y-13947643D01*
X11160833Y-13919071D01*
X11151310Y-13900024D01*
X11141786Y-13871452D01*
X11132262Y-13823833D01*
X11132262Y-13785738D01*
X11141786Y-13738119D01*
X11151310Y-13709548D01*
X11160833Y-13690500D01*
X11179881Y-13661928D01*
X11189405Y-13652405D01*
X11370357Y-13880976D02*
X11256071Y-13880976D01*
X11313214Y-13880976D02*
X11313214Y-13680976D01*
X11294167Y-13709548D01*
X11275119Y-13728595D01*
X11256071Y-13738119D01*
X11484643Y-13766690D02*
X11465595Y-13757167D01*
X11456071Y-13747643D01*
X11446548Y-13728595D01*
X11446548Y-13719071D01*
X11456071Y-13700024D01*
X11465595Y-13690500D01*
X11484643Y-13680976D01*
X11522738Y-13680976D01*
X11541786Y-13690500D01*
X11551309Y-13700024D01*
X11560833Y-13719071D01*
X11560833Y-13728595D01*
X11551309Y-13747643D01*
X11541786Y-13757167D01*
X11522738Y-13766690D01*
X11484643Y-13766690D01*
X11465595Y-13776214D01*
X11456071Y-13785738D01*
X11446548Y-13804786D01*
X11446548Y-13842881D01*
X11456071Y-13861928D01*
X11465595Y-13871452D01*
X11484643Y-13880976D01*
X11522738Y-13880976D01*
X11541786Y-13871452D01*
X11551309Y-13861928D01*
X11560833Y-13842881D01*
X11560833Y-13804786D01*
X11551309Y-13785738D01*
X11541786Y-13776214D01*
X11522738Y-13766690D01*
X11798928Y-13880976D02*
X11798928Y-13680976D01*
X11884643Y-13880976D02*
X11884643Y-13776214D01*
X11875119Y-13757167D01*
X11856071Y-13747643D01*
X11827500Y-13747643D01*
X11808452Y-13757167D01*
X11798928Y-13766690D01*
X12008452Y-13880976D02*
X11989405Y-13871452D01*
X11979881Y-13861928D01*
X11970357Y-13842881D01*
X11970357Y-13785738D01*
X11979881Y-13766690D01*
X11989405Y-13757167D01*
X12008452Y-13747643D01*
X12037024Y-13747643D01*
X12056071Y-13757167D01*
X12065595Y-13766690D01*
X12075119Y-13785738D01*
X12075119Y-13842881D01*
X12065595Y-13861928D01*
X12056071Y-13871452D01*
X12037024Y-13880976D01*
X12008452Y-13880976D01*
X12189405Y-13880976D02*
X12170357Y-13871452D01*
X12160833Y-13852405D01*
X12160833Y-13680976D01*
X12341786Y-13871452D02*
X12322738Y-13880976D01*
X12284643Y-13880976D01*
X12265595Y-13871452D01*
X12256071Y-13852405D01*
X12256071Y-13776214D01*
X12265595Y-13757167D01*
X12284643Y-13747643D01*
X12322738Y-13747643D01*
X12341786Y-13757167D01*
X12351309Y-13776214D01*
X12351309Y-13795262D01*
X12256071Y-13814309D01*
X12427500Y-13871452D02*
X12446548Y-13880976D01*
X12484643Y-13880976D01*
X12503690Y-13871452D01*
X12513214Y-13852405D01*
X12513214Y-13842881D01*
X12503690Y-13823833D01*
X12484643Y-13814309D01*
X12456071Y-13814309D01*
X12437024Y-13804786D01*
X12427500Y-13785738D01*
X12427500Y-13776214D01*
X12437024Y-13757167D01*
X12456071Y-13747643D01*
X12484643Y-13747643D01*
X12503690Y-13757167D01*
X12579881Y-13957167D02*
X12589405Y-13947643D01*
X12608452Y-13919071D01*
X12617976Y-13900024D01*
X12627500Y-13871452D01*
X12637024Y-13823833D01*
X12637024Y-13785738D01*
X12627500Y-13738119D01*
X12617976Y-13709548D01*
X12608452Y-13690500D01*
X12589405Y-13661928D01*
X12579881Y-13652405D01*
D15*
X7601391Y-14093391D02*
X7601391Y-14015609D01*
X7523609Y-14015609D01*
X7523609Y-14093391D01*
X7601391Y-14093391D01*
D11*
X7979881Y-14144976D02*
X7865595Y-14144976D01*
X7922738Y-14144976D02*
X7922738Y-13944976D01*
X7903690Y-13973548D01*
X7884643Y-13992595D01*
X7865595Y-14002119D01*
X8065595Y-14125928D02*
X8075119Y-14135452D01*
X8065595Y-14144976D01*
X8056071Y-14135452D01*
X8065595Y-14125928D01*
X8065595Y-14144976D01*
X8265595Y-14144976D02*
X8151309Y-14144976D01*
X8208452Y-14144976D02*
X8208452Y-13944976D01*
X8189405Y-13973548D01*
X8170357Y-13992595D01*
X8151309Y-14002119D01*
X8389405Y-13944976D02*
X8408452Y-13944976D01*
X8427500Y-13954500D01*
X8437024Y-13964024D01*
X8446548Y-13983071D01*
X8456071Y-14021167D01*
X8456071Y-14068786D01*
X8446548Y-14106881D01*
X8437024Y-14125928D01*
X8427500Y-14135452D01*
X8408452Y-14144976D01*
X8389405Y-14144976D01*
X8370357Y-14135452D01*
X8360833Y-14125928D01*
X8351309Y-14106881D01*
X8341786Y-14068786D01*
X8341786Y-14021167D01*
X8351309Y-13983071D01*
X8360833Y-13964024D01*
X8370357Y-13954500D01*
X8389405Y-13944976D01*
X8579881Y-13944976D02*
X8598929Y-13944976D01*
X8617976Y-13954500D01*
X8627500Y-13964024D01*
X8637024Y-13983071D01*
X8646548Y-14021167D01*
X8646548Y-14068786D01*
X8637024Y-14106881D01*
X8627500Y-14125928D01*
X8617976Y-14135452D01*
X8598929Y-14144976D01*
X8579881Y-14144976D01*
X8560833Y-14135452D01*
X8551310Y-14125928D01*
X8541786Y-14106881D01*
X8532262Y-14068786D01*
X8532262Y-14021167D01*
X8541786Y-13983071D01*
X8551310Y-13964024D01*
X8560833Y-13954500D01*
X8579881Y-13944976D01*
X8732262Y-14144976D02*
X8732262Y-14011643D01*
X8732262Y-14030690D02*
X8741786Y-14021167D01*
X8760833Y-14011643D01*
X8789405Y-14011643D01*
X8808452Y-14021167D01*
X8817976Y-14040214D01*
X8817976Y-14144976D01*
X8817976Y-14040214D02*
X8827500Y-14021167D01*
X8846548Y-14011643D01*
X8875119Y-14011643D01*
X8894167Y-14021167D01*
X8903690Y-14040214D01*
X8903690Y-14144976D01*
X8998929Y-14144976D02*
X8998929Y-14011643D01*
X8998929Y-14030690D02*
X9008452Y-14021167D01*
X9027500Y-14011643D01*
X9056071Y-14011643D01*
X9075119Y-14021167D01*
X9084643Y-14040214D01*
X9084643Y-14144976D01*
X9084643Y-14040214D02*
X9094167Y-14021167D01*
X9113214Y-14011643D01*
X9141786Y-14011643D01*
X9160833Y-14021167D01*
X9170357Y-14040214D01*
X9170357Y-14144976D01*
X9560833Y-13935452D02*
X9389405Y-14192595D01*
X9817976Y-13944976D02*
X9837024Y-13944976D01*
X9856071Y-13954500D01*
X9865595Y-13964024D01*
X9875119Y-13983071D01*
X9884643Y-14021167D01*
X9884643Y-14068786D01*
X9875119Y-14106881D01*
X9865595Y-14125928D01*
X9856071Y-14135452D01*
X9837024Y-14144976D01*
X9817976Y-14144976D01*
X9798929Y-14135452D01*
X9789405Y-14125928D01*
X9779881Y-14106881D01*
X9770357Y-14068786D01*
X9770357Y-14021167D01*
X9779881Y-13983071D01*
X9789405Y-13964024D01*
X9798929Y-13954500D01*
X9817976Y-13944976D01*
X9970357Y-14125928D02*
X9979881Y-14135452D01*
X9970357Y-14144976D01*
X9960833Y-14135452D01*
X9970357Y-14125928D01*
X9970357Y-14144976D01*
X10103690Y-13944976D02*
X10122738Y-13944976D01*
X10141786Y-13954500D01*
X10151310Y-13964024D01*
X10160833Y-13983071D01*
X10170357Y-14021167D01*
X10170357Y-14068786D01*
X10160833Y-14106881D01*
X10151310Y-14125928D01*
X10141786Y-14135452D01*
X10122738Y-14144976D01*
X10103690Y-14144976D01*
X10084643Y-14135452D01*
X10075119Y-14125928D01*
X10065595Y-14106881D01*
X10056071Y-14068786D01*
X10056071Y-14021167D01*
X10065595Y-13983071D01*
X10075119Y-13964024D01*
X10084643Y-13954500D01*
X10103690Y-13944976D01*
X10341786Y-14011643D02*
X10341786Y-14144976D01*
X10294167Y-13935452D02*
X10246548Y-14078309D01*
X10370357Y-14078309D01*
X10427500Y-13944976D02*
X10551310Y-13944976D01*
X10484643Y-14021167D01*
X10513214Y-14021167D01*
X10532262Y-14030690D01*
X10541786Y-14040214D01*
X10551310Y-14059262D01*
X10551310Y-14106881D01*
X10541786Y-14125928D01*
X10532262Y-14135452D01*
X10513214Y-14144976D01*
X10456071Y-14144976D01*
X10437024Y-14135452D01*
X10427500Y-14125928D01*
X10617976Y-13944976D02*
X10741786Y-13944976D01*
X10675119Y-14021167D01*
X10703690Y-14021167D01*
X10722738Y-14030690D01*
X10732262Y-14040214D01*
X10741786Y-14059262D01*
X10741786Y-14106881D01*
X10732262Y-14125928D01*
X10722738Y-14135452D01*
X10703690Y-14144976D01*
X10646548Y-14144976D01*
X10627500Y-14135452D01*
X10617976Y-14125928D01*
X10817976Y-13944976D02*
X10817976Y-13983071D01*
X10894167Y-13944976D02*
X10894167Y-13983071D01*
X11189405Y-14221167D02*
X11179881Y-14211643D01*
X11160833Y-14183071D01*
X11151310Y-14164024D01*
X11141786Y-14135452D01*
X11132262Y-14087833D01*
X11132262Y-14049738D01*
X11141786Y-14002119D01*
X11151310Y-13973548D01*
X11160833Y-13954500D01*
X11179881Y-13925928D01*
X11189405Y-13916405D01*
X11370357Y-14144976D02*
X11256071Y-14144976D01*
X11313214Y-14144976D02*
X11313214Y-13944976D01*
X11294167Y-13973548D01*
X11275119Y-13992595D01*
X11256071Y-14002119D01*
X11608452Y-14144976D02*
X11608452Y-13944976D01*
X11694167Y-14144976D02*
X11694167Y-14040214D01*
X11684643Y-14021167D01*
X11665595Y-14011643D01*
X11637024Y-14011643D01*
X11617976Y-14021167D01*
X11608452Y-14030690D01*
X11817976Y-14144976D02*
X11798928Y-14135452D01*
X11789405Y-14125928D01*
X11779881Y-14106881D01*
X11779881Y-14049738D01*
X11789405Y-14030690D01*
X11798928Y-14021167D01*
X11817976Y-14011643D01*
X11846548Y-14011643D01*
X11865595Y-14021167D01*
X11875119Y-14030690D01*
X11884643Y-14049738D01*
X11884643Y-14106881D01*
X11875119Y-14125928D01*
X11865595Y-14135452D01*
X11846548Y-14144976D01*
X11817976Y-14144976D01*
X11998928Y-14144976D02*
X11979881Y-14135452D01*
X11970357Y-14116405D01*
X11970357Y-13944976D01*
X12151309Y-14135452D02*
X12132262Y-14144976D01*
X12094167Y-14144976D01*
X12075119Y-14135452D01*
X12065595Y-14116405D01*
X12065595Y-14040214D01*
X12075119Y-14021167D01*
X12094167Y-14011643D01*
X12132262Y-14011643D01*
X12151309Y-14021167D01*
X12160833Y-14040214D01*
X12160833Y-14059262D01*
X12065595Y-14078309D01*
X12227500Y-14221167D02*
X12237024Y-14211643D01*
X12256071Y-14183071D01*
X12265595Y-14164024D01*
X12275119Y-14135452D01*
X12284643Y-14087833D01*
X12284643Y-14049738D01*
X12275119Y-14002119D01*
X12265595Y-13973548D01*
X12256071Y-13954500D01*
X12237024Y-13925928D01*
X12227500Y-13916405D01*
D16*
X7557500Y-14378500D02*
X7617500Y-14318500D01*
X7557500Y-14258500D01*
X7497500Y-14318500D01*
X7557500Y-14378500D01*
D11*
X7979881Y-14408976D02*
X7865595Y-14408976D01*
X7922738Y-14408976D02*
X7922738Y-14208976D01*
X7903690Y-14237548D01*
X7884643Y-14256595D01*
X7865595Y-14266119D01*
X8065595Y-14389928D02*
X8075119Y-14399452D01*
X8065595Y-14408976D01*
X8056071Y-14399452D01*
X8065595Y-14389928D01*
X8065595Y-14408976D01*
X8151309Y-14228024D02*
X8160833Y-14218500D01*
X8179881Y-14208976D01*
X8227500Y-14208976D01*
X8246548Y-14218500D01*
X8256071Y-14228024D01*
X8265595Y-14247071D01*
X8265595Y-14266119D01*
X8256071Y-14294690D01*
X8141786Y-14408976D01*
X8265595Y-14408976D01*
X8389405Y-14208976D02*
X8408452Y-14208976D01*
X8427500Y-14218500D01*
X8437024Y-14228024D01*
X8446548Y-14247071D01*
X8456071Y-14285167D01*
X8456071Y-14332786D01*
X8446548Y-14370881D01*
X8437024Y-14389928D01*
X8427500Y-14399452D01*
X8408452Y-14408976D01*
X8389405Y-14408976D01*
X8370357Y-14399452D01*
X8360833Y-14389928D01*
X8351309Y-14370881D01*
X8341786Y-14332786D01*
X8341786Y-14285167D01*
X8351309Y-14247071D01*
X8360833Y-14228024D01*
X8370357Y-14218500D01*
X8389405Y-14208976D01*
X8579881Y-14208976D02*
X8598929Y-14208976D01*
X8617976Y-14218500D01*
X8627500Y-14228024D01*
X8637024Y-14247071D01*
X8646548Y-14285167D01*
X8646548Y-14332786D01*
X8637024Y-14370881D01*
X8627500Y-14389928D01*
X8617976Y-14399452D01*
X8598929Y-14408976D01*
X8579881Y-14408976D01*
X8560833Y-14399452D01*
X8551310Y-14389928D01*
X8541786Y-14370881D01*
X8532262Y-14332786D01*
X8532262Y-14285167D01*
X8541786Y-14247071D01*
X8551310Y-14228024D01*
X8560833Y-14218500D01*
X8579881Y-14208976D01*
X8732262Y-14408976D02*
X8732262Y-14275643D01*
X8732262Y-14294690D02*
X8741786Y-14285167D01*
X8760833Y-14275643D01*
X8789405Y-14275643D01*
X8808452Y-14285167D01*
X8817976Y-14304214D01*
X8817976Y-14408976D01*
X8817976Y-14304214D02*
X8827500Y-14285167D01*
X8846548Y-14275643D01*
X8875119Y-14275643D01*
X8894167Y-14285167D01*
X8903690Y-14304214D01*
X8903690Y-14408976D01*
X8998929Y-14408976D02*
X8998929Y-14275643D01*
X8998929Y-14294690D02*
X9008452Y-14285167D01*
X9027500Y-14275643D01*
X9056071Y-14275643D01*
X9075119Y-14285167D01*
X9084643Y-14304214D01*
X9084643Y-14408976D01*
X9084643Y-14304214D02*
X9094167Y-14285167D01*
X9113214Y-14275643D01*
X9141786Y-14275643D01*
X9160833Y-14285167D01*
X9170357Y-14304214D01*
X9170357Y-14408976D01*
X9560833Y-14199452D02*
X9389405Y-14456595D01*
X9817976Y-14208976D02*
X9837024Y-14208976D01*
X9856071Y-14218500D01*
X9865595Y-14228024D01*
X9875119Y-14247071D01*
X9884643Y-14285167D01*
X9884643Y-14332786D01*
X9875119Y-14370881D01*
X9865595Y-14389928D01*
X9856071Y-14399452D01*
X9837024Y-14408976D01*
X9817976Y-14408976D01*
X9798929Y-14399452D01*
X9789405Y-14389928D01*
X9779881Y-14370881D01*
X9770357Y-14332786D01*
X9770357Y-14285167D01*
X9779881Y-14247071D01*
X9789405Y-14228024D01*
X9798929Y-14218500D01*
X9817976Y-14208976D01*
X9970357Y-14389928D02*
X9979881Y-14399452D01*
X9970357Y-14408976D01*
X9960833Y-14399452D01*
X9970357Y-14389928D01*
X9970357Y-14408976D01*
X10103690Y-14208976D02*
X10122738Y-14208976D01*
X10141786Y-14218500D01*
X10151310Y-14228024D01*
X10160833Y-14247071D01*
X10170357Y-14285167D01*
X10170357Y-14332786D01*
X10160833Y-14370881D01*
X10151310Y-14389928D01*
X10141786Y-14399452D01*
X10122738Y-14408976D01*
X10103690Y-14408976D01*
X10084643Y-14399452D01*
X10075119Y-14389928D01*
X10065595Y-14370881D01*
X10056071Y-14332786D01*
X10056071Y-14285167D01*
X10065595Y-14247071D01*
X10075119Y-14228024D01*
X10084643Y-14218500D01*
X10103690Y-14208976D01*
X10341786Y-14275643D02*
X10341786Y-14408976D01*
X10294167Y-14199452D02*
X10246548Y-14342309D01*
X10370357Y-14342309D01*
X10427500Y-14208976D02*
X10560833Y-14208976D01*
X10475119Y-14408976D01*
X10627500Y-14228024D02*
X10637024Y-14218500D01*
X10656071Y-14208976D01*
X10703690Y-14208976D01*
X10722738Y-14218500D01*
X10732262Y-14228024D01*
X10741786Y-14247071D01*
X10741786Y-14266119D01*
X10732262Y-14294690D01*
X10617976Y-14408976D01*
X10741786Y-14408976D01*
X10817976Y-14208976D02*
X10817976Y-14247071D01*
X10894167Y-14208976D02*
X10894167Y-14247071D01*
X11189405Y-14485167D02*
X11179881Y-14475643D01*
X11160833Y-14447071D01*
X11151310Y-14428024D01*
X11141786Y-14399452D01*
X11132262Y-14351833D01*
X11132262Y-14313738D01*
X11141786Y-14266119D01*
X11151310Y-14237548D01*
X11160833Y-14218500D01*
X11179881Y-14189928D01*
X11189405Y-14180405D01*
X11370357Y-14408976D02*
X11256071Y-14408976D01*
X11313214Y-14408976D02*
X11313214Y-14208976D01*
X11294167Y-14237548D01*
X11275119Y-14256595D01*
X11256071Y-14266119D01*
X11494167Y-14208976D02*
X11513214Y-14208976D01*
X11532262Y-14218500D01*
X11541786Y-14228024D01*
X11551309Y-14247071D01*
X11560833Y-14285167D01*
X11560833Y-14332786D01*
X11551309Y-14370881D01*
X11541786Y-14389928D01*
X11532262Y-14399452D01*
X11513214Y-14408976D01*
X11494167Y-14408976D01*
X11475119Y-14399452D01*
X11465595Y-14389928D01*
X11456071Y-14370881D01*
X11446548Y-14332786D01*
X11446548Y-14285167D01*
X11456071Y-14247071D01*
X11465595Y-14228024D01*
X11475119Y-14218500D01*
X11494167Y-14208976D01*
X11798928Y-14408976D02*
X11798928Y-14208976D01*
X11884643Y-14408976D02*
X11884643Y-14304214D01*
X11875119Y-14285167D01*
X11856071Y-14275643D01*
X11827500Y-14275643D01*
X11808452Y-14285167D01*
X11798928Y-14294690D01*
X12008452Y-14408976D02*
X11989405Y-14399452D01*
X11979881Y-14389928D01*
X11970357Y-14370881D01*
X11970357Y-14313738D01*
X11979881Y-14294690D01*
X11989405Y-14285167D01*
X12008452Y-14275643D01*
X12037024Y-14275643D01*
X12056071Y-14285167D01*
X12065595Y-14294690D01*
X12075119Y-14313738D01*
X12075119Y-14370881D01*
X12065595Y-14389928D01*
X12056071Y-14399452D01*
X12037024Y-14408976D01*
X12008452Y-14408976D01*
X12189405Y-14408976D02*
X12170357Y-14399452D01*
X12160833Y-14380405D01*
X12160833Y-14208976D01*
X12341786Y-14399452D02*
X12322738Y-14408976D01*
X12284643Y-14408976D01*
X12265595Y-14399452D01*
X12256071Y-14380405D01*
X12256071Y-14304214D01*
X12265595Y-14285167D01*
X12284643Y-14275643D01*
X12322738Y-14275643D01*
X12341786Y-14285167D01*
X12351309Y-14304214D01*
X12351309Y-14323262D01*
X12256071Y-14342309D01*
X12427500Y-14399452D02*
X12446548Y-14408976D01*
X12484643Y-14408976D01*
X12503690Y-14399452D01*
X12513214Y-14380405D01*
X12513214Y-14370881D01*
X12503690Y-14351833D01*
X12484643Y-14342309D01*
X12456071Y-14342309D01*
X12437024Y-14332786D01*
X12427500Y-14313738D01*
X12427500Y-14304214D01*
X12437024Y-14285167D01*
X12456071Y-14275643D01*
X12484643Y-14275643D01*
X12503690Y-14285167D01*
X12579881Y-14485167D02*
X12589405Y-14475643D01*
X12608452Y-14447071D01*
X12617976Y-14428024D01*
X12627500Y-14399452D01*
X12637024Y-14351833D01*
X12637024Y-14313738D01*
X12627500Y-14266119D01*
X12617976Y-14237548D01*
X12608452Y-14218500D01*
X12589405Y-14189928D01*
X12579881Y-14180405D01*
X7417500Y-14482500D02*
X7617500Y-14682500D01*
X7617500Y-14482500D02*
X7417500Y-14682500D01*
X7617500Y-14582500D02*
G75*
G03*
X7617500Y-14582500I-100000J0D01*
G01*
X7865595Y-14492024D02*
X7875119Y-14482500D01*
X7894167Y-14472976D01*
X7941786Y-14472976D01*
X7960833Y-14482500D01*
X7970357Y-14492024D01*
X7979881Y-14511071D01*
X7979881Y-14530119D01*
X7970357Y-14558690D01*
X7856071Y-14672976D01*
X7979881Y-14672976D01*
X8065595Y-14653928D02*
X8075119Y-14663452D01*
X8065595Y-14672976D01*
X8056071Y-14663452D01*
X8065595Y-14653928D01*
X8065595Y-14672976D01*
X8265595Y-14672976D02*
X8151309Y-14672976D01*
X8208452Y-14672976D02*
X8208452Y-14472976D01*
X8189405Y-14501548D01*
X8170357Y-14520595D01*
X8151309Y-14530119D01*
X8389405Y-14472976D02*
X8408452Y-14472976D01*
X8427500Y-14482500D01*
X8437024Y-14492024D01*
X8446548Y-14511071D01*
X8456071Y-14549167D01*
X8456071Y-14596786D01*
X8446548Y-14634881D01*
X8437024Y-14653928D01*
X8427500Y-14663452D01*
X8408452Y-14672976D01*
X8389405Y-14672976D01*
X8370357Y-14663452D01*
X8360833Y-14653928D01*
X8351309Y-14634881D01*
X8341786Y-14596786D01*
X8341786Y-14549167D01*
X8351309Y-14511071D01*
X8360833Y-14492024D01*
X8370357Y-14482500D01*
X8389405Y-14472976D01*
X8579881Y-14472976D02*
X8598929Y-14472976D01*
X8617976Y-14482500D01*
X8627500Y-14492024D01*
X8637024Y-14511071D01*
X8646548Y-14549167D01*
X8646548Y-14596786D01*
X8637024Y-14634881D01*
X8627500Y-14653928D01*
X8617976Y-14663452D01*
X8598929Y-14672976D01*
X8579881Y-14672976D01*
X8560833Y-14663452D01*
X8551310Y-14653928D01*
X8541786Y-14634881D01*
X8532262Y-14596786D01*
X8532262Y-14549167D01*
X8541786Y-14511071D01*
X8551310Y-14492024D01*
X8560833Y-14482500D01*
X8579881Y-14472976D01*
X8732262Y-14672976D02*
X8732262Y-14539643D01*
X8732262Y-14558690D02*
X8741786Y-14549167D01*
X8760833Y-14539643D01*
X8789405Y-14539643D01*
X8808452Y-14549167D01*
X8817976Y-14568214D01*
X8817976Y-14672976D01*
X8817976Y-14568214D02*
X8827500Y-14549167D01*
X8846548Y-14539643D01*
X8875119Y-14539643D01*
X8894167Y-14549167D01*
X8903690Y-14568214D01*
X8903690Y-14672976D01*
X8998929Y-14672976D02*
X8998929Y-14539643D01*
X8998929Y-14558690D02*
X9008452Y-14549167D01*
X9027500Y-14539643D01*
X9056071Y-14539643D01*
X9075119Y-14549167D01*
X9084643Y-14568214D01*
X9084643Y-14672976D01*
X9084643Y-14568214D02*
X9094167Y-14549167D01*
X9113214Y-14539643D01*
X9141786Y-14539643D01*
X9160833Y-14549167D01*
X9170357Y-14568214D01*
X9170357Y-14672976D01*
X9560833Y-14463452D02*
X9389405Y-14720595D01*
X9817976Y-14472976D02*
X9837024Y-14472976D01*
X9856071Y-14482500D01*
X9865595Y-14492024D01*
X9875119Y-14511071D01*
X9884643Y-14549167D01*
X9884643Y-14596786D01*
X9875119Y-14634881D01*
X9865595Y-14653928D01*
X9856071Y-14663452D01*
X9837024Y-14672976D01*
X9817976Y-14672976D01*
X9798929Y-14663452D01*
X9789405Y-14653928D01*
X9779881Y-14634881D01*
X9770357Y-14596786D01*
X9770357Y-14549167D01*
X9779881Y-14511071D01*
X9789405Y-14492024D01*
X9798929Y-14482500D01*
X9817976Y-14472976D01*
X9970357Y-14653928D02*
X9979881Y-14663452D01*
X9970357Y-14672976D01*
X9960833Y-14663452D01*
X9970357Y-14653928D01*
X9970357Y-14672976D01*
X10103690Y-14472976D02*
X10122738Y-14472976D01*
X10141786Y-14482500D01*
X10151310Y-14492024D01*
X10160833Y-14511071D01*
X10170357Y-14549167D01*
X10170357Y-14596786D01*
X10160833Y-14634881D01*
X10151310Y-14653928D01*
X10141786Y-14663452D01*
X10122738Y-14672976D01*
X10103690Y-14672976D01*
X10084643Y-14663452D01*
X10075119Y-14653928D01*
X10065595Y-14634881D01*
X10056071Y-14596786D01*
X10056071Y-14549167D01*
X10065595Y-14511071D01*
X10075119Y-14492024D01*
X10084643Y-14482500D01*
X10103690Y-14472976D01*
X10284643Y-14558690D02*
X10265595Y-14549167D01*
X10256071Y-14539643D01*
X10246548Y-14520595D01*
X10246548Y-14511071D01*
X10256071Y-14492024D01*
X10265595Y-14482500D01*
X10284643Y-14472976D01*
X10322738Y-14472976D01*
X10341786Y-14482500D01*
X10351310Y-14492024D01*
X10360833Y-14511071D01*
X10360833Y-14520595D01*
X10351310Y-14539643D01*
X10341786Y-14549167D01*
X10322738Y-14558690D01*
X10284643Y-14558690D01*
X10265595Y-14568214D01*
X10256071Y-14577738D01*
X10246548Y-14596786D01*
X10246548Y-14634881D01*
X10256071Y-14653928D01*
X10265595Y-14663452D01*
X10284643Y-14672976D01*
X10322738Y-14672976D01*
X10341786Y-14663452D01*
X10351310Y-14653928D01*
X10360833Y-14634881D01*
X10360833Y-14596786D01*
X10351310Y-14577738D01*
X10341786Y-14568214D01*
X10322738Y-14558690D01*
X10437024Y-14492024D02*
X10446548Y-14482500D01*
X10465595Y-14472976D01*
X10513214Y-14472976D01*
X10532262Y-14482500D01*
X10541786Y-14492024D01*
X10551310Y-14511071D01*
X10551310Y-14530119D01*
X10541786Y-14558690D01*
X10427500Y-14672976D01*
X10551310Y-14672976D01*
X10617976Y-14472976D02*
X10751310Y-14472976D01*
X10665595Y-14672976D01*
X10817976Y-14472976D02*
X10817976Y-14511071D01*
X10894167Y-14472976D02*
X10894167Y-14511071D01*
X11189405Y-14749167D02*
X11179881Y-14739643D01*
X11160833Y-14711071D01*
X11151310Y-14692024D01*
X11141786Y-14663452D01*
X11132262Y-14615833D01*
X11132262Y-14577738D01*
X11141786Y-14530119D01*
X11151310Y-14501548D01*
X11160833Y-14482500D01*
X11179881Y-14453928D01*
X11189405Y-14444405D01*
X11303690Y-14472976D02*
X11322738Y-14472976D01*
X11341786Y-14482500D01*
X11351309Y-14492024D01*
X11360833Y-14511071D01*
X11370357Y-14549167D01*
X11370357Y-14596786D01*
X11360833Y-14634881D01*
X11351309Y-14653928D01*
X11341786Y-14663452D01*
X11322738Y-14672976D01*
X11303690Y-14672976D01*
X11284643Y-14663452D01*
X11275119Y-14653928D01*
X11265595Y-14634881D01*
X11256071Y-14596786D01*
X11256071Y-14549167D01*
X11265595Y-14511071D01*
X11275119Y-14492024D01*
X11284643Y-14482500D01*
X11303690Y-14472976D01*
X11608452Y-14672976D02*
X11608452Y-14472976D01*
X11694167Y-14672976D02*
X11694167Y-14568214D01*
X11684643Y-14549167D01*
X11665595Y-14539643D01*
X11637024Y-14539643D01*
X11617976Y-14549167D01*
X11608452Y-14558690D01*
X11817976Y-14672976D02*
X11798928Y-14663452D01*
X11789405Y-14653928D01*
X11779881Y-14634881D01*
X11779881Y-14577738D01*
X11789405Y-14558690D01*
X11798928Y-14549167D01*
X11817976Y-14539643D01*
X11846548Y-14539643D01*
X11865595Y-14549167D01*
X11875119Y-14558690D01*
X11884643Y-14577738D01*
X11884643Y-14634881D01*
X11875119Y-14653928D01*
X11865595Y-14663452D01*
X11846548Y-14672976D01*
X11817976Y-14672976D01*
X11998928Y-14672976D02*
X11979881Y-14663452D01*
X11970357Y-14644405D01*
X11970357Y-14472976D01*
X12151309Y-14663452D02*
X12132262Y-14672976D01*
X12094167Y-14672976D01*
X12075119Y-14663452D01*
X12065595Y-14644405D01*
X12065595Y-14568214D01*
X12075119Y-14549167D01*
X12094167Y-14539643D01*
X12132262Y-14539643D01*
X12151309Y-14549167D01*
X12160833Y-14568214D01*
X12160833Y-14587262D01*
X12065595Y-14606309D01*
X12237024Y-14663452D02*
X12256071Y-14672976D01*
X12294167Y-14672976D01*
X12313214Y-14663452D01*
X12322738Y-14644405D01*
X12322738Y-14634881D01*
X12313214Y-14615833D01*
X12294167Y-14606309D01*
X12265595Y-14606309D01*
X12246548Y-14596786D01*
X12237024Y-14577738D01*
X12237024Y-14568214D01*
X12246548Y-14549167D01*
X12265595Y-14539643D01*
X12294167Y-14539643D01*
X12313214Y-14549167D01*
X12560833Y-14596786D02*
X12713214Y-14596786D01*
X12637024Y-14672976D02*
X12637024Y-14520595D01*
X12951309Y-14492024D02*
X12960833Y-14482500D01*
X12979881Y-14472976D01*
X13027500Y-14472976D01*
X13046548Y-14482500D01*
X13056071Y-14492024D01*
X13065595Y-14511071D01*
X13065595Y-14530119D01*
X13056071Y-14558690D01*
X12941786Y-14672976D01*
X13065595Y-14672976D01*
X13294167Y-14663452D02*
X13313214Y-14672976D01*
X13351309Y-14672976D01*
X13370357Y-14663452D01*
X13379881Y-14644405D01*
X13379881Y-14634881D01*
X13370357Y-14615833D01*
X13351309Y-14606309D01*
X13322738Y-14606309D01*
X13303690Y-14596786D01*
X13294167Y-14577738D01*
X13294167Y-14568214D01*
X13303690Y-14549167D01*
X13322738Y-14539643D01*
X13351309Y-14539643D01*
X13370357Y-14549167D01*
X13494167Y-14672976D02*
X13475119Y-14663452D01*
X13465595Y-14644405D01*
X13465595Y-14472976D01*
X13598928Y-14672976D02*
X13579881Y-14663452D01*
X13570357Y-14653928D01*
X13560833Y-14634881D01*
X13560833Y-14577738D01*
X13570357Y-14558690D01*
X13579881Y-14549167D01*
X13598928Y-14539643D01*
X13627500Y-14539643D01*
X13646548Y-14549167D01*
X13656071Y-14558690D01*
X13665595Y-14577738D01*
X13665595Y-14634881D01*
X13656071Y-14653928D01*
X13646548Y-14663452D01*
X13627500Y-14672976D01*
X13598928Y-14672976D01*
X13722738Y-14539643D02*
X13798928Y-14539643D01*
X13751309Y-14472976D02*
X13751309Y-14644405D01*
X13760833Y-14663452D01*
X13779881Y-14672976D01*
X13798928Y-14672976D01*
X13856071Y-14663452D02*
X13875119Y-14672976D01*
X13913214Y-14672976D01*
X13932262Y-14663452D01*
X13941786Y-14644405D01*
X13941786Y-14634881D01*
X13932262Y-14615833D01*
X13913214Y-14606309D01*
X13884643Y-14606309D01*
X13865595Y-14596786D01*
X13856071Y-14577738D01*
X13856071Y-14568214D01*
X13865595Y-14549167D01*
X13884643Y-14539643D01*
X13913214Y-14539643D01*
X13932262Y-14549167D01*
X14008452Y-14749167D02*
X14017976Y-14739643D01*
X14037024Y-14711071D01*
X14046548Y-14692024D01*
X14056071Y-14663452D01*
X14065595Y-14615833D01*
X14065595Y-14577738D01*
X14056071Y-14530119D01*
X14046548Y-14501548D01*
X14037024Y-14482500D01*
X14017976Y-14453928D01*
X14008452Y-14444405D01*
M02*
