G04 #@! TF.GenerationSoftware,KiCad,Pcbnew,5.1.10*
G04 #@! TF.CreationDate,2022-01-01T15:26:54+02:00*
G04 #@! TF.ProjectId,pwm-controller,70776d2d-636f-46e7-9472-6f6c6c65722e,rev?*
G04 #@! TF.SameCoordinates,Original*
G04 #@! TF.FileFunction,Copper,L1,Top*
G04 #@! TF.FilePolarity,Positive*
%FSLAX46Y46*%
G04 Gerber Fmt 4.6, Leading zero omitted, Abs format (unit mm)*
G04 Created by KiCad (PCBNEW 5.1.10) date 2022-01-01 15:26:54*
%MOMM*%
%LPD*%
G01*
G04 APERTURE LIST*
G04 #@! TA.AperFunction,SMDPad,CuDef*
%ADD10C,0.100000*%
G04 #@! TD*
G04 #@! TA.AperFunction,SMDPad,CuDef*
%ADD11R,0.405000X0.990000*%
G04 #@! TD*
G04 #@! TA.AperFunction,ComponentPad*
%ADD12C,2.200000*%
G04 #@! TD*
G04 #@! TA.AperFunction,ComponentPad*
%ADD13C,1.500000*%
G04 #@! TD*
G04 #@! TA.AperFunction,SMDPad,CuDef*
%ADD14R,1.200000X0.900000*%
G04 #@! TD*
G04 #@! TA.AperFunction,ComponentPad*
%ADD15O,1.700000X1.700000*%
G04 #@! TD*
G04 #@! TA.AperFunction,ComponentPad*
%ADD16R,1.700000X1.700000*%
G04 #@! TD*
G04 #@! TA.AperFunction,ComponentPad*
%ADD17C,1.800000*%
G04 #@! TD*
G04 #@! TA.AperFunction,SMDPad,CuDef*
%ADD18R,0.800000X0.900000*%
G04 #@! TD*
G04 #@! TA.AperFunction,SMDPad,CuDef*
%ADD19R,0.900000X1.300000*%
G04 #@! TD*
G04 #@! TA.AperFunction,SMDPad,CuDef*
%ADD20R,0.900000X0.800000*%
G04 #@! TD*
G04 #@! TA.AperFunction,ViaPad*
%ADD21C,0.600000*%
G04 #@! TD*
G04 #@! TA.AperFunction,Conductor*
%ADD22C,0.200000*%
G04 #@! TD*
G04 #@! TA.AperFunction,Conductor*
%ADD23C,0.254000*%
G04 #@! TD*
G04 #@! TA.AperFunction,Conductor*
%ADD24C,0.100000*%
G04 #@! TD*
G04 #@! TA.AperFunction,Conductor*
%ADD25C,0.250000*%
G04 #@! TD*
G04 APERTURE END LIST*
G04 #@! TA.AperFunction,SMDPad,CuDef*
G36*
G01*
X80701000Y-90936000D02*
X80701000Y-91436000D01*
G75*
G02*
X80476000Y-91661000I-225000J0D01*
G01*
X80026000Y-91661000D01*
G75*
G02*
X79801000Y-91436000I0J225000D01*
G01*
X79801000Y-90936000D01*
G75*
G02*
X80026000Y-90711000I225000J0D01*
G01*
X80476000Y-90711000D01*
G75*
G02*
X80701000Y-90936000I0J-225000D01*
G01*
G37*
G04 #@! TD.AperFunction*
G04 #@! TA.AperFunction,SMDPad,CuDef*
G36*
G01*
X82251000Y-90936000D02*
X82251000Y-91436000D01*
G75*
G02*
X82026000Y-91661000I-225000J0D01*
G01*
X81576000Y-91661000D01*
G75*
G02*
X81351000Y-91436000I0J225000D01*
G01*
X81351000Y-90936000D01*
G75*
G02*
X81576000Y-90711000I225000J0D01*
G01*
X82026000Y-90711000D01*
G75*
G02*
X82251000Y-90936000I0J-225000D01*
G01*
G37*
G04 #@! TD.AperFunction*
G04 #@! TA.AperFunction,SMDPad,CuDef*
G36*
G01*
X81734000Y-90086000D02*
X81734000Y-89746000D01*
G75*
G02*
X81874000Y-89606000I140000J0D01*
G01*
X82154000Y-89606000D01*
G75*
G02*
X82294000Y-89746000I0J-140000D01*
G01*
X82294000Y-90086000D01*
G75*
G02*
X82154000Y-90226000I-140000J0D01*
G01*
X81874000Y-90226000D01*
G75*
G02*
X81734000Y-90086000I0J140000D01*
G01*
G37*
G04 #@! TD.AperFunction*
G04 #@! TA.AperFunction,SMDPad,CuDef*
G36*
G01*
X80774000Y-90086000D02*
X80774000Y-89746000D01*
G75*
G02*
X80914000Y-89606000I140000J0D01*
G01*
X81194000Y-89606000D01*
G75*
G02*
X81334000Y-89746000I0J-140000D01*
G01*
X81334000Y-90086000D01*
G75*
G02*
X81194000Y-90226000I-140000J0D01*
G01*
X80914000Y-90226000D01*
G75*
G02*
X80774000Y-90086000I0J140000D01*
G01*
G37*
G04 #@! TD.AperFunction*
G04 #@! TA.AperFunction,SMDPad,CuDef*
G36*
G01*
X79742000Y-87307000D02*
X79742000Y-86937000D01*
G75*
G02*
X79877000Y-86802000I135000J0D01*
G01*
X80147000Y-86802000D01*
G75*
G02*
X80282000Y-86937000I0J-135000D01*
G01*
X80282000Y-87307000D01*
G75*
G02*
X80147000Y-87442000I-135000J0D01*
G01*
X79877000Y-87442000D01*
G75*
G02*
X79742000Y-87307000I0J135000D01*
G01*
G37*
G04 #@! TD.AperFunction*
G04 #@! TA.AperFunction,SMDPad,CuDef*
G36*
G01*
X78722000Y-87307000D02*
X78722000Y-86937000D01*
G75*
G02*
X78857000Y-86802000I135000J0D01*
G01*
X79127000Y-86802000D01*
G75*
G02*
X79262000Y-86937000I0J-135000D01*
G01*
X79262000Y-87307000D01*
G75*
G02*
X79127000Y-87442000I-135000J0D01*
G01*
X78857000Y-87442000D01*
G75*
G02*
X78722000Y-87307000I0J135000D01*
G01*
G37*
G04 #@! TD.AperFunction*
G04 #@! TA.AperFunction,SMDPad,CuDef*
G36*
G01*
X81774000Y-87269000D02*
X81774000Y-86899000D01*
G75*
G02*
X81909000Y-86764000I135000J0D01*
G01*
X82179000Y-86764000D01*
G75*
G02*
X82314000Y-86899000I0J-135000D01*
G01*
X82314000Y-87269000D01*
G75*
G02*
X82179000Y-87404000I-135000J0D01*
G01*
X81909000Y-87404000D01*
G75*
G02*
X81774000Y-87269000I0J135000D01*
G01*
G37*
G04 #@! TD.AperFunction*
G04 #@! TA.AperFunction,SMDPad,CuDef*
G36*
G01*
X80754000Y-87269000D02*
X80754000Y-86899000D01*
G75*
G02*
X80889000Y-86764000I135000J0D01*
G01*
X81159000Y-86764000D01*
G75*
G02*
X81294000Y-86899000I0J-135000D01*
G01*
X81294000Y-87269000D01*
G75*
G02*
X81159000Y-87404000I-135000J0D01*
G01*
X80889000Y-87404000D01*
G75*
G02*
X80754000Y-87269000I0J135000D01*
G01*
G37*
G04 #@! TD.AperFunction*
G04 #@! TA.AperFunction,SMDPad,CuDef*
G36*
G01*
X81774000Y-86253000D02*
X81774000Y-85883000D01*
G75*
G02*
X81909000Y-85748000I135000J0D01*
G01*
X82179000Y-85748000D01*
G75*
G02*
X82314000Y-85883000I0J-135000D01*
G01*
X82314000Y-86253000D01*
G75*
G02*
X82179000Y-86388000I-135000J0D01*
G01*
X81909000Y-86388000D01*
G75*
G02*
X81774000Y-86253000I0J135000D01*
G01*
G37*
G04 #@! TD.AperFunction*
G04 #@! TA.AperFunction,SMDPad,CuDef*
G36*
G01*
X80754000Y-86253000D02*
X80754000Y-85883000D01*
G75*
G02*
X80889000Y-85748000I135000J0D01*
G01*
X81159000Y-85748000D01*
G75*
G02*
X81294000Y-85883000I0J-135000D01*
G01*
X81294000Y-86253000D01*
G75*
G02*
X81159000Y-86388000I-135000J0D01*
G01*
X80889000Y-86388000D01*
G75*
G02*
X80754000Y-86253000I0J135000D01*
G01*
G37*
G04 #@! TD.AperFunction*
G04 #@! TA.AperFunction,SMDPad,CuDef*
G36*
G01*
X90239000Y-95490000D02*
X90609000Y-95490000D01*
G75*
G02*
X90744000Y-95625000I0J-135000D01*
G01*
X90744000Y-95895000D01*
G75*
G02*
X90609000Y-96030000I-135000J0D01*
G01*
X90239000Y-96030000D01*
G75*
G02*
X90104000Y-95895000I0J135000D01*
G01*
X90104000Y-95625000D01*
G75*
G02*
X90239000Y-95490000I135000J0D01*
G01*
G37*
G04 #@! TD.AperFunction*
G04 #@! TA.AperFunction,SMDPad,CuDef*
G36*
G01*
X90239000Y-94470000D02*
X90609000Y-94470000D01*
G75*
G02*
X90744000Y-94605000I0J-135000D01*
G01*
X90744000Y-94875000D01*
G75*
G02*
X90609000Y-95010000I-135000J0D01*
G01*
X90239000Y-95010000D01*
G75*
G02*
X90104000Y-94875000I0J135000D01*
G01*
X90104000Y-94605000D01*
G75*
G02*
X90239000Y-94470000I135000J0D01*
G01*
G37*
G04 #@! TD.AperFunction*
G04 #@! TA.AperFunction,SMDPad,CuDef*
D10*
G36*
X104927500Y-112420000D02*
G01*
X104927500Y-111910000D01*
X104672500Y-111910000D01*
X104672500Y-112420000D01*
X104267500Y-112420000D01*
X104267500Y-111910000D01*
X104012500Y-111910000D01*
X104012500Y-112420000D01*
X103607500Y-112420000D01*
X103607500Y-111910000D01*
X103352500Y-111910000D01*
X103352500Y-112420000D01*
X102945000Y-112420000D01*
X102945000Y-111660000D01*
X103022500Y-111660000D01*
X103022500Y-110185000D01*
X105257500Y-110185000D01*
X105257500Y-111660000D01*
X105335000Y-111660000D01*
X105335000Y-112420000D01*
X104927500Y-112420000D01*
G37*
G04 #@! TD.AperFunction*
D11*
X103150000Y-109055000D03*
X103810000Y-109055000D03*
X104470000Y-109055000D03*
X105130000Y-109055000D03*
G04 #@! TA.AperFunction,SMDPad,CuDef*
D10*
G36*
X118135500Y-112420000D02*
G01*
X118135500Y-111910000D01*
X117880500Y-111910000D01*
X117880500Y-112420000D01*
X117475500Y-112420000D01*
X117475500Y-111910000D01*
X117220500Y-111910000D01*
X117220500Y-112420000D01*
X116815500Y-112420000D01*
X116815500Y-111910000D01*
X116560500Y-111910000D01*
X116560500Y-112420000D01*
X116153000Y-112420000D01*
X116153000Y-111660000D01*
X116230500Y-111660000D01*
X116230500Y-110185000D01*
X118465500Y-110185000D01*
X118465500Y-111660000D01*
X118543000Y-111660000D01*
X118543000Y-112420000D01*
X118135500Y-112420000D01*
G37*
G04 #@! TD.AperFunction*
D11*
X116358000Y-109055000D03*
X117018000Y-109055000D03*
X117678000Y-109055000D03*
X118338000Y-109055000D03*
G04 #@! TA.AperFunction,SMDPad,CuDef*
G36*
G01*
X97605000Y-95490000D02*
X97975000Y-95490000D01*
G75*
G02*
X98110000Y-95625000I0J-135000D01*
G01*
X98110000Y-95895000D01*
G75*
G02*
X97975000Y-96030000I-135000J0D01*
G01*
X97605000Y-96030000D01*
G75*
G02*
X97470000Y-95895000I0J135000D01*
G01*
X97470000Y-95625000D01*
G75*
G02*
X97605000Y-95490000I135000J0D01*
G01*
G37*
G04 #@! TD.AperFunction*
G04 #@! TA.AperFunction,SMDPad,CuDef*
G36*
G01*
X97605000Y-94470000D02*
X97975000Y-94470000D01*
G75*
G02*
X98110000Y-94605000I0J-135000D01*
G01*
X98110000Y-94875000D01*
G75*
G02*
X97975000Y-95010000I-135000J0D01*
G01*
X97605000Y-95010000D01*
G75*
G02*
X97470000Y-94875000I0J135000D01*
G01*
X97470000Y-94605000D01*
G75*
G02*
X97605000Y-94470000I135000J0D01*
G01*
G37*
G04 #@! TD.AperFunction*
G04 #@! TA.AperFunction,SMDPad,CuDef*
G36*
G01*
X96589000Y-95490000D02*
X96959000Y-95490000D01*
G75*
G02*
X97094000Y-95625000I0J-135000D01*
G01*
X97094000Y-95895000D01*
G75*
G02*
X96959000Y-96030000I-135000J0D01*
G01*
X96589000Y-96030000D01*
G75*
G02*
X96454000Y-95895000I0J135000D01*
G01*
X96454000Y-95625000D01*
G75*
G02*
X96589000Y-95490000I135000J0D01*
G01*
G37*
G04 #@! TD.AperFunction*
G04 #@! TA.AperFunction,SMDPad,CuDef*
G36*
G01*
X96589000Y-94470000D02*
X96959000Y-94470000D01*
G75*
G02*
X97094000Y-94605000I0J-135000D01*
G01*
X97094000Y-94875000D01*
G75*
G02*
X96959000Y-95010000I-135000J0D01*
G01*
X96589000Y-95010000D01*
G75*
G02*
X96454000Y-94875000I0J135000D01*
G01*
X96454000Y-94605000D01*
G75*
G02*
X96589000Y-94470000I135000J0D01*
G01*
G37*
G04 #@! TD.AperFunction*
G04 #@! TA.AperFunction,SMDPad,CuDef*
G36*
G01*
X89223000Y-95490000D02*
X89593000Y-95490000D01*
G75*
G02*
X89728000Y-95625000I0J-135000D01*
G01*
X89728000Y-95895000D01*
G75*
G02*
X89593000Y-96030000I-135000J0D01*
G01*
X89223000Y-96030000D01*
G75*
G02*
X89088000Y-95895000I0J135000D01*
G01*
X89088000Y-95625000D01*
G75*
G02*
X89223000Y-95490000I135000J0D01*
G01*
G37*
G04 #@! TD.AperFunction*
G04 #@! TA.AperFunction,SMDPad,CuDef*
G36*
G01*
X89223000Y-94470000D02*
X89593000Y-94470000D01*
G75*
G02*
X89728000Y-94605000I0J-135000D01*
G01*
X89728000Y-94875000D01*
G75*
G02*
X89593000Y-95010000I-135000J0D01*
G01*
X89223000Y-95010000D01*
G75*
G02*
X89088000Y-94875000I0J135000D01*
G01*
X89088000Y-94605000D01*
G75*
G02*
X89223000Y-94470000I135000J0D01*
G01*
G37*
G04 #@! TD.AperFunction*
G04 #@! TA.AperFunction,SMDPad,CuDef*
G36*
G01*
X92724000Y-85883000D02*
X92724000Y-86253000D01*
G75*
G02*
X92589000Y-86388000I-135000J0D01*
G01*
X92319000Y-86388000D01*
G75*
G02*
X92184000Y-86253000I0J135000D01*
G01*
X92184000Y-85883000D01*
G75*
G02*
X92319000Y-85748000I135000J0D01*
G01*
X92589000Y-85748000D01*
G75*
G02*
X92724000Y-85883000I0J-135000D01*
G01*
G37*
G04 #@! TD.AperFunction*
G04 #@! TA.AperFunction,SMDPad,CuDef*
G36*
G01*
X93744000Y-85883000D02*
X93744000Y-86253000D01*
G75*
G02*
X93609000Y-86388000I-135000J0D01*
G01*
X93339000Y-86388000D01*
G75*
G02*
X93204000Y-86253000I0J135000D01*
G01*
X93204000Y-85883000D01*
G75*
G02*
X93339000Y-85748000I135000J0D01*
G01*
X93609000Y-85748000D01*
G75*
G02*
X93744000Y-85883000I0J-135000D01*
G01*
G37*
G04 #@! TD.AperFunction*
X99542000Y-109055000D03*
X98882000Y-109055000D03*
X98222000Y-109055000D03*
X97562000Y-109055000D03*
G04 #@! TA.AperFunction,SMDPad,CuDef*
D10*
G36*
X99339500Y-112420000D02*
G01*
X99339500Y-111910000D01*
X99084500Y-111910000D01*
X99084500Y-112420000D01*
X98679500Y-112420000D01*
X98679500Y-111910000D01*
X98424500Y-111910000D01*
X98424500Y-112420000D01*
X98019500Y-112420000D01*
X98019500Y-111910000D01*
X97764500Y-111910000D01*
X97764500Y-112420000D01*
X97357000Y-112420000D01*
X97357000Y-111660000D01*
X97434500Y-111660000D01*
X97434500Y-110185000D01*
X99669500Y-110185000D01*
X99669500Y-111660000D01*
X99747000Y-111660000D01*
X99747000Y-112420000D01*
X99339500Y-112420000D01*
G37*
G04 #@! TD.AperFunction*
D11*
X112750000Y-109055000D03*
X112090000Y-109055000D03*
X111430000Y-109055000D03*
X110770000Y-109055000D03*
G04 #@! TA.AperFunction,SMDPad,CuDef*
D10*
G36*
X112547500Y-112420000D02*
G01*
X112547500Y-111910000D01*
X112292500Y-111910000D01*
X112292500Y-112420000D01*
X111887500Y-112420000D01*
X111887500Y-111910000D01*
X111632500Y-111910000D01*
X111632500Y-112420000D01*
X111227500Y-112420000D01*
X111227500Y-111910000D01*
X110972500Y-111910000D01*
X110972500Y-112420000D01*
X110565000Y-112420000D01*
X110565000Y-111660000D01*
X110642500Y-111660000D01*
X110642500Y-110185000D01*
X112877500Y-110185000D01*
X112877500Y-111660000D01*
X112955000Y-111660000D01*
X112955000Y-112420000D01*
X112547500Y-112420000D01*
G37*
G04 #@! TD.AperFunction*
D12*
X86995000Y-120739000D03*
X92075000Y-120739000D03*
D13*
X103378000Y-89154000D03*
D14*
X87376000Y-94616000D03*
X87376000Y-97916000D03*
D15*
X99822000Y-80264000D03*
X99822000Y-82804000D03*
X97282000Y-80264000D03*
X97282000Y-82804000D03*
X94742000Y-80264000D03*
X94742000Y-82804000D03*
X92202000Y-80264000D03*
X92202000Y-82804000D03*
X89662000Y-80264000D03*
X89662000Y-82804000D03*
X87122000Y-80264000D03*
X87122000Y-82804000D03*
X84582000Y-80264000D03*
X84582000Y-82804000D03*
X82042000Y-80264000D03*
X82042000Y-82804000D03*
X79502000Y-80264000D03*
D16*
X79502000Y-82804000D03*
G04 #@! TA.AperFunction,ComponentPad*
G36*
G01*
X119335000Y-87726000D02*
X119335000Y-85526000D01*
G75*
G02*
X120135000Y-84726000I800000J0D01*
G01*
X121735000Y-84726000D01*
G75*
G02*
X122535000Y-85526000I0J-800000D01*
G01*
X122535000Y-87726000D01*
G75*
G02*
X121735000Y-88526000I-800000J0D01*
G01*
X120135000Y-88526000D01*
G75*
G02*
X119335000Y-87726000I0J800000D01*
G01*
G37*
G04 #@! TD.AperFunction*
G04 #@! TA.AperFunction,ComponentPad*
G36*
G01*
X107335000Y-87726000D02*
X107335000Y-85526000D01*
G75*
G02*
X108135000Y-84726000I800000J0D01*
G01*
X109735000Y-84726000D01*
G75*
G02*
X110535000Y-85526000I0J-800000D01*
G01*
X110535000Y-87726000D01*
G75*
G02*
X109735000Y-88526000I-800000J0D01*
G01*
X108135000Y-88526000D01*
G75*
G02*
X107335000Y-87726000I0J800000D01*
G01*
G37*
G04 #@! TD.AperFunction*
D17*
X114935000Y-79726000D03*
X109385000Y-82426000D03*
X120485000Y-82426000D03*
X120885000Y-90026000D03*
X109385000Y-90726000D03*
G04 #@! TA.AperFunction,SMDPad,CuDef*
G36*
G01*
X92764000Y-86914000D02*
X92764000Y-87254000D01*
G75*
G02*
X92624000Y-87394000I-140000J0D01*
G01*
X92344000Y-87394000D01*
G75*
G02*
X92204000Y-87254000I0J140000D01*
G01*
X92204000Y-86914000D01*
G75*
G02*
X92344000Y-86774000I140000J0D01*
G01*
X92624000Y-86774000D01*
G75*
G02*
X92764000Y-86914000I0J-140000D01*
G01*
G37*
G04 #@! TD.AperFunction*
G04 #@! TA.AperFunction,SMDPad,CuDef*
G36*
G01*
X93724000Y-86914000D02*
X93724000Y-87254000D01*
G75*
G02*
X93584000Y-87394000I-140000J0D01*
G01*
X93304000Y-87394000D01*
G75*
G02*
X93164000Y-87254000I0J140000D01*
G01*
X93164000Y-86914000D01*
G75*
G02*
X93304000Y-86774000I140000J0D01*
G01*
X93584000Y-86774000D01*
G75*
G02*
X93724000Y-86914000I0J-140000D01*
G01*
G37*
G04 #@! TD.AperFunction*
D14*
X79248000Y-97662000D03*
X79248000Y-94362000D03*
G04 #@! TA.AperFunction,SMDPad,CuDef*
G36*
G01*
X97776000Y-89085000D02*
X97776000Y-88715000D01*
G75*
G02*
X97911000Y-88580000I135000J0D01*
G01*
X98181000Y-88580000D01*
G75*
G02*
X98316000Y-88715000I0J-135000D01*
G01*
X98316000Y-89085000D01*
G75*
G02*
X98181000Y-89220000I-135000J0D01*
G01*
X97911000Y-89220000D01*
G75*
G02*
X97776000Y-89085000I0J135000D01*
G01*
G37*
G04 #@! TD.AperFunction*
G04 #@! TA.AperFunction,SMDPad,CuDef*
G36*
G01*
X96756000Y-89085000D02*
X96756000Y-88715000D01*
G75*
G02*
X96891000Y-88580000I135000J0D01*
G01*
X97161000Y-88580000D01*
G75*
G02*
X97296000Y-88715000I0J-135000D01*
G01*
X97296000Y-89085000D01*
G75*
G02*
X97161000Y-89220000I-135000J0D01*
G01*
X96891000Y-89220000D01*
G75*
G02*
X96756000Y-89085000I0J135000D01*
G01*
G37*
G04 #@! TD.AperFunction*
G04 #@! TA.AperFunction,SMDPad,CuDef*
G36*
G01*
X99328000Y-88715000D02*
X99328000Y-89085000D01*
G75*
G02*
X99193000Y-89220000I-135000J0D01*
G01*
X98923000Y-89220000D01*
G75*
G02*
X98788000Y-89085000I0J135000D01*
G01*
X98788000Y-88715000D01*
G75*
G02*
X98923000Y-88580000I135000J0D01*
G01*
X99193000Y-88580000D01*
G75*
G02*
X99328000Y-88715000I0J-135000D01*
G01*
G37*
G04 #@! TD.AperFunction*
G04 #@! TA.AperFunction,SMDPad,CuDef*
G36*
G01*
X100348000Y-88715000D02*
X100348000Y-89085000D01*
G75*
G02*
X100213000Y-89220000I-135000J0D01*
G01*
X99943000Y-89220000D01*
G75*
G02*
X99808000Y-89085000I0J135000D01*
G01*
X99808000Y-88715000D01*
G75*
G02*
X99943000Y-88580000I135000J0D01*
G01*
X100213000Y-88580000D01*
G75*
G02*
X100348000Y-88715000I0J-135000D01*
G01*
G37*
G04 #@! TD.AperFunction*
G04 #@! TA.AperFunction,SMDPad,CuDef*
G36*
G01*
X103197000Y-85984000D02*
X103197000Y-85644000D01*
G75*
G02*
X103337000Y-85504000I140000J0D01*
G01*
X103617000Y-85504000D01*
G75*
G02*
X103757000Y-85644000I0J-140000D01*
G01*
X103757000Y-85984000D01*
G75*
G02*
X103617000Y-86124000I-140000J0D01*
G01*
X103337000Y-86124000D01*
G75*
G02*
X103197000Y-85984000I0J140000D01*
G01*
G37*
G04 #@! TD.AperFunction*
G04 #@! TA.AperFunction,SMDPad,CuDef*
G36*
G01*
X102237000Y-85984000D02*
X102237000Y-85644000D01*
G75*
G02*
X102377000Y-85504000I140000J0D01*
G01*
X102657000Y-85504000D01*
G75*
G02*
X102797000Y-85644000I0J-140000D01*
G01*
X102797000Y-85984000D01*
G75*
G02*
X102657000Y-86124000I-140000J0D01*
G01*
X102377000Y-86124000D01*
G75*
G02*
X102237000Y-85984000I0J140000D01*
G01*
G37*
G04 #@! TD.AperFunction*
G04 #@! TA.AperFunction,SMDPad,CuDef*
G36*
G01*
X103197000Y-83444000D02*
X103197000Y-83104000D01*
G75*
G02*
X103337000Y-82964000I140000J0D01*
G01*
X103617000Y-82964000D01*
G75*
G02*
X103757000Y-83104000I0J-140000D01*
G01*
X103757000Y-83444000D01*
G75*
G02*
X103617000Y-83584000I-140000J0D01*
G01*
X103337000Y-83584000D01*
G75*
G02*
X103197000Y-83444000I0J140000D01*
G01*
G37*
G04 #@! TD.AperFunction*
G04 #@! TA.AperFunction,SMDPad,CuDef*
G36*
G01*
X102237000Y-83444000D02*
X102237000Y-83104000D01*
G75*
G02*
X102377000Y-82964000I140000J0D01*
G01*
X102657000Y-82964000D01*
G75*
G02*
X102797000Y-83104000I0J-140000D01*
G01*
X102797000Y-83444000D01*
G75*
G02*
X102657000Y-83584000I-140000J0D01*
G01*
X102377000Y-83584000D01*
G75*
G02*
X102237000Y-83444000I0J140000D01*
G01*
G37*
G04 #@! TD.AperFunction*
G04 #@! TA.AperFunction,SMDPad,CuDef*
G36*
G01*
X103197000Y-84714000D02*
X103197000Y-84374000D01*
G75*
G02*
X103337000Y-84234000I140000J0D01*
G01*
X103617000Y-84234000D01*
G75*
G02*
X103757000Y-84374000I0J-140000D01*
G01*
X103757000Y-84714000D01*
G75*
G02*
X103617000Y-84854000I-140000J0D01*
G01*
X103337000Y-84854000D01*
G75*
G02*
X103197000Y-84714000I0J140000D01*
G01*
G37*
G04 #@! TD.AperFunction*
G04 #@! TA.AperFunction,SMDPad,CuDef*
G36*
G01*
X102237000Y-84714000D02*
X102237000Y-84374000D01*
G75*
G02*
X102377000Y-84234000I140000J0D01*
G01*
X102657000Y-84234000D01*
G75*
G02*
X102797000Y-84374000I0J-140000D01*
G01*
X102797000Y-84714000D01*
G75*
G02*
X102657000Y-84854000I-140000J0D01*
G01*
X102377000Y-84854000D01*
G75*
G02*
X102237000Y-84714000I0J140000D01*
G01*
G37*
G04 #@! TD.AperFunction*
G04 #@! TA.AperFunction,SMDPad,CuDef*
G36*
G01*
X88774000Y-86029000D02*
X88774000Y-85829000D01*
G75*
G02*
X88874000Y-85729000I100000J0D01*
G01*
X90149000Y-85729000D01*
G75*
G02*
X90249000Y-85829000I0J-100000D01*
G01*
X90249000Y-86029000D01*
G75*
G02*
X90149000Y-86129000I-100000J0D01*
G01*
X88874000Y-86129000D01*
G75*
G02*
X88774000Y-86029000I0J100000D01*
G01*
G37*
G04 #@! TD.AperFunction*
G04 #@! TA.AperFunction,SMDPad,CuDef*
G36*
G01*
X88774000Y-86679000D02*
X88774000Y-86479000D01*
G75*
G02*
X88874000Y-86379000I100000J0D01*
G01*
X90149000Y-86379000D01*
G75*
G02*
X90249000Y-86479000I0J-100000D01*
G01*
X90249000Y-86679000D01*
G75*
G02*
X90149000Y-86779000I-100000J0D01*
G01*
X88874000Y-86779000D01*
G75*
G02*
X88774000Y-86679000I0J100000D01*
G01*
G37*
G04 #@! TD.AperFunction*
G04 #@! TA.AperFunction,SMDPad,CuDef*
G36*
G01*
X88774000Y-87329000D02*
X88774000Y-87129000D01*
G75*
G02*
X88874000Y-87029000I100000J0D01*
G01*
X90149000Y-87029000D01*
G75*
G02*
X90249000Y-87129000I0J-100000D01*
G01*
X90249000Y-87329000D01*
G75*
G02*
X90149000Y-87429000I-100000J0D01*
G01*
X88874000Y-87429000D01*
G75*
G02*
X88774000Y-87329000I0J100000D01*
G01*
G37*
G04 #@! TD.AperFunction*
G04 #@! TA.AperFunction,SMDPad,CuDef*
G36*
G01*
X88774000Y-87979000D02*
X88774000Y-87779000D01*
G75*
G02*
X88874000Y-87679000I100000J0D01*
G01*
X90149000Y-87679000D01*
G75*
G02*
X90249000Y-87779000I0J-100000D01*
G01*
X90249000Y-87979000D01*
G75*
G02*
X90149000Y-88079000I-100000J0D01*
G01*
X88874000Y-88079000D01*
G75*
G02*
X88774000Y-87979000I0J100000D01*
G01*
G37*
G04 #@! TD.AperFunction*
G04 #@! TA.AperFunction,SMDPad,CuDef*
G36*
G01*
X88774000Y-88629000D02*
X88774000Y-88429000D01*
G75*
G02*
X88874000Y-88329000I100000J0D01*
G01*
X90149000Y-88329000D01*
G75*
G02*
X90249000Y-88429000I0J-100000D01*
G01*
X90249000Y-88629000D01*
G75*
G02*
X90149000Y-88729000I-100000J0D01*
G01*
X88874000Y-88729000D01*
G75*
G02*
X88774000Y-88629000I0J100000D01*
G01*
G37*
G04 #@! TD.AperFunction*
G04 #@! TA.AperFunction,SMDPad,CuDef*
G36*
G01*
X88774000Y-89279000D02*
X88774000Y-89079000D01*
G75*
G02*
X88874000Y-88979000I100000J0D01*
G01*
X90149000Y-88979000D01*
G75*
G02*
X90249000Y-89079000I0J-100000D01*
G01*
X90249000Y-89279000D01*
G75*
G02*
X90149000Y-89379000I-100000J0D01*
G01*
X88874000Y-89379000D01*
G75*
G02*
X88774000Y-89279000I0J100000D01*
G01*
G37*
G04 #@! TD.AperFunction*
G04 #@! TA.AperFunction,SMDPad,CuDef*
G36*
G01*
X88774000Y-89929000D02*
X88774000Y-89729000D01*
G75*
G02*
X88874000Y-89629000I100000J0D01*
G01*
X90149000Y-89629000D01*
G75*
G02*
X90249000Y-89729000I0J-100000D01*
G01*
X90249000Y-89929000D01*
G75*
G02*
X90149000Y-90029000I-100000J0D01*
G01*
X88874000Y-90029000D01*
G75*
G02*
X88774000Y-89929000I0J100000D01*
G01*
G37*
G04 #@! TD.AperFunction*
G04 #@! TA.AperFunction,SMDPad,CuDef*
G36*
G01*
X88774000Y-90579000D02*
X88774000Y-90379000D01*
G75*
G02*
X88874000Y-90279000I100000J0D01*
G01*
X90149000Y-90279000D01*
G75*
G02*
X90249000Y-90379000I0J-100000D01*
G01*
X90249000Y-90579000D01*
G75*
G02*
X90149000Y-90679000I-100000J0D01*
G01*
X88874000Y-90679000D01*
G75*
G02*
X88774000Y-90579000I0J100000D01*
G01*
G37*
G04 #@! TD.AperFunction*
G04 #@! TA.AperFunction,SMDPad,CuDef*
G36*
G01*
X88774000Y-91229000D02*
X88774000Y-91029000D01*
G75*
G02*
X88874000Y-90929000I100000J0D01*
G01*
X90149000Y-90929000D01*
G75*
G02*
X90249000Y-91029000I0J-100000D01*
G01*
X90249000Y-91229000D01*
G75*
G02*
X90149000Y-91329000I-100000J0D01*
G01*
X88874000Y-91329000D01*
G75*
G02*
X88774000Y-91229000I0J100000D01*
G01*
G37*
G04 #@! TD.AperFunction*
G04 #@! TA.AperFunction,SMDPad,CuDef*
G36*
G01*
X88774000Y-91879000D02*
X88774000Y-91679000D01*
G75*
G02*
X88874000Y-91579000I100000J0D01*
G01*
X90149000Y-91579000D01*
G75*
G02*
X90249000Y-91679000I0J-100000D01*
G01*
X90249000Y-91879000D01*
G75*
G02*
X90149000Y-91979000I-100000J0D01*
G01*
X88874000Y-91979000D01*
G75*
G02*
X88774000Y-91879000I0J100000D01*
G01*
G37*
G04 #@! TD.AperFunction*
G04 #@! TA.AperFunction,SMDPad,CuDef*
G36*
G01*
X83049000Y-91879000D02*
X83049000Y-91679000D01*
G75*
G02*
X83149000Y-91579000I100000J0D01*
G01*
X84424000Y-91579000D01*
G75*
G02*
X84524000Y-91679000I0J-100000D01*
G01*
X84524000Y-91879000D01*
G75*
G02*
X84424000Y-91979000I-100000J0D01*
G01*
X83149000Y-91979000D01*
G75*
G02*
X83049000Y-91879000I0J100000D01*
G01*
G37*
G04 #@! TD.AperFunction*
G04 #@! TA.AperFunction,SMDPad,CuDef*
G36*
G01*
X83049000Y-91229000D02*
X83049000Y-91029000D01*
G75*
G02*
X83149000Y-90929000I100000J0D01*
G01*
X84424000Y-90929000D01*
G75*
G02*
X84524000Y-91029000I0J-100000D01*
G01*
X84524000Y-91229000D01*
G75*
G02*
X84424000Y-91329000I-100000J0D01*
G01*
X83149000Y-91329000D01*
G75*
G02*
X83049000Y-91229000I0J100000D01*
G01*
G37*
G04 #@! TD.AperFunction*
G04 #@! TA.AperFunction,SMDPad,CuDef*
G36*
G01*
X83049000Y-90579000D02*
X83049000Y-90379000D01*
G75*
G02*
X83149000Y-90279000I100000J0D01*
G01*
X84424000Y-90279000D01*
G75*
G02*
X84524000Y-90379000I0J-100000D01*
G01*
X84524000Y-90579000D01*
G75*
G02*
X84424000Y-90679000I-100000J0D01*
G01*
X83149000Y-90679000D01*
G75*
G02*
X83049000Y-90579000I0J100000D01*
G01*
G37*
G04 #@! TD.AperFunction*
G04 #@! TA.AperFunction,SMDPad,CuDef*
G36*
G01*
X83049000Y-89929000D02*
X83049000Y-89729000D01*
G75*
G02*
X83149000Y-89629000I100000J0D01*
G01*
X84424000Y-89629000D01*
G75*
G02*
X84524000Y-89729000I0J-100000D01*
G01*
X84524000Y-89929000D01*
G75*
G02*
X84424000Y-90029000I-100000J0D01*
G01*
X83149000Y-90029000D01*
G75*
G02*
X83049000Y-89929000I0J100000D01*
G01*
G37*
G04 #@! TD.AperFunction*
G04 #@! TA.AperFunction,SMDPad,CuDef*
G36*
G01*
X83049000Y-89279000D02*
X83049000Y-89079000D01*
G75*
G02*
X83149000Y-88979000I100000J0D01*
G01*
X84424000Y-88979000D01*
G75*
G02*
X84524000Y-89079000I0J-100000D01*
G01*
X84524000Y-89279000D01*
G75*
G02*
X84424000Y-89379000I-100000J0D01*
G01*
X83149000Y-89379000D01*
G75*
G02*
X83049000Y-89279000I0J100000D01*
G01*
G37*
G04 #@! TD.AperFunction*
G04 #@! TA.AperFunction,SMDPad,CuDef*
G36*
G01*
X83049000Y-88629000D02*
X83049000Y-88429000D01*
G75*
G02*
X83149000Y-88329000I100000J0D01*
G01*
X84424000Y-88329000D01*
G75*
G02*
X84524000Y-88429000I0J-100000D01*
G01*
X84524000Y-88629000D01*
G75*
G02*
X84424000Y-88729000I-100000J0D01*
G01*
X83149000Y-88729000D01*
G75*
G02*
X83049000Y-88629000I0J100000D01*
G01*
G37*
G04 #@! TD.AperFunction*
G04 #@! TA.AperFunction,SMDPad,CuDef*
G36*
G01*
X83049000Y-87979000D02*
X83049000Y-87779000D01*
G75*
G02*
X83149000Y-87679000I100000J0D01*
G01*
X84424000Y-87679000D01*
G75*
G02*
X84524000Y-87779000I0J-100000D01*
G01*
X84524000Y-87979000D01*
G75*
G02*
X84424000Y-88079000I-100000J0D01*
G01*
X83149000Y-88079000D01*
G75*
G02*
X83049000Y-87979000I0J100000D01*
G01*
G37*
G04 #@! TD.AperFunction*
G04 #@! TA.AperFunction,SMDPad,CuDef*
G36*
G01*
X83049000Y-87329000D02*
X83049000Y-87129000D01*
G75*
G02*
X83149000Y-87029000I100000J0D01*
G01*
X84424000Y-87029000D01*
G75*
G02*
X84524000Y-87129000I0J-100000D01*
G01*
X84524000Y-87329000D01*
G75*
G02*
X84424000Y-87429000I-100000J0D01*
G01*
X83149000Y-87429000D01*
G75*
G02*
X83049000Y-87329000I0J100000D01*
G01*
G37*
G04 #@! TD.AperFunction*
G04 #@! TA.AperFunction,SMDPad,CuDef*
G36*
G01*
X83049000Y-86679000D02*
X83049000Y-86479000D01*
G75*
G02*
X83149000Y-86379000I100000J0D01*
G01*
X84424000Y-86379000D01*
G75*
G02*
X84524000Y-86479000I0J-100000D01*
G01*
X84524000Y-86679000D01*
G75*
G02*
X84424000Y-86779000I-100000J0D01*
G01*
X83149000Y-86779000D01*
G75*
G02*
X83049000Y-86679000I0J100000D01*
G01*
G37*
G04 #@! TD.AperFunction*
G04 #@! TA.AperFunction,SMDPad,CuDef*
G36*
G01*
X83049000Y-86029000D02*
X83049000Y-85829000D01*
G75*
G02*
X83149000Y-85729000I100000J0D01*
G01*
X84424000Y-85729000D01*
G75*
G02*
X84524000Y-85829000I0J-100000D01*
G01*
X84524000Y-86029000D01*
G75*
G02*
X84424000Y-86129000I-100000J0D01*
G01*
X83149000Y-86129000D01*
G75*
G02*
X83049000Y-86029000I0J100000D01*
G01*
G37*
G04 #@! TD.AperFunction*
G04 #@! TA.AperFunction,SMDPad,CuDef*
G36*
G01*
X84636000Y-94318000D02*
X84636000Y-94658000D01*
G75*
G02*
X84496000Y-94798000I-140000J0D01*
G01*
X84216000Y-94798000D01*
G75*
G02*
X84076000Y-94658000I0J140000D01*
G01*
X84076000Y-94318000D01*
G75*
G02*
X84216000Y-94178000I140000J0D01*
G01*
X84496000Y-94178000D01*
G75*
G02*
X84636000Y-94318000I0J-140000D01*
G01*
G37*
G04 #@! TD.AperFunction*
G04 #@! TA.AperFunction,SMDPad,CuDef*
G36*
G01*
X85596000Y-94318000D02*
X85596000Y-94658000D01*
G75*
G02*
X85456000Y-94798000I-140000J0D01*
G01*
X85176000Y-94798000D01*
G75*
G02*
X85036000Y-94658000I0J140000D01*
G01*
X85036000Y-94318000D01*
G75*
G02*
X85176000Y-94178000I140000J0D01*
G01*
X85456000Y-94178000D01*
G75*
G02*
X85596000Y-94318000I0J-140000D01*
G01*
G37*
G04 #@! TD.AperFunction*
G04 #@! TA.AperFunction,SMDPad,CuDef*
G36*
G01*
X91708000Y-91725000D02*
X91708000Y-92095000D01*
G75*
G02*
X91573000Y-92230000I-135000J0D01*
G01*
X91303000Y-92230000D01*
G75*
G02*
X91168000Y-92095000I0J135000D01*
G01*
X91168000Y-91725000D01*
G75*
G02*
X91303000Y-91590000I135000J0D01*
G01*
X91573000Y-91590000D01*
G75*
G02*
X91708000Y-91725000I0J-135000D01*
G01*
G37*
G04 #@! TD.AperFunction*
G04 #@! TA.AperFunction,SMDPad,CuDef*
G36*
G01*
X92728000Y-91725000D02*
X92728000Y-92095000D01*
G75*
G02*
X92593000Y-92230000I-135000J0D01*
G01*
X92323000Y-92230000D01*
G75*
G02*
X92188000Y-92095000I0J135000D01*
G01*
X92188000Y-91725000D01*
G75*
G02*
X92323000Y-91590000I135000J0D01*
G01*
X92593000Y-91590000D01*
G75*
G02*
X92728000Y-91725000I0J-135000D01*
G01*
G37*
G04 #@! TD.AperFunction*
G04 #@! TA.AperFunction,SMDPad,CuDef*
G36*
G01*
X91708000Y-90709000D02*
X91708000Y-91079000D01*
G75*
G02*
X91573000Y-91214000I-135000J0D01*
G01*
X91303000Y-91214000D01*
G75*
G02*
X91168000Y-91079000I0J135000D01*
G01*
X91168000Y-90709000D01*
G75*
G02*
X91303000Y-90574000I135000J0D01*
G01*
X91573000Y-90574000D01*
G75*
G02*
X91708000Y-90709000I0J-135000D01*
G01*
G37*
G04 #@! TD.AperFunction*
G04 #@! TA.AperFunction,SMDPad,CuDef*
G36*
G01*
X92728000Y-90709000D02*
X92728000Y-91079000D01*
G75*
G02*
X92593000Y-91214000I-135000J0D01*
G01*
X92323000Y-91214000D01*
G75*
G02*
X92188000Y-91079000I0J135000D01*
G01*
X92188000Y-90709000D01*
G75*
G02*
X92323000Y-90574000I135000J0D01*
G01*
X92593000Y-90574000D01*
G75*
G02*
X92728000Y-90709000I0J-135000D01*
G01*
G37*
G04 #@! TD.AperFunction*
G04 #@! TA.AperFunction,SMDPad,CuDef*
G36*
G01*
X95181000Y-95010000D02*
X94811000Y-95010000D01*
G75*
G02*
X94676000Y-94875000I0J135000D01*
G01*
X94676000Y-94605000D01*
G75*
G02*
X94811000Y-94470000I135000J0D01*
G01*
X95181000Y-94470000D01*
G75*
G02*
X95316000Y-94605000I0J-135000D01*
G01*
X95316000Y-94875000D01*
G75*
G02*
X95181000Y-95010000I-135000J0D01*
G01*
G37*
G04 #@! TD.AperFunction*
G04 #@! TA.AperFunction,SMDPad,CuDef*
G36*
G01*
X95181000Y-96030000D02*
X94811000Y-96030000D01*
G75*
G02*
X94676000Y-95895000I0J135000D01*
G01*
X94676000Y-95625000D01*
G75*
G02*
X94811000Y-95490000I135000J0D01*
G01*
X95181000Y-95490000D01*
G75*
G02*
X95316000Y-95625000I0J-135000D01*
G01*
X95316000Y-95895000D01*
G75*
G02*
X95181000Y-96030000I-135000J0D01*
G01*
G37*
G04 #@! TD.AperFunction*
G04 #@! TA.AperFunction,SMDPad,CuDef*
G36*
G01*
X99472000Y-98549750D02*
X99472000Y-99062250D01*
G75*
G02*
X99253250Y-99281000I-218750J0D01*
G01*
X98815750Y-99281000D01*
G75*
G02*
X98597000Y-99062250I0J218750D01*
G01*
X98597000Y-98549750D01*
G75*
G02*
X98815750Y-98331000I218750J0D01*
G01*
X99253250Y-98331000D01*
G75*
G02*
X99472000Y-98549750I0J-218750D01*
G01*
G37*
G04 #@! TD.AperFunction*
G04 #@! TA.AperFunction,SMDPad,CuDef*
G36*
G01*
X101047000Y-98549750D02*
X101047000Y-99062250D01*
G75*
G02*
X100828250Y-99281000I-218750J0D01*
G01*
X100390750Y-99281000D01*
G75*
G02*
X100172000Y-99062250I0J218750D01*
G01*
X100172000Y-98549750D01*
G75*
G02*
X100390750Y-98331000I218750J0D01*
G01*
X100828250Y-98331000D01*
G75*
G02*
X101047000Y-98549750I0J-218750D01*
G01*
G37*
G04 #@! TD.AperFunction*
G04 #@! TA.AperFunction,SMDPad,CuDef*
G36*
G01*
X92106000Y-98549750D02*
X92106000Y-99062250D01*
G75*
G02*
X91887250Y-99281000I-218750J0D01*
G01*
X91449750Y-99281000D01*
G75*
G02*
X91231000Y-99062250I0J218750D01*
G01*
X91231000Y-98549750D01*
G75*
G02*
X91449750Y-98331000I218750J0D01*
G01*
X91887250Y-98331000D01*
G75*
G02*
X92106000Y-98549750I0J-218750D01*
G01*
G37*
G04 #@! TD.AperFunction*
G04 #@! TA.AperFunction,SMDPad,CuDef*
G36*
G01*
X93681000Y-98549750D02*
X93681000Y-99062250D01*
G75*
G02*
X93462250Y-99281000I-218750J0D01*
G01*
X93024750Y-99281000D01*
G75*
G02*
X92806000Y-99062250I0J218750D01*
G01*
X92806000Y-98549750D01*
G75*
G02*
X93024750Y-98331000I218750J0D01*
G01*
X93462250Y-98331000D01*
G75*
G02*
X93681000Y-98549750I0J-218750D01*
G01*
G37*
G04 #@! TD.AperFunction*
G04 #@! TA.AperFunction,SMDPad,CuDef*
G36*
G01*
X102547000Y-95010000D02*
X102177000Y-95010000D01*
G75*
G02*
X102042000Y-94875000I0J135000D01*
G01*
X102042000Y-94605000D01*
G75*
G02*
X102177000Y-94470000I135000J0D01*
G01*
X102547000Y-94470000D01*
G75*
G02*
X102682000Y-94605000I0J-135000D01*
G01*
X102682000Y-94875000D01*
G75*
G02*
X102547000Y-95010000I-135000J0D01*
G01*
G37*
G04 #@! TD.AperFunction*
G04 #@! TA.AperFunction,SMDPad,CuDef*
G36*
G01*
X102547000Y-96030000D02*
X102177000Y-96030000D01*
G75*
G02*
X102042000Y-95895000I0J135000D01*
G01*
X102042000Y-95625000D01*
G75*
G02*
X102177000Y-95490000I135000J0D01*
G01*
X102547000Y-95490000D01*
G75*
G02*
X102682000Y-95625000I0J-135000D01*
G01*
X102682000Y-95895000D01*
G75*
G02*
X102547000Y-96030000I-135000J0D01*
G01*
G37*
G04 #@! TD.AperFunction*
D18*
X100076000Y-97012000D03*
X99126000Y-95012000D03*
X101026000Y-95012000D03*
X92710000Y-97012000D03*
X91760000Y-95012000D03*
X93660000Y-95012000D03*
G04 #@! TA.AperFunction,SMDPad,CuDef*
G36*
G01*
X104789000Y-83089000D02*
X104789000Y-83459000D01*
G75*
G02*
X104654000Y-83594000I-135000J0D01*
G01*
X104384000Y-83594000D01*
G75*
G02*
X104249000Y-83459000I0J135000D01*
G01*
X104249000Y-83089000D01*
G75*
G02*
X104384000Y-82954000I135000J0D01*
G01*
X104654000Y-82954000D01*
G75*
G02*
X104789000Y-83089000I0J-135000D01*
G01*
G37*
G04 #@! TD.AperFunction*
G04 #@! TA.AperFunction,SMDPad,CuDef*
G36*
G01*
X105809000Y-83089000D02*
X105809000Y-83459000D01*
G75*
G02*
X105674000Y-83594000I-135000J0D01*
G01*
X105404000Y-83594000D01*
G75*
G02*
X105269000Y-83459000I0J135000D01*
G01*
X105269000Y-83089000D01*
G75*
G02*
X105404000Y-82954000I135000J0D01*
G01*
X105674000Y-82954000D01*
G75*
G02*
X105809000Y-83089000I0J-135000D01*
G01*
G37*
G04 #@! TD.AperFunction*
G04 #@! TA.AperFunction,SMDPad,CuDef*
G36*
G01*
X104789000Y-84359000D02*
X104789000Y-84729000D01*
G75*
G02*
X104654000Y-84864000I-135000J0D01*
G01*
X104384000Y-84864000D01*
G75*
G02*
X104249000Y-84729000I0J135000D01*
G01*
X104249000Y-84359000D01*
G75*
G02*
X104384000Y-84224000I135000J0D01*
G01*
X104654000Y-84224000D01*
G75*
G02*
X104789000Y-84359000I0J-135000D01*
G01*
G37*
G04 #@! TD.AperFunction*
G04 #@! TA.AperFunction,SMDPad,CuDef*
G36*
G01*
X105809000Y-84359000D02*
X105809000Y-84729000D01*
G75*
G02*
X105674000Y-84864000I-135000J0D01*
G01*
X105404000Y-84864000D01*
G75*
G02*
X105269000Y-84729000I0J135000D01*
G01*
X105269000Y-84359000D01*
G75*
G02*
X105404000Y-84224000I135000J0D01*
G01*
X105674000Y-84224000D01*
G75*
G02*
X105809000Y-84359000I0J-135000D01*
G01*
G37*
G04 #@! TD.AperFunction*
G04 #@! TA.AperFunction,SMDPad,CuDef*
G36*
G01*
X105269000Y-85999000D02*
X105269000Y-85629000D01*
G75*
G02*
X105404000Y-85494000I135000J0D01*
G01*
X105674000Y-85494000D01*
G75*
G02*
X105809000Y-85629000I0J-135000D01*
G01*
X105809000Y-85999000D01*
G75*
G02*
X105674000Y-86134000I-135000J0D01*
G01*
X105404000Y-86134000D01*
G75*
G02*
X105269000Y-85999000I0J135000D01*
G01*
G37*
G04 #@! TD.AperFunction*
G04 #@! TA.AperFunction,SMDPad,CuDef*
G36*
G01*
X104249000Y-85999000D02*
X104249000Y-85629000D01*
G75*
G02*
X104384000Y-85494000I135000J0D01*
G01*
X104654000Y-85494000D01*
G75*
G02*
X104789000Y-85629000I0J-135000D01*
G01*
X104789000Y-85999000D01*
G75*
G02*
X104654000Y-86134000I-135000J0D01*
G01*
X104384000Y-86134000D01*
G75*
G02*
X104249000Y-85999000I0J135000D01*
G01*
G37*
G04 #@! TD.AperFunction*
G04 #@! TA.AperFunction,SMDPad,CuDef*
D10*
G36*
X82445500Y-100344000D02*
G01*
X82445500Y-97219000D01*
X82862000Y-97219000D01*
X82862000Y-95744000D01*
X83762000Y-95744000D01*
X83762000Y-97219000D01*
X84178500Y-97219000D01*
X84178500Y-100344000D01*
X82445500Y-100344000D01*
G37*
G04 #@! TD.AperFunction*
D19*
X81812000Y-96394000D03*
X84812000Y-96394000D03*
D12*
X81788000Y-109728000D03*
X81788000Y-104648000D03*
X105410000Y-120739000D03*
X110490000Y-120739000D03*
G04 #@! TA.AperFunction,SMDPad,CuDef*
G36*
G01*
X111080000Y-95042000D02*
X111080000Y-95382000D01*
G75*
G02*
X110940000Y-95522000I-140000J0D01*
G01*
X110660000Y-95522000D01*
G75*
G02*
X110520000Y-95382000I0J140000D01*
G01*
X110520000Y-95042000D01*
G75*
G02*
X110660000Y-94902000I140000J0D01*
G01*
X110940000Y-94902000D01*
G75*
G02*
X111080000Y-95042000I0J-140000D01*
G01*
G37*
G04 #@! TD.AperFunction*
G04 #@! TA.AperFunction,SMDPad,CuDef*
G36*
G01*
X112040000Y-95042000D02*
X112040000Y-95382000D01*
G75*
G02*
X111900000Y-95522000I-140000J0D01*
G01*
X111620000Y-95522000D01*
G75*
G02*
X111480000Y-95382000I0J140000D01*
G01*
X111480000Y-95042000D01*
G75*
G02*
X111620000Y-94902000I140000J0D01*
G01*
X111900000Y-94902000D01*
G75*
G02*
X112040000Y-95042000I0J-140000D01*
G01*
G37*
G04 #@! TD.AperFunction*
G04 #@! TA.AperFunction,SMDPad,CuDef*
G36*
G01*
X121494000Y-95042000D02*
X121494000Y-95382000D01*
G75*
G02*
X121354000Y-95522000I-140000J0D01*
G01*
X121074000Y-95522000D01*
G75*
G02*
X120934000Y-95382000I0J140000D01*
G01*
X120934000Y-95042000D01*
G75*
G02*
X121074000Y-94902000I140000J0D01*
G01*
X121354000Y-94902000D01*
G75*
G02*
X121494000Y-95042000I0J-140000D01*
G01*
G37*
G04 #@! TD.AperFunction*
G04 #@! TA.AperFunction,SMDPad,CuDef*
G36*
G01*
X122454000Y-95042000D02*
X122454000Y-95382000D01*
G75*
G02*
X122314000Y-95522000I-140000J0D01*
G01*
X122034000Y-95522000D01*
G75*
G02*
X121894000Y-95382000I0J140000D01*
G01*
X121894000Y-95042000D01*
G75*
G02*
X122034000Y-94902000I140000J0D01*
G01*
X122314000Y-94902000D01*
G75*
G02*
X122454000Y-95042000I0J-140000D01*
G01*
G37*
G04 #@! TD.AperFunction*
G04 #@! TA.AperFunction,SMDPad,CuDef*
G36*
G01*
X119652000Y-95789000D02*
X119652000Y-96159000D01*
G75*
G02*
X119517000Y-96294000I-135000J0D01*
G01*
X119247000Y-96294000D01*
G75*
G02*
X119112000Y-96159000I0J135000D01*
G01*
X119112000Y-95789000D01*
G75*
G02*
X119247000Y-95654000I135000J0D01*
G01*
X119517000Y-95654000D01*
G75*
G02*
X119652000Y-95789000I0J-135000D01*
G01*
G37*
G04 #@! TD.AperFunction*
G04 #@! TA.AperFunction,SMDPad,CuDef*
G36*
G01*
X118632000Y-95789000D02*
X118632000Y-96159000D01*
G75*
G02*
X118497000Y-96294000I-135000J0D01*
G01*
X118227000Y-96294000D01*
G75*
G02*
X118092000Y-96159000I0J135000D01*
G01*
X118092000Y-95789000D01*
G75*
G02*
X118227000Y-95654000I135000J0D01*
G01*
X118497000Y-95654000D01*
G75*
G02*
X118632000Y-95789000I0J-135000D01*
G01*
G37*
G04 #@! TD.AperFunction*
G04 #@! TA.AperFunction,SMDPad,CuDef*
G36*
G01*
X119112000Y-97912000D02*
X119112000Y-97592000D01*
G75*
G02*
X119272000Y-97432000I160000J0D01*
G01*
X119667000Y-97432000D01*
G75*
G02*
X119827000Y-97592000I0J-160000D01*
G01*
X119827000Y-97912000D01*
G75*
G02*
X119667000Y-98072000I-160000J0D01*
G01*
X119272000Y-98072000D01*
G75*
G02*
X119112000Y-97912000I0J160000D01*
G01*
G37*
G04 #@! TD.AperFunction*
G04 #@! TA.AperFunction,SMDPad,CuDef*
G36*
G01*
X117917000Y-97912000D02*
X117917000Y-97592000D01*
G75*
G02*
X118077000Y-97432000I160000J0D01*
G01*
X118472000Y-97432000D01*
G75*
G02*
X118632000Y-97592000I0J-160000D01*
G01*
X118632000Y-97912000D01*
G75*
G02*
X118472000Y-98072000I-160000J0D01*
G01*
X118077000Y-98072000D01*
G75*
G02*
X117917000Y-97912000I0J160000D01*
G01*
G37*
G04 #@! TD.AperFunction*
D20*
X114697000Y-96802000D03*
X114697000Y-98702000D03*
X116697000Y-97752000D03*
X121047000Y-96802000D03*
X121047000Y-98702000D03*
X123047000Y-97752000D03*
G04 #@! TA.AperFunction,SMDPad,CuDef*
G36*
G01*
X118672000Y-98867000D02*
X118672000Y-99177000D01*
G75*
G02*
X118517000Y-99332000I-155000J0D01*
G01*
X118092000Y-99332000D01*
G75*
G02*
X117937000Y-99177000I0J155000D01*
G01*
X117937000Y-98867000D01*
G75*
G02*
X118092000Y-98712000I155000J0D01*
G01*
X118517000Y-98712000D01*
G75*
G02*
X118672000Y-98867000I0J-155000D01*
G01*
G37*
G04 #@! TD.AperFunction*
G04 #@! TA.AperFunction,SMDPad,CuDef*
G36*
G01*
X119807000Y-98867000D02*
X119807000Y-99177000D01*
G75*
G02*
X119652000Y-99332000I-155000J0D01*
G01*
X119227000Y-99332000D01*
G75*
G02*
X119072000Y-99177000I0J155000D01*
G01*
X119072000Y-98867000D01*
G75*
G02*
X119227000Y-98712000I155000J0D01*
G01*
X119652000Y-98712000D01*
G75*
G02*
X119807000Y-98867000I0J-155000D01*
G01*
G37*
G04 #@! TD.AperFunction*
X110633000Y-96802000D03*
X110633000Y-98702000D03*
X112633000Y-97752000D03*
G04 #@! TA.AperFunction,SMDPad,CuDef*
G36*
G01*
X109238000Y-95789000D02*
X109238000Y-96159000D01*
G75*
G02*
X109103000Y-96294000I-135000J0D01*
G01*
X108833000Y-96294000D01*
G75*
G02*
X108698000Y-96159000I0J135000D01*
G01*
X108698000Y-95789000D01*
G75*
G02*
X108833000Y-95654000I135000J0D01*
G01*
X109103000Y-95654000D01*
G75*
G02*
X109238000Y-95789000I0J-135000D01*
G01*
G37*
G04 #@! TD.AperFunction*
G04 #@! TA.AperFunction,SMDPad,CuDef*
G36*
G01*
X108218000Y-95789000D02*
X108218000Y-96159000D01*
G75*
G02*
X108083000Y-96294000I-135000J0D01*
G01*
X107813000Y-96294000D01*
G75*
G02*
X107678000Y-96159000I0J135000D01*
G01*
X107678000Y-95789000D01*
G75*
G02*
X107813000Y-95654000I135000J0D01*
G01*
X108083000Y-95654000D01*
G75*
G02*
X108218000Y-95789000I0J-135000D01*
G01*
G37*
G04 #@! TD.AperFunction*
G04 #@! TA.AperFunction,SMDPad,CuDef*
G36*
G01*
X108698000Y-97912000D02*
X108698000Y-97592000D01*
G75*
G02*
X108858000Y-97432000I160000J0D01*
G01*
X109253000Y-97432000D01*
G75*
G02*
X109413000Y-97592000I0J-160000D01*
G01*
X109413000Y-97912000D01*
G75*
G02*
X109253000Y-98072000I-160000J0D01*
G01*
X108858000Y-98072000D01*
G75*
G02*
X108698000Y-97912000I0J160000D01*
G01*
G37*
G04 #@! TD.AperFunction*
G04 #@! TA.AperFunction,SMDPad,CuDef*
G36*
G01*
X107503000Y-97912000D02*
X107503000Y-97592000D01*
G75*
G02*
X107663000Y-97432000I160000J0D01*
G01*
X108058000Y-97432000D01*
G75*
G02*
X108218000Y-97592000I0J-160000D01*
G01*
X108218000Y-97912000D01*
G75*
G02*
X108058000Y-98072000I-160000J0D01*
G01*
X107663000Y-98072000D01*
G75*
G02*
X107503000Y-97912000I0J160000D01*
G01*
G37*
G04 #@! TD.AperFunction*
X104283000Y-96802000D03*
X104283000Y-98702000D03*
X106283000Y-97752000D03*
G04 #@! TA.AperFunction,SMDPad,CuDef*
G36*
G01*
X108258000Y-98867000D02*
X108258000Y-99177000D01*
G75*
G02*
X108103000Y-99332000I-155000J0D01*
G01*
X107678000Y-99332000D01*
G75*
G02*
X107523000Y-99177000I0J155000D01*
G01*
X107523000Y-98867000D01*
G75*
G02*
X107678000Y-98712000I155000J0D01*
G01*
X108103000Y-98712000D01*
G75*
G02*
X108258000Y-98867000I0J-155000D01*
G01*
G37*
G04 #@! TD.AperFunction*
G04 #@! TA.AperFunction,SMDPad,CuDef*
G36*
G01*
X109393000Y-98867000D02*
X109393000Y-99177000D01*
G75*
G02*
X109238000Y-99332000I-155000J0D01*
G01*
X108813000Y-99332000D01*
G75*
G02*
X108658000Y-99177000I0J155000D01*
G01*
X108658000Y-98867000D01*
G75*
G02*
X108813000Y-98712000I155000J0D01*
G01*
X109238000Y-98712000D01*
G75*
G02*
X109393000Y-98867000I0J-155000D01*
G01*
G37*
G04 #@! TD.AperFunction*
G04 #@! TA.AperFunction,SMDPad,CuDef*
G36*
G01*
X82621000Y-94484000D02*
X82621000Y-93984000D01*
G75*
G02*
X82846000Y-93759000I225000J0D01*
G01*
X83296000Y-93759000D01*
G75*
G02*
X83521000Y-93984000I0J-225000D01*
G01*
X83521000Y-94484000D01*
G75*
G02*
X83296000Y-94709000I-225000J0D01*
G01*
X82846000Y-94709000D01*
G75*
G02*
X82621000Y-94484000I0J225000D01*
G01*
G37*
G04 #@! TD.AperFunction*
G04 #@! TA.AperFunction,SMDPad,CuDef*
G36*
G01*
X81071000Y-94484000D02*
X81071000Y-93984000D01*
G75*
G02*
X81296000Y-93759000I225000J0D01*
G01*
X81746000Y-93759000D01*
G75*
G02*
X81971000Y-93984000I0J-225000D01*
G01*
X81971000Y-94484000D01*
G75*
G02*
X81746000Y-94709000I-225000J0D01*
G01*
X81296000Y-94709000D01*
G75*
G02*
X81071000Y-94484000I0J225000D01*
G01*
G37*
G04 #@! TD.AperFunction*
G04 #@! TA.AperFunction,SMDPad,CuDef*
G36*
G01*
X81734000Y-92626000D02*
X81734000Y-92286000D01*
G75*
G02*
X81874000Y-92146000I140000J0D01*
G01*
X82154000Y-92146000D01*
G75*
G02*
X82294000Y-92286000I0J-140000D01*
G01*
X82294000Y-92626000D01*
G75*
G02*
X82154000Y-92766000I-140000J0D01*
G01*
X81874000Y-92766000D01*
G75*
G02*
X81734000Y-92626000I0J140000D01*
G01*
G37*
G04 #@! TD.AperFunction*
G04 #@! TA.AperFunction,SMDPad,CuDef*
G36*
G01*
X80774000Y-92626000D02*
X80774000Y-92286000D01*
G75*
G02*
X80914000Y-92146000I140000J0D01*
G01*
X81194000Y-92146000D01*
G75*
G02*
X81334000Y-92286000I0J-140000D01*
G01*
X81334000Y-92626000D01*
G75*
G02*
X81194000Y-92766000I-140000J0D01*
G01*
X80914000Y-92766000D01*
G75*
G02*
X80774000Y-92626000I0J140000D01*
G01*
G37*
G04 #@! TD.AperFunction*
G04 #@! TA.AperFunction,SMDPad,CuDef*
G36*
G01*
X79302000Y-87968000D02*
X79302000Y-88308000D01*
G75*
G02*
X79162000Y-88448000I-140000J0D01*
G01*
X78882000Y-88448000D01*
G75*
G02*
X78742000Y-88308000I0J140000D01*
G01*
X78742000Y-87968000D01*
G75*
G02*
X78882000Y-87828000I140000J0D01*
G01*
X79162000Y-87828000D01*
G75*
G02*
X79302000Y-87968000I0J-140000D01*
G01*
G37*
G04 #@! TD.AperFunction*
G04 #@! TA.AperFunction,SMDPad,CuDef*
G36*
G01*
X80262000Y-87968000D02*
X80262000Y-88308000D01*
G75*
G02*
X80122000Y-88448000I-140000J0D01*
G01*
X79842000Y-88448000D01*
G75*
G02*
X79702000Y-88308000I0J140000D01*
G01*
X79702000Y-87968000D01*
G75*
G02*
X79842000Y-87828000I140000J0D01*
G01*
X80122000Y-87828000D01*
G75*
G02*
X80262000Y-87968000I0J-140000D01*
G01*
G37*
G04 #@! TD.AperFunction*
D21*
X120015000Y-101600000D03*
X109728000Y-95212000D03*
X120142000Y-95212000D03*
X117348000Y-95212000D03*
X106934000Y-95212000D03*
X101578900Y-83289931D03*
X101600000Y-84582000D03*
X101600000Y-85824010D03*
X120015000Y-104140000D03*
X117475000Y-104140000D03*
X114935000Y-104140000D03*
X112395000Y-104140000D03*
X109855000Y-104140000D03*
X107315000Y-104140000D03*
X104775000Y-104140000D03*
X102235000Y-104140000D03*
X102235000Y-101600000D03*
X104775000Y-101600000D03*
X107315000Y-101600000D03*
X109855000Y-101600000D03*
X112395000Y-101600000D03*
X114935000Y-101600000D03*
X117475000Y-101600000D03*
X99695000Y-101600000D03*
X99695000Y-104140000D03*
X97155000Y-101600000D03*
X94615000Y-101600000D03*
X92075000Y-101600000D03*
X89535000Y-101600000D03*
X89535000Y-104140000D03*
X92075000Y-104140000D03*
X94615000Y-104140000D03*
X97155000Y-104140000D03*
X97155000Y-106680000D03*
X94615000Y-106680000D03*
X92075000Y-106680000D03*
X89535000Y-106680000D03*
X106426000Y-98933000D03*
X116840000Y-98933000D03*
X86995000Y-101600000D03*
X86995000Y-104140000D03*
X86995000Y-106680000D03*
X124460000Y-104140000D03*
X112395000Y-106680000D03*
X109855000Y-106680000D03*
X107315000Y-106680000D03*
X124460000Y-106680000D03*
X120015000Y-106680000D03*
X104775000Y-106680000D03*
X117475000Y-106680000D03*
X99695000Y-106680000D03*
X114935000Y-106680000D03*
X102235000Y-106680000D03*
X91186000Y-97028000D03*
X98552000Y-97028000D03*
X124460000Y-101600000D03*
X84074000Y-93688000D03*
X81788000Y-98768000D03*
X84836000Y-98768000D03*
X92964000Y-87884000D03*
X78232000Y-88900000D03*
X80334764Y-89986764D03*
X79248000Y-91186000D03*
X80264000Y-92456000D03*
X85344000Y-89916000D03*
X96716313Y-86414000D03*
X100390870Y-86410905D03*
X97282000Y-85814000D03*
X99822000Y-85814000D03*
X96266000Y-87084000D03*
X100838000Y-87084000D03*
X77632000Y-99568000D03*
X79248000Y-101092000D03*
X77649645Y-98533558D03*
X79248000Y-100076000D03*
X118110000Y-114300000D03*
X115570000Y-114300000D03*
X113030000Y-114300000D03*
X110490000Y-114300000D03*
X110490000Y-116840000D03*
X113030000Y-116840000D03*
X115570000Y-116840000D03*
X118110000Y-116840000D03*
X118110000Y-119380000D03*
X118110000Y-121920000D03*
X118110000Y-124460000D03*
X115570000Y-124460000D03*
X113030000Y-124460000D03*
X113030000Y-121920000D03*
X113030000Y-119380000D03*
X115570000Y-119380000D03*
X115570000Y-121920000D03*
X110490000Y-124460000D03*
X97790000Y-114300000D03*
X100330000Y-114300000D03*
X102870000Y-114300000D03*
X105410000Y-114300000D03*
X105410000Y-116840000D03*
X102870000Y-116840000D03*
X100330000Y-116840000D03*
X97790000Y-116840000D03*
X97790000Y-119380000D03*
X100330000Y-119380000D03*
X102870000Y-119380000D03*
X102870000Y-121920000D03*
X100330000Y-121920000D03*
X97790000Y-121920000D03*
X97790000Y-124460000D03*
X100330000Y-124460000D03*
X102870000Y-124460000D03*
X105410000Y-124460000D03*
X115316000Y-108712000D03*
X109728000Y-108712000D03*
X121412000Y-101600000D03*
X102108000Y-108712000D03*
X96520000Y-108712000D03*
X122428000Y-101600000D03*
X79375000Y-119380000D03*
X79375000Y-116840000D03*
X79375000Y-114300000D03*
X81915000Y-119380000D03*
X81915000Y-116840000D03*
X81915000Y-114300000D03*
X84455000Y-114300000D03*
X84455000Y-116840000D03*
X84455000Y-119380000D03*
X92075000Y-116840000D03*
X89535000Y-116840000D03*
X86995000Y-116840000D03*
X86995000Y-114300000D03*
X89535000Y-114300000D03*
X86995000Y-111760000D03*
X84455000Y-111760000D03*
X84455000Y-124460000D03*
X86995000Y-124460000D03*
X89535000Y-124460000D03*
X92075000Y-124460000D03*
X89522400Y-119380000D03*
X89535000Y-121907400D03*
X79375000Y-111747400D03*
X84455000Y-109207400D03*
X92075000Y-114287400D03*
X89535000Y-111747400D03*
X79375000Y-109207400D03*
X84455000Y-121907400D03*
X109728000Y-93726000D03*
X116078000Y-93726000D03*
X118364000Y-93726000D03*
X98552000Y-90386000D03*
X98552000Y-87846000D03*
X107480000Y-93726000D03*
X93814994Y-91528994D03*
X89916000Y-93726000D03*
X87332735Y-85808735D03*
X91948000Y-87884000D03*
D22*
X110800000Y-95212000D02*
X109728000Y-95212000D01*
X121214000Y-95212000D02*
X120142000Y-95212000D01*
X118110000Y-95974000D02*
X117348000Y-95212000D01*
X118362000Y-95974000D02*
X118110000Y-95974000D01*
X107696000Y-95974000D02*
X106934000Y-95212000D01*
X107948000Y-95974000D02*
X107696000Y-95974000D01*
X101594831Y-83274000D02*
X101578900Y-83289931D01*
X102517000Y-83274000D02*
X101594831Y-83274000D01*
X102170990Y-83249010D02*
X102553010Y-83249010D01*
X101662990Y-83249010D02*
X102553010Y-83249010D01*
X101638000Y-84544000D02*
X101600000Y-84582000D01*
X102517000Y-84544000D02*
X101638000Y-84544000D01*
X101610010Y-85814000D02*
X101600000Y-85824010D01*
X102517000Y-85814000D02*
X101610010Y-85814000D01*
X106283000Y-98790000D02*
X106426000Y-98933000D01*
X106283000Y-97752000D02*
X106283000Y-98790000D01*
X106515000Y-99022000D02*
X106426000Y-98933000D01*
X107890500Y-99022000D02*
X106515000Y-99022000D01*
X116697000Y-97752000D02*
X116697000Y-98790000D01*
X116697000Y-98790000D02*
X116840000Y-98933000D01*
X116929000Y-99022000D02*
X116840000Y-98933000D01*
X118304500Y-99022000D02*
X116929000Y-99022000D01*
X98222000Y-109055000D02*
X99542000Y-109055000D01*
X111430000Y-109055000D02*
X112750000Y-109055000D01*
X117018000Y-109055000D02*
X118338000Y-109055000D01*
X103810000Y-109055000D02*
X105130000Y-109055000D01*
X98222000Y-107747000D02*
X97155000Y-106680000D01*
X98222000Y-109055000D02*
X98222000Y-107747000D01*
X103810000Y-109055000D02*
X103810000Y-107620000D01*
X102870000Y-106680000D02*
X102235000Y-106680000D01*
X103810000Y-107620000D02*
X102870000Y-106680000D01*
X111430000Y-109055000D02*
X111430000Y-107620000D01*
X111430000Y-107620000D02*
X110490000Y-106680000D01*
X110490000Y-106680000D02*
X109855000Y-106680000D01*
X117018000Y-109055000D02*
X117018000Y-107493000D01*
X117018000Y-107493000D02*
X117475000Y-107036000D01*
X117475000Y-107036000D02*
X117475000Y-106680000D01*
X91760000Y-96454000D02*
X91186000Y-97028000D01*
X91760000Y-95012000D02*
X91760000Y-96454000D01*
X99126000Y-96454000D02*
X98552000Y-97028000D01*
X99126000Y-95012000D02*
X99126000Y-96454000D01*
X83528000Y-94234000D02*
X84074000Y-93688000D01*
X83071000Y-94234000D02*
X83528000Y-94234000D01*
X84356000Y-93970000D02*
X84074000Y-93688000D01*
X84356000Y-94488000D02*
X84356000Y-93970000D01*
X84836000Y-98768000D02*
X81788000Y-98768000D01*
X84836000Y-98768000D02*
X83312000Y-98768000D01*
X83312000Y-98768000D02*
X83312000Y-96481500D01*
X93444000Y-87404000D02*
X92964000Y-87884000D01*
X93444000Y-87084000D02*
X93444000Y-87404000D01*
X78994000Y-88138000D02*
X78232000Y-88900000D01*
X79022000Y-88138000D02*
X78994000Y-88138000D01*
X83071000Y-94234000D02*
X83071000Y-95009000D01*
X83312000Y-95250000D02*
X83312000Y-96481500D01*
X83071000Y-95009000D02*
X83312000Y-95250000D01*
X84356000Y-94488000D02*
X84356000Y-94968000D01*
X84074000Y-95250000D02*
X83312000Y-95250000D01*
X84356000Y-94968000D02*
X84074000Y-95250000D01*
X80251000Y-90719000D02*
X81054000Y-89916000D01*
X80251000Y-91186000D02*
X80251000Y-90719000D01*
X80251000Y-91653000D02*
X81054000Y-92456000D01*
X80251000Y-91186000D02*
X80251000Y-91653000D01*
X80405528Y-89916000D02*
X80334764Y-89986764D01*
X81054000Y-89916000D02*
X80405528Y-89916000D01*
X80251000Y-91186000D02*
X79248000Y-91186000D01*
X81054000Y-92456000D02*
X80264000Y-92456000D01*
X81015538Y-89305990D02*
X80334764Y-89986764D01*
X82336260Y-89305990D02*
X81015538Y-89305990D01*
X82859270Y-89829000D02*
X82336260Y-89305990D01*
X83786500Y-89829000D02*
X82859270Y-89829000D01*
X85257000Y-89829000D02*
X85344000Y-89916000D01*
X83786500Y-89829000D02*
X85257000Y-89829000D01*
X97282000Y-82804000D02*
X97282000Y-80264000D01*
X98298000Y-83820000D02*
X98298000Y-86830000D01*
X97282000Y-82804000D02*
X98298000Y-83820000D01*
X92458000Y-90894000D02*
X92710000Y-90894000D01*
X92710000Y-90894000D02*
X94488000Y-89116000D01*
X97026000Y-88102000D02*
X98298000Y-86830000D01*
X97026000Y-88900000D02*
X97026000Y-88102000D01*
X96810000Y-89116000D02*
X97026000Y-88900000D01*
X94488000Y-89116000D02*
X96810000Y-89116000D01*
X99822000Y-82804000D02*
X99822000Y-80264000D01*
X98698010Y-83927990D02*
X98698010Y-86722010D01*
X99822000Y-82804000D02*
X98698010Y-83927990D01*
X92458000Y-91910000D02*
X94744000Y-89624000D01*
X100078000Y-88102000D02*
X98698010Y-86722010D01*
X100078000Y-88900000D02*
X100078000Y-88102000D01*
X99354000Y-89624000D02*
X100078000Y-88900000D01*
X94744000Y-89624000D02*
X99354000Y-89624000D01*
X86958000Y-84582000D02*
X85897000Y-83521000D01*
X90949020Y-86528980D02*
X90949020Y-85497620D01*
X90949020Y-85497620D02*
X90033400Y-84582000D01*
X90249000Y-87229000D02*
X90949020Y-86528980D01*
X85897000Y-83521000D02*
X85897000Y-82416998D01*
X90033400Y-84582000D02*
X86958000Y-84582000D01*
X89511500Y-87229000D02*
X90249000Y-87229000D01*
X80809999Y-81571999D02*
X85052001Y-81571999D01*
X79502000Y-80264000D02*
X80809999Y-81571999D01*
X85897000Y-82416998D02*
X85052001Y-81571999D01*
X104519000Y-84544000D02*
X103477000Y-84544000D01*
X101332018Y-85203990D02*
X102817010Y-85203990D01*
X100690869Y-85845139D02*
X101332018Y-85203990D01*
X102817010Y-85203990D02*
X103477000Y-84544000D01*
X100690869Y-86110906D02*
X100690869Y-85845139D01*
X100390870Y-86410905D02*
X100690869Y-86110906D01*
X95862301Y-86414000D02*
X96716313Y-86414000D01*
X92868301Y-89408000D02*
X95862301Y-86414000D01*
X90735698Y-89408000D02*
X92868301Y-89408000D01*
X90314698Y-89829000D02*
X90735698Y-89408000D01*
X89511500Y-89829000D02*
X90314698Y-89829000D01*
X104519000Y-83274000D02*
X103477000Y-83274000D01*
X102817010Y-83933990D02*
X103477000Y-83274000D01*
X101360008Y-83933990D02*
X102817010Y-83933990D01*
X100793999Y-84499999D02*
X101360008Y-83933990D01*
X100793999Y-84842001D02*
X100793999Y-84499999D01*
X99822000Y-85814000D02*
X100793999Y-84842001D01*
X92718602Y-88992001D02*
X95896603Y-85814000D01*
X90585998Y-88992001D02*
X92718602Y-88992001D01*
X90398999Y-89179000D02*
X90585998Y-88992001D01*
X89511500Y-89179000D02*
X90398999Y-89179000D01*
X95896603Y-85814000D02*
X97282000Y-85814000D01*
X89511500Y-86579000D02*
X90173000Y-86579000D01*
X90549010Y-85663308D02*
X89975702Y-85090000D01*
X90549010Y-86194692D02*
X90549010Y-85663308D01*
X90164702Y-86579000D02*
X90549010Y-86194692D01*
X89511500Y-86579000D02*
X90164702Y-86579000D01*
X86868000Y-85090000D02*
X84582000Y-82804000D01*
X89975702Y-85090000D02*
X86868000Y-85090000D01*
X87668000Y-82804000D02*
X87122000Y-82804000D01*
X91349030Y-85331931D02*
X90199089Y-84181990D01*
X90199089Y-84181990D02*
X88499990Y-84181990D01*
X91349030Y-86778970D02*
X91349030Y-85331931D01*
X88499990Y-84181990D02*
X87122000Y-82804000D01*
X90249000Y-87879000D02*
X91349030Y-86778970D01*
X89511500Y-87879000D02*
X90249000Y-87879000D01*
X90079028Y-83221028D02*
X89662000Y-82804000D01*
X89662000Y-83058000D02*
X89662000Y-82804000D01*
X91749040Y-85145040D02*
X89662000Y-83058000D01*
X91749040Y-87028960D02*
X91749040Y-85145040D01*
X90249000Y-88529000D02*
X91749040Y-87028960D01*
X89511500Y-88529000D02*
X90249000Y-88529000D01*
X81024000Y-87003198D02*
X80264000Y-86243198D01*
X81024000Y-87084000D02*
X81024000Y-87003198D01*
X80264000Y-83566000D02*
X79502000Y-82804000D01*
X80264000Y-86243198D02*
X80264000Y-83566000D01*
X81024000Y-83822000D02*
X82042000Y-82804000D01*
X81024000Y-86068000D02*
X81024000Y-83822000D01*
X104519000Y-85814000D02*
X103477000Y-85814000D01*
X100838000Y-87084000D02*
X101346000Y-86576000D01*
X103449270Y-85814000D02*
X103477000Y-85814000D01*
X102687270Y-86576000D02*
X103449270Y-85814000D01*
X101346000Y-86576000D02*
X102687270Y-86576000D01*
X90862698Y-89846698D02*
X92995302Y-89846698D01*
X90230396Y-90479000D02*
X90862698Y-89846698D01*
X89511500Y-90479000D02*
X90230396Y-90479000D01*
X92995302Y-89846698D02*
X95758000Y-87084000D01*
X95758000Y-87084000D02*
X96266000Y-87084000D01*
X94742000Y-80264000D02*
X94742000Y-82804000D01*
X93474000Y-84072000D02*
X94742000Y-82804000D01*
X93474000Y-86068000D02*
X93474000Y-84072000D01*
X79794020Y-101638020D02*
X79248000Y-101092000D01*
X86455720Y-100330000D02*
X85147699Y-101638020D01*
X85147699Y-101638020D02*
X79794020Y-101638020D01*
X101092000Y-100330000D02*
X86455720Y-100330000D01*
X102982010Y-98439990D02*
X101092000Y-100330000D01*
X102982010Y-95360010D02*
X102982010Y-98439990D01*
X102362000Y-94740000D02*
X102982010Y-95360010D01*
X80128310Y-88778990D02*
X78319644Y-90587655D01*
X77049644Y-98985644D02*
X77632000Y-99568000D01*
X77049644Y-91857655D02*
X77049644Y-98985644D01*
X80128310Y-88778990D02*
X77049644Y-91857655D01*
X80396989Y-88778990D02*
X80128310Y-88778990D01*
X80670009Y-88505970D02*
X80396989Y-88778990D01*
X82667638Y-88505970D02*
X80670009Y-88505970D01*
X82690668Y-88529000D02*
X82667638Y-88505970D01*
X83786500Y-88529000D02*
X82690668Y-88529000D01*
X80293998Y-89179000D02*
X78919645Y-90553353D01*
X80410010Y-101238010D02*
X79248000Y-100076000D01*
X84982010Y-101238010D02*
X80410010Y-101238010D01*
X86290031Y-99929990D02*
X84982010Y-101238010D01*
X93872010Y-99929990D02*
X86290031Y-99929990D01*
X95616010Y-98185990D02*
X93872010Y-99929990D01*
X95616010Y-95360010D02*
X95616010Y-98185990D01*
X94996000Y-94740000D02*
X95616010Y-95360010D01*
X77649645Y-91823353D02*
X77649645Y-92530355D01*
X80293998Y-89179000D02*
X77649645Y-91823353D01*
X77649645Y-92530355D02*
X77649645Y-98533558D01*
X80562678Y-89179000D02*
X80293998Y-89179000D01*
X80835698Y-88905980D02*
X80562678Y-89179000D01*
X82501949Y-88905980D02*
X80835698Y-88905980D01*
X82774968Y-89179000D02*
X82501949Y-88905980D01*
X83786500Y-89179000D02*
X82774968Y-89179000D01*
X105167312Y-96651989D02*
X110482989Y-96651989D01*
X110482989Y-96651989D02*
X110633000Y-96802000D01*
X105017301Y-96802000D02*
X105167312Y-96651989D01*
X104283000Y-96802000D02*
X105017301Y-96802000D01*
X109805000Y-95974000D02*
X110633000Y-96802000D01*
X108968000Y-95974000D02*
X109805000Y-95974000D01*
X84959000Y-91779000D02*
X83786500Y-91779000D01*
X86305999Y-93125999D02*
X84959000Y-91779000D01*
X107984001Y-93125999D02*
X86305999Y-93125999D01*
X108968000Y-94109998D02*
X107984001Y-93125999D01*
X108968000Y-95974000D02*
X108968000Y-94109998D01*
X121047000Y-96485748D02*
X121047000Y-96802000D01*
X120896989Y-96651989D02*
X121047000Y-96802000D01*
X115581312Y-96651989D02*
X120896989Y-96651989D01*
X115431301Y-96802000D02*
X115581312Y-96651989D01*
X114697000Y-96802000D02*
X115431301Y-96802000D01*
X120219000Y-95974000D02*
X121047000Y-96802000D01*
X119382000Y-95974000D02*
X120219000Y-95974000D01*
X88061000Y-85929000D02*
X89511500Y-85929000D01*
X87376000Y-86614000D02*
X88061000Y-85929000D01*
X87376000Y-91794604D02*
X87376000Y-86614000D01*
X88307385Y-92725989D02*
X87376000Y-91794604D01*
X116133989Y-92725989D02*
X88307385Y-92725989D01*
X119382000Y-95974000D02*
X116133989Y-92725989D01*
X109055500Y-97752000D02*
X109055500Y-98992000D01*
X115659000Y-109055000D02*
X115316000Y-108712000D01*
X116358000Y-109055000D02*
X115659000Y-109055000D01*
X110071000Y-109055000D02*
X109728000Y-108712000D01*
X110770000Y-109055000D02*
X110071000Y-109055000D01*
X109025500Y-99022000D02*
X110333500Y-100330000D01*
X120142000Y-100330000D02*
X121412000Y-101600000D01*
X110333500Y-100330000D02*
X120142000Y-100330000D01*
X119469500Y-97752000D02*
X119469500Y-98992000D01*
X102451000Y-109055000D02*
X102108000Y-108712000D01*
X103150000Y-109055000D02*
X102451000Y-109055000D01*
X96863000Y-109055000D02*
X96520000Y-108712000D01*
X97562000Y-109055000D02*
X96863000Y-109055000D01*
X122385000Y-101600000D02*
X122428000Y-101600000D01*
X119807000Y-99022000D02*
X122385000Y-101600000D01*
X119439500Y-99022000D02*
X119807000Y-99022000D01*
X81788000Y-109728000D02*
X78232000Y-106172000D01*
X78232000Y-98678000D02*
X79248000Y-97662000D01*
X78232000Y-106172000D02*
X78232000Y-98678000D01*
X112633000Y-96085000D02*
X111760000Y-95212000D01*
X112633000Y-97752000D02*
X112633000Y-96085000D01*
X123047000Y-96085000D02*
X122174000Y-95212000D01*
X123047000Y-97752000D02*
X123047000Y-96085000D01*
X109728000Y-93726000D02*
X110744000Y-93726000D01*
X111760000Y-94742000D02*
X111760000Y-95212000D01*
X110744000Y-93726000D02*
X111760000Y-94742000D01*
X109728000Y-93726000D02*
X116078000Y-93726000D01*
X118364000Y-93726000D02*
X121158000Y-93726000D01*
X122174000Y-94742000D02*
X122174000Y-95212000D01*
X121158000Y-93726000D02*
X122174000Y-94742000D01*
X87376000Y-94616000D02*
X88010000Y-94616000D01*
X98552000Y-88862000D02*
X98514000Y-88900000D01*
X98552000Y-87846000D02*
X98552000Y-88862000D01*
X98514000Y-88900000D02*
X99058000Y-88900000D01*
X98046000Y-88900000D02*
X98514000Y-88900000D01*
X88900000Y-93726000D02*
X88010000Y-94616000D01*
X107480000Y-93726000D02*
X98552000Y-93726000D01*
X89916000Y-93726000D02*
X88900000Y-93726000D01*
X98552000Y-93726000D02*
X89916000Y-93726000D01*
X93814994Y-91528994D02*
X94957989Y-90386000D01*
X94957989Y-90386000D02*
X98552000Y-90386000D01*
X85316000Y-94488000D02*
X85852000Y-94488000D01*
X85980000Y-94616000D02*
X87376000Y-94616000D01*
X85852000Y-94488000D02*
X85980000Y-94616000D01*
X84812000Y-96394000D02*
X84812000Y-95528000D01*
X85316000Y-95024000D02*
X85316000Y-94488000D01*
X84812000Y-95528000D02*
X85316000Y-95024000D01*
X83133298Y-91129000D02*
X82550000Y-91712298D01*
X83786500Y-91129000D02*
X83133298Y-91129000D01*
X82550000Y-91920000D02*
X82014000Y-92456000D01*
X82550000Y-91712298D02*
X82550000Y-91920000D01*
X89408000Y-95760000D02*
X90424000Y-95760000D01*
X90424000Y-97561500D02*
X91668500Y-98806000D01*
X90424000Y-95760000D02*
X90424000Y-97561500D01*
X93243500Y-97545500D02*
X92710000Y-97012000D01*
X93243500Y-98806000D02*
X93243500Y-97545500D01*
X96774000Y-95760000D02*
X97790000Y-95760000D01*
X97790000Y-97561500D02*
X99034500Y-98806000D01*
X97790000Y-95760000D02*
X97790000Y-97561500D01*
X100609500Y-97545500D02*
X100076000Y-97012000D01*
X100609500Y-98806000D02*
X100609500Y-97545500D01*
X91203000Y-91129000D02*
X91438000Y-90894000D01*
X89511500Y-91129000D02*
X91203000Y-91129000D01*
X91307000Y-91779000D02*
X91438000Y-91910000D01*
X89511500Y-91779000D02*
X91307000Y-91779000D01*
X109363553Y-97051999D02*
X110633000Y-98321446D01*
X110633000Y-98321446D02*
X110633000Y-98702000D01*
X104283000Y-98102000D02*
X105333001Y-97051999D01*
X104283000Y-98702000D02*
X104283000Y-98102000D01*
X107860500Y-97079500D02*
X107888001Y-97051999D01*
X105333001Y-97051999D02*
X107888001Y-97051999D01*
X107888001Y-97051999D02*
X109363553Y-97051999D01*
X107860500Y-97752000D02*
X107860500Y-97079500D01*
X119777553Y-97051999D02*
X121047000Y-98321446D01*
X121047000Y-98321446D02*
X121047000Y-98702000D01*
X114697000Y-98102000D02*
X115747001Y-97051999D01*
X114697000Y-98702000D02*
X114697000Y-98102000D01*
X118274500Y-97076498D02*
X118298999Y-97051999D01*
X115747001Y-97051999D02*
X118298999Y-97051999D01*
X118298999Y-97051999D02*
X119777553Y-97051999D01*
X118274500Y-97752000D02*
X118274500Y-97076498D01*
X94408000Y-95760000D02*
X93660000Y-95012000D01*
X94996000Y-95760000D02*
X94408000Y-95760000D01*
X101774000Y-95760000D02*
X101026000Y-95012000D01*
X102362000Y-95760000D02*
X101774000Y-95760000D01*
X81393000Y-94362000D02*
X81521000Y-94234000D01*
X79248000Y-94362000D02*
X81393000Y-94362000D01*
X81521000Y-96103000D02*
X81812000Y-96394000D01*
X81521000Y-94234000D02*
X81521000Y-96103000D01*
X96774000Y-94740000D02*
X97790000Y-94740000D01*
X89408000Y-94740000D02*
X90424000Y-94740000D01*
X89408000Y-94740000D02*
X87376000Y-96772000D01*
X84816322Y-100838000D02*
X87376000Y-98278322D01*
X81572000Y-100838000D02*
X84816322Y-100838000D01*
X81026000Y-100292000D02*
X81572000Y-100838000D01*
X81026000Y-97244000D02*
X81026000Y-100292000D01*
X87376000Y-98278322D02*
X87376000Y-97916000D01*
X81812000Y-96458000D02*
X81026000Y-97244000D01*
X81812000Y-96394000D02*
X81812000Y-96458000D01*
X87376000Y-97916000D02*
X87376000Y-96772000D01*
X96203990Y-94169990D02*
X96774000Y-94740000D01*
X90994010Y-94169990D02*
X96203990Y-94169990D01*
X90424000Y-94740000D02*
X90994010Y-94169990D01*
X92454000Y-87054000D02*
X92484000Y-87084000D01*
X92454000Y-86068000D02*
X92454000Y-87054000D01*
X87212470Y-85929000D02*
X87332735Y-85808735D01*
X83786500Y-85929000D02*
X87212470Y-85929000D01*
X92484000Y-87348000D02*
X91948000Y-87884000D01*
X92484000Y-87084000D02*
X92484000Y-87348000D01*
X106387000Y-82426000D02*
X105539000Y-83274000D01*
X109385000Y-82426000D02*
X106387000Y-82426000D01*
X83786500Y-86579000D02*
X82807000Y-86579000D01*
X82296000Y-86068000D02*
X82044000Y-86068000D01*
X82807000Y-86579000D02*
X82296000Y-86068000D01*
X83548000Y-87229000D02*
X83530000Y-87211000D01*
X83786500Y-87229000D02*
X83548000Y-87229000D01*
X82189000Y-87229000D02*
X82044000Y-87084000D01*
X83786500Y-87229000D02*
X82189000Y-87229000D01*
X105539000Y-85814000D02*
X107278980Y-84074020D01*
X107278980Y-84074020D02*
X111252020Y-84074020D01*
X111252020Y-84074020D02*
X111760000Y-84582000D01*
X111760000Y-88351000D02*
X109385000Y-90726000D01*
X111760000Y-84582000D02*
X111760000Y-88351000D01*
X106408990Y-83674010D02*
X105539000Y-84544000D01*
X119236990Y-83674010D02*
X106408990Y-83674010D01*
X120485000Y-82426000D02*
X119236990Y-83674010D01*
X78992000Y-87120000D02*
X78992000Y-87122000D01*
X78232000Y-86360000D02*
X78992000Y-87120000D01*
X78232000Y-79248000D02*
X78232000Y-86360000D01*
X78740000Y-78740000D02*
X78232000Y-79248000D01*
X80518000Y-78740000D02*
X78740000Y-78740000D01*
X82042000Y-80264000D02*
X80518000Y-78740000D01*
X80012000Y-88108000D02*
X79982000Y-88138000D01*
X80012000Y-87122000D02*
X80012000Y-88108000D01*
X83786500Y-87879000D02*
X80015000Y-87879000D01*
X82577000Y-90479000D02*
X82014000Y-89916000D01*
X83786500Y-90479000D02*
X82577000Y-90479000D01*
X82508000Y-90479000D02*
X81801000Y-91186000D01*
X83786500Y-90479000D02*
X82508000Y-90479000D01*
D23*
X107315000Y-125540000D02*
X94869000Y-125540000D01*
X94869000Y-122087386D01*
X104589115Y-122087386D01*
X104715588Y-122329362D01*
X105039195Y-122434276D01*
X105377052Y-122474043D01*
X105716176Y-122447132D01*
X106043532Y-122354579D01*
X106104412Y-122329362D01*
X106230885Y-122087386D01*
X105410000Y-121266502D01*
X104589115Y-122087386D01*
X94869000Y-122087386D01*
X94869000Y-120706052D01*
X103674957Y-120706052D01*
X103701868Y-121045176D01*
X103794421Y-121372532D01*
X103819638Y-121433412D01*
X104061614Y-121559885D01*
X104882498Y-120739000D01*
X105937502Y-120739000D01*
X106758386Y-121559885D01*
X107000362Y-121433412D01*
X107105276Y-121109805D01*
X107145043Y-120771948D01*
X107118132Y-120432824D01*
X107025579Y-120105468D01*
X107000362Y-120044588D01*
X106758386Y-119918115D01*
X105937502Y-120739000D01*
X104882498Y-120739000D01*
X104061614Y-119918115D01*
X103819638Y-120044588D01*
X103714724Y-120368195D01*
X103674957Y-120706052D01*
X94869000Y-120706052D01*
X94869000Y-119390614D01*
X104589115Y-119390614D01*
X105410000Y-120211498D01*
X106230885Y-119390614D01*
X106104412Y-119148638D01*
X105780805Y-119043724D01*
X105442948Y-119003957D01*
X105103824Y-119030868D01*
X104776468Y-119123421D01*
X104715588Y-119148638D01*
X104589115Y-119390614D01*
X94869000Y-119390614D01*
X94869000Y-113514729D01*
X95174615Y-113310524D01*
X95540524Y-112944615D01*
X95828017Y-112514351D01*
X96026046Y-112036268D01*
X96127000Y-111528737D01*
X96127000Y-111011263D01*
X96026046Y-110503732D01*
X95967753Y-110363000D01*
X107315000Y-110363000D01*
X107315000Y-125540000D01*
G04 #@! TA.AperFunction,Conductor*
D24*
G36*
X107315000Y-125540000D02*
G01*
X94869000Y-125540000D01*
X94869000Y-122087386D01*
X104589115Y-122087386D01*
X104715588Y-122329362D01*
X105039195Y-122434276D01*
X105377052Y-122474043D01*
X105716176Y-122447132D01*
X106043532Y-122354579D01*
X106104412Y-122329362D01*
X106230885Y-122087386D01*
X105410000Y-121266502D01*
X104589115Y-122087386D01*
X94869000Y-122087386D01*
X94869000Y-120706052D01*
X103674957Y-120706052D01*
X103701868Y-121045176D01*
X103794421Y-121372532D01*
X103819638Y-121433412D01*
X104061614Y-121559885D01*
X104882498Y-120739000D01*
X105937502Y-120739000D01*
X106758386Y-121559885D01*
X107000362Y-121433412D01*
X107105276Y-121109805D01*
X107145043Y-120771948D01*
X107118132Y-120432824D01*
X107025579Y-120105468D01*
X107000362Y-120044588D01*
X106758386Y-119918115D01*
X105937502Y-120739000D01*
X104882498Y-120739000D01*
X104061614Y-119918115D01*
X103819638Y-120044588D01*
X103714724Y-120368195D01*
X103674957Y-120706052D01*
X94869000Y-120706052D01*
X94869000Y-119390614D01*
X104589115Y-119390614D01*
X105410000Y-120211498D01*
X106230885Y-119390614D01*
X106104412Y-119148638D01*
X105780805Y-119043724D01*
X105442948Y-119003957D01*
X105103824Y-119030868D01*
X104776468Y-119123421D01*
X104715588Y-119148638D01*
X104589115Y-119390614D01*
X94869000Y-119390614D01*
X94869000Y-113514729D01*
X95174615Y-113310524D01*
X95540524Y-112944615D01*
X95828017Y-112514351D01*
X96026046Y-112036268D01*
X96127000Y-111528737D01*
X96127000Y-111011263D01*
X96026046Y-110503732D01*
X95967753Y-110363000D01*
X107315000Y-110363000D01*
X107315000Y-125540000D01*
G37*
G04 #@! TD.AperFunction*
D25*
X120489284Y-101702589D02*
X120522547Y-101869813D01*
X120592275Y-102038152D01*
X120693505Y-102189653D01*
X120822347Y-102318495D01*
X120973848Y-102419725D01*
X121142187Y-102489453D01*
X121320895Y-102525000D01*
X121503105Y-102525000D01*
X121681813Y-102489453D01*
X121850152Y-102419725D01*
X121920000Y-102373054D01*
X121989848Y-102419725D01*
X122158187Y-102489453D01*
X122336895Y-102525000D01*
X122519105Y-102525000D01*
X122697813Y-102489453D01*
X122866152Y-102419725D01*
X123017653Y-102318495D01*
X123146495Y-102189653D01*
X123247725Y-102038152D01*
X123317453Y-101869813D01*
X123353000Y-101691105D01*
X123353000Y-101508895D01*
X123317453Y-101330187D01*
X123247725Y-101161848D01*
X123199718Y-101090000D01*
X125550000Y-101090000D01*
X125550000Y-109613168D01*
X125538970Y-109596660D01*
X125173340Y-109231030D01*
X124743404Y-108943755D01*
X124265684Y-108745878D01*
X123758540Y-108645000D01*
X123241460Y-108645000D01*
X122734316Y-108745878D01*
X122256596Y-108943755D01*
X121826660Y-109231030D01*
X121461030Y-109596660D01*
X121418188Y-109660778D01*
X121400239Y-109651184D01*
X121281492Y-109615163D01*
X121158000Y-109603000D01*
X118699963Y-109603000D01*
X118588021Y-109569043D01*
X118465500Y-109556976D01*
X117187837Y-109556976D01*
X117188524Y-109550000D01*
X117188524Y-108560000D01*
X117176457Y-108437479D01*
X117140719Y-108319666D01*
X117082683Y-108211089D01*
X117004580Y-108115920D01*
X116909411Y-108037817D01*
X116800834Y-107979781D01*
X116683021Y-107944043D01*
X116560500Y-107931976D01*
X116155500Y-107931976D01*
X116032979Y-107944043D01*
X115915166Y-107979781D01*
X115898470Y-107988705D01*
X115754152Y-107892275D01*
X115585813Y-107822547D01*
X115407105Y-107787000D01*
X115224895Y-107787000D01*
X115046187Y-107822547D01*
X114877848Y-107892275D01*
X114726347Y-107993505D01*
X114597505Y-108122347D01*
X114496275Y-108273848D01*
X114426547Y-108442187D01*
X114391000Y-108620895D01*
X114391000Y-108803105D01*
X114426547Y-108981813D01*
X114496275Y-109150152D01*
X114597505Y-109301653D01*
X114726347Y-109430495D01*
X114877848Y-109531725D01*
X115046187Y-109601453D01*
X115053964Y-109603000D01*
X113111963Y-109603000D01*
X113000021Y-109569043D01*
X112877500Y-109556976D01*
X111599837Y-109556976D01*
X111600524Y-109550000D01*
X111600524Y-108560000D01*
X111588457Y-108437479D01*
X111552719Y-108319666D01*
X111494683Y-108211089D01*
X111416580Y-108115920D01*
X111321411Y-108037817D01*
X111212834Y-107979781D01*
X111095021Y-107944043D01*
X110972500Y-107931976D01*
X110567500Y-107931976D01*
X110444979Y-107944043D01*
X110327166Y-107979781D01*
X110310470Y-107988705D01*
X110166152Y-107892275D01*
X109997813Y-107822547D01*
X109819105Y-107787000D01*
X109636895Y-107787000D01*
X109458187Y-107822547D01*
X109289848Y-107892275D01*
X109138347Y-107993505D01*
X109009505Y-108122347D01*
X108908275Y-108273848D01*
X108838547Y-108442187D01*
X108803000Y-108620895D01*
X108803000Y-108803105D01*
X108838547Y-108981813D01*
X108908275Y-109150152D01*
X109009505Y-109301653D01*
X109138347Y-109430495D01*
X109289848Y-109531725D01*
X109458187Y-109601453D01*
X109465964Y-109603000D01*
X105491963Y-109603000D01*
X105380021Y-109569043D01*
X105257500Y-109556976D01*
X103979837Y-109556976D01*
X103980524Y-109550000D01*
X103980524Y-108560000D01*
X103968457Y-108437479D01*
X103932719Y-108319666D01*
X103874683Y-108211089D01*
X103796580Y-108115920D01*
X103701411Y-108037817D01*
X103592834Y-107979781D01*
X103475021Y-107944043D01*
X103352500Y-107931976D01*
X102947500Y-107931976D01*
X102824979Y-107944043D01*
X102707166Y-107979781D01*
X102690470Y-107988705D01*
X102546152Y-107892275D01*
X102377813Y-107822547D01*
X102199105Y-107787000D01*
X102016895Y-107787000D01*
X101838187Y-107822547D01*
X101669848Y-107892275D01*
X101518347Y-107993505D01*
X101389505Y-108122347D01*
X101288275Y-108273848D01*
X101218547Y-108442187D01*
X101183000Y-108620895D01*
X101183000Y-108803105D01*
X101218547Y-108981813D01*
X101288275Y-109150152D01*
X101389505Y-109301653D01*
X101518347Y-109430495D01*
X101669848Y-109531725D01*
X101838187Y-109601453D01*
X101845964Y-109603000D01*
X99903963Y-109603000D01*
X99792021Y-109569043D01*
X99669500Y-109556976D01*
X98391837Y-109556976D01*
X98392524Y-109550000D01*
X98392524Y-108560000D01*
X98380457Y-108437479D01*
X98344719Y-108319666D01*
X98286683Y-108211089D01*
X98208580Y-108115920D01*
X98113411Y-108037817D01*
X98004834Y-107979781D01*
X97887021Y-107944043D01*
X97764500Y-107931976D01*
X97359500Y-107931976D01*
X97236979Y-107944043D01*
X97119166Y-107979781D01*
X97102470Y-107988705D01*
X96958152Y-107892275D01*
X96789813Y-107822547D01*
X96611105Y-107787000D01*
X96428895Y-107787000D01*
X96250187Y-107822547D01*
X96081848Y-107892275D01*
X95930347Y-107993505D01*
X95801505Y-108122347D01*
X95700275Y-108273848D01*
X95630547Y-108442187D01*
X95595000Y-108620895D01*
X95595000Y-108803105D01*
X95630547Y-108981813D01*
X95700275Y-109150152D01*
X95801505Y-109301653D01*
X95930347Y-109430495D01*
X96081848Y-109531725D01*
X96250187Y-109601453D01*
X96257964Y-109603000D01*
X95543206Y-109603000D01*
X95538970Y-109596660D01*
X95173340Y-109231030D01*
X94743404Y-108943755D01*
X94265684Y-108745878D01*
X93758540Y-108645000D01*
X93241460Y-108645000D01*
X92734316Y-108745878D01*
X92256596Y-108943755D01*
X91826660Y-109231030D01*
X91461030Y-109596660D01*
X91173755Y-110026596D01*
X91071575Y-110273283D01*
X84451066Y-106490135D01*
X84364839Y-106447852D01*
X84222269Y-106404603D01*
X84074000Y-106390000D01*
X79475304Y-106390000D01*
X78957000Y-105871696D01*
X78957000Y-105714140D01*
X80898637Y-105714140D01*
X81021053Y-105916275D01*
X81283218Y-106041529D01*
X81564781Y-106113231D01*
X81854922Y-106128625D01*
X82142492Y-106087120D01*
X82416439Y-105990310D01*
X82554947Y-105916275D01*
X82677363Y-105714140D01*
X81788000Y-104824777D01*
X80898637Y-105714140D01*
X78957000Y-105714140D01*
X78957000Y-104714922D01*
X80307375Y-104714922D01*
X80348880Y-105002492D01*
X80445690Y-105276439D01*
X80519725Y-105414947D01*
X80721860Y-105537363D01*
X81611223Y-104648000D01*
X81964777Y-104648000D01*
X82854140Y-105537363D01*
X83056275Y-105414947D01*
X83181529Y-105152782D01*
X83253231Y-104871219D01*
X83268625Y-104581078D01*
X83227120Y-104293508D01*
X83130310Y-104019561D01*
X83056275Y-103881053D01*
X82854140Y-103758637D01*
X81964777Y-104648000D01*
X81611223Y-104648000D01*
X80721860Y-103758637D01*
X80519725Y-103881053D01*
X80394471Y-104143218D01*
X80322769Y-104424781D01*
X80307375Y-104714922D01*
X78957000Y-104714922D01*
X78957000Y-103581860D01*
X80898637Y-103581860D01*
X81788000Y-104471223D01*
X82677363Y-103581860D01*
X82554947Y-103379725D01*
X82292782Y-103254471D01*
X82011219Y-103182769D01*
X81721078Y-103167375D01*
X81433508Y-103208880D01*
X81159561Y-103305690D01*
X81021053Y-103379725D01*
X80898637Y-103581860D01*
X78957000Y-103581860D01*
X78957000Y-101972677D01*
X78978187Y-101981453D01*
X79145411Y-102014716D01*
X79256192Y-102125497D01*
X79278888Y-102153152D01*
X79306543Y-102175848D01*
X79306545Y-102175850D01*
X79389283Y-102243751D01*
X79515232Y-102311073D01*
X79651895Y-102352529D01*
X79758413Y-102363020D01*
X79758423Y-102363020D01*
X79794020Y-102366526D01*
X79829617Y-102363020D01*
X85112102Y-102363020D01*
X85147699Y-102366526D01*
X85183296Y-102363020D01*
X85183306Y-102363020D01*
X85289824Y-102352529D01*
X85426487Y-102311073D01*
X85552436Y-102243751D01*
X85662831Y-102153152D01*
X85685531Y-102125492D01*
X86721024Y-101090000D01*
X119876696Y-101090000D01*
X120489284Y-101702589D01*
G04 #@! TA.AperFunction,Conductor*
D24*
G36*
X120489284Y-101702589D02*
G01*
X120522547Y-101869813D01*
X120592275Y-102038152D01*
X120693505Y-102189653D01*
X120822347Y-102318495D01*
X120973848Y-102419725D01*
X121142187Y-102489453D01*
X121320895Y-102525000D01*
X121503105Y-102525000D01*
X121681813Y-102489453D01*
X121850152Y-102419725D01*
X121920000Y-102373054D01*
X121989848Y-102419725D01*
X122158187Y-102489453D01*
X122336895Y-102525000D01*
X122519105Y-102525000D01*
X122697813Y-102489453D01*
X122866152Y-102419725D01*
X123017653Y-102318495D01*
X123146495Y-102189653D01*
X123247725Y-102038152D01*
X123317453Y-101869813D01*
X123353000Y-101691105D01*
X123353000Y-101508895D01*
X123317453Y-101330187D01*
X123247725Y-101161848D01*
X123199718Y-101090000D01*
X125550000Y-101090000D01*
X125550000Y-109613168D01*
X125538970Y-109596660D01*
X125173340Y-109231030D01*
X124743404Y-108943755D01*
X124265684Y-108745878D01*
X123758540Y-108645000D01*
X123241460Y-108645000D01*
X122734316Y-108745878D01*
X122256596Y-108943755D01*
X121826660Y-109231030D01*
X121461030Y-109596660D01*
X121418188Y-109660778D01*
X121400239Y-109651184D01*
X121281492Y-109615163D01*
X121158000Y-109603000D01*
X118699963Y-109603000D01*
X118588021Y-109569043D01*
X118465500Y-109556976D01*
X117187837Y-109556976D01*
X117188524Y-109550000D01*
X117188524Y-108560000D01*
X117176457Y-108437479D01*
X117140719Y-108319666D01*
X117082683Y-108211089D01*
X117004580Y-108115920D01*
X116909411Y-108037817D01*
X116800834Y-107979781D01*
X116683021Y-107944043D01*
X116560500Y-107931976D01*
X116155500Y-107931976D01*
X116032979Y-107944043D01*
X115915166Y-107979781D01*
X115898470Y-107988705D01*
X115754152Y-107892275D01*
X115585813Y-107822547D01*
X115407105Y-107787000D01*
X115224895Y-107787000D01*
X115046187Y-107822547D01*
X114877848Y-107892275D01*
X114726347Y-107993505D01*
X114597505Y-108122347D01*
X114496275Y-108273848D01*
X114426547Y-108442187D01*
X114391000Y-108620895D01*
X114391000Y-108803105D01*
X114426547Y-108981813D01*
X114496275Y-109150152D01*
X114597505Y-109301653D01*
X114726347Y-109430495D01*
X114877848Y-109531725D01*
X115046187Y-109601453D01*
X115053964Y-109603000D01*
X113111963Y-109603000D01*
X113000021Y-109569043D01*
X112877500Y-109556976D01*
X111599837Y-109556976D01*
X111600524Y-109550000D01*
X111600524Y-108560000D01*
X111588457Y-108437479D01*
X111552719Y-108319666D01*
X111494683Y-108211089D01*
X111416580Y-108115920D01*
X111321411Y-108037817D01*
X111212834Y-107979781D01*
X111095021Y-107944043D01*
X110972500Y-107931976D01*
X110567500Y-107931976D01*
X110444979Y-107944043D01*
X110327166Y-107979781D01*
X110310470Y-107988705D01*
X110166152Y-107892275D01*
X109997813Y-107822547D01*
X109819105Y-107787000D01*
X109636895Y-107787000D01*
X109458187Y-107822547D01*
X109289848Y-107892275D01*
X109138347Y-107993505D01*
X109009505Y-108122347D01*
X108908275Y-108273848D01*
X108838547Y-108442187D01*
X108803000Y-108620895D01*
X108803000Y-108803105D01*
X108838547Y-108981813D01*
X108908275Y-109150152D01*
X109009505Y-109301653D01*
X109138347Y-109430495D01*
X109289848Y-109531725D01*
X109458187Y-109601453D01*
X109465964Y-109603000D01*
X105491963Y-109603000D01*
X105380021Y-109569043D01*
X105257500Y-109556976D01*
X103979837Y-109556976D01*
X103980524Y-109550000D01*
X103980524Y-108560000D01*
X103968457Y-108437479D01*
X103932719Y-108319666D01*
X103874683Y-108211089D01*
X103796580Y-108115920D01*
X103701411Y-108037817D01*
X103592834Y-107979781D01*
X103475021Y-107944043D01*
X103352500Y-107931976D01*
X102947500Y-107931976D01*
X102824979Y-107944043D01*
X102707166Y-107979781D01*
X102690470Y-107988705D01*
X102546152Y-107892275D01*
X102377813Y-107822547D01*
X102199105Y-107787000D01*
X102016895Y-107787000D01*
X101838187Y-107822547D01*
X101669848Y-107892275D01*
X101518347Y-107993505D01*
X101389505Y-108122347D01*
X101288275Y-108273848D01*
X101218547Y-108442187D01*
X101183000Y-108620895D01*
X101183000Y-108803105D01*
X101218547Y-108981813D01*
X101288275Y-109150152D01*
X101389505Y-109301653D01*
X101518347Y-109430495D01*
X101669848Y-109531725D01*
X101838187Y-109601453D01*
X101845964Y-109603000D01*
X99903963Y-109603000D01*
X99792021Y-109569043D01*
X99669500Y-109556976D01*
X98391837Y-109556976D01*
X98392524Y-109550000D01*
X98392524Y-108560000D01*
X98380457Y-108437479D01*
X98344719Y-108319666D01*
X98286683Y-108211089D01*
X98208580Y-108115920D01*
X98113411Y-108037817D01*
X98004834Y-107979781D01*
X97887021Y-107944043D01*
X97764500Y-107931976D01*
X97359500Y-107931976D01*
X97236979Y-107944043D01*
X97119166Y-107979781D01*
X97102470Y-107988705D01*
X96958152Y-107892275D01*
X96789813Y-107822547D01*
X96611105Y-107787000D01*
X96428895Y-107787000D01*
X96250187Y-107822547D01*
X96081848Y-107892275D01*
X95930347Y-107993505D01*
X95801505Y-108122347D01*
X95700275Y-108273848D01*
X95630547Y-108442187D01*
X95595000Y-108620895D01*
X95595000Y-108803105D01*
X95630547Y-108981813D01*
X95700275Y-109150152D01*
X95801505Y-109301653D01*
X95930347Y-109430495D01*
X96081848Y-109531725D01*
X96250187Y-109601453D01*
X96257964Y-109603000D01*
X95543206Y-109603000D01*
X95538970Y-109596660D01*
X95173340Y-109231030D01*
X94743404Y-108943755D01*
X94265684Y-108745878D01*
X93758540Y-108645000D01*
X93241460Y-108645000D01*
X92734316Y-108745878D01*
X92256596Y-108943755D01*
X91826660Y-109231030D01*
X91461030Y-109596660D01*
X91173755Y-110026596D01*
X91071575Y-110273283D01*
X84451066Y-106490135D01*
X84364839Y-106447852D01*
X84222269Y-106404603D01*
X84074000Y-106390000D01*
X79475304Y-106390000D01*
X78957000Y-105871696D01*
X78957000Y-105714140D01*
X80898637Y-105714140D01*
X81021053Y-105916275D01*
X81283218Y-106041529D01*
X81564781Y-106113231D01*
X81854922Y-106128625D01*
X82142492Y-106087120D01*
X82416439Y-105990310D01*
X82554947Y-105916275D01*
X82677363Y-105714140D01*
X81788000Y-104824777D01*
X80898637Y-105714140D01*
X78957000Y-105714140D01*
X78957000Y-104714922D01*
X80307375Y-104714922D01*
X80348880Y-105002492D01*
X80445690Y-105276439D01*
X80519725Y-105414947D01*
X80721860Y-105537363D01*
X81611223Y-104648000D01*
X81964777Y-104648000D01*
X82854140Y-105537363D01*
X83056275Y-105414947D01*
X83181529Y-105152782D01*
X83253231Y-104871219D01*
X83268625Y-104581078D01*
X83227120Y-104293508D01*
X83130310Y-104019561D01*
X83056275Y-103881053D01*
X82854140Y-103758637D01*
X81964777Y-104648000D01*
X81611223Y-104648000D01*
X80721860Y-103758637D01*
X80519725Y-103881053D01*
X80394471Y-104143218D01*
X80322769Y-104424781D01*
X80307375Y-104714922D01*
X78957000Y-104714922D01*
X78957000Y-103581860D01*
X80898637Y-103581860D01*
X81788000Y-104471223D01*
X82677363Y-103581860D01*
X82554947Y-103379725D01*
X82292782Y-103254471D01*
X82011219Y-103182769D01*
X81721078Y-103167375D01*
X81433508Y-103208880D01*
X81159561Y-103305690D01*
X81021053Y-103379725D01*
X80898637Y-103581860D01*
X78957000Y-103581860D01*
X78957000Y-101972677D01*
X78978187Y-101981453D01*
X79145411Y-102014716D01*
X79256192Y-102125497D01*
X79278888Y-102153152D01*
X79306543Y-102175848D01*
X79306545Y-102175850D01*
X79389283Y-102243751D01*
X79515232Y-102311073D01*
X79651895Y-102352529D01*
X79758413Y-102363020D01*
X79758423Y-102363020D01*
X79794020Y-102366526D01*
X79829617Y-102363020D01*
X85112102Y-102363020D01*
X85147699Y-102366526D01*
X85183296Y-102363020D01*
X85183306Y-102363020D01*
X85289824Y-102352529D01*
X85426487Y-102311073D01*
X85552436Y-102243751D01*
X85662831Y-102153152D01*
X85685531Y-102125492D01*
X86721024Y-101090000D01*
X119876696Y-101090000D01*
X120489284Y-101702589D01*
G37*
G04 #@! TD.AperFunction*
D23*
X121031000Y-110366011D02*
X120973954Y-110503732D01*
X120873000Y-111011263D01*
X120873000Y-111528737D01*
X120973954Y-112036268D01*
X121031000Y-112173989D01*
X121031000Y-125540000D01*
X108077000Y-125540000D01*
X108077000Y-122087386D01*
X109669115Y-122087386D01*
X109795588Y-122329362D01*
X110119195Y-122434276D01*
X110457052Y-122474043D01*
X110796176Y-122447132D01*
X111123532Y-122354579D01*
X111184412Y-122329362D01*
X111310885Y-122087386D01*
X110490000Y-121266502D01*
X109669115Y-122087386D01*
X108077000Y-122087386D01*
X108077000Y-120706052D01*
X108754957Y-120706052D01*
X108781868Y-121045176D01*
X108874421Y-121372532D01*
X108899638Y-121433412D01*
X109141614Y-121559885D01*
X109962498Y-120739000D01*
X111017502Y-120739000D01*
X111838386Y-121559885D01*
X112080362Y-121433412D01*
X112185276Y-121109805D01*
X112225043Y-120771948D01*
X112198132Y-120432824D01*
X112105579Y-120105468D01*
X112080362Y-120044588D01*
X111838386Y-119918115D01*
X111017502Y-120739000D01*
X109962498Y-120739000D01*
X109141614Y-119918115D01*
X108899638Y-120044588D01*
X108794724Y-120368195D01*
X108754957Y-120706052D01*
X108077000Y-120706052D01*
X108077000Y-119390614D01*
X109669115Y-119390614D01*
X110490000Y-120211498D01*
X111310885Y-119390614D01*
X111184412Y-119148638D01*
X110860805Y-119043724D01*
X110522948Y-119003957D01*
X110183824Y-119030868D01*
X109856468Y-119123421D01*
X109795588Y-119148638D01*
X109669115Y-119390614D01*
X108077000Y-119390614D01*
X108077000Y-110363000D01*
X121031000Y-110363000D01*
X121031000Y-110366011D01*
G04 #@! TA.AperFunction,Conductor*
D24*
G36*
X121031000Y-110366011D02*
G01*
X120973954Y-110503732D01*
X120873000Y-111011263D01*
X120873000Y-111528737D01*
X120973954Y-112036268D01*
X121031000Y-112173989D01*
X121031000Y-125540000D01*
X108077000Y-125540000D01*
X108077000Y-122087386D01*
X109669115Y-122087386D01*
X109795588Y-122329362D01*
X110119195Y-122434276D01*
X110457052Y-122474043D01*
X110796176Y-122447132D01*
X111123532Y-122354579D01*
X111184412Y-122329362D01*
X111310885Y-122087386D01*
X110490000Y-121266502D01*
X109669115Y-122087386D01*
X108077000Y-122087386D01*
X108077000Y-120706052D01*
X108754957Y-120706052D01*
X108781868Y-121045176D01*
X108874421Y-121372532D01*
X108899638Y-121433412D01*
X109141614Y-121559885D01*
X109962498Y-120739000D01*
X111017502Y-120739000D01*
X111838386Y-121559885D01*
X112080362Y-121433412D01*
X112185276Y-121109805D01*
X112225043Y-120771948D01*
X112198132Y-120432824D01*
X112105579Y-120105468D01*
X112080362Y-120044588D01*
X111838386Y-119918115D01*
X111017502Y-120739000D01*
X109962498Y-120739000D01*
X109141614Y-119918115D01*
X108899638Y-120044588D01*
X108794724Y-120368195D01*
X108754957Y-120706052D01*
X108077000Y-120706052D01*
X108077000Y-119390614D01*
X109669115Y-119390614D01*
X110490000Y-120211498D01*
X111310885Y-119390614D01*
X111184412Y-119148638D01*
X110860805Y-119043724D01*
X110522948Y-119003957D01*
X110183824Y-119030868D01*
X109856468Y-119123421D01*
X109795588Y-119148638D01*
X109669115Y-119390614D01*
X108077000Y-119390614D01*
X108077000Y-110363000D01*
X121031000Y-110363000D01*
X121031000Y-110366011D01*
G37*
G04 #@! TD.AperFunction*
D23*
X90873000Y-111181415D02*
X90873000Y-111528737D01*
X90973954Y-112036268D01*
X91171983Y-112514351D01*
X91459476Y-112944615D01*
X91825385Y-113310524D01*
X92255649Y-113598017D01*
X92733732Y-113796046D01*
X93241263Y-113897000D01*
X93758737Y-113897000D01*
X93980000Y-113852988D01*
X93980000Y-125413000D01*
X78738491Y-125413000D01*
X78368007Y-125376674D01*
X78048667Y-125280259D01*
X77754127Y-125123649D01*
X77495621Y-124912817D01*
X77282986Y-124655785D01*
X77124327Y-124362351D01*
X77025685Y-124043690D01*
X76987000Y-123675625D01*
X76987000Y-122841609D01*
X77513000Y-122841609D01*
X77513000Y-123208391D01*
X77584556Y-123568125D01*
X77724917Y-123906988D01*
X77928690Y-124211956D01*
X78188044Y-124471310D01*
X78493012Y-124675083D01*
X78831875Y-124815444D01*
X79191609Y-124887000D01*
X79558391Y-124887000D01*
X79918125Y-124815444D01*
X80256988Y-124675083D01*
X80561956Y-124471310D01*
X80821310Y-124211956D01*
X81025083Y-123906988D01*
X81165444Y-123568125D01*
X81237000Y-123208391D01*
X81237000Y-122841609D01*
X81165444Y-122481875D01*
X81025083Y-122143012D01*
X80893252Y-121945712D01*
X85967893Y-121945712D01*
X86075726Y-122220338D01*
X86382384Y-122371216D01*
X86712585Y-122459369D01*
X87053639Y-122481409D01*
X87392439Y-122436489D01*
X87715966Y-122326336D01*
X87914274Y-122220338D01*
X88022107Y-121945712D01*
X91047893Y-121945712D01*
X91155726Y-122220338D01*
X91462384Y-122371216D01*
X91792585Y-122459369D01*
X92133639Y-122481409D01*
X92472439Y-122436489D01*
X92795966Y-122326336D01*
X92994274Y-122220338D01*
X93102107Y-121945712D01*
X92075000Y-120918605D01*
X91047893Y-121945712D01*
X88022107Y-121945712D01*
X86995000Y-120918605D01*
X85967893Y-121945712D01*
X80893252Y-121945712D01*
X80821310Y-121838044D01*
X80561956Y-121578690D01*
X80256988Y-121374917D01*
X79918125Y-121234556D01*
X79558391Y-121163000D01*
X79191609Y-121163000D01*
X78831875Y-121234556D01*
X78493012Y-121374917D01*
X78188044Y-121578690D01*
X77928690Y-121838044D01*
X77724917Y-122143012D01*
X77584556Y-122481875D01*
X77513000Y-122841609D01*
X76987000Y-122841609D01*
X76987000Y-120797639D01*
X85252591Y-120797639D01*
X85297511Y-121136439D01*
X85407664Y-121459966D01*
X85513662Y-121658274D01*
X85788288Y-121766107D01*
X86815395Y-120739000D01*
X87174605Y-120739000D01*
X88201712Y-121766107D01*
X88476338Y-121658274D01*
X88627216Y-121351616D01*
X88715369Y-121021415D01*
X88729830Y-120797639D01*
X90332591Y-120797639D01*
X90377511Y-121136439D01*
X90487664Y-121459966D01*
X90593662Y-121658274D01*
X90868288Y-121766107D01*
X91895395Y-120739000D01*
X92254605Y-120739000D01*
X93281712Y-121766107D01*
X93556338Y-121658274D01*
X93707216Y-121351616D01*
X93795369Y-121021415D01*
X93817409Y-120680361D01*
X93772489Y-120341561D01*
X93662336Y-120018034D01*
X93556338Y-119819726D01*
X93281712Y-119711893D01*
X92254605Y-120739000D01*
X91895395Y-120739000D01*
X90868288Y-119711893D01*
X90593662Y-119819726D01*
X90442784Y-120126384D01*
X90354631Y-120456585D01*
X90332591Y-120797639D01*
X88729830Y-120797639D01*
X88737409Y-120680361D01*
X88692489Y-120341561D01*
X88582336Y-120018034D01*
X88476338Y-119819726D01*
X88201712Y-119711893D01*
X87174605Y-120739000D01*
X86815395Y-120739000D01*
X85788288Y-119711893D01*
X85513662Y-119819726D01*
X85362784Y-120126384D01*
X85274631Y-120456585D01*
X85252591Y-120797639D01*
X76987000Y-120797639D01*
X76987000Y-119532288D01*
X85967893Y-119532288D01*
X86995000Y-120559395D01*
X88022107Y-119532288D01*
X91047893Y-119532288D01*
X92075000Y-120559395D01*
X93102107Y-119532288D01*
X92994274Y-119257662D01*
X92687616Y-119106784D01*
X92357415Y-119018631D01*
X92016361Y-118996591D01*
X91677561Y-119041511D01*
X91354034Y-119151664D01*
X91155726Y-119257662D01*
X91047893Y-119532288D01*
X88022107Y-119532288D01*
X87914274Y-119257662D01*
X87607616Y-119106784D01*
X87277415Y-119018631D01*
X86936361Y-118996591D01*
X86597561Y-119041511D01*
X86274034Y-119151664D01*
X86075726Y-119257662D01*
X85967893Y-119532288D01*
X76987000Y-119532288D01*
X76987000Y-117813219D01*
X79307000Y-117813219D01*
X79307000Y-118076781D01*
X79358419Y-118335280D01*
X79459280Y-118578781D01*
X79605708Y-118797925D01*
X79792075Y-118984292D01*
X80011219Y-119130720D01*
X80254720Y-119231581D01*
X80513219Y-119283000D01*
X80776781Y-119283000D01*
X81035280Y-119231581D01*
X81278781Y-119130720D01*
X81497925Y-118984292D01*
X81684292Y-118797925D01*
X81830720Y-118578781D01*
X81931581Y-118335280D01*
X81983000Y-118076781D01*
X81983000Y-117813219D01*
X81931581Y-117554720D01*
X81830720Y-117311219D01*
X81684292Y-117092075D01*
X81497925Y-116905708D01*
X81278781Y-116759280D01*
X81035280Y-116658419D01*
X80776781Y-116607000D01*
X80513219Y-116607000D01*
X80254720Y-116658419D01*
X80011219Y-116759280D01*
X79792075Y-116905708D01*
X79605708Y-117092075D01*
X79459280Y-117311219D01*
X79358419Y-117554720D01*
X79307000Y-117813219D01*
X76987000Y-117813219D01*
X76987000Y-110934712D01*
X80760893Y-110934712D01*
X80868726Y-111209338D01*
X81175384Y-111360216D01*
X81505585Y-111448369D01*
X81846639Y-111470409D01*
X82185439Y-111425489D01*
X82508966Y-111315336D01*
X82707274Y-111209338D01*
X82815107Y-110934712D01*
X81788000Y-109907605D01*
X80760893Y-110934712D01*
X76987000Y-110934712D01*
X76987000Y-109786639D01*
X80045591Y-109786639D01*
X80090511Y-110125439D01*
X80200664Y-110448966D01*
X80306662Y-110647274D01*
X80581288Y-110755107D01*
X81608395Y-109728000D01*
X81967605Y-109728000D01*
X82994712Y-110755107D01*
X83269338Y-110647274D01*
X83420216Y-110340616D01*
X83508369Y-110010415D01*
X83530409Y-109669361D01*
X83485489Y-109330561D01*
X83375336Y-109007034D01*
X83269338Y-108808726D01*
X82994712Y-108700893D01*
X81967605Y-109728000D01*
X81608395Y-109728000D01*
X80581288Y-108700893D01*
X80306662Y-108808726D01*
X80155784Y-109115384D01*
X80067631Y-109445585D01*
X80045591Y-109786639D01*
X76987000Y-109786639D01*
X76987000Y-108521288D01*
X80760893Y-108521288D01*
X81788000Y-109548395D01*
X82815107Y-108521288D01*
X82707274Y-108246662D01*
X82400616Y-108095784D01*
X82070415Y-108007631D01*
X81729361Y-107985591D01*
X81390561Y-108030511D01*
X81067034Y-108140664D01*
X80868726Y-108246662D01*
X80760893Y-108521288D01*
X76987000Y-108521288D01*
X76987000Y-107277000D01*
X84040273Y-107277000D01*
X90873000Y-111181415D01*
G04 #@! TA.AperFunction,Conductor*
D24*
G36*
X90873000Y-111181415D02*
G01*
X90873000Y-111528737D01*
X90973954Y-112036268D01*
X91171983Y-112514351D01*
X91459476Y-112944615D01*
X91825385Y-113310524D01*
X92255649Y-113598017D01*
X92733732Y-113796046D01*
X93241263Y-113897000D01*
X93758737Y-113897000D01*
X93980000Y-113852988D01*
X93980000Y-125413000D01*
X78738491Y-125413000D01*
X78368007Y-125376674D01*
X78048667Y-125280259D01*
X77754127Y-125123649D01*
X77495621Y-124912817D01*
X77282986Y-124655785D01*
X77124327Y-124362351D01*
X77025685Y-124043690D01*
X76987000Y-123675625D01*
X76987000Y-122841609D01*
X77513000Y-122841609D01*
X77513000Y-123208391D01*
X77584556Y-123568125D01*
X77724917Y-123906988D01*
X77928690Y-124211956D01*
X78188044Y-124471310D01*
X78493012Y-124675083D01*
X78831875Y-124815444D01*
X79191609Y-124887000D01*
X79558391Y-124887000D01*
X79918125Y-124815444D01*
X80256988Y-124675083D01*
X80561956Y-124471310D01*
X80821310Y-124211956D01*
X81025083Y-123906988D01*
X81165444Y-123568125D01*
X81237000Y-123208391D01*
X81237000Y-122841609D01*
X81165444Y-122481875D01*
X81025083Y-122143012D01*
X80893252Y-121945712D01*
X85967893Y-121945712D01*
X86075726Y-122220338D01*
X86382384Y-122371216D01*
X86712585Y-122459369D01*
X87053639Y-122481409D01*
X87392439Y-122436489D01*
X87715966Y-122326336D01*
X87914274Y-122220338D01*
X88022107Y-121945712D01*
X91047893Y-121945712D01*
X91155726Y-122220338D01*
X91462384Y-122371216D01*
X91792585Y-122459369D01*
X92133639Y-122481409D01*
X92472439Y-122436489D01*
X92795966Y-122326336D01*
X92994274Y-122220338D01*
X93102107Y-121945712D01*
X92075000Y-120918605D01*
X91047893Y-121945712D01*
X88022107Y-121945712D01*
X86995000Y-120918605D01*
X85967893Y-121945712D01*
X80893252Y-121945712D01*
X80821310Y-121838044D01*
X80561956Y-121578690D01*
X80256988Y-121374917D01*
X79918125Y-121234556D01*
X79558391Y-121163000D01*
X79191609Y-121163000D01*
X78831875Y-121234556D01*
X78493012Y-121374917D01*
X78188044Y-121578690D01*
X77928690Y-121838044D01*
X77724917Y-122143012D01*
X77584556Y-122481875D01*
X77513000Y-122841609D01*
X76987000Y-122841609D01*
X76987000Y-120797639D01*
X85252591Y-120797639D01*
X85297511Y-121136439D01*
X85407664Y-121459966D01*
X85513662Y-121658274D01*
X85788288Y-121766107D01*
X86815395Y-120739000D01*
X87174605Y-120739000D01*
X88201712Y-121766107D01*
X88476338Y-121658274D01*
X88627216Y-121351616D01*
X88715369Y-121021415D01*
X88729830Y-120797639D01*
X90332591Y-120797639D01*
X90377511Y-121136439D01*
X90487664Y-121459966D01*
X90593662Y-121658274D01*
X90868288Y-121766107D01*
X91895395Y-120739000D01*
X92254605Y-120739000D01*
X93281712Y-121766107D01*
X93556338Y-121658274D01*
X93707216Y-121351616D01*
X93795369Y-121021415D01*
X93817409Y-120680361D01*
X93772489Y-120341561D01*
X93662336Y-120018034D01*
X93556338Y-119819726D01*
X93281712Y-119711893D01*
X92254605Y-120739000D01*
X91895395Y-120739000D01*
X90868288Y-119711893D01*
X90593662Y-119819726D01*
X90442784Y-120126384D01*
X90354631Y-120456585D01*
X90332591Y-120797639D01*
X88729830Y-120797639D01*
X88737409Y-120680361D01*
X88692489Y-120341561D01*
X88582336Y-120018034D01*
X88476338Y-119819726D01*
X88201712Y-119711893D01*
X87174605Y-120739000D01*
X86815395Y-120739000D01*
X85788288Y-119711893D01*
X85513662Y-119819726D01*
X85362784Y-120126384D01*
X85274631Y-120456585D01*
X85252591Y-120797639D01*
X76987000Y-120797639D01*
X76987000Y-119532288D01*
X85967893Y-119532288D01*
X86995000Y-120559395D01*
X88022107Y-119532288D01*
X91047893Y-119532288D01*
X92075000Y-120559395D01*
X93102107Y-119532288D01*
X92994274Y-119257662D01*
X92687616Y-119106784D01*
X92357415Y-119018631D01*
X92016361Y-118996591D01*
X91677561Y-119041511D01*
X91354034Y-119151664D01*
X91155726Y-119257662D01*
X91047893Y-119532288D01*
X88022107Y-119532288D01*
X87914274Y-119257662D01*
X87607616Y-119106784D01*
X87277415Y-119018631D01*
X86936361Y-118996591D01*
X86597561Y-119041511D01*
X86274034Y-119151664D01*
X86075726Y-119257662D01*
X85967893Y-119532288D01*
X76987000Y-119532288D01*
X76987000Y-117813219D01*
X79307000Y-117813219D01*
X79307000Y-118076781D01*
X79358419Y-118335280D01*
X79459280Y-118578781D01*
X79605708Y-118797925D01*
X79792075Y-118984292D01*
X80011219Y-119130720D01*
X80254720Y-119231581D01*
X80513219Y-119283000D01*
X80776781Y-119283000D01*
X81035280Y-119231581D01*
X81278781Y-119130720D01*
X81497925Y-118984292D01*
X81684292Y-118797925D01*
X81830720Y-118578781D01*
X81931581Y-118335280D01*
X81983000Y-118076781D01*
X81983000Y-117813219D01*
X81931581Y-117554720D01*
X81830720Y-117311219D01*
X81684292Y-117092075D01*
X81497925Y-116905708D01*
X81278781Y-116759280D01*
X81035280Y-116658419D01*
X80776781Y-116607000D01*
X80513219Y-116607000D01*
X80254720Y-116658419D01*
X80011219Y-116759280D01*
X79792075Y-116905708D01*
X79605708Y-117092075D01*
X79459280Y-117311219D01*
X79358419Y-117554720D01*
X79307000Y-117813219D01*
X76987000Y-117813219D01*
X76987000Y-110934712D01*
X80760893Y-110934712D01*
X80868726Y-111209338D01*
X81175384Y-111360216D01*
X81505585Y-111448369D01*
X81846639Y-111470409D01*
X82185439Y-111425489D01*
X82508966Y-111315336D01*
X82707274Y-111209338D01*
X82815107Y-110934712D01*
X81788000Y-109907605D01*
X80760893Y-110934712D01*
X76987000Y-110934712D01*
X76987000Y-109786639D01*
X80045591Y-109786639D01*
X80090511Y-110125439D01*
X80200664Y-110448966D01*
X80306662Y-110647274D01*
X80581288Y-110755107D01*
X81608395Y-109728000D01*
X81967605Y-109728000D01*
X82994712Y-110755107D01*
X83269338Y-110647274D01*
X83420216Y-110340616D01*
X83508369Y-110010415D01*
X83530409Y-109669361D01*
X83485489Y-109330561D01*
X83375336Y-109007034D01*
X83269338Y-108808726D01*
X82994712Y-108700893D01*
X81967605Y-109728000D01*
X81608395Y-109728000D01*
X80581288Y-108700893D01*
X80306662Y-108808726D01*
X80155784Y-109115384D01*
X80067631Y-109445585D01*
X80045591Y-109786639D01*
X76987000Y-109786639D01*
X76987000Y-108521288D01*
X80760893Y-108521288D01*
X81788000Y-109548395D01*
X82815107Y-108521288D01*
X82707274Y-108246662D01*
X82400616Y-108095784D01*
X82070415Y-108007631D01*
X81729361Y-107985591D01*
X81390561Y-108030511D01*
X81067034Y-108140664D01*
X80868726Y-108246662D01*
X80760893Y-108521288D01*
X76987000Y-108521288D01*
X76987000Y-107277000D01*
X84040273Y-107277000D01*
X90873000Y-111181415D01*
G37*
G04 #@! TD.AperFunction*
D22*
X80808500Y-94084000D02*
X81371000Y-94084000D01*
X81371000Y-94080000D01*
X81535441Y-94080000D01*
X81645307Y-94094464D01*
X81691000Y-94113391D01*
X81691000Y-94384000D01*
X81671000Y-94384000D01*
X81671000Y-94971500D01*
X81758500Y-95059000D01*
X81942000Y-95060463D01*
X81942000Y-96013441D01*
X81927536Y-96123307D01*
X81887664Y-96219567D01*
X81824232Y-96302232D01*
X81741567Y-96365664D01*
X81645307Y-96405536D01*
X81535441Y-96420000D01*
X81024559Y-96420000D01*
X80914693Y-96405536D01*
X80818433Y-96365664D01*
X80735768Y-96302232D01*
X80672336Y-96219567D01*
X80632464Y-96123307D01*
X80618000Y-96013441D01*
X80618000Y-96004000D01*
X80617145Y-95990947D01*
X80600108Y-95861537D01*
X80593351Y-95836322D01*
X80555110Y-95744000D01*
X81010306Y-95744000D01*
X81012000Y-96156500D01*
X81099500Y-96244000D01*
X81662000Y-96244000D01*
X81662000Y-95481500D01*
X81574500Y-95394000D01*
X81362000Y-95392306D01*
X81293388Y-95399064D01*
X81227413Y-95419077D01*
X81166609Y-95451577D01*
X81113315Y-95495315D01*
X81069577Y-95548609D01*
X81037077Y-95609413D01*
X81017064Y-95675388D01*
X81010306Y-95744000D01*
X80555110Y-95744000D01*
X80543401Y-95715732D01*
X80530348Y-95693123D01*
X80450888Y-95589570D01*
X80432430Y-95571112D01*
X80328877Y-95491652D01*
X80306268Y-95478599D01*
X80185678Y-95428649D01*
X80160463Y-95421892D01*
X80031053Y-95404855D01*
X80018000Y-95404000D01*
X79500559Y-95404000D01*
X79390693Y-95389536D01*
X79294433Y-95349664D01*
X79211768Y-95286232D01*
X79148336Y-95203567D01*
X79108464Y-95107307D01*
X79098000Y-95027824D01*
X79098000Y-94512000D01*
X79398000Y-94512000D01*
X79398000Y-95074500D01*
X79485500Y-95162000D01*
X79848000Y-95163694D01*
X79916612Y-95156936D01*
X79982587Y-95136923D01*
X80043391Y-95104423D01*
X80096685Y-95060685D01*
X80140423Y-95007391D01*
X80172923Y-94946587D01*
X80192936Y-94880612D01*
X80199694Y-94812000D01*
X80198873Y-94709000D01*
X80719306Y-94709000D01*
X80726064Y-94777612D01*
X80746077Y-94843587D01*
X80778577Y-94904391D01*
X80822315Y-94957685D01*
X80875609Y-95001423D01*
X80936413Y-95033923D01*
X81002388Y-95053936D01*
X81071000Y-95060694D01*
X81283500Y-95059000D01*
X81371000Y-94971500D01*
X81371000Y-94384000D01*
X80808500Y-94384000D01*
X80721000Y-94471500D01*
X80719306Y-94709000D01*
X80198873Y-94709000D01*
X80198000Y-94599500D01*
X80110500Y-94512000D01*
X79398000Y-94512000D01*
X79098000Y-94512000D01*
X79094000Y-94512000D01*
X79094000Y-94486559D01*
X79108464Y-94376693D01*
X79148336Y-94280433D01*
X79211768Y-94197768D01*
X79219285Y-94192000D01*
X79398000Y-94192000D01*
X79398000Y-94212000D01*
X80110500Y-94212000D01*
X80198000Y-94124500D01*
X80198355Y-94080000D01*
X80804500Y-94080000D01*
X80808500Y-94084000D01*
G04 #@! TA.AperFunction,Conductor*
D24*
G36*
X80808500Y-94084000D02*
G01*
X81371000Y-94084000D01*
X81371000Y-94080000D01*
X81535441Y-94080000D01*
X81645307Y-94094464D01*
X81691000Y-94113391D01*
X81691000Y-94384000D01*
X81671000Y-94384000D01*
X81671000Y-94971500D01*
X81758500Y-95059000D01*
X81942000Y-95060463D01*
X81942000Y-96013441D01*
X81927536Y-96123307D01*
X81887664Y-96219567D01*
X81824232Y-96302232D01*
X81741567Y-96365664D01*
X81645307Y-96405536D01*
X81535441Y-96420000D01*
X81024559Y-96420000D01*
X80914693Y-96405536D01*
X80818433Y-96365664D01*
X80735768Y-96302232D01*
X80672336Y-96219567D01*
X80632464Y-96123307D01*
X80618000Y-96013441D01*
X80618000Y-96004000D01*
X80617145Y-95990947D01*
X80600108Y-95861537D01*
X80593351Y-95836322D01*
X80555110Y-95744000D01*
X81010306Y-95744000D01*
X81012000Y-96156500D01*
X81099500Y-96244000D01*
X81662000Y-96244000D01*
X81662000Y-95481500D01*
X81574500Y-95394000D01*
X81362000Y-95392306D01*
X81293388Y-95399064D01*
X81227413Y-95419077D01*
X81166609Y-95451577D01*
X81113315Y-95495315D01*
X81069577Y-95548609D01*
X81037077Y-95609413D01*
X81017064Y-95675388D01*
X81010306Y-95744000D01*
X80555110Y-95744000D01*
X80543401Y-95715732D01*
X80530348Y-95693123D01*
X80450888Y-95589570D01*
X80432430Y-95571112D01*
X80328877Y-95491652D01*
X80306268Y-95478599D01*
X80185678Y-95428649D01*
X80160463Y-95421892D01*
X80031053Y-95404855D01*
X80018000Y-95404000D01*
X79500559Y-95404000D01*
X79390693Y-95389536D01*
X79294433Y-95349664D01*
X79211768Y-95286232D01*
X79148336Y-95203567D01*
X79108464Y-95107307D01*
X79098000Y-95027824D01*
X79098000Y-94512000D01*
X79398000Y-94512000D01*
X79398000Y-95074500D01*
X79485500Y-95162000D01*
X79848000Y-95163694D01*
X79916612Y-95156936D01*
X79982587Y-95136923D01*
X80043391Y-95104423D01*
X80096685Y-95060685D01*
X80140423Y-95007391D01*
X80172923Y-94946587D01*
X80192936Y-94880612D01*
X80199694Y-94812000D01*
X80198873Y-94709000D01*
X80719306Y-94709000D01*
X80726064Y-94777612D01*
X80746077Y-94843587D01*
X80778577Y-94904391D01*
X80822315Y-94957685D01*
X80875609Y-95001423D01*
X80936413Y-95033923D01*
X81002388Y-95053936D01*
X81071000Y-95060694D01*
X81283500Y-95059000D01*
X81371000Y-94971500D01*
X81371000Y-94384000D01*
X80808500Y-94384000D01*
X80721000Y-94471500D01*
X80719306Y-94709000D01*
X80198873Y-94709000D01*
X80198000Y-94599500D01*
X80110500Y-94512000D01*
X79398000Y-94512000D01*
X79098000Y-94512000D01*
X79094000Y-94512000D01*
X79094000Y-94486559D01*
X79108464Y-94376693D01*
X79148336Y-94280433D01*
X79211768Y-94197768D01*
X79219285Y-94192000D01*
X79398000Y-94192000D01*
X79398000Y-94212000D01*
X80110500Y-94212000D01*
X80198000Y-94124500D01*
X80198355Y-94080000D01*
X80804500Y-94080000D01*
X80808500Y-94084000D01*
G37*
G04 #@! TD.AperFunction*
D22*
X83956500Y-91227307D02*
X83149000Y-91227307D01*
X83131810Y-91229000D01*
X82786500Y-91229000D01*
X82699000Y-91316500D01*
X82697306Y-91329000D01*
X82704064Y-91397612D01*
X82724077Y-91463587D01*
X82739257Y-91491988D01*
X82731690Y-91506145D01*
X82705986Y-91590879D01*
X82697307Y-91679000D01*
X82697307Y-91879000D01*
X82705986Y-91967121D01*
X82731690Y-92051855D01*
X82773431Y-92129947D01*
X82829605Y-92198395D01*
X82898053Y-92254569D01*
X82976145Y-92296310D01*
X83060879Y-92322014D01*
X83149000Y-92330693D01*
X84424000Y-92330693D01*
X84512121Y-92322014D01*
X84596855Y-92296310D01*
X84674947Y-92254569D01*
X84706103Y-92229000D01*
X84772605Y-92229000D01*
X85972175Y-93428571D01*
X85986262Y-93445736D01*
X86003427Y-93459823D01*
X86003431Y-93459827D01*
X86054782Y-93501970D01*
X86079085Y-93514960D01*
X86132958Y-93543756D01*
X86217784Y-93569488D01*
X86283894Y-93575999D01*
X86283904Y-93575999D01*
X86305998Y-93578175D01*
X86328092Y-93575999D01*
X89798808Y-93575999D01*
X89806054Y-93581946D01*
X89917920Y-93718255D01*
X90001045Y-93873771D01*
X90052232Y-94042515D01*
X90063039Y-94152233D01*
X90052751Y-94155354D01*
X89968608Y-94200330D01*
X89916000Y-94243504D01*
X89863392Y-94200330D01*
X89779249Y-94155354D01*
X89687949Y-94127659D01*
X89593000Y-94118307D01*
X89223000Y-94118307D01*
X89128051Y-94127659D01*
X89036751Y-94155354D01*
X88952608Y-94200330D01*
X88878856Y-94260856D01*
X88818330Y-94334608D01*
X88773354Y-94418751D01*
X88745659Y-94510051D01*
X88736307Y-94605000D01*
X88736307Y-94775297D01*
X88289332Y-95222272D01*
X88300923Y-95200587D01*
X88320936Y-95134612D01*
X88327694Y-95066000D01*
X88326000Y-94853500D01*
X88238500Y-94766000D01*
X87526000Y-94766000D01*
X87526000Y-95328500D01*
X87613500Y-95416000D01*
X87976000Y-95417694D01*
X88044612Y-95410936D01*
X88110587Y-95390923D01*
X88132272Y-95379332D01*
X87073429Y-96438176D01*
X87056264Y-96452263D01*
X87042177Y-96469428D01*
X87042172Y-96469433D01*
X87000029Y-96520784D01*
X86958243Y-96598960D01*
X86932512Y-96683785D01*
X86923824Y-96772000D01*
X86926001Y-96794104D01*
X86926001Y-96928000D01*
X85613218Y-96928000D01*
X85612000Y-96631500D01*
X85524500Y-96544000D01*
X84962000Y-96544000D01*
X84962000Y-96564000D01*
X84662000Y-96564000D01*
X84662000Y-96544000D01*
X84642000Y-96544000D01*
X84642000Y-96244000D01*
X84662000Y-96244000D01*
X84662000Y-95481500D01*
X84962000Y-95481500D01*
X84962000Y-96244000D01*
X85524500Y-96244000D01*
X85612000Y-96156500D01*
X85613694Y-95744000D01*
X85606936Y-95675388D01*
X85586923Y-95609413D01*
X85554423Y-95548609D01*
X85510685Y-95495315D01*
X85457391Y-95451577D01*
X85396587Y-95419077D01*
X85330612Y-95399064D01*
X85262000Y-95392306D01*
X85049500Y-95394000D01*
X84962000Y-95481500D01*
X84662000Y-95481500D01*
X84574500Y-95394000D01*
X84566459Y-95393936D01*
X84658566Y-95301829D01*
X84675737Y-95287737D01*
X84706708Y-95249999D01*
X84731971Y-95219217D01*
X84773757Y-95141041D01*
X84782486Y-95112265D01*
X84799377Y-95056584D01*
X84840609Y-95090423D01*
X84901413Y-95122923D01*
X84967388Y-95142936D01*
X85036000Y-95149694D01*
X85078500Y-95148000D01*
X85166000Y-95060500D01*
X85166000Y-94638000D01*
X85466000Y-94638000D01*
X85466000Y-95060500D01*
X85553500Y-95148000D01*
X85596000Y-95149694D01*
X85664612Y-95142936D01*
X85730587Y-95122923D01*
X85791391Y-95090423D01*
X85821150Y-95066000D01*
X86424306Y-95066000D01*
X86431064Y-95134612D01*
X86451077Y-95200587D01*
X86483577Y-95261391D01*
X86527315Y-95314685D01*
X86580609Y-95358423D01*
X86641413Y-95390923D01*
X86707388Y-95410936D01*
X86776000Y-95417694D01*
X87138500Y-95416000D01*
X87226000Y-95328500D01*
X87226000Y-94766000D01*
X86513500Y-94766000D01*
X86426000Y-94853500D01*
X86424306Y-95066000D01*
X85821150Y-95066000D01*
X85844685Y-95046685D01*
X85888423Y-94993391D01*
X85920923Y-94932587D01*
X85940936Y-94866612D01*
X85947694Y-94798000D01*
X85946000Y-94725500D01*
X85858500Y-94638000D01*
X85466000Y-94638000D01*
X85166000Y-94638000D01*
X85146000Y-94638000D01*
X85146000Y-94338000D01*
X85166000Y-94338000D01*
X85166000Y-93915500D01*
X85466000Y-93915500D01*
X85466000Y-94338000D01*
X85858500Y-94338000D01*
X85946000Y-94250500D01*
X85947694Y-94178000D01*
X85946513Y-94166000D01*
X86424306Y-94166000D01*
X86426000Y-94378500D01*
X86513500Y-94466000D01*
X87226000Y-94466000D01*
X87226000Y-93903500D01*
X87526000Y-93903500D01*
X87526000Y-94466000D01*
X88238500Y-94466000D01*
X88326000Y-94378500D01*
X88327694Y-94166000D01*
X88320936Y-94097388D01*
X88300923Y-94031413D01*
X88268423Y-93970609D01*
X88224685Y-93917315D01*
X88171391Y-93873577D01*
X88110587Y-93841077D01*
X88044612Y-93821064D01*
X87976000Y-93814306D01*
X87613500Y-93816000D01*
X87526000Y-93903500D01*
X87226000Y-93903500D01*
X87138500Y-93816000D01*
X86776000Y-93814306D01*
X86707388Y-93821064D01*
X86641413Y-93841077D01*
X86580609Y-93873577D01*
X86527315Y-93917315D01*
X86483577Y-93970609D01*
X86451077Y-94031413D01*
X86431064Y-94097388D01*
X86424306Y-94166000D01*
X85946513Y-94166000D01*
X85940936Y-94109388D01*
X85920923Y-94043413D01*
X85888423Y-93982609D01*
X85844685Y-93929315D01*
X85791391Y-93885577D01*
X85730587Y-93853077D01*
X85664612Y-93833064D01*
X85596000Y-93826306D01*
X85553500Y-93828000D01*
X85466000Y-93915500D01*
X85166000Y-93915500D01*
X85078500Y-93828000D01*
X85036000Y-93826306D01*
X84967388Y-93833064D01*
X84901413Y-93853077D01*
X84840609Y-93885577D01*
X84802910Y-93916517D01*
X84799489Y-93881785D01*
X84773757Y-93796959D01*
X84772186Y-93794019D01*
X84731971Y-93718783D01*
X84724000Y-93709071D01*
X84724000Y-93623981D01*
X84699021Y-93498402D01*
X84650022Y-93380110D01*
X84578888Y-93273649D01*
X84488351Y-93183112D01*
X84381890Y-93111978D01*
X84263598Y-93062979D01*
X84138019Y-93038000D01*
X84009981Y-93038000D01*
X83995061Y-93040968D01*
X83877926Y-92967367D01*
X83857751Y-92957651D01*
X83669849Y-92891901D01*
X83648017Y-92886918D01*
X83450196Y-92864629D01*
X83439000Y-92864000D01*
X82969122Y-92864000D01*
X82788728Y-92846232D01*
X82642170Y-92801775D01*
X82645694Y-92766000D01*
X82644000Y-92693500D01*
X82556500Y-92606000D01*
X82335405Y-92606000D01*
X82324345Y-92596923D01*
X82013422Y-92286000D01*
X82164000Y-92286000D01*
X82164000Y-92306000D01*
X82556500Y-92306000D01*
X82644000Y-92218500D01*
X82645694Y-92146000D01*
X82638936Y-92077388D01*
X82618923Y-92011413D01*
X82586423Y-91950609D01*
X82542685Y-91897315D01*
X82489391Y-91853577D01*
X82445152Y-91829931D01*
X82505503Y-91756393D01*
X82558795Y-91656691D01*
X82591612Y-91548507D01*
X82602693Y-91436000D01*
X82602693Y-91032000D01*
X83956500Y-91032000D01*
X83956500Y-91227307D01*
G04 #@! TA.AperFunction,Conductor*
D24*
G36*
X83956500Y-91227307D02*
G01*
X83149000Y-91227307D01*
X83131810Y-91229000D01*
X82786500Y-91229000D01*
X82699000Y-91316500D01*
X82697306Y-91329000D01*
X82704064Y-91397612D01*
X82724077Y-91463587D01*
X82739257Y-91491988D01*
X82731690Y-91506145D01*
X82705986Y-91590879D01*
X82697307Y-91679000D01*
X82697307Y-91879000D01*
X82705986Y-91967121D01*
X82731690Y-92051855D01*
X82773431Y-92129947D01*
X82829605Y-92198395D01*
X82898053Y-92254569D01*
X82976145Y-92296310D01*
X83060879Y-92322014D01*
X83149000Y-92330693D01*
X84424000Y-92330693D01*
X84512121Y-92322014D01*
X84596855Y-92296310D01*
X84674947Y-92254569D01*
X84706103Y-92229000D01*
X84772605Y-92229000D01*
X85972175Y-93428571D01*
X85986262Y-93445736D01*
X86003427Y-93459823D01*
X86003431Y-93459827D01*
X86054782Y-93501970D01*
X86079085Y-93514960D01*
X86132958Y-93543756D01*
X86217784Y-93569488D01*
X86283894Y-93575999D01*
X86283904Y-93575999D01*
X86305998Y-93578175D01*
X86328092Y-93575999D01*
X89798808Y-93575999D01*
X89806054Y-93581946D01*
X89917920Y-93718255D01*
X90001045Y-93873771D01*
X90052232Y-94042515D01*
X90063039Y-94152233D01*
X90052751Y-94155354D01*
X89968608Y-94200330D01*
X89916000Y-94243504D01*
X89863392Y-94200330D01*
X89779249Y-94155354D01*
X89687949Y-94127659D01*
X89593000Y-94118307D01*
X89223000Y-94118307D01*
X89128051Y-94127659D01*
X89036751Y-94155354D01*
X88952608Y-94200330D01*
X88878856Y-94260856D01*
X88818330Y-94334608D01*
X88773354Y-94418751D01*
X88745659Y-94510051D01*
X88736307Y-94605000D01*
X88736307Y-94775297D01*
X88289332Y-95222272D01*
X88300923Y-95200587D01*
X88320936Y-95134612D01*
X88327694Y-95066000D01*
X88326000Y-94853500D01*
X88238500Y-94766000D01*
X87526000Y-94766000D01*
X87526000Y-95328500D01*
X87613500Y-95416000D01*
X87976000Y-95417694D01*
X88044612Y-95410936D01*
X88110587Y-95390923D01*
X88132272Y-95379332D01*
X87073429Y-96438176D01*
X87056264Y-96452263D01*
X87042177Y-96469428D01*
X87042172Y-96469433D01*
X87000029Y-96520784D01*
X86958243Y-96598960D01*
X86932512Y-96683785D01*
X86923824Y-96772000D01*
X86926001Y-96794104D01*
X86926001Y-96928000D01*
X85613218Y-96928000D01*
X85612000Y-96631500D01*
X85524500Y-96544000D01*
X84962000Y-96544000D01*
X84962000Y-96564000D01*
X84662000Y-96564000D01*
X84662000Y-96544000D01*
X84642000Y-96544000D01*
X84642000Y-96244000D01*
X84662000Y-96244000D01*
X84662000Y-95481500D01*
X84962000Y-95481500D01*
X84962000Y-96244000D01*
X85524500Y-96244000D01*
X85612000Y-96156500D01*
X85613694Y-95744000D01*
X85606936Y-95675388D01*
X85586923Y-95609413D01*
X85554423Y-95548609D01*
X85510685Y-95495315D01*
X85457391Y-95451577D01*
X85396587Y-95419077D01*
X85330612Y-95399064D01*
X85262000Y-95392306D01*
X85049500Y-95394000D01*
X84962000Y-95481500D01*
X84662000Y-95481500D01*
X84574500Y-95394000D01*
X84566459Y-95393936D01*
X84658566Y-95301829D01*
X84675737Y-95287737D01*
X84706708Y-95249999D01*
X84731971Y-95219217D01*
X84773757Y-95141041D01*
X84782486Y-95112265D01*
X84799377Y-95056584D01*
X84840609Y-95090423D01*
X84901413Y-95122923D01*
X84967388Y-95142936D01*
X85036000Y-95149694D01*
X85078500Y-95148000D01*
X85166000Y-95060500D01*
X85166000Y-94638000D01*
X85466000Y-94638000D01*
X85466000Y-95060500D01*
X85553500Y-95148000D01*
X85596000Y-95149694D01*
X85664612Y-95142936D01*
X85730587Y-95122923D01*
X85791391Y-95090423D01*
X85821150Y-95066000D01*
X86424306Y-95066000D01*
X86431064Y-95134612D01*
X86451077Y-95200587D01*
X86483577Y-95261391D01*
X86527315Y-95314685D01*
X86580609Y-95358423D01*
X86641413Y-95390923D01*
X86707388Y-95410936D01*
X86776000Y-95417694D01*
X87138500Y-95416000D01*
X87226000Y-95328500D01*
X87226000Y-94766000D01*
X86513500Y-94766000D01*
X86426000Y-94853500D01*
X86424306Y-95066000D01*
X85821150Y-95066000D01*
X85844685Y-95046685D01*
X85888423Y-94993391D01*
X85920923Y-94932587D01*
X85940936Y-94866612D01*
X85947694Y-94798000D01*
X85946000Y-94725500D01*
X85858500Y-94638000D01*
X85466000Y-94638000D01*
X85166000Y-94638000D01*
X85146000Y-94638000D01*
X85146000Y-94338000D01*
X85166000Y-94338000D01*
X85166000Y-93915500D01*
X85466000Y-93915500D01*
X85466000Y-94338000D01*
X85858500Y-94338000D01*
X85946000Y-94250500D01*
X85947694Y-94178000D01*
X85946513Y-94166000D01*
X86424306Y-94166000D01*
X86426000Y-94378500D01*
X86513500Y-94466000D01*
X87226000Y-94466000D01*
X87226000Y-93903500D01*
X87526000Y-93903500D01*
X87526000Y-94466000D01*
X88238500Y-94466000D01*
X88326000Y-94378500D01*
X88327694Y-94166000D01*
X88320936Y-94097388D01*
X88300923Y-94031413D01*
X88268423Y-93970609D01*
X88224685Y-93917315D01*
X88171391Y-93873577D01*
X88110587Y-93841077D01*
X88044612Y-93821064D01*
X87976000Y-93814306D01*
X87613500Y-93816000D01*
X87526000Y-93903500D01*
X87226000Y-93903500D01*
X87138500Y-93816000D01*
X86776000Y-93814306D01*
X86707388Y-93821064D01*
X86641413Y-93841077D01*
X86580609Y-93873577D01*
X86527315Y-93917315D01*
X86483577Y-93970609D01*
X86451077Y-94031413D01*
X86431064Y-94097388D01*
X86424306Y-94166000D01*
X85946513Y-94166000D01*
X85940936Y-94109388D01*
X85920923Y-94043413D01*
X85888423Y-93982609D01*
X85844685Y-93929315D01*
X85791391Y-93885577D01*
X85730587Y-93853077D01*
X85664612Y-93833064D01*
X85596000Y-93826306D01*
X85553500Y-93828000D01*
X85466000Y-93915500D01*
X85166000Y-93915500D01*
X85078500Y-93828000D01*
X85036000Y-93826306D01*
X84967388Y-93833064D01*
X84901413Y-93853077D01*
X84840609Y-93885577D01*
X84802910Y-93916517D01*
X84799489Y-93881785D01*
X84773757Y-93796959D01*
X84772186Y-93794019D01*
X84731971Y-93718783D01*
X84724000Y-93709071D01*
X84724000Y-93623981D01*
X84699021Y-93498402D01*
X84650022Y-93380110D01*
X84578888Y-93273649D01*
X84488351Y-93183112D01*
X84381890Y-93111978D01*
X84263598Y-93062979D01*
X84138019Y-93038000D01*
X84009981Y-93038000D01*
X83995061Y-93040968D01*
X83877926Y-92967367D01*
X83857751Y-92957651D01*
X83669849Y-92891901D01*
X83648017Y-92886918D01*
X83450196Y-92864629D01*
X83439000Y-92864000D01*
X82969122Y-92864000D01*
X82788728Y-92846232D01*
X82642170Y-92801775D01*
X82645694Y-92766000D01*
X82644000Y-92693500D01*
X82556500Y-92606000D01*
X82335405Y-92606000D01*
X82324345Y-92596923D01*
X82013422Y-92286000D01*
X82164000Y-92286000D01*
X82164000Y-92306000D01*
X82556500Y-92306000D01*
X82644000Y-92218500D01*
X82645694Y-92146000D01*
X82638936Y-92077388D01*
X82618923Y-92011413D01*
X82586423Y-91950609D01*
X82542685Y-91897315D01*
X82489391Y-91853577D01*
X82445152Y-91829931D01*
X82505503Y-91756393D01*
X82558795Y-91656691D01*
X82591612Y-91548507D01*
X82602693Y-91436000D01*
X82602693Y-91032000D01*
X83956500Y-91032000D01*
X83956500Y-91227307D01*
G37*
G04 #@! TD.AperFunction*
D22*
X80511500Y-89766000D02*
X80904000Y-89766000D01*
X80904000Y-89746000D01*
X81204000Y-89746000D01*
X81204000Y-89766000D01*
X81224000Y-89766000D01*
X81224000Y-90066000D01*
X81204000Y-90066000D01*
X81204000Y-90488500D01*
X81209684Y-90494184D01*
X81168216Y-90528216D01*
X81096497Y-90615607D01*
X81051576Y-90699648D01*
X81045936Y-90642388D01*
X81025923Y-90576413D01*
X80993423Y-90515609D01*
X80949685Y-90462315D01*
X80904000Y-90424822D01*
X80904000Y-90066000D01*
X80511500Y-90066000D01*
X80424000Y-90153500D01*
X80422306Y-90226000D01*
X80429064Y-90294612D01*
X80449077Y-90360587D01*
X80462953Y-90386547D01*
X80401000Y-90448500D01*
X80401000Y-91036000D01*
X80421000Y-91036000D01*
X80421000Y-91336000D01*
X80401000Y-91336000D01*
X80401000Y-91923500D01*
X80462953Y-91985453D01*
X80449077Y-92011413D01*
X80429064Y-92077388D01*
X80422306Y-92146000D01*
X80424000Y-92218500D01*
X80511500Y-92306000D01*
X80904000Y-92306000D01*
X80904000Y-92286000D01*
X81204000Y-92286000D01*
X81204000Y-92306000D01*
X81224000Y-92306000D01*
X81224000Y-92606000D01*
X81204000Y-92606000D01*
X81204000Y-93028500D01*
X81291500Y-93116000D01*
X81334000Y-93117694D01*
X81402612Y-93110936D01*
X81468587Y-93090923D01*
X81529391Y-93058423D01*
X81579486Y-93017311D01*
X81600830Y-93034828D01*
X81685837Y-93080265D01*
X81778075Y-93108245D01*
X81874000Y-93117693D01*
X82154000Y-93117693D01*
X82249925Y-93108245D01*
X82250821Y-93107973D01*
X82416541Y-93196552D01*
X82479932Y-93222809D01*
X82667525Y-93279714D01*
X82734817Y-93293100D01*
X82929908Y-93312315D01*
X82964214Y-93314000D01*
X83419347Y-93314000D01*
X83558445Y-93329672D01*
X83671902Y-93369373D01*
X83773682Y-93433326D01*
X83858674Y-93518318D01*
X83922627Y-93620098D01*
X83962328Y-93733555D01*
X83974658Y-93842992D01*
X83941413Y-93853077D01*
X83880609Y-93885577D01*
X83871739Y-93892856D01*
X83872694Y-93759000D01*
X83865936Y-93690388D01*
X83845923Y-93624413D01*
X83813423Y-93563609D01*
X83769685Y-93510315D01*
X83716391Y-93466577D01*
X83655587Y-93434077D01*
X83589612Y-93414064D01*
X83521000Y-93407306D01*
X83308500Y-93409000D01*
X83221000Y-93496500D01*
X83221000Y-94084000D01*
X83241000Y-94084000D01*
X83241000Y-94384000D01*
X83221000Y-94384000D01*
X83221000Y-94971500D01*
X83308500Y-95059000D01*
X83521000Y-95060694D01*
X83589612Y-95053936D01*
X83655587Y-95033923D01*
X83716391Y-95001423D01*
X83766075Y-94960647D01*
X83783577Y-94993391D01*
X83827315Y-95046685D01*
X83880609Y-95090423D01*
X83941413Y-95122923D01*
X83978000Y-95134021D01*
X83978000Y-96028000D01*
X83979685Y-96062307D01*
X83998900Y-96257397D01*
X84010307Y-96314740D01*
X84010307Y-97044000D01*
X84017065Y-97112612D01*
X84037078Y-97178587D01*
X84069578Y-97239390D01*
X84113315Y-97292685D01*
X84166610Y-97336422D01*
X84227413Y-97368922D01*
X84293388Y-97388935D01*
X84362000Y-97395693D01*
X85262000Y-97395693D01*
X85330612Y-97388935D01*
X85366660Y-97378000D01*
X85752000Y-97378000D01*
X85752000Y-99265927D01*
X84629927Y-100388000D01*
X81758396Y-100388000D01*
X81476000Y-100105605D01*
X81476000Y-97430395D01*
X81510702Y-97395693D01*
X82262000Y-97395693D01*
X82330612Y-97388935D01*
X82396587Y-97368922D01*
X82457390Y-97336422D01*
X82510685Y-97292685D01*
X82554422Y-97239390D01*
X82586922Y-97178587D01*
X82606935Y-97112612D01*
X82613693Y-97044000D01*
X82613693Y-95744000D01*
X82606935Y-95675388D01*
X82586922Y-95609413D01*
X82554422Y-95548610D01*
X82510685Y-95495315D01*
X82457390Y-95451578D01*
X82396587Y-95419078D01*
X82392000Y-95417687D01*
X82392000Y-94973840D01*
X82425609Y-95001423D01*
X82486413Y-95033923D01*
X82552388Y-95053936D01*
X82621000Y-95060694D01*
X82833500Y-95059000D01*
X82921000Y-94971500D01*
X82921000Y-94384000D01*
X82901000Y-94384000D01*
X82901000Y-94084000D01*
X82921000Y-94084000D01*
X82921000Y-93496500D01*
X82833500Y-93409000D01*
X82621000Y-93407306D01*
X82552388Y-93414064D01*
X82486413Y-93434077D01*
X82425609Y-93466577D01*
X82372315Y-93510315D01*
X82328577Y-93563609D01*
X82296077Y-93624413D01*
X82276064Y-93690388D01*
X82270424Y-93747648D01*
X82225503Y-93663607D01*
X82153784Y-93576216D01*
X82066393Y-93504497D01*
X81966691Y-93451205D01*
X81858507Y-93418388D01*
X81746000Y-93407307D01*
X81296000Y-93407307D01*
X81183493Y-93418388D01*
X81075309Y-93451205D01*
X80975607Y-93504497D01*
X80888216Y-93576216D01*
X80844077Y-93630000D01*
X80824820Y-93630000D01*
X80775332Y-93482307D01*
X80766342Y-93462762D01*
X80655949Y-93278121D01*
X80642988Y-93260952D01*
X80495659Y-93104193D01*
X80487870Y-93096752D01*
X80101993Y-92766000D01*
X80422306Y-92766000D01*
X80429064Y-92834612D01*
X80449077Y-92900587D01*
X80481577Y-92961391D01*
X80525315Y-93014685D01*
X80578609Y-93058423D01*
X80639413Y-93090923D01*
X80705388Y-93110936D01*
X80774000Y-93117694D01*
X80816500Y-93116000D01*
X80904000Y-93028500D01*
X80904000Y-92606000D01*
X80511500Y-92606000D01*
X80424000Y-92693500D01*
X80422306Y-92766000D01*
X80101993Y-92766000D01*
X79412380Y-92174904D01*
X79276158Y-92029962D01*
X79176869Y-91863894D01*
X79115395Y-91680429D01*
X79113294Y-91661000D01*
X79449306Y-91661000D01*
X79456064Y-91729612D01*
X79476077Y-91795587D01*
X79508577Y-91856391D01*
X79552315Y-91909685D01*
X79605609Y-91953423D01*
X79666413Y-91985923D01*
X79732388Y-92005936D01*
X79801000Y-92012694D01*
X80013500Y-92011000D01*
X80101000Y-91923500D01*
X80101000Y-91336000D01*
X79538500Y-91336000D01*
X79451000Y-91423500D01*
X79449306Y-91661000D01*
X79113294Y-91661000D01*
X79094000Y-91482670D01*
X79094000Y-91015394D01*
X79454869Y-90654525D01*
X79449306Y-90711000D01*
X79451000Y-90948500D01*
X79538500Y-91036000D01*
X80101000Y-91036000D01*
X80101000Y-90448500D01*
X80013500Y-90361000D01*
X79801000Y-90359306D01*
X79744525Y-90364869D01*
X80427447Y-89681947D01*
X80511500Y-89766000D01*
G04 #@! TA.AperFunction,Conductor*
D24*
G36*
X80511500Y-89766000D02*
G01*
X80904000Y-89766000D01*
X80904000Y-89746000D01*
X81204000Y-89746000D01*
X81204000Y-89766000D01*
X81224000Y-89766000D01*
X81224000Y-90066000D01*
X81204000Y-90066000D01*
X81204000Y-90488500D01*
X81209684Y-90494184D01*
X81168216Y-90528216D01*
X81096497Y-90615607D01*
X81051576Y-90699648D01*
X81045936Y-90642388D01*
X81025923Y-90576413D01*
X80993423Y-90515609D01*
X80949685Y-90462315D01*
X80904000Y-90424822D01*
X80904000Y-90066000D01*
X80511500Y-90066000D01*
X80424000Y-90153500D01*
X80422306Y-90226000D01*
X80429064Y-90294612D01*
X80449077Y-90360587D01*
X80462953Y-90386547D01*
X80401000Y-90448500D01*
X80401000Y-91036000D01*
X80421000Y-91036000D01*
X80421000Y-91336000D01*
X80401000Y-91336000D01*
X80401000Y-91923500D01*
X80462953Y-91985453D01*
X80449077Y-92011413D01*
X80429064Y-92077388D01*
X80422306Y-92146000D01*
X80424000Y-92218500D01*
X80511500Y-92306000D01*
X80904000Y-92306000D01*
X80904000Y-92286000D01*
X81204000Y-92286000D01*
X81204000Y-92306000D01*
X81224000Y-92306000D01*
X81224000Y-92606000D01*
X81204000Y-92606000D01*
X81204000Y-93028500D01*
X81291500Y-93116000D01*
X81334000Y-93117694D01*
X81402612Y-93110936D01*
X81468587Y-93090923D01*
X81529391Y-93058423D01*
X81579486Y-93017311D01*
X81600830Y-93034828D01*
X81685837Y-93080265D01*
X81778075Y-93108245D01*
X81874000Y-93117693D01*
X82154000Y-93117693D01*
X82249925Y-93108245D01*
X82250821Y-93107973D01*
X82416541Y-93196552D01*
X82479932Y-93222809D01*
X82667525Y-93279714D01*
X82734817Y-93293100D01*
X82929908Y-93312315D01*
X82964214Y-93314000D01*
X83419347Y-93314000D01*
X83558445Y-93329672D01*
X83671902Y-93369373D01*
X83773682Y-93433326D01*
X83858674Y-93518318D01*
X83922627Y-93620098D01*
X83962328Y-93733555D01*
X83974658Y-93842992D01*
X83941413Y-93853077D01*
X83880609Y-93885577D01*
X83871739Y-93892856D01*
X83872694Y-93759000D01*
X83865936Y-93690388D01*
X83845923Y-93624413D01*
X83813423Y-93563609D01*
X83769685Y-93510315D01*
X83716391Y-93466577D01*
X83655587Y-93434077D01*
X83589612Y-93414064D01*
X83521000Y-93407306D01*
X83308500Y-93409000D01*
X83221000Y-93496500D01*
X83221000Y-94084000D01*
X83241000Y-94084000D01*
X83241000Y-94384000D01*
X83221000Y-94384000D01*
X83221000Y-94971500D01*
X83308500Y-95059000D01*
X83521000Y-95060694D01*
X83589612Y-95053936D01*
X83655587Y-95033923D01*
X83716391Y-95001423D01*
X83766075Y-94960647D01*
X83783577Y-94993391D01*
X83827315Y-95046685D01*
X83880609Y-95090423D01*
X83941413Y-95122923D01*
X83978000Y-95134021D01*
X83978000Y-96028000D01*
X83979685Y-96062307D01*
X83998900Y-96257397D01*
X84010307Y-96314740D01*
X84010307Y-97044000D01*
X84017065Y-97112612D01*
X84037078Y-97178587D01*
X84069578Y-97239390D01*
X84113315Y-97292685D01*
X84166610Y-97336422D01*
X84227413Y-97368922D01*
X84293388Y-97388935D01*
X84362000Y-97395693D01*
X85262000Y-97395693D01*
X85330612Y-97388935D01*
X85366660Y-97378000D01*
X85752000Y-97378000D01*
X85752000Y-99265927D01*
X84629927Y-100388000D01*
X81758396Y-100388000D01*
X81476000Y-100105605D01*
X81476000Y-97430395D01*
X81510702Y-97395693D01*
X82262000Y-97395693D01*
X82330612Y-97388935D01*
X82396587Y-97368922D01*
X82457390Y-97336422D01*
X82510685Y-97292685D01*
X82554422Y-97239390D01*
X82586922Y-97178587D01*
X82606935Y-97112612D01*
X82613693Y-97044000D01*
X82613693Y-95744000D01*
X82606935Y-95675388D01*
X82586922Y-95609413D01*
X82554422Y-95548610D01*
X82510685Y-95495315D01*
X82457390Y-95451578D01*
X82396587Y-95419078D01*
X82392000Y-95417687D01*
X82392000Y-94973840D01*
X82425609Y-95001423D01*
X82486413Y-95033923D01*
X82552388Y-95053936D01*
X82621000Y-95060694D01*
X82833500Y-95059000D01*
X82921000Y-94971500D01*
X82921000Y-94384000D01*
X82901000Y-94384000D01*
X82901000Y-94084000D01*
X82921000Y-94084000D01*
X82921000Y-93496500D01*
X82833500Y-93409000D01*
X82621000Y-93407306D01*
X82552388Y-93414064D01*
X82486413Y-93434077D01*
X82425609Y-93466577D01*
X82372315Y-93510315D01*
X82328577Y-93563609D01*
X82296077Y-93624413D01*
X82276064Y-93690388D01*
X82270424Y-93747648D01*
X82225503Y-93663607D01*
X82153784Y-93576216D01*
X82066393Y-93504497D01*
X81966691Y-93451205D01*
X81858507Y-93418388D01*
X81746000Y-93407307D01*
X81296000Y-93407307D01*
X81183493Y-93418388D01*
X81075309Y-93451205D01*
X80975607Y-93504497D01*
X80888216Y-93576216D01*
X80844077Y-93630000D01*
X80824820Y-93630000D01*
X80775332Y-93482307D01*
X80766342Y-93462762D01*
X80655949Y-93278121D01*
X80642988Y-93260952D01*
X80495659Y-93104193D01*
X80487870Y-93096752D01*
X80101993Y-92766000D01*
X80422306Y-92766000D01*
X80429064Y-92834612D01*
X80449077Y-92900587D01*
X80481577Y-92961391D01*
X80525315Y-93014685D01*
X80578609Y-93058423D01*
X80639413Y-93090923D01*
X80705388Y-93110936D01*
X80774000Y-93117694D01*
X80816500Y-93116000D01*
X80904000Y-93028500D01*
X80904000Y-92606000D01*
X80511500Y-92606000D01*
X80424000Y-92693500D01*
X80422306Y-92766000D01*
X80101993Y-92766000D01*
X79412380Y-92174904D01*
X79276158Y-92029962D01*
X79176869Y-91863894D01*
X79115395Y-91680429D01*
X79113294Y-91661000D01*
X79449306Y-91661000D01*
X79456064Y-91729612D01*
X79476077Y-91795587D01*
X79508577Y-91856391D01*
X79552315Y-91909685D01*
X79605609Y-91953423D01*
X79666413Y-91985923D01*
X79732388Y-92005936D01*
X79801000Y-92012694D01*
X80013500Y-92011000D01*
X80101000Y-91923500D01*
X80101000Y-91336000D01*
X79538500Y-91336000D01*
X79451000Y-91423500D01*
X79449306Y-91661000D01*
X79113294Y-91661000D01*
X79094000Y-91482670D01*
X79094000Y-91015394D01*
X79454869Y-90654525D01*
X79449306Y-90711000D01*
X79451000Y-90948500D01*
X79538500Y-91036000D01*
X80101000Y-91036000D01*
X80101000Y-90448500D01*
X80013500Y-90361000D01*
X79801000Y-90359306D01*
X79744525Y-90364869D01*
X80427447Y-89681947D01*
X80511500Y-89766000D01*
G37*
G04 #@! TD.AperFunction*
D22*
X82627658Y-89604563D02*
X82686753Y-89622489D01*
X82697840Y-89623581D01*
X82697306Y-89629000D01*
X82699000Y-89641500D01*
X82786500Y-89729000D01*
X83131810Y-89729000D01*
X83149000Y-89730693D01*
X83956500Y-89730693D01*
X83956500Y-89927307D01*
X83149000Y-89927307D01*
X83131810Y-89929000D01*
X82786500Y-89929000D01*
X82724948Y-89990552D01*
X82645693Y-89911297D01*
X82645693Y-89746000D01*
X82636245Y-89650075D01*
X82621910Y-89602819D01*
X82627658Y-89604563D01*
G04 #@! TA.AperFunction,Conductor*
D24*
G36*
X82627658Y-89604563D02*
G01*
X82686753Y-89622489D01*
X82697840Y-89623581D01*
X82697306Y-89629000D01*
X82699000Y-89641500D01*
X82786500Y-89729000D01*
X83131810Y-89729000D01*
X83149000Y-89730693D01*
X83956500Y-89730693D01*
X83956500Y-89927307D01*
X83149000Y-89927307D01*
X83131810Y-89929000D01*
X82786500Y-89929000D01*
X82724948Y-89990552D01*
X82645693Y-89911297D01*
X82645693Y-89746000D01*
X82636245Y-89650075D01*
X82621910Y-89602819D01*
X82627658Y-89604563D01*
G37*
G04 #@! TD.AperFunction*
M02*
