G04 #@! TF.GenerationSoftware,KiCad,Pcbnew,5.1.10*
G04 #@! TF.CreationDate,2021-12-20T01:15:15+02:00*
G04 #@! TF.ProjectId,pwm-controller,70776d2d-636f-46e7-9472-6f6c6c65722e,rev?*
G04 #@! TF.SameCoordinates,Original*
G04 #@! TF.FileFunction,Legend,Bot*
G04 #@! TF.FilePolarity,Positive*
%FSLAX46Y46*%
G04 Gerber Fmt 4.6, Leading zero omitted, Abs format (unit mm)*
G04 Created by KiCad (PCBNEW 5.1.10) date 2021-12-20 01:15:15*
%MOMM*%
%LPD*%
G01*
G04 APERTURE LIST*
%ADD10C,2.200000*%
%ADD11C,1.800000*%
%ADD12O,1.700000X1.700000*%
%ADD13R,1.700000X1.700000*%
%ADD14C,1.310000*%
G04 APERTURE END LIST*
%LPC*%
D10*
X86995000Y-118707000D03*
X92075000Y-118707000D03*
X88265000Y-105880000D03*
X88265000Y-100800000D03*
X106680000Y-118707000D03*
X111760000Y-118707000D03*
G36*
G01*
X119335000Y-87726000D02*
X119335000Y-85526000D01*
G75*
G02*
X120135000Y-84726000I800000J0D01*
G01*
X121735000Y-84726000D01*
G75*
G02*
X122535000Y-85526000I0J-800000D01*
G01*
X122535000Y-87726000D01*
G75*
G02*
X121735000Y-88526000I-800000J0D01*
G01*
X120135000Y-88526000D01*
G75*
G02*
X119335000Y-87726000I0J800000D01*
G01*
G37*
G36*
G01*
X107335000Y-87726000D02*
X107335000Y-85526000D01*
G75*
G02*
X108135000Y-84726000I800000J0D01*
G01*
X109735000Y-84726000D01*
G75*
G02*
X110535000Y-85526000I0J-800000D01*
G01*
X110535000Y-87726000D01*
G75*
G02*
X109735000Y-88526000I-800000J0D01*
G01*
X108135000Y-88526000D01*
G75*
G02*
X107335000Y-87726000I0J800000D01*
G01*
G37*
D11*
X114935000Y-79726000D03*
X109385000Y-82426000D03*
X120485000Y-82426000D03*
X120885000Y-90026000D03*
X109385000Y-90726000D03*
D10*
X123025000Y-79375000D03*
D12*
X104775000Y-78829000D03*
X104775000Y-81369000D03*
X102235000Y-78829000D03*
X102235000Y-81369000D03*
X99695000Y-78829000D03*
X99695000Y-81369000D03*
X97155000Y-78829000D03*
X97155000Y-81369000D03*
X94615000Y-78829000D03*
D13*
X94615000Y-81369000D03*
D12*
X89027000Y-78829000D03*
X86487000Y-78829000D03*
X83947000Y-78829000D03*
X81407000Y-78829000D03*
D13*
X78867000Y-78829000D03*
D10*
X123025000Y-123025000D03*
X79375000Y-123025000D03*
D14*
X82550000Y-120485000D03*
X123660000Y-83185000D03*
M02*
