G04 #@! TF.GenerationSoftware,KiCad,Pcbnew,5.1.10*
G04 #@! TF.CreationDate,2022-01-01T14:55:10+02:00*
G04 #@! TF.ProjectId,pwm-controller,70776d2d-636f-46e7-9472-6f6c6c65722e,rev?*
G04 #@! TF.SameCoordinates,Original*
G04 #@! TF.FileFunction,Soldermask,Bot*
G04 #@! TF.FilePolarity,Negative*
%FSLAX46Y46*%
G04 Gerber Fmt 4.6, Leading zero omitted, Abs format (unit mm)*
G04 Created by KiCad (PCBNEW 5.1.10) date 2022-01-01 14:55:10*
%MOMM*%
%LPD*%
G01*
G04 APERTURE LIST*
%ADD10C,2.200000*%
%ADD11C,1.500000*%
%ADD12O,1.700000X1.700000*%
%ADD13R,1.700000X1.700000*%
%ADD14C,1.800000*%
%ADD15C,2.000000*%
%ADD16C,1.310000*%
G04 APERTURE END LIST*
D10*
X86995000Y-120739000D03*
X92075000Y-120739000D03*
D11*
X103378000Y-89154000D03*
D12*
X99822000Y-80264000D03*
X99822000Y-82804000D03*
X97282000Y-80264000D03*
X97282000Y-82804000D03*
X94742000Y-80264000D03*
X94742000Y-82804000D03*
X92202000Y-80264000D03*
X92202000Y-82804000D03*
X89662000Y-80264000D03*
X89662000Y-82804000D03*
X87122000Y-80264000D03*
X87122000Y-82804000D03*
X84582000Y-80264000D03*
X84582000Y-82804000D03*
X82042000Y-80264000D03*
X82042000Y-82804000D03*
X79502000Y-80264000D03*
D13*
X79502000Y-82804000D03*
G36*
G01*
X119335000Y-87726000D02*
X119335000Y-85526000D01*
G75*
G02*
X120135000Y-84726000I800000J0D01*
G01*
X121735000Y-84726000D01*
G75*
G02*
X122535000Y-85526000I0J-800000D01*
G01*
X122535000Y-87726000D01*
G75*
G02*
X121735000Y-88526000I-800000J0D01*
G01*
X120135000Y-88526000D01*
G75*
G02*
X119335000Y-87726000I0J800000D01*
G01*
G37*
G36*
G01*
X107335000Y-87726000D02*
X107335000Y-85526000D01*
G75*
G02*
X108135000Y-84726000I800000J0D01*
G01*
X109735000Y-84726000D01*
G75*
G02*
X110535000Y-85526000I0J-800000D01*
G01*
X110535000Y-87726000D01*
G75*
G02*
X109735000Y-88526000I-800000J0D01*
G01*
X108135000Y-88526000D01*
G75*
G02*
X107335000Y-87726000I0J800000D01*
G01*
G37*
D14*
X114935000Y-79726000D03*
X109385000Y-82426000D03*
X120485000Y-82426000D03*
X120885000Y-90026000D03*
X109385000Y-90726000D03*
D15*
X123500000Y-111270000D03*
X93500000Y-111270000D03*
D10*
X123025000Y-79375000D03*
X81788000Y-109728000D03*
X81788000Y-104648000D03*
X105410000Y-120739000D03*
X110490000Y-120739000D03*
X123025000Y-123025000D03*
X79375000Y-123025000D03*
D16*
X80645000Y-117945000D03*
X123444000Y-83655000D03*
M02*
