%FSLAX45Y45*%
G04 Gerber Fmt 4.5, Leading zero omitted, Abs format (unit mm)*
G04 Created by KiCad (PCBNEW 5.1.10) date 2021-12-10 00:49:22*
%MOMM*%
%LPD*%
G01*
G04 APERTURE LIST*
%TA.AperFunction,Profile*%
%ADD10C,0.050000*%
%TD*%
%ADD11C,0.200000*%
%ADD12C,0.300000*%
G04 APERTURE END LIST*
D10*
X8191500Y-11239500D02*
X8191500Y-14541500D01*
X12954000Y-11049000D02*
X8382000Y-11049000D01*
X13144500Y-14541500D02*
X13144500Y-11239500D01*
X8382000Y-14732000D02*
X12954000Y-14732000D01*
X8382000Y-14732000D02*
G75*
G02*
X8191500Y-14541500I0J190500D01*
G01*
X13144500Y-14541500D02*
G75*
G02*
X12954000Y-14732000I-190500J0D01*
G01*
X12954000Y-11049000D02*
G75*
G02*
X13144500Y-11239500I0J-190500D01*
G01*
X8191500Y-11239500D02*
G75*
G02*
X8382000Y-11049000I190500J0D01*
G01*
D11*
X8369500Y-12370000D02*
X8394500Y-12395000D01*
X8394500Y-12370000D02*
X8369500Y-12395000D01*
X8369500Y-12497000D02*
X8394500Y-12522000D01*
X8394500Y-12497000D02*
X8369500Y-12522000D01*
X8369500Y-12624000D02*
X8394500Y-12649000D01*
X8394500Y-12624000D02*
X8369500Y-12649000D01*
X8369500Y-12751000D02*
X8394500Y-12776000D01*
X8394500Y-12751000D02*
X8369500Y-12776000D01*
X8369500Y-12878000D02*
X8394500Y-12903000D01*
X8394500Y-12878000D02*
X8369500Y-12903000D01*
X8369500Y-13005000D02*
X8394500Y-13030000D01*
X8394500Y-13005000D02*
X8369500Y-13030000D01*
X8369500Y-13132000D02*
X8394500Y-13157000D01*
X8394500Y-13132000D02*
X8369500Y-13157000D01*
X8369500Y-13259000D02*
X8394500Y-13284000D01*
X8394500Y-13259000D02*
X8369500Y-13284000D01*
X8369500Y-13386000D02*
X8394500Y-13411000D01*
X8394500Y-13386000D02*
X8369500Y-13411000D01*
X8369500Y-13513000D02*
X8394500Y-13538000D01*
X8394500Y-13513000D02*
X8369500Y-13538000D01*
X8369500Y-13640000D02*
X8394500Y-13665000D01*
X8394500Y-13640000D02*
X8369500Y-13665000D01*
X8369500Y-13767000D02*
X8394500Y-13792000D01*
X8394500Y-13767000D02*
X8369500Y-13792000D01*
X8369500Y-13894000D02*
X8394500Y-13919000D01*
X8394500Y-13894000D02*
X8369500Y-13919000D01*
X8369500Y-14021000D02*
X8394500Y-14046000D01*
X8394500Y-14021000D02*
X8369500Y-14046000D01*
X8496500Y-12370000D02*
X8521500Y-12395000D01*
X8521500Y-12370000D02*
X8496500Y-12395000D01*
X8496500Y-12497000D02*
X8521500Y-12522000D01*
X8521500Y-12497000D02*
X8496500Y-12522000D01*
X8496500Y-12624000D02*
X8521500Y-12649000D01*
X8521500Y-12624000D02*
X8496500Y-12649000D01*
X8496500Y-12751000D02*
X8521500Y-12776000D01*
X8521500Y-12751000D02*
X8496500Y-12776000D01*
X8496500Y-12878000D02*
X8521500Y-12903000D01*
X8521500Y-12878000D02*
X8496500Y-12903000D01*
X8496500Y-13005000D02*
X8521500Y-13030000D01*
X8521500Y-13005000D02*
X8496500Y-13030000D01*
X8496500Y-13132000D02*
X8521500Y-13157000D01*
X8521500Y-13132000D02*
X8496500Y-13157000D01*
X8496500Y-13259000D02*
X8521500Y-13284000D01*
X8521500Y-13259000D02*
X8496500Y-13284000D01*
X8496500Y-13386000D02*
X8521500Y-13411000D01*
X8521500Y-13386000D02*
X8496500Y-13411000D01*
X8496500Y-13513000D02*
X8521500Y-13538000D01*
X8521500Y-13513000D02*
X8496500Y-13538000D01*
X8496500Y-13640000D02*
X8521500Y-13665000D01*
X8521500Y-13640000D02*
X8496500Y-13665000D01*
X8496500Y-13767000D02*
X8521500Y-13792000D01*
X8521500Y-13767000D02*
X8496500Y-13792000D01*
X8496500Y-13894000D02*
X8521500Y-13919000D01*
X8521500Y-13894000D02*
X8496500Y-13919000D01*
X8496500Y-14021000D02*
X8521500Y-14046000D01*
X8521500Y-14021000D02*
X8496500Y-14046000D01*
X8623500Y-12751000D02*
X8648500Y-12776000D01*
X8648500Y-12751000D02*
X8623500Y-12776000D01*
X8623500Y-12878000D02*
X8648500Y-12903000D01*
X8648500Y-12878000D02*
X8623500Y-12903000D01*
X8623500Y-13005000D02*
X8648500Y-13030000D01*
X8648500Y-13005000D02*
X8623500Y-13030000D01*
X8623500Y-13132000D02*
X8648500Y-13157000D01*
X8648500Y-13132000D02*
X8623500Y-13157000D01*
X8623500Y-13259000D02*
X8648500Y-13284000D01*
X8648500Y-13259000D02*
X8623500Y-13284000D01*
X8623500Y-13386000D02*
X8648500Y-13411000D01*
X8648500Y-13386000D02*
X8623500Y-13411000D01*
X8623500Y-13513000D02*
X8648500Y-13538000D01*
X8648500Y-13513000D02*
X8623500Y-13538000D01*
X8623500Y-13640000D02*
X8648500Y-13665000D01*
X8648500Y-13640000D02*
X8623500Y-13665000D01*
X8623500Y-13767000D02*
X8648500Y-13792000D01*
X8648500Y-13767000D02*
X8623500Y-13792000D01*
X8623500Y-13894000D02*
X8648500Y-13919000D01*
X8648500Y-13894000D02*
X8623500Y-13919000D01*
X8623500Y-14021000D02*
X8648500Y-14046000D01*
X8648500Y-14021000D02*
X8623500Y-14046000D01*
X8750500Y-13005000D02*
X8775500Y-13030000D01*
X8775500Y-13005000D02*
X8750500Y-13030000D01*
X8750500Y-13132000D02*
X8775500Y-13157000D01*
X8775500Y-13132000D02*
X8750500Y-13157000D01*
X8750500Y-13259000D02*
X8775500Y-13284000D01*
X8775500Y-13259000D02*
X8750500Y-13284000D01*
X8750500Y-13386000D02*
X8775500Y-13411000D01*
X8775500Y-13386000D02*
X8750500Y-13411000D01*
X8750500Y-13513000D02*
X8775500Y-13538000D01*
X8775500Y-13513000D02*
X8750500Y-13538000D01*
X8750500Y-13640000D02*
X8775500Y-13665000D01*
X8775500Y-13640000D02*
X8750500Y-13665000D01*
X8750500Y-13767000D02*
X8775500Y-13792000D01*
X8775500Y-13767000D02*
X8750500Y-13792000D01*
X8750500Y-13894000D02*
X8775500Y-13919000D01*
X8775500Y-13894000D02*
X8750500Y-13919000D01*
X8750500Y-14021000D02*
X8775500Y-14046000D01*
X8775500Y-14021000D02*
X8750500Y-14046000D01*
X8750500Y-14148000D02*
X8775500Y-14173000D01*
X8775500Y-14148000D02*
X8750500Y-14173000D01*
X8877500Y-13005000D02*
X8902500Y-13030000D01*
X8902500Y-13005000D02*
X8877500Y-13030000D01*
X8877500Y-13132000D02*
X8902500Y-13157000D01*
X8902500Y-13132000D02*
X8877500Y-13157000D01*
X8877500Y-13259000D02*
X8902500Y-13284000D01*
X8902500Y-13259000D02*
X8877500Y-13284000D01*
X8877500Y-13386000D02*
X8902500Y-13411000D01*
X8902500Y-13386000D02*
X8877500Y-13411000D01*
X8877500Y-13513000D02*
X8902500Y-13538000D01*
X8902500Y-13513000D02*
X8877500Y-13538000D01*
X8877500Y-13640000D02*
X8902500Y-13665000D01*
X8902500Y-13640000D02*
X8877500Y-13665000D01*
X8877500Y-13767000D02*
X8902500Y-13792000D01*
X8902500Y-13767000D02*
X8877500Y-13792000D01*
X8877500Y-13894000D02*
X8902500Y-13919000D01*
X8902500Y-13894000D02*
X8877500Y-13919000D01*
X8877500Y-14021000D02*
X8902500Y-14046000D01*
X8902500Y-14021000D02*
X8877500Y-14046000D01*
X8877500Y-14148000D02*
X8902500Y-14173000D01*
X8902500Y-14148000D02*
X8877500Y-14173000D01*
X8877500Y-14275000D02*
X8902500Y-14300000D01*
X8902500Y-14275000D02*
X8877500Y-14300000D01*
X9004500Y-11163500D02*
X9029500Y-11188500D01*
X9029500Y-11163500D02*
X9004500Y-11188500D01*
X9004500Y-13005000D02*
X9029500Y-13030000D01*
X9029500Y-13005000D02*
X9004500Y-13030000D01*
X9004500Y-13132000D02*
X9029500Y-13157000D01*
X9029500Y-13132000D02*
X9004500Y-13157000D01*
X9004500Y-13259000D02*
X9029500Y-13284000D01*
X9029500Y-13259000D02*
X9004500Y-13284000D01*
X9004500Y-13386000D02*
X9029500Y-13411000D01*
X9029500Y-13386000D02*
X9004500Y-13411000D01*
X9004500Y-13513000D02*
X9029500Y-13538000D01*
X9029500Y-13513000D02*
X9004500Y-13538000D01*
X9004500Y-13640000D02*
X9029500Y-13665000D01*
X9029500Y-13640000D02*
X9004500Y-13665000D01*
X9004500Y-13767000D02*
X9029500Y-13792000D01*
X9029500Y-13767000D02*
X9004500Y-13792000D01*
X9004500Y-13894000D02*
X9029500Y-13919000D01*
X9029500Y-13894000D02*
X9004500Y-13919000D01*
X9004500Y-14021000D02*
X9029500Y-14046000D01*
X9029500Y-14021000D02*
X9004500Y-14046000D01*
X9004500Y-14148000D02*
X9029500Y-14173000D01*
X9029500Y-14148000D02*
X9004500Y-14173000D01*
X9004500Y-14275000D02*
X9029500Y-14300000D01*
X9029500Y-14275000D02*
X9004500Y-14300000D01*
X9004500Y-14402000D02*
X9029500Y-14427000D01*
X9029500Y-14402000D02*
X9004500Y-14427000D01*
X9004500Y-14529000D02*
X9029500Y-14554000D01*
X9029500Y-14529000D02*
X9004500Y-14554000D01*
X9131500Y-11163500D02*
X9156500Y-11188500D01*
X9156500Y-11163500D02*
X9131500Y-11188500D01*
X9131500Y-13005000D02*
X9156500Y-13030000D01*
X9156500Y-13005000D02*
X9131500Y-13030000D01*
X9131500Y-14402000D02*
X9156500Y-14427000D01*
X9156500Y-14402000D02*
X9131500Y-14427000D01*
X9131500Y-14529000D02*
X9156500Y-14554000D01*
X9156500Y-14529000D02*
X9131500Y-14554000D01*
X9258500Y-11163500D02*
X9283500Y-11188500D01*
X9283500Y-11163500D02*
X9258500Y-11188500D01*
X9258500Y-13005000D02*
X9283500Y-13030000D01*
X9283500Y-13005000D02*
X9258500Y-13030000D01*
X9258500Y-13513000D02*
X9283500Y-13538000D01*
X9283500Y-13513000D02*
X9258500Y-13538000D01*
X9258500Y-13640000D02*
X9283500Y-13665000D01*
X9283500Y-13640000D02*
X9258500Y-13665000D01*
X9258500Y-13767000D02*
X9283500Y-13792000D01*
X9283500Y-13767000D02*
X9258500Y-13792000D01*
X9258500Y-14402000D02*
X9283500Y-14427000D01*
X9283500Y-14402000D02*
X9258500Y-14427000D01*
X9258500Y-14529000D02*
X9283500Y-14554000D01*
X9283500Y-14529000D02*
X9258500Y-14554000D01*
X9385500Y-11163500D02*
X9410500Y-11188500D01*
X9410500Y-11163500D02*
X9385500Y-11188500D01*
X9385500Y-13005000D02*
X9410500Y-13030000D01*
X9410500Y-13005000D02*
X9385500Y-13030000D01*
X9385500Y-13513000D02*
X9410500Y-13538000D01*
X9410500Y-13513000D02*
X9385500Y-13538000D01*
X9385500Y-13640000D02*
X9410500Y-13665000D01*
X9410500Y-13640000D02*
X9385500Y-13665000D01*
X9385500Y-13767000D02*
X9410500Y-13792000D01*
X9410500Y-13767000D02*
X9385500Y-13792000D01*
X9385500Y-14402000D02*
X9410500Y-14427000D01*
X9410500Y-14402000D02*
X9385500Y-14427000D01*
X9385500Y-14529000D02*
X9410500Y-14554000D01*
X9410500Y-14529000D02*
X9385500Y-14554000D01*
X9512500Y-11163500D02*
X9537500Y-11188500D01*
X9537500Y-11163500D02*
X9512500Y-11188500D01*
X9512500Y-13005000D02*
X9537500Y-13030000D01*
X9537500Y-13005000D02*
X9512500Y-13030000D01*
X9512500Y-13513000D02*
X9537500Y-13538000D01*
X9537500Y-13513000D02*
X9512500Y-13538000D01*
X9512500Y-13640000D02*
X9537500Y-13665000D01*
X9537500Y-13640000D02*
X9512500Y-13665000D01*
X9512500Y-13767000D02*
X9537500Y-13792000D01*
X9537500Y-13767000D02*
X9512500Y-13792000D01*
X9512500Y-14402000D02*
X9537500Y-14427000D01*
X9537500Y-14402000D02*
X9512500Y-14427000D01*
X9512500Y-14529000D02*
X9537500Y-14554000D01*
X9537500Y-14529000D02*
X9512500Y-14554000D01*
X9639500Y-11163500D02*
X9664500Y-11188500D01*
X9664500Y-11163500D02*
X9639500Y-11188500D01*
X9639500Y-13005000D02*
X9664500Y-13030000D01*
X9664500Y-13005000D02*
X9639500Y-13030000D01*
X9639500Y-13513000D02*
X9664500Y-13538000D01*
X9664500Y-13513000D02*
X9639500Y-13538000D01*
X9639500Y-13640000D02*
X9664500Y-13665000D01*
X9664500Y-13640000D02*
X9639500Y-13665000D01*
X9639500Y-13767000D02*
X9664500Y-13792000D01*
X9664500Y-13767000D02*
X9639500Y-13792000D01*
X9639500Y-14402000D02*
X9664500Y-14427000D01*
X9664500Y-14402000D02*
X9639500Y-14427000D01*
X9639500Y-14529000D02*
X9664500Y-14554000D01*
X9664500Y-14529000D02*
X9639500Y-14554000D01*
X9766500Y-11163500D02*
X9791500Y-11188500D01*
X9791500Y-11163500D02*
X9766500Y-11188500D01*
X9766500Y-13005000D02*
X9791500Y-13030000D01*
X9791500Y-13005000D02*
X9766500Y-13030000D01*
X9766500Y-13513000D02*
X9791500Y-13538000D01*
X9791500Y-13513000D02*
X9766500Y-13538000D01*
X9766500Y-13640000D02*
X9791500Y-13665000D01*
X9791500Y-13640000D02*
X9766500Y-13665000D01*
X9766500Y-13767000D02*
X9791500Y-13792000D01*
X9791500Y-13767000D02*
X9766500Y-13792000D01*
X9766500Y-14402000D02*
X9791500Y-14427000D01*
X9791500Y-14402000D02*
X9766500Y-14427000D01*
X9766500Y-14529000D02*
X9791500Y-14554000D01*
X9791500Y-14529000D02*
X9766500Y-14554000D01*
X9893500Y-11163500D02*
X9918500Y-11188500D01*
X9918500Y-11163500D02*
X9893500Y-11188500D01*
X9893500Y-13005000D02*
X9918500Y-13030000D01*
X9918500Y-13005000D02*
X9893500Y-13030000D01*
X9893500Y-13513000D02*
X9918500Y-13538000D01*
X9918500Y-13513000D02*
X9893500Y-13538000D01*
X9893500Y-13640000D02*
X9918500Y-13665000D01*
X9918500Y-13640000D02*
X9893500Y-13665000D01*
X9893500Y-13767000D02*
X9918500Y-13792000D01*
X9918500Y-13767000D02*
X9893500Y-13792000D01*
X9893500Y-14402000D02*
X9918500Y-14427000D01*
X9918500Y-14402000D02*
X9893500Y-14427000D01*
X9893500Y-14529000D02*
X9918500Y-14554000D01*
X9918500Y-14529000D02*
X9893500Y-14554000D01*
X10020500Y-11163500D02*
X10045500Y-11188500D01*
X10045500Y-11163500D02*
X10020500Y-11188500D01*
X10020500Y-13005000D02*
X10045500Y-13030000D01*
X10045500Y-13005000D02*
X10020500Y-13030000D01*
X10020500Y-13513000D02*
X10045500Y-13538000D01*
X10045500Y-13513000D02*
X10020500Y-13538000D01*
X10020500Y-13640000D02*
X10045500Y-13665000D01*
X10045500Y-13640000D02*
X10020500Y-13665000D01*
X10020500Y-13767000D02*
X10045500Y-13792000D01*
X10045500Y-13767000D02*
X10020500Y-13792000D01*
X10020500Y-14402000D02*
X10045500Y-14427000D01*
X10045500Y-14402000D02*
X10020500Y-14427000D01*
X10020500Y-14529000D02*
X10045500Y-14554000D01*
X10045500Y-14529000D02*
X10020500Y-14554000D01*
X10147500Y-11163500D02*
X10172500Y-11188500D01*
X10172500Y-11163500D02*
X10147500Y-11188500D01*
X10147500Y-13005000D02*
X10172500Y-13030000D01*
X10172500Y-13005000D02*
X10147500Y-13030000D01*
X10147500Y-13513000D02*
X10172500Y-13538000D01*
X10172500Y-13513000D02*
X10147500Y-13538000D01*
X10147500Y-13640000D02*
X10172500Y-13665000D01*
X10172500Y-13640000D02*
X10147500Y-13665000D01*
X10147500Y-13767000D02*
X10172500Y-13792000D01*
X10172500Y-13767000D02*
X10147500Y-13792000D01*
X10147500Y-14402000D02*
X10172500Y-14427000D01*
X10172500Y-14402000D02*
X10147500Y-14427000D01*
X10147500Y-14529000D02*
X10172500Y-14554000D01*
X10172500Y-14529000D02*
X10147500Y-14554000D01*
X10274500Y-11163500D02*
X10299500Y-11188500D01*
X10299500Y-11163500D02*
X10274500Y-11188500D01*
X10274500Y-13005000D02*
X10299500Y-13030000D01*
X10299500Y-13005000D02*
X10274500Y-13030000D01*
X10274500Y-13513000D02*
X10299500Y-13538000D01*
X10299500Y-13513000D02*
X10274500Y-13538000D01*
X10274500Y-13640000D02*
X10299500Y-13665000D01*
X10299500Y-13640000D02*
X10274500Y-13665000D01*
X10274500Y-13767000D02*
X10299500Y-13792000D01*
X10299500Y-13767000D02*
X10274500Y-13792000D01*
X10274500Y-14402000D02*
X10299500Y-14427000D01*
X10299500Y-14402000D02*
X10274500Y-14427000D01*
X10274500Y-14529000D02*
X10299500Y-14554000D01*
X10299500Y-14529000D02*
X10274500Y-14554000D01*
X10401500Y-11163500D02*
X10426500Y-11188500D01*
X10426500Y-11163500D02*
X10401500Y-11188500D01*
X10401500Y-13005000D02*
X10426500Y-13030000D01*
X10426500Y-13005000D02*
X10401500Y-13030000D01*
X10401500Y-13513000D02*
X10426500Y-13538000D01*
X10426500Y-13513000D02*
X10401500Y-13538000D01*
X10401500Y-13640000D02*
X10426500Y-13665000D01*
X10426500Y-13640000D02*
X10401500Y-13665000D01*
X10401500Y-13767000D02*
X10426500Y-13792000D01*
X10426500Y-13767000D02*
X10401500Y-13792000D01*
X10401500Y-14402000D02*
X10426500Y-14427000D01*
X10426500Y-14402000D02*
X10401500Y-14427000D01*
X10401500Y-14529000D02*
X10426500Y-14554000D01*
X10426500Y-14529000D02*
X10401500Y-14554000D01*
X10528500Y-11163500D02*
X10553500Y-11188500D01*
X10553500Y-11163500D02*
X10528500Y-11188500D01*
X10528500Y-13005000D02*
X10553500Y-13030000D01*
X10553500Y-13005000D02*
X10528500Y-13030000D01*
X10528500Y-13513000D02*
X10553500Y-13538000D01*
X10553500Y-13513000D02*
X10528500Y-13538000D01*
X10528500Y-13640000D02*
X10553500Y-13665000D01*
X10553500Y-13640000D02*
X10528500Y-13665000D01*
X10528500Y-13767000D02*
X10553500Y-13792000D01*
X10553500Y-13767000D02*
X10528500Y-13792000D01*
X10528500Y-14402000D02*
X10553500Y-14427000D01*
X10553500Y-14402000D02*
X10528500Y-14427000D01*
X10528500Y-14529000D02*
X10553500Y-14554000D01*
X10553500Y-14529000D02*
X10528500Y-14554000D01*
X10655500Y-11163500D02*
X10680500Y-11188500D01*
X10680500Y-11163500D02*
X10655500Y-11188500D01*
X10655500Y-13005000D02*
X10680500Y-13030000D01*
X10680500Y-13005000D02*
X10655500Y-13030000D01*
X10655500Y-13513000D02*
X10680500Y-13538000D01*
X10680500Y-13513000D02*
X10655500Y-13538000D01*
X10655500Y-13640000D02*
X10680500Y-13665000D01*
X10680500Y-13640000D02*
X10655500Y-13665000D01*
X10655500Y-13767000D02*
X10680500Y-13792000D01*
X10680500Y-13767000D02*
X10655500Y-13792000D01*
X10655500Y-14402000D02*
X10680500Y-14427000D01*
X10680500Y-14402000D02*
X10655500Y-14427000D01*
X10655500Y-14529000D02*
X10680500Y-14554000D01*
X10680500Y-14529000D02*
X10655500Y-14554000D01*
X10782500Y-11163500D02*
X10807500Y-11188500D01*
X10807500Y-11163500D02*
X10782500Y-11188500D01*
X10782500Y-13005000D02*
X10807500Y-13030000D01*
X10807500Y-13005000D02*
X10782500Y-13030000D01*
X10782500Y-13513000D02*
X10807500Y-13538000D01*
X10807500Y-13513000D02*
X10782500Y-13538000D01*
X10782500Y-13640000D02*
X10807500Y-13665000D01*
X10807500Y-13640000D02*
X10782500Y-13665000D01*
X10782500Y-13767000D02*
X10807500Y-13792000D01*
X10807500Y-13767000D02*
X10782500Y-13792000D01*
X10782500Y-14402000D02*
X10807500Y-14427000D01*
X10807500Y-14402000D02*
X10782500Y-14427000D01*
X10782500Y-14529000D02*
X10807500Y-14554000D01*
X10807500Y-14529000D02*
X10782500Y-14554000D01*
X10909500Y-11163500D02*
X10934500Y-11188500D01*
X10934500Y-11163500D02*
X10909500Y-11188500D01*
X10909500Y-13005000D02*
X10934500Y-13030000D01*
X10934500Y-13005000D02*
X10909500Y-13030000D01*
X10909500Y-13513000D02*
X10934500Y-13538000D01*
X10934500Y-13513000D02*
X10909500Y-13538000D01*
X10909500Y-13640000D02*
X10934500Y-13665000D01*
X10934500Y-13640000D02*
X10909500Y-13665000D01*
X10909500Y-13767000D02*
X10934500Y-13792000D01*
X10934500Y-13767000D02*
X10909500Y-13792000D01*
X10909500Y-14402000D02*
X10934500Y-14427000D01*
X10934500Y-14402000D02*
X10909500Y-14427000D01*
X10909500Y-14529000D02*
X10934500Y-14554000D01*
X10934500Y-14529000D02*
X10909500Y-14554000D01*
X11036500Y-11163500D02*
X11061500Y-11188500D01*
X11061500Y-11163500D02*
X11036500Y-11188500D01*
X11036500Y-11290500D02*
X11061500Y-11315500D01*
X11061500Y-11290500D02*
X11036500Y-11315500D01*
X11036500Y-11925500D02*
X11061500Y-11950500D01*
X11061500Y-11925500D02*
X11036500Y-11950500D01*
X11036500Y-12624000D02*
X11061500Y-12649000D01*
X11061500Y-12624000D02*
X11036500Y-12649000D01*
X11036500Y-12751000D02*
X11061500Y-12776000D01*
X11061500Y-12751000D02*
X11036500Y-12776000D01*
X11036500Y-12878000D02*
X11061500Y-12903000D01*
X11061500Y-12878000D02*
X11036500Y-12903000D01*
X11036500Y-13005000D02*
X11061500Y-13030000D01*
X11061500Y-13005000D02*
X11036500Y-13030000D01*
X11036500Y-13513000D02*
X11061500Y-13538000D01*
X11061500Y-13513000D02*
X11036500Y-13538000D01*
X11036500Y-13640000D02*
X11061500Y-13665000D01*
X11061500Y-13640000D02*
X11036500Y-13665000D01*
X11036500Y-13767000D02*
X11061500Y-13792000D01*
X11061500Y-13767000D02*
X11036500Y-13792000D01*
X11036500Y-14402000D02*
X11061500Y-14427000D01*
X11061500Y-14402000D02*
X11036500Y-14427000D01*
X11036500Y-14529000D02*
X11061500Y-14554000D01*
X11061500Y-14529000D02*
X11036500Y-14554000D01*
X11163500Y-11163500D02*
X11188500Y-11188500D01*
X11188500Y-11163500D02*
X11163500Y-11188500D01*
X11163500Y-11290500D02*
X11188500Y-11315500D01*
X11188500Y-11290500D02*
X11163500Y-11315500D01*
X11163500Y-12624000D02*
X11188500Y-12649000D01*
X11188500Y-12624000D02*
X11163500Y-12649000D01*
X11163500Y-12751000D02*
X11188500Y-12776000D01*
X11188500Y-12751000D02*
X11163500Y-12776000D01*
X11163500Y-12878000D02*
X11188500Y-12903000D01*
X11188500Y-12878000D02*
X11163500Y-12903000D01*
X11163500Y-13005000D02*
X11188500Y-13030000D01*
X11188500Y-13005000D02*
X11163500Y-13030000D01*
X11163500Y-13513000D02*
X11188500Y-13538000D01*
X11188500Y-13513000D02*
X11163500Y-13538000D01*
X11163500Y-13640000D02*
X11188500Y-13665000D01*
X11188500Y-13640000D02*
X11163500Y-13665000D01*
X11163500Y-13767000D02*
X11188500Y-13792000D01*
X11188500Y-13767000D02*
X11163500Y-13792000D01*
X11163500Y-14402000D02*
X11188500Y-14427000D01*
X11188500Y-14402000D02*
X11163500Y-14427000D01*
X11163500Y-14529000D02*
X11188500Y-14554000D01*
X11188500Y-14529000D02*
X11163500Y-14554000D01*
X11227000Y-11354000D02*
X11252000Y-11379000D01*
X11252000Y-11354000D02*
X11227000Y-11379000D01*
X11290500Y-11163500D02*
X11315500Y-11188500D01*
X11315500Y-11163500D02*
X11290500Y-11188500D01*
X11290500Y-11290500D02*
X11315500Y-11315500D01*
X11315500Y-11290500D02*
X11290500Y-11315500D01*
X11290500Y-12624000D02*
X11315500Y-12649000D01*
X11315500Y-12624000D02*
X11290500Y-12649000D01*
X11290500Y-12751000D02*
X11315500Y-12776000D01*
X11315500Y-12751000D02*
X11290500Y-12776000D01*
X11290500Y-12878000D02*
X11315500Y-12903000D01*
X11315500Y-12878000D02*
X11290500Y-12903000D01*
X11290500Y-13005000D02*
X11315500Y-13030000D01*
X11315500Y-13005000D02*
X11290500Y-13030000D01*
X11290500Y-13513000D02*
X11315500Y-13538000D01*
X11315500Y-13513000D02*
X11290500Y-13538000D01*
X11290500Y-13640000D02*
X11315500Y-13665000D01*
X11315500Y-13640000D02*
X11290500Y-13665000D01*
X11290500Y-13767000D02*
X11315500Y-13792000D01*
X11315500Y-13767000D02*
X11290500Y-13792000D01*
X11290500Y-14402000D02*
X11315500Y-14427000D01*
X11315500Y-14402000D02*
X11290500Y-14427000D01*
X11290500Y-14529000D02*
X11315500Y-14554000D01*
X11315500Y-14529000D02*
X11290500Y-14554000D01*
X11417500Y-11163500D02*
X11442500Y-11188500D01*
X11442500Y-11163500D02*
X11417500Y-11188500D01*
X11417500Y-11290500D02*
X11442500Y-11315500D01*
X11442500Y-11290500D02*
X11417500Y-11315500D01*
X11417500Y-12624000D02*
X11442500Y-12649000D01*
X11442500Y-12624000D02*
X11417500Y-12649000D01*
X11417500Y-12751000D02*
X11442500Y-12776000D01*
X11442500Y-12751000D02*
X11417500Y-12776000D01*
X11417500Y-12878000D02*
X11442500Y-12903000D01*
X11442500Y-12878000D02*
X11417500Y-12903000D01*
X11417500Y-13005000D02*
X11442500Y-13030000D01*
X11442500Y-13005000D02*
X11417500Y-13030000D01*
X11417500Y-13513000D02*
X11442500Y-13538000D01*
X11442500Y-13513000D02*
X11417500Y-13538000D01*
X11417500Y-13640000D02*
X11442500Y-13665000D01*
X11442500Y-13640000D02*
X11417500Y-13665000D01*
X11417500Y-13767000D02*
X11442500Y-13792000D01*
X11442500Y-13767000D02*
X11417500Y-13792000D01*
X11417500Y-14402000D02*
X11442500Y-14427000D01*
X11442500Y-14402000D02*
X11417500Y-14427000D01*
X11417500Y-14529000D02*
X11442500Y-14554000D01*
X11442500Y-14529000D02*
X11417500Y-14554000D01*
X11481000Y-11354000D02*
X11506000Y-11379000D01*
X11506000Y-11354000D02*
X11481000Y-11379000D01*
X11544500Y-11163500D02*
X11569500Y-11188500D01*
X11569500Y-11163500D02*
X11544500Y-11188500D01*
X11544500Y-11290500D02*
X11569500Y-11315500D01*
X11569500Y-11290500D02*
X11544500Y-11315500D01*
X11544500Y-11925500D02*
X11569500Y-11950500D01*
X11569500Y-11925500D02*
X11544500Y-11950500D01*
X11544500Y-12624000D02*
X11569500Y-12649000D01*
X11569500Y-12624000D02*
X11544500Y-12649000D01*
X11544500Y-12751000D02*
X11569500Y-12776000D01*
X11569500Y-12751000D02*
X11544500Y-12776000D01*
X11544500Y-12878000D02*
X11569500Y-12903000D01*
X11569500Y-12878000D02*
X11544500Y-12903000D01*
X11544500Y-13005000D02*
X11569500Y-13030000D01*
X11569500Y-13005000D02*
X11544500Y-13030000D01*
X11544500Y-13513000D02*
X11569500Y-13538000D01*
X11569500Y-13513000D02*
X11544500Y-13538000D01*
X11544500Y-13640000D02*
X11569500Y-13665000D01*
X11569500Y-13640000D02*
X11544500Y-13665000D01*
X11544500Y-13767000D02*
X11569500Y-13792000D01*
X11569500Y-13767000D02*
X11544500Y-13792000D01*
X11544500Y-14402000D02*
X11569500Y-14427000D01*
X11569500Y-14402000D02*
X11544500Y-14427000D01*
X11544500Y-14529000D02*
X11569500Y-14554000D01*
X11569500Y-14529000D02*
X11544500Y-14554000D01*
X11671500Y-11163500D02*
X11696500Y-11188500D01*
X11696500Y-11163500D02*
X11671500Y-11188500D01*
X11671500Y-11290500D02*
X11696500Y-11315500D01*
X11696500Y-11290500D02*
X11671500Y-11315500D01*
X11671500Y-12624000D02*
X11696500Y-12649000D01*
X11696500Y-12624000D02*
X11671500Y-12649000D01*
X11671500Y-12751000D02*
X11696500Y-12776000D01*
X11696500Y-12751000D02*
X11671500Y-12776000D01*
X11671500Y-12878000D02*
X11696500Y-12903000D01*
X11696500Y-12878000D02*
X11671500Y-12903000D01*
X11671500Y-13005000D02*
X11696500Y-13030000D01*
X11696500Y-13005000D02*
X11671500Y-13030000D01*
X11671500Y-13513000D02*
X11696500Y-13538000D01*
X11696500Y-13513000D02*
X11671500Y-13538000D01*
X11671500Y-13640000D02*
X11696500Y-13665000D01*
X11696500Y-13640000D02*
X11671500Y-13665000D01*
X11671500Y-13767000D02*
X11696500Y-13792000D01*
X11696500Y-13767000D02*
X11671500Y-13792000D01*
X11671500Y-14402000D02*
X11696500Y-14427000D01*
X11696500Y-14402000D02*
X11671500Y-14427000D01*
X11671500Y-14529000D02*
X11696500Y-14554000D01*
X11696500Y-14529000D02*
X11671500Y-14554000D01*
X11798500Y-11163500D02*
X11823500Y-11188500D01*
X11823500Y-11163500D02*
X11798500Y-11188500D01*
X11798500Y-11290500D02*
X11823500Y-11315500D01*
X11823500Y-11290500D02*
X11798500Y-11315500D01*
X11798500Y-12624000D02*
X11823500Y-12649000D01*
X11823500Y-12624000D02*
X11798500Y-12649000D01*
X11798500Y-12751000D02*
X11823500Y-12776000D01*
X11823500Y-12751000D02*
X11798500Y-12776000D01*
X11798500Y-12878000D02*
X11823500Y-12903000D01*
X11823500Y-12878000D02*
X11798500Y-12903000D01*
X11798500Y-13005000D02*
X11823500Y-13030000D01*
X11823500Y-13005000D02*
X11798500Y-13030000D01*
X11798500Y-13513000D02*
X11823500Y-13538000D01*
X11823500Y-13513000D02*
X11798500Y-13538000D01*
X11798500Y-13640000D02*
X11823500Y-13665000D01*
X11823500Y-13640000D02*
X11798500Y-13665000D01*
X11798500Y-13767000D02*
X11823500Y-13792000D01*
X11823500Y-13767000D02*
X11798500Y-13792000D01*
X11798500Y-14402000D02*
X11823500Y-14427000D01*
X11823500Y-14402000D02*
X11798500Y-14427000D01*
X11798500Y-14529000D02*
X11823500Y-14554000D01*
X11823500Y-14529000D02*
X11798500Y-14554000D01*
X11925500Y-11163500D02*
X11950500Y-11188500D01*
X11950500Y-11163500D02*
X11925500Y-11188500D01*
X11925500Y-11290500D02*
X11950500Y-11315500D01*
X11950500Y-11290500D02*
X11925500Y-11315500D01*
X11925500Y-12751000D02*
X11950500Y-12776000D01*
X11950500Y-12751000D02*
X11925500Y-12776000D01*
X11925500Y-12878000D02*
X11950500Y-12903000D01*
X11950500Y-12878000D02*
X11925500Y-12903000D01*
X11925500Y-13005000D02*
X11950500Y-13030000D01*
X11950500Y-13005000D02*
X11925500Y-13030000D01*
X11925500Y-13513000D02*
X11950500Y-13538000D01*
X11950500Y-13513000D02*
X11925500Y-13538000D01*
X11925500Y-13640000D02*
X11950500Y-13665000D01*
X11950500Y-13640000D02*
X11925500Y-13665000D01*
X11925500Y-13767000D02*
X11950500Y-13792000D01*
X11950500Y-13767000D02*
X11925500Y-13792000D01*
X11925500Y-14402000D02*
X11950500Y-14427000D01*
X11950500Y-14402000D02*
X11925500Y-14427000D01*
X11925500Y-14529000D02*
X11950500Y-14554000D01*
X11950500Y-14529000D02*
X11925500Y-14554000D01*
X12052500Y-11163500D02*
X12077500Y-11188500D01*
X12077500Y-11163500D02*
X12052500Y-11188500D01*
X12052500Y-11290500D02*
X12077500Y-11315500D01*
X12077500Y-11290500D02*
X12052500Y-11315500D01*
X12052500Y-12751000D02*
X12077500Y-12776000D01*
X12077500Y-12751000D02*
X12052500Y-12776000D01*
X12052500Y-12878000D02*
X12077500Y-12903000D01*
X12077500Y-12878000D02*
X12052500Y-12903000D01*
X12052500Y-13005000D02*
X12077500Y-13030000D01*
X12077500Y-13005000D02*
X12052500Y-13030000D01*
X12052500Y-13513000D02*
X12077500Y-13538000D01*
X12077500Y-13513000D02*
X12052500Y-13538000D01*
X12052500Y-13640000D02*
X12077500Y-13665000D01*
X12077500Y-13640000D02*
X12052500Y-13665000D01*
X12052500Y-13767000D02*
X12077500Y-13792000D01*
X12077500Y-13767000D02*
X12052500Y-13792000D01*
X12052500Y-14402000D02*
X12077500Y-14427000D01*
X12077500Y-14402000D02*
X12052500Y-14427000D01*
X12052500Y-14529000D02*
X12077500Y-14554000D01*
X12077500Y-14529000D02*
X12052500Y-14554000D01*
X12077900Y-12027100D02*
X12102900Y-12052100D01*
X12102900Y-12027100D02*
X12077900Y-12052100D01*
X12179500Y-11163500D02*
X12204500Y-11188500D01*
X12204500Y-11163500D02*
X12179500Y-11188500D01*
X12179500Y-11290500D02*
X12204500Y-11315500D01*
X12204500Y-11290500D02*
X12179500Y-11315500D01*
X12179500Y-11798500D02*
X12204500Y-11823500D01*
X12204500Y-11798500D02*
X12179500Y-11823500D01*
X12179500Y-12751000D02*
X12204500Y-12776000D01*
X12204500Y-12751000D02*
X12179500Y-12776000D01*
X12179500Y-12878000D02*
X12204500Y-12903000D01*
X12204500Y-12878000D02*
X12179500Y-12903000D01*
X12179500Y-13005000D02*
X12204500Y-13030000D01*
X12204500Y-13005000D02*
X12179500Y-13030000D01*
X12179500Y-13513000D02*
X12204500Y-13538000D01*
X12204500Y-13513000D02*
X12179500Y-13538000D01*
X12179500Y-13640000D02*
X12204500Y-13665000D01*
X12204500Y-13640000D02*
X12179500Y-13665000D01*
X12179500Y-13767000D02*
X12204500Y-13792000D01*
X12204500Y-13767000D02*
X12179500Y-13792000D01*
X12179500Y-14402000D02*
X12204500Y-14427000D01*
X12204500Y-14402000D02*
X12179500Y-14427000D01*
X12179500Y-14529000D02*
X12204500Y-14554000D01*
X12204500Y-14529000D02*
X12179500Y-14554000D01*
X12306500Y-11163500D02*
X12331500Y-11188500D01*
X12331500Y-11163500D02*
X12306500Y-11188500D01*
X12306500Y-11290500D02*
X12331500Y-11315500D01*
X12331500Y-11290500D02*
X12306500Y-11315500D01*
X12306500Y-12751000D02*
X12331500Y-12776000D01*
X12331500Y-12751000D02*
X12306500Y-12776000D01*
X12306500Y-12878000D02*
X12331500Y-12903000D01*
X12331500Y-12878000D02*
X12306500Y-12903000D01*
X12306500Y-13005000D02*
X12331500Y-13030000D01*
X12331500Y-13005000D02*
X12306500Y-13030000D01*
X12306500Y-13513000D02*
X12331500Y-13538000D01*
X12331500Y-13513000D02*
X12306500Y-13538000D01*
X12306500Y-13640000D02*
X12331500Y-13665000D01*
X12331500Y-13640000D02*
X12306500Y-13665000D01*
X12306500Y-13767000D02*
X12331500Y-13792000D01*
X12331500Y-13767000D02*
X12306500Y-13792000D01*
X12306500Y-14402000D02*
X12331500Y-14427000D01*
X12331500Y-14402000D02*
X12306500Y-14427000D01*
X12306500Y-14529000D02*
X12331500Y-14554000D01*
X12331500Y-14529000D02*
X12306500Y-14554000D01*
X12370000Y-12052500D02*
X12395000Y-12077500D01*
X12395000Y-12052500D02*
X12370000Y-12077500D01*
X12433500Y-12878000D02*
X12458500Y-12903000D01*
X12458500Y-12878000D02*
X12433500Y-12903000D01*
X12433500Y-13005000D02*
X12458500Y-13030000D01*
X12458500Y-13005000D02*
X12433500Y-13030000D01*
X12433500Y-13513000D02*
X12458500Y-13538000D01*
X12458500Y-13513000D02*
X12433500Y-13538000D01*
X12433500Y-13640000D02*
X12458500Y-13665000D01*
X12458500Y-13640000D02*
X12433500Y-13665000D01*
X12433500Y-13767000D02*
X12458500Y-13792000D01*
X12458500Y-13767000D02*
X12433500Y-13792000D01*
X12624000Y-11544500D02*
X12649000Y-11569500D01*
X12649000Y-11544500D02*
X12624000Y-11569500D01*
X12687500Y-13132000D02*
X12712500Y-13157000D01*
X12712500Y-13132000D02*
X12687500Y-13157000D01*
X12687500Y-13259000D02*
X12712500Y-13284000D01*
X12712500Y-13259000D02*
X12687500Y-13284000D01*
X12687500Y-13386000D02*
X12712500Y-13411000D01*
X12712500Y-13386000D02*
X12687500Y-13411000D01*
X12687500Y-13513000D02*
X12712500Y-13538000D01*
X12712500Y-13513000D02*
X12687500Y-13538000D01*
X12687500Y-13640000D02*
X12712500Y-13665000D01*
X12712500Y-13640000D02*
X12687500Y-13665000D01*
X12687500Y-13767000D02*
X12712500Y-13792000D01*
X12712500Y-13767000D02*
X12687500Y-13792000D01*
X12687500Y-13894000D02*
X12712500Y-13919000D01*
X12712500Y-13894000D02*
X12687500Y-13919000D01*
X12687500Y-14021000D02*
X12712500Y-14046000D01*
X12712500Y-14021000D02*
X12687500Y-14046000D01*
X12814500Y-11735000D02*
X12839500Y-11760000D01*
X12839500Y-11735000D02*
X12814500Y-11760000D01*
X12814500Y-11862000D02*
X12839500Y-11887000D01*
X12839500Y-11862000D02*
X12814500Y-11887000D01*
X12814500Y-11989000D02*
X12839500Y-12014000D01*
X12839500Y-11989000D02*
X12814500Y-12014000D01*
X12814500Y-12116000D02*
X12839500Y-12141000D01*
X12839500Y-12116000D02*
X12814500Y-12141000D01*
X12814500Y-12243000D02*
X12839500Y-12268000D01*
X12839500Y-12243000D02*
X12814500Y-12268000D01*
X12814500Y-12370000D02*
X12839500Y-12395000D01*
X12839500Y-12370000D02*
X12814500Y-12395000D01*
X12814500Y-12497000D02*
X12839500Y-12522000D01*
X12839500Y-12497000D02*
X12814500Y-12522000D01*
X12814500Y-12624000D02*
X12839500Y-12649000D01*
X12839500Y-12624000D02*
X12814500Y-12649000D01*
X12814500Y-12751000D02*
X12839500Y-12776000D01*
X12839500Y-12751000D02*
X12814500Y-12776000D01*
X12814500Y-12878000D02*
X12839500Y-12903000D01*
X12839500Y-12878000D02*
X12814500Y-12903000D01*
X12814500Y-13005000D02*
X12839500Y-13030000D01*
X12839500Y-13005000D02*
X12814500Y-13030000D01*
X12814500Y-13132000D02*
X12839500Y-13157000D01*
X12839500Y-13132000D02*
X12814500Y-13157000D01*
X12814500Y-13259000D02*
X12839500Y-13284000D01*
X12839500Y-13259000D02*
X12814500Y-13284000D01*
X12814500Y-13386000D02*
X12839500Y-13411000D01*
X12839500Y-13386000D02*
X12814500Y-13411000D01*
X12814500Y-13513000D02*
X12839500Y-13538000D01*
X12839500Y-13513000D02*
X12814500Y-13538000D01*
X12814500Y-13640000D02*
X12839500Y-13665000D01*
X12839500Y-13640000D02*
X12814500Y-13665000D01*
X12814500Y-13767000D02*
X12839500Y-13792000D01*
X12839500Y-13767000D02*
X12814500Y-13792000D01*
X12814500Y-13894000D02*
X12839500Y-13919000D01*
X12839500Y-13894000D02*
X12814500Y-13919000D01*
X12814500Y-14021000D02*
X12839500Y-14046000D01*
X12839500Y-14021000D02*
X12814500Y-14046000D01*
X12941500Y-11735000D02*
X12966500Y-11760000D01*
X12966500Y-11735000D02*
X12941500Y-11760000D01*
X12941500Y-11862000D02*
X12966500Y-11887000D01*
X12966500Y-11862000D02*
X12941500Y-11887000D01*
X12941500Y-11989000D02*
X12966500Y-12014000D01*
X12966500Y-11989000D02*
X12941500Y-12014000D01*
X12941500Y-12116000D02*
X12966500Y-12141000D01*
X12966500Y-12116000D02*
X12941500Y-12141000D01*
X12941500Y-12243000D02*
X12966500Y-12268000D01*
X12966500Y-12243000D02*
X12941500Y-12268000D01*
X12941500Y-12370000D02*
X12966500Y-12395000D01*
X12966500Y-12370000D02*
X12941500Y-12395000D01*
X12941500Y-12497000D02*
X12966500Y-12522000D01*
X12966500Y-12497000D02*
X12941500Y-12522000D01*
X12941500Y-12624000D02*
X12966500Y-12649000D01*
X12966500Y-12624000D02*
X12941500Y-12649000D01*
X12941500Y-12751000D02*
X12966500Y-12776000D01*
X12966500Y-12751000D02*
X12941500Y-12776000D01*
X12941500Y-12878000D02*
X12966500Y-12903000D01*
X12966500Y-12878000D02*
X12941500Y-12903000D01*
X12941500Y-13005000D02*
X12966500Y-13030000D01*
X12966500Y-13005000D02*
X12941500Y-13030000D01*
X12941500Y-13132000D02*
X12966500Y-13157000D01*
X12966500Y-13132000D02*
X12941500Y-13157000D01*
X12941500Y-13259000D02*
X12966500Y-13284000D01*
X12966500Y-13259000D02*
X12941500Y-13284000D01*
X12941500Y-13386000D02*
X12966500Y-13411000D01*
X12966500Y-13386000D02*
X12941500Y-13411000D01*
X12941500Y-13513000D02*
X12966500Y-13538000D01*
X12966500Y-13513000D02*
X12941500Y-13538000D01*
X12941500Y-13640000D02*
X12966500Y-13665000D01*
X12966500Y-13640000D02*
X12941500Y-13665000D01*
X12941500Y-13767000D02*
X12966500Y-13792000D01*
X12966500Y-13767000D02*
X12941500Y-13792000D01*
X12941500Y-13894000D02*
X12966500Y-13919000D01*
X12966500Y-13894000D02*
X12941500Y-13919000D01*
X12941500Y-14021000D02*
X12966500Y-14046000D01*
X12966500Y-14021000D02*
X12941500Y-14046000D01*
X12115000Y-12382500D02*
G75*
G03*
X12115000Y-12382500I-50000J0D01*
G01*
X12369000Y-12382500D02*
G75*
G03*
X12369000Y-12382500I-50000J0D01*
G01*
X9296400Y-11619000D02*
X9296400Y-11749000D01*
X9231400Y-11684000D02*
X9361400Y-11684000D01*
X9296400Y-12127000D02*
X9296400Y-12257000D01*
X9231400Y-12192000D02*
X9361400Y-12192000D01*
X9296400Y-12635000D02*
X9296400Y-12765000D01*
X9231400Y-12700000D02*
X9361400Y-12700000D01*
X9525000Y-13968500D02*
X9525000Y-14098500D01*
X9460000Y-14033500D02*
X9590000Y-14033500D01*
X10033000Y-13968500D02*
X10033000Y-14098500D01*
X9968000Y-14033500D02*
X10098000Y-14033500D01*
X10452100Y-11619000D02*
X10452100Y-11749000D01*
X10387100Y-11684000D02*
X10517100Y-11684000D01*
X10452100Y-12127000D02*
X10452100Y-12257000D01*
X10387100Y-12192000D02*
X10517100Y-12192000D01*
X10452100Y-12635000D02*
X10452100Y-12765000D01*
X10387100Y-12700000D02*
X10517100Y-12700000D01*
X10541000Y-13968500D02*
X10541000Y-14098500D01*
X10476000Y-14033500D02*
X10606000Y-14033500D01*
X11176000Y-13968500D02*
X11176000Y-14098500D01*
X11111000Y-14033500D02*
X11241000Y-14033500D01*
X11684000Y-13968500D02*
X11684000Y-14098500D01*
X11619000Y-14033500D02*
X11749000Y-14033500D01*
X12192000Y-13968500D02*
X12192000Y-14098500D01*
X12127000Y-14033500D02*
X12257000Y-14033500D01*
D12*
X8475428Y-15200214D02*
X8475428Y-14900214D01*
X8546857Y-14900214D01*
X8589714Y-14914500D01*
X8618286Y-14943071D01*
X8632571Y-14971643D01*
X8646857Y-15028786D01*
X8646857Y-15071643D01*
X8632571Y-15128786D01*
X8618286Y-15157357D01*
X8589714Y-15185929D01*
X8546857Y-15200214D01*
X8475428Y-15200214D01*
X8775428Y-15200214D02*
X8775428Y-15000214D01*
X8775428Y-15057357D02*
X8789714Y-15028786D01*
X8804000Y-15014500D01*
X8832571Y-15000214D01*
X8861143Y-15000214D01*
X8961143Y-15200214D02*
X8961143Y-15000214D01*
X8961143Y-14900214D02*
X8946857Y-14914500D01*
X8961143Y-14928786D01*
X8975428Y-14914500D01*
X8961143Y-14900214D01*
X8961143Y-14928786D01*
X9146857Y-15200214D02*
X9118286Y-15185929D01*
X9104000Y-15157357D01*
X9104000Y-14900214D01*
X9304000Y-15200214D02*
X9275428Y-15185929D01*
X9261143Y-15157357D01*
X9261143Y-14900214D01*
X9646857Y-15200214D02*
X9646857Y-14900214D01*
X9746857Y-15114500D01*
X9846857Y-14900214D01*
X9846857Y-15200214D01*
X10118286Y-15200214D02*
X10118286Y-15043071D01*
X10104000Y-15014500D01*
X10075428Y-15000214D01*
X10018286Y-15000214D01*
X9989714Y-15014500D01*
X10118286Y-15185929D02*
X10089714Y-15200214D01*
X10018286Y-15200214D01*
X9989714Y-15185929D01*
X9975428Y-15157357D01*
X9975428Y-15128786D01*
X9989714Y-15100214D01*
X10018286Y-15085929D01*
X10089714Y-15085929D01*
X10118286Y-15071643D01*
X10261143Y-15000214D02*
X10261143Y-15300214D01*
X10261143Y-15014500D02*
X10289714Y-15000214D01*
X10346857Y-15000214D01*
X10375428Y-15014500D01*
X10389714Y-15028786D01*
X10404000Y-15057357D01*
X10404000Y-15143071D01*
X10389714Y-15171643D01*
X10375428Y-15185929D01*
X10346857Y-15200214D01*
X10289714Y-15200214D01*
X10261143Y-15185929D01*
X10532571Y-15171643D02*
X10546857Y-15185929D01*
X10532571Y-15200214D01*
X10518286Y-15185929D01*
X10532571Y-15171643D01*
X10532571Y-15200214D01*
X10532571Y-15014500D02*
X10546857Y-15028786D01*
X10532571Y-15043071D01*
X10518286Y-15028786D01*
X10532571Y-15014500D01*
X10532571Y-15043071D01*
X8164000Y-15682000D02*
X8189000Y-15707000D01*
X8189000Y-15682000D02*
X8164000Y-15707000D01*
X8532571Y-15530214D02*
X8561143Y-15530214D01*
X8589714Y-15544500D01*
X8604000Y-15558786D01*
X8618286Y-15587357D01*
X8632571Y-15644500D01*
X8632571Y-15715929D01*
X8618286Y-15773071D01*
X8604000Y-15801643D01*
X8589714Y-15815929D01*
X8561143Y-15830214D01*
X8532571Y-15830214D01*
X8504000Y-15815929D01*
X8489714Y-15801643D01*
X8475428Y-15773071D01*
X8461143Y-15715929D01*
X8461143Y-15644500D01*
X8475428Y-15587357D01*
X8489714Y-15558786D01*
X8504000Y-15544500D01*
X8532571Y-15530214D01*
X8761143Y-15801643D02*
X8775428Y-15815929D01*
X8761143Y-15830214D01*
X8746857Y-15815929D01*
X8761143Y-15801643D01*
X8761143Y-15830214D01*
X8889714Y-15558786D02*
X8904000Y-15544500D01*
X8932571Y-15530214D01*
X9004000Y-15530214D01*
X9032571Y-15544500D01*
X9046857Y-15558786D01*
X9061143Y-15587357D01*
X9061143Y-15615929D01*
X9046857Y-15658786D01*
X8875428Y-15830214D01*
X9061143Y-15830214D01*
X9332571Y-15530214D02*
X9189714Y-15530214D01*
X9175428Y-15673071D01*
X9189714Y-15658786D01*
X9218286Y-15644500D01*
X9289714Y-15644500D01*
X9318286Y-15658786D01*
X9332571Y-15673071D01*
X9346857Y-15701643D01*
X9346857Y-15773071D01*
X9332571Y-15801643D01*
X9318286Y-15815929D01*
X9289714Y-15830214D01*
X9218286Y-15830214D01*
X9189714Y-15815929D01*
X9175428Y-15801643D01*
X9532571Y-15530214D02*
X9561143Y-15530214D01*
X9589714Y-15544500D01*
X9604000Y-15558786D01*
X9618286Y-15587357D01*
X9632571Y-15644500D01*
X9632571Y-15715929D01*
X9618286Y-15773071D01*
X9604000Y-15801643D01*
X9589714Y-15815929D01*
X9561143Y-15830214D01*
X9532571Y-15830214D01*
X9504000Y-15815929D01*
X9489714Y-15801643D01*
X9475428Y-15773071D01*
X9461143Y-15715929D01*
X9461143Y-15644500D01*
X9475428Y-15587357D01*
X9489714Y-15558786D01*
X9504000Y-15544500D01*
X9532571Y-15530214D01*
X9761143Y-15830214D02*
X9761143Y-15630214D01*
X9761143Y-15658786D02*
X9775428Y-15644500D01*
X9804000Y-15630214D01*
X9846857Y-15630214D01*
X9875428Y-15644500D01*
X9889714Y-15673071D01*
X9889714Y-15830214D01*
X9889714Y-15673071D02*
X9904000Y-15644500D01*
X9932571Y-15630214D01*
X9975428Y-15630214D01*
X10004000Y-15644500D01*
X10018286Y-15673071D01*
X10018286Y-15830214D01*
X10161143Y-15830214D02*
X10161143Y-15630214D01*
X10161143Y-15658786D02*
X10175428Y-15644500D01*
X10204000Y-15630214D01*
X10246857Y-15630214D01*
X10275428Y-15644500D01*
X10289714Y-15673071D01*
X10289714Y-15830214D01*
X10289714Y-15673071D02*
X10304000Y-15644500D01*
X10332571Y-15630214D01*
X10375428Y-15630214D01*
X10404000Y-15644500D01*
X10418286Y-15673071D01*
X10418286Y-15830214D01*
X11004000Y-15515929D02*
X10746857Y-15901643D01*
X11389714Y-15530214D02*
X11418286Y-15530214D01*
X11446857Y-15544500D01*
X11461143Y-15558786D01*
X11475428Y-15587357D01*
X11489714Y-15644500D01*
X11489714Y-15715929D01*
X11475428Y-15773071D01*
X11461143Y-15801643D01*
X11446857Y-15815929D01*
X11418286Y-15830214D01*
X11389714Y-15830214D01*
X11361143Y-15815929D01*
X11346857Y-15801643D01*
X11332571Y-15773071D01*
X11318286Y-15715929D01*
X11318286Y-15644500D01*
X11332571Y-15587357D01*
X11346857Y-15558786D01*
X11361143Y-15544500D01*
X11389714Y-15530214D01*
X11618286Y-15801643D02*
X11632571Y-15815929D01*
X11618286Y-15830214D01*
X11604000Y-15815929D01*
X11618286Y-15801643D01*
X11618286Y-15830214D01*
X11818286Y-15530214D02*
X11846857Y-15530214D01*
X11875428Y-15544500D01*
X11889714Y-15558786D01*
X11904000Y-15587357D01*
X11918286Y-15644500D01*
X11918286Y-15715929D01*
X11904000Y-15773071D01*
X11889714Y-15801643D01*
X11875428Y-15815929D01*
X11846857Y-15830214D01*
X11818286Y-15830214D01*
X11789714Y-15815929D01*
X11775428Y-15801643D01*
X11761143Y-15773071D01*
X11746857Y-15715929D01*
X11746857Y-15644500D01*
X11761143Y-15587357D01*
X11775428Y-15558786D01*
X11789714Y-15544500D01*
X11818286Y-15530214D01*
X12104000Y-15530214D02*
X12132571Y-15530214D01*
X12161143Y-15544500D01*
X12175428Y-15558786D01*
X12189714Y-15587357D01*
X12204000Y-15644500D01*
X12204000Y-15715929D01*
X12189714Y-15773071D01*
X12175428Y-15801643D01*
X12161143Y-15815929D01*
X12132571Y-15830214D01*
X12104000Y-15830214D01*
X12075428Y-15815929D01*
X12061143Y-15801643D01*
X12046857Y-15773071D01*
X12032571Y-15715929D01*
X12032571Y-15644500D01*
X12046857Y-15587357D01*
X12061143Y-15558786D01*
X12075428Y-15544500D01*
X12104000Y-15530214D01*
X12346857Y-15830214D02*
X12404000Y-15830214D01*
X12432571Y-15815929D01*
X12446857Y-15801643D01*
X12475428Y-15758786D01*
X12489714Y-15701643D01*
X12489714Y-15587357D01*
X12475428Y-15558786D01*
X12461143Y-15544500D01*
X12432571Y-15530214D01*
X12375428Y-15530214D01*
X12346857Y-15544500D01*
X12332571Y-15558786D01*
X12318286Y-15587357D01*
X12318286Y-15658786D01*
X12332571Y-15687357D01*
X12346857Y-15701643D01*
X12375428Y-15715929D01*
X12432571Y-15715929D01*
X12461143Y-15701643D01*
X12475428Y-15687357D01*
X12489714Y-15658786D01*
X12661143Y-15658786D02*
X12632571Y-15644500D01*
X12618286Y-15630214D01*
X12604000Y-15601643D01*
X12604000Y-15587357D01*
X12618286Y-15558786D01*
X12632571Y-15544500D01*
X12661143Y-15530214D01*
X12718286Y-15530214D01*
X12746857Y-15544500D01*
X12761143Y-15558786D01*
X12775428Y-15587357D01*
X12775428Y-15601643D01*
X12761143Y-15630214D01*
X12746857Y-15644500D01*
X12718286Y-15658786D01*
X12661143Y-15658786D01*
X12632571Y-15673071D01*
X12618286Y-15687357D01*
X12604000Y-15715929D01*
X12604000Y-15773071D01*
X12618286Y-15801643D01*
X12632571Y-15815929D01*
X12661143Y-15830214D01*
X12718286Y-15830214D01*
X12746857Y-15815929D01*
X12761143Y-15801643D01*
X12775428Y-15773071D01*
X12775428Y-15715929D01*
X12761143Y-15687357D01*
X12746857Y-15673071D01*
X12718286Y-15658786D01*
X12889714Y-15530214D02*
X12889714Y-15587357D01*
X13004000Y-15530214D02*
X13004000Y-15587357D01*
X13446857Y-15944500D02*
X13432571Y-15930214D01*
X13404000Y-15887357D01*
X13389714Y-15858786D01*
X13375428Y-15815929D01*
X13361143Y-15744500D01*
X13361143Y-15687357D01*
X13375428Y-15615929D01*
X13389714Y-15573071D01*
X13404000Y-15544500D01*
X13432571Y-15501643D01*
X13446857Y-15487357D01*
X13532571Y-15530214D02*
X13718286Y-15530214D01*
X13618286Y-15644500D01*
X13661143Y-15644500D01*
X13689714Y-15658786D01*
X13704000Y-15673071D01*
X13718286Y-15701643D01*
X13718286Y-15773071D01*
X13704000Y-15801643D01*
X13689714Y-15815929D01*
X13661143Y-15830214D01*
X13575428Y-15830214D01*
X13546857Y-15815929D01*
X13532571Y-15801643D01*
X13989714Y-15530214D02*
X13846857Y-15530214D01*
X13832571Y-15673071D01*
X13846857Y-15658786D01*
X13875428Y-15644500D01*
X13946857Y-15644500D01*
X13975428Y-15658786D01*
X13989714Y-15673071D01*
X14004000Y-15701643D01*
X14004000Y-15773071D01*
X13989714Y-15801643D01*
X13975428Y-15815929D01*
X13946857Y-15830214D01*
X13875428Y-15830214D01*
X13846857Y-15815929D01*
X13832571Y-15801643D01*
X14118286Y-15558786D02*
X14132571Y-15544500D01*
X14161143Y-15530214D01*
X14232571Y-15530214D01*
X14261143Y-15544500D01*
X14275428Y-15558786D01*
X14289714Y-15587357D01*
X14289714Y-15615929D01*
X14275428Y-15658786D01*
X14104000Y-15830214D01*
X14289714Y-15830214D01*
X14646857Y-15830214D02*
X14646857Y-15530214D01*
X14775428Y-15830214D02*
X14775428Y-15673071D01*
X14761143Y-15644500D01*
X14732571Y-15630214D01*
X14689714Y-15630214D01*
X14661143Y-15644500D01*
X14646857Y-15658786D01*
X14961143Y-15830214D02*
X14932571Y-15815929D01*
X14918286Y-15801643D01*
X14904000Y-15773071D01*
X14904000Y-15687357D01*
X14918286Y-15658786D01*
X14932571Y-15644500D01*
X14961143Y-15630214D01*
X15004000Y-15630214D01*
X15032571Y-15644500D01*
X15046857Y-15658786D01*
X15061143Y-15687357D01*
X15061143Y-15773071D01*
X15046857Y-15801643D01*
X15032571Y-15815929D01*
X15004000Y-15830214D01*
X14961143Y-15830214D01*
X15232571Y-15830214D02*
X15204000Y-15815929D01*
X15189714Y-15787357D01*
X15189714Y-15530214D01*
X15461143Y-15815929D02*
X15432571Y-15830214D01*
X15375428Y-15830214D01*
X15346857Y-15815929D01*
X15332571Y-15787357D01*
X15332571Y-15673071D01*
X15346857Y-15644500D01*
X15375428Y-15630214D01*
X15432571Y-15630214D01*
X15461143Y-15644500D01*
X15475428Y-15673071D01*
X15475428Y-15701643D01*
X15332571Y-15730214D01*
X15589714Y-15815929D02*
X15618286Y-15830214D01*
X15675428Y-15830214D01*
X15704000Y-15815929D01*
X15718286Y-15787357D01*
X15718286Y-15773071D01*
X15704000Y-15744500D01*
X15675428Y-15730214D01*
X15632571Y-15730214D01*
X15604000Y-15715929D01*
X15589714Y-15687357D01*
X15589714Y-15673071D01*
X15604000Y-15644500D01*
X15632571Y-15630214D01*
X15675428Y-15630214D01*
X15704000Y-15644500D01*
X15818286Y-15944500D02*
X15832571Y-15930214D01*
X15861143Y-15887357D01*
X15875428Y-15858786D01*
X15889714Y-15815929D01*
X15904000Y-15744500D01*
X15904000Y-15687357D01*
X15889714Y-15615929D01*
X15875428Y-15573071D01*
X15861143Y-15544500D01*
X15832571Y-15501643D01*
X15818286Y-15487357D01*
X8189000Y-16090500D02*
G75*
G03*
X8189000Y-16090500I-50000J0D01*
G01*
X8632571Y-16226214D02*
X8461143Y-16226214D01*
X8546857Y-16226214D02*
X8546857Y-15926214D01*
X8518286Y-15969071D01*
X8489714Y-15997643D01*
X8461143Y-16011929D01*
X8761143Y-16197643D02*
X8775428Y-16211929D01*
X8761143Y-16226214D01*
X8746857Y-16211929D01*
X8761143Y-16197643D01*
X8761143Y-16226214D01*
X8961143Y-15926214D02*
X8989714Y-15926214D01*
X9018286Y-15940500D01*
X9032571Y-15954786D01*
X9046857Y-15983357D01*
X9061143Y-16040500D01*
X9061143Y-16111929D01*
X9046857Y-16169071D01*
X9032571Y-16197643D01*
X9018286Y-16211929D01*
X8989714Y-16226214D01*
X8961143Y-16226214D01*
X8932571Y-16211929D01*
X8918286Y-16197643D01*
X8904000Y-16169071D01*
X8889714Y-16111929D01*
X8889714Y-16040500D01*
X8904000Y-15983357D01*
X8918286Y-15954786D01*
X8932571Y-15940500D01*
X8961143Y-15926214D01*
X9246857Y-15926214D02*
X9275428Y-15926214D01*
X9304000Y-15940500D01*
X9318286Y-15954786D01*
X9332571Y-15983357D01*
X9346857Y-16040500D01*
X9346857Y-16111929D01*
X9332571Y-16169071D01*
X9318286Y-16197643D01*
X9304000Y-16211929D01*
X9275428Y-16226214D01*
X9246857Y-16226214D01*
X9218286Y-16211929D01*
X9204000Y-16197643D01*
X9189714Y-16169071D01*
X9175428Y-16111929D01*
X9175428Y-16040500D01*
X9189714Y-15983357D01*
X9204000Y-15954786D01*
X9218286Y-15940500D01*
X9246857Y-15926214D01*
X9532571Y-15926214D02*
X9561143Y-15926214D01*
X9589714Y-15940500D01*
X9604000Y-15954786D01*
X9618286Y-15983357D01*
X9632571Y-16040500D01*
X9632571Y-16111929D01*
X9618286Y-16169071D01*
X9604000Y-16197643D01*
X9589714Y-16211929D01*
X9561143Y-16226214D01*
X9532571Y-16226214D01*
X9504000Y-16211929D01*
X9489714Y-16197643D01*
X9475428Y-16169071D01*
X9461143Y-16111929D01*
X9461143Y-16040500D01*
X9475428Y-15983357D01*
X9489714Y-15954786D01*
X9504000Y-15940500D01*
X9532571Y-15926214D01*
X9761143Y-16226214D02*
X9761143Y-16026214D01*
X9761143Y-16054786D02*
X9775428Y-16040500D01*
X9804000Y-16026214D01*
X9846857Y-16026214D01*
X9875428Y-16040500D01*
X9889714Y-16069071D01*
X9889714Y-16226214D01*
X9889714Y-16069071D02*
X9904000Y-16040500D01*
X9932571Y-16026214D01*
X9975428Y-16026214D01*
X10004000Y-16040500D01*
X10018286Y-16069071D01*
X10018286Y-16226214D01*
X10161143Y-16226214D02*
X10161143Y-16026214D01*
X10161143Y-16054786D02*
X10175428Y-16040500D01*
X10204000Y-16026214D01*
X10246857Y-16026214D01*
X10275428Y-16040500D01*
X10289714Y-16069071D01*
X10289714Y-16226214D01*
X10289714Y-16069071D02*
X10304000Y-16040500D01*
X10332571Y-16026214D01*
X10375428Y-16026214D01*
X10404000Y-16040500D01*
X10418286Y-16069071D01*
X10418286Y-16226214D01*
X11004000Y-15911929D02*
X10746857Y-16297643D01*
X11389714Y-15926214D02*
X11418286Y-15926214D01*
X11446857Y-15940500D01*
X11461143Y-15954786D01*
X11475428Y-15983357D01*
X11489714Y-16040500D01*
X11489714Y-16111929D01*
X11475428Y-16169071D01*
X11461143Y-16197643D01*
X11446857Y-16211929D01*
X11418286Y-16226214D01*
X11389714Y-16226214D01*
X11361143Y-16211929D01*
X11346857Y-16197643D01*
X11332571Y-16169071D01*
X11318286Y-16111929D01*
X11318286Y-16040500D01*
X11332571Y-15983357D01*
X11346857Y-15954786D01*
X11361143Y-15940500D01*
X11389714Y-15926214D01*
X11618286Y-16197643D02*
X11632571Y-16211929D01*
X11618286Y-16226214D01*
X11604000Y-16211929D01*
X11618286Y-16197643D01*
X11618286Y-16226214D01*
X11818286Y-15926214D02*
X11846857Y-15926214D01*
X11875428Y-15940500D01*
X11889714Y-15954786D01*
X11904000Y-15983357D01*
X11918286Y-16040500D01*
X11918286Y-16111929D01*
X11904000Y-16169071D01*
X11889714Y-16197643D01*
X11875428Y-16211929D01*
X11846857Y-16226214D01*
X11818286Y-16226214D01*
X11789714Y-16211929D01*
X11775428Y-16197643D01*
X11761143Y-16169071D01*
X11746857Y-16111929D01*
X11746857Y-16040500D01*
X11761143Y-15983357D01*
X11775428Y-15954786D01*
X11789714Y-15940500D01*
X11818286Y-15926214D01*
X12018286Y-15926214D02*
X12204000Y-15926214D01*
X12104000Y-16040500D01*
X12146857Y-16040500D01*
X12175428Y-16054786D01*
X12189714Y-16069071D01*
X12204000Y-16097643D01*
X12204000Y-16169071D01*
X12189714Y-16197643D01*
X12175428Y-16211929D01*
X12146857Y-16226214D01*
X12061143Y-16226214D01*
X12032571Y-16211929D01*
X12018286Y-16197643D01*
X12346857Y-16226214D02*
X12404000Y-16226214D01*
X12432571Y-16211929D01*
X12446857Y-16197643D01*
X12475428Y-16154786D01*
X12489714Y-16097643D01*
X12489714Y-15983357D01*
X12475428Y-15954786D01*
X12461143Y-15940500D01*
X12432571Y-15926214D01*
X12375428Y-15926214D01*
X12346857Y-15940500D01*
X12332571Y-15954786D01*
X12318286Y-15983357D01*
X12318286Y-16054786D01*
X12332571Y-16083357D01*
X12346857Y-16097643D01*
X12375428Y-16111929D01*
X12432571Y-16111929D01*
X12461143Y-16097643D01*
X12475428Y-16083357D01*
X12489714Y-16054786D01*
X12746857Y-16026214D02*
X12746857Y-16226214D01*
X12675428Y-15911929D02*
X12604000Y-16126214D01*
X12789714Y-16126214D01*
X12889714Y-15926214D02*
X12889714Y-15983357D01*
X13004000Y-15926214D02*
X13004000Y-15983357D01*
X13446857Y-16340500D02*
X13432571Y-16326214D01*
X13404000Y-16283357D01*
X13389714Y-16254786D01*
X13375428Y-16211929D01*
X13361143Y-16140500D01*
X13361143Y-16083357D01*
X13375428Y-16011929D01*
X13389714Y-15969071D01*
X13404000Y-15940500D01*
X13432571Y-15897643D01*
X13446857Y-15883357D01*
X13546857Y-15954786D02*
X13561143Y-15940500D01*
X13589714Y-15926214D01*
X13661143Y-15926214D01*
X13689714Y-15940500D01*
X13704000Y-15954786D01*
X13718286Y-15983357D01*
X13718286Y-16011929D01*
X13704000Y-16054786D01*
X13532571Y-16226214D01*
X13718286Y-16226214D01*
X14075428Y-16226214D02*
X14075428Y-15926214D01*
X14204000Y-16226214D02*
X14204000Y-16069071D01*
X14189714Y-16040500D01*
X14161143Y-16026214D01*
X14118286Y-16026214D01*
X14089714Y-16040500D01*
X14075428Y-16054786D01*
X14389714Y-16226214D02*
X14361143Y-16211929D01*
X14346857Y-16197643D01*
X14332571Y-16169071D01*
X14332571Y-16083357D01*
X14346857Y-16054786D01*
X14361143Y-16040500D01*
X14389714Y-16026214D01*
X14432571Y-16026214D01*
X14461143Y-16040500D01*
X14475428Y-16054786D01*
X14489714Y-16083357D01*
X14489714Y-16169071D01*
X14475428Y-16197643D01*
X14461143Y-16211929D01*
X14432571Y-16226214D01*
X14389714Y-16226214D01*
X14661143Y-16226214D02*
X14632571Y-16211929D01*
X14618286Y-16183357D01*
X14618286Y-15926214D01*
X14889714Y-16211929D02*
X14861143Y-16226214D01*
X14804000Y-16226214D01*
X14775428Y-16211929D01*
X14761143Y-16183357D01*
X14761143Y-16069071D01*
X14775428Y-16040500D01*
X14804000Y-16026214D01*
X14861143Y-16026214D01*
X14889714Y-16040500D01*
X14904000Y-16069071D01*
X14904000Y-16097643D01*
X14761143Y-16126214D01*
X15018286Y-16211929D02*
X15046857Y-16226214D01*
X15104000Y-16226214D01*
X15132571Y-16211929D01*
X15146857Y-16183357D01*
X15146857Y-16169071D01*
X15132571Y-16140500D01*
X15104000Y-16126214D01*
X15061143Y-16126214D01*
X15032571Y-16111929D01*
X15018286Y-16083357D01*
X15018286Y-16069071D01*
X15032571Y-16040500D01*
X15061143Y-16026214D01*
X15104000Y-16026214D01*
X15132571Y-16040500D01*
X15246857Y-16340500D02*
X15261143Y-16326214D01*
X15289714Y-16283357D01*
X15304000Y-16254786D01*
X15318286Y-16211929D01*
X15332571Y-16140500D01*
X15332571Y-16083357D01*
X15318286Y-16011929D01*
X15304000Y-15969071D01*
X15289714Y-15940500D01*
X15261143Y-15897643D01*
X15246857Y-15883357D01*
X8124000Y-16421500D02*
X8124000Y-16551500D01*
X8059000Y-16486500D02*
X8189000Y-16486500D01*
X8632571Y-16622214D02*
X8461143Y-16622214D01*
X8546857Y-16622214D02*
X8546857Y-16322214D01*
X8518286Y-16365071D01*
X8489714Y-16393643D01*
X8461143Y-16407929D01*
X8761143Y-16593643D02*
X8775428Y-16607929D01*
X8761143Y-16622214D01*
X8746857Y-16607929D01*
X8761143Y-16593643D01*
X8761143Y-16622214D01*
X8875428Y-16322214D02*
X9061143Y-16322214D01*
X8961143Y-16436500D01*
X9004000Y-16436500D01*
X9032571Y-16450786D01*
X9046857Y-16465071D01*
X9061143Y-16493643D01*
X9061143Y-16565071D01*
X9046857Y-16593643D01*
X9032571Y-16607929D01*
X9004000Y-16622214D01*
X8918286Y-16622214D01*
X8889714Y-16607929D01*
X8875428Y-16593643D01*
X9246857Y-16322214D02*
X9275428Y-16322214D01*
X9304000Y-16336500D01*
X9318286Y-16350786D01*
X9332571Y-16379357D01*
X9346857Y-16436500D01*
X9346857Y-16507929D01*
X9332571Y-16565071D01*
X9318286Y-16593643D01*
X9304000Y-16607929D01*
X9275428Y-16622214D01*
X9246857Y-16622214D01*
X9218286Y-16607929D01*
X9204000Y-16593643D01*
X9189714Y-16565071D01*
X9175428Y-16507929D01*
X9175428Y-16436500D01*
X9189714Y-16379357D01*
X9204000Y-16350786D01*
X9218286Y-16336500D01*
X9246857Y-16322214D01*
X9532571Y-16322214D02*
X9561143Y-16322214D01*
X9589714Y-16336500D01*
X9604000Y-16350786D01*
X9618286Y-16379357D01*
X9632571Y-16436500D01*
X9632571Y-16507929D01*
X9618286Y-16565071D01*
X9604000Y-16593643D01*
X9589714Y-16607929D01*
X9561143Y-16622214D01*
X9532571Y-16622214D01*
X9504000Y-16607929D01*
X9489714Y-16593643D01*
X9475428Y-16565071D01*
X9461143Y-16507929D01*
X9461143Y-16436500D01*
X9475428Y-16379357D01*
X9489714Y-16350786D01*
X9504000Y-16336500D01*
X9532571Y-16322214D01*
X9761143Y-16622214D02*
X9761143Y-16422214D01*
X9761143Y-16450786D02*
X9775428Y-16436500D01*
X9804000Y-16422214D01*
X9846857Y-16422214D01*
X9875428Y-16436500D01*
X9889714Y-16465071D01*
X9889714Y-16622214D01*
X9889714Y-16465071D02*
X9904000Y-16436500D01*
X9932571Y-16422214D01*
X9975428Y-16422214D01*
X10004000Y-16436500D01*
X10018286Y-16465071D01*
X10018286Y-16622214D01*
X10161143Y-16622214D02*
X10161143Y-16422214D01*
X10161143Y-16450786D02*
X10175428Y-16436500D01*
X10204000Y-16422214D01*
X10246857Y-16422214D01*
X10275428Y-16436500D01*
X10289714Y-16465071D01*
X10289714Y-16622214D01*
X10289714Y-16465071D02*
X10304000Y-16436500D01*
X10332571Y-16422214D01*
X10375428Y-16422214D01*
X10404000Y-16436500D01*
X10418286Y-16465071D01*
X10418286Y-16622214D01*
X11004000Y-16307929D02*
X10746857Y-16693643D01*
X11389714Y-16322214D02*
X11418286Y-16322214D01*
X11446857Y-16336500D01*
X11461143Y-16350786D01*
X11475428Y-16379357D01*
X11489714Y-16436500D01*
X11489714Y-16507929D01*
X11475428Y-16565071D01*
X11461143Y-16593643D01*
X11446857Y-16607929D01*
X11418286Y-16622214D01*
X11389714Y-16622214D01*
X11361143Y-16607929D01*
X11346857Y-16593643D01*
X11332571Y-16565071D01*
X11318286Y-16507929D01*
X11318286Y-16436500D01*
X11332571Y-16379357D01*
X11346857Y-16350786D01*
X11361143Y-16336500D01*
X11389714Y-16322214D01*
X11618286Y-16593643D02*
X11632571Y-16607929D01*
X11618286Y-16622214D01*
X11604000Y-16607929D01*
X11618286Y-16593643D01*
X11618286Y-16622214D01*
X11818286Y-16322214D02*
X11846857Y-16322214D01*
X11875428Y-16336500D01*
X11889714Y-16350786D01*
X11904000Y-16379357D01*
X11918286Y-16436500D01*
X11918286Y-16507929D01*
X11904000Y-16565071D01*
X11889714Y-16593643D01*
X11875428Y-16607929D01*
X11846857Y-16622214D01*
X11818286Y-16622214D01*
X11789714Y-16607929D01*
X11775428Y-16593643D01*
X11761143Y-16565071D01*
X11746857Y-16507929D01*
X11746857Y-16436500D01*
X11761143Y-16379357D01*
X11775428Y-16350786D01*
X11789714Y-16336500D01*
X11818286Y-16322214D01*
X12189714Y-16322214D02*
X12046857Y-16322214D01*
X12032571Y-16465071D01*
X12046857Y-16450786D01*
X12075428Y-16436500D01*
X12146857Y-16436500D01*
X12175428Y-16450786D01*
X12189714Y-16465071D01*
X12204000Y-16493643D01*
X12204000Y-16565071D01*
X12189714Y-16593643D01*
X12175428Y-16607929D01*
X12146857Y-16622214D01*
X12075428Y-16622214D01*
X12046857Y-16607929D01*
X12032571Y-16593643D01*
X12489714Y-16622214D02*
X12318286Y-16622214D01*
X12404000Y-16622214D02*
X12404000Y-16322214D01*
X12375428Y-16365071D01*
X12346857Y-16393643D01*
X12318286Y-16407929D01*
X12604000Y-16350786D02*
X12618286Y-16336500D01*
X12646857Y-16322214D01*
X12718286Y-16322214D01*
X12746857Y-16336500D01*
X12761143Y-16350786D01*
X12775428Y-16379357D01*
X12775428Y-16407929D01*
X12761143Y-16450786D01*
X12589714Y-16622214D01*
X12775428Y-16622214D01*
X12889714Y-16322214D02*
X12889714Y-16379357D01*
X13004000Y-16322214D02*
X13004000Y-16379357D01*
X13446857Y-16736500D02*
X13432571Y-16722214D01*
X13404000Y-16679357D01*
X13389714Y-16650786D01*
X13375428Y-16607929D01*
X13361143Y-16536500D01*
X13361143Y-16479357D01*
X13375428Y-16407929D01*
X13389714Y-16365071D01*
X13404000Y-16336500D01*
X13432571Y-16293643D01*
X13446857Y-16279357D01*
X13718286Y-16622214D02*
X13546857Y-16622214D01*
X13632571Y-16622214D02*
X13632571Y-16322214D01*
X13604000Y-16365071D01*
X13575428Y-16393643D01*
X13546857Y-16407929D01*
X13832571Y-16350786D02*
X13846857Y-16336500D01*
X13875428Y-16322214D01*
X13946857Y-16322214D01*
X13975428Y-16336500D01*
X13989714Y-16350786D01*
X14004000Y-16379357D01*
X14004000Y-16407929D01*
X13989714Y-16450786D01*
X13818286Y-16622214D01*
X14004000Y-16622214D01*
X14361143Y-16622214D02*
X14361143Y-16322214D01*
X14489714Y-16622214D02*
X14489714Y-16465071D01*
X14475428Y-16436500D01*
X14446857Y-16422214D01*
X14404000Y-16422214D01*
X14375428Y-16436500D01*
X14361143Y-16450786D01*
X14675428Y-16622214D02*
X14646857Y-16607929D01*
X14632571Y-16593643D01*
X14618286Y-16565071D01*
X14618286Y-16479357D01*
X14632571Y-16450786D01*
X14646857Y-16436500D01*
X14675428Y-16422214D01*
X14718286Y-16422214D01*
X14746857Y-16436500D01*
X14761143Y-16450786D01*
X14775428Y-16479357D01*
X14775428Y-16565071D01*
X14761143Y-16593643D01*
X14746857Y-16607929D01*
X14718286Y-16622214D01*
X14675428Y-16622214D01*
X14946857Y-16622214D02*
X14918286Y-16607929D01*
X14904000Y-16579357D01*
X14904000Y-16322214D01*
X15175428Y-16607929D02*
X15146857Y-16622214D01*
X15089714Y-16622214D01*
X15061143Y-16607929D01*
X15046857Y-16579357D01*
X15046857Y-16465071D01*
X15061143Y-16436500D01*
X15089714Y-16422214D01*
X15146857Y-16422214D01*
X15175428Y-16436500D01*
X15189714Y-16465071D01*
X15189714Y-16493643D01*
X15046857Y-16522214D01*
X15304000Y-16607929D02*
X15332571Y-16622214D01*
X15389714Y-16622214D01*
X15418286Y-16607929D01*
X15432571Y-16579357D01*
X15432571Y-16565071D01*
X15418286Y-16536500D01*
X15389714Y-16522214D01*
X15346857Y-16522214D01*
X15318286Y-16507929D01*
X15304000Y-16479357D01*
X15304000Y-16465071D01*
X15318286Y-16436500D01*
X15346857Y-16422214D01*
X15389714Y-16422214D01*
X15418286Y-16436500D01*
X15532571Y-16736500D02*
X15546857Y-16722214D01*
X15575428Y-16679357D01*
X15589714Y-16650786D01*
X15604000Y-16607929D01*
X15618286Y-16536500D01*
X15618286Y-16479357D01*
X15604000Y-16407929D01*
X15589714Y-16365071D01*
X15575428Y-16336500D01*
X15546857Y-16293643D01*
X15532571Y-16279357D01*
M02*
