%TF.GenerationSoftware,KiCad,Pcbnew,5.1.10*%
%TF.CreationDate,2021-12-19T01:12:45+02:00*%
%TF.ProjectId,pwm-controller,70776d2d-636f-46e7-9472-6f6c6c65722e,rev?*%
%TF.SameCoordinates,Original*%
%TF.FileFunction,Soldermask,Bot*%
%TF.FilePolarity,Negative*%
%FSLAX46Y46*%
G04 Gerber Fmt 4.6, Leading zero omitted, Abs format (unit mm)*
G04 Created by KiCad (PCBNEW 5.1.10) date 2021-12-19 01:12:45*
%MOMM*%
%LPD*%
G01*
G04 APERTURE LIST*
%ADD10C,1.524000*%
%ADD11C,1.800000*%
%ADD12C,2.000000*%
%ADD13C,2.200000*%
%ADD14O,1.700000X1.700000*%
%ADD15R,1.700000X1.700000*%
%ADD16C,1.310000*%
G04 APERTURE END LIST*
D10*
%TO.C,SW1*%
X115100000Y-111846000D03*
X126600000Y-111146000D03*
D11*
X126200000Y-103546000D03*
X115100000Y-103546000D03*
X120650000Y-100846000D03*
G36*
G01*
X112675000Y-108446000D02*
X112675000Y-107046000D01*
G75*
G02*
X113375000Y-106346000I700000J0D01*
G01*
X114975000Y-106346000D01*
G75*
G02*
X115675000Y-107046000I0J-700000D01*
G01*
X115675000Y-108446000D01*
G75*
G02*
X114975000Y-109146000I-700000J0D01*
G01*
X113375000Y-109146000D01*
G75*
G02*
X112675000Y-108446000I0J700000D01*
G01*
G37*
G36*
G01*
X125625000Y-108446000D02*
X125625000Y-107046000D01*
G75*
G02*
X126325000Y-106346000I700000J0D01*
G01*
X127925000Y-106346000D01*
G75*
G02*
X128625000Y-107046000I0J-700000D01*
G01*
X128625000Y-108446000D01*
G75*
G02*
X127925000Y-109146000I-700000J0D01*
G01*
X126325000Y-109146000D01*
G75*
G02*
X125625000Y-108446000I0J700000D01*
G01*
G37*
%TD*%
D12*
%TO.C,J5*%
X97790000Y-140462000D03*
X92710000Y-140462000D03*
%TD*%
%TO.C,J4*%
X92075000Y-120650000D03*
X92075000Y-125730000D03*
%TD*%
%TO.C,J2*%
X117475000Y-140462000D03*
X112395000Y-140462000D03*
%TD*%
%TO.C,J1*%
X104140000Y-125730000D03*
X104140000Y-120650000D03*
%TD*%
D13*
%TO.C,H4*%
X128740000Y-100495000D03*
%TD*%
D14*
%TO.C,J7*%
X110490000Y-99949000D03*
X110490000Y-102489000D03*
X107950000Y-99949000D03*
X107950000Y-102489000D03*
X105410000Y-99949000D03*
X105410000Y-102489000D03*
X102870000Y-99949000D03*
X102870000Y-102489000D03*
X100330000Y-99949000D03*
D15*
X100330000Y-102489000D03*
%TD*%
D14*
%TO.C,J6*%
X94742000Y-99949000D03*
X92202000Y-99949000D03*
X89662000Y-99949000D03*
X87122000Y-99949000D03*
D15*
X84582000Y-99949000D03*
%TD*%
D13*
%TO.C,H4*%
X128740000Y-144145000D03*
%TD*%
%TO.C,H2*%
X85090000Y-144145000D03*
%TD*%
D16*
%TO.C,H5*%
X88265000Y-141605000D03*
%TD*%
%TO.C,H1*%
X129375000Y-104305000D03*
%TD*%
M02*
