%TF.GenerationSoftware,KiCad,Pcbnew,5.1.10*%
%TF.CreationDate,2021-12-10T00:48:24+02:00*%
%TF.ProjectId,pwm-controller,70776d2d-636f-46e7-9472-6f6c6c65722e,rev?*%
%TF.SameCoordinates,Original*%
%TF.FileFunction,Copper,L2,Bot*%
%TF.FilePolarity,Positive*%
%FSLAX46Y46*%
G04 Gerber Fmt 4.6, Leading zero omitted, Abs format (unit mm)*
G04 Created by KiCad (PCBNEW 5.1.10) date 2021-12-10 00:48:24*
%MOMM*%
%LPD*%
G01*
G04 APERTURE LIST*
%TA.AperFunction,ComponentPad*%
%ADD10O,1.700000X1.700000*%
%TD*%
%TA.AperFunction,ComponentPad*%
%ADD11R,1.700000X1.700000*%
%TD*%
%TA.AperFunction,ComponentPad*%
%ADD12C,2.600000*%
%TD*%
%TA.AperFunction,ComponentPad*%
%ADD13R,2.600000X2.600000*%
%TD*%
%TA.AperFunction,ViaPad*%
%ADD14C,0.400000*%
%TD*%
%TA.AperFunction,Conductor*%
%ADD15C,0.200000*%
%TD*%
%TA.AperFunction,Conductor*%
%ADD16C,0.250000*%
%TD*%
%TA.AperFunction,Conductor*%
%ADD17C,0.100000*%
%TD*%
%TA.AperFunction,Conductor*%
%ADD18C,0.254000*%
%TD*%
G04 APERTURE END LIST*
D10*
%TO.P,J3,2*%
%TO.N,GND*%
X120650000Y-123825000D03*
D11*
%TO.P,J3,1*%
%TO.N,/CTRL*%
X123190000Y-123825000D03*
%TD*%
D12*
%TO.P,J1,3*%
%TO.N,/24VIN*%
X104521000Y-116840000D03*
%TO.P,J1,2*%
%TO.N,/12VIN*%
X104521000Y-121920000D03*
D13*
%TO.P,J1,1*%
%TO.N,GND*%
X104521000Y-127000000D03*
%TD*%
D12*
%TO.P,J5,3*%
%TO.N,/DRAIN*%
X105410000Y-140335000D03*
%TO.P,J5,2*%
X100330000Y-140335000D03*
D13*
%TO.P,J5,1*%
X95250000Y-140335000D03*
%TD*%
D12*
%TO.P,J4,3*%
%TO.N,GND*%
X92964000Y-127000000D03*
%TO.P,J4,2*%
%TO.N,/12VIN*%
X92964000Y-121920000D03*
D13*
%TO.P,J4,1*%
%TO.N,/24VIN*%
X92964000Y-116840000D03*
%TD*%
D12*
%TO.P,J2,3*%
%TO.N,/DRAIN*%
X121920000Y-140335000D03*
%TO.P,J2,2*%
X116840000Y-140335000D03*
D13*
%TO.P,J2,1*%
X111760000Y-140335000D03*
%TD*%
D14*
%TO.N,GND*%
X121920000Y-128905000D03*
X121920000Y-127635000D03*
X123190000Y-128905000D03*
X123190000Y-127635000D03*
X90170000Y-141605000D03*
X90170000Y-142875000D03*
X88900000Y-141605000D03*
X88900000Y-142875000D03*
X87630000Y-141605000D03*
%TO.N,/DRAIN*%
X124460000Y-137795000D03*
X124460000Y-136525000D03*
X124460000Y-135255000D03*
%TO.N,GND*%
X127000000Y-132715000D03*
X127000000Y-136525000D03*
X127000000Y-133985000D03*
X127000000Y-137795000D03*
X127000000Y-139065000D03*
X127000000Y-135255000D03*
X127000000Y-140335000D03*
X127000000Y-131445000D03*
X83820000Y-127635000D03*
X83820000Y-136525000D03*
X83820000Y-132715000D03*
X83820000Y-135255000D03*
X83820000Y-131445000D03*
X83820000Y-128905000D03*
X83820000Y-137795000D03*
X83820000Y-125095000D03*
X83820000Y-140335000D03*
X83820000Y-139065000D03*
X83820000Y-130175000D03*
X83820000Y-133985000D03*
X83820000Y-123825000D03*
X83820000Y-126365000D03*
%TO.N,/DRAIN*%
X123190000Y-137795000D03*
X95250000Y-137795000D03*
X110490000Y-137795000D03*
X115570000Y-137795000D03*
X105410000Y-137795000D03*
X121920000Y-137795000D03*
X106680000Y-137795000D03*
X99060000Y-137795000D03*
X107950000Y-137795000D03*
X119380000Y-137795000D03*
X96520000Y-137795000D03*
X114300000Y-137795000D03*
X97790000Y-137795000D03*
X100330000Y-137795000D03*
X102870000Y-137795000D03*
X104140000Y-137795000D03*
X120650000Y-137795000D03*
X92710000Y-137795000D03*
X111760000Y-137795000D03*
X101600000Y-137795000D03*
X118110000Y-137795000D03*
X116840000Y-137795000D03*
X109220000Y-137795000D03*
X113030000Y-137795000D03*
X93980000Y-137795000D03*
X123190000Y-136525000D03*
X95250000Y-136525000D03*
X110490000Y-136525000D03*
X115570000Y-136525000D03*
X105410000Y-136525000D03*
X121920000Y-136525000D03*
X106680000Y-136525000D03*
X99060000Y-136525000D03*
X107950000Y-136525000D03*
X119380000Y-136525000D03*
X96520000Y-136525000D03*
X114300000Y-136525000D03*
X97790000Y-136525000D03*
X100330000Y-136525000D03*
X102870000Y-136525000D03*
X104140000Y-136525000D03*
X120650000Y-136525000D03*
X92710000Y-136525000D03*
X111760000Y-136525000D03*
X101600000Y-136525000D03*
X118110000Y-136525000D03*
X116840000Y-136525000D03*
X109220000Y-136525000D03*
X113030000Y-136525000D03*
X93980000Y-136525000D03*
X123190000Y-135255000D03*
X95250000Y-135255000D03*
X110490000Y-135255000D03*
X115570000Y-135255000D03*
X105410000Y-135255000D03*
X121920000Y-135255000D03*
X106680000Y-135255000D03*
X99060000Y-135255000D03*
X107950000Y-135255000D03*
X119380000Y-135255000D03*
X96520000Y-135255000D03*
X114300000Y-135255000D03*
X97790000Y-135255000D03*
X100330000Y-135255000D03*
X102870000Y-135255000D03*
X104140000Y-135255000D03*
X120650000Y-135255000D03*
X92710000Y-135255000D03*
X111760000Y-135255000D03*
X101600000Y-135255000D03*
X118110000Y-135255000D03*
X116840000Y-135255000D03*
X109220000Y-135255000D03*
X113030000Y-135255000D03*
X93980000Y-135255000D03*
%TO.N,GND*%
X110490000Y-127635000D03*
X110490000Y-128905000D03*
X110490000Y-126365000D03*
X120650000Y-127635000D03*
X118110000Y-128905000D03*
X120650000Y-128905000D03*
X118110000Y-127635000D03*
X119380000Y-127635000D03*
X119380000Y-128905000D03*
X118110000Y-126365000D03*
X88900000Y-135255000D03*
X87630000Y-136525000D03*
X87630000Y-132715000D03*
X88900000Y-131445000D03*
X87630000Y-135255000D03*
X87630000Y-131445000D03*
X88900000Y-139065000D03*
X88900000Y-140335000D03*
X87630000Y-137795000D03*
X88900000Y-133985000D03*
X87630000Y-140335000D03*
X88900000Y-132715000D03*
X87630000Y-139065000D03*
X87630000Y-133985000D03*
X88900000Y-137795000D03*
X88900000Y-136525000D03*
X90170000Y-136525000D03*
X90170000Y-132715000D03*
X90170000Y-135255000D03*
X90170000Y-131445000D03*
X90170000Y-137795000D03*
X90170000Y-140335000D03*
X90170000Y-139065000D03*
X90170000Y-133985000D03*
X106680000Y-145415000D03*
X93980000Y-145415000D03*
X119380000Y-145415000D03*
X118110000Y-145415000D03*
X97790000Y-145415000D03*
X107950000Y-145415000D03*
X110490000Y-145415000D03*
X91440000Y-145415000D03*
X105410000Y-145415000D03*
X113030000Y-145415000D03*
X90170000Y-145415000D03*
X111760000Y-145415000D03*
X104140000Y-145415000D03*
X123190000Y-145415000D03*
X109220000Y-145415000D03*
X114300000Y-145415000D03*
X116840000Y-145415000D03*
X96520000Y-145415000D03*
X101600000Y-145415000D03*
X100330000Y-145415000D03*
X121920000Y-145415000D03*
X102870000Y-145415000D03*
X120650000Y-145415000D03*
X115570000Y-145415000D03*
X99060000Y-145415000D03*
X92710000Y-145415000D03*
X95250000Y-145415000D03*
X106680000Y-144145000D03*
X93980000Y-144145000D03*
X119380000Y-144145000D03*
X118110000Y-144145000D03*
X97790000Y-144145000D03*
X107950000Y-144145000D03*
X110490000Y-144145000D03*
X91440000Y-144145000D03*
X105410000Y-144145000D03*
X113030000Y-144145000D03*
X90170000Y-144145000D03*
X111760000Y-144145000D03*
X104140000Y-144145000D03*
X123190000Y-144145000D03*
X109220000Y-144145000D03*
X114300000Y-144145000D03*
X116840000Y-144145000D03*
X96520000Y-144145000D03*
X101600000Y-144145000D03*
X100330000Y-144145000D03*
X121920000Y-144145000D03*
X102870000Y-144145000D03*
X120650000Y-144145000D03*
X115570000Y-144145000D03*
X99060000Y-144145000D03*
X92710000Y-144145000D03*
X95250000Y-144145000D03*
X128270000Y-136525000D03*
X128270000Y-139065000D03*
X129540000Y-136525000D03*
X128270000Y-137795000D03*
X129540000Y-139065000D03*
X129540000Y-135255000D03*
X129540000Y-133985000D03*
X128270000Y-133985000D03*
X129540000Y-137795000D03*
X128270000Y-135255000D03*
X128270000Y-140335000D03*
X129540000Y-140335000D03*
X120650000Y-130175000D03*
X118110000Y-130175000D03*
X119380000Y-130175000D03*
X115570000Y-130175000D03*
X116840000Y-130175000D03*
X113030000Y-130175000D03*
X114300000Y-130175000D03*
X110490000Y-130175000D03*
X111760000Y-130175000D03*
X105410000Y-130175000D03*
X102870000Y-130175000D03*
X107950000Y-130175000D03*
X106680000Y-130175000D03*
X104140000Y-130175000D03*
X109220000Y-130175000D03*
X97790000Y-130175000D03*
X95250000Y-130175000D03*
X100330000Y-130175000D03*
X99060000Y-130175000D03*
X96520000Y-130175000D03*
X101600000Y-130175000D03*
X90170000Y-130175000D03*
X87630000Y-130175000D03*
X92710000Y-130175000D03*
X91440000Y-130175000D03*
X88900000Y-130175000D03*
X93980000Y-130175000D03*
X113030000Y-128905000D03*
X115570000Y-128905000D03*
X114300000Y-128905000D03*
X111760000Y-128905000D03*
X116840000Y-128905000D03*
X113030000Y-127635000D03*
X115570000Y-127635000D03*
X114300000Y-127635000D03*
X111760000Y-127635000D03*
X116840000Y-127635000D03*
X113030000Y-126365000D03*
X115570000Y-126365000D03*
X114300000Y-126365000D03*
X111760000Y-126365000D03*
X116840000Y-126365000D03*
X100330000Y-111760000D03*
X104140000Y-111760000D03*
X110490000Y-111760000D03*
X102870000Y-111760000D03*
X114300000Y-111760000D03*
X119380000Y-111760000D03*
X121920000Y-111760000D03*
X109220000Y-111760000D03*
X99060000Y-111760000D03*
X92710000Y-111760000D03*
X106680000Y-111760000D03*
X101600000Y-111760000D03*
X120650000Y-111760000D03*
X107950000Y-111760000D03*
X116840000Y-111760000D03*
X111760000Y-111760000D03*
X115570000Y-111760000D03*
X105410000Y-111760000D03*
X118110000Y-111760000D03*
X90170000Y-111760000D03*
X91440000Y-111760000D03*
X96520000Y-111760000D03*
X97790000Y-111760000D03*
X123190000Y-111760000D03*
X113030000Y-111760000D03*
X93980000Y-111760000D03*
X95250000Y-111760000D03*
X128270000Y-120015000D03*
X128270000Y-121285000D03*
X128270000Y-131445000D03*
X128270000Y-128905000D03*
X128270000Y-126365000D03*
X128270000Y-127635000D03*
X128270000Y-130175000D03*
X128270000Y-125095000D03*
X128270000Y-122555000D03*
X128270000Y-117475000D03*
X128270000Y-118745000D03*
X128270000Y-123825000D03*
X129540000Y-130175000D03*
X129540000Y-117475000D03*
X129540000Y-125095000D03*
X129540000Y-120015000D03*
X129540000Y-121285000D03*
X129540000Y-131445000D03*
X129540000Y-126365000D03*
X129540000Y-123825000D03*
X129540000Y-118745000D03*
X129540000Y-127635000D03*
X129540000Y-122555000D03*
X129540000Y-128905000D03*
X114300000Y-113030000D03*
X118110000Y-113030000D03*
X120650000Y-113030000D03*
X119380000Y-113030000D03*
X115570000Y-113030000D03*
X110490000Y-113030000D03*
X111760000Y-113030000D03*
X121920000Y-113030000D03*
X116840000Y-113030000D03*
X123190000Y-113030000D03*
X113030000Y-113030000D03*
X128270000Y-132715000D03*
X129540000Y-132715000D03*
X86360000Y-130175000D03*
X86360000Y-139065000D03*
X86360000Y-136525000D03*
X86360000Y-140335000D03*
X86360000Y-137795000D03*
X86360000Y-127635000D03*
X86360000Y-131445000D03*
X86360000Y-132715000D03*
X86360000Y-128905000D03*
X86360000Y-135255000D03*
X86360000Y-133985000D03*
X85090000Y-130175000D03*
X85090000Y-139065000D03*
X85090000Y-136525000D03*
X85090000Y-140335000D03*
X85090000Y-137795000D03*
X85090000Y-127635000D03*
X85090000Y-131445000D03*
X85090000Y-132715000D03*
X85090000Y-128905000D03*
X85090000Y-135255000D03*
X85090000Y-133985000D03*
X85090000Y-123825000D03*
X85090000Y-125095000D03*
X85090000Y-126365000D03*
X123190000Y-130175000D03*
X115570000Y-119380000D03*
X110490000Y-119380000D03*
X121920000Y-118110000D03*
X123825000Y-120650000D03*
X126365000Y-115570000D03*
X124460000Y-128905000D03*
X124460000Y-130175000D03*
X120904000Y-120396000D03*
X121920000Y-130175000D03*
X112395000Y-113665000D03*
X114935000Y-113665000D03*
%TD*%
D15*
%TO.N,GND*%
X121920000Y-128905000D02*
X120650000Y-128905000D01*
X121920000Y-127635000D02*
X120650000Y-127635000D01*
X123190000Y-128905000D02*
X121920000Y-128905000D01*
X123190000Y-127635000D02*
X121920000Y-127635000D01*
X90170000Y-140335000D02*
X90170000Y-141605000D01*
X90170000Y-141605000D02*
X90170000Y-142875000D01*
X88900000Y-140335000D02*
X88900000Y-141605000D01*
X88900000Y-141605000D02*
X88900000Y-142875000D01*
X87630000Y-140335000D02*
X87630000Y-141605000D01*
%TO.N,/DRAIN*%
X124460000Y-136525000D02*
X123190000Y-136525000D01*
X124460000Y-137795000D02*
X123190000Y-137795000D01*
X124460000Y-135255000D02*
X123190000Y-135255000D01*
%TO.N,GND*%
X127000000Y-135255000D02*
X127000000Y-136525000D01*
X127000000Y-132715000D02*
X127000000Y-133985000D01*
X127000000Y-131445000D02*
X127000000Y-132715000D01*
X127000000Y-136525000D02*
X127000000Y-137795000D01*
X127000000Y-133985000D02*
X127000000Y-135255000D01*
X127000000Y-137795000D02*
X127000000Y-139065000D01*
X127000000Y-139065000D02*
X127000000Y-140335000D01*
X83820000Y-135255000D02*
X83820000Y-136525000D01*
X83820000Y-128905000D02*
X83820000Y-130175000D01*
X83820000Y-131445000D02*
X83820000Y-132715000D01*
X83820000Y-136525000D02*
X83820000Y-137795000D01*
X83820000Y-123825000D02*
X83820000Y-125095000D01*
X83820000Y-127635000D02*
X83820000Y-128905000D01*
X83820000Y-137795000D02*
X83820000Y-139065000D01*
X83820000Y-130175000D02*
X83820000Y-131445000D01*
X83820000Y-132715000D02*
X83820000Y-133985000D01*
X83820000Y-125095000D02*
X83820000Y-126365000D01*
X83820000Y-139065000D02*
X83820000Y-140335000D01*
X83820000Y-126365000D02*
X83820000Y-127635000D01*
X83820000Y-133985000D02*
X83820000Y-135255000D01*
%TO.N,/DRAIN*%
X110490000Y-137795000D02*
X109220000Y-137795000D01*
X113030000Y-137795000D02*
X111760000Y-137795000D01*
X99060000Y-137795000D02*
X97790000Y-137795000D01*
X107950000Y-137795000D02*
X106680000Y-137795000D01*
X111760000Y-137795000D02*
X110490000Y-137795000D01*
X106680000Y-137795000D02*
X105410000Y-137795000D01*
X121920000Y-137795000D02*
X120650000Y-137795000D01*
X101600000Y-137795000D02*
X100330000Y-137795000D01*
X96520000Y-137795000D02*
X95250000Y-137795000D01*
X114300000Y-137795000D02*
X113030000Y-137795000D01*
X104140000Y-137795000D02*
X102870000Y-137795000D01*
X95250000Y-137795000D02*
X93980000Y-137795000D01*
X115570000Y-137795000D02*
X114300000Y-137795000D01*
X119380000Y-137795000D02*
X118110000Y-137795000D01*
X105410000Y-137795000D02*
X104140000Y-137795000D01*
X120650000Y-137795000D02*
X119380000Y-137795000D01*
X93980000Y-137795000D02*
X92710000Y-137795000D01*
X97790000Y-137795000D02*
X96520000Y-137795000D01*
X100330000Y-137795000D02*
X99060000Y-137795000D01*
X109220000Y-137795000D02*
X107950000Y-137795000D01*
X102870000Y-137795000D02*
X101600000Y-137795000D01*
X116840000Y-137795000D02*
X115570000Y-137795000D01*
X118110000Y-137795000D02*
X116840000Y-137795000D01*
X123190000Y-137795000D02*
X121920000Y-137795000D01*
X110490000Y-136525000D02*
X109220000Y-136525000D01*
X113030000Y-136525000D02*
X111760000Y-136525000D01*
X99060000Y-136525000D02*
X97790000Y-136525000D01*
X107950000Y-136525000D02*
X106680000Y-136525000D01*
X111760000Y-136525000D02*
X110490000Y-136525000D01*
X106680000Y-136525000D02*
X105410000Y-136525000D01*
X121920000Y-136525000D02*
X120650000Y-136525000D01*
X101600000Y-136525000D02*
X100330000Y-136525000D01*
X96520000Y-136525000D02*
X95250000Y-136525000D01*
X114300000Y-136525000D02*
X113030000Y-136525000D01*
X104140000Y-136525000D02*
X102870000Y-136525000D01*
X95250000Y-136525000D02*
X93980000Y-136525000D01*
X115570000Y-136525000D02*
X114300000Y-136525000D01*
X119380000Y-136525000D02*
X118110000Y-136525000D01*
X105410000Y-136525000D02*
X104140000Y-136525000D01*
X120650000Y-136525000D02*
X119380000Y-136525000D01*
X93980000Y-136525000D02*
X92710000Y-136525000D01*
X97790000Y-136525000D02*
X96520000Y-136525000D01*
X100330000Y-136525000D02*
X99060000Y-136525000D01*
X109220000Y-136525000D02*
X107950000Y-136525000D01*
X102870000Y-136525000D02*
X101600000Y-136525000D01*
X116840000Y-136525000D02*
X115570000Y-136525000D01*
X118110000Y-136525000D02*
X116840000Y-136525000D01*
X123190000Y-136525000D02*
X121920000Y-136525000D01*
X110490000Y-135255000D02*
X109220000Y-135255000D01*
X113030000Y-135255000D02*
X111760000Y-135255000D01*
X99060000Y-135255000D02*
X97790000Y-135255000D01*
X107950000Y-135255000D02*
X106680000Y-135255000D01*
X111760000Y-135255000D02*
X110490000Y-135255000D01*
X106680000Y-135255000D02*
X105410000Y-135255000D01*
X121920000Y-135255000D02*
X120650000Y-135255000D01*
X101600000Y-135255000D02*
X100330000Y-135255000D01*
X96520000Y-135255000D02*
X95250000Y-135255000D01*
X114300000Y-135255000D02*
X113030000Y-135255000D01*
X104140000Y-135255000D02*
X102870000Y-135255000D01*
X95250000Y-135255000D02*
X93980000Y-135255000D01*
X115570000Y-135255000D02*
X114300000Y-135255000D01*
X119380000Y-135255000D02*
X118110000Y-135255000D01*
X105410000Y-135255000D02*
X104140000Y-135255000D01*
X120650000Y-135255000D02*
X119380000Y-135255000D01*
X93980000Y-135255000D02*
X92710000Y-135255000D01*
X97790000Y-135255000D02*
X96520000Y-135255000D01*
X100330000Y-135255000D02*
X99060000Y-135255000D01*
X109220000Y-135255000D02*
X107950000Y-135255000D01*
X102870000Y-135255000D02*
X101600000Y-135255000D01*
X116840000Y-135255000D02*
X115570000Y-135255000D01*
X118110000Y-135255000D02*
X116840000Y-135255000D01*
X123190000Y-135255000D02*
X121920000Y-135255000D01*
%TO.N,GND*%
X111760000Y-128905000D02*
X110490000Y-128905000D01*
X111760000Y-126365000D02*
X110490000Y-126365000D01*
X111760000Y-127635000D02*
X110490000Y-127635000D01*
X118110000Y-128905000D02*
X116840000Y-128905000D01*
X119380000Y-128905000D02*
X118110000Y-128905000D01*
X118110000Y-126365000D02*
X116840000Y-126365000D01*
X120650000Y-127635000D02*
X119380000Y-127635000D01*
X120650000Y-128905000D02*
X119380000Y-128905000D01*
X119380000Y-127635000D02*
X118110000Y-127635000D01*
X88900000Y-133985000D02*
X88900000Y-135255000D01*
X88900000Y-131445000D02*
X88900000Y-132715000D01*
X87630000Y-135255000D02*
X87630000Y-136525000D01*
X88900000Y-137795000D02*
X88900000Y-139065000D01*
X87630000Y-131445000D02*
X87630000Y-132715000D01*
X88900000Y-136525000D02*
X88900000Y-137795000D01*
X87630000Y-136525000D02*
X87630000Y-137795000D01*
X88900000Y-132715000D02*
X88900000Y-133985000D01*
X87630000Y-137795000D02*
X87630000Y-139065000D01*
X88900000Y-135255000D02*
X88900000Y-136525000D01*
X87630000Y-132715000D02*
X87630000Y-133985000D01*
X88900000Y-139065000D02*
X88900000Y-140335000D01*
X87630000Y-139065000D02*
X87630000Y-140335000D01*
X87630000Y-133985000D02*
X87630000Y-135255000D01*
X90170000Y-135255000D02*
X90170000Y-136525000D01*
X90170000Y-131445000D02*
X90170000Y-132715000D01*
X90170000Y-136525000D02*
X90170000Y-137795000D01*
X90170000Y-137795000D02*
X90170000Y-139065000D01*
X90170000Y-132715000D02*
X90170000Y-133985000D01*
X90170000Y-139065000D02*
X90170000Y-140335000D01*
X90170000Y-133985000D02*
X90170000Y-135255000D01*
X119380000Y-145415000D02*
X118110000Y-145415000D01*
X116840000Y-145415000D02*
X115570000Y-145415000D01*
X107950000Y-145415000D02*
X106680000Y-145415000D01*
X92710000Y-145415000D02*
X91440000Y-145415000D01*
X118110000Y-145415000D02*
X116840000Y-145415000D01*
X121920000Y-145415000D02*
X120650000Y-145415000D01*
X96520000Y-145415000D02*
X95250000Y-145415000D01*
X115570000Y-145415000D02*
X114300000Y-145415000D01*
X102870000Y-145415000D02*
X101600000Y-145415000D01*
X113030000Y-145415000D02*
X111760000Y-145415000D01*
X110490000Y-145415000D02*
X109220000Y-145415000D01*
X105410000Y-145415000D02*
X104140000Y-145415000D01*
X91440000Y-145415000D02*
X90170000Y-145415000D01*
X99060000Y-145415000D02*
X97790000Y-145415000D01*
X123190000Y-145415000D02*
X121920000Y-145415000D01*
X95250000Y-145415000D02*
X93980000Y-145415000D01*
X120650000Y-145415000D02*
X119380000Y-145415000D01*
X106680000Y-145415000D02*
X105410000Y-145415000D01*
X101600000Y-145415000D02*
X100330000Y-145415000D01*
X93980000Y-145415000D02*
X92710000Y-145415000D01*
X109220000Y-145415000D02*
X107950000Y-145415000D01*
X97790000Y-145415000D02*
X96520000Y-145415000D01*
X111760000Y-145415000D02*
X110490000Y-145415000D01*
X114300000Y-145415000D02*
X113030000Y-145415000D01*
X104140000Y-145415000D02*
X102870000Y-145415000D01*
X100330000Y-145415000D02*
X99060000Y-145415000D01*
X119380000Y-144145000D02*
X118110000Y-144145000D01*
X116840000Y-144145000D02*
X115570000Y-144145000D01*
X107950000Y-144145000D02*
X106680000Y-144145000D01*
X92710000Y-144145000D02*
X91440000Y-144145000D01*
X118110000Y-144145000D02*
X116840000Y-144145000D01*
X121920000Y-144145000D02*
X120650000Y-144145000D01*
X96520000Y-144145000D02*
X95250000Y-144145000D01*
X115570000Y-144145000D02*
X114300000Y-144145000D01*
X102870000Y-144145000D02*
X101600000Y-144145000D01*
X113030000Y-144145000D02*
X111760000Y-144145000D01*
X110490000Y-144145000D02*
X109220000Y-144145000D01*
X105410000Y-144145000D02*
X104140000Y-144145000D01*
X91440000Y-144145000D02*
X90170000Y-144145000D01*
X99060000Y-144145000D02*
X97790000Y-144145000D01*
X123190000Y-144145000D02*
X121920000Y-144145000D01*
X95250000Y-144145000D02*
X93980000Y-144145000D01*
X120650000Y-144145000D02*
X119380000Y-144145000D01*
X106680000Y-144145000D02*
X105410000Y-144145000D01*
X101600000Y-144145000D02*
X100330000Y-144145000D01*
X93980000Y-144145000D02*
X92710000Y-144145000D01*
X109220000Y-144145000D02*
X107950000Y-144145000D01*
X97790000Y-144145000D02*
X96520000Y-144145000D01*
X111760000Y-144145000D02*
X110490000Y-144145000D01*
X114300000Y-144145000D02*
X113030000Y-144145000D01*
X104140000Y-144145000D02*
X102870000Y-144145000D01*
X100330000Y-144145000D02*
X99060000Y-144145000D01*
X129540000Y-137795000D02*
X129540000Y-139065000D01*
X128270000Y-136525000D02*
X128270000Y-137795000D01*
X128270000Y-132715000D02*
X128270000Y-133985000D01*
X128270000Y-135255000D02*
X128270000Y-136525000D01*
X128270000Y-137795000D02*
X128270000Y-139065000D01*
X129540000Y-133985000D02*
X129540000Y-135255000D01*
X128270000Y-133985000D02*
X128270000Y-135255000D01*
X129540000Y-135255000D02*
X129540000Y-136525000D01*
X129540000Y-136525000D02*
X129540000Y-137795000D01*
X129540000Y-132715000D02*
X129540000Y-133985000D01*
X129540000Y-139065000D02*
X129540000Y-140335000D01*
X128270000Y-139065000D02*
X128270000Y-140335000D01*
X121920000Y-130175000D02*
X120650000Y-130175000D01*
X119380000Y-130175000D02*
X118110000Y-130175000D01*
X120650000Y-130175000D02*
X119380000Y-130175000D01*
X116840000Y-130175000D02*
X115570000Y-130175000D01*
X118110000Y-130175000D02*
X116840000Y-130175000D01*
X114300000Y-130175000D02*
X113030000Y-130175000D01*
X115570000Y-130175000D02*
X114300000Y-130175000D01*
X111760000Y-130175000D02*
X110490000Y-130175000D01*
X113030000Y-130175000D02*
X111760000Y-130175000D01*
X104140000Y-130175000D02*
X102870000Y-130175000D01*
X107950000Y-130175000D02*
X106680000Y-130175000D01*
X105410000Y-130175000D02*
X104140000Y-130175000D01*
X106680000Y-130175000D02*
X105410000Y-130175000D01*
X109220000Y-130175000D02*
X107950000Y-130175000D01*
X110490000Y-130175000D02*
X109220000Y-130175000D01*
X96520000Y-130175000D02*
X95250000Y-130175000D01*
X100330000Y-130175000D02*
X99060000Y-130175000D01*
X97790000Y-130175000D02*
X96520000Y-130175000D01*
X99060000Y-130175000D02*
X97790000Y-130175000D01*
X101600000Y-130175000D02*
X100330000Y-130175000D01*
X102870000Y-130175000D02*
X101600000Y-130175000D01*
X88900000Y-130175000D02*
X87630000Y-130175000D01*
X92710000Y-130175000D02*
X91440000Y-130175000D01*
X90170000Y-130175000D02*
X88900000Y-130175000D01*
X91440000Y-130175000D02*
X90170000Y-130175000D01*
X93980000Y-130175000D02*
X92710000Y-130175000D01*
X95250000Y-130175000D02*
X93980000Y-130175000D01*
X115570000Y-128905000D02*
X114300000Y-128905000D01*
X113030000Y-128905000D02*
X111760000Y-128905000D01*
X114300000Y-128905000D02*
X113030000Y-128905000D01*
X116840000Y-128905000D02*
X115570000Y-128905000D01*
X115570000Y-127635000D02*
X114300000Y-127635000D01*
X113030000Y-127635000D02*
X111760000Y-127635000D01*
X114300000Y-127635000D02*
X113030000Y-127635000D01*
X116840000Y-127635000D02*
X115570000Y-127635000D01*
X115570000Y-126365000D02*
X114300000Y-126365000D01*
X113030000Y-126365000D02*
X111760000Y-126365000D01*
X114300000Y-126365000D02*
X113030000Y-126365000D01*
X116840000Y-126365000D02*
X115570000Y-126365000D01*
X119380000Y-111760000D02*
X118110000Y-111760000D01*
X116840000Y-111760000D02*
X115570000Y-111760000D01*
X97790000Y-111760000D02*
X96520000Y-111760000D01*
X121920000Y-111760000D02*
X120650000Y-111760000D01*
X118110000Y-111760000D02*
X116840000Y-111760000D01*
X95250000Y-111760000D02*
X93980000Y-111760000D01*
X93980000Y-111760000D02*
X92710000Y-111760000D01*
X99060000Y-111760000D02*
X97790000Y-111760000D01*
X91440000Y-111760000D02*
X90170000Y-111760000D01*
X106680000Y-111760000D02*
X105410000Y-111760000D01*
X109220000Y-111760000D02*
X107950000Y-111760000D01*
X105410000Y-111760000D02*
X104140000Y-111760000D01*
X110490000Y-111760000D02*
X109220000Y-111760000D01*
X102870000Y-111760000D02*
X101600000Y-111760000D01*
X114300000Y-111760000D02*
X113030000Y-111760000D01*
X100330000Y-111760000D02*
X99060000Y-111760000D01*
X120650000Y-111760000D02*
X119380000Y-111760000D01*
X96520000Y-111760000D02*
X95250000Y-111760000D01*
X107950000Y-111760000D02*
X106680000Y-111760000D01*
X104140000Y-111760000D02*
X102870000Y-111760000D01*
X111760000Y-111760000D02*
X110490000Y-111760000D01*
X123190000Y-111760000D02*
X121920000Y-111760000D01*
X92710000Y-111760000D02*
X91440000Y-111760000D01*
X115570000Y-111760000D02*
X114300000Y-111760000D01*
X113030000Y-111760000D02*
X111760000Y-111760000D01*
X101600000Y-111760000D02*
X100330000Y-111760000D01*
X128270000Y-120015000D02*
X128270000Y-121285000D01*
X128270000Y-122555000D02*
X128270000Y-123825000D01*
X128270000Y-121285000D02*
X128270000Y-122555000D01*
X128270000Y-117475000D02*
X128270000Y-118745000D01*
X128270000Y-123825000D02*
X128270000Y-125095000D01*
X128270000Y-126365000D02*
X128270000Y-127635000D01*
X128270000Y-128905000D02*
X128270000Y-130175000D01*
X128270000Y-118745000D02*
X128270000Y-120015000D01*
X128270000Y-130175000D02*
X128270000Y-131445000D01*
X128270000Y-127635000D02*
X128270000Y-128905000D01*
X128270000Y-125095000D02*
X128270000Y-126365000D01*
X129540000Y-123825000D02*
X129540000Y-125095000D01*
X129540000Y-130175000D02*
X129540000Y-131445000D01*
X129540000Y-126365000D02*
X129540000Y-127635000D01*
X129540000Y-128905000D02*
X129540000Y-130175000D01*
X129540000Y-120015000D02*
X129540000Y-121285000D01*
X129540000Y-118745000D02*
X129540000Y-120015000D01*
X129540000Y-121285000D02*
X129540000Y-122555000D01*
X129540000Y-127635000D02*
X129540000Y-128905000D01*
X129540000Y-122555000D02*
X129540000Y-123825000D01*
X129540000Y-117475000D02*
X129540000Y-118745000D01*
X129540000Y-125095000D02*
X129540000Y-126365000D01*
X119380000Y-113030000D02*
X120650000Y-113030000D01*
X114300000Y-113030000D02*
X115570000Y-113030000D01*
X110490000Y-113030000D02*
X111760000Y-113030000D01*
X113030000Y-113030000D02*
X114300000Y-113030000D01*
X118110000Y-113030000D02*
X119380000Y-113030000D01*
X116840000Y-113030000D02*
X118110000Y-113030000D01*
X120650000Y-113030000D02*
X121920000Y-113030000D01*
X111760000Y-113030000D02*
X113030000Y-113030000D01*
X115570000Y-113030000D02*
X116840000Y-113030000D01*
X121920000Y-113030000D02*
X123190000Y-113030000D01*
X128270000Y-131445000D02*
X128270000Y-132715000D01*
X129540000Y-131445000D02*
X129540000Y-132715000D01*
X86360000Y-128905000D02*
X86360000Y-130175000D01*
X86360000Y-136525000D02*
X86360000Y-137795000D01*
X86360000Y-131445000D02*
X86360000Y-132715000D01*
X86360000Y-132715000D02*
X86360000Y-133985000D01*
X86360000Y-130175000D02*
X86360000Y-131445000D01*
X86360000Y-137795000D02*
X86360000Y-139065000D01*
X86360000Y-139065000D02*
X86360000Y-140335000D01*
X86360000Y-127635000D02*
X86360000Y-128905000D01*
X86360000Y-135255000D02*
X86360000Y-136525000D01*
X86360000Y-133985000D02*
X86360000Y-135255000D01*
X85090000Y-128905000D02*
X85090000Y-130175000D01*
X85090000Y-136525000D02*
X85090000Y-137795000D01*
X85090000Y-131445000D02*
X85090000Y-132715000D01*
X85090000Y-132715000D02*
X85090000Y-133985000D01*
X85090000Y-130175000D02*
X85090000Y-131445000D01*
X85090000Y-137795000D02*
X85090000Y-139065000D01*
X85090000Y-139065000D02*
X85090000Y-140335000D01*
X85090000Y-127635000D02*
X85090000Y-128905000D01*
X85090000Y-135255000D02*
X85090000Y-136525000D01*
X85090000Y-133985000D02*
X85090000Y-135255000D01*
X85090000Y-125095000D02*
X85090000Y-126365000D01*
X85090000Y-123825000D02*
X85090000Y-125095000D01*
X85090000Y-126365000D02*
X85090000Y-127635000D01*
X123190000Y-130175000D02*
X121920000Y-130175000D01*
X118110000Y-127635000D02*
X116840000Y-127635000D01*
%TD*%
D16*
%TO.N,GND*%
X129783162Y-111166959D02*
X130017055Y-111237576D01*
X130232781Y-111352280D01*
X130422120Y-111506701D01*
X130577859Y-111694958D01*
X130694064Y-111909875D01*
X130766314Y-112143277D01*
X130795001Y-112416212D01*
X130795000Y-145383209D01*
X130768041Y-145658157D01*
X130697424Y-145892054D01*
X130582720Y-146107781D01*
X130428299Y-146297120D01*
X130240045Y-146452858D01*
X130025125Y-146569064D01*
X129791723Y-146641314D01*
X129518798Y-146670000D01*
X83851791Y-146670000D01*
X83576843Y-146643041D01*
X83342946Y-146572424D01*
X83127219Y-146457720D01*
X82937880Y-146303299D01*
X82782142Y-146115045D01*
X82665936Y-145900125D01*
X82593686Y-145666723D01*
X82565000Y-145393798D01*
X82565000Y-143975102D01*
X83365000Y-143975102D01*
X83365000Y-144314898D01*
X83431290Y-144648164D01*
X83561324Y-144962094D01*
X83750105Y-145244624D01*
X83990376Y-145484895D01*
X84272906Y-145673676D01*
X84586836Y-145803710D01*
X84920102Y-145870000D01*
X85259898Y-145870000D01*
X85593164Y-145803710D01*
X85907094Y-145673676D01*
X86189624Y-145484895D01*
X86377807Y-145296712D01*
X87064000Y-145296712D01*
X87064000Y-145533288D01*
X87110154Y-145765319D01*
X87200688Y-145983887D01*
X87332122Y-146180593D01*
X87499407Y-146347878D01*
X87696113Y-146479312D01*
X87914681Y-146569846D01*
X88146712Y-146616000D01*
X88383288Y-146616000D01*
X88615319Y-146569846D01*
X88833887Y-146479312D01*
X89030593Y-146347878D01*
X89197878Y-146180593D01*
X89329312Y-145983887D01*
X89419846Y-145765319D01*
X89466000Y-145533288D01*
X89466000Y-145296712D01*
X123894000Y-145296712D01*
X123894000Y-145533288D01*
X123940154Y-145765319D01*
X124030688Y-145983887D01*
X124162122Y-146180593D01*
X124329407Y-146347878D01*
X124526113Y-146479312D01*
X124744681Y-146569846D01*
X124976712Y-146616000D01*
X125213288Y-146616000D01*
X125445319Y-146569846D01*
X125663887Y-146479312D01*
X125860593Y-146347878D01*
X126027878Y-146180593D01*
X126159312Y-145983887D01*
X126249846Y-145765319D01*
X126296000Y-145533288D01*
X126296000Y-145296712D01*
X126249846Y-145064681D01*
X126159312Y-144846113D01*
X126027878Y-144649407D01*
X125860593Y-144482122D01*
X125663887Y-144350688D01*
X125445319Y-144260154D01*
X125213288Y-144214000D01*
X124976712Y-144214000D01*
X124744681Y-144260154D01*
X124526113Y-144350688D01*
X124329407Y-144482122D01*
X124162122Y-144649407D01*
X124030688Y-144846113D01*
X123940154Y-145064681D01*
X123894000Y-145296712D01*
X89466000Y-145296712D01*
X89419846Y-145064681D01*
X89329312Y-144846113D01*
X89197878Y-144649407D01*
X89030593Y-144482122D01*
X88833887Y-144350688D01*
X88615319Y-144260154D01*
X88383288Y-144214000D01*
X88146712Y-144214000D01*
X87914681Y-144260154D01*
X87696113Y-144350688D01*
X87499407Y-144482122D01*
X87332122Y-144649407D01*
X87200688Y-144846113D01*
X87110154Y-145064681D01*
X87064000Y-145296712D01*
X86377807Y-145296712D01*
X86429895Y-145244624D01*
X86618676Y-144962094D01*
X86748710Y-144648164D01*
X86815000Y-144314898D01*
X86815000Y-143975102D01*
X126545000Y-143975102D01*
X126545000Y-144314898D01*
X126611290Y-144648164D01*
X126741324Y-144962094D01*
X126930105Y-145244624D01*
X127170376Y-145484895D01*
X127452906Y-145673676D01*
X127766836Y-145803710D01*
X128100102Y-145870000D01*
X128439898Y-145870000D01*
X128773164Y-145803710D01*
X129087094Y-145673676D01*
X129369624Y-145484895D01*
X129609895Y-145244624D01*
X129798676Y-144962094D01*
X129928710Y-144648164D01*
X129995000Y-144314898D01*
X129995000Y-143975102D01*
X129928710Y-143641836D01*
X129798676Y-143327906D01*
X129609895Y-143045376D01*
X129369624Y-142805105D01*
X129087094Y-142616324D01*
X128773164Y-142486290D01*
X128439898Y-142420000D01*
X128100102Y-142420000D01*
X127766836Y-142486290D01*
X127452906Y-142616324D01*
X127170376Y-142805105D01*
X126930105Y-143045376D01*
X126741324Y-143327906D01*
X126611290Y-143641836D01*
X126545000Y-143975102D01*
X86815000Y-143975102D01*
X86748710Y-143641836D01*
X86618676Y-143327906D01*
X86429895Y-143045376D01*
X86189624Y-142805105D01*
X85907094Y-142616324D01*
X85593164Y-142486290D01*
X85259898Y-142420000D01*
X84920102Y-142420000D01*
X84586836Y-142486290D01*
X84272906Y-142616324D01*
X83990376Y-142805105D01*
X83750105Y-143045376D01*
X83561324Y-143327906D01*
X83431290Y-143641836D01*
X83365000Y-143975102D01*
X82565000Y-143975102D01*
X82565000Y-133350000D01*
X91442000Y-133350000D01*
X91442000Y-142875000D01*
X91454163Y-142998492D01*
X91490184Y-143117239D01*
X91548680Y-143226676D01*
X91627401Y-143322599D01*
X91723324Y-143401320D01*
X91832761Y-143459816D01*
X91951508Y-143495837D01*
X92075000Y-143508000D01*
X125095000Y-143508000D01*
X125218492Y-143495837D01*
X125337239Y-143459816D01*
X125446676Y-143401320D01*
X125542599Y-143322599D01*
X125621320Y-143226676D01*
X125679816Y-143117239D01*
X125715837Y-142998492D01*
X125728000Y-142875000D01*
X125728000Y-133350000D01*
X125715837Y-133226508D01*
X125679816Y-133107761D01*
X125621320Y-132998324D01*
X125542599Y-132902401D01*
X125446676Y-132823680D01*
X125337239Y-132765184D01*
X125218492Y-132729163D01*
X125095000Y-132717000D01*
X92075000Y-132717000D01*
X91951508Y-132729163D01*
X91832761Y-132765184D01*
X91723324Y-132823680D01*
X91627401Y-132902401D01*
X91548680Y-132998324D01*
X91490184Y-133107761D01*
X91454163Y-133226508D01*
X91442000Y-133350000D01*
X82565000Y-133350000D01*
X82565000Y-128208751D01*
X91932026Y-128208751D01*
X92078555Y-128431374D01*
X92374816Y-128576612D01*
X92693719Y-128661262D01*
X93023009Y-128682071D01*
X93350031Y-128638238D01*
X93662218Y-128531448D01*
X93849445Y-128431374D01*
X93935914Y-128300000D01*
X102844186Y-128300000D01*
X102851426Y-128373513D01*
X102872869Y-128444200D01*
X102907691Y-128509347D01*
X102954552Y-128566448D01*
X103011653Y-128613309D01*
X103076800Y-128648131D01*
X103147487Y-128669574D01*
X103221000Y-128676814D01*
X104302250Y-128675000D01*
X104396000Y-128581250D01*
X104396000Y-127125000D01*
X104646000Y-127125000D01*
X104646000Y-128581250D01*
X104739750Y-128675000D01*
X105821000Y-128676814D01*
X105894513Y-128669574D01*
X105965200Y-128648131D01*
X106030347Y-128613309D01*
X106087448Y-128566448D01*
X106134309Y-128509347D01*
X106169131Y-128444200D01*
X106190574Y-128373513D01*
X106197814Y-128300000D01*
X106196000Y-127218750D01*
X106102250Y-127125000D01*
X104646000Y-127125000D01*
X104396000Y-127125000D01*
X102939750Y-127125000D01*
X102846000Y-127218750D01*
X102844186Y-128300000D01*
X93935914Y-128300000D01*
X93995974Y-128208751D01*
X92964000Y-127176777D01*
X91932026Y-128208751D01*
X82565000Y-128208751D01*
X82565000Y-113495102D01*
X83365000Y-113495102D01*
X83365000Y-113834898D01*
X83431290Y-114168164D01*
X83561324Y-114482094D01*
X83750105Y-114764624D01*
X83990376Y-115004895D01*
X84272906Y-115193676D01*
X84586836Y-115323710D01*
X84920102Y-115390000D01*
X85259898Y-115390000D01*
X85593164Y-115323710D01*
X85907094Y-115193676D01*
X86189624Y-115004895D01*
X86429895Y-114764624D01*
X86618676Y-114482094D01*
X86748710Y-114168164D01*
X86815000Y-113834898D01*
X86815000Y-113495102D01*
X86748710Y-113161836D01*
X86618676Y-112847906D01*
X86429895Y-112565376D01*
X86189624Y-112325105D01*
X86117199Y-112276712D01*
X87064000Y-112276712D01*
X87064000Y-112513288D01*
X87110154Y-112745319D01*
X87200688Y-112963887D01*
X87332122Y-113160593D01*
X87499407Y-113327878D01*
X87696113Y-113459312D01*
X87791373Y-113498770D01*
X87775000Y-113665000D01*
X87775000Y-119380000D01*
X87796617Y-119599477D01*
X87826352Y-119697500D01*
X87796617Y-119795523D01*
X87775000Y-120015000D01*
X87775000Y-125095000D01*
X87796617Y-125314477D01*
X87860636Y-125525519D01*
X87964597Y-125720017D01*
X88104505Y-125890495D01*
X88274983Y-126030403D01*
X88469481Y-126134364D01*
X88680523Y-126198383D01*
X88900000Y-126220000D01*
X91480933Y-126220000D01*
X91387388Y-126410816D01*
X91302738Y-126729719D01*
X91281929Y-127059009D01*
X91325762Y-127386031D01*
X91432552Y-127698218D01*
X91532626Y-127885445D01*
X91755249Y-128031974D01*
X92787223Y-127000000D01*
X92773081Y-126985858D01*
X92949858Y-126809081D01*
X92964000Y-126823223D01*
X92978142Y-126809081D01*
X93154919Y-126985858D01*
X93140777Y-127000000D01*
X94172751Y-128031974D01*
X94395374Y-127885445D01*
X94540612Y-127589184D01*
X94625262Y-127270281D01*
X94646071Y-126940991D01*
X94602238Y-126613969D01*
X94495448Y-126301782D01*
X94451735Y-126220000D01*
X102845058Y-126220000D01*
X102846000Y-126781250D01*
X102939750Y-126875000D01*
X104396000Y-126875000D01*
X104396000Y-126855000D01*
X104646000Y-126855000D01*
X104646000Y-126875000D01*
X106102250Y-126875000D01*
X106196000Y-126781250D01*
X106196942Y-126220000D01*
X109220000Y-126220000D01*
X109439477Y-126198383D01*
X109650519Y-126134364D01*
X109845017Y-126030403D01*
X110015495Y-125890495D01*
X110155403Y-125720017D01*
X110259364Y-125525519D01*
X110323383Y-125314477D01*
X110345000Y-125095000D01*
X110345000Y-124139094D01*
X119465945Y-124139094D01*
X119549973Y-124364056D01*
X119676274Y-124568303D01*
X119839995Y-124743985D01*
X120034844Y-124884351D01*
X120253333Y-124984007D01*
X120335907Y-125009049D01*
X120525000Y-124949323D01*
X120525000Y-123950000D01*
X119525138Y-123950000D01*
X119465945Y-124139094D01*
X110345000Y-124139094D01*
X110345000Y-123510906D01*
X119465945Y-123510906D01*
X119525138Y-123700000D01*
X120525000Y-123700000D01*
X120525000Y-122700677D01*
X120775000Y-122700677D01*
X120775000Y-123700000D01*
X120795000Y-123700000D01*
X120795000Y-123950000D01*
X120775000Y-123950000D01*
X120775000Y-124949323D01*
X120964093Y-125009049D01*
X121046667Y-124984007D01*
X121265156Y-124884351D01*
X121460005Y-124743985D01*
X121623726Y-124568303D01*
X121711976Y-124425590D01*
X121711976Y-124675000D01*
X121724043Y-124797521D01*
X121759781Y-124915334D01*
X121817817Y-125023911D01*
X121895920Y-125119080D01*
X121991089Y-125197183D01*
X122099666Y-125255219D01*
X122217479Y-125290957D01*
X122340000Y-125303024D01*
X124040000Y-125303024D01*
X124162521Y-125290957D01*
X124280334Y-125255219D01*
X124388911Y-125197183D01*
X124484080Y-125119080D01*
X124562183Y-125023911D01*
X124620219Y-124915334D01*
X124655957Y-124797521D01*
X124668024Y-124675000D01*
X124668024Y-122975000D01*
X124655957Y-122852479D01*
X124620219Y-122734666D01*
X124562183Y-122626089D01*
X124484080Y-122530920D01*
X124388911Y-122452817D01*
X124280334Y-122394781D01*
X124162521Y-122359043D01*
X124040000Y-122346976D01*
X122340000Y-122346976D01*
X122217479Y-122359043D01*
X122099666Y-122394781D01*
X121991089Y-122452817D01*
X121895920Y-122530920D01*
X121817817Y-122626089D01*
X121759781Y-122734666D01*
X121724043Y-122852479D01*
X121711976Y-122975000D01*
X121711976Y-123224410D01*
X121623726Y-123081697D01*
X121460005Y-122906015D01*
X121265156Y-122765649D01*
X121046667Y-122665993D01*
X120964093Y-122640951D01*
X120775000Y-122700677D01*
X120525000Y-122700677D01*
X120335907Y-122640951D01*
X120253333Y-122665993D01*
X120034844Y-122765649D01*
X119839995Y-122906015D01*
X119676274Y-123081697D01*
X119549973Y-123285944D01*
X119465945Y-123510906D01*
X110345000Y-123510906D01*
X110345000Y-120015000D01*
X110323383Y-119795523D01*
X110293648Y-119697500D01*
X110323383Y-119599477D01*
X110345000Y-119380000D01*
X110345000Y-113665000D01*
X110323383Y-113445523D01*
X110259364Y-113234481D01*
X110155403Y-113039983D01*
X110015495Y-112869505D01*
X109845017Y-112729597D01*
X109650519Y-112625636D01*
X109439477Y-112561617D01*
X109220000Y-112540000D01*
X89460687Y-112540000D01*
X89466000Y-112513288D01*
X89466000Y-112276712D01*
X123894000Y-112276712D01*
X123894000Y-112513288D01*
X123940154Y-112745319D01*
X124030688Y-112963887D01*
X124162122Y-113160593D01*
X124329407Y-113327878D01*
X124526113Y-113459312D01*
X124744681Y-113549846D01*
X124976712Y-113596000D01*
X125213288Y-113596000D01*
X125445319Y-113549846D01*
X125577482Y-113495102D01*
X126545000Y-113495102D01*
X126545000Y-113834898D01*
X126611290Y-114168164D01*
X126741324Y-114482094D01*
X126930105Y-114764624D01*
X127170376Y-115004895D01*
X127452906Y-115193676D01*
X127766836Y-115323710D01*
X128100102Y-115390000D01*
X128439898Y-115390000D01*
X128773164Y-115323710D01*
X129087094Y-115193676D01*
X129369624Y-115004895D01*
X129609895Y-114764624D01*
X129798676Y-114482094D01*
X129928710Y-114168164D01*
X129995000Y-113834898D01*
X129995000Y-113495102D01*
X129928710Y-113161836D01*
X129798676Y-112847906D01*
X129609895Y-112565376D01*
X129369624Y-112325105D01*
X129087094Y-112136324D01*
X128773164Y-112006290D01*
X128439898Y-111940000D01*
X128100102Y-111940000D01*
X127766836Y-112006290D01*
X127452906Y-112136324D01*
X127170376Y-112325105D01*
X126930105Y-112565376D01*
X126741324Y-112847906D01*
X126611290Y-113161836D01*
X126545000Y-113495102D01*
X125577482Y-113495102D01*
X125663887Y-113459312D01*
X125860593Y-113327878D01*
X126027878Y-113160593D01*
X126159312Y-112963887D01*
X126249846Y-112745319D01*
X126296000Y-112513288D01*
X126296000Y-112276712D01*
X126249846Y-112044681D01*
X126159312Y-111826113D01*
X126027878Y-111629407D01*
X125860593Y-111462122D01*
X125663887Y-111330688D01*
X125445319Y-111240154D01*
X125213288Y-111194000D01*
X124976712Y-111194000D01*
X124744681Y-111240154D01*
X124526113Y-111330688D01*
X124329407Y-111462122D01*
X124162122Y-111629407D01*
X124030688Y-111826113D01*
X123940154Y-112044681D01*
X123894000Y-112276712D01*
X89466000Y-112276712D01*
X89419846Y-112044681D01*
X89329312Y-111826113D01*
X89197878Y-111629407D01*
X89030593Y-111462122D01*
X88833887Y-111330688D01*
X88615319Y-111240154D01*
X88383288Y-111194000D01*
X88146712Y-111194000D01*
X87914681Y-111240154D01*
X87696113Y-111330688D01*
X87499407Y-111462122D01*
X87332122Y-111629407D01*
X87200688Y-111826113D01*
X87110154Y-112044681D01*
X87064000Y-112276712D01*
X86117199Y-112276712D01*
X85907094Y-112136324D01*
X85593164Y-112006290D01*
X85259898Y-111940000D01*
X84920102Y-111940000D01*
X84586836Y-112006290D01*
X84272906Y-112136324D01*
X83990376Y-112325105D01*
X83750105Y-112565376D01*
X83561324Y-112847906D01*
X83431290Y-113161836D01*
X83365000Y-113495102D01*
X82565000Y-113495102D01*
X82565000Y-112426791D01*
X82591959Y-112151838D01*
X82662576Y-111917945D01*
X82777280Y-111702219D01*
X82931701Y-111512880D01*
X83119958Y-111357141D01*
X83334875Y-111240936D01*
X83568277Y-111168686D01*
X83841202Y-111140000D01*
X129508209Y-111140000D01*
X129783162Y-111166959D01*
%TA.AperFunction,Conductor*%
D17*
G36*
X129783162Y-111166959D02*
G01*
X130017055Y-111237576D01*
X130232781Y-111352280D01*
X130422120Y-111506701D01*
X130577859Y-111694958D01*
X130694064Y-111909875D01*
X130766314Y-112143277D01*
X130795001Y-112416212D01*
X130795000Y-145383209D01*
X130768041Y-145658157D01*
X130697424Y-145892054D01*
X130582720Y-146107781D01*
X130428299Y-146297120D01*
X130240045Y-146452858D01*
X130025125Y-146569064D01*
X129791723Y-146641314D01*
X129518798Y-146670000D01*
X83851791Y-146670000D01*
X83576843Y-146643041D01*
X83342946Y-146572424D01*
X83127219Y-146457720D01*
X82937880Y-146303299D01*
X82782142Y-146115045D01*
X82665936Y-145900125D01*
X82593686Y-145666723D01*
X82565000Y-145393798D01*
X82565000Y-143975102D01*
X83365000Y-143975102D01*
X83365000Y-144314898D01*
X83431290Y-144648164D01*
X83561324Y-144962094D01*
X83750105Y-145244624D01*
X83990376Y-145484895D01*
X84272906Y-145673676D01*
X84586836Y-145803710D01*
X84920102Y-145870000D01*
X85259898Y-145870000D01*
X85593164Y-145803710D01*
X85907094Y-145673676D01*
X86189624Y-145484895D01*
X86377807Y-145296712D01*
X87064000Y-145296712D01*
X87064000Y-145533288D01*
X87110154Y-145765319D01*
X87200688Y-145983887D01*
X87332122Y-146180593D01*
X87499407Y-146347878D01*
X87696113Y-146479312D01*
X87914681Y-146569846D01*
X88146712Y-146616000D01*
X88383288Y-146616000D01*
X88615319Y-146569846D01*
X88833887Y-146479312D01*
X89030593Y-146347878D01*
X89197878Y-146180593D01*
X89329312Y-145983887D01*
X89419846Y-145765319D01*
X89466000Y-145533288D01*
X89466000Y-145296712D01*
X123894000Y-145296712D01*
X123894000Y-145533288D01*
X123940154Y-145765319D01*
X124030688Y-145983887D01*
X124162122Y-146180593D01*
X124329407Y-146347878D01*
X124526113Y-146479312D01*
X124744681Y-146569846D01*
X124976712Y-146616000D01*
X125213288Y-146616000D01*
X125445319Y-146569846D01*
X125663887Y-146479312D01*
X125860593Y-146347878D01*
X126027878Y-146180593D01*
X126159312Y-145983887D01*
X126249846Y-145765319D01*
X126296000Y-145533288D01*
X126296000Y-145296712D01*
X126249846Y-145064681D01*
X126159312Y-144846113D01*
X126027878Y-144649407D01*
X125860593Y-144482122D01*
X125663887Y-144350688D01*
X125445319Y-144260154D01*
X125213288Y-144214000D01*
X124976712Y-144214000D01*
X124744681Y-144260154D01*
X124526113Y-144350688D01*
X124329407Y-144482122D01*
X124162122Y-144649407D01*
X124030688Y-144846113D01*
X123940154Y-145064681D01*
X123894000Y-145296712D01*
X89466000Y-145296712D01*
X89419846Y-145064681D01*
X89329312Y-144846113D01*
X89197878Y-144649407D01*
X89030593Y-144482122D01*
X88833887Y-144350688D01*
X88615319Y-144260154D01*
X88383288Y-144214000D01*
X88146712Y-144214000D01*
X87914681Y-144260154D01*
X87696113Y-144350688D01*
X87499407Y-144482122D01*
X87332122Y-144649407D01*
X87200688Y-144846113D01*
X87110154Y-145064681D01*
X87064000Y-145296712D01*
X86377807Y-145296712D01*
X86429895Y-145244624D01*
X86618676Y-144962094D01*
X86748710Y-144648164D01*
X86815000Y-144314898D01*
X86815000Y-143975102D01*
X126545000Y-143975102D01*
X126545000Y-144314898D01*
X126611290Y-144648164D01*
X126741324Y-144962094D01*
X126930105Y-145244624D01*
X127170376Y-145484895D01*
X127452906Y-145673676D01*
X127766836Y-145803710D01*
X128100102Y-145870000D01*
X128439898Y-145870000D01*
X128773164Y-145803710D01*
X129087094Y-145673676D01*
X129369624Y-145484895D01*
X129609895Y-145244624D01*
X129798676Y-144962094D01*
X129928710Y-144648164D01*
X129995000Y-144314898D01*
X129995000Y-143975102D01*
X129928710Y-143641836D01*
X129798676Y-143327906D01*
X129609895Y-143045376D01*
X129369624Y-142805105D01*
X129087094Y-142616324D01*
X128773164Y-142486290D01*
X128439898Y-142420000D01*
X128100102Y-142420000D01*
X127766836Y-142486290D01*
X127452906Y-142616324D01*
X127170376Y-142805105D01*
X126930105Y-143045376D01*
X126741324Y-143327906D01*
X126611290Y-143641836D01*
X126545000Y-143975102D01*
X86815000Y-143975102D01*
X86748710Y-143641836D01*
X86618676Y-143327906D01*
X86429895Y-143045376D01*
X86189624Y-142805105D01*
X85907094Y-142616324D01*
X85593164Y-142486290D01*
X85259898Y-142420000D01*
X84920102Y-142420000D01*
X84586836Y-142486290D01*
X84272906Y-142616324D01*
X83990376Y-142805105D01*
X83750105Y-143045376D01*
X83561324Y-143327906D01*
X83431290Y-143641836D01*
X83365000Y-143975102D01*
X82565000Y-143975102D01*
X82565000Y-133350000D01*
X91442000Y-133350000D01*
X91442000Y-142875000D01*
X91454163Y-142998492D01*
X91490184Y-143117239D01*
X91548680Y-143226676D01*
X91627401Y-143322599D01*
X91723324Y-143401320D01*
X91832761Y-143459816D01*
X91951508Y-143495837D01*
X92075000Y-143508000D01*
X125095000Y-143508000D01*
X125218492Y-143495837D01*
X125337239Y-143459816D01*
X125446676Y-143401320D01*
X125542599Y-143322599D01*
X125621320Y-143226676D01*
X125679816Y-143117239D01*
X125715837Y-142998492D01*
X125728000Y-142875000D01*
X125728000Y-133350000D01*
X125715837Y-133226508D01*
X125679816Y-133107761D01*
X125621320Y-132998324D01*
X125542599Y-132902401D01*
X125446676Y-132823680D01*
X125337239Y-132765184D01*
X125218492Y-132729163D01*
X125095000Y-132717000D01*
X92075000Y-132717000D01*
X91951508Y-132729163D01*
X91832761Y-132765184D01*
X91723324Y-132823680D01*
X91627401Y-132902401D01*
X91548680Y-132998324D01*
X91490184Y-133107761D01*
X91454163Y-133226508D01*
X91442000Y-133350000D01*
X82565000Y-133350000D01*
X82565000Y-128208751D01*
X91932026Y-128208751D01*
X92078555Y-128431374D01*
X92374816Y-128576612D01*
X92693719Y-128661262D01*
X93023009Y-128682071D01*
X93350031Y-128638238D01*
X93662218Y-128531448D01*
X93849445Y-128431374D01*
X93935914Y-128300000D01*
X102844186Y-128300000D01*
X102851426Y-128373513D01*
X102872869Y-128444200D01*
X102907691Y-128509347D01*
X102954552Y-128566448D01*
X103011653Y-128613309D01*
X103076800Y-128648131D01*
X103147487Y-128669574D01*
X103221000Y-128676814D01*
X104302250Y-128675000D01*
X104396000Y-128581250D01*
X104396000Y-127125000D01*
X104646000Y-127125000D01*
X104646000Y-128581250D01*
X104739750Y-128675000D01*
X105821000Y-128676814D01*
X105894513Y-128669574D01*
X105965200Y-128648131D01*
X106030347Y-128613309D01*
X106087448Y-128566448D01*
X106134309Y-128509347D01*
X106169131Y-128444200D01*
X106190574Y-128373513D01*
X106197814Y-128300000D01*
X106196000Y-127218750D01*
X106102250Y-127125000D01*
X104646000Y-127125000D01*
X104396000Y-127125000D01*
X102939750Y-127125000D01*
X102846000Y-127218750D01*
X102844186Y-128300000D01*
X93935914Y-128300000D01*
X93995974Y-128208751D01*
X92964000Y-127176777D01*
X91932026Y-128208751D01*
X82565000Y-128208751D01*
X82565000Y-113495102D01*
X83365000Y-113495102D01*
X83365000Y-113834898D01*
X83431290Y-114168164D01*
X83561324Y-114482094D01*
X83750105Y-114764624D01*
X83990376Y-115004895D01*
X84272906Y-115193676D01*
X84586836Y-115323710D01*
X84920102Y-115390000D01*
X85259898Y-115390000D01*
X85593164Y-115323710D01*
X85907094Y-115193676D01*
X86189624Y-115004895D01*
X86429895Y-114764624D01*
X86618676Y-114482094D01*
X86748710Y-114168164D01*
X86815000Y-113834898D01*
X86815000Y-113495102D01*
X86748710Y-113161836D01*
X86618676Y-112847906D01*
X86429895Y-112565376D01*
X86189624Y-112325105D01*
X86117199Y-112276712D01*
X87064000Y-112276712D01*
X87064000Y-112513288D01*
X87110154Y-112745319D01*
X87200688Y-112963887D01*
X87332122Y-113160593D01*
X87499407Y-113327878D01*
X87696113Y-113459312D01*
X87791373Y-113498770D01*
X87775000Y-113665000D01*
X87775000Y-119380000D01*
X87796617Y-119599477D01*
X87826352Y-119697500D01*
X87796617Y-119795523D01*
X87775000Y-120015000D01*
X87775000Y-125095000D01*
X87796617Y-125314477D01*
X87860636Y-125525519D01*
X87964597Y-125720017D01*
X88104505Y-125890495D01*
X88274983Y-126030403D01*
X88469481Y-126134364D01*
X88680523Y-126198383D01*
X88900000Y-126220000D01*
X91480933Y-126220000D01*
X91387388Y-126410816D01*
X91302738Y-126729719D01*
X91281929Y-127059009D01*
X91325762Y-127386031D01*
X91432552Y-127698218D01*
X91532626Y-127885445D01*
X91755249Y-128031974D01*
X92787223Y-127000000D01*
X92773081Y-126985858D01*
X92949858Y-126809081D01*
X92964000Y-126823223D01*
X92978142Y-126809081D01*
X93154919Y-126985858D01*
X93140777Y-127000000D01*
X94172751Y-128031974D01*
X94395374Y-127885445D01*
X94540612Y-127589184D01*
X94625262Y-127270281D01*
X94646071Y-126940991D01*
X94602238Y-126613969D01*
X94495448Y-126301782D01*
X94451735Y-126220000D01*
X102845058Y-126220000D01*
X102846000Y-126781250D01*
X102939750Y-126875000D01*
X104396000Y-126875000D01*
X104396000Y-126855000D01*
X104646000Y-126855000D01*
X104646000Y-126875000D01*
X106102250Y-126875000D01*
X106196000Y-126781250D01*
X106196942Y-126220000D01*
X109220000Y-126220000D01*
X109439477Y-126198383D01*
X109650519Y-126134364D01*
X109845017Y-126030403D01*
X110015495Y-125890495D01*
X110155403Y-125720017D01*
X110259364Y-125525519D01*
X110323383Y-125314477D01*
X110345000Y-125095000D01*
X110345000Y-124139094D01*
X119465945Y-124139094D01*
X119549973Y-124364056D01*
X119676274Y-124568303D01*
X119839995Y-124743985D01*
X120034844Y-124884351D01*
X120253333Y-124984007D01*
X120335907Y-125009049D01*
X120525000Y-124949323D01*
X120525000Y-123950000D01*
X119525138Y-123950000D01*
X119465945Y-124139094D01*
X110345000Y-124139094D01*
X110345000Y-123510906D01*
X119465945Y-123510906D01*
X119525138Y-123700000D01*
X120525000Y-123700000D01*
X120525000Y-122700677D01*
X120775000Y-122700677D01*
X120775000Y-123700000D01*
X120795000Y-123700000D01*
X120795000Y-123950000D01*
X120775000Y-123950000D01*
X120775000Y-124949323D01*
X120964093Y-125009049D01*
X121046667Y-124984007D01*
X121265156Y-124884351D01*
X121460005Y-124743985D01*
X121623726Y-124568303D01*
X121711976Y-124425590D01*
X121711976Y-124675000D01*
X121724043Y-124797521D01*
X121759781Y-124915334D01*
X121817817Y-125023911D01*
X121895920Y-125119080D01*
X121991089Y-125197183D01*
X122099666Y-125255219D01*
X122217479Y-125290957D01*
X122340000Y-125303024D01*
X124040000Y-125303024D01*
X124162521Y-125290957D01*
X124280334Y-125255219D01*
X124388911Y-125197183D01*
X124484080Y-125119080D01*
X124562183Y-125023911D01*
X124620219Y-124915334D01*
X124655957Y-124797521D01*
X124668024Y-124675000D01*
X124668024Y-122975000D01*
X124655957Y-122852479D01*
X124620219Y-122734666D01*
X124562183Y-122626089D01*
X124484080Y-122530920D01*
X124388911Y-122452817D01*
X124280334Y-122394781D01*
X124162521Y-122359043D01*
X124040000Y-122346976D01*
X122340000Y-122346976D01*
X122217479Y-122359043D01*
X122099666Y-122394781D01*
X121991089Y-122452817D01*
X121895920Y-122530920D01*
X121817817Y-122626089D01*
X121759781Y-122734666D01*
X121724043Y-122852479D01*
X121711976Y-122975000D01*
X121711976Y-123224410D01*
X121623726Y-123081697D01*
X121460005Y-122906015D01*
X121265156Y-122765649D01*
X121046667Y-122665993D01*
X120964093Y-122640951D01*
X120775000Y-122700677D01*
X120525000Y-122700677D01*
X120335907Y-122640951D01*
X120253333Y-122665993D01*
X120034844Y-122765649D01*
X119839995Y-122906015D01*
X119676274Y-123081697D01*
X119549973Y-123285944D01*
X119465945Y-123510906D01*
X110345000Y-123510906D01*
X110345000Y-120015000D01*
X110323383Y-119795523D01*
X110293648Y-119697500D01*
X110323383Y-119599477D01*
X110345000Y-119380000D01*
X110345000Y-113665000D01*
X110323383Y-113445523D01*
X110259364Y-113234481D01*
X110155403Y-113039983D01*
X110015495Y-112869505D01*
X109845017Y-112729597D01*
X109650519Y-112625636D01*
X109439477Y-112561617D01*
X109220000Y-112540000D01*
X89460687Y-112540000D01*
X89466000Y-112513288D01*
X89466000Y-112276712D01*
X123894000Y-112276712D01*
X123894000Y-112513288D01*
X123940154Y-112745319D01*
X124030688Y-112963887D01*
X124162122Y-113160593D01*
X124329407Y-113327878D01*
X124526113Y-113459312D01*
X124744681Y-113549846D01*
X124976712Y-113596000D01*
X125213288Y-113596000D01*
X125445319Y-113549846D01*
X125577482Y-113495102D01*
X126545000Y-113495102D01*
X126545000Y-113834898D01*
X126611290Y-114168164D01*
X126741324Y-114482094D01*
X126930105Y-114764624D01*
X127170376Y-115004895D01*
X127452906Y-115193676D01*
X127766836Y-115323710D01*
X128100102Y-115390000D01*
X128439898Y-115390000D01*
X128773164Y-115323710D01*
X129087094Y-115193676D01*
X129369624Y-115004895D01*
X129609895Y-114764624D01*
X129798676Y-114482094D01*
X129928710Y-114168164D01*
X129995000Y-113834898D01*
X129995000Y-113495102D01*
X129928710Y-113161836D01*
X129798676Y-112847906D01*
X129609895Y-112565376D01*
X129369624Y-112325105D01*
X129087094Y-112136324D01*
X128773164Y-112006290D01*
X128439898Y-111940000D01*
X128100102Y-111940000D01*
X127766836Y-112006290D01*
X127452906Y-112136324D01*
X127170376Y-112325105D01*
X126930105Y-112565376D01*
X126741324Y-112847906D01*
X126611290Y-113161836D01*
X126545000Y-113495102D01*
X125577482Y-113495102D01*
X125663887Y-113459312D01*
X125860593Y-113327878D01*
X126027878Y-113160593D01*
X126159312Y-112963887D01*
X126249846Y-112745319D01*
X126296000Y-112513288D01*
X126296000Y-112276712D01*
X126249846Y-112044681D01*
X126159312Y-111826113D01*
X126027878Y-111629407D01*
X125860593Y-111462122D01*
X125663887Y-111330688D01*
X125445319Y-111240154D01*
X125213288Y-111194000D01*
X124976712Y-111194000D01*
X124744681Y-111240154D01*
X124526113Y-111330688D01*
X124329407Y-111462122D01*
X124162122Y-111629407D01*
X124030688Y-111826113D01*
X123940154Y-112044681D01*
X123894000Y-112276712D01*
X89466000Y-112276712D01*
X89419846Y-112044681D01*
X89329312Y-111826113D01*
X89197878Y-111629407D01*
X89030593Y-111462122D01*
X88833887Y-111330688D01*
X88615319Y-111240154D01*
X88383288Y-111194000D01*
X88146712Y-111194000D01*
X87914681Y-111240154D01*
X87696113Y-111330688D01*
X87499407Y-111462122D01*
X87332122Y-111629407D01*
X87200688Y-111826113D01*
X87110154Y-112044681D01*
X87064000Y-112276712D01*
X86117199Y-112276712D01*
X85907094Y-112136324D01*
X85593164Y-112006290D01*
X85259898Y-111940000D01*
X84920102Y-111940000D01*
X84586836Y-112006290D01*
X84272906Y-112136324D01*
X83990376Y-112325105D01*
X83750105Y-112565376D01*
X83561324Y-112847906D01*
X83431290Y-113161836D01*
X83365000Y-113495102D01*
X82565000Y-113495102D01*
X82565000Y-112426791D01*
X82591959Y-112151838D01*
X82662576Y-111917945D01*
X82777280Y-111702219D01*
X82931701Y-111512880D01*
X83119958Y-111357141D01*
X83334875Y-111240936D01*
X83568277Y-111168686D01*
X83841202Y-111140000D01*
X129508209Y-111140000D01*
X129783162Y-111166959D01*
G37*
%TD.AperFunction*%
%TD*%
D16*
%TO.N,/24VIN*%
X109095000Y-118890000D02*
X89025000Y-118890000D01*
X89025000Y-113921346D01*
X89070725Y-113902406D01*
X89238953Y-113790000D01*
X109095000Y-113790000D01*
X109095000Y-118890000D01*
%TA.AperFunction,Conductor*%
D17*
G36*
X109095000Y-118890000D02*
G01*
X89025000Y-118890000D01*
X89025000Y-113921346D01*
X89070725Y-113902406D01*
X89238953Y-113790000D01*
X109095000Y-113790000D01*
X109095000Y-118890000D01*
G37*
%TD.AperFunction*%
%TD*%
D16*
%TO.N,/12VIN*%
X109095000Y-124970000D02*
X106677253Y-124970000D01*
X106620344Y-124900656D01*
X106449040Y-124760071D01*
X106253602Y-124655607D01*
X106041538Y-124591278D01*
X105821000Y-124569557D01*
X103221000Y-124569557D01*
X103000462Y-124591278D01*
X102788398Y-124655607D01*
X102592960Y-124760071D01*
X102421656Y-124900656D01*
X102364747Y-124970000D01*
X94290776Y-124970000D01*
X94112668Y-124850992D01*
X93671347Y-124668191D01*
X93202842Y-124575000D01*
X92725158Y-124575000D01*
X92256653Y-124668191D01*
X91815332Y-124850992D01*
X91637224Y-124970000D01*
X89025000Y-124970000D01*
X89025000Y-120140000D01*
X109095000Y-120140000D01*
X109095000Y-124970000D01*
%TA.AperFunction,Conductor*%
D17*
G36*
X109095000Y-124970000D02*
G01*
X106677253Y-124970000D01*
X106620344Y-124900656D01*
X106449040Y-124760071D01*
X106253602Y-124655607D01*
X106041538Y-124591278D01*
X105821000Y-124569557D01*
X103221000Y-124569557D01*
X103000462Y-124591278D01*
X102788398Y-124655607D01*
X102592960Y-124760071D01*
X102421656Y-124900656D01*
X102364747Y-124970000D01*
X94290776Y-124970000D01*
X94112668Y-124850992D01*
X93671347Y-124668191D01*
X93202842Y-124575000D01*
X92725158Y-124575000D01*
X92256653Y-124668191D01*
X91815332Y-124850992D01*
X91637224Y-124970000D01*
X89025000Y-124970000D01*
X89025000Y-120140000D01*
X109095000Y-120140000D01*
X109095000Y-124970000D01*
G37*
%TD.AperFunction*%
%TD*%
D18*
%TO.N,/DRAIN*%
X124968000Y-142748000D02*
X92202000Y-142748000D01*
X92202000Y-141635000D01*
X93319966Y-141635000D01*
X93332072Y-141757914D01*
X93367924Y-141876104D01*
X93426146Y-141985028D01*
X93504499Y-142080501D01*
X93599972Y-142158854D01*
X93708896Y-142217076D01*
X93827086Y-142252928D01*
X93950000Y-142265034D01*
X94720250Y-142262000D01*
X94877000Y-142105250D01*
X94877000Y-140708000D01*
X95623000Y-140708000D01*
X95623000Y-142105250D01*
X95779750Y-142262000D01*
X96550000Y-142265034D01*
X96672914Y-142252928D01*
X96791104Y-142217076D01*
X96900028Y-142158854D01*
X96995501Y-142080501D01*
X97073854Y-141985028D01*
X97132076Y-141876104D01*
X97146319Y-141829148D01*
X99363354Y-141829148D01*
X99514937Y-142091423D01*
X99873260Y-142216685D01*
X100249135Y-142269634D01*
X100628117Y-142248236D01*
X100995643Y-142153314D01*
X101145063Y-142091423D01*
X101296646Y-141829148D01*
X104443354Y-141829148D01*
X104594937Y-142091423D01*
X104953260Y-142216685D01*
X105329135Y-142269634D01*
X105708117Y-142248236D01*
X106075643Y-142153314D01*
X106225063Y-142091423D01*
X106376646Y-141829148D01*
X106182498Y-141635000D01*
X109829966Y-141635000D01*
X109842072Y-141757914D01*
X109877924Y-141876104D01*
X109936146Y-141985028D01*
X110014499Y-142080501D01*
X110109972Y-142158854D01*
X110218896Y-142217076D01*
X110337086Y-142252928D01*
X110460000Y-142265034D01*
X111230250Y-142262000D01*
X111387000Y-142105250D01*
X111387000Y-140708000D01*
X112133000Y-140708000D01*
X112133000Y-142105250D01*
X112289750Y-142262000D01*
X113060000Y-142265034D01*
X113182914Y-142252928D01*
X113301104Y-142217076D01*
X113410028Y-142158854D01*
X113505501Y-142080501D01*
X113583854Y-141985028D01*
X113642076Y-141876104D01*
X113656319Y-141829148D01*
X115873354Y-141829148D01*
X116024937Y-142091423D01*
X116383260Y-142216685D01*
X116759135Y-142269634D01*
X117138117Y-142248236D01*
X117505643Y-142153314D01*
X117655063Y-142091423D01*
X117806646Y-141829148D01*
X120953354Y-141829148D01*
X121104937Y-142091423D01*
X121463260Y-142216685D01*
X121839135Y-142269634D01*
X122218117Y-142248236D01*
X122585643Y-142153314D01*
X122735063Y-142091423D01*
X122886646Y-141829148D01*
X121920000Y-140862502D01*
X120953354Y-141829148D01*
X117806646Y-141829148D01*
X116840000Y-140862502D01*
X115873354Y-141829148D01*
X113656319Y-141829148D01*
X113677928Y-141757914D01*
X113690034Y-141635000D01*
X113687000Y-140864750D01*
X113530250Y-140708000D01*
X112133000Y-140708000D01*
X111387000Y-140708000D01*
X109989750Y-140708000D01*
X109833000Y-140864750D01*
X109829966Y-141635000D01*
X106182498Y-141635000D01*
X105410000Y-140862502D01*
X104443354Y-141829148D01*
X101296646Y-141829148D01*
X100330000Y-140862502D01*
X99363354Y-141829148D01*
X97146319Y-141829148D01*
X97167928Y-141757914D01*
X97180034Y-141635000D01*
X97177000Y-140864750D01*
X97020250Y-140708000D01*
X95623000Y-140708000D01*
X94877000Y-140708000D01*
X93479750Y-140708000D01*
X93323000Y-140864750D01*
X93319966Y-141635000D01*
X92202000Y-141635000D01*
X92202000Y-140254135D01*
X98395366Y-140254135D01*
X98416764Y-140633117D01*
X98511686Y-141000643D01*
X98573577Y-141150063D01*
X98835852Y-141301646D01*
X99802498Y-140335000D01*
X100857502Y-140335000D01*
X101824148Y-141301646D01*
X102086423Y-141150063D01*
X102211685Y-140791740D01*
X102264634Y-140415865D01*
X102255503Y-140254135D01*
X103475366Y-140254135D01*
X103496764Y-140633117D01*
X103591686Y-141000643D01*
X103653577Y-141150063D01*
X103915852Y-141301646D01*
X104882498Y-140335000D01*
X105937502Y-140335000D01*
X106904148Y-141301646D01*
X107166423Y-141150063D01*
X107291685Y-140791740D01*
X107344634Y-140415865D01*
X107335503Y-140254135D01*
X114905366Y-140254135D01*
X114926764Y-140633117D01*
X115021686Y-141000643D01*
X115083577Y-141150063D01*
X115345852Y-141301646D01*
X116312498Y-140335000D01*
X117367502Y-140335000D01*
X118334148Y-141301646D01*
X118596423Y-141150063D01*
X118721685Y-140791740D01*
X118774634Y-140415865D01*
X118765503Y-140254135D01*
X119985366Y-140254135D01*
X120006764Y-140633117D01*
X120101686Y-141000643D01*
X120163577Y-141150063D01*
X120425852Y-141301646D01*
X121392498Y-140335000D01*
X122447502Y-140335000D01*
X123414148Y-141301646D01*
X123676423Y-141150063D01*
X123801685Y-140791740D01*
X123854634Y-140415865D01*
X123833236Y-140036883D01*
X123738314Y-139669357D01*
X123676423Y-139519937D01*
X123414148Y-139368354D01*
X122447502Y-140335000D01*
X121392498Y-140335000D01*
X120425852Y-139368354D01*
X120163577Y-139519937D01*
X120038315Y-139878260D01*
X119985366Y-140254135D01*
X118765503Y-140254135D01*
X118753236Y-140036883D01*
X118658314Y-139669357D01*
X118596423Y-139519937D01*
X118334148Y-139368354D01*
X117367502Y-140335000D01*
X116312498Y-140335000D01*
X115345852Y-139368354D01*
X115083577Y-139519937D01*
X114958315Y-139878260D01*
X114905366Y-140254135D01*
X107335503Y-140254135D01*
X107323236Y-140036883D01*
X107228314Y-139669357D01*
X107166423Y-139519937D01*
X106904148Y-139368354D01*
X105937502Y-140335000D01*
X104882498Y-140335000D01*
X103915852Y-139368354D01*
X103653577Y-139519937D01*
X103528315Y-139878260D01*
X103475366Y-140254135D01*
X102255503Y-140254135D01*
X102243236Y-140036883D01*
X102148314Y-139669357D01*
X102086423Y-139519937D01*
X101824148Y-139368354D01*
X100857502Y-140335000D01*
X99802498Y-140335000D01*
X98835852Y-139368354D01*
X98573577Y-139519937D01*
X98448315Y-139878260D01*
X98395366Y-140254135D01*
X92202000Y-140254135D01*
X92202000Y-139035000D01*
X93319966Y-139035000D01*
X93323000Y-139805250D01*
X93479750Y-139962000D01*
X94877000Y-139962000D01*
X94877000Y-138564750D01*
X95623000Y-138564750D01*
X95623000Y-139962000D01*
X97020250Y-139962000D01*
X97177000Y-139805250D01*
X97180034Y-139035000D01*
X97167928Y-138912086D01*
X97146320Y-138840852D01*
X99363354Y-138840852D01*
X100330000Y-139807498D01*
X101296646Y-138840852D01*
X104443354Y-138840852D01*
X105410000Y-139807498D01*
X106182498Y-139035000D01*
X109829966Y-139035000D01*
X109833000Y-139805250D01*
X109989750Y-139962000D01*
X111387000Y-139962000D01*
X111387000Y-138564750D01*
X112133000Y-138564750D01*
X112133000Y-139962000D01*
X113530250Y-139962000D01*
X113687000Y-139805250D01*
X113690034Y-139035000D01*
X113677928Y-138912086D01*
X113656320Y-138840852D01*
X115873354Y-138840852D01*
X116840000Y-139807498D01*
X117806646Y-138840852D01*
X120953354Y-138840852D01*
X121920000Y-139807498D01*
X122886646Y-138840852D01*
X122735063Y-138578577D01*
X122376740Y-138453315D01*
X122000865Y-138400366D01*
X121621883Y-138421764D01*
X121254357Y-138516686D01*
X121104937Y-138578577D01*
X120953354Y-138840852D01*
X117806646Y-138840852D01*
X117655063Y-138578577D01*
X117296740Y-138453315D01*
X116920865Y-138400366D01*
X116541883Y-138421764D01*
X116174357Y-138516686D01*
X116024937Y-138578577D01*
X115873354Y-138840852D01*
X113656320Y-138840852D01*
X113642076Y-138793896D01*
X113583854Y-138684972D01*
X113505501Y-138589499D01*
X113410028Y-138511146D01*
X113301104Y-138452924D01*
X113182914Y-138417072D01*
X113060000Y-138404966D01*
X112289750Y-138408000D01*
X112133000Y-138564750D01*
X111387000Y-138564750D01*
X111230250Y-138408000D01*
X110460000Y-138404966D01*
X110337086Y-138417072D01*
X110218896Y-138452924D01*
X110109972Y-138511146D01*
X110014499Y-138589499D01*
X109936146Y-138684972D01*
X109877924Y-138793896D01*
X109842072Y-138912086D01*
X109829966Y-139035000D01*
X106182498Y-139035000D01*
X106376646Y-138840852D01*
X106225063Y-138578577D01*
X105866740Y-138453315D01*
X105490865Y-138400366D01*
X105111883Y-138421764D01*
X104744357Y-138516686D01*
X104594937Y-138578577D01*
X104443354Y-138840852D01*
X101296646Y-138840852D01*
X101145063Y-138578577D01*
X100786740Y-138453315D01*
X100410865Y-138400366D01*
X100031883Y-138421764D01*
X99664357Y-138516686D01*
X99514937Y-138578577D01*
X99363354Y-138840852D01*
X97146320Y-138840852D01*
X97132076Y-138793896D01*
X97073854Y-138684972D01*
X96995501Y-138589499D01*
X96900028Y-138511146D01*
X96791104Y-138452924D01*
X96672914Y-138417072D01*
X96550000Y-138404966D01*
X95779750Y-138408000D01*
X95623000Y-138564750D01*
X94877000Y-138564750D01*
X94720250Y-138408000D01*
X93950000Y-138404966D01*
X93827086Y-138417072D01*
X93708896Y-138452924D01*
X93599972Y-138511146D01*
X93504499Y-138589499D01*
X93426146Y-138684972D01*
X93367924Y-138793896D01*
X93332072Y-138912086D01*
X93319966Y-139035000D01*
X92202000Y-139035000D01*
X92202000Y-133477000D01*
X124968000Y-133477000D01*
X124968000Y-142748000D01*
%TA.AperFunction,Conductor*%
D17*
G36*
X124968000Y-142748000D02*
G01*
X92202000Y-142748000D01*
X92202000Y-141635000D01*
X93319966Y-141635000D01*
X93332072Y-141757914D01*
X93367924Y-141876104D01*
X93426146Y-141985028D01*
X93504499Y-142080501D01*
X93599972Y-142158854D01*
X93708896Y-142217076D01*
X93827086Y-142252928D01*
X93950000Y-142265034D01*
X94720250Y-142262000D01*
X94877000Y-142105250D01*
X94877000Y-140708000D01*
X95623000Y-140708000D01*
X95623000Y-142105250D01*
X95779750Y-142262000D01*
X96550000Y-142265034D01*
X96672914Y-142252928D01*
X96791104Y-142217076D01*
X96900028Y-142158854D01*
X96995501Y-142080501D01*
X97073854Y-141985028D01*
X97132076Y-141876104D01*
X97146319Y-141829148D01*
X99363354Y-141829148D01*
X99514937Y-142091423D01*
X99873260Y-142216685D01*
X100249135Y-142269634D01*
X100628117Y-142248236D01*
X100995643Y-142153314D01*
X101145063Y-142091423D01*
X101296646Y-141829148D01*
X104443354Y-141829148D01*
X104594937Y-142091423D01*
X104953260Y-142216685D01*
X105329135Y-142269634D01*
X105708117Y-142248236D01*
X106075643Y-142153314D01*
X106225063Y-142091423D01*
X106376646Y-141829148D01*
X106182498Y-141635000D01*
X109829966Y-141635000D01*
X109842072Y-141757914D01*
X109877924Y-141876104D01*
X109936146Y-141985028D01*
X110014499Y-142080501D01*
X110109972Y-142158854D01*
X110218896Y-142217076D01*
X110337086Y-142252928D01*
X110460000Y-142265034D01*
X111230250Y-142262000D01*
X111387000Y-142105250D01*
X111387000Y-140708000D01*
X112133000Y-140708000D01*
X112133000Y-142105250D01*
X112289750Y-142262000D01*
X113060000Y-142265034D01*
X113182914Y-142252928D01*
X113301104Y-142217076D01*
X113410028Y-142158854D01*
X113505501Y-142080501D01*
X113583854Y-141985028D01*
X113642076Y-141876104D01*
X113656319Y-141829148D01*
X115873354Y-141829148D01*
X116024937Y-142091423D01*
X116383260Y-142216685D01*
X116759135Y-142269634D01*
X117138117Y-142248236D01*
X117505643Y-142153314D01*
X117655063Y-142091423D01*
X117806646Y-141829148D01*
X120953354Y-141829148D01*
X121104937Y-142091423D01*
X121463260Y-142216685D01*
X121839135Y-142269634D01*
X122218117Y-142248236D01*
X122585643Y-142153314D01*
X122735063Y-142091423D01*
X122886646Y-141829148D01*
X121920000Y-140862502D01*
X120953354Y-141829148D01*
X117806646Y-141829148D01*
X116840000Y-140862502D01*
X115873354Y-141829148D01*
X113656319Y-141829148D01*
X113677928Y-141757914D01*
X113690034Y-141635000D01*
X113687000Y-140864750D01*
X113530250Y-140708000D01*
X112133000Y-140708000D01*
X111387000Y-140708000D01*
X109989750Y-140708000D01*
X109833000Y-140864750D01*
X109829966Y-141635000D01*
X106182498Y-141635000D01*
X105410000Y-140862502D01*
X104443354Y-141829148D01*
X101296646Y-141829148D01*
X100330000Y-140862502D01*
X99363354Y-141829148D01*
X97146319Y-141829148D01*
X97167928Y-141757914D01*
X97180034Y-141635000D01*
X97177000Y-140864750D01*
X97020250Y-140708000D01*
X95623000Y-140708000D01*
X94877000Y-140708000D01*
X93479750Y-140708000D01*
X93323000Y-140864750D01*
X93319966Y-141635000D01*
X92202000Y-141635000D01*
X92202000Y-140254135D01*
X98395366Y-140254135D01*
X98416764Y-140633117D01*
X98511686Y-141000643D01*
X98573577Y-141150063D01*
X98835852Y-141301646D01*
X99802498Y-140335000D01*
X100857502Y-140335000D01*
X101824148Y-141301646D01*
X102086423Y-141150063D01*
X102211685Y-140791740D01*
X102264634Y-140415865D01*
X102255503Y-140254135D01*
X103475366Y-140254135D01*
X103496764Y-140633117D01*
X103591686Y-141000643D01*
X103653577Y-141150063D01*
X103915852Y-141301646D01*
X104882498Y-140335000D01*
X105937502Y-140335000D01*
X106904148Y-141301646D01*
X107166423Y-141150063D01*
X107291685Y-140791740D01*
X107344634Y-140415865D01*
X107335503Y-140254135D01*
X114905366Y-140254135D01*
X114926764Y-140633117D01*
X115021686Y-141000643D01*
X115083577Y-141150063D01*
X115345852Y-141301646D01*
X116312498Y-140335000D01*
X117367502Y-140335000D01*
X118334148Y-141301646D01*
X118596423Y-141150063D01*
X118721685Y-140791740D01*
X118774634Y-140415865D01*
X118765503Y-140254135D01*
X119985366Y-140254135D01*
X120006764Y-140633117D01*
X120101686Y-141000643D01*
X120163577Y-141150063D01*
X120425852Y-141301646D01*
X121392498Y-140335000D01*
X122447502Y-140335000D01*
X123414148Y-141301646D01*
X123676423Y-141150063D01*
X123801685Y-140791740D01*
X123854634Y-140415865D01*
X123833236Y-140036883D01*
X123738314Y-139669357D01*
X123676423Y-139519937D01*
X123414148Y-139368354D01*
X122447502Y-140335000D01*
X121392498Y-140335000D01*
X120425852Y-139368354D01*
X120163577Y-139519937D01*
X120038315Y-139878260D01*
X119985366Y-140254135D01*
X118765503Y-140254135D01*
X118753236Y-140036883D01*
X118658314Y-139669357D01*
X118596423Y-139519937D01*
X118334148Y-139368354D01*
X117367502Y-140335000D01*
X116312498Y-140335000D01*
X115345852Y-139368354D01*
X115083577Y-139519937D01*
X114958315Y-139878260D01*
X114905366Y-140254135D01*
X107335503Y-140254135D01*
X107323236Y-140036883D01*
X107228314Y-139669357D01*
X107166423Y-139519937D01*
X106904148Y-139368354D01*
X105937502Y-140335000D01*
X104882498Y-140335000D01*
X103915852Y-139368354D01*
X103653577Y-139519937D01*
X103528315Y-139878260D01*
X103475366Y-140254135D01*
X102255503Y-140254135D01*
X102243236Y-140036883D01*
X102148314Y-139669357D01*
X102086423Y-139519937D01*
X101824148Y-139368354D01*
X100857502Y-140335000D01*
X99802498Y-140335000D01*
X98835852Y-139368354D01*
X98573577Y-139519937D01*
X98448315Y-139878260D01*
X98395366Y-140254135D01*
X92202000Y-140254135D01*
X92202000Y-139035000D01*
X93319966Y-139035000D01*
X93323000Y-139805250D01*
X93479750Y-139962000D01*
X94877000Y-139962000D01*
X94877000Y-138564750D01*
X95623000Y-138564750D01*
X95623000Y-139962000D01*
X97020250Y-139962000D01*
X97177000Y-139805250D01*
X97180034Y-139035000D01*
X97167928Y-138912086D01*
X97146320Y-138840852D01*
X99363354Y-138840852D01*
X100330000Y-139807498D01*
X101296646Y-138840852D01*
X104443354Y-138840852D01*
X105410000Y-139807498D01*
X106182498Y-139035000D01*
X109829966Y-139035000D01*
X109833000Y-139805250D01*
X109989750Y-139962000D01*
X111387000Y-139962000D01*
X111387000Y-138564750D01*
X112133000Y-138564750D01*
X112133000Y-139962000D01*
X113530250Y-139962000D01*
X113687000Y-139805250D01*
X113690034Y-139035000D01*
X113677928Y-138912086D01*
X113656320Y-138840852D01*
X115873354Y-138840852D01*
X116840000Y-139807498D01*
X117806646Y-138840852D01*
X120953354Y-138840852D01*
X121920000Y-139807498D01*
X122886646Y-138840852D01*
X122735063Y-138578577D01*
X122376740Y-138453315D01*
X122000865Y-138400366D01*
X121621883Y-138421764D01*
X121254357Y-138516686D01*
X121104937Y-138578577D01*
X120953354Y-138840852D01*
X117806646Y-138840852D01*
X117655063Y-138578577D01*
X117296740Y-138453315D01*
X116920865Y-138400366D01*
X116541883Y-138421764D01*
X116174357Y-138516686D01*
X116024937Y-138578577D01*
X115873354Y-138840852D01*
X113656320Y-138840852D01*
X113642076Y-138793896D01*
X113583854Y-138684972D01*
X113505501Y-138589499D01*
X113410028Y-138511146D01*
X113301104Y-138452924D01*
X113182914Y-138417072D01*
X113060000Y-138404966D01*
X112289750Y-138408000D01*
X112133000Y-138564750D01*
X111387000Y-138564750D01*
X111230250Y-138408000D01*
X110460000Y-138404966D01*
X110337086Y-138417072D01*
X110218896Y-138452924D01*
X110109972Y-138511146D01*
X110014499Y-138589499D01*
X109936146Y-138684972D01*
X109877924Y-138793896D01*
X109842072Y-138912086D01*
X109829966Y-139035000D01*
X106182498Y-139035000D01*
X106376646Y-138840852D01*
X106225063Y-138578577D01*
X105866740Y-138453315D01*
X105490865Y-138400366D01*
X105111883Y-138421764D01*
X104744357Y-138516686D01*
X104594937Y-138578577D01*
X104443354Y-138840852D01*
X101296646Y-138840852D01*
X101145063Y-138578577D01*
X100786740Y-138453315D01*
X100410865Y-138400366D01*
X100031883Y-138421764D01*
X99664357Y-138516686D01*
X99514937Y-138578577D01*
X99363354Y-138840852D01*
X97146320Y-138840852D01*
X97132076Y-138793896D01*
X97073854Y-138684972D01*
X96995501Y-138589499D01*
X96900028Y-138511146D01*
X96791104Y-138452924D01*
X96672914Y-138417072D01*
X96550000Y-138404966D01*
X95779750Y-138408000D01*
X95623000Y-138564750D01*
X94877000Y-138564750D01*
X94720250Y-138408000D01*
X93950000Y-138404966D01*
X93827086Y-138417072D01*
X93708896Y-138452924D01*
X93599972Y-138511146D01*
X93504499Y-138589499D01*
X93426146Y-138684972D01*
X93367924Y-138793896D01*
X93332072Y-138912086D01*
X93319966Y-139035000D01*
X92202000Y-139035000D01*
X92202000Y-133477000D01*
X124968000Y-133477000D01*
X124968000Y-142748000D01*
G37*
%TD.AperFunction*%
%TD*%
M02*
