%TF.GenerationSoftware,KiCad,Pcbnew,5.1.10*%
%TF.CreationDate,2021-12-10T00:48:24+02:00*%
%TF.ProjectId,pwm-controller,70776d2d-636f-46e7-9472-6f6c6c65722e,rev?*%
%TF.SameCoordinates,Original*%
%TF.FileFunction,Legend,Top*%
%TF.FilePolarity,Positive*%
%FSLAX46Y46*%
G04 Gerber Fmt 4.6, Leading zero omitted, Abs format (unit mm)*
G04 Created by KiCad (PCBNEW 5.1.10) date 2021-12-10 00:48:24*
%MOMM*%
%LPD*%
G01*
G04 APERTURE LIST*
%ADD10C,0.150000*%
%ADD11C,0.120000*%
%ADD12O,1.700000X1.700000*%
%ADD13R,1.700000X1.700000*%
%ADD14C,1.310000*%
%ADD15C,2.600000*%
%ADD16R,2.600000X2.600000*%
%ADD17C,2.200000*%
%ADD18R,0.800000X0.900000*%
%ADD19C,0.100000*%
%ADD20R,0.900000X1.300000*%
%ADD21R,1.800000X2.500000*%
%ADD22R,2.500000X1.800000*%
G04 APERTURE END LIST*
D10*
X122701190Y-126772142D02*
X122701190Y-125872142D01*
X123005952Y-125872142D01*
X123082142Y-125915000D01*
X123120238Y-125957857D01*
X123158333Y-126043571D01*
X123158333Y-126172142D01*
X123120238Y-126257857D01*
X123082142Y-126300714D01*
X123005952Y-126343571D01*
X122701190Y-126343571D01*
X123425000Y-125872142D02*
X123615476Y-126772142D01*
X123767857Y-126129285D01*
X123920238Y-126772142D01*
X124110714Y-125872142D01*
X124415476Y-126772142D02*
X124415476Y-125872142D01*
X124682142Y-126515000D01*
X124948809Y-125872142D01*
X124948809Y-126772142D01*
X119405476Y-125915000D02*
X119329285Y-125872142D01*
X119215000Y-125872142D01*
X119100714Y-125915000D01*
X119024523Y-126000714D01*
X118986428Y-126086428D01*
X118948333Y-126257857D01*
X118948333Y-126386428D01*
X118986428Y-126557857D01*
X119024523Y-126643571D01*
X119100714Y-126729285D01*
X119215000Y-126772142D01*
X119291190Y-126772142D01*
X119405476Y-126729285D01*
X119443571Y-126686428D01*
X119443571Y-126386428D01*
X119291190Y-126386428D01*
X119786428Y-126772142D02*
X119786428Y-125872142D01*
X120243571Y-126772142D01*
X120243571Y-125872142D01*
X120624523Y-126772142D02*
X120624523Y-125872142D01*
X120815000Y-125872142D01*
X120929285Y-125915000D01*
X121005476Y-126000714D01*
X121043571Y-126086428D01*
X121081666Y-126257857D01*
X121081666Y-126386428D01*
X121043571Y-126557857D01*
X121005476Y-126643571D01*
X120929285Y-126729285D01*
X120815000Y-126772142D01*
X120624523Y-126772142D01*
X84649833Y-120130000D02*
X84611738Y-120087142D01*
X84535547Y-119958571D01*
X84497452Y-119872857D01*
X84459357Y-119744285D01*
X84421261Y-119530000D01*
X84421261Y-119358571D01*
X84459357Y-119144285D01*
X84497452Y-119015714D01*
X84535547Y-118930000D01*
X84611738Y-118801428D01*
X84649833Y-118758571D01*
X85068880Y-119787142D02*
X84992690Y-119744285D01*
X84954595Y-119701428D01*
X84916500Y-119615714D01*
X84916500Y-119358571D01*
X84954595Y-119272857D01*
X84992690Y-119230000D01*
X85068880Y-119187142D01*
X85183166Y-119187142D01*
X85259357Y-119230000D01*
X85297452Y-119272857D01*
X85335547Y-119358571D01*
X85335547Y-119615714D01*
X85297452Y-119701428D01*
X85259357Y-119744285D01*
X85183166Y-119787142D01*
X85068880Y-119787142D01*
X85678404Y-119787142D02*
X85678404Y-119187142D01*
X85678404Y-119358571D02*
X85716500Y-119272857D01*
X85754595Y-119230000D01*
X85830785Y-119187142D01*
X85906976Y-119187142D01*
X86097452Y-120130000D02*
X86135547Y-120087142D01*
X86211738Y-119958571D01*
X86249833Y-119872857D01*
X86287928Y-119744285D01*
X86326023Y-119530000D01*
X86326023Y-119358571D01*
X86287928Y-119144285D01*
X86249833Y-119015714D01*
X86211738Y-118930000D01*
X86135547Y-118801428D01*
X86097452Y-118758571D01*
X85957928Y-126550000D02*
X85881738Y-126507142D01*
X85767452Y-126507142D01*
X85653166Y-126550000D01*
X85576976Y-126635714D01*
X85538880Y-126721428D01*
X85500785Y-126892857D01*
X85500785Y-127021428D01*
X85538880Y-127192857D01*
X85576976Y-127278571D01*
X85653166Y-127364285D01*
X85767452Y-127407142D01*
X85843642Y-127407142D01*
X85957928Y-127364285D01*
X85996023Y-127321428D01*
X85996023Y-127021428D01*
X85843642Y-127021428D01*
X86338880Y-127407142D02*
X86338880Y-126507142D01*
X86796023Y-127407142D01*
X86796023Y-126507142D01*
X87176976Y-127407142D02*
X87176976Y-126507142D01*
X87367452Y-126507142D01*
X87481738Y-126550000D01*
X87557928Y-126635714D01*
X87596023Y-126721428D01*
X87634119Y-126892857D01*
X87634119Y-127021428D01*
X87596023Y-127192857D01*
X87557928Y-127278571D01*
X87481738Y-127364285D01*
X87367452Y-127407142D01*
X87176976Y-127407142D01*
X83253166Y-121984285D02*
X83862690Y-121984285D01*
X83557928Y-122327142D02*
X83557928Y-121641428D01*
X84586500Y-121427142D02*
X84434119Y-121427142D01*
X84357928Y-121470000D01*
X84319833Y-121512857D01*
X84243642Y-121641428D01*
X84205547Y-121812857D01*
X84205547Y-122155714D01*
X84243642Y-122241428D01*
X84281738Y-122284285D01*
X84357928Y-122327142D01*
X84510309Y-122327142D01*
X84586500Y-122284285D01*
X84624595Y-122241428D01*
X84662690Y-122155714D01*
X84662690Y-121941428D01*
X84624595Y-121855714D01*
X84586500Y-121812857D01*
X84510309Y-121770000D01*
X84357928Y-121770000D01*
X84281738Y-121812857D01*
X84243642Y-121855714D01*
X84205547Y-121941428D01*
X85005547Y-122241428D02*
X85043642Y-122284285D01*
X85005547Y-122327142D01*
X84967452Y-122284285D01*
X85005547Y-122241428D01*
X85005547Y-122327142D01*
X85386500Y-122241428D02*
X85424595Y-122284285D01*
X85386500Y-122327142D01*
X85348404Y-122284285D01*
X85386500Y-122241428D01*
X85386500Y-122327142D01*
X86186500Y-122327142D02*
X85729357Y-122327142D01*
X85957928Y-122327142D02*
X85957928Y-121427142D01*
X85881738Y-121555714D01*
X85805547Y-121641428D01*
X85729357Y-121684285D01*
X86643642Y-121812857D02*
X86567452Y-121770000D01*
X86529357Y-121727142D01*
X86491261Y-121641428D01*
X86491261Y-121598571D01*
X86529357Y-121512857D01*
X86567452Y-121470000D01*
X86643642Y-121427142D01*
X86796023Y-121427142D01*
X86872214Y-121470000D01*
X86910309Y-121512857D01*
X86948404Y-121598571D01*
X86948404Y-121641428D01*
X86910309Y-121727142D01*
X86872214Y-121770000D01*
X86796023Y-121812857D01*
X86643642Y-121812857D01*
X86567452Y-121855714D01*
X86529357Y-121898571D01*
X86491261Y-121984285D01*
X86491261Y-122155714D01*
X86529357Y-122241428D01*
X86567452Y-122284285D01*
X86643642Y-122327142D01*
X86796023Y-122327142D01*
X86872214Y-122284285D01*
X86910309Y-122241428D01*
X86948404Y-122155714D01*
X86948404Y-121984285D01*
X86910309Y-121898571D01*
X86872214Y-121855714D01*
X86796023Y-121812857D01*
X87176976Y-121427142D02*
X87443642Y-122327142D01*
X87710309Y-121427142D01*
X82491261Y-116904285D02*
X83100785Y-116904285D01*
X82796023Y-117247142D02*
X82796023Y-116561428D01*
X83900785Y-117247142D02*
X83443642Y-117247142D01*
X83672214Y-117247142D02*
X83672214Y-116347142D01*
X83596023Y-116475714D01*
X83519833Y-116561428D01*
X83443642Y-116604285D01*
X84586500Y-116647142D02*
X84586500Y-117247142D01*
X84396023Y-116304285D02*
X84205547Y-116947142D01*
X84700785Y-116947142D01*
X85005547Y-117161428D02*
X85043642Y-117204285D01*
X85005547Y-117247142D01*
X84967452Y-117204285D01*
X85005547Y-117161428D01*
X85005547Y-117247142D01*
X85386500Y-117161428D02*
X85424595Y-117204285D01*
X85386500Y-117247142D01*
X85348404Y-117204285D01*
X85386500Y-117161428D01*
X85386500Y-117247142D01*
X85691261Y-116347142D02*
X86186500Y-116347142D01*
X85919833Y-116690000D01*
X86034119Y-116690000D01*
X86110309Y-116732857D01*
X86148404Y-116775714D01*
X86186500Y-116861428D01*
X86186500Y-117075714D01*
X86148404Y-117161428D01*
X86110309Y-117204285D01*
X86034119Y-117247142D01*
X85805547Y-117247142D01*
X85729357Y-117204285D01*
X85691261Y-117161428D01*
X86681738Y-116347142D02*
X86757928Y-116347142D01*
X86834119Y-116390000D01*
X86872214Y-116432857D01*
X86910309Y-116518571D01*
X86948404Y-116690000D01*
X86948404Y-116904285D01*
X86910309Y-117075714D01*
X86872214Y-117161428D01*
X86834119Y-117204285D01*
X86757928Y-117247142D01*
X86681738Y-117247142D01*
X86605547Y-117204285D01*
X86567452Y-117161428D01*
X86529357Y-117075714D01*
X86491261Y-116904285D01*
X86491261Y-116690000D01*
X86529357Y-116518571D01*
X86567452Y-116432857D01*
X86605547Y-116390000D01*
X86681738Y-116347142D01*
X87176976Y-116347142D02*
X87443642Y-117247142D01*
X87710309Y-116347142D01*
D11*
%TO.C,J3*%
X119320000Y-122495000D02*
X119320000Y-125155000D01*
X121920000Y-122495000D02*
X119320000Y-122495000D01*
X121920000Y-125155000D02*
X119320000Y-125155000D01*
X121920000Y-122495000D02*
X121920000Y-125155000D01*
X123190000Y-122495000D02*
X124520000Y-122495000D01*
X124520000Y-122495000D02*
X124520000Y-123825000D01*
%TO.C,J1*%
X106201253Y-126971195D02*
G75*
G02*
X106056000Y-127684000I-1680253J-28805D01*
G01*
X105204042Y-128535426D02*
G75*
G02*
X103837000Y-128535000I-683042J1535426D01*
G01*
X102985574Y-127683042D02*
G75*
G02*
X102986000Y-126316000I1535426J683042D01*
G01*
X103837958Y-125464574D02*
G75*
G02*
X105205000Y-125465000I683042J-1535426D01*
G01*
X106055756Y-126316682D02*
G75*
G02*
X106201000Y-127000000I-1534756J-683318D01*
G01*
X106201000Y-121920000D02*
G75*
G03*
X106201000Y-121920000I-1680000J0D01*
G01*
X106201000Y-116840000D02*
G75*
G03*
X106201000Y-116840000I-1680000J0D01*
G01*
X108621000Y-129600000D02*
X108621000Y-114240000D01*
X107121000Y-129600000D02*
X107121000Y-114240000D01*
X102220000Y-129600000D02*
X102220000Y-114240000D01*
X99260000Y-129600000D02*
X99260000Y-114240000D01*
X109181000Y-129600000D02*
X109181000Y-114240000D01*
X99260000Y-129600000D02*
X109181000Y-129600000D01*
X99260000Y-114240000D02*
X109181000Y-114240000D01*
X103452000Y-120645000D02*
X103498000Y-120692000D01*
X105760000Y-122954000D02*
X105795000Y-122989000D01*
X103246000Y-120850000D02*
X103282000Y-120885000D01*
X105544000Y-123147000D02*
X105590000Y-123194000D01*
X103452000Y-115565000D02*
X103498000Y-115612000D01*
X105760000Y-117874000D02*
X105795000Y-117909000D01*
X103246000Y-115770000D02*
X103282000Y-115805000D01*
X105544000Y-118067000D02*
X105590000Y-118114000D01*
X108681000Y-129840000D02*
X109421000Y-129840000D01*
X109421000Y-129840000D02*
X109421000Y-129340000D01*
%TO.C,J5*%
X95278805Y-142015253D02*
G75*
G02*
X94566000Y-141870000I-28805J1680253D01*
G01*
X93714574Y-141018042D02*
G75*
G02*
X93715000Y-139651000I1535426J683042D01*
G01*
X94566958Y-138799574D02*
G75*
G02*
X95934000Y-138800000I683042J-1535426D01*
G01*
X96785426Y-139651958D02*
G75*
G02*
X96785000Y-141019000I-1535426J-683042D01*
G01*
X95933318Y-141869756D02*
G75*
G02*
X95250000Y-142015000I-683318J1534756D01*
G01*
X102010000Y-140335000D02*
G75*
G03*
X102010000Y-140335000I-1680000J0D01*
G01*
X107090000Y-140335000D02*
G75*
G03*
X107090000Y-140335000I-1680000J0D01*
G01*
X92650000Y-144435000D02*
X108010000Y-144435000D01*
X92650000Y-142935000D02*
X108010000Y-142935000D01*
X92650000Y-138034000D02*
X108010000Y-138034000D01*
X92650000Y-135074000D02*
X108010000Y-135074000D01*
X92650000Y-144995000D02*
X108010000Y-144995000D01*
X92650000Y-135074000D02*
X92650000Y-144995000D01*
X108010000Y-135074000D02*
X108010000Y-144995000D01*
X101605000Y-139266000D02*
X101558000Y-139312000D01*
X99296000Y-141574000D02*
X99261000Y-141609000D01*
X101400000Y-139060000D02*
X101365000Y-139096000D01*
X99103000Y-141358000D02*
X99056000Y-141404000D01*
X106685000Y-139266000D02*
X106638000Y-139312000D01*
X104376000Y-141574000D02*
X104341000Y-141609000D01*
X106480000Y-139060000D02*
X106445000Y-139096000D01*
X104183000Y-141358000D02*
X104136000Y-141404000D01*
X92410000Y-144495000D02*
X92410000Y-145235000D01*
X92410000Y-145235000D02*
X92910000Y-145235000D01*
%TO.C,J4*%
X91283747Y-116868805D02*
G75*
G02*
X91429000Y-116156000I1680253J28805D01*
G01*
X92280958Y-115304574D02*
G75*
G02*
X93648000Y-115305000I683042J-1535426D01*
G01*
X94499426Y-116156958D02*
G75*
G02*
X94499000Y-117524000I-1535426J-683042D01*
G01*
X93647042Y-118375426D02*
G75*
G02*
X92280000Y-118375000I-683042J1535426D01*
G01*
X91429244Y-117523318D02*
G75*
G02*
X91284000Y-116840000I1534756J683318D01*
G01*
X94644000Y-121920000D02*
G75*
G03*
X94644000Y-121920000I-1680000J0D01*
G01*
X94644000Y-127000000D02*
G75*
G03*
X94644000Y-127000000I-1680000J0D01*
G01*
X88864000Y-114240000D02*
X88864000Y-129600000D01*
X90364000Y-114240000D02*
X90364000Y-129600000D01*
X95265000Y-114240000D02*
X95265000Y-129600000D01*
X98225000Y-114240000D02*
X98225000Y-129600000D01*
X88304000Y-114240000D02*
X88304000Y-129600000D01*
X98225000Y-114240000D02*
X88304000Y-114240000D01*
X98225000Y-129600000D02*
X88304000Y-129600000D01*
X94033000Y-123195000D02*
X93987000Y-123148000D01*
X91725000Y-120886000D02*
X91690000Y-120851000D01*
X94239000Y-122990000D02*
X94203000Y-122955000D01*
X91941000Y-120693000D02*
X91895000Y-120646000D01*
X94033000Y-128275000D02*
X93987000Y-128228000D01*
X91725000Y-125966000D02*
X91690000Y-125931000D01*
X94239000Y-128070000D02*
X94203000Y-128035000D01*
X91941000Y-125773000D02*
X91895000Y-125726000D01*
X88804000Y-114000000D02*
X88064000Y-114000000D01*
X88064000Y-114000000D02*
X88064000Y-114500000D01*
%TO.C,J2*%
X111788805Y-142015253D02*
G75*
G02*
X111076000Y-141870000I-28805J1680253D01*
G01*
X110224574Y-141018042D02*
G75*
G02*
X110225000Y-139651000I1535426J683042D01*
G01*
X111076958Y-138799574D02*
G75*
G02*
X112444000Y-138800000I683042J-1535426D01*
G01*
X113295426Y-139651958D02*
G75*
G02*
X113295000Y-141019000I-1535426J-683042D01*
G01*
X112443318Y-141869756D02*
G75*
G02*
X111760000Y-142015000I-683318J1534756D01*
G01*
X118520000Y-140335000D02*
G75*
G03*
X118520000Y-140335000I-1680000J0D01*
G01*
X123600000Y-140335000D02*
G75*
G03*
X123600000Y-140335000I-1680000J0D01*
G01*
X109160000Y-144435000D02*
X124520000Y-144435000D01*
X109160000Y-142935000D02*
X124520000Y-142935000D01*
X109160000Y-138034000D02*
X124520000Y-138034000D01*
X109160000Y-135074000D02*
X124520000Y-135074000D01*
X109160000Y-144995000D02*
X124520000Y-144995000D01*
X109160000Y-135074000D02*
X109160000Y-144995000D01*
X124520000Y-135074000D02*
X124520000Y-144995000D01*
X118115000Y-139266000D02*
X118068000Y-139312000D01*
X115806000Y-141574000D02*
X115771000Y-141609000D01*
X117910000Y-139060000D02*
X117875000Y-139096000D01*
X115613000Y-141358000D02*
X115566000Y-141404000D01*
X123195000Y-139266000D02*
X123148000Y-139312000D01*
X120886000Y-141574000D02*
X120851000Y-141609000D01*
X122990000Y-139060000D02*
X122955000Y-139096000D01*
X120693000Y-141358000D02*
X120646000Y-141404000D01*
X108920000Y-144495000D02*
X108920000Y-145235000D01*
X108920000Y-145235000D02*
X109420000Y-145235000D01*
%TO.C,R3*%
X125599879Y-128525000D02*
X125935121Y-128525000D01*
X125599879Y-129285000D02*
X125935121Y-129285000D01*
%TO.C,C5*%
X125913335Y-130535000D02*
X125681665Y-130535000D01*
X125913335Y-129815000D02*
X125681665Y-129815000D01*
%TO.C,Q7*%
X92400000Y-133475000D02*
X93330000Y-133475000D01*
X95560000Y-133475000D02*
X94630000Y-133475000D01*
X95560000Y-133475000D02*
X95560000Y-131315000D01*
X92400000Y-133475000D02*
X92400000Y-132015000D01*
%TO.C,Q6*%
X97480000Y-133475000D02*
X98410000Y-133475000D01*
X100640000Y-133475000D02*
X99710000Y-133475000D01*
X100640000Y-133475000D02*
X100640000Y-131315000D01*
X97480000Y-133475000D02*
X97480000Y-132015000D01*
%TO.C,Q5*%
X102560000Y-133475000D02*
X103490000Y-133475000D01*
X105720000Y-133475000D02*
X104790000Y-133475000D01*
X105720000Y-133475000D02*
X105720000Y-131315000D01*
X102560000Y-133475000D02*
X102560000Y-132015000D01*
%TO.C,C4*%
X124987164Y-115210000D02*
X125202836Y-115210000D01*
X124987164Y-115930000D02*
X125202836Y-115930000D01*
%TO.C,R1*%
X121438641Y-119760000D02*
X121131359Y-119760000D01*
X121438641Y-119000000D02*
X121131359Y-119000000D01*
%TO.C,R2*%
X125842500Y-126619724D02*
X125842500Y-126110276D01*
X126887500Y-126619724D02*
X126887500Y-126110276D01*
%TO.C,Q4*%
X107640000Y-133475000D02*
X108570000Y-133475000D01*
X110800000Y-133475000D02*
X109870000Y-133475000D01*
X110800000Y-133475000D02*
X110800000Y-131315000D01*
X107640000Y-133475000D02*
X107640000Y-132015000D01*
%TO.C,Q1*%
X122880000Y-133475000D02*
X123810000Y-133475000D01*
X126040000Y-133475000D02*
X125110000Y-133475000D01*
X126040000Y-133475000D02*
X126040000Y-131315000D01*
X122880000Y-133475000D02*
X122880000Y-132015000D01*
%TO.C,Q2*%
X117800000Y-133475000D02*
X118730000Y-133475000D01*
X120960000Y-133475000D02*
X120030000Y-133475000D01*
X120960000Y-133475000D02*
X120960000Y-131315000D01*
X117800000Y-133475000D02*
X117800000Y-132015000D01*
%TO.C,Q3*%
X112720000Y-133475000D02*
X113650000Y-133475000D01*
X115880000Y-133475000D02*
X114950000Y-133475000D01*
X115880000Y-133475000D02*
X115880000Y-131315000D01*
X112720000Y-133475000D02*
X112720000Y-132015000D01*
%TO.C,U2*%
X123535000Y-118110000D02*
X123535000Y-118910000D01*
X123535000Y-118110000D02*
X123535000Y-117310000D01*
X126655000Y-118110000D02*
X126655000Y-118910000D01*
X126655000Y-118110000D02*
X126655000Y-116310000D01*
%TO.C,C3*%
X123065000Y-116064420D02*
X123065000Y-116345580D01*
X122045000Y-116064420D02*
X122045000Y-116345580D01*
%TO.C,U1*%
X111980000Y-120405000D02*
X110670000Y-120405000D01*
X110670000Y-120405000D02*
X110670000Y-117685000D01*
X115160000Y-116545000D02*
X115160000Y-117685000D01*
X115390000Y-120405000D02*
X114080000Y-120405000D01*
X115390000Y-117685000D02*
X115390000Y-120405000D01*
X115390000Y-117685000D02*
X115160000Y-117685000D01*
X110670000Y-117685000D02*
X110900000Y-117685000D01*
%TO.C,D2*%
X116460000Y-121510000D02*
X119760000Y-121510000D01*
X119760000Y-121510000D02*
X119760000Y-116110000D01*
X116460000Y-121510000D02*
X116460000Y-116110000D01*
%TO.C,D1*%
X117065000Y-125475000D02*
X117065000Y-122175000D01*
X117065000Y-122175000D02*
X111665000Y-122175000D01*
X117065000Y-125475000D02*
X111665000Y-125475000D01*
%TO.C,C2*%
X115042836Y-115295000D02*
X114827164Y-115295000D01*
X115042836Y-114575000D02*
X114827164Y-114575000D01*
%TO.C,C1*%
X111619420Y-114425000D02*
X111900580Y-114425000D01*
X111619420Y-115445000D02*
X111900580Y-115445000D01*
%TO.C,J3*%
D10*
X121139047Y-121606428D02*
X121100952Y-121649285D01*
X120986666Y-121692142D01*
X120910476Y-121692142D01*
X120796190Y-121649285D01*
X120720000Y-121563571D01*
X120681904Y-121477857D01*
X120643809Y-121306428D01*
X120643809Y-121177857D01*
X120681904Y-121006428D01*
X120720000Y-120920714D01*
X120796190Y-120835000D01*
X120910476Y-120792142D01*
X120986666Y-120792142D01*
X121100952Y-120835000D01*
X121139047Y-120877857D01*
X121367619Y-120792142D02*
X121824761Y-120792142D01*
X121596190Y-121692142D02*
X121596190Y-120792142D01*
X122548571Y-121692142D02*
X122281904Y-121263571D01*
X122091428Y-121692142D02*
X122091428Y-120792142D01*
X122396190Y-120792142D01*
X122472380Y-120835000D01*
X122510476Y-120877857D01*
X122548571Y-120963571D01*
X122548571Y-121092142D01*
X122510476Y-121177857D01*
X122472380Y-121220714D01*
X122396190Y-121263571D01*
X122091428Y-121263571D01*
X123272380Y-121692142D02*
X122891428Y-121692142D01*
X122891428Y-120792142D01*
%TO.C,J1*%
X100758666Y-126960380D02*
X100758666Y-127674666D01*
X100711047Y-127817523D01*
X100615809Y-127912761D01*
X100472952Y-127960380D01*
X100377714Y-127960380D01*
X101758666Y-127960380D02*
X101187238Y-127960380D01*
X101472952Y-127960380D02*
X101472952Y-126960380D01*
X101377714Y-127103238D01*
X101282476Y-127198476D01*
X101187238Y-127246095D01*
X102673380Y-113437142D02*
X102673380Y-112537142D01*
X102978142Y-112537142D01*
X103054333Y-112580000D01*
X103092428Y-112622857D01*
X103130523Y-112708571D01*
X103130523Y-112837142D01*
X103092428Y-112922857D01*
X103054333Y-112965714D01*
X102978142Y-113008571D01*
X102673380Y-113008571D01*
X103625761Y-112537142D02*
X103778142Y-112537142D01*
X103854333Y-112580000D01*
X103930523Y-112665714D01*
X103968619Y-112837142D01*
X103968619Y-113137142D01*
X103930523Y-113308571D01*
X103854333Y-113394285D01*
X103778142Y-113437142D01*
X103625761Y-113437142D01*
X103549571Y-113394285D01*
X103473380Y-113308571D01*
X103435285Y-113137142D01*
X103435285Y-112837142D01*
X103473380Y-112665714D01*
X103549571Y-112580000D01*
X103625761Y-112537142D01*
X104235285Y-112537142D02*
X104425761Y-113437142D01*
X104578142Y-112794285D01*
X104730523Y-113437142D01*
X104921000Y-112537142D01*
X105225761Y-112965714D02*
X105492428Y-112965714D01*
X105606714Y-113437142D02*
X105225761Y-113437142D01*
X105225761Y-112537142D01*
X105606714Y-112537142D01*
X106406714Y-113437142D02*
X106140047Y-113008571D01*
X105949571Y-113437142D02*
X105949571Y-112537142D01*
X106254333Y-112537142D01*
X106330523Y-112580000D01*
X106368619Y-112622857D01*
X106406714Y-112708571D01*
X106406714Y-112837142D01*
X106368619Y-112922857D01*
X106330523Y-112965714D01*
X106254333Y-113008571D01*
X105949571Y-113008571D01*
%TO.C,J5*%
X99996666Y-135977380D02*
X99996666Y-136691666D01*
X99949047Y-136834523D01*
X99853809Y-136929761D01*
X99710952Y-136977380D01*
X99615714Y-136977380D01*
X100949047Y-135977380D02*
X100472857Y-135977380D01*
X100425238Y-136453571D01*
X100472857Y-136405952D01*
X100568095Y-136358333D01*
X100806190Y-136358333D01*
X100901428Y-136405952D01*
X100949047Y-136453571D01*
X100996666Y-136548809D01*
X100996666Y-136786904D01*
X100949047Y-136882142D01*
X100901428Y-136929761D01*
X100806190Y-136977380D01*
X100568095Y-136977380D01*
X100472857Y-136929761D01*
X100425238Y-136882142D01*
X98063333Y-146402142D02*
X97682380Y-146402142D01*
X97682380Y-145502142D01*
X98482380Y-145502142D02*
X98634761Y-145502142D01*
X98710952Y-145545000D01*
X98787142Y-145630714D01*
X98825238Y-145802142D01*
X98825238Y-146102142D01*
X98787142Y-146273571D01*
X98710952Y-146359285D01*
X98634761Y-146402142D01*
X98482380Y-146402142D01*
X98406190Y-146359285D01*
X98330000Y-146273571D01*
X98291904Y-146102142D01*
X98291904Y-145802142D01*
X98330000Y-145630714D01*
X98406190Y-145545000D01*
X98482380Y-145502142D01*
X99091904Y-145502142D02*
X99282380Y-146402142D01*
X99434761Y-145759285D01*
X99587142Y-146402142D01*
X99777619Y-145502142D01*
X100653809Y-146359285D02*
X100768095Y-146402142D01*
X100958571Y-146402142D01*
X101034761Y-146359285D01*
X101072857Y-146316428D01*
X101110952Y-146230714D01*
X101110952Y-146145000D01*
X101072857Y-146059285D01*
X101034761Y-146016428D01*
X100958571Y-145973571D01*
X100806190Y-145930714D01*
X100730000Y-145887857D01*
X100691904Y-145845000D01*
X100653809Y-145759285D01*
X100653809Y-145673571D01*
X100691904Y-145587857D01*
X100730000Y-145545000D01*
X100806190Y-145502142D01*
X100996666Y-145502142D01*
X101110952Y-145545000D01*
X101453809Y-146402142D02*
X101453809Y-145502142D01*
X101834761Y-146402142D02*
X101834761Y-145502142D01*
X102025238Y-145502142D01*
X102139523Y-145545000D01*
X102215714Y-145630714D01*
X102253809Y-145716428D01*
X102291904Y-145887857D01*
X102291904Y-146016428D01*
X102253809Y-146187857D01*
X102215714Y-146273571D01*
X102139523Y-146359285D01*
X102025238Y-146402142D01*
X101834761Y-146402142D01*
X102634761Y-145930714D02*
X102901428Y-145930714D01*
X103015714Y-146402142D02*
X102634761Y-146402142D01*
X102634761Y-145502142D01*
X103015714Y-145502142D01*
%TO.C,J4*%
X96186666Y-126960380D02*
X96186666Y-127674666D01*
X96139047Y-127817523D01*
X96043809Y-127912761D01*
X95900952Y-127960380D01*
X95805714Y-127960380D01*
X97091428Y-127293714D02*
X97091428Y-127960380D01*
X96853333Y-126912761D02*
X96615238Y-127627047D01*
X97234285Y-127627047D01*
X91116380Y-113437142D02*
X91116380Y-112537142D01*
X91421142Y-112537142D01*
X91497333Y-112580000D01*
X91535428Y-112622857D01*
X91573523Y-112708571D01*
X91573523Y-112837142D01*
X91535428Y-112922857D01*
X91497333Y-112965714D01*
X91421142Y-113008571D01*
X91116380Y-113008571D01*
X92068761Y-112537142D02*
X92221142Y-112537142D01*
X92297333Y-112580000D01*
X92373523Y-112665714D01*
X92411619Y-112837142D01*
X92411619Y-113137142D01*
X92373523Y-113308571D01*
X92297333Y-113394285D01*
X92221142Y-113437142D01*
X92068761Y-113437142D01*
X91992571Y-113394285D01*
X91916380Y-113308571D01*
X91878285Y-113137142D01*
X91878285Y-112837142D01*
X91916380Y-112665714D01*
X91992571Y-112580000D01*
X92068761Y-112537142D01*
X92678285Y-112537142D02*
X92868761Y-113437142D01*
X93021142Y-112794285D01*
X93173523Y-113437142D01*
X93364000Y-112537142D01*
X93668761Y-112965714D02*
X93935428Y-112965714D01*
X94049714Y-113437142D02*
X93668761Y-113437142D01*
X93668761Y-112537142D01*
X94049714Y-112537142D01*
X94849714Y-113437142D02*
X94583047Y-113008571D01*
X94392571Y-113437142D02*
X94392571Y-112537142D01*
X94697333Y-112537142D01*
X94773523Y-112580000D01*
X94811619Y-112622857D01*
X94849714Y-112708571D01*
X94849714Y-112837142D01*
X94811619Y-112922857D01*
X94773523Y-112965714D01*
X94697333Y-113008571D01*
X94392571Y-113008571D01*
%TO.C,J2*%
X116506666Y-135977380D02*
X116506666Y-136691666D01*
X116459047Y-136834523D01*
X116363809Y-136929761D01*
X116220952Y-136977380D01*
X116125714Y-136977380D01*
X116935238Y-136072619D02*
X116982857Y-136025000D01*
X117078095Y-135977380D01*
X117316190Y-135977380D01*
X117411428Y-136025000D01*
X117459047Y-136072619D01*
X117506666Y-136167857D01*
X117506666Y-136263095D01*
X117459047Y-136405952D01*
X116887619Y-136977380D01*
X117506666Y-136977380D01*
X114573333Y-146402142D02*
X114192380Y-146402142D01*
X114192380Y-145502142D01*
X114992380Y-145502142D02*
X115144761Y-145502142D01*
X115220952Y-145545000D01*
X115297142Y-145630714D01*
X115335238Y-145802142D01*
X115335238Y-146102142D01*
X115297142Y-146273571D01*
X115220952Y-146359285D01*
X115144761Y-146402142D01*
X114992380Y-146402142D01*
X114916190Y-146359285D01*
X114840000Y-146273571D01*
X114801904Y-146102142D01*
X114801904Y-145802142D01*
X114840000Y-145630714D01*
X114916190Y-145545000D01*
X114992380Y-145502142D01*
X115601904Y-145502142D02*
X115792380Y-146402142D01*
X115944761Y-145759285D01*
X116097142Y-146402142D01*
X116287619Y-145502142D01*
X117163809Y-146359285D02*
X117278095Y-146402142D01*
X117468571Y-146402142D01*
X117544761Y-146359285D01*
X117582857Y-146316428D01*
X117620952Y-146230714D01*
X117620952Y-146145000D01*
X117582857Y-146059285D01*
X117544761Y-146016428D01*
X117468571Y-145973571D01*
X117316190Y-145930714D01*
X117240000Y-145887857D01*
X117201904Y-145845000D01*
X117163809Y-145759285D01*
X117163809Y-145673571D01*
X117201904Y-145587857D01*
X117240000Y-145545000D01*
X117316190Y-145502142D01*
X117506666Y-145502142D01*
X117620952Y-145545000D01*
X117963809Y-146402142D02*
X117963809Y-145502142D01*
X118344761Y-146402142D02*
X118344761Y-145502142D01*
X118535238Y-145502142D01*
X118649523Y-145545000D01*
X118725714Y-145630714D01*
X118763809Y-145716428D01*
X118801904Y-145887857D01*
X118801904Y-146016428D01*
X118763809Y-146187857D01*
X118725714Y-146273571D01*
X118649523Y-146359285D01*
X118535238Y-146402142D01*
X118344761Y-146402142D01*
X119144761Y-145930714D02*
X119411428Y-145930714D01*
X119525714Y-146402142D02*
X119144761Y-146402142D01*
X119144761Y-145502142D01*
X119525714Y-145502142D01*
%TD*%
%LPC*%
D12*
%TO.C,J3*%
X120650000Y-123825000D03*
D13*
X123190000Y-123825000D03*
%TD*%
D14*
%TO.C,H3*%
X125095000Y-112395000D03*
%TD*%
D15*
%TO.C,J1*%
X104521000Y-116840000D03*
X104521000Y-121920000D03*
D16*
X104521000Y-127000000D03*
%TD*%
D15*
%TO.C,J5*%
X105410000Y-140335000D03*
X100330000Y-140335000D03*
D16*
X95250000Y-140335000D03*
%TD*%
D15*
%TO.C,J4*%
X92964000Y-127000000D03*
X92964000Y-121920000D03*
D16*
X92964000Y-116840000D03*
%TD*%
D15*
%TO.C,J2*%
X121920000Y-140335000D03*
X116840000Y-140335000D03*
D16*
X111760000Y-140335000D03*
%TD*%
D17*
%TO.C,H8*%
X128270000Y-113665000D03*
%TD*%
%TO.C,H6*%
X85090000Y-113665000D03*
%TD*%
%TO.C,H4*%
X128270000Y-144145000D03*
%TD*%
%TO.C,H2*%
X85090000Y-144145000D03*
%TD*%
D14*
%TO.C,H7*%
X125095000Y-145415000D03*
%TD*%
%TO.C,H5*%
X88265000Y-145415000D03*
%TD*%
%TO.C,H1*%
X88265000Y-112395000D03*
%TD*%
%TO.C,R3*%
G36*
G01*
X126007500Y-129065000D02*
X126007500Y-128745000D01*
G75*
G02*
X126167500Y-128585000I160000J0D01*
G01*
X126562500Y-128585000D01*
G75*
G02*
X126722500Y-128745000I0J-160000D01*
G01*
X126722500Y-129065000D01*
G75*
G02*
X126562500Y-129225000I-160000J0D01*
G01*
X126167500Y-129225000D01*
G75*
G02*
X126007500Y-129065000I0J160000D01*
G01*
G37*
G36*
G01*
X124812500Y-129065000D02*
X124812500Y-128745000D01*
G75*
G02*
X124972500Y-128585000I160000J0D01*
G01*
X125367500Y-128585000D01*
G75*
G02*
X125527500Y-128745000I0J-160000D01*
G01*
X125527500Y-129065000D01*
G75*
G02*
X125367500Y-129225000I-160000J0D01*
G01*
X124972500Y-129225000D01*
G75*
G02*
X124812500Y-129065000I0J160000D01*
G01*
G37*
%TD*%
%TO.C,C5*%
G36*
G01*
X125597500Y-130020000D02*
X125597500Y-130330000D01*
G75*
G02*
X125442500Y-130485000I-155000J0D01*
G01*
X125017500Y-130485000D01*
G75*
G02*
X124862500Y-130330000I0J155000D01*
G01*
X124862500Y-130020000D01*
G75*
G02*
X125017500Y-129865000I155000J0D01*
G01*
X125442500Y-129865000D01*
G75*
G02*
X125597500Y-130020000I0J-155000D01*
G01*
G37*
G36*
G01*
X126732500Y-130020000D02*
X126732500Y-130330000D01*
G75*
G02*
X126577500Y-130485000I-155000J0D01*
G01*
X126152500Y-130485000D01*
G75*
G02*
X125997500Y-130330000I0J155000D01*
G01*
X125997500Y-130020000D01*
G75*
G02*
X126152500Y-129865000I155000J0D01*
G01*
X126577500Y-129865000D01*
G75*
G02*
X126732500Y-130020000I0J-155000D01*
G01*
G37*
%TD*%
D18*
%TO.C,Q7*%
X93980000Y-133715000D03*
X93030000Y-131715000D03*
X94930000Y-131715000D03*
%TD*%
%TO.C,Q6*%
X99060000Y-133715000D03*
X98110000Y-131715000D03*
X100010000Y-131715000D03*
%TD*%
%TO.C,Q5*%
X104140000Y-133715000D03*
X103190000Y-131715000D03*
X105090000Y-131715000D03*
%TD*%
%TO.C,C4*%
G36*
G01*
X125295000Y-115740000D02*
X125295000Y-115400000D01*
G75*
G02*
X125435000Y-115260000I140000J0D01*
G01*
X125715000Y-115260000D01*
G75*
G02*
X125855000Y-115400000I0J-140000D01*
G01*
X125855000Y-115740000D01*
G75*
G02*
X125715000Y-115880000I-140000J0D01*
G01*
X125435000Y-115880000D01*
G75*
G02*
X125295000Y-115740000I0J140000D01*
G01*
G37*
G36*
G01*
X124335000Y-115740000D02*
X124335000Y-115400000D01*
G75*
G02*
X124475000Y-115260000I140000J0D01*
G01*
X124755000Y-115260000D01*
G75*
G02*
X124895000Y-115400000I0J-140000D01*
G01*
X124895000Y-115740000D01*
G75*
G02*
X124755000Y-115880000I-140000J0D01*
G01*
X124475000Y-115880000D01*
G75*
G02*
X124335000Y-115740000I0J140000D01*
G01*
G37*
%TD*%
%TO.C,R1*%
G36*
G01*
X121045000Y-119195000D02*
X121045000Y-119565000D01*
G75*
G02*
X120910000Y-119700000I-135000J0D01*
G01*
X120640000Y-119700000D01*
G75*
G02*
X120505000Y-119565000I0J135000D01*
G01*
X120505000Y-119195000D01*
G75*
G02*
X120640000Y-119060000I135000J0D01*
G01*
X120910000Y-119060000D01*
G75*
G02*
X121045000Y-119195000I0J-135000D01*
G01*
G37*
G36*
G01*
X122065000Y-119195000D02*
X122065000Y-119565000D01*
G75*
G02*
X121930000Y-119700000I-135000J0D01*
G01*
X121660000Y-119700000D01*
G75*
G02*
X121525000Y-119565000I0J135000D01*
G01*
X121525000Y-119195000D01*
G75*
G02*
X121660000Y-119060000I135000J0D01*
G01*
X121930000Y-119060000D01*
G75*
G02*
X122065000Y-119195000I0J-135000D01*
G01*
G37*
%TD*%
%TO.C,R2*%
G36*
G01*
X126602500Y-125940000D02*
X126127500Y-125940000D01*
G75*
G02*
X125890000Y-125702500I0J237500D01*
G01*
X125890000Y-125202500D01*
G75*
G02*
X126127500Y-124965000I237500J0D01*
G01*
X126602500Y-124965000D01*
G75*
G02*
X126840000Y-125202500I0J-237500D01*
G01*
X126840000Y-125702500D01*
G75*
G02*
X126602500Y-125940000I-237500J0D01*
G01*
G37*
G36*
G01*
X126602500Y-127765000D02*
X126127500Y-127765000D01*
G75*
G02*
X125890000Y-127527500I0J237500D01*
G01*
X125890000Y-127027500D01*
G75*
G02*
X126127500Y-126790000I237500J0D01*
G01*
X126602500Y-126790000D01*
G75*
G02*
X126840000Y-127027500I0J-237500D01*
G01*
X126840000Y-127527500D01*
G75*
G02*
X126602500Y-127765000I-237500J0D01*
G01*
G37*
%TD*%
%TO.C,Q4*%
X109220000Y-133715000D03*
X108270000Y-131715000D03*
X110170000Y-131715000D03*
%TD*%
%TO.C,Q1*%
X124460000Y-133715000D03*
X123510000Y-131715000D03*
X125410000Y-131715000D03*
%TD*%
%TO.C,Q2*%
X119380000Y-133715000D03*
X118430000Y-131715000D03*
X120330000Y-131715000D03*
%TD*%
%TO.C,Q3*%
X114300000Y-133715000D03*
X113350000Y-131715000D03*
X115250000Y-131715000D03*
%TD*%
%TO.C,U2*%
G36*
G01*
X125895000Y-118585000D02*
X126195000Y-118585000D01*
G75*
G02*
X126345000Y-118735000I0J-150000D01*
G01*
X126345000Y-119760000D01*
G75*
G02*
X126195000Y-119910000I-150000J0D01*
G01*
X125895000Y-119910000D01*
G75*
G02*
X125745000Y-119760000I0J150000D01*
G01*
X125745000Y-118735000D01*
G75*
G02*
X125895000Y-118585000I150000J0D01*
G01*
G37*
G36*
G01*
X123995000Y-118585000D02*
X124295000Y-118585000D01*
G75*
G02*
X124445000Y-118735000I0J-150000D01*
G01*
X124445000Y-119760000D01*
G75*
G02*
X124295000Y-119910000I-150000J0D01*
G01*
X123995000Y-119910000D01*
G75*
G02*
X123845000Y-119760000I0J150000D01*
G01*
X123845000Y-118735000D01*
G75*
G02*
X123995000Y-118585000I150000J0D01*
G01*
G37*
G36*
G01*
X123995000Y-116310000D02*
X124295000Y-116310000D01*
G75*
G02*
X124445000Y-116460000I0J-150000D01*
G01*
X124445000Y-117485000D01*
G75*
G02*
X124295000Y-117635000I-150000J0D01*
G01*
X123995000Y-117635000D01*
G75*
G02*
X123845000Y-117485000I0J150000D01*
G01*
X123845000Y-116460000D01*
G75*
G02*
X123995000Y-116310000I150000J0D01*
G01*
G37*
G36*
G01*
X124945000Y-116310000D02*
X125245000Y-116310000D01*
G75*
G02*
X125395000Y-116460000I0J-150000D01*
G01*
X125395000Y-117485000D01*
G75*
G02*
X125245000Y-117635000I-150000J0D01*
G01*
X124945000Y-117635000D01*
G75*
G02*
X124795000Y-117485000I0J150000D01*
G01*
X124795000Y-116460000D01*
G75*
G02*
X124945000Y-116310000I150000J0D01*
G01*
G37*
G36*
G01*
X125895000Y-116310000D02*
X126195000Y-116310000D01*
G75*
G02*
X126345000Y-116460000I0J-150000D01*
G01*
X126345000Y-117485000D01*
G75*
G02*
X126195000Y-117635000I-150000J0D01*
G01*
X125895000Y-117635000D01*
G75*
G02*
X125745000Y-117485000I0J150000D01*
G01*
X125745000Y-116460000D01*
G75*
G02*
X125895000Y-116310000I150000J0D01*
G01*
G37*
%TD*%
%TO.C,C3*%
G36*
G01*
X122305000Y-116530000D02*
X122805000Y-116530000D01*
G75*
G02*
X123030000Y-116755000I0J-225000D01*
G01*
X123030000Y-117205000D01*
G75*
G02*
X122805000Y-117430000I-225000J0D01*
G01*
X122305000Y-117430000D01*
G75*
G02*
X122080000Y-117205000I0J225000D01*
G01*
X122080000Y-116755000D01*
G75*
G02*
X122305000Y-116530000I225000J0D01*
G01*
G37*
G36*
G01*
X122305000Y-114980000D02*
X122805000Y-114980000D01*
G75*
G02*
X123030000Y-115205000I0J-225000D01*
G01*
X123030000Y-115655000D01*
G75*
G02*
X122805000Y-115880000I-225000J0D01*
G01*
X122305000Y-115880000D01*
G75*
G02*
X122080000Y-115655000I0J225000D01*
G01*
X122080000Y-115205000D01*
G75*
G02*
X122305000Y-114980000I225000J0D01*
G01*
G37*
%TD*%
D19*
%TO.C,U1*%
G36*
X112163500Y-121045000D02*
G01*
X112163500Y-117920000D01*
X112580000Y-117920000D01*
X112580000Y-116445000D01*
X113480000Y-116445000D01*
X113480000Y-117920000D01*
X113896500Y-117920000D01*
X113896500Y-121045000D01*
X112163500Y-121045000D01*
G37*
D20*
X111530000Y-117095000D03*
X114530000Y-117095000D03*
%TD*%
D21*
%TO.C,D2*%
X118110000Y-116110000D03*
X118110000Y-120110000D03*
%TD*%
D22*
%TO.C,D1*%
X111665000Y-123825000D03*
X115665000Y-123825000D03*
%TD*%
%TO.C,C2*%
G36*
G01*
X114735000Y-114765000D02*
X114735000Y-115105000D01*
G75*
G02*
X114595000Y-115245000I-140000J0D01*
G01*
X114315000Y-115245000D01*
G75*
G02*
X114175000Y-115105000I0J140000D01*
G01*
X114175000Y-114765000D01*
G75*
G02*
X114315000Y-114625000I140000J0D01*
G01*
X114595000Y-114625000D01*
G75*
G02*
X114735000Y-114765000I0J-140000D01*
G01*
G37*
G36*
G01*
X115695000Y-114765000D02*
X115695000Y-115105000D01*
G75*
G02*
X115555000Y-115245000I-140000J0D01*
G01*
X115275000Y-115245000D01*
G75*
G02*
X115135000Y-115105000I0J140000D01*
G01*
X115135000Y-114765000D01*
G75*
G02*
X115275000Y-114625000I140000J0D01*
G01*
X115555000Y-114625000D01*
G75*
G02*
X115695000Y-114765000I0J-140000D01*
G01*
G37*
%TD*%
%TO.C,C1*%
G36*
G01*
X112085000Y-115185000D02*
X112085000Y-114685000D01*
G75*
G02*
X112310000Y-114460000I225000J0D01*
G01*
X112760000Y-114460000D01*
G75*
G02*
X112985000Y-114685000I0J-225000D01*
G01*
X112985000Y-115185000D01*
G75*
G02*
X112760000Y-115410000I-225000J0D01*
G01*
X112310000Y-115410000D01*
G75*
G02*
X112085000Y-115185000I0J225000D01*
G01*
G37*
G36*
G01*
X110535000Y-115185000D02*
X110535000Y-114685000D01*
G75*
G02*
X110760000Y-114460000I225000J0D01*
G01*
X111210000Y-114460000D01*
G75*
G02*
X111435000Y-114685000I0J-225000D01*
G01*
X111435000Y-115185000D01*
G75*
G02*
X111210000Y-115410000I-225000J0D01*
G01*
X110760000Y-115410000D01*
G75*
G02*
X110535000Y-115185000I0J225000D01*
G01*
G37*
%TD*%
M02*
