%FSLAX45Y45*%
G04 Gerber Fmt 4.5, Leading zero omitted, Abs format (unit mm)*
G04 Created by KiCad (PCBNEW 5.1.10) date 2021-12-10 00:49:22*
%MOMM*%
%LPD*%
G01*
G04 APERTURE LIST*
%TA.AperFunction,Profile*%
%ADD10C,0.050000*%
%TD*%
%ADD11C,0.200000*%
%ADD12C,0.300000*%
G04 APERTURE END LIST*
D10*
X8191500Y-11239500D02*
X8191500Y-14541500D01*
X12954000Y-11049000D02*
X8382000Y-11049000D01*
X13144500Y-14541500D02*
X13144500Y-11239500D01*
X8382000Y-14732000D02*
X12954000Y-14732000D01*
X8382000Y-14732000D02*
G75*
G02*
X8191500Y-14541500I0J190500D01*
G01*
X13144500Y-14541500D02*
G75*
G02*
X12954000Y-14732000I-190500J0D01*
G01*
X12954000Y-11049000D02*
G75*
G02*
X13144500Y-11239500I0J-190500D01*
G01*
X8191500Y-11239500D02*
G75*
G02*
X8382000Y-11049000I190500J0D01*
G01*
D11*
X8768900Y-11181900D02*
X8884100Y-11297100D01*
X8884100Y-11181900D02*
X8768900Y-11297100D01*
X8768900Y-14483900D02*
X8884100Y-14599100D01*
X8884100Y-14483900D02*
X8768900Y-14599100D01*
X12451900Y-11181900D02*
X12567100Y-11297100D01*
X12567100Y-11181900D02*
X12451900Y-11297100D01*
X12451900Y-14483900D02*
X12567100Y-14599100D01*
X12567100Y-14483900D02*
X12451900Y-14599100D01*
X8619000Y-11366500D02*
G75*
G03*
X8619000Y-11366500I-110000J0D01*
G01*
X8619000Y-14414500D02*
G75*
G03*
X8619000Y-14414500I-110000J0D01*
G01*
X12937000Y-11366500D02*
G75*
G03*
X12937000Y-11366500I-110000J0D01*
G01*
X12937000Y-14414500D02*
G75*
G03*
X12937000Y-14414500I-110000J0D01*
G01*
D12*
X8475428Y-15200214D02*
X8475428Y-14900214D01*
X8546857Y-14900214D01*
X8589714Y-14914500D01*
X8618286Y-14943071D01*
X8632571Y-14971643D01*
X8646857Y-15028786D01*
X8646857Y-15071643D01*
X8632571Y-15128786D01*
X8618286Y-15157357D01*
X8589714Y-15185929D01*
X8546857Y-15200214D01*
X8475428Y-15200214D01*
X8775428Y-15200214D02*
X8775428Y-15000214D01*
X8775428Y-15057357D02*
X8789714Y-15028786D01*
X8804000Y-15014500D01*
X8832571Y-15000214D01*
X8861143Y-15000214D01*
X8961143Y-15200214D02*
X8961143Y-15000214D01*
X8961143Y-14900214D02*
X8946857Y-14914500D01*
X8961143Y-14928786D01*
X8975428Y-14914500D01*
X8961143Y-14900214D01*
X8961143Y-14928786D01*
X9146857Y-15200214D02*
X9118286Y-15185929D01*
X9104000Y-15157357D01*
X9104000Y-14900214D01*
X9304000Y-15200214D02*
X9275428Y-15185929D01*
X9261143Y-15157357D01*
X9261143Y-14900214D01*
X9646857Y-15200214D02*
X9646857Y-14900214D01*
X9746857Y-15114500D01*
X9846857Y-14900214D01*
X9846857Y-15200214D01*
X10118286Y-15200214D02*
X10118286Y-15043071D01*
X10104000Y-15014500D01*
X10075428Y-15000214D01*
X10018286Y-15000214D01*
X9989714Y-15014500D01*
X10118286Y-15185929D02*
X10089714Y-15200214D01*
X10018286Y-15200214D01*
X9989714Y-15185929D01*
X9975428Y-15157357D01*
X9975428Y-15128786D01*
X9989714Y-15100214D01*
X10018286Y-15085929D01*
X10089714Y-15085929D01*
X10118286Y-15071643D01*
X10261143Y-15000214D02*
X10261143Y-15300214D01*
X10261143Y-15014500D02*
X10289714Y-15000214D01*
X10346857Y-15000214D01*
X10375428Y-15014500D01*
X10389714Y-15028786D01*
X10404000Y-15057357D01*
X10404000Y-15143071D01*
X10389714Y-15171643D01*
X10375428Y-15185929D01*
X10346857Y-15200214D01*
X10289714Y-15200214D01*
X10261143Y-15185929D01*
X10532571Y-15171643D02*
X10546857Y-15185929D01*
X10532571Y-15200214D01*
X10518286Y-15185929D01*
X10532571Y-15171643D01*
X10532571Y-15200214D01*
X10532571Y-15014500D02*
X10546857Y-15028786D01*
X10532571Y-15043071D01*
X10518286Y-15028786D01*
X10532571Y-15014500D01*
X10532571Y-15043071D01*
X8073800Y-15636900D02*
X8189000Y-15752100D01*
X8189000Y-15636900D02*
X8073800Y-15752100D01*
X8632571Y-15830214D02*
X8461143Y-15830214D01*
X8546857Y-15830214D02*
X8546857Y-15530214D01*
X8518286Y-15573071D01*
X8489714Y-15601643D01*
X8461143Y-15615929D01*
X8761143Y-15801643D02*
X8775428Y-15815929D01*
X8761143Y-15830214D01*
X8746857Y-15815929D01*
X8761143Y-15801643D01*
X8761143Y-15830214D01*
X9061143Y-15830214D02*
X8889714Y-15830214D01*
X8975428Y-15830214D02*
X8975428Y-15530214D01*
X8946857Y-15573071D01*
X8918286Y-15601643D01*
X8889714Y-15615929D01*
X9332571Y-15530214D02*
X9189714Y-15530214D01*
X9175428Y-15673071D01*
X9189714Y-15658786D01*
X9218286Y-15644500D01*
X9289714Y-15644500D01*
X9318286Y-15658786D01*
X9332571Y-15673071D01*
X9346857Y-15701643D01*
X9346857Y-15773071D01*
X9332571Y-15801643D01*
X9318286Y-15815929D01*
X9289714Y-15830214D01*
X9218286Y-15830214D01*
X9189714Y-15815929D01*
X9175428Y-15801643D01*
X9461143Y-15558786D02*
X9475428Y-15544500D01*
X9504000Y-15530214D01*
X9575428Y-15530214D01*
X9604000Y-15544500D01*
X9618286Y-15558786D01*
X9632571Y-15587357D01*
X9632571Y-15615929D01*
X9618286Y-15658786D01*
X9446857Y-15830214D01*
X9632571Y-15830214D01*
X9761143Y-15830214D02*
X9761143Y-15630214D01*
X9761143Y-15658786D02*
X9775428Y-15644500D01*
X9804000Y-15630214D01*
X9846857Y-15630214D01*
X9875428Y-15644500D01*
X9889714Y-15673071D01*
X9889714Y-15830214D01*
X9889714Y-15673071D02*
X9904000Y-15644500D01*
X9932571Y-15630214D01*
X9975428Y-15630214D01*
X10004000Y-15644500D01*
X10018286Y-15673071D01*
X10018286Y-15830214D01*
X10161143Y-15830214D02*
X10161143Y-15630214D01*
X10161143Y-15658786D02*
X10175428Y-15644500D01*
X10204000Y-15630214D01*
X10246857Y-15630214D01*
X10275428Y-15644500D01*
X10289714Y-15673071D01*
X10289714Y-15830214D01*
X10289714Y-15673071D02*
X10304000Y-15644500D01*
X10332571Y-15630214D01*
X10375428Y-15630214D01*
X10404000Y-15644500D01*
X10418286Y-15673071D01*
X10418286Y-15830214D01*
X11004000Y-15515929D02*
X10746857Y-15901643D01*
X11389714Y-15530214D02*
X11418286Y-15530214D01*
X11446857Y-15544500D01*
X11461143Y-15558786D01*
X11475428Y-15587357D01*
X11489714Y-15644500D01*
X11489714Y-15715929D01*
X11475428Y-15773071D01*
X11461143Y-15801643D01*
X11446857Y-15815929D01*
X11418286Y-15830214D01*
X11389714Y-15830214D01*
X11361143Y-15815929D01*
X11346857Y-15801643D01*
X11332571Y-15773071D01*
X11318286Y-15715929D01*
X11318286Y-15644500D01*
X11332571Y-15587357D01*
X11346857Y-15558786D01*
X11361143Y-15544500D01*
X11389714Y-15530214D01*
X11618286Y-15801643D02*
X11632571Y-15815929D01*
X11618286Y-15830214D01*
X11604000Y-15815929D01*
X11618286Y-15801643D01*
X11618286Y-15830214D01*
X11818286Y-15530214D02*
X11846857Y-15530214D01*
X11875428Y-15544500D01*
X11889714Y-15558786D01*
X11904000Y-15587357D01*
X11918286Y-15644500D01*
X11918286Y-15715929D01*
X11904000Y-15773071D01*
X11889714Y-15801643D01*
X11875428Y-15815929D01*
X11846857Y-15830214D01*
X11818286Y-15830214D01*
X11789714Y-15815929D01*
X11775428Y-15801643D01*
X11761143Y-15773071D01*
X11746857Y-15715929D01*
X11746857Y-15644500D01*
X11761143Y-15587357D01*
X11775428Y-15558786D01*
X11789714Y-15544500D01*
X11818286Y-15530214D01*
X12175428Y-15630214D02*
X12175428Y-15830214D01*
X12104000Y-15515929D02*
X12032571Y-15730214D01*
X12218286Y-15730214D01*
X12475428Y-15530214D02*
X12332571Y-15530214D01*
X12318286Y-15673071D01*
X12332571Y-15658786D01*
X12361143Y-15644500D01*
X12432571Y-15644500D01*
X12461143Y-15658786D01*
X12475428Y-15673071D01*
X12489714Y-15701643D01*
X12489714Y-15773071D01*
X12475428Y-15801643D01*
X12461143Y-15815929D01*
X12432571Y-15830214D01*
X12361143Y-15830214D01*
X12332571Y-15815929D01*
X12318286Y-15801643D01*
X12746857Y-15630214D02*
X12746857Y-15830214D01*
X12675428Y-15515929D02*
X12604000Y-15730214D01*
X12789714Y-15730214D01*
X12889714Y-15530214D02*
X12889714Y-15587357D01*
X13004000Y-15530214D02*
X13004000Y-15587357D01*
X13446857Y-15944500D02*
X13432571Y-15930214D01*
X13404000Y-15887357D01*
X13389714Y-15858786D01*
X13375428Y-15815929D01*
X13361143Y-15744500D01*
X13361143Y-15687357D01*
X13375428Y-15615929D01*
X13389714Y-15573071D01*
X13404000Y-15544500D01*
X13432571Y-15501643D01*
X13446857Y-15487357D01*
X13689714Y-15630214D02*
X13689714Y-15830214D01*
X13618286Y-15515929D02*
X13546857Y-15730214D01*
X13732571Y-15730214D01*
X14075428Y-15830214D02*
X14075428Y-15530214D01*
X14204000Y-15830214D02*
X14204000Y-15673071D01*
X14189714Y-15644500D01*
X14161143Y-15630214D01*
X14118286Y-15630214D01*
X14089714Y-15644500D01*
X14075428Y-15658786D01*
X14389714Y-15830214D02*
X14361143Y-15815929D01*
X14346857Y-15801643D01*
X14332571Y-15773071D01*
X14332571Y-15687357D01*
X14346857Y-15658786D01*
X14361143Y-15644500D01*
X14389714Y-15630214D01*
X14432571Y-15630214D01*
X14461143Y-15644500D01*
X14475428Y-15658786D01*
X14489714Y-15687357D01*
X14489714Y-15773071D01*
X14475428Y-15801643D01*
X14461143Y-15815929D01*
X14432571Y-15830214D01*
X14389714Y-15830214D01*
X14661143Y-15830214D02*
X14632571Y-15815929D01*
X14618286Y-15787357D01*
X14618286Y-15530214D01*
X14889714Y-15815929D02*
X14861143Y-15830214D01*
X14804000Y-15830214D01*
X14775428Y-15815929D01*
X14761143Y-15787357D01*
X14761143Y-15673071D01*
X14775428Y-15644500D01*
X14804000Y-15630214D01*
X14861143Y-15630214D01*
X14889714Y-15644500D01*
X14904000Y-15673071D01*
X14904000Y-15701643D01*
X14761143Y-15730214D01*
X15018286Y-15815929D02*
X15046857Y-15830214D01*
X15104000Y-15830214D01*
X15132571Y-15815929D01*
X15146857Y-15787357D01*
X15146857Y-15773071D01*
X15132571Y-15744500D01*
X15104000Y-15730214D01*
X15061143Y-15730214D01*
X15032571Y-15715929D01*
X15018286Y-15687357D01*
X15018286Y-15673071D01*
X15032571Y-15644500D01*
X15061143Y-15630214D01*
X15104000Y-15630214D01*
X15132571Y-15644500D01*
X15246857Y-15944500D02*
X15261143Y-15930214D01*
X15289714Y-15887357D01*
X15304000Y-15858786D01*
X15318286Y-15815929D01*
X15332571Y-15744500D01*
X15332571Y-15687357D01*
X15318286Y-15615929D01*
X15304000Y-15573071D01*
X15289714Y-15544500D01*
X15261143Y-15501643D01*
X15246857Y-15487357D01*
X15789714Y-15944500D02*
X15775428Y-15930214D01*
X15746857Y-15887357D01*
X15732571Y-15858786D01*
X15718286Y-15815929D01*
X15704000Y-15744500D01*
X15704000Y-15687357D01*
X15718286Y-15615929D01*
X15732571Y-15573071D01*
X15746857Y-15544500D01*
X15775428Y-15501643D01*
X15789714Y-15487357D01*
X15904000Y-15630214D02*
X15904000Y-15830214D01*
X15904000Y-15658786D02*
X15918286Y-15644500D01*
X15946857Y-15630214D01*
X15989714Y-15630214D01*
X16018286Y-15644500D01*
X16032571Y-15673071D01*
X16032571Y-15830214D01*
X16218286Y-15830214D02*
X16189714Y-15815929D01*
X16175428Y-15801643D01*
X16161143Y-15773071D01*
X16161143Y-15687357D01*
X16175428Y-15658786D01*
X16189714Y-15644500D01*
X16218286Y-15630214D01*
X16261143Y-15630214D01*
X16289714Y-15644500D01*
X16304000Y-15658786D01*
X16318286Y-15687357D01*
X16318286Y-15773071D01*
X16304000Y-15801643D01*
X16289714Y-15815929D01*
X16261143Y-15830214D01*
X16218286Y-15830214D01*
X16404000Y-15630214D02*
X16518286Y-15630214D01*
X16446857Y-15530214D02*
X16446857Y-15787357D01*
X16461143Y-15815929D01*
X16489714Y-15830214D01*
X16518286Y-15830214D01*
X16846857Y-15630214D02*
X16846857Y-15930214D01*
X16846857Y-15644500D02*
X16875428Y-15630214D01*
X16932571Y-15630214D01*
X16961143Y-15644500D01*
X16975428Y-15658786D01*
X16989714Y-15687357D01*
X16989714Y-15773071D01*
X16975428Y-15801643D01*
X16961143Y-15815929D01*
X16932571Y-15830214D01*
X16875428Y-15830214D01*
X16846857Y-15815929D01*
X17161143Y-15830214D02*
X17132571Y-15815929D01*
X17118286Y-15787357D01*
X17118286Y-15530214D01*
X17404000Y-15830214D02*
X17404000Y-15673071D01*
X17389714Y-15644500D01*
X17361143Y-15630214D01*
X17304000Y-15630214D01*
X17275428Y-15644500D01*
X17404000Y-15815929D02*
X17375428Y-15830214D01*
X17304000Y-15830214D01*
X17275428Y-15815929D01*
X17261143Y-15787357D01*
X17261143Y-15758786D01*
X17275428Y-15730214D01*
X17304000Y-15715929D01*
X17375428Y-15715929D01*
X17404000Y-15701643D01*
X17504000Y-15630214D02*
X17618286Y-15630214D01*
X17546857Y-15530214D02*
X17546857Y-15787357D01*
X17561143Y-15815929D01*
X17589714Y-15830214D01*
X17618286Y-15830214D01*
X17832571Y-15815929D02*
X17804000Y-15830214D01*
X17746857Y-15830214D01*
X17718286Y-15815929D01*
X17704000Y-15787357D01*
X17704000Y-15673071D01*
X17718286Y-15644500D01*
X17746857Y-15630214D01*
X17804000Y-15630214D01*
X17832571Y-15644500D01*
X17846857Y-15673071D01*
X17846857Y-15701643D01*
X17704000Y-15730214D01*
X18104000Y-15830214D02*
X18104000Y-15530214D01*
X18104000Y-15815929D02*
X18075428Y-15830214D01*
X18018286Y-15830214D01*
X17989714Y-15815929D01*
X17975428Y-15801643D01*
X17961143Y-15773071D01*
X17961143Y-15687357D01*
X17975428Y-15658786D01*
X17989714Y-15644500D01*
X18018286Y-15630214D01*
X18075428Y-15630214D01*
X18104000Y-15644500D01*
X18218286Y-15944500D02*
X18232571Y-15930214D01*
X18261143Y-15887357D01*
X18275428Y-15858786D01*
X18289714Y-15815929D01*
X18304000Y-15744500D01*
X18304000Y-15687357D01*
X18289714Y-15615929D01*
X18275428Y-15573071D01*
X18261143Y-15544500D01*
X18232571Y-15501643D01*
X18218286Y-15487357D01*
X8189000Y-16090500D02*
G75*
G03*
X8189000Y-16090500I-110000J0D01*
G01*
X8461143Y-15954786D02*
X8475428Y-15940500D01*
X8504000Y-15926214D01*
X8575428Y-15926214D01*
X8604000Y-15940500D01*
X8618286Y-15954786D01*
X8632571Y-15983357D01*
X8632571Y-16011929D01*
X8618286Y-16054786D01*
X8446857Y-16226214D01*
X8632571Y-16226214D01*
X8761143Y-16197643D02*
X8775428Y-16211929D01*
X8761143Y-16226214D01*
X8746857Y-16211929D01*
X8761143Y-16197643D01*
X8761143Y-16226214D01*
X8889714Y-15954786D02*
X8904000Y-15940500D01*
X8932571Y-15926214D01*
X9004000Y-15926214D01*
X9032571Y-15940500D01*
X9046857Y-15954786D01*
X9061143Y-15983357D01*
X9061143Y-16011929D01*
X9046857Y-16054786D01*
X8875428Y-16226214D01*
X9061143Y-16226214D01*
X9246857Y-15926214D02*
X9275428Y-15926214D01*
X9304000Y-15940500D01*
X9318286Y-15954786D01*
X9332571Y-15983357D01*
X9346857Y-16040500D01*
X9346857Y-16111929D01*
X9332571Y-16169071D01*
X9318286Y-16197643D01*
X9304000Y-16211929D01*
X9275428Y-16226214D01*
X9246857Y-16226214D01*
X9218286Y-16211929D01*
X9204000Y-16197643D01*
X9189714Y-16169071D01*
X9175428Y-16111929D01*
X9175428Y-16040500D01*
X9189714Y-15983357D01*
X9204000Y-15954786D01*
X9218286Y-15940500D01*
X9246857Y-15926214D01*
X9532571Y-15926214D02*
X9561143Y-15926214D01*
X9589714Y-15940500D01*
X9604000Y-15954786D01*
X9618286Y-15983357D01*
X9632571Y-16040500D01*
X9632571Y-16111929D01*
X9618286Y-16169071D01*
X9604000Y-16197643D01*
X9589714Y-16211929D01*
X9561143Y-16226214D01*
X9532571Y-16226214D01*
X9504000Y-16211929D01*
X9489714Y-16197643D01*
X9475428Y-16169071D01*
X9461143Y-16111929D01*
X9461143Y-16040500D01*
X9475428Y-15983357D01*
X9489714Y-15954786D01*
X9504000Y-15940500D01*
X9532571Y-15926214D01*
X9761143Y-16226214D02*
X9761143Y-16026214D01*
X9761143Y-16054786D02*
X9775428Y-16040500D01*
X9804000Y-16026214D01*
X9846857Y-16026214D01*
X9875428Y-16040500D01*
X9889714Y-16069071D01*
X9889714Y-16226214D01*
X9889714Y-16069071D02*
X9904000Y-16040500D01*
X9932571Y-16026214D01*
X9975428Y-16026214D01*
X10004000Y-16040500D01*
X10018286Y-16069071D01*
X10018286Y-16226214D01*
X10161143Y-16226214D02*
X10161143Y-16026214D01*
X10161143Y-16054786D02*
X10175428Y-16040500D01*
X10204000Y-16026214D01*
X10246857Y-16026214D01*
X10275428Y-16040500D01*
X10289714Y-16069071D01*
X10289714Y-16226214D01*
X10289714Y-16069071D02*
X10304000Y-16040500D01*
X10332571Y-16026214D01*
X10375428Y-16026214D01*
X10404000Y-16040500D01*
X10418286Y-16069071D01*
X10418286Y-16226214D01*
X11004000Y-15911929D02*
X10746857Y-16297643D01*
X11389714Y-15926214D02*
X11418286Y-15926214D01*
X11446857Y-15940500D01*
X11461143Y-15954786D01*
X11475428Y-15983357D01*
X11489714Y-16040500D01*
X11489714Y-16111929D01*
X11475428Y-16169071D01*
X11461143Y-16197643D01*
X11446857Y-16211929D01*
X11418286Y-16226214D01*
X11389714Y-16226214D01*
X11361143Y-16211929D01*
X11346857Y-16197643D01*
X11332571Y-16169071D01*
X11318286Y-16111929D01*
X11318286Y-16040500D01*
X11332571Y-15983357D01*
X11346857Y-15954786D01*
X11361143Y-15940500D01*
X11389714Y-15926214D01*
X11618286Y-16197643D02*
X11632571Y-16211929D01*
X11618286Y-16226214D01*
X11604000Y-16211929D01*
X11618286Y-16197643D01*
X11618286Y-16226214D01*
X11818286Y-15926214D02*
X11846857Y-15926214D01*
X11875428Y-15940500D01*
X11889714Y-15954786D01*
X11904000Y-15983357D01*
X11918286Y-16040500D01*
X11918286Y-16111929D01*
X11904000Y-16169071D01*
X11889714Y-16197643D01*
X11875428Y-16211929D01*
X11846857Y-16226214D01*
X11818286Y-16226214D01*
X11789714Y-16211929D01*
X11775428Y-16197643D01*
X11761143Y-16169071D01*
X11746857Y-16111929D01*
X11746857Y-16040500D01*
X11761143Y-15983357D01*
X11775428Y-15954786D01*
X11789714Y-15940500D01*
X11818286Y-15926214D01*
X12089714Y-16054786D02*
X12061143Y-16040500D01*
X12046857Y-16026214D01*
X12032571Y-15997643D01*
X12032571Y-15983357D01*
X12046857Y-15954786D01*
X12061143Y-15940500D01*
X12089714Y-15926214D01*
X12146857Y-15926214D01*
X12175428Y-15940500D01*
X12189714Y-15954786D01*
X12204000Y-15983357D01*
X12204000Y-15997643D01*
X12189714Y-16026214D01*
X12175428Y-16040500D01*
X12146857Y-16054786D01*
X12089714Y-16054786D01*
X12061143Y-16069071D01*
X12046857Y-16083357D01*
X12032571Y-16111929D01*
X12032571Y-16169071D01*
X12046857Y-16197643D01*
X12061143Y-16211929D01*
X12089714Y-16226214D01*
X12146857Y-16226214D01*
X12175428Y-16211929D01*
X12189714Y-16197643D01*
X12204000Y-16169071D01*
X12204000Y-16111929D01*
X12189714Y-16083357D01*
X12175428Y-16069071D01*
X12146857Y-16054786D01*
X12461143Y-15926214D02*
X12404000Y-15926214D01*
X12375428Y-15940500D01*
X12361143Y-15954786D01*
X12332571Y-15997643D01*
X12318286Y-16054786D01*
X12318286Y-16169071D01*
X12332571Y-16197643D01*
X12346857Y-16211929D01*
X12375428Y-16226214D01*
X12432571Y-16226214D01*
X12461143Y-16211929D01*
X12475428Y-16197643D01*
X12489714Y-16169071D01*
X12489714Y-16097643D01*
X12475428Y-16069071D01*
X12461143Y-16054786D01*
X12432571Y-16040500D01*
X12375428Y-16040500D01*
X12346857Y-16054786D01*
X12332571Y-16069071D01*
X12318286Y-16097643D01*
X12746857Y-15926214D02*
X12689714Y-15926214D01*
X12661143Y-15940500D01*
X12646857Y-15954786D01*
X12618286Y-15997643D01*
X12604000Y-16054786D01*
X12604000Y-16169071D01*
X12618286Y-16197643D01*
X12632571Y-16211929D01*
X12661143Y-16226214D01*
X12718286Y-16226214D01*
X12746857Y-16211929D01*
X12761143Y-16197643D01*
X12775428Y-16169071D01*
X12775428Y-16097643D01*
X12761143Y-16069071D01*
X12746857Y-16054786D01*
X12718286Y-16040500D01*
X12661143Y-16040500D01*
X12632571Y-16054786D01*
X12618286Y-16069071D01*
X12604000Y-16097643D01*
X12889714Y-15926214D02*
X12889714Y-15983357D01*
X13004000Y-15926214D02*
X13004000Y-15983357D01*
X13446857Y-16340500D02*
X13432571Y-16326214D01*
X13404000Y-16283357D01*
X13389714Y-16254786D01*
X13375428Y-16211929D01*
X13361143Y-16140500D01*
X13361143Y-16083357D01*
X13375428Y-16011929D01*
X13389714Y-15969071D01*
X13404000Y-15940500D01*
X13432571Y-15897643D01*
X13446857Y-15883357D01*
X13689714Y-16026214D02*
X13689714Y-16226214D01*
X13618286Y-15911929D02*
X13546857Y-16126214D01*
X13732571Y-16126214D01*
X14075428Y-16226214D02*
X14075428Y-15926214D01*
X14204000Y-16226214D02*
X14204000Y-16069071D01*
X14189714Y-16040500D01*
X14161143Y-16026214D01*
X14118286Y-16026214D01*
X14089714Y-16040500D01*
X14075428Y-16054786D01*
X14389714Y-16226214D02*
X14361143Y-16211929D01*
X14346857Y-16197643D01*
X14332571Y-16169071D01*
X14332571Y-16083357D01*
X14346857Y-16054786D01*
X14361143Y-16040500D01*
X14389714Y-16026214D01*
X14432571Y-16026214D01*
X14461143Y-16040500D01*
X14475428Y-16054786D01*
X14489714Y-16083357D01*
X14489714Y-16169071D01*
X14475428Y-16197643D01*
X14461143Y-16211929D01*
X14432571Y-16226214D01*
X14389714Y-16226214D01*
X14661143Y-16226214D02*
X14632571Y-16211929D01*
X14618286Y-16183357D01*
X14618286Y-15926214D01*
X14889714Y-16211929D02*
X14861143Y-16226214D01*
X14804000Y-16226214D01*
X14775428Y-16211929D01*
X14761143Y-16183357D01*
X14761143Y-16069071D01*
X14775428Y-16040500D01*
X14804000Y-16026214D01*
X14861143Y-16026214D01*
X14889714Y-16040500D01*
X14904000Y-16069071D01*
X14904000Y-16097643D01*
X14761143Y-16126214D01*
X15018286Y-16211929D02*
X15046857Y-16226214D01*
X15104000Y-16226214D01*
X15132571Y-16211929D01*
X15146857Y-16183357D01*
X15146857Y-16169071D01*
X15132571Y-16140500D01*
X15104000Y-16126214D01*
X15061143Y-16126214D01*
X15032571Y-16111929D01*
X15018286Y-16083357D01*
X15018286Y-16069071D01*
X15032571Y-16040500D01*
X15061143Y-16026214D01*
X15104000Y-16026214D01*
X15132571Y-16040500D01*
X15246857Y-16340500D02*
X15261143Y-16326214D01*
X15289714Y-16283357D01*
X15304000Y-16254786D01*
X15318286Y-16211929D01*
X15332571Y-16140500D01*
X15332571Y-16083357D01*
X15318286Y-16011929D01*
X15304000Y-15969071D01*
X15289714Y-15940500D01*
X15261143Y-15897643D01*
X15246857Y-15883357D01*
X15789714Y-16340500D02*
X15775428Y-16326214D01*
X15746857Y-16283357D01*
X15732571Y-16254786D01*
X15718286Y-16211929D01*
X15704000Y-16140500D01*
X15704000Y-16083357D01*
X15718286Y-16011929D01*
X15732571Y-15969071D01*
X15746857Y-15940500D01*
X15775428Y-15897643D01*
X15789714Y-15883357D01*
X15904000Y-16026214D02*
X15904000Y-16226214D01*
X15904000Y-16054786D02*
X15918286Y-16040500D01*
X15946857Y-16026214D01*
X15989714Y-16026214D01*
X16018286Y-16040500D01*
X16032571Y-16069071D01*
X16032571Y-16226214D01*
X16218286Y-16226214D02*
X16189714Y-16211929D01*
X16175428Y-16197643D01*
X16161143Y-16169071D01*
X16161143Y-16083357D01*
X16175428Y-16054786D01*
X16189714Y-16040500D01*
X16218286Y-16026214D01*
X16261143Y-16026214D01*
X16289714Y-16040500D01*
X16304000Y-16054786D01*
X16318286Y-16083357D01*
X16318286Y-16169071D01*
X16304000Y-16197643D01*
X16289714Y-16211929D01*
X16261143Y-16226214D01*
X16218286Y-16226214D01*
X16404000Y-16026214D02*
X16518286Y-16026214D01*
X16446857Y-15926214D02*
X16446857Y-16183357D01*
X16461143Y-16211929D01*
X16489714Y-16226214D01*
X16518286Y-16226214D01*
X16846857Y-16026214D02*
X16846857Y-16326214D01*
X16846857Y-16040500D02*
X16875428Y-16026214D01*
X16932571Y-16026214D01*
X16961143Y-16040500D01*
X16975428Y-16054786D01*
X16989714Y-16083357D01*
X16989714Y-16169071D01*
X16975428Y-16197643D01*
X16961143Y-16211929D01*
X16932571Y-16226214D01*
X16875428Y-16226214D01*
X16846857Y-16211929D01*
X17161143Y-16226214D02*
X17132571Y-16211929D01*
X17118286Y-16183357D01*
X17118286Y-15926214D01*
X17404000Y-16226214D02*
X17404000Y-16069071D01*
X17389714Y-16040500D01*
X17361143Y-16026214D01*
X17304000Y-16026214D01*
X17275428Y-16040500D01*
X17404000Y-16211929D02*
X17375428Y-16226214D01*
X17304000Y-16226214D01*
X17275428Y-16211929D01*
X17261143Y-16183357D01*
X17261143Y-16154786D01*
X17275428Y-16126214D01*
X17304000Y-16111929D01*
X17375428Y-16111929D01*
X17404000Y-16097643D01*
X17504000Y-16026214D02*
X17618286Y-16026214D01*
X17546857Y-15926214D02*
X17546857Y-16183357D01*
X17561143Y-16211929D01*
X17589714Y-16226214D01*
X17618286Y-16226214D01*
X17832571Y-16211929D02*
X17804000Y-16226214D01*
X17746857Y-16226214D01*
X17718286Y-16211929D01*
X17704000Y-16183357D01*
X17704000Y-16069071D01*
X17718286Y-16040500D01*
X17746857Y-16026214D01*
X17804000Y-16026214D01*
X17832571Y-16040500D01*
X17846857Y-16069071D01*
X17846857Y-16097643D01*
X17704000Y-16126214D01*
X18104000Y-16226214D02*
X18104000Y-15926214D01*
X18104000Y-16211929D02*
X18075428Y-16226214D01*
X18018286Y-16226214D01*
X17989714Y-16211929D01*
X17975428Y-16197643D01*
X17961143Y-16169071D01*
X17961143Y-16083357D01*
X17975428Y-16054786D01*
X17989714Y-16040500D01*
X18018286Y-16026214D01*
X18075428Y-16026214D01*
X18104000Y-16040500D01*
X18218286Y-16340500D02*
X18232571Y-16326214D01*
X18261143Y-16283357D01*
X18275428Y-16254786D01*
X18289714Y-16211929D01*
X18304000Y-16140500D01*
X18304000Y-16083357D01*
X18289714Y-16011929D01*
X18275428Y-15969071D01*
X18261143Y-15940500D01*
X18232571Y-15897643D01*
X18218286Y-15883357D01*
M02*
