%TF.GenerationSoftware,KiCad,Pcbnew,(6.0.2)*%
%TF.CreationDate,2022-04-08T22:45:36+03:00*%
%TF.ProjectId,pwm-controller,70776d2d-636f-46e7-9472-6f6c6c65722e,rev?*%
%TF.SameCoordinates,Original*%
%TF.FileFunction,Paste,Top*%
%TF.FilePolarity,Positive*%
%FSLAX46Y46*%
G04 Gerber Fmt 4.6, Leading zero omitted, Abs format (unit mm)*
G04 Created by KiCad (PCBNEW (6.0.2)) date 2022-04-08 22:45:36*
%MOMM*%
%LPD*%
G01*
G04 APERTURE LIST*
G04 Aperture macros list*
%AMRoundRect*
0 Rectangle with rounded corners*
0 $1 Rounding radius*
0 $2 $3 $4 $5 $6 $7 $8 $9 X,Y pos of 4 corners*
0 Add a 4 corners polygon primitive as box body*
4,1,4,$2,$3,$4,$5,$6,$7,$8,$9,$2,$3,0*
0 Add four circle primitives for the rounded corners*
1,1,$1+$1,$2,$3*
1,1,$1+$1,$4,$5*
1,1,$1+$1,$6,$7*
1,1,$1+$1,$8,$9*
0 Add four rect primitives between the rounded corners*
20,1,$1+$1,$2,$3,$4,$5,0*
20,1,$1+$1,$4,$5,$6,$7,0*
20,1,$1+$1,$6,$7,$8,$9,0*
20,1,$1+$1,$8,$9,$2,$3,0*%
%AMFreePoly0*
4,1,9,3.862500,-0.866500,0.737500,-0.866500,0.737500,-0.450000,-0.737500,-0.450000,-0.737500,0.450000,0.737500,0.450000,0.737500,0.866500,3.862500,0.866500,3.862500,-0.866500,3.862500,-0.866500,$1*%
%AMFreePoly1*
4,1,21,1.372500,0.787500,0.862500,0.787500,0.862500,0.532500,1.372500,0.532500,1.372500,0.127500,0.862500,0.127500,0.862500,-0.127500,1.372500,-0.127500,1.372500,-0.532500,0.862500,-0.532500,0.862500,-0.787500,1.372500,-0.787500,1.372500,-1.195000,0.612500,-1.195000,0.612500,-1.117500,-0.862500,-1.117500,-0.862500,1.117500,0.612500,1.117500,0.612500,1.195000,1.372500,1.195000,
1.372500,0.787500,1.372500,0.787500,$1*%
G04 Aperture macros list end*
%ADD10RoundRect,0.225000X-0.225000X-0.250000X0.225000X-0.250000X0.225000X0.250000X-0.225000X0.250000X0*%
%ADD11RoundRect,0.155000X0.212500X0.155000X-0.212500X0.155000X-0.212500X-0.155000X0.212500X-0.155000X0*%
%ADD12RoundRect,0.150000X-0.587500X-0.150000X0.587500X-0.150000X0.587500X0.150000X-0.587500X0.150000X0*%
%ADD13RoundRect,0.160000X-0.197500X-0.160000X0.197500X-0.160000X0.197500X0.160000X-0.197500X0.160000X0*%
%ADD14RoundRect,0.135000X0.135000X0.185000X-0.135000X0.185000X-0.135000X-0.185000X0.135000X-0.185000X0*%
%ADD15RoundRect,0.140000X0.140000X0.170000X-0.140000X0.170000X-0.140000X-0.170000X0.140000X-0.170000X0*%
%ADD16RoundRect,0.140000X-0.140000X-0.170000X0.140000X-0.170000X0.140000X0.170000X-0.140000X0.170000X0*%
%ADD17R,0.900000X1.300000*%
%ADD18FreePoly0,270.000000*%
%ADD19RoundRect,0.135000X-0.135000X-0.185000X0.135000X-0.185000X0.135000X0.185000X-0.135000X0.185000X0*%
%ADD20RoundRect,0.150000X-0.150000X0.587500X-0.150000X-0.587500X0.150000X-0.587500X0.150000X0.587500X0*%
%ADD21RoundRect,0.135000X0.185000X-0.135000X0.185000X0.135000X-0.185000X0.135000X-0.185000X-0.135000X0*%
%ADD22RoundRect,0.218750X0.218750X0.256250X-0.218750X0.256250X-0.218750X-0.256250X0.218750X-0.256250X0*%
%ADD23R,1.200000X0.900000*%
%ADD24RoundRect,0.225000X0.225000X0.250000X-0.225000X0.250000X-0.225000X-0.250000X0.225000X-0.250000X0*%
%ADD25R,0.405000X0.990000*%
%ADD26FreePoly1,270.000000*%
%ADD27RoundRect,0.135000X-0.185000X0.135000X-0.185000X-0.135000X0.185000X-0.135000X0.185000X0.135000X0*%
%ADD28RoundRect,0.100000X-0.637500X-0.100000X0.637500X-0.100000X0.637500X0.100000X-0.637500X0.100000X0*%
%ADD29RoundRect,0.140000X0.170000X-0.140000X0.170000X0.140000X-0.170000X0.140000X-0.170000X-0.140000X0*%
G04 APERTURE END LIST*
D10*
%TO.C,C1*%
X81521000Y-94234000D03*
X83071000Y-94234000D03*
%TD*%
D11*
%TO.C,C13*%
X109025500Y-99022000D03*
X107890500Y-99022000D03*
%TD*%
D12*
%TO.C,Q1*%
X110695500Y-96802000D03*
X110695500Y-98702000D03*
X112570500Y-97752000D03*
%TD*%
%TO.C,Q2*%
X104345500Y-96802000D03*
X104345500Y-98702000D03*
X106220500Y-97752000D03*
%TD*%
D13*
%TO.C,R13*%
X107860500Y-97752000D03*
X109055500Y-97752000D03*
%TD*%
D14*
%TO.C,R12*%
X108968000Y-95974000D03*
X107948000Y-95974000D03*
%TD*%
D11*
%TO.C,C15*%
X119439500Y-99022000D03*
X118304500Y-99022000D03*
%TD*%
D12*
%TO.C,Q5*%
X121109500Y-96802000D03*
X121109500Y-98702000D03*
X122984500Y-97752000D03*
%TD*%
%TO.C,Q6*%
X114759500Y-96802000D03*
X114759500Y-98702000D03*
X116634500Y-97752000D03*
%TD*%
D13*
%TO.C,R15*%
X118274500Y-97752000D03*
X119469500Y-97752000D03*
%TD*%
D14*
%TO.C,R14*%
X119382000Y-95974000D03*
X118362000Y-95974000D03*
%TD*%
D15*
%TO.C,C12*%
X122174000Y-95212000D03*
X121214000Y-95212000D03*
%TD*%
%TO.C,C14*%
X111760000Y-95212000D03*
X110800000Y-95212000D03*
%TD*%
D16*
%TO.C,C4*%
X102517000Y-85598000D03*
X103477000Y-85598000D03*
%TD*%
%TO.C,C5*%
X102517000Y-88138000D03*
X103477000Y-88138000D03*
%TD*%
%TO.C,C6*%
X102517000Y-86868000D03*
X103477000Y-86868000D03*
%TD*%
D17*
%TO.C,U1*%
X84812000Y-96394000D03*
D18*
X83312000Y-96481500D03*
D17*
X81812000Y-96394000D03*
%TD*%
D14*
%TO.C,R1*%
X105539000Y-85598000D03*
X104519000Y-85598000D03*
%TD*%
D19*
%TO.C,R5*%
X104519000Y-86868000D03*
X105539000Y-86868000D03*
%TD*%
D14*
%TO.C,R2*%
X105539000Y-88138000D03*
X104519000Y-88138000D03*
%TD*%
D20*
%TO.C,Q9*%
X93660000Y-95379300D03*
X91760000Y-95379300D03*
X92710000Y-97254300D03*
%TD*%
%TO.C,Q10*%
X101026000Y-95379300D03*
X99126000Y-95379300D03*
X100076000Y-97254300D03*
%TD*%
D21*
%TO.C,R18*%
X94996000Y-96064800D03*
X94996000Y-95044800D03*
%TD*%
%TO.C,R21*%
X102362000Y-96064800D03*
X102362000Y-95044800D03*
%TD*%
D22*
%TO.C,D4*%
X93243500Y-99110800D03*
X91668500Y-99110800D03*
%TD*%
%TO.C,D3*%
X100609500Y-99110800D03*
X99034500Y-99110800D03*
%TD*%
D19*
%TO.C,R3*%
X97026000Y-88900000D03*
X98046000Y-88900000D03*
%TD*%
D14*
%TO.C,R4*%
X100078000Y-88900000D03*
X99058000Y-88900000D03*
%TD*%
D15*
%TO.C,C2*%
X85316000Y-94488000D03*
X84356000Y-94488000D03*
%TD*%
D23*
%TO.C,D1*%
X79248000Y-94362000D03*
X79248000Y-97662000D03*
%TD*%
D16*
%TO.C,C9*%
X81054000Y-89916000D03*
X82014000Y-89916000D03*
%TD*%
D24*
%TO.C,C11*%
X81801000Y-91186000D03*
X80251000Y-91186000D03*
%TD*%
D23*
%TO.C,D2*%
X87376000Y-98220800D03*
X87376000Y-94920800D03*
%TD*%
D25*
%TO.C,Q3*%
X112750000Y-109055000D03*
X112090000Y-109055000D03*
X111430000Y-109055000D03*
X110770000Y-109055000D03*
D26*
X111760000Y-111047500D03*
%TD*%
D25*
%TO.C,Q7*%
X99542000Y-109055000D03*
X98882000Y-109055000D03*
X98222000Y-109055000D03*
X97562000Y-109055000D03*
D26*
X98552000Y-111047500D03*
%TD*%
D27*
%TO.C,R16*%
X89408000Y-95044800D03*
X89408000Y-96064800D03*
%TD*%
%TO.C,R17*%
X90424000Y-95044800D03*
X90424000Y-96064800D03*
%TD*%
%TO.C,R19*%
X96774000Y-95044800D03*
X96774000Y-96064800D03*
%TD*%
%TO.C,R20*%
X97790000Y-95044800D03*
X97790000Y-96064800D03*
%TD*%
D25*
%TO.C,Q4*%
X118338000Y-109055000D03*
X117678000Y-109055000D03*
X117018000Y-109055000D03*
X116358000Y-109055000D03*
D26*
X117348000Y-111047500D03*
%TD*%
D25*
%TO.C,Q8*%
X105130000Y-109055000D03*
X104470000Y-109055000D03*
X103810000Y-109055000D03*
X103150000Y-109055000D03*
D26*
X104140000Y-111047500D03*
%TD*%
D15*
%TO.C,C3*%
X93444000Y-87084000D03*
X92484000Y-87084000D03*
%TD*%
D19*
%TO.C,R11*%
X78992000Y-87122000D03*
X80012000Y-87122000D03*
%TD*%
D14*
%TO.C,R8*%
X93474000Y-86068000D03*
X92454000Y-86068000D03*
%TD*%
%TO.C,R6*%
X92458000Y-90894000D03*
X91438000Y-90894000D03*
%TD*%
D19*
%TO.C,R10*%
X81024000Y-87084000D03*
X82044000Y-87084000D03*
%TD*%
D16*
%TO.C,C8*%
X81054000Y-92456000D03*
X82014000Y-92456000D03*
%TD*%
D28*
%TO.C,U2*%
X83786500Y-85929000D03*
X83786500Y-86579000D03*
X83786500Y-87229000D03*
X83786500Y-87879000D03*
X83786500Y-88529000D03*
X83786500Y-89179000D03*
X83786500Y-89829000D03*
X83786500Y-90479000D03*
X83786500Y-91129000D03*
X83786500Y-91779000D03*
X89511500Y-91779000D03*
X89511500Y-91129000D03*
X89511500Y-90479000D03*
X89511500Y-89829000D03*
X89511500Y-89179000D03*
X89511500Y-88529000D03*
X89511500Y-87879000D03*
X89511500Y-87229000D03*
X89511500Y-86579000D03*
X89511500Y-85929000D03*
%TD*%
D15*
%TO.C,C10*%
X79982000Y-88138000D03*
X79022000Y-88138000D03*
%TD*%
D14*
%TO.C,R7*%
X92458000Y-91910000D03*
X91438000Y-91910000D03*
%TD*%
D19*
%TO.C,R9*%
X81024000Y-86068000D03*
X82044000Y-86068000D03*
%TD*%
D29*
%TO.C,C7*%
X105156000Y-82014000D03*
X105156000Y-81054000D03*
%TD*%
M02*
