%TF.GenerationSoftware,KiCad,Pcbnew,6.0.0*%
%TF.CreationDate,2022-01-04T02:05:38+02:00*%
%TF.ProjectId,pwm-controller,70776d2d-636f-46e7-9472-6f6c6c65722e,rev?*%
%TF.SameCoordinates,Original*%
%TF.FileFunction,Copper,L4,Bot*%
%TF.FilePolarity,Positive*%
%FSLAX46Y46*%
G04 Gerber Fmt 4.6, Leading zero omitted, Abs format (unit mm)*
G04 Created by KiCad (PCBNEW 6.0.0) date 2022-01-04 02:05:38*
%MOMM*%
%LPD*%
G01*
G04 APERTURE LIST*
G04 Aperture macros list*
%AMRoundRect*
0 Rectangle with rounded corners*
0 $1 Rounding radius*
0 $2 $3 $4 $5 $6 $7 $8 $9 X,Y pos of 4 corners*
0 Add a 4 corners polygon primitive as box body*
4,1,4,$2,$3,$4,$5,$6,$7,$8,$9,$2,$3,0*
0 Add four circle primitives for the rounded corners*
1,1,$1+$1,$2,$3*
1,1,$1+$1,$4,$5*
1,1,$1+$1,$6,$7*
1,1,$1+$1,$8,$9*
0 Add four rect primitives between the rounded corners*
20,1,$1+$1,$2,$3,$4,$5,0*
20,1,$1+$1,$4,$5,$6,$7,0*
20,1,$1+$1,$6,$7,$8,$9,0*
20,1,$1+$1,$8,$9,$2,$3,0*%
G04 Aperture macros list end*
%TA.AperFunction,ComponentPad*%
%ADD10C,2.200000*%
%TD*%
%TA.AperFunction,ComponentPad*%
%ADD11RoundRect,0.800000X-0.800000X-1.100000X0.800000X-1.100000X0.800000X1.100000X-0.800000X1.100000X0*%
%TD*%
%TA.AperFunction,ComponentPad*%
%ADD12C,1.800000*%
%TD*%
%TA.AperFunction,ComponentPad*%
%ADD13R,1.700000X1.700000*%
%TD*%
%TA.AperFunction,ComponentPad*%
%ADD14O,1.700000X1.700000*%
%TD*%
%TA.AperFunction,ComponentPad*%
%ADD15C,1.500000*%
%TD*%
%TA.AperFunction,ViaPad*%
%ADD16C,0.600000*%
%TD*%
%TA.AperFunction,Conductor*%
%ADD17C,0.200000*%
%TD*%
G04 APERTURE END LIST*
D10*
%TO.P,J1,1,Pin_1*%
%TO.N,GND*%
X81788000Y-104648000D03*
%TO.P,J1,2,Pin_2*%
%TO.N,VIN*%
X81788000Y-109728000D03*
%TD*%
D11*
%TO.P,SW1,*%
%TO.N,*%
X120935000Y-86626000D03*
X108935000Y-86626000D03*
D12*
%TO.P,SW1,A,A*%
%TO.N,Net-(R1-Pad1)*%
X109385000Y-82426000D03*
%TO.P,SW1,B,B*%
%TO.N,Net-(R2-Pad1)*%
X120485000Y-82426000D03*
%TO.P,SW1,C,C*%
%TO.N,GND*%
X114935000Y-79726000D03*
%TO.P,SW1,S1,S1*%
%TO.N,Net-(R5-Pad2)*%
X109385000Y-90726000D03*
%TO.P,SW1,S2,S2*%
%TO.N,GND*%
X120885000Y-90026000D03*
%TD*%
D13*
%TO.P,J2,1,Pin_1*%
%TO.N,URX*%
X79502000Y-82804000D03*
D14*
%TO.P,J2,2,Pin_2*%
%TO.N,SWIM*%
X79502000Y-80264000D03*
%TO.P,J2,3,Pin_3*%
%TO.N,UTX*%
X82042000Y-82804000D03*
%TO.P,J2,4,Pin_4*%
%TO.N,NRST*%
X82042000Y-80264000D03*
%TO.P,J2,5,Pin_5*%
%TO.N,SADD0*%
X84582000Y-82804000D03*
%TO.P,J2,6,Pin_6*%
%TO.N,GND*%
X84582000Y-80264000D03*
%TO.P,J2,7,Pin_7*%
%TO.N,SADD1*%
X87122000Y-82804000D03*
%TO.P,J2,8,Pin_8*%
%TO.N,GND*%
X87122000Y-80264000D03*
%TO.P,J2,9,Pin_9*%
%TO.N,SADD2*%
X89662000Y-82804000D03*
%TO.P,J2,10,Pin_10*%
%TO.N,GND*%
X89662000Y-80264000D03*
%TO.P,J2,11,Pin_11*%
X92202000Y-82804000D03*
%TO.P,J2,12,Pin_12*%
X92202000Y-80264000D03*
%TO.P,J2,13,Pin_13*%
%TO.N,INT*%
X94742000Y-82804000D03*
%TO.P,J2,14,Pin_14*%
X94742000Y-80264000D03*
%TO.P,J2,15,Pin_15*%
%TO.N,SCL*%
X97282000Y-82804000D03*
%TO.P,J2,16,Pin_16*%
X97282000Y-80264000D03*
%TO.P,J2,17,Pin_17*%
%TO.N,SDA*%
X99822000Y-82804000D03*
%TO.P,J2,18,Pin_18*%
X99822000Y-80264000D03*
%TD*%
D15*
%TO.P,TP1,1,1*%
%TO.N,+5V*%
X103378000Y-89154000D03*
%TD*%
D10*
%TO.P,J4,1,Pin_1*%
%TO.N,DRAIN2*%
X105410000Y-120739000D03*
%TO.P,J4,2,Pin_2*%
%TO.N,DRAIN1*%
X110490000Y-120739000D03*
%TD*%
%TO.P,J3,1,Pin_1*%
%TO.N,VIN*%
X86995000Y-120739000D03*
%TO.P,J3,2,Pin_2*%
X92075000Y-120739000D03*
%TD*%
D16*
%TO.N,GND*%
X112395000Y-104140000D03*
X79248000Y-91186000D03*
X97155000Y-106680000D03*
X92075000Y-106680000D03*
X101578900Y-83289931D03*
X124460000Y-101600000D03*
X86995000Y-104140000D03*
X117475000Y-101600000D03*
X86995000Y-106680000D03*
X99695000Y-101600000D03*
X114935000Y-104140000D03*
X104775000Y-106680000D03*
X85344000Y-89916000D03*
X86995000Y-101600000D03*
X89535000Y-104140000D03*
X84074000Y-93688000D03*
X97155000Y-101600000D03*
X94615000Y-106680000D03*
X109855000Y-101600000D03*
X80264000Y-92456000D03*
X102235000Y-104140000D03*
X91186000Y-97332800D03*
X114935000Y-106680000D03*
X84836000Y-98768000D03*
X92075000Y-104140000D03*
X106934000Y-95212000D03*
X99695000Y-106680000D03*
X114935000Y-101600000D03*
X78232000Y-88900000D03*
X120142000Y-95212000D03*
X94615000Y-101600000D03*
X112395000Y-101600000D03*
X124460000Y-106680000D03*
X94615000Y-104140000D03*
X101600000Y-84582000D03*
X101600000Y-85824010D03*
X117348000Y-95212000D03*
X104775000Y-104140000D03*
X106426000Y-98933000D03*
X102235000Y-106680000D03*
X109855000Y-106680000D03*
X81788000Y-98768000D03*
X120015000Y-101600000D03*
X120015000Y-106680000D03*
X107315000Y-106680000D03*
X120015000Y-104140000D03*
X89535000Y-101600000D03*
X89535000Y-106680000D03*
X104775000Y-101600000D03*
X92075000Y-101600000D03*
X92964000Y-87884000D03*
X97155000Y-104140000D03*
X98552000Y-97332800D03*
X102235000Y-101600000D03*
X124460000Y-104140000D03*
X99695000Y-104140000D03*
X112395000Y-106680000D03*
X109728000Y-95212000D03*
X109855000Y-104140000D03*
X117475000Y-106680000D03*
X107315000Y-101600000D03*
X107315000Y-104140000D03*
X116840000Y-98933000D03*
X117475000Y-104140000D03*
X80334764Y-89986764D03*
%TO.N,RE_Q*%
X96716313Y-86414000D03*
X100390870Y-86410905D03*
%TO.N,RE_I*%
X99822000Y-85814000D03*
X97282000Y-85814000D03*
%TO.N,RE_B*%
X100838000Y-87084000D03*
X96266000Y-87084000D03*
%TO.N,LED1*%
X79248000Y-101092000D03*
X77632000Y-99568000D03*
%TO.N,LED2*%
X77649645Y-98533558D03*
X79248000Y-100076000D03*
%TO.N,DRAIN1*%
X115570000Y-116840000D03*
X118110000Y-124460000D03*
X113030000Y-114300000D03*
X110490000Y-124460000D03*
X113030000Y-116840000D03*
X110490000Y-116840000D03*
X115570000Y-119380000D03*
X113030000Y-119380000D03*
X118110000Y-116840000D03*
X115570000Y-114300000D03*
X118110000Y-119380000D03*
X118110000Y-114300000D03*
X118110000Y-121920000D03*
X110490000Y-114300000D03*
X113030000Y-121920000D03*
X115570000Y-121920000D03*
X115570000Y-124460000D03*
X113030000Y-124460000D03*
%TO.N,DRAIN2*%
X105410000Y-114300000D03*
X97790000Y-114300000D03*
X100330000Y-119380000D03*
X97790000Y-116840000D03*
X105410000Y-116840000D03*
X102870000Y-124460000D03*
X102870000Y-121920000D03*
X105410000Y-124460000D03*
X97790000Y-124460000D03*
X100330000Y-114300000D03*
X100330000Y-116840000D03*
X100330000Y-121920000D03*
X102870000Y-116840000D03*
X102870000Y-119380000D03*
X102870000Y-114300000D03*
X97790000Y-119380000D03*
X100330000Y-124460000D03*
X97790000Y-121920000D03*
%TO.N,/channel1/GATE*%
X115316000Y-108712000D03*
X121412000Y-101600000D03*
X109728000Y-108712000D03*
%TO.N,/channel2/GATE*%
X96520000Y-108712000D03*
X122428000Y-101600000D03*
X102108000Y-108712000D03*
%TO.N,VIN*%
X79375000Y-114300000D03*
X79375000Y-119380000D03*
X89522400Y-119380000D03*
X84455000Y-119380000D03*
X81915000Y-114300000D03*
X86995000Y-124460000D03*
X86995000Y-116840000D03*
X89535000Y-116840000D03*
X86995000Y-114300000D03*
X89535000Y-124460000D03*
X86995000Y-111760000D03*
X79375000Y-116840000D03*
X81915000Y-116840000D03*
X84455000Y-109207400D03*
X89535000Y-121907400D03*
X79375000Y-111747400D03*
X84455000Y-121907400D03*
X84455000Y-114300000D03*
X84455000Y-111760000D03*
X84455000Y-116840000D03*
X92075000Y-116840000D03*
X89535000Y-114300000D03*
X84455000Y-124460000D03*
X79375000Y-109207400D03*
X81915000Y-119380000D03*
X92075000Y-114287400D03*
X92075000Y-124460000D03*
X89535000Y-111747400D03*
%TO.N,+5V*%
X91643200Y-93726000D03*
X98552000Y-87846000D03*
X93814994Y-91528994D03*
X118364000Y-93726000D03*
X107480000Y-93726000D03*
X116078000Y-93726000D03*
X98552000Y-90386000D03*
X109728000Y-93726000D03*
%TO.N,/INT_PIN*%
X91948000Y-87884000D03*
X87332735Y-85808735D03*
%TD*%
D17*
%TO.N,GND*%
X97155000Y-101600000D02*
X94615000Y-101600000D01*
X107315000Y-106680000D02*
X104775000Y-106680000D01*
X114935000Y-104140000D02*
X112395000Y-104140000D01*
X124460000Y-101600000D02*
X124460000Y-104140000D01*
X104775000Y-106680000D02*
X102235000Y-106680000D01*
X112395000Y-106680000D02*
X109855000Y-106680000D01*
X109855000Y-104140000D02*
X107315000Y-104140000D01*
X109855000Y-106680000D02*
X107315000Y-106680000D01*
X97155000Y-106680000D02*
X99695000Y-106680000D01*
X112395000Y-101600000D02*
X114935000Y-101600000D01*
X97155000Y-104140000D02*
X97155000Y-106680000D01*
X89535000Y-101600000D02*
X89535000Y-104140000D01*
X97155000Y-106680000D02*
X94615000Y-106680000D01*
X107315000Y-104140000D02*
X104775000Y-104140000D01*
X117475000Y-106680000D02*
X114935000Y-106680000D01*
X89535000Y-104140000D02*
X86995000Y-104140000D01*
X112395000Y-104140000D02*
X109855000Y-104140000D01*
X97155000Y-104140000D02*
X99695000Y-104140000D01*
X120015000Y-104140000D02*
X120015000Y-106680000D01*
X92075000Y-101600000D02*
X89535000Y-101600000D01*
X92075000Y-106680000D02*
X89535000Y-106680000D01*
X102235000Y-101600000D02*
X99695000Y-101600000D01*
X92075000Y-104140000D02*
X94615000Y-104140000D01*
X94615000Y-101600000D02*
X92075000Y-101600000D01*
X107315000Y-101600000D02*
X109855000Y-101600000D01*
X124460000Y-104140000D02*
X124460000Y-106680000D01*
X120015000Y-106680000D02*
X117475000Y-106680000D01*
X104775000Y-104140000D02*
X102235000Y-104140000D01*
X94615000Y-106680000D02*
X92075000Y-106680000D01*
X102235000Y-101600000D02*
X104775000Y-101600000D01*
X89535000Y-106680000D02*
X86995000Y-106680000D01*
X89535000Y-101600000D02*
X86995000Y-101600000D01*
X117475000Y-104140000D02*
X114935000Y-104140000D01*
X94615000Y-104140000D02*
X97155000Y-104140000D01*
X120015000Y-104140000D02*
X120015000Y-101600000D01*
X89535000Y-106680000D02*
X89535000Y-104140000D01*
X114935000Y-106680000D02*
X112395000Y-106680000D01*
X104775000Y-101600000D02*
X107315000Y-101600000D01*
X99695000Y-101600000D02*
X97155000Y-101600000D01*
X114935000Y-101600000D02*
X117475000Y-101600000D01*
X89535000Y-104140000D02*
X92075000Y-104140000D01*
X102235000Y-106680000D02*
X99695000Y-106680000D01*
X99695000Y-104140000D02*
X102235000Y-104140000D01*
X86995000Y-101600000D02*
X86995000Y-106680000D01*
X109855000Y-101600000D02*
X112395000Y-101600000D01*
X117475000Y-101600000D02*
X120015000Y-101600000D01*
X120015000Y-104140000D02*
X117475000Y-104140000D01*
%TO.N,RE_Q*%
X100387775Y-86414000D02*
X100390870Y-86410905D01*
X96716313Y-86414000D02*
X100387775Y-86414000D01*
%TO.N,RE_I*%
X97282000Y-85814000D02*
X99822000Y-85814000D01*
%TO.N,RE_B*%
X96266000Y-87084000D02*
X100838000Y-87084000D01*
%TO.N,LED1*%
X77632000Y-99568000D02*
X79156000Y-101092000D01*
X79156000Y-101092000D02*
X79248000Y-101092000D01*
%TO.N,LED2*%
X77649645Y-98533558D02*
X79192087Y-100076000D01*
X79192087Y-100076000D02*
X79248000Y-100076000D01*
%TO.N,DRAIN1*%
X113030000Y-121920000D02*
X113030000Y-119380000D01*
X118110000Y-116840000D02*
X118110000Y-119380000D01*
X118110000Y-124460000D02*
X115570000Y-124460000D01*
X115570000Y-121920000D02*
X113030000Y-121920000D01*
X113030000Y-119380000D02*
X115570000Y-119380000D01*
X118110000Y-114300000D02*
X115570000Y-114300000D01*
X115570000Y-119380000D02*
X118110000Y-119380000D01*
X115570000Y-124460000D02*
X113030000Y-124460000D01*
X115570000Y-114300000D02*
X113030000Y-114300000D01*
X118110000Y-121920000D02*
X115570000Y-121920000D01*
X118110000Y-121920000D02*
X118110000Y-124460000D01*
X113030000Y-121920000D02*
X110490000Y-124460000D01*
X115570000Y-116840000D02*
X118110000Y-116840000D01*
X113030000Y-114300000D02*
X110490000Y-114300000D01*
X113030000Y-124460000D02*
X110490000Y-124460000D01*
X113030000Y-124460000D02*
X113030000Y-121920000D01*
X118110000Y-116840000D02*
X118110000Y-114300000D01*
X110490000Y-116840000D02*
X113030000Y-116840000D01*
X113030000Y-119380000D02*
X110490000Y-116840000D01*
X113030000Y-116840000D02*
X115570000Y-116840000D01*
X118110000Y-119380000D02*
X118110000Y-121920000D01*
X110490000Y-114300000D02*
X110490000Y-116840000D01*
%TO.N,DRAIN2*%
X102870000Y-116840000D02*
X100330000Y-116840000D01*
X97790000Y-121920000D02*
X97790000Y-119380000D01*
X97790000Y-124460000D02*
X100330000Y-124460000D01*
X102870000Y-124460000D02*
X102870000Y-121920000D01*
X105410000Y-116840000D02*
X102870000Y-116840000D01*
X97790000Y-116840000D02*
X97790000Y-119380000D01*
X102870000Y-124460000D02*
X105410000Y-124460000D01*
X100330000Y-124460000D02*
X102870000Y-124460000D01*
X100330000Y-116840000D02*
X97790000Y-116840000D01*
X102870000Y-119380000D02*
X102870000Y-121920000D01*
X97790000Y-114300000D02*
X100330000Y-114300000D01*
X97790000Y-116840000D02*
X97790000Y-114300000D01*
X102870000Y-121920000D02*
X100330000Y-121920000D01*
X100330000Y-121920000D02*
X97790000Y-121920000D01*
X102870000Y-114300000D02*
X105410000Y-114300000D01*
X105410000Y-124460000D02*
X102870000Y-121920000D01*
X105410000Y-114300000D02*
X105410000Y-116840000D01*
X97790000Y-121920000D02*
X97790000Y-124460000D01*
X100330000Y-119380000D02*
X102870000Y-119380000D01*
X97790000Y-119380000D02*
X100330000Y-119380000D01*
X102870000Y-119380000D02*
X105410000Y-116840000D01*
X100330000Y-114300000D02*
X102870000Y-114300000D01*
%TO.N,/channel1/GATE*%
X115316000Y-108712000D02*
X120142000Y-108712000D01*
X121412000Y-101600000D02*
X121412000Y-107442000D01*
X115316000Y-108712000D02*
X109728000Y-108712000D01*
X121412000Y-107442000D02*
X120142000Y-108712000D01*
%TO.N,/channel2/GATE*%
X120650000Y-109474000D02*
X122428000Y-107696000D01*
X97282000Y-109474000D02*
X96520000Y-108712000D01*
X102870000Y-109474000D02*
X120650000Y-109474000D01*
X102870000Y-109474000D02*
X102108000Y-108712000D01*
X122428000Y-101600000D02*
X122428000Y-107696000D01*
X102870000Y-109474000D02*
X97282000Y-109474000D01*
%TO.N,VIN*%
X89535000Y-114300000D02*
X89535000Y-116840000D01*
X79375000Y-114300000D02*
X79375000Y-109207400D01*
X81915000Y-114300000D02*
X79375000Y-111760000D01*
X84455000Y-111760000D02*
X81915000Y-114300000D01*
X89535000Y-116840000D02*
X86995000Y-116840000D01*
X86995000Y-116840000D02*
X89522400Y-119367400D01*
X86995000Y-124460000D02*
X89535000Y-124460000D01*
X84442400Y-121907400D02*
X84455000Y-121907400D01*
X81915000Y-114300000D02*
X79375000Y-114300000D01*
X92075000Y-124460000D02*
X89535000Y-121920000D01*
X84455000Y-114300000D02*
X86995000Y-114300000D01*
X84455000Y-114300000D02*
X84455000Y-111760000D01*
X89535000Y-121920000D02*
X89535000Y-121907400D01*
X92062400Y-114300000D02*
X92075000Y-114287400D01*
X84455000Y-111760000D02*
X84455000Y-109207400D01*
X86995000Y-114300000D02*
X89535000Y-114300000D01*
X84455000Y-121907400D02*
X84455000Y-124460000D01*
X92075000Y-116840000D02*
X89547600Y-119367400D01*
X89535000Y-114300000D02*
X92075000Y-116840000D01*
X81915000Y-114300000D02*
X84455000Y-114300000D01*
X89522400Y-111760000D02*
X89535000Y-111747400D01*
X86995000Y-114300000D02*
X86995000Y-116840000D01*
X81915000Y-116840000D02*
X81915000Y-114300000D01*
X92075000Y-116840000D02*
X89535000Y-116840000D01*
X89535000Y-119367400D02*
X89522400Y-119380000D01*
X81915000Y-119380000D02*
X84455000Y-119380000D01*
X92075000Y-114287400D02*
X92075000Y-116840000D01*
X81915000Y-116840000D02*
X79375000Y-116840000D01*
X81915000Y-119380000D02*
X81915000Y-116840000D01*
X84455000Y-111760000D02*
X86995000Y-111760000D01*
X81915000Y-119380000D02*
X84442400Y-121907400D01*
X86995000Y-124460000D02*
X89535000Y-121920000D01*
X86995000Y-116840000D02*
X84455000Y-116840000D01*
X84455000Y-114300000D02*
X84455000Y-116840000D01*
X86995000Y-114300000D02*
X86995000Y-111760000D01*
X79375000Y-119380000D02*
X79375000Y-116840000D01*
X86995000Y-111760000D02*
X89522400Y-111760000D01*
X89522400Y-119367400D02*
X89522400Y-119380000D01*
X84455000Y-124460000D02*
X86995000Y-124460000D01*
X79375000Y-114300000D02*
X79375000Y-116840000D01*
X79375000Y-119380000D02*
X81915000Y-119380000D01*
X89535000Y-114300000D02*
X89535000Y-111747400D01*
X84455000Y-119380000D02*
X84455000Y-121907400D01*
X84455000Y-119380000D02*
X84455000Y-116840000D01*
X86995000Y-111760000D02*
X84455000Y-109220000D01*
X89535000Y-124460000D02*
X92075000Y-124460000D01*
X89547600Y-119367400D02*
X89535000Y-119367400D01*
X89535000Y-114300000D02*
X92062400Y-114300000D01*
X84455000Y-116840000D02*
X81915000Y-116840000D01*
%TO.N,+5V*%
X116078000Y-93726000D02*
X118364000Y-93726000D01*
X101308000Y-89154000D02*
X103378000Y-89154000D01*
X93814994Y-91528994D02*
X91617988Y-93726000D01*
X98552000Y-90386000D02*
X98552000Y-87846000D01*
X107480000Y-93726000D02*
X109728000Y-93726000D01*
X98552000Y-90386000D02*
X100076000Y-90386000D01*
X100076000Y-90386000D02*
X101308000Y-89154000D01*
X91617988Y-93726000D02*
X91643200Y-93726000D01*
%TO.N,/INT_PIN*%
X88051470Y-85090000D02*
X91948000Y-85090000D01*
X92456000Y-87376000D02*
X91948000Y-87884000D01*
X87332735Y-85808735D02*
X88051470Y-85090000D01*
X91948000Y-85090000D02*
X92456000Y-85598000D01*
X92456000Y-85598000D02*
X92456000Y-87376000D01*
%TD*%
%TA.AperFunction,Conductor*%
%TO.N,VIN*%
G36*
X84103052Y-107166601D02*
G01*
X91407522Y-111340584D01*
X91855648Y-111596656D01*
X91904869Y-111647820D01*
X91915652Y-111676640D01*
X91938580Y-111772139D01*
X91938582Y-111772146D01*
X91939738Y-111776960D01*
X92038253Y-112014797D01*
X92172762Y-112234295D01*
X92339951Y-112430049D01*
X92535705Y-112597238D01*
X92755203Y-112731747D01*
X92759773Y-112733640D01*
X92759777Y-112733642D01*
X92988467Y-112828368D01*
X92993040Y-112830262D01*
X93048413Y-112843556D01*
X93238547Y-112889204D01*
X93238553Y-112889205D01*
X93243360Y-112890359D01*
X93333179Y-112897428D01*
X93433288Y-112905307D01*
X93433297Y-112905307D01*
X93435745Y-112905500D01*
X93564255Y-112905500D01*
X93566703Y-112905307D01*
X93566712Y-112905307D01*
X93666821Y-112897428D01*
X93756640Y-112890359D01*
X93761447Y-112889205D01*
X93761453Y-112889204D01*
X93892629Y-112857711D01*
X93951587Y-112843556D01*
X94022493Y-112847103D01*
X94080228Y-112888423D01*
X94106458Y-112954396D01*
X94107000Y-112966075D01*
X94107000Y-125439000D01*
X94086998Y-125507121D01*
X94033342Y-125553614D01*
X93981000Y-125565000D01*
X78750117Y-125565000D01*
X78733671Y-125563922D01*
X78714229Y-125561362D01*
X78714225Y-125561362D01*
X78706698Y-125560371D01*
X78699152Y-125561204D01*
X78699144Y-125561204D01*
X78688902Y-125562335D01*
X78666838Y-125562826D01*
X78464812Y-125549585D01*
X78448471Y-125547434D01*
X78225403Y-125503063D01*
X78209482Y-125498797D01*
X77994114Y-125425689D01*
X77978888Y-125419382D01*
X77774908Y-125318790D01*
X77760634Y-125310549D01*
X77571530Y-125184194D01*
X77558454Y-125174161D01*
X77387455Y-125024199D01*
X77375801Y-125012545D01*
X77225839Y-124841546D01*
X77215806Y-124828470D01*
X77089451Y-124639366D01*
X77081210Y-124625092D01*
X76980618Y-124421112D01*
X76974311Y-124405886D01*
X76901203Y-124190518D01*
X76896937Y-124174597D01*
X76852566Y-123951529D01*
X76850415Y-123935189D01*
X76837883Y-123743983D01*
X76838733Y-123721599D01*
X76838630Y-123721591D01*
X76838836Y-123718882D01*
X76838870Y-123717993D01*
X76839524Y-123713396D01*
X76839664Y-123700000D01*
X76838854Y-123693302D01*
X76835913Y-123669003D01*
X76835000Y-123653866D01*
X76835000Y-122933904D01*
X77636778Y-122933904D01*
X77642999Y-123197877D01*
X77643833Y-123202582D01*
X77674077Y-123373232D01*
X77689077Y-123457871D01*
X77773952Y-123707905D01*
X77895671Y-123942223D01*
X78051432Y-124155434D01*
X78054803Y-124158823D01*
X78054805Y-124158825D01*
X78234276Y-124339238D01*
X78234281Y-124339242D01*
X78237652Y-124342631D01*
X78450044Y-124499506D01*
X78454282Y-124501736D01*
X78454284Y-124501737D01*
X78679486Y-124620222D01*
X78679493Y-124620225D01*
X78683722Y-124622450D01*
X78933307Y-124708633D01*
X79193057Y-124756072D01*
X79277550Y-124760500D01*
X79442136Y-124760500D01*
X79444515Y-124760319D01*
X79444516Y-124760319D01*
X79633519Y-124745942D01*
X79633524Y-124745941D01*
X79638286Y-124745579D01*
X79642939Y-124744500D01*
X79642942Y-124744500D01*
X79890848Y-124687038D01*
X79890847Y-124687038D01*
X79895512Y-124685957D01*
X80140761Y-124588113D01*
X80368388Y-124454298D01*
X80372099Y-124451277D01*
X80372103Y-124451274D01*
X80569443Y-124290614D01*
X80573155Y-124287592D01*
X80576364Y-124284047D01*
X80576369Y-124284042D01*
X80747139Y-124095377D01*
X80747142Y-124095373D01*
X80750349Y-124091830D01*
X80848387Y-123943431D01*
X80893257Y-123875511D01*
X80893258Y-123875509D01*
X80895894Y-123871519D01*
X80965009Y-123721599D01*
X81004434Y-123636079D01*
X81004435Y-123636076D01*
X81006440Y-123631727D01*
X81055154Y-123462399D01*
X81078121Y-123382566D01*
X81078122Y-123382562D01*
X81079442Y-123377973D01*
X81103290Y-123193097D01*
X81112611Y-123120833D01*
X81113222Y-123116096D01*
X81107001Y-122852123D01*
X81092342Y-122769412D01*
X81061757Y-122596833D01*
X81061756Y-122596829D01*
X81060923Y-122592129D01*
X80976048Y-122342095D01*
X80891057Y-122178481D01*
X80856538Y-122112029D01*
X80856536Y-122112026D01*
X80854329Y-122107777D01*
X80813611Y-122052040D01*
X80808022Y-122044390D01*
X86054440Y-122044390D01*
X86060167Y-122052040D01*
X86258506Y-122173583D01*
X86267300Y-122178064D01*
X86491991Y-122271134D01*
X86501376Y-122274183D01*
X86737863Y-122330959D01*
X86747610Y-122332502D01*
X86990070Y-122351584D01*
X86999930Y-122351584D01*
X87242390Y-122332502D01*
X87252137Y-122330959D01*
X87488624Y-122274183D01*
X87498009Y-122271134D01*
X87722700Y-122178064D01*
X87731494Y-122173583D01*
X87926167Y-122054287D01*
X87935120Y-122044390D01*
X91134440Y-122044390D01*
X91140167Y-122052040D01*
X91338506Y-122173583D01*
X91347300Y-122178064D01*
X91571991Y-122271134D01*
X91581376Y-122274183D01*
X91817863Y-122330959D01*
X91827610Y-122332502D01*
X92070070Y-122351584D01*
X92079930Y-122351584D01*
X92322390Y-122332502D01*
X92332137Y-122330959D01*
X92568624Y-122274183D01*
X92578009Y-122271134D01*
X92802700Y-122178064D01*
X92811494Y-122173583D01*
X93006167Y-122054287D01*
X93015627Y-122043830D01*
X93011844Y-122035054D01*
X92087812Y-121111022D01*
X92073868Y-121103408D01*
X92072035Y-121103539D01*
X92065420Y-121107790D01*
X91141200Y-122032010D01*
X91134440Y-122044390D01*
X87935120Y-122044390D01*
X87935627Y-122043830D01*
X87931844Y-122035054D01*
X87007812Y-121111022D01*
X86993868Y-121103408D01*
X86992035Y-121103539D01*
X86985420Y-121107790D01*
X86061200Y-122032010D01*
X86054440Y-122044390D01*
X80808022Y-122044390D01*
X80701390Y-121898429D01*
X80698568Y-121894566D01*
X80695195Y-121891175D01*
X80515724Y-121710762D01*
X80515719Y-121710758D01*
X80512348Y-121707369D01*
X80299956Y-121550494D01*
X80157405Y-121475494D01*
X80070514Y-121429778D01*
X80070507Y-121429775D01*
X80066278Y-121427550D01*
X79816693Y-121341367D01*
X79556943Y-121293928D01*
X79472450Y-121289500D01*
X79307864Y-121289500D01*
X79305485Y-121289681D01*
X79305484Y-121289681D01*
X79116481Y-121304058D01*
X79116476Y-121304059D01*
X79111714Y-121304421D01*
X79107061Y-121305500D01*
X79107058Y-121305500D01*
X78945571Y-121342931D01*
X78854488Y-121364043D01*
X78609239Y-121461887D01*
X78381612Y-121595702D01*
X78377901Y-121598723D01*
X78377897Y-121598726D01*
X78278608Y-121679560D01*
X78176845Y-121762408D01*
X78173636Y-121765953D01*
X78173631Y-121765958D01*
X78002861Y-121954623D01*
X78002858Y-121954627D01*
X77999651Y-121958170D01*
X77997019Y-121962155D01*
X77997016Y-121962158D01*
X77903372Y-122103907D01*
X77854106Y-122178481D01*
X77852105Y-122182822D01*
X77852102Y-122182827D01*
X77776591Y-122346623D01*
X77743560Y-122418273D01*
X77742236Y-122422874D01*
X77742236Y-122422875D01*
X77693544Y-122592129D01*
X77670558Y-122672027D01*
X77669947Y-122676762D01*
X77669946Y-122676768D01*
X77637389Y-122929167D01*
X77636778Y-122933904D01*
X76835000Y-122933904D01*
X76835000Y-120743930D01*
X85382416Y-120743930D01*
X85401498Y-120986390D01*
X85403041Y-120996137D01*
X85459817Y-121232624D01*
X85462866Y-121242009D01*
X85555936Y-121466700D01*
X85560417Y-121475494D01*
X85679713Y-121670167D01*
X85690170Y-121679627D01*
X85698946Y-121675844D01*
X86622978Y-120751812D01*
X86629356Y-120740132D01*
X87359408Y-120740132D01*
X87359539Y-120741965D01*
X87363790Y-120748580D01*
X88288010Y-121672800D01*
X88300390Y-121679560D01*
X88308040Y-121673833D01*
X88429583Y-121475494D01*
X88434064Y-121466700D01*
X88527134Y-121242009D01*
X88530183Y-121232624D01*
X88586959Y-120996137D01*
X88588502Y-120986390D01*
X88607584Y-120743930D01*
X90462416Y-120743930D01*
X90481498Y-120986390D01*
X90483041Y-120996137D01*
X90539817Y-121232624D01*
X90542866Y-121242009D01*
X90635936Y-121466700D01*
X90640417Y-121475494D01*
X90759713Y-121670167D01*
X90770170Y-121679627D01*
X90778946Y-121675844D01*
X91702978Y-120751812D01*
X91709356Y-120740132D01*
X92439408Y-120740132D01*
X92439539Y-120741965D01*
X92443790Y-120748580D01*
X93368010Y-121672800D01*
X93380390Y-121679560D01*
X93388040Y-121673833D01*
X93509583Y-121475494D01*
X93514064Y-121466700D01*
X93607134Y-121242009D01*
X93610183Y-121232624D01*
X93666959Y-120996137D01*
X93668502Y-120986390D01*
X93687584Y-120743930D01*
X93687584Y-120734070D01*
X93668502Y-120491610D01*
X93666959Y-120481863D01*
X93610183Y-120245376D01*
X93607134Y-120235991D01*
X93514064Y-120011300D01*
X93509583Y-120002506D01*
X93390287Y-119807833D01*
X93379830Y-119798373D01*
X93371054Y-119802156D01*
X92447022Y-120726188D01*
X92439408Y-120740132D01*
X91709356Y-120740132D01*
X91710592Y-120737868D01*
X91710461Y-120736035D01*
X91706210Y-120729420D01*
X90781990Y-119805200D01*
X90769610Y-119798440D01*
X90761960Y-119804167D01*
X90640417Y-120002506D01*
X90635936Y-120011300D01*
X90542866Y-120235991D01*
X90539817Y-120245376D01*
X90483041Y-120481863D01*
X90481498Y-120491610D01*
X90462416Y-120734070D01*
X90462416Y-120743930D01*
X88607584Y-120743930D01*
X88607584Y-120734070D01*
X88588502Y-120491610D01*
X88586959Y-120481863D01*
X88530183Y-120245376D01*
X88527134Y-120235991D01*
X88434064Y-120011300D01*
X88429583Y-120002506D01*
X88310287Y-119807833D01*
X88299830Y-119798373D01*
X88291054Y-119802156D01*
X87367022Y-120726188D01*
X87359408Y-120740132D01*
X86629356Y-120740132D01*
X86630592Y-120737868D01*
X86630461Y-120736035D01*
X86626210Y-120729420D01*
X85701990Y-119805200D01*
X85689610Y-119798440D01*
X85681960Y-119804167D01*
X85560417Y-120002506D01*
X85555936Y-120011300D01*
X85462866Y-120235991D01*
X85459817Y-120245376D01*
X85403041Y-120481863D01*
X85401498Y-120491610D01*
X85382416Y-120734070D01*
X85382416Y-120743930D01*
X76835000Y-120743930D01*
X76835000Y-119434170D01*
X86054373Y-119434170D01*
X86058156Y-119442946D01*
X86982188Y-120366978D01*
X86996132Y-120374592D01*
X86997965Y-120374461D01*
X87004580Y-120370210D01*
X87928800Y-119445990D01*
X87935254Y-119434170D01*
X91134373Y-119434170D01*
X91138156Y-119442946D01*
X92062188Y-120366978D01*
X92076132Y-120374592D01*
X92077965Y-120374461D01*
X92084580Y-120370210D01*
X93008800Y-119445990D01*
X93015560Y-119433610D01*
X93009833Y-119425960D01*
X92811494Y-119304417D01*
X92802700Y-119299936D01*
X92578009Y-119206866D01*
X92568624Y-119203817D01*
X92332137Y-119147041D01*
X92322390Y-119145498D01*
X92079930Y-119126416D01*
X92070070Y-119126416D01*
X91827610Y-119145498D01*
X91817863Y-119147041D01*
X91581376Y-119203817D01*
X91571991Y-119206866D01*
X91347300Y-119299936D01*
X91338506Y-119304417D01*
X91143833Y-119423713D01*
X91134373Y-119434170D01*
X87935254Y-119434170D01*
X87935560Y-119433610D01*
X87929833Y-119425960D01*
X87731494Y-119304417D01*
X87722700Y-119299936D01*
X87498009Y-119206866D01*
X87488624Y-119203817D01*
X87252137Y-119147041D01*
X87242390Y-119145498D01*
X86999930Y-119126416D01*
X86990070Y-119126416D01*
X86747610Y-119145498D01*
X86737863Y-119147041D01*
X86501376Y-119203817D01*
X86491991Y-119206866D01*
X86267300Y-119299936D01*
X86258506Y-119304417D01*
X86063833Y-119423713D01*
X86054373Y-119434170D01*
X76835000Y-119434170D01*
X76835000Y-117898367D01*
X79810906Y-117898367D01*
X79820349Y-118078564D01*
X79822162Y-118085144D01*
X79822162Y-118085147D01*
X79864363Y-118238351D01*
X79868268Y-118252530D01*
X79952424Y-118412148D01*
X79956826Y-118417357D01*
X79956828Y-118417360D01*
X80064487Y-118544757D01*
X80064491Y-118544761D01*
X80068894Y-118549971D01*
X80074318Y-118554118D01*
X80074319Y-118554119D01*
X80206821Y-118655425D01*
X80206825Y-118655428D01*
X80212242Y-118659569D01*
X80218422Y-118662451D01*
X80218424Y-118662452D01*
X80286066Y-118693994D01*
X80375780Y-118735828D01*
X80453984Y-118753309D01*
X80546835Y-118774064D01*
X80546841Y-118774065D01*
X80551879Y-118775191D01*
X80557406Y-118775500D01*
X80690077Y-118775500D01*
X80824389Y-118760909D01*
X80995409Y-118703355D01*
X81150080Y-118610419D01*
X81155042Y-118605727D01*
X81276229Y-118491126D01*
X81276231Y-118491124D01*
X81281187Y-118486437D01*
X81382612Y-118337195D01*
X81414059Y-118258572D01*
X81447089Y-118175992D01*
X81447090Y-118175987D01*
X81449623Y-118169655D01*
X81479094Y-117991633D01*
X81469651Y-117811436D01*
X81442815Y-117714008D01*
X81423545Y-117644052D01*
X81421732Y-117637470D01*
X81337576Y-117477852D01*
X81333174Y-117472643D01*
X81333172Y-117472640D01*
X81225513Y-117345243D01*
X81225509Y-117345239D01*
X81221106Y-117340029D01*
X81215681Y-117335881D01*
X81083179Y-117234575D01*
X81083175Y-117234572D01*
X81077758Y-117230431D01*
X81071578Y-117227549D01*
X81071576Y-117227548D01*
X80991399Y-117190161D01*
X80914220Y-117154172D01*
X80798718Y-117128354D01*
X80743165Y-117115936D01*
X80743159Y-117115935D01*
X80738121Y-117114809D01*
X80732594Y-117114500D01*
X80599923Y-117114500D01*
X80465611Y-117129091D01*
X80294591Y-117186645D01*
X80139920Y-117279581D01*
X80134960Y-117284272D01*
X80134958Y-117284273D01*
X80070485Y-117345243D01*
X80008813Y-117403563D01*
X79907388Y-117552805D01*
X79904855Y-117559139D01*
X79904853Y-117559142D01*
X79842911Y-117714008D01*
X79842910Y-117714013D01*
X79840377Y-117720345D01*
X79810906Y-117898367D01*
X76835000Y-117898367D01*
X76835000Y-111033390D01*
X80847440Y-111033390D01*
X80853167Y-111041040D01*
X81051506Y-111162583D01*
X81060300Y-111167064D01*
X81284991Y-111260134D01*
X81294376Y-111263183D01*
X81530863Y-111319959D01*
X81540610Y-111321502D01*
X81783070Y-111340584D01*
X81792930Y-111340584D01*
X82035390Y-111321502D01*
X82045137Y-111319959D01*
X82281624Y-111263183D01*
X82291009Y-111260134D01*
X82515700Y-111167064D01*
X82524494Y-111162583D01*
X82719167Y-111043287D01*
X82728627Y-111032830D01*
X82724844Y-111024054D01*
X81800812Y-110100022D01*
X81786868Y-110092408D01*
X81785035Y-110092539D01*
X81778420Y-110096790D01*
X80854200Y-111021010D01*
X80847440Y-111033390D01*
X76835000Y-111033390D01*
X76835000Y-109732930D01*
X80175416Y-109732930D01*
X80194498Y-109975390D01*
X80196041Y-109985137D01*
X80252817Y-110221624D01*
X80255866Y-110231009D01*
X80348936Y-110455700D01*
X80353417Y-110464494D01*
X80472713Y-110659167D01*
X80483170Y-110668627D01*
X80491946Y-110664844D01*
X81415978Y-109740812D01*
X81422356Y-109729132D01*
X82152408Y-109729132D01*
X82152539Y-109730965D01*
X82156790Y-109737580D01*
X83081010Y-110661800D01*
X83093390Y-110668560D01*
X83101040Y-110662833D01*
X83222583Y-110464494D01*
X83227064Y-110455700D01*
X83320134Y-110231009D01*
X83323183Y-110221624D01*
X83379959Y-109985137D01*
X83381502Y-109975390D01*
X83400584Y-109732930D01*
X83400584Y-109723070D01*
X83381502Y-109480610D01*
X83379959Y-109470863D01*
X83323183Y-109234376D01*
X83320134Y-109224991D01*
X83227064Y-109000300D01*
X83222583Y-108991506D01*
X83103287Y-108796833D01*
X83092830Y-108787373D01*
X83084054Y-108791156D01*
X82160022Y-109715188D01*
X82152408Y-109729132D01*
X81422356Y-109729132D01*
X81423592Y-109726868D01*
X81423461Y-109725035D01*
X81419210Y-109718420D01*
X80494990Y-108794200D01*
X80482610Y-108787440D01*
X80474960Y-108793167D01*
X80353417Y-108991506D01*
X80348936Y-109000300D01*
X80255866Y-109224991D01*
X80252817Y-109234376D01*
X80196041Y-109470863D01*
X80194498Y-109480610D01*
X80175416Y-109723070D01*
X80175416Y-109732930D01*
X76835000Y-109732930D01*
X76835000Y-108423170D01*
X80847373Y-108423170D01*
X80851156Y-108431946D01*
X81775188Y-109355978D01*
X81789132Y-109363592D01*
X81790965Y-109363461D01*
X81797580Y-109359210D01*
X82721800Y-108434990D01*
X82728560Y-108422610D01*
X82722833Y-108414960D01*
X82524494Y-108293417D01*
X82515700Y-108288936D01*
X82291009Y-108195866D01*
X82281624Y-108192817D01*
X82045137Y-108136041D01*
X82035390Y-108134498D01*
X81792930Y-108115416D01*
X81783070Y-108115416D01*
X81540610Y-108134498D01*
X81530863Y-108136041D01*
X81294376Y-108192817D01*
X81284991Y-108195866D01*
X81060300Y-108288936D01*
X81051506Y-108293417D01*
X80856833Y-108412713D01*
X80847373Y-108423170D01*
X76835000Y-108423170D01*
X76835000Y-107276000D01*
X76855002Y-107207879D01*
X76908658Y-107161386D01*
X76961000Y-107150000D01*
X84040538Y-107150000D01*
X84103052Y-107166601D01*
G37*
%TD.AperFunction*%
%TD*%
%TA.AperFunction,Conductor*%
%TO.N,DRAIN1*%
G36*
X121100121Y-110256002D02*
G01*
X121146614Y-110309658D01*
X121158000Y-110362000D01*
X121158000Y-125566000D01*
X121137998Y-125634121D01*
X121084342Y-125680614D01*
X121032000Y-125692000D01*
X108076000Y-125692000D01*
X108007879Y-125671998D01*
X107961386Y-125618342D01*
X107950000Y-125566000D01*
X107950000Y-122170262D01*
X109771465Y-122170262D01*
X109774654Y-122174522D01*
X109989471Y-122263502D01*
X109998856Y-122266551D01*
X110234118Y-122323033D01*
X110243865Y-122324576D01*
X110485070Y-122343560D01*
X110494930Y-122343560D01*
X110736135Y-122324576D01*
X110745882Y-122323033D01*
X110981144Y-122266551D01*
X110990529Y-122263502D01*
X111197850Y-122177627D01*
X111208831Y-122168778D01*
X111207515Y-122163622D01*
X110502812Y-121458919D01*
X110488868Y-121451305D01*
X110487035Y-121451436D01*
X110480420Y-121455687D01*
X109778225Y-122157882D01*
X109771465Y-122170262D01*
X107950000Y-122170262D01*
X107950000Y-120743930D01*
X108885440Y-120743930D01*
X108904424Y-120985135D01*
X108905967Y-120994882D01*
X108962449Y-121230144D01*
X108965498Y-121239529D01*
X109051373Y-121446850D01*
X109060222Y-121457831D01*
X109065378Y-121456515D01*
X109770081Y-120751812D01*
X109776459Y-120740132D01*
X111202305Y-120740132D01*
X111202436Y-120741965D01*
X111206687Y-120748580D01*
X111908882Y-121450775D01*
X111921262Y-121457535D01*
X111925522Y-121454346D01*
X112014502Y-121239529D01*
X112017551Y-121230144D01*
X112074033Y-120994882D01*
X112075576Y-120985135D01*
X112094560Y-120743930D01*
X112094560Y-120734070D01*
X112075576Y-120492865D01*
X112074033Y-120483118D01*
X112017551Y-120247856D01*
X112014502Y-120238471D01*
X111928627Y-120031150D01*
X111919778Y-120020169D01*
X111914622Y-120021485D01*
X111209919Y-120726188D01*
X111202305Y-120740132D01*
X109776459Y-120740132D01*
X109777695Y-120737868D01*
X109777564Y-120736035D01*
X109773313Y-120729420D01*
X109071118Y-120027225D01*
X109058738Y-120020465D01*
X109054478Y-120023654D01*
X108965498Y-120238471D01*
X108962449Y-120247856D01*
X108905967Y-120483118D01*
X108904424Y-120492865D01*
X108885440Y-120734070D01*
X108885440Y-120743930D01*
X107950000Y-120743930D01*
X107950000Y-119309222D01*
X109771169Y-119309222D01*
X109772485Y-119314378D01*
X110477188Y-120019081D01*
X110491132Y-120026695D01*
X110492965Y-120026564D01*
X110499580Y-120022313D01*
X111201775Y-119320118D01*
X111208535Y-119307738D01*
X111205346Y-119303478D01*
X110990529Y-119214498D01*
X110981144Y-119211449D01*
X110745882Y-119154967D01*
X110736135Y-119153424D01*
X110494930Y-119134440D01*
X110485070Y-119134440D01*
X110243865Y-119153424D01*
X110234118Y-119154967D01*
X109998856Y-119211449D01*
X109989471Y-119214498D01*
X109782150Y-119300373D01*
X109771169Y-119309222D01*
X107950000Y-119309222D01*
X107950000Y-110362000D01*
X107970002Y-110293879D01*
X108023658Y-110247386D01*
X108076000Y-110236000D01*
X121032000Y-110236000D01*
X121100121Y-110256002D01*
G37*
%TD.AperFunction*%
%TD*%
%TA.AperFunction,Conductor*%
%TO.N,DRAIN2*%
G36*
X107384121Y-110256002D02*
G01*
X107430614Y-110309658D01*
X107442000Y-110362000D01*
X107442000Y-125566000D01*
X107421998Y-125634121D01*
X107368342Y-125680614D01*
X107316000Y-125692000D01*
X94868000Y-125692000D01*
X94799879Y-125671998D01*
X94753386Y-125618342D01*
X94742000Y-125566000D01*
X94742000Y-122170262D01*
X104691465Y-122170262D01*
X104694654Y-122174522D01*
X104909471Y-122263502D01*
X104918856Y-122266551D01*
X105154118Y-122323033D01*
X105163865Y-122324576D01*
X105405070Y-122343560D01*
X105414930Y-122343560D01*
X105656135Y-122324576D01*
X105665882Y-122323033D01*
X105901144Y-122266551D01*
X105910529Y-122263502D01*
X106117850Y-122177627D01*
X106128831Y-122168778D01*
X106127515Y-122163622D01*
X105422812Y-121458919D01*
X105408868Y-121451305D01*
X105407035Y-121451436D01*
X105400420Y-121455687D01*
X104698225Y-122157882D01*
X104691465Y-122170262D01*
X94742000Y-122170262D01*
X94742000Y-120743930D01*
X103805440Y-120743930D01*
X103824424Y-120985135D01*
X103825967Y-120994882D01*
X103882449Y-121230144D01*
X103885498Y-121239529D01*
X103971373Y-121446850D01*
X103980222Y-121457831D01*
X103985378Y-121456515D01*
X104690081Y-120751812D01*
X104696459Y-120740132D01*
X106122305Y-120740132D01*
X106122436Y-120741965D01*
X106126687Y-120748580D01*
X106828882Y-121450775D01*
X106841262Y-121457535D01*
X106845522Y-121454346D01*
X106934502Y-121239529D01*
X106937551Y-121230144D01*
X106994033Y-120994882D01*
X106995576Y-120985135D01*
X107014560Y-120743930D01*
X107014560Y-120734070D01*
X106995576Y-120492865D01*
X106994033Y-120483118D01*
X106937551Y-120247856D01*
X106934502Y-120238471D01*
X106848627Y-120031150D01*
X106839778Y-120020169D01*
X106834622Y-120021485D01*
X106129919Y-120726188D01*
X106122305Y-120740132D01*
X104696459Y-120740132D01*
X104697695Y-120737868D01*
X104697564Y-120736035D01*
X104693313Y-120729420D01*
X103991118Y-120027225D01*
X103978738Y-120020465D01*
X103974478Y-120023654D01*
X103885498Y-120238471D01*
X103882449Y-120247856D01*
X103825967Y-120483118D01*
X103824424Y-120492865D01*
X103805440Y-120734070D01*
X103805440Y-120743930D01*
X94742000Y-120743930D01*
X94742000Y-119309222D01*
X104691169Y-119309222D01*
X104692485Y-119314378D01*
X105397188Y-120019081D01*
X105411132Y-120026695D01*
X105412965Y-120026564D01*
X105419580Y-120022313D01*
X106121775Y-119320118D01*
X106128535Y-119307738D01*
X106125346Y-119303478D01*
X105910529Y-119214498D01*
X105901144Y-119211449D01*
X105665882Y-119154967D01*
X105656135Y-119153424D01*
X105414930Y-119134440D01*
X105405070Y-119134440D01*
X105163865Y-119153424D01*
X105154118Y-119154967D01*
X104918856Y-119211449D01*
X104909471Y-119214498D01*
X104702150Y-119300373D01*
X104691169Y-119309222D01*
X94742000Y-119309222D01*
X94742000Y-112168982D01*
X94759101Y-112105601D01*
X94862299Y-111928290D01*
X94862300Y-111928288D01*
X94864841Y-111923922D01*
X94951833Y-111697298D01*
X95001474Y-111459680D01*
X95012486Y-111217183D01*
X95011905Y-111212159D01*
X94985167Y-110981071D01*
X94985166Y-110981067D01*
X94984585Y-110976044D01*
X94918490Y-110742468D01*
X94916356Y-110737892D01*
X94916354Y-110737886D01*
X94818038Y-110527046D01*
X94818036Y-110527042D01*
X94815901Y-110522464D01*
X94763788Y-110445782D01*
X94742000Y-110374960D01*
X94742000Y-110362000D01*
X94762002Y-110293879D01*
X94815658Y-110247386D01*
X94868000Y-110236000D01*
X107316000Y-110236000D01*
X107384121Y-110256002D01*
G37*
%TD.AperFunction*%
%TD*%
%TA.AperFunction,Conductor*%
%TO.N,GND*%
G36*
X123670527Y-76701476D02*
G01*
X123685099Y-76703745D01*
X123685101Y-76703745D01*
X123693829Y-76705104D01*
X123709838Y-76703011D01*
X123734017Y-76702230D01*
X123952949Y-76716579D01*
X123969030Y-76718697D01*
X124209665Y-76766562D01*
X124225333Y-76770760D01*
X124457671Y-76849629D01*
X124472655Y-76855836D01*
X124692710Y-76964354D01*
X124706752Y-76972461D01*
X124910766Y-77108778D01*
X124923632Y-77118651D01*
X125108110Y-77280433D01*
X125119567Y-77291890D01*
X125281348Y-77476366D01*
X125291221Y-77489233D01*
X125427539Y-77693248D01*
X125435646Y-77707290D01*
X125544164Y-77927345D01*
X125550371Y-77942329D01*
X125629240Y-78174667D01*
X125633438Y-78190334D01*
X125656540Y-78306478D01*
X125681303Y-78430970D01*
X125683421Y-78447051D01*
X125697308Y-78658930D01*
X125696298Y-78681608D01*
X125696255Y-78685097D01*
X125694896Y-78693829D01*
X125696042Y-78702591D01*
X125698953Y-78724855D01*
X125700000Y-78740933D01*
X125700000Y-123651451D01*
X125698524Y-123670527D01*
X125694896Y-123693829D01*
X125696989Y-123709833D01*
X125697770Y-123734017D01*
X125683421Y-123952949D01*
X125681303Y-123969030D01*
X125644009Y-124156523D01*
X125633438Y-124209665D01*
X125629240Y-124225333D01*
X125550371Y-124457671D01*
X125544164Y-124472655D01*
X125435646Y-124692710D01*
X125427539Y-124706752D01*
X125291222Y-124910766D01*
X125281349Y-124923632D01*
X125119567Y-125108110D01*
X125108110Y-125119567D01*
X125014046Y-125202059D01*
X124923634Y-125281348D01*
X124910767Y-125291221D01*
X124706752Y-125427539D01*
X124692710Y-125435646D01*
X124472655Y-125544164D01*
X124457671Y-125550371D01*
X124225333Y-125629240D01*
X124209665Y-125633438D01*
X123969030Y-125681303D01*
X123952949Y-125683421D01*
X123856687Y-125689730D01*
X123741069Y-125697308D01*
X123718392Y-125696298D01*
X123714903Y-125696255D01*
X123706171Y-125694896D01*
X123680881Y-125698203D01*
X123675145Y-125698953D01*
X123659067Y-125700000D01*
X121789285Y-125700000D01*
X121722246Y-125680315D01*
X121676491Y-125627511D01*
X121665730Y-125567875D01*
X121666000Y-125566000D01*
X121666000Y-124234333D01*
X121685685Y-124167294D01*
X121738489Y-124121539D01*
X121807647Y-124111595D01*
X121871203Y-124140620D01*
X121884286Y-124153796D01*
X121889776Y-124160224D01*
X122081341Y-124323836D01*
X122296141Y-124455466D01*
X122300641Y-124457330D01*
X122300645Y-124457332D01*
X122500623Y-124540165D01*
X122528889Y-124551873D01*
X122533625Y-124553010D01*
X122769118Y-124609547D01*
X122769124Y-124609548D01*
X122773852Y-124610683D01*
X122778702Y-124611065D01*
X122778704Y-124611065D01*
X122828272Y-124614966D01*
X122962118Y-124625500D01*
X123087882Y-124625500D01*
X123221728Y-124614966D01*
X123271296Y-124611065D01*
X123271298Y-124611065D01*
X123276148Y-124610683D01*
X123280876Y-124609548D01*
X123280882Y-124609547D01*
X123516375Y-124553010D01*
X123521111Y-124551873D01*
X123549377Y-124540165D01*
X123749355Y-124457332D01*
X123749359Y-124457330D01*
X123753859Y-124455466D01*
X123968659Y-124323836D01*
X124160224Y-124160224D01*
X124165712Y-124153799D01*
X124320672Y-123972363D01*
X124323836Y-123968659D01*
X124455466Y-123753859D01*
X124476704Y-123702587D01*
X124550009Y-123525611D01*
X124551873Y-123521111D01*
X124553545Y-123514145D01*
X124609547Y-123280882D01*
X124609548Y-123280876D01*
X124610683Y-123276148D01*
X124630449Y-123025000D01*
X124610683Y-122773852D01*
X124609548Y-122769124D01*
X124609547Y-122769118D01*
X124553010Y-122533625D01*
X124551873Y-122528889D01*
X124455466Y-122296141D01*
X124323836Y-122081341D01*
X124166851Y-121897535D01*
X124163385Y-121893477D01*
X124160224Y-121889776D01*
X123968659Y-121726164D01*
X123753859Y-121594534D01*
X123749359Y-121592670D01*
X123749355Y-121592668D01*
X123525611Y-121499991D01*
X123525612Y-121499991D01*
X123521111Y-121498127D01*
X123514145Y-121496455D01*
X123280882Y-121440453D01*
X123280876Y-121440452D01*
X123276148Y-121439317D01*
X123271298Y-121438935D01*
X123271296Y-121438935D01*
X123221728Y-121435034D01*
X123087882Y-121424500D01*
X122962118Y-121424500D01*
X122828272Y-121435034D01*
X122778704Y-121438935D01*
X122778702Y-121438935D01*
X122773852Y-121439317D01*
X122769124Y-121440452D01*
X122769118Y-121440453D01*
X122535855Y-121496455D01*
X122528889Y-121498127D01*
X122524388Y-121499991D01*
X122524389Y-121499991D01*
X122300645Y-121592668D01*
X122300641Y-121592670D01*
X122296141Y-121594534D01*
X122081341Y-121726164D01*
X121889776Y-121889776D01*
X121884289Y-121896201D01*
X121825781Y-121934392D01*
X121755913Y-121934890D01*
X121696867Y-121897535D01*
X121667391Y-121834187D01*
X121666000Y-121815667D01*
X121666000Y-111375028D01*
X121998025Y-111375028D01*
X122035347Y-111618930D01*
X122112003Y-111853460D01*
X122114353Y-111857974D01*
X122223584Y-112067806D01*
X122223588Y-112067812D01*
X122225935Y-112072321D01*
X122374083Y-112269636D01*
X122377762Y-112273152D01*
X122377764Y-112273154D01*
X122406148Y-112300278D01*
X122552468Y-112440104D01*
X122556667Y-112442968D01*
X122556669Y-112442970D01*
X122752091Y-112576278D01*
X122756300Y-112579149D01*
X122980104Y-112683035D01*
X122985008Y-112684395D01*
X123212970Y-112747615D01*
X123212972Y-112747615D01*
X123217871Y-112748974D01*
X123419292Y-112770500D01*
X123562554Y-112770500D01*
X123745911Y-112755425D01*
X123985217Y-112695316D01*
X124010334Y-112684395D01*
X124047397Y-112668279D01*
X124211493Y-112596928D01*
X124418661Y-112462905D01*
X124487569Y-112400203D01*
X124597387Y-112300278D01*
X124597391Y-112300274D01*
X124601158Y-112296846D01*
X124754082Y-112103210D01*
X124873327Y-111887198D01*
X124955691Y-111654610D01*
X124998961Y-111411694D01*
X125001975Y-111164972D01*
X124964653Y-110921070D01*
X124887997Y-110686540D01*
X124864055Y-110640549D01*
X124776416Y-110472194D01*
X124776412Y-110472188D01*
X124774065Y-110467679D01*
X124625917Y-110270364D01*
X124597444Y-110243154D01*
X124451208Y-110103409D01*
X124447532Y-110099896D01*
X124436107Y-110092102D01*
X124247909Y-109963722D01*
X124247907Y-109963721D01*
X124243700Y-109960851D01*
X124019896Y-109856965D01*
X123971141Y-109843444D01*
X123787030Y-109792385D01*
X123787028Y-109792385D01*
X123782129Y-109791026D01*
X123580708Y-109769500D01*
X123437446Y-109769500D01*
X123254089Y-109784575D01*
X123014783Y-109844684D01*
X123010116Y-109846713D01*
X123010114Y-109846714D01*
X122977112Y-109861064D01*
X122788507Y-109943072D01*
X122581339Y-110077095D01*
X122512431Y-110139797D01*
X122402613Y-110239722D01*
X122402609Y-110239726D01*
X122398842Y-110243154D01*
X122245918Y-110436790D01*
X122126673Y-110652802D01*
X122044309Y-110885390D01*
X122001039Y-111128306D01*
X121998025Y-111375028D01*
X121666000Y-111375028D01*
X121666000Y-110362000D01*
X121654391Y-110254020D01*
X121643005Y-110201678D01*
X121608707Y-110098628D01*
X121530535Y-109976990D01*
X121527634Y-109973642D01*
X121527631Y-109973638D01*
X121486937Y-109926675D01*
X121484042Y-109923334D01*
X121468605Y-109909958D01*
X121381465Y-109834449D01*
X121381462Y-109834447D01*
X121374766Y-109828645D01*
X121366706Y-109824964D01*
X121363175Y-109822695D01*
X121317421Y-109769891D01*
X121307478Y-109700732D01*
X121336504Y-109637177D01*
X121342535Y-109630700D01*
X122819035Y-108154200D01*
X122831230Y-108143505D01*
X122849835Y-108129229D01*
X122856282Y-108124282D01*
X122887086Y-108084138D01*
X122947589Y-108005288D01*
X122952536Y-107998841D01*
X122959055Y-107983103D01*
X123009934Y-107860271D01*
X123009935Y-107860269D01*
X123013044Y-107852762D01*
X123028500Y-107735361D01*
X123033682Y-107696000D01*
X123029561Y-107664698D01*
X123028500Y-107648513D01*
X123028500Y-102180228D01*
X123049218Y-102111607D01*
X123066509Y-102085583D01*
X123144483Y-101968222D01*
X123208257Y-101800336D01*
X123233251Y-101622493D01*
X123233565Y-101600000D01*
X123213546Y-101421528D01*
X123154485Y-101251927D01*
X123059316Y-101099625D01*
X122932770Y-100972193D01*
X122781136Y-100875963D01*
X122761219Y-100868871D01*
X122618479Y-100818043D01*
X122618475Y-100818042D01*
X122611951Y-100815719D01*
X122433624Y-100794455D01*
X122426735Y-100795179D01*
X122426732Y-100795179D01*
X122261913Y-100812502D01*
X122261911Y-100812502D01*
X122255017Y-100813227D01*
X122248456Y-100815461D01*
X122248454Y-100815461D01*
X122161718Y-100844989D01*
X122085007Y-100871103D01*
X122079105Y-100874734D01*
X121984694Y-100932816D01*
X121917281Y-100951178D01*
X121853277Y-100931899D01*
X121770991Y-100879678D01*
X121770986Y-100879676D01*
X121765136Y-100875963D01*
X121745219Y-100868871D01*
X121602479Y-100818043D01*
X121602475Y-100818042D01*
X121595951Y-100815719D01*
X121417624Y-100794455D01*
X121410735Y-100795179D01*
X121410732Y-100795179D01*
X121245913Y-100812502D01*
X121245911Y-100812502D01*
X121239017Y-100813227D01*
X121232456Y-100815461D01*
X121232454Y-100815461D01*
X121145718Y-100844989D01*
X121069007Y-100871103D01*
X121063105Y-100874734D01*
X120970185Y-100931899D01*
X120916045Y-100965206D01*
X120787732Y-101090859D01*
X120690446Y-101241817D01*
X120629022Y-101410578D01*
X120606514Y-101588753D01*
X120624039Y-101767486D01*
X120680726Y-101937896D01*
X120684319Y-101943829D01*
X120684320Y-101943831D01*
X120770168Y-102085583D01*
X120773759Y-102091512D01*
X120778572Y-102096496D01*
X120782806Y-102101994D01*
X120781227Y-102103210D01*
X120809106Y-102156445D01*
X120811500Y-102180693D01*
X120811500Y-107141903D01*
X120791815Y-107208942D01*
X120775181Y-107229584D01*
X119929584Y-108075181D01*
X119868261Y-108108666D01*
X119841903Y-108111500D01*
X115897168Y-108111500D01*
X115830129Y-108091815D01*
X115823845Y-108087289D01*
X115820770Y-108084193D01*
X115814923Y-108080482D01*
X115814920Y-108080480D01*
X115674990Y-107991678D01*
X115669136Y-107987963D01*
X115649219Y-107980871D01*
X115506479Y-107930043D01*
X115506475Y-107930042D01*
X115499951Y-107927719D01*
X115321624Y-107906455D01*
X115314735Y-107907179D01*
X115314732Y-107907179D01*
X115149913Y-107924502D01*
X115149911Y-107924502D01*
X115143017Y-107925227D01*
X115136456Y-107927461D01*
X115136454Y-107927461D01*
X115049718Y-107956989D01*
X114973007Y-107983103D01*
X114967105Y-107986734D01*
X114825951Y-108073572D01*
X114825950Y-108073573D01*
X114820045Y-108077206D01*
X114815093Y-108082056D01*
X114811049Y-108085215D01*
X114746102Y-108110975D01*
X114734709Y-108111500D01*
X110309168Y-108111500D01*
X110242129Y-108091815D01*
X110235845Y-108087289D01*
X110232770Y-108084193D01*
X110226923Y-108080482D01*
X110226920Y-108080480D01*
X110086990Y-107991678D01*
X110081136Y-107987963D01*
X110061219Y-107980871D01*
X109918479Y-107930043D01*
X109918475Y-107930042D01*
X109911951Y-107927719D01*
X109733624Y-107906455D01*
X109726735Y-107907179D01*
X109726732Y-107907179D01*
X109561913Y-107924502D01*
X109561911Y-107924502D01*
X109555017Y-107925227D01*
X109548456Y-107927461D01*
X109548454Y-107927461D01*
X109461718Y-107956989D01*
X109385007Y-107983103D01*
X109232045Y-108077206D01*
X109103732Y-108202859D01*
X109006446Y-108353817D01*
X108945022Y-108522578D01*
X108922514Y-108700753D01*
X108923191Y-108707655D01*
X108923191Y-108707656D01*
X108926107Y-108737401D01*
X108913058Y-108806041D01*
X108864971Y-108856730D01*
X108802699Y-108873500D01*
X103170097Y-108873500D01*
X103103058Y-108853815D01*
X103082416Y-108837181D01*
X102938753Y-108693518D01*
X102905268Y-108632195D01*
X102903207Y-108619659D01*
X102894319Y-108540419D01*
X102893546Y-108533528D01*
X102834485Y-108363927D01*
X102739316Y-108211625D01*
X102612770Y-108084193D01*
X102461136Y-107987963D01*
X102441219Y-107980871D01*
X102298479Y-107930043D01*
X102298475Y-107930042D01*
X102291951Y-107927719D01*
X102113624Y-107906455D01*
X102106735Y-107907179D01*
X102106732Y-107907179D01*
X101941913Y-107924502D01*
X101941911Y-107924502D01*
X101935017Y-107925227D01*
X101928456Y-107927461D01*
X101928454Y-107927461D01*
X101841718Y-107956989D01*
X101765007Y-107983103D01*
X101612045Y-108077206D01*
X101483732Y-108202859D01*
X101386446Y-108353817D01*
X101325022Y-108522578D01*
X101302514Y-108700753D01*
X101303191Y-108707655D01*
X101303191Y-108707656D01*
X101306107Y-108737401D01*
X101293058Y-108806041D01*
X101244971Y-108856730D01*
X101182699Y-108873500D01*
X97582097Y-108873500D01*
X97515058Y-108853815D01*
X97494416Y-108837181D01*
X97350753Y-108693518D01*
X97317268Y-108632195D01*
X97315207Y-108619659D01*
X97306319Y-108540419D01*
X97305546Y-108533528D01*
X97246485Y-108363927D01*
X97151316Y-108211625D01*
X97024770Y-108084193D01*
X96873136Y-107987963D01*
X96853219Y-107980871D01*
X96710479Y-107930043D01*
X96710475Y-107930042D01*
X96703951Y-107927719D01*
X96525624Y-107906455D01*
X96518735Y-107907179D01*
X96518732Y-107907179D01*
X96353913Y-107924502D01*
X96353911Y-107924502D01*
X96347017Y-107925227D01*
X96340456Y-107927461D01*
X96340454Y-107927461D01*
X96253718Y-107956989D01*
X96177007Y-107983103D01*
X96024045Y-108077206D01*
X95895732Y-108202859D01*
X95798446Y-108353817D01*
X95737022Y-108522578D01*
X95714514Y-108700753D01*
X95732039Y-108879486D01*
X95788726Y-109049896D01*
X95881759Y-109203512D01*
X96006514Y-109332699D01*
X96012308Y-109336490D01*
X96012311Y-109336493D01*
X96108213Y-109399249D01*
X96156789Y-109431036D01*
X96163284Y-109433451D01*
X96163285Y-109433452D01*
X96309362Y-109487777D01*
X96365335Y-109529595D01*
X96389815Y-109595036D01*
X96375028Y-109663323D01*
X96325670Y-109712775D01*
X96266139Y-109728000D01*
X94868000Y-109728000D01*
X94864720Y-109728353D01*
X94864713Y-109728353D01*
X94818494Y-109733322D01*
X94760020Y-109739609D01*
X94707678Y-109750995D01*
X94604628Y-109785293D01*
X94482990Y-109863465D01*
X94479642Y-109866366D01*
X94479638Y-109866369D01*
X94432675Y-109907063D01*
X94429334Y-109909958D01*
X94404839Y-109938226D01*
X94346063Y-109976000D01*
X94276193Y-109976000D01*
X94249876Y-109964839D01*
X94247904Y-109963719D01*
X94243700Y-109960851D01*
X94019896Y-109856965D01*
X93971141Y-109843444D01*
X93787030Y-109792385D01*
X93787028Y-109792385D01*
X93782129Y-109791026D01*
X93580708Y-109769500D01*
X93437446Y-109769500D01*
X93254089Y-109784575D01*
X93014783Y-109844684D01*
X93010116Y-109846713D01*
X93010114Y-109846714D01*
X92977112Y-109861064D01*
X92788507Y-109943072D01*
X92581339Y-110077095D01*
X92512431Y-110139797D01*
X92402613Y-110239722D01*
X92402609Y-110239726D01*
X92398842Y-110243154D01*
X92245918Y-110436790D01*
X92126673Y-110652802D01*
X92124975Y-110657598D01*
X92124970Y-110657609D01*
X92068019Y-110818432D01*
X92027086Y-110875056D01*
X91962037Y-110900560D01*
X91889611Y-110884702D01*
X91722570Y-110789250D01*
X84421601Y-106617267D01*
X84421594Y-106617264D01*
X84418100Y-106615267D01*
X84378648Y-106599080D01*
X84269760Y-106554402D01*
X84269752Y-106554399D01*
X84266032Y-106552873D01*
X84262142Y-106551840D01*
X84262136Y-106551838D01*
X84207416Y-106537307D01*
X84207414Y-106537307D01*
X84203518Y-106536272D01*
X84199519Y-106535750D01*
X84044531Y-106515521D01*
X84044529Y-106515521D01*
X84040538Y-106515000D01*
X76961000Y-106515000D01*
X76957719Y-106515353D01*
X76957714Y-106515353D01*
X76910602Y-106520418D01*
X76837254Y-106528304D01*
X76768495Y-106515898D01*
X76717358Y-106468288D01*
X76700000Y-106405014D01*
X76700000Y-105761905D01*
X81032907Y-105761905D01*
X81042055Y-105773729D01*
X81105983Y-105818493D01*
X81115329Y-105823889D01*
X81319603Y-105919143D01*
X81329736Y-105922832D01*
X81547447Y-105981167D01*
X81558078Y-105983041D01*
X81782605Y-106002685D01*
X81793395Y-106002685D01*
X82017922Y-105983041D01*
X82028553Y-105981167D01*
X82246264Y-105922832D01*
X82256397Y-105919143D01*
X82460671Y-105823889D01*
X82470017Y-105818493D01*
X82534768Y-105773152D01*
X82543011Y-105762841D01*
X82536055Y-105749608D01*
X81800607Y-105014160D01*
X81786887Y-105006668D01*
X81785081Y-105006797D01*
X81778574Y-105010979D01*
X81039234Y-105750319D01*
X81032907Y-105761905D01*
X76700000Y-105761905D01*
X76700000Y-104653395D01*
X80433315Y-104653395D01*
X80452959Y-104877922D01*
X80454833Y-104888553D01*
X80513168Y-105106264D01*
X80516857Y-105116397D01*
X80612114Y-105320675D01*
X80617502Y-105330008D01*
X80662850Y-105394771D01*
X80673158Y-105403011D01*
X80686392Y-105396055D01*
X81421840Y-104660607D01*
X81428116Y-104649113D01*
X82146668Y-104649113D01*
X82146797Y-104650919D01*
X82150979Y-104657426D01*
X82890319Y-105396766D01*
X82901905Y-105403093D01*
X82913728Y-105393946D01*
X82958498Y-105330008D01*
X82963886Y-105320675D01*
X83059143Y-105116397D01*
X83062832Y-105106264D01*
X83121167Y-104888553D01*
X83123041Y-104877922D01*
X83142685Y-104653395D01*
X83142685Y-104642605D01*
X83123041Y-104418078D01*
X83121167Y-104407447D01*
X83062832Y-104189736D01*
X83059143Y-104179603D01*
X82963886Y-103975325D01*
X82958498Y-103965992D01*
X82913150Y-103901229D01*
X82902842Y-103892989D01*
X82889608Y-103899945D01*
X82154160Y-104635393D01*
X82146668Y-104649113D01*
X81428116Y-104649113D01*
X81429332Y-104646887D01*
X81429203Y-104645081D01*
X81425021Y-104638574D01*
X80685681Y-103899234D01*
X80674095Y-103892907D01*
X80662272Y-103902054D01*
X80617502Y-103965992D01*
X80612114Y-103975325D01*
X80516857Y-104179603D01*
X80513168Y-104189736D01*
X80454833Y-104407447D01*
X80452959Y-104418078D01*
X80433315Y-104642605D01*
X80433315Y-104653395D01*
X76700000Y-104653395D01*
X76700000Y-103533158D01*
X81032989Y-103533158D01*
X81039945Y-103546392D01*
X81775393Y-104281840D01*
X81789113Y-104289332D01*
X81790919Y-104289203D01*
X81797426Y-104285021D01*
X82536766Y-103545681D01*
X82543093Y-103534095D01*
X82533945Y-103522271D01*
X82470017Y-103477507D01*
X82460671Y-103472111D01*
X82256397Y-103376857D01*
X82246264Y-103373168D01*
X82028553Y-103314833D01*
X82017922Y-103312959D01*
X81793395Y-103293315D01*
X81782605Y-103293315D01*
X81558078Y-103312959D01*
X81547447Y-103314833D01*
X81329736Y-103373168D01*
X81319603Y-103376857D01*
X81115325Y-103472114D01*
X81105992Y-103477502D01*
X81041229Y-103522850D01*
X81032989Y-103533158D01*
X76700000Y-103533158D01*
X76700000Y-100018576D01*
X76719685Y-99951537D01*
X76772489Y-99905782D01*
X76841647Y-99895838D01*
X76905203Y-99924863D01*
X76930065Y-99954341D01*
X76993759Y-100059512D01*
X77118514Y-100188699D01*
X77124308Y-100192490D01*
X77124311Y-100192493D01*
X77220213Y-100255249D01*
X77268789Y-100287036D01*
X77275284Y-100289451D01*
X77275285Y-100289452D01*
X77430616Y-100347219D01*
X77430619Y-100347220D01*
X77437116Y-100349636D01*
X77542396Y-100363683D01*
X77606244Y-100392061D01*
X77613678Y-100398913D01*
X78432227Y-101217463D01*
X78462207Y-101266004D01*
X78473123Y-101298819D01*
X78516726Y-101429896D01*
X78520319Y-101435829D01*
X78520320Y-101435831D01*
X78606168Y-101577583D01*
X78609759Y-101583512D01*
X78734514Y-101712699D01*
X78740308Y-101716490D01*
X78740311Y-101716493D01*
X78818237Y-101767486D01*
X78884789Y-101811036D01*
X79053116Y-101873636D01*
X79231130Y-101897388D01*
X79238031Y-101896760D01*
X79238033Y-101896760D01*
X79345744Y-101886958D01*
X79409981Y-101881112D01*
X79580782Y-101825615D01*
X79735044Y-101733657D01*
X79762286Y-101707715D01*
X79860080Y-101614587D01*
X79860082Y-101614585D01*
X79865099Y-101609807D01*
X79964483Y-101460222D01*
X79979182Y-101421528D01*
X80025794Y-101298819D01*
X80028257Y-101292336D01*
X80053251Y-101114493D01*
X80053565Y-101092000D01*
X80033546Y-100913528D01*
X79974485Y-100743927D01*
X79915475Y-100649491D01*
X79896643Y-100582209D01*
X79917349Y-100515164D01*
X79964483Y-100444222D01*
X80028257Y-100276336D01*
X80053251Y-100098493D01*
X80053565Y-100076000D01*
X80033546Y-99897528D01*
X79974485Y-99727927D01*
X79879316Y-99575625D01*
X79752770Y-99448193D01*
X79601136Y-99351963D01*
X79592746Y-99348975D01*
X79438479Y-99294043D01*
X79438475Y-99294042D01*
X79431951Y-99291719D01*
X79275996Y-99273123D01*
X79211760Y-99245639D01*
X79202998Y-99237676D01*
X78480398Y-98515076D01*
X78446913Y-98453753D01*
X78444852Y-98441217D01*
X78435964Y-98361977D01*
X78435191Y-98355086D01*
X78376130Y-98185485D01*
X78280961Y-98033183D01*
X78154415Y-97905751D01*
X78002781Y-97809521D01*
X77982864Y-97802429D01*
X77840124Y-97751601D01*
X77840120Y-97751600D01*
X77833596Y-97749277D01*
X77655269Y-97728013D01*
X77648380Y-97728737D01*
X77648377Y-97728737D01*
X77483558Y-97746060D01*
X77483556Y-97746060D01*
X77476662Y-97746785D01*
X77470101Y-97749019D01*
X77470099Y-97749019D01*
X77383363Y-97778547D01*
X77306652Y-97804661D01*
X77153690Y-97898764D01*
X77025377Y-98024417D01*
X77021624Y-98030241D01*
X76928230Y-98175159D01*
X76875368Y-98220847D01*
X76806197Y-98230702D01*
X76742678Y-98201597D01*
X76704979Y-98142771D01*
X76700000Y-98107987D01*
X76700000Y-93714753D01*
X90837714Y-93714753D01*
X90855239Y-93893486D01*
X90911926Y-94063896D01*
X90915519Y-94069829D01*
X90915520Y-94069831D01*
X91001368Y-94211583D01*
X91004959Y-94217512D01*
X91129714Y-94346699D01*
X91135508Y-94350490D01*
X91135511Y-94350493D01*
X91231413Y-94413249D01*
X91279989Y-94445036D01*
X91448316Y-94507636D01*
X91626330Y-94531388D01*
X91633231Y-94530760D01*
X91633233Y-94530760D01*
X91740944Y-94520958D01*
X91805181Y-94515112D01*
X91975982Y-94459615D01*
X92130244Y-94367657D01*
X92135266Y-94362875D01*
X92255280Y-94248587D01*
X92255282Y-94248585D01*
X92260299Y-94243807D01*
X92359683Y-94094222D01*
X92423457Y-93926336D01*
X92443285Y-93785249D01*
X92472108Y-93721602D01*
X92478397Y-93714826D01*
X92478470Y-93714753D01*
X106674514Y-93714753D01*
X106692039Y-93893486D01*
X106748726Y-94063896D01*
X106752319Y-94069829D01*
X106752320Y-94069831D01*
X106838168Y-94211583D01*
X106841759Y-94217512D01*
X106966514Y-94346699D01*
X106972308Y-94350490D01*
X106972311Y-94350493D01*
X107068213Y-94413249D01*
X107116789Y-94445036D01*
X107285116Y-94507636D01*
X107463130Y-94531388D01*
X107470031Y-94530760D01*
X107470033Y-94530760D01*
X107577744Y-94520958D01*
X107641981Y-94515112D01*
X107812782Y-94459615D01*
X107967044Y-94367657D01*
X107974345Y-94360705D01*
X107976148Y-94359777D01*
X107977587Y-94358684D01*
X107977779Y-94358937D01*
X108036466Y-94328727D01*
X108059859Y-94326500D01*
X109146680Y-94326500D01*
X109214578Y-94346741D01*
X109246541Y-94367657D01*
X109364789Y-94445036D01*
X109533116Y-94507636D01*
X109711130Y-94531388D01*
X109718031Y-94530760D01*
X109718033Y-94530760D01*
X109825744Y-94520958D01*
X109889981Y-94515112D01*
X110060782Y-94459615D01*
X110215044Y-94367657D01*
X110220066Y-94362875D01*
X110340080Y-94248587D01*
X110340082Y-94248585D01*
X110345099Y-94243807D01*
X110444483Y-94094222D01*
X110508257Y-93926336D01*
X110533251Y-93748493D01*
X110533565Y-93726000D01*
X110532303Y-93714753D01*
X115272514Y-93714753D01*
X115290039Y-93893486D01*
X115346726Y-94063896D01*
X115350319Y-94069829D01*
X115350320Y-94069831D01*
X115436168Y-94211583D01*
X115439759Y-94217512D01*
X115564514Y-94346699D01*
X115570308Y-94350490D01*
X115570311Y-94350493D01*
X115666213Y-94413249D01*
X115714789Y-94445036D01*
X115883116Y-94507636D01*
X116061130Y-94531388D01*
X116068031Y-94530760D01*
X116068033Y-94530760D01*
X116175744Y-94520958D01*
X116239981Y-94515112D01*
X116410782Y-94459615D01*
X116565044Y-94367657D01*
X116572345Y-94360705D01*
X116574148Y-94359777D01*
X116575587Y-94358684D01*
X116575779Y-94358937D01*
X116634466Y-94328727D01*
X116657859Y-94326500D01*
X117782680Y-94326500D01*
X117850578Y-94346741D01*
X117882541Y-94367657D01*
X118000789Y-94445036D01*
X118169116Y-94507636D01*
X118347130Y-94531388D01*
X118354031Y-94530760D01*
X118354033Y-94530760D01*
X118461744Y-94520958D01*
X118525981Y-94515112D01*
X118696782Y-94459615D01*
X118851044Y-94367657D01*
X118856066Y-94362875D01*
X118976080Y-94248587D01*
X118976082Y-94248585D01*
X118981099Y-94243807D01*
X119080483Y-94094222D01*
X119144257Y-93926336D01*
X119169251Y-93748493D01*
X119169565Y-93726000D01*
X119149546Y-93547528D01*
X119090485Y-93377927D01*
X118995316Y-93225625D01*
X118868770Y-93098193D01*
X118717136Y-93001963D01*
X118697219Y-92994871D01*
X118554479Y-92944043D01*
X118554475Y-92944042D01*
X118547951Y-92941719D01*
X118369624Y-92920455D01*
X118362735Y-92921179D01*
X118362732Y-92921179D01*
X118197913Y-92938502D01*
X118197911Y-92938502D01*
X118191017Y-92939227D01*
X118184456Y-92941461D01*
X118184454Y-92941461D01*
X118097718Y-92970989D01*
X118021007Y-92997103D01*
X118015105Y-93000734D01*
X117873951Y-93087572D01*
X117873950Y-93087573D01*
X117868045Y-93091206D01*
X117863093Y-93096056D01*
X117859049Y-93099215D01*
X117794102Y-93124975D01*
X117782709Y-93125500D01*
X116659168Y-93125500D01*
X116592129Y-93105815D01*
X116585845Y-93101289D01*
X116582770Y-93098193D01*
X116576923Y-93094482D01*
X116576920Y-93094480D01*
X116436990Y-93005678D01*
X116431136Y-93001963D01*
X116411219Y-92994871D01*
X116268479Y-92944043D01*
X116268475Y-92944042D01*
X116261951Y-92941719D01*
X116083624Y-92920455D01*
X116076735Y-92921179D01*
X116076732Y-92921179D01*
X115911913Y-92938502D01*
X115911911Y-92938502D01*
X115905017Y-92939227D01*
X115898456Y-92941461D01*
X115898454Y-92941461D01*
X115811718Y-92970989D01*
X115735007Y-92997103D01*
X115582045Y-93091206D01*
X115453732Y-93216859D01*
X115356446Y-93367817D01*
X115295022Y-93536578D01*
X115272514Y-93714753D01*
X110532303Y-93714753D01*
X110513546Y-93547528D01*
X110454485Y-93377927D01*
X110359316Y-93225625D01*
X110232770Y-93098193D01*
X110081136Y-93001963D01*
X110061219Y-92994871D01*
X109918479Y-92944043D01*
X109918475Y-92944042D01*
X109911951Y-92941719D01*
X109733624Y-92920455D01*
X109726735Y-92921179D01*
X109726732Y-92921179D01*
X109561913Y-92938502D01*
X109561911Y-92938502D01*
X109555017Y-92939227D01*
X109548456Y-92941461D01*
X109548454Y-92941461D01*
X109461718Y-92970989D01*
X109385007Y-92997103D01*
X109379105Y-93000734D01*
X109237951Y-93087572D01*
X109237950Y-93087573D01*
X109232045Y-93091206D01*
X109227093Y-93096056D01*
X109223049Y-93099215D01*
X109158102Y-93124975D01*
X109146709Y-93125500D01*
X108061168Y-93125500D01*
X107994129Y-93105815D01*
X107987845Y-93101289D01*
X107984770Y-93098193D01*
X107978923Y-93094482D01*
X107978920Y-93094480D01*
X107838990Y-93005678D01*
X107833136Y-93001963D01*
X107813219Y-92994871D01*
X107670479Y-92944043D01*
X107670475Y-92944042D01*
X107663951Y-92941719D01*
X107485624Y-92920455D01*
X107478735Y-92921179D01*
X107478732Y-92921179D01*
X107313913Y-92938502D01*
X107313911Y-92938502D01*
X107307017Y-92939227D01*
X107300456Y-92941461D01*
X107300454Y-92941461D01*
X107213718Y-92970989D01*
X107137007Y-92997103D01*
X106984045Y-93091206D01*
X106855732Y-93216859D01*
X106758446Y-93367817D01*
X106697022Y-93536578D01*
X106674514Y-93714753D01*
X92478470Y-93714753D01*
X93833179Y-92360044D01*
X93894502Y-92326559D01*
X93909623Y-92324235D01*
X93976975Y-92318106D01*
X94147776Y-92262609D01*
X94302038Y-92170651D01*
X94344880Y-92129853D01*
X94427074Y-92051581D01*
X94427076Y-92051579D01*
X94432093Y-92046801D01*
X94501438Y-91942428D01*
X94527639Y-91902993D01*
X94527640Y-91902991D01*
X94531477Y-91897216D01*
X94595251Y-91729330D01*
X94620245Y-91551487D01*
X94620559Y-91528994D01*
X94600540Y-91350522D01*
X94541479Y-91180921D01*
X94446310Y-91028619D01*
X94334970Y-90916499D01*
X94324647Y-90906104D01*
X94324646Y-90906103D01*
X94319764Y-90901187D01*
X94168130Y-90804957D01*
X94139182Y-90794649D01*
X94005473Y-90747037D01*
X94005469Y-90747036D01*
X93998945Y-90744713D01*
X93820618Y-90723449D01*
X93813729Y-90724173D01*
X93813726Y-90724173D01*
X93648907Y-90741496D01*
X93648905Y-90741496D01*
X93642011Y-90742221D01*
X93635450Y-90744455D01*
X93635448Y-90744455D01*
X93548712Y-90773983D01*
X93472001Y-90800097D01*
X93319039Y-90894200D01*
X93190726Y-91019853D01*
X93186973Y-91025677D01*
X93106238Y-91150953D01*
X93093440Y-91170811D01*
X93032016Y-91339572D01*
X93029762Y-91357413D01*
X93019528Y-91438426D01*
X92991597Y-91502470D01*
X92984187Y-91510566D01*
X91596595Y-92898158D01*
X91535272Y-92931643D01*
X91521877Y-92933798D01*
X91503073Y-92935774D01*
X91477113Y-92938502D01*
X91477111Y-92938502D01*
X91470217Y-92939227D01*
X91463656Y-92941461D01*
X91463654Y-92941461D01*
X91376918Y-92970989D01*
X91300207Y-92997103D01*
X91147245Y-93091206D01*
X91018932Y-93216859D01*
X90921646Y-93367817D01*
X90860222Y-93536578D01*
X90837714Y-93714753D01*
X76700000Y-93714753D01*
X76700000Y-85797488D01*
X86527249Y-85797488D01*
X86544774Y-85976221D01*
X86601461Y-86146631D01*
X86605054Y-86152564D01*
X86605055Y-86152566D01*
X86653424Y-86232433D01*
X86694494Y-86300247D01*
X86819249Y-86429434D01*
X86825043Y-86433225D01*
X86825046Y-86433228D01*
X86860141Y-86456193D01*
X86969524Y-86527771D01*
X87137851Y-86590371D01*
X87315865Y-86614123D01*
X87322766Y-86613495D01*
X87322768Y-86613495D01*
X87430479Y-86603693D01*
X87494716Y-86597847D01*
X87665517Y-86542350D01*
X87819779Y-86450392D01*
X87824801Y-86445610D01*
X87944815Y-86331322D01*
X87944817Y-86331320D01*
X87949834Y-86326542D01*
X88049218Y-86176957D01*
X88112992Y-86009071D01*
X88128698Y-85897318D01*
X88157521Y-85833671D01*
X88163810Y-85826895D01*
X88263886Y-85726819D01*
X88325209Y-85693334D01*
X88351567Y-85690500D01*
X91647902Y-85690500D01*
X91714941Y-85710185D01*
X91735584Y-85726819D01*
X91819182Y-85810418D01*
X91852666Y-85871742D01*
X91855500Y-85898099D01*
X91855500Y-86981053D01*
X91835815Y-87048092D01*
X91783011Y-87093847D01*
X91771469Y-87098435D01*
X91605007Y-87155103D01*
X91599105Y-87158734D01*
X91459560Y-87244583D01*
X91452045Y-87249206D01*
X91323732Y-87374859D01*
X91226446Y-87525817D01*
X91206544Y-87580497D01*
X91167880Y-87686727D01*
X91165022Y-87694578D01*
X91157578Y-87753507D01*
X91143544Y-87864602D01*
X91142514Y-87872753D01*
X91160039Y-88051486D01*
X91216726Y-88221896D01*
X91220319Y-88227829D01*
X91220320Y-88227831D01*
X91293830Y-88349210D01*
X91309759Y-88375512D01*
X91434514Y-88504699D01*
X91440308Y-88508490D01*
X91440311Y-88508493D01*
X91536213Y-88571249D01*
X91584789Y-88603036D01*
X91753116Y-88665636D01*
X91931130Y-88689388D01*
X91938031Y-88688760D01*
X91938033Y-88688760D01*
X92045744Y-88678958D01*
X92109981Y-88673112D01*
X92280782Y-88617615D01*
X92435044Y-88525657D01*
X92457052Y-88504699D01*
X92560080Y-88406587D01*
X92560082Y-88406585D01*
X92565099Y-88401807D01*
X92664483Y-88252222D01*
X92676724Y-88219999D01*
X92725794Y-88090820D01*
X92728257Y-88084336D01*
X92743963Y-87972584D01*
X92772786Y-87908937D01*
X92779075Y-87902161D01*
X92847039Y-87834197D01*
X92859234Y-87823502D01*
X92877835Y-87809229D01*
X92884282Y-87804282D01*
X92980536Y-87678841D01*
X93014836Y-87596034D01*
X93037934Y-87540271D01*
X93037935Y-87540269D01*
X93041044Y-87532762D01*
X93056500Y-87415361D01*
X93061682Y-87376000D01*
X93057561Y-87344698D01*
X93056500Y-87328513D01*
X93056500Y-87072753D01*
X95460514Y-87072753D01*
X95478039Y-87251486D01*
X95534726Y-87421896D01*
X95538319Y-87427829D01*
X95538320Y-87427831D01*
X95606416Y-87540271D01*
X95627759Y-87575512D01*
X95752514Y-87704699D01*
X95758308Y-87708490D01*
X95758311Y-87708493D01*
X95854213Y-87771249D01*
X95902789Y-87803036D01*
X95909284Y-87805451D01*
X95909285Y-87805452D01*
X95932440Y-87814063D01*
X96071116Y-87865636D01*
X96249130Y-87889388D01*
X96256031Y-87888760D01*
X96256033Y-87888760D01*
X96363744Y-87878958D01*
X96427981Y-87873112D01*
X96598782Y-87817615D01*
X96753044Y-87725657D01*
X96760345Y-87718705D01*
X96762148Y-87717777D01*
X96763587Y-87716684D01*
X96763779Y-87716937D01*
X96822466Y-87686727D01*
X96845859Y-87684500D01*
X97624845Y-87684500D01*
X97691884Y-87704185D01*
X97737639Y-87756989D01*
X97747396Y-87820942D01*
X97747480Y-87820943D01*
X97747473Y-87821449D01*
X97747868Y-87824037D01*
X97746514Y-87834753D01*
X97753788Y-87908937D01*
X97760029Y-87972584D01*
X97764039Y-88013486D01*
X97820726Y-88183896D01*
X97824319Y-88189829D01*
X97824320Y-88189831D01*
X97865604Y-88257999D01*
X97913759Y-88337512D01*
X97918572Y-88342496D01*
X97922806Y-88347994D01*
X97921227Y-88349210D01*
X97949106Y-88402445D01*
X97951500Y-88426693D01*
X97951500Y-89804785D01*
X97931815Y-89871824D01*
X97929217Y-89875405D01*
X97927732Y-89876859D01*
X97924313Y-89882164D01*
X97924311Y-89882167D01*
X97839742Y-90013393D01*
X97830446Y-90027817D01*
X97769022Y-90196578D01*
X97746514Y-90374753D01*
X97748076Y-90390679D01*
X97758865Y-90500713D01*
X97764039Y-90553486D01*
X97820726Y-90723896D01*
X97824319Y-90729829D01*
X97824320Y-90729831D01*
X97910168Y-90871583D01*
X97913759Y-90877512D01*
X98038514Y-91006699D01*
X98044308Y-91010490D01*
X98044311Y-91010493D01*
X98086055Y-91037809D01*
X98188789Y-91105036D01*
X98357116Y-91167636D01*
X98535130Y-91191388D01*
X98542031Y-91190760D01*
X98542033Y-91190760D01*
X98650148Y-91180921D01*
X98713981Y-91175112D01*
X98884782Y-91119615D01*
X99039044Y-91027657D01*
X99046345Y-91020705D01*
X99048148Y-91019777D01*
X99049587Y-91018684D01*
X99049779Y-91018937D01*
X99108466Y-90988727D01*
X99131859Y-90986500D01*
X100028513Y-90986500D01*
X100044698Y-90987561D01*
X100076000Y-90991682D01*
X100084059Y-90990621D01*
X100115361Y-90986500D01*
X100224703Y-90972105D01*
X100232762Y-90971044D01*
X100240269Y-90967935D01*
X100240271Y-90967934D01*
X100371333Y-90913646D01*
X100378841Y-90910536D01*
X100504282Y-90814282D01*
X100523505Y-90789230D01*
X100534200Y-90777035D01*
X100619570Y-90691665D01*
X107980119Y-90691665D01*
X107980412Y-90696747D01*
X107980412Y-90696748D01*
X107993083Y-90916499D01*
X107993376Y-90921580D01*
X108012767Y-91007626D01*
X108033865Y-91101241D01*
X108044006Y-91146242D01*
X108130649Y-91359618D01*
X108133311Y-91363962D01*
X108248317Y-91551635D01*
X108248321Y-91551640D01*
X108250979Y-91555978D01*
X108254311Y-91559824D01*
X108254312Y-91559826D01*
X108395193Y-91722463D01*
X108401763Y-91730048D01*
X108405673Y-91733294D01*
X108405677Y-91733298D01*
X108485253Y-91799363D01*
X108578953Y-91877154D01*
X108777790Y-91993345D01*
X108782543Y-91995160D01*
X108782545Y-91995161D01*
X108850584Y-92021142D01*
X108992934Y-92075501D01*
X108997920Y-92076515D01*
X108997922Y-92076516D01*
X109068822Y-92090940D01*
X109218607Y-92121414D01*
X109368235Y-92126901D01*
X109443670Y-92129667D01*
X109443673Y-92129667D01*
X109448749Y-92129853D01*
X109677178Y-92100591D01*
X109682048Y-92099130D01*
X109892892Y-92035874D01*
X109892895Y-92035873D01*
X109897761Y-92034413D01*
X109902324Y-92032177D01*
X109902328Y-92032176D01*
X110004036Y-91982349D01*
X110104574Y-91933096D01*
X110292062Y-91799363D01*
X110455190Y-91636803D01*
X110589577Y-91449783D01*
X110691615Y-91243325D01*
X110758563Y-91022975D01*
X110762202Y-90995335D01*
X120274288Y-90995335D01*
X120284013Y-91007626D01*
X120329186Y-91037809D01*
X120339144Y-91043216D01*
X120522885Y-91122157D01*
X120533649Y-91125655D01*
X120728708Y-91169792D01*
X120739936Y-91171269D01*
X120939764Y-91179121D01*
X120951067Y-91178529D01*
X121148986Y-91149832D01*
X121159999Y-91147187D01*
X121349361Y-91082908D01*
X121359713Y-91078299D01*
X121487767Y-91006586D01*
X121497474Y-90996668D01*
X121494566Y-90989120D01*
X120897607Y-90392160D01*
X120883887Y-90384668D01*
X120882082Y-90384797D01*
X120875573Y-90388980D01*
X120280384Y-90984170D01*
X120274288Y-90995335D01*
X110762202Y-90995335D01*
X110788622Y-90794649D01*
X110788755Y-90789230D01*
X110789863Y-90743893D01*
X110790300Y-90726000D01*
X110771430Y-90496478D01*
X110715326Y-90273120D01*
X110623496Y-90061924D01*
X110620736Y-90057658D01*
X110620733Y-90057652D01*
X110584368Y-90001441D01*
X119730841Y-90001441D01*
X119743921Y-90201004D01*
X119745690Y-90212174D01*
X119794921Y-90406022D01*
X119798694Y-90416677D01*
X119882424Y-90598300D01*
X119888088Y-90608109D01*
X119903160Y-90629437D01*
X119913581Y-90637692D01*
X119926671Y-90630775D01*
X120518840Y-90038607D01*
X120525116Y-90027113D01*
X121243668Y-90027113D01*
X121243797Y-90028918D01*
X121247980Y-90035427D01*
X121844268Y-90631714D01*
X121856449Y-90638365D01*
X121862925Y-90633517D01*
X121937299Y-90500713D01*
X121941908Y-90490361D01*
X122006187Y-90300999D01*
X122008832Y-90289986D01*
X122037820Y-90090060D01*
X122038440Y-90082785D01*
X122039831Y-90029661D01*
X122039592Y-90022359D01*
X122021108Y-89821191D01*
X122019044Y-89810058D01*
X121964760Y-89617583D01*
X121960703Y-89607013D01*
X121872254Y-89427655D01*
X121867812Y-89420407D01*
X121857467Y-89412644D01*
X121845245Y-89419309D01*
X121251160Y-90013393D01*
X121243668Y-90027113D01*
X120525116Y-90027113D01*
X120526332Y-90024887D01*
X120526203Y-90023082D01*
X120522020Y-90016573D01*
X119924188Y-89418742D01*
X119912007Y-89412091D01*
X119906135Y-89416486D01*
X119820633Y-89579000D01*
X119816300Y-89589461D01*
X119756997Y-89780446D01*
X119754643Y-89791519D01*
X119731137Y-89990123D01*
X119730841Y-90001441D01*
X110584368Y-90001441D01*
X110501167Y-89872832D01*
X110501165Y-89872830D01*
X110498405Y-89868563D01*
X110343412Y-89698229D01*
X110339427Y-89695082D01*
X110339424Y-89695079D01*
X110166672Y-89558648D01*
X110166673Y-89558648D01*
X110162681Y-89555496D01*
X110158235Y-89553042D01*
X110158231Y-89553039D01*
X109965520Y-89446657D01*
X109965517Y-89446656D01*
X109961065Y-89444198D01*
X109771895Y-89377209D01*
X109748779Y-89369023D01*
X109748778Y-89369023D01*
X109743978Y-89367323D01*
X109689575Y-89357632D01*
X109522260Y-89327829D01*
X109522255Y-89327829D01*
X109517250Y-89326937D01*
X109426875Y-89325833D01*
X109292061Y-89324185D01*
X109292059Y-89324185D01*
X109286971Y-89324123D01*
X109281942Y-89324893D01*
X109281936Y-89324893D01*
X109151950Y-89344784D01*
X109059325Y-89358958D01*
X108840424Y-89430506D01*
X108835910Y-89432856D01*
X108640664Y-89534494D01*
X108640658Y-89534498D01*
X108636149Y-89536845D01*
X108451984Y-89675119D01*
X108448469Y-89678798D01*
X108448466Y-89678800D01*
X108357315Y-89774185D01*
X108292877Y-89841616D01*
X108290013Y-89845815D01*
X108290011Y-89845817D01*
X108274495Y-89868563D01*
X108163099Y-90031863D01*
X108160957Y-90036477D01*
X108160955Y-90036481D01*
X108079401Y-90212174D01*
X108066136Y-90240752D01*
X108064774Y-90245662D01*
X108064774Y-90245663D01*
X108020303Y-90406022D01*
X108004592Y-90462673D01*
X108004052Y-90467728D01*
X108004051Y-90467732D01*
X107994183Y-90560066D01*
X107980119Y-90691665D01*
X100619570Y-90691665D01*
X101520416Y-89790819D01*
X101581739Y-89757334D01*
X101608097Y-89754500D01*
X102207346Y-89754500D01*
X102274385Y-89774185D01*
X102308920Y-89807376D01*
X102341275Y-89853584D01*
X102413296Y-89956442D01*
X102413300Y-89956446D01*
X102416402Y-89960877D01*
X102571123Y-90115598D01*
X102750361Y-90241102D01*
X102948670Y-90333575D01*
X102953893Y-90334974D01*
X102953897Y-90334976D01*
X103102348Y-90374753D01*
X103160023Y-90390207D01*
X103378000Y-90409277D01*
X103595977Y-90390207D01*
X103653652Y-90374753D01*
X103802103Y-90334976D01*
X103802107Y-90334974D01*
X103807330Y-90333575D01*
X104005639Y-90241102D01*
X104184877Y-90115598D01*
X104339598Y-89960877D01*
X104342700Y-89956446D01*
X104342704Y-89956442D01*
X104461994Y-89786077D01*
X104461995Y-89786075D01*
X104465102Y-89781638D01*
X104557575Y-89583330D01*
X104565692Y-89553039D01*
X104612805Y-89377209D01*
X104614207Y-89371977D01*
X104633277Y-89154000D01*
X104614207Y-88936023D01*
X104566296Y-88757217D01*
X104558976Y-88729897D01*
X104558974Y-88729893D01*
X104557575Y-88724670D01*
X104465102Y-88526362D01*
X104452590Y-88508493D01*
X104342704Y-88351558D01*
X104342700Y-88351554D01*
X104339598Y-88347123D01*
X104184877Y-88192402D01*
X104005639Y-88066898D01*
X103807330Y-87974425D01*
X103802107Y-87973026D01*
X103802103Y-87973024D01*
X103601209Y-87919195D01*
X103601210Y-87919195D01*
X103595977Y-87917793D01*
X103378000Y-87898723D01*
X103160023Y-87917793D01*
X103154790Y-87919195D01*
X103154791Y-87919195D01*
X102953897Y-87973024D01*
X102953893Y-87973026D01*
X102948670Y-87974425D01*
X102750362Y-88066898D01*
X102745925Y-88070005D01*
X102745923Y-88070006D01*
X102575558Y-88189296D01*
X102575557Y-88189297D01*
X102571123Y-88192402D01*
X102416402Y-88347123D01*
X102413300Y-88351554D01*
X102413296Y-88351558D01*
X102382154Y-88396034D01*
X102309557Y-88499715D01*
X102308921Y-88500623D01*
X102254344Y-88544248D01*
X102207346Y-88553500D01*
X101355487Y-88553500D01*
X101339302Y-88552439D01*
X101316059Y-88549379D01*
X101308000Y-88548318D01*
X101268639Y-88553500D01*
X101151238Y-88568956D01*
X101143731Y-88572065D01*
X101143729Y-88572066D01*
X101063129Y-88605452D01*
X101005159Y-88629464D01*
X100879718Y-88725718D01*
X100874771Y-88732165D01*
X100860495Y-88750770D01*
X100849800Y-88762965D01*
X99863584Y-89749181D01*
X99802261Y-89782666D01*
X99775903Y-89785500D01*
X99276500Y-89785500D01*
X99209461Y-89765815D01*
X99163706Y-89713011D01*
X99152500Y-89661500D01*
X99152500Y-88426228D01*
X99173218Y-88357607D01*
X99190509Y-88331583D01*
X99259441Y-88227831D01*
X99264645Y-88219999D01*
X99264646Y-88219997D01*
X99268483Y-88214222D01*
X99275317Y-88196233D01*
X99320431Y-88077468D01*
X99332257Y-88046336D01*
X99352936Y-87899195D01*
X99356709Y-87872350D01*
X99356709Y-87872349D01*
X99357251Y-87868493D01*
X99357565Y-87846000D01*
X99354909Y-87822322D01*
X99366998Y-87753507D01*
X99414372Y-87702151D01*
X99478136Y-87684500D01*
X100256680Y-87684500D01*
X100324578Y-87704741D01*
X100356541Y-87725657D01*
X100474789Y-87803036D01*
X100481284Y-87805451D01*
X100481285Y-87805452D01*
X100504440Y-87814063D01*
X100643116Y-87865636D01*
X100821130Y-87889388D01*
X100828031Y-87888760D01*
X100828033Y-87888760D01*
X100935744Y-87878958D01*
X100999981Y-87873112D01*
X101170782Y-87817615D01*
X101229212Y-87782784D01*
X106834500Y-87782784D01*
X106834736Y-87785478D01*
X106834736Y-87785485D01*
X106847511Y-87931499D01*
X106849365Y-87952692D01*
X106908261Y-88172496D01*
X106910548Y-88177400D01*
X106910550Y-88177406D01*
X106945438Y-88252222D01*
X107004432Y-88378734D01*
X107007539Y-88383171D01*
X107007540Y-88383173D01*
X107131847Y-88560704D01*
X107131851Y-88560708D01*
X107134953Y-88565139D01*
X107295861Y-88726047D01*
X107300292Y-88729149D01*
X107300296Y-88729153D01*
X107477827Y-88853460D01*
X107482266Y-88856568D01*
X107487177Y-88858858D01*
X107683594Y-88950450D01*
X107683600Y-88950452D01*
X107688504Y-88952739D01*
X107908308Y-89011635D01*
X107913693Y-89012106D01*
X107913698Y-89012107D01*
X108075515Y-89026264D01*
X108075522Y-89026264D01*
X108078216Y-89026500D01*
X109791784Y-89026500D01*
X109794478Y-89026264D01*
X109794485Y-89026264D01*
X109956302Y-89012107D01*
X109956307Y-89012106D01*
X109961692Y-89011635D01*
X110181496Y-88952739D01*
X110186400Y-88950452D01*
X110186406Y-88950450D01*
X110382823Y-88858858D01*
X110387734Y-88856568D01*
X110392173Y-88853460D01*
X110569704Y-88729153D01*
X110569708Y-88729149D01*
X110574139Y-88726047D01*
X110735047Y-88565139D01*
X110738149Y-88560708D01*
X110738153Y-88560704D01*
X110862460Y-88383173D01*
X110862461Y-88383171D01*
X110865568Y-88378734D01*
X110924562Y-88252222D01*
X110959450Y-88177406D01*
X110959452Y-88177400D01*
X110961739Y-88172496D01*
X111020635Y-87952692D01*
X111022490Y-87931499D01*
X111035264Y-87785485D01*
X111035264Y-87785478D01*
X111035500Y-87782784D01*
X118834500Y-87782784D01*
X118834736Y-87785478D01*
X118834736Y-87785485D01*
X118847511Y-87931499D01*
X118849365Y-87952692D01*
X118908261Y-88172496D01*
X118910548Y-88177400D01*
X118910550Y-88177406D01*
X118945438Y-88252222D01*
X119004432Y-88378734D01*
X119007539Y-88383171D01*
X119007540Y-88383173D01*
X119131847Y-88560704D01*
X119131851Y-88560708D01*
X119134953Y-88565139D01*
X119295861Y-88726047D01*
X119300292Y-88729149D01*
X119300296Y-88729153D01*
X119477827Y-88853460D01*
X119482266Y-88856568D01*
X119487177Y-88858858D01*
X119683594Y-88950450D01*
X119683600Y-88950452D01*
X119688504Y-88952739D01*
X119908308Y-89011635D01*
X119913693Y-89012106D01*
X119913698Y-89012107D01*
X120075515Y-89026264D01*
X120075522Y-89026264D01*
X120078216Y-89026500D01*
X120187692Y-89026500D01*
X120254731Y-89046185D01*
X120275373Y-89062819D01*
X120872393Y-89659840D01*
X120886113Y-89667332D01*
X120887918Y-89667203D01*
X120894427Y-89663020D01*
X121494627Y-89062819D01*
X121555950Y-89029334D01*
X121582308Y-89026500D01*
X121791784Y-89026500D01*
X121794478Y-89026264D01*
X121794485Y-89026264D01*
X121956302Y-89012107D01*
X121956307Y-89012106D01*
X121961692Y-89011635D01*
X122181496Y-88952739D01*
X122186400Y-88950452D01*
X122186406Y-88950450D01*
X122382823Y-88858858D01*
X122387734Y-88856568D01*
X122392173Y-88853460D01*
X122569704Y-88729153D01*
X122569708Y-88729149D01*
X122574139Y-88726047D01*
X122735047Y-88565139D01*
X122738149Y-88560708D01*
X122738153Y-88560704D01*
X122862460Y-88383173D01*
X122862461Y-88383171D01*
X122865568Y-88378734D01*
X122924562Y-88252222D01*
X122959450Y-88177406D01*
X122959452Y-88177400D01*
X122961739Y-88172496D01*
X123020635Y-87952692D01*
X123022490Y-87931499D01*
X123035264Y-87785485D01*
X123035264Y-87785478D01*
X123035500Y-87782784D01*
X123035500Y-85469216D01*
X123035264Y-85466515D01*
X123021107Y-85304698D01*
X123021106Y-85304693D01*
X123020635Y-85299308D01*
X122961739Y-85079504D01*
X122959452Y-85074600D01*
X122959450Y-85074594D01*
X122867858Y-84878177D01*
X122865568Y-84873266D01*
X122862460Y-84868827D01*
X122738153Y-84691296D01*
X122738149Y-84691292D01*
X122735047Y-84686861D01*
X122574139Y-84525953D01*
X122569708Y-84522851D01*
X122569704Y-84522847D01*
X122392173Y-84398540D01*
X122392171Y-84398539D01*
X122387734Y-84395432D01*
X122332271Y-84369569D01*
X122186406Y-84301550D01*
X122186400Y-84301548D01*
X122181496Y-84299261D01*
X121961692Y-84240365D01*
X121956307Y-84239894D01*
X121956302Y-84239893D01*
X121794485Y-84225736D01*
X121794478Y-84225736D01*
X121791784Y-84225500D01*
X120078216Y-84225500D01*
X120075522Y-84225736D01*
X120075515Y-84225736D01*
X119913698Y-84239893D01*
X119913693Y-84239894D01*
X119908308Y-84240365D01*
X119688504Y-84299261D01*
X119683600Y-84301548D01*
X119683594Y-84301550D01*
X119537729Y-84369569D01*
X119482266Y-84395432D01*
X119477829Y-84398539D01*
X119477827Y-84398540D01*
X119300296Y-84522847D01*
X119300292Y-84522851D01*
X119295861Y-84525953D01*
X119134953Y-84686861D01*
X119131851Y-84691292D01*
X119131847Y-84691296D01*
X119007540Y-84868827D01*
X119004432Y-84873266D01*
X119002142Y-84878177D01*
X118910550Y-85074594D01*
X118910548Y-85074600D01*
X118908261Y-85079504D01*
X118849365Y-85299308D01*
X118848894Y-85304693D01*
X118848893Y-85304698D01*
X118834736Y-85466515D01*
X118834500Y-85469216D01*
X118834500Y-87782784D01*
X111035500Y-87782784D01*
X111035500Y-85469216D01*
X111035264Y-85466515D01*
X111021107Y-85304698D01*
X111021106Y-85304693D01*
X111020635Y-85299308D01*
X110961739Y-85079504D01*
X110959452Y-85074600D01*
X110959450Y-85074594D01*
X110867858Y-84878177D01*
X110865568Y-84873266D01*
X110862460Y-84868827D01*
X110738153Y-84691296D01*
X110738149Y-84691292D01*
X110735047Y-84686861D01*
X110574139Y-84525953D01*
X110569708Y-84522851D01*
X110569704Y-84522847D01*
X110392173Y-84398540D01*
X110392171Y-84398539D01*
X110387734Y-84395432D01*
X110332271Y-84369569D01*
X110186406Y-84301550D01*
X110186400Y-84301548D01*
X110181496Y-84299261D01*
X109961692Y-84240365D01*
X109956307Y-84239894D01*
X109956302Y-84239893D01*
X109794485Y-84225736D01*
X109794478Y-84225736D01*
X109791784Y-84225500D01*
X108078216Y-84225500D01*
X108075522Y-84225736D01*
X108075515Y-84225736D01*
X107913698Y-84239893D01*
X107913693Y-84239894D01*
X107908308Y-84240365D01*
X107688504Y-84299261D01*
X107683600Y-84301548D01*
X107683594Y-84301550D01*
X107537729Y-84369569D01*
X107482266Y-84395432D01*
X107477829Y-84398539D01*
X107477827Y-84398540D01*
X107300296Y-84522847D01*
X107300292Y-84522851D01*
X107295861Y-84525953D01*
X107134953Y-84686861D01*
X107131851Y-84691292D01*
X107131847Y-84691296D01*
X107007540Y-84868827D01*
X107004432Y-84873266D01*
X107002142Y-84878177D01*
X106910550Y-85074594D01*
X106910548Y-85074600D01*
X106908261Y-85079504D01*
X106849365Y-85299308D01*
X106848894Y-85304693D01*
X106848893Y-85304698D01*
X106834736Y-85466515D01*
X106834500Y-85469216D01*
X106834500Y-87782784D01*
X101229212Y-87782784D01*
X101325044Y-87725657D01*
X101330066Y-87720875D01*
X101450080Y-87606587D01*
X101450082Y-87606585D01*
X101455099Y-87601807D01*
X101554483Y-87452222D01*
X101618257Y-87284336D01*
X101643251Y-87106493D01*
X101643428Y-87093847D01*
X101643511Y-87087899D01*
X101643511Y-87087892D01*
X101643565Y-87084000D01*
X101623546Y-86905528D01*
X101564485Y-86735927D01*
X101469316Y-86583625D01*
X101342770Y-86456193D01*
X101240851Y-86391513D01*
X101194796Y-86338971D01*
X101184067Y-86300639D01*
X101177189Y-86239325D01*
X101176416Y-86232433D01*
X101117355Y-86062832D01*
X101022186Y-85910530D01*
X100945861Y-85833671D01*
X100900523Y-85788015D01*
X100900522Y-85788014D01*
X100895640Y-85783098D01*
X100744006Y-85686868D01*
X100732773Y-85682868D01*
X100664607Y-85658595D01*
X100608055Y-85617562D01*
X100589100Y-85582559D01*
X100548485Y-85465927D01*
X100453316Y-85313625D01*
X100326770Y-85186193D01*
X100175136Y-85089963D01*
X100145764Y-85079504D01*
X100012479Y-85032043D01*
X100012475Y-85032042D01*
X100005951Y-85029719D01*
X99827624Y-85008455D01*
X99820735Y-85009179D01*
X99820732Y-85009179D01*
X99655913Y-85026502D01*
X99655911Y-85026502D01*
X99649017Y-85027227D01*
X99642456Y-85029461D01*
X99642454Y-85029461D01*
X99555718Y-85058989D01*
X99479007Y-85085103D01*
X99473105Y-85088734D01*
X99331951Y-85175572D01*
X99331950Y-85175573D01*
X99326045Y-85179206D01*
X99321093Y-85184056D01*
X99317049Y-85187215D01*
X99252102Y-85212975D01*
X99240709Y-85213500D01*
X97863168Y-85213500D01*
X97796129Y-85193815D01*
X97789845Y-85189289D01*
X97786770Y-85186193D01*
X97780923Y-85182482D01*
X97780920Y-85182480D01*
X97640990Y-85093678D01*
X97635136Y-85089963D01*
X97605764Y-85079504D01*
X97472479Y-85032043D01*
X97472475Y-85032042D01*
X97465951Y-85029719D01*
X97287624Y-85008455D01*
X97280735Y-85009179D01*
X97280732Y-85009179D01*
X97115913Y-85026502D01*
X97115911Y-85026502D01*
X97109017Y-85027227D01*
X97102456Y-85029461D01*
X97102454Y-85029461D01*
X97015718Y-85058989D01*
X96939007Y-85085103D01*
X96933105Y-85088734D01*
X96809509Y-85164771D01*
X96786045Y-85179206D01*
X96657732Y-85304859D01*
X96653979Y-85310683D01*
X96569842Y-85441238D01*
X96560446Y-85455817D01*
X96558076Y-85462329D01*
X96511974Y-85588991D01*
X96470547Y-85645255D01*
X96435414Y-85663964D01*
X96379885Y-85682868D01*
X96373320Y-85685103D01*
X96220358Y-85779206D01*
X96092045Y-85904859D01*
X95994759Y-86055817D01*
X95992389Y-86062329D01*
X95950668Y-86176957D01*
X95933335Y-86224578D01*
X95932466Y-86231459D01*
X95923773Y-86300269D01*
X95895842Y-86364313D01*
X95865726Y-86390342D01*
X95796017Y-86433228D01*
X95770045Y-86449206D01*
X95641732Y-86574859D01*
X95544446Y-86725817D01*
X95483022Y-86894578D01*
X95460514Y-87072753D01*
X93056500Y-87072753D01*
X93056500Y-85645487D01*
X93057561Y-85629302D01*
X93058876Y-85619313D01*
X93061682Y-85598000D01*
X93041044Y-85441238D01*
X92984786Y-85305418D01*
X92983646Y-85302667D01*
X92980536Y-85295159D01*
X92908450Y-85201214D01*
X92908449Y-85201213D01*
X92884282Y-85169718D01*
X92859234Y-85150498D01*
X92847039Y-85139803D01*
X92406202Y-84698966D01*
X92395508Y-84686773D01*
X92381227Y-84668162D01*
X92381226Y-84668161D01*
X92376282Y-84661718D01*
X92250841Y-84565464D01*
X92243333Y-84562354D01*
X92112271Y-84508066D01*
X92112269Y-84508065D01*
X92104762Y-84504956D01*
X91987361Y-84489500D01*
X91948000Y-84484318D01*
X91939941Y-84485379D01*
X91916698Y-84488439D01*
X91900513Y-84489500D01*
X88098957Y-84489500D01*
X88082772Y-84488439D01*
X88059529Y-84485379D01*
X88051470Y-84484318D01*
X88012109Y-84489500D01*
X87894708Y-84504956D01*
X87887201Y-84508065D01*
X87887199Y-84508066D01*
X87756137Y-84562354D01*
X87748629Y-84565464D01*
X87623188Y-84661718D01*
X87618241Y-84668165D01*
X87603965Y-84686770D01*
X87593270Y-84698965D01*
X87314303Y-84977932D01*
X87252980Y-85011417D01*
X87239588Y-85013571D01*
X87207118Y-85016984D01*
X87166647Y-85021237D01*
X87166644Y-85021238D01*
X87159752Y-85021962D01*
X87153191Y-85024196D01*
X87153189Y-85024196D01*
X87130139Y-85032043D01*
X86989742Y-85079838D01*
X86983840Y-85083469D01*
X86851686Y-85164771D01*
X86836780Y-85173941D01*
X86708467Y-85299594D01*
X86654607Y-85383169D01*
X86622023Y-85433729D01*
X86611181Y-85450552D01*
X86586367Y-85518729D01*
X86560448Y-85589941D01*
X86549757Y-85619313D01*
X86541728Y-85682868D01*
X86528446Y-85788015D01*
X86527249Y-85797488D01*
X76700000Y-85797488D01*
X76700000Y-80264000D01*
X78146341Y-80264000D01*
X78146813Y-80269395D01*
X78161872Y-80441511D01*
X78166937Y-80499408D01*
X78168336Y-80504631D01*
X78168337Y-80504634D01*
X78174520Y-80527709D01*
X78228097Y-80727663D01*
X78230384Y-80732567D01*
X78230386Y-80732573D01*
X78301350Y-80884753D01*
X78327965Y-80941829D01*
X78331072Y-80946266D01*
X78331073Y-80946268D01*
X78460399Y-81130966D01*
X78460403Y-81130970D01*
X78463505Y-81135401D01*
X78585311Y-81257207D01*
X78618796Y-81318530D01*
X78613812Y-81388222D01*
X78571940Y-81444155D01*
X78541158Y-81460997D01*
X78519978Y-81468937D01*
X78417447Y-81507373D01*
X78417445Y-81507374D01*
X78409176Y-81510474D01*
X78402111Y-81515769D01*
X78402109Y-81515770D01*
X78315077Y-81580998D01*
X78294454Y-81596454D01*
X78289159Y-81603519D01*
X78277665Y-81618856D01*
X78208474Y-81711176D01*
X78158149Y-81845420D01*
X78151500Y-81906623D01*
X78151501Y-83701376D01*
X78158149Y-83762580D01*
X78183368Y-83829853D01*
X78198938Y-83871385D01*
X78208474Y-83896824D01*
X78294454Y-84011546D01*
X78301519Y-84016841D01*
X78402109Y-84092230D01*
X78402111Y-84092231D01*
X78409176Y-84097526D01*
X78543420Y-84147851D01*
X78604623Y-84154500D01*
X79501866Y-84154500D01*
X80399376Y-84154499D01*
X80460580Y-84147851D01*
X80594824Y-84097526D01*
X80601889Y-84092231D01*
X80601891Y-84092230D01*
X80702481Y-84016841D01*
X80709546Y-84011546D01*
X80795526Y-83896824D01*
X80801963Y-83879655D01*
X80831359Y-83801237D01*
X80845003Y-83764843D01*
X80886966Y-83708980D01*
X80952471Y-83684671D01*
X81020719Y-83699637D01*
X81048793Y-83720689D01*
X81170599Y-83842495D01*
X81364170Y-83978035D01*
X81578337Y-84077903D01*
X81631807Y-84092230D01*
X81801366Y-84137663D01*
X81801369Y-84137664D01*
X81806592Y-84139063D01*
X81811979Y-84139534D01*
X81811983Y-84139535D01*
X82036605Y-84159187D01*
X82042000Y-84159659D01*
X82047395Y-84159187D01*
X82272017Y-84139535D01*
X82272021Y-84139534D01*
X82277408Y-84139063D01*
X82282631Y-84137664D01*
X82282634Y-84137663D01*
X82452193Y-84092230D01*
X82505663Y-84077903D01*
X82719830Y-83978035D01*
X82913401Y-83842495D01*
X83080495Y-83675401D01*
X83083597Y-83670970D01*
X83083601Y-83670966D01*
X83210425Y-83489841D01*
X83265002Y-83446216D01*
X83334500Y-83439022D01*
X83396855Y-83470545D01*
X83413575Y-83489841D01*
X83540399Y-83670966D01*
X83540403Y-83670970D01*
X83543505Y-83675401D01*
X83710599Y-83842495D01*
X83904170Y-83978035D01*
X84118337Y-84077903D01*
X84171807Y-84092230D01*
X84341366Y-84137663D01*
X84341369Y-84137664D01*
X84346592Y-84139063D01*
X84351979Y-84139534D01*
X84351983Y-84139535D01*
X84576605Y-84159187D01*
X84582000Y-84159659D01*
X84587395Y-84159187D01*
X84812017Y-84139535D01*
X84812021Y-84139534D01*
X84817408Y-84139063D01*
X84822631Y-84137664D01*
X84822634Y-84137663D01*
X84992193Y-84092230D01*
X85045663Y-84077903D01*
X85259830Y-83978035D01*
X85453401Y-83842495D01*
X85620495Y-83675401D01*
X85623597Y-83670970D01*
X85623601Y-83670966D01*
X85750425Y-83489841D01*
X85805002Y-83446216D01*
X85874500Y-83439022D01*
X85936855Y-83470545D01*
X85953575Y-83489841D01*
X86080399Y-83670966D01*
X86080403Y-83670970D01*
X86083505Y-83675401D01*
X86250599Y-83842495D01*
X86444170Y-83978035D01*
X86658337Y-84077903D01*
X86711807Y-84092230D01*
X86881366Y-84137663D01*
X86881369Y-84137664D01*
X86886592Y-84139063D01*
X86891979Y-84139534D01*
X86891983Y-84139535D01*
X87116605Y-84159187D01*
X87122000Y-84159659D01*
X87127395Y-84159187D01*
X87352017Y-84139535D01*
X87352021Y-84139534D01*
X87357408Y-84139063D01*
X87362631Y-84137664D01*
X87362634Y-84137663D01*
X87532193Y-84092230D01*
X87585663Y-84077903D01*
X87799830Y-83978035D01*
X87993401Y-83842495D01*
X88160495Y-83675401D01*
X88163597Y-83670970D01*
X88163601Y-83670966D01*
X88290425Y-83489841D01*
X88345002Y-83446216D01*
X88414500Y-83439022D01*
X88476855Y-83470545D01*
X88493575Y-83489841D01*
X88620399Y-83670966D01*
X88620403Y-83670970D01*
X88623505Y-83675401D01*
X88790599Y-83842495D01*
X88984170Y-83978035D01*
X89198337Y-84077903D01*
X89251807Y-84092230D01*
X89421366Y-84137663D01*
X89421369Y-84137664D01*
X89426592Y-84139063D01*
X89431979Y-84139534D01*
X89431983Y-84139535D01*
X89656605Y-84159187D01*
X89662000Y-84159659D01*
X89667395Y-84159187D01*
X89892017Y-84139535D01*
X89892021Y-84139534D01*
X89897408Y-84139063D01*
X89902631Y-84137664D01*
X89902634Y-84137663D01*
X90072193Y-84092230D01*
X90125663Y-84077903D01*
X90339830Y-83978035D01*
X90533401Y-83842495D01*
X90700495Y-83675401D01*
X90703597Y-83670970D01*
X90703601Y-83670966D01*
X90832927Y-83486268D01*
X90832928Y-83486266D01*
X90836035Y-83481829D01*
X90898688Y-83347470D01*
X90933614Y-83272573D01*
X90933616Y-83272567D01*
X90935903Y-83267663D01*
X90945819Y-83230655D01*
X90982184Y-83170995D01*
X91045030Y-83140465D01*
X91114406Y-83148759D01*
X91168284Y-83193244D01*
X91178204Y-83210835D01*
X91242908Y-83351189D01*
X91248574Y-83361002D01*
X91358689Y-83516812D01*
X91366039Y-83525417D01*
X91502709Y-83658555D01*
X91511512Y-83665683D01*
X91670147Y-83771680D01*
X91680105Y-83777087D01*
X91855396Y-83852397D01*
X91866178Y-83855901D01*
X91934609Y-83871385D01*
X91948462Y-83870510D01*
X91951907Y-83861504D01*
X92452000Y-83861504D01*
X92455903Y-83874798D01*
X92465736Y-83876206D01*
X92645937Y-83815036D01*
X92656293Y-83810425D01*
X92822753Y-83717202D01*
X92832090Y-83710785D01*
X92978777Y-83588787D01*
X92986787Y-83580777D01*
X93108785Y-83434090D01*
X93115202Y-83424753D01*
X93208425Y-83258293D01*
X93213036Y-83247937D01*
X93221230Y-83223797D01*
X93261418Y-83166642D01*
X93326127Y-83140289D01*
X93394812Y-83153103D01*
X93445665Y-83201017D01*
X93458424Y-83231561D01*
X93468097Y-83267663D01*
X93470384Y-83272567D01*
X93470386Y-83272573D01*
X93505312Y-83347470D01*
X93567965Y-83481829D01*
X93571072Y-83486266D01*
X93571073Y-83486268D01*
X93700399Y-83670966D01*
X93700403Y-83670970D01*
X93703505Y-83675401D01*
X93870599Y-83842495D01*
X94064170Y-83978035D01*
X94278337Y-84077903D01*
X94331807Y-84092230D01*
X94501366Y-84137663D01*
X94501369Y-84137664D01*
X94506592Y-84139063D01*
X94511979Y-84139534D01*
X94511983Y-84139535D01*
X94736605Y-84159187D01*
X94742000Y-84159659D01*
X94747395Y-84159187D01*
X94972017Y-84139535D01*
X94972021Y-84139534D01*
X94977408Y-84139063D01*
X94982631Y-84137664D01*
X94982634Y-84137663D01*
X95152193Y-84092230D01*
X95205663Y-84077903D01*
X95419830Y-83978035D01*
X95613401Y-83842495D01*
X95780495Y-83675401D01*
X95783597Y-83670970D01*
X95783601Y-83670966D01*
X95910425Y-83489841D01*
X95965002Y-83446216D01*
X96034500Y-83439022D01*
X96096855Y-83470545D01*
X96113575Y-83489841D01*
X96240399Y-83670966D01*
X96240403Y-83670970D01*
X96243505Y-83675401D01*
X96410599Y-83842495D01*
X96604170Y-83978035D01*
X96818337Y-84077903D01*
X96871807Y-84092230D01*
X97041366Y-84137663D01*
X97041369Y-84137664D01*
X97046592Y-84139063D01*
X97051979Y-84139534D01*
X97051983Y-84139535D01*
X97276605Y-84159187D01*
X97282000Y-84159659D01*
X97287395Y-84159187D01*
X97512017Y-84139535D01*
X97512021Y-84139534D01*
X97517408Y-84139063D01*
X97522631Y-84137664D01*
X97522634Y-84137663D01*
X97692193Y-84092230D01*
X97745663Y-84077903D01*
X97959830Y-83978035D01*
X98153401Y-83842495D01*
X98320495Y-83675401D01*
X98323597Y-83670970D01*
X98323601Y-83670966D01*
X98450425Y-83489841D01*
X98505002Y-83446216D01*
X98574500Y-83439022D01*
X98636855Y-83470545D01*
X98653575Y-83489841D01*
X98780399Y-83670966D01*
X98780403Y-83670970D01*
X98783505Y-83675401D01*
X98950599Y-83842495D01*
X99144170Y-83978035D01*
X99358337Y-84077903D01*
X99411807Y-84092230D01*
X99581366Y-84137663D01*
X99581369Y-84137664D01*
X99586592Y-84139063D01*
X99591979Y-84139534D01*
X99591983Y-84139535D01*
X99816605Y-84159187D01*
X99822000Y-84159659D01*
X99827395Y-84159187D01*
X100052017Y-84139535D01*
X100052021Y-84139534D01*
X100057408Y-84139063D01*
X100062631Y-84137664D01*
X100062634Y-84137663D01*
X100232193Y-84092230D01*
X100285663Y-84077903D01*
X100499830Y-83978035D01*
X100693401Y-83842495D01*
X100860495Y-83675401D01*
X100863597Y-83670970D01*
X100863601Y-83670966D01*
X100992927Y-83486268D01*
X100992928Y-83486266D01*
X100996035Y-83481829D01*
X101058688Y-83347470D01*
X101093614Y-83272573D01*
X101093616Y-83272567D01*
X101095903Y-83267663D01*
X101126599Y-83153103D01*
X101155663Y-83044634D01*
X101155664Y-83044631D01*
X101157063Y-83039408D01*
X101161423Y-82989581D01*
X101177187Y-82809395D01*
X101177659Y-82804000D01*
X101170129Y-82717929D01*
X101157535Y-82573983D01*
X101157534Y-82573979D01*
X101157063Y-82568592D01*
X101109656Y-82391665D01*
X107980119Y-82391665D01*
X107980412Y-82396747D01*
X107980412Y-82396748D01*
X107993083Y-82616499D01*
X107993376Y-82621580D01*
X108044006Y-82846242D01*
X108045919Y-82850953D01*
X108120254Y-83034017D01*
X108130649Y-83059618D01*
X108133311Y-83063962D01*
X108248317Y-83251635D01*
X108248321Y-83251640D01*
X108250979Y-83255978D01*
X108254311Y-83259824D01*
X108254312Y-83259826D01*
X108341954Y-83361002D01*
X108401763Y-83430048D01*
X108405673Y-83433294D01*
X108405677Y-83433298D01*
X108511840Y-83521436D01*
X108578953Y-83577154D01*
X108678516Y-83635334D01*
X108747083Y-83675401D01*
X108777790Y-83693345D01*
X108782543Y-83695160D01*
X108782545Y-83695161D01*
X108840265Y-83717202D01*
X108992934Y-83775501D01*
X108997920Y-83776515D01*
X108997922Y-83776516D01*
X109024180Y-83781858D01*
X109218607Y-83821414D01*
X109368235Y-83826901D01*
X109443670Y-83829667D01*
X109443673Y-83829667D01*
X109448749Y-83829853D01*
X109677178Y-83800591D01*
X109682048Y-83799130D01*
X109892892Y-83735874D01*
X109892895Y-83735873D01*
X109897761Y-83734413D01*
X109902324Y-83732177D01*
X109902328Y-83732176D01*
X110052606Y-83658555D01*
X110104574Y-83633096D01*
X110251715Y-83528142D01*
X110287928Y-83502312D01*
X110287930Y-83502310D01*
X110292062Y-83499363D01*
X110455190Y-83336803D01*
X110589577Y-83149783D01*
X110646792Y-83034017D01*
X110689358Y-82947892D01*
X110689359Y-82947890D01*
X110691615Y-82943325D01*
X110758563Y-82722975D01*
X110788622Y-82494649D01*
X110790300Y-82426000D01*
X110787868Y-82396411D01*
X110787478Y-82391665D01*
X119080119Y-82391665D01*
X119080412Y-82396747D01*
X119080412Y-82396748D01*
X119093083Y-82616499D01*
X119093376Y-82621580D01*
X119144006Y-82846242D01*
X119145919Y-82850953D01*
X119220254Y-83034017D01*
X119230649Y-83059618D01*
X119233311Y-83063962D01*
X119348317Y-83251635D01*
X119348321Y-83251640D01*
X119350979Y-83255978D01*
X119354311Y-83259824D01*
X119354312Y-83259826D01*
X119441954Y-83361002D01*
X119501763Y-83430048D01*
X119505673Y-83433294D01*
X119505677Y-83433298D01*
X119611840Y-83521436D01*
X119678953Y-83577154D01*
X119778516Y-83635334D01*
X119847083Y-83675401D01*
X119877790Y-83693345D01*
X119882543Y-83695160D01*
X119882545Y-83695161D01*
X119940265Y-83717202D01*
X120092934Y-83775501D01*
X120097920Y-83776515D01*
X120097922Y-83776516D01*
X120124180Y-83781858D01*
X120318607Y-83821414D01*
X120468235Y-83826901D01*
X120543670Y-83829667D01*
X120543673Y-83829667D01*
X120548749Y-83829853D01*
X120777178Y-83800591D01*
X120782048Y-83799130D01*
X120992892Y-83735874D01*
X120992895Y-83735873D01*
X120997761Y-83734413D01*
X121002324Y-83732177D01*
X121002328Y-83732176D01*
X121152606Y-83658555D01*
X121204574Y-83633096D01*
X121239243Y-83608367D01*
X122609906Y-83608367D01*
X122619349Y-83788564D01*
X122621132Y-83795037D01*
X122646892Y-83888555D01*
X122667268Y-83962530D01*
X122670399Y-83968469D01*
X122670400Y-83968471D01*
X122708618Y-84040958D01*
X122751424Y-84122148D01*
X122770840Y-84145124D01*
X122852509Y-84241765D01*
X122867894Y-84259971D01*
X123011242Y-84369569D01*
X123174780Y-84445828D01*
X123181331Y-84447292D01*
X123181333Y-84447293D01*
X123251172Y-84462904D01*
X123350879Y-84485191D01*
X123356406Y-84485500D01*
X123489077Y-84485500D01*
X123623389Y-84470909D01*
X123794409Y-84413355D01*
X123949080Y-84320419D01*
X124080187Y-84196437D01*
X124181612Y-84047195D01*
X124248623Y-83879655D01*
X124252556Y-83855901D01*
X124276997Y-83708262D01*
X124276997Y-83708258D01*
X124278094Y-83701633D01*
X124268651Y-83521436D01*
X124241841Y-83424104D01*
X124222515Y-83353942D01*
X124222514Y-83353940D01*
X124220732Y-83347470D01*
X124217005Y-83340400D01*
X124172494Y-83255978D01*
X124136576Y-83187852D01*
X124069899Y-83108951D01*
X124024439Y-83055156D01*
X124024437Y-83055154D01*
X124020106Y-83050029D01*
X123876758Y-82940431D01*
X123713220Y-82864172D01*
X123706669Y-82862708D01*
X123706667Y-82862707D01*
X123633006Y-82846242D01*
X123537121Y-82824809D01*
X123531594Y-82824500D01*
X123398923Y-82824500D01*
X123264611Y-82839091D01*
X123093591Y-82896645D01*
X122938920Y-82989581D01*
X122807813Y-83113563D01*
X122706388Y-83262805D01*
X122639377Y-83430345D01*
X122638280Y-83436971D01*
X122638279Y-83436975D01*
X122614473Y-83580777D01*
X122609906Y-83608367D01*
X121239243Y-83608367D01*
X121351715Y-83528142D01*
X121387928Y-83502312D01*
X121387930Y-83502310D01*
X121392062Y-83499363D01*
X121555190Y-83336803D01*
X121689577Y-83149783D01*
X121746792Y-83034017D01*
X121789358Y-82947892D01*
X121789359Y-82947890D01*
X121791615Y-82943325D01*
X121858563Y-82722975D01*
X121888622Y-82494649D01*
X121890300Y-82426000D01*
X121887868Y-82396411D01*
X121873547Y-82222228D01*
X121871430Y-82196478D01*
X121815326Y-81973120D01*
X121723496Y-81761924D01*
X121720736Y-81757658D01*
X121720733Y-81757652D01*
X121601167Y-81572832D01*
X121601165Y-81572830D01*
X121598405Y-81568563D01*
X121443412Y-81398229D01*
X121439427Y-81395082D01*
X121439424Y-81395079D01*
X121266672Y-81258648D01*
X121266673Y-81258648D01*
X121262681Y-81255496D01*
X121258235Y-81253042D01*
X121258231Y-81253039D01*
X121065520Y-81146657D01*
X121065517Y-81146656D01*
X121061065Y-81144198D01*
X120843978Y-81067323D01*
X120789575Y-81057632D01*
X120622260Y-81027829D01*
X120622255Y-81027829D01*
X120617250Y-81026937D01*
X120526875Y-81025833D01*
X120392061Y-81024185D01*
X120392059Y-81024185D01*
X120386971Y-81024123D01*
X120381942Y-81024893D01*
X120381936Y-81024893D01*
X120278137Y-81040777D01*
X120159325Y-81058958D01*
X119940424Y-81130506D01*
X119917388Y-81142498D01*
X119740664Y-81234494D01*
X119740658Y-81234498D01*
X119736149Y-81236845D01*
X119551984Y-81375119D01*
X119548469Y-81378798D01*
X119548466Y-81378800D01*
X119462330Y-81468937D01*
X119392877Y-81541616D01*
X119390013Y-81545815D01*
X119390011Y-81545817D01*
X119340187Y-81618856D01*
X119263099Y-81731863D01*
X119260957Y-81736477D01*
X119260955Y-81736481D01*
X119170462Y-81931432D01*
X119166136Y-81940752D01*
X119164774Y-81945662D01*
X119164774Y-81945663D01*
X119111586Y-82137455D01*
X119104592Y-82162673D01*
X119104052Y-82167728D01*
X119104051Y-82167732D01*
X119100437Y-82201553D01*
X119080119Y-82391665D01*
X110787478Y-82391665D01*
X110773547Y-82222228D01*
X110771430Y-82196478D01*
X110715326Y-81973120D01*
X110623496Y-81761924D01*
X110620736Y-81757658D01*
X110620733Y-81757652D01*
X110501167Y-81572832D01*
X110501165Y-81572830D01*
X110498405Y-81568563D01*
X110343412Y-81398229D01*
X110339427Y-81395082D01*
X110339424Y-81395079D01*
X110166672Y-81258648D01*
X110166673Y-81258648D01*
X110162681Y-81255496D01*
X110158235Y-81253042D01*
X110158231Y-81253039D01*
X109965520Y-81146657D01*
X109965517Y-81146656D01*
X109961065Y-81144198D01*
X109743978Y-81067323D01*
X109689575Y-81057632D01*
X109522260Y-81027829D01*
X109522255Y-81027829D01*
X109517250Y-81026937D01*
X109426875Y-81025833D01*
X109292061Y-81024185D01*
X109292059Y-81024185D01*
X109286971Y-81024123D01*
X109281942Y-81024893D01*
X109281936Y-81024893D01*
X109178137Y-81040777D01*
X109059325Y-81058958D01*
X108840424Y-81130506D01*
X108817388Y-81142498D01*
X108640664Y-81234494D01*
X108640658Y-81234498D01*
X108636149Y-81236845D01*
X108451984Y-81375119D01*
X108448469Y-81378798D01*
X108448466Y-81378800D01*
X108362330Y-81468937D01*
X108292877Y-81541616D01*
X108290013Y-81545815D01*
X108290011Y-81545817D01*
X108240187Y-81618856D01*
X108163099Y-81731863D01*
X108160957Y-81736477D01*
X108160955Y-81736481D01*
X108070462Y-81931432D01*
X108066136Y-81940752D01*
X108064774Y-81945662D01*
X108064774Y-81945663D01*
X108011586Y-82137455D01*
X108004592Y-82162673D01*
X108004052Y-82167728D01*
X108004051Y-82167732D01*
X108000437Y-82201553D01*
X107980119Y-82391665D01*
X101109656Y-82391665D01*
X101095903Y-82340337D01*
X101093616Y-82335433D01*
X101093614Y-82335427D01*
X100998325Y-82131082D01*
X100996035Y-82126171D01*
X100956257Y-82069362D01*
X100863601Y-81937034D01*
X100863597Y-81937030D01*
X100860495Y-81932599D01*
X100693401Y-81765505D01*
X100507842Y-81635575D01*
X100464218Y-81580998D01*
X100457025Y-81511499D01*
X100488547Y-81449145D01*
X100507842Y-81432425D01*
X100589683Y-81375119D01*
X100693401Y-81302495D01*
X100860495Y-81135401D01*
X100863597Y-81130970D01*
X100863601Y-81130966D01*
X100992927Y-80946268D01*
X100992928Y-80946266D01*
X100996035Y-80941829D01*
X101022650Y-80884753D01*
X101093614Y-80732573D01*
X101093616Y-80732567D01*
X101095903Y-80727663D01*
X101104565Y-80695335D01*
X114324288Y-80695335D01*
X114334013Y-80707626D01*
X114379186Y-80737809D01*
X114389144Y-80743216D01*
X114572885Y-80822157D01*
X114583649Y-80825655D01*
X114778708Y-80869792D01*
X114789936Y-80871269D01*
X114989764Y-80879121D01*
X115001067Y-80878529D01*
X115198986Y-80849832D01*
X115209999Y-80847187D01*
X115399361Y-80782908D01*
X115409713Y-80778299D01*
X115537767Y-80706586D01*
X115547474Y-80696668D01*
X115544566Y-80689120D01*
X114947607Y-80092160D01*
X114933887Y-80084668D01*
X114932082Y-80084797D01*
X114925573Y-80088980D01*
X114330384Y-80684170D01*
X114324288Y-80695335D01*
X101104565Y-80695335D01*
X101149480Y-80527709D01*
X101155663Y-80504634D01*
X101155664Y-80504631D01*
X101157063Y-80499408D01*
X101162129Y-80441511D01*
X101177187Y-80269395D01*
X101177659Y-80264000D01*
X101164012Y-80108018D01*
X101157535Y-80033983D01*
X101157534Y-80033979D01*
X101157063Y-80028592D01*
X101152106Y-80010090D01*
X101097305Y-79805570D01*
X101095903Y-79800337D01*
X101093616Y-79795433D01*
X101093614Y-79795427D01*
X101049787Y-79701441D01*
X113780841Y-79701441D01*
X113793921Y-79901004D01*
X113795690Y-79912174D01*
X113844921Y-80106022D01*
X113848694Y-80116677D01*
X113932424Y-80298300D01*
X113938088Y-80308109D01*
X113953160Y-80329437D01*
X113963581Y-80337692D01*
X113976671Y-80330775D01*
X114568840Y-79738607D01*
X114575116Y-79727113D01*
X115293668Y-79727113D01*
X115293797Y-79728918D01*
X115297980Y-79735427D01*
X115894268Y-80331714D01*
X115906449Y-80338365D01*
X115912925Y-80333517D01*
X115987299Y-80200713D01*
X115991908Y-80190361D01*
X116056187Y-80000999D01*
X116058832Y-79989986D01*
X116087820Y-79790060D01*
X116088440Y-79782785D01*
X116089831Y-79729661D01*
X116089592Y-79722359D01*
X116071108Y-79521191D01*
X116069044Y-79510058D01*
X116030953Y-79375000D01*
X121419551Y-79375000D01*
X121439317Y-79626148D01*
X121440452Y-79630876D01*
X121440453Y-79630882D01*
X121479126Y-79791967D01*
X121498127Y-79871111D01*
X121499991Y-79875611D01*
X121586585Y-80084668D01*
X121594534Y-80103859D01*
X121726164Y-80318659D01*
X121889776Y-80510224D01*
X122081341Y-80673836D01*
X122296141Y-80805466D01*
X122300641Y-80807330D01*
X122300645Y-80807332D01*
X122500623Y-80890165D01*
X122528889Y-80901873D01*
X122533625Y-80903010D01*
X122769118Y-80959547D01*
X122769124Y-80959548D01*
X122773852Y-80960683D01*
X122778702Y-80961065D01*
X122778704Y-80961065D01*
X122828272Y-80964966D01*
X122962118Y-80975500D01*
X123087882Y-80975500D01*
X123221728Y-80964966D01*
X123271296Y-80961065D01*
X123271298Y-80961065D01*
X123276148Y-80960683D01*
X123280876Y-80959548D01*
X123280882Y-80959547D01*
X123516375Y-80903010D01*
X123521111Y-80901873D01*
X123549377Y-80890165D01*
X123749355Y-80807332D01*
X123749359Y-80807330D01*
X123753859Y-80805466D01*
X123968659Y-80673836D01*
X124160224Y-80510224D01*
X124323836Y-80318659D01*
X124455466Y-80103859D01*
X124463416Y-80084668D01*
X124550009Y-79875611D01*
X124551873Y-79871111D01*
X124570874Y-79791967D01*
X124609547Y-79630882D01*
X124609548Y-79630876D01*
X124610683Y-79626148D01*
X124630449Y-79375000D01*
X124610683Y-79123852D01*
X124609548Y-79119124D01*
X124609547Y-79119118D01*
X124553010Y-78883625D01*
X124551873Y-78878889D01*
X124540165Y-78850623D01*
X124457332Y-78650645D01*
X124457330Y-78650641D01*
X124455466Y-78646141D01*
X124323836Y-78431341D01*
X124160224Y-78239776D01*
X123968659Y-78076164D01*
X123753859Y-77944534D01*
X123749359Y-77942670D01*
X123749355Y-77942668D01*
X123525611Y-77849991D01*
X123525612Y-77849991D01*
X123521111Y-77848127D01*
X123514145Y-77846455D01*
X123280882Y-77790453D01*
X123280876Y-77790452D01*
X123276148Y-77789317D01*
X123271298Y-77788935D01*
X123271296Y-77788935D01*
X123221728Y-77785034D01*
X123087882Y-77774500D01*
X122962118Y-77774500D01*
X122828272Y-77785034D01*
X122778704Y-77788935D01*
X122778702Y-77788935D01*
X122773852Y-77789317D01*
X122769124Y-77790452D01*
X122769118Y-77790453D01*
X122535855Y-77846455D01*
X122528889Y-77848127D01*
X122524388Y-77849991D01*
X122524389Y-77849991D01*
X122300645Y-77942668D01*
X122300641Y-77942670D01*
X122296141Y-77944534D01*
X122081341Y-78076164D01*
X121889776Y-78239776D01*
X121726164Y-78431341D01*
X121594534Y-78646141D01*
X121592670Y-78650641D01*
X121592668Y-78650645D01*
X121509835Y-78850623D01*
X121498127Y-78878889D01*
X121496990Y-78883625D01*
X121440453Y-79119118D01*
X121440452Y-79119124D01*
X121439317Y-79123852D01*
X121419551Y-79375000D01*
X116030953Y-79375000D01*
X116014760Y-79317583D01*
X116010703Y-79307013D01*
X115922254Y-79127655D01*
X115917812Y-79120407D01*
X115907467Y-79112644D01*
X115895245Y-79119309D01*
X115301160Y-79713393D01*
X115293668Y-79727113D01*
X114575116Y-79727113D01*
X114576332Y-79724887D01*
X114576203Y-79723082D01*
X114572020Y-79716573D01*
X113974188Y-79118742D01*
X113962007Y-79112091D01*
X113956135Y-79116486D01*
X113870633Y-79279000D01*
X113866300Y-79289461D01*
X113806997Y-79480446D01*
X113804643Y-79491519D01*
X113781137Y-79690123D01*
X113780841Y-79701441D01*
X101049787Y-79701441D01*
X100998325Y-79591082D01*
X100996035Y-79586171D01*
X100950536Y-79521191D01*
X100863601Y-79397034D01*
X100863597Y-79397030D01*
X100860495Y-79392599D01*
X100693401Y-79225505D01*
X100499830Y-79089965D01*
X100285663Y-78990097D01*
X100201863Y-78967643D01*
X100062634Y-78930337D01*
X100062631Y-78930336D01*
X100057408Y-78928937D01*
X100052021Y-78928466D01*
X100052017Y-78928465D01*
X99827395Y-78908813D01*
X99822000Y-78908341D01*
X99816605Y-78908813D01*
X99591983Y-78928465D01*
X99591979Y-78928466D01*
X99586592Y-78928937D01*
X99581369Y-78930336D01*
X99581366Y-78930337D01*
X99442137Y-78967643D01*
X99358337Y-78990097D01*
X99353433Y-78992384D01*
X99353427Y-78992386D01*
X99166331Y-79079631D01*
X99144171Y-79089965D01*
X99139734Y-79093072D01*
X99139732Y-79093073D01*
X98955034Y-79222399D01*
X98955033Y-79222400D01*
X98950599Y-79225505D01*
X98783505Y-79392599D01*
X98780403Y-79397030D01*
X98780399Y-79397034D01*
X98653575Y-79578159D01*
X98598998Y-79621784D01*
X98529500Y-79628978D01*
X98467145Y-79597455D01*
X98450425Y-79578159D01*
X98323601Y-79397034D01*
X98323597Y-79397030D01*
X98320495Y-79392599D01*
X98153401Y-79225505D01*
X97959830Y-79089965D01*
X97745663Y-78990097D01*
X97661863Y-78967643D01*
X97522634Y-78930337D01*
X97522631Y-78930336D01*
X97517408Y-78928937D01*
X97512021Y-78928466D01*
X97512017Y-78928465D01*
X97287395Y-78908813D01*
X97282000Y-78908341D01*
X97276605Y-78908813D01*
X97051983Y-78928465D01*
X97051979Y-78928466D01*
X97046592Y-78928937D01*
X97041369Y-78930336D01*
X97041366Y-78930337D01*
X96902137Y-78967643D01*
X96818337Y-78990097D01*
X96813433Y-78992384D01*
X96813427Y-78992386D01*
X96626331Y-79079631D01*
X96604171Y-79089965D01*
X96599734Y-79093072D01*
X96599732Y-79093073D01*
X96415034Y-79222399D01*
X96415033Y-79222400D01*
X96410599Y-79225505D01*
X96243505Y-79392599D01*
X96240403Y-79397030D01*
X96240399Y-79397034D01*
X96113575Y-79578159D01*
X96058998Y-79621784D01*
X95989500Y-79628978D01*
X95927145Y-79597455D01*
X95910425Y-79578159D01*
X95783601Y-79397034D01*
X95783597Y-79397030D01*
X95780495Y-79392599D01*
X95613401Y-79225505D01*
X95419830Y-79089965D01*
X95205663Y-78990097D01*
X95121863Y-78967643D01*
X94982634Y-78930337D01*
X94982631Y-78930336D01*
X94977408Y-78928937D01*
X94972021Y-78928466D01*
X94972017Y-78928465D01*
X94747395Y-78908813D01*
X94742000Y-78908341D01*
X94736605Y-78908813D01*
X94511983Y-78928465D01*
X94511979Y-78928466D01*
X94506592Y-78928937D01*
X94501369Y-78930336D01*
X94501366Y-78930337D01*
X94362137Y-78967643D01*
X94278337Y-78990097D01*
X94273433Y-78992384D01*
X94273427Y-78992386D01*
X94086331Y-79079631D01*
X94064171Y-79089965D01*
X94059734Y-79093072D01*
X94059732Y-79093073D01*
X93875034Y-79222399D01*
X93875033Y-79222400D01*
X93870599Y-79225505D01*
X93703505Y-79392599D01*
X93700403Y-79397030D01*
X93700399Y-79397034D01*
X93613464Y-79521191D01*
X93567965Y-79586171D01*
X93565675Y-79591082D01*
X93470386Y-79795427D01*
X93470384Y-79795433D01*
X93468097Y-79800337D01*
X93466695Y-79805570D01*
X93458953Y-79834463D01*
X93422588Y-79894124D01*
X93359741Y-79924653D01*
X93290365Y-79916358D01*
X93236488Y-79871873D01*
X93227966Y-79857213D01*
X93146441Y-79691894D01*
X93140517Y-79682228D01*
X93026366Y-79529362D01*
X93018785Y-79520942D01*
X92878683Y-79391432D01*
X92869701Y-79384540D01*
X92708331Y-79282724D01*
X92698253Y-79277589D01*
X92521035Y-79206886D01*
X92510182Y-79203670D01*
X92469484Y-79195576D01*
X92456816Y-79196710D01*
X92452000Y-79211623D01*
X92452000Y-81321504D01*
X92455903Y-81334798D01*
X92465736Y-81336206D01*
X92645937Y-81275036D01*
X92656293Y-81270425D01*
X92822753Y-81177202D01*
X92832090Y-81170785D01*
X92978777Y-81048787D01*
X92986787Y-81040777D01*
X93108785Y-80894090D01*
X93115202Y-80884753D01*
X93208425Y-80718293D01*
X93213036Y-80707937D01*
X93221230Y-80683797D01*
X93261418Y-80626642D01*
X93326127Y-80600289D01*
X93394812Y-80613103D01*
X93445665Y-80661017D01*
X93458424Y-80691561D01*
X93468097Y-80727663D01*
X93470384Y-80732567D01*
X93470386Y-80732573D01*
X93541350Y-80884753D01*
X93567965Y-80941829D01*
X93571072Y-80946266D01*
X93571073Y-80946268D01*
X93700399Y-81130966D01*
X93700403Y-81130970D01*
X93703505Y-81135401D01*
X93870599Y-81302495D01*
X93941067Y-81351837D01*
X94056159Y-81432426D01*
X94099783Y-81487003D01*
X94106976Y-81556502D01*
X94075454Y-81618856D01*
X94056158Y-81635576D01*
X93875034Y-81762399D01*
X93875033Y-81762400D01*
X93870599Y-81765505D01*
X93703505Y-81932599D01*
X93700403Y-81937030D01*
X93700399Y-81937034D01*
X93607743Y-82069362D01*
X93567965Y-82126171D01*
X93565675Y-82131082D01*
X93470386Y-82335427D01*
X93470384Y-82335433D01*
X93468097Y-82340337D01*
X93466695Y-82345570D01*
X93458953Y-82374463D01*
X93422588Y-82434124D01*
X93359741Y-82464653D01*
X93290365Y-82456358D01*
X93236488Y-82411873D01*
X93227966Y-82397213D01*
X93146441Y-82231894D01*
X93140517Y-82222228D01*
X93026366Y-82069362D01*
X93018785Y-82060942D01*
X92878683Y-81931432D01*
X92869701Y-81924540D01*
X92708331Y-81822724D01*
X92698253Y-81817589D01*
X92521035Y-81746886D01*
X92510182Y-81743670D01*
X92469484Y-81735576D01*
X92456816Y-81736710D01*
X92452000Y-81751623D01*
X92452000Y-83861504D01*
X91951907Y-83861504D01*
X91952000Y-83861261D01*
X91952000Y-81748587D01*
X91948254Y-81735829D01*
X91933573Y-81733923D01*
X91921685Y-81735966D01*
X91910745Y-81738897D01*
X91731737Y-81804936D01*
X91721524Y-81809808D01*
X91557557Y-81907358D01*
X91548390Y-81914018D01*
X91404942Y-82039819D01*
X91397152Y-82048028D01*
X91279027Y-82197868D01*
X91272864Y-82207360D01*
X91184027Y-82376210D01*
X91178990Y-82388369D01*
X91135147Y-82442770D01*
X91068852Y-82464832D01*
X91001153Y-82447550D01*
X90953545Y-82396411D01*
X90944656Y-82373004D01*
X90937305Y-82345570D01*
X90935903Y-82340337D01*
X90933616Y-82335433D01*
X90933614Y-82335427D01*
X90838325Y-82131082D01*
X90836035Y-82126171D01*
X90796257Y-82069362D01*
X90703601Y-81937034D01*
X90703597Y-81937030D01*
X90700495Y-81932599D01*
X90533401Y-81765505D01*
X90339830Y-81629965D01*
X90125663Y-81530097D01*
X90089562Y-81520424D01*
X90029902Y-81484059D01*
X89999372Y-81421213D01*
X90007666Y-81351837D01*
X90052151Y-81297959D01*
X90081797Y-81283230D01*
X90105937Y-81275036D01*
X90116293Y-81270425D01*
X90282753Y-81177202D01*
X90292090Y-81170785D01*
X90438777Y-81048787D01*
X90446787Y-81040777D01*
X90568785Y-80894090D01*
X90575202Y-80884753D01*
X90668425Y-80718293D01*
X90673036Y-80707937D01*
X90734215Y-80527709D01*
X90734080Y-80526759D01*
X91133731Y-80526759D01*
X91159255Y-80627260D01*
X91163028Y-80637916D01*
X91242910Y-80811193D01*
X91248574Y-80821002D01*
X91358689Y-80976812D01*
X91366039Y-80985417D01*
X91502709Y-81118555D01*
X91511512Y-81125683D01*
X91670147Y-81231680D01*
X91680105Y-81237087D01*
X91855396Y-81312397D01*
X91866178Y-81315901D01*
X91934609Y-81331385D01*
X91948462Y-81330510D01*
X91952000Y-81321261D01*
X91952000Y-80531830D01*
X91947596Y-80516831D01*
X91946226Y-80515644D01*
X91938668Y-80514000D01*
X91148321Y-80514000D01*
X91135004Y-80517910D01*
X91133731Y-80526759D01*
X90734080Y-80526759D01*
X90732821Y-80517930D01*
X90719467Y-80514000D01*
X88608321Y-80514000D01*
X88595004Y-80517910D01*
X88593731Y-80526759D01*
X88619255Y-80627260D01*
X88623028Y-80637916D01*
X88702910Y-80811193D01*
X88708574Y-80821002D01*
X88818689Y-80976812D01*
X88826039Y-80985417D01*
X88962709Y-81118555D01*
X88971512Y-81125683D01*
X89130147Y-81231680D01*
X89140105Y-81237087D01*
X89253962Y-81286004D01*
X89307787Y-81330553D01*
X89328982Y-81397131D01*
X89310818Y-81464598D01*
X89259062Y-81511535D01*
X89237106Y-81519709D01*
X89203572Y-81528694D01*
X89203569Y-81528695D01*
X89198337Y-81530097D01*
X89193433Y-81532384D01*
X89193427Y-81532386D01*
X89106692Y-81572832D01*
X88984171Y-81629965D01*
X88979734Y-81633072D01*
X88979732Y-81633073D01*
X88795034Y-81762399D01*
X88795033Y-81762400D01*
X88790599Y-81765505D01*
X88623505Y-81932599D01*
X88620403Y-81937030D01*
X88620399Y-81937034D01*
X88493575Y-82118159D01*
X88438998Y-82161784D01*
X88369500Y-82168978D01*
X88307145Y-82137455D01*
X88290425Y-82118159D01*
X88163601Y-81937034D01*
X88163597Y-81937030D01*
X88160495Y-81932599D01*
X87993401Y-81765505D01*
X87799830Y-81629965D01*
X87585663Y-81530097D01*
X87549562Y-81520424D01*
X87489902Y-81484059D01*
X87459372Y-81421213D01*
X87467666Y-81351837D01*
X87512151Y-81297959D01*
X87541797Y-81283230D01*
X87565937Y-81275036D01*
X87576293Y-81270425D01*
X87742753Y-81177202D01*
X87752090Y-81170785D01*
X87898777Y-81048787D01*
X87906787Y-81040777D01*
X88028785Y-80894090D01*
X88035202Y-80884753D01*
X88128425Y-80718293D01*
X88133036Y-80707937D01*
X88194215Y-80527709D01*
X88192821Y-80517930D01*
X88179467Y-80514000D01*
X86068321Y-80514000D01*
X86055004Y-80517910D01*
X86053731Y-80526759D01*
X86079255Y-80627260D01*
X86083028Y-80637916D01*
X86162910Y-80811193D01*
X86168574Y-80821002D01*
X86278689Y-80976812D01*
X86286039Y-80985417D01*
X86422709Y-81118555D01*
X86431512Y-81125683D01*
X86590147Y-81231680D01*
X86600105Y-81237087D01*
X86713962Y-81286004D01*
X86767787Y-81330553D01*
X86788982Y-81397131D01*
X86770818Y-81464598D01*
X86719062Y-81511535D01*
X86697106Y-81519709D01*
X86663572Y-81528694D01*
X86663569Y-81528695D01*
X86658337Y-81530097D01*
X86653433Y-81532384D01*
X86653427Y-81532386D01*
X86566692Y-81572832D01*
X86444171Y-81629965D01*
X86439734Y-81633072D01*
X86439732Y-81633073D01*
X86255034Y-81762399D01*
X86255033Y-81762400D01*
X86250599Y-81765505D01*
X86083505Y-81932599D01*
X86080403Y-81937030D01*
X86080399Y-81937034D01*
X85953575Y-82118159D01*
X85898998Y-82161784D01*
X85829500Y-82168978D01*
X85767145Y-82137455D01*
X85750425Y-82118159D01*
X85623601Y-81937034D01*
X85623597Y-81937030D01*
X85620495Y-81932599D01*
X85453401Y-81765505D01*
X85259830Y-81629965D01*
X85045663Y-81530097D01*
X85009562Y-81520424D01*
X84949902Y-81484059D01*
X84919372Y-81421213D01*
X84927666Y-81351837D01*
X84972151Y-81297959D01*
X85001797Y-81283230D01*
X85025937Y-81275036D01*
X85036293Y-81270425D01*
X85202753Y-81177202D01*
X85212090Y-81170785D01*
X85358777Y-81048787D01*
X85366787Y-81040777D01*
X85488785Y-80894090D01*
X85495202Y-80884753D01*
X85588425Y-80718293D01*
X85593036Y-80707937D01*
X85654215Y-80527709D01*
X85652821Y-80517930D01*
X85639467Y-80514000D01*
X84456000Y-80514000D01*
X84388961Y-80494315D01*
X84343206Y-80441511D01*
X84332000Y-80390000D01*
X84332000Y-79996170D01*
X84832000Y-79996170D01*
X84836404Y-80011169D01*
X84837774Y-80012356D01*
X84845332Y-80014000D01*
X85636654Y-80014000D01*
X85647383Y-80010850D01*
X86052809Y-80010850D01*
X86059433Y-80014000D01*
X86854170Y-80014000D01*
X86869169Y-80009596D01*
X86870356Y-80008226D01*
X86872000Y-80000668D01*
X86872000Y-79996170D01*
X87372000Y-79996170D01*
X87376404Y-80011169D01*
X87377774Y-80012356D01*
X87385332Y-80014000D01*
X88176654Y-80014000D01*
X88187383Y-80010850D01*
X88592809Y-80010850D01*
X88599433Y-80014000D01*
X89394170Y-80014000D01*
X89409169Y-80009596D01*
X89410356Y-80008226D01*
X89412000Y-80000668D01*
X89412000Y-79996170D01*
X89912000Y-79996170D01*
X89916404Y-80011169D01*
X89917774Y-80012356D01*
X89925332Y-80014000D01*
X90716654Y-80014000D01*
X90727383Y-80010850D01*
X91132809Y-80010850D01*
X91139433Y-80014000D01*
X91934170Y-80014000D01*
X91949169Y-80009596D01*
X91950356Y-80008226D01*
X91952000Y-80000668D01*
X91952000Y-79208587D01*
X91948254Y-79195829D01*
X91933573Y-79193923D01*
X91921685Y-79195966D01*
X91910745Y-79198897D01*
X91731737Y-79264936D01*
X91721524Y-79269808D01*
X91557557Y-79367358D01*
X91548390Y-79374018D01*
X91404942Y-79499819D01*
X91397152Y-79508028D01*
X91279027Y-79657868D01*
X91272864Y-79667360D01*
X91184025Y-79836214D01*
X91179694Y-79846669D01*
X91133023Y-79996975D01*
X91132809Y-80010850D01*
X90727383Y-80010850D01*
X90729971Y-80010090D01*
X90731123Y-80002082D01*
X90694880Y-79873574D01*
X90690823Y-79863007D01*
X90606441Y-79691894D01*
X90600517Y-79682228D01*
X90486366Y-79529362D01*
X90478785Y-79520942D01*
X90338683Y-79391432D01*
X90329701Y-79384540D01*
X90168331Y-79282724D01*
X90158253Y-79277589D01*
X89981035Y-79206886D01*
X89970182Y-79203670D01*
X89929484Y-79195576D01*
X89916816Y-79196710D01*
X89912000Y-79211623D01*
X89912000Y-79996170D01*
X89412000Y-79996170D01*
X89412000Y-79208587D01*
X89408254Y-79195829D01*
X89393573Y-79193923D01*
X89381685Y-79195966D01*
X89370745Y-79198897D01*
X89191737Y-79264936D01*
X89181524Y-79269808D01*
X89017557Y-79367358D01*
X89008390Y-79374018D01*
X88864942Y-79499819D01*
X88857152Y-79508028D01*
X88739027Y-79657868D01*
X88732864Y-79667360D01*
X88644025Y-79836214D01*
X88639694Y-79846669D01*
X88593023Y-79996975D01*
X88592809Y-80010850D01*
X88187383Y-80010850D01*
X88189971Y-80010090D01*
X88191123Y-80002082D01*
X88154880Y-79873574D01*
X88150823Y-79863007D01*
X88066441Y-79691894D01*
X88060517Y-79682228D01*
X87946366Y-79529362D01*
X87938785Y-79520942D01*
X87798683Y-79391432D01*
X87789701Y-79384540D01*
X87628331Y-79282724D01*
X87618253Y-79277589D01*
X87441035Y-79206886D01*
X87430182Y-79203670D01*
X87389484Y-79195576D01*
X87376816Y-79196710D01*
X87372000Y-79211623D01*
X87372000Y-79996170D01*
X86872000Y-79996170D01*
X86872000Y-79208587D01*
X86868254Y-79195829D01*
X86853573Y-79193923D01*
X86841685Y-79195966D01*
X86830745Y-79198897D01*
X86651737Y-79264936D01*
X86641524Y-79269808D01*
X86477557Y-79367358D01*
X86468390Y-79374018D01*
X86324942Y-79499819D01*
X86317152Y-79508028D01*
X86199027Y-79657868D01*
X86192864Y-79667360D01*
X86104025Y-79836214D01*
X86099694Y-79846669D01*
X86053023Y-79996975D01*
X86052809Y-80010850D01*
X85647383Y-80010850D01*
X85649971Y-80010090D01*
X85651123Y-80002082D01*
X85614880Y-79873574D01*
X85610823Y-79863007D01*
X85526441Y-79691894D01*
X85520517Y-79682228D01*
X85406366Y-79529362D01*
X85398785Y-79520942D01*
X85258683Y-79391432D01*
X85249701Y-79384540D01*
X85088331Y-79282724D01*
X85078253Y-79277589D01*
X84901035Y-79206886D01*
X84890182Y-79203670D01*
X84849484Y-79195576D01*
X84836816Y-79196710D01*
X84832000Y-79211623D01*
X84832000Y-79996170D01*
X84332000Y-79996170D01*
X84332000Y-79208587D01*
X84328254Y-79195829D01*
X84313573Y-79193923D01*
X84301685Y-79195966D01*
X84290745Y-79198897D01*
X84111737Y-79264936D01*
X84101524Y-79269808D01*
X83937557Y-79367358D01*
X83928390Y-79374018D01*
X83784942Y-79499819D01*
X83777152Y-79508028D01*
X83659027Y-79657868D01*
X83652864Y-79667360D01*
X83564027Y-79836210D01*
X83558990Y-79848369D01*
X83515147Y-79902770D01*
X83448852Y-79924832D01*
X83381153Y-79907550D01*
X83333545Y-79856411D01*
X83324656Y-79833004D01*
X83317305Y-79805570D01*
X83315903Y-79800337D01*
X83313616Y-79795433D01*
X83313614Y-79795427D01*
X83218325Y-79591082D01*
X83216035Y-79586171D01*
X83170536Y-79521191D01*
X83083601Y-79397034D01*
X83083597Y-79397030D01*
X83080495Y-79392599D01*
X82913401Y-79225505D01*
X82719830Y-79089965D01*
X82505663Y-78990097D01*
X82421863Y-78967643D01*
X82282634Y-78930337D01*
X82282631Y-78930336D01*
X82277408Y-78928937D01*
X82272021Y-78928466D01*
X82272017Y-78928465D01*
X82047395Y-78908813D01*
X82042000Y-78908341D01*
X82036605Y-78908813D01*
X81811983Y-78928465D01*
X81811979Y-78928466D01*
X81806592Y-78928937D01*
X81801369Y-78930336D01*
X81801366Y-78930337D01*
X81662137Y-78967643D01*
X81578337Y-78990097D01*
X81573433Y-78992384D01*
X81573427Y-78992386D01*
X81386331Y-79079631D01*
X81364171Y-79089965D01*
X81359734Y-79093072D01*
X81359732Y-79093073D01*
X81175034Y-79222399D01*
X81175033Y-79222400D01*
X81170599Y-79225505D01*
X81003505Y-79392599D01*
X81000403Y-79397030D01*
X81000399Y-79397034D01*
X80873575Y-79578159D01*
X80818998Y-79621784D01*
X80749500Y-79628978D01*
X80687145Y-79597455D01*
X80670425Y-79578159D01*
X80543601Y-79397034D01*
X80543597Y-79397030D01*
X80540495Y-79392599D01*
X80373401Y-79225505D01*
X80179830Y-79089965D01*
X79965663Y-78990097D01*
X79881863Y-78967643D01*
X79742634Y-78930337D01*
X79742631Y-78930336D01*
X79737408Y-78928937D01*
X79732021Y-78928466D01*
X79732017Y-78928465D01*
X79507395Y-78908813D01*
X79502000Y-78908341D01*
X79496605Y-78908813D01*
X79271983Y-78928465D01*
X79271979Y-78928466D01*
X79266592Y-78928937D01*
X79261369Y-78930336D01*
X79261366Y-78930337D01*
X79122137Y-78967643D01*
X79038337Y-78990097D01*
X79033433Y-78992384D01*
X79033427Y-78992386D01*
X78846331Y-79079631D01*
X78824171Y-79089965D01*
X78819734Y-79093072D01*
X78819732Y-79093073D01*
X78635034Y-79222399D01*
X78635033Y-79222400D01*
X78630599Y-79225505D01*
X78463505Y-79392599D01*
X78460403Y-79397030D01*
X78460399Y-79397034D01*
X78373464Y-79521191D01*
X78327965Y-79586171D01*
X78325675Y-79591082D01*
X78230386Y-79795427D01*
X78230384Y-79795433D01*
X78228097Y-79800337D01*
X78226695Y-79805570D01*
X78171895Y-80010090D01*
X78166937Y-80028592D01*
X78166466Y-80033979D01*
X78166465Y-80033983D01*
X78159988Y-80108018D01*
X78146341Y-80264000D01*
X76700000Y-80264000D01*
X76700000Y-78756124D01*
X114323502Y-78756124D01*
X114326932Y-78764378D01*
X114922393Y-79359840D01*
X114936113Y-79367332D01*
X114937918Y-79367203D01*
X114944427Y-79363020D01*
X115539405Y-78768041D01*
X115546056Y-78755860D01*
X115540121Y-78747931D01*
X115464132Y-78699985D01*
X115454045Y-78694846D01*
X115268305Y-78620743D01*
X115257433Y-78617522D01*
X115061307Y-78578511D01*
X115050030Y-78577325D01*
X114850073Y-78574707D01*
X114838780Y-78575596D01*
X114641680Y-78609464D01*
X114630757Y-78612391D01*
X114443119Y-78681614D01*
X114432906Y-78686486D01*
X114332947Y-78745955D01*
X114323502Y-78756124D01*
X76700000Y-78756124D01*
X76700000Y-78752369D01*
X76701719Y-78731796D01*
X76704197Y-78717068D01*
X76704198Y-78717054D01*
X76704991Y-78712342D01*
X76705142Y-78700000D01*
X76703446Y-78688157D01*
X76702459Y-78662470D01*
X76703530Y-78646141D01*
X76716579Y-78447051D01*
X76718695Y-78430978D01*
X76755992Y-78243477D01*
X76766562Y-78190334D01*
X76770760Y-78174667D01*
X76849629Y-77942329D01*
X76855836Y-77927345D01*
X76964354Y-77707290D01*
X76972461Y-77693248D01*
X77108779Y-77489233D01*
X77118652Y-77476366D01*
X77280433Y-77291890D01*
X77291890Y-77280433D01*
X77476368Y-77118651D01*
X77489234Y-77108778D01*
X77693248Y-76972461D01*
X77707290Y-76964354D01*
X77927345Y-76855836D01*
X77942329Y-76849629D01*
X78174667Y-76770760D01*
X78190335Y-76766562D01*
X78430970Y-76718697D01*
X78447051Y-76716579D01*
X78543313Y-76710270D01*
X78658931Y-76702692D01*
X78681608Y-76703702D01*
X78685097Y-76703745D01*
X78693829Y-76705104D01*
X78724855Y-76701047D01*
X78740933Y-76700000D01*
X123651451Y-76700000D01*
X123670527Y-76701476D01*
G37*
%TD.AperFunction*%
%TD*%
M02*
