G04 #@! TF.GenerationSoftware,KiCad,Pcbnew,5.1.10*
G04 #@! TF.CreationDate,2021-12-30T01:29:18+02:00*
G04 #@! TF.ProjectId,pwm-controller,70776d2d-636f-46e7-9472-6f6c6c65722e,rev?*
G04 #@! TF.SameCoordinates,Original*
G04 #@! TF.FileFunction,Copper,L1,Top*
G04 #@! TF.FilePolarity,Positive*
%FSLAX46Y46*%
G04 Gerber Fmt 4.6, Leading zero omitted, Abs format (unit mm)*
G04 Created by KiCad (PCBNEW 5.1.10) date 2021-12-30 01:29:18*
%MOMM*%
%LPD*%
G01*
G04 APERTURE LIST*
G04 #@! TA.AperFunction,SMDPad,CuDef*
%ADD10C,0.100000*%
G04 #@! TD*
G04 #@! TA.AperFunction,SMDPad,CuDef*
%ADD11R,0.405000X0.990000*%
G04 #@! TD*
G04 #@! TA.AperFunction,ComponentPad*
%ADD12C,2.200000*%
G04 #@! TD*
G04 #@! TA.AperFunction,ComponentPad*
%ADD13C,1.500000*%
G04 #@! TD*
G04 #@! TA.AperFunction,SMDPad,CuDef*
%ADD14R,1.200000X0.900000*%
G04 #@! TD*
G04 #@! TA.AperFunction,ComponentPad*
%ADD15O,1.700000X1.700000*%
G04 #@! TD*
G04 #@! TA.AperFunction,ComponentPad*
%ADD16R,1.700000X1.700000*%
G04 #@! TD*
G04 #@! TA.AperFunction,ComponentPad*
%ADD17C,1.800000*%
G04 #@! TD*
G04 #@! TA.AperFunction,SMDPad,CuDef*
%ADD18R,0.900000X1.200000*%
G04 #@! TD*
G04 #@! TA.AperFunction,SMDPad,CuDef*
%ADD19R,0.900000X0.800000*%
G04 #@! TD*
G04 #@! TA.AperFunction,SMDPad,CuDef*
%ADD20R,1.300000X0.900000*%
G04 #@! TD*
G04 #@! TA.AperFunction,ViaPad*
%ADD21C,0.600000*%
G04 #@! TD*
G04 #@! TA.AperFunction,Conductor*
%ADD22C,0.200000*%
G04 #@! TD*
G04 #@! TA.AperFunction,Conductor*
%ADD23C,0.254000*%
G04 #@! TD*
G04 #@! TA.AperFunction,Conductor*
%ADD24C,0.100000*%
G04 #@! TD*
G04 #@! TA.AperFunction,Conductor*
%ADD25C,0.250000*%
G04 #@! TD*
G04 APERTURE END LIST*
G04 #@! TA.AperFunction,SMDPad,CuDef*
D10*
G36*
X104927500Y-112420000D02*
G01*
X104927500Y-111910000D01*
X104672500Y-111910000D01*
X104672500Y-112420000D01*
X104267500Y-112420000D01*
X104267500Y-111910000D01*
X104012500Y-111910000D01*
X104012500Y-112420000D01*
X103607500Y-112420000D01*
X103607500Y-111910000D01*
X103352500Y-111910000D01*
X103352500Y-112420000D01*
X102945000Y-112420000D01*
X102945000Y-111660000D01*
X103022500Y-111660000D01*
X103022500Y-110185000D01*
X105257500Y-110185000D01*
X105257500Y-111660000D01*
X105335000Y-111660000D01*
X105335000Y-112420000D01*
X104927500Y-112420000D01*
G37*
G04 #@! TD.AperFunction*
D11*
X103150000Y-109055000D03*
X103810000Y-109055000D03*
X104470000Y-109055000D03*
X105130000Y-109055000D03*
G04 #@! TA.AperFunction,SMDPad,CuDef*
D10*
G36*
X118135500Y-112420000D02*
G01*
X118135500Y-111910000D01*
X117880500Y-111910000D01*
X117880500Y-112420000D01*
X117475500Y-112420000D01*
X117475500Y-111910000D01*
X117220500Y-111910000D01*
X117220500Y-112420000D01*
X116815500Y-112420000D01*
X116815500Y-111910000D01*
X116560500Y-111910000D01*
X116560500Y-112420000D01*
X116153000Y-112420000D01*
X116153000Y-111660000D01*
X116230500Y-111660000D01*
X116230500Y-110185000D01*
X118465500Y-110185000D01*
X118465500Y-111660000D01*
X118543000Y-111660000D01*
X118543000Y-112420000D01*
X118135500Y-112420000D01*
G37*
G04 #@! TD.AperFunction*
D11*
X116358000Y-109055000D03*
X117018000Y-109055000D03*
X117678000Y-109055000D03*
X118338000Y-109055000D03*
G04 #@! TA.AperFunction,SMDPad,CuDef*
G36*
G01*
X88207000Y-97268000D02*
X88577000Y-97268000D01*
G75*
G02*
X88712000Y-97403000I0J-135000D01*
G01*
X88712000Y-97673000D01*
G75*
G02*
X88577000Y-97808000I-135000J0D01*
G01*
X88207000Y-97808000D01*
G75*
G02*
X88072000Y-97673000I0J135000D01*
G01*
X88072000Y-97403000D01*
G75*
G02*
X88207000Y-97268000I135000J0D01*
G01*
G37*
G04 #@! TD.AperFunction*
G04 #@! TA.AperFunction,SMDPad,CuDef*
G36*
G01*
X88207000Y-96248000D02*
X88577000Y-96248000D01*
G75*
G02*
X88712000Y-96383000I0J-135000D01*
G01*
X88712000Y-96653000D01*
G75*
G02*
X88577000Y-96788000I-135000J0D01*
G01*
X88207000Y-96788000D01*
G75*
G02*
X88072000Y-96653000I0J135000D01*
G01*
X88072000Y-96383000D01*
G75*
G02*
X88207000Y-96248000I135000J0D01*
G01*
G37*
G04 #@! TD.AperFunction*
G04 #@! TA.AperFunction,SMDPad,CuDef*
G36*
G01*
X86937000Y-97268000D02*
X87307000Y-97268000D01*
G75*
G02*
X87442000Y-97403000I0J-135000D01*
G01*
X87442000Y-97673000D01*
G75*
G02*
X87307000Y-97808000I-135000J0D01*
G01*
X86937000Y-97808000D01*
G75*
G02*
X86802000Y-97673000I0J135000D01*
G01*
X86802000Y-97403000D01*
G75*
G02*
X86937000Y-97268000I135000J0D01*
G01*
G37*
G04 #@! TD.AperFunction*
G04 #@! TA.AperFunction,SMDPad,CuDef*
G36*
G01*
X86937000Y-96248000D02*
X87307000Y-96248000D01*
G75*
G02*
X87442000Y-96383000I0J-135000D01*
G01*
X87442000Y-96653000D01*
G75*
G02*
X87307000Y-96788000I-135000J0D01*
G01*
X86937000Y-96788000D01*
G75*
G02*
X86802000Y-96653000I0J135000D01*
G01*
X86802000Y-96383000D01*
G75*
G02*
X86937000Y-96248000I135000J0D01*
G01*
G37*
G04 #@! TD.AperFunction*
G04 #@! TA.AperFunction,SMDPad,CuDef*
G36*
G01*
X79825000Y-97268000D02*
X80195000Y-97268000D01*
G75*
G02*
X80330000Y-97403000I0J-135000D01*
G01*
X80330000Y-97673000D01*
G75*
G02*
X80195000Y-97808000I-135000J0D01*
G01*
X79825000Y-97808000D01*
G75*
G02*
X79690000Y-97673000I0J135000D01*
G01*
X79690000Y-97403000D01*
G75*
G02*
X79825000Y-97268000I135000J0D01*
G01*
G37*
G04 #@! TD.AperFunction*
G04 #@! TA.AperFunction,SMDPad,CuDef*
G36*
G01*
X79825000Y-96248000D02*
X80195000Y-96248000D01*
G75*
G02*
X80330000Y-96383000I0J-135000D01*
G01*
X80330000Y-96653000D01*
G75*
G02*
X80195000Y-96788000I-135000J0D01*
G01*
X79825000Y-96788000D01*
G75*
G02*
X79690000Y-96653000I0J135000D01*
G01*
X79690000Y-96383000D01*
G75*
G02*
X79825000Y-96248000I135000J0D01*
G01*
G37*
G04 #@! TD.AperFunction*
G04 #@! TA.AperFunction,SMDPad,CuDef*
G36*
G01*
X78555000Y-97268000D02*
X78925000Y-97268000D01*
G75*
G02*
X79060000Y-97403000I0J-135000D01*
G01*
X79060000Y-97673000D01*
G75*
G02*
X78925000Y-97808000I-135000J0D01*
G01*
X78555000Y-97808000D01*
G75*
G02*
X78420000Y-97673000I0J135000D01*
G01*
X78420000Y-97403000D01*
G75*
G02*
X78555000Y-97268000I135000J0D01*
G01*
G37*
G04 #@! TD.AperFunction*
G04 #@! TA.AperFunction,SMDPad,CuDef*
G36*
G01*
X78555000Y-96248000D02*
X78925000Y-96248000D01*
G75*
G02*
X79060000Y-96383000I0J-135000D01*
G01*
X79060000Y-96653000D01*
G75*
G02*
X78925000Y-96788000I-135000J0D01*
G01*
X78555000Y-96788000D01*
G75*
G02*
X78420000Y-96653000I0J135000D01*
G01*
X78420000Y-96383000D01*
G75*
G02*
X78555000Y-96248000I135000J0D01*
G01*
G37*
G04 #@! TD.AperFunction*
G04 #@! TA.AperFunction,SMDPad,CuDef*
G36*
G01*
X91962000Y-85921000D02*
X91962000Y-86291000D01*
G75*
G02*
X91827000Y-86426000I-135000J0D01*
G01*
X91557000Y-86426000D01*
G75*
G02*
X91422000Y-86291000I0J135000D01*
G01*
X91422000Y-85921000D01*
G75*
G02*
X91557000Y-85786000I135000J0D01*
G01*
X91827000Y-85786000D01*
G75*
G02*
X91962000Y-85921000I0J-135000D01*
G01*
G37*
G04 #@! TD.AperFunction*
G04 #@! TA.AperFunction,SMDPad,CuDef*
G36*
G01*
X92982000Y-85921000D02*
X92982000Y-86291000D01*
G75*
G02*
X92847000Y-86426000I-135000J0D01*
G01*
X92577000Y-86426000D01*
G75*
G02*
X92442000Y-86291000I0J135000D01*
G01*
X92442000Y-85921000D01*
G75*
G02*
X92577000Y-85786000I135000J0D01*
G01*
X92847000Y-85786000D01*
G75*
G02*
X92982000Y-85921000I0J-135000D01*
G01*
G37*
G04 #@! TD.AperFunction*
X99542000Y-109055000D03*
X98882000Y-109055000D03*
X98222000Y-109055000D03*
X97562000Y-109055000D03*
G04 #@! TA.AperFunction,SMDPad,CuDef*
D10*
G36*
X99339500Y-112420000D02*
G01*
X99339500Y-111910000D01*
X99084500Y-111910000D01*
X99084500Y-112420000D01*
X98679500Y-112420000D01*
X98679500Y-111910000D01*
X98424500Y-111910000D01*
X98424500Y-112420000D01*
X98019500Y-112420000D01*
X98019500Y-111910000D01*
X97764500Y-111910000D01*
X97764500Y-112420000D01*
X97357000Y-112420000D01*
X97357000Y-111660000D01*
X97434500Y-111660000D01*
X97434500Y-110185000D01*
X99669500Y-110185000D01*
X99669500Y-111660000D01*
X99747000Y-111660000D01*
X99747000Y-112420000D01*
X99339500Y-112420000D01*
G37*
G04 #@! TD.AperFunction*
D11*
X112750000Y-109055000D03*
X112090000Y-109055000D03*
X111430000Y-109055000D03*
X110770000Y-109055000D03*
G04 #@! TA.AperFunction,SMDPad,CuDef*
D10*
G36*
X112547500Y-112420000D02*
G01*
X112547500Y-111910000D01*
X112292500Y-111910000D01*
X112292500Y-112420000D01*
X111887500Y-112420000D01*
X111887500Y-111910000D01*
X111632500Y-111910000D01*
X111632500Y-112420000D01*
X111227500Y-112420000D01*
X111227500Y-111910000D01*
X110972500Y-111910000D01*
X110972500Y-112420000D01*
X110565000Y-112420000D01*
X110565000Y-111660000D01*
X110642500Y-111660000D01*
X110642500Y-110185000D01*
X112877500Y-110185000D01*
X112877500Y-111660000D01*
X112955000Y-111660000D01*
X112955000Y-112420000D01*
X112547500Y-112420000D01*
G37*
G04 #@! TD.AperFunction*
D12*
X86995000Y-120739000D03*
X92075000Y-120739000D03*
D13*
X103632000Y-87884000D03*
D14*
X103632000Y-91060000D03*
X103632000Y-94360000D03*
D15*
X99822000Y-80264000D03*
X99822000Y-82804000D03*
X97282000Y-80264000D03*
X97282000Y-82804000D03*
X94742000Y-80264000D03*
X94742000Y-82804000D03*
X92202000Y-80264000D03*
X92202000Y-82804000D03*
X89662000Y-80264000D03*
X89662000Y-82804000D03*
X87122000Y-80264000D03*
X87122000Y-82804000D03*
X84582000Y-80264000D03*
X84582000Y-82804000D03*
X82042000Y-80264000D03*
X82042000Y-82804000D03*
X79502000Y-80264000D03*
D16*
X79502000Y-82804000D03*
G04 #@! TA.AperFunction,ComponentPad*
G36*
G01*
X119335000Y-87726000D02*
X119335000Y-85526000D01*
G75*
G02*
X120135000Y-84726000I800000J0D01*
G01*
X121735000Y-84726000D01*
G75*
G02*
X122535000Y-85526000I0J-800000D01*
G01*
X122535000Y-87726000D01*
G75*
G02*
X121735000Y-88526000I-800000J0D01*
G01*
X120135000Y-88526000D01*
G75*
G02*
X119335000Y-87726000I0J800000D01*
G01*
G37*
G04 #@! TD.AperFunction*
G04 #@! TA.AperFunction,ComponentPad*
G36*
G01*
X107335000Y-87726000D02*
X107335000Y-85526000D01*
G75*
G02*
X108135000Y-84726000I800000J0D01*
G01*
X109735000Y-84726000D01*
G75*
G02*
X110535000Y-85526000I0J-800000D01*
G01*
X110535000Y-87726000D01*
G75*
G02*
X109735000Y-88526000I-800000J0D01*
G01*
X108135000Y-88526000D01*
G75*
G02*
X107335000Y-87726000I0J800000D01*
G01*
G37*
G04 #@! TD.AperFunction*
D17*
X114935000Y-79726000D03*
X109385000Y-82426000D03*
X120485000Y-82426000D03*
X120885000Y-90026000D03*
X109385000Y-90726000D03*
G04 #@! TA.AperFunction,SMDPad,CuDef*
G36*
G01*
X91386000Y-87292000D02*
X91386000Y-86952000D01*
G75*
G02*
X91526000Y-86812000I140000J0D01*
G01*
X91806000Y-86812000D01*
G75*
G02*
X91946000Y-86952000I0J-140000D01*
G01*
X91946000Y-87292000D01*
G75*
G02*
X91806000Y-87432000I-140000J0D01*
G01*
X91526000Y-87432000D01*
G75*
G02*
X91386000Y-87292000I0J140000D01*
G01*
G37*
G04 #@! TD.AperFunction*
G04 #@! TA.AperFunction,SMDPad,CuDef*
G36*
G01*
X90426000Y-87292000D02*
X90426000Y-86952000D01*
G75*
G02*
X90566000Y-86812000I140000J0D01*
G01*
X90846000Y-86812000D01*
G75*
G02*
X90986000Y-86952000I0J-140000D01*
G01*
X90986000Y-87292000D01*
G75*
G02*
X90846000Y-87432000I-140000J0D01*
G01*
X90566000Y-87432000D01*
G75*
G02*
X90426000Y-87292000I0J140000D01*
G01*
G37*
G04 #@! TD.AperFunction*
D18*
X81662000Y-99060000D03*
X84962000Y-99060000D03*
G04 #@! TA.AperFunction,SMDPad,CuDef*
G36*
G01*
X97522000Y-88069000D02*
X97522000Y-87699000D01*
G75*
G02*
X97657000Y-87564000I135000J0D01*
G01*
X97927000Y-87564000D01*
G75*
G02*
X98062000Y-87699000I0J-135000D01*
G01*
X98062000Y-88069000D01*
G75*
G02*
X97927000Y-88204000I-135000J0D01*
G01*
X97657000Y-88204000D01*
G75*
G02*
X97522000Y-88069000I0J135000D01*
G01*
G37*
G04 #@! TD.AperFunction*
G04 #@! TA.AperFunction,SMDPad,CuDef*
G36*
G01*
X96502000Y-88069000D02*
X96502000Y-87699000D01*
G75*
G02*
X96637000Y-87564000I135000J0D01*
G01*
X96907000Y-87564000D01*
G75*
G02*
X97042000Y-87699000I0J-135000D01*
G01*
X97042000Y-88069000D01*
G75*
G02*
X96907000Y-88204000I-135000J0D01*
G01*
X96637000Y-88204000D01*
G75*
G02*
X96502000Y-88069000I0J135000D01*
G01*
G37*
G04 #@! TD.AperFunction*
G04 #@! TA.AperFunction,SMDPad,CuDef*
G36*
G01*
X99074000Y-87699000D02*
X99074000Y-88069000D01*
G75*
G02*
X98939000Y-88204000I-135000J0D01*
G01*
X98669000Y-88204000D01*
G75*
G02*
X98534000Y-88069000I0J135000D01*
G01*
X98534000Y-87699000D01*
G75*
G02*
X98669000Y-87564000I135000J0D01*
G01*
X98939000Y-87564000D01*
G75*
G02*
X99074000Y-87699000I0J-135000D01*
G01*
G37*
G04 #@! TD.AperFunction*
G04 #@! TA.AperFunction,SMDPad,CuDef*
G36*
G01*
X100094000Y-87699000D02*
X100094000Y-88069000D01*
G75*
G02*
X99959000Y-88204000I-135000J0D01*
G01*
X99689000Y-88204000D01*
G75*
G02*
X99554000Y-88069000I0J135000D01*
G01*
X99554000Y-87699000D01*
G75*
G02*
X99689000Y-87564000I135000J0D01*
G01*
X99959000Y-87564000D01*
G75*
G02*
X100094000Y-87699000I0J-135000D01*
G01*
G37*
G04 #@! TD.AperFunction*
G04 #@! TA.AperFunction,SMDPad,CuDef*
G36*
G01*
X103197000Y-85984000D02*
X103197000Y-85644000D01*
G75*
G02*
X103337000Y-85504000I140000J0D01*
G01*
X103617000Y-85504000D01*
G75*
G02*
X103757000Y-85644000I0J-140000D01*
G01*
X103757000Y-85984000D01*
G75*
G02*
X103617000Y-86124000I-140000J0D01*
G01*
X103337000Y-86124000D01*
G75*
G02*
X103197000Y-85984000I0J140000D01*
G01*
G37*
G04 #@! TD.AperFunction*
G04 #@! TA.AperFunction,SMDPad,CuDef*
G36*
G01*
X102237000Y-85984000D02*
X102237000Y-85644000D01*
G75*
G02*
X102377000Y-85504000I140000J0D01*
G01*
X102657000Y-85504000D01*
G75*
G02*
X102797000Y-85644000I0J-140000D01*
G01*
X102797000Y-85984000D01*
G75*
G02*
X102657000Y-86124000I-140000J0D01*
G01*
X102377000Y-86124000D01*
G75*
G02*
X102237000Y-85984000I0J140000D01*
G01*
G37*
G04 #@! TD.AperFunction*
G04 #@! TA.AperFunction,SMDPad,CuDef*
G36*
G01*
X103197000Y-83444000D02*
X103197000Y-83104000D01*
G75*
G02*
X103337000Y-82964000I140000J0D01*
G01*
X103617000Y-82964000D01*
G75*
G02*
X103757000Y-83104000I0J-140000D01*
G01*
X103757000Y-83444000D01*
G75*
G02*
X103617000Y-83584000I-140000J0D01*
G01*
X103337000Y-83584000D01*
G75*
G02*
X103197000Y-83444000I0J140000D01*
G01*
G37*
G04 #@! TD.AperFunction*
G04 #@! TA.AperFunction,SMDPad,CuDef*
G36*
G01*
X102237000Y-83444000D02*
X102237000Y-83104000D01*
G75*
G02*
X102377000Y-82964000I140000J0D01*
G01*
X102657000Y-82964000D01*
G75*
G02*
X102797000Y-83104000I0J-140000D01*
G01*
X102797000Y-83444000D01*
G75*
G02*
X102657000Y-83584000I-140000J0D01*
G01*
X102377000Y-83584000D01*
G75*
G02*
X102237000Y-83444000I0J140000D01*
G01*
G37*
G04 #@! TD.AperFunction*
G04 #@! TA.AperFunction,SMDPad,CuDef*
G36*
G01*
X103197000Y-84714000D02*
X103197000Y-84374000D01*
G75*
G02*
X103337000Y-84234000I140000J0D01*
G01*
X103617000Y-84234000D01*
G75*
G02*
X103757000Y-84374000I0J-140000D01*
G01*
X103757000Y-84714000D01*
G75*
G02*
X103617000Y-84854000I-140000J0D01*
G01*
X103337000Y-84854000D01*
G75*
G02*
X103197000Y-84714000I0J140000D01*
G01*
G37*
G04 #@! TD.AperFunction*
G04 #@! TA.AperFunction,SMDPad,CuDef*
G36*
G01*
X102237000Y-84714000D02*
X102237000Y-84374000D01*
G75*
G02*
X102377000Y-84234000I140000J0D01*
G01*
X102657000Y-84234000D01*
G75*
G02*
X102797000Y-84374000I0J-140000D01*
G01*
X102797000Y-84714000D01*
G75*
G02*
X102657000Y-84854000I-140000J0D01*
G01*
X102377000Y-84854000D01*
G75*
G02*
X102237000Y-84714000I0J140000D01*
G01*
G37*
G04 #@! TD.AperFunction*
G04 #@! TA.AperFunction,SMDPad,CuDef*
G36*
G01*
X87504000Y-86029000D02*
X87504000Y-85829000D01*
G75*
G02*
X87604000Y-85729000I100000J0D01*
G01*
X88879000Y-85729000D01*
G75*
G02*
X88979000Y-85829000I0J-100000D01*
G01*
X88979000Y-86029000D01*
G75*
G02*
X88879000Y-86129000I-100000J0D01*
G01*
X87604000Y-86129000D01*
G75*
G02*
X87504000Y-86029000I0J100000D01*
G01*
G37*
G04 #@! TD.AperFunction*
G04 #@! TA.AperFunction,SMDPad,CuDef*
G36*
G01*
X87504000Y-86679000D02*
X87504000Y-86479000D01*
G75*
G02*
X87604000Y-86379000I100000J0D01*
G01*
X88879000Y-86379000D01*
G75*
G02*
X88979000Y-86479000I0J-100000D01*
G01*
X88979000Y-86679000D01*
G75*
G02*
X88879000Y-86779000I-100000J0D01*
G01*
X87604000Y-86779000D01*
G75*
G02*
X87504000Y-86679000I0J100000D01*
G01*
G37*
G04 #@! TD.AperFunction*
G04 #@! TA.AperFunction,SMDPad,CuDef*
G36*
G01*
X87504000Y-87329000D02*
X87504000Y-87129000D01*
G75*
G02*
X87604000Y-87029000I100000J0D01*
G01*
X88879000Y-87029000D01*
G75*
G02*
X88979000Y-87129000I0J-100000D01*
G01*
X88979000Y-87329000D01*
G75*
G02*
X88879000Y-87429000I-100000J0D01*
G01*
X87604000Y-87429000D01*
G75*
G02*
X87504000Y-87329000I0J100000D01*
G01*
G37*
G04 #@! TD.AperFunction*
G04 #@! TA.AperFunction,SMDPad,CuDef*
G36*
G01*
X87504000Y-87979000D02*
X87504000Y-87779000D01*
G75*
G02*
X87604000Y-87679000I100000J0D01*
G01*
X88879000Y-87679000D01*
G75*
G02*
X88979000Y-87779000I0J-100000D01*
G01*
X88979000Y-87979000D01*
G75*
G02*
X88879000Y-88079000I-100000J0D01*
G01*
X87604000Y-88079000D01*
G75*
G02*
X87504000Y-87979000I0J100000D01*
G01*
G37*
G04 #@! TD.AperFunction*
G04 #@! TA.AperFunction,SMDPad,CuDef*
G36*
G01*
X87504000Y-88629000D02*
X87504000Y-88429000D01*
G75*
G02*
X87604000Y-88329000I100000J0D01*
G01*
X88879000Y-88329000D01*
G75*
G02*
X88979000Y-88429000I0J-100000D01*
G01*
X88979000Y-88629000D01*
G75*
G02*
X88879000Y-88729000I-100000J0D01*
G01*
X87604000Y-88729000D01*
G75*
G02*
X87504000Y-88629000I0J100000D01*
G01*
G37*
G04 #@! TD.AperFunction*
G04 #@! TA.AperFunction,SMDPad,CuDef*
G36*
G01*
X87504000Y-89279000D02*
X87504000Y-89079000D01*
G75*
G02*
X87604000Y-88979000I100000J0D01*
G01*
X88879000Y-88979000D01*
G75*
G02*
X88979000Y-89079000I0J-100000D01*
G01*
X88979000Y-89279000D01*
G75*
G02*
X88879000Y-89379000I-100000J0D01*
G01*
X87604000Y-89379000D01*
G75*
G02*
X87504000Y-89279000I0J100000D01*
G01*
G37*
G04 #@! TD.AperFunction*
G04 #@! TA.AperFunction,SMDPad,CuDef*
G36*
G01*
X87504000Y-89929000D02*
X87504000Y-89729000D01*
G75*
G02*
X87604000Y-89629000I100000J0D01*
G01*
X88879000Y-89629000D01*
G75*
G02*
X88979000Y-89729000I0J-100000D01*
G01*
X88979000Y-89929000D01*
G75*
G02*
X88879000Y-90029000I-100000J0D01*
G01*
X87604000Y-90029000D01*
G75*
G02*
X87504000Y-89929000I0J100000D01*
G01*
G37*
G04 #@! TD.AperFunction*
G04 #@! TA.AperFunction,SMDPad,CuDef*
G36*
G01*
X87504000Y-90579000D02*
X87504000Y-90379000D01*
G75*
G02*
X87604000Y-90279000I100000J0D01*
G01*
X88879000Y-90279000D01*
G75*
G02*
X88979000Y-90379000I0J-100000D01*
G01*
X88979000Y-90579000D01*
G75*
G02*
X88879000Y-90679000I-100000J0D01*
G01*
X87604000Y-90679000D01*
G75*
G02*
X87504000Y-90579000I0J100000D01*
G01*
G37*
G04 #@! TD.AperFunction*
G04 #@! TA.AperFunction,SMDPad,CuDef*
G36*
G01*
X87504000Y-91229000D02*
X87504000Y-91029000D01*
G75*
G02*
X87604000Y-90929000I100000J0D01*
G01*
X88879000Y-90929000D01*
G75*
G02*
X88979000Y-91029000I0J-100000D01*
G01*
X88979000Y-91229000D01*
G75*
G02*
X88879000Y-91329000I-100000J0D01*
G01*
X87604000Y-91329000D01*
G75*
G02*
X87504000Y-91229000I0J100000D01*
G01*
G37*
G04 #@! TD.AperFunction*
G04 #@! TA.AperFunction,SMDPad,CuDef*
G36*
G01*
X87504000Y-91879000D02*
X87504000Y-91679000D01*
G75*
G02*
X87604000Y-91579000I100000J0D01*
G01*
X88879000Y-91579000D01*
G75*
G02*
X88979000Y-91679000I0J-100000D01*
G01*
X88979000Y-91879000D01*
G75*
G02*
X88879000Y-91979000I-100000J0D01*
G01*
X87604000Y-91979000D01*
G75*
G02*
X87504000Y-91879000I0J100000D01*
G01*
G37*
G04 #@! TD.AperFunction*
G04 #@! TA.AperFunction,SMDPad,CuDef*
G36*
G01*
X81779000Y-91879000D02*
X81779000Y-91679000D01*
G75*
G02*
X81879000Y-91579000I100000J0D01*
G01*
X83154000Y-91579000D01*
G75*
G02*
X83254000Y-91679000I0J-100000D01*
G01*
X83254000Y-91879000D01*
G75*
G02*
X83154000Y-91979000I-100000J0D01*
G01*
X81879000Y-91979000D01*
G75*
G02*
X81779000Y-91879000I0J100000D01*
G01*
G37*
G04 #@! TD.AperFunction*
G04 #@! TA.AperFunction,SMDPad,CuDef*
G36*
G01*
X81779000Y-91229000D02*
X81779000Y-91029000D01*
G75*
G02*
X81879000Y-90929000I100000J0D01*
G01*
X83154000Y-90929000D01*
G75*
G02*
X83254000Y-91029000I0J-100000D01*
G01*
X83254000Y-91229000D01*
G75*
G02*
X83154000Y-91329000I-100000J0D01*
G01*
X81879000Y-91329000D01*
G75*
G02*
X81779000Y-91229000I0J100000D01*
G01*
G37*
G04 #@! TD.AperFunction*
G04 #@! TA.AperFunction,SMDPad,CuDef*
G36*
G01*
X81779000Y-90579000D02*
X81779000Y-90379000D01*
G75*
G02*
X81879000Y-90279000I100000J0D01*
G01*
X83154000Y-90279000D01*
G75*
G02*
X83254000Y-90379000I0J-100000D01*
G01*
X83254000Y-90579000D01*
G75*
G02*
X83154000Y-90679000I-100000J0D01*
G01*
X81879000Y-90679000D01*
G75*
G02*
X81779000Y-90579000I0J100000D01*
G01*
G37*
G04 #@! TD.AperFunction*
G04 #@! TA.AperFunction,SMDPad,CuDef*
G36*
G01*
X81779000Y-89929000D02*
X81779000Y-89729000D01*
G75*
G02*
X81879000Y-89629000I100000J0D01*
G01*
X83154000Y-89629000D01*
G75*
G02*
X83254000Y-89729000I0J-100000D01*
G01*
X83254000Y-89929000D01*
G75*
G02*
X83154000Y-90029000I-100000J0D01*
G01*
X81879000Y-90029000D01*
G75*
G02*
X81779000Y-89929000I0J100000D01*
G01*
G37*
G04 #@! TD.AperFunction*
G04 #@! TA.AperFunction,SMDPad,CuDef*
G36*
G01*
X81779000Y-89279000D02*
X81779000Y-89079000D01*
G75*
G02*
X81879000Y-88979000I100000J0D01*
G01*
X83154000Y-88979000D01*
G75*
G02*
X83254000Y-89079000I0J-100000D01*
G01*
X83254000Y-89279000D01*
G75*
G02*
X83154000Y-89379000I-100000J0D01*
G01*
X81879000Y-89379000D01*
G75*
G02*
X81779000Y-89279000I0J100000D01*
G01*
G37*
G04 #@! TD.AperFunction*
G04 #@! TA.AperFunction,SMDPad,CuDef*
G36*
G01*
X81779000Y-88629000D02*
X81779000Y-88429000D01*
G75*
G02*
X81879000Y-88329000I100000J0D01*
G01*
X83154000Y-88329000D01*
G75*
G02*
X83254000Y-88429000I0J-100000D01*
G01*
X83254000Y-88629000D01*
G75*
G02*
X83154000Y-88729000I-100000J0D01*
G01*
X81879000Y-88729000D01*
G75*
G02*
X81779000Y-88629000I0J100000D01*
G01*
G37*
G04 #@! TD.AperFunction*
G04 #@! TA.AperFunction,SMDPad,CuDef*
G36*
G01*
X81779000Y-87979000D02*
X81779000Y-87779000D01*
G75*
G02*
X81879000Y-87679000I100000J0D01*
G01*
X83154000Y-87679000D01*
G75*
G02*
X83254000Y-87779000I0J-100000D01*
G01*
X83254000Y-87979000D01*
G75*
G02*
X83154000Y-88079000I-100000J0D01*
G01*
X81879000Y-88079000D01*
G75*
G02*
X81779000Y-87979000I0J100000D01*
G01*
G37*
G04 #@! TD.AperFunction*
G04 #@! TA.AperFunction,SMDPad,CuDef*
G36*
G01*
X81779000Y-87329000D02*
X81779000Y-87129000D01*
G75*
G02*
X81879000Y-87029000I100000J0D01*
G01*
X83154000Y-87029000D01*
G75*
G02*
X83254000Y-87129000I0J-100000D01*
G01*
X83254000Y-87329000D01*
G75*
G02*
X83154000Y-87429000I-100000J0D01*
G01*
X81879000Y-87429000D01*
G75*
G02*
X81779000Y-87329000I0J100000D01*
G01*
G37*
G04 #@! TD.AperFunction*
G04 #@! TA.AperFunction,SMDPad,CuDef*
G36*
G01*
X81779000Y-86679000D02*
X81779000Y-86479000D01*
G75*
G02*
X81879000Y-86379000I100000J0D01*
G01*
X83154000Y-86379000D01*
G75*
G02*
X83254000Y-86479000I0J-100000D01*
G01*
X83254000Y-86679000D01*
G75*
G02*
X83154000Y-86779000I-100000J0D01*
G01*
X81879000Y-86779000D01*
G75*
G02*
X81779000Y-86679000I0J100000D01*
G01*
G37*
G04 #@! TD.AperFunction*
G04 #@! TA.AperFunction,SMDPad,CuDef*
G36*
G01*
X81779000Y-86029000D02*
X81779000Y-85829000D01*
G75*
G02*
X81879000Y-85729000I100000J0D01*
G01*
X83154000Y-85729000D01*
G75*
G02*
X83254000Y-85829000I0J-100000D01*
G01*
X83254000Y-86029000D01*
G75*
G02*
X83154000Y-86129000I-100000J0D01*
G01*
X81879000Y-86129000D01*
G75*
G02*
X81779000Y-86029000I0J100000D01*
G01*
G37*
G04 #@! TD.AperFunction*
G04 #@! TA.AperFunction,SMDPad,CuDef*
G36*
G01*
X95588000Y-91884000D02*
X95928000Y-91884000D01*
G75*
G02*
X96068000Y-92024000I0J-140000D01*
G01*
X96068000Y-92304000D01*
G75*
G02*
X95928000Y-92444000I-140000J0D01*
G01*
X95588000Y-92444000D01*
G75*
G02*
X95448000Y-92304000I0J140000D01*
G01*
X95448000Y-92024000D01*
G75*
G02*
X95588000Y-91884000I140000J0D01*
G01*
G37*
G04 #@! TD.AperFunction*
G04 #@! TA.AperFunction,SMDPad,CuDef*
G36*
G01*
X95588000Y-90924000D02*
X95928000Y-90924000D01*
G75*
G02*
X96068000Y-91064000I0J-140000D01*
G01*
X96068000Y-91344000D01*
G75*
G02*
X95928000Y-91484000I-140000J0D01*
G01*
X95588000Y-91484000D01*
G75*
G02*
X95448000Y-91344000I0J140000D01*
G01*
X95448000Y-91064000D01*
G75*
G02*
X95588000Y-90924000I140000J0D01*
G01*
G37*
G04 #@! TD.AperFunction*
G04 #@! TA.AperFunction,SMDPad,CuDef*
G36*
G01*
X90438000Y-91725000D02*
X90438000Y-92095000D01*
G75*
G02*
X90303000Y-92230000I-135000J0D01*
G01*
X90033000Y-92230000D01*
G75*
G02*
X89898000Y-92095000I0J135000D01*
G01*
X89898000Y-91725000D01*
G75*
G02*
X90033000Y-91590000I135000J0D01*
G01*
X90303000Y-91590000D01*
G75*
G02*
X90438000Y-91725000I0J-135000D01*
G01*
G37*
G04 #@! TD.AperFunction*
G04 #@! TA.AperFunction,SMDPad,CuDef*
G36*
G01*
X91458000Y-91725000D02*
X91458000Y-92095000D01*
G75*
G02*
X91323000Y-92230000I-135000J0D01*
G01*
X91053000Y-92230000D01*
G75*
G02*
X90918000Y-92095000I0J135000D01*
G01*
X90918000Y-91725000D01*
G75*
G02*
X91053000Y-91590000I135000J0D01*
G01*
X91323000Y-91590000D01*
G75*
G02*
X91458000Y-91725000I0J-135000D01*
G01*
G37*
G04 #@! TD.AperFunction*
G04 #@! TA.AperFunction,SMDPad,CuDef*
G36*
G01*
X90438000Y-90709000D02*
X90438000Y-91079000D01*
G75*
G02*
X90303000Y-91214000I-135000J0D01*
G01*
X90033000Y-91214000D01*
G75*
G02*
X89898000Y-91079000I0J135000D01*
G01*
X89898000Y-90709000D01*
G75*
G02*
X90033000Y-90574000I135000J0D01*
G01*
X90303000Y-90574000D01*
G75*
G02*
X90438000Y-90709000I0J-135000D01*
G01*
G37*
G04 #@! TD.AperFunction*
G04 #@! TA.AperFunction,SMDPad,CuDef*
G36*
G01*
X91458000Y-90709000D02*
X91458000Y-91079000D01*
G75*
G02*
X91323000Y-91214000I-135000J0D01*
G01*
X91053000Y-91214000D01*
G75*
G02*
X90918000Y-91079000I0J135000D01*
G01*
X90918000Y-90709000D01*
G75*
G02*
X91053000Y-90574000I135000J0D01*
G01*
X91323000Y-90574000D01*
G75*
G02*
X91458000Y-90709000I0J-135000D01*
G01*
G37*
G04 #@! TD.AperFunction*
G04 #@! TA.AperFunction,SMDPad,CuDef*
G36*
G01*
X80195000Y-94718000D02*
X79825000Y-94718000D01*
G75*
G02*
X79690000Y-94583000I0J135000D01*
G01*
X79690000Y-94313000D01*
G75*
G02*
X79825000Y-94178000I135000J0D01*
G01*
X80195000Y-94178000D01*
G75*
G02*
X80330000Y-94313000I0J-135000D01*
G01*
X80330000Y-94583000D01*
G75*
G02*
X80195000Y-94718000I-135000J0D01*
G01*
G37*
G04 #@! TD.AperFunction*
G04 #@! TA.AperFunction,SMDPad,CuDef*
G36*
G01*
X80195000Y-95738000D02*
X79825000Y-95738000D01*
G75*
G02*
X79690000Y-95603000I0J135000D01*
G01*
X79690000Y-95333000D01*
G75*
G02*
X79825000Y-95198000I135000J0D01*
G01*
X80195000Y-95198000D01*
G75*
G02*
X80330000Y-95333000I0J-135000D01*
G01*
X80330000Y-95603000D01*
G75*
G02*
X80195000Y-95738000I-135000J0D01*
G01*
G37*
G04 #@! TD.AperFunction*
G04 #@! TA.AperFunction,SMDPad,CuDef*
G36*
G01*
X93469750Y-96070000D02*
X93982250Y-96070000D01*
G75*
G02*
X94201000Y-96288750I0J-218750D01*
G01*
X94201000Y-96726250D01*
G75*
G02*
X93982250Y-96945000I-218750J0D01*
G01*
X93469750Y-96945000D01*
G75*
G02*
X93251000Y-96726250I0J218750D01*
G01*
X93251000Y-96288750D01*
G75*
G02*
X93469750Y-96070000I218750J0D01*
G01*
G37*
G04 #@! TD.AperFunction*
G04 #@! TA.AperFunction,SMDPad,CuDef*
G36*
G01*
X93469750Y-94495000D02*
X93982250Y-94495000D01*
G75*
G02*
X94201000Y-94713750I0J-218750D01*
G01*
X94201000Y-95151250D01*
G75*
G02*
X93982250Y-95370000I-218750J0D01*
G01*
X93469750Y-95370000D01*
G75*
G02*
X93251000Y-95151250I0J218750D01*
G01*
X93251000Y-94713750D01*
G75*
G02*
X93469750Y-94495000I218750J0D01*
G01*
G37*
G04 #@! TD.AperFunction*
G04 #@! TA.AperFunction,SMDPad,CuDef*
G36*
G01*
X85087750Y-96070000D02*
X85600250Y-96070000D01*
G75*
G02*
X85819000Y-96288750I0J-218750D01*
G01*
X85819000Y-96726250D01*
G75*
G02*
X85600250Y-96945000I-218750J0D01*
G01*
X85087750Y-96945000D01*
G75*
G02*
X84869000Y-96726250I0J218750D01*
G01*
X84869000Y-96288750D01*
G75*
G02*
X85087750Y-96070000I218750J0D01*
G01*
G37*
G04 #@! TD.AperFunction*
G04 #@! TA.AperFunction,SMDPad,CuDef*
G36*
G01*
X85087750Y-94495000D02*
X85600250Y-94495000D01*
G75*
G02*
X85819000Y-94713750I0J-218750D01*
G01*
X85819000Y-95151250D01*
G75*
G02*
X85600250Y-95370000I-218750J0D01*
G01*
X85087750Y-95370000D01*
G75*
G02*
X84869000Y-95151250I0J218750D01*
G01*
X84869000Y-94713750D01*
G75*
G02*
X85087750Y-94495000I218750J0D01*
G01*
G37*
G04 #@! TD.AperFunction*
G04 #@! TA.AperFunction,SMDPad,CuDef*
G36*
G01*
X88577000Y-94718000D02*
X88207000Y-94718000D01*
G75*
G02*
X88072000Y-94583000I0J135000D01*
G01*
X88072000Y-94313000D01*
G75*
G02*
X88207000Y-94178000I135000J0D01*
G01*
X88577000Y-94178000D01*
G75*
G02*
X88712000Y-94313000I0J-135000D01*
G01*
X88712000Y-94583000D01*
G75*
G02*
X88577000Y-94718000I-135000J0D01*
G01*
G37*
G04 #@! TD.AperFunction*
G04 #@! TA.AperFunction,SMDPad,CuDef*
G36*
G01*
X88577000Y-95738000D02*
X88207000Y-95738000D01*
G75*
G02*
X88072000Y-95603000I0J135000D01*
G01*
X88072000Y-95333000D01*
G75*
G02*
X88207000Y-95198000I135000J0D01*
G01*
X88577000Y-95198000D01*
G75*
G02*
X88712000Y-95333000I0J-135000D01*
G01*
X88712000Y-95603000D01*
G75*
G02*
X88577000Y-95738000I-135000J0D01*
G01*
G37*
G04 #@! TD.AperFunction*
D19*
X91932000Y-95720000D03*
X89932000Y-96670000D03*
X89932000Y-94770000D03*
X83550000Y-95720000D03*
X81550000Y-96670000D03*
X81550000Y-94770000D03*
G04 #@! TA.AperFunction,SMDPad,CuDef*
G36*
G01*
X104789000Y-83089000D02*
X104789000Y-83459000D01*
G75*
G02*
X104654000Y-83594000I-135000J0D01*
G01*
X104384000Y-83594000D01*
G75*
G02*
X104249000Y-83459000I0J135000D01*
G01*
X104249000Y-83089000D01*
G75*
G02*
X104384000Y-82954000I135000J0D01*
G01*
X104654000Y-82954000D01*
G75*
G02*
X104789000Y-83089000I0J-135000D01*
G01*
G37*
G04 #@! TD.AperFunction*
G04 #@! TA.AperFunction,SMDPad,CuDef*
G36*
G01*
X105809000Y-83089000D02*
X105809000Y-83459000D01*
G75*
G02*
X105674000Y-83594000I-135000J0D01*
G01*
X105404000Y-83594000D01*
G75*
G02*
X105269000Y-83459000I0J135000D01*
G01*
X105269000Y-83089000D01*
G75*
G02*
X105404000Y-82954000I135000J0D01*
G01*
X105674000Y-82954000D01*
G75*
G02*
X105809000Y-83089000I0J-135000D01*
G01*
G37*
G04 #@! TD.AperFunction*
G04 #@! TA.AperFunction,SMDPad,CuDef*
G36*
G01*
X104789000Y-84359000D02*
X104789000Y-84729000D01*
G75*
G02*
X104654000Y-84864000I-135000J0D01*
G01*
X104384000Y-84864000D01*
G75*
G02*
X104249000Y-84729000I0J135000D01*
G01*
X104249000Y-84359000D01*
G75*
G02*
X104384000Y-84224000I135000J0D01*
G01*
X104654000Y-84224000D01*
G75*
G02*
X104789000Y-84359000I0J-135000D01*
G01*
G37*
G04 #@! TD.AperFunction*
G04 #@! TA.AperFunction,SMDPad,CuDef*
G36*
G01*
X105809000Y-84359000D02*
X105809000Y-84729000D01*
G75*
G02*
X105674000Y-84864000I-135000J0D01*
G01*
X105404000Y-84864000D01*
G75*
G02*
X105269000Y-84729000I0J135000D01*
G01*
X105269000Y-84359000D01*
G75*
G02*
X105404000Y-84224000I135000J0D01*
G01*
X105674000Y-84224000D01*
G75*
G02*
X105809000Y-84359000I0J-135000D01*
G01*
G37*
G04 #@! TD.AperFunction*
G04 #@! TA.AperFunction,SMDPad,CuDef*
G36*
G01*
X105269000Y-85999000D02*
X105269000Y-85629000D01*
G75*
G02*
X105404000Y-85494000I135000J0D01*
G01*
X105674000Y-85494000D01*
G75*
G02*
X105809000Y-85629000I0J-135000D01*
G01*
X105809000Y-85999000D01*
G75*
G02*
X105674000Y-86134000I-135000J0D01*
G01*
X105404000Y-86134000D01*
G75*
G02*
X105269000Y-85999000I0J135000D01*
G01*
G37*
G04 #@! TD.AperFunction*
G04 #@! TA.AperFunction,SMDPad,CuDef*
G36*
G01*
X104249000Y-85999000D02*
X104249000Y-85629000D01*
G75*
G02*
X104384000Y-85494000I135000J0D01*
G01*
X104654000Y-85494000D01*
G75*
G02*
X104789000Y-85629000I0J-135000D01*
G01*
X104789000Y-85999000D01*
G75*
G02*
X104654000Y-86134000I-135000J0D01*
G01*
X104384000Y-86134000D01*
G75*
G02*
X104249000Y-85999000I0J135000D01*
G01*
G37*
G04 #@! TD.AperFunction*
G04 #@! TA.AperFunction,SMDPad,CuDef*
D10*
G36*
X101995000Y-93754500D02*
G01*
X98870000Y-93754500D01*
X98870000Y-93338000D01*
X97395000Y-93338000D01*
X97395000Y-92438000D01*
X98870000Y-92438000D01*
X98870000Y-92021500D01*
X101995000Y-92021500D01*
X101995000Y-93754500D01*
G37*
G04 #@! TD.AperFunction*
D20*
X98045000Y-94388000D03*
X98045000Y-91388000D03*
D12*
X81788000Y-109728000D03*
X81788000Y-104648000D03*
X105410000Y-120739000D03*
X110490000Y-120739000D03*
G04 #@! TA.AperFunction,SMDPad,CuDef*
G36*
G01*
X110064000Y-94534000D02*
X110064000Y-94874000D01*
G75*
G02*
X109924000Y-95014000I-140000J0D01*
G01*
X109644000Y-95014000D01*
G75*
G02*
X109504000Y-94874000I0J140000D01*
G01*
X109504000Y-94534000D01*
G75*
G02*
X109644000Y-94394000I140000J0D01*
G01*
X109924000Y-94394000D01*
G75*
G02*
X110064000Y-94534000I0J-140000D01*
G01*
G37*
G04 #@! TD.AperFunction*
G04 #@! TA.AperFunction,SMDPad,CuDef*
G36*
G01*
X111024000Y-94534000D02*
X111024000Y-94874000D01*
G75*
G02*
X110884000Y-95014000I-140000J0D01*
G01*
X110604000Y-95014000D01*
G75*
G02*
X110464000Y-94874000I0J140000D01*
G01*
X110464000Y-94534000D01*
G75*
G02*
X110604000Y-94394000I140000J0D01*
G01*
X110884000Y-94394000D01*
G75*
G02*
X111024000Y-94534000I0J-140000D01*
G01*
G37*
G04 #@! TD.AperFunction*
G04 #@! TA.AperFunction,SMDPad,CuDef*
G36*
G01*
X120478000Y-94534000D02*
X120478000Y-94874000D01*
G75*
G02*
X120338000Y-95014000I-140000J0D01*
G01*
X120058000Y-95014000D01*
G75*
G02*
X119918000Y-94874000I0J140000D01*
G01*
X119918000Y-94534000D01*
G75*
G02*
X120058000Y-94394000I140000J0D01*
G01*
X120338000Y-94394000D01*
G75*
G02*
X120478000Y-94534000I0J-140000D01*
G01*
G37*
G04 #@! TD.AperFunction*
G04 #@! TA.AperFunction,SMDPad,CuDef*
G36*
G01*
X121438000Y-94534000D02*
X121438000Y-94874000D01*
G75*
G02*
X121298000Y-95014000I-140000J0D01*
G01*
X121018000Y-95014000D01*
G75*
G02*
X120878000Y-94874000I0J140000D01*
G01*
X120878000Y-94534000D01*
G75*
G02*
X121018000Y-94394000I140000J0D01*
G01*
X121298000Y-94394000D01*
G75*
G02*
X121438000Y-94534000I0J-140000D01*
G01*
G37*
G04 #@! TD.AperFunction*
G04 #@! TA.AperFunction,SMDPad,CuDef*
G36*
G01*
X118636000Y-95281000D02*
X118636000Y-95651000D01*
G75*
G02*
X118501000Y-95786000I-135000J0D01*
G01*
X118231000Y-95786000D01*
G75*
G02*
X118096000Y-95651000I0J135000D01*
G01*
X118096000Y-95281000D01*
G75*
G02*
X118231000Y-95146000I135000J0D01*
G01*
X118501000Y-95146000D01*
G75*
G02*
X118636000Y-95281000I0J-135000D01*
G01*
G37*
G04 #@! TD.AperFunction*
G04 #@! TA.AperFunction,SMDPad,CuDef*
G36*
G01*
X117616000Y-95281000D02*
X117616000Y-95651000D01*
G75*
G02*
X117481000Y-95786000I-135000J0D01*
G01*
X117211000Y-95786000D01*
G75*
G02*
X117076000Y-95651000I0J135000D01*
G01*
X117076000Y-95281000D01*
G75*
G02*
X117211000Y-95146000I135000J0D01*
G01*
X117481000Y-95146000D01*
G75*
G02*
X117616000Y-95281000I0J-135000D01*
G01*
G37*
G04 #@! TD.AperFunction*
G04 #@! TA.AperFunction,SMDPad,CuDef*
G36*
G01*
X118096000Y-97404000D02*
X118096000Y-97084000D01*
G75*
G02*
X118256000Y-96924000I160000J0D01*
G01*
X118651000Y-96924000D01*
G75*
G02*
X118811000Y-97084000I0J-160000D01*
G01*
X118811000Y-97404000D01*
G75*
G02*
X118651000Y-97564000I-160000J0D01*
G01*
X118256000Y-97564000D01*
G75*
G02*
X118096000Y-97404000I0J160000D01*
G01*
G37*
G04 #@! TD.AperFunction*
G04 #@! TA.AperFunction,SMDPad,CuDef*
G36*
G01*
X116901000Y-97404000D02*
X116901000Y-97084000D01*
G75*
G02*
X117061000Y-96924000I160000J0D01*
G01*
X117456000Y-96924000D01*
G75*
G02*
X117616000Y-97084000I0J-160000D01*
G01*
X117616000Y-97404000D01*
G75*
G02*
X117456000Y-97564000I-160000J0D01*
G01*
X117061000Y-97564000D01*
G75*
G02*
X116901000Y-97404000I0J160000D01*
G01*
G37*
G04 #@! TD.AperFunction*
D19*
X113681000Y-96294000D03*
X113681000Y-98194000D03*
X115681000Y-97244000D03*
X120031000Y-96294000D03*
X120031000Y-98194000D03*
X122031000Y-97244000D03*
G04 #@! TA.AperFunction,SMDPad,CuDef*
G36*
G01*
X117656000Y-98359000D02*
X117656000Y-98669000D01*
G75*
G02*
X117501000Y-98824000I-155000J0D01*
G01*
X117076000Y-98824000D01*
G75*
G02*
X116921000Y-98669000I0J155000D01*
G01*
X116921000Y-98359000D01*
G75*
G02*
X117076000Y-98204000I155000J0D01*
G01*
X117501000Y-98204000D01*
G75*
G02*
X117656000Y-98359000I0J-155000D01*
G01*
G37*
G04 #@! TD.AperFunction*
G04 #@! TA.AperFunction,SMDPad,CuDef*
G36*
G01*
X118791000Y-98359000D02*
X118791000Y-98669000D01*
G75*
G02*
X118636000Y-98824000I-155000J0D01*
G01*
X118211000Y-98824000D01*
G75*
G02*
X118056000Y-98669000I0J155000D01*
G01*
X118056000Y-98359000D01*
G75*
G02*
X118211000Y-98204000I155000J0D01*
G01*
X118636000Y-98204000D01*
G75*
G02*
X118791000Y-98359000I0J-155000D01*
G01*
G37*
G04 #@! TD.AperFunction*
X109617000Y-96294000D03*
X109617000Y-98194000D03*
X111617000Y-97244000D03*
G04 #@! TA.AperFunction,SMDPad,CuDef*
G36*
G01*
X108222000Y-95281000D02*
X108222000Y-95651000D01*
G75*
G02*
X108087000Y-95786000I-135000J0D01*
G01*
X107817000Y-95786000D01*
G75*
G02*
X107682000Y-95651000I0J135000D01*
G01*
X107682000Y-95281000D01*
G75*
G02*
X107817000Y-95146000I135000J0D01*
G01*
X108087000Y-95146000D01*
G75*
G02*
X108222000Y-95281000I0J-135000D01*
G01*
G37*
G04 #@! TD.AperFunction*
G04 #@! TA.AperFunction,SMDPad,CuDef*
G36*
G01*
X107202000Y-95281000D02*
X107202000Y-95651000D01*
G75*
G02*
X107067000Y-95786000I-135000J0D01*
G01*
X106797000Y-95786000D01*
G75*
G02*
X106662000Y-95651000I0J135000D01*
G01*
X106662000Y-95281000D01*
G75*
G02*
X106797000Y-95146000I135000J0D01*
G01*
X107067000Y-95146000D01*
G75*
G02*
X107202000Y-95281000I0J-135000D01*
G01*
G37*
G04 #@! TD.AperFunction*
G04 #@! TA.AperFunction,SMDPad,CuDef*
G36*
G01*
X107682000Y-97404000D02*
X107682000Y-97084000D01*
G75*
G02*
X107842000Y-96924000I160000J0D01*
G01*
X108237000Y-96924000D01*
G75*
G02*
X108397000Y-97084000I0J-160000D01*
G01*
X108397000Y-97404000D01*
G75*
G02*
X108237000Y-97564000I-160000J0D01*
G01*
X107842000Y-97564000D01*
G75*
G02*
X107682000Y-97404000I0J160000D01*
G01*
G37*
G04 #@! TD.AperFunction*
G04 #@! TA.AperFunction,SMDPad,CuDef*
G36*
G01*
X106487000Y-97404000D02*
X106487000Y-97084000D01*
G75*
G02*
X106647000Y-96924000I160000J0D01*
G01*
X107042000Y-96924000D01*
G75*
G02*
X107202000Y-97084000I0J-160000D01*
G01*
X107202000Y-97404000D01*
G75*
G02*
X107042000Y-97564000I-160000J0D01*
G01*
X106647000Y-97564000D01*
G75*
G02*
X106487000Y-97404000I0J160000D01*
G01*
G37*
G04 #@! TD.AperFunction*
X103267000Y-96294000D03*
X103267000Y-98194000D03*
X105267000Y-97244000D03*
G04 #@! TA.AperFunction,SMDPad,CuDef*
G36*
G01*
X107242000Y-98359000D02*
X107242000Y-98669000D01*
G75*
G02*
X107087000Y-98824000I-155000J0D01*
G01*
X106662000Y-98824000D01*
G75*
G02*
X106507000Y-98669000I0J155000D01*
G01*
X106507000Y-98359000D01*
G75*
G02*
X106662000Y-98204000I155000J0D01*
G01*
X107087000Y-98204000D01*
G75*
G02*
X107242000Y-98359000I0J-155000D01*
G01*
G37*
G04 #@! TD.AperFunction*
G04 #@! TA.AperFunction,SMDPad,CuDef*
G36*
G01*
X108377000Y-98359000D02*
X108377000Y-98669000D01*
G75*
G02*
X108222000Y-98824000I-155000J0D01*
G01*
X107797000Y-98824000D01*
G75*
G02*
X107642000Y-98669000I0J155000D01*
G01*
X107642000Y-98359000D01*
G75*
G02*
X107797000Y-98204000I155000J0D01*
G01*
X108222000Y-98204000D01*
G75*
G02*
X108377000Y-98359000I0J-155000D01*
G01*
G37*
G04 #@! TD.AperFunction*
G04 #@! TA.AperFunction,SMDPad,CuDef*
G36*
G01*
X96008000Y-93871000D02*
X95508000Y-93871000D01*
G75*
G02*
X95283000Y-93646000I0J225000D01*
G01*
X95283000Y-93196000D01*
G75*
G02*
X95508000Y-92971000I225000J0D01*
G01*
X96008000Y-92971000D01*
G75*
G02*
X96233000Y-93196000I0J-225000D01*
G01*
X96233000Y-93646000D01*
G75*
G02*
X96008000Y-93871000I-225000J0D01*
G01*
G37*
G04 #@! TD.AperFunction*
G04 #@! TA.AperFunction,SMDPad,CuDef*
G36*
G01*
X96008000Y-95421000D02*
X95508000Y-95421000D01*
G75*
G02*
X95283000Y-95196000I0J225000D01*
G01*
X95283000Y-94746000D01*
G75*
G02*
X95508000Y-94521000I225000J0D01*
G01*
X96008000Y-94521000D01*
G75*
G02*
X96233000Y-94746000I0J-225000D01*
G01*
X96233000Y-95196000D01*
G75*
G02*
X96008000Y-95421000I-225000J0D01*
G01*
G37*
G04 #@! TD.AperFunction*
G04 #@! TA.AperFunction,SMDPad,CuDef*
G36*
G01*
X80518000Y-91550000D02*
X80518000Y-91210000D01*
G75*
G02*
X80658000Y-91070000I140000J0D01*
G01*
X80938000Y-91070000D01*
G75*
G02*
X81078000Y-91210000I0J-140000D01*
G01*
X81078000Y-91550000D01*
G75*
G02*
X80938000Y-91690000I-140000J0D01*
G01*
X80658000Y-91690000D01*
G75*
G02*
X80518000Y-91550000I0J140000D01*
G01*
G37*
G04 #@! TD.AperFunction*
G04 #@! TA.AperFunction,SMDPad,CuDef*
G36*
G01*
X79558000Y-91550000D02*
X79558000Y-91210000D01*
G75*
G02*
X79698000Y-91070000I140000J0D01*
G01*
X79978000Y-91070000D01*
G75*
G02*
X80118000Y-91210000I0J-140000D01*
G01*
X80118000Y-91550000D01*
G75*
G02*
X79978000Y-91690000I-140000J0D01*
G01*
X79698000Y-91690000D01*
G75*
G02*
X79558000Y-91550000I0J140000D01*
G01*
G37*
G04 #@! TD.AperFunction*
G04 #@! TA.AperFunction,SMDPad,CuDef*
G36*
G01*
X80118000Y-87710000D02*
X80118000Y-88050000D01*
G75*
G02*
X79978000Y-88190000I-140000J0D01*
G01*
X79698000Y-88190000D01*
G75*
G02*
X79558000Y-88050000I0J140000D01*
G01*
X79558000Y-87710000D01*
G75*
G02*
X79698000Y-87570000I140000J0D01*
G01*
X79978000Y-87570000D01*
G75*
G02*
X80118000Y-87710000I0J-140000D01*
G01*
G37*
G04 #@! TD.AperFunction*
G04 #@! TA.AperFunction,SMDPad,CuDef*
G36*
G01*
X81078000Y-87710000D02*
X81078000Y-88050000D01*
G75*
G02*
X80938000Y-88190000I-140000J0D01*
G01*
X80658000Y-88190000D01*
G75*
G02*
X80518000Y-88050000I0J140000D01*
G01*
X80518000Y-87710000D01*
G75*
G02*
X80658000Y-87570000I140000J0D01*
G01*
X80938000Y-87570000D01*
G75*
G02*
X81078000Y-87710000I0J-140000D01*
G01*
G37*
G04 #@! TD.AperFunction*
G04 #@! TA.AperFunction,SMDPad,CuDef*
G36*
G01*
X80118000Y-90160000D02*
X80118000Y-90500000D01*
G75*
G02*
X79978000Y-90640000I-140000J0D01*
G01*
X79698000Y-90640000D01*
G75*
G02*
X79558000Y-90500000I0J140000D01*
G01*
X79558000Y-90160000D01*
G75*
G02*
X79698000Y-90020000I140000J0D01*
G01*
X79978000Y-90020000D01*
G75*
G02*
X80118000Y-90160000I0J-140000D01*
G01*
G37*
G04 #@! TD.AperFunction*
G04 #@! TA.AperFunction,SMDPad,CuDef*
G36*
G01*
X81078000Y-90160000D02*
X81078000Y-90500000D01*
G75*
G02*
X80938000Y-90640000I-140000J0D01*
G01*
X80658000Y-90640000D01*
G75*
G02*
X80518000Y-90500000I0J140000D01*
G01*
X80518000Y-90160000D01*
G75*
G02*
X80658000Y-90020000I140000J0D01*
G01*
X80938000Y-90020000D01*
G75*
G02*
X81078000Y-90160000I0J-140000D01*
G01*
G37*
G04 #@! TD.AperFunction*
D21*
X124460000Y-91440000D03*
X120015000Y-101600000D03*
X118110000Y-114300000D03*
X97790000Y-114300000D03*
X78105000Y-118745000D03*
X79086000Y-90977735D03*
X79086000Y-90005000D03*
X108712000Y-94704000D03*
X119126000Y-94704000D03*
X116332000Y-94704000D03*
X105918000Y-94704000D03*
X82550000Y-96900000D03*
X90932000Y-96900000D03*
X96774000Y-92202000D03*
X96774000Y-93472000D03*
X101578900Y-83289931D03*
X101600000Y-84582000D03*
X101600000Y-85824010D03*
X120015000Y-104140000D03*
X117475000Y-104140000D03*
X114935000Y-104140000D03*
X112395000Y-104140000D03*
X109855000Y-104140000D03*
X107315000Y-104140000D03*
X104775000Y-104140000D03*
X102235000Y-104140000D03*
X102235000Y-101600000D03*
X104775000Y-101600000D03*
X107315000Y-101600000D03*
X109855000Y-101600000D03*
X112395000Y-101600000D03*
X114935000Y-101600000D03*
X117475000Y-101600000D03*
X99695000Y-101600000D03*
X99695000Y-104140000D03*
X97155000Y-101600000D03*
X94615000Y-101600000D03*
X92075000Y-101600000D03*
X89535000Y-101600000D03*
X89535000Y-104140000D03*
X92075000Y-104140000D03*
X94615000Y-104140000D03*
X97155000Y-104140000D03*
X97155000Y-106680000D03*
X94615000Y-106680000D03*
X92075000Y-106680000D03*
X89535000Y-106680000D03*
X89535000Y-109220000D03*
X97155000Y-99060000D03*
X99695000Y-99060000D03*
X99695000Y-96520000D03*
X97155000Y-96520000D03*
X105410000Y-98425000D03*
X115824000Y-98425000D03*
X86995000Y-101600000D03*
X86995000Y-104140000D03*
X86995000Y-106680000D03*
X124460000Y-93980000D03*
X124460000Y-96520000D03*
X124460000Y-99060000D03*
X124460000Y-101600000D03*
X124460000Y-104140000D03*
X124460000Y-88900000D03*
X112395000Y-106680000D03*
X109855000Y-106680000D03*
X107315000Y-106680000D03*
X124460000Y-106680000D03*
X120015000Y-106680000D03*
X94615000Y-99060000D03*
X104775000Y-106680000D03*
X117475000Y-106680000D03*
X78105000Y-99060000D03*
X78105000Y-101600000D03*
X78105000Y-104140000D03*
X78740000Y-87376000D03*
X90678000Y-88138000D03*
X99695000Y-106680000D03*
X86706000Y-87122000D03*
X96036263Y-85914266D03*
X100308923Y-85914747D03*
X100330000Y-85090000D03*
X96012000Y-85090000D03*
X100296529Y-86750882D03*
X96046905Y-86752153D03*
X86106000Y-85598000D03*
X115570000Y-114300000D03*
X113030000Y-114300000D03*
X110490000Y-114300000D03*
X110490000Y-116840000D03*
X113030000Y-116840000D03*
X115570000Y-116840000D03*
X118110000Y-116840000D03*
X118110000Y-119380000D03*
X118110000Y-121920000D03*
X118110000Y-124460000D03*
X115570000Y-124460000D03*
X113030000Y-124460000D03*
X113030000Y-121920000D03*
X113030000Y-119380000D03*
X115570000Y-119380000D03*
X115570000Y-121920000D03*
X110490000Y-124460000D03*
X110490000Y-124460000D03*
X100330000Y-114300000D03*
X102870000Y-114300000D03*
X105410000Y-114300000D03*
X105410000Y-116840000D03*
X102870000Y-116840000D03*
X100330000Y-116840000D03*
X97790000Y-116840000D03*
X97790000Y-119380000D03*
X100330000Y-119380000D03*
X102870000Y-119380000D03*
X102870000Y-121920000D03*
X100330000Y-121920000D03*
X97790000Y-121920000D03*
X97790000Y-124460000D03*
X100330000Y-124460000D03*
X102870000Y-124460000D03*
X105410000Y-124460000D03*
X121158000Y-107442000D03*
X115316000Y-108712000D03*
X109728000Y-108712000D03*
X121920000Y-107950000D03*
X102108000Y-108712000D03*
X96520000Y-108712000D03*
X80645000Y-118745000D03*
X80645000Y-116205000D03*
X78105000Y-116205000D03*
X78105000Y-113665000D03*
X80645000Y-113665000D03*
X78105000Y-111125000D03*
X78105000Y-108585000D03*
X83185000Y-118745000D03*
X83185000Y-116205000D03*
X83185000Y-113665000D03*
X85725000Y-113665000D03*
X85725000Y-116205000D03*
X85725000Y-118745000D03*
X88265000Y-118745000D03*
X90805000Y-118745000D03*
X93345000Y-118745000D03*
X93345000Y-116205000D03*
X90805000Y-116205000D03*
X88265000Y-116205000D03*
X88265000Y-113665000D03*
X90805000Y-113665000D03*
X88265000Y-111125000D03*
X85725000Y-111125000D03*
X83185000Y-111125000D03*
X80645000Y-111125000D03*
X85725000Y-108585000D03*
X83185000Y-123825000D03*
X85725000Y-123825000D03*
X88265000Y-123825000D03*
X90805000Y-123825000D03*
X93345000Y-123825000D03*
X120523000Y-93815000D03*
X116195735Y-93824265D03*
X117983000Y-93815000D03*
X108712000Y-93815000D03*
X98298000Y-88646000D03*
X96774000Y-90770000D03*
X106934000Y-92964000D03*
X106934000Y-92964000D03*
X90932000Y-85090000D03*
D22*
X79488265Y-91380000D02*
X79086000Y-90977735D01*
X79838000Y-91380000D02*
X79488265Y-91380000D01*
X79411000Y-90330000D02*
X79086000Y-90005000D01*
X79838000Y-90330000D02*
X79411000Y-90330000D01*
X109784000Y-94704000D02*
X108712000Y-94704000D01*
X120198000Y-94704000D02*
X119126000Y-94704000D01*
X117094000Y-95466000D02*
X116332000Y-94704000D01*
X117346000Y-95466000D02*
X117094000Y-95466000D01*
X106680000Y-95466000D02*
X105918000Y-94704000D01*
X106932000Y-95466000D02*
X106680000Y-95466000D01*
X82320000Y-96670000D02*
X82550000Y-96900000D01*
X81550000Y-96670000D02*
X82320000Y-96670000D01*
X90702000Y-96670000D02*
X90932000Y-96900000D01*
X89932000Y-96670000D02*
X90702000Y-96670000D01*
X80448010Y-89719990D02*
X79838000Y-90330000D01*
X82391990Y-89719990D02*
X80448010Y-89719990D01*
X82501000Y-89829000D02*
X82391990Y-89719990D01*
X82516500Y-89829000D02*
X82501000Y-89829000D01*
X79838000Y-90330000D02*
X79838000Y-91380000D01*
X96482000Y-92888000D02*
X95758000Y-92164000D01*
X98132500Y-92888000D02*
X96482000Y-92888000D01*
X96291000Y-92888000D02*
X95758000Y-93421000D01*
X98132500Y-92888000D02*
X96291000Y-92888000D01*
X96736000Y-92164000D02*
X96774000Y-92202000D01*
X95758000Y-92164000D02*
X96736000Y-92164000D01*
X96723000Y-93421000D02*
X96774000Y-93472000D01*
X95758000Y-93421000D02*
X96723000Y-93421000D01*
X101594831Y-83274000D02*
X101578900Y-83289931D01*
X102517000Y-83274000D02*
X101594831Y-83274000D01*
X102170990Y-83249010D02*
X102553010Y-83249010D01*
X101662990Y-83249010D02*
X102553010Y-83249010D01*
X101638000Y-84544000D02*
X101600000Y-84582000D01*
X102517000Y-84544000D02*
X101638000Y-84544000D01*
X101610010Y-85814000D02*
X101600000Y-85824010D01*
X102517000Y-85814000D02*
X101610010Y-85814000D01*
X105267000Y-98282000D02*
X105410000Y-98425000D01*
X105267000Y-97244000D02*
X105267000Y-98282000D01*
X105499000Y-98514000D02*
X105410000Y-98425000D01*
X106874500Y-98514000D02*
X105499000Y-98514000D01*
X115681000Y-97244000D02*
X115681000Y-98282000D01*
X115681000Y-98282000D02*
X115824000Y-98425000D01*
X115913000Y-98514000D02*
X115824000Y-98425000D01*
X117288500Y-98514000D02*
X115913000Y-98514000D01*
X98222000Y-109055000D02*
X99542000Y-109055000D01*
X79244000Y-87880000D02*
X78740000Y-87376000D01*
X79838000Y-87880000D02*
X79244000Y-87880000D01*
X90706000Y-88110000D02*
X90678000Y-88138000D01*
X90706000Y-87122000D02*
X90706000Y-88110000D01*
X97358000Y-92888000D02*
X96774000Y-93472000D01*
X98132500Y-92888000D02*
X97358000Y-92888000D01*
X97460000Y-92888000D02*
X96774000Y-92202000D01*
X98132500Y-92888000D02*
X97460000Y-92888000D01*
X111430000Y-109055000D02*
X112750000Y-109055000D01*
X117018000Y-109055000D02*
X118338000Y-109055000D01*
X103810000Y-109055000D02*
X105130000Y-109055000D01*
X80799000Y-87879000D02*
X80798000Y-87880000D01*
X82516500Y-87879000D02*
X80799000Y-87879000D01*
X97282000Y-82804000D02*
X97282000Y-80264000D01*
X96772000Y-87884000D02*
X96774000Y-87884000D01*
X96774000Y-87884000D02*
X98298000Y-86360000D01*
X98298000Y-83820000D02*
X97282000Y-82804000D01*
X98298000Y-86360000D02*
X98298000Y-83820000D01*
X94198000Y-87884000D02*
X92946000Y-89136000D01*
X96772000Y-87884000D02*
X94198000Y-87884000D01*
X92946000Y-89136000D02*
X93690000Y-88392000D01*
X91188000Y-90894000D02*
X92946000Y-89136000D01*
X99822000Y-82804000D02*
X99822000Y-80264000D01*
X91188000Y-91910000D02*
X91188000Y-91829198D01*
X99824000Y-87884000D02*
X99822000Y-87884000D01*
X99824000Y-87884000D02*
X99824000Y-87485990D01*
X99824000Y-87485990D02*
X98698010Y-86360000D01*
X98698010Y-83927990D02*
X99822000Y-82804000D01*
X98698010Y-86360000D02*
X98698010Y-83927990D01*
X99824000Y-88204000D02*
X98781999Y-89246001D01*
X99824000Y-87884000D02*
X99824000Y-88204000D01*
X95157999Y-89246001D02*
X93771197Y-89246001D01*
X91188000Y-91829198D02*
X93286599Y-89730599D01*
X93771197Y-89246001D02*
X93286599Y-89730599D01*
X98781999Y-89246001D02*
X95157999Y-89246001D01*
X86813000Y-87229000D02*
X86706000Y-87122000D01*
X88241500Y-87229000D02*
X86813000Y-87229000D01*
X104519000Y-84544000D02*
X103477000Y-84544000D01*
X89465698Y-89408000D02*
X91128302Y-89408000D01*
X88241500Y-89829000D02*
X89044698Y-89829000D01*
X95374532Y-86575997D02*
X96036263Y-85914266D01*
X89044698Y-89829000D02*
X89465698Y-89408000D01*
X91128302Y-89408000D02*
X93960305Y-86575997D01*
X93960305Y-86575997D02*
X95374532Y-86575997D01*
X100367431Y-85914747D02*
X100308923Y-85914747D01*
X101100177Y-85182001D02*
X100367431Y-85914747D01*
X102838999Y-85182001D02*
X101100177Y-85182001D01*
X103477000Y-84544000D02*
X102838999Y-85182001D01*
X104519000Y-83274000D02*
X103477000Y-83274000D01*
X102817010Y-83933990D02*
X103477000Y-83274000D01*
X88241500Y-89179000D02*
X89128999Y-89179000D01*
X101713990Y-83933990D02*
X102817010Y-83933990D01*
X90978603Y-88992001D02*
X93794615Y-86175989D01*
X89315998Y-88992001D02*
X90978603Y-88992001D01*
X89128999Y-89179000D02*
X89315998Y-88992001D01*
X93794615Y-86175989D02*
X94926011Y-86175989D01*
X94926011Y-86175989D02*
X96012000Y-85090000D01*
X100330000Y-84963998D02*
X100330000Y-85090000D01*
X101311999Y-83981999D02*
X100330000Y-84963998D01*
X101692001Y-83981999D02*
X101311999Y-83981999D01*
X101713990Y-83960010D02*
X101692001Y-83981999D01*
X101713990Y-83933990D02*
X101713990Y-83960010D01*
X88241500Y-86579000D02*
X88903000Y-86579000D01*
X89279010Y-86278990D02*
X89279010Y-85663308D01*
X88979000Y-86579000D02*
X89279010Y-86278990D01*
X88241500Y-86579000D02*
X88979000Y-86579000D01*
X84582000Y-82804000D02*
X86267999Y-84489999D01*
X88105701Y-84489999D02*
X88929851Y-85314149D01*
X86267999Y-84489999D02*
X88105701Y-84489999D01*
X89279010Y-85663308D02*
X88929851Y-85314149D01*
X89679020Y-87094682D02*
X89679020Y-85497619D01*
X88894702Y-87879000D02*
X89679020Y-87094682D01*
X88241500Y-87879000D02*
X88894702Y-87879000D01*
X87122000Y-82940599D02*
X87122000Y-82804000D01*
X89679020Y-85497619D02*
X87122000Y-82940599D01*
X90079028Y-87344674D02*
X90079028Y-85331929D01*
X88894702Y-88529000D02*
X90079028Y-87344674D01*
X88241500Y-88529000D02*
X88894702Y-88529000D01*
X90079028Y-85331929D02*
X89662000Y-84914901D01*
X89662000Y-84914901D02*
X89662000Y-82804000D01*
X82278000Y-87229000D02*
X82260000Y-87211000D01*
X82516500Y-87229000D02*
X82278000Y-87229000D01*
X79502000Y-84952000D02*
X79502000Y-82804000D01*
X81779000Y-87229000D02*
X79502000Y-84952000D01*
X82516500Y-87229000D02*
X81779000Y-87229000D01*
X81478990Y-83367010D02*
X82042000Y-82804000D01*
X81478990Y-86194692D02*
X81478990Y-83367010D01*
X81863298Y-86579000D02*
X81478990Y-86194692D01*
X82516500Y-86579000D02*
X81863298Y-86579000D01*
X104519000Y-85814000D02*
X103477000Y-85814000D01*
X88241500Y-90479000D02*
X88960396Y-90479000D01*
X91255302Y-89846698D02*
X93726000Y-87376000D01*
X89592698Y-89846698D02*
X91255302Y-89846698D01*
X88960396Y-90479000D02*
X89592698Y-89846698D01*
X93726000Y-87376000D02*
X93980000Y-87122000D01*
X95677058Y-87122000D02*
X96046905Y-86752153D01*
X93980000Y-87122000D02*
X95677058Y-87122000D01*
X100296529Y-86750882D02*
X100603575Y-86443836D01*
X100687662Y-86424010D02*
X100635706Y-86475966D01*
X102866990Y-86424010D02*
X100687662Y-86424010D01*
X103477000Y-85814000D02*
X102866990Y-86424010D01*
X94742000Y-80264000D02*
X94742000Y-82804000D01*
X92712000Y-86106000D02*
X92712000Y-86104000D01*
X94742000Y-84074000D02*
X94742000Y-82804000D01*
X92712000Y-86104000D02*
X94742000Y-84074000D01*
X92682000Y-86106000D02*
X91666000Y-87122000D01*
X92712000Y-86106000D02*
X92682000Y-86106000D01*
X85775000Y-85929000D02*
X86106000Y-85598000D01*
X82516500Y-85929000D02*
X85775000Y-85929000D01*
X79355989Y-93793989D02*
X80010000Y-94448000D01*
X80010000Y-94448000D02*
X78085989Y-92523989D01*
X78085989Y-90277989D02*
X78085989Y-89551310D01*
X78085989Y-92523989D02*
X78085989Y-90277989D01*
X78085989Y-89551311D02*
X78085989Y-90277989D01*
X78858310Y-88778990D02*
X78085989Y-89551311D01*
X81280000Y-88778990D02*
X78858310Y-88778990D01*
X81529990Y-88529000D02*
X81280000Y-88778990D01*
X82516500Y-88529000D02*
X81529990Y-88529000D01*
X79023998Y-89179000D02*
X82516500Y-89179000D01*
X78485999Y-89716999D02*
X79023998Y-89179000D01*
X78485999Y-91909999D02*
X78485999Y-89716999D01*
X80010000Y-93434000D02*
X78485999Y-91909999D01*
X80010000Y-93434000D02*
X85814000Y-93434000D01*
X86828000Y-94448000D02*
X88392000Y-94448000D01*
X85814000Y-93434000D02*
X86828000Y-94448000D01*
X104151312Y-96143989D02*
X109466989Y-96143989D01*
X109466989Y-96143989D02*
X109617000Y-96294000D01*
X104001301Y-96294000D02*
X104151312Y-96143989D01*
X103267000Y-96294000D02*
X104001301Y-96294000D01*
X108789000Y-95466000D02*
X109617000Y-96294000D01*
X107952000Y-95466000D02*
X108789000Y-95466000D01*
X107952000Y-92204000D02*
X107952000Y-95466000D01*
X105918000Y-90170000D02*
X107952000Y-92204000D01*
X92196020Y-93223980D02*
X95250000Y-90170000D01*
X95250000Y-90170000D02*
X105918000Y-90170000D01*
X86271689Y-92525990D02*
X86969678Y-93223980D01*
X84435990Y-92525990D02*
X86271689Y-92525990D01*
X86969678Y-93223980D02*
X92196020Y-93223980D01*
X83689000Y-91779000D02*
X84435990Y-92525990D01*
X82516500Y-91779000D02*
X83689000Y-91779000D01*
X120031000Y-95977748D02*
X120031000Y-96294000D01*
X119880989Y-96143989D02*
X120031000Y-96294000D01*
X114565312Y-96143989D02*
X119880989Y-96143989D01*
X114415301Y-96294000D02*
X114565312Y-96143989D01*
X113681000Y-96294000D02*
X114415301Y-96294000D01*
X119203000Y-95466000D02*
X120031000Y-96294000D01*
X118366000Y-95466000D02*
X119203000Y-95466000D01*
X118366000Y-95466000D02*
X118366000Y-95146000D01*
X118366000Y-95106528D02*
X118366000Y-95466000D01*
X94996000Y-89662000D02*
X106172000Y-89662000D01*
X115931472Y-92672000D02*
X118366000Y-95106528D01*
X109182000Y-92672000D02*
X115931472Y-92672000D01*
X87135367Y-92823970D02*
X91834030Y-92823970D01*
X106172000Y-89662000D02*
X109182000Y-92672000D01*
X86106000Y-91794604D02*
X87135367Y-92823970D01*
X86106000Y-86614000D02*
X86106000Y-91794604D01*
X91834030Y-92823970D02*
X94996000Y-89662000D01*
X86791000Y-85929000D02*
X86106000Y-86614000D01*
X88241500Y-85929000D02*
X86791000Y-85929000D01*
X108039500Y-98484000D02*
X108009500Y-98514000D01*
X108039500Y-97244000D02*
X108039500Y-98484000D01*
X108619510Y-99124010D02*
X108009500Y-98514000D01*
X108649010Y-99124010D02*
X108619510Y-99124010D01*
X119380000Y-99695000D02*
X109220000Y-99695000D01*
X121285000Y-101600000D02*
X119380000Y-99695000D01*
X121285000Y-107315000D02*
X121285000Y-101600000D01*
X109220000Y-99695000D02*
X108649010Y-99124010D01*
X121285000Y-107315000D02*
X121158000Y-107442000D01*
X115659000Y-109055000D02*
X115316000Y-108712000D01*
X116358000Y-109055000D02*
X115659000Y-109055000D01*
X110071000Y-109055000D02*
X109728000Y-108712000D01*
X110770000Y-109055000D02*
X110071000Y-109055000D01*
X118453500Y-98484000D02*
X118423500Y-98514000D01*
X118453500Y-97244000D02*
X118453500Y-98484000D01*
X118791000Y-98514000D02*
X118423500Y-98514000D01*
X121920000Y-101643000D02*
X118791000Y-98514000D01*
X121920000Y-107950000D02*
X121920000Y-101643000D01*
X102451000Y-109055000D02*
X102108000Y-108712000D01*
X103150000Y-109055000D02*
X102451000Y-109055000D01*
X96863000Y-109055000D02*
X96520000Y-108712000D01*
X97562000Y-109055000D02*
X96863000Y-109055000D01*
X81280000Y-109728000D02*
X81788000Y-109728000D01*
X78867000Y-107315000D02*
X81280000Y-109728000D01*
X78867000Y-101219000D02*
X78867000Y-107315000D01*
X79248000Y-100838000D02*
X78867000Y-101219000D01*
X81026000Y-99060000D02*
X80264000Y-99822000D01*
X81662000Y-99060000D02*
X81026000Y-99060000D01*
X80264000Y-99822000D02*
X79248000Y-100838000D01*
X80518000Y-99568000D02*
X80264000Y-99822000D01*
X81049000Y-91129000D02*
X80798000Y-91380000D01*
X82516500Y-91129000D02*
X81049000Y-91129000D01*
X110744000Y-94704000D02*
X110744000Y-94196000D01*
X121158000Y-94704000D02*
X121158000Y-94450000D01*
X111617000Y-95577000D02*
X110744000Y-94704000D01*
X111617000Y-97244000D02*
X111617000Y-95577000D01*
X122031000Y-95577000D02*
X121158000Y-94704000D01*
X122031000Y-97244000D02*
X122031000Y-95577000D01*
X110744000Y-94196000D02*
X110363000Y-93815000D01*
X121158000Y-94450000D02*
X120523000Y-93815000D01*
X116186470Y-93815000D02*
X116195735Y-93824265D01*
X117983000Y-93815000D02*
X120523000Y-93815000D01*
X108712000Y-93815000D02*
X110490000Y-93815000D01*
X110490000Y-93815000D02*
X116186470Y-93815000D01*
X110363000Y-93815000D02*
X110490000Y-93815000D01*
X86106000Y-92926000D02*
X86803990Y-93623990D01*
X82344000Y-92926000D02*
X86106000Y-92926000D01*
X80798000Y-91380000D02*
X82344000Y-92926000D01*
X98298000Y-87884000D02*
X98298000Y-88646000D01*
X97792000Y-87884000D02*
X98298000Y-87884000D01*
X98298000Y-87884000D02*
X98804000Y-87884000D01*
X96192000Y-90770000D02*
X95758000Y-91204000D01*
X96774000Y-90770000D02*
X96192000Y-90770000D01*
X95942000Y-91388000D02*
X95758000Y-91204000D01*
X98045000Y-91388000D02*
X95942000Y-91388000D01*
X95232000Y-91204000D02*
X92812010Y-93623990D01*
X95758000Y-91204000D02*
X95232000Y-91204000D01*
X86803990Y-93623990D02*
X92812010Y-93623990D01*
X103304000Y-91388000D02*
X103632000Y-91060000D01*
X98045000Y-91388000D02*
X103304000Y-91388000D01*
X105030000Y-91060000D02*
X106426000Y-92456000D01*
X103632000Y-91060000D02*
X105030000Y-91060000D01*
X106426000Y-92456000D02*
X106934000Y-92964000D01*
X84351500Y-97500000D02*
X85344000Y-96507500D01*
X80010000Y-97500000D02*
X84351500Y-97500000D01*
X78740000Y-97538000D02*
X80010000Y-97538000D01*
X84337500Y-94932500D02*
X83550000Y-95720000D01*
X85344000Y-94932500D02*
X84337500Y-94932500D01*
X92733500Y-97500000D02*
X93726000Y-96507500D01*
X88392000Y-97500000D02*
X92733500Y-97500000D01*
X87122000Y-97538000D02*
X88392000Y-97538000D01*
X92719500Y-94932500D02*
X91932000Y-95720000D01*
X93726000Y-94932500D02*
X92719500Y-94932500D01*
X89933000Y-91129000D02*
X90168000Y-90894000D01*
X88241500Y-91129000D02*
X89933000Y-91129000D01*
X90037000Y-91779000D02*
X90168000Y-91910000D01*
X88241500Y-91779000D02*
X90037000Y-91779000D01*
X80947000Y-90479000D02*
X80798000Y-90330000D01*
X82516500Y-90479000D02*
X80947000Y-90479000D01*
X108347553Y-96543999D02*
X109617000Y-97813446D01*
X109617000Y-97813446D02*
X109617000Y-98194000D01*
X103267000Y-97594000D02*
X104317001Y-96543999D01*
X103267000Y-98194000D02*
X103267000Y-97594000D01*
X106844500Y-96571500D02*
X106872001Y-96543999D01*
X104317001Y-96543999D02*
X106872001Y-96543999D01*
X106872001Y-96543999D02*
X108347553Y-96543999D01*
X106844500Y-97244000D02*
X106844500Y-96571500D01*
X108537000Y-83274000D02*
X109385000Y-82426000D01*
X105539000Y-83274000D02*
X108537000Y-83274000D01*
X105539000Y-85814000D02*
X107278980Y-84074020D01*
X107278980Y-84074020D02*
X111252020Y-84074020D01*
X111252020Y-84074020D02*
X111760000Y-84582000D01*
X111760000Y-88351000D02*
X109385000Y-90726000D01*
X111760000Y-84582000D02*
X111760000Y-88351000D01*
X105539000Y-84544000D02*
X106210000Y-84544000D01*
X119236990Y-83674010D02*
X120485000Y-82426000D01*
X107079990Y-83674010D02*
X119236990Y-83674010D01*
X106210000Y-84544000D02*
X107079990Y-83674010D01*
X118761553Y-96543999D02*
X120031000Y-97813446D01*
X120031000Y-97813446D02*
X120031000Y-98194000D01*
X113681000Y-97594000D02*
X114731001Y-96543999D01*
X113681000Y-98194000D02*
X113681000Y-97594000D01*
X117258500Y-96568498D02*
X117282999Y-96543999D01*
X114731001Y-96543999D02*
X117282999Y-96543999D01*
X117282999Y-96543999D02*
X118761553Y-96543999D01*
X117258500Y-97244000D02*
X117258500Y-96568498D01*
X80852000Y-95468000D02*
X81550000Y-94770000D01*
X80010000Y-95468000D02*
X80852000Y-95468000D01*
X89234000Y-95468000D02*
X89932000Y-94770000D01*
X88392000Y-95468000D02*
X89234000Y-95468000D01*
X97125500Y-94971000D02*
X97655500Y-94441000D01*
X88392000Y-96564802D02*
X88392000Y-96480000D01*
X86424010Y-97262792D02*
X87122000Y-96564802D01*
X86424010Y-97562010D02*
X86424010Y-97262792D01*
X97125500Y-94971000D02*
X95758000Y-94971000D01*
X83685008Y-94194990D02*
X81909999Y-95969999D01*
X80520001Y-95969999D02*
X80010000Y-96480000D01*
X85815130Y-94194990D02*
X83685008Y-94194990D01*
X86424010Y-94803870D02*
X85815130Y-94194990D01*
X81909999Y-95969999D02*
X80520001Y-95969999D01*
X86424010Y-96709990D02*
X86424010Y-94803870D01*
X86424010Y-97562010D02*
X86424010Y-96963990D01*
X86424010Y-96963990D02*
X86424010Y-96709990D01*
X87122000Y-96518000D02*
X88392000Y-96518000D01*
X78740000Y-96518000D02*
X80010000Y-96518000D01*
X86424010Y-97597990D02*
X84962000Y-99060000D01*
X86424010Y-97562010D02*
X86424010Y-97597990D01*
X95758000Y-94971000D02*
X95758000Y-95421000D01*
X92627000Y-99060000D02*
X84962000Y-99060000D01*
X95758000Y-95929000D02*
X92627000Y-99060000D01*
X95758000Y-94971000D02*
X95758000Y-95929000D01*
X103604000Y-94388000D02*
X103632000Y-94360000D01*
X98045000Y-94388000D02*
X103604000Y-94388000D01*
X91692000Y-85850000D02*
X90932000Y-85090000D01*
X91692000Y-86106000D02*
X91692000Y-85850000D01*
D23*
X107315000Y-125540000D02*
X94869000Y-125540000D01*
X94869000Y-122087386D01*
X104589115Y-122087386D01*
X104715588Y-122329362D01*
X105039195Y-122434276D01*
X105377052Y-122474043D01*
X105716176Y-122447132D01*
X106043532Y-122354579D01*
X106104412Y-122329362D01*
X106230885Y-122087386D01*
X105410000Y-121266502D01*
X104589115Y-122087386D01*
X94869000Y-122087386D01*
X94869000Y-120706052D01*
X103674957Y-120706052D01*
X103701868Y-121045176D01*
X103794421Y-121372532D01*
X103819638Y-121433412D01*
X104061614Y-121559885D01*
X104882498Y-120739000D01*
X105937502Y-120739000D01*
X106758386Y-121559885D01*
X107000362Y-121433412D01*
X107105276Y-121109805D01*
X107145043Y-120771948D01*
X107118132Y-120432824D01*
X107025579Y-120105468D01*
X107000362Y-120044588D01*
X106758386Y-119918115D01*
X105937502Y-120739000D01*
X104882498Y-120739000D01*
X104061614Y-119918115D01*
X103819638Y-120044588D01*
X103714724Y-120368195D01*
X103674957Y-120706052D01*
X94869000Y-120706052D01*
X94869000Y-119390614D01*
X104589115Y-119390614D01*
X105410000Y-120211498D01*
X106230885Y-119390614D01*
X106104412Y-119148638D01*
X105780805Y-119043724D01*
X105442948Y-119003957D01*
X105103824Y-119030868D01*
X104776468Y-119123421D01*
X104715588Y-119148638D01*
X104589115Y-119390614D01*
X94869000Y-119390614D01*
X94869000Y-113514729D01*
X95174615Y-113310524D01*
X95540524Y-112944615D01*
X95828017Y-112514351D01*
X96026046Y-112036268D01*
X96127000Y-111528737D01*
X96127000Y-111011263D01*
X96026046Y-110503732D01*
X95967753Y-110363000D01*
X107315000Y-110363000D01*
X107315000Y-125540000D01*
G04 #@! TA.AperFunction,Conductor*
D24*
G36*
X107315000Y-125540000D02*
G01*
X94869000Y-125540000D01*
X94869000Y-122087386D01*
X104589115Y-122087386D01*
X104715588Y-122329362D01*
X105039195Y-122434276D01*
X105377052Y-122474043D01*
X105716176Y-122447132D01*
X106043532Y-122354579D01*
X106104412Y-122329362D01*
X106230885Y-122087386D01*
X105410000Y-121266502D01*
X104589115Y-122087386D01*
X94869000Y-122087386D01*
X94869000Y-120706052D01*
X103674957Y-120706052D01*
X103701868Y-121045176D01*
X103794421Y-121372532D01*
X103819638Y-121433412D01*
X104061614Y-121559885D01*
X104882498Y-120739000D01*
X105937502Y-120739000D01*
X106758386Y-121559885D01*
X107000362Y-121433412D01*
X107105276Y-121109805D01*
X107145043Y-120771948D01*
X107118132Y-120432824D01*
X107025579Y-120105468D01*
X107000362Y-120044588D01*
X106758386Y-119918115D01*
X105937502Y-120739000D01*
X104882498Y-120739000D01*
X104061614Y-119918115D01*
X103819638Y-120044588D01*
X103714724Y-120368195D01*
X103674957Y-120706052D01*
X94869000Y-120706052D01*
X94869000Y-119390614D01*
X104589115Y-119390614D01*
X105410000Y-120211498D01*
X106230885Y-119390614D01*
X106104412Y-119148638D01*
X105780805Y-119043724D01*
X105442948Y-119003957D01*
X105103824Y-119030868D01*
X104776468Y-119123421D01*
X104715588Y-119148638D01*
X104589115Y-119390614D01*
X94869000Y-119390614D01*
X94869000Y-113514729D01*
X95174615Y-113310524D01*
X95540524Y-112944615D01*
X95828017Y-112514351D01*
X96026046Y-112036268D01*
X96127000Y-111528737D01*
X96127000Y-111011263D01*
X96026046Y-110503732D01*
X95967753Y-110363000D01*
X107315000Y-110363000D01*
X107315000Y-125540000D01*
G37*
G04 #@! TD.AperFunction*
D25*
X102409833Y-95249881D02*
X102392724Y-95259026D01*
X102276999Y-95353999D01*
X102182026Y-95469724D01*
X102111454Y-95601753D01*
X102067997Y-95745014D01*
X102053323Y-95894000D01*
X102053323Y-96694000D01*
X102067997Y-96842986D01*
X102111454Y-96986247D01*
X102182026Y-97118276D01*
X102276999Y-97234001D01*
X102289183Y-97244000D01*
X102276999Y-97253999D01*
X102182026Y-97369724D01*
X102111454Y-97501753D01*
X102067997Y-97645014D01*
X102053323Y-97794000D01*
X102053323Y-98594000D01*
X102067997Y-98742986D01*
X102111454Y-98886247D01*
X102182026Y-99018276D01*
X102276999Y-99134001D01*
X102392724Y-99228974D01*
X102524753Y-99299546D01*
X102668014Y-99343003D01*
X102817000Y-99357677D01*
X103717000Y-99357677D01*
X103865986Y-99343003D01*
X104009247Y-99299546D01*
X104141276Y-99228974D01*
X104257001Y-99134001D01*
X104351974Y-99018276D01*
X104422546Y-98886247D01*
X104466003Y-98742986D01*
X104480677Y-98594000D01*
X104480677Y-97794000D01*
X104466003Y-97645014D01*
X104458138Y-97619086D01*
X104673225Y-97403999D01*
X105723323Y-97403999D01*
X105723323Y-97404000D01*
X105741071Y-97584200D01*
X105793634Y-97757476D01*
X105878991Y-97917167D01*
X105993862Y-98057138D01*
X106133833Y-98172009D01*
X106293524Y-98257366D01*
X106466800Y-98309929D01*
X106647000Y-98327677D01*
X106881408Y-98327677D01*
X106878323Y-98359000D01*
X106878323Y-98669000D01*
X106895975Y-98848225D01*
X106948253Y-99020562D01*
X107033148Y-99179390D01*
X107147397Y-99318603D01*
X107286610Y-99432852D01*
X107445438Y-99517747D01*
X107617775Y-99570025D01*
X107797000Y-99587677D01*
X107866954Y-99587677D01*
X107981522Y-99702245D01*
X108008456Y-99735064D01*
X108139408Y-99842534D01*
X108164979Y-99856202D01*
X108582012Y-100273235D01*
X108608946Y-100306054D01*
X108739898Y-100413524D01*
X108889300Y-100493381D01*
X109002235Y-100527639D01*
X109051410Y-100542556D01*
X109066975Y-100544089D01*
X109177754Y-100555000D01*
X109177761Y-100555000D01*
X109220000Y-100559160D01*
X109262239Y-100555000D01*
X119023777Y-100555000D01*
X120425001Y-101956225D01*
X120425000Y-106675933D01*
X120334644Y-106766289D01*
X120218640Y-106939902D01*
X120138735Y-107132809D01*
X120098000Y-107337599D01*
X120098000Y-107546401D01*
X120138735Y-107751191D01*
X120218640Y-107944098D01*
X120334644Y-108117711D01*
X120482289Y-108265356D01*
X120655902Y-108381360D01*
X120848809Y-108461265D01*
X121007911Y-108492912D01*
X121096644Y-108625711D01*
X121244289Y-108773356D01*
X121417902Y-108889360D01*
X121610809Y-108969265D01*
X121815599Y-109010000D01*
X122024401Y-109010000D01*
X122213851Y-108972316D01*
X121826660Y-109231030D01*
X121497714Y-109559976D01*
X121448839Y-109533852D01*
X121306269Y-109490603D01*
X121158000Y-109476000D01*
X118746360Y-109476000D01*
X118614486Y-109435997D01*
X118465500Y-109421323D01*
X117324177Y-109421323D01*
X117324177Y-108560000D01*
X117309503Y-108411014D01*
X117266046Y-108267753D01*
X117195474Y-108135724D01*
X117100501Y-108019999D01*
X116984776Y-107925026D01*
X116852747Y-107854454D01*
X116709486Y-107810997D01*
X116560500Y-107796323D01*
X116155500Y-107796323D01*
X116006514Y-107810997D01*
X115916410Y-107838329D01*
X115818098Y-107772640D01*
X115625191Y-107692735D01*
X115420401Y-107652000D01*
X115211599Y-107652000D01*
X115006809Y-107692735D01*
X114813902Y-107772640D01*
X114640289Y-107888644D01*
X114492644Y-108036289D01*
X114376640Y-108209902D01*
X114296735Y-108402809D01*
X114256000Y-108607599D01*
X114256000Y-108816401D01*
X114296735Y-109021191D01*
X114376640Y-109214098D01*
X114492644Y-109387711D01*
X114580933Y-109476000D01*
X113158360Y-109476000D01*
X113026486Y-109435997D01*
X112877500Y-109421323D01*
X111736177Y-109421323D01*
X111736177Y-108560000D01*
X111721503Y-108411014D01*
X111678046Y-108267753D01*
X111607474Y-108135724D01*
X111512501Y-108019999D01*
X111396776Y-107925026D01*
X111264747Y-107854454D01*
X111121486Y-107810997D01*
X110972500Y-107796323D01*
X110567500Y-107796323D01*
X110418514Y-107810997D01*
X110328410Y-107838329D01*
X110230098Y-107772640D01*
X110037191Y-107692735D01*
X109832401Y-107652000D01*
X109623599Y-107652000D01*
X109418809Y-107692735D01*
X109225902Y-107772640D01*
X109052289Y-107888644D01*
X108904644Y-108036289D01*
X108788640Y-108209902D01*
X108708735Y-108402809D01*
X108668000Y-108607599D01*
X108668000Y-108816401D01*
X108708735Y-109021191D01*
X108788640Y-109214098D01*
X108904644Y-109387711D01*
X108992933Y-109476000D01*
X105538360Y-109476000D01*
X105406486Y-109435997D01*
X105257500Y-109421323D01*
X104116177Y-109421323D01*
X104116177Y-108560000D01*
X104101503Y-108411014D01*
X104058046Y-108267753D01*
X103987474Y-108135724D01*
X103892501Y-108019999D01*
X103776776Y-107925026D01*
X103644747Y-107854454D01*
X103501486Y-107810997D01*
X103352500Y-107796323D01*
X102947500Y-107796323D01*
X102798514Y-107810997D01*
X102708410Y-107838329D01*
X102610098Y-107772640D01*
X102417191Y-107692735D01*
X102212401Y-107652000D01*
X102003599Y-107652000D01*
X101798809Y-107692735D01*
X101605902Y-107772640D01*
X101432289Y-107888644D01*
X101284644Y-108036289D01*
X101168640Y-108209902D01*
X101088735Y-108402809D01*
X101048000Y-108607599D01*
X101048000Y-108816401D01*
X101088735Y-109021191D01*
X101168640Y-109214098D01*
X101284644Y-109387711D01*
X101372933Y-109476000D01*
X99950360Y-109476000D01*
X99818486Y-109435997D01*
X99669500Y-109421323D01*
X98528177Y-109421323D01*
X98528177Y-108560000D01*
X98513503Y-108411014D01*
X98470046Y-108267753D01*
X98399474Y-108135724D01*
X98304501Y-108019999D01*
X98188776Y-107925026D01*
X98056747Y-107854454D01*
X97913486Y-107810997D01*
X97764500Y-107796323D01*
X97359500Y-107796323D01*
X97210514Y-107810997D01*
X97120410Y-107838329D01*
X97022098Y-107772640D01*
X96829191Y-107692735D01*
X96624401Y-107652000D01*
X96415599Y-107652000D01*
X96210809Y-107692735D01*
X96017902Y-107772640D01*
X95844289Y-107888644D01*
X95696644Y-108036289D01*
X95580640Y-108209902D01*
X95500735Y-108402809D01*
X95460000Y-108607599D01*
X95460000Y-108816401D01*
X95500735Y-109021191D01*
X95580640Y-109214098D01*
X95696644Y-109387711D01*
X95784933Y-109476000D01*
X95418310Y-109476000D01*
X95173340Y-109231030D01*
X94743404Y-108943755D01*
X94265684Y-108745878D01*
X93758540Y-108645000D01*
X93241460Y-108645000D01*
X92734316Y-108745878D01*
X92256596Y-108943755D01*
X91826660Y-109231030D01*
X91461030Y-109596660D01*
X91173755Y-110026596D01*
X90975878Y-110504316D01*
X90875000Y-111011460D01*
X90875000Y-111263198D01*
X87456058Y-107844256D01*
X87432358Y-107821558D01*
X87114220Y-107529774D01*
X87063995Y-107487552D01*
X86721876Y-107224297D01*
X86668194Y-107186564D01*
X86304642Y-106953800D01*
X86247907Y-106920839D01*
X85865633Y-106720301D01*
X85806265Y-106692355D01*
X85408118Y-106525538D01*
X85346562Y-106502818D01*
X84935510Y-106370965D01*
X84872223Y-106353640D01*
X84451330Y-106257734D01*
X84386784Y-106245931D01*
X83959187Y-106186687D01*
X83893864Y-106180496D01*
X83462751Y-106158356D01*
X83429951Y-106157381D01*
X79727000Y-106127276D01*
X79727000Y-105714140D01*
X80898637Y-105714140D01*
X81021053Y-105916275D01*
X81283218Y-106041529D01*
X81564781Y-106113231D01*
X81854922Y-106128625D01*
X82142492Y-106087120D01*
X82416439Y-105990310D01*
X82554947Y-105916275D01*
X82677363Y-105714140D01*
X81788000Y-104824777D01*
X80898637Y-105714140D01*
X79727000Y-105714140D01*
X79727000Y-104714922D01*
X80307375Y-104714922D01*
X80348880Y-105002492D01*
X80445690Y-105276439D01*
X80519725Y-105414947D01*
X80721860Y-105537363D01*
X81611223Y-104648000D01*
X81964777Y-104648000D01*
X82854140Y-105537363D01*
X83056275Y-105414947D01*
X83181529Y-105152782D01*
X83253231Y-104871219D01*
X83268625Y-104581078D01*
X83227120Y-104293508D01*
X83130310Y-104019561D01*
X83056275Y-103881053D01*
X82854140Y-103758637D01*
X81964777Y-104648000D01*
X81611223Y-104648000D01*
X80721860Y-103758637D01*
X80519725Y-103881053D01*
X80394471Y-104143218D01*
X80322769Y-104424781D01*
X80307375Y-104714922D01*
X79727000Y-104714922D01*
X79727000Y-103581860D01*
X80898637Y-103581860D01*
X81788000Y-104471223D01*
X82677363Y-103581860D01*
X82554947Y-103379725D01*
X82292782Y-103254471D01*
X82011219Y-103182769D01*
X81721078Y-103167375D01*
X81433508Y-103208880D01*
X81159561Y-103305690D01*
X81021053Y-103379725D01*
X80898637Y-103581860D01*
X79727000Y-103581860D01*
X79727000Y-101575223D01*
X79885984Y-101416239D01*
X80901984Y-100400240D01*
X80901989Y-100400234D01*
X80932738Y-100369485D01*
X81063014Y-100409003D01*
X81212000Y-100423677D01*
X82112000Y-100423677D01*
X82260986Y-100409003D01*
X82404247Y-100365546D01*
X82536276Y-100294974D01*
X82652001Y-100200001D01*
X82746974Y-100084276D01*
X82817546Y-99952247D01*
X82861003Y-99808986D01*
X82875677Y-99660000D01*
X82875677Y-98460000D01*
X82865828Y-98360000D01*
X83758172Y-98360000D01*
X83748323Y-98460000D01*
X83748323Y-99660000D01*
X83762997Y-99808986D01*
X83806454Y-99952247D01*
X83877026Y-100084276D01*
X83971999Y-100200001D01*
X84087724Y-100294974D01*
X84219753Y-100365546D01*
X84363014Y-100409003D01*
X84512000Y-100423677D01*
X85412000Y-100423677D01*
X85560986Y-100409003D01*
X85704247Y-100365546D01*
X85836276Y-100294974D01*
X85952001Y-100200001D01*
X86046974Y-100084276D01*
X86117546Y-99952247D01*
X86127328Y-99920000D01*
X92584761Y-99920000D01*
X92627000Y-99924160D01*
X92669239Y-99920000D01*
X92669246Y-99920000D01*
X92795589Y-99907556D01*
X92957700Y-99858381D01*
X93107102Y-99778524D01*
X93238054Y-99671054D01*
X93264988Y-99638235D01*
X96336241Y-96566983D01*
X96369054Y-96540054D01*
X96476524Y-96409102D01*
X96538047Y-96294000D01*
X96556381Y-96259701D01*
X96605556Y-96097590D01*
X96618324Y-95967957D01*
X96707100Y-95895100D01*
X96759706Y-95831000D01*
X97083261Y-95831000D01*
X97125500Y-95835160D01*
X97167739Y-95831000D01*
X97167746Y-95831000D01*
X97294089Y-95818556D01*
X97456200Y-95769381D01*
X97605602Y-95689524D01*
X97712643Y-95601677D01*
X98695000Y-95601677D01*
X98843986Y-95587003D01*
X98987247Y-95543546D01*
X99119276Y-95472974D01*
X99235001Y-95378001D01*
X99329974Y-95262276D01*
X99337605Y-95248000D01*
X102408289Y-95248000D01*
X102409833Y-95249881D01*
G04 #@! TA.AperFunction,Conductor*
D24*
G36*
X102409833Y-95249881D02*
G01*
X102392724Y-95259026D01*
X102276999Y-95353999D01*
X102182026Y-95469724D01*
X102111454Y-95601753D01*
X102067997Y-95745014D01*
X102053323Y-95894000D01*
X102053323Y-96694000D01*
X102067997Y-96842986D01*
X102111454Y-96986247D01*
X102182026Y-97118276D01*
X102276999Y-97234001D01*
X102289183Y-97244000D01*
X102276999Y-97253999D01*
X102182026Y-97369724D01*
X102111454Y-97501753D01*
X102067997Y-97645014D01*
X102053323Y-97794000D01*
X102053323Y-98594000D01*
X102067997Y-98742986D01*
X102111454Y-98886247D01*
X102182026Y-99018276D01*
X102276999Y-99134001D01*
X102392724Y-99228974D01*
X102524753Y-99299546D01*
X102668014Y-99343003D01*
X102817000Y-99357677D01*
X103717000Y-99357677D01*
X103865986Y-99343003D01*
X104009247Y-99299546D01*
X104141276Y-99228974D01*
X104257001Y-99134001D01*
X104351974Y-99018276D01*
X104422546Y-98886247D01*
X104466003Y-98742986D01*
X104480677Y-98594000D01*
X104480677Y-97794000D01*
X104466003Y-97645014D01*
X104458138Y-97619086D01*
X104673225Y-97403999D01*
X105723323Y-97403999D01*
X105723323Y-97404000D01*
X105741071Y-97584200D01*
X105793634Y-97757476D01*
X105878991Y-97917167D01*
X105993862Y-98057138D01*
X106133833Y-98172009D01*
X106293524Y-98257366D01*
X106466800Y-98309929D01*
X106647000Y-98327677D01*
X106881408Y-98327677D01*
X106878323Y-98359000D01*
X106878323Y-98669000D01*
X106895975Y-98848225D01*
X106948253Y-99020562D01*
X107033148Y-99179390D01*
X107147397Y-99318603D01*
X107286610Y-99432852D01*
X107445438Y-99517747D01*
X107617775Y-99570025D01*
X107797000Y-99587677D01*
X107866954Y-99587677D01*
X107981522Y-99702245D01*
X108008456Y-99735064D01*
X108139408Y-99842534D01*
X108164979Y-99856202D01*
X108582012Y-100273235D01*
X108608946Y-100306054D01*
X108739898Y-100413524D01*
X108889300Y-100493381D01*
X109002235Y-100527639D01*
X109051410Y-100542556D01*
X109066975Y-100544089D01*
X109177754Y-100555000D01*
X109177761Y-100555000D01*
X109220000Y-100559160D01*
X109262239Y-100555000D01*
X119023777Y-100555000D01*
X120425001Y-101956225D01*
X120425000Y-106675933D01*
X120334644Y-106766289D01*
X120218640Y-106939902D01*
X120138735Y-107132809D01*
X120098000Y-107337599D01*
X120098000Y-107546401D01*
X120138735Y-107751191D01*
X120218640Y-107944098D01*
X120334644Y-108117711D01*
X120482289Y-108265356D01*
X120655902Y-108381360D01*
X120848809Y-108461265D01*
X121007911Y-108492912D01*
X121096644Y-108625711D01*
X121244289Y-108773356D01*
X121417902Y-108889360D01*
X121610809Y-108969265D01*
X121815599Y-109010000D01*
X122024401Y-109010000D01*
X122213851Y-108972316D01*
X121826660Y-109231030D01*
X121497714Y-109559976D01*
X121448839Y-109533852D01*
X121306269Y-109490603D01*
X121158000Y-109476000D01*
X118746360Y-109476000D01*
X118614486Y-109435997D01*
X118465500Y-109421323D01*
X117324177Y-109421323D01*
X117324177Y-108560000D01*
X117309503Y-108411014D01*
X117266046Y-108267753D01*
X117195474Y-108135724D01*
X117100501Y-108019999D01*
X116984776Y-107925026D01*
X116852747Y-107854454D01*
X116709486Y-107810997D01*
X116560500Y-107796323D01*
X116155500Y-107796323D01*
X116006514Y-107810997D01*
X115916410Y-107838329D01*
X115818098Y-107772640D01*
X115625191Y-107692735D01*
X115420401Y-107652000D01*
X115211599Y-107652000D01*
X115006809Y-107692735D01*
X114813902Y-107772640D01*
X114640289Y-107888644D01*
X114492644Y-108036289D01*
X114376640Y-108209902D01*
X114296735Y-108402809D01*
X114256000Y-108607599D01*
X114256000Y-108816401D01*
X114296735Y-109021191D01*
X114376640Y-109214098D01*
X114492644Y-109387711D01*
X114580933Y-109476000D01*
X113158360Y-109476000D01*
X113026486Y-109435997D01*
X112877500Y-109421323D01*
X111736177Y-109421323D01*
X111736177Y-108560000D01*
X111721503Y-108411014D01*
X111678046Y-108267753D01*
X111607474Y-108135724D01*
X111512501Y-108019999D01*
X111396776Y-107925026D01*
X111264747Y-107854454D01*
X111121486Y-107810997D01*
X110972500Y-107796323D01*
X110567500Y-107796323D01*
X110418514Y-107810997D01*
X110328410Y-107838329D01*
X110230098Y-107772640D01*
X110037191Y-107692735D01*
X109832401Y-107652000D01*
X109623599Y-107652000D01*
X109418809Y-107692735D01*
X109225902Y-107772640D01*
X109052289Y-107888644D01*
X108904644Y-108036289D01*
X108788640Y-108209902D01*
X108708735Y-108402809D01*
X108668000Y-108607599D01*
X108668000Y-108816401D01*
X108708735Y-109021191D01*
X108788640Y-109214098D01*
X108904644Y-109387711D01*
X108992933Y-109476000D01*
X105538360Y-109476000D01*
X105406486Y-109435997D01*
X105257500Y-109421323D01*
X104116177Y-109421323D01*
X104116177Y-108560000D01*
X104101503Y-108411014D01*
X104058046Y-108267753D01*
X103987474Y-108135724D01*
X103892501Y-108019999D01*
X103776776Y-107925026D01*
X103644747Y-107854454D01*
X103501486Y-107810997D01*
X103352500Y-107796323D01*
X102947500Y-107796323D01*
X102798514Y-107810997D01*
X102708410Y-107838329D01*
X102610098Y-107772640D01*
X102417191Y-107692735D01*
X102212401Y-107652000D01*
X102003599Y-107652000D01*
X101798809Y-107692735D01*
X101605902Y-107772640D01*
X101432289Y-107888644D01*
X101284644Y-108036289D01*
X101168640Y-108209902D01*
X101088735Y-108402809D01*
X101048000Y-108607599D01*
X101048000Y-108816401D01*
X101088735Y-109021191D01*
X101168640Y-109214098D01*
X101284644Y-109387711D01*
X101372933Y-109476000D01*
X99950360Y-109476000D01*
X99818486Y-109435997D01*
X99669500Y-109421323D01*
X98528177Y-109421323D01*
X98528177Y-108560000D01*
X98513503Y-108411014D01*
X98470046Y-108267753D01*
X98399474Y-108135724D01*
X98304501Y-108019999D01*
X98188776Y-107925026D01*
X98056747Y-107854454D01*
X97913486Y-107810997D01*
X97764500Y-107796323D01*
X97359500Y-107796323D01*
X97210514Y-107810997D01*
X97120410Y-107838329D01*
X97022098Y-107772640D01*
X96829191Y-107692735D01*
X96624401Y-107652000D01*
X96415599Y-107652000D01*
X96210809Y-107692735D01*
X96017902Y-107772640D01*
X95844289Y-107888644D01*
X95696644Y-108036289D01*
X95580640Y-108209902D01*
X95500735Y-108402809D01*
X95460000Y-108607599D01*
X95460000Y-108816401D01*
X95500735Y-109021191D01*
X95580640Y-109214098D01*
X95696644Y-109387711D01*
X95784933Y-109476000D01*
X95418310Y-109476000D01*
X95173340Y-109231030D01*
X94743404Y-108943755D01*
X94265684Y-108745878D01*
X93758540Y-108645000D01*
X93241460Y-108645000D01*
X92734316Y-108745878D01*
X92256596Y-108943755D01*
X91826660Y-109231030D01*
X91461030Y-109596660D01*
X91173755Y-110026596D01*
X90975878Y-110504316D01*
X90875000Y-111011460D01*
X90875000Y-111263198D01*
X87456058Y-107844256D01*
X87432358Y-107821558D01*
X87114220Y-107529774D01*
X87063995Y-107487552D01*
X86721876Y-107224297D01*
X86668194Y-107186564D01*
X86304642Y-106953800D01*
X86247907Y-106920839D01*
X85865633Y-106720301D01*
X85806265Y-106692355D01*
X85408118Y-106525538D01*
X85346562Y-106502818D01*
X84935510Y-106370965D01*
X84872223Y-106353640D01*
X84451330Y-106257734D01*
X84386784Y-106245931D01*
X83959187Y-106186687D01*
X83893864Y-106180496D01*
X83462751Y-106158356D01*
X83429951Y-106157381D01*
X79727000Y-106127276D01*
X79727000Y-105714140D01*
X80898637Y-105714140D01*
X81021053Y-105916275D01*
X81283218Y-106041529D01*
X81564781Y-106113231D01*
X81854922Y-106128625D01*
X82142492Y-106087120D01*
X82416439Y-105990310D01*
X82554947Y-105916275D01*
X82677363Y-105714140D01*
X81788000Y-104824777D01*
X80898637Y-105714140D01*
X79727000Y-105714140D01*
X79727000Y-104714922D01*
X80307375Y-104714922D01*
X80348880Y-105002492D01*
X80445690Y-105276439D01*
X80519725Y-105414947D01*
X80721860Y-105537363D01*
X81611223Y-104648000D01*
X81964777Y-104648000D01*
X82854140Y-105537363D01*
X83056275Y-105414947D01*
X83181529Y-105152782D01*
X83253231Y-104871219D01*
X83268625Y-104581078D01*
X83227120Y-104293508D01*
X83130310Y-104019561D01*
X83056275Y-103881053D01*
X82854140Y-103758637D01*
X81964777Y-104648000D01*
X81611223Y-104648000D01*
X80721860Y-103758637D01*
X80519725Y-103881053D01*
X80394471Y-104143218D01*
X80322769Y-104424781D01*
X80307375Y-104714922D01*
X79727000Y-104714922D01*
X79727000Y-103581860D01*
X80898637Y-103581860D01*
X81788000Y-104471223D01*
X82677363Y-103581860D01*
X82554947Y-103379725D01*
X82292782Y-103254471D01*
X82011219Y-103182769D01*
X81721078Y-103167375D01*
X81433508Y-103208880D01*
X81159561Y-103305690D01*
X81021053Y-103379725D01*
X80898637Y-103581860D01*
X79727000Y-103581860D01*
X79727000Y-101575223D01*
X79885984Y-101416239D01*
X80901984Y-100400240D01*
X80901989Y-100400234D01*
X80932738Y-100369485D01*
X81063014Y-100409003D01*
X81212000Y-100423677D01*
X82112000Y-100423677D01*
X82260986Y-100409003D01*
X82404247Y-100365546D01*
X82536276Y-100294974D01*
X82652001Y-100200001D01*
X82746974Y-100084276D01*
X82817546Y-99952247D01*
X82861003Y-99808986D01*
X82875677Y-99660000D01*
X82875677Y-98460000D01*
X82865828Y-98360000D01*
X83758172Y-98360000D01*
X83748323Y-98460000D01*
X83748323Y-99660000D01*
X83762997Y-99808986D01*
X83806454Y-99952247D01*
X83877026Y-100084276D01*
X83971999Y-100200001D01*
X84087724Y-100294974D01*
X84219753Y-100365546D01*
X84363014Y-100409003D01*
X84512000Y-100423677D01*
X85412000Y-100423677D01*
X85560986Y-100409003D01*
X85704247Y-100365546D01*
X85836276Y-100294974D01*
X85952001Y-100200001D01*
X86046974Y-100084276D01*
X86117546Y-99952247D01*
X86127328Y-99920000D01*
X92584761Y-99920000D01*
X92627000Y-99924160D01*
X92669239Y-99920000D01*
X92669246Y-99920000D01*
X92795589Y-99907556D01*
X92957700Y-99858381D01*
X93107102Y-99778524D01*
X93238054Y-99671054D01*
X93264988Y-99638235D01*
X96336241Y-96566983D01*
X96369054Y-96540054D01*
X96476524Y-96409102D01*
X96538047Y-96294000D01*
X96556381Y-96259701D01*
X96605556Y-96097590D01*
X96618324Y-95967957D01*
X96707100Y-95895100D01*
X96759706Y-95831000D01*
X97083261Y-95831000D01*
X97125500Y-95835160D01*
X97167739Y-95831000D01*
X97167746Y-95831000D01*
X97294089Y-95818556D01*
X97456200Y-95769381D01*
X97605602Y-95689524D01*
X97712643Y-95601677D01*
X98695000Y-95601677D01*
X98843986Y-95587003D01*
X98987247Y-95543546D01*
X99119276Y-95472974D01*
X99235001Y-95378001D01*
X99329974Y-95262276D01*
X99337605Y-95248000D01*
X102408289Y-95248000D01*
X102409833Y-95249881D01*
G37*
G04 #@! TD.AperFunction*
D25*
X124032382Y-77021355D02*
X124352103Y-77117885D01*
X124646985Y-77274676D01*
X124905797Y-77485758D01*
X125118678Y-77743088D01*
X125277524Y-78036867D01*
X125376283Y-78355908D01*
X125415001Y-78724280D01*
X125415000Y-109472690D01*
X125173340Y-109231030D01*
X124743404Y-108943755D01*
X124265684Y-108745878D01*
X123758540Y-108645000D01*
X123241460Y-108645000D01*
X122734316Y-108745878D01*
X122477845Y-108852111D01*
X122595711Y-108773356D01*
X122743356Y-108625711D01*
X122859360Y-108452098D01*
X122939265Y-108259191D01*
X122980000Y-108054401D01*
X122980000Y-107845599D01*
X122939265Y-107640809D01*
X122859360Y-107447902D01*
X122780000Y-107329131D01*
X122780000Y-101685238D01*
X122784160Y-101642999D01*
X122780000Y-101600760D01*
X122780000Y-101600754D01*
X122767556Y-101474411D01*
X122718381Y-101312300D01*
X122638524Y-101162898D01*
X122531054Y-101031946D01*
X122498241Y-101005017D01*
X120785969Y-99292746D01*
X120905276Y-99228974D01*
X121021001Y-99134001D01*
X121115974Y-99018276D01*
X121186546Y-98886247D01*
X121230003Y-98742986D01*
X121244677Y-98594000D01*
X121244677Y-98325987D01*
X121288753Y-98349546D01*
X121432014Y-98393003D01*
X121581000Y-98407677D01*
X122481000Y-98407677D01*
X122629986Y-98393003D01*
X122773247Y-98349546D01*
X122905276Y-98278974D01*
X123021001Y-98184001D01*
X123115974Y-98068276D01*
X123186546Y-97936247D01*
X123230003Y-97792986D01*
X123244677Y-97644000D01*
X123244677Y-96844000D01*
X123230003Y-96695014D01*
X123186546Y-96551753D01*
X123115974Y-96419724D01*
X123021001Y-96303999D01*
X122905276Y-96209026D01*
X122891000Y-96201395D01*
X122891000Y-95619238D01*
X122895160Y-95576999D01*
X122891000Y-95534760D01*
X122891000Y-95534754D01*
X122879946Y-95422524D01*
X122878556Y-95408409D01*
X122842945Y-95291016D01*
X122829381Y-95246300D01*
X122749524Y-95096898D01*
X122642054Y-94965946D01*
X122609235Y-94939012D01*
X122201399Y-94531176D01*
X122184313Y-94357701D01*
X122132889Y-94188178D01*
X122049380Y-94031944D01*
X121936996Y-93895004D01*
X121800056Y-93782620D01*
X121643822Y-93699111D01*
X121614414Y-93690190D01*
X121570132Y-93645909D01*
X121542265Y-93505809D01*
X121462360Y-93312902D01*
X121346356Y-93139289D01*
X121198711Y-92991644D01*
X121025098Y-92875640D01*
X120832191Y-92795735D01*
X120627401Y-92755000D01*
X120418599Y-92755000D01*
X120213809Y-92795735D01*
X120020902Y-92875640D01*
X119902131Y-92955000D01*
X118603869Y-92955000D01*
X118485098Y-92875640D01*
X118292191Y-92795735D01*
X118087401Y-92755000D01*
X117878599Y-92755000D01*
X117673809Y-92795735D01*
X117480902Y-92875640D01*
X117403232Y-92927537D01*
X116569460Y-92093765D01*
X116542526Y-92060946D01*
X116411574Y-91953476D01*
X116262172Y-91873619D01*
X116100061Y-91824444D01*
X115973718Y-91812000D01*
X115973711Y-91812000D01*
X115931472Y-91807840D01*
X115889233Y-91812000D01*
X110646594Y-91812000D01*
X110674406Y-91784188D01*
X110856073Y-91512305D01*
X110981207Y-91210204D01*
X111033093Y-90949355D01*
X120138422Y-90949355D01*
X120236668Y-91131016D01*
X120464704Y-91236266D01*
X120708890Y-91295007D01*
X120959844Y-91304981D01*
X121207923Y-91265804D01*
X121443592Y-91178983D01*
X121533332Y-91131016D01*
X121631578Y-90949355D01*
X120885000Y-90202777D01*
X120138422Y-90949355D01*
X111033093Y-90949355D01*
X111045000Y-90889496D01*
X111045000Y-90562504D01*
X110998498Y-90328725D01*
X112338241Y-88988983D01*
X112371054Y-88962054D01*
X112478524Y-88831102D01*
X112558381Y-88681700D01*
X112595977Y-88557761D01*
X112607556Y-88519590D01*
X112609973Y-88495054D01*
X112620000Y-88393246D01*
X112620000Y-88393240D01*
X112624160Y-88351001D01*
X112620000Y-88308762D01*
X112620000Y-84624238D01*
X112624160Y-84581999D01*
X112620000Y-84539760D01*
X112620000Y-84539754D01*
X112619434Y-84534010D01*
X118936005Y-84534010D01*
X118834850Y-84657268D01*
X118690351Y-84927607D01*
X118601369Y-85220942D01*
X118571323Y-85526000D01*
X118571323Y-87726000D01*
X118601369Y-88031058D01*
X118690351Y-88324393D01*
X118834850Y-88594732D01*
X119029313Y-88831687D01*
X119266268Y-89026150D01*
X119536607Y-89170649D01*
X119829942Y-89259631D01*
X119954079Y-89271858D01*
X119961644Y-89279423D01*
X119779984Y-89377668D01*
X119674734Y-89605704D01*
X119615993Y-89849890D01*
X119606019Y-90100844D01*
X119645196Y-90348923D01*
X119732017Y-90584592D01*
X119779984Y-90674332D01*
X119961645Y-90772578D01*
X120708223Y-90026000D01*
X120694081Y-90011858D01*
X120870858Y-89835081D01*
X120885000Y-89849223D01*
X120899142Y-89835081D01*
X121075919Y-90011858D01*
X121061777Y-90026000D01*
X121808355Y-90772578D01*
X121990016Y-90674332D01*
X122095266Y-90446296D01*
X122154007Y-90202110D01*
X122163981Y-89951156D01*
X122124804Y-89703077D01*
X122037983Y-89467408D01*
X121990016Y-89377668D01*
X121813095Y-89281985D01*
X122040058Y-89259631D01*
X122333393Y-89170649D01*
X122603732Y-89026150D01*
X122840687Y-88831687D01*
X123035150Y-88594732D01*
X123179649Y-88324393D01*
X123268631Y-88031058D01*
X123298677Y-87726000D01*
X123298677Y-85526000D01*
X123268631Y-85220942D01*
X123179649Y-84927607D01*
X123035150Y-84657268D01*
X122840687Y-84420313D01*
X122603732Y-84225850D01*
X122333393Y-84081351D01*
X122040058Y-83992369D01*
X121735000Y-83962323D01*
X121113777Y-83962323D01*
X121271305Y-83897073D01*
X121543188Y-83715406D01*
X121774406Y-83484188D01*
X121956073Y-83212305D01*
X122081207Y-82910204D01*
X122108000Y-82775507D01*
X122108000Y-82935584D01*
X122159342Y-83193697D01*
X122260052Y-83436833D01*
X122406261Y-83655650D01*
X122592350Y-83841739D01*
X122811167Y-83987948D01*
X123054303Y-84088658D01*
X123312416Y-84140000D01*
X123575584Y-84140000D01*
X123833697Y-84088658D01*
X124076833Y-83987948D01*
X124295650Y-83841739D01*
X124481739Y-83655650D01*
X124627948Y-83436833D01*
X124728658Y-83193697D01*
X124780000Y-82935584D01*
X124780000Y-82672416D01*
X124728658Y-82414303D01*
X124627948Y-82171167D01*
X124481739Y-81952350D01*
X124295650Y-81766261D01*
X124076833Y-81620052D01*
X123833697Y-81519342D01*
X123575584Y-81468000D01*
X123312416Y-81468000D01*
X123054303Y-81519342D01*
X122811167Y-81620052D01*
X122592350Y-81766261D01*
X122406261Y-81952350D01*
X122260052Y-82171167D01*
X122159342Y-82414303D01*
X122145000Y-82486405D01*
X122145000Y-82262504D01*
X122081207Y-81941796D01*
X121956073Y-81639695D01*
X121774406Y-81367812D01*
X121543188Y-81136594D01*
X121271305Y-80954927D01*
X120969204Y-80829793D01*
X120648496Y-80766000D01*
X120321504Y-80766000D01*
X120000796Y-80829793D01*
X119698695Y-80954927D01*
X119426812Y-81136594D01*
X119195594Y-81367812D01*
X119013927Y-81639695D01*
X118888793Y-81941796D01*
X118825000Y-82262504D01*
X118825000Y-82589496D01*
X118869659Y-82814010D01*
X111000341Y-82814010D01*
X111045000Y-82589496D01*
X111045000Y-82262504D01*
X110981207Y-81941796D01*
X110856073Y-81639695D01*
X110674406Y-81367812D01*
X110443188Y-81136594D01*
X110171305Y-80954927D01*
X109869204Y-80829793D01*
X109548496Y-80766000D01*
X109221504Y-80766000D01*
X108900796Y-80829793D01*
X108598695Y-80954927D01*
X108326812Y-81136594D01*
X108095594Y-81367812D01*
X107913927Y-81639695D01*
X107788793Y-81941796D01*
X107725000Y-82262504D01*
X107725000Y-82414000D01*
X106261282Y-82414000D01*
X106173278Y-82341777D01*
X106017909Y-82258731D01*
X105849323Y-82207591D01*
X105674000Y-82190323D01*
X105404000Y-82190323D01*
X105228677Y-82207591D01*
X105060091Y-82258731D01*
X105029000Y-82275349D01*
X104997909Y-82258731D01*
X104829323Y-82207591D01*
X104654000Y-82190323D01*
X104384000Y-82190323D01*
X104208677Y-82207591D01*
X104040091Y-82258731D01*
X103991747Y-82284572D01*
X103962822Y-82269111D01*
X103793299Y-82217687D01*
X103617000Y-82200323D01*
X103337000Y-82200323D01*
X103160701Y-82217687D01*
X102991178Y-82269111D01*
X102834944Y-82352620D01*
X102698004Y-82465004D01*
X102585620Y-82601944D01*
X102502111Y-82758178D01*
X102450687Y-82927701D01*
X102436279Y-83073990D01*
X101756236Y-83073990D01*
X101713990Y-83069829D01*
X101545401Y-83086434D01*
X101428157Y-83121999D01*
X101400288Y-83121999D01*
X101432000Y-82962571D01*
X101432000Y-82645429D01*
X101370129Y-82334380D01*
X101248763Y-82041379D01*
X101072569Y-81777685D01*
X100848315Y-81553431D01*
X100819234Y-81534000D01*
X100848315Y-81514569D01*
X101072569Y-81290315D01*
X101248763Y-81026621D01*
X101370129Y-80733620D01*
X101386890Y-80649355D01*
X114188422Y-80649355D01*
X114286668Y-80831016D01*
X114514704Y-80936266D01*
X114758890Y-80995007D01*
X115009844Y-81004981D01*
X115257923Y-80965804D01*
X115493592Y-80878983D01*
X115583332Y-80831016D01*
X115681578Y-80649355D01*
X114935000Y-79902777D01*
X114188422Y-80649355D01*
X101386890Y-80649355D01*
X101432000Y-80422571D01*
X101432000Y-80105429D01*
X101371415Y-79800844D01*
X113656019Y-79800844D01*
X113695196Y-80048923D01*
X113782017Y-80284592D01*
X113829984Y-80374332D01*
X114011645Y-80472578D01*
X114758223Y-79726000D01*
X115111777Y-79726000D01*
X115858355Y-80472578D01*
X116040016Y-80374332D01*
X116145266Y-80146296D01*
X116204007Y-79902110D01*
X116213981Y-79651156D01*
X116174804Y-79403077D01*
X116096972Y-79191806D01*
X121165000Y-79191806D01*
X121165000Y-79558194D01*
X121236479Y-79917542D01*
X121376689Y-80256041D01*
X121580243Y-80560681D01*
X121839319Y-80819757D01*
X122143959Y-81023311D01*
X122482458Y-81163521D01*
X122841806Y-81235000D01*
X123208194Y-81235000D01*
X123567542Y-81163521D01*
X123906041Y-81023311D01*
X124210681Y-80819757D01*
X124469757Y-80560681D01*
X124673311Y-80256041D01*
X124813521Y-79917542D01*
X124885000Y-79558194D01*
X124885000Y-79191806D01*
X124813521Y-78832458D01*
X124673311Y-78493959D01*
X124469757Y-78189319D01*
X124210681Y-77930243D01*
X123906041Y-77726689D01*
X123567542Y-77586479D01*
X123208194Y-77515000D01*
X122841806Y-77515000D01*
X122482458Y-77586479D01*
X122143959Y-77726689D01*
X121839319Y-77930243D01*
X121580243Y-78189319D01*
X121376689Y-78493959D01*
X121236479Y-78832458D01*
X121165000Y-79191806D01*
X116096972Y-79191806D01*
X116087983Y-79167408D01*
X116040016Y-79077668D01*
X115858355Y-78979422D01*
X115111777Y-79726000D01*
X114758223Y-79726000D01*
X114011645Y-78979422D01*
X113829984Y-79077668D01*
X113724734Y-79305704D01*
X113665993Y-79549890D01*
X113656019Y-79800844D01*
X101371415Y-79800844D01*
X101370129Y-79794380D01*
X101248763Y-79501379D01*
X101072569Y-79237685D01*
X100848315Y-79013431D01*
X100584621Y-78837237D01*
X100501110Y-78802645D01*
X114188422Y-78802645D01*
X114935000Y-79549223D01*
X115681578Y-78802645D01*
X115583332Y-78620984D01*
X115355296Y-78515734D01*
X115111110Y-78456993D01*
X114860156Y-78447019D01*
X114612077Y-78486196D01*
X114376408Y-78573017D01*
X114286668Y-78620984D01*
X114188422Y-78802645D01*
X100501110Y-78802645D01*
X100291620Y-78715871D01*
X99980571Y-78654000D01*
X99663429Y-78654000D01*
X99352380Y-78715871D01*
X99059379Y-78837237D01*
X98795685Y-79013431D01*
X98571431Y-79237685D01*
X98552000Y-79266766D01*
X98532569Y-79237685D01*
X98308315Y-79013431D01*
X98044621Y-78837237D01*
X97751620Y-78715871D01*
X97440571Y-78654000D01*
X97123429Y-78654000D01*
X96812380Y-78715871D01*
X96519379Y-78837237D01*
X96255685Y-79013431D01*
X96031431Y-79237685D01*
X96012000Y-79266766D01*
X95992569Y-79237685D01*
X95768315Y-79013431D01*
X95504621Y-78837237D01*
X95211620Y-78715871D01*
X94900571Y-78654000D01*
X94583429Y-78654000D01*
X94272380Y-78715871D01*
X93979379Y-78837237D01*
X93715685Y-79013431D01*
X93491431Y-79237685D01*
X93315237Y-79501379D01*
X93254481Y-79648055D01*
X93175726Y-79520697D01*
X93012005Y-79345015D01*
X92817156Y-79204649D01*
X92598667Y-79104993D01*
X92516093Y-79079951D01*
X92327000Y-79139677D01*
X92327000Y-80139000D01*
X92347000Y-80139000D01*
X92347000Y-80389000D01*
X92327000Y-80389000D01*
X92327000Y-81388323D01*
X92516093Y-81448049D01*
X92598667Y-81423007D01*
X92817156Y-81323351D01*
X93012005Y-81182985D01*
X93175726Y-81007303D01*
X93254481Y-80879945D01*
X93315237Y-81026621D01*
X93491431Y-81290315D01*
X93715685Y-81514569D01*
X93744766Y-81534000D01*
X93715685Y-81553431D01*
X93491431Y-81777685D01*
X93315237Y-82041379D01*
X93254481Y-82188055D01*
X93175726Y-82060697D01*
X93012005Y-81885015D01*
X92817156Y-81744649D01*
X92598667Y-81644993D01*
X92516093Y-81619951D01*
X92327000Y-81679677D01*
X92327000Y-82679000D01*
X92347000Y-82679000D01*
X92347000Y-82929000D01*
X92327000Y-82929000D01*
X92327000Y-83928323D01*
X92516093Y-83988049D01*
X92598667Y-83963007D01*
X92817156Y-83863351D01*
X93012005Y-83722985D01*
X93175726Y-83547303D01*
X93254481Y-83419945D01*
X93315237Y-83566621D01*
X93491431Y-83830315D01*
X93630446Y-83969330D01*
X92577454Y-85022323D01*
X92577000Y-85022323D01*
X92401677Y-85039591D01*
X92233091Y-85090731D01*
X92202000Y-85107349D01*
X92170909Y-85090731D01*
X92139395Y-85081171D01*
X91979132Y-84920909D01*
X91951265Y-84780809D01*
X91871360Y-84587902D01*
X91755356Y-84414289D01*
X91607711Y-84266644D01*
X91434098Y-84150640D01*
X91241191Y-84070735D01*
X91036401Y-84030000D01*
X90827599Y-84030000D01*
X90681632Y-84059034D01*
X90688315Y-84054569D01*
X90912569Y-83830315D01*
X91088763Y-83566621D01*
X91149519Y-83419945D01*
X91228274Y-83547303D01*
X91391995Y-83722985D01*
X91586844Y-83863351D01*
X91805333Y-83963007D01*
X91887907Y-83988049D01*
X92077000Y-83928323D01*
X92077000Y-82929000D01*
X92057000Y-82929000D01*
X92057000Y-82679000D01*
X92077000Y-82679000D01*
X92077000Y-81679677D01*
X91887907Y-81619951D01*
X91805333Y-81644993D01*
X91586844Y-81744649D01*
X91391995Y-81885015D01*
X91228274Y-82060697D01*
X91149519Y-82188055D01*
X91088763Y-82041379D01*
X90912569Y-81777685D01*
X90688315Y-81553431D01*
X90424621Y-81377237D01*
X90283499Y-81318782D01*
X90472005Y-81182985D01*
X90635726Y-81007303D01*
X90762027Y-80803056D01*
X90846055Y-80578094D01*
X91017945Y-80578094D01*
X91101973Y-80803056D01*
X91228274Y-81007303D01*
X91391995Y-81182985D01*
X91586844Y-81323351D01*
X91805333Y-81423007D01*
X91887907Y-81448049D01*
X92077000Y-81388323D01*
X92077000Y-80389000D01*
X91077138Y-80389000D01*
X91017945Y-80578094D01*
X90846055Y-80578094D01*
X90786862Y-80389000D01*
X89787000Y-80389000D01*
X89787000Y-80409000D01*
X89537000Y-80409000D01*
X89537000Y-80389000D01*
X88537138Y-80389000D01*
X88477945Y-80578094D01*
X88561973Y-80803056D01*
X88688274Y-81007303D01*
X88851995Y-81182985D01*
X89040501Y-81318782D01*
X88899379Y-81377237D01*
X88635685Y-81553431D01*
X88411431Y-81777685D01*
X88392000Y-81806766D01*
X88372569Y-81777685D01*
X88148315Y-81553431D01*
X87884621Y-81377237D01*
X87743499Y-81318782D01*
X87932005Y-81182985D01*
X88095726Y-81007303D01*
X88222027Y-80803056D01*
X88306055Y-80578094D01*
X88246862Y-80389000D01*
X87247000Y-80389000D01*
X87247000Y-80409000D01*
X86997000Y-80409000D01*
X86997000Y-80389000D01*
X85997138Y-80389000D01*
X85937945Y-80578094D01*
X86021973Y-80803056D01*
X86148274Y-81007303D01*
X86311995Y-81182985D01*
X86500501Y-81318782D01*
X86359379Y-81377237D01*
X86095685Y-81553431D01*
X85871431Y-81777685D01*
X85852000Y-81806766D01*
X85832569Y-81777685D01*
X85608315Y-81553431D01*
X85344621Y-81377237D01*
X85203499Y-81318782D01*
X85392005Y-81182985D01*
X85555726Y-81007303D01*
X85682027Y-80803056D01*
X85766055Y-80578094D01*
X85706862Y-80389000D01*
X84707000Y-80389000D01*
X84707000Y-80409000D01*
X84457000Y-80409000D01*
X84457000Y-80389000D01*
X83457138Y-80389000D01*
X83397945Y-80578094D01*
X83481973Y-80803056D01*
X83608274Y-81007303D01*
X83771995Y-81182985D01*
X83960501Y-81318782D01*
X83819379Y-81377237D01*
X83555685Y-81553431D01*
X83331431Y-81777685D01*
X83312000Y-81806766D01*
X83292569Y-81777685D01*
X83068315Y-81553431D01*
X82804621Y-81377237D01*
X82663499Y-81318782D01*
X82852005Y-81182985D01*
X83015726Y-81007303D01*
X83142027Y-80803056D01*
X83226055Y-80578094D01*
X83166862Y-80389000D01*
X82167000Y-80389000D01*
X82167000Y-80409000D01*
X81917000Y-80409000D01*
X81917000Y-80389000D01*
X81897000Y-80389000D01*
X81897000Y-80139000D01*
X81917000Y-80139000D01*
X81917000Y-79139677D01*
X82167000Y-79139677D01*
X82167000Y-80139000D01*
X83166862Y-80139000D01*
X83226055Y-79949906D01*
X83397945Y-79949906D01*
X83457138Y-80139000D01*
X84457000Y-80139000D01*
X84457000Y-79139677D01*
X84707000Y-79139677D01*
X84707000Y-80139000D01*
X85706862Y-80139000D01*
X85766055Y-79949906D01*
X85937945Y-79949906D01*
X85997138Y-80139000D01*
X86997000Y-80139000D01*
X86997000Y-79139677D01*
X87247000Y-79139677D01*
X87247000Y-80139000D01*
X88246862Y-80139000D01*
X88306055Y-79949906D01*
X88477945Y-79949906D01*
X88537138Y-80139000D01*
X89537000Y-80139000D01*
X89537000Y-79139677D01*
X89787000Y-79139677D01*
X89787000Y-80139000D01*
X90786862Y-80139000D01*
X90846055Y-79949906D01*
X91017945Y-79949906D01*
X91077138Y-80139000D01*
X92077000Y-80139000D01*
X92077000Y-79139677D01*
X91887907Y-79079951D01*
X91805333Y-79104993D01*
X91586844Y-79204649D01*
X91391995Y-79345015D01*
X91228274Y-79520697D01*
X91101973Y-79724944D01*
X91017945Y-79949906D01*
X90846055Y-79949906D01*
X90762027Y-79724944D01*
X90635726Y-79520697D01*
X90472005Y-79345015D01*
X90277156Y-79204649D01*
X90058667Y-79104993D01*
X89976093Y-79079951D01*
X89787000Y-79139677D01*
X89537000Y-79139677D01*
X89347907Y-79079951D01*
X89265333Y-79104993D01*
X89046844Y-79204649D01*
X88851995Y-79345015D01*
X88688274Y-79520697D01*
X88561973Y-79724944D01*
X88477945Y-79949906D01*
X88306055Y-79949906D01*
X88222027Y-79724944D01*
X88095726Y-79520697D01*
X87932005Y-79345015D01*
X87737156Y-79204649D01*
X87518667Y-79104993D01*
X87436093Y-79079951D01*
X87247000Y-79139677D01*
X86997000Y-79139677D01*
X86807907Y-79079951D01*
X86725333Y-79104993D01*
X86506844Y-79204649D01*
X86311995Y-79345015D01*
X86148274Y-79520697D01*
X86021973Y-79724944D01*
X85937945Y-79949906D01*
X85766055Y-79949906D01*
X85682027Y-79724944D01*
X85555726Y-79520697D01*
X85392005Y-79345015D01*
X85197156Y-79204649D01*
X84978667Y-79104993D01*
X84896093Y-79079951D01*
X84707000Y-79139677D01*
X84457000Y-79139677D01*
X84267907Y-79079951D01*
X84185333Y-79104993D01*
X83966844Y-79204649D01*
X83771995Y-79345015D01*
X83608274Y-79520697D01*
X83481973Y-79724944D01*
X83397945Y-79949906D01*
X83226055Y-79949906D01*
X83142027Y-79724944D01*
X83015726Y-79520697D01*
X82852005Y-79345015D01*
X82657156Y-79204649D01*
X82438667Y-79104993D01*
X82356093Y-79079951D01*
X82167000Y-79139677D01*
X81917000Y-79139677D01*
X81727907Y-79079951D01*
X81645333Y-79104993D01*
X81426844Y-79204649D01*
X81231995Y-79345015D01*
X81068274Y-79520697D01*
X80989519Y-79648055D01*
X80928763Y-79501379D01*
X80752569Y-79237685D01*
X80528315Y-79013431D01*
X80264621Y-78837237D01*
X79971620Y-78715871D01*
X79660571Y-78654000D01*
X79343429Y-78654000D01*
X79032380Y-78715871D01*
X78739379Y-78837237D01*
X78475685Y-79013431D01*
X78251431Y-79237685D01*
X78075237Y-79501379D01*
X77953871Y-79794380D01*
X77892000Y-80105429D01*
X77892000Y-80422571D01*
X77953871Y-80733620D01*
X78075237Y-81026621D01*
X78251431Y-81290315D01*
X78261883Y-81300767D01*
X78227724Y-81319026D01*
X78111999Y-81413999D01*
X78017026Y-81529724D01*
X77946454Y-81661753D01*
X77902997Y-81805014D01*
X77888323Y-81954000D01*
X77888323Y-83654000D01*
X77902997Y-83802986D01*
X77946454Y-83946247D01*
X78017026Y-84078276D01*
X78111999Y-84194001D01*
X78227724Y-84288974D01*
X78359753Y-84359546D01*
X78503014Y-84403003D01*
X78642000Y-84416692D01*
X78642000Y-84909761D01*
X78637840Y-84952000D01*
X78642000Y-84994239D01*
X78642000Y-84994245D01*
X78649185Y-85067191D01*
X78654444Y-85120589D01*
X78657487Y-85130619D01*
X78703619Y-85282699D01*
X78783476Y-85432101D01*
X78890946Y-85563054D01*
X78923765Y-85589988D01*
X80244866Y-86911090D01*
X80155944Y-86958620D01*
X80019004Y-87071004D01*
X79906620Y-87207944D01*
X79823111Y-87364178D01*
X79771687Y-87533701D01*
X79754323Y-87710000D01*
X79754323Y-87918990D01*
X78900549Y-87918990D01*
X78858310Y-87914830D01*
X78816071Y-87918990D01*
X78816064Y-87918990D01*
X78705285Y-87929901D01*
X78689720Y-87931434D01*
X78640545Y-87946351D01*
X78527610Y-87980609D01*
X78378208Y-88060466D01*
X78247256Y-88167936D01*
X78220326Y-88200750D01*
X77507754Y-88913322D01*
X77489994Y-88927898D01*
X77474935Y-88940257D01*
X77463922Y-88953677D01*
X77367466Y-89071208D01*
X77308301Y-89181898D01*
X77287608Y-89220612D01*
X77268267Y-89284371D01*
X77238433Y-89382721D01*
X77227127Y-89497513D01*
X77225989Y-89509066D01*
X77225989Y-89509072D01*
X77221829Y-89551311D01*
X77225989Y-89593550D01*
X77225989Y-90320235D01*
X77225990Y-90320245D01*
X77225989Y-92481750D01*
X77221829Y-92523989D01*
X77225989Y-92566228D01*
X77225989Y-92566234D01*
X77235103Y-92658765D01*
X77238433Y-92692578D01*
X77248596Y-92726082D01*
X77287608Y-92854688D01*
X77367465Y-93004090D01*
X77474935Y-93135043D01*
X77507754Y-93161977D01*
X78926323Y-94580546D01*
X78926323Y-94583000D01*
X78943591Y-94758323D01*
X78994731Y-94926909D01*
X79011349Y-94958000D01*
X78994731Y-94989091D01*
X78943591Y-95157677D01*
X78926323Y-95333000D01*
X78926323Y-95484453D01*
X78925000Y-95484323D01*
X78555000Y-95484323D01*
X78379677Y-95501591D01*
X78211091Y-95552731D01*
X78055722Y-95635777D01*
X77919539Y-95747539D01*
X77807777Y-95883722D01*
X77724731Y-96039091D01*
X77673591Y-96207677D01*
X77656323Y-96383000D01*
X77656323Y-96653000D01*
X77673591Y-96828323D01*
X77724731Y-96996909D01*
X77741349Y-97028000D01*
X77724731Y-97059091D01*
X77673591Y-97227677D01*
X77656323Y-97403000D01*
X77656323Y-97673000D01*
X77673591Y-97848323D01*
X77724731Y-98016909D01*
X77807777Y-98172278D01*
X77919539Y-98308461D01*
X78055722Y-98420223D01*
X78211091Y-98503269D01*
X78379677Y-98554409D01*
X78555000Y-98571677D01*
X78925000Y-98571677D01*
X79100323Y-98554409D01*
X79268909Y-98503269D01*
X79375000Y-98446562D01*
X79481091Y-98503269D01*
X79649677Y-98554409D01*
X79825000Y-98571677D01*
X80195000Y-98571677D01*
X80309363Y-98560413D01*
X79685765Y-99184012D01*
X79685760Y-99184016D01*
X78669761Y-100200016D01*
X78288765Y-100581012D01*
X78255946Y-100607946D01*
X78148476Y-100738899D01*
X78068619Y-100888301D01*
X78057646Y-100924476D01*
X78025046Y-101031946D01*
X78019444Y-101050412D01*
X78007000Y-101176755D01*
X78007000Y-101176761D01*
X78002840Y-101219000D01*
X78007000Y-101261239D01*
X78007001Y-106113292D01*
X76985000Y-106104983D01*
X76985000Y-78738397D01*
X77021355Y-78367618D01*
X77117885Y-78047897D01*
X77274676Y-77753015D01*
X77485758Y-77494203D01*
X77743088Y-77281322D01*
X78036867Y-77122476D01*
X78355908Y-77023717D01*
X78724271Y-76985000D01*
X123661603Y-76985000D01*
X124032382Y-77021355D01*
G04 #@! TA.AperFunction,Conductor*
D24*
G36*
X124032382Y-77021355D02*
G01*
X124352103Y-77117885D01*
X124646985Y-77274676D01*
X124905797Y-77485758D01*
X125118678Y-77743088D01*
X125277524Y-78036867D01*
X125376283Y-78355908D01*
X125415001Y-78724280D01*
X125415000Y-109472690D01*
X125173340Y-109231030D01*
X124743404Y-108943755D01*
X124265684Y-108745878D01*
X123758540Y-108645000D01*
X123241460Y-108645000D01*
X122734316Y-108745878D01*
X122477845Y-108852111D01*
X122595711Y-108773356D01*
X122743356Y-108625711D01*
X122859360Y-108452098D01*
X122939265Y-108259191D01*
X122980000Y-108054401D01*
X122980000Y-107845599D01*
X122939265Y-107640809D01*
X122859360Y-107447902D01*
X122780000Y-107329131D01*
X122780000Y-101685238D01*
X122784160Y-101642999D01*
X122780000Y-101600760D01*
X122780000Y-101600754D01*
X122767556Y-101474411D01*
X122718381Y-101312300D01*
X122638524Y-101162898D01*
X122531054Y-101031946D01*
X122498241Y-101005017D01*
X120785969Y-99292746D01*
X120905276Y-99228974D01*
X121021001Y-99134001D01*
X121115974Y-99018276D01*
X121186546Y-98886247D01*
X121230003Y-98742986D01*
X121244677Y-98594000D01*
X121244677Y-98325987D01*
X121288753Y-98349546D01*
X121432014Y-98393003D01*
X121581000Y-98407677D01*
X122481000Y-98407677D01*
X122629986Y-98393003D01*
X122773247Y-98349546D01*
X122905276Y-98278974D01*
X123021001Y-98184001D01*
X123115974Y-98068276D01*
X123186546Y-97936247D01*
X123230003Y-97792986D01*
X123244677Y-97644000D01*
X123244677Y-96844000D01*
X123230003Y-96695014D01*
X123186546Y-96551753D01*
X123115974Y-96419724D01*
X123021001Y-96303999D01*
X122905276Y-96209026D01*
X122891000Y-96201395D01*
X122891000Y-95619238D01*
X122895160Y-95576999D01*
X122891000Y-95534760D01*
X122891000Y-95534754D01*
X122879946Y-95422524D01*
X122878556Y-95408409D01*
X122842945Y-95291016D01*
X122829381Y-95246300D01*
X122749524Y-95096898D01*
X122642054Y-94965946D01*
X122609235Y-94939012D01*
X122201399Y-94531176D01*
X122184313Y-94357701D01*
X122132889Y-94188178D01*
X122049380Y-94031944D01*
X121936996Y-93895004D01*
X121800056Y-93782620D01*
X121643822Y-93699111D01*
X121614414Y-93690190D01*
X121570132Y-93645909D01*
X121542265Y-93505809D01*
X121462360Y-93312902D01*
X121346356Y-93139289D01*
X121198711Y-92991644D01*
X121025098Y-92875640D01*
X120832191Y-92795735D01*
X120627401Y-92755000D01*
X120418599Y-92755000D01*
X120213809Y-92795735D01*
X120020902Y-92875640D01*
X119902131Y-92955000D01*
X118603869Y-92955000D01*
X118485098Y-92875640D01*
X118292191Y-92795735D01*
X118087401Y-92755000D01*
X117878599Y-92755000D01*
X117673809Y-92795735D01*
X117480902Y-92875640D01*
X117403232Y-92927537D01*
X116569460Y-92093765D01*
X116542526Y-92060946D01*
X116411574Y-91953476D01*
X116262172Y-91873619D01*
X116100061Y-91824444D01*
X115973718Y-91812000D01*
X115973711Y-91812000D01*
X115931472Y-91807840D01*
X115889233Y-91812000D01*
X110646594Y-91812000D01*
X110674406Y-91784188D01*
X110856073Y-91512305D01*
X110981207Y-91210204D01*
X111033093Y-90949355D01*
X120138422Y-90949355D01*
X120236668Y-91131016D01*
X120464704Y-91236266D01*
X120708890Y-91295007D01*
X120959844Y-91304981D01*
X121207923Y-91265804D01*
X121443592Y-91178983D01*
X121533332Y-91131016D01*
X121631578Y-90949355D01*
X120885000Y-90202777D01*
X120138422Y-90949355D01*
X111033093Y-90949355D01*
X111045000Y-90889496D01*
X111045000Y-90562504D01*
X110998498Y-90328725D01*
X112338241Y-88988983D01*
X112371054Y-88962054D01*
X112478524Y-88831102D01*
X112558381Y-88681700D01*
X112595977Y-88557761D01*
X112607556Y-88519590D01*
X112609973Y-88495054D01*
X112620000Y-88393246D01*
X112620000Y-88393240D01*
X112624160Y-88351001D01*
X112620000Y-88308762D01*
X112620000Y-84624238D01*
X112624160Y-84581999D01*
X112620000Y-84539760D01*
X112620000Y-84539754D01*
X112619434Y-84534010D01*
X118936005Y-84534010D01*
X118834850Y-84657268D01*
X118690351Y-84927607D01*
X118601369Y-85220942D01*
X118571323Y-85526000D01*
X118571323Y-87726000D01*
X118601369Y-88031058D01*
X118690351Y-88324393D01*
X118834850Y-88594732D01*
X119029313Y-88831687D01*
X119266268Y-89026150D01*
X119536607Y-89170649D01*
X119829942Y-89259631D01*
X119954079Y-89271858D01*
X119961644Y-89279423D01*
X119779984Y-89377668D01*
X119674734Y-89605704D01*
X119615993Y-89849890D01*
X119606019Y-90100844D01*
X119645196Y-90348923D01*
X119732017Y-90584592D01*
X119779984Y-90674332D01*
X119961645Y-90772578D01*
X120708223Y-90026000D01*
X120694081Y-90011858D01*
X120870858Y-89835081D01*
X120885000Y-89849223D01*
X120899142Y-89835081D01*
X121075919Y-90011858D01*
X121061777Y-90026000D01*
X121808355Y-90772578D01*
X121990016Y-90674332D01*
X122095266Y-90446296D01*
X122154007Y-90202110D01*
X122163981Y-89951156D01*
X122124804Y-89703077D01*
X122037983Y-89467408D01*
X121990016Y-89377668D01*
X121813095Y-89281985D01*
X122040058Y-89259631D01*
X122333393Y-89170649D01*
X122603732Y-89026150D01*
X122840687Y-88831687D01*
X123035150Y-88594732D01*
X123179649Y-88324393D01*
X123268631Y-88031058D01*
X123298677Y-87726000D01*
X123298677Y-85526000D01*
X123268631Y-85220942D01*
X123179649Y-84927607D01*
X123035150Y-84657268D01*
X122840687Y-84420313D01*
X122603732Y-84225850D01*
X122333393Y-84081351D01*
X122040058Y-83992369D01*
X121735000Y-83962323D01*
X121113777Y-83962323D01*
X121271305Y-83897073D01*
X121543188Y-83715406D01*
X121774406Y-83484188D01*
X121956073Y-83212305D01*
X122081207Y-82910204D01*
X122108000Y-82775507D01*
X122108000Y-82935584D01*
X122159342Y-83193697D01*
X122260052Y-83436833D01*
X122406261Y-83655650D01*
X122592350Y-83841739D01*
X122811167Y-83987948D01*
X123054303Y-84088658D01*
X123312416Y-84140000D01*
X123575584Y-84140000D01*
X123833697Y-84088658D01*
X124076833Y-83987948D01*
X124295650Y-83841739D01*
X124481739Y-83655650D01*
X124627948Y-83436833D01*
X124728658Y-83193697D01*
X124780000Y-82935584D01*
X124780000Y-82672416D01*
X124728658Y-82414303D01*
X124627948Y-82171167D01*
X124481739Y-81952350D01*
X124295650Y-81766261D01*
X124076833Y-81620052D01*
X123833697Y-81519342D01*
X123575584Y-81468000D01*
X123312416Y-81468000D01*
X123054303Y-81519342D01*
X122811167Y-81620052D01*
X122592350Y-81766261D01*
X122406261Y-81952350D01*
X122260052Y-82171167D01*
X122159342Y-82414303D01*
X122145000Y-82486405D01*
X122145000Y-82262504D01*
X122081207Y-81941796D01*
X121956073Y-81639695D01*
X121774406Y-81367812D01*
X121543188Y-81136594D01*
X121271305Y-80954927D01*
X120969204Y-80829793D01*
X120648496Y-80766000D01*
X120321504Y-80766000D01*
X120000796Y-80829793D01*
X119698695Y-80954927D01*
X119426812Y-81136594D01*
X119195594Y-81367812D01*
X119013927Y-81639695D01*
X118888793Y-81941796D01*
X118825000Y-82262504D01*
X118825000Y-82589496D01*
X118869659Y-82814010D01*
X111000341Y-82814010D01*
X111045000Y-82589496D01*
X111045000Y-82262504D01*
X110981207Y-81941796D01*
X110856073Y-81639695D01*
X110674406Y-81367812D01*
X110443188Y-81136594D01*
X110171305Y-80954927D01*
X109869204Y-80829793D01*
X109548496Y-80766000D01*
X109221504Y-80766000D01*
X108900796Y-80829793D01*
X108598695Y-80954927D01*
X108326812Y-81136594D01*
X108095594Y-81367812D01*
X107913927Y-81639695D01*
X107788793Y-81941796D01*
X107725000Y-82262504D01*
X107725000Y-82414000D01*
X106261282Y-82414000D01*
X106173278Y-82341777D01*
X106017909Y-82258731D01*
X105849323Y-82207591D01*
X105674000Y-82190323D01*
X105404000Y-82190323D01*
X105228677Y-82207591D01*
X105060091Y-82258731D01*
X105029000Y-82275349D01*
X104997909Y-82258731D01*
X104829323Y-82207591D01*
X104654000Y-82190323D01*
X104384000Y-82190323D01*
X104208677Y-82207591D01*
X104040091Y-82258731D01*
X103991747Y-82284572D01*
X103962822Y-82269111D01*
X103793299Y-82217687D01*
X103617000Y-82200323D01*
X103337000Y-82200323D01*
X103160701Y-82217687D01*
X102991178Y-82269111D01*
X102834944Y-82352620D01*
X102698004Y-82465004D01*
X102585620Y-82601944D01*
X102502111Y-82758178D01*
X102450687Y-82927701D01*
X102436279Y-83073990D01*
X101756236Y-83073990D01*
X101713990Y-83069829D01*
X101545401Y-83086434D01*
X101428157Y-83121999D01*
X101400288Y-83121999D01*
X101432000Y-82962571D01*
X101432000Y-82645429D01*
X101370129Y-82334380D01*
X101248763Y-82041379D01*
X101072569Y-81777685D01*
X100848315Y-81553431D01*
X100819234Y-81534000D01*
X100848315Y-81514569D01*
X101072569Y-81290315D01*
X101248763Y-81026621D01*
X101370129Y-80733620D01*
X101386890Y-80649355D01*
X114188422Y-80649355D01*
X114286668Y-80831016D01*
X114514704Y-80936266D01*
X114758890Y-80995007D01*
X115009844Y-81004981D01*
X115257923Y-80965804D01*
X115493592Y-80878983D01*
X115583332Y-80831016D01*
X115681578Y-80649355D01*
X114935000Y-79902777D01*
X114188422Y-80649355D01*
X101386890Y-80649355D01*
X101432000Y-80422571D01*
X101432000Y-80105429D01*
X101371415Y-79800844D01*
X113656019Y-79800844D01*
X113695196Y-80048923D01*
X113782017Y-80284592D01*
X113829984Y-80374332D01*
X114011645Y-80472578D01*
X114758223Y-79726000D01*
X115111777Y-79726000D01*
X115858355Y-80472578D01*
X116040016Y-80374332D01*
X116145266Y-80146296D01*
X116204007Y-79902110D01*
X116213981Y-79651156D01*
X116174804Y-79403077D01*
X116096972Y-79191806D01*
X121165000Y-79191806D01*
X121165000Y-79558194D01*
X121236479Y-79917542D01*
X121376689Y-80256041D01*
X121580243Y-80560681D01*
X121839319Y-80819757D01*
X122143959Y-81023311D01*
X122482458Y-81163521D01*
X122841806Y-81235000D01*
X123208194Y-81235000D01*
X123567542Y-81163521D01*
X123906041Y-81023311D01*
X124210681Y-80819757D01*
X124469757Y-80560681D01*
X124673311Y-80256041D01*
X124813521Y-79917542D01*
X124885000Y-79558194D01*
X124885000Y-79191806D01*
X124813521Y-78832458D01*
X124673311Y-78493959D01*
X124469757Y-78189319D01*
X124210681Y-77930243D01*
X123906041Y-77726689D01*
X123567542Y-77586479D01*
X123208194Y-77515000D01*
X122841806Y-77515000D01*
X122482458Y-77586479D01*
X122143959Y-77726689D01*
X121839319Y-77930243D01*
X121580243Y-78189319D01*
X121376689Y-78493959D01*
X121236479Y-78832458D01*
X121165000Y-79191806D01*
X116096972Y-79191806D01*
X116087983Y-79167408D01*
X116040016Y-79077668D01*
X115858355Y-78979422D01*
X115111777Y-79726000D01*
X114758223Y-79726000D01*
X114011645Y-78979422D01*
X113829984Y-79077668D01*
X113724734Y-79305704D01*
X113665993Y-79549890D01*
X113656019Y-79800844D01*
X101371415Y-79800844D01*
X101370129Y-79794380D01*
X101248763Y-79501379D01*
X101072569Y-79237685D01*
X100848315Y-79013431D01*
X100584621Y-78837237D01*
X100501110Y-78802645D01*
X114188422Y-78802645D01*
X114935000Y-79549223D01*
X115681578Y-78802645D01*
X115583332Y-78620984D01*
X115355296Y-78515734D01*
X115111110Y-78456993D01*
X114860156Y-78447019D01*
X114612077Y-78486196D01*
X114376408Y-78573017D01*
X114286668Y-78620984D01*
X114188422Y-78802645D01*
X100501110Y-78802645D01*
X100291620Y-78715871D01*
X99980571Y-78654000D01*
X99663429Y-78654000D01*
X99352380Y-78715871D01*
X99059379Y-78837237D01*
X98795685Y-79013431D01*
X98571431Y-79237685D01*
X98552000Y-79266766D01*
X98532569Y-79237685D01*
X98308315Y-79013431D01*
X98044621Y-78837237D01*
X97751620Y-78715871D01*
X97440571Y-78654000D01*
X97123429Y-78654000D01*
X96812380Y-78715871D01*
X96519379Y-78837237D01*
X96255685Y-79013431D01*
X96031431Y-79237685D01*
X96012000Y-79266766D01*
X95992569Y-79237685D01*
X95768315Y-79013431D01*
X95504621Y-78837237D01*
X95211620Y-78715871D01*
X94900571Y-78654000D01*
X94583429Y-78654000D01*
X94272380Y-78715871D01*
X93979379Y-78837237D01*
X93715685Y-79013431D01*
X93491431Y-79237685D01*
X93315237Y-79501379D01*
X93254481Y-79648055D01*
X93175726Y-79520697D01*
X93012005Y-79345015D01*
X92817156Y-79204649D01*
X92598667Y-79104993D01*
X92516093Y-79079951D01*
X92327000Y-79139677D01*
X92327000Y-80139000D01*
X92347000Y-80139000D01*
X92347000Y-80389000D01*
X92327000Y-80389000D01*
X92327000Y-81388323D01*
X92516093Y-81448049D01*
X92598667Y-81423007D01*
X92817156Y-81323351D01*
X93012005Y-81182985D01*
X93175726Y-81007303D01*
X93254481Y-80879945D01*
X93315237Y-81026621D01*
X93491431Y-81290315D01*
X93715685Y-81514569D01*
X93744766Y-81534000D01*
X93715685Y-81553431D01*
X93491431Y-81777685D01*
X93315237Y-82041379D01*
X93254481Y-82188055D01*
X93175726Y-82060697D01*
X93012005Y-81885015D01*
X92817156Y-81744649D01*
X92598667Y-81644993D01*
X92516093Y-81619951D01*
X92327000Y-81679677D01*
X92327000Y-82679000D01*
X92347000Y-82679000D01*
X92347000Y-82929000D01*
X92327000Y-82929000D01*
X92327000Y-83928323D01*
X92516093Y-83988049D01*
X92598667Y-83963007D01*
X92817156Y-83863351D01*
X93012005Y-83722985D01*
X93175726Y-83547303D01*
X93254481Y-83419945D01*
X93315237Y-83566621D01*
X93491431Y-83830315D01*
X93630446Y-83969330D01*
X92577454Y-85022323D01*
X92577000Y-85022323D01*
X92401677Y-85039591D01*
X92233091Y-85090731D01*
X92202000Y-85107349D01*
X92170909Y-85090731D01*
X92139395Y-85081171D01*
X91979132Y-84920909D01*
X91951265Y-84780809D01*
X91871360Y-84587902D01*
X91755356Y-84414289D01*
X91607711Y-84266644D01*
X91434098Y-84150640D01*
X91241191Y-84070735D01*
X91036401Y-84030000D01*
X90827599Y-84030000D01*
X90681632Y-84059034D01*
X90688315Y-84054569D01*
X90912569Y-83830315D01*
X91088763Y-83566621D01*
X91149519Y-83419945D01*
X91228274Y-83547303D01*
X91391995Y-83722985D01*
X91586844Y-83863351D01*
X91805333Y-83963007D01*
X91887907Y-83988049D01*
X92077000Y-83928323D01*
X92077000Y-82929000D01*
X92057000Y-82929000D01*
X92057000Y-82679000D01*
X92077000Y-82679000D01*
X92077000Y-81679677D01*
X91887907Y-81619951D01*
X91805333Y-81644993D01*
X91586844Y-81744649D01*
X91391995Y-81885015D01*
X91228274Y-82060697D01*
X91149519Y-82188055D01*
X91088763Y-82041379D01*
X90912569Y-81777685D01*
X90688315Y-81553431D01*
X90424621Y-81377237D01*
X90283499Y-81318782D01*
X90472005Y-81182985D01*
X90635726Y-81007303D01*
X90762027Y-80803056D01*
X90846055Y-80578094D01*
X91017945Y-80578094D01*
X91101973Y-80803056D01*
X91228274Y-81007303D01*
X91391995Y-81182985D01*
X91586844Y-81323351D01*
X91805333Y-81423007D01*
X91887907Y-81448049D01*
X92077000Y-81388323D01*
X92077000Y-80389000D01*
X91077138Y-80389000D01*
X91017945Y-80578094D01*
X90846055Y-80578094D01*
X90786862Y-80389000D01*
X89787000Y-80389000D01*
X89787000Y-80409000D01*
X89537000Y-80409000D01*
X89537000Y-80389000D01*
X88537138Y-80389000D01*
X88477945Y-80578094D01*
X88561973Y-80803056D01*
X88688274Y-81007303D01*
X88851995Y-81182985D01*
X89040501Y-81318782D01*
X88899379Y-81377237D01*
X88635685Y-81553431D01*
X88411431Y-81777685D01*
X88392000Y-81806766D01*
X88372569Y-81777685D01*
X88148315Y-81553431D01*
X87884621Y-81377237D01*
X87743499Y-81318782D01*
X87932005Y-81182985D01*
X88095726Y-81007303D01*
X88222027Y-80803056D01*
X88306055Y-80578094D01*
X88246862Y-80389000D01*
X87247000Y-80389000D01*
X87247000Y-80409000D01*
X86997000Y-80409000D01*
X86997000Y-80389000D01*
X85997138Y-80389000D01*
X85937945Y-80578094D01*
X86021973Y-80803056D01*
X86148274Y-81007303D01*
X86311995Y-81182985D01*
X86500501Y-81318782D01*
X86359379Y-81377237D01*
X86095685Y-81553431D01*
X85871431Y-81777685D01*
X85852000Y-81806766D01*
X85832569Y-81777685D01*
X85608315Y-81553431D01*
X85344621Y-81377237D01*
X85203499Y-81318782D01*
X85392005Y-81182985D01*
X85555726Y-81007303D01*
X85682027Y-80803056D01*
X85766055Y-80578094D01*
X85706862Y-80389000D01*
X84707000Y-80389000D01*
X84707000Y-80409000D01*
X84457000Y-80409000D01*
X84457000Y-80389000D01*
X83457138Y-80389000D01*
X83397945Y-80578094D01*
X83481973Y-80803056D01*
X83608274Y-81007303D01*
X83771995Y-81182985D01*
X83960501Y-81318782D01*
X83819379Y-81377237D01*
X83555685Y-81553431D01*
X83331431Y-81777685D01*
X83312000Y-81806766D01*
X83292569Y-81777685D01*
X83068315Y-81553431D01*
X82804621Y-81377237D01*
X82663499Y-81318782D01*
X82852005Y-81182985D01*
X83015726Y-81007303D01*
X83142027Y-80803056D01*
X83226055Y-80578094D01*
X83166862Y-80389000D01*
X82167000Y-80389000D01*
X82167000Y-80409000D01*
X81917000Y-80409000D01*
X81917000Y-80389000D01*
X81897000Y-80389000D01*
X81897000Y-80139000D01*
X81917000Y-80139000D01*
X81917000Y-79139677D01*
X82167000Y-79139677D01*
X82167000Y-80139000D01*
X83166862Y-80139000D01*
X83226055Y-79949906D01*
X83397945Y-79949906D01*
X83457138Y-80139000D01*
X84457000Y-80139000D01*
X84457000Y-79139677D01*
X84707000Y-79139677D01*
X84707000Y-80139000D01*
X85706862Y-80139000D01*
X85766055Y-79949906D01*
X85937945Y-79949906D01*
X85997138Y-80139000D01*
X86997000Y-80139000D01*
X86997000Y-79139677D01*
X87247000Y-79139677D01*
X87247000Y-80139000D01*
X88246862Y-80139000D01*
X88306055Y-79949906D01*
X88477945Y-79949906D01*
X88537138Y-80139000D01*
X89537000Y-80139000D01*
X89537000Y-79139677D01*
X89787000Y-79139677D01*
X89787000Y-80139000D01*
X90786862Y-80139000D01*
X90846055Y-79949906D01*
X91017945Y-79949906D01*
X91077138Y-80139000D01*
X92077000Y-80139000D01*
X92077000Y-79139677D01*
X91887907Y-79079951D01*
X91805333Y-79104993D01*
X91586844Y-79204649D01*
X91391995Y-79345015D01*
X91228274Y-79520697D01*
X91101973Y-79724944D01*
X91017945Y-79949906D01*
X90846055Y-79949906D01*
X90762027Y-79724944D01*
X90635726Y-79520697D01*
X90472005Y-79345015D01*
X90277156Y-79204649D01*
X90058667Y-79104993D01*
X89976093Y-79079951D01*
X89787000Y-79139677D01*
X89537000Y-79139677D01*
X89347907Y-79079951D01*
X89265333Y-79104993D01*
X89046844Y-79204649D01*
X88851995Y-79345015D01*
X88688274Y-79520697D01*
X88561973Y-79724944D01*
X88477945Y-79949906D01*
X88306055Y-79949906D01*
X88222027Y-79724944D01*
X88095726Y-79520697D01*
X87932005Y-79345015D01*
X87737156Y-79204649D01*
X87518667Y-79104993D01*
X87436093Y-79079951D01*
X87247000Y-79139677D01*
X86997000Y-79139677D01*
X86807907Y-79079951D01*
X86725333Y-79104993D01*
X86506844Y-79204649D01*
X86311995Y-79345015D01*
X86148274Y-79520697D01*
X86021973Y-79724944D01*
X85937945Y-79949906D01*
X85766055Y-79949906D01*
X85682027Y-79724944D01*
X85555726Y-79520697D01*
X85392005Y-79345015D01*
X85197156Y-79204649D01*
X84978667Y-79104993D01*
X84896093Y-79079951D01*
X84707000Y-79139677D01*
X84457000Y-79139677D01*
X84267907Y-79079951D01*
X84185333Y-79104993D01*
X83966844Y-79204649D01*
X83771995Y-79345015D01*
X83608274Y-79520697D01*
X83481973Y-79724944D01*
X83397945Y-79949906D01*
X83226055Y-79949906D01*
X83142027Y-79724944D01*
X83015726Y-79520697D01*
X82852005Y-79345015D01*
X82657156Y-79204649D01*
X82438667Y-79104993D01*
X82356093Y-79079951D01*
X82167000Y-79139677D01*
X81917000Y-79139677D01*
X81727907Y-79079951D01*
X81645333Y-79104993D01*
X81426844Y-79204649D01*
X81231995Y-79345015D01*
X81068274Y-79520697D01*
X80989519Y-79648055D01*
X80928763Y-79501379D01*
X80752569Y-79237685D01*
X80528315Y-79013431D01*
X80264621Y-78837237D01*
X79971620Y-78715871D01*
X79660571Y-78654000D01*
X79343429Y-78654000D01*
X79032380Y-78715871D01*
X78739379Y-78837237D01*
X78475685Y-79013431D01*
X78251431Y-79237685D01*
X78075237Y-79501379D01*
X77953871Y-79794380D01*
X77892000Y-80105429D01*
X77892000Y-80422571D01*
X77953871Y-80733620D01*
X78075237Y-81026621D01*
X78251431Y-81290315D01*
X78261883Y-81300767D01*
X78227724Y-81319026D01*
X78111999Y-81413999D01*
X78017026Y-81529724D01*
X77946454Y-81661753D01*
X77902997Y-81805014D01*
X77888323Y-81954000D01*
X77888323Y-83654000D01*
X77902997Y-83802986D01*
X77946454Y-83946247D01*
X78017026Y-84078276D01*
X78111999Y-84194001D01*
X78227724Y-84288974D01*
X78359753Y-84359546D01*
X78503014Y-84403003D01*
X78642000Y-84416692D01*
X78642000Y-84909761D01*
X78637840Y-84952000D01*
X78642000Y-84994239D01*
X78642000Y-84994245D01*
X78649185Y-85067191D01*
X78654444Y-85120589D01*
X78657487Y-85130619D01*
X78703619Y-85282699D01*
X78783476Y-85432101D01*
X78890946Y-85563054D01*
X78923765Y-85589988D01*
X80244866Y-86911090D01*
X80155944Y-86958620D01*
X80019004Y-87071004D01*
X79906620Y-87207944D01*
X79823111Y-87364178D01*
X79771687Y-87533701D01*
X79754323Y-87710000D01*
X79754323Y-87918990D01*
X78900549Y-87918990D01*
X78858310Y-87914830D01*
X78816071Y-87918990D01*
X78816064Y-87918990D01*
X78705285Y-87929901D01*
X78689720Y-87931434D01*
X78640545Y-87946351D01*
X78527610Y-87980609D01*
X78378208Y-88060466D01*
X78247256Y-88167936D01*
X78220326Y-88200750D01*
X77507754Y-88913322D01*
X77489994Y-88927898D01*
X77474935Y-88940257D01*
X77463922Y-88953677D01*
X77367466Y-89071208D01*
X77308301Y-89181898D01*
X77287608Y-89220612D01*
X77268267Y-89284371D01*
X77238433Y-89382721D01*
X77227127Y-89497513D01*
X77225989Y-89509066D01*
X77225989Y-89509072D01*
X77221829Y-89551311D01*
X77225989Y-89593550D01*
X77225989Y-90320235D01*
X77225990Y-90320245D01*
X77225989Y-92481750D01*
X77221829Y-92523989D01*
X77225989Y-92566228D01*
X77225989Y-92566234D01*
X77235103Y-92658765D01*
X77238433Y-92692578D01*
X77248596Y-92726082D01*
X77287608Y-92854688D01*
X77367465Y-93004090D01*
X77474935Y-93135043D01*
X77507754Y-93161977D01*
X78926323Y-94580546D01*
X78926323Y-94583000D01*
X78943591Y-94758323D01*
X78994731Y-94926909D01*
X79011349Y-94958000D01*
X78994731Y-94989091D01*
X78943591Y-95157677D01*
X78926323Y-95333000D01*
X78926323Y-95484453D01*
X78925000Y-95484323D01*
X78555000Y-95484323D01*
X78379677Y-95501591D01*
X78211091Y-95552731D01*
X78055722Y-95635777D01*
X77919539Y-95747539D01*
X77807777Y-95883722D01*
X77724731Y-96039091D01*
X77673591Y-96207677D01*
X77656323Y-96383000D01*
X77656323Y-96653000D01*
X77673591Y-96828323D01*
X77724731Y-96996909D01*
X77741349Y-97028000D01*
X77724731Y-97059091D01*
X77673591Y-97227677D01*
X77656323Y-97403000D01*
X77656323Y-97673000D01*
X77673591Y-97848323D01*
X77724731Y-98016909D01*
X77807777Y-98172278D01*
X77919539Y-98308461D01*
X78055722Y-98420223D01*
X78211091Y-98503269D01*
X78379677Y-98554409D01*
X78555000Y-98571677D01*
X78925000Y-98571677D01*
X79100323Y-98554409D01*
X79268909Y-98503269D01*
X79375000Y-98446562D01*
X79481091Y-98503269D01*
X79649677Y-98554409D01*
X79825000Y-98571677D01*
X80195000Y-98571677D01*
X80309363Y-98560413D01*
X79685765Y-99184012D01*
X79685760Y-99184016D01*
X78669761Y-100200016D01*
X78288765Y-100581012D01*
X78255946Y-100607946D01*
X78148476Y-100738899D01*
X78068619Y-100888301D01*
X78057646Y-100924476D01*
X78025046Y-101031946D01*
X78019444Y-101050412D01*
X78007000Y-101176755D01*
X78007000Y-101176761D01*
X78002840Y-101219000D01*
X78007000Y-101261239D01*
X78007001Y-106113292D01*
X76985000Y-106104983D01*
X76985000Y-78738397D01*
X77021355Y-78367618D01*
X77117885Y-78047897D01*
X77274676Y-77753015D01*
X77485758Y-77494203D01*
X77743088Y-77281322D01*
X78036867Y-77122476D01*
X78355908Y-77023717D01*
X78724271Y-76985000D01*
X123661603Y-76985000D01*
X124032382Y-77021355D01*
G37*
G04 #@! TD.AperFunction*
D25*
X116137323Y-97404000D02*
X116155071Y-97584200D01*
X116207634Y-97757476D01*
X116292991Y-97917167D01*
X116407862Y-98057138D01*
X116547833Y-98172009D01*
X116707524Y-98257366D01*
X116880800Y-98309929D01*
X117061000Y-98327677D01*
X117295408Y-98327677D01*
X117292323Y-98359000D01*
X117292323Y-98669000D01*
X117308672Y-98835000D01*
X114852091Y-98835000D01*
X114880003Y-98742986D01*
X114894677Y-98594000D01*
X114894677Y-97794000D01*
X114880003Y-97645014D01*
X114872138Y-97619086D01*
X115087225Y-97403999D01*
X116137323Y-97403999D01*
X116137323Y-97404000D01*
G04 #@! TA.AperFunction,Conductor*
D24*
G36*
X116137323Y-97404000D02*
G01*
X116155071Y-97584200D01*
X116207634Y-97757476D01*
X116292991Y-97917167D01*
X116407862Y-98057138D01*
X116547833Y-98172009D01*
X116707524Y-98257366D01*
X116880800Y-98309929D01*
X117061000Y-98327677D01*
X117295408Y-98327677D01*
X117292323Y-98359000D01*
X117292323Y-98669000D01*
X117308672Y-98835000D01*
X114852091Y-98835000D01*
X114880003Y-98742986D01*
X114894677Y-98594000D01*
X114894677Y-97794000D01*
X114880003Y-97645014D01*
X114872138Y-97619086D01*
X115087225Y-97403999D01*
X116137323Y-97403999D01*
X116137323Y-97404000D01*
G37*
G04 #@! TD.AperFunction*
D25*
X105847760Y-93093984D02*
X105847766Y-93093989D01*
X105886867Y-93133090D01*
X105914735Y-93273191D01*
X105994640Y-93466098D01*
X106110644Y-93639711D01*
X106258289Y-93787356D01*
X106431902Y-93903360D01*
X106624809Y-93983265D01*
X106829599Y-94024000D01*
X107038401Y-94024000D01*
X107092001Y-94013338D01*
X107092001Y-94754642D01*
X107069777Y-94781722D01*
X106986731Y-94937091D01*
X106935591Y-95105677D01*
X106918323Y-95281000D01*
X106918323Y-95283989D01*
X104826176Y-95283989D01*
X104866974Y-95234276D01*
X104937546Y-95102247D01*
X104981003Y-94958986D01*
X104995677Y-94810000D01*
X104995677Y-93910000D01*
X104981003Y-93761014D01*
X104937546Y-93617753D01*
X104866974Y-93485724D01*
X104772001Y-93369999D01*
X104656276Y-93275026D01*
X104524247Y-93204454D01*
X104380986Y-93160997D01*
X104232000Y-93146323D01*
X103032000Y-93146323D01*
X102883014Y-93160997D01*
X102739753Y-93204454D01*
X102607724Y-93275026D01*
X102491999Y-93369999D01*
X102397026Y-93485724D01*
X102374429Y-93528000D01*
X99337605Y-93528000D01*
X99329974Y-93513724D01*
X99235001Y-93397999D01*
X99119276Y-93303026D01*
X98987247Y-93232454D01*
X98843986Y-93188997D01*
X98695000Y-93174323D01*
X97395000Y-93174323D01*
X97246014Y-93188997D01*
X97102753Y-93232454D01*
X96970724Y-93303026D01*
X96854999Y-93397999D01*
X96760026Y-93513724D01*
X96689454Y-93645753D01*
X96645997Y-93789014D01*
X96631323Y-93938000D01*
X96631323Y-93984711D01*
X96557280Y-93923945D01*
X96386350Y-93832582D01*
X96200881Y-93776320D01*
X96008000Y-93757323D01*
X95508000Y-93757323D01*
X95315119Y-93776320D01*
X95129650Y-93832582D01*
X94958720Y-93923945D01*
X94808900Y-94046900D01*
X94754335Y-94113387D01*
X94676931Y-94019069D01*
X94528057Y-93896892D01*
X94358209Y-93806106D01*
X94173912Y-93750200D01*
X93982250Y-93731323D01*
X93920900Y-93731323D01*
X95420995Y-92231228D01*
X95588000Y-92247677D01*
X95896475Y-92247677D01*
X95899754Y-92248000D01*
X95899760Y-92248000D01*
X95941999Y-92252160D01*
X95984238Y-92248000D01*
X96752395Y-92248000D01*
X96760026Y-92262276D01*
X96854999Y-92378001D01*
X96970724Y-92472974D01*
X97102753Y-92543546D01*
X97246014Y-92587003D01*
X97395000Y-92601677D01*
X98695000Y-92601677D01*
X98843986Y-92587003D01*
X98987247Y-92543546D01*
X99119276Y-92472974D01*
X99235001Y-92378001D01*
X99329974Y-92262276D01*
X99337605Y-92248000D01*
X102846741Y-92248000D01*
X102883014Y-92259003D01*
X103032000Y-92273677D01*
X104232000Y-92273677D01*
X104380986Y-92259003D01*
X104524247Y-92215546D01*
X104656276Y-92144974D01*
X104772001Y-92050001D01*
X104786324Y-92032548D01*
X105847760Y-93093984D01*
G04 #@! TA.AperFunction,Conductor*
D24*
G36*
X105847760Y-93093984D02*
G01*
X105847766Y-93093989D01*
X105886867Y-93133090D01*
X105914735Y-93273191D01*
X105994640Y-93466098D01*
X106110644Y-93639711D01*
X106258289Y-93787356D01*
X106431902Y-93903360D01*
X106624809Y-93983265D01*
X106829599Y-94024000D01*
X107038401Y-94024000D01*
X107092001Y-94013338D01*
X107092001Y-94754642D01*
X107069777Y-94781722D01*
X106986731Y-94937091D01*
X106935591Y-95105677D01*
X106918323Y-95281000D01*
X106918323Y-95283989D01*
X104826176Y-95283989D01*
X104866974Y-95234276D01*
X104937546Y-95102247D01*
X104981003Y-94958986D01*
X104995677Y-94810000D01*
X104995677Y-93910000D01*
X104981003Y-93761014D01*
X104937546Y-93617753D01*
X104866974Y-93485724D01*
X104772001Y-93369999D01*
X104656276Y-93275026D01*
X104524247Y-93204454D01*
X104380986Y-93160997D01*
X104232000Y-93146323D01*
X103032000Y-93146323D01*
X102883014Y-93160997D01*
X102739753Y-93204454D01*
X102607724Y-93275026D01*
X102491999Y-93369999D01*
X102397026Y-93485724D01*
X102374429Y-93528000D01*
X99337605Y-93528000D01*
X99329974Y-93513724D01*
X99235001Y-93397999D01*
X99119276Y-93303026D01*
X98987247Y-93232454D01*
X98843986Y-93188997D01*
X98695000Y-93174323D01*
X97395000Y-93174323D01*
X97246014Y-93188997D01*
X97102753Y-93232454D01*
X96970724Y-93303026D01*
X96854999Y-93397999D01*
X96760026Y-93513724D01*
X96689454Y-93645753D01*
X96645997Y-93789014D01*
X96631323Y-93938000D01*
X96631323Y-93984711D01*
X96557280Y-93923945D01*
X96386350Y-93832582D01*
X96200881Y-93776320D01*
X96008000Y-93757323D01*
X95508000Y-93757323D01*
X95315119Y-93776320D01*
X95129650Y-93832582D01*
X94958720Y-93923945D01*
X94808900Y-94046900D01*
X94754335Y-94113387D01*
X94676931Y-94019069D01*
X94528057Y-93896892D01*
X94358209Y-93806106D01*
X94173912Y-93750200D01*
X93982250Y-93731323D01*
X93920900Y-93731323D01*
X95420995Y-92231228D01*
X95588000Y-92247677D01*
X95896475Y-92247677D01*
X95899754Y-92248000D01*
X95899760Y-92248000D01*
X95941999Y-92252160D01*
X95984238Y-92248000D01*
X96752395Y-92248000D01*
X96760026Y-92262276D01*
X96854999Y-92378001D01*
X96970724Y-92472974D01*
X97102753Y-92543546D01*
X97246014Y-92587003D01*
X97395000Y-92601677D01*
X98695000Y-92601677D01*
X98843986Y-92587003D01*
X98987247Y-92543546D01*
X99119276Y-92472974D01*
X99235001Y-92378001D01*
X99329974Y-92262276D01*
X99337605Y-92248000D01*
X102846741Y-92248000D01*
X102883014Y-92259003D01*
X103032000Y-92273677D01*
X104232000Y-92273677D01*
X104380986Y-92259003D01*
X104524247Y-92215546D01*
X104656276Y-92144974D01*
X104772001Y-92050001D01*
X104786324Y-92032548D01*
X105847760Y-93093984D01*
G37*
G04 #@! TD.AperFunction*
D25*
X109700323Y-94874000D02*
X109717687Y-95050299D01*
X109741962Y-95130323D01*
X109669546Y-95130323D01*
X109426988Y-94887764D01*
X109400054Y-94854946D01*
X109269102Y-94747476D01*
X109244267Y-94734202D01*
X109332869Y-94675000D01*
X109700323Y-94675000D01*
X109700323Y-94874000D01*
G04 #@! TA.AperFunction,Conductor*
D24*
G36*
X109700323Y-94874000D02*
G01*
X109717687Y-95050299D01*
X109741962Y-95130323D01*
X109669546Y-95130323D01*
X109426988Y-94887764D01*
X109400054Y-94854946D01*
X109269102Y-94747476D01*
X109244267Y-94734202D01*
X109332869Y-94675000D01*
X109700323Y-94675000D01*
X109700323Y-94874000D01*
G37*
G04 #@! TD.AperFunction*
D25*
X120020902Y-94754360D02*
X120114323Y-94793056D01*
X120114323Y-94874000D01*
X120131687Y-95050299D01*
X120154577Y-95125759D01*
X120070723Y-95117499D01*
X119840988Y-94887764D01*
X119814054Y-94854946D01*
X119683102Y-94747476D01*
X119547509Y-94675000D01*
X119902131Y-94675000D01*
X120020902Y-94754360D01*
G04 #@! TA.AperFunction,Conductor*
D24*
G36*
X120020902Y-94754360D02*
G01*
X120114323Y-94793056D01*
X120114323Y-94874000D01*
X120131687Y-95050299D01*
X120154577Y-95125759D01*
X120070723Y-95117499D01*
X119840988Y-94887764D01*
X119814054Y-94854946D01*
X119683102Y-94747476D01*
X119547509Y-94675000D01*
X119902131Y-94675000D01*
X120020902Y-94754360D01*
G37*
G04 #@! TD.AperFunction*
D25*
X79754323Y-90160000D02*
X79754323Y-90500000D01*
X79771687Y-90676299D01*
X79823111Y-90845822D01*
X79828017Y-90855000D01*
X79823111Y-90864178D01*
X79771687Y-91033701D01*
X79754323Y-91210000D01*
X79754323Y-91550000D01*
X79771687Y-91726299D01*
X79823111Y-91895822D01*
X79906620Y-92052056D01*
X80019004Y-92188996D01*
X80155944Y-92301380D01*
X80312178Y-92384889D01*
X80481701Y-92436313D01*
X80655176Y-92453399D01*
X80775777Y-92574000D01*
X80366224Y-92574000D01*
X79345999Y-91553776D01*
X79345999Y-90073222D01*
X79380220Y-90039000D01*
X79766241Y-90039000D01*
X79754323Y-90160000D01*
G04 #@! TA.AperFunction,Conductor*
D24*
G36*
X79754323Y-90160000D02*
G01*
X79754323Y-90500000D01*
X79771687Y-90676299D01*
X79823111Y-90845822D01*
X79828017Y-90855000D01*
X79823111Y-90864178D01*
X79771687Y-91033701D01*
X79754323Y-91210000D01*
X79754323Y-91550000D01*
X79771687Y-91726299D01*
X79823111Y-91895822D01*
X79906620Y-92052056D01*
X80019004Y-92188996D01*
X80155944Y-92301380D01*
X80312178Y-92384889D01*
X80481701Y-92436313D01*
X80655176Y-92453399D01*
X80775777Y-92574000D01*
X80366224Y-92574000D01*
X79345999Y-91553776D01*
X79345999Y-90073222D01*
X79380220Y-90039000D01*
X79766241Y-90039000D01*
X79754323Y-90160000D01*
G37*
G04 #@! TD.AperFunction*
D25*
X90858327Y-87896053D02*
X90622380Y-88132001D01*
X90507925Y-88132001D01*
X90657270Y-87982656D01*
X90690082Y-87955728D01*
X90719092Y-87920380D01*
X90784629Y-87840523D01*
X90797552Y-87824776D01*
X90798451Y-87823094D01*
X90858327Y-87896053D01*
G04 #@! TA.AperFunction,Conductor*
D24*
G36*
X90858327Y-87896053D02*
G01*
X90622380Y-88132001D01*
X90507925Y-88132001D01*
X90657270Y-87982656D01*
X90690082Y-87955728D01*
X90719092Y-87920380D01*
X90784629Y-87840523D01*
X90797552Y-87824776D01*
X90798451Y-87823094D01*
X90858327Y-87896053D01*
G37*
G04 #@! TD.AperFunction*
D23*
X121031000Y-110366011D02*
X120973954Y-110503732D01*
X120873000Y-111011263D01*
X120873000Y-111528737D01*
X120973954Y-112036268D01*
X121031000Y-112173989D01*
X121031000Y-125540000D01*
X108077000Y-125540000D01*
X108077000Y-122087386D01*
X109669115Y-122087386D01*
X109795588Y-122329362D01*
X110119195Y-122434276D01*
X110457052Y-122474043D01*
X110796176Y-122447132D01*
X111123532Y-122354579D01*
X111184412Y-122329362D01*
X111310885Y-122087386D01*
X110490000Y-121266502D01*
X109669115Y-122087386D01*
X108077000Y-122087386D01*
X108077000Y-120706052D01*
X108754957Y-120706052D01*
X108781868Y-121045176D01*
X108874421Y-121372532D01*
X108899638Y-121433412D01*
X109141614Y-121559885D01*
X109962498Y-120739000D01*
X111017502Y-120739000D01*
X111838386Y-121559885D01*
X112080362Y-121433412D01*
X112185276Y-121109805D01*
X112225043Y-120771948D01*
X112198132Y-120432824D01*
X112105579Y-120105468D01*
X112080362Y-120044588D01*
X111838386Y-119918115D01*
X111017502Y-120739000D01*
X109962498Y-120739000D01*
X109141614Y-119918115D01*
X108899638Y-120044588D01*
X108794724Y-120368195D01*
X108754957Y-120706052D01*
X108077000Y-120706052D01*
X108077000Y-119390614D01*
X109669115Y-119390614D01*
X110490000Y-120211498D01*
X111310885Y-119390614D01*
X111184412Y-119148638D01*
X110860805Y-119043724D01*
X110522948Y-119003957D01*
X110183824Y-119030868D01*
X109856468Y-119123421D01*
X109795588Y-119148638D01*
X109669115Y-119390614D01*
X108077000Y-119390614D01*
X108077000Y-110363000D01*
X121031000Y-110363000D01*
X121031000Y-110366011D01*
G04 #@! TA.AperFunction,Conductor*
D24*
G36*
X121031000Y-110366011D02*
G01*
X120973954Y-110503732D01*
X120873000Y-111011263D01*
X120873000Y-111528737D01*
X120973954Y-112036268D01*
X121031000Y-112173989D01*
X121031000Y-125540000D01*
X108077000Y-125540000D01*
X108077000Y-122087386D01*
X109669115Y-122087386D01*
X109795588Y-122329362D01*
X110119195Y-122434276D01*
X110457052Y-122474043D01*
X110796176Y-122447132D01*
X111123532Y-122354579D01*
X111184412Y-122329362D01*
X111310885Y-122087386D01*
X110490000Y-121266502D01*
X109669115Y-122087386D01*
X108077000Y-122087386D01*
X108077000Y-120706052D01*
X108754957Y-120706052D01*
X108781868Y-121045176D01*
X108874421Y-121372532D01*
X108899638Y-121433412D01*
X109141614Y-121559885D01*
X109962498Y-120739000D01*
X111017502Y-120739000D01*
X111838386Y-121559885D01*
X112080362Y-121433412D01*
X112185276Y-121109805D01*
X112225043Y-120771948D01*
X112198132Y-120432824D01*
X112105579Y-120105468D01*
X112080362Y-120044588D01*
X111838386Y-119918115D01*
X111017502Y-120739000D01*
X109962498Y-120739000D01*
X109141614Y-119918115D01*
X108899638Y-120044588D01*
X108794724Y-120368195D01*
X108754957Y-120706052D01*
X108077000Y-120706052D01*
X108077000Y-119390614D01*
X109669115Y-119390614D01*
X110490000Y-120211498D01*
X111310885Y-119390614D01*
X111184412Y-119148638D01*
X110860805Y-119043724D01*
X110522948Y-119003957D01*
X110183824Y-119030868D01*
X109856468Y-119123421D01*
X109795588Y-119148638D01*
X109669115Y-119390614D01*
X108077000Y-119390614D01*
X108077000Y-110363000D01*
X121031000Y-110363000D01*
X121031000Y-110366011D01*
G37*
G04 #@! TD.AperFunction*
D23*
X83419998Y-107044330D02*
X83842897Y-107066048D01*
X84259614Y-107123784D01*
X84669806Y-107217252D01*
X85070416Y-107345756D01*
X85458436Y-107508330D01*
X85830989Y-107703768D01*
X86185299Y-107930615D01*
X86518724Y-108187180D01*
X86830775Y-108473381D01*
X93185784Y-114828390D01*
X93474839Y-115143838D01*
X93733629Y-115481100D01*
X93962040Y-115839634D01*
X93980000Y-115874135D01*
X93980000Y-125413000D01*
X78738491Y-125413000D01*
X78368007Y-125376674D01*
X78048667Y-125280259D01*
X77754127Y-125123649D01*
X77495621Y-124912817D01*
X77282986Y-124655785D01*
X77124327Y-124362351D01*
X77025685Y-124043690D01*
X76987000Y-123675625D01*
X76987000Y-122841609D01*
X77513000Y-122841609D01*
X77513000Y-123208391D01*
X77584556Y-123568125D01*
X77724917Y-123906988D01*
X77928690Y-124211956D01*
X78188044Y-124471310D01*
X78493012Y-124675083D01*
X78831875Y-124815444D01*
X79191609Y-124887000D01*
X79558391Y-124887000D01*
X79918125Y-124815444D01*
X80256988Y-124675083D01*
X80561956Y-124471310D01*
X80821310Y-124211956D01*
X81025083Y-123906988D01*
X81165444Y-123568125D01*
X81237000Y-123208391D01*
X81237000Y-122841609D01*
X81165444Y-122481875D01*
X81025083Y-122143012D01*
X80821310Y-121838044D01*
X80561956Y-121578690D01*
X80256988Y-121374917D01*
X79918125Y-121234556D01*
X79558391Y-121163000D01*
X79191609Y-121163000D01*
X78831875Y-121234556D01*
X78493012Y-121374917D01*
X78188044Y-121578690D01*
X77928690Y-121838044D01*
X77724917Y-122143012D01*
X77584556Y-122481875D01*
X77513000Y-122841609D01*
X76987000Y-122841609D01*
X76987000Y-120518219D01*
X80450000Y-120518219D01*
X80450000Y-120781781D01*
X80501419Y-121040280D01*
X80602280Y-121283781D01*
X80748708Y-121502925D01*
X80935075Y-121689292D01*
X81154219Y-121835720D01*
X81397720Y-121936581D01*
X81656219Y-121988000D01*
X81919781Y-121988000D01*
X82132375Y-121945712D01*
X85967893Y-121945712D01*
X86075726Y-122220338D01*
X86382384Y-122371216D01*
X86712585Y-122459369D01*
X87053639Y-122481409D01*
X87392439Y-122436489D01*
X87715966Y-122326336D01*
X87914274Y-122220338D01*
X88022107Y-121945712D01*
X91047893Y-121945712D01*
X91155726Y-122220338D01*
X91462384Y-122371216D01*
X91792585Y-122459369D01*
X92133639Y-122481409D01*
X92472439Y-122436489D01*
X92795966Y-122326336D01*
X92994274Y-122220338D01*
X93102107Y-121945712D01*
X92075000Y-120918605D01*
X91047893Y-121945712D01*
X88022107Y-121945712D01*
X86995000Y-120918605D01*
X85967893Y-121945712D01*
X82132375Y-121945712D01*
X82178280Y-121936581D01*
X82421781Y-121835720D01*
X82640925Y-121689292D01*
X82827292Y-121502925D01*
X82973720Y-121283781D01*
X83074581Y-121040280D01*
X83122845Y-120797639D01*
X85252591Y-120797639D01*
X85297511Y-121136439D01*
X85407664Y-121459966D01*
X85513662Y-121658274D01*
X85788288Y-121766107D01*
X86815395Y-120739000D01*
X87174605Y-120739000D01*
X88201712Y-121766107D01*
X88476338Y-121658274D01*
X88627216Y-121351616D01*
X88715369Y-121021415D01*
X88729830Y-120797639D01*
X90332591Y-120797639D01*
X90377511Y-121136439D01*
X90487664Y-121459966D01*
X90593662Y-121658274D01*
X90868288Y-121766107D01*
X91895395Y-120739000D01*
X92254605Y-120739000D01*
X93281712Y-121766107D01*
X93556338Y-121658274D01*
X93707216Y-121351616D01*
X93795369Y-121021415D01*
X93817409Y-120680361D01*
X93772489Y-120341561D01*
X93662336Y-120018034D01*
X93556338Y-119819726D01*
X93281712Y-119711893D01*
X92254605Y-120739000D01*
X91895395Y-120739000D01*
X90868288Y-119711893D01*
X90593662Y-119819726D01*
X90442784Y-120126384D01*
X90354631Y-120456585D01*
X90332591Y-120797639D01*
X88729830Y-120797639D01*
X88737409Y-120680361D01*
X88692489Y-120341561D01*
X88582336Y-120018034D01*
X88476338Y-119819726D01*
X88201712Y-119711893D01*
X87174605Y-120739000D01*
X86815395Y-120739000D01*
X85788288Y-119711893D01*
X85513662Y-119819726D01*
X85362784Y-120126384D01*
X85274631Y-120456585D01*
X85252591Y-120797639D01*
X83122845Y-120797639D01*
X83126000Y-120781781D01*
X83126000Y-120518219D01*
X83074581Y-120259720D01*
X82973720Y-120016219D01*
X82827292Y-119797075D01*
X82640925Y-119610708D01*
X82523562Y-119532288D01*
X85967893Y-119532288D01*
X86995000Y-120559395D01*
X88022107Y-119532288D01*
X91047893Y-119532288D01*
X92075000Y-120559395D01*
X93102107Y-119532288D01*
X92994274Y-119257662D01*
X92687616Y-119106784D01*
X92357415Y-119018631D01*
X92016361Y-118996591D01*
X91677561Y-119041511D01*
X91354034Y-119151664D01*
X91155726Y-119257662D01*
X91047893Y-119532288D01*
X88022107Y-119532288D01*
X87914274Y-119257662D01*
X87607616Y-119106784D01*
X87277415Y-119018631D01*
X86936361Y-118996591D01*
X86597561Y-119041511D01*
X86274034Y-119151664D01*
X86075726Y-119257662D01*
X85967893Y-119532288D01*
X82523562Y-119532288D01*
X82421781Y-119464280D01*
X82178280Y-119363419D01*
X81919781Y-119312000D01*
X81656219Y-119312000D01*
X81397720Y-119363419D01*
X81154219Y-119464280D01*
X80935075Y-119610708D01*
X80748708Y-119797075D01*
X80602280Y-120016219D01*
X80501419Y-120259720D01*
X80450000Y-120518219D01*
X76987000Y-120518219D01*
X76987000Y-110934712D01*
X80760893Y-110934712D01*
X80868726Y-111209338D01*
X81175384Y-111360216D01*
X81505585Y-111448369D01*
X81846639Y-111470409D01*
X82185439Y-111425489D01*
X82508966Y-111315336D01*
X82707274Y-111209338D01*
X82815107Y-110934712D01*
X81788000Y-109907605D01*
X80760893Y-110934712D01*
X76987000Y-110934712D01*
X76987000Y-109786639D01*
X80045591Y-109786639D01*
X80090511Y-110125439D01*
X80200664Y-110448966D01*
X80306662Y-110647274D01*
X80581288Y-110755107D01*
X81608395Y-109728000D01*
X81967605Y-109728000D01*
X82994712Y-110755107D01*
X83269338Y-110647274D01*
X83420216Y-110340616D01*
X83508369Y-110010415D01*
X83530409Y-109669361D01*
X83485489Y-109330561D01*
X83375336Y-109007034D01*
X83269338Y-108808726D01*
X82994712Y-108700893D01*
X81967605Y-109728000D01*
X81608395Y-109728000D01*
X80581288Y-108700893D01*
X80306662Y-108808726D01*
X80155784Y-109115384D01*
X80067631Y-109445585D01*
X80045591Y-109786639D01*
X76987000Y-109786639D01*
X76987000Y-108521288D01*
X80760893Y-108521288D01*
X81788000Y-109548395D01*
X82815107Y-108521288D01*
X82707274Y-108246662D01*
X82400616Y-108095784D01*
X82070415Y-108007631D01*
X81729361Y-107985591D01*
X81390561Y-108030511D01*
X81067034Y-108140664D01*
X80868726Y-108246662D01*
X80760893Y-108521288D01*
X76987000Y-108521288D01*
X76987000Y-106992029D01*
X83419998Y-107044330D01*
G04 #@! TA.AperFunction,Conductor*
D24*
G36*
X83419998Y-107044330D02*
G01*
X83842897Y-107066048D01*
X84259614Y-107123784D01*
X84669806Y-107217252D01*
X85070416Y-107345756D01*
X85458436Y-107508330D01*
X85830989Y-107703768D01*
X86185299Y-107930615D01*
X86518724Y-108187180D01*
X86830775Y-108473381D01*
X93185784Y-114828390D01*
X93474839Y-115143838D01*
X93733629Y-115481100D01*
X93962040Y-115839634D01*
X93980000Y-115874135D01*
X93980000Y-125413000D01*
X78738491Y-125413000D01*
X78368007Y-125376674D01*
X78048667Y-125280259D01*
X77754127Y-125123649D01*
X77495621Y-124912817D01*
X77282986Y-124655785D01*
X77124327Y-124362351D01*
X77025685Y-124043690D01*
X76987000Y-123675625D01*
X76987000Y-122841609D01*
X77513000Y-122841609D01*
X77513000Y-123208391D01*
X77584556Y-123568125D01*
X77724917Y-123906988D01*
X77928690Y-124211956D01*
X78188044Y-124471310D01*
X78493012Y-124675083D01*
X78831875Y-124815444D01*
X79191609Y-124887000D01*
X79558391Y-124887000D01*
X79918125Y-124815444D01*
X80256988Y-124675083D01*
X80561956Y-124471310D01*
X80821310Y-124211956D01*
X81025083Y-123906988D01*
X81165444Y-123568125D01*
X81237000Y-123208391D01*
X81237000Y-122841609D01*
X81165444Y-122481875D01*
X81025083Y-122143012D01*
X80821310Y-121838044D01*
X80561956Y-121578690D01*
X80256988Y-121374917D01*
X79918125Y-121234556D01*
X79558391Y-121163000D01*
X79191609Y-121163000D01*
X78831875Y-121234556D01*
X78493012Y-121374917D01*
X78188044Y-121578690D01*
X77928690Y-121838044D01*
X77724917Y-122143012D01*
X77584556Y-122481875D01*
X77513000Y-122841609D01*
X76987000Y-122841609D01*
X76987000Y-120518219D01*
X80450000Y-120518219D01*
X80450000Y-120781781D01*
X80501419Y-121040280D01*
X80602280Y-121283781D01*
X80748708Y-121502925D01*
X80935075Y-121689292D01*
X81154219Y-121835720D01*
X81397720Y-121936581D01*
X81656219Y-121988000D01*
X81919781Y-121988000D01*
X82132375Y-121945712D01*
X85967893Y-121945712D01*
X86075726Y-122220338D01*
X86382384Y-122371216D01*
X86712585Y-122459369D01*
X87053639Y-122481409D01*
X87392439Y-122436489D01*
X87715966Y-122326336D01*
X87914274Y-122220338D01*
X88022107Y-121945712D01*
X91047893Y-121945712D01*
X91155726Y-122220338D01*
X91462384Y-122371216D01*
X91792585Y-122459369D01*
X92133639Y-122481409D01*
X92472439Y-122436489D01*
X92795966Y-122326336D01*
X92994274Y-122220338D01*
X93102107Y-121945712D01*
X92075000Y-120918605D01*
X91047893Y-121945712D01*
X88022107Y-121945712D01*
X86995000Y-120918605D01*
X85967893Y-121945712D01*
X82132375Y-121945712D01*
X82178280Y-121936581D01*
X82421781Y-121835720D01*
X82640925Y-121689292D01*
X82827292Y-121502925D01*
X82973720Y-121283781D01*
X83074581Y-121040280D01*
X83122845Y-120797639D01*
X85252591Y-120797639D01*
X85297511Y-121136439D01*
X85407664Y-121459966D01*
X85513662Y-121658274D01*
X85788288Y-121766107D01*
X86815395Y-120739000D01*
X87174605Y-120739000D01*
X88201712Y-121766107D01*
X88476338Y-121658274D01*
X88627216Y-121351616D01*
X88715369Y-121021415D01*
X88729830Y-120797639D01*
X90332591Y-120797639D01*
X90377511Y-121136439D01*
X90487664Y-121459966D01*
X90593662Y-121658274D01*
X90868288Y-121766107D01*
X91895395Y-120739000D01*
X92254605Y-120739000D01*
X93281712Y-121766107D01*
X93556338Y-121658274D01*
X93707216Y-121351616D01*
X93795369Y-121021415D01*
X93817409Y-120680361D01*
X93772489Y-120341561D01*
X93662336Y-120018034D01*
X93556338Y-119819726D01*
X93281712Y-119711893D01*
X92254605Y-120739000D01*
X91895395Y-120739000D01*
X90868288Y-119711893D01*
X90593662Y-119819726D01*
X90442784Y-120126384D01*
X90354631Y-120456585D01*
X90332591Y-120797639D01*
X88729830Y-120797639D01*
X88737409Y-120680361D01*
X88692489Y-120341561D01*
X88582336Y-120018034D01*
X88476338Y-119819726D01*
X88201712Y-119711893D01*
X87174605Y-120739000D01*
X86815395Y-120739000D01*
X85788288Y-119711893D01*
X85513662Y-119819726D01*
X85362784Y-120126384D01*
X85274631Y-120456585D01*
X85252591Y-120797639D01*
X83122845Y-120797639D01*
X83126000Y-120781781D01*
X83126000Y-120518219D01*
X83074581Y-120259720D01*
X82973720Y-120016219D01*
X82827292Y-119797075D01*
X82640925Y-119610708D01*
X82523562Y-119532288D01*
X85967893Y-119532288D01*
X86995000Y-120559395D01*
X88022107Y-119532288D01*
X91047893Y-119532288D01*
X92075000Y-120559395D01*
X93102107Y-119532288D01*
X92994274Y-119257662D01*
X92687616Y-119106784D01*
X92357415Y-119018631D01*
X92016361Y-118996591D01*
X91677561Y-119041511D01*
X91354034Y-119151664D01*
X91155726Y-119257662D01*
X91047893Y-119532288D01*
X88022107Y-119532288D01*
X87914274Y-119257662D01*
X87607616Y-119106784D01*
X87277415Y-119018631D01*
X86936361Y-118996591D01*
X86597561Y-119041511D01*
X86274034Y-119151664D01*
X86075726Y-119257662D01*
X85967893Y-119532288D01*
X82523562Y-119532288D01*
X82421781Y-119464280D01*
X82178280Y-119363419D01*
X81919781Y-119312000D01*
X81656219Y-119312000D01*
X81397720Y-119363419D01*
X81154219Y-119464280D01*
X80935075Y-119610708D01*
X80748708Y-119797075D01*
X80602280Y-120016219D01*
X80501419Y-120259720D01*
X80450000Y-120518219D01*
X76987000Y-120518219D01*
X76987000Y-110934712D01*
X80760893Y-110934712D01*
X80868726Y-111209338D01*
X81175384Y-111360216D01*
X81505585Y-111448369D01*
X81846639Y-111470409D01*
X82185439Y-111425489D01*
X82508966Y-111315336D01*
X82707274Y-111209338D01*
X82815107Y-110934712D01*
X81788000Y-109907605D01*
X80760893Y-110934712D01*
X76987000Y-110934712D01*
X76987000Y-109786639D01*
X80045591Y-109786639D01*
X80090511Y-110125439D01*
X80200664Y-110448966D01*
X80306662Y-110647274D01*
X80581288Y-110755107D01*
X81608395Y-109728000D01*
X81967605Y-109728000D01*
X82994712Y-110755107D01*
X83269338Y-110647274D01*
X83420216Y-110340616D01*
X83508369Y-110010415D01*
X83530409Y-109669361D01*
X83485489Y-109330561D01*
X83375336Y-109007034D01*
X83269338Y-108808726D01*
X82994712Y-108700893D01*
X81967605Y-109728000D01*
X81608395Y-109728000D01*
X80581288Y-108700893D01*
X80306662Y-108808726D01*
X80155784Y-109115384D01*
X80067631Y-109445585D01*
X80045591Y-109786639D01*
X76987000Y-109786639D01*
X76987000Y-108521288D01*
X80760893Y-108521288D01*
X81788000Y-109548395D01*
X82815107Y-108521288D01*
X82707274Y-108246662D01*
X82400616Y-108095784D01*
X82070415Y-108007631D01*
X81729361Y-107985591D01*
X81390561Y-108030511D01*
X81067034Y-108140664D01*
X80868726Y-108246662D01*
X80760893Y-108521288D01*
X76987000Y-108521288D01*
X76987000Y-106992029D01*
X83419998Y-107044330D01*
G37*
G04 #@! TD.AperFunction*
M02*
