M48
; DRILL file {KiCad 5.1.10} date Thu Dec 30 01:29:19 2021
; FORMAT={-:-/ absolute / metric / decimal}
; #@! TF.CreationDate,2021-12-30T01:29:19+02:00
; #@! TF.GenerationSoftware,Kicad,Pcbnew,5.1.10
; #@! TF.FileFunction,Plated,1,4,PTH
FMAT,2
METRIC
T1C0.300
T2C0.700
T3C1.000
T4C1.100
T5C1.200
T6C2.100
%
G90
G05
T1
X78.105Y-99.06
X78.105Y-101.6
X78.105Y-104.14
X78.105Y-108.585
X78.105Y-111.125
X78.105Y-113.665
X78.105Y-116.205
X78.105Y-118.745
X78.74Y-87.376
X79.086Y-90.005
X79.086Y-90.978
X80.645Y-111.125
X80.645Y-113.665
X80.645Y-116.205
X80.645Y-118.745
X82.55Y-96.9
X83.185Y-111.125
X83.185Y-113.665
X83.185Y-116.205
X83.185Y-118.745
X83.185Y-123.825
X85.725Y-108.585
X85.725Y-111.125
X85.725Y-113.665
X85.725Y-116.205
X85.725Y-118.745
X85.725Y-123.825
X86.106Y-85.598
X86.706Y-87.122
X86.995Y-101.6
X86.995Y-104.14
X86.995Y-106.68
X88.265Y-111.125
X88.265Y-113.665
X88.265Y-116.205
X88.265Y-118.745
X88.265Y-123.825
X89.535Y-101.6
X89.535Y-104.14
X89.535Y-106.68
X89.535Y-109.22
X90.678Y-88.138
X90.805Y-113.665
X90.805Y-116.205
X90.805Y-118.745
X90.805Y-123.825
X90.932Y-85.09
X90.932Y-96.9
X92.075Y-101.6
X92.075Y-104.14
X92.075Y-106.68
X93.345Y-116.205
X93.345Y-118.745
X93.345Y-123.825
X94.615Y-99.06
X94.615Y-101.6
X94.615Y-104.14
X94.615Y-106.68
X96.012Y-85.09
X96.036Y-85.914
X96.047Y-86.752
X96.52Y-108.712
X96.774Y-90.77
X96.774Y-92.202
X96.774Y-93.472
X97.155Y-96.52
X97.155Y-99.06
X97.155Y-101.6
X97.155Y-104.14
X97.155Y-106.68
X97.79Y-114.3
X97.79Y-116.84
X97.79Y-119.38
X97.79Y-121.92
X97.79Y-124.46
X98.298Y-88.646
X99.695Y-96.52
X99.695Y-99.06
X99.695Y-101.6
X99.695Y-104.14
X99.695Y-106.68
X100.297Y-86.751
X100.309Y-85.915
X100.33Y-85.09
X100.33Y-114.3
X100.33Y-116.84
X100.33Y-119.38
X100.33Y-121.92
X100.33Y-124.46
X101.579Y-83.29
X101.6Y-84.582
X101.6Y-85.824
X102.108Y-108.712
X102.235Y-101.6
X102.235Y-104.14
X102.87Y-114.3
X102.87Y-116.84
X102.87Y-119.38
X102.87Y-121.92
X102.87Y-124.46
X104.775Y-101.6
X104.775Y-104.14
X104.775Y-106.68
X105.41Y-98.425
X105.41Y-114.3
X105.41Y-116.84
X105.41Y-124.46
X105.918Y-94.704
X106.934Y-92.964
X106.934Y-92.964
X107.315Y-101.6
X107.315Y-104.14
X107.315Y-106.68
X108.712Y-93.815
X108.712Y-94.704
X109.728Y-108.712
X109.855Y-101.6
X109.855Y-104.14
X109.855Y-106.68
X110.49Y-114.3
X110.49Y-116.84
X110.49Y-124.46
X110.49Y-124.46
X112.395Y-101.6
X112.395Y-104.14
X112.395Y-106.68
X113.03Y-114.3
X113.03Y-116.84
X113.03Y-119.38
X113.03Y-121.92
X113.03Y-124.46
X114.935Y-101.6
X114.935Y-104.14
X115.316Y-108.712
X115.57Y-114.3
X115.57Y-116.84
X115.57Y-119.38
X115.57Y-121.92
X115.57Y-124.46
X115.824Y-98.425
X116.196Y-93.824
X116.332Y-94.704
X117.475Y-101.6
X117.475Y-104.14
X117.475Y-106.68
X117.983Y-93.815
X118.11Y-114.3
X118.11Y-116.84
X118.11Y-119.38
X118.11Y-121.92
X118.11Y-124.46
X119.126Y-94.704
X120.015Y-101.6
X120.015Y-104.14
X120.015Y-106.68
X120.523Y-93.815
X121.158Y-107.442
X121.92Y-107.95
X124.46Y-88.9
X124.46Y-91.44
X124.46Y-93.98
X124.46Y-96.52
X124.46Y-99.06
X124.46Y-101.6
X124.46Y-104.14
X124.46Y-106.68
T2
X103.632Y-87.884
T3
X79.502Y-80.264
X79.502Y-82.804
X82.042Y-80.264
X82.042Y-82.804
X84.582Y-80.264
X84.582Y-82.804
X87.122Y-80.264
X87.122Y-82.804
X89.662Y-80.264
X89.662Y-82.804
X92.202Y-80.264
X92.202Y-82.804
X94.742Y-80.264
X94.742Y-82.804
X97.282Y-80.264
X97.282Y-82.804
X99.822Y-80.264
X99.822Y-82.804
T4
X114.935Y-79.726
T5
X81.788Y-104.648
X81.788Y-109.728
X86.995Y-120.739
X92.075Y-120.739
X105.41Y-120.739
X109.385Y-82.426
X109.385Y-90.726
X110.49Y-120.739
X120.485Y-82.426
X120.885Y-90.026
T6
X108.935Y-86.076G85X108.935Y-87.176
G05
X120.935Y-86.076G85X120.935Y-87.176
G05
T0
M30
