M48
; DRILL file {KiCad 5.1.10} date Sun Dec 19 01:12:47 2021
; FORMAT={-:-/ absolute / metric / decimal}
; #@! TF.CreationDate,2021-12-19T01:12:47+02:00
; #@! TF.GenerationSoftware,Kicad,Pcbnew,5.1.10
; #@! TF.FileFunction,Plated,1,2,PTH
FMAT,2
METRIC
T1C0.300
T2C1.000
T3C1.100
T4C1.200
T5C2.200
%
G90
G05
T1
X83.947Y-106.934
X83.947Y-107.823
X84.293Y-108.585
X84.293Y-109.558
X85.09Y-113.665
X85.09Y-114.935
X85.09Y-116.205
X85.09Y-117.475
X85.09Y-118.745
X85.09Y-120.015
X85.09Y-121.285
X85.09Y-122.555
X85.09Y-123.825
X85.09Y-125.095
X85.09Y-126.365
X85.09Y-127.635
X85.09Y-128.905
X85.09Y-130.175
X85.09Y-131.445
X85.09Y-132.715
X85.09Y-133.985
X85.09Y-135.255
X85.09Y-136.525
X85.09Y-137.795
X85.09Y-139.065
X85.09Y-140.335
X85.647Y-107.641
X85.725Y-110.779
X86.36Y-130.175
X86.36Y-131.445
X86.36Y-132.715
X86.36Y-133.985
X86.36Y-136.525
X86.36Y-137.795
X86.36Y-139.065
X86.36Y-140.335
X86.487Y-107.3
X86.614Y-103.378
X87.63Y-136.525
X87.63Y-137.795
X87.63Y-139.065
X89.535Y-130.175
X90.17Y-145.415
X90.805Y-111.76
X90.805Y-130.175
X90.805Y-136.525
X90.805Y-137.795
X91.44Y-145.415
X92.075Y-130.175
X92.075Y-136.525
X92.075Y-137.795
X92.178Y-105.791
X92.71Y-145.415
X93.345Y-130.175
X93.345Y-136.525
X93.345Y-137.795
X93.98Y-145.415
X94.615Y-115.57
X94.615Y-130.175
X94.615Y-136.525
X94.615Y-137.795
X95.25Y-145.415
X95.885Y-130.175
X95.885Y-136.525
X95.885Y-137.795
X96.52Y-145.415
X97.155Y-130.175
X97.155Y-136.525
X97.155Y-137.795
X97.79Y-145.415
X98.425Y-136.525
X98.425Y-137.795
X99.06Y-145.415
X99.695Y-136.525
X99.695Y-137.795
X100.33Y-145.415
X100.965Y-107.188
X101.6Y-130.175
X101.6Y-145.415
X101.727Y-112.522
X102.87Y-130.175
X102.87Y-145.415
X104.14Y-130.175
X104.14Y-145.415
X104.775Y-113.03
X105.41Y-130.175
X105.41Y-145.415
X105.918Y-136.525
X105.918Y-137.795
X106.68Y-130.175
X106.68Y-145.415
X107.188Y-136.525
X107.188Y-137.795
X107.315Y-111.76
X107.95Y-130.175
X107.95Y-145.415
X108.458Y-136.525
X108.458Y-137.795
X109.22Y-130.175
X109.22Y-145.415
X109.728Y-136.525
X109.728Y-137.795
X110.236Y-121.793
X110.49Y-130.175
X110.49Y-145.415
X110.731Y-115.903
X110.744Y-114.046
X110.998Y-136.525
X110.998Y-137.795
X111.76Y-106.553
X111.76Y-108.458
X111.76Y-110.363
X111.76Y-116.332
X111.76Y-130.175
X111.76Y-145.415
X112.268Y-136.525
X112.268Y-137.795
X113.03Y-130.175
X113.03Y-145.415
X113.411Y-116.84
X113.538Y-136.525
X113.538Y-137.795
X114.3Y-130.175
X114.3Y-145.415
X114.477Y-132.665
X114.561Y-115.57
X115.316Y-121.793
X115.57Y-130.175
X115.57Y-145.415
X116.332Y-118.11
X116.332Y-136.525
X116.332Y-137.795
X116.84Y-130.175
X116.84Y-145.415
X117.602Y-120.523
X117.602Y-136.525
X117.602Y-137.795
X118.11Y-123.571
X118.11Y-130.175
X118.11Y-145.415
X118.872Y-136.525
X118.872Y-137.795
X119.38Y-130.175
X119.38Y-145.415
X119.888Y-123.063
X120.142Y-136.525
X120.142Y-137.795
X120.65Y-130.175
X120.65Y-145.415
X121.412Y-136.525
X121.412Y-137.795
X121.92Y-130.175
X121.92Y-145.415
X122.174Y-117.729
X122.225Y-116.205
X122.682Y-136.525
X122.682Y-137.795
X123.19Y-118.618
X123.19Y-130.175
X123.19Y-145.415
X123.952Y-120.523
X123.952Y-136.525
X123.952Y-137.795
X124.46Y-123.571
X124.46Y-130.175
X124.46Y-145.415
X125.73Y-130.175
X126.238Y-123.063
X127.0Y-130.175
X127.848Y-130.848
X128.27Y-133.985
X128.27Y-135.255
X128.27Y-136.525
X128.27Y-137.795
X128.27Y-139.065
X128.27Y-140.335
X128.524Y-117.729
X129.54Y-111.125
X129.54Y-112.395
X129.54Y-113.665
X129.54Y-114.935
X129.54Y-116.205
X129.54Y-117.475
X129.54Y-118.745
X129.54Y-120.015
X129.54Y-121.285
X129.54Y-122.555
X129.54Y-123.825
X129.54Y-125.095
X129.54Y-126.365
X129.54Y-127.635
X129.54Y-128.905
X129.54Y-130.175
X129.54Y-131.445
X129.54Y-132.715
X129.54Y-133.985
X129.54Y-135.255
X129.54Y-136.525
X129.54Y-137.795
X129.54Y-139.065
X129.54Y-140.335
T2
X84.582Y-99.949
X87.122Y-99.949
X89.662Y-99.949
X92.202Y-99.949
X94.742Y-99.949
X100.33Y-99.949
X100.33Y-102.489
X102.87Y-99.949
X102.87Y-102.489
X105.41Y-99.949
X105.41Y-102.489
X107.95Y-99.949
X107.95Y-102.489
X110.49Y-99.949
X110.49Y-102.489
T3
X115.1Y-103.546
X115.1Y-111.846
X120.65Y-100.846
X126.2Y-103.546
X126.6Y-111.146
T4
X92.075Y-120.65
X92.075Y-125.73
X92.71Y-140.462
X97.79Y-140.462
X104.14Y-120.65
X104.14Y-125.73
X112.395Y-140.462
X117.475Y-140.462
T5
X114.075Y-107.746G85X114.275Y-107.746
G05
X127.025Y-107.746G85X127.225Y-107.746
G05
T0
M30
