G04 #@! TF.GenerationSoftware,KiCad,Pcbnew,5.1.10*
G04 #@! TF.CreationDate,2021-12-20T01:15:15+02:00*
G04 #@! TF.ProjectId,pwm-controller,70776d2d-636f-46e7-9472-6f6c6c65722e,rev?*
G04 #@! TF.SameCoordinates,Original*
G04 #@! TF.FileFunction,Legend,Top*
G04 #@! TF.FilePolarity,Positive*
%FSLAX46Y46*%
G04 Gerber Fmt 4.6, Leading zero omitted, Abs format (unit mm)*
G04 Created by KiCad (PCBNEW 5.1.10) date 2021-12-20 01:15:15*
%MOMM*%
%LPD*%
G01*
G04 APERTURE LIST*
%ADD10C,0.300000*%
%ADD11C,0.200000*%
%ADD12C,0.120000*%
%ADD13C,0.150000*%
%ADD14C,2.200000*%
%ADD15R,0.900000X0.800000*%
%ADD16R,0.800000X0.900000*%
%ADD17C,1.800000*%
%ADD18C,0.100000*%
%ADD19R,1.300000X0.900000*%
%ADD20O,1.700000X1.700000*%
%ADD21R,1.700000X1.700000*%
%ADD22C,1.310000*%
G04 APERTURE END LIST*
D10*
X96592857Y-107828571D02*
X96592857Y-106328571D01*
X97092857Y-107400000D01*
X97592857Y-106328571D01*
X97592857Y-107828571D01*
X98950000Y-107828571D02*
X98950000Y-107042857D01*
X98878571Y-106900000D01*
X98735714Y-106828571D01*
X98450000Y-106828571D01*
X98307142Y-106900000D01*
X98950000Y-107757142D02*
X98807142Y-107828571D01*
X98450000Y-107828571D01*
X98307142Y-107757142D01*
X98235714Y-107614285D01*
X98235714Y-107471428D01*
X98307142Y-107328571D01*
X98450000Y-107257142D01*
X98807142Y-107257142D01*
X98950000Y-107185714D01*
X99664285Y-107828571D02*
X99664285Y-106828571D01*
X99664285Y-107114285D02*
X99735714Y-106971428D01*
X99807142Y-106900000D01*
X99950000Y-106828571D01*
X100092857Y-106828571D01*
X100592857Y-107828571D02*
X100592857Y-106328571D01*
X100735714Y-107257142D02*
X101164285Y-107828571D01*
X101164285Y-106828571D02*
X100592857Y-107400000D01*
X102950000Y-107828571D02*
X102950000Y-106328571D01*
X103807142Y-107828571D02*
X103164285Y-106971428D01*
X103807142Y-106328571D02*
X102950000Y-107185714D01*
X105092857Y-106828571D02*
X105092857Y-107828571D01*
X104450000Y-106828571D02*
X104450000Y-107614285D01*
X104521428Y-107757142D01*
X104664285Y-107828571D01*
X104878571Y-107828571D01*
X105021428Y-107757142D01*
X105092857Y-107685714D01*
X106450000Y-107757142D02*
X106307142Y-107828571D01*
X106021428Y-107828571D01*
X105878571Y-107757142D01*
X105807142Y-107685714D01*
X105735714Y-107542857D01*
X105735714Y-107114285D01*
X105807142Y-106971428D01*
X105878571Y-106900000D01*
X106021428Y-106828571D01*
X106307142Y-106828571D01*
X106450000Y-106900000D01*
X107092857Y-107828571D02*
X107092857Y-106328571D01*
X107235714Y-107257142D02*
X107664285Y-107828571D01*
X107664285Y-106828571D02*
X107092857Y-107400000D01*
X108307142Y-107828571D02*
X108307142Y-106828571D01*
X108307142Y-106328571D02*
X108235714Y-106400000D01*
X108307142Y-106471428D01*
X108378571Y-106400000D01*
X108307142Y-106328571D01*
X108307142Y-106471428D01*
X109664285Y-107828571D02*
X109664285Y-107042857D01*
X109592857Y-106900000D01*
X109450000Y-106828571D01*
X109164285Y-106828571D01*
X109021428Y-106900000D01*
X109664285Y-107757142D02*
X109521428Y-107828571D01*
X109164285Y-107828571D01*
X109021428Y-107757142D01*
X108950000Y-107614285D01*
X108950000Y-107471428D01*
X109021428Y-107328571D01*
X109164285Y-107257142D01*
X109521428Y-107257142D01*
X109664285Y-107185714D01*
X110378571Y-106828571D02*
X110378571Y-107828571D01*
X110378571Y-106971428D02*
X110450000Y-106900000D01*
X110592857Y-106828571D01*
X110807142Y-106828571D01*
X110950000Y-106900000D01*
X111021428Y-107042857D01*
X111021428Y-107828571D01*
X113735714Y-107685714D02*
X113664285Y-107757142D01*
X113450000Y-107828571D01*
X113307142Y-107828571D01*
X113092857Y-107757142D01*
X112950000Y-107614285D01*
X112878571Y-107471428D01*
X112807142Y-107185714D01*
X112807142Y-106971428D01*
X112878571Y-106685714D01*
X112950000Y-106542857D01*
X113092857Y-106400000D01*
X113307142Y-106328571D01*
X113450000Y-106328571D01*
X113664285Y-106400000D01*
X113735714Y-106471428D01*
X114592857Y-107828571D02*
X114450000Y-107757142D01*
X114378571Y-107685714D01*
X114307142Y-107542857D01*
X114307142Y-107114285D01*
X114378571Y-106971428D01*
X114450000Y-106900000D01*
X114592857Y-106828571D01*
X114807142Y-106828571D01*
X114950000Y-106900000D01*
X115021428Y-106971428D01*
X115092857Y-107114285D01*
X115092857Y-107542857D01*
X115021428Y-107685714D01*
X114950000Y-107757142D01*
X114807142Y-107828571D01*
X114592857Y-107828571D01*
X115592857Y-106828571D02*
X115878571Y-107828571D01*
X116164285Y-107114285D01*
X116450000Y-107828571D01*
X116735714Y-106828571D01*
X117950000Y-107828571D02*
X117950000Y-107042857D01*
X117878571Y-106900000D01*
X117735714Y-106828571D01*
X117450000Y-106828571D01*
X117307142Y-106900000D01*
X117950000Y-107757142D02*
X117807142Y-107828571D01*
X117450000Y-107828571D01*
X117307142Y-107757142D01*
X117235714Y-107614285D01*
X117235714Y-107471428D01*
X117307142Y-107328571D01*
X117450000Y-107257142D01*
X117807142Y-107257142D01*
X117950000Y-107185714D01*
X118664285Y-106828571D02*
X118664285Y-107828571D01*
X118664285Y-106971428D02*
X118735714Y-106900000D01*
X118878571Y-106828571D01*
X119092857Y-106828571D01*
X119235714Y-106900000D01*
X119307142Y-107042857D01*
X119307142Y-107828571D01*
D11*
X107238571Y-78281380D02*
X107333809Y-78281380D01*
X107429047Y-78329000D01*
X107476666Y-78376619D01*
X107524285Y-78471857D01*
X107571904Y-78662333D01*
X107571904Y-78900428D01*
X107524285Y-79090904D01*
X107476666Y-79186142D01*
X107429047Y-79233761D01*
X107333809Y-79281380D01*
X107238571Y-79281380D01*
X107143333Y-79233761D01*
X107095714Y-79186142D01*
X107048095Y-79090904D01*
X107000476Y-78900428D01*
X107000476Y-78662333D01*
X107048095Y-78471857D01*
X107095714Y-78376619D01*
X107143333Y-78329000D01*
X107238571Y-78281380D01*
X107857619Y-78281380D02*
X108190952Y-79281380D01*
X108524285Y-78281380D01*
X77812047Y-81773761D02*
X77954904Y-81821380D01*
X78193000Y-81821380D01*
X78288238Y-81773761D01*
X78335857Y-81726142D01*
X78383476Y-81630904D01*
X78383476Y-81535666D01*
X78335857Y-81440428D01*
X78288238Y-81392809D01*
X78193000Y-81345190D01*
X78002523Y-81297571D01*
X77907285Y-81249952D01*
X77859666Y-81202333D01*
X77812047Y-81107095D01*
X77812047Y-81011857D01*
X77859666Y-80916619D01*
X77907285Y-80869000D01*
X78002523Y-80821380D01*
X78240619Y-80821380D01*
X78383476Y-80869000D01*
X78716809Y-80821380D02*
X78954904Y-81821380D01*
X79145380Y-81107095D01*
X79335857Y-81821380D01*
X79573952Y-80821380D01*
X81288238Y-81821380D02*
X80954904Y-81345190D01*
X80716809Y-81821380D02*
X80716809Y-80821380D01*
X81097761Y-80821380D01*
X81193000Y-80869000D01*
X81240619Y-80916619D01*
X81288238Y-81011857D01*
X81288238Y-81154714D01*
X81240619Y-81249952D01*
X81193000Y-81297571D01*
X81097761Y-81345190D01*
X80716809Y-81345190D01*
X81621571Y-80821380D02*
X82288238Y-81821380D01*
X82288238Y-80821380D02*
X81621571Y-81821380D01*
X83288238Y-80821380D02*
X83859666Y-80821380D01*
X83573952Y-81821380D02*
X83573952Y-80821380D01*
X84097761Y-80821380D02*
X84764428Y-81821380D01*
X84764428Y-80821380D02*
X84097761Y-81821380D01*
X85669190Y-80389000D02*
X86145380Y-80389000D01*
X85907285Y-81821380D02*
X85907285Y-80821380D01*
X86145380Y-80389000D02*
X87193000Y-80389000D01*
X86383476Y-81821380D02*
X86383476Y-80821380D01*
X86954904Y-81821380D01*
X86954904Y-80821380D01*
X88383476Y-80821380D02*
X88478714Y-80821380D01*
X88573952Y-80869000D01*
X88621571Y-80916619D01*
X88669190Y-81011857D01*
X88716809Y-81202333D01*
X88716809Y-81440428D01*
X88669190Y-81630904D01*
X88621571Y-81726142D01*
X88573952Y-81773761D01*
X88478714Y-81821380D01*
X88383476Y-81821380D01*
X88288238Y-81773761D01*
X88240619Y-81726142D01*
X88193000Y-81630904D01*
X88145380Y-81440428D01*
X88145380Y-81202333D01*
X88193000Y-81011857D01*
X88240619Y-80916619D01*
X88288238Y-80869000D01*
X88383476Y-80821380D01*
X89002523Y-80821380D02*
X89335857Y-81821380D01*
X89669190Y-80821380D01*
X94433095Y-84266142D02*
X94385476Y-84313761D01*
X94242619Y-84361380D01*
X94147380Y-84361380D01*
X94004523Y-84313761D01*
X93909285Y-84218523D01*
X93861666Y-84123285D01*
X93814047Y-83932809D01*
X93814047Y-83789952D01*
X93861666Y-83599476D01*
X93909285Y-83504238D01*
X94004523Y-83409000D01*
X94147380Y-83361380D01*
X94242619Y-83361380D01*
X94385476Y-83409000D01*
X94433095Y-83456619D01*
X95337857Y-84361380D02*
X94861666Y-84361380D01*
X94861666Y-83361380D01*
X96433095Y-84361380D02*
X96433095Y-83361380D01*
X96671190Y-83361380D01*
X96814047Y-83409000D01*
X96909285Y-83504238D01*
X96956904Y-83599476D01*
X97004523Y-83789952D01*
X97004523Y-83932809D01*
X96956904Y-84123285D01*
X96909285Y-84218523D01*
X96814047Y-84313761D01*
X96671190Y-84361380D01*
X96433095Y-84361380D01*
X97385476Y-84075666D02*
X97861666Y-84075666D01*
X97290238Y-84361380D02*
X97623571Y-83361380D01*
X97956904Y-84361380D01*
X99004523Y-84075666D02*
X99480714Y-84075666D01*
X98909285Y-84361380D02*
X99242619Y-83361380D01*
X99575952Y-84361380D01*
X99861666Y-83456619D02*
X99909285Y-83409000D01*
X100004523Y-83361380D01*
X100242619Y-83361380D01*
X100337857Y-83409000D01*
X100385476Y-83456619D01*
X100433095Y-83551857D01*
X100433095Y-83647095D01*
X100385476Y-83789952D01*
X99814047Y-84361380D01*
X100433095Y-84361380D01*
X101575952Y-84075666D02*
X102052142Y-84075666D01*
X101480714Y-84361380D02*
X101814047Y-83361380D01*
X102147380Y-84361380D01*
X103004523Y-84361380D02*
X102433095Y-84361380D01*
X102718809Y-84361380D02*
X102718809Y-83361380D01*
X102623571Y-83504238D01*
X102528333Y-83599476D01*
X102433095Y-83647095D01*
X104147380Y-84075666D02*
X104623571Y-84075666D01*
X104052142Y-84361380D02*
X104385476Y-83361380D01*
X104718809Y-84361380D01*
X105242619Y-83361380D02*
X105337857Y-83361380D01*
X105433095Y-83409000D01*
X105480714Y-83456619D01*
X105528333Y-83551857D01*
X105575952Y-83742333D01*
X105575952Y-83980428D01*
X105528333Y-84170904D01*
X105480714Y-84266142D01*
X105433095Y-84313761D01*
X105337857Y-84361380D01*
X105242619Y-84361380D01*
X105147380Y-84313761D01*
X105099761Y-84266142D01*
X105052142Y-84170904D01*
X105004523Y-83980428D01*
X105004523Y-83742333D01*
X105052142Y-83551857D01*
X105099761Y-83456619D01*
X105147380Y-83409000D01*
X105242619Y-83361380D01*
D12*
X84355000Y-114207000D02*
X94715000Y-114207000D01*
D13*
X93345000Y-124207000D02*
X94715000Y-124207000D01*
X93345000Y-123707000D02*
X93345000Y-124207000D01*
X90805000Y-123707000D02*
X93345000Y-123707000D01*
X90805000Y-124207000D02*
X90805000Y-123707000D01*
X88265000Y-124207000D02*
X90805000Y-124207000D01*
X88265000Y-123707000D02*
X88265000Y-124207000D01*
X85725000Y-123707000D02*
X88265000Y-123707000D01*
X85725000Y-124207000D02*
X85725000Y-123707000D01*
X84355000Y-124207000D02*
X85725000Y-124207000D01*
D12*
X94715000Y-114207000D02*
X94715000Y-124207000D01*
X84355000Y-114207000D02*
X84355000Y-124207000D01*
X83755000Y-115215000D02*
X83755000Y-115715000D01*
X83755000Y-122691000D02*
X83755000Y-123191000D01*
X84281000Y-97560000D02*
X83781000Y-97560000D01*
X91757000Y-97560000D02*
X91257000Y-97560000D01*
X92765000Y-98160000D02*
X82765000Y-98160000D01*
X92765000Y-108520000D02*
X82765000Y-108520000D01*
D13*
X82765000Y-98160000D02*
X82765000Y-99530000D01*
X82765000Y-99530000D02*
X83265000Y-99530000D01*
X83265000Y-99530000D02*
X83265000Y-102070000D01*
X83265000Y-102070000D02*
X82765000Y-102070000D01*
X82765000Y-102070000D02*
X82765000Y-104610000D01*
X82765000Y-104610000D02*
X83265000Y-104610000D01*
X83265000Y-104610000D02*
X83265000Y-107150000D01*
X83265000Y-107150000D02*
X82765000Y-107150000D01*
X82765000Y-107150000D02*
X82765000Y-108520000D01*
D12*
X92765000Y-98160000D02*
X92765000Y-108520000D01*
X104040000Y-114207000D02*
X114400000Y-114207000D01*
D13*
X113030000Y-124207000D02*
X114400000Y-124207000D01*
X113030000Y-123707000D02*
X113030000Y-124207000D01*
X110490000Y-123707000D02*
X113030000Y-123707000D01*
X110490000Y-124207000D02*
X110490000Y-123707000D01*
X107950000Y-124207000D02*
X110490000Y-124207000D01*
X107950000Y-123707000D02*
X107950000Y-124207000D01*
X105410000Y-123707000D02*
X107950000Y-123707000D01*
X105410000Y-124207000D02*
X105410000Y-123707000D01*
X104040000Y-124207000D02*
X105410000Y-124207000D01*
D12*
X114400000Y-114207000D02*
X114400000Y-124207000D01*
X104040000Y-114207000D02*
X104040000Y-124207000D01*
X103440000Y-115215000D02*
X103440000Y-115715000D01*
X103440000Y-122691000D02*
X103440000Y-123191000D01*
D11*
X91286359Y-92800000D02*
X91593641Y-92800000D01*
X91286359Y-93560000D02*
X91593641Y-93560000D01*
X91286359Y-91530000D02*
X91593641Y-91530000D01*
X91286359Y-92290000D02*
X91593641Y-92290000D01*
D12*
X94360000Y-87311359D02*
X94360000Y-87618641D01*
X93600000Y-87311359D02*
X93600000Y-87618641D01*
X97763359Y-100928000D02*
X98070641Y-100928000D01*
X97763359Y-101688000D02*
X98070641Y-101688000D01*
X107214641Y-102450000D02*
X106907359Y-102450000D01*
X107214641Y-101690000D02*
X106907359Y-101690000D01*
X103732359Y-97880000D02*
X104039641Y-97880000D01*
X103732359Y-98640000D02*
X104039641Y-98640000D01*
X110389641Y-98640000D02*
X110082359Y-98640000D01*
X110389641Y-97880000D02*
X110082359Y-97880000D01*
X118263641Y-102450000D02*
X117956359Y-102450000D01*
X118263641Y-101690000D02*
X117956359Y-101690000D01*
X114781359Y-97880000D02*
X115088641Y-97880000D01*
X114781359Y-98640000D02*
X115088641Y-98640000D01*
X121438641Y-98640000D02*
X121131359Y-98640000D01*
X121438641Y-97880000D02*
X121131359Y-97880000D01*
X97576336Y-118813000D02*
X97360664Y-118813000D01*
X97576336Y-118093000D02*
X97360664Y-118093000D01*
X97576336Y-117797000D02*
X97360664Y-117797000D01*
X97576336Y-117077000D02*
X97360664Y-117077000D01*
X97576336Y-116781000D02*
X97360664Y-116781000D01*
X97576336Y-116061000D02*
X97360664Y-116061000D01*
X97576336Y-115765000D02*
X97360664Y-115765000D01*
X97576336Y-115045000D02*
X97360664Y-115045000D01*
X120855664Y-115045000D02*
X121071336Y-115045000D01*
X120855664Y-115765000D02*
X121071336Y-115765000D01*
X120855664Y-116061000D02*
X121071336Y-116061000D01*
X120855664Y-116781000D02*
X121071336Y-116781000D01*
X120855664Y-117077000D02*
X121071336Y-117077000D01*
X120855664Y-117797000D02*
X121071336Y-117797000D01*
X120855664Y-118093000D02*
X121071336Y-118093000D01*
X120855664Y-118813000D02*
X121071336Y-118813000D01*
X122703000Y-97986836D02*
X122703000Y-97771164D01*
X123423000Y-97986836D02*
X123423000Y-97771164D01*
X111654000Y-97986836D02*
X111654000Y-97771164D01*
X112374000Y-97986836D02*
X112374000Y-97771164D01*
X109221000Y-96508641D02*
X109221000Y-96201359D01*
X109981000Y-96508641D02*
X109981000Y-96201359D01*
X110491000Y-96508641D02*
X110491000Y-96201359D01*
X111251000Y-96508641D02*
X111251000Y-96201359D01*
X106893379Y-99150000D02*
X107228621Y-99150000D01*
X106893379Y-99910000D02*
X107228621Y-99910000D01*
X104646000Y-102380000D02*
X104646000Y-101450000D01*
X104646000Y-99220000D02*
X104646000Y-100150000D01*
X104646000Y-99220000D02*
X102486000Y-99220000D01*
X104646000Y-102380000D02*
X103186000Y-102380000D01*
X105481000Y-97750000D02*
X106411000Y-97750000D01*
X108641000Y-97750000D02*
X107711000Y-97750000D01*
X108641000Y-97750000D02*
X108641000Y-95590000D01*
X105481000Y-97750000D02*
X105481000Y-96290000D01*
X110996000Y-102380000D02*
X110996000Y-101450000D01*
X110996000Y-99220000D02*
X110996000Y-100150000D01*
X110996000Y-99220000D02*
X108836000Y-99220000D01*
X110996000Y-102380000D02*
X109536000Y-102380000D01*
X107176835Y-101160000D02*
X106945165Y-101160000D01*
X107176835Y-100440000D02*
X106945165Y-100440000D01*
X122045000Y-102380000D02*
X122045000Y-101450000D01*
X122045000Y-99220000D02*
X122045000Y-100150000D01*
X122045000Y-99220000D02*
X119885000Y-99220000D01*
X122045000Y-102380000D02*
X120585000Y-102380000D01*
X120270000Y-96508641D02*
X120270000Y-96201359D01*
X121030000Y-96508641D02*
X121030000Y-96201359D01*
X121540000Y-96508641D02*
X121540000Y-96201359D01*
X122300000Y-96508641D02*
X122300000Y-96201359D01*
X117942379Y-99150000D02*
X118277621Y-99150000D01*
X117942379Y-99910000D02*
X118277621Y-99910000D01*
X115695000Y-102380000D02*
X115695000Y-101450000D01*
X115695000Y-99220000D02*
X115695000Y-100150000D01*
X115695000Y-99220000D02*
X113535000Y-99220000D01*
X115695000Y-102380000D02*
X114235000Y-102380000D01*
X116530000Y-97750000D02*
X117460000Y-97750000D01*
X119690000Y-97750000D02*
X118760000Y-97750000D01*
X119690000Y-97750000D02*
X119690000Y-95590000D01*
X116530000Y-97750000D02*
X116530000Y-96290000D01*
X118225835Y-101160000D02*
X117994165Y-101160000D01*
X118225835Y-100440000D02*
X117994165Y-100440000D01*
D13*
X119935000Y-83076000D02*
X120435000Y-83076000D01*
X119935000Y-84076000D02*
X119935000Y-83076000D01*
X118935000Y-84076000D02*
X119935000Y-84076000D01*
X118935000Y-83076000D02*
X118935000Y-84076000D01*
X117935000Y-83076000D02*
X118935000Y-83076000D01*
X117935000Y-84076000D02*
X117935000Y-83076000D01*
X116935000Y-84076000D02*
X117935000Y-84076000D01*
X111935000Y-83076000D02*
X112935000Y-83076000D01*
X111935000Y-84076000D02*
X111935000Y-83076000D01*
X110935000Y-84076000D02*
X111935000Y-84076000D01*
X110935000Y-83076000D02*
X110935000Y-84076000D01*
X109935000Y-83076000D02*
X110935000Y-83076000D01*
X109935000Y-84076000D02*
X109935000Y-83076000D01*
X109435000Y-84076000D02*
X109935000Y-84076000D01*
X113435000Y-90076000D02*
X116435000Y-91076000D01*
X119935000Y-90076000D02*
X116435000Y-90076000D01*
X109935000Y-90076000D02*
X113435000Y-90076000D01*
D12*
X114435000Y-86576000D02*
X115435000Y-86576000D01*
X114935000Y-86076000D02*
X114935000Y-87076000D01*
X117935000Y-86576000D02*
G75*
G03*
X117935000Y-86576000I-3000000J0D01*
G01*
D13*
X123214387Y-86576000D02*
G75*
G03*
X123214387Y-86576000I-8279387J0D01*
G01*
D11*
X104882836Y-89603000D02*
X104667164Y-89603000D01*
X104882836Y-88883000D02*
X104667164Y-88883000D01*
X104882836Y-87698000D02*
X104667164Y-87698000D01*
X104882836Y-86978000D02*
X104667164Y-86978000D01*
X104882836Y-85793000D02*
X104667164Y-85793000D01*
X104882836Y-85073000D02*
X104667164Y-85073000D01*
X96765000Y-87685000D02*
X96765000Y-86375000D01*
X96765000Y-86375000D02*
X99485000Y-86375000D01*
X100625000Y-90865000D02*
X99485000Y-90865000D01*
X96765000Y-91095000D02*
X96765000Y-89785000D01*
X99485000Y-91095000D02*
X96765000Y-91095000D01*
X99485000Y-91095000D02*
X99485000Y-90865000D01*
X99485000Y-86375000D02*
X99485000Y-86605000D01*
X95249500Y-96941000D02*
X95249500Y-95631000D01*
X95249500Y-95631000D02*
X97969500Y-95631000D01*
X99109500Y-100121000D02*
X97969500Y-100121000D01*
X95249500Y-100351000D02*
X95249500Y-99041000D01*
X97969500Y-100351000D02*
X95249500Y-100351000D01*
X97969500Y-100351000D02*
X97969500Y-100121000D01*
X97969500Y-95631000D02*
X97969500Y-95861000D01*
X97480000Y-112355000D02*
X97480000Y-110895000D01*
X100640000Y-112355000D02*
X100640000Y-110195000D01*
X100640000Y-112355000D02*
X99710000Y-112355000D01*
X97480000Y-112355000D02*
X98410000Y-112355000D01*
X101290000Y-112355000D02*
X101290000Y-110895000D01*
X104450000Y-112355000D02*
X104450000Y-110195000D01*
X104450000Y-112355000D02*
X103520000Y-112355000D01*
X101290000Y-112355000D02*
X102220000Y-112355000D01*
X105100000Y-112355000D02*
X105100000Y-110895000D01*
X108260000Y-112355000D02*
X108260000Y-110195000D01*
X108260000Y-112355000D02*
X107330000Y-112355000D01*
X105100000Y-112355000D02*
X106030000Y-112355000D01*
X100097000Y-100018836D02*
X100097000Y-99803164D01*
X100817000Y-100018836D02*
X100817000Y-99803164D01*
X100967000Y-96595420D02*
X100967000Y-96876580D01*
X99947000Y-96595420D02*
X99947000Y-96876580D01*
X89065000Y-91810000D02*
X86780000Y-91810000D01*
X86780000Y-91810000D02*
X86780000Y-93280000D01*
X86780000Y-93280000D02*
X89065000Y-93280000D01*
X85255000Y-91810000D02*
X82970000Y-91810000D01*
X82970000Y-91810000D02*
X82970000Y-93280000D01*
X82970000Y-93280000D02*
X85255000Y-93280000D01*
X79350359Y-82892000D02*
X79657641Y-82892000D01*
X79350359Y-82132000D02*
X79657641Y-82132000D01*
X79655641Y-83148000D02*
X79348359Y-83148000D01*
X79655641Y-83908000D02*
X79348359Y-83908000D01*
X93285000Y-82699000D02*
X93285000Y-81369000D01*
X94615000Y-82699000D02*
X93285000Y-82699000D01*
X93285000Y-80099000D02*
X93285000Y-77499000D01*
X95885000Y-80099000D02*
X93285000Y-80099000D01*
X95885000Y-82699000D02*
X95885000Y-80099000D01*
X93285000Y-77499000D02*
X106105000Y-77499000D01*
X95885000Y-82699000D02*
X106105000Y-82699000D01*
X106105000Y-82699000D02*
X106105000Y-77499000D01*
X77537000Y-80159000D02*
X77537000Y-78829000D01*
X78867000Y-80159000D02*
X77537000Y-80159000D01*
X80137000Y-80159000D02*
X80137000Y-77499000D01*
X80137000Y-77499000D02*
X90357000Y-77499000D01*
X80137000Y-80159000D02*
X90357000Y-80159000D01*
X90357000Y-80159000D02*
X90357000Y-77499000D01*
X93470000Y-90753420D02*
X93470000Y-91034580D01*
X94490000Y-90753420D02*
X94490000Y-91034580D01*
X84871000Y-82929000D02*
X81271000Y-82929000D01*
X84871000Y-82929000D02*
X87071000Y-82929000D01*
X84871000Y-89699000D02*
X82671000Y-89699000D01*
X84871000Y-89699000D02*
X87071000Y-89699000D01*
X89758359Y-87083000D02*
X90065641Y-87083000D01*
X89758359Y-86323000D02*
X90065641Y-86323000D01*
X89756359Y-84581000D02*
X90063641Y-84581000D01*
X89756359Y-83821000D02*
X90063641Y-83821000D01*
X91790359Y-87718000D02*
X92097641Y-87718000D01*
X91790359Y-86958000D02*
X92097641Y-86958000D01*
X89758359Y-85813000D02*
X90065641Y-85813000D01*
X89758359Y-85053000D02*
X90065641Y-85053000D01*
X89758359Y-88353000D02*
X90065641Y-88353000D01*
X89758359Y-87593000D02*
X90065641Y-87593000D01*
X91790359Y-86448000D02*
X92097641Y-86448000D01*
X91790359Y-85688000D02*
X92097641Y-85688000D01*
X89758359Y-89623000D02*
X90065641Y-89623000D01*
X89758359Y-88863000D02*
X90065641Y-88863000D01*
X91790359Y-88988000D02*
X92097641Y-88988000D01*
X91790359Y-88228000D02*
X92097641Y-88228000D01*
X79702164Y-89200000D02*
X79917836Y-89200000D01*
X79702164Y-88480000D02*
X79917836Y-88480000D01*
X79917836Y-84980000D02*
X79702164Y-84980000D01*
X79917836Y-85700000D02*
X79702164Y-85700000D01*
X79917836Y-87430000D02*
X79702164Y-87430000D01*
X79917836Y-88150000D02*
X79702164Y-88150000D01*
X117800000Y-112355000D02*
X117800000Y-110895000D01*
X120960000Y-112355000D02*
X120960000Y-110195000D01*
X120960000Y-112355000D02*
X120030000Y-112355000D01*
X117800000Y-112355000D02*
X118730000Y-112355000D01*
X113990000Y-112355000D02*
X113990000Y-110895000D01*
X117150000Y-112355000D02*
X117150000Y-110195000D01*
X117150000Y-112355000D02*
X116220000Y-112355000D01*
X113990000Y-112355000D02*
X114920000Y-112355000D01*
X110180000Y-112355000D02*
X110180000Y-110895000D01*
X113340000Y-112355000D02*
X113340000Y-110195000D01*
X113340000Y-112355000D02*
X112410000Y-112355000D01*
X110180000Y-112355000D02*
X111110000Y-112355000D01*
X89201666Y-118032380D02*
X89201666Y-118746666D01*
X89154047Y-118889523D01*
X89058809Y-118984761D01*
X88915952Y-119032380D01*
X88820714Y-119032380D01*
X90154047Y-118032380D02*
X89677857Y-118032380D01*
X89630238Y-118508571D01*
X89677857Y-118460952D01*
X89773095Y-118413333D01*
X90011190Y-118413333D01*
X90106428Y-118460952D01*
X90154047Y-118508571D01*
X90201666Y-118603809D01*
X90201666Y-118841904D01*
X90154047Y-118937142D01*
X90106428Y-118984761D01*
X90011190Y-119032380D01*
X89773095Y-119032380D01*
X89677857Y-118984761D01*
X89630238Y-118937142D01*
X87915952Y-124636380D02*
X88106428Y-124636380D01*
X88201666Y-124684000D01*
X88296904Y-124779238D01*
X88344523Y-124969714D01*
X88344523Y-125303047D01*
X88296904Y-125493523D01*
X88201666Y-125588761D01*
X88106428Y-125636380D01*
X87915952Y-125636380D01*
X87820714Y-125588761D01*
X87725476Y-125493523D01*
X87677857Y-125303047D01*
X87677857Y-124969714D01*
X87725476Y-124779238D01*
X87820714Y-124684000D01*
X87915952Y-124636380D01*
X88773095Y-124636380D02*
X88773095Y-125445904D01*
X88820714Y-125541142D01*
X88868333Y-125588761D01*
X88963571Y-125636380D01*
X89154047Y-125636380D01*
X89249285Y-125588761D01*
X89296904Y-125541142D01*
X89344523Y-125445904D01*
X89344523Y-124636380D01*
X89677857Y-124636380D02*
X90249285Y-124636380D01*
X89963571Y-125636380D02*
X89963571Y-124636380D01*
X90582619Y-125255428D02*
X91344523Y-125255428D01*
X90963571Y-125636380D02*
X90963571Y-124874476D01*
X87931666Y-102792380D02*
X87931666Y-103506666D01*
X87884047Y-103649523D01*
X87788809Y-103744761D01*
X87645952Y-103792380D01*
X87550714Y-103792380D01*
X88836428Y-103125714D02*
X88836428Y-103792380D01*
X88598333Y-102744761D02*
X88360238Y-103459047D01*
X88979285Y-103459047D01*
X85955476Y-96807380D02*
X85955476Y-95807380D01*
X86336428Y-95807380D01*
X86431666Y-95855000D01*
X86479285Y-95902619D01*
X86526904Y-95997857D01*
X86526904Y-96140714D01*
X86479285Y-96235952D01*
X86431666Y-96283571D01*
X86336428Y-96331190D01*
X85955476Y-96331190D01*
X87145952Y-95807380D02*
X87336428Y-95807380D01*
X87431666Y-95855000D01*
X87526904Y-95950238D01*
X87574523Y-96140714D01*
X87574523Y-96474047D01*
X87526904Y-96664523D01*
X87431666Y-96759761D01*
X87336428Y-96807380D01*
X87145952Y-96807380D01*
X87050714Y-96759761D01*
X86955476Y-96664523D01*
X86907857Y-96474047D01*
X86907857Y-96140714D01*
X86955476Y-95950238D01*
X87050714Y-95855000D01*
X87145952Y-95807380D01*
X87907857Y-95807380D02*
X88145952Y-96807380D01*
X88336428Y-96093095D01*
X88526904Y-96807380D01*
X88765000Y-95807380D01*
X89145952Y-96283571D02*
X89479285Y-96283571D01*
X89622142Y-96807380D02*
X89145952Y-96807380D01*
X89145952Y-95807380D01*
X89622142Y-95807380D01*
X90622142Y-96807380D02*
X90288809Y-96331190D01*
X90050714Y-96807380D02*
X90050714Y-95807380D01*
X90431666Y-95807380D01*
X90526904Y-95855000D01*
X90574523Y-95902619D01*
X90622142Y-95997857D01*
X90622142Y-96140714D01*
X90574523Y-96235952D01*
X90526904Y-96283571D01*
X90431666Y-96331190D01*
X90050714Y-96331190D01*
X81351428Y-106260952D02*
X81351428Y-105499047D01*
X81732380Y-105880000D02*
X80970476Y-105880000D01*
X81351428Y-101180952D02*
X81351428Y-100419047D01*
X85979285Y-111412380D02*
X85407857Y-111412380D01*
X85693571Y-111412380D02*
X85693571Y-110412380D01*
X85598333Y-110555238D01*
X85503095Y-110650476D01*
X85407857Y-110698095D01*
X86360238Y-110507619D02*
X86407857Y-110460000D01*
X86503095Y-110412380D01*
X86741190Y-110412380D01*
X86836428Y-110460000D01*
X86884047Y-110507619D01*
X86931666Y-110602857D01*
X86931666Y-110698095D01*
X86884047Y-110840952D01*
X86312619Y-111412380D01*
X86931666Y-111412380D01*
X87360238Y-111317142D02*
X87407857Y-111364761D01*
X87360238Y-111412380D01*
X87312619Y-111364761D01*
X87360238Y-111317142D01*
X87360238Y-111412380D01*
X87836428Y-111317142D02*
X87884047Y-111364761D01*
X87836428Y-111412380D01*
X87788809Y-111364761D01*
X87836428Y-111317142D01*
X87836428Y-111412380D01*
X88312619Y-111317142D02*
X88360238Y-111364761D01*
X88312619Y-111412380D01*
X88265000Y-111364761D01*
X88312619Y-111317142D01*
X88312619Y-111412380D01*
X88741190Y-110507619D02*
X88788809Y-110460000D01*
X88884047Y-110412380D01*
X89122142Y-110412380D01*
X89217380Y-110460000D01*
X89265000Y-110507619D01*
X89312619Y-110602857D01*
X89312619Y-110698095D01*
X89265000Y-110840952D01*
X88693571Y-111412380D01*
X89312619Y-111412380D01*
X90169761Y-110745714D02*
X90169761Y-111412380D01*
X89931666Y-110364761D02*
X89693571Y-111079047D01*
X90312619Y-111079047D01*
X90550714Y-110412380D02*
X90884047Y-111412380D01*
X91217380Y-110412380D01*
X108886666Y-118032380D02*
X108886666Y-118746666D01*
X108839047Y-118889523D01*
X108743809Y-118984761D01*
X108600952Y-119032380D01*
X108505714Y-119032380D01*
X109315238Y-118127619D02*
X109362857Y-118080000D01*
X109458095Y-118032380D01*
X109696190Y-118032380D01*
X109791428Y-118080000D01*
X109839047Y-118127619D01*
X109886666Y-118222857D01*
X109886666Y-118318095D01*
X109839047Y-118460952D01*
X109267619Y-119032380D01*
X109886666Y-119032380D01*
X103327952Y-124636380D02*
X103518428Y-124636380D01*
X103613666Y-124684000D01*
X103708904Y-124779238D01*
X103756523Y-124969714D01*
X103756523Y-125303047D01*
X103708904Y-125493523D01*
X103613666Y-125588761D01*
X103518428Y-125636380D01*
X103327952Y-125636380D01*
X103232714Y-125588761D01*
X103137476Y-125493523D01*
X103089857Y-125303047D01*
X103089857Y-124969714D01*
X103137476Y-124779238D01*
X103232714Y-124684000D01*
X103327952Y-124636380D01*
X104185095Y-124636380D02*
X104185095Y-125445904D01*
X104232714Y-125541142D01*
X104280333Y-125588761D01*
X104375571Y-125636380D01*
X104566047Y-125636380D01*
X104661285Y-125588761D01*
X104708904Y-125541142D01*
X104756523Y-125445904D01*
X104756523Y-124636380D01*
X105089857Y-124636380D02*
X105661285Y-124636380D01*
X105375571Y-125636380D02*
X105375571Y-124636380D01*
X106518428Y-125636380D02*
X105947000Y-125636380D01*
X106232714Y-125636380D02*
X106232714Y-124636380D01*
X106137476Y-124779238D01*
X106042238Y-124874476D01*
X105947000Y-124922095D01*
X106947000Y-125255428D02*
X107708904Y-125255428D01*
X111175571Y-124636380D02*
X111366047Y-124636380D01*
X111461285Y-124684000D01*
X111556523Y-124779238D01*
X111604142Y-124969714D01*
X111604142Y-125303047D01*
X111556523Y-125493523D01*
X111461285Y-125588761D01*
X111366047Y-125636380D01*
X111175571Y-125636380D01*
X111080333Y-125588761D01*
X110985095Y-125493523D01*
X110937476Y-125303047D01*
X110937476Y-124969714D01*
X110985095Y-124779238D01*
X111080333Y-124684000D01*
X111175571Y-124636380D01*
X112032714Y-124636380D02*
X112032714Y-125445904D01*
X112080333Y-125541142D01*
X112127952Y-125588761D01*
X112223190Y-125636380D01*
X112413666Y-125636380D01*
X112508904Y-125588761D01*
X112556523Y-125541142D01*
X112604142Y-125445904D01*
X112604142Y-124636380D01*
X112937476Y-124636380D02*
X113508904Y-124636380D01*
X113223190Y-125636380D02*
X113223190Y-124636380D01*
X113794619Y-124731619D02*
X113842238Y-124684000D01*
X113937476Y-124636380D01*
X114175571Y-124636380D01*
X114270809Y-124684000D01*
X114318428Y-124731619D01*
X114366047Y-124826857D01*
X114366047Y-124922095D01*
X114318428Y-125064952D01*
X113747000Y-125636380D01*
X114366047Y-125636380D01*
X114794619Y-125255428D02*
X115556523Y-125255428D01*
D13*
X114673095Y-82933142D02*
X114625476Y-82980761D01*
X114482619Y-83028380D01*
X114387380Y-83028380D01*
X114244523Y-82980761D01*
X114149285Y-82885523D01*
X114101666Y-82790285D01*
X114054047Y-82599809D01*
X114054047Y-82456952D01*
X114101666Y-82266476D01*
X114149285Y-82171238D01*
X114244523Y-82076000D01*
X114387380Y-82028380D01*
X114482619Y-82028380D01*
X114625476Y-82076000D01*
X114673095Y-82123619D01*
X115006428Y-82028380D02*
X115244523Y-83028380D01*
X115435000Y-82314095D01*
X115625476Y-83028380D01*
X115863571Y-82028380D01*
%LPC*%
D14*
X86995000Y-118707000D03*
X92075000Y-118707000D03*
X88265000Y-105880000D03*
X88265000Y-100800000D03*
X106680000Y-118707000D03*
X111760000Y-118707000D03*
G36*
G01*
X91680000Y-93365000D02*
X91680000Y-92995000D01*
G75*
G02*
X91815000Y-92860000I135000J0D01*
G01*
X92085000Y-92860000D01*
G75*
G02*
X92220000Y-92995000I0J-135000D01*
G01*
X92220000Y-93365000D01*
G75*
G02*
X92085000Y-93500000I-135000J0D01*
G01*
X91815000Y-93500000D01*
G75*
G02*
X91680000Y-93365000I0J135000D01*
G01*
G37*
G36*
G01*
X90660000Y-93365000D02*
X90660000Y-92995000D01*
G75*
G02*
X90795000Y-92860000I135000J0D01*
G01*
X91065000Y-92860000D01*
G75*
G02*
X91200000Y-92995000I0J-135000D01*
G01*
X91200000Y-93365000D01*
G75*
G02*
X91065000Y-93500000I-135000J0D01*
G01*
X90795000Y-93500000D01*
G75*
G02*
X90660000Y-93365000I0J135000D01*
G01*
G37*
G36*
G01*
X91680000Y-92095000D02*
X91680000Y-91725000D01*
G75*
G02*
X91815000Y-91590000I135000J0D01*
G01*
X92085000Y-91590000D01*
G75*
G02*
X92220000Y-91725000I0J-135000D01*
G01*
X92220000Y-92095000D01*
G75*
G02*
X92085000Y-92230000I-135000J0D01*
G01*
X91815000Y-92230000D01*
G75*
G02*
X91680000Y-92095000I0J135000D01*
G01*
G37*
G36*
G01*
X90660000Y-92095000D02*
X90660000Y-91725000D01*
G75*
G02*
X90795000Y-91590000I135000J0D01*
G01*
X91065000Y-91590000D01*
G75*
G02*
X91200000Y-91725000I0J-135000D01*
G01*
X91200000Y-92095000D01*
G75*
G02*
X91065000Y-92230000I-135000J0D01*
G01*
X90795000Y-92230000D01*
G75*
G02*
X90660000Y-92095000I0J135000D01*
G01*
G37*
G36*
G01*
X93795000Y-87705000D02*
X94165000Y-87705000D01*
G75*
G02*
X94300000Y-87840000I0J-135000D01*
G01*
X94300000Y-88110000D01*
G75*
G02*
X94165000Y-88245000I-135000J0D01*
G01*
X93795000Y-88245000D01*
G75*
G02*
X93660000Y-88110000I0J135000D01*
G01*
X93660000Y-87840000D01*
G75*
G02*
X93795000Y-87705000I135000J0D01*
G01*
G37*
G36*
G01*
X93795000Y-86685000D02*
X94165000Y-86685000D01*
G75*
G02*
X94300000Y-86820000I0J-135000D01*
G01*
X94300000Y-87090000D01*
G75*
G02*
X94165000Y-87225000I-135000J0D01*
G01*
X93795000Y-87225000D01*
G75*
G02*
X93660000Y-87090000I0J135000D01*
G01*
X93660000Y-86820000D01*
G75*
G02*
X93795000Y-86685000I135000J0D01*
G01*
G37*
G36*
G01*
X98157000Y-101493000D02*
X98157000Y-101123000D01*
G75*
G02*
X98292000Y-100988000I135000J0D01*
G01*
X98562000Y-100988000D01*
G75*
G02*
X98697000Y-101123000I0J-135000D01*
G01*
X98697000Y-101493000D01*
G75*
G02*
X98562000Y-101628000I-135000J0D01*
G01*
X98292000Y-101628000D01*
G75*
G02*
X98157000Y-101493000I0J135000D01*
G01*
G37*
G36*
G01*
X97137000Y-101493000D02*
X97137000Y-101123000D01*
G75*
G02*
X97272000Y-100988000I135000J0D01*
G01*
X97542000Y-100988000D01*
G75*
G02*
X97677000Y-101123000I0J-135000D01*
G01*
X97677000Y-101493000D01*
G75*
G02*
X97542000Y-101628000I-135000J0D01*
G01*
X97272000Y-101628000D01*
G75*
G02*
X97137000Y-101493000I0J135000D01*
G01*
G37*
G36*
G01*
X106821000Y-101885000D02*
X106821000Y-102255000D01*
G75*
G02*
X106686000Y-102390000I-135000J0D01*
G01*
X106416000Y-102390000D01*
G75*
G02*
X106281000Y-102255000I0J135000D01*
G01*
X106281000Y-101885000D01*
G75*
G02*
X106416000Y-101750000I135000J0D01*
G01*
X106686000Y-101750000D01*
G75*
G02*
X106821000Y-101885000I0J-135000D01*
G01*
G37*
G36*
G01*
X107841000Y-101885000D02*
X107841000Y-102255000D01*
G75*
G02*
X107706000Y-102390000I-135000J0D01*
G01*
X107436000Y-102390000D01*
G75*
G02*
X107301000Y-102255000I0J135000D01*
G01*
X107301000Y-101885000D01*
G75*
G02*
X107436000Y-101750000I135000J0D01*
G01*
X107706000Y-101750000D01*
G75*
G02*
X107841000Y-101885000I0J-135000D01*
G01*
G37*
G36*
G01*
X104126000Y-98445000D02*
X104126000Y-98075000D01*
G75*
G02*
X104261000Y-97940000I135000J0D01*
G01*
X104531000Y-97940000D01*
G75*
G02*
X104666000Y-98075000I0J-135000D01*
G01*
X104666000Y-98445000D01*
G75*
G02*
X104531000Y-98580000I-135000J0D01*
G01*
X104261000Y-98580000D01*
G75*
G02*
X104126000Y-98445000I0J135000D01*
G01*
G37*
G36*
G01*
X103106000Y-98445000D02*
X103106000Y-98075000D01*
G75*
G02*
X103241000Y-97940000I135000J0D01*
G01*
X103511000Y-97940000D01*
G75*
G02*
X103646000Y-98075000I0J-135000D01*
G01*
X103646000Y-98445000D01*
G75*
G02*
X103511000Y-98580000I-135000J0D01*
G01*
X103241000Y-98580000D01*
G75*
G02*
X103106000Y-98445000I0J135000D01*
G01*
G37*
G36*
G01*
X109996000Y-98075000D02*
X109996000Y-98445000D01*
G75*
G02*
X109861000Y-98580000I-135000J0D01*
G01*
X109591000Y-98580000D01*
G75*
G02*
X109456000Y-98445000I0J135000D01*
G01*
X109456000Y-98075000D01*
G75*
G02*
X109591000Y-97940000I135000J0D01*
G01*
X109861000Y-97940000D01*
G75*
G02*
X109996000Y-98075000I0J-135000D01*
G01*
G37*
G36*
G01*
X111016000Y-98075000D02*
X111016000Y-98445000D01*
G75*
G02*
X110881000Y-98580000I-135000J0D01*
G01*
X110611000Y-98580000D01*
G75*
G02*
X110476000Y-98445000I0J135000D01*
G01*
X110476000Y-98075000D01*
G75*
G02*
X110611000Y-97940000I135000J0D01*
G01*
X110881000Y-97940000D01*
G75*
G02*
X111016000Y-98075000I0J-135000D01*
G01*
G37*
G36*
G01*
X117870000Y-101885000D02*
X117870000Y-102255000D01*
G75*
G02*
X117735000Y-102390000I-135000J0D01*
G01*
X117465000Y-102390000D01*
G75*
G02*
X117330000Y-102255000I0J135000D01*
G01*
X117330000Y-101885000D01*
G75*
G02*
X117465000Y-101750000I135000J0D01*
G01*
X117735000Y-101750000D01*
G75*
G02*
X117870000Y-101885000I0J-135000D01*
G01*
G37*
G36*
G01*
X118890000Y-101885000D02*
X118890000Y-102255000D01*
G75*
G02*
X118755000Y-102390000I-135000J0D01*
G01*
X118485000Y-102390000D01*
G75*
G02*
X118350000Y-102255000I0J135000D01*
G01*
X118350000Y-101885000D01*
G75*
G02*
X118485000Y-101750000I135000J0D01*
G01*
X118755000Y-101750000D01*
G75*
G02*
X118890000Y-101885000I0J-135000D01*
G01*
G37*
G36*
G01*
X115175000Y-98445000D02*
X115175000Y-98075000D01*
G75*
G02*
X115310000Y-97940000I135000J0D01*
G01*
X115580000Y-97940000D01*
G75*
G02*
X115715000Y-98075000I0J-135000D01*
G01*
X115715000Y-98445000D01*
G75*
G02*
X115580000Y-98580000I-135000J0D01*
G01*
X115310000Y-98580000D01*
G75*
G02*
X115175000Y-98445000I0J135000D01*
G01*
G37*
G36*
G01*
X114155000Y-98445000D02*
X114155000Y-98075000D01*
G75*
G02*
X114290000Y-97940000I135000J0D01*
G01*
X114560000Y-97940000D01*
G75*
G02*
X114695000Y-98075000I0J-135000D01*
G01*
X114695000Y-98445000D01*
G75*
G02*
X114560000Y-98580000I-135000J0D01*
G01*
X114290000Y-98580000D01*
G75*
G02*
X114155000Y-98445000I0J135000D01*
G01*
G37*
G36*
G01*
X121045000Y-98075000D02*
X121045000Y-98445000D01*
G75*
G02*
X120910000Y-98580000I-135000J0D01*
G01*
X120640000Y-98580000D01*
G75*
G02*
X120505000Y-98445000I0J135000D01*
G01*
X120505000Y-98075000D01*
G75*
G02*
X120640000Y-97940000I135000J0D01*
G01*
X120910000Y-97940000D01*
G75*
G02*
X121045000Y-98075000I0J-135000D01*
G01*
G37*
G36*
G01*
X122065000Y-98075000D02*
X122065000Y-98445000D01*
G75*
G02*
X121930000Y-98580000I-135000J0D01*
G01*
X121660000Y-98580000D01*
G75*
G02*
X121525000Y-98445000I0J135000D01*
G01*
X121525000Y-98075000D01*
G75*
G02*
X121660000Y-97940000I135000J0D01*
G01*
X121930000Y-97940000D01*
G75*
G02*
X122065000Y-98075000I0J-135000D01*
G01*
G37*
G36*
G01*
X97268500Y-118283000D02*
X97268500Y-118623000D01*
G75*
G02*
X97128500Y-118763000I-140000J0D01*
G01*
X96848500Y-118763000D01*
G75*
G02*
X96708500Y-118623000I0J140000D01*
G01*
X96708500Y-118283000D01*
G75*
G02*
X96848500Y-118143000I140000J0D01*
G01*
X97128500Y-118143000D01*
G75*
G02*
X97268500Y-118283000I0J-140000D01*
G01*
G37*
G36*
G01*
X98228500Y-118283000D02*
X98228500Y-118623000D01*
G75*
G02*
X98088500Y-118763000I-140000J0D01*
G01*
X97808500Y-118763000D01*
G75*
G02*
X97668500Y-118623000I0J140000D01*
G01*
X97668500Y-118283000D01*
G75*
G02*
X97808500Y-118143000I140000J0D01*
G01*
X98088500Y-118143000D01*
G75*
G02*
X98228500Y-118283000I0J-140000D01*
G01*
G37*
G36*
G01*
X97268500Y-117267000D02*
X97268500Y-117607000D01*
G75*
G02*
X97128500Y-117747000I-140000J0D01*
G01*
X96848500Y-117747000D01*
G75*
G02*
X96708500Y-117607000I0J140000D01*
G01*
X96708500Y-117267000D01*
G75*
G02*
X96848500Y-117127000I140000J0D01*
G01*
X97128500Y-117127000D01*
G75*
G02*
X97268500Y-117267000I0J-140000D01*
G01*
G37*
G36*
G01*
X98228500Y-117267000D02*
X98228500Y-117607000D01*
G75*
G02*
X98088500Y-117747000I-140000J0D01*
G01*
X97808500Y-117747000D01*
G75*
G02*
X97668500Y-117607000I0J140000D01*
G01*
X97668500Y-117267000D01*
G75*
G02*
X97808500Y-117127000I140000J0D01*
G01*
X98088500Y-117127000D01*
G75*
G02*
X98228500Y-117267000I0J-140000D01*
G01*
G37*
G36*
G01*
X97268500Y-116251000D02*
X97268500Y-116591000D01*
G75*
G02*
X97128500Y-116731000I-140000J0D01*
G01*
X96848500Y-116731000D01*
G75*
G02*
X96708500Y-116591000I0J140000D01*
G01*
X96708500Y-116251000D01*
G75*
G02*
X96848500Y-116111000I140000J0D01*
G01*
X97128500Y-116111000D01*
G75*
G02*
X97268500Y-116251000I0J-140000D01*
G01*
G37*
G36*
G01*
X98228500Y-116251000D02*
X98228500Y-116591000D01*
G75*
G02*
X98088500Y-116731000I-140000J0D01*
G01*
X97808500Y-116731000D01*
G75*
G02*
X97668500Y-116591000I0J140000D01*
G01*
X97668500Y-116251000D01*
G75*
G02*
X97808500Y-116111000I140000J0D01*
G01*
X98088500Y-116111000D01*
G75*
G02*
X98228500Y-116251000I0J-140000D01*
G01*
G37*
G36*
G01*
X97268500Y-115235000D02*
X97268500Y-115575000D01*
G75*
G02*
X97128500Y-115715000I-140000J0D01*
G01*
X96848500Y-115715000D01*
G75*
G02*
X96708500Y-115575000I0J140000D01*
G01*
X96708500Y-115235000D01*
G75*
G02*
X96848500Y-115095000I140000J0D01*
G01*
X97128500Y-115095000D01*
G75*
G02*
X97268500Y-115235000I0J-140000D01*
G01*
G37*
G36*
G01*
X98228500Y-115235000D02*
X98228500Y-115575000D01*
G75*
G02*
X98088500Y-115715000I-140000J0D01*
G01*
X97808500Y-115715000D01*
G75*
G02*
X97668500Y-115575000I0J140000D01*
G01*
X97668500Y-115235000D01*
G75*
G02*
X97808500Y-115095000I140000J0D01*
G01*
X98088500Y-115095000D01*
G75*
G02*
X98228500Y-115235000I0J-140000D01*
G01*
G37*
G36*
G01*
X121163500Y-115575000D02*
X121163500Y-115235000D01*
G75*
G02*
X121303500Y-115095000I140000J0D01*
G01*
X121583500Y-115095000D01*
G75*
G02*
X121723500Y-115235000I0J-140000D01*
G01*
X121723500Y-115575000D01*
G75*
G02*
X121583500Y-115715000I-140000J0D01*
G01*
X121303500Y-115715000D01*
G75*
G02*
X121163500Y-115575000I0J140000D01*
G01*
G37*
G36*
G01*
X120203500Y-115575000D02*
X120203500Y-115235000D01*
G75*
G02*
X120343500Y-115095000I140000J0D01*
G01*
X120623500Y-115095000D01*
G75*
G02*
X120763500Y-115235000I0J-140000D01*
G01*
X120763500Y-115575000D01*
G75*
G02*
X120623500Y-115715000I-140000J0D01*
G01*
X120343500Y-115715000D01*
G75*
G02*
X120203500Y-115575000I0J140000D01*
G01*
G37*
G36*
G01*
X121163500Y-116591000D02*
X121163500Y-116251000D01*
G75*
G02*
X121303500Y-116111000I140000J0D01*
G01*
X121583500Y-116111000D01*
G75*
G02*
X121723500Y-116251000I0J-140000D01*
G01*
X121723500Y-116591000D01*
G75*
G02*
X121583500Y-116731000I-140000J0D01*
G01*
X121303500Y-116731000D01*
G75*
G02*
X121163500Y-116591000I0J140000D01*
G01*
G37*
G36*
G01*
X120203500Y-116591000D02*
X120203500Y-116251000D01*
G75*
G02*
X120343500Y-116111000I140000J0D01*
G01*
X120623500Y-116111000D01*
G75*
G02*
X120763500Y-116251000I0J-140000D01*
G01*
X120763500Y-116591000D01*
G75*
G02*
X120623500Y-116731000I-140000J0D01*
G01*
X120343500Y-116731000D01*
G75*
G02*
X120203500Y-116591000I0J140000D01*
G01*
G37*
G36*
G01*
X121163500Y-117607000D02*
X121163500Y-117267000D01*
G75*
G02*
X121303500Y-117127000I140000J0D01*
G01*
X121583500Y-117127000D01*
G75*
G02*
X121723500Y-117267000I0J-140000D01*
G01*
X121723500Y-117607000D01*
G75*
G02*
X121583500Y-117747000I-140000J0D01*
G01*
X121303500Y-117747000D01*
G75*
G02*
X121163500Y-117607000I0J140000D01*
G01*
G37*
G36*
G01*
X120203500Y-117607000D02*
X120203500Y-117267000D01*
G75*
G02*
X120343500Y-117127000I140000J0D01*
G01*
X120623500Y-117127000D01*
G75*
G02*
X120763500Y-117267000I0J-140000D01*
G01*
X120763500Y-117607000D01*
G75*
G02*
X120623500Y-117747000I-140000J0D01*
G01*
X120343500Y-117747000D01*
G75*
G02*
X120203500Y-117607000I0J140000D01*
G01*
G37*
G36*
G01*
X121163500Y-118623000D02*
X121163500Y-118283000D01*
G75*
G02*
X121303500Y-118143000I140000J0D01*
G01*
X121583500Y-118143000D01*
G75*
G02*
X121723500Y-118283000I0J-140000D01*
G01*
X121723500Y-118623000D01*
G75*
G02*
X121583500Y-118763000I-140000J0D01*
G01*
X121303500Y-118763000D01*
G75*
G02*
X121163500Y-118623000I0J140000D01*
G01*
G37*
G36*
G01*
X120203500Y-118623000D02*
X120203500Y-118283000D01*
G75*
G02*
X120343500Y-118143000I140000J0D01*
G01*
X120623500Y-118143000D01*
G75*
G02*
X120763500Y-118283000I0J-140000D01*
G01*
X120763500Y-118623000D01*
G75*
G02*
X120623500Y-118763000I-140000J0D01*
G01*
X120343500Y-118763000D01*
G75*
G02*
X120203500Y-118623000I0J140000D01*
G01*
G37*
G36*
G01*
X123233000Y-97679000D02*
X122893000Y-97679000D01*
G75*
G02*
X122753000Y-97539000I0J140000D01*
G01*
X122753000Y-97259000D01*
G75*
G02*
X122893000Y-97119000I140000J0D01*
G01*
X123233000Y-97119000D01*
G75*
G02*
X123373000Y-97259000I0J-140000D01*
G01*
X123373000Y-97539000D01*
G75*
G02*
X123233000Y-97679000I-140000J0D01*
G01*
G37*
G36*
G01*
X123233000Y-98639000D02*
X122893000Y-98639000D01*
G75*
G02*
X122753000Y-98499000I0J140000D01*
G01*
X122753000Y-98219000D01*
G75*
G02*
X122893000Y-98079000I140000J0D01*
G01*
X123233000Y-98079000D01*
G75*
G02*
X123373000Y-98219000I0J-140000D01*
G01*
X123373000Y-98499000D01*
G75*
G02*
X123233000Y-98639000I-140000J0D01*
G01*
G37*
G36*
G01*
X112184000Y-97679000D02*
X111844000Y-97679000D01*
G75*
G02*
X111704000Y-97539000I0J140000D01*
G01*
X111704000Y-97259000D01*
G75*
G02*
X111844000Y-97119000I140000J0D01*
G01*
X112184000Y-97119000D01*
G75*
G02*
X112324000Y-97259000I0J-140000D01*
G01*
X112324000Y-97539000D01*
G75*
G02*
X112184000Y-97679000I-140000J0D01*
G01*
G37*
G36*
G01*
X112184000Y-98639000D02*
X111844000Y-98639000D01*
G75*
G02*
X111704000Y-98499000I0J140000D01*
G01*
X111704000Y-98219000D01*
G75*
G02*
X111844000Y-98079000I140000J0D01*
G01*
X112184000Y-98079000D01*
G75*
G02*
X112324000Y-98219000I0J-140000D01*
G01*
X112324000Y-98499000D01*
G75*
G02*
X112184000Y-98639000I-140000J0D01*
G01*
G37*
G36*
G01*
X109786000Y-96115000D02*
X109416000Y-96115000D01*
G75*
G02*
X109281000Y-95980000I0J135000D01*
G01*
X109281000Y-95710000D01*
G75*
G02*
X109416000Y-95575000I135000J0D01*
G01*
X109786000Y-95575000D01*
G75*
G02*
X109921000Y-95710000I0J-135000D01*
G01*
X109921000Y-95980000D01*
G75*
G02*
X109786000Y-96115000I-135000J0D01*
G01*
G37*
G36*
G01*
X109786000Y-97135000D02*
X109416000Y-97135000D01*
G75*
G02*
X109281000Y-97000000I0J135000D01*
G01*
X109281000Y-96730000D01*
G75*
G02*
X109416000Y-96595000I135000J0D01*
G01*
X109786000Y-96595000D01*
G75*
G02*
X109921000Y-96730000I0J-135000D01*
G01*
X109921000Y-97000000D01*
G75*
G02*
X109786000Y-97135000I-135000J0D01*
G01*
G37*
G36*
G01*
X111056000Y-96115000D02*
X110686000Y-96115000D01*
G75*
G02*
X110551000Y-95980000I0J135000D01*
G01*
X110551000Y-95710000D01*
G75*
G02*
X110686000Y-95575000I135000J0D01*
G01*
X111056000Y-95575000D01*
G75*
G02*
X111191000Y-95710000I0J-135000D01*
G01*
X111191000Y-95980000D01*
G75*
G02*
X111056000Y-96115000I-135000J0D01*
G01*
G37*
G36*
G01*
X111056000Y-97135000D02*
X110686000Y-97135000D01*
G75*
G02*
X110551000Y-97000000I0J135000D01*
G01*
X110551000Y-96730000D01*
G75*
G02*
X110686000Y-96595000I135000J0D01*
G01*
X111056000Y-96595000D01*
G75*
G02*
X111191000Y-96730000I0J-135000D01*
G01*
X111191000Y-97000000D01*
G75*
G02*
X111056000Y-97135000I-135000J0D01*
G01*
G37*
G36*
G01*
X107301000Y-99690000D02*
X107301000Y-99370000D01*
G75*
G02*
X107461000Y-99210000I160000J0D01*
G01*
X107856000Y-99210000D01*
G75*
G02*
X108016000Y-99370000I0J-160000D01*
G01*
X108016000Y-99690000D01*
G75*
G02*
X107856000Y-99850000I-160000J0D01*
G01*
X107461000Y-99850000D01*
G75*
G02*
X107301000Y-99690000I0J160000D01*
G01*
G37*
G36*
G01*
X106106000Y-99690000D02*
X106106000Y-99370000D01*
G75*
G02*
X106266000Y-99210000I160000J0D01*
G01*
X106661000Y-99210000D01*
G75*
G02*
X106821000Y-99370000I0J-160000D01*
G01*
X106821000Y-99690000D01*
G75*
G02*
X106661000Y-99850000I-160000J0D01*
G01*
X106266000Y-99850000D01*
G75*
G02*
X106106000Y-99690000I0J160000D01*
G01*
G37*
D15*
X104886000Y-100800000D03*
X102886000Y-101750000D03*
X102886000Y-99850000D03*
D16*
X107061000Y-97990000D03*
X106111000Y-95990000D03*
X108011000Y-95990000D03*
D15*
X111236000Y-100800000D03*
X109236000Y-101750000D03*
X109236000Y-99850000D03*
G36*
G01*
X106861000Y-100645000D02*
X106861000Y-100955000D01*
G75*
G02*
X106706000Y-101110000I-155000J0D01*
G01*
X106281000Y-101110000D01*
G75*
G02*
X106126000Y-100955000I0J155000D01*
G01*
X106126000Y-100645000D01*
G75*
G02*
X106281000Y-100490000I155000J0D01*
G01*
X106706000Y-100490000D01*
G75*
G02*
X106861000Y-100645000I0J-155000D01*
G01*
G37*
G36*
G01*
X107996000Y-100645000D02*
X107996000Y-100955000D01*
G75*
G02*
X107841000Y-101110000I-155000J0D01*
G01*
X107416000Y-101110000D01*
G75*
G02*
X107261000Y-100955000I0J155000D01*
G01*
X107261000Y-100645000D01*
G75*
G02*
X107416000Y-100490000I155000J0D01*
G01*
X107841000Y-100490000D01*
G75*
G02*
X107996000Y-100645000I0J-155000D01*
G01*
G37*
X122285000Y-100800000D03*
X120285000Y-101750000D03*
X120285000Y-99850000D03*
G36*
G01*
X120835000Y-96115000D02*
X120465000Y-96115000D01*
G75*
G02*
X120330000Y-95980000I0J135000D01*
G01*
X120330000Y-95710000D01*
G75*
G02*
X120465000Y-95575000I135000J0D01*
G01*
X120835000Y-95575000D01*
G75*
G02*
X120970000Y-95710000I0J-135000D01*
G01*
X120970000Y-95980000D01*
G75*
G02*
X120835000Y-96115000I-135000J0D01*
G01*
G37*
G36*
G01*
X120835000Y-97135000D02*
X120465000Y-97135000D01*
G75*
G02*
X120330000Y-97000000I0J135000D01*
G01*
X120330000Y-96730000D01*
G75*
G02*
X120465000Y-96595000I135000J0D01*
G01*
X120835000Y-96595000D01*
G75*
G02*
X120970000Y-96730000I0J-135000D01*
G01*
X120970000Y-97000000D01*
G75*
G02*
X120835000Y-97135000I-135000J0D01*
G01*
G37*
G36*
G01*
X122105000Y-96115000D02*
X121735000Y-96115000D01*
G75*
G02*
X121600000Y-95980000I0J135000D01*
G01*
X121600000Y-95710000D01*
G75*
G02*
X121735000Y-95575000I135000J0D01*
G01*
X122105000Y-95575000D01*
G75*
G02*
X122240000Y-95710000I0J-135000D01*
G01*
X122240000Y-95980000D01*
G75*
G02*
X122105000Y-96115000I-135000J0D01*
G01*
G37*
G36*
G01*
X122105000Y-97135000D02*
X121735000Y-97135000D01*
G75*
G02*
X121600000Y-97000000I0J135000D01*
G01*
X121600000Y-96730000D01*
G75*
G02*
X121735000Y-96595000I135000J0D01*
G01*
X122105000Y-96595000D01*
G75*
G02*
X122240000Y-96730000I0J-135000D01*
G01*
X122240000Y-97000000D01*
G75*
G02*
X122105000Y-97135000I-135000J0D01*
G01*
G37*
G36*
G01*
X118350000Y-99690000D02*
X118350000Y-99370000D01*
G75*
G02*
X118510000Y-99210000I160000J0D01*
G01*
X118905000Y-99210000D01*
G75*
G02*
X119065000Y-99370000I0J-160000D01*
G01*
X119065000Y-99690000D01*
G75*
G02*
X118905000Y-99850000I-160000J0D01*
G01*
X118510000Y-99850000D01*
G75*
G02*
X118350000Y-99690000I0J160000D01*
G01*
G37*
G36*
G01*
X117155000Y-99690000D02*
X117155000Y-99370000D01*
G75*
G02*
X117315000Y-99210000I160000J0D01*
G01*
X117710000Y-99210000D01*
G75*
G02*
X117870000Y-99370000I0J-160000D01*
G01*
X117870000Y-99690000D01*
G75*
G02*
X117710000Y-99850000I-160000J0D01*
G01*
X117315000Y-99850000D01*
G75*
G02*
X117155000Y-99690000I0J160000D01*
G01*
G37*
X115935000Y-100800000D03*
X113935000Y-101750000D03*
X113935000Y-99850000D03*
D16*
X118110000Y-97990000D03*
X117160000Y-95990000D03*
X119060000Y-95990000D03*
G36*
G01*
X117910000Y-100645000D02*
X117910000Y-100955000D01*
G75*
G02*
X117755000Y-101110000I-155000J0D01*
G01*
X117330000Y-101110000D01*
G75*
G02*
X117175000Y-100955000I0J155000D01*
G01*
X117175000Y-100645000D01*
G75*
G02*
X117330000Y-100490000I155000J0D01*
G01*
X117755000Y-100490000D01*
G75*
G02*
X117910000Y-100645000I0J-155000D01*
G01*
G37*
G36*
G01*
X119045000Y-100645000D02*
X119045000Y-100955000D01*
G75*
G02*
X118890000Y-101110000I-155000J0D01*
G01*
X118465000Y-101110000D01*
G75*
G02*
X118310000Y-100955000I0J155000D01*
G01*
X118310000Y-100645000D01*
G75*
G02*
X118465000Y-100490000I155000J0D01*
G01*
X118890000Y-100490000D01*
G75*
G02*
X119045000Y-100645000I0J-155000D01*
G01*
G37*
G36*
G01*
X119335000Y-87726000D02*
X119335000Y-85526000D01*
G75*
G02*
X120135000Y-84726000I800000J0D01*
G01*
X121735000Y-84726000D01*
G75*
G02*
X122535000Y-85526000I0J-800000D01*
G01*
X122535000Y-87726000D01*
G75*
G02*
X121735000Y-88526000I-800000J0D01*
G01*
X120135000Y-88526000D01*
G75*
G02*
X119335000Y-87726000I0J800000D01*
G01*
G37*
G36*
G01*
X107335000Y-87726000D02*
X107335000Y-85526000D01*
G75*
G02*
X108135000Y-84726000I800000J0D01*
G01*
X109735000Y-84726000D01*
G75*
G02*
X110535000Y-85526000I0J-800000D01*
G01*
X110535000Y-87726000D01*
G75*
G02*
X109735000Y-88526000I-800000J0D01*
G01*
X108135000Y-88526000D01*
G75*
G02*
X107335000Y-87726000I0J800000D01*
G01*
G37*
D17*
X114935000Y-79726000D03*
X109385000Y-82426000D03*
X120485000Y-82426000D03*
X120885000Y-90026000D03*
X109385000Y-90726000D03*
G36*
G01*
X104575000Y-89073000D02*
X104575000Y-89413000D01*
G75*
G02*
X104435000Y-89553000I-140000J0D01*
G01*
X104155000Y-89553000D01*
G75*
G02*
X104015000Y-89413000I0J140000D01*
G01*
X104015000Y-89073000D01*
G75*
G02*
X104155000Y-88933000I140000J0D01*
G01*
X104435000Y-88933000D01*
G75*
G02*
X104575000Y-89073000I0J-140000D01*
G01*
G37*
G36*
G01*
X105535000Y-89073000D02*
X105535000Y-89413000D01*
G75*
G02*
X105395000Y-89553000I-140000J0D01*
G01*
X105115000Y-89553000D01*
G75*
G02*
X104975000Y-89413000I0J140000D01*
G01*
X104975000Y-89073000D01*
G75*
G02*
X105115000Y-88933000I140000J0D01*
G01*
X105395000Y-88933000D01*
G75*
G02*
X105535000Y-89073000I0J-140000D01*
G01*
G37*
G36*
G01*
X104575000Y-87168000D02*
X104575000Y-87508000D01*
G75*
G02*
X104435000Y-87648000I-140000J0D01*
G01*
X104155000Y-87648000D01*
G75*
G02*
X104015000Y-87508000I0J140000D01*
G01*
X104015000Y-87168000D01*
G75*
G02*
X104155000Y-87028000I140000J0D01*
G01*
X104435000Y-87028000D01*
G75*
G02*
X104575000Y-87168000I0J-140000D01*
G01*
G37*
G36*
G01*
X105535000Y-87168000D02*
X105535000Y-87508000D01*
G75*
G02*
X105395000Y-87648000I-140000J0D01*
G01*
X105115000Y-87648000D01*
G75*
G02*
X104975000Y-87508000I0J140000D01*
G01*
X104975000Y-87168000D01*
G75*
G02*
X105115000Y-87028000I140000J0D01*
G01*
X105395000Y-87028000D01*
G75*
G02*
X105535000Y-87168000I0J-140000D01*
G01*
G37*
G36*
G01*
X104575000Y-85263000D02*
X104575000Y-85603000D01*
G75*
G02*
X104435000Y-85743000I-140000J0D01*
G01*
X104155000Y-85743000D01*
G75*
G02*
X104015000Y-85603000I0J140000D01*
G01*
X104015000Y-85263000D01*
G75*
G02*
X104155000Y-85123000I140000J0D01*
G01*
X104435000Y-85123000D01*
G75*
G02*
X104575000Y-85263000I0J-140000D01*
G01*
G37*
G36*
G01*
X105535000Y-85263000D02*
X105535000Y-85603000D01*
G75*
G02*
X105395000Y-85743000I-140000J0D01*
G01*
X105115000Y-85743000D01*
G75*
G02*
X104975000Y-85603000I0J140000D01*
G01*
X104975000Y-85263000D01*
G75*
G02*
X105115000Y-85123000I140000J0D01*
G01*
X105395000Y-85123000D01*
G75*
G02*
X105535000Y-85263000I0J-140000D01*
G01*
G37*
D18*
G36*
X96125000Y-87868500D02*
G01*
X99250000Y-87868500D01*
X99250000Y-88285000D01*
X100725000Y-88285000D01*
X100725000Y-89185000D01*
X99250000Y-89185000D01*
X99250000Y-89601500D01*
X96125000Y-89601500D01*
X96125000Y-87868500D01*
G37*
D19*
X100075000Y-87235000D03*
X100075000Y-90235000D03*
D18*
G36*
X94609500Y-97124500D02*
G01*
X97734500Y-97124500D01*
X97734500Y-97541000D01*
X99209500Y-97541000D01*
X99209500Y-98441000D01*
X97734500Y-98441000D01*
X97734500Y-98857500D01*
X94609500Y-98857500D01*
X94609500Y-97124500D01*
G37*
D19*
X98559500Y-96491000D03*
X98559500Y-99491000D03*
D16*
X100010000Y-110595000D03*
X98110000Y-110595000D03*
X99060000Y-112595000D03*
X103820000Y-110595000D03*
X101920000Y-110595000D03*
X102870000Y-112595000D03*
X107630000Y-110595000D03*
X105730000Y-110595000D03*
X106680000Y-112595000D03*
G36*
G01*
X100627000Y-99711000D02*
X100287000Y-99711000D01*
G75*
G02*
X100147000Y-99571000I0J140000D01*
G01*
X100147000Y-99291000D01*
G75*
G02*
X100287000Y-99151000I140000J0D01*
G01*
X100627000Y-99151000D01*
G75*
G02*
X100767000Y-99291000I0J-140000D01*
G01*
X100767000Y-99571000D01*
G75*
G02*
X100627000Y-99711000I-140000J0D01*
G01*
G37*
G36*
G01*
X100627000Y-100671000D02*
X100287000Y-100671000D01*
G75*
G02*
X100147000Y-100531000I0J140000D01*
G01*
X100147000Y-100251000D01*
G75*
G02*
X100287000Y-100111000I140000J0D01*
G01*
X100627000Y-100111000D01*
G75*
G02*
X100767000Y-100251000I0J-140000D01*
G01*
X100767000Y-100531000D01*
G75*
G02*
X100627000Y-100671000I-140000J0D01*
G01*
G37*
G36*
G01*
X100207000Y-97061000D02*
X100707000Y-97061000D01*
G75*
G02*
X100932000Y-97286000I0J-225000D01*
G01*
X100932000Y-97736000D01*
G75*
G02*
X100707000Y-97961000I-225000J0D01*
G01*
X100207000Y-97961000D01*
G75*
G02*
X99982000Y-97736000I0J225000D01*
G01*
X99982000Y-97286000D01*
G75*
G02*
X100207000Y-97061000I225000J0D01*
G01*
G37*
G36*
G01*
X100207000Y-95511000D02*
X100707000Y-95511000D01*
G75*
G02*
X100932000Y-95736000I0J-225000D01*
G01*
X100932000Y-96186000D01*
G75*
G02*
X100707000Y-96411000I-225000J0D01*
G01*
X100207000Y-96411000D01*
G75*
G02*
X99982000Y-96186000I0J225000D01*
G01*
X99982000Y-95736000D01*
G75*
G02*
X100207000Y-95511000I225000J0D01*
G01*
G37*
G36*
G01*
X88615000Y-92801250D02*
X88615000Y-92288750D01*
G75*
G02*
X88833750Y-92070000I218750J0D01*
G01*
X89271250Y-92070000D01*
G75*
G02*
X89490000Y-92288750I0J-218750D01*
G01*
X89490000Y-92801250D01*
G75*
G02*
X89271250Y-93020000I-218750J0D01*
G01*
X88833750Y-93020000D01*
G75*
G02*
X88615000Y-92801250I0J218750D01*
G01*
G37*
G36*
G01*
X87040000Y-92801250D02*
X87040000Y-92288750D01*
G75*
G02*
X87258750Y-92070000I218750J0D01*
G01*
X87696250Y-92070000D01*
G75*
G02*
X87915000Y-92288750I0J-218750D01*
G01*
X87915000Y-92801250D01*
G75*
G02*
X87696250Y-93020000I-218750J0D01*
G01*
X87258750Y-93020000D01*
G75*
G02*
X87040000Y-92801250I0J218750D01*
G01*
G37*
G36*
G01*
X84805000Y-92801250D02*
X84805000Y-92288750D01*
G75*
G02*
X85023750Y-92070000I218750J0D01*
G01*
X85461250Y-92070000D01*
G75*
G02*
X85680000Y-92288750I0J-218750D01*
G01*
X85680000Y-92801250D01*
G75*
G02*
X85461250Y-93020000I-218750J0D01*
G01*
X85023750Y-93020000D01*
G75*
G02*
X84805000Y-92801250I0J218750D01*
G01*
G37*
G36*
G01*
X83230000Y-92801250D02*
X83230000Y-92288750D01*
G75*
G02*
X83448750Y-92070000I218750J0D01*
G01*
X83886250Y-92070000D01*
G75*
G02*
X84105000Y-92288750I0J-218750D01*
G01*
X84105000Y-92801250D01*
G75*
G02*
X83886250Y-93020000I-218750J0D01*
G01*
X83448750Y-93020000D01*
G75*
G02*
X83230000Y-92801250I0J218750D01*
G01*
G37*
G36*
G01*
X79744000Y-82697000D02*
X79744000Y-82327000D01*
G75*
G02*
X79879000Y-82192000I135000J0D01*
G01*
X80149000Y-82192000D01*
G75*
G02*
X80284000Y-82327000I0J-135000D01*
G01*
X80284000Y-82697000D01*
G75*
G02*
X80149000Y-82832000I-135000J0D01*
G01*
X79879000Y-82832000D01*
G75*
G02*
X79744000Y-82697000I0J135000D01*
G01*
G37*
G36*
G01*
X78724000Y-82697000D02*
X78724000Y-82327000D01*
G75*
G02*
X78859000Y-82192000I135000J0D01*
G01*
X79129000Y-82192000D01*
G75*
G02*
X79264000Y-82327000I0J-135000D01*
G01*
X79264000Y-82697000D01*
G75*
G02*
X79129000Y-82832000I-135000J0D01*
G01*
X78859000Y-82832000D01*
G75*
G02*
X78724000Y-82697000I0J135000D01*
G01*
G37*
G36*
G01*
X79262000Y-83343000D02*
X79262000Y-83713000D01*
G75*
G02*
X79127000Y-83848000I-135000J0D01*
G01*
X78857000Y-83848000D01*
G75*
G02*
X78722000Y-83713000I0J135000D01*
G01*
X78722000Y-83343000D01*
G75*
G02*
X78857000Y-83208000I135000J0D01*
G01*
X79127000Y-83208000D01*
G75*
G02*
X79262000Y-83343000I0J-135000D01*
G01*
G37*
G36*
G01*
X80282000Y-83343000D02*
X80282000Y-83713000D01*
G75*
G02*
X80147000Y-83848000I-135000J0D01*
G01*
X79877000Y-83848000D01*
G75*
G02*
X79742000Y-83713000I0J135000D01*
G01*
X79742000Y-83343000D01*
G75*
G02*
X79877000Y-83208000I135000J0D01*
G01*
X80147000Y-83208000D01*
G75*
G02*
X80282000Y-83343000I0J-135000D01*
G01*
G37*
D14*
X123025000Y-79375000D03*
D20*
X104775000Y-78829000D03*
X104775000Y-81369000D03*
X102235000Y-78829000D03*
X102235000Y-81369000D03*
X99695000Y-78829000D03*
X99695000Y-81369000D03*
X97155000Y-78829000D03*
X97155000Y-81369000D03*
X94615000Y-78829000D03*
D21*
X94615000Y-81369000D03*
D20*
X89027000Y-78829000D03*
X86487000Y-78829000D03*
X83947000Y-78829000D03*
X81407000Y-78829000D03*
D21*
X78867000Y-78829000D03*
G36*
G01*
X93730000Y-91219000D02*
X94230000Y-91219000D01*
G75*
G02*
X94455000Y-91444000I0J-225000D01*
G01*
X94455000Y-91894000D01*
G75*
G02*
X94230000Y-92119000I-225000J0D01*
G01*
X93730000Y-92119000D01*
G75*
G02*
X93505000Y-91894000I0J225000D01*
G01*
X93505000Y-91444000D01*
G75*
G02*
X93730000Y-91219000I225000J0D01*
G01*
G37*
G36*
G01*
X93730000Y-89669000D02*
X94230000Y-89669000D01*
G75*
G02*
X94455000Y-89894000I0J-225000D01*
G01*
X94455000Y-90344000D01*
G75*
G02*
X94230000Y-90569000I-225000J0D01*
G01*
X93730000Y-90569000D01*
G75*
G02*
X93505000Y-90344000I0J225000D01*
G01*
X93505000Y-89894000D01*
G75*
G02*
X93730000Y-89669000I225000J0D01*
G01*
G37*
G36*
G01*
X86996000Y-83489000D02*
X86996000Y-83289000D01*
G75*
G02*
X87096000Y-83189000I100000J0D01*
G01*
X88371000Y-83189000D01*
G75*
G02*
X88471000Y-83289000I0J-100000D01*
G01*
X88471000Y-83489000D01*
G75*
G02*
X88371000Y-83589000I-100000J0D01*
G01*
X87096000Y-83589000D01*
G75*
G02*
X86996000Y-83489000I0J100000D01*
G01*
G37*
G36*
G01*
X86996000Y-84139000D02*
X86996000Y-83939000D01*
G75*
G02*
X87096000Y-83839000I100000J0D01*
G01*
X88371000Y-83839000D01*
G75*
G02*
X88471000Y-83939000I0J-100000D01*
G01*
X88471000Y-84139000D01*
G75*
G02*
X88371000Y-84239000I-100000J0D01*
G01*
X87096000Y-84239000D01*
G75*
G02*
X86996000Y-84139000I0J100000D01*
G01*
G37*
G36*
G01*
X86996000Y-84789000D02*
X86996000Y-84589000D01*
G75*
G02*
X87096000Y-84489000I100000J0D01*
G01*
X88371000Y-84489000D01*
G75*
G02*
X88471000Y-84589000I0J-100000D01*
G01*
X88471000Y-84789000D01*
G75*
G02*
X88371000Y-84889000I-100000J0D01*
G01*
X87096000Y-84889000D01*
G75*
G02*
X86996000Y-84789000I0J100000D01*
G01*
G37*
G36*
G01*
X86996000Y-85439000D02*
X86996000Y-85239000D01*
G75*
G02*
X87096000Y-85139000I100000J0D01*
G01*
X88371000Y-85139000D01*
G75*
G02*
X88471000Y-85239000I0J-100000D01*
G01*
X88471000Y-85439000D01*
G75*
G02*
X88371000Y-85539000I-100000J0D01*
G01*
X87096000Y-85539000D01*
G75*
G02*
X86996000Y-85439000I0J100000D01*
G01*
G37*
G36*
G01*
X86996000Y-86089000D02*
X86996000Y-85889000D01*
G75*
G02*
X87096000Y-85789000I100000J0D01*
G01*
X88371000Y-85789000D01*
G75*
G02*
X88471000Y-85889000I0J-100000D01*
G01*
X88471000Y-86089000D01*
G75*
G02*
X88371000Y-86189000I-100000J0D01*
G01*
X87096000Y-86189000D01*
G75*
G02*
X86996000Y-86089000I0J100000D01*
G01*
G37*
G36*
G01*
X86996000Y-86739000D02*
X86996000Y-86539000D01*
G75*
G02*
X87096000Y-86439000I100000J0D01*
G01*
X88371000Y-86439000D01*
G75*
G02*
X88471000Y-86539000I0J-100000D01*
G01*
X88471000Y-86739000D01*
G75*
G02*
X88371000Y-86839000I-100000J0D01*
G01*
X87096000Y-86839000D01*
G75*
G02*
X86996000Y-86739000I0J100000D01*
G01*
G37*
G36*
G01*
X86996000Y-87389000D02*
X86996000Y-87189000D01*
G75*
G02*
X87096000Y-87089000I100000J0D01*
G01*
X88371000Y-87089000D01*
G75*
G02*
X88471000Y-87189000I0J-100000D01*
G01*
X88471000Y-87389000D01*
G75*
G02*
X88371000Y-87489000I-100000J0D01*
G01*
X87096000Y-87489000D01*
G75*
G02*
X86996000Y-87389000I0J100000D01*
G01*
G37*
G36*
G01*
X86996000Y-88039000D02*
X86996000Y-87839000D01*
G75*
G02*
X87096000Y-87739000I100000J0D01*
G01*
X88371000Y-87739000D01*
G75*
G02*
X88471000Y-87839000I0J-100000D01*
G01*
X88471000Y-88039000D01*
G75*
G02*
X88371000Y-88139000I-100000J0D01*
G01*
X87096000Y-88139000D01*
G75*
G02*
X86996000Y-88039000I0J100000D01*
G01*
G37*
G36*
G01*
X86996000Y-88689000D02*
X86996000Y-88489000D01*
G75*
G02*
X87096000Y-88389000I100000J0D01*
G01*
X88371000Y-88389000D01*
G75*
G02*
X88471000Y-88489000I0J-100000D01*
G01*
X88471000Y-88689000D01*
G75*
G02*
X88371000Y-88789000I-100000J0D01*
G01*
X87096000Y-88789000D01*
G75*
G02*
X86996000Y-88689000I0J100000D01*
G01*
G37*
G36*
G01*
X86996000Y-89339000D02*
X86996000Y-89139000D01*
G75*
G02*
X87096000Y-89039000I100000J0D01*
G01*
X88371000Y-89039000D01*
G75*
G02*
X88471000Y-89139000I0J-100000D01*
G01*
X88471000Y-89339000D01*
G75*
G02*
X88371000Y-89439000I-100000J0D01*
G01*
X87096000Y-89439000D01*
G75*
G02*
X86996000Y-89339000I0J100000D01*
G01*
G37*
G36*
G01*
X81271000Y-89339000D02*
X81271000Y-89139000D01*
G75*
G02*
X81371000Y-89039000I100000J0D01*
G01*
X82646000Y-89039000D01*
G75*
G02*
X82746000Y-89139000I0J-100000D01*
G01*
X82746000Y-89339000D01*
G75*
G02*
X82646000Y-89439000I-100000J0D01*
G01*
X81371000Y-89439000D01*
G75*
G02*
X81271000Y-89339000I0J100000D01*
G01*
G37*
G36*
G01*
X81271000Y-88689000D02*
X81271000Y-88489000D01*
G75*
G02*
X81371000Y-88389000I100000J0D01*
G01*
X82646000Y-88389000D01*
G75*
G02*
X82746000Y-88489000I0J-100000D01*
G01*
X82746000Y-88689000D01*
G75*
G02*
X82646000Y-88789000I-100000J0D01*
G01*
X81371000Y-88789000D01*
G75*
G02*
X81271000Y-88689000I0J100000D01*
G01*
G37*
G36*
G01*
X81271000Y-88039000D02*
X81271000Y-87839000D01*
G75*
G02*
X81371000Y-87739000I100000J0D01*
G01*
X82646000Y-87739000D01*
G75*
G02*
X82746000Y-87839000I0J-100000D01*
G01*
X82746000Y-88039000D01*
G75*
G02*
X82646000Y-88139000I-100000J0D01*
G01*
X81371000Y-88139000D01*
G75*
G02*
X81271000Y-88039000I0J100000D01*
G01*
G37*
G36*
G01*
X81271000Y-87389000D02*
X81271000Y-87189000D01*
G75*
G02*
X81371000Y-87089000I100000J0D01*
G01*
X82646000Y-87089000D01*
G75*
G02*
X82746000Y-87189000I0J-100000D01*
G01*
X82746000Y-87389000D01*
G75*
G02*
X82646000Y-87489000I-100000J0D01*
G01*
X81371000Y-87489000D01*
G75*
G02*
X81271000Y-87389000I0J100000D01*
G01*
G37*
G36*
G01*
X81271000Y-86739000D02*
X81271000Y-86539000D01*
G75*
G02*
X81371000Y-86439000I100000J0D01*
G01*
X82646000Y-86439000D01*
G75*
G02*
X82746000Y-86539000I0J-100000D01*
G01*
X82746000Y-86739000D01*
G75*
G02*
X82646000Y-86839000I-100000J0D01*
G01*
X81371000Y-86839000D01*
G75*
G02*
X81271000Y-86739000I0J100000D01*
G01*
G37*
G36*
G01*
X81271000Y-86089000D02*
X81271000Y-85889000D01*
G75*
G02*
X81371000Y-85789000I100000J0D01*
G01*
X82646000Y-85789000D01*
G75*
G02*
X82746000Y-85889000I0J-100000D01*
G01*
X82746000Y-86089000D01*
G75*
G02*
X82646000Y-86189000I-100000J0D01*
G01*
X81371000Y-86189000D01*
G75*
G02*
X81271000Y-86089000I0J100000D01*
G01*
G37*
G36*
G01*
X81271000Y-85439000D02*
X81271000Y-85239000D01*
G75*
G02*
X81371000Y-85139000I100000J0D01*
G01*
X82646000Y-85139000D01*
G75*
G02*
X82746000Y-85239000I0J-100000D01*
G01*
X82746000Y-85439000D01*
G75*
G02*
X82646000Y-85539000I-100000J0D01*
G01*
X81371000Y-85539000D01*
G75*
G02*
X81271000Y-85439000I0J100000D01*
G01*
G37*
G36*
G01*
X81271000Y-84789000D02*
X81271000Y-84589000D01*
G75*
G02*
X81371000Y-84489000I100000J0D01*
G01*
X82646000Y-84489000D01*
G75*
G02*
X82746000Y-84589000I0J-100000D01*
G01*
X82746000Y-84789000D01*
G75*
G02*
X82646000Y-84889000I-100000J0D01*
G01*
X81371000Y-84889000D01*
G75*
G02*
X81271000Y-84789000I0J100000D01*
G01*
G37*
G36*
G01*
X81271000Y-84139000D02*
X81271000Y-83939000D01*
G75*
G02*
X81371000Y-83839000I100000J0D01*
G01*
X82646000Y-83839000D01*
G75*
G02*
X82746000Y-83939000I0J-100000D01*
G01*
X82746000Y-84139000D01*
G75*
G02*
X82646000Y-84239000I-100000J0D01*
G01*
X81371000Y-84239000D01*
G75*
G02*
X81271000Y-84139000I0J100000D01*
G01*
G37*
G36*
G01*
X81271000Y-83489000D02*
X81271000Y-83289000D01*
G75*
G02*
X81371000Y-83189000I100000J0D01*
G01*
X82646000Y-83189000D01*
G75*
G02*
X82746000Y-83289000I0J-100000D01*
G01*
X82746000Y-83489000D01*
G75*
G02*
X82646000Y-83589000I-100000J0D01*
G01*
X81371000Y-83589000D01*
G75*
G02*
X81271000Y-83489000I0J100000D01*
G01*
G37*
G36*
G01*
X90152000Y-86888000D02*
X90152000Y-86518000D01*
G75*
G02*
X90287000Y-86383000I135000J0D01*
G01*
X90557000Y-86383000D01*
G75*
G02*
X90692000Y-86518000I0J-135000D01*
G01*
X90692000Y-86888000D01*
G75*
G02*
X90557000Y-87023000I-135000J0D01*
G01*
X90287000Y-87023000D01*
G75*
G02*
X90152000Y-86888000I0J135000D01*
G01*
G37*
G36*
G01*
X89132000Y-86888000D02*
X89132000Y-86518000D01*
G75*
G02*
X89267000Y-86383000I135000J0D01*
G01*
X89537000Y-86383000D01*
G75*
G02*
X89672000Y-86518000I0J-135000D01*
G01*
X89672000Y-86888000D01*
G75*
G02*
X89537000Y-87023000I-135000J0D01*
G01*
X89267000Y-87023000D01*
G75*
G02*
X89132000Y-86888000I0J135000D01*
G01*
G37*
G36*
G01*
X90150000Y-84386000D02*
X90150000Y-84016000D01*
G75*
G02*
X90285000Y-83881000I135000J0D01*
G01*
X90555000Y-83881000D01*
G75*
G02*
X90690000Y-84016000I0J-135000D01*
G01*
X90690000Y-84386000D01*
G75*
G02*
X90555000Y-84521000I-135000J0D01*
G01*
X90285000Y-84521000D01*
G75*
G02*
X90150000Y-84386000I0J135000D01*
G01*
G37*
G36*
G01*
X89130000Y-84386000D02*
X89130000Y-84016000D01*
G75*
G02*
X89265000Y-83881000I135000J0D01*
G01*
X89535000Y-83881000D01*
G75*
G02*
X89670000Y-84016000I0J-135000D01*
G01*
X89670000Y-84386000D01*
G75*
G02*
X89535000Y-84521000I-135000J0D01*
G01*
X89265000Y-84521000D01*
G75*
G02*
X89130000Y-84386000I0J135000D01*
G01*
G37*
G36*
G01*
X92184000Y-87523000D02*
X92184000Y-87153000D01*
G75*
G02*
X92319000Y-87018000I135000J0D01*
G01*
X92589000Y-87018000D01*
G75*
G02*
X92724000Y-87153000I0J-135000D01*
G01*
X92724000Y-87523000D01*
G75*
G02*
X92589000Y-87658000I-135000J0D01*
G01*
X92319000Y-87658000D01*
G75*
G02*
X92184000Y-87523000I0J135000D01*
G01*
G37*
G36*
G01*
X91164000Y-87523000D02*
X91164000Y-87153000D01*
G75*
G02*
X91299000Y-87018000I135000J0D01*
G01*
X91569000Y-87018000D01*
G75*
G02*
X91704000Y-87153000I0J-135000D01*
G01*
X91704000Y-87523000D01*
G75*
G02*
X91569000Y-87658000I-135000J0D01*
G01*
X91299000Y-87658000D01*
G75*
G02*
X91164000Y-87523000I0J135000D01*
G01*
G37*
G36*
G01*
X90152000Y-85618000D02*
X90152000Y-85248000D01*
G75*
G02*
X90287000Y-85113000I135000J0D01*
G01*
X90557000Y-85113000D01*
G75*
G02*
X90692000Y-85248000I0J-135000D01*
G01*
X90692000Y-85618000D01*
G75*
G02*
X90557000Y-85753000I-135000J0D01*
G01*
X90287000Y-85753000D01*
G75*
G02*
X90152000Y-85618000I0J135000D01*
G01*
G37*
G36*
G01*
X89132000Y-85618000D02*
X89132000Y-85248000D01*
G75*
G02*
X89267000Y-85113000I135000J0D01*
G01*
X89537000Y-85113000D01*
G75*
G02*
X89672000Y-85248000I0J-135000D01*
G01*
X89672000Y-85618000D01*
G75*
G02*
X89537000Y-85753000I-135000J0D01*
G01*
X89267000Y-85753000D01*
G75*
G02*
X89132000Y-85618000I0J135000D01*
G01*
G37*
G36*
G01*
X90152000Y-88158000D02*
X90152000Y-87788000D01*
G75*
G02*
X90287000Y-87653000I135000J0D01*
G01*
X90557000Y-87653000D01*
G75*
G02*
X90692000Y-87788000I0J-135000D01*
G01*
X90692000Y-88158000D01*
G75*
G02*
X90557000Y-88293000I-135000J0D01*
G01*
X90287000Y-88293000D01*
G75*
G02*
X90152000Y-88158000I0J135000D01*
G01*
G37*
G36*
G01*
X89132000Y-88158000D02*
X89132000Y-87788000D01*
G75*
G02*
X89267000Y-87653000I135000J0D01*
G01*
X89537000Y-87653000D01*
G75*
G02*
X89672000Y-87788000I0J-135000D01*
G01*
X89672000Y-88158000D01*
G75*
G02*
X89537000Y-88293000I-135000J0D01*
G01*
X89267000Y-88293000D01*
G75*
G02*
X89132000Y-88158000I0J135000D01*
G01*
G37*
G36*
G01*
X92184000Y-86253000D02*
X92184000Y-85883000D01*
G75*
G02*
X92319000Y-85748000I135000J0D01*
G01*
X92589000Y-85748000D01*
G75*
G02*
X92724000Y-85883000I0J-135000D01*
G01*
X92724000Y-86253000D01*
G75*
G02*
X92589000Y-86388000I-135000J0D01*
G01*
X92319000Y-86388000D01*
G75*
G02*
X92184000Y-86253000I0J135000D01*
G01*
G37*
G36*
G01*
X91164000Y-86253000D02*
X91164000Y-85883000D01*
G75*
G02*
X91299000Y-85748000I135000J0D01*
G01*
X91569000Y-85748000D01*
G75*
G02*
X91704000Y-85883000I0J-135000D01*
G01*
X91704000Y-86253000D01*
G75*
G02*
X91569000Y-86388000I-135000J0D01*
G01*
X91299000Y-86388000D01*
G75*
G02*
X91164000Y-86253000I0J135000D01*
G01*
G37*
G36*
G01*
X90152000Y-89428000D02*
X90152000Y-89058000D01*
G75*
G02*
X90287000Y-88923000I135000J0D01*
G01*
X90557000Y-88923000D01*
G75*
G02*
X90692000Y-89058000I0J-135000D01*
G01*
X90692000Y-89428000D01*
G75*
G02*
X90557000Y-89563000I-135000J0D01*
G01*
X90287000Y-89563000D01*
G75*
G02*
X90152000Y-89428000I0J135000D01*
G01*
G37*
G36*
G01*
X89132000Y-89428000D02*
X89132000Y-89058000D01*
G75*
G02*
X89267000Y-88923000I135000J0D01*
G01*
X89537000Y-88923000D01*
G75*
G02*
X89672000Y-89058000I0J-135000D01*
G01*
X89672000Y-89428000D01*
G75*
G02*
X89537000Y-89563000I-135000J0D01*
G01*
X89267000Y-89563000D01*
G75*
G02*
X89132000Y-89428000I0J135000D01*
G01*
G37*
G36*
G01*
X92184000Y-88793000D02*
X92184000Y-88423000D01*
G75*
G02*
X92319000Y-88288000I135000J0D01*
G01*
X92589000Y-88288000D01*
G75*
G02*
X92724000Y-88423000I0J-135000D01*
G01*
X92724000Y-88793000D01*
G75*
G02*
X92589000Y-88928000I-135000J0D01*
G01*
X92319000Y-88928000D01*
G75*
G02*
X92184000Y-88793000I0J135000D01*
G01*
G37*
G36*
G01*
X91164000Y-88793000D02*
X91164000Y-88423000D01*
G75*
G02*
X91299000Y-88288000I135000J0D01*
G01*
X91569000Y-88288000D01*
G75*
G02*
X91704000Y-88423000I0J-135000D01*
G01*
X91704000Y-88793000D01*
G75*
G02*
X91569000Y-88928000I-135000J0D01*
G01*
X91299000Y-88928000D01*
G75*
G02*
X91164000Y-88793000I0J135000D01*
G01*
G37*
G36*
G01*
X80010000Y-89010000D02*
X80010000Y-88670000D01*
G75*
G02*
X80150000Y-88530000I140000J0D01*
G01*
X80430000Y-88530000D01*
G75*
G02*
X80570000Y-88670000I0J-140000D01*
G01*
X80570000Y-89010000D01*
G75*
G02*
X80430000Y-89150000I-140000J0D01*
G01*
X80150000Y-89150000D01*
G75*
G02*
X80010000Y-89010000I0J140000D01*
G01*
G37*
G36*
G01*
X79050000Y-89010000D02*
X79050000Y-88670000D01*
G75*
G02*
X79190000Y-88530000I140000J0D01*
G01*
X79470000Y-88530000D01*
G75*
G02*
X79610000Y-88670000I0J-140000D01*
G01*
X79610000Y-89010000D01*
G75*
G02*
X79470000Y-89150000I-140000J0D01*
G01*
X79190000Y-89150000D01*
G75*
G02*
X79050000Y-89010000I0J140000D01*
G01*
G37*
G36*
G01*
X79610000Y-85170000D02*
X79610000Y-85510000D01*
G75*
G02*
X79470000Y-85650000I-140000J0D01*
G01*
X79190000Y-85650000D01*
G75*
G02*
X79050000Y-85510000I0J140000D01*
G01*
X79050000Y-85170000D01*
G75*
G02*
X79190000Y-85030000I140000J0D01*
G01*
X79470000Y-85030000D01*
G75*
G02*
X79610000Y-85170000I0J-140000D01*
G01*
G37*
G36*
G01*
X80570000Y-85170000D02*
X80570000Y-85510000D01*
G75*
G02*
X80430000Y-85650000I-140000J0D01*
G01*
X80150000Y-85650000D01*
G75*
G02*
X80010000Y-85510000I0J140000D01*
G01*
X80010000Y-85170000D01*
G75*
G02*
X80150000Y-85030000I140000J0D01*
G01*
X80430000Y-85030000D01*
G75*
G02*
X80570000Y-85170000I0J-140000D01*
G01*
G37*
G36*
G01*
X79610000Y-87620000D02*
X79610000Y-87960000D01*
G75*
G02*
X79470000Y-88100000I-140000J0D01*
G01*
X79190000Y-88100000D01*
G75*
G02*
X79050000Y-87960000I0J140000D01*
G01*
X79050000Y-87620000D01*
G75*
G02*
X79190000Y-87480000I140000J0D01*
G01*
X79470000Y-87480000D01*
G75*
G02*
X79610000Y-87620000I0J-140000D01*
G01*
G37*
G36*
G01*
X80570000Y-87620000D02*
X80570000Y-87960000D01*
G75*
G02*
X80430000Y-88100000I-140000J0D01*
G01*
X80150000Y-88100000D01*
G75*
G02*
X80010000Y-87960000I0J140000D01*
G01*
X80010000Y-87620000D01*
G75*
G02*
X80150000Y-87480000I140000J0D01*
G01*
X80430000Y-87480000D01*
G75*
G02*
X80570000Y-87620000I0J-140000D01*
G01*
G37*
D14*
X123025000Y-123025000D03*
X79375000Y-123025000D03*
D22*
X82550000Y-120485000D03*
X123660000Y-83185000D03*
D16*
X120330000Y-110595000D03*
X118430000Y-110595000D03*
X119380000Y-112595000D03*
X116520000Y-110595000D03*
X114620000Y-110595000D03*
X115570000Y-112595000D03*
X112710000Y-110595000D03*
X110810000Y-110595000D03*
X111760000Y-112595000D03*
M02*
