G04 #@! TF.GenerationSoftware,KiCad,Pcbnew,5.1.10*
G04 #@! TF.CreationDate,2021-12-29T02:33:02+02:00*
G04 #@! TF.ProjectId,pwm-controller,70776d2d-636f-46e7-9472-6f6c6c65722e,rev?*
G04 #@! TF.SameCoordinates,Original*
G04 #@! TF.FileFunction,Legend,Top*
G04 #@! TF.FilePolarity,Positive*
%FSLAX46Y46*%
G04 Gerber Fmt 4.6, Leading zero omitted, Abs format (unit mm)*
G04 Created by KiCad (PCBNEW 5.1.10) date 2021-12-29 02:33:02*
%MOMM*%
%LPD*%
G01*
G04 APERTURE LIST*
%ADD10C,0.300000*%
%ADD11C,0.120000*%
%ADD12C,0.150000*%
%ADD13C,0.200000*%
%ADD14O,1.700000X1.700000*%
%ADD15R,1.700000X1.700000*%
%ADD16C,1.800000*%
%ADD17R,0.900000X1.200000*%
%ADD18C,2.000000*%
%ADD19C,2.200000*%
%ADD20R,0.900000X0.800000*%
%ADD21C,0.100000*%
%ADD22R,1.300000X0.900000*%
%ADD23C,1.310000*%
G04 APERTURE END LIST*
D10*
X98878857Y-101262571D02*
X98878857Y-99762571D01*
X99378857Y-100834000D01*
X99878857Y-99762571D01*
X99878857Y-101262571D01*
X101236000Y-101262571D02*
X101236000Y-100476857D01*
X101164571Y-100334000D01*
X101021714Y-100262571D01*
X100736000Y-100262571D01*
X100593142Y-100334000D01*
X101236000Y-101191142D02*
X101093142Y-101262571D01*
X100736000Y-101262571D01*
X100593142Y-101191142D01*
X100521714Y-101048285D01*
X100521714Y-100905428D01*
X100593142Y-100762571D01*
X100736000Y-100691142D01*
X101093142Y-100691142D01*
X101236000Y-100619714D01*
X101950285Y-101262571D02*
X101950285Y-100262571D01*
X101950285Y-100548285D02*
X102021714Y-100405428D01*
X102093142Y-100334000D01*
X102236000Y-100262571D01*
X102378857Y-100262571D01*
X102878857Y-101262571D02*
X102878857Y-99762571D01*
X103021714Y-100691142D02*
X103450285Y-101262571D01*
X103450285Y-100262571D02*
X102878857Y-100834000D01*
X105236000Y-101262571D02*
X105236000Y-99762571D01*
X106093142Y-101262571D02*
X105450285Y-100405428D01*
X106093142Y-99762571D02*
X105236000Y-100619714D01*
X107378857Y-100262571D02*
X107378857Y-101262571D01*
X106736000Y-100262571D02*
X106736000Y-101048285D01*
X106807428Y-101191142D01*
X106950285Y-101262571D01*
X107164571Y-101262571D01*
X107307428Y-101191142D01*
X107378857Y-101119714D01*
X108736000Y-101191142D02*
X108593142Y-101262571D01*
X108307428Y-101262571D01*
X108164571Y-101191142D01*
X108093142Y-101119714D01*
X108021714Y-100976857D01*
X108021714Y-100548285D01*
X108093142Y-100405428D01*
X108164571Y-100334000D01*
X108307428Y-100262571D01*
X108593142Y-100262571D01*
X108736000Y-100334000D01*
X109378857Y-101262571D02*
X109378857Y-99762571D01*
X109521714Y-100691142D02*
X109950285Y-101262571D01*
X109950285Y-100262571D02*
X109378857Y-100834000D01*
X110593142Y-101262571D02*
X110593142Y-100262571D01*
X110593142Y-99762571D02*
X110521714Y-99834000D01*
X110593142Y-99905428D01*
X110664571Y-99834000D01*
X110593142Y-99762571D01*
X110593142Y-99905428D01*
X111950285Y-101262571D02*
X111950285Y-100476857D01*
X111878857Y-100334000D01*
X111736000Y-100262571D01*
X111450285Y-100262571D01*
X111307428Y-100334000D01*
X111950285Y-101191142D02*
X111807428Y-101262571D01*
X111450285Y-101262571D01*
X111307428Y-101191142D01*
X111236000Y-101048285D01*
X111236000Y-100905428D01*
X111307428Y-100762571D01*
X111450285Y-100691142D01*
X111807428Y-100691142D01*
X111950285Y-100619714D01*
X112664571Y-100262571D02*
X112664571Y-101262571D01*
X112664571Y-100405428D02*
X112736000Y-100334000D01*
X112878857Y-100262571D01*
X113093142Y-100262571D01*
X113236000Y-100334000D01*
X113307428Y-100476857D01*
X113307428Y-101262571D01*
X116021714Y-101119714D02*
X115950285Y-101191142D01*
X115736000Y-101262571D01*
X115593142Y-101262571D01*
X115378857Y-101191142D01*
X115236000Y-101048285D01*
X115164571Y-100905428D01*
X115093142Y-100619714D01*
X115093142Y-100405428D01*
X115164571Y-100119714D01*
X115236000Y-99976857D01*
X115378857Y-99834000D01*
X115593142Y-99762571D01*
X115736000Y-99762571D01*
X115950285Y-99834000D01*
X116021714Y-99905428D01*
X116878857Y-101262571D02*
X116736000Y-101191142D01*
X116664571Y-101119714D01*
X116593142Y-100976857D01*
X116593142Y-100548285D01*
X116664571Y-100405428D01*
X116736000Y-100334000D01*
X116878857Y-100262571D01*
X117093142Y-100262571D01*
X117236000Y-100334000D01*
X117307428Y-100405428D01*
X117378857Y-100548285D01*
X117378857Y-100976857D01*
X117307428Y-101119714D01*
X117236000Y-101191142D01*
X117093142Y-101262571D01*
X116878857Y-101262571D01*
X117878857Y-100262571D02*
X118164571Y-101262571D01*
X118450285Y-100548285D01*
X118736000Y-101262571D01*
X119021714Y-100262571D01*
X120236000Y-101262571D02*
X120236000Y-100476857D01*
X120164571Y-100334000D01*
X120021714Y-100262571D01*
X119736000Y-100262571D01*
X119593142Y-100334000D01*
X120236000Y-101191142D02*
X120093142Y-101262571D01*
X119736000Y-101262571D01*
X119593142Y-101191142D01*
X119521714Y-101048285D01*
X119521714Y-100905428D01*
X119593142Y-100762571D01*
X119736000Y-100691142D01*
X120093142Y-100691142D01*
X120236000Y-100619714D01*
X120950285Y-100262571D02*
X120950285Y-101262571D01*
X120950285Y-100405428D02*
X121021714Y-100334000D01*
X121164571Y-100262571D01*
X121378857Y-100262571D01*
X121521714Y-100334000D01*
X121593142Y-100476857D01*
X121593142Y-101262571D01*
D11*
X78232000Y-84074000D02*
X78232000Y-82804000D01*
X79502000Y-84074000D02*
X78232000Y-84074000D01*
X100202000Y-81761071D02*
X100202000Y-81306929D01*
X99442000Y-81761071D02*
X99442000Y-81306929D01*
X100202000Y-79221071D02*
X100202000Y-78824000D01*
X99442000Y-79221071D02*
X99442000Y-78824000D01*
X100202000Y-70164000D02*
X100202000Y-76164000D01*
X99442000Y-70164000D02*
X100202000Y-70164000D01*
X99442000Y-76164000D02*
X99442000Y-70164000D01*
X98552000Y-78824000D02*
X98552000Y-76164000D01*
X97662000Y-81761071D02*
X97662000Y-81306929D01*
X96902000Y-81761071D02*
X96902000Y-81306929D01*
X97662000Y-79221071D02*
X97662000Y-78824000D01*
X96902000Y-79221071D02*
X96902000Y-78824000D01*
X97662000Y-70164000D02*
X97662000Y-76164000D01*
X96902000Y-70164000D02*
X97662000Y-70164000D01*
X96902000Y-76164000D02*
X96902000Y-70164000D01*
X96012000Y-78824000D02*
X96012000Y-76164000D01*
X95122000Y-81761071D02*
X95122000Y-81306929D01*
X94362000Y-81761071D02*
X94362000Y-81306929D01*
X95122000Y-79221071D02*
X95122000Y-78824000D01*
X94362000Y-79221071D02*
X94362000Y-78824000D01*
X95122000Y-70164000D02*
X95122000Y-76164000D01*
X94362000Y-70164000D02*
X95122000Y-70164000D01*
X94362000Y-76164000D02*
X94362000Y-70164000D01*
X93472000Y-78824000D02*
X93472000Y-76164000D01*
X92582000Y-81761071D02*
X92582000Y-81306929D01*
X91822000Y-81761071D02*
X91822000Y-81306929D01*
X92582000Y-79221071D02*
X92582000Y-78824000D01*
X91822000Y-79221071D02*
X91822000Y-78824000D01*
X92582000Y-70164000D02*
X92582000Y-76164000D01*
X91822000Y-70164000D02*
X92582000Y-70164000D01*
X91822000Y-76164000D02*
X91822000Y-70164000D01*
X90932000Y-78824000D02*
X90932000Y-76164000D01*
X90042000Y-81761071D02*
X90042000Y-81306929D01*
X89282000Y-81761071D02*
X89282000Y-81306929D01*
X90042000Y-79221071D02*
X90042000Y-78824000D01*
X89282000Y-79221071D02*
X89282000Y-78824000D01*
X90042000Y-70164000D02*
X90042000Y-76164000D01*
X89282000Y-70164000D02*
X90042000Y-70164000D01*
X89282000Y-76164000D02*
X89282000Y-70164000D01*
X88392000Y-78824000D02*
X88392000Y-76164000D01*
X87502000Y-81761071D02*
X87502000Y-81306929D01*
X86742000Y-81761071D02*
X86742000Y-81306929D01*
X87502000Y-79221071D02*
X87502000Y-78824000D01*
X86742000Y-79221071D02*
X86742000Y-78824000D01*
X87502000Y-70164000D02*
X87502000Y-76164000D01*
X86742000Y-70164000D02*
X87502000Y-70164000D01*
X86742000Y-76164000D02*
X86742000Y-70164000D01*
X85852000Y-78824000D02*
X85852000Y-76164000D01*
X84962000Y-81761071D02*
X84962000Y-81306929D01*
X84202000Y-81761071D02*
X84202000Y-81306929D01*
X84962000Y-79221071D02*
X84962000Y-78824000D01*
X84202000Y-79221071D02*
X84202000Y-78824000D01*
X84962000Y-70164000D02*
X84962000Y-76164000D01*
X84202000Y-70164000D02*
X84962000Y-70164000D01*
X84202000Y-76164000D02*
X84202000Y-70164000D01*
X83312000Y-78824000D02*
X83312000Y-76164000D01*
X82422000Y-81761071D02*
X82422000Y-81306929D01*
X81662000Y-81761071D02*
X81662000Y-81306929D01*
X82422000Y-79221071D02*
X82422000Y-78824000D01*
X81662000Y-79221071D02*
X81662000Y-78824000D01*
X82422000Y-70164000D02*
X82422000Y-76164000D01*
X81662000Y-70164000D02*
X82422000Y-70164000D01*
X81662000Y-76164000D02*
X81662000Y-70164000D01*
X80772000Y-78824000D02*
X80772000Y-76164000D01*
X79882000Y-81694000D02*
X79882000Y-81306929D01*
X79122000Y-81694000D02*
X79122000Y-81306929D01*
X79882000Y-79221071D02*
X79882000Y-78824000D01*
X79122000Y-79221071D02*
X79122000Y-78824000D01*
X79782000Y-76164000D02*
X79782000Y-70164000D01*
X79662000Y-76164000D02*
X79662000Y-70164000D01*
X79542000Y-76164000D02*
X79542000Y-70164000D01*
X79422000Y-76164000D02*
X79422000Y-70164000D01*
X79302000Y-76164000D02*
X79302000Y-70164000D01*
X79182000Y-76164000D02*
X79182000Y-70164000D01*
X79882000Y-70164000D02*
X79882000Y-76164000D01*
X79122000Y-70164000D02*
X79882000Y-70164000D01*
X79122000Y-76164000D02*
X79122000Y-70164000D01*
X78172000Y-76164000D02*
X78172000Y-78824000D01*
X101152000Y-76164000D02*
X78172000Y-76164000D01*
X101152000Y-78824000D02*
X101152000Y-76164000D01*
X78172000Y-78824000D02*
X101152000Y-78824000D01*
D12*
X119935000Y-83076000D02*
X120435000Y-83076000D01*
X119935000Y-84076000D02*
X119935000Y-83076000D01*
X118935000Y-84076000D02*
X119935000Y-84076000D01*
X118935000Y-83076000D02*
X118935000Y-84076000D01*
X117935000Y-83076000D02*
X118935000Y-83076000D01*
X117935000Y-84076000D02*
X117935000Y-83076000D01*
X116935000Y-84076000D02*
X117935000Y-84076000D01*
X111935000Y-83076000D02*
X112935000Y-83076000D01*
X111935000Y-84076000D02*
X111935000Y-83076000D01*
X110935000Y-84076000D02*
X111935000Y-84076000D01*
X110935000Y-83076000D02*
X110935000Y-84076000D01*
X109935000Y-83076000D02*
X110935000Y-83076000D01*
X109935000Y-84076000D02*
X109935000Y-83076000D01*
X109435000Y-84076000D02*
X109935000Y-84076000D01*
X113435000Y-90076000D02*
X116435000Y-91076000D01*
X119935000Y-90076000D02*
X116435000Y-90076000D01*
X109935000Y-90076000D02*
X113435000Y-90076000D01*
D11*
X114435000Y-86576000D02*
X115435000Y-86576000D01*
X114935000Y-86076000D02*
X114935000Y-87076000D01*
X117935000Y-86576000D02*
G75*
G03*
X117935000Y-86576000I-3000000J0D01*
G01*
D12*
X123214387Y-86576000D02*
G75*
G03*
X123214387Y-86576000I-8279387J0D01*
G01*
D11*
X91292000Y-87229836D02*
X91292000Y-87014164D01*
X90572000Y-87229836D02*
X90572000Y-87014164D01*
X95722000Y-100060000D02*
X91822000Y-100060000D01*
X95722000Y-98060000D02*
X91822000Y-98060000D01*
X95722000Y-100060000D02*
X95722000Y-98060000D01*
X97128359Y-88264000D02*
X97435641Y-88264000D01*
X97128359Y-87504000D02*
X97435641Y-87504000D01*
X99467641Y-87504000D02*
X99160359Y-87504000D01*
X99467641Y-88264000D02*
X99160359Y-88264000D01*
D13*
X102889164Y-87698000D02*
X103104836Y-87698000D01*
X102889164Y-86978000D02*
X103104836Y-86978000D01*
X102889164Y-85158000D02*
X103104836Y-85158000D01*
X102889164Y-84438000D02*
X103104836Y-84438000D01*
X102889164Y-86428000D02*
X103104836Y-86428000D01*
X102889164Y-85708000D02*
X103104836Y-85708000D01*
X85379000Y-92239000D02*
X87579000Y-92239000D01*
X85379000Y-92239000D02*
X83179000Y-92239000D01*
X85379000Y-85469000D02*
X87579000Y-85469000D01*
X85379000Y-85469000D02*
X81779000Y-85469000D01*
D11*
X95398000Y-92084164D02*
X95398000Y-92299836D01*
X96118000Y-92084164D02*
X96118000Y-92299836D01*
X90831641Y-91530000D02*
X90524359Y-91530000D01*
X90831641Y-92290000D02*
X90524359Y-92290000D01*
X90831641Y-90514000D02*
X90524359Y-90514000D01*
X90831641Y-91274000D02*
X90524359Y-91274000D01*
X80390000Y-94857641D02*
X80390000Y-94550359D01*
X79630000Y-94857641D02*
X79630000Y-94550359D01*
X91721000Y-93981000D02*
X91721000Y-96266000D01*
X93191000Y-93981000D02*
X91721000Y-93981000D01*
X93191000Y-96266000D02*
X93191000Y-93981000D01*
X84609000Y-93981000D02*
X84609000Y-96266000D01*
X86079000Y-93981000D02*
X84609000Y-93981000D01*
X86079000Y-96266000D02*
X86079000Y-93981000D01*
X87502000Y-96889641D02*
X87502000Y-96582359D01*
X86742000Y-96889641D02*
X86742000Y-96582359D01*
X87502000Y-94857641D02*
X87502000Y-94550359D01*
X86742000Y-94857641D02*
X86742000Y-94550359D01*
X80390000Y-96889641D02*
X80390000Y-96582359D01*
X79630000Y-96889641D02*
X79630000Y-96582359D01*
X90422000Y-97046000D02*
X88962000Y-97046000D01*
X90422000Y-93886000D02*
X88262000Y-93886000D01*
X90422000Y-93886000D02*
X90422000Y-94816000D01*
X90422000Y-97046000D02*
X90422000Y-96116000D01*
X83310000Y-97046000D02*
X81850000Y-97046000D01*
X83310000Y-93886000D02*
X81150000Y-93886000D01*
X83310000Y-93886000D02*
X83310000Y-94816000D01*
X83310000Y-97046000D02*
X83310000Y-96116000D01*
X105182641Y-85178000D02*
X104875359Y-85178000D01*
X105182641Y-84418000D02*
X104875359Y-84418000D01*
X98024000Y-109436000D02*
X98024000Y-111386000D01*
X98024000Y-109436000D02*
X98024000Y-107486000D01*
X103144000Y-109436000D02*
X103144000Y-111386000D01*
X103144000Y-109436000D02*
X103144000Y-105986000D01*
X103612000Y-109436000D02*
X103612000Y-111386000D01*
X103612000Y-109436000D02*
X103612000Y-107486000D01*
X108732000Y-109436000D02*
X108732000Y-111386000D01*
X108732000Y-109436000D02*
X108732000Y-105986000D01*
X109835000Y-109436000D02*
X109835000Y-111386000D01*
X109835000Y-109436000D02*
X109835000Y-107486000D01*
X114955000Y-109436000D02*
X114955000Y-111386000D01*
X114955000Y-109436000D02*
X114955000Y-105986000D01*
X115550000Y-109436000D02*
X115550000Y-111386000D01*
X115550000Y-109436000D02*
X115550000Y-107486000D01*
X120670000Y-109436000D02*
X120670000Y-111386000D01*
X120670000Y-109436000D02*
X120670000Y-105986000D01*
X105182641Y-86448000D02*
X104875359Y-86448000D01*
X105182641Y-85688000D02*
X104875359Y-85688000D01*
X104875359Y-86958000D02*
X105182641Y-86958000D01*
X104875359Y-87718000D02*
X105182641Y-87718000D01*
X101355000Y-94446000D02*
X101355000Y-95756000D01*
X101355000Y-95756000D02*
X98635000Y-95756000D01*
X97495000Y-91266000D02*
X98635000Y-91266000D01*
X101355000Y-91036000D02*
X101355000Y-92346000D01*
X98635000Y-91036000D02*
X101355000Y-91036000D01*
X98635000Y-91036000D02*
X98635000Y-91266000D01*
X98635000Y-95756000D02*
X98635000Y-95526000D01*
X83755000Y-122691000D02*
X83755000Y-123191000D01*
X83755000Y-115215000D02*
X83755000Y-115715000D01*
X84355000Y-114207000D02*
X84355000Y-124207000D01*
X94715000Y-114207000D02*
X94715000Y-124207000D01*
D12*
X84355000Y-124207000D02*
X85725000Y-124207000D01*
X85725000Y-124207000D02*
X85725000Y-123707000D01*
X85725000Y-123707000D02*
X88265000Y-123707000D01*
X88265000Y-123707000D02*
X88265000Y-124207000D01*
X88265000Y-124207000D02*
X90805000Y-124207000D01*
X90805000Y-124207000D02*
X90805000Y-123707000D01*
X90805000Y-123707000D02*
X93345000Y-123707000D01*
X93345000Y-123707000D02*
X93345000Y-124207000D01*
X93345000Y-124207000D02*
X94715000Y-124207000D01*
D11*
X84355000Y-114207000D02*
X94715000Y-114207000D01*
X89590000Y-100700000D02*
X89590000Y-111060000D01*
D12*
X79590000Y-109690000D02*
X79590000Y-111060000D01*
X80090000Y-109690000D02*
X79590000Y-109690000D01*
X80090000Y-107150000D02*
X80090000Y-109690000D01*
X79590000Y-107150000D02*
X80090000Y-107150000D01*
X79590000Y-104610000D02*
X79590000Y-107150000D01*
X80090000Y-104610000D02*
X79590000Y-104610000D01*
X80090000Y-102070000D02*
X80090000Y-104610000D01*
X79590000Y-102070000D02*
X80090000Y-102070000D01*
X79590000Y-100700000D02*
X79590000Y-102070000D01*
D11*
X89590000Y-111060000D02*
X79590000Y-111060000D01*
X89590000Y-100700000D02*
X79590000Y-100700000D01*
X88582000Y-100100000D02*
X88082000Y-100100000D01*
X81106000Y-100100000D02*
X80606000Y-100100000D01*
X103440000Y-122691000D02*
X103440000Y-123191000D01*
X103440000Y-115215000D02*
X103440000Y-115715000D01*
X104040000Y-114207000D02*
X104040000Y-124207000D01*
X114400000Y-114207000D02*
X114400000Y-124207000D01*
D12*
X104040000Y-124207000D02*
X105410000Y-124207000D01*
X105410000Y-124207000D02*
X105410000Y-123707000D01*
X105410000Y-123707000D02*
X107950000Y-123707000D01*
X107950000Y-123707000D02*
X107950000Y-124207000D01*
X107950000Y-124207000D02*
X110490000Y-124207000D01*
X110490000Y-124207000D02*
X110490000Y-123707000D01*
X110490000Y-123707000D02*
X113030000Y-123707000D01*
X113030000Y-123707000D02*
X113030000Y-124207000D01*
X113030000Y-124207000D02*
X114400000Y-124207000D01*
D11*
X104040000Y-114207000D02*
X114400000Y-114207000D01*
X110371836Y-94344000D02*
X110156164Y-94344000D01*
X110371836Y-95064000D02*
X110156164Y-95064000D01*
X120785836Y-94344000D02*
X120570164Y-94344000D01*
X120785836Y-95064000D02*
X120570164Y-95064000D01*
X118009641Y-95846000D02*
X117702359Y-95846000D01*
X118009641Y-95086000D02*
X117702359Y-95086000D01*
X117688379Y-97624000D02*
X118023621Y-97624000D01*
X117688379Y-96864000D02*
X118023621Y-96864000D01*
X115441000Y-98824000D02*
X115441000Y-97894000D01*
X115441000Y-95664000D02*
X115441000Y-96594000D01*
X115441000Y-95664000D02*
X113281000Y-95664000D01*
X115441000Y-98824000D02*
X113981000Y-98824000D01*
X121791000Y-98824000D02*
X121791000Y-97894000D01*
X121791000Y-95664000D02*
X121791000Y-96594000D01*
X121791000Y-95664000D02*
X119631000Y-95664000D01*
X121791000Y-98824000D02*
X120331000Y-98824000D01*
X117971835Y-98154000D02*
X117740165Y-98154000D01*
X117971835Y-98874000D02*
X117740165Y-98874000D01*
X111377000Y-98824000D02*
X111377000Y-97894000D01*
X111377000Y-95664000D02*
X111377000Y-96594000D01*
X111377000Y-95664000D02*
X109217000Y-95664000D01*
X111377000Y-98824000D02*
X109917000Y-98824000D01*
X107595641Y-95846000D02*
X107288359Y-95846000D01*
X107595641Y-95086000D02*
X107288359Y-95086000D01*
X107274379Y-97624000D02*
X107609621Y-97624000D01*
X107274379Y-96864000D02*
X107609621Y-96864000D01*
X105027000Y-98824000D02*
X105027000Y-97894000D01*
X105027000Y-95664000D02*
X105027000Y-96594000D01*
X105027000Y-95664000D02*
X102867000Y-95664000D01*
X105027000Y-98824000D02*
X103567000Y-98824000D01*
X107557835Y-98154000D02*
X107326165Y-98154000D01*
X107557835Y-98874000D02*
X107326165Y-98874000D01*
D13*
X96268000Y-94844580D02*
X96268000Y-94563420D01*
X95248000Y-94844580D02*
X95248000Y-94563420D01*
X80210164Y-91020000D02*
X80425836Y-91020000D01*
X80210164Y-91740000D02*
X80425836Y-91740000D01*
X80425836Y-88240000D02*
X80210164Y-88240000D01*
X80425836Y-87520000D02*
X80210164Y-87520000D01*
X80425836Y-90690000D02*
X80210164Y-90690000D01*
X80425836Y-89970000D02*
X80210164Y-89970000D01*
X89328666Y-77176380D02*
X89328666Y-77890666D01*
X89281047Y-78033523D01*
X89185809Y-78128761D01*
X89042952Y-78176380D01*
X88947714Y-78176380D01*
X90328666Y-78176380D02*
X89757238Y-78176380D01*
X90042952Y-78176380D02*
X90042952Y-77176380D01*
X89947714Y-77319238D01*
X89852476Y-77414476D01*
X89757238Y-77462095D01*
X79376285Y-85288380D02*
X79042952Y-84812190D01*
X78804857Y-85288380D02*
X78804857Y-84288380D01*
X79185809Y-84288380D01*
X79281047Y-84336000D01*
X79328666Y-84383619D01*
X79376285Y-84478857D01*
X79376285Y-84621714D01*
X79328666Y-84716952D01*
X79281047Y-84764571D01*
X79185809Y-84812190D01*
X78804857Y-84812190D01*
X79709619Y-84288380D02*
X80376285Y-85288380D01*
X80376285Y-84288380D02*
X79709619Y-85288380D01*
X81376285Y-84288380D02*
X81947714Y-84288380D01*
X81662000Y-85288380D02*
X81662000Y-84288380D01*
X82185809Y-84288380D02*
X82852476Y-85288380D01*
X82852476Y-84288380D02*
X82185809Y-85288380D01*
X83947714Y-85002666D02*
X84423904Y-85002666D01*
X83852476Y-85288380D02*
X84185809Y-84288380D01*
X84519142Y-85288380D01*
X85042952Y-84288380D02*
X85138190Y-84288380D01*
X85233428Y-84336000D01*
X85281047Y-84383619D01*
X85328666Y-84478857D01*
X85376285Y-84669333D01*
X85376285Y-84907428D01*
X85328666Y-85097904D01*
X85281047Y-85193142D01*
X85233428Y-85240761D01*
X85138190Y-85288380D01*
X85042952Y-85288380D01*
X84947714Y-85240761D01*
X84900095Y-85193142D01*
X84852476Y-85097904D01*
X84804857Y-84907428D01*
X84804857Y-84669333D01*
X84852476Y-84478857D01*
X84900095Y-84383619D01*
X84947714Y-84336000D01*
X85042952Y-84288380D01*
X86519142Y-85002666D02*
X86995333Y-85002666D01*
X86423904Y-85288380D02*
X86757238Y-84288380D01*
X87090571Y-85288380D01*
X87947714Y-85288380D02*
X87376285Y-85288380D01*
X87662000Y-85288380D02*
X87662000Y-84288380D01*
X87566761Y-84431238D01*
X87471523Y-84526476D01*
X87376285Y-84574095D01*
X89090571Y-85002666D02*
X89566761Y-85002666D01*
X88995333Y-85288380D02*
X89328666Y-84288380D01*
X89662000Y-85288380D01*
X89947714Y-84383619D02*
X89995333Y-84336000D01*
X90090571Y-84288380D01*
X90328666Y-84288380D01*
X90423904Y-84336000D01*
X90471523Y-84383619D01*
X90519142Y-84478857D01*
X90519142Y-84574095D01*
X90471523Y-84716952D01*
X89900095Y-85288380D01*
X90519142Y-85288380D01*
X91900095Y-84288380D02*
X91995333Y-84288380D01*
X92090571Y-84336000D01*
X92138190Y-84383619D01*
X92185809Y-84478857D01*
X92233428Y-84669333D01*
X92233428Y-84907428D01*
X92185809Y-85097904D01*
X92138190Y-85193142D01*
X92090571Y-85240761D01*
X91995333Y-85288380D01*
X91900095Y-85288380D01*
X91804857Y-85240761D01*
X91757238Y-85193142D01*
X91709619Y-85097904D01*
X91662000Y-84907428D01*
X91662000Y-84669333D01*
X91709619Y-84478857D01*
X91757238Y-84383619D01*
X91804857Y-84336000D01*
X91900095Y-84288380D01*
X92519142Y-84288380D02*
X92852476Y-85288380D01*
X93185809Y-84288380D01*
X94042952Y-83856000D02*
X94519142Y-83856000D01*
X94281047Y-85288380D02*
X94281047Y-84288380D01*
X94519142Y-83856000D02*
X95566761Y-83856000D01*
X94757238Y-85288380D02*
X94757238Y-84288380D01*
X95328666Y-85288380D01*
X95328666Y-84288380D01*
X97138190Y-85193142D02*
X97090571Y-85240761D01*
X96947714Y-85288380D01*
X96852476Y-85288380D01*
X96709619Y-85240761D01*
X96614380Y-85145523D01*
X96566761Y-85050285D01*
X96519142Y-84859809D01*
X96519142Y-84716952D01*
X96566761Y-84526476D01*
X96614380Y-84431238D01*
X96709619Y-84336000D01*
X96852476Y-84288380D01*
X96947714Y-84288380D01*
X97090571Y-84336000D01*
X97138190Y-84383619D01*
X98042952Y-85288380D02*
X97566761Y-85288380D01*
X97566761Y-84288380D01*
X99138190Y-85288380D02*
X99138190Y-84288380D01*
X99376285Y-84288380D01*
X99519142Y-84336000D01*
X99614380Y-84431238D01*
X99662000Y-84526476D01*
X99709619Y-84716952D01*
X99709619Y-84859809D01*
X99662000Y-85050285D01*
X99614380Y-85145523D01*
X99519142Y-85240761D01*
X99376285Y-85288380D01*
X99138190Y-85288380D01*
X100090571Y-85002666D02*
X100566761Y-85002666D01*
X99995333Y-85288380D02*
X100328666Y-84288380D01*
X100662000Y-85288380D01*
X76612857Y-80668761D02*
X76755714Y-80716380D01*
X76993809Y-80716380D01*
X77089047Y-80668761D01*
X77136666Y-80621142D01*
X77184285Y-80525904D01*
X77184285Y-80430666D01*
X77136666Y-80335428D01*
X77089047Y-80287809D01*
X76993809Y-80240190D01*
X76803333Y-80192571D01*
X76708095Y-80144952D01*
X76660476Y-80097333D01*
X76612857Y-80002095D01*
X76612857Y-79906857D01*
X76660476Y-79811619D01*
X76708095Y-79764000D01*
X76803333Y-79716380D01*
X77041428Y-79716380D01*
X77184285Y-79764000D01*
X77517619Y-79716380D02*
X77755714Y-80716380D01*
X77946190Y-80002095D01*
X78136666Y-80716380D01*
X78374761Y-79716380D01*
D12*
X114673095Y-82933142D02*
X114625476Y-82980761D01*
X114482619Y-83028380D01*
X114387380Y-83028380D01*
X114244523Y-82980761D01*
X114149285Y-82885523D01*
X114101666Y-82790285D01*
X114054047Y-82599809D01*
X114054047Y-82456952D01*
X114101666Y-82266476D01*
X114149285Y-82171238D01*
X114244523Y-82076000D01*
X114387380Y-82028380D01*
X114482619Y-82028380D01*
X114625476Y-82076000D01*
X114673095Y-82123619D01*
X115006428Y-82028380D02*
X115244523Y-83028380D01*
X115435000Y-82314095D01*
X115625476Y-83028380D01*
X115863571Y-82028380D01*
X101935595Y-79605142D02*
X101983214Y-79652761D01*
X101935595Y-79700380D01*
X101887976Y-79652761D01*
X101935595Y-79605142D01*
X101935595Y-79700380D01*
X101935595Y-79319428D02*
X101887976Y-78748000D01*
X101935595Y-78700380D01*
X101983214Y-78748000D01*
X101935595Y-79319428D01*
X101935595Y-78700380D01*
X102887976Y-78700380D02*
X102411785Y-78700380D01*
X102364166Y-79176571D01*
X102411785Y-79128952D01*
X102507023Y-79081333D01*
X102745119Y-79081333D01*
X102840357Y-79128952D01*
X102887976Y-79176571D01*
X102935595Y-79271809D01*
X102935595Y-79509904D01*
X102887976Y-79605142D01*
X102840357Y-79652761D01*
X102745119Y-79700380D01*
X102507023Y-79700380D01*
X102411785Y-79652761D01*
X102364166Y-79605142D01*
X103221309Y-78700380D02*
X103554642Y-79700380D01*
X103887976Y-78700380D01*
X105459404Y-79700380D02*
X104983214Y-79700380D01*
X104983214Y-78700380D01*
X105983214Y-78700380D02*
X106173690Y-78700380D01*
X106268928Y-78748000D01*
X106364166Y-78843238D01*
X106411785Y-79033714D01*
X106411785Y-79367047D01*
X106364166Y-79557523D01*
X106268928Y-79652761D01*
X106173690Y-79700380D01*
X105983214Y-79700380D01*
X105887976Y-79652761D01*
X105792738Y-79557523D01*
X105745119Y-79367047D01*
X105745119Y-79033714D01*
X105792738Y-78843238D01*
X105887976Y-78748000D01*
X105983214Y-78700380D01*
X107364166Y-78748000D02*
X107268928Y-78700380D01*
X107126071Y-78700380D01*
X106983214Y-78748000D01*
X106887976Y-78843238D01*
X106840357Y-78938476D01*
X106792738Y-79128952D01*
X106792738Y-79271809D01*
X106840357Y-79462285D01*
X106887976Y-79557523D01*
X106983214Y-79652761D01*
X107126071Y-79700380D01*
X107221309Y-79700380D01*
X107364166Y-79652761D01*
X107411785Y-79605142D01*
X107411785Y-79271809D01*
X107221309Y-79271809D01*
X107840357Y-79700380D02*
X107840357Y-78700380D01*
X108887976Y-79605142D02*
X108840357Y-79652761D01*
X108697500Y-79700380D01*
X108602261Y-79700380D01*
X108459404Y-79652761D01*
X108364166Y-79557523D01*
X108316547Y-79462285D01*
X108268928Y-79271809D01*
X108268928Y-79128952D01*
X108316547Y-78938476D01*
X108364166Y-78843238D01*
X108459404Y-78748000D01*
X108602261Y-78700380D01*
X108697500Y-78700380D01*
X108840357Y-78748000D01*
X108887976Y-78795619D01*
X109316547Y-79605142D02*
X109364166Y-79652761D01*
X109316547Y-79700380D01*
X109268928Y-79652761D01*
X109316547Y-79605142D01*
X109316547Y-79700380D01*
X109316547Y-79319428D02*
X109268928Y-78748000D01*
X109316547Y-78700380D01*
X109364166Y-78748000D01*
X109316547Y-79319428D01*
X109316547Y-78700380D01*
D13*
X89201666Y-118032380D02*
X89201666Y-118746666D01*
X89154047Y-118889523D01*
X89058809Y-118984761D01*
X88915952Y-119032380D01*
X88820714Y-119032380D01*
X90154047Y-118032380D02*
X89677857Y-118032380D01*
X89630238Y-118508571D01*
X89677857Y-118460952D01*
X89773095Y-118413333D01*
X90011190Y-118413333D01*
X90106428Y-118460952D01*
X90154047Y-118508571D01*
X90201666Y-118603809D01*
X90201666Y-118841904D01*
X90154047Y-118937142D01*
X90106428Y-118984761D01*
X90011190Y-119032380D01*
X89773095Y-119032380D01*
X89677857Y-118984761D01*
X89630238Y-118937142D01*
X79406952Y-118540380D02*
X79597428Y-118540380D01*
X79692666Y-118588000D01*
X79787904Y-118683238D01*
X79835523Y-118873714D01*
X79835523Y-119207047D01*
X79787904Y-119397523D01*
X79692666Y-119492761D01*
X79597428Y-119540380D01*
X79406952Y-119540380D01*
X79311714Y-119492761D01*
X79216476Y-119397523D01*
X79168857Y-119207047D01*
X79168857Y-118873714D01*
X79216476Y-118683238D01*
X79311714Y-118588000D01*
X79406952Y-118540380D01*
X80264095Y-118540380D02*
X80264095Y-119349904D01*
X80311714Y-119445142D01*
X80359333Y-119492761D01*
X80454571Y-119540380D01*
X80645047Y-119540380D01*
X80740285Y-119492761D01*
X80787904Y-119445142D01*
X80835523Y-119349904D01*
X80835523Y-118540380D01*
X81168857Y-118540380D02*
X81740285Y-118540380D01*
X81454571Y-119540380D02*
X81454571Y-118540380D01*
X82073619Y-119159428D02*
X82835523Y-119159428D01*
X82454571Y-119540380D02*
X82454571Y-118778476D01*
X84756666Y-105332380D02*
X84756666Y-106046666D01*
X84709047Y-106189523D01*
X84613809Y-106284761D01*
X84470952Y-106332380D01*
X84375714Y-106332380D01*
X85661428Y-105665714D02*
X85661428Y-106332380D01*
X85423333Y-105284761D02*
X85185238Y-105999047D01*
X85804285Y-105999047D01*
X82780476Y-100020380D02*
X82780476Y-99020380D01*
X83161428Y-99020380D01*
X83256666Y-99068000D01*
X83304285Y-99115619D01*
X83351904Y-99210857D01*
X83351904Y-99353714D01*
X83304285Y-99448952D01*
X83256666Y-99496571D01*
X83161428Y-99544190D01*
X82780476Y-99544190D01*
X83970952Y-99020380D02*
X84161428Y-99020380D01*
X84256666Y-99068000D01*
X84351904Y-99163238D01*
X84399523Y-99353714D01*
X84399523Y-99687047D01*
X84351904Y-99877523D01*
X84256666Y-99972761D01*
X84161428Y-100020380D01*
X83970952Y-100020380D01*
X83875714Y-99972761D01*
X83780476Y-99877523D01*
X83732857Y-99687047D01*
X83732857Y-99353714D01*
X83780476Y-99163238D01*
X83875714Y-99068000D01*
X83970952Y-99020380D01*
X84732857Y-99020380D02*
X84970952Y-100020380D01*
X85161428Y-99306095D01*
X85351904Y-100020380D01*
X85590000Y-99020380D01*
X85970952Y-99496571D02*
X86304285Y-99496571D01*
X86447142Y-100020380D02*
X85970952Y-100020380D01*
X85970952Y-99020380D01*
X86447142Y-99020380D01*
X87447142Y-100020380D02*
X87113809Y-99544190D01*
X86875714Y-100020380D02*
X86875714Y-99020380D01*
X87256666Y-99020380D01*
X87351904Y-99068000D01*
X87399523Y-99115619D01*
X87447142Y-99210857D01*
X87447142Y-99353714D01*
X87399523Y-99448952D01*
X87351904Y-99496571D01*
X87256666Y-99544190D01*
X86875714Y-99544190D01*
X78176428Y-108800952D02*
X78176428Y-108039047D01*
X78557380Y-108420000D02*
X77795476Y-108420000D01*
X78176428Y-103720952D02*
X78176428Y-102959047D01*
X82804285Y-113482380D02*
X82232857Y-113482380D01*
X82518571Y-113482380D02*
X82518571Y-112482380D01*
X82423333Y-112625238D01*
X82328095Y-112720476D01*
X82232857Y-112768095D01*
X83185238Y-112577619D02*
X83232857Y-112530000D01*
X83328095Y-112482380D01*
X83566190Y-112482380D01*
X83661428Y-112530000D01*
X83709047Y-112577619D01*
X83756666Y-112672857D01*
X83756666Y-112768095D01*
X83709047Y-112910952D01*
X83137619Y-113482380D01*
X83756666Y-113482380D01*
X84185238Y-113387142D02*
X84232857Y-113434761D01*
X84185238Y-113482380D01*
X84137619Y-113434761D01*
X84185238Y-113387142D01*
X84185238Y-113482380D01*
X84661428Y-113387142D02*
X84709047Y-113434761D01*
X84661428Y-113482380D01*
X84613809Y-113434761D01*
X84661428Y-113387142D01*
X84661428Y-113482380D01*
X85137619Y-113387142D02*
X85185238Y-113434761D01*
X85137619Y-113482380D01*
X85090000Y-113434761D01*
X85137619Y-113387142D01*
X85137619Y-113482380D01*
X85566190Y-112577619D02*
X85613809Y-112530000D01*
X85709047Y-112482380D01*
X85947142Y-112482380D01*
X86042380Y-112530000D01*
X86090000Y-112577619D01*
X86137619Y-112672857D01*
X86137619Y-112768095D01*
X86090000Y-112910952D01*
X85518571Y-113482380D01*
X86137619Y-113482380D01*
X86994761Y-112815714D02*
X86994761Y-113482380D01*
X86756666Y-112434761D02*
X86518571Y-113149047D01*
X87137619Y-113149047D01*
X87375714Y-112482380D02*
X87709047Y-113482380D01*
X88042380Y-112482380D01*
X108886666Y-118032380D02*
X108886666Y-118746666D01*
X108839047Y-118889523D01*
X108743809Y-118984761D01*
X108600952Y-119032380D01*
X108505714Y-119032380D01*
X109791428Y-118032380D02*
X109600952Y-118032380D01*
X109505714Y-118080000D01*
X109458095Y-118127619D01*
X109362857Y-118270476D01*
X109315238Y-118460952D01*
X109315238Y-118841904D01*
X109362857Y-118937142D01*
X109410476Y-118984761D01*
X109505714Y-119032380D01*
X109696190Y-119032380D01*
X109791428Y-118984761D01*
X109839047Y-118937142D01*
X109886666Y-118841904D01*
X109886666Y-118603809D01*
X109839047Y-118508571D01*
X109791428Y-118460952D01*
X109696190Y-118413333D01*
X109505714Y-118413333D01*
X109410476Y-118460952D01*
X109362857Y-118508571D01*
X109315238Y-118603809D01*
X98120952Y-120572380D02*
X98311428Y-120572380D01*
X98406666Y-120620000D01*
X98501904Y-120715238D01*
X98549523Y-120905714D01*
X98549523Y-121239047D01*
X98501904Y-121429523D01*
X98406666Y-121524761D01*
X98311428Y-121572380D01*
X98120952Y-121572380D01*
X98025714Y-121524761D01*
X97930476Y-121429523D01*
X97882857Y-121239047D01*
X97882857Y-120905714D01*
X97930476Y-120715238D01*
X98025714Y-120620000D01*
X98120952Y-120572380D01*
X98978095Y-120572380D02*
X98978095Y-121381904D01*
X99025714Y-121477142D01*
X99073333Y-121524761D01*
X99168571Y-121572380D01*
X99359047Y-121572380D01*
X99454285Y-121524761D01*
X99501904Y-121477142D01*
X99549523Y-121381904D01*
X99549523Y-120572380D01*
X99882857Y-120572380D02*
X100454285Y-120572380D01*
X100168571Y-121572380D02*
X100168571Y-120572380D01*
X101311428Y-121572380D02*
X100740000Y-121572380D01*
X101025714Y-121572380D02*
X101025714Y-120572380D01*
X100930476Y-120715238D01*
X100835238Y-120810476D01*
X100740000Y-120858095D01*
X101740000Y-121191428D02*
X102501904Y-121191428D01*
X116382571Y-120572380D02*
X116573047Y-120572380D01*
X116668285Y-120620000D01*
X116763523Y-120715238D01*
X116811142Y-120905714D01*
X116811142Y-121239047D01*
X116763523Y-121429523D01*
X116668285Y-121524761D01*
X116573047Y-121572380D01*
X116382571Y-121572380D01*
X116287333Y-121524761D01*
X116192095Y-121429523D01*
X116144476Y-121239047D01*
X116144476Y-120905714D01*
X116192095Y-120715238D01*
X116287333Y-120620000D01*
X116382571Y-120572380D01*
X117239714Y-120572380D02*
X117239714Y-121381904D01*
X117287333Y-121477142D01*
X117334952Y-121524761D01*
X117430190Y-121572380D01*
X117620666Y-121572380D01*
X117715904Y-121524761D01*
X117763523Y-121477142D01*
X117811142Y-121381904D01*
X117811142Y-120572380D01*
X118144476Y-120572380D02*
X118715904Y-120572380D01*
X118430190Y-121572380D02*
X118430190Y-120572380D01*
X119001619Y-120667619D02*
X119049238Y-120620000D01*
X119144476Y-120572380D01*
X119382571Y-120572380D01*
X119477809Y-120620000D01*
X119525428Y-120667619D01*
X119573047Y-120762857D01*
X119573047Y-120858095D01*
X119525428Y-121000952D01*
X118954000Y-121572380D01*
X119573047Y-121572380D01*
X120001619Y-121191428D02*
X120763523Y-121191428D01*
%LPC*%
D14*
X99822000Y-80264000D03*
X99822000Y-82804000D03*
X97282000Y-80264000D03*
X97282000Y-82804000D03*
X94742000Y-80264000D03*
X94742000Y-82804000D03*
X92202000Y-80264000D03*
X92202000Y-82804000D03*
X89662000Y-80264000D03*
X89662000Y-82804000D03*
X87122000Y-80264000D03*
X87122000Y-82804000D03*
X84582000Y-80264000D03*
X84582000Y-82804000D03*
X82042000Y-80264000D03*
X82042000Y-82804000D03*
X79502000Y-80264000D03*
D15*
X79502000Y-82804000D03*
D16*
X109385000Y-90726000D03*
X120885000Y-90026000D03*
X120485000Y-82426000D03*
X109385000Y-82426000D03*
X114935000Y-79726000D03*
G36*
G01*
X107335000Y-87726000D02*
X107335000Y-85526000D01*
G75*
G02*
X108135000Y-84726000I800000J0D01*
G01*
X109735000Y-84726000D01*
G75*
G02*
X110535000Y-85526000I0J-800000D01*
G01*
X110535000Y-87726000D01*
G75*
G02*
X109735000Y-88526000I-800000J0D01*
G01*
X108135000Y-88526000D01*
G75*
G02*
X107335000Y-87726000I0J800000D01*
G01*
G37*
G36*
G01*
X119335000Y-87726000D02*
X119335000Y-85526000D01*
G75*
G02*
X120135000Y-84726000I800000J0D01*
G01*
X121735000Y-84726000D01*
G75*
G02*
X122535000Y-85526000I0J-800000D01*
G01*
X122535000Y-87726000D01*
G75*
G02*
X121735000Y-88526000I-800000J0D01*
G01*
X120135000Y-88526000D01*
G75*
G02*
X119335000Y-87726000I0J800000D01*
G01*
G37*
G36*
G01*
X91102000Y-86922000D02*
X90762000Y-86922000D01*
G75*
G02*
X90622000Y-86782000I0J140000D01*
G01*
X90622000Y-86502000D01*
G75*
G02*
X90762000Y-86362000I140000J0D01*
G01*
X91102000Y-86362000D01*
G75*
G02*
X91242000Y-86502000I0J-140000D01*
G01*
X91242000Y-86782000D01*
G75*
G02*
X91102000Y-86922000I-140000J0D01*
G01*
G37*
G36*
G01*
X91102000Y-87882000D02*
X90762000Y-87882000D01*
G75*
G02*
X90622000Y-87742000I0J140000D01*
G01*
X90622000Y-87462000D01*
G75*
G02*
X90762000Y-87322000I140000J0D01*
G01*
X91102000Y-87322000D01*
G75*
G02*
X91242000Y-87462000I0J-140000D01*
G01*
X91242000Y-87742000D01*
G75*
G02*
X91102000Y-87882000I-140000J0D01*
G01*
G37*
D17*
X91822000Y-99060000D03*
X95122000Y-99060000D03*
D18*
X123500000Y-110000000D03*
X93500000Y-110000000D03*
D19*
X123025000Y-79375000D03*
G36*
G01*
X97522000Y-88069000D02*
X97522000Y-87699000D01*
G75*
G02*
X97657000Y-87564000I135000J0D01*
G01*
X97927000Y-87564000D01*
G75*
G02*
X98062000Y-87699000I0J-135000D01*
G01*
X98062000Y-88069000D01*
G75*
G02*
X97927000Y-88204000I-135000J0D01*
G01*
X97657000Y-88204000D01*
G75*
G02*
X97522000Y-88069000I0J135000D01*
G01*
G37*
G36*
G01*
X96502000Y-88069000D02*
X96502000Y-87699000D01*
G75*
G02*
X96637000Y-87564000I135000J0D01*
G01*
X96907000Y-87564000D01*
G75*
G02*
X97042000Y-87699000I0J-135000D01*
G01*
X97042000Y-88069000D01*
G75*
G02*
X96907000Y-88204000I-135000J0D01*
G01*
X96637000Y-88204000D01*
G75*
G02*
X96502000Y-88069000I0J135000D01*
G01*
G37*
G36*
G01*
X99074000Y-87699000D02*
X99074000Y-88069000D01*
G75*
G02*
X98939000Y-88204000I-135000J0D01*
G01*
X98669000Y-88204000D01*
G75*
G02*
X98534000Y-88069000I0J135000D01*
G01*
X98534000Y-87699000D01*
G75*
G02*
X98669000Y-87564000I135000J0D01*
G01*
X98939000Y-87564000D01*
G75*
G02*
X99074000Y-87699000I0J-135000D01*
G01*
G37*
G36*
G01*
X100094000Y-87699000D02*
X100094000Y-88069000D01*
G75*
G02*
X99959000Y-88204000I-135000J0D01*
G01*
X99689000Y-88204000D01*
G75*
G02*
X99554000Y-88069000I0J135000D01*
G01*
X99554000Y-87699000D01*
G75*
G02*
X99689000Y-87564000I135000J0D01*
G01*
X99959000Y-87564000D01*
G75*
G02*
X100094000Y-87699000I0J-135000D01*
G01*
G37*
G36*
G01*
X103197000Y-87508000D02*
X103197000Y-87168000D01*
G75*
G02*
X103337000Y-87028000I140000J0D01*
G01*
X103617000Y-87028000D01*
G75*
G02*
X103757000Y-87168000I0J-140000D01*
G01*
X103757000Y-87508000D01*
G75*
G02*
X103617000Y-87648000I-140000J0D01*
G01*
X103337000Y-87648000D01*
G75*
G02*
X103197000Y-87508000I0J140000D01*
G01*
G37*
G36*
G01*
X102237000Y-87508000D02*
X102237000Y-87168000D01*
G75*
G02*
X102377000Y-87028000I140000J0D01*
G01*
X102657000Y-87028000D01*
G75*
G02*
X102797000Y-87168000I0J-140000D01*
G01*
X102797000Y-87508000D01*
G75*
G02*
X102657000Y-87648000I-140000J0D01*
G01*
X102377000Y-87648000D01*
G75*
G02*
X102237000Y-87508000I0J140000D01*
G01*
G37*
G36*
G01*
X103197000Y-84968000D02*
X103197000Y-84628000D01*
G75*
G02*
X103337000Y-84488000I140000J0D01*
G01*
X103617000Y-84488000D01*
G75*
G02*
X103757000Y-84628000I0J-140000D01*
G01*
X103757000Y-84968000D01*
G75*
G02*
X103617000Y-85108000I-140000J0D01*
G01*
X103337000Y-85108000D01*
G75*
G02*
X103197000Y-84968000I0J140000D01*
G01*
G37*
G36*
G01*
X102237000Y-84968000D02*
X102237000Y-84628000D01*
G75*
G02*
X102377000Y-84488000I140000J0D01*
G01*
X102657000Y-84488000D01*
G75*
G02*
X102797000Y-84628000I0J-140000D01*
G01*
X102797000Y-84968000D01*
G75*
G02*
X102657000Y-85108000I-140000J0D01*
G01*
X102377000Y-85108000D01*
G75*
G02*
X102237000Y-84968000I0J140000D01*
G01*
G37*
G36*
G01*
X103197000Y-86238000D02*
X103197000Y-85898000D01*
G75*
G02*
X103337000Y-85758000I140000J0D01*
G01*
X103617000Y-85758000D01*
G75*
G02*
X103757000Y-85898000I0J-140000D01*
G01*
X103757000Y-86238000D01*
G75*
G02*
X103617000Y-86378000I-140000J0D01*
G01*
X103337000Y-86378000D01*
G75*
G02*
X103197000Y-86238000I0J140000D01*
G01*
G37*
G36*
G01*
X102237000Y-86238000D02*
X102237000Y-85898000D01*
G75*
G02*
X102377000Y-85758000I140000J0D01*
G01*
X102657000Y-85758000D01*
G75*
G02*
X102797000Y-85898000I0J-140000D01*
G01*
X102797000Y-86238000D01*
G75*
G02*
X102657000Y-86378000I-140000J0D01*
G01*
X102377000Y-86378000D01*
G75*
G02*
X102237000Y-86238000I0J140000D01*
G01*
G37*
G36*
G01*
X87504000Y-86029000D02*
X87504000Y-85829000D01*
G75*
G02*
X87604000Y-85729000I100000J0D01*
G01*
X88879000Y-85729000D01*
G75*
G02*
X88979000Y-85829000I0J-100000D01*
G01*
X88979000Y-86029000D01*
G75*
G02*
X88879000Y-86129000I-100000J0D01*
G01*
X87604000Y-86129000D01*
G75*
G02*
X87504000Y-86029000I0J100000D01*
G01*
G37*
G36*
G01*
X87504000Y-86679000D02*
X87504000Y-86479000D01*
G75*
G02*
X87604000Y-86379000I100000J0D01*
G01*
X88879000Y-86379000D01*
G75*
G02*
X88979000Y-86479000I0J-100000D01*
G01*
X88979000Y-86679000D01*
G75*
G02*
X88879000Y-86779000I-100000J0D01*
G01*
X87604000Y-86779000D01*
G75*
G02*
X87504000Y-86679000I0J100000D01*
G01*
G37*
G36*
G01*
X87504000Y-87329000D02*
X87504000Y-87129000D01*
G75*
G02*
X87604000Y-87029000I100000J0D01*
G01*
X88879000Y-87029000D01*
G75*
G02*
X88979000Y-87129000I0J-100000D01*
G01*
X88979000Y-87329000D01*
G75*
G02*
X88879000Y-87429000I-100000J0D01*
G01*
X87604000Y-87429000D01*
G75*
G02*
X87504000Y-87329000I0J100000D01*
G01*
G37*
G36*
G01*
X87504000Y-87979000D02*
X87504000Y-87779000D01*
G75*
G02*
X87604000Y-87679000I100000J0D01*
G01*
X88879000Y-87679000D01*
G75*
G02*
X88979000Y-87779000I0J-100000D01*
G01*
X88979000Y-87979000D01*
G75*
G02*
X88879000Y-88079000I-100000J0D01*
G01*
X87604000Y-88079000D01*
G75*
G02*
X87504000Y-87979000I0J100000D01*
G01*
G37*
G36*
G01*
X87504000Y-88629000D02*
X87504000Y-88429000D01*
G75*
G02*
X87604000Y-88329000I100000J0D01*
G01*
X88879000Y-88329000D01*
G75*
G02*
X88979000Y-88429000I0J-100000D01*
G01*
X88979000Y-88629000D01*
G75*
G02*
X88879000Y-88729000I-100000J0D01*
G01*
X87604000Y-88729000D01*
G75*
G02*
X87504000Y-88629000I0J100000D01*
G01*
G37*
G36*
G01*
X87504000Y-89279000D02*
X87504000Y-89079000D01*
G75*
G02*
X87604000Y-88979000I100000J0D01*
G01*
X88879000Y-88979000D01*
G75*
G02*
X88979000Y-89079000I0J-100000D01*
G01*
X88979000Y-89279000D01*
G75*
G02*
X88879000Y-89379000I-100000J0D01*
G01*
X87604000Y-89379000D01*
G75*
G02*
X87504000Y-89279000I0J100000D01*
G01*
G37*
G36*
G01*
X87504000Y-89929000D02*
X87504000Y-89729000D01*
G75*
G02*
X87604000Y-89629000I100000J0D01*
G01*
X88879000Y-89629000D01*
G75*
G02*
X88979000Y-89729000I0J-100000D01*
G01*
X88979000Y-89929000D01*
G75*
G02*
X88879000Y-90029000I-100000J0D01*
G01*
X87604000Y-90029000D01*
G75*
G02*
X87504000Y-89929000I0J100000D01*
G01*
G37*
G36*
G01*
X87504000Y-90579000D02*
X87504000Y-90379000D01*
G75*
G02*
X87604000Y-90279000I100000J0D01*
G01*
X88879000Y-90279000D01*
G75*
G02*
X88979000Y-90379000I0J-100000D01*
G01*
X88979000Y-90579000D01*
G75*
G02*
X88879000Y-90679000I-100000J0D01*
G01*
X87604000Y-90679000D01*
G75*
G02*
X87504000Y-90579000I0J100000D01*
G01*
G37*
G36*
G01*
X87504000Y-91229000D02*
X87504000Y-91029000D01*
G75*
G02*
X87604000Y-90929000I100000J0D01*
G01*
X88879000Y-90929000D01*
G75*
G02*
X88979000Y-91029000I0J-100000D01*
G01*
X88979000Y-91229000D01*
G75*
G02*
X88879000Y-91329000I-100000J0D01*
G01*
X87604000Y-91329000D01*
G75*
G02*
X87504000Y-91229000I0J100000D01*
G01*
G37*
G36*
G01*
X87504000Y-91879000D02*
X87504000Y-91679000D01*
G75*
G02*
X87604000Y-91579000I100000J0D01*
G01*
X88879000Y-91579000D01*
G75*
G02*
X88979000Y-91679000I0J-100000D01*
G01*
X88979000Y-91879000D01*
G75*
G02*
X88879000Y-91979000I-100000J0D01*
G01*
X87604000Y-91979000D01*
G75*
G02*
X87504000Y-91879000I0J100000D01*
G01*
G37*
G36*
G01*
X81779000Y-91879000D02*
X81779000Y-91679000D01*
G75*
G02*
X81879000Y-91579000I100000J0D01*
G01*
X83154000Y-91579000D01*
G75*
G02*
X83254000Y-91679000I0J-100000D01*
G01*
X83254000Y-91879000D01*
G75*
G02*
X83154000Y-91979000I-100000J0D01*
G01*
X81879000Y-91979000D01*
G75*
G02*
X81779000Y-91879000I0J100000D01*
G01*
G37*
G36*
G01*
X81779000Y-91229000D02*
X81779000Y-91029000D01*
G75*
G02*
X81879000Y-90929000I100000J0D01*
G01*
X83154000Y-90929000D01*
G75*
G02*
X83254000Y-91029000I0J-100000D01*
G01*
X83254000Y-91229000D01*
G75*
G02*
X83154000Y-91329000I-100000J0D01*
G01*
X81879000Y-91329000D01*
G75*
G02*
X81779000Y-91229000I0J100000D01*
G01*
G37*
G36*
G01*
X81779000Y-90579000D02*
X81779000Y-90379000D01*
G75*
G02*
X81879000Y-90279000I100000J0D01*
G01*
X83154000Y-90279000D01*
G75*
G02*
X83254000Y-90379000I0J-100000D01*
G01*
X83254000Y-90579000D01*
G75*
G02*
X83154000Y-90679000I-100000J0D01*
G01*
X81879000Y-90679000D01*
G75*
G02*
X81779000Y-90579000I0J100000D01*
G01*
G37*
G36*
G01*
X81779000Y-89929000D02*
X81779000Y-89729000D01*
G75*
G02*
X81879000Y-89629000I100000J0D01*
G01*
X83154000Y-89629000D01*
G75*
G02*
X83254000Y-89729000I0J-100000D01*
G01*
X83254000Y-89929000D01*
G75*
G02*
X83154000Y-90029000I-100000J0D01*
G01*
X81879000Y-90029000D01*
G75*
G02*
X81779000Y-89929000I0J100000D01*
G01*
G37*
G36*
G01*
X81779000Y-89279000D02*
X81779000Y-89079000D01*
G75*
G02*
X81879000Y-88979000I100000J0D01*
G01*
X83154000Y-88979000D01*
G75*
G02*
X83254000Y-89079000I0J-100000D01*
G01*
X83254000Y-89279000D01*
G75*
G02*
X83154000Y-89379000I-100000J0D01*
G01*
X81879000Y-89379000D01*
G75*
G02*
X81779000Y-89279000I0J100000D01*
G01*
G37*
G36*
G01*
X81779000Y-88629000D02*
X81779000Y-88429000D01*
G75*
G02*
X81879000Y-88329000I100000J0D01*
G01*
X83154000Y-88329000D01*
G75*
G02*
X83254000Y-88429000I0J-100000D01*
G01*
X83254000Y-88629000D01*
G75*
G02*
X83154000Y-88729000I-100000J0D01*
G01*
X81879000Y-88729000D01*
G75*
G02*
X81779000Y-88629000I0J100000D01*
G01*
G37*
G36*
G01*
X81779000Y-87979000D02*
X81779000Y-87779000D01*
G75*
G02*
X81879000Y-87679000I100000J0D01*
G01*
X83154000Y-87679000D01*
G75*
G02*
X83254000Y-87779000I0J-100000D01*
G01*
X83254000Y-87979000D01*
G75*
G02*
X83154000Y-88079000I-100000J0D01*
G01*
X81879000Y-88079000D01*
G75*
G02*
X81779000Y-87979000I0J100000D01*
G01*
G37*
G36*
G01*
X81779000Y-87329000D02*
X81779000Y-87129000D01*
G75*
G02*
X81879000Y-87029000I100000J0D01*
G01*
X83154000Y-87029000D01*
G75*
G02*
X83254000Y-87129000I0J-100000D01*
G01*
X83254000Y-87329000D01*
G75*
G02*
X83154000Y-87429000I-100000J0D01*
G01*
X81879000Y-87429000D01*
G75*
G02*
X81779000Y-87329000I0J100000D01*
G01*
G37*
G36*
G01*
X81779000Y-86679000D02*
X81779000Y-86479000D01*
G75*
G02*
X81879000Y-86379000I100000J0D01*
G01*
X83154000Y-86379000D01*
G75*
G02*
X83254000Y-86479000I0J-100000D01*
G01*
X83254000Y-86679000D01*
G75*
G02*
X83154000Y-86779000I-100000J0D01*
G01*
X81879000Y-86779000D01*
G75*
G02*
X81779000Y-86679000I0J100000D01*
G01*
G37*
G36*
G01*
X81779000Y-86029000D02*
X81779000Y-85829000D01*
G75*
G02*
X81879000Y-85729000I100000J0D01*
G01*
X83154000Y-85729000D01*
G75*
G02*
X83254000Y-85829000I0J-100000D01*
G01*
X83254000Y-86029000D01*
G75*
G02*
X83154000Y-86129000I-100000J0D01*
G01*
X81879000Y-86129000D01*
G75*
G02*
X81779000Y-86029000I0J100000D01*
G01*
G37*
G36*
G01*
X95588000Y-92392000D02*
X95928000Y-92392000D01*
G75*
G02*
X96068000Y-92532000I0J-140000D01*
G01*
X96068000Y-92812000D01*
G75*
G02*
X95928000Y-92952000I-140000J0D01*
G01*
X95588000Y-92952000D01*
G75*
G02*
X95448000Y-92812000I0J140000D01*
G01*
X95448000Y-92532000D01*
G75*
G02*
X95588000Y-92392000I140000J0D01*
G01*
G37*
G36*
G01*
X95588000Y-91432000D02*
X95928000Y-91432000D01*
G75*
G02*
X96068000Y-91572000I0J-140000D01*
G01*
X96068000Y-91852000D01*
G75*
G02*
X95928000Y-91992000I-140000J0D01*
G01*
X95588000Y-91992000D01*
G75*
G02*
X95448000Y-91852000I0J140000D01*
G01*
X95448000Y-91572000D01*
G75*
G02*
X95588000Y-91432000I140000J0D01*
G01*
G37*
G36*
G01*
X90438000Y-91725000D02*
X90438000Y-92095000D01*
G75*
G02*
X90303000Y-92230000I-135000J0D01*
G01*
X90033000Y-92230000D01*
G75*
G02*
X89898000Y-92095000I0J135000D01*
G01*
X89898000Y-91725000D01*
G75*
G02*
X90033000Y-91590000I135000J0D01*
G01*
X90303000Y-91590000D01*
G75*
G02*
X90438000Y-91725000I0J-135000D01*
G01*
G37*
G36*
G01*
X91458000Y-91725000D02*
X91458000Y-92095000D01*
G75*
G02*
X91323000Y-92230000I-135000J0D01*
G01*
X91053000Y-92230000D01*
G75*
G02*
X90918000Y-92095000I0J135000D01*
G01*
X90918000Y-91725000D01*
G75*
G02*
X91053000Y-91590000I135000J0D01*
G01*
X91323000Y-91590000D01*
G75*
G02*
X91458000Y-91725000I0J-135000D01*
G01*
G37*
G36*
G01*
X90438000Y-90709000D02*
X90438000Y-91079000D01*
G75*
G02*
X90303000Y-91214000I-135000J0D01*
G01*
X90033000Y-91214000D01*
G75*
G02*
X89898000Y-91079000I0J135000D01*
G01*
X89898000Y-90709000D01*
G75*
G02*
X90033000Y-90574000I135000J0D01*
G01*
X90303000Y-90574000D01*
G75*
G02*
X90438000Y-90709000I0J-135000D01*
G01*
G37*
G36*
G01*
X91458000Y-90709000D02*
X91458000Y-91079000D01*
G75*
G02*
X91323000Y-91214000I-135000J0D01*
G01*
X91053000Y-91214000D01*
G75*
G02*
X90918000Y-91079000I0J135000D01*
G01*
X90918000Y-90709000D01*
G75*
G02*
X91053000Y-90574000I135000J0D01*
G01*
X91323000Y-90574000D01*
G75*
G02*
X91458000Y-90709000I0J-135000D01*
G01*
G37*
G36*
G01*
X80195000Y-94464000D02*
X79825000Y-94464000D01*
G75*
G02*
X79690000Y-94329000I0J135000D01*
G01*
X79690000Y-94059000D01*
G75*
G02*
X79825000Y-93924000I135000J0D01*
G01*
X80195000Y-93924000D01*
G75*
G02*
X80330000Y-94059000I0J-135000D01*
G01*
X80330000Y-94329000D01*
G75*
G02*
X80195000Y-94464000I-135000J0D01*
G01*
G37*
G36*
G01*
X80195000Y-95484000D02*
X79825000Y-95484000D01*
G75*
G02*
X79690000Y-95349000I0J135000D01*
G01*
X79690000Y-95079000D01*
G75*
G02*
X79825000Y-94944000I135000J0D01*
G01*
X80195000Y-94944000D01*
G75*
G02*
X80330000Y-95079000I0J-135000D01*
G01*
X80330000Y-95349000D01*
G75*
G02*
X80195000Y-95484000I-135000J0D01*
G01*
G37*
G36*
G01*
X92199750Y-95816000D02*
X92712250Y-95816000D01*
G75*
G02*
X92931000Y-96034750I0J-218750D01*
G01*
X92931000Y-96472250D01*
G75*
G02*
X92712250Y-96691000I-218750J0D01*
G01*
X92199750Y-96691000D01*
G75*
G02*
X91981000Y-96472250I0J218750D01*
G01*
X91981000Y-96034750D01*
G75*
G02*
X92199750Y-95816000I218750J0D01*
G01*
G37*
G36*
G01*
X92199750Y-94241000D02*
X92712250Y-94241000D01*
G75*
G02*
X92931000Y-94459750I0J-218750D01*
G01*
X92931000Y-94897250D01*
G75*
G02*
X92712250Y-95116000I-218750J0D01*
G01*
X92199750Y-95116000D01*
G75*
G02*
X91981000Y-94897250I0J218750D01*
G01*
X91981000Y-94459750D01*
G75*
G02*
X92199750Y-94241000I218750J0D01*
G01*
G37*
G36*
G01*
X85087750Y-95816000D02*
X85600250Y-95816000D01*
G75*
G02*
X85819000Y-96034750I0J-218750D01*
G01*
X85819000Y-96472250D01*
G75*
G02*
X85600250Y-96691000I-218750J0D01*
G01*
X85087750Y-96691000D01*
G75*
G02*
X84869000Y-96472250I0J218750D01*
G01*
X84869000Y-96034750D01*
G75*
G02*
X85087750Y-95816000I218750J0D01*
G01*
G37*
G36*
G01*
X85087750Y-94241000D02*
X85600250Y-94241000D01*
G75*
G02*
X85819000Y-94459750I0J-218750D01*
G01*
X85819000Y-94897250D01*
G75*
G02*
X85600250Y-95116000I-218750J0D01*
G01*
X85087750Y-95116000D01*
G75*
G02*
X84869000Y-94897250I0J218750D01*
G01*
X84869000Y-94459750D01*
G75*
G02*
X85087750Y-94241000I218750J0D01*
G01*
G37*
G36*
G01*
X87307000Y-96496000D02*
X86937000Y-96496000D01*
G75*
G02*
X86802000Y-96361000I0J135000D01*
G01*
X86802000Y-96091000D01*
G75*
G02*
X86937000Y-95956000I135000J0D01*
G01*
X87307000Y-95956000D01*
G75*
G02*
X87442000Y-96091000I0J-135000D01*
G01*
X87442000Y-96361000D01*
G75*
G02*
X87307000Y-96496000I-135000J0D01*
G01*
G37*
G36*
G01*
X87307000Y-97516000D02*
X86937000Y-97516000D01*
G75*
G02*
X86802000Y-97381000I0J135000D01*
G01*
X86802000Y-97111000D01*
G75*
G02*
X86937000Y-96976000I135000J0D01*
G01*
X87307000Y-96976000D01*
G75*
G02*
X87442000Y-97111000I0J-135000D01*
G01*
X87442000Y-97381000D01*
G75*
G02*
X87307000Y-97516000I-135000J0D01*
G01*
G37*
G36*
G01*
X87307000Y-94464000D02*
X86937000Y-94464000D01*
G75*
G02*
X86802000Y-94329000I0J135000D01*
G01*
X86802000Y-94059000D01*
G75*
G02*
X86937000Y-93924000I135000J0D01*
G01*
X87307000Y-93924000D01*
G75*
G02*
X87442000Y-94059000I0J-135000D01*
G01*
X87442000Y-94329000D01*
G75*
G02*
X87307000Y-94464000I-135000J0D01*
G01*
G37*
G36*
G01*
X87307000Y-95484000D02*
X86937000Y-95484000D01*
G75*
G02*
X86802000Y-95349000I0J135000D01*
G01*
X86802000Y-95079000D01*
G75*
G02*
X86937000Y-94944000I135000J0D01*
G01*
X87307000Y-94944000D01*
G75*
G02*
X87442000Y-95079000I0J-135000D01*
G01*
X87442000Y-95349000D01*
G75*
G02*
X87307000Y-95484000I-135000J0D01*
G01*
G37*
G36*
G01*
X80195000Y-96496000D02*
X79825000Y-96496000D01*
G75*
G02*
X79690000Y-96361000I0J135000D01*
G01*
X79690000Y-96091000D01*
G75*
G02*
X79825000Y-95956000I135000J0D01*
G01*
X80195000Y-95956000D01*
G75*
G02*
X80330000Y-96091000I0J-135000D01*
G01*
X80330000Y-96361000D01*
G75*
G02*
X80195000Y-96496000I-135000J0D01*
G01*
G37*
G36*
G01*
X80195000Y-97516000D02*
X79825000Y-97516000D01*
G75*
G02*
X79690000Y-97381000I0J135000D01*
G01*
X79690000Y-97111000D01*
G75*
G02*
X79825000Y-96976000I135000J0D01*
G01*
X80195000Y-96976000D01*
G75*
G02*
X80330000Y-97111000I0J-135000D01*
G01*
X80330000Y-97381000D01*
G75*
G02*
X80195000Y-97516000I-135000J0D01*
G01*
G37*
D20*
X90662000Y-95466000D03*
X88662000Y-96416000D03*
X88662000Y-94516000D03*
X83550000Y-95466000D03*
X81550000Y-96416000D03*
X81550000Y-94516000D03*
G36*
G01*
X104789000Y-84613000D02*
X104789000Y-84983000D01*
G75*
G02*
X104654000Y-85118000I-135000J0D01*
G01*
X104384000Y-85118000D01*
G75*
G02*
X104249000Y-84983000I0J135000D01*
G01*
X104249000Y-84613000D01*
G75*
G02*
X104384000Y-84478000I135000J0D01*
G01*
X104654000Y-84478000D01*
G75*
G02*
X104789000Y-84613000I0J-135000D01*
G01*
G37*
G36*
G01*
X105809000Y-84613000D02*
X105809000Y-84983000D01*
G75*
G02*
X105674000Y-85118000I-135000J0D01*
G01*
X105404000Y-85118000D01*
G75*
G02*
X105269000Y-84983000I0J135000D01*
G01*
X105269000Y-84613000D01*
G75*
G02*
X105404000Y-84478000I135000J0D01*
G01*
X105674000Y-84478000D01*
G75*
G02*
X105809000Y-84613000I0J-135000D01*
G01*
G37*
G36*
G01*
X102339000Y-110936000D02*
X102639000Y-110936000D01*
G75*
G02*
X102789000Y-111086000I0J-150000D01*
G01*
X102789000Y-112736000D01*
G75*
G02*
X102639000Y-112886000I-150000J0D01*
G01*
X102339000Y-112886000D01*
G75*
G02*
X102189000Y-112736000I0J150000D01*
G01*
X102189000Y-111086000D01*
G75*
G02*
X102339000Y-110936000I150000J0D01*
G01*
G37*
G36*
G01*
X101069000Y-110936000D02*
X101369000Y-110936000D01*
G75*
G02*
X101519000Y-111086000I0J-150000D01*
G01*
X101519000Y-112736000D01*
G75*
G02*
X101369000Y-112886000I-150000J0D01*
G01*
X101069000Y-112886000D01*
G75*
G02*
X100919000Y-112736000I0J150000D01*
G01*
X100919000Y-111086000D01*
G75*
G02*
X101069000Y-110936000I150000J0D01*
G01*
G37*
G36*
G01*
X99799000Y-110936000D02*
X100099000Y-110936000D01*
G75*
G02*
X100249000Y-111086000I0J-150000D01*
G01*
X100249000Y-112736000D01*
G75*
G02*
X100099000Y-112886000I-150000J0D01*
G01*
X99799000Y-112886000D01*
G75*
G02*
X99649000Y-112736000I0J150000D01*
G01*
X99649000Y-111086000D01*
G75*
G02*
X99799000Y-110936000I150000J0D01*
G01*
G37*
G36*
G01*
X98529000Y-110936000D02*
X98829000Y-110936000D01*
G75*
G02*
X98979000Y-111086000I0J-150000D01*
G01*
X98979000Y-112736000D01*
G75*
G02*
X98829000Y-112886000I-150000J0D01*
G01*
X98529000Y-112886000D01*
G75*
G02*
X98379000Y-112736000I0J150000D01*
G01*
X98379000Y-111086000D01*
G75*
G02*
X98529000Y-110936000I150000J0D01*
G01*
G37*
G36*
G01*
X98529000Y-105986000D02*
X98829000Y-105986000D01*
G75*
G02*
X98979000Y-106136000I0J-150000D01*
G01*
X98979000Y-107786000D01*
G75*
G02*
X98829000Y-107936000I-150000J0D01*
G01*
X98529000Y-107936000D01*
G75*
G02*
X98379000Y-107786000I0J150000D01*
G01*
X98379000Y-106136000D01*
G75*
G02*
X98529000Y-105986000I150000J0D01*
G01*
G37*
G36*
G01*
X99799000Y-105986000D02*
X100099000Y-105986000D01*
G75*
G02*
X100249000Y-106136000I0J-150000D01*
G01*
X100249000Y-107786000D01*
G75*
G02*
X100099000Y-107936000I-150000J0D01*
G01*
X99799000Y-107936000D01*
G75*
G02*
X99649000Y-107786000I0J150000D01*
G01*
X99649000Y-106136000D01*
G75*
G02*
X99799000Y-105986000I150000J0D01*
G01*
G37*
G36*
G01*
X101069000Y-105986000D02*
X101369000Y-105986000D01*
G75*
G02*
X101519000Y-106136000I0J-150000D01*
G01*
X101519000Y-107786000D01*
G75*
G02*
X101369000Y-107936000I-150000J0D01*
G01*
X101069000Y-107936000D01*
G75*
G02*
X100919000Y-107786000I0J150000D01*
G01*
X100919000Y-106136000D01*
G75*
G02*
X101069000Y-105986000I150000J0D01*
G01*
G37*
G36*
G01*
X102339000Y-105986000D02*
X102639000Y-105986000D01*
G75*
G02*
X102789000Y-106136000I0J-150000D01*
G01*
X102789000Y-107786000D01*
G75*
G02*
X102639000Y-107936000I-150000J0D01*
G01*
X102339000Y-107936000D01*
G75*
G02*
X102189000Y-107786000I0J150000D01*
G01*
X102189000Y-106136000D01*
G75*
G02*
X102339000Y-105986000I150000J0D01*
G01*
G37*
G36*
G01*
X107927000Y-110936000D02*
X108227000Y-110936000D01*
G75*
G02*
X108377000Y-111086000I0J-150000D01*
G01*
X108377000Y-112736000D01*
G75*
G02*
X108227000Y-112886000I-150000J0D01*
G01*
X107927000Y-112886000D01*
G75*
G02*
X107777000Y-112736000I0J150000D01*
G01*
X107777000Y-111086000D01*
G75*
G02*
X107927000Y-110936000I150000J0D01*
G01*
G37*
G36*
G01*
X106657000Y-110936000D02*
X106957000Y-110936000D01*
G75*
G02*
X107107000Y-111086000I0J-150000D01*
G01*
X107107000Y-112736000D01*
G75*
G02*
X106957000Y-112886000I-150000J0D01*
G01*
X106657000Y-112886000D01*
G75*
G02*
X106507000Y-112736000I0J150000D01*
G01*
X106507000Y-111086000D01*
G75*
G02*
X106657000Y-110936000I150000J0D01*
G01*
G37*
G36*
G01*
X105387000Y-110936000D02*
X105687000Y-110936000D01*
G75*
G02*
X105837000Y-111086000I0J-150000D01*
G01*
X105837000Y-112736000D01*
G75*
G02*
X105687000Y-112886000I-150000J0D01*
G01*
X105387000Y-112886000D01*
G75*
G02*
X105237000Y-112736000I0J150000D01*
G01*
X105237000Y-111086000D01*
G75*
G02*
X105387000Y-110936000I150000J0D01*
G01*
G37*
G36*
G01*
X104117000Y-110936000D02*
X104417000Y-110936000D01*
G75*
G02*
X104567000Y-111086000I0J-150000D01*
G01*
X104567000Y-112736000D01*
G75*
G02*
X104417000Y-112886000I-150000J0D01*
G01*
X104117000Y-112886000D01*
G75*
G02*
X103967000Y-112736000I0J150000D01*
G01*
X103967000Y-111086000D01*
G75*
G02*
X104117000Y-110936000I150000J0D01*
G01*
G37*
G36*
G01*
X104117000Y-105986000D02*
X104417000Y-105986000D01*
G75*
G02*
X104567000Y-106136000I0J-150000D01*
G01*
X104567000Y-107786000D01*
G75*
G02*
X104417000Y-107936000I-150000J0D01*
G01*
X104117000Y-107936000D01*
G75*
G02*
X103967000Y-107786000I0J150000D01*
G01*
X103967000Y-106136000D01*
G75*
G02*
X104117000Y-105986000I150000J0D01*
G01*
G37*
G36*
G01*
X105387000Y-105986000D02*
X105687000Y-105986000D01*
G75*
G02*
X105837000Y-106136000I0J-150000D01*
G01*
X105837000Y-107786000D01*
G75*
G02*
X105687000Y-107936000I-150000J0D01*
G01*
X105387000Y-107936000D01*
G75*
G02*
X105237000Y-107786000I0J150000D01*
G01*
X105237000Y-106136000D01*
G75*
G02*
X105387000Y-105986000I150000J0D01*
G01*
G37*
G36*
G01*
X106657000Y-105986000D02*
X106957000Y-105986000D01*
G75*
G02*
X107107000Y-106136000I0J-150000D01*
G01*
X107107000Y-107786000D01*
G75*
G02*
X106957000Y-107936000I-150000J0D01*
G01*
X106657000Y-107936000D01*
G75*
G02*
X106507000Y-107786000I0J150000D01*
G01*
X106507000Y-106136000D01*
G75*
G02*
X106657000Y-105986000I150000J0D01*
G01*
G37*
G36*
G01*
X107927000Y-105986000D02*
X108227000Y-105986000D01*
G75*
G02*
X108377000Y-106136000I0J-150000D01*
G01*
X108377000Y-107786000D01*
G75*
G02*
X108227000Y-107936000I-150000J0D01*
G01*
X107927000Y-107936000D01*
G75*
G02*
X107777000Y-107786000I0J150000D01*
G01*
X107777000Y-106136000D01*
G75*
G02*
X107927000Y-105986000I150000J0D01*
G01*
G37*
G36*
G01*
X114150000Y-110936000D02*
X114450000Y-110936000D01*
G75*
G02*
X114600000Y-111086000I0J-150000D01*
G01*
X114600000Y-112736000D01*
G75*
G02*
X114450000Y-112886000I-150000J0D01*
G01*
X114150000Y-112886000D01*
G75*
G02*
X114000000Y-112736000I0J150000D01*
G01*
X114000000Y-111086000D01*
G75*
G02*
X114150000Y-110936000I150000J0D01*
G01*
G37*
G36*
G01*
X112880000Y-110936000D02*
X113180000Y-110936000D01*
G75*
G02*
X113330000Y-111086000I0J-150000D01*
G01*
X113330000Y-112736000D01*
G75*
G02*
X113180000Y-112886000I-150000J0D01*
G01*
X112880000Y-112886000D01*
G75*
G02*
X112730000Y-112736000I0J150000D01*
G01*
X112730000Y-111086000D01*
G75*
G02*
X112880000Y-110936000I150000J0D01*
G01*
G37*
G36*
G01*
X111610000Y-110936000D02*
X111910000Y-110936000D01*
G75*
G02*
X112060000Y-111086000I0J-150000D01*
G01*
X112060000Y-112736000D01*
G75*
G02*
X111910000Y-112886000I-150000J0D01*
G01*
X111610000Y-112886000D01*
G75*
G02*
X111460000Y-112736000I0J150000D01*
G01*
X111460000Y-111086000D01*
G75*
G02*
X111610000Y-110936000I150000J0D01*
G01*
G37*
G36*
G01*
X110340000Y-110936000D02*
X110640000Y-110936000D01*
G75*
G02*
X110790000Y-111086000I0J-150000D01*
G01*
X110790000Y-112736000D01*
G75*
G02*
X110640000Y-112886000I-150000J0D01*
G01*
X110340000Y-112886000D01*
G75*
G02*
X110190000Y-112736000I0J150000D01*
G01*
X110190000Y-111086000D01*
G75*
G02*
X110340000Y-110936000I150000J0D01*
G01*
G37*
G36*
G01*
X110340000Y-105986000D02*
X110640000Y-105986000D01*
G75*
G02*
X110790000Y-106136000I0J-150000D01*
G01*
X110790000Y-107786000D01*
G75*
G02*
X110640000Y-107936000I-150000J0D01*
G01*
X110340000Y-107936000D01*
G75*
G02*
X110190000Y-107786000I0J150000D01*
G01*
X110190000Y-106136000D01*
G75*
G02*
X110340000Y-105986000I150000J0D01*
G01*
G37*
G36*
G01*
X111610000Y-105986000D02*
X111910000Y-105986000D01*
G75*
G02*
X112060000Y-106136000I0J-150000D01*
G01*
X112060000Y-107786000D01*
G75*
G02*
X111910000Y-107936000I-150000J0D01*
G01*
X111610000Y-107936000D01*
G75*
G02*
X111460000Y-107786000I0J150000D01*
G01*
X111460000Y-106136000D01*
G75*
G02*
X111610000Y-105986000I150000J0D01*
G01*
G37*
G36*
G01*
X112880000Y-105986000D02*
X113180000Y-105986000D01*
G75*
G02*
X113330000Y-106136000I0J-150000D01*
G01*
X113330000Y-107786000D01*
G75*
G02*
X113180000Y-107936000I-150000J0D01*
G01*
X112880000Y-107936000D01*
G75*
G02*
X112730000Y-107786000I0J150000D01*
G01*
X112730000Y-106136000D01*
G75*
G02*
X112880000Y-105986000I150000J0D01*
G01*
G37*
G36*
G01*
X114150000Y-105986000D02*
X114450000Y-105986000D01*
G75*
G02*
X114600000Y-106136000I0J-150000D01*
G01*
X114600000Y-107786000D01*
G75*
G02*
X114450000Y-107936000I-150000J0D01*
G01*
X114150000Y-107936000D01*
G75*
G02*
X114000000Y-107786000I0J150000D01*
G01*
X114000000Y-106136000D01*
G75*
G02*
X114150000Y-105986000I150000J0D01*
G01*
G37*
G36*
G01*
X119865000Y-110936000D02*
X120165000Y-110936000D01*
G75*
G02*
X120315000Y-111086000I0J-150000D01*
G01*
X120315000Y-112736000D01*
G75*
G02*
X120165000Y-112886000I-150000J0D01*
G01*
X119865000Y-112886000D01*
G75*
G02*
X119715000Y-112736000I0J150000D01*
G01*
X119715000Y-111086000D01*
G75*
G02*
X119865000Y-110936000I150000J0D01*
G01*
G37*
G36*
G01*
X118595000Y-110936000D02*
X118895000Y-110936000D01*
G75*
G02*
X119045000Y-111086000I0J-150000D01*
G01*
X119045000Y-112736000D01*
G75*
G02*
X118895000Y-112886000I-150000J0D01*
G01*
X118595000Y-112886000D01*
G75*
G02*
X118445000Y-112736000I0J150000D01*
G01*
X118445000Y-111086000D01*
G75*
G02*
X118595000Y-110936000I150000J0D01*
G01*
G37*
G36*
G01*
X117325000Y-110936000D02*
X117625000Y-110936000D01*
G75*
G02*
X117775000Y-111086000I0J-150000D01*
G01*
X117775000Y-112736000D01*
G75*
G02*
X117625000Y-112886000I-150000J0D01*
G01*
X117325000Y-112886000D01*
G75*
G02*
X117175000Y-112736000I0J150000D01*
G01*
X117175000Y-111086000D01*
G75*
G02*
X117325000Y-110936000I150000J0D01*
G01*
G37*
G36*
G01*
X116055000Y-110936000D02*
X116355000Y-110936000D01*
G75*
G02*
X116505000Y-111086000I0J-150000D01*
G01*
X116505000Y-112736000D01*
G75*
G02*
X116355000Y-112886000I-150000J0D01*
G01*
X116055000Y-112886000D01*
G75*
G02*
X115905000Y-112736000I0J150000D01*
G01*
X115905000Y-111086000D01*
G75*
G02*
X116055000Y-110936000I150000J0D01*
G01*
G37*
G36*
G01*
X116055000Y-105986000D02*
X116355000Y-105986000D01*
G75*
G02*
X116505000Y-106136000I0J-150000D01*
G01*
X116505000Y-107786000D01*
G75*
G02*
X116355000Y-107936000I-150000J0D01*
G01*
X116055000Y-107936000D01*
G75*
G02*
X115905000Y-107786000I0J150000D01*
G01*
X115905000Y-106136000D01*
G75*
G02*
X116055000Y-105986000I150000J0D01*
G01*
G37*
G36*
G01*
X117325000Y-105986000D02*
X117625000Y-105986000D01*
G75*
G02*
X117775000Y-106136000I0J-150000D01*
G01*
X117775000Y-107786000D01*
G75*
G02*
X117625000Y-107936000I-150000J0D01*
G01*
X117325000Y-107936000D01*
G75*
G02*
X117175000Y-107786000I0J150000D01*
G01*
X117175000Y-106136000D01*
G75*
G02*
X117325000Y-105986000I150000J0D01*
G01*
G37*
G36*
G01*
X118595000Y-105986000D02*
X118895000Y-105986000D01*
G75*
G02*
X119045000Y-106136000I0J-150000D01*
G01*
X119045000Y-107786000D01*
G75*
G02*
X118895000Y-107936000I-150000J0D01*
G01*
X118595000Y-107936000D01*
G75*
G02*
X118445000Y-107786000I0J150000D01*
G01*
X118445000Y-106136000D01*
G75*
G02*
X118595000Y-105986000I150000J0D01*
G01*
G37*
G36*
G01*
X119865000Y-105986000D02*
X120165000Y-105986000D01*
G75*
G02*
X120315000Y-106136000I0J-150000D01*
G01*
X120315000Y-107786000D01*
G75*
G02*
X120165000Y-107936000I-150000J0D01*
G01*
X119865000Y-107936000D01*
G75*
G02*
X119715000Y-107786000I0J150000D01*
G01*
X119715000Y-106136000D01*
G75*
G02*
X119865000Y-105986000I150000J0D01*
G01*
G37*
G36*
G01*
X104789000Y-85883000D02*
X104789000Y-86253000D01*
G75*
G02*
X104654000Y-86388000I-135000J0D01*
G01*
X104384000Y-86388000D01*
G75*
G02*
X104249000Y-86253000I0J135000D01*
G01*
X104249000Y-85883000D01*
G75*
G02*
X104384000Y-85748000I135000J0D01*
G01*
X104654000Y-85748000D01*
G75*
G02*
X104789000Y-85883000I0J-135000D01*
G01*
G37*
G36*
G01*
X105809000Y-85883000D02*
X105809000Y-86253000D01*
G75*
G02*
X105674000Y-86388000I-135000J0D01*
G01*
X105404000Y-86388000D01*
G75*
G02*
X105269000Y-86253000I0J135000D01*
G01*
X105269000Y-85883000D01*
G75*
G02*
X105404000Y-85748000I135000J0D01*
G01*
X105674000Y-85748000D01*
G75*
G02*
X105809000Y-85883000I0J-135000D01*
G01*
G37*
G36*
G01*
X105269000Y-87523000D02*
X105269000Y-87153000D01*
G75*
G02*
X105404000Y-87018000I135000J0D01*
G01*
X105674000Y-87018000D01*
G75*
G02*
X105809000Y-87153000I0J-135000D01*
G01*
X105809000Y-87523000D01*
G75*
G02*
X105674000Y-87658000I-135000J0D01*
G01*
X105404000Y-87658000D01*
G75*
G02*
X105269000Y-87523000I0J135000D01*
G01*
G37*
G36*
G01*
X104249000Y-87523000D02*
X104249000Y-87153000D01*
G75*
G02*
X104384000Y-87018000I135000J0D01*
G01*
X104654000Y-87018000D01*
G75*
G02*
X104789000Y-87153000I0J-135000D01*
G01*
X104789000Y-87523000D01*
G75*
G02*
X104654000Y-87658000I-135000J0D01*
G01*
X104384000Y-87658000D01*
G75*
G02*
X104249000Y-87523000I0J135000D01*
G01*
G37*
D21*
G36*
X101995000Y-94262500D02*
G01*
X98870000Y-94262500D01*
X98870000Y-93846000D01*
X97395000Y-93846000D01*
X97395000Y-92946000D01*
X98870000Y-92946000D01*
X98870000Y-92529500D01*
X101995000Y-92529500D01*
X101995000Y-94262500D01*
G37*
D22*
X98045000Y-94896000D03*
X98045000Y-91896000D03*
D19*
X86995000Y-118707000D03*
X92075000Y-118707000D03*
X85090000Y-108420000D03*
X85090000Y-103340000D03*
X106680000Y-118707000D03*
X111760000Y-118707000D03*
G36*
G01*
X110064000Y-94534000D02*
X110064000Y-94874000D01*
G75*
G02*
X109924000Y-95014000I-140000J0D01*
G01*
X109644000Y-95014000D01*
G75*
G02*
X109504000Y-94874000I0J140000D01*
G01*
X109504000Y-94534000D01*
G75*
G02*
X109644000Y-94394000I140000J0D01*
G01*
X109924000Y-94394000D01*
G75*
G02*
X110064000Y-94534000I0J-140000D01*
G01*
G37*
G36*
G01*
X111024000Y-94534000D02*
X111024000Y-94874000D01*
G75*
G02*
X110884000Y-95014000I-140000J0D01*
G01*
X110604000Y-95014000D01*
G75*
G02*
X110464000Y-94874000I0J140000D01*
G01*
X110464000Y-94534000D01*
G75*
G02*
X110604000Y-94394000I140000J0D01*
G01*
X110884000Y-94394000D01*
G75*
G02*
X111024000Y-94534000I0J-140000D01*
G01*
G37*
G36*
G01*
X120478000Y-94534000D02*
X120478000Y-94874000D01*
G75*
G02*
X120338000Y-95014000I-140000J0D01*
G01*
X120058000Y-95014000D01*
G75*
G02*
X119918000Y-94874000I0J140000D01*
G01*
X119918000Y-94534000D01*
G75*
G02*
X120058000Y-94394000I140000J0D01*
G01*
X120338000Y-94394000D01*
G75*
G02*
X120478000Y-94534000I0J-140000D01*
G01*
G37*
G36*
G01*
X121438000Y-94534000D02*
X121438000Y-94874000D01*
G75*
G02*
X121298000Y-95014000I-140000J0D01*
G01*
X121018000Y-95014000D01*
G75*
G02*
X120878000Y-94874000I0J140000D01*
G01*
X120878000Y-94534000D01*
G75*
G02*
X121018000Y-94394000I140000J0D01*
G01*
X121298000Y-94394000D01*
G75*
G02*
X121438000Y-94534000I0J-140000D01*
G01*
G37*
G36*
G01*
X118636000Y-95281000D02*
X118636000Y-95651000D01*
G75*
G02*
X118501000Y-95786000I-135000J0D01*
G01*
X118231000Y-95786000D01*
G75*
G02*
X118096000Y-95651000I0J135000D01*
G01*
X118096000Y-95281000D01*
G75*
G02*
X118231000Y-95146000I135000J0D01*
G01*
X118501000Y-95146000D01*
G75*
G02*
X118636000Y-95281000I0J-135000D01*
G01*
G37*
G36*
G01*
X117616000Y-95281000D02*
X117616000Y-95651000D01*
G75*
G02*
X117481000Y-95786000I-135000J0D01*
G01*
X117211000Y-95786000D01*
G75*
G02*
X117076000Y-95651000I0J135000D01*
G01*
X117076000Y-95281000D01*
G75*
G02*
X117211000Y-95146000I135000J0D01*
G01*
X117481000Y-95146000D01*
G75*
G02*
X117616000Y-95281000I0J-135000D01*
G01*
G37*
G36*
G01*
X118096000Y-97404000D02*
X118096000Y-97084000D01*
G75*
G02*
X118256000Y-96924000I160000J0D01*
G01*
X118651000Y-96924000D01*
G75*
G02*
X118811000Y-97084000I0J-160000D01*
G01*
X118811000Y-97404000D01*
G75*
G02*
X118651000Y-97564000I-160000J0D01*
G01*
X118256000Y-97564000D01*
G75*
G02*
X118096000Y-97404000I0J160000D01*
G01*
G37*
G36*
G01*
X116901000Y-97404000D02*
X116901000Y-97084000D01*
G75*
G02*
X117061000Y-96924000I160000J0D01*
G01*
X117456000Y-96924000D01*
G75*
G02*
X117616000Y-97084000I0J-160000D01*
G01*
X117616000Y-97404000D01*
G75*
G02*
X117456000Y-97564000I-160000J0D01*
G01*
X117061000Y-97564000D01*
G75*
G02*
X116901000Y-97404000I0J160000D01*
G01*
G37*
D20*
X113681000Y-96294000D03*
X113681000Y-98194000D03*
X115681000Y-97244000D03*
X120031000Y-96294000D03*
X120031000Y-98194000D03*
X122031000Y-97244000D03*
G36*
G01*
X117656000Y-98359000D02*
X117656000Y-98669000D01*
G75*
G02*
X117501000Y-98824000I-155000J0D01*
G01*
X117076000Y-98824000D01*
G75*
G02*
X116921000Y-98669000I0J155000D01*
G01*
X116921000Y-98359000D01*
G75*
G02*
X117076000Y-98204000I155000J0D01*
G01*
X117501000Y-98204000D01*
G75*
G02*
X117656000Y-98359000I0J-155000D01*
G01*
G37*
G36*
G01*
X118791000Y-98359000D02*
X118791000Y-98669000D01*
G75*
G02*
X118636000Y-98824000I-155000J0D01*
G01*
X118211000Y-98824000D01*
G75*
G02*
X118056000Y-98669000I0J155000D01*
G01*
X118056000Y-98359000D01*
G75*
G02*
X118211000Y-98204000I155000J0D01*
G01*
X118636000Y-98204000D01*
G75*
G02*
X118791000Y-98359000I0J-155000D01*
G01*
G37*
X109617000Y-96294000D03*
X109617000Y-98194000D03*
X111617000Y-97244000D03*
G36*
G01*
X108222000Y-95281000D02*
X108222000Y-95651000D01*
G75*
G02*
X108087000Y-95786000I-135000J0D01*
G01*
X107817000Y-95786000D01*
G75*
G02*
X107682000Y-95651000I0J135000D01*
G01*
X107682000Y-95281000D01*
G75*
G02*
X107817000Y-95146000I135000J0D01*
G01*
X108087000Y-95146000D01*
G75*
G02*
X108222000Y-95281000I0J-135000D01*
G01*
G37*
G36*
G01*
X107202000Y-95281000D02*
X107202000Y-95651000D01*
G75*
G02*
X107067000Y-95786000I-135000J0D01*
G01*
X106797000Y-95786000D01*
G75*
G02*
X106662000Y-95651000I0J135000D01*
G01*
X106662000Y-95281000D01*
G75*
G02*
X106797000Y-95146000I135000J0D01*
G01*
X107067000Y-95146000D01*
G75*
G02*
X107202000Y-95281000I0J-135000D01*
G01*
G37*
G36*
G01*
X107682000Y-97404000D02*
X107682000Y-97084000D01*
G75*
G02*
X107842000Y-96924000I160000J0D01*
G01*
X108237000Y-96924000D01*
G75*
G02*
X108397000Y-97084000I0J-160000D01*
G01*
X108397000Y-97404000D01*
G75*
G02*
X108237000Y-97564000I-160000J0D01*
G01*
X107842000Y-97564000D01*
G75*
G02*
X107682000Y-97404000I0J160000D01*
G01*
G37*
G36*
G01*
X106487000Y-97404000D02*
X106487000Y-97084000D01*
G75*
G02*
X106647000Y-96924000I160000J0D01*
G01*
X107042000Y-96924000D01*
G75*
G02*
X107202000Y-97084000I0J-160000D01*
G01*
X107202000Y-97404000D01*
G75*
G02*
X107042000Y-97564000I-160000J0D01*
G01*
X106647000Y-97564000D01*
G75*
G02*
X106487000Y-97404000I0J160000D01*
G01*
G37*
X103267000Y-96294000D03*
X103267000Y-98194000D03*
X105267000Y-97244000D03*
G36*
G01*
X107242000Y-98359000D02*
X107242000Y-98669000D01*
G75*
G02*
X107087000Y-98824000I-155000J0D01*
G01*
X106662000Y-98824000D01*
G75*
G02*
X106507000Y-98669000I0J155000D01*
G01*
X106507000Y-98359000D01*
G75*
G02*
X106662000Y-98204000I155000J0D01*
G01*
X107087000Y-98204000D01*
G75*
G02*
X107242000Y-98359000I0J-155000D01*
G01*
G37*
G36*
G01*
X108377000Y-98359000D02*
X108377000Y-98669000D01*
G75*
G02*
X108222000Y-98824000I-155000J0D01*
G01*
X107797000Y-98824000D01*
G75*
G02*
X107642000Y-98669000I0J155000D01*
G01*
X107642000Y-98359000D01*
G75*
G02*
X107797000Y-98204000I155000J0D01*
G01*
X108222000Y-98204000D01*
G75*
G02*
X108377000Y-98359000I0J-155000D01*
G01*
G37*
G36*
G01*
X96008000Y-94379000D02*
X95508000Y-94379000D01*
G75*
G02*
X95283000Y-94154000I0J225000D01*
G01*
X95283000Y-93704000D01*
G75*
G02*
X95508000Y-93479000I225000J0D01*
G01*
X96008000Y-93479000D01*
G75*
G02*
X96233000Y-93704000I0J-225000D01*
G01*
X96233000Y-94154000D01*
G75*
G02*
X96008000Y-94379000I-225000J0D01*
G01*
G37*
G36*
G01*
X96008000Y-95929000D02*
X95508000Y-95929000D01*
G75*
G02*
X95283000Y-95704000I0J225000D01*
G01*
X95283000Y-95254000D01*
G75*
G02*
X95508000Y-95029000I225000J0D01*
G01*
X96008000Y-95029000D01*
G75*
G02*
X96233000Y-95254000I0J-225000D01*
G01*
X96233000Y-95704000D01*
G75*
G02*
X96008000Y-95929000I-225000J0D01*
G01*
G37*
G36*
G01*
X80518000Y-91550000D02*
X80518000Y-91210000D01*
G75*
G02*
X80658000Y-91070000I140000J0D01*
G01*
X80938000Y-91070000D01*
G75*
G02*
X81078000Y-91210000I0J-140000D01*
G01*
X81078000Y-91550000D01*
G75*
G02*
X80938000Y-91690000I-140000J0D01*
G01*
X80658000Y-91690000D01*
G75*
G02*
X80518000Y-91550000I0J140000D01*
G01*
G37*
G36*
G01*
X79558000Y-91550000D02*
X79558000Y-91210000D01*
G75*
G02*
X79698000Y-91070000I140000J0D01*
G01*
X79978000Y-91070000D01*
G75*
G02*
X80118000Y-91210000I0J-140000D01*
G01*
X80118000Y-91550000D01*
G75*
G02*
X79978000Y-91690000I-140000J0D01*
G01*
X79698000Y-91690000D01*
G75*
G02*
X79558000Y-91550000I0J140000D01*
G01*
G37*
G36*
G01*
X80118000Y-87710000D02*
X80118000Y-88050000D01*
G75*
G02*
X79978000Y-88190000I-140000J0D01*
G01*
X79698000Y-88190000D01*
G75*
G02*
X79558000Y-88050000I0J140000D01*
G01*
X79558000Y-87710000D01*
G75*
G02*
X79698000Y-87570000I140000J0D01*
G01*
X79978000Y-87570000D01*
G75*
G02*
X80118000Y-87710000I0J-140000D01*
G01*
G37*
G36*
G01*
X81078000Y-87710000D02*
X81078000Y-88050000D01*
G75*
G02*
X80938000Y-88190000I-140000J0D01*
G01*
X80658000Y-88190000D01*
G75*
G02*
X80518000Y-88050000I0J140000D01*
G01*
X80518000Y-87710000D01*
G75*
G02*
X80658000Y-87570000I140000J0D01*
G01*
X80938000Y-87570000D01*
G75*
G02*
X81078000Y-87710000I0J-140000D01*
G01*
G37*
G36*
G01*
X80118000Y-90160000D02*
X80118000Y-90500000D01*
G75*
G02*
X79978000Y-90640000I-140000J0D01*
G01*
X79698000Y-90640000D01*
G75*
G02*
X79558000Y-90500000I0J140000D01*
G01*
X79558000Y-90160000D01*
G75*
G02*
X79698000Y-90020000I140000J0D01*
G01*
X79978000Y-90020000D01*
G75*
G02*
X80118000Y-90160000I0J-140000D01*
G01*
G37*
G36*
G01*
X81078000Y-90160000D02*
X81078000Y-90500000D01*
G75*
G02*
X80938000Y-90640000I-140000J0D01*
G01*
X80658000Y-90640000D01*
G75*
G02*
X80518000Y-90500000I0J140000D01*
G01*
X80518000Y-90160000D01*
G75*
G02*
X80658000Y-90020000I140000J0D01*
G01*
X80938000Y-90020000D01*
G75*
G02*
X81078000Y-90160000I0J-140000D01*
G01*
G37*
D19*
X123025000Y-123025000D03*
X79375000Y-123025000D03*
D23*
X81788000Y-120650000D03*
X123444000Y-82804000D03*
M02*
