%FSLAX45Y45*%
G04 Gerber Fmt 4.5, Leading zero omitted, Abs format (unit mm)*
G04 Created by KiCad (PCBNEW 5.1.10) date 2022-01-01 14:55:12*
%MOMM*%
%LPD*%
G01*
G04 APERTURE LIST*
%TA.AperFunction,Profile*%
%ADD10C,0.050000*%
%TD*%
%ADD11C,0.200000*%
%ADD12C,0.300000*%
G04 APERTURE END LIST*
D10*
X7870000Y-12620000D02*
G75*
G02*
X7620000Y-12370000I0J250000D01*
G01*
X7620000Y-7870000D02*
G75*
G02*
X7870000Y-7620000I250000J0D01*
G01*
X12370000Y-7620000D02*
G75*
G02*
X12620000Y-7870000I0J-250000D01*
G01*
X12620000Y-12370000D02*
G75*
G02*
X12370000Y-12620000I-250000J0D01*
G01*
X7620000Y-7870000D02*
X7620000Y-12370000D01*
X12370000Y-7620000D02*
X7870000Y-7620000D01*
X12620000Y-12370000D02*
X12620000Y-7870000D01*
X7870000Y-12620000D02*
X12370000Y-12620000D01*
D11*
X8006900Y-11736900D02*
X8122100Y-11852100D01*
X8122100Y-11736900D02*
X8006900Y-11852100D01*
X12286800Y-8307900D02*
X12402000Y-8423100D01*
X12402000Y-8307900D02*
X12286800Y-8423100D01*
X9450000Y-11127000D02*
G75*
G03*
X9450000Y-11127000I-100000J0D01*
G01*
X12450000Y-11127000D02*
G75*
G03*
X12450000Y-11127000I-100000J0D01*
G01*
X7937500Y-12192500D02*
X7937500Y-12412500D01*
X7827500Y-12302500D02*
X8047500Y-12302500D01*
X12302500Y-7827500D02*
X12302500Y-8047500D01*
X12192500Y-7937500D02*
X12412500Y-7937500D01*
X12302500Y-12192500D02*
X12302500Y-12412500D01*
X12192500Y-12302500D02*
X12412500Y-12302500D01*
D12*
X7903928Y-13088214D02*
X7903928Y-12788214D01*
X7975357Y-12788214D01*
X8018214Y-12802500D01*
X8046786Y-12831071D01*
X8061071Y-12859643D01*
X8075357Y-12916786D01*
X8075357Y-12959643D01*
X8061071Y-13016786D01*
X8046786Y-13045357D01*
X8018214Y-13073929D01*
X7975357Y-13088214D01*
X7903928Y-13088214D01*
X8203928Y-13088214D02*
X8203928Y-12888214D01*
X8203928Y-12945357D02*
X8218214Y-12916786D01*
X8232500Y-12902500D01*
X8261071Y-12888214D01*
X8289643Y-12888214D01*
X8389643Y-13088214D02*
X8389643Y-12888214D01*
X8389643Y-12788214D02*
X8375357Y-12802500D01*
X8389643Y-12816786D01*
X8403928Y-12802500D01*
X8389643Y-12788214D01*
X8389643Y-12816786D01*
X8575357Y-13088214D02*
X8546786Y-13073929D01*
X8532500Y-13045357D01*
X8532500Y-12788214D01*
X8732500Y-13088214D02*
X8703928Y-13073929D01*
X8689643Y-13045357D01*
X8689643Y-12788214D01*
X9075357Y-13088214D02*
X9075357Y-12788214D01*
X9175357Y-13002500D01*
X9275357Y-12788214D01*
X9275357Y-13088214D01*
X9546786Y-13088214D02*
X9546786Y-12931071D01*
X9532500Y-12902500D01*
X9503928Y-12888214D01*
X9446786Y-12888214D01*
X9418214Y-12902500D01*
X9546786Y-13073929D02*
X9518214Y-13088214D01*
X9446786Y-13088214D01*
X9418214Y-13073929D01*
X9403928Y-13045357D01*
X9403928Y-13016786D01*
X9418214Y-12988214D01*
X9446786Y-12973929D01*
X9518214Y-12973929D01*
X9546786Y-12959643D01*
X9689643Y-12888214D02*
X9689643Y-13188214D01*
X9689643Y-12902500D02*
X9718214Y-12888214D01*
X9775357Y-12888214D01*
X9803928Y-12902500D01*
X9818214Y-12916786D01*
X9832500Y-12945357D01*
X9832500Y-13031071D01*
X9818214Y-13059643D01*
X9803928Y-13073929D01*
X9775357Y-13088214D01*
X9718214Y-13088214D01*
X9689643Y-13073929D01*
X9961071Y-13059643D02*
X9975357Y-13073929D01*
X9961071Y-13088214D01*
X9946786Y-13073929D01*
X9961071Y-13059643D01*
X9961071Y-13088214D01*
X9961071Y-12902500D02*
X9975357Y-12916786D01*
X9961071Y-12931071D01*
X9946786Y-12916786D01*
X9961071Y-12902500D01*
X9961071Y-12931071D01*
X7502300Y-13524900D02*
X7617500Y-13640100D01*
X7617500Y-13524900D02*
X7502300Y-13640100D01*
X8061071Y-13718214D02*
X7889643Y-13718214D01*
X7975357Y-13718214D02*
X7975357Y-13418214D01*
X7946786Y-13461071D01*
X7918214Y-13489643D01*
X7889643Y-13503929D01*
X8189643Y-13689643D02*
X8203928Y-13703929D01*
X8189643Y-13718214D01*
X8175357Y-13703929D01*
X8189643Y-13689643D01*
X8189643Y-13718214D01*
X8489643Y-13718214D02*
X8318214Y-13718214D01*
X8403928Y-13718214D02*
X8403928Y-13418214D01*
X8375357Y-13461071D01*
X8346786Y-13489643D01*
X8318214Y-13503929D01*
X8761071Y-13418214D02*
X8618214Y-13418214D01*
X8603928Y-13561071D01*
X8618214Y-13546786D01*
X8646786Y-13532500D01*
X8718214Y-13532500D01*
X8746786Y-13546786D01*
X8761071Y-13561071D01*
X8775357Y-13589643D01*
X8775357Y-13661071D01*
X8761071Y-13689643D01*
X8746786Y-13703929D01*
X8718214Y-13718214D01*
X8646786Y-13718214D01*
X8618214Y-13703929D01*
X8603928Y-13689643D01*
X8889643Y-13446786D02*
X8903928Y-13432500D01*
X8932500Y-13418214D01*
X9003928Y-13418214D01*
X9032500Y-13432500D01*
X9046786Y-13446786D01*
X9061071Y-13475357D01*
X9061071Y-13503929D01*
X9046786Y-13546786D01*
X8875357Y-13718214D01*
X9061071Y-13718214D01*
X9189643Y-13718214D02*
X9189643Y-13518214D01*
X9189643Y-13546786D02*
X9203928Y-13532500D01*
X9232500Y-13518214D01*
X9275357Y-13518214D01*
X9303928Y-13532500D01*
X9318214Y-13561071D01*
X9318214Y-13718214D01*
X9318214Y-13561071D02*
X9332500Y-13532500D01*
X9361071Y-13518214D01*
X9403928Y-13518214D01*
X9432500Y-13532500D01*
X9446786Y-13561071D01*
X9446786Y-13718214D01*
X9589643Y-13718214D02*
X9589643Y-13518214D01*
X9589643Y-13546786D02*
X9603928Y-13532500D01*
X9632500Y-13518214D01*
X9675357Y-13518214D01*
X9703928Y-13532500D01*
X9718214Y-13561071D01*
X9718214Y-13718214D01*
X9718214Y-13561071D02*
X9732500Y-13532500D01*
X9761071Y-13518214D01*
X9803928Y-13518214D01*
X9832500Y-13532500D01*
X9846786Y-13561071D01*
X9846786Y-13718214D01*
X10432500Y-13403929D02*
X10175357Y-13789643D01*
X10818214Y-13418214D02*
X10846786Y-13418214D01*
X10875357Y-13432500D01*
X10889643Y-13446786D01*
X10903928Y-13475357D01*
X10918214Y-13532500D01*
X10918214Y-13603929D01*
X10903928Y-13661071D01*
X10889643Y-13689643D01*
X10875357Y-13703929D01*
X10846786Y-13718214D01*
X10818214Y-13718214D01*
X10789643Y-13703929D01*
X10775357Y-13689643D01*
X10761071Y-13661071D01*
X10746786Y-13603929D01*
X10746786Y-13532500D01*
X10761071Y-13475357D01*
X10775357Y-13446786D01*
X10789643Y-13432500D01*
X10818214Y-13418214D01*
X11046786Y-13689643D02*
X11061071Y-13703929D01*
X11046786Y-13718214D01*
X11032500Y-13703929D01*
X11046786Y-13689643D01*
X11046786Y-13718214D01*
X11246786Y-13418214D02*
X11275357Y-13418214D01*
X11303928Y-13432500D01*
X11318214Y-13446786D01*
X11332500Y-13475357D01*
X11346786Y-13532500D01*
X11346786Y-13603929D01*
X11332500Y-13661071D01*
X11318214Y-13689643D01*
X11303928Y-13703929D01*
X11275357Y-13718214D01*
X11246786Y-13718214D01*
X11218214Y-13703929D01*
X11203928Y-13689643D01*
X11189643Y-13661071D01*
X11175357Y-13603929D01*
X11175357Y-13532500D01*
X11189643Y-13475357D01*
X11203928Y-13446786D01*
X11218214Y-13432500D01*
X11246786Y-13418214D01*
X11603928Y-13518214D02*
X11603928Y-13718214D01*
X11532500Y-13403929D02*
X11461071Y-13618214D01*
X11646786Y-13618214D01*
X11903928Y-13418214D02*
X11761071Y-13418214D01*
X11746786Y-13561071D01*
X11761071Y-13546786D01*
X11789643Y-13532500D01*
X11861071Y-13532500D01*
X11889643Y-13546786D01*
X11903928Y-13561071D01*
X11918214Y-13589643D01*
X11918214Y-13661071D01*
X11903928Y-13689643D01*
X11889643Y-13703929D01*
X11861071Y-13718214D01*
X11789643Y-13718214D01*
X11761071Y-13703929D01*
X11746786Y-13689643D01*
X12175357Y-13518214D02*
X12175357Y-13718214D01*
X12103928Y-13403929D02*
X12032500Y-13618214D01*
X12218214Y-13618214D01*
X12318214Y-13418214D02*
X12318214Y-13475357D01*
X12432500Y-13418214D02*
X12432500Y-13475357D01*
X12875357Y-13832500D02*
X12861071Y-13818214D01*
X12832500Y-13775357D01*
X12818214Y-13746786D01*
X12803928Y-13703929D01*
X12789643Y-13632500D01*
X12789643Y-13575357D01*
X12803928Y-13503929D01*
X12818214Y-13461071D01*
X12832500Y-13432500D01*
X12861071Y-13389643D01*
X12875357Y-13375357D01*
X12975357Y-13446786D02*
X12989643Y-13432500D01*
X13018214Y-13418214D01*
X13089643Y-13418214D01*
X13118214Y-13432500D01*
X13132500Y-13446786D01*
X13146786Y-13475357D01*
X13146786Y-13503929D01*
X13132500Y-13546786D01*
X12961071Y-13718214D01*
X13146786Y-13718214D01*
X13503928Y-13718214D02*
X13503928Y-13418214D01*
X13632500Y-13718214D02*
X13632500Y-13561071D01*
X13618214Y-13532500D01*
X13589643Y-13518214D01*
X13546786Y-13518214D01*
X13518214Y-13532500D01*
X13503928Y-13546786D01*
X13818214Y-13718214D02*
X13789643Y-13703929D01*
X13775357Y-13689643D01*
X13761071Y-13661071D01*
X13761071Y-13575357D01*
X13775357Y-13546786D01*
X13789643Y-13532500D01*
X13818214Y-13518214D01*
X13861071Y-13518214D01*
X13889643Y-13532500D01*
X13903928Y-13546786D01*
X13918214Y-13575357D01*
X13918214Y-13661071D01*
X13903928Y-13689643D01*
X13889643Y-13703929D01*
X13861071Y-13718214D01*
X13818214Y-13718214D01*
X14089643Y-13718214D02*
X14061071Y-13703929D01*
X14046786Y-13675357D01*
X14046786Y-13418214D01*
X14318214Y-13703929D02*
X14289643Y-13718214D01*
X14232500Y-13718214D01*
X14203928Y-13703929D01*
X14189643Y-13675357D01*
X14189643Y-13561071D01*
X14203928Y-13532500D01*
X14232500Y-13518214D01*
X14289643Y-13518214D01*
X14318214Y-13532500D01*
X14332500Y-13561071D01*
X14332500Y-13589643D01*
X14189643Y-13618214D01*
X14446786Y-13703929D02*
X14475357Y-13718214D01*
X14532500Y-13718214D01*
X14561071Y-13703929D01*
X14575357Y-13675357D01*
X14575357Y-13661071D01*
X14561071Y-13632500D01*
X14532500Y-13618214D01*
X14489643Y-13618214D01*
X14461071Y-13603929D01*
X14446786Y-13575357D01*
X14446786Y-13561071D01*
X14461071Y-13532500D01*
X14489643Y-13518214D01*
X14532500Y-13518214D01*
X14561071Y-13532500D01*
X14675357Y-13832500D02*
X14689643Y-13818214D01*
X14718214Y-13775357D01*
X14732500Y-13746786D01*
X14746786Y-13703929D01*
X14761071Y-13632500D01*
X14761071Y-13575357D01*
X14746786Y-13503929D01*
X14732500Y-13461071D01*
X14718214Y-13432500D01*
X14689643Y-13389643D01*
X14675357Y-13375357D01*
X15218214Y-13832500D02*
X15203928Y-13818214D01*
X15175357Y-13775357D01*
X15161071Y-13746786D01*
X15146786Y-13703929D01*
X15132500Y-13632500D01*
X15132500Y-13575357D01*
X15146786Y-13503929D01*
X15161071Y-13461071D01*
X15175357Y-13432500D01*
X15203928Y-13389643D01*
X15218214Y-13375357D01*
X15332500Y-13518214D02*
X15332500Y-13718214D01*
X15332500Y-13546786D02*
X15346786Y-13532500D01*
X15375357Y-13518214D01*
X15418214Y-13518214D01*
X15446786Y-13532500D01*
X15461071Y-13561071D01*
X15461071Y-13718214D01*
X15646786Y-13718214D02*
X15618214Y-13703929D01*
X15603928Y-13689643D01*
X15589643Y-13661071D01*
X15589643Y-13575357D01*
X15603928Y-13546786D01*
X15618214Y-13532500D01*
X15646786Y-13518214D01*
X15689643Y-13518214D01*
X15718214Y-13532500D01*
X15732500Y-13546786D01*
X15746786Y-13575357D01*
X15746786Y-13661071D01*
X15732500Y-13689643D01*
X15718214Y-13703929D01*
X15689643Y-13718214D01*
X15646786Y-13718214D01*
X15832500Y-13518214D02*
X15946786Y-13518214D01*
X15875357Y-13418214D02*
X15875357Y-13675357D01*
X15889643Y-13703929D01*
X15918214Y-13718214D01*
X15946786Y-13718214D01*
X16275357Y-13518214D02*
X16275357Y-13818214D01*
X16275357Y-13532500D02*
X16303928Y-13518214D01*
X16361071Y-13518214D01*
X16389643Y-13532500D01*
X16403928Y-13546786D01*
X16418214Y-13575357D01*
X16418214Y-13661071D01*
X16403928Y-13689643D01*
X16389643Y-13703929D01*
X16361071Y-13718214D01*
X16303928Y-13718214D01*
X16275357Y-13703929D01*
X16589643Y-13718214D02*
X16561071Y-13703929D01*
X16546786Y-13675357D01*
X16546786Y-13418214D01*
X16832500Y-13718214D02*
X16832500Y-13561071D01*
X16818214Y-13532500D01*
X16789643Y-13518214D01*
X16732500Y-13518214D01*
X16703928Y-13532500D01*
X16832500Y-13703929D02*
X16803928Y-13718214D01*
X16732500Y-13718214D01*
X16703928Y-13703929D01*
X16689643Y-13675357D01*
X16689643Y-13646786D01*
X16703928Y-13618214D01*
X16732500Y-13603929D01*
X16803928Y-13603929D01*
X16832500Y-13589643D01*
X16932500Y-13518214D02*
X17046786Y-13518214D01*
X16975357Y-13418214D02*
X16975357Y-13675357D01*
X16989643Y-13703929D01*
X17018214Y-13718214D01*
X17046786Y-13718214D01*
X17261071Y-13703929D02*
X17232500Y-13718214D01*
X17175357Y-13718214D01*
X17146786Y-13703929D01*
X17132500Y-13675357D01*
X17132500Y-13561071D01*
X17146786Y-13532500D01*
X17175357Y-13518214D01*
X17232500Y-13518214D01*
X17261071Y-13532500D01*
X17275357Y-13561071D01*
X17275357Y-13589643D01*
X17132500Y-13618214D01*
X17532500Y-13718214D02*
X17532500Y-13418214D01*
X17532500Y-13703929D02*
X17503928Y-13718214D01*
X17446786Y-13718214D01*
X17418214Y-13703929D01*
X17403928Y-13689643D01*
X17389643Y-13661071D01*
X17389643Y-13575357D01*
X17403928Y-13546786D01*
X17418214Y-13532500D01*
X17446786Y-13518214D01*
X17503928Y-13518214D01*
X17532500Y-13532500D01*
X17646786Y-13832500D02*
X17661071Y-13818214D01*
X17689643Y-13775357D01*
X17703928Y-13746786D01*
X17718214Y-13703929D01*
X17732500Y-13632500D01*
X17732500Y-13575357D01*
X17718214Y-13503929D01*
X17703928Y-13461071D01*
X17689643Y-13432500D01*
X17661071Y-13389643D01*
X17646786Y-13375357D01*
X7617500Y-13978500D02*
G75*
G03*
X7617500Y-13978500I-100000J0D01*
G01*
X7889643Y-13842786D02*
X7903928Y-13828500D01*
X7932500Y-13814214D01*
X8003928Y-13814214D01*
X8032500Y-13828500D01*
X8046786Y-13842786D01*
X8061071Y-13871357D01*
X8061071Y-13899929D01*
X8046786Y-13942786D01*
X7875357Y-14114214D01*
X8061071Y-14114214D01*
X8189643Y-14085643D02*
X8203928Y-14099929D01*
X8189643Y-14114214D01*
X8175357Y-14099929D01*
X8189643Y-14085643D01*
X8189643Y-14114214D01*
X8389643Y-13814214D02*
X8418214Y-13814214D01*
X8446786Y-13828500D01*
X8461071Y-13842786D01*
X8475357Y-13871357D01*
X8489643Y-13928500D01*
X8489643Y-13999929D01*
X8475357Y-14057071D01*
X8461071Y-14085643D01*
X8446786Y-14099929D01*
X8418214Y-14114214D01*
X8389643Y-14114214D01*
X8361071Y-14099929D01*
X8346786Y-14085643D01*
X8332500Y-14057071D01*
X8318214Y-13999929D01*
X8318214Y-13928500D01*
X8332500Y-13871357D01*
X8346786Y-13842786D01*
X8361071Y-13828500D01*
X8389643Y-13814214D01*
X8675357Y-13814214D02*
X8703928Y-13814214D01*
X8732500Y-13828500D01*
X8746786Y-13842786D01*
X8761071Y-13871357D01*
X8775357Y-13928500D01*
X8775357Y-13999929D01*
X8761071Y-14057071D01*
X8746786Y-14085643D01*
X8732500Y-14099929D01*
X8703928Y-14114214D01*
X8675357Y-14114214D01*
X8646786Y-14099929D01*
X8632500Y-14085643D01*
X8618214Y-14057071D01*
X8603928Y-13999929D01*
X8603928Y-13928500D01*
X8618214Y-13871357D01*
X8632500Y-13842786D01*
X8646786Y-13828500D01*
X8675357Y-13814214D01*
X8961071Y-13814214D02*
X8989643Y-13814214D01*
X9018214Y-13828500D01*
X9032500Y-13842786D01*
X9046786Y-13871357D01*
X9061071Y-13928500D01*
X9061071Y-13999929D01*
X9046786Y-14057071D01*
X9032500Y-14085643D01*
X9018214Y-14099929D01*
X8989643Y-14114214D01*
X8961071Y-14114214D01*
X8932500Y-14099929D01*
X8918214Y-14085643D01*
X8903928Y-14057071D01*
X8889643Y-13999929D01*
X8889643Y-13928500D01*
X8903928Y-13871357D01*
X8918214Y-13842786D01*
X8932500Y-13828500D01*
X8961071Y-13814214D01*
X9189643Y-14114214D02*
X9189643Y-13914214D01*
X9189643Y-13942786D02*
X9203928Y-13928500D01*
X9232500Y-13914214D01*
X9275357Y-13914214D01*
X9303928Y-13928500D01*
X9318214Y-13957071D01*
X9318214Y-14114214D01*
X9318214Y-13957071D02*
X9332500Y-13928500D01*
X9361071Y-13914214D01*
X9403928Y-13914214D01*
X9432500Y-13928500D01*
X9446786Y-13957071D01*
X9446786Y-14114214D01*
X9589643Y-14114214D02*
X9589643Y-13914214D01*
X9589643Y-13942786D02*
X9603928Y-13928500D01*
X9632500Y-13914214D01*
X9675357Y-13914214D01*
X9703928Y-13928500D01*
X9718214Y-13957071D01*
X9718214Y-14114214D01*
X9718214Y-13957071D02*
X9732500Y-13928500D01*
X9761071Y-13914214D01*
X9803928Y-13914214D01*
X9832500Y-13928500D01*
X9846786Y-13957071D01*
X9846786Y-14114214D01*
X10432500Y-13799929D02*
X10175357Y-14185643D01*
X10818214Y-13814214D02*
X10846786Y-13814214D01*
X10875357Y-13828500D01*
X10889643Y-13842786D01*
X10903928Y-13871357D01*
X10918214Y-13928500D01*
X10918214Y-13999929D01*
X10903928Y-14057071D01*
X10889643Y-14085643D01*
X10875357Y-14099929D01*
X10846786Y-14114214D01*
X10818214Y-14114214D01*
X10789643Y-14099929D01*
X10775357Y-14085643D01*
X10761071Y-14057071D01*
X10746786Y-13999929D01*
X10746786Y-13928500D01*
X10761071Y-13871357D01*
X10775357Y-13842786D01*
X10789643Y-13828500D01*
X10818214Y-13814214D01*
X11046786Y-14085643D02*
X11061071Y-14099929D01*
X11046786Y-14114214D01*
X11032500Y-14099929D01*
X11046786Y-14085643D01*
X11046786Y-14114214D01*
X11246786Y-13814214D02*
X11275357Y-13814214D01*
X11303928Y-13828500D01*
X11318214Y-13842786D01*
X11332500Y-13871357D01*
X11346786Y-13928500D01*
X11346786Y-13999929D01*
X11332500Y-14057071D01*
X11318214Y-14085643D01*
X11303928Y-14099929D01*
X11275357Y-14114214D01*
X11246786Y-14114214D01*
X11218214Y-14099929D01*
X11203928Y-14085643D01*
X11189643Y-14057071D01*
X11175357Y-13999929D01*
X11175357Y-13928500D01*
X11189643Y-13871357D01*
X11203928Y-13842786D01*
X11218214Y-13828500D01*
X11246786Y-13814214D01*
X11446786Y-13814214D02*
X11646786Y-13814214D01*
X11518214Y-14114214D01*
X11803928Y-13942786D02*
X11775357Y-13928500D01*
X11761071Y-13914214D01*
X11746786Y-13885643D01*
X11746786Y-13871357D01*
X11761071Y-13842786D01*
X11775357Y-13828500D01*
X11803928Y-13814214D01*
X11861071Y-13814214D01*
X11889643Y-13828500D01*
X11903928Y-13842786D01*
X11918214Y-13871357D01*
X11918214Y-13885643D01*
X11903928Y-13914214D01*
X11889643Y-13928500D01*
X11861071Y-13942786D01*
X11803928Y-13942786D01*
X11775357Y-13957071D01*
X11761071Y-13971357D01*
X11746786Y-13999929D01*
X11746786Y-14057071D01*
X11761071Y-14085643D01*
X11775357Y-14099929D01*
X11803928Y-14114214D01*
X11861071Y-14114214D01*
X11889643Y-14099929D01*
X11903928Y-14085643D01*
X11918214Y-14057071D01*
X11918214Y-13999929D01*
X11903928Y-13971357D01*
X11889643Y-13957071D01*
X11861071Y-13942786D01*
X12018214Y-13814214D02*
X12218214Y-13814214D01*
X12089643Y-14114214D01*
X12318214Y-13814214D02*
X12318214Y-13871357D01*
X12432500Y-13814214D02*
X12432500Y-13871357D01*
X12875357Y-14228500D02*
X12861071Y-14214214D01*
X12832500Y-14171357D01*
X12818214Y-14142786D01*
X12803928Y-14099929D01*
X12789643Y-14028500D01*
X12789643Y-13971357D01*
X12803928Y-13899929D01*
X12818214Y-13857071D01*
X12832500Y-13828500D01*
X12861071Y-13785643D01*
X12875357Y-13771357D01*
X12975357Y-13842786D02*
X12989643Y-13828500D01*
X13018214Y-13814214D01*
X13089643Y-13814214D01*
X13118214Y-13828500D01*
X13132500Y-13842786D01*
X13146786Y-13871357D01*
X13146786Y-13899929D01*
X13132500Y-13942786D01*
X12961071Y-14114214D01*
X13146786Y-14114214D01*
X13503928Y-14114214D02*
X13503928Y-13814214D01*
X13632500Y-14114214D02*
X13632500Y-13957071D01*
X13618214Y-13928500D01*
X13589643Y-13914214D01*
X13546786Y-13914214D01*
X13518214Y-13928500D01*
X13503928Y-13942786D01*
X13818214Y-14114214D02*
X13789643Y-14099929D01*
X13775357Y-14085643D01*
X13761071Y-14057071D01*
X13761071Y-13971357D01*
X13775357Y-13942786D01*
X13789643Y-13928500D01*
X13818214Y-13914214D01*
X13861071Y-13914214D01*
X13889643Y-13928500D01*
X13903928Y-13942786D01*
X13918214Y-13971357D01*
X13918214Y-14057071D01*
X13903928Y-14085643D01*
X13889643Y-14099929D01*
X13861071Y-14114214D01*
X13818214Y-14114214D01*
X14089643Y-14114214D02*
X14061071Y-14099929D01*
X14046786Y-14071357D01*
X14046786Y-13814214D01*
X14318214Y-14099929D02*
X14289643Y-14114214D01*
X14232500Y-14114214D01*
X14203928Y-14099929D01*
X14189643Y-14071357D01*
X14189643Y-13957071D01*
X14203928Y-13928500D01*
X14232500Y-13914214D01*
X14289643Y-13914214D01*
X14318214Y-13928500D01*
X14332500Y-13957071D01*
X14332500Y-13985643D01*
X14189643Y-14014214D01*
X14446786Y-14099929D02*
X14475357Y-14114214D01*
X14532500Y-14114214D01*
X14561071Y-14099929D01*
X14575357Y-14071357D01*
X14575357Y-14057071D01*
X14561071Y-14028500D01*
X14532500Y-14014214D01*
X14489643Y-14014214D01*
X14461071Y-13999929D01*
X14446786Y-13971357D01*
X14446786Y-13957071D01*
X14461071Y-13928500D01*
X14489643Y-13914214D01*
X14532500Y-13914214D01*
X14561071Y-13928500D01*
X14675357Y-14228500D02*
X14689643Y-14214214D01*
X14718214Y-14171357D01*
X14732500Y-14142786D01*
X14746786Y-14099929D01*
X14761071Y-14028500D01*
X14761071Y-13971357D01*
X14746786Y-13899929D01*
X14732500Y-13857071D01*
X14718214Y-13828500D01*
X14689643Y-13785643D01*
X14675357Y-13771357D01*
X15218214Y-14228500D02*
X15203928Y-14214214D01*
X15175357Y-14171357D01*
X15161071Y-14142786D01*
X15146786Y-14099929D01*
X15132500Y-14028500D01*
X15132500Y-13971357D01*
X15146786Y-13899929D01*
X15161071Y-13857071D01*
X15175357Y-13828500D01*
X15203928Y-13785643D01*
X15218214Y-13771357D01*
X15332500Y-13914214D02*
X15332500Y-14114214D01*
X15332500Y-13942786D02*
X15346786Y-13928500D01*
X15375357Y-13914214D01*
X15418214Y-13914214D01*
X15446786Y-13928500D01*
X15461071Y-13957071D01*
X15461071Y-14114214D01*
X15646786Y-14114214D02*
X15618214Y-14099929D01*
X15603928Y-14085643D01*
X15589643Y-14057071D01*
X15589643Y-13971357D01*
X15603928Y-13942786D01*
X15618214Y-13928500D01*
X15646786Y-13914214D01*
X15689643Y-13914214D01*
X15718214Y-13928500D01*
X15732500Y-13942786D01*
X15746786Y-13971357D01*
X15746786Y-14057071D01*
X15732500Y-14085643D01*
X15718214Y-14099929D01*
X15689643Y-14114214D01*
X15646786Y-14114214D01*
X15832500Y-13914214D02*
X15946786Y-13914214D01*
X15875357Y-13814214D02*
X15875357Y-14071357D01*
X15889643Y-14099929D01*
X15918214Y-14114214D01*
X15946786Y-14114214D01*
X16275357Y-13914214D02*
X16275357Y-14214214D01*
X16275357Y-13928500D02*
X16303928Y-13914214D01*
X16361071Y-13914214D01*
X16389643Y-13928500D01*
X16403928Y-13942786D01*
X16418214Y-13971357D01*
X16418214Y-14057071D01*
X16403928Y-14085643D01*
X16389643Y-14099929D01*
X16361071Y-14114214D01*
X16303928Y-14114214D01*
X16275357Y-14099929D01*
X16589643Y-14114214D02*
X16561071Y-14099929D01*
X16546786Y-14071357D01*
X16546786Y-13814214D01*
X16832500Y-14114214D02*
X16832500Y-13957071D01*
X16818214Y-13928500D01*
X16789643Y-13914214D01*
X16732500Y-13914214D01*
X16703928Y-13928500D01*
X16832500Y-14099929D02*
X16803928Y-14114214D01*
X16732500Y-14114214D01*
X16703928Y-14099929D01*
X16689643Y-14071357D01*
X16689643Y-14042786D01*
X16703928Y-14014214D01*
X16732500Y-13999929D01*
X16803928Y-13999929D01*
X16832500Y-13985643D01*
X16932500Y-13914214D02*
X17046786Y-13914214D01*
X16975357Y-13814214D02*
X16975357Y-14071357D01*
X16989643Y-14099929D01*
X17018214Y-14114214D01*
X17046786Y-14114214D01*
X17261071Y-14099929D02*
X17232500Y-14114214D01*
X17175357Y-14114214D01*
X17146786Y-14099929D01*
X17132500Y-14071357D01*
X17132500Y-13957071D01*
X17146786Y-13928500D01*
X17175357Y-13914214D01*
X17232500Y-13914214D01*
X17261071Y-13928500D01*
X17275357Y-13957071D01*
X17275357Y-13985643D01*
X17132500Y-14014214D01*
X17532500Y-14114214D02*
X17532500Y-13814214D01*
X17532500Y-14099929D02*
X17503928Y-14114214D01*
X17446786Y-14114214D01*
X17418214Y-14099929D01*
X17403928Y-14085643D01*
X17389643Y-14057071D01*
X17389643Y-13971357D01*
X17403928Y-13942786D01*
X17418214Y-13928500D01*
X17446786Y-13914214D01*
X17503928Y-13914214D01*
X17532500Y-13928500D01*
X17646786Y-14228500D02*
X17661071Y-14214214D01*
X17689643Y-14171357D01*
X17703928Y-14142786D01*
X17718214Y-14099929D01*
X17732500Y-14028500D01*
X17732500Y-13971357D01*
X17718214Y-13899929D01*
X17703928Y-13857071D01*
X17689643Y-13828500D01*
X17661071Y-13785643D01*
X17646786Y-13771357D01*
X7507500Y-14264500D02*
X7507500Y-14484500D01*
X7397500Y-14374500D02*
X7617500Y-14374500D01*
X7889643Y-14238786D02*
X7903928Y-14224500D01*
X7932500Y-14210214D01*
X8003928Y-14210214D01*
X8032500Y-14224500D01*
X8046786Y-14238786D01*
X8061071Y-14267357D01*
X8061071Y-14295929D01*
X8046786Y-14338786D01*
X7875357Y-14510214D01*
X8061071Y-14510214D01*
X8189643Y-14481643D02*
X8203928Y-14495929D01*
X8189643Y-14510214D01*
X8175357Y-14495929D01*
X8189643Y-14481643D01*
X8189643Y-14510214D01*
X8318214Y-14238786D02*
X8332500Y-14224500D01*
X8361071Y-14210214D01*
X8432500Y-14210214D01*
X8461071Y-14224500D01*
X8475357Y-14238786D01*
X8489643Y-14267357D01*
X8489643Y-14295929D01*
X8475357Y-14338786D01*
X8303928Y-14510214D01*
X8489643Y-14510214D01*
X8675357Y-14210214D02*
X8703928Y-14210214D01*
X8732500Y-14224500D01*
X8746786Y-14238786D01*
X8761071Y-14267357D01*
X8775357Y-14324500D01*
X8775357Y-14395929D01*
X8761071Y-14453071D01*
X8746786Y-14481643D01*
X8732500Y-14495929D01*
X8703928Y-14510214D01*
X8675357Y-14510214D01*
X8646786Y-14495929D01*
X8632500Y-14481643D01*
X8618214Y-14453071D01*
X8603928Y-14395929D01*
X8603928Y-14324500D01*
X8618214Y-14267357D01*
X8632500Y-14238786D01*
X8646786Y-14224500D01*
X8675357Y-14210214D01*
X8961071Y-14210214D02*
X8989643Y-14210214D01*
X9018214Y-14224500D01*
X9032500Y-14238786D01*
X9046786Y-14267357D01*
X9061071Y-14324500D01*
X9061071Y-14395929D01*
X9046786Y-14453071D01*
X9032500Y-14481643D01*
X9018214Y-14495929D01*
X8989643Y-14510214D01*
X8961071Y-14510214D01*
X8932500Y-14495929D01*
X8918214Y-14481643D01*
X8903928Y-14453071D01*
X8889643Y-14395929D01*
X8889643Y-14324500D01*
X8903928Y-14267357D01*
X8918214Y-14238786D01*
X8932500Y-14224500D01*
X8961071Y-14210214D01*
X9189643Y-14510214D02*
X9189643Y-14310214D01*
X9189643Y-14338786D02*
X9203928Y-14324500D01*
X9232500Y-14310214D01*
X9275357Y-14310214D01*
X9303928Y-14324500D01*
X9318214Y-14353071D01*
X9318214Y-14510214D01*
X9318214Y-14353071D02*
X9332500Y-14324500D01*
X9361071Y-14310214D01*
X9403928Y-14310214D01*
X9432500Y-14324500D01*
X9446786Y-14353071D01*
X9446786Y-14510214D01*
X9589643Y-14510214D02*
X9589643Y-14310214D01*
X9589643Y-14338786D02*
X9603928Y-14324500D01*
X9632500Y-14310214D01*
X9675357Y-14310214D01*
X9703928Y-14324500D01*
X9718214Y-14353071D01*
X9718214Y-14510214D01*
X9718214Y-14353071D02*
X9732500Y-14324500D01*
X9761071Y-14310214D01*
X9803928Y-14310214D01*
X9832500Y-14324500D01*
X9846786Y-14353071D01*
X9846786Y-14510214D01*
X10432500Y-14195929D02*
X10175357Y-14581643D01*
X10818214Y-14210214D02*
X10846786Y-14210214D01*
X10875357Y-14224500D01*
X10889643Y-14238786D01*
X10903928Y-14267357D01*
X10918214Y-14324500D01*
X10918214Y-14395929D01*
X10903928Y-14453071D01*
X10889643Y-14481643D01*
X10875357Y-14495929D01*
X10846786Y-14510214D01*
X10818214Y-14510214D01*
X10789643Y-14495929D01*
X10775357Y-14481643D01*
X10761071Y-14453071D01*
X10746786Y-14395929D01*
X10746786Y-14324500D01*
X10761071Y-14267357D01*
X10775357Y-14238786D01*
X10789643Y-14224500D01*
X10818214Y-14210214D01*
X11046786Y-14481643D02*
X11061071Y-14495929D01*
X11046786Y-14510214D01*
X11032500Y-14495929D01*
X11046786Y-14481643D01*
X11046786Y-14510214D01*
X11246786Y-14210214D02*
X11275357Y-14210214D01*
X11303928Y-14224500D01*
X11318214Y-14238786D01*
X11332500Y-14267357D01*
X11346786Y-14324500D01*
X11346786Y-14395929D01*
X11332500Y-14453071D01*
X11318214Y-14481643D01*
X11303928Y-14495929D01*
X11275357Y-14510214D01*
X11246786Y-14510214D01*
X11218214Y-14495929D01*
X11203928Y-14481643D01*
X11189643Y-14453071D01*
X11175357Y-14395929D01*
X11175357Y-14324500D01*
X11189643Y-14267357D01*
X11203928Y-14238786D01*
X11218214Y-14224500D01*
X11246786Y-14210214D01*
X11518214Y-14338786D02*
X11489643Y-14324500D01*
X11475357Y-14310214D01*
X11461071Y-14281643D01*
X11461071Y-14267357D01*
X11475357Y-14238786D01*
X11489643Y-14224500D01*
X11518214Y-14210214D01*
X11575357Y-14210214D01*
X11603928Y-14224500D01*
X11618214Y-14238786D01*
X11632500Y-14267357D01*
X11632500Y-14281643D01*
X11618214Y-14310214D01*
X11603928Y-14324500D01*
X11575357Y-14338786D01*
X11518214Y-14338786D01*
X11489643Y-14353071D01*
X11475357Y-14367357D01*
X11461071Y-14395929D01*
X11461071Y-14453071D01*
X11475357Y-14481643D01*
X11489643Y-14495929D01*
X11518214Y-14510214D01*
X11575357Y-14510214D01*
X11603928Y-14495929D01*
X11618214Y-14481643D01*
X11632500Y-14453071D01*
X11632500Y-14395929D01*
X11618214Y-14367357D01*
X11603928Y-14353071D01*
X11575357Y-14338786D01*
X11889643Y-14210214D02*
X11832500Y-14210214D01*
X11803928Y-14224500D01*
X11789643Y-14238786D01*
X11761071Y-14281643D01*
X11746786Y-14338786D01*
X11746786Y-14453071D01*
X11761071Y-14481643D01*
X11775357Y-14495929D01*
X11803928Y-14510214D01*
X11861071Y-14510214D01*
X11889643Y-14495929D01*
X11903928Y-14481643D01*
X11918214Y-14453071D01*
X11918214Y-14381643D01*
X11903928Y-14353071D01*
X11889643Y-14338786D01*
X11861071Y-14324500D01*
X11803928Y-14324500D01*
X11775357Y-14338786D01*
X11761071Y-14353071D01*
X11746786Y-14381643D01*
X12175357Y-14210214D02*
X12118214Y-14210214D01*
X12089643Y-14224500D01*
X12075357Y-14238786D01*
X12046786Y-14281643D01*
X12032500Y-14338786D01*
X12032500Y-14453071D01*
X12046786Y-14481643D01*
X12061071Y-14495929D01*
X12089643Y-14510214D01*
X12146786Y-14510214D01*
X12175357Y-14495929D01*
X12189643Y-14481643D01*
X12203928Y-14453071D01*
X12203928Y-14381643D01*
X12189643Y-14353071D01*
X12175357Y-14338786D01*
X12146786Y-14324500D01*
X12089643Y-14324500D01*
X12061071Y-14338786D01*
X12046786Y-14353071D01*
X12032500Y-14381643D01*
X12318214Y-14210214D02*
X12318214Y-14267357D01*
X12432500Y-14210214D02*
X12432500Y-14267357D01*
X12875357Y-14624500D02*
X12861071Y-14610214D01*
X12832500Y-14567357D01*
X12818214Y-14538786D01*
X12803928Y-14495929D01*
X12789643Y-14424500D01*
X12789643Y-14367357D01*
X12803928Y-14295929D01*
X12818214Y-14253071D01*
X12832500Y-14224500D01*
X12861071Y-14181643D01*
X12875357Y-14167357D01*
X12961071Y-14210214D02*
X13146786Y-14210214D01*
X13046786Y-14324500D01*
X13089643Y-14324500D01*
X13118214Y-14338786D01*
X13132500Y-14353071D01*
X13146786Y-14381643D01*
X13146786Y-14453071D01*
X13132500Y-14481643D01*
X13118214Y-14495929D01*
X13089643Y-14510214D01*
X13003928Y-14510214D01*
X12975357Y-14495929D01*
X12961071Y-14481643D01*
X13503928Y-14510214D02*
X13503928Y-14210214D01*
X13632500Y-14510214D02*
X13632500Y-14353071D01*
X13618214Y-14324500D01*
X13589643Y-14310214D01*
X13546786Y-14310214D01*
X13518214Y-14324500D01*
X13503928Y-14338786D01*
X13818214Y-14510214D02*
X13789643Y-14495929D01*
X13775357Y-14481643D01*
X13761071Y-14453071D01*
X13761071Y-14367357D01*
X13775357Y-14338786D01*
X13789643Y-14324500D01*
X13818214Y-14310214D01*
X13861071Y-14310214D01*
X13889643Y-14324500D01*
X13903928Y-14338786D01*
X13918214Y-14367357D01*
X13918214Y-14453071D01*
X13903928Y-14481643D01*
X13889643Y-14495929D01*
X13861071Y-14510214D01*
X13818214Y-14510214D01*
X14089643Y-14510214D02*
X14061071Y-14495929D01*
X14046786Y-14467357D01*
X14046786Y-14210214D01*
X14318214Y-14495929D02*
X14289643Y-14510214D01*
X14232500Y-14510214D01*
X14203928Y-14495929D01*
X14189643Y-14467357D01*
X14189643Y-14353071D01*
X14203928Y-14324500D01*
X14232500Y-14310214D01*
X14289643Y-14310214D01*
X14318214Y-14324500D01*
X14332500Y-14353071D01*
X14332500Y-14381643D01*
X14189643Y-14410214D01*
X14446786Y-14495929D02*
X14475357Y-14510214D01*
X14532500Y-14510214D01*
X14561071Y-14495929D01*
X14575357Y-14467357D01*
X14575357Y-14453071D01*
X14561071Y-14424500D01*
X14532500Y-14410214D01*
X14489643Y-14410214D01*
X14461071Y-14395929D01*
X14446786Y-14367357D01*
X14446786Y-14353071D01*
X14461071Y-14324500D01*
X14489643Y-14310214D01*
X14532500Y-14310214D01*
X14561071Y-14324500D01*
X14675357Y-14624500D02*
X14689643Y-14610214D01*
X14718214Y-14567357D01*
X14732500Y-14538786D01*
X14746786Y-14495929D01*
X14761071Y-14424500D01*
X14761071Y-14367357D01*
X14746786Y-14295929D01*
X14732500Y-14253071D01*
X14718214Y-14224500D01*
X14689643Y-14181643D01*
X14675357Y-14167357D01*
X15218214Y-14624500D02*
X15203928Y-14610214D01*
X15175357Y-14567357D01*
X15161071Y-14538786D01*
X15146786Y-14495929D01*
X15132500Y-14424500D01*
X15132500Y-14367357D01*
X15146786Y-14295929D01*
X15161071Y-14253071D01*
X15175357Y-14224500D01*
X15203928Y-14181643D01*
X15218214Y-14167357D01*
X15332500Y-14310214D02*
X15332500Y-14510214D01*
X15332500Y-14338786D02*
X15346786Y-14324500D01*
X15375357Y-14310214D01*
X15418214Y-14310214D01*
X15446786Y-14324500D01*
X15461071Y-14353071D01*
X15461071Y-14510214D01*
X15646786Y-14510214D02*
X15618214Y-14495929D01*
X15603928Y-14481643D01*
X15589643Y-14453071D01*
X15589643Y-14367357D01*
X15603928Y-14338786D01*
X15618214Y-14324500D01*
X15646786Y-14310214D01*
X15689643Y-14310214D01*
X15718214Y-14324500D01*
X15732500Y-14338786D01*
X15746786Y-14367357D01*
X15746786Y-14453071D01*
X15732500Y-14481643D01*
X15718214Y-14495929D01*
X15689643Y-14510214D01*
X15646786Y-14510214D01*
X15832500Y-14310214D02*
X15946786Y-14310214D01*
X15875357Y-14210214D02*
X15875357Y-14467357D01*
X15889643Y-14495929D01*
X15918214Y-14510214D01*
X15946786Y-14510214D01*
X16275357Y-14310214D02*
X16275357Y-14610214D01*
X16275357Y-14324500D02*
X16303928Y-14310214D01*
X16361071Y-14310214D01*
X16389643Y-14324500D01*
X16403928Y-14338786D01*
X16418214Y-14367357D01*
X16418214Y-14453071D01*
X16403928Y-14481643D01*
X16389643Y-14495929D01*
X16361071Y-14510214D01*
X16303928Y-14510214D01*
X16275357Y-14495929D01*
X16589643Y-14510214D02*
X16561071Y-14495929D01*
X16546786Y-14467357D01*
X16546786Y-14210214D01*
X16832500Y-14510214D02*
X16832500Y-14353071D01*
X16818214Y-14324500D01*
X16789643Y-14310214D01*
X16732500Y-14310214D01*
X16703928Y-14324500D01*
X16832500Y-14495929D02*
X16803928Y-14510214D01*
X16732500Y-14510214D01*
X16703928Y-14495929D01*
X16689643Y-14467357D01*
X16689643Y-14438786D01*
X16703928Y-14410214D01*
X16732500Y-14395929D01*
X16803928Y-14395929D01*
X16832500Y-14381643D01*
X16932500Y-14310214D02*
X17046786Y-14310214D01*
X16975357Y-14210214D02*
X16975357Y-14467357D01*
X16989643Y-14495929D01*
X17018214Y-14510214D01*
X17046786Y-14510214D01*
X17261071Y-14495929D02*
X17232500Y-14510214D01*
X17175357Y-14510214D01*
X17146786Y-14495929D01*
X17132500Y-14467357D01*
X17132500Y-14353071D01*
X17146786Y-14324500D01*
X17175357Y-14310214D01*
X17232500Y-14310214D01*
X17261071Y-14324500D01*
X17275357Y-14353071D01*
X17275357Y-14381643D01*
X17132500Y-14410214D01*
X17532500Y-14510214D02*
X17532500Y-14210214D01*
X17532500Y-14495929D02*
X17503928Y-14510214D01*
X17446786Y-14510214D01*
X17418214Y-14495929D01*
X17403928Y-14481643D01*
X17389643Y-14453071D01*
X17389643Y-14367357D01*
X17403928Y-14338786D01*
X17418214Y-14324500D01*
X17446786Y-14310214D01*
X17503928Y-14310214D01*
X17532500Y-14324500D01*
X17646786Y-14624500D02*
X17661071Y-14610214D01*
X17689643Y-14567357D01*
X17703928Y-14538786D01*
X17718214Y-14495929D01*
X17732500Y-14424500D01*
X17732500Y-14367357D01*
X17718214Y-14295929D01*
X17703928Y-14253071D01*
X17689643Y-14224500D01*
X17661071Y-14181643D01*
X17646786Y-14167357D01*
M02*
