G04 #@! TF.GenerationSoftware,KiCad,Pcbnew,5.1.10*
G04 #@! TF.CreationDate,2021-12-29T02:33:02+02:00*
G04 #@! TF.ProjectId,pwm-controller,70776d2d-636f-46e7-9472-6f6c6c65722e,rev?*
G04 #@! TF.SameCoordinates,Original*
G04 #@! TF.FileFunction,Copper,L4,Bot*
G04 #@! TF.FilePolarity,Positive*
%FSLAX46Y46*%
G04 Gerber Fmt 4.6, Leading zero omitted, Abs format (unit mm)*
G04 Created by KiCad (PCBNEW 5.1.10) date 2021-12-29 02:33:02*
%MOMM*%
%LPD*%
G01*
G04 APERTURE LIST*
G04 #@! TA.AperFunction,ComponentPad*
%ADD10O,1.700000X1.700000*%
G04 #@! TD*
G04 #@! TA.AperFunction,ComponentPad*
%ADD11R,1.700000X1.700000*%
G04 #@! TD*
G04 #@! TA.AperFunction,ComponentPad*
%ADD12C,1.800000*%
G04 #@! TD*
G04 #@! TA.AperFunction,ComponentPad*
%ADD13C,2.200000*%
G04 #@! TD*
G04 #@! TA.AperFunction,ViaPad*
%ADD14C,0.600000*%
G04 #@! TD*
G04 #@! TA.AperFunction,Conductor*
%ADD15C,0.200000*%
G04 #@! TD*
G04 #@! TA.AperFunction,Conductor*
%ADD16C,0.250000*%
G04 #@! TD*
G04 #@! TA.AperFunction,Conductor*
%ADD17C,0.100000*%
G04 #@! TD*
G04 #@! TA.AperFunction,Conductor*
%ADD18C,0.254000*%
G04 #@! TD*
G04 APERTURE END LIST*
D10*
X99822000Y-80264000D03*
X99822000Y-82804000D03*
X97282000Y-80264000D03*
X97282000Y-82804000D03*
X94742000Y-80264000D03*
X94742000Y-82804000D03*
X92202000Y-80264000D03*
X92202000Y-82804000D03*
X89662000Y-80264000D03*
X89662000Y-82804000D03*
X87122000Y-80264000D03*
X87122000Y-82804000D03*
X84582000Y-80264000D03*
X84582000Y-82804000D03*
X82042000Y-80264000D03*
X82042000Y-82804000D03*
X79502000Y-80264000D03*
D11*
X79502000Y-82804000D03*
D12*
X109385000Y-90726000D03*
X120885000Y-90026000D03*
X120485000Y-82426000D03*
X109385000Y-82426000D03*
X114935000Y-79726000D03*
G04 #@! TA.AperFunction,ComponentPad*
G36*
G01*
X107335000Y-87726000D02*
X107335000Y-85526000D01*
G75*
G02*
X108135000Y-84726000I800000J0D01*
G01*
X109735000Y-84726000D01*
G75*
G02*
X110535000Y-85526000I0J-800000D01*
G01*
X110535000Y-87726000D01*
G75*
G02*
X109735000Y-88526000I-800000J0D01*
G01*
X108135000Y-88526000D01*
G75*
G02*
X107335000Y-87726000I0J800000D01*
G01*
G37*
G04 #@! TD.AperFunction*
G04 #@! TA.AperFunction,ComponentPad*
G36*
G01*
X119335000Y-87726000D02*
X119335000Y-85526000D01*
G75*
G02*
X120135000Y-84726000I800000J0D01*
G01*
X121735000Y-84726000D01*
G75*
G02*
X122535000Y-85526000I0J-800000D01*
G01*
X122535000Y-87726000D01*
G75*
G02*
X121735000Y-88526000I-800000J0D01*
G01*
X120135000Y-88526000D01*
G75*
G02*
X119335000Y-87726000I0J800000D01*
G01*
G37*
G04 #@! TD.AperFunction*
D13*
X86995000Y-118707000D03*
X92075000Y-118707000D03*
X85090000Y-108420000D03*
X85090000Y-103340000D03*
X106680000Y-118707000D03*
X111760000Y-118707000D03*
D14*
X87630000Y-107785000D03*
X88900000Y-107785000D03*
X90170000Y-107785000D03*
X90170000Y-109055000D03*
X88900000Y-109055000D03*
X87630000Y-109055000D03*
X116967000Y-119215000D03*
X116967000Y-117945000D03*
X101473000Y-117945000D03*
X101473000Y-119215000D03*
X85344000Y-87122000D03*
X96520000Y-107150000D03*
X90170000Y-104610000D03*
X90170000Y-100800000D03*
X90170000Y-102070000D03*
X90170000Y-103340000D03*
X92710000Y-104610000D03*
X92710000Y-103340000D03*
X92710000Y-102070000D03*
X92710000Y-100800000D03*
X92710000Y-105880000D03*
X91440000Y-104610000D03*
X91440000Y-103340000D03*
X91440000Y-102070000D03*
X91440000Y-100800000D03*
X96520000Y-105880000D03*
X95250000Y-105880000D03*
X93980000Y-105880000D03*
X80645000Y-114135000D03*
X101600000Y-96990000D03*
X100330000Y-96990000D03*
X97790000Y-96990000D03*
X99060000Y-96990000D03*
X96520000Y-96990000D03*
X100330000Y-98260000D03*
X101600000Y-98260000D03*
X99060000Y-98260000D03*
X95250000Y-102070000D03*
X95250000Y-103340000D03*
X93980000Y-104610000D03*
X93980000Y-103340000D03*
X93980000Y-102070000D03*
X95250000Y-104610000D03*
X95250000Y-100800000D03*
X93980000Y-100800000D03*
X97790000Y-98260000D03*
X97790000Y-99530000D03*
X96520000Y-100800000D03*
X96520000Y-99530000D03*
X96520000Y-98260000D03*
X97790000Y-100800000D03*
X111760000Y-102070000D03*
X114300000Y-102070000D03*
X115570000Y-102070000D03*
X109220000Y-102070000D03*
X97790000Y-102070000D03*
X110490000Y-102070000D03*
X119380000Y-102070000D03*
X120650000Y-102070000D03*
X96520000Y-102070000D03*
X101600000Y-102070000D03*
X113030000Y-102070000D03*
X107950000Y-102070000D03*
X106680000Y-102070000D03*
X104140000Y-102070000D03*
X118110000Y-102070000D03*
X102870000Y-102070000D03*
X100330000Y-102070000D03*
X105410000Y-102070000D03*
X99060000Y-102070000D03*
X116840000Y-102070000D03*
X100330000Y-104610000D03*
X101600000Y-104610000D03*
X107950000Y-104610000D03*
X102870000Y-104610000D03*
X106680000Y-104610000D03*
X96520000Y-104610000D03*
X99060000Y-104610000D03*
X105410000Y-104610000D03*
X97790000Y-104610000D03*
X104140000Y-104610000D03*
X113030000Y-104610000D03*
X114300000Y-104610000D03*
X120650000Y-104610000D03*
X115570000Y-104610000D03*
X119380000Y-104610000D03*
X109220000Y-104610000D03*
X111760000Y-104610000D03*
X118110000Y-104610000D03*
X110490000Y-104610000D03*
X116840000Y-104610000D03*
X114300000Y-103340000D03*
X116840000Y-103340000D03*
X107950000Y-103340000D03*
X106680000Y-103340000D03*
X110490000Y-103340000D03*
X96520000Y-103340000D03*
X118110000Y-103340000D03*
X102870000Y-103340000D03*
X111760000Y-103340000D03*
X105410000Y-103340000D03*
X109220000Y-103340000D03*
X99060000Y-103340000D03*
X104140000Y-103340000D03*
X113030000Y-103340000D03*
X119380000Y-103340000D03*
X100330000Y-103340000D03*
X120650000Y-103340000D03*
X101600000Y-103340000D03*
X97790000Y-103340000D03*
X115570000Y-103340000D03*
X80645000Y-105245000D03*
X80645000Y-106515000D03*
X80645000Y-107785000D03*
X80645000Y-101435000D03*
X80645000Y-102705000D03*
X80645000Y-103975000D03*
X80645000Y-98895000D03*
X80645000Y-100165000D03*
X123825000Y-93815000D03*
X123825000Y-92545000D03*
X123825000Y-91275000D03*
X123825000Y-90005000D03*
X122555000Y-112865000D03*
X116205000Y-124295000D03*
X117475000Y-124295000D03*
X118745000Y-124295000D03*
X79375000Y-98895000D03*
X79375000Y-100165000D03*
X79375000Y-101435000D03*
X81915000Y-115405000D03*
X81915000Y-116675000D03*
X81915000Y-117945000D03*
X100965000Y-124295000D03*
X88265000Y-124295000D03*
X113665000Y-124295000D03*
X112395000Y-124295000D03*
X92075000Y-124295000D03*
X102235000Y-124295000D03*
X104775000Y-124295000D03*
X85725000Y-124295000D03*
X99695000Y-124295000D03*
X107315000Y-124295000D03*
X84455000Y-124295000D03*
X106045000Y-124295000D03*
X98425000Y-124295000D03*
X103505000Y-124295000D03*
X108585000Y-124295000D03*
X111125000Y-124295000D03*
X90805000Y-124295000D03*
X95885000Y-124295000D03*
X94615000Y-124295000D03*
X97155000Y-124295000D03*
X114935000Y-124295000D03*
X109855000Y-124295000D03*
X93345000Y-124295000D03*
X86995000Y-124295000D03*
X89535000Y-124295000D03*
X122555000Y-115405000D03*
X122555000Y-117945000D03*
X123825000Y-115405000D03*
X122555000Y-116675000D03*
X123825000Y-117945000D03*
X123825000Y-114135000D03*
X123825000Y-112865000D03*
X123825000Y-116675000D03*
X122555000Y-114135000D03*
X122555000Y-119215000D03*
X123825000Y-119215000D03*
X80645000Y-109055000D03*
X80645000Y-117945000D03*
X80645000Y-115405000D03*
X80645000Y-116675000D03*
X80645000Y-110325000D03*
X80645000Y-111595000D03*
X80645000Y-112865000D03*
X79375000Y-109055000D03*
X79375000Y-117945000D03*
X79375000Y-115405000D03*
X79375000Y-116675000D03*
X79375000Y-106515000D03*
X79375000Y-110325000D03*
X79375000Y-111595000D03*
X79375000Y-107785000D03*
X79375000Y-114135000D03*
X79375000Y-112865000D03*
X79375000Y-102705000D03*
X79375000Y-103975000D03*
X79375000Y-105245000D03*
X123825000Y-95085000D03*
X79086000Y-90977735D03*
X79086000Y-90005000D03*
X104902000Y-99149000D03*
X108712000Y-94704000D03*
X119126000Y-94704000D03*
X116332000Y-94704000D03*
X105918000Y-94704000D03*
X115316000Y-99149000D03*
X105918000Y-99276000D03*
X116332000Y-99276000D03*
X82550000Y-96646000D03*
X89662000Y-96646000D03*
X102870000Y-93434000D03*
X96774000Y-92710000D03*
X96774000Y-93980000D03*
X101578900Y-84813931D03*
X101600000Y-86106000D03*
X101600000Y-87348010D03*
X90170000Y-88392000D03*
X85344000Y-88392000D03*
X78994000Y-87884000D03*
X86706000Y-87122000D03*
X100308923Y-85914747D03*
X96036263Y-85914266D03*
X100330000Y-85090000D03*
X96012000Y-85090000D03*
X100296529Y-86750882D03*
X96046905Y-86752153D03*
X90932000Y-85090000D03*
X86106000Y-85598000D03*
X119507000Y-117945000D03*
X118237000Y-117945000D03*
X115697000Y-117945000D03*
X119507000Y-119215000D03*
X118237000Y-119215000D03*
X115697000Y-119215000D03*
X119507000Y-115405000D03*
X119507000Y-116675000D03*
X119507000Y-114135000D03*
X114427000Y-114135000D03*
X118237000Y-114135000D03*
X116967000Y-114135000D03*
X115697000Y-114135000D03*
X113157000Y-114135000D03*
X110617000Y-114135000D03*
X111887000Y-114135000D03*
X118237000Y-116675000D03*
X118237000Y-115405000D03*
X111887000Y-115405000D03*
X114427000Y-116675000D03*
X110617000Y-115405000D03*
X113157000Y-116675000D03*
X115697000Y-116675000D03*
X110617000Y-116675000D03*
X111887000Y-116675000D03*
X116967000Y-116675000D03*
X114427000Y-115405000D03*
X113157000Y-115405000D03*
X115697000Y-115405000D03*
X116967000Y-115405000D03*
X102743000Y-117945000D03*
X98933000Y-117945000D03*
X100203000Y-117945000D03*
X102743000Y-119215000D03*
X98933000Y-119215000D03*
X100203000Y-119215000D03*
X98933000Y-114135000D03*
X98933000Y-115405000D03*
X98933000Y-116675000D03*
X106553000Y-114135000D03*
X102743000Y-114135000D03*
X104013000Y-114135000D03*
X101473000Y-114135000D03*
X105283000Y-114135000D03*
X107823000Y-114135000D03*
X100203000Y-114135000D03*
X107823000Y-116675000D03*
X100203000Y-115405000D03*
X106553000Y-116675000D03*
X102743000Y-116675000D03*
X101473000Y-116675000D03*
X104013000Y-116675000D03*
X100203000Y-116675000D03*
X105283000Y-116675000D03*
X102743000Y-115405000D03*
X101473000Y-115405000D03*
X106553000Y-115405000D03*
X104013000Y-115405000D03*
X107823000Y-115405000D03*
X105283000Y-115405000D03*
X92710000Y-112865000D03*
X91440000Y-112865000D03*
X90170000Y-112865000D03*
X88900000Y-112865000D03*
X87630000Y-110325000D03*
X85090000Y-110325000D03*
X90170000Y-110325000D03*
X88900000Y-110325000D03*
X86360000Y-110325000D03*
X88900000Y-111595000D03*
X86360000Y-111595000D03*
X90170000Y-111595000D03*
X87630000Y-111595000D03*
X83820000Y-110325000D03*
X93980000Y-112865000D03*
X85090000Y-111595000D03*
X83820000Y-111595000D03*
X87630000Y-114135000D03*
X90170000Y-114135000D03*
X92710000Y-114135000D03*
X86360000Y-114135000D03*
X85090000Y-114135000D03*
X88900000Y-114135000D03*
X93980000Y-114135000D03*
X91440000Y-114135000D03*
X93980000Y-116675000D03*
X86360000Y-115405000D03*
X92710000Y-116675000D03*
X88900000Y-116675000D03*
X85090000Y-115405000D03*
X87630000Y-116675000D03*
X90170000Y-116675000D03*
X85090000Y-116675000D03*
X86360000Y-116675000D03*
X91440000Y-116675000D03*
X88900000Y-115405000D03*
X87630000Y-115405000D03*
X92710000Y-115405000D03*
X90170000Y-115405000D03*
X93980000Y-115405000D03*
X91440000Y-115405000D03*
X106826736Y-93795264D03*
X120523000Y-93815000D03*
X116195735Y-93824265D03*
X117983000Y-93815000D03*
X108712000Y-93815000D03*
X94751000Y-92211000D03*
X98298000Y-88646000D03*
D15*
X87630000Y-107785000D02*
X87630000Y-109055000D01*
X90170000Y-107785000D02*
X87630000Y-107785000D01*
X90170000Y-107785000D02*
X90170000Y-109055000D01*
X88900000Y-107785000D02*
X88900000Y-109055000D01*
X90170000Y-109055000D02*
X90170000Y-110325000D01*
X88900000Y-109055000D02*
X88900000Y-110325000D01*
X87630000Y-109055000D02*
X87630000Y-110325000D01*
X116967000Y-117945000D02*
X115697000Y-117945000D01*
X116967000Y-119215000D02*
X115697000Y-119215000D01*
X102743000Y-117945000D02*
X101473000Y-117945000D01*
X102743000Y-119215000D02*
X101473000Y-119215000D01*
X96520000Y-107150000D02*
X96520000Y-105880000D01*
X90170000Y-102070000D02*
X91440000Y-102070000D01*
X90170000Y-104610000D02*
X91440000Y-104610000D01*
X90170000Y-100800000D02*
X90170000Y-102070000D01*
X90170000Y-103340000D02*
X90170000Y-104610000D01*
X90170000Y-102070000D02*
X90170000Y-103340000D01*
X90170000Y-103340000D02*
X91440000Y-103340000D01*
X90170000Y-100800000D02*
X91440000Y-100800000D01*
X92710000Y-103340000D02*
X93980000Y-103340000D01*
X92710000Y-102070000D02*
X92710000Y-103340000D01*
X92710000Y-104610000D02*
X93980000Y-104610000D01*
X92710000Y-102070000D02*
X93980000Y-102070000D01*
X92710000Y-103340000D02*
X92710000Y-104610000D01*
X92710000Y-100800000D02*
X93980000Y-100800000D01*
X92710000Y-100800000D02*
X92710000Y-102070000D01*
X92710000Y-105880000D02*
X93980000Y-105880000D01*
X92710000Y-104610000D02*
X92710000Y-105880000D01*
X91440000Y-103340000D02*
X92710000Y-103340000D01*
X91440000Y-102070000D02*
X91440000Y-103340000D01*
X91440000Y-104610000D02*
X92710000Y-104610000D01*
X91440000Y-102070000D02*
X92710000Y-102070000D01*
X91440000Y-103340000D02*
X91440000Y-104610000D01*
X91440000Y-100800000D02*
X92710000Y-100800000D01*
X91440000Y-100800000D02*
X91440000Y-102070000D01*
X93980000Y-105880000D02*
X95250000Y-105880000D01*
X93980000Y-104610000D02*
X93980000Y-105880000D01*
X95250000Y-105880000D02*
X96520000Y-105880000D01*
X97790000Y-96990000D02*
X99060000Y-96990000D01*
X100330000Y-96990000D02*
X101600000Y-96990000D01*
X96520000Y-96990000D02*
X97790000Y-96990000D01*
X99060000Y-96990000D02*
X100330000Y-96990000D01*
X97790000Y-98260000D02*
X99060000Y-98260000D01*
X99060000Y-98260000D02*
X100330000Y-98260000D01*
X100330000Y-98260000D02*
X101600000Y-98260000D01*
X95250000Y-102070000D02*
X96520000Y-102070000D01*
X95250000Y-104610000D02*
X96520000Y-104610000D01*
X93980000Y-103340000D02*
X95250000Y-103340000D01*
X95250000Y-103340000D02*
X96520000Y-103340000D01*
X93980000Y-102070000D02*
X93980000Y-103340000D01*
X93980000Y-104610000D02*
X95250000Y-104610000D01*
X93980000Y-102070000D02*
X95250000Y-102070000D01*
X93980000Y-103340000D02*
X93980000Y-104610000D01*
X95250000Y-100800000D02*
X96520000Y-100800000D01*
X93980000Y-100800000D02*
X95250000Y-100800000D01*
X96520000Y-99530000D02*
X97790000Y-99530000D01*
X96520000Y-100800000D02*
X97790000Y-100800000D01*
X96520000Y-98260000D02*
X97790000Y-98260000D01*
X93980000Y-100800000D02*
X93980000Y-102070000D01*
X100330000Y-102070000D02*
X101600000Y-102070000D01*
X107950000Y-102070000D02*
X109220000Y-102070000D01*
X110490000Y-102070000D02*
X111760000Y-102070000D01*
X118110000Y-102070000D02*
X119380000Y-102070000D01*
X114300000Y-102070000D02*
X115570000Y-102070000D01*
X102870000Y-102070000D02*
X104140000Y-102070000D01*
X104140000Y-102070000D02*
X105410000Y-102070000D01*
X99060000Y-102070000D02*
X100330000Y-102070000D01*
X116840000Y-102070000D02*
X118110000Y-102070000D01*
X106680000Y-102070000D02*
X107950000Y-102070000D01*
X96520000Y-102070000D02*
X97790000Y-102070000D01*
X105410000Y-102070000D02*
X106680000Y-102070000D01*
X97790000Y-102070000D02*
X99060000Y-102070000D01*
X109220000Y-102070000D02*
X110490000Y-102070000D01*
X119380000Y-102070000D02*
X120650000Y-102070000D01*
X111760000Y-102070000D02*
X113030000Y-102070000D01*
X113030000Y-102070000D02*
X114300000Y-102070000D01*
X101600000Y-102070000D02*
X102870000Y-102070000D01*
X115570000Y-102070000D02*
X116840000Y-102070000D01*
X106680000Y-104610000D02*
X107950000Y-104610000D01*
X100330000Y-104610000D02*
X101600000Y-104610000D01*
X105410000Y-104610000D02*
X106680000Y-104610000D01*
X104140000Y-104610000D02*
X105410000Y-104610000D01*
X102870000Y-104610000D02*
X104140000Y-104610000D01*
X99060000Y-104610000D02*
X100330000Y-104610000D01*
X101600000Y-104610000D02*
X102870000Y-104610000D01*
X97790000Y-104610000D02*
X99060000Y-104610000D01*
X96520000Y-104610000D02*
X97790000Y-104610000D01*
X107950000Y-104610000D02*
X109220000Y-104610000D01*
X119380000Y-104610000D02*
X120650000Y-104610000D01*
X113030000Y-104610000D02*
X114300000Y-104610000D01*
X118110000Y-104610000D02*
X119380000Y-104610000D01*
X116840000Y-104610000D02*
X118110000Y-104610000D01*
X115570000Y-104610000D02*
X116840000Y-104610000D01*
X111760000Y-104610000D02*
X113030000Y-104610000D01*
X114300000Y-104610000D02*
X115570000Y-104610000D01*
X110490000Y-104610000D02*
X111760000Y-104610000D01*
X109220000Y-104610000D02*
X110490000Y-104610000D01*
X109220000Y-103340000D02*
X110490000Y-103340000D01*
X107950000Y-103340000D02*
X109220000Y-103340000D01*
X97790000Y-103340000D02*
X99060000Y-103340000D01*
X115570000Y-103340000D02*
X116840000Y-103340000D01*
X113030000Y-103340000D02*
X114300000Y-103340000D01*
X100330000Y-103340000D02*
X101600000Y-103340000D01*
X101600000Y-103340000D02*
X102870000Y-103340000D01*
X111760000Y-103340000D02*
X113030000Y-103340000D01*
X114300000Y-103340000D02*
X115570000Y-103340000D01*
X102870000Y-103340000D02*
X104140000Y-103340000D01*
X105410000Y-103340000D02*
X106680000Y-103340000D01*
X110490000Y-103340000D02*
X111760000Y-103340000D01*
X119380000Y-103340000D02*
X120650000Y-103340000D01*
X118110000Y-103340000D02*
X119380000Y-103340000D01*
X106680000Y-103340000D02*
X107950000Y-103340000D01*
X96520000Y-103340000D02*
X97790000Y-103340000D01*
X116840000Y-103340000D02*
X118110000Y-103340000D01*
X104140000Y-103340000D02*
X105410000Y-103340000D01*
X99060000Y-103340000D02*
X100330000Y-103340000D01*
X80645000Y-107785000D02*
X80645000Y-109055000D01*
X80645000Y-106515000D02*
X80645000Y-107785000D01*
X80645000Y-105245000D02*
X80645000Y-106515000D01*
X80645000Y-103975000D02*
X80645000Y-105245000D01*
X80645000Y-102705000D02*
X80645000Y-103975000D01*
X80645000Y-101435000D02*
X80645000Y-102705000D01*
X80645000Y-100165000D02*
X80645000Y-101435000D01*
X80645000Y-98895000D02*
X80645000Y-100165000D01*
X123825000Y-93815000D02*
X123825000Y-95085000D01*
X123825000Y-93815000D02*
X123825000Y-92545000D01*
X123825000Y-91275000D02*
X123825000Y-92545000D01*
X123825000Y-91275000D02*
X123825000Y-90005000D01*
X122555000Y-112865000D02*
X122555000Y-114135000D01*
X116205000Y-124295000D02*
X114935000Y-124295000D01*
X117475000Y-124295000D02*
X116205000Y-124295000D01*
X118745000Y-124295000D02*
X117475000Y-124295000D01*
X79375000Y-100165000D02*
X79375000Y-101435000D01*
X79375000Y-98895000D02*
X79375000Y-100165000D01*
X79375000Y-101435000D02*
X79375000Y-102705000D01*
X81915000Y-115405000D02*
X81915000Y-116675000D01*
X81915000Y-116675000D02*
X81915000Y-117945000D01*
X113665000Y-124295000D02*
X112395000Y-124295000D01*
X111125000Y-124295000D02*
X109855000Y-124295000D01*
X102235000Y-124295000D02*
X100965000Y-124295000D01*
X86995000Y-124295000D02*
X85725000Y-124295000D01*
X112395000Y-124295000D02*
X111125000Y-124295000D01*
X90805000Y-124295000D02*
X89535000Y-124295000D01*
X109855000Y-124295000D02*
X108585000Y-124295000D01*
X97155000Y-124295000D02*
X95885000Y-124295000D01*
X107315000Y-124295000D02*
X106045000Y-124295000D01*
X104775000Y-124295000D02*
X103505000Y-124295000D01*
X99695000Y-124295000D02*
X98425000Y-124295000D01*
X85725000Y-124295000D02*
X84455000Y-124295000D01*
X93345000Y-124295000D02*
X92075000Y-124295000D01*
X89535000Y-124295000D02*
X88265000Y-124295000D01*
X114935000Y-124295000D02*
X113665000Y-124295000D01*
X95885000Y-124295000D02*
X94615000Y-124295000D01*
X88265000Y-124295000D02*
X86995000Y-124295000D01*
X103505000Y-124295000D02*
X102235000Y-124295000D01*
X92075000Y-124295000D02*
X90805000Y-124295000D01*
X106045000Y-124295000D02*
X104775000Y-124295000D01*
X108585000Y-124295000D02*
X107315000Y-124295000D01*
X98425000Y-124295000D02*
X97155000Y-124295000D01*
X94615000Y-124295000D02*
X93345000Y-124295000D01*
X123825000Y-116675000D02*
X123825000Y-117945000D01*
X122555000Y-115405000D02*
X122555000Y-116675000D01*
X122555000Y-114135000D02*
X122555000Y-115405000D01*
X122555000Y-116675000D02*
X122555000Y-117945000D01*
X123825000Y-112865000D02*
X123825000Y-114135000D01*
X123825000Y-114135000D02*
X123825000Y-115405000D01*
X123825000Y-115405000D02*
X123825000Y-116675000D01*
X123825000Y-117945000D02*
X123825000Y-119215000D01*
X122555000Y-117945000D02*
X122555000Y-119215000D01*
X80645000Y-115405000D02*
X80645000Y-116675000D01*
X80645000Y-110325000D02*
X80645000Y-111595000D01*
X80645000Y-111595000D02*
X80645000Y-112865000D01*
X80645000Y-109055000D02*
X80645000Y-110325000D01*
X80645000Y-116675000D02*
X80645000Y-117945000D01*
X80645000Y-112865000D02*
X80645000Y-115405000D01*
X79375000Y-107785000D02*
X79375000Y-109055000D01*
X79375000Y-115405000D02*
X79375000Y-116675000D01*
X79375000Y-110325000D02*
X79375000Y-111595000D01*
X79375000Y-111595000D02*
X79375000Y-112865000D01*
X79375000Y-109055000D02*
X79375000Y-110325000D01*
X79375000Y-116675000D02*
X79375000Y-117945000D01*
X79375000Y-106515000D02*
X79375000Y-107785000D01*
X79375000Y-114135000D02*
X79375000Y-115405000D01*
X79375000Y-112865000D02*
X79375000Y-114135000D01*
X79375000Y-103975000D02*
X79375000Y-105245000D01*
X79375000Y-102705000D02*
X79375000Y-103975000D01*
X79375000Y-105245000D02*
X79375000Y-106515000D01*
X99695000Y-124295000D02*
X100965000Y-124295000D01*
X97790000Y-98260000D02*
X97790000Y-102070000D01*
X101600000Y-96990000D02*
X101600000Y-98260000D01*
X122555000Y-119215000D02*
X123825000Y-119215000D01*
X81915000Y-117945000D02*
X79375000Y-117945000D01*
X96520000Y-105880000D02*
X96520000Y-104610000D01*
X120650000Y-104610000D02*
X120650000Y-102070000D01*
X123825000Y-112865000D02*
X122555000Y-112865000D01*
X79375000Y-98895000D02*
X80645000Y-98895000D01*
X81915000Y-115405000D02*
X80645000Y-114135000D01*
X91440000Y-104610000D02*
X92710000Y-105880000D01*
X96520000Y-96990000D02*
X96520000Y-100800000D01*
X95250000Y-105880000D02*
X96520000Y-107150000D01*
X85344000Y-87122000D02*
X85344000Y-88392000D01*
X86706000Y-87122000D02*
X83192001Y-83608001D01*
X80652001Y-81414001D02*
X79502000Y-80264000D01*
X82354003Y-81414001D02*
X80652001Y-81414001D01*
X83192001Y-82251999D02*
X82354003Y-81414001D01*
X83192001Y-83608001D02*
X83192001Y-82251999D01*
X100308442Y-85914266D02*
X100308923Y-85914747D01*
X96036263Y-85914266D02*
X97344266Y-85914266D01*
X97344266Y-85914266D02*
X100308442Y-85914266D01*
X96012000Y-85090000D02*
X97536000Y-85090000D01*
X97536000Y-85090000D02*
X100330000Y-85090000D01*
X100295258Y-86752153D02*
X100296529Y-86750882D01*
X96046905Y-86752153D02*
X97420153Y-86752153D01*
X97420153Y-86752153D02*
X100295258Y-86752153D01*
X86614000Y-85090000D02*
X90932000Y-85090000D01*
X86106000Y-85598000D02*
X86614000Y-85090000D01*
X118237000Y-117945000D02*
X116967000Y-117945000D01*
X119507000Y-117945000D02*
X118237000Y-117945000D01*
X119507000Y-116675000D02*
X119507000Y-117945000D01*
X118237000Y-119215000D02*
X116967000Y-119215000D01*
X119507000Y-119215000D02*
X118237000Y-119215000D01*
X119507000Y-117945000D02*
X119507000Y-119215000D01*
X119507000Y-116675000D02*
X118237000Y-116675000D01*
X119507000Y-115405000D02*
X118237000Y-115405000D01*
X119507000Y-114135000D02*
X118237000Y-114135000D01*
X111887000Y-114135000D02*
X110617000Y-114135000D01*
X116967000Y-114135000D02*
X115697000Y-114135000D01*
X118237000Y-114135000D02*
X116967000Y-114135000D01*
X113157000Y-114135000D02*
X111887000Y-114135000D01*
X115697000Y-114135000D02*
X114427000Y-114135000D01*
X114427000Y-114135000D02*
X113157000Y-114135000D01*
X118237000Y-116675000D02*
X116967000Y-116675000D01*
X118237000Y-115405000D02*
X116967000Y-115405000D01*
X116967000Y-115405000D02*
X115697000Y-115405000D01*
X111887000Y-116675000D02*
X110617000Y-116675000D01*
X115697000Y-115405000D02*
X114427000Y-115405000D01*
X113157000Y-115405000D02*
X111887000Y-115405000D01*
X116967000Y-116675000D02*
X115697000Y-116675000D01*
X111887000Y-115405000D02*
X110617000Y-115405000D01*
X114427000Y-116675000D02*
X113157000Y-116675000D01*
X114427000Y-115405000D02*
X113157000Y-115405000D01*
X113157000Y-116675000D02*
X111887000Y-116675000D01*
X115697000Y-116675000D02*
X114427000Y-116675000D01*
X119507000Y-115405000D02*
X119507000Y-116675000D01*
X119507000Y-115405000D02*
X119507000Y-114135000D01*
X115697000Y-119215000D02*
X115697000Y-116675000D01*
X110617000Y-114135000D02*
X110617000Y-116675000D01*
X101473000Y-117945000D02*
X100203000Y-117945000D01*
X100203000Y-117945000D02*
X98933000Y-117945000D01*
X98933000Y-116675000D02*
X98933000Y-117945000D01*
X101473000Y-119215000D02*
X100203000Y-119215000D01*
X100203000Y-119215000D02*
X98933000Y-119215000D01*
X98933000Y-117945000D02*
X98933000Y-119215000D01*
X100203000Y-115405000D02*
X98933000Y-115405000D01*
X100203000Y-116675000D02*
X98933000Y-116675000D01*
X100203000Y-114135000D02*
X98933000Y-114135000D01*
X102743000Y-114135000D02*
X101473000Y-114135000D01*
X101473000Y-114135000D02*
X100203000Y-114135000D01*
X104013000Y-114135000D02*
X102743000Y-114135000D01*
X106553000Y-114135000D02*
X105283000Y-114135000D01*
X105283000Y-114135000D02*
X104013000Y-114135000D01*
X107823000Y-114135000D02*
X106553000Y-114135000D01*
X105283000Y-115405000D02*
X104013000Y-115405000D01*
X106553000Y-115405000D02*
X105283000Y-115405000D01*
X107823000Y-115405000D02*
X106553000Y-115405000D01*
X106553000Y-116675000D02*
X105283000Y-116675000D01*
X104013000Y-115405000D02*
X102743000Y-115405000D01*
X101473000Y-115405000D02*
X100203000Y-115405000D01*
X105283000Y-116675000D02*
X104013000Y-116675000D01*
X102743000Y-116675000D02*
X101473000Y-116675000D01*
X102743000Y-115405000D02*
X101473000Y-115405000D01*
X101473000Y-116675000D02*
X100203000Y-116675000D01*
X104013000Y-116675000D02*
X102743000Y-116675000D01*
X107823000Y-116675000D02*
X106553000Y-116675000D01*
X98933000Y-114135000D02*
X98933000Y-115405000D01*
X98933000Y-115405000D02*
X98933000Y-116675000D01*
X102743000Y-119215000D02*
X102743000Y-116675000D01*
X107823000Y-116675000D02*
X107823000Y-114135000D01*
X93980000Y-112865000D02*
X92710000Y-112865000D01*
X92710000Y-112865000D02*
X91440000Y-112865000D01*
X91440000Y-112865000D02*
X90170000Y-112865000D01*
X90170000Y-112865000D02*
X88900000Y-112865000D01*
X88900000Y-110325000D02*
X87630000Y-110325000D01*
X86360000Y-110325000D02*
X85090000Y-110325000D01*
X87630000Y-110325000D02*
X86360000Y-110325000D01*
X90170000Y-110325000D02*
X88900000Y-110325000D01*
X85090000Y-110325000D02*
X83820000Y-110325000D01*
X90170000Y-111595000D02*
X88900000Y-111595000D01*
X87630000Y-111595000D02*
X86360000Y-111595000D01*
X88900000Y-111595000D02*
X87630000Y-111595000D01*
X86360000Y-111595000D02*
X85090000Y-111595000D01*
X83820000Y-111595000D02*
X83820000Y-110325000D01*
X85090000Y-111595000D02*
X83820000Y-111595000D01*
X93980000Y-114135000D02*
X92710000Y-114135000D01*
X92710000Y-114135000D02*
X91440000Y-114135000D01*
X91440000Y-114135000D02*
X90170000Y-114135000D01*
X86360000Y-114135000D02*
X85090000Y-114135000D01*
X87630000Y-114135000D02*
X86360000Y-114135000D01*
X90170000Y-114135000D02*
X88900000Y-114135000D01*
X88900000Y-114135000D02*
X87630000Y-114135000D01*
X91440000Y-115405000D02*
X90170000Y-115405000D01*
X92710000Y-115405000D02*
X91440000Y-115405000D01*
X93980000Y-115405000D02*
X92710000Y-115405000D01*
X92710000Y-116675000D02*
X91440000Y-116675000D01*
X86360000Y-116675000D02*
X85090000Y-116675000D01*
X90170000Y-115405000D02*
X88900000Y-115405000D01*
X87630000Y-115405000D02*
X86360000Y-115405000D01*
X91440000Y-116675000D02*
X90170000Y-116675000D01*
X86360000Y-115405000D02*
X85090000Y-115405000D01*
X88900000Y-116675000D02*
X87630000Y-116675000D01*
X88900000Y-115405000D02*
X87630000Y-115405000D01*
X87630000Y-116675000D02*
X86360000Y-116675000D01*
X90170000Y-116675000D02*
X88900000Y-116675000D01*
X93980000Y-116675000D02*
X92710000Y-116675000D01*
X83820000Y-111595000D02*
X85090000Y-112865000D01*
X85090000Y-112865000D02*
X85090000Y-116675000D01*
X88900000Y-111595000D02*
X88900000Y-114135000D01*
X93980000Y-116675000D02*
X93980000Y-112865000D01*
X90170000Y-110325000D02*
X90170000Y-111595000D01*
X90170000Y-111595000D02*
X91440000Y-112865000D01*
X90170000Y-109055000D02*
X87630000Y-109055000D01*
X120503264Y-93795264D02*
X120523000Y-93815000D01*
X117973735Y-93824265D02*
X117983000Y-93815000D01*
X116195735Y-93824265D02*
X117973735Y-93824265D01*
X108692264Y-93795264D02*
X108712000Y-93815000D01*
X106826736Y-93795264D02*
X108692264Y-93795264D01*
X94751000Y-92193000D02*
X94751000Y-92211000D01*
X98298000Y-88646000D02*
X94751000Y-92193000D01*
D16*
X124058727Y-76888291D02*
X124403791Y-76992471D01*
X124722049Y-77161691D01*
X125001378Y-77389507D01*
X125231136Y-77667237D01*
X125402574Y-77984306D01*
X125509161Y-78328633D01*
X125550001Y-78717200D01*
X125550000Y-108343168D01*
X125538970Y-108326660D01*
X125173340Y-107961030D01*
X124743404Y-107673755D01*
X124265684Y-107475878D01*
X123758540Y-107375000D01*
X123241460Y-107375000D01*
X122734316Y-107475878D01*
X122256596Y-107673755D01*
X121826660Y-107961030D01*
X121461030Y-108326660D01*
X121173755Y-108756596D01*
X120975878Y-109234316D01*
X120875000Y-109741460D01*
X120875000Y-110258540D01*
X120975878Y-110765684D01*
X121173755Y-111243404D01*
X121461030Y-111673340D01*
X121826660Y-112038970D01*
X122256596Y-112326245D01*
X122734316Y-112524122D01*
X123241460Y-112625000D01*
X123758540Y-112625000D01*
X124265684Y-112524122D01*
X124743404Y-112326245D01*
X125173340Y-112038970D01*
X125538970Y-111673340D01*
X125550000Y-111656832D01*
X125550000Y-123668208D01*
X125511709Y-124058728D01*
X125407528Y-124403793D01*
X125238308Y-124722049D01*
X125010494Y-125001378D01*
X124732763Y-125231136D01*
X124415698Y-125402573D01*
X124071366Y-125509161D01*
X123682809Y-125550000D01*
X78731792Y-125550000D01*
X78341272Y-125511709D01*
X77996207Y-125407528D01*
X77677951Y-125238308D01*
X77398622Y-125010494D01*
X77168864Y-124732763D01*
X76997427Y-124415698D01*
X76890839Y-124071366D01*
X76850000Y-123682809D01*
X76850000Y-122855102D01*
X77650000Y-122855102D01*
X77650000Y-123194898D01*
X77716290Y-123528164D01*
X77846324Y-123842094D01*
X78035105Y-124124624D01*
X78275376Y-124364895D01*
X78557906Y-124553676D01*
X78871836Y-124683710D01*
X79205102Y-124750000D01*
X79544898Y-124750000D01*
X79878164Y-124683710D01*
X80192094Y-124553676D01*
X80474624Y-124364895D01*
X80714895Y-124124624D01*
X80903676Y-123842094D01*
X81033710Y-123528164D01*
X81100000Y-123194898D01*
X81100000Y-122855102D01*
X121300000Y-122855102D01*
X121300000Y-123194898D01*
X121366290Y-123528164D01*
X121496324Y-123842094D01*
X121685105Y-124124624D01*
X121925376Y-124364895D01*
X122207906Y-124553676D01*
X122521836Y-124683710D01*
X122855102Y-124750000D01*
X123194898Y-124750000D01*
X123528164Y-124683710D01*
X123842094Y-124553676D01*
X124124624Y-124364895D01*
X124364895Y-124124624D01*
X124553676Y-123842094D01*
X124683710Y-123528164D01*
X124750000Y-123194898D01*
X124750000Y-122855102D01*
X124683710Y-122521836D01*
X124553676Y-122207906D01*
X124364895Y-121925376D01*
X124124624Y-121685105D01*
X123842094Y-121496324D01*
X123528164Y-121366290D01*
X123194898Y-121300000D01*
X122855102Y-121300000D01*
X122521836Y-121366290D01*
X122207906Y-121496324D01*
X121925376Y-121685105D01*
X121685105Y-121925376D01*
X121496324Y-122207906D01*
X121366290Y-122521836D01*
X121300000Y-122855102D01*
X81100000Y-122855102D01*
X81033710Y-122521836D01*
X80903676Y-122207906D01*
X80714895Y-121925376D01*
X80474624Y-121685105D01*
X80192094Y-121496324D01*
X79878164Y-121366290D01*
X79544898Y-121300000D01*
X79205102Y-121300000D01*
X78871836Y-121366290D01*
X78557906Y-121496324D01*
X78275376Y-121685105D01*
X78035105Y-121925376D01*
X77846324Y-122207906D01*
X77716290Y-122521836D01*
X77650000Y-122855102D01*
X76850000Y-122855102D01*
X76850000Y-120531712D01*
X80587000Y-120531712D01*
X80587000Y-120768288D01*
X80633154Y-121000319D01*
X80723688Y-121218887D01*
X80855122Y-121415593D01*
X81022407Y-121582878D01*
X81219113Y-121714312D01*
X81437681Y-121804846D01*
X81669712Y-121851000D01*
X81906288Y-121851000D01*
X82138319Y-121804846D01*
X82356887Y-121714312D01*
X82553593Y-121582878D01*
X82560000Y-121576471D01*
X82560000Y-121755000D01*
X82572009Y-121876931D01*
X82607575Y-121994177D01*
X82665331Y-122102231D01*
X82743058Y-122196942D01*
X82837769Y-122274669D01*
X82945823Y-122332425D01*
X83063069Y-122367991D01*
X83185000Y-122380000D01*
X95885000Y-122380000D01*
X96006931Y-122367991D01*
X96124177Y-122332425D01*
X96232231Y-122274669D01*
X96326942Y-122196942D01*
X96404669Y-122102231D01*
X96462425Y-121994177D01*
X96497991Y-121876931D01*
X96510000Y-121755000D01*
X96510000Y-113500000D01*
X97157000Y-113500000D01*
X97157000Y-121755000D01*
X97169163Y-121878492D01*
X97205184Y-121997239D01*
X97263680Y-122106676D01*
X97342401Y-122202599D01*
X97438324Y-122281320D01*
X97547761Y-122339816D01*
X97666508Y-122375837D01*
X97790000Y-122388000D01*
X120650000Y-122388000D01*
X120773492Y-122375837D01*
X120892239Y-122339816D01*
X121001676Y-122281320D01*
X121097599Y-122202599D01*
X121176320Y-122106676D01*
X121234816Y-121997239D01*
X121270837Y-121878492D01*
X121283000Y-121755000D01*
X121283000Y-113500000D01*
X121270837Y-113376508D01*
X121234816Y-113257761D01*
X121176320Y-113148324D01*
X121097599Y-113052401D01*
X121001676Y-112973680D01*
X120892239Y-112915184D01*
X120773492Y-112879163D01*
X120650000Y-112867000D01*
X97790000Y-112867000D01*
X97666508Y-112879163D01*
X97547761Y-112915184D01*
X97438324Y-112973680D01*
X97342401Y-113052401D01*
X97263680Y-113148324D01*
X97205184Y-113257761D01*
X97169163Y-113376508D01*
X97157000Y-113500000D01*
X96510000Y-113500000D01*
X96510000Y-111595000D01*
X96497991Y-111473069D01*
X96462425Y-111355823D01*
X96404669Y-111247769D01*
X96326942Y-111153058D01*
X95999357Y-110825473D01*
X96024122Y-110765684D01*
X96125000Y-110258540D01*
X96125000Y-109741460D01*
X96024122Y-109234316D01*
X95826245Y-108756596D01*
X95538970Y-108326660D01*
X95173340Y-107961030D01*
X94743404Y-107673755D01*
X94265684Y-107475878D01*
X93758540Y-107375000D01*
X93241460Y-107375000D01*
X92734316Y-107475878D01*
X92674527Y-107500643D01*
X91246942Y-106073058D01*
X91152231Y-105995331D01*
X91044177Y-105937575D01*
X90926931Y-105902009D01*
X90805000Y-105890000D01*
X82550000Y-105890000D01*
X82428069Y-105902009D01*
X82310823Y-105937575D01*
X82202769Y-105995331D01*
X82108058Y-106073058D01*
X82030331Y-106167769D01*
X81972575Y-106275823D01*
X81937009Y-106393069D01*
X81925000Y-106515000D01*
X81925000Y-112230000D01*
X81937009Y-112351931D01*
X81972575Y-112469177D01*
X82030331Y-112577231D01*
X82108058Y-112671942D01*
X82560000Y-113123884D01*
X82560000Y-119723529D01*
X82553593Y-119717122D01*
X82356887Y-119585688D01*
X82138319Y-119495154D01*
X81906288Y-119449000D01*
X81669712Y-119449000D01*
X81437681Y-119495154D01*
X81219113Y-119585688D01*
X81022407Y-119717122D01*
X80855122Y-119884407D01*
X80723688Y-120081113D01*
X80633154Y-120299681D01*
X80587000Y-120531712D01*
X76850000Y-120531712D01*
X76850000Y-104406140D01*
X84200637Y-104406140D01*
X84323053Y-104608275D01*
X84585218Y-104733529D01*
X84866781Y-104805231D01*
X85156922Y-104820625D01*
X85444492Y-104779120D01*
X85718439Y-104682310D01*
X85856947Y-104608275D01*
X85979363Y-104406140D01*
X85090000Y-103516777D01*
X84200637Y-104406140D01*
X76850000Y-104406140D01*
X76850000Y-103406922D01*
X83609375Y-103406922D01*
X83650880Y-103694492D01*
X83747690Y-103968439D01*
X83821725Y-104106947D01*
X84023860Y-104229363D01*
X84913223Y-103340000D01*
X85266777Y-103340000D01*
X86156140Y-104229363D01*
X86358275Y-104106947D01*
X86483529Y-103844782D01*
X86555231Y-103563219D01*
X86570625Y-103273078D01*
X86529120Y-102985508D01*
X86432310Y-102711561D01*
X86358275Y-102573053D01*
X86156140Y-102450637D01*
X85266777Y-103340000D01*
X84913223Y-103340000D01*
X84023860Y-102450637D01*
X83821725Y-102573053D01*
X83696471Y-102835218D01*
X83624769Y-103116781D01*
X83609375Y-103406922D01*
X76850000Y-103406922D01*
X76850000Y-102273860D01*
X84200637Y-102273860D01*
X85090000Y-103163223D01*
X85979363Y-102273860D01*
X85856947Y-102071725D01*
X85594782Y-101946471D01*
X85313219Y-101874769D01*
X85023078Y-101859375D01*
X84735508Y-101900880D01*
X84461561Y-101997690D01*
X84323053Y-102071725D01*
X84200637Y-102273860D01*
X76850000Y-102273860D01*
X76850000Y-93704159D01*
X105901736Y-93704159D01*
X105901736Y-93886369D01*
X105937283Y-94065077D01*
X106007011Y-94233416D01*
X106108241Y-94384917D01*
X106237083Y-94513759D01*
X106388584Y-94614989D01*
X106556923Y-94684717D01*
X106735631Y-94720264D01*
X106917841Y-94720264D01*
X107096549Y-94684717D01*
X107264888Y-94614989D01*
X107406654Y-94520264D01*
X108109116Y-94520264D01*
X108122347Y-94533495D01*
X108273848Y-94634725D01*
X108442187Y-94704453D01*
X108620895Y-94740000D01*
X108803105Y-94740000D01*
X108981813Y-94704453D01*
X109150152Y-94634725D01*
X109301653Y-94533495D01*
X109430495Y-94404653D01*
X109531725Y-94253152D01*
X109601453Y-94084813D01*
X109637000Y-93906105D01*
X109637000Y-93733160D01*
X115270735Y-93733160D01*
X115270735Y-93915370D01*
X115306282Y-94094078D01*
X115376010Y-94262417D01*
X115477240Y-94413918D01*
X115606082Y-94542760D01*
X115757583Y-94643990D01*
X115925922Y-94713718D01*
X116104630Y-94749265D01*
X116286840Y-94749265D01*
X116465548Y-94713718D01*
X116633887Y-94643990D01*
X116775653Y-94549265D01*
X117416948Y-94549265D01*
X117544848Y-94634725D01*
X117713187Y-94704453D01*
X117891895Y-94740000D01*
X118074105Y-94740000D01*
X118252813Y-94704453D01*
X118421152Y-94634725D01*
X118572653Y-94533495D01*
X118701495Y-94404653D01*
X118802725Y-94253152D01*
X118872453Y-94084813D01*
X118908000Y-93906105D01*
X118908000Y-93723895D01*
X119598000Y-93723895D01*
X119598000Y-93906105D01*
X119633547Y-94084813D01*
X119703275Y-94253152D01*
X119804505Y-94404653D01*
X119933347Y-94533495D01*
X120084848Y-94634725D01*
X120253187Y-94704453D01*
X120431895Y-94740000D01*
X120614105Y-94740000D01*
X120792813Y-94704453D01*
X120961152Y-94634725D01*
X121112653Y-94533495D01*
X121241495Y-94404653D01*
X121342725Y-94253152D01*
X121412453Y-94084813D01*
X121448000Y-93906105D01*
X121448000Y-93723895D01*
X121412453Y-93545187D01*
X121342725Y-93376848D01*
X121241495Y-93225347D01*
X121112653Y-93096505D01*
X120961152Y-92995275D01*
X120792813Y-92925547D01*
X120614105Y-92890000D01*
X120431895Y-92890000D01*
X120253187Y-92925547D01*
X120084848Y-92995275D01*
X119933347Y-93096505D01*
X119804505Y-93225347D01*
X119703275Y-93376848D01*
X119633547Y-93545187D01*
X119598000Y-93723895D01*
X118908000Y-93723895D01*
X118872453Y-93545187D01*
X118802725Y-93376848D01*
X118701495Y-93225347D01*
X118572653Y-93096505D01*
X118421152Y-92995275D01*
X118252813Y-92925547D01*
X118074105Y-92890000D01*
X117891895Y-92890000D01*
X117713187Y-92925547D01*
X117544848Y-92995275D01*
X117393347Y-93096505D01*
X117390587Y-93099265D01*
X116775653Y-93099265D01*
X116633887Y-93004540D01*
X116465548Y-92934812D01*
X116286840Y-92899265D01*
X116104630Y-92899265D01*
X115925922Y-92934812D01*
X115757583Y-93004540D01*
X115606082Y-93105770D01*
X115477240Y-93234612D01*
X115376010Y-93386113D01*
X115306282Y-93554452D01*
X115270735Y-93733160D01*
X109637000Y-93733160D01*
X109637000Y-93723895D01*
X109601453Y-93545187D01*
X109531725Y-93376848D01*
X109430495Y-93225347D01*
X109301653Y-93096505D01*
X109150152Y-92995275D01*
X108981813Y-92925547D01*
X108803105Y-92890000D01*
X108620895Y-92890000D01*
X108442187Y-92925547D01*
X108273848Y-92995275D01*
X108161619Y-93070264D01*
X107406654Y-93070264D01*
X107264888Y-92975539D01*
X107096549Y-92905811D01*
X106917841Y-92870264D01*
X106735631Y-92870264D01*
X106556923Y-92905811D01*
X106388584Y-92975539D01*
X106237083Y-93076769D01*
X106108241Y-93205611D01*
X106007011Y-93357112D01*
X105937283Y-93525451D01*
X105901736Y-93704159D01*
X76850000Y-93704159D01*
X76850000Y-92119895D01*
X93826000Y-92119895D01*
X93826000Y-92302105D01*
X93861547Y-92480813D01*
X93931275Y-92649152D01*
X94032505Y-92800653D01*
X94161347Y-92929495D01*
X94312848Y-93030725D01*
X94481187Y-93100453D01*
X94659895Y-93136000D01*
X94842105Y-93136000D01*
X95020813Y-93100453D01*
X95189152Y-93030725D01*
X95340653Y-92929495D01*
X95469495Y-92800653D01*
X95570725Y-92649152D01*
X95640453Y-92480813D01*
X95676000Y-92302105D01*
X95676000Y-92293304D01*
X97393503Y-90575801D01*
X107860000Y-90575801D01*
X107860000Y-90876199D01*
X107918605Y-91170826D01*
X108033562Y-91448358D01*
X108200455Y-91698131D01*
X108412869Y-91910545D01*
X108662642Y-92077438D01*
X108940174Y-92192395D01*
X109234801Y-92251000D01*
X109535199Y-92251000D01*
X109829826Y-92192395D01*
X110107358Y-92077438D01*
X110357131Y-91910545D01*
X110569545Y-91698131D01*
X110736438Y-91448358D01*
X110851395Y-91170826D01*
X110895448Y-90949355D01*
X120138422Y-90949355D01*
X120236668Y-91131016D01*
X120464704Y-91236266D01*
X120708890Y-91295007D01*
X120959844Y-91304981D01*
X121207923Y-91265804D01*
X121443592Y-91178983D01*
X121533332Y-91131016D01*
X121631578Y-90949355D01*
X120885000Y-90202777D01*
X120138422Y-90949355D01*
X110895448Y-90949355D01*
X110910000Y-90876199D01*
X110910000Y-90575801D01*
X110851395Y-90281174D01*
X110736438Y-90003642D01*
X110569545Y-89753869D01*
X110357131Y-89541455D01*
X110107358Y-89374562D01*
X109829826Y-89259605D01*
X109535199Y-89201000D01*
X109234801Y-89201000D01*
X108940174Y-89259605D01*
X108662642Y-89374562D01*
X108412869Y-89541455D01*
X108200455Y-89753869D01*
X108033562Y-90003642D01*
X107918605Y-90281174D01*
X107860000Y-90575801D01*
X97393503Y-90575801D01*
X98400589Y-89568716D01*
X98567813Y-89535453D01*
X98736152Y-89465725D01*
X98887653Y-89364495D01*
X99016495Y-89235653D01*
X99117725Y-89084152D01*
X99187453Y-88915813D01*
X99223000Y-88737105D01*
X99223000Y-88554895D01*
X99187453Y-88376187D01*
X99117725Y-88207848D01*
X99016495Y-88056347D01*
X98887653Y-87927505D01*
X98736152Y-87826275D01*
X98567813Y-87756547D01*
X98389105Y-87721000D01*
X98206895Y-87721000D01*
X98028187Y-87756547D01*
X97859848Y-87826275D01*
X97708347Y-87927505D01*
X97579505Y-88056347D01*
X97478275Y-88207848D01*
X97408547Y-88376187D01*
X97375284Y-88543411D01*
X94625942Y-91292754D01*
X94481187Y-91321547D01*
X94312848Y-91391275D01*
X94161347Y-91492505D01*
X94032505Y-91621347D01*
X93931275Y-91772848D01*
X93861547Y-91941187D01*
X93826000Y-92119895D01*
X76850000Y-92119895D01*
X76850000Y-81954000D01*
X78023976Y-81954000D01*
X78023976Y-83654000D01*
X78036043Y-83776521D01*
X78071781Y-83894334D01*
X78129817Y-84002911D01*
X78207920Y-84098080D01*
X78303089Y-84176183D01*
X78411666Y-84234219D01*
X78529479Y-84269957D01*
X78652000Y-84282024D01*
X80352000Y-84282024D01*
X80474521Y-84269957D01*
X80592334Y-84234219D01*
X80700911Y-84176183D01*
X80796080Y-84098080D01*
X80874183Y-84002911D01*
X80932219Y-83894334D01*
X80958787Y-83806752D01*
X81101742Y-83949707D01*
X81343325Y-84111128D01*
X81611758Y-84222317D01*
X81896725Y-84279000D01*
X82187275Y-84279000D01*
X82472242Y-84222317D01*
X82688550Y-84132719D01*
X82704525Y-84145829D01*
X85783284Y-87224589D01*
X85816547Y-87391813D01*
X85886275Y-87560152D01*
X85987505Y-87711653D01*
X86116347Y-87840495D01*
X86267848Y-87941725D01*
X86436187Y-88011453D01*
X86614895Y-88047000D01*
X86797105Y-88047000D01*
X86975813Y-88011453D01*
X87144152Y-87941725D01*
X87295653Y-87840495D01*
X87424495Y-87711653D01*
X87525725Y-87560152D01*
X87595453Y-87391813D01*
X87631000Y-87213105D01*
X87631000Y-87030895D01*
X87595453Y-86852187D01*
X87525725Y-86683848D01*
X87424495Y-86532347D01*
X87295653Y-86403505D01*
X87144152Y-86302275D01*
X86975813Y-86232547D01*
X86812154Y-86199994D01*
X86824495Y-86187653D01*
X86925725Y-86036152D01*
X86995453Y-85867813D01*
X87005958Y-85815000D01*
X90352082Y-85815000D01*
X90493848Y-85909725D01*
X90662187Y-85979453D01*
X90840895Y-86015000D01*
X91023105Y-86015000D01*
X91201813Y-85979453D01*
X91370152Y-85909725D01*
X91521653Y-85808495D01*
X91650495Y-85679653D01*
X91751725Y-85528152D01*
X91821453Y-85359813D01*
X91857000Y-85181105D01*
X91857000Y-84998895D01*
X91821453Y-84820187D01*
X91751725Y-84651848D01*
X91650495Y-84500347D01*
X91521653Y-84371505D01*
X91370152Y-84270275D01*
X91201813Y-84200547D01*
X91023105Y-84165000D01*
X90840895Y-84165000D01*
X90662187Y-84200547D01*
X90493848Y-84270275D01*
X90352082Y-84365000D01*
X86649596Y-84365000D01*
X86613999Y-84361494D01*
X86578402Y-84365000D01*
X86578393Y-84365000D01*
X86471875Y-84375491D01*
X86335212Y-84416947D01*
X86209263Y-84484269D01*
X86126525Y-84552170D01*
X86126523Y-84552172D01*
X86098868Y-84574868D01*
X86076172Y-84602523D01*
X86003411Y-84675284D01*
X85836187Y-84708547D01*
X85667848Y-84778275D01*
X85516347Y-84879505D01*
X85502578Y-84893274D01*
X84861588Y-84252284D01*
X85012242Y-84222317D01*
X85280675Y-84111128D01*
X85522258Y-83949707D01*
X85727707Y-83744258D01*
X85852000Y-83558241D01*
X85976293Y-83744258D01*
X86181742Y-83949707D01*
X86423325Y-84111128D01*
X86691758Y-84222317D01*
X86976725Y-84279000D01*
X87267275Y-84279000D01*
X87552242Y-84222317D01*
X87820675Y-84111128D01*
X88062258Y-83949707D01*
X88267707Y-83744258D01*
X88392000Y-83558241D01*
X88516293Y-83744258D01*
X88721742Y-83949707D01*
X88963325Y-84111128D01*
X89231758Y-84222317D01*
X89516725Y-84279000D01*
X89807275Y-84279000D01*
X90092242Y-84222317D01*
X90360675Y-84111128D01*
X90602258Y-83949707D01*
X90807707Y-83744258D01*
X90969128Y-83502675D01*
X91070332Y-83258347D01*
X91101973Y-83343056D01*
X91228274Y-83547303D01*
X91391995Y-83722985D01*
X91586844Y-83863351D01*
X91805333Y-83963007D01*
X91887907Y-83988049D01*
X92077000Y-83928323D01*
X92077000Y-82929000D01*
X92057000Y-82929000D01*
X92057000Y-82679000D01*
X92077000Y-82679000D01*
X92077000Y-81679677D01*
X91887907Y-81619951D01*
X91805333Y-81644993D01*
X91586844Y-81744649D01*
X91391995Y-81885015D01*
X91228274Y-82060697D01*
X91101973Y-82264944D01*
X91070332Y-82349653D01*
X90969128Y-82105325D01*
X90807707Y-81863742D01*
X90602258Y-81658293D01*
X90360675Y-81496872D01*
X90117531Y-81396158D01*
X90277156Y-81323351D01*
X90472005Y-81182985D01*
X90635726Y-81007303D01*
X90762027Y-80803056D01*
X90846055Y-80578094D01*
X91017945Y-80578094D01*
X91101973Y-80803056D01*
X91228274Y-81007303D01*
X91391995Y-81182985D01*
X91586844Y-81323351D01*
X91805333Y-81423007D01*
X91887907Y-81448049D01*
X92077000Y-81388323D01*
X92077000Y-80389000D01*
X91077138Y-80389000D01*
X91017945Y-80578094D01*
X90846055Y-80578094D01*
X90786862Y-80389000D01*
X89787000Y-80389000D01*
X89787000Y-80409000D01*
X89537000Y-80409000D01*
X89537000Y-80389000D01*
X88537138Y-80389000D01*
X88477945Y-80578094D01*
X88561973Y-80803056D01*
X88688274Y-81007303D01*
X88851995Y-81182985D01*
X89046844Y-81323351D01*
X89206469Y-81396158D01*
X88963325Y-81496872D01*
X88721742Y-81658293D01*
X88516293Y-81863742D01*
X88392000Y-82049759D01*
X88267707Y-81863742D01*
X88062258Y-81658293D01*
X87820675Y-81496872D01*
X87577531Y-81396158D01*
X87737156Y-81323351D01*
X87932005Y-81182985D01*
X88095726Y-81007303D01*
X88222027Y-80803056D01*
X88306055Y-80578094D01*
X88246862Y-80389000D01*
X87247000Y-80389000D01*
X87247000Y-80409000D01*
X86997000Y-80409000D01*
X86997000Y-80389000D01*
X85997138Y-80389000D01*
X85937945Y-80578094D01*
X86021973Y-80803056D01*
X86148274Y-81007303D01*
X86311995Y-81182985D01*
X86506844Y-81323351D01*
X86666469Y-81396158D01*
X86423325Y-81496872D01*
X86181742Y-81658293D01*
X85976293Y-81863742D01*
X85852000Y-82049759D01*
X85727707Y-81863742D01*
X85522258Y-81658293D01*
X85280675Y-81496872D01*
X85037531Y-81396158D01*
X85197156Y-81323351D01*
X85392005Y-81182985D01*
X85555726Y-81007303D01*
X85682027Y-80803056D01*
X85766055Y-80578094D01*
X85706862Y-80389000D01*
X84707000Y-80389000D01*
X84707000Y-80409000D01*
X84457000Y-80409000D01*
X84457000Y-80389000D01*
X83457138Y-80389000D01*
X83397945Y-80578094D01*
X83481973Y-80803056D01*
X83608274Y-81007303D01*
X83771995Y-81182985D01*
X83966844Y-81323351D01*
X84126469Y-81396158D01*
X83883325Y-81496872D01*
X83641742Y-81658293D01*
X83632671Y-81667364D01*
X82994927Y-81029621D01*
X83015726Y-81007303D01*
X83142027Y-80803056D01*
X83226055Y-80578094D01*
X83166862Y-80389000D01*
X82167000Y-80389000D01*
X82167000Y-80409000D01*
X81917000Y-80409000D01*
X81917000Y-80389000D01*
X81897000Y-80389000D01*
X81897000Y-80139000D01*
X81917000Y-80139000D01*
X81917000Y-79139677D01*
X82167000Y-79139677D01*
X82167000Y-80139000D01*
X83166862Y-80139000D01*
X83226055Y-79949906D01*
X83397945Y-79949906D01*
X83457138Y-80139000D01*
X84457000Y-80139000D01*
X84457000Y-79139677D01*
X84707000Y-79139677D01*
X84707000Y-80139000D01*
X85706862Y-80139000D01*
X85766055Y-79949906D01*
X85937945Y-79949906D01*
X85997138Y-80139000D01*
X86997000Y-80139000D01*
X86997000Y-79139677D01*
X87247000Y-79139677D01*
X87247000Y-80139000D01*
X88246862Y-80139000D01*
X88306055Y-79949906D01*
X88477945Y-79949906D01*
X88537138Y-80139000D01*
X89537000Y-80139000D01*
X89537000Y-79139677D01*
X89787000Y-79139677D01*
X89787000Y-80139000D01*
X90786862Y-80139000D01*
X90846055Y-79949906D01*
X91017945Y-79949906D01*
X91077138Y-80139000D01*
X92077000Y-80139000D01*
X92077000Y-79139677D01*
X92327000Y-79139677D01*
X92327000Y-80139000D01*
X92347000Y-80139000D01*
X92347000Y-80389000D01*
X92327000Y-80389000D01*
X92327000Y-81388323D01*
X92516093Y-81448049D01*
X92598667Y-81423007D01*
X92817156Y-81323351D01*
X93012005Y-81182985D01*
X93175726Y-81007303D01*
X93302027Y-80803056D01*
X93333668Y-80718347D01*
X93434872Y-80962675D01*
X93596293Y-81204258D01*
X93801742Y-81409707D01*
X93987759Y-81534000D01*
X93801742Y-81658293D01*
X93596293Y-81863742D01*
X93434872Y-82105325D01*
X93333668Y-82349653D01*
X93302027Y-82264944D01*
X93175726Y-82060697D01*
X93012005Y-81885015D01*
X92817156Y-81744649D01*
X92598667Y-81644993D01*
X92516093Y-81619951D01*
X92327000Y-81679677D01*
X92327000Y-82679000D01*
X92347000Y-82679000D01*
X92347000Y-82929000D01*
X92327000Y-82929000D01*
X92327000Y-83928323D01*
X92516093Y-83988049D01*
X92598667Y-83963007D01*
X92817156Y-83863351D01*
X93012005Y-83722985D01*
X93175726Y-83547303D01*
X93302027Y-83343056D01*
X93333668Y-83258347D01*
X93434872Y-83502675D01*
X93596293Y-83744258D01*
X93801742Y-83949707D01*
X94043325Y-84111128D01*
X94311758Y-84222317D01*
X94596725Y-84279000D01*
X94887275Y-84279000D01*
X95172242Y-84222317D01*
X95440675Y-84111128D01*
X95682258Y-83949707D01*
X95887707Y-83744258D01*
X96012000Y-83558241D01*
X96136293Y-83744258D01*
X96341742Y-83949707D01*
X96583325Y-84111128D01*
X96851758Y-84222317D01*
X97136725Y-84279000D01*
X97427275Y-84279000D01*
X97712242Y-84222317D01*
X97980675Y-84111128D01*
X98222258Y-83949707D01*
X98427707Y-83744258D01*
X98552000Y-83558241D01*
X98676293Y-83744258D01*
X98881742Y-83949707D01*
X99123325Y-84111128D01*
X99391758Y-84222317D01*
X99676725Y-84279000D01*
X99878790Y-84279000D01*
X99750082Y-84365000D01*
X96591918Y-84365000D01*
X96450152Y-84270275D01*
X96281813Y-84200547D01*
X96103105Y-84165000D01*
X95920895Y-84165000D01*
X95742187Y-84200547D01*
X95573848Y-84270275D01*
X95422347Y-84371505D01*
X95293505Y-84500347D01*
X95192275Y-84651848D01*
X95122547Y-84820187D01*
X95087000Y-84998895D01*
X95087000Y-85181105D01*
X95122547Y-85359813D01*
X95192275Y-85528152D01*
X95193947Y-85530654D01*
X95146810Y-85644453D01*
X95111263Y-85823161D01*
X95111263Y-86005371D01*
X95146810Y-86184079D01*
X95213903Y-86346056D01*
X95157452Y-86482340D01*
X95121905Y-86661048D01*
X95121905Y-86843258D01*
X95157452Y-87021966D01*
X95227180Y-87190305D01*
X95328410Y-87341806D01*
X95457252Y-87470648D01*
X95608753Y-87571878D01*
X95777092Y-87641606D01*
X95955800Y-87677153D01*
X96138010Y-87677153D01*
X96316718Y-87641606D01*
X96485057Y-87571878D01*
X96626823Y-87477153D01*
X99718514Y-87477153D01*
X99858377Y-87570607D01*
X100026716Y-87640335D01*
X100205424Y-87675882D01*
X100387634Y-87675882D01*
X100566342Y-87640335D01*
X100734681Y-87570607D01*
X100886182Y-87469377D01*
X101015024Y-87340535D01*
X101116254Y-87189034D01*
X101185982Y-87020695D01*
X101221529Y-86841987D01*
X101221529Y-86659777D01*
X101185982Y-86481069D01*
X101130770Y-86347775D01*
X101198376Y-86184560D01*
X101233923Y-86005852D01*
X101233923Y-85823642D01*
X101198376Y-85644934D01*
X101149864Y-85527816D01*
X101150616Y-85526000D01*
X106706976Y-85526000D01*
X106706976Y-87726000D01*
X106734415Y-88004594D01*
X106815678Y-88272481D01*
X106947641Y-88519368D01*
X107125235Y-88735765D01*
X107341632Y-88913359D01*
X107588519Y-89045322D01*
X107856406Y-89126585D01*
X108135000Y-89154024D01*
X109735000Y-89154024D01*
X110013594Y-89126585D01*
X110281481Y-89045322D01*
X110528368Y-88913359D01*
X110744765Y-88735765D01*
X110922359Y-88519368D01*
X111054322Y-88272481D01*
X111135585Y-88004594D01*
X111163024Y-87726000D01*
X111163024Y-85526000D01*
X118706976Y-85526000D01*
X118706976Y-87726000D01*
X118734415Y-88004594D01*
X118815678Y-88272481D01*
X118947641Y-88519368D01*
X119125235Y-88735765D01*
X119341632Y-88913359D01*
X119588519Y-89045322D01*
X119856406Y-89126585D01*
X119962932Y-89137077D01*
X119891115Y-89208894D01*
X119961644Y-89279423D01*
X119779984Y-89377668D01*
X119674734Y-89605704D01*
X119615993Y-89849890D01*
X119606019Y-90100844D01*
X119645196Y-90348923D01*
X119732017Y-90584592D01*
X119779984Y-90674332D01*
X119961645Y-90772578D01*
X120708223Y-90026000D01*
X120694081Y-90011858D01*
X120870858Y-89835081D01*
X120885000Y-89849223D01*
X120899142Y-89835081D01*
X121075919Y-90011858D01*
X121061777Y-90026000D01*
X121808355Y-90772578D01*
X121990016Y-90674332D01*
X122095266Y-90446296D01*
X122154007Y-90202110D01*
X122163981Y-89951156D01*
X122124804Y-89703077D01*
X122037983Y-89467408D01*
X121990016Y-89377668D01*
X121808356Y-89279423D01*
X121878885Y-89208894D01*
X121816034Y-89146043D01*
X122013594Y-89126585D01*
X122281481Y-89045322D01*
X122528368Y-88913359D01*
X122744765Y-88735765D01*
X122922359Y-88519368D01*
X123054322Y-88272481D01*
X123135585Y-88004594D01*
X123163024Y-87726000D01*
X123163024Y-85526000D01*
X123135585Y-85247406D01*
X123054322Y-84979519D01*
X122922359Y-84732632D01*
X122744765Y-84516235D01*
X122528368Y-84338641D01*
X122281481Y-84206678D01*
X122013594Y-84125415D01*
X121735000Y-84097976D01*
X120135000Y-84097976D01*
X119856406Y-84125415D01*
X119588519Y-84206678D01*
X119341632Y-84338641D01*
X119125235Y-84516235D01*
X118947641Y-84732632D01*
X118815678Y-84979519D01*
X118734415Y-85247406D01*
X118706976Y-85526000D01*
X111163024Y-85526000D01*
X111135585Y-85247406D01*
X111054322Y-84979519D01*
X110922359Y-84732632D01*
X110744765Y-84516235D01*
X110528368Y-84338641D01*
X110281481Y-84206678D01*
X110013594Y-84125415D01*
X109735000Y-84097976D01*
X108135000Y-84097976D01*
X107856406Y-84125415D01*
X107588519Y-84206678D01*
X107341632Y-84338641D01*
X107125235Y-84516235D01*
X106947641Y-84732632D01*
X106815678Y-84979519D01*
X106734415Y-85247406D01*
X106706976Y-85526000D01*
X101150616Y-85526000D01*
X101219453Y-85359813D01*
X101255000Y-85181105D01*
X101255000Y-84998895D01*
X101219453Y-84820187D01*
X101149725Y-84651848D01*
X101048495Y-84500347D01*
X100919653Y-84371505D01*
X100768152Y-84270275D01*
X100599813Y-84200547D01*
X100421105Y-84165000D01*
X100390617Y-84165000D01*
X100520675Y-84111128D01*
X100762258Y-83949707D01*
X100967707Y-83744258D01*
X101129128Y-83502675D01*
X101240317Y-83234242D01*
X101297000Y-82949275D01*
X101297000Y-82658725D01*
X101240317Y-82373758D01*
X101199742Y-82275801D01*
X107860000Y-82275801D01*
X107860000Y-82576199D01*
X107918605Y-82870826D01*
X108033562Y-83148358D01*
X108200455Y-83398131D01*
X108412869Y-83610545D01*
X108662642Y-83777438D01*
X108940174Y-83892395D01*
X109234801Y-83951000D01*
X109535199Y-83951000D01*
X109829826Y-83892395D01*
X110107358Y-83777438D01*
X110357131Y-83610545D01*
X110569545Y-83398131D01*
X110736438Y-83148358D01*
X110851395Y-82870826D01*
X110910000Y-82576199D01*
X110910000Y-82275801D01*
X118960000Y-82275801D01*
X118960000Y-82576199D01*
X119018605Y-82870826D01*
X119133562Y-83148358D01*
X119300455Y-83398131D01*
X119512869Y-83610545D01*
X119762642Y-83777438D01*
X120040174Y-83892395D01*
X120334801Y-83951000D01*
X120635199Y-83951000D01*
X120929826Y-83892395D01*
X121207358Y-83777438D01*
X121457131Y-83610545D01*
X121669545Y-83398131D01*
X121836438Y-83148358D01*
X121951395Y-82870826D01*
X121988216Y-82685712D01*
X122243000Y-82685712D01*
X122243000Y-82922288D01*
X122289154Y-83154319D01*
X122379688Y-83372887D01*
X122511122Y-83569593D01*
X122678407Y-83736878D01*
X122875113Y-83868312D01*
X123093681Y-83958846D01*
X123325712Y-84005000D01*
X123562288Y-84005000D01*
X123794319Y-83958846D01*
X124012887Y-83868312D01*
X124209593Y-83736878D01*
X124376878Y-83569593D01*
X124508312Y-83372887D01*
X124598846Y-83154319D01*
X124645000Y-82922288D01*
X124645000Y-82685712D01*
X124598846Y-82453681D01*
X124508312Y-82235113D01*
X124376878Y-82038407D01*
X124209593Y-81871122D01*
X124012887Y-81739688D01*
X123794319Y-81649154D01*
X123562288Y-81603000D01*
X123325712Y-81603000D01*
X123093681Y-81649154D01*
X122875113Y-81739688D01*
X122678407Y-81871122D01*
X122511122Y-82038407D01*
X122379688Y-82235113D01*
X122289154Y-82453681D01*
X122243000Y-82685712D01*
X121988216Y-82685712D01*
X122010000Y-82576199D01*
X122010000Y-82275801D01*
X121951395Y-81981174D01*
X121836438Y-81703642D01*
X121669545Y-81453869D01*
X121457131Y-81241455D01*
X121207358Y-81074562D01*
X120929826Y-80959605D01*
X120635199Y-80901000D01*
X120334801Y-80901000D01*
X120040174Y-80959605D01*
X119762642Y-81074562D01*
X119512869Y-81241455D01*
X119300455Y-81453869D01*
X119133562Y-81703642D01*
X119018605Y-81981174D01*
X118960000Y-82275801D01*
X110910000Y-82275801D01*
X110851395Y-81981174D01*
X110736438Y-81703642D01*
X110569545Y-81453869D01*
X110357131Y-81241455D01*
X110107358Y-81074562D01*
X109829826Y-80959605D01*
X109535199Y-80901000D01*
X109234801Y-80901000D01*
X108940174Y-80959605D01*
X108662642Y-81074562D01*
X108412869Y-81241455D01*
X108200455Y-81453869D01*
X108033562Y-81703642D01*
X107918605Y-81981174D01*
X107860000Y-82275801D01*
X101199742Y-82275801D01*
X101129128Y-82105325D01*
X100967707Y-81863742D01*
X100762258Y-81658293D01*
X100576241Y-81534000D01*
X100762258Y-81409707D01*
X100967707Y-81204258D01*
X101129128Y-80962675D01*
X101240317Y-80694242D01*
X101249245Y-80649355D01*
X114188422Y-80649355D01*
X114286668Y-80831016D01*
X114514704Y-80936266D01*
X114758890Y-80995007D01*
X115009844Y-81004981D01*
X115257923Y-80965804D01*
X115493592Y-80878983D01*
X115583332Y-80831016D01*
X115681578Y-80649355D01*
X114935000Y-79902777D01*
X114188422Y-80649355D01*
X101249245Y-80649355D01*
X101297000Y-80409275D01*
X101297000Y-80118725D01*
X101240317Y-79833758D01*
X101226684Y-79800844D01*
X113656019Y-79800844D01*
X113695196Y-80048923D01*
X113782017Y-80284592D01*
X113829984Y-80374332D01*
X114011645Y-80472578D01*
X114758223Y-79726000D01*
X115111777Y-79726000D01*
X115858355Y-80472578D01*
X116040016Y-80374332D01*
X116145266Y-80146296D01*
X116204007Y-79902110D01*
X116213981Y-79651156D01*
X116174804Y-79403077D01*
X116101870Y-79205102D01*
X121300000Y-79205102D01*
X121300000Y-79544898D01*
X121366290Y-79878164D01*
X121496324Y-80192094D01*
X121685105Y-80474624D01*
X121925376Y-80714895D01*
X122207906Y-80903676D01*
X122521836Y-81033710D01*
X122855102Y-81100000D01*
X123194898Y-81100000D01*
X123528164Y-81033710D01*
X123842094Y-80903676D01*
X124124624Y-80714895D01*
X124364895Y-80474624D01*
X124553676Y-80192094D01*
X124683710Y-79878164D01*
X124750000Y-79544898D01*
X124750000Y-79205102D01*
X124683710Y-78871836D01*
X124553676Y-78557906D01*
X124364895Y-78275376D01*
X124124624Y-78035105D01*
X123842094Y-77846324D01*
X123528164Y-77716290D01*
X123194898Y-77650000D01*
X122855102Y-77650000D01*
X122521836Y-77716290D01*
X122207906Y-77846324D01*
X121925376Y-78035105D01*
X121685105Y-78275376D01*
X121496324Y-78557906D01*
X121366290Y-78871836D01*
X121300000Y-79205102D01*
X116101870Y-79205102D01*
X116087983Y-79167408D01*
X116040016Y-79077668D01*
X115858355Y-78979422D01*
X115111777Y-79726000D01*
X114758223Y-79726000D01*
X114011645Y-78979422D01*
X113829984Y-79077668D01*
X113724734Y-79305704D01*
X113665993Y-79549890D01*
X113656019Y-79800844D01*
X101226684Y-79800844D01*
X101129128Y-79565325D01*
X100967707Y-79323742D01*
X100762258Y-79118293D01*
X100520675Y-78956872D01*
X100252242Y-78845683D01*
X100035874Y-78802645D01*
X114188422Y-78802645D01*
X114935000Y-79549223D01*
X115681578Y-78802645D01*
X115583332Y-78620984D01*
X115355296Y-78515734D01*
X115111110Y-78456993D01*
X114860156Y-78447019D01*
X114612077Y-78486196D01*
X114376408Y-78573017D01*
X114286668Y-78620984D01*
X114188422Y-78802645D01*
X100035874Y-78802645D01*
X99967275Y-78789000D01*
X99676725Y-78789000D01*
X99391758Y-78845683D01*
X99123325Y-78956872D01*
X98881742Y-79118293D01*
X98676293Y-79323742D01*
X98552000Y-79509759D01*
X98427707Y-79323742D01*
X98222258Y-79118293D01*
X97980675Y-78956872D01*
X97712242Y-78845683D01*
X97427275Y-78789000D01*
X97136725Y-78789000D01*
X96851758Y-78845683D01*
X96583325Y-78956872D01*
X96341742Y-79118293D01*
X96136293Y-79323742D01*
X96012000Y-79509759D01*
X95887707Y-79323742D01*
X95682258Y-79118293D01*
X95440675Y-78956872D01*
X95172242Y-78845683D01*
X94887275Y-78789000D01*
X94596725Y-78789000D01*
X94311758Y-78845683D01*
X94043325Y-78956872D01*
X93801742Y-79118293D01*
X93596293Y-79323742D01*
X93434872Y-79565325D01*
X93333668Y-79809653D01*
X93302027Y-79724944D01*
X93175726Y-79520697D01*
X93012005Y-79345015D01*
X92817156Y-79204649D01*
X92598667Y-79104993D01*
X92516093Y-79079951D01*
X92327000Y-79139677D01*
X92077000Y-79139677D01*
X91887907Y-79079951D01*
X91805333Y-79104993D01*
X91586844Y-79204649D01*
X91391995Y-79345015D01*
X91228274Y-79520697D01*
X91101973Y-79724944D01*
X91017945Y-79949906D01*
X90846055Y-79949906D01*
X90762027Y-79724944D01*
X90635726Y-79520697D01*
X90472005Y-79345015D01*
X90277156Y-79204649D01*
X90058667Y-79104993D01*
X89976093Y-79079951D01*
X89787000Y-79139677D01*
X89537000Y-79139677D01*
X89347907Y-79079951D01*
X89265333Y-79104993D01*
X89046844Y-79204649D01*
X88851995Y-79345015D01*
X88688274Y-79520697D01*
X88561973Y-79724944D01*
X88477945Y-79949906D01*
X88306055Y-79949906D01*
X88222027Y-79724944D01*
X88095726Y-79520697D01*
X87932005Y-79345015D01*
X87737156Y-79204649D01*
X87518667Y-79104993D01*
X87436093Y-79079951D01*
X87247000Y-79139677D01*
X86997000Y-79139677D01*
X86807907Y-79079951D01*
X86725333Y-79104993D01*
X86506844Y-79204649D01*
X86311995Y-79345015D01*
X86148274Y-79520697D01*
X86021973Y-79724944D01*
X85937945Y-79949906D01*
X85766055Y-79949906D01*
X85682027Y-79724944D01*
X85555726Y-79520697D01*
X85392005Y-79345015D01*
X85197156Y-79204649D01*
X84978667Y-79104993D01*
X84896093Y-79079951D01*
X84707000Y-79139677D01*
X84457000Y-79139677D01*
X84267907Y-79079951D01*
X84185333Y-79104993D01*
X83966844Y-79204649D01*
X83771995Y-79345015D01*
X83608274Y-79520697D01*
X83481973Y-79724944D01*
X83397945Y-79949906D01*
X83226055Y-79949906D01*
X83142027Y-79724944D01*
X83015726Y-79520697D01*
X82852005Y-79345015D01*
X82657156Y-79204649D01*
X82438667Y-79104993D01*
X82356093Y-79079951D01*
X82167000Y-79139677D01*
X81917000Y-79139677D01*
X81727907Y-79079951D01*
X81645333Y-79104993D01*
X81426844Y-79204649D01*
X81231995Y-79345015D01*
X81068274Y-79520697D01*
X80941973Y-79724944D01*
X80910332Y-79809653D01*
X80809128Y-79565325D01*
X80647707Y-79323742D01*
X80442258Y-79118293D01*
X80200675Y-78956872D01*
X79932242Y-78845683D01*
X79647275Y-78789000D01*
X79356725Y-78789000D01*
X79071758Y-78845683D01*
X78803325Y-78956872D01*
X78561742Y-79118293D01*
X78356293Y-79323742D01*
X78194872Y-79565325D01*
X78083683Y-79833758D01*
X78027000Y-80118725D01*
X78027000Y-80409275D01*
X78083683Y-80694242D01*
X78194872Y-80962675D01*
X78356293Y-81204258D01*
X78499248Y-81347213D01*
X78411666Y-81373781D01*
X78303089Y-81431817D01*
X78207920Y-81509920D01*
X78129817Y-81605089D01*
X78071781Y-81713666D01*
X78036043Y-81831479D01*
X78023976Y-81954000D01*
X76850000Y-81954000D01*
X76850000Y-78731792D01*
X76888291Y-78341273D01*
X76992471Y-77996209D01*
X77161691Y-77677951D01*
X77389507Y-77398622D01*
X77667237Y-77168864D01*
X77984306Y-76997426D01*
X78328633Y-76890839D01*
X78717191Y-76850000D01*
X123668208Y-76850000D01*
X124058727Y-76888291D01*
G04 #@! TA.AperFunction,Conductor*
D17*
G36*
X124058727Y-76888291D02*
G01*
X124403791Y-76992471D01*
X124722049Y-77161691D01*
X125001378Y-77389507D01*
X125231136Y-77667237D01*
X125402574Y-77984306D01*
X125509161Y-78328633D01*
X125550001Y-78717200D01*
X125550000Y-108343168D01*
X125538970Y-108326660D01*
X125173340Y-107961030D01*
X124743404Y-107673755D01*
X124265684Y-107475878D01*
X123758540Y-107375000D01*
X123241460Y-107375000D01*
X122734316Y-107475878D01*
X122256596Y-107673755D01*
X121826660Y-107961030D01*
X121461030Y-108326660D01*
X121173755Y-108756596D01*
X120975878Y-109234316D01*
X120875000Y-109741460D01*
X120875000Y-110258540D01*
X120975878Y-110765684D01*
X121173755Y-111243404D01*
X121461030Y-111673340D01*
X121826660Y-112038970D01*
X122256596Y-112326245D01*
X122734316Y-112524122D01*
X123241460Y-112625000D01*
X123758540Y-112625000D01*
X124265684Y-112524122D01*
X124743404Y-112326245D01*
X125173340Y-112038970D01*
X125538970Y-111673340D01*
X125550000Y-111656832D01*
X125550000Y-123668208D01*
X125511709Y-124058728D01*
X125407528Y-124403793D01*
X125238308Y-124722049D01*
X125010494Y-125001378D01*
X124732763Y-125231136D01*
X124415698Y-125402573D01*
X124071366Y-125509161D01*
X123682809Y-125550000D01*
X78731792Y-125550000D01*
X78341272Y-125511709D01*
X77996207Y-125407528D01*
X77677951Y-125238308D01*
X77398622Y-125010494D01*
X77168864Y-124732763D01*
X76997427Y-124415698D01*
X76890839Y-124071366D01*
X76850000Y-123682809D01*
X76850000Y-122855102D01*
X77650000Y-122855102D01*
X77650000Y-123194898D01*
X77716290Y-123528164D01*
X77846324Y-123842094D01*
X78035105Y-124124624D01*
X78275376Y-124364895D01*
X78557906Y-124553676D01*
X78871836Y-124683710D01*
X79205102Y-124750000D01*
X79544898Y-124750000D01*
X79878164Y-124683710D01*
X80192094Y-124553676D01*
X80474624Y-124364895D01*
X80714895Y-124124624D01*
X80903676Y-123842094D01*
X81033710Y-123528164D01*
X81100000Y-123194898D01*
X81100000Y-122855102D01*
X121300000Y-122855102D01*
X121300000Y-123194898D01*
X121366290Y-123528164D01*
X121496324Y-123842094D01*
X121685105Y-124124624D01*
X121925376Y-124364895D01*
X122207906Y-124553676D01*
X122521836Y-124683710D01*
X122855102Y-124750000D01*
X123194898Y-124750000D01*
X123528164Y-124683710D01*
X123842094Y-124553676D01*
X124124624Y-124364895D01*
X124364895Y-124124624D01*
X124553676Y-123842094D01*
X124683710Y-123528164D01*
X124750000Y-123194898D01*
X124750000Y-122855102D01*
X124683710Y-122521836D01*
X124553676Y-122207906D01*
X124364895Y-121925376D01*
X124124624Y-121685105D01*
X123842094Y-121496324D01*
X123528164Y-121366290D01*
X123194898Y-121300000D01*
X122855102Y-121300000D01*
X122521836Y-121366290D01*
X122207906Y-121496324D01*
X121925376Y-121685105D01*
X121685105Y-121925376D01*
X121496324Y-122207906D01*
X121366290Y-122521836D01*
X121300000Y-122855102D01*
X81100000Y-122855102D01*
X81033710Y-122521836D01*
X80903676Y-122207906D01*
X80714895Y-121925376D01*
X80474624Y-121685105D01*
X80192094Y-121496324D01*
X79878164Y-121366290D01*
X79544898Y-121300000D01*
X79205102Y-121300000D01*
X78871836Y-121366290D01*
X78557906Y-121496324D01*
X78275376Y-121685105D01*
X78035105Y-121925376D01*
X77846324Y-122207906D01*
X77716290Y-122521836D01*
X77650000Y-122855102D01*
X76850000Y-122855102D01*
X76850000Y-120531712D01*
X80587000Y-120531712D01*
X80587000Y-120768288D01*
X80633154Y-121000319D01*
X80723688Y-121218887D01*
X80855122Y-121415593D01*
X81022407Y-121582878D01*
X81219113Y-121714312D01*
X81437681Y-121804846D01*
X81669712Y-121851000D01*
X81906288Y-121851000D01*
X82138319Y-121804846D01*
X82356887Y-121714312D01*
X82553593Y-121582878D01*
X82560000Y-121576471D01*
X82560000Y-121755000D01*
X82572009Y-121876931D01*
X82607575Y-121994177D01*
X82665331Y-122102231D01*
X82743058Y-122196942D01*
X82837769Y-122274669D01*
X82945823Y-122332425D01*
X83063069Y-122367991D01*
X83185000Y-122380000D01*
X95885000Y-122380000D01*
X96006931Y-122367991D01*
X96124177Y-122332425D01*
X96232231Y-122274669D01*
X96326942Y-122196942D01*
X96404669Y-122102231D01*
X96462425Y-121994177D01*
X96497991Y-121876931D01*
X96510000Y-121755000D01*
X96510000Y-113500000D01*
X97157000Y-113500000D01*
X97157000Y-121755000D01*
X97169163Y-121878492D01*
X97205184Y-121997239D01*
X97263680Y-122106676D01*
X97342401Y-122202599D01*
X97438324Y-122281320D01*
X97547761Y-122339816D01*
X97666508Y-122375837D01*
X97790000Y-122388000D01*
X120650000Y-122388000D01*
X120773492Y-122375837D01*
X120892239Y-122339816D01*
X121001676Y-122281320D01*
X121097599Y-122202599D01*
X121176320Y-122106676D01*
X121234816Y-121997239D01*
X121270837Y-121878492D01*
X121283000Y-121755000D01*
X121283000Y-113500000D01*
X121270837Y-113376508D01*
X121234816Y-113257761D01*
X121176320Y-113148324D01*
X121097599Y-113052401D01*
X121001676Y-112973680D01*
X120892239Y-112915184D01*
X120773492Y-112879163D01*
X120650000Y-112867000D01*
X97790000Y-112867000D01*
X97666508Y-112879163D01*
X97547761Y-112915184D01*
X97438324Y-112973680D01*
X97342401Y-113052401D01*
X97263680Y-113148324D01*
X97205184Y-113257761D01*
X97169163Y-113376508D01*
X97157000Y-113500000D01*
X96510000Y-113500000D01*
X96510000Y-111595000D01*
X96497991Y-111473069D01*
X96462425Y-111355823D01*
X96404669Y-111247769D01*
X96326942Y-111153058D01*
X95999357Y-110825473D01*
X96024122Y-110765684D01*
X96125000Y-110258540D01*
X96125000Y-109741460D01*
X96024122Y-109234316D01*
X95826245Y-108756596D01*
X95538970Y-108326660D01*
X95173340Y-107961030D01*
X94743404Y-107673755D01*
X94265684Y-107475878D01*
X93758540Y-107375000D01*
X93241460Y-107375000D01*
X92734316Y-107475878D01*
X92674527Y-107500643D01*
X91246942Y-106073058D01*
X91152231Y-105995331D01*
X91044177Y-105937575D01*
X90926931Y-105902009D01*
X90805000Y-105890000D01*
X82550000Y-105890000D01*
X82428069Y-105902009D01*
X82310823Y-105937575D01*
X82202769Y-105995331D01*
X82108058Y-106073058D01*
X82030331Y-106167769D01*
X81972575Y-106275823D01*
X81937009Y-106393069D01*
X81925000Y-106515000D01*
X81925000Y-112230000D01*
X81937009Y-112351931D01*
X81972575Y-112469177D01*
X82030331Y-112577231D01*
X82108058Y-112671942D01*
X82560000Y-113123884D01*
X82560000Y-119723529D01*
X82553593Y-119717122D01*
X82356887Y-119585688D01*
X82138319Y-119495154D01*
X81906288Y-119449000D01*
X81669712Y-119449000D01*
X81437681Y-119495154D01*
X81219113Y-119585688D01*
X81022407Y-119717122D01*
X80855122Y-119884407D01*
X80723688Y-120081113D01*
X80633154Y-120299681D01*
X80587000Y-120531712D01*
X76850000Y-120531712D01*
X76850000Y-104406140D01*
X84200637Y-104406140D01*
X84323053Y-104608275D01*
X84585218Y-104733529D01*
X84866781Y-104805231D01*
X85156922Y-104820625D01*
X85444492Y-104779120D01*
X85718439Y-104682310D01*
X85856947Y-104608275D01*
X85979363Y-104406140D01*
X85090000Y-103516777D01*
X84200637Y-104406140D01*
X76850000Y-104406140D01*
X76850000Y-103406922D01*
X83609375Y-103406922D01*
X83650880Y-103694492D01*
X83747690Y-103968439D01*
X83821725Y-104106947D01*
X84023860Y-104229363D01*
X84913223Y-103340000D01*
X85266777Y-103340000D01*
X86156140Y-104229363D01*
X86358275Y-104106947D01*
X86483529Y-103844782D01*
X86555231Y-103563219D01*
X86570625Y-103273078D01*
X86529120Y-102985508D01*
X86432310Y-102711561D01*
X86358275Y-102573053D01*
X86156140Y-102450637D01*
X85266777Y-103340000D01*
X84913223Y-103340000D01*
X84023860Y-102450637D01*
X83821725Y-102573053D01*
X83696471Y-102835218D01*
X83624769Y-103116781D01*
X83609375Y-103406922D01*
X76850000Y-103406922D01*
X76850000Y-102273860D01*
X84200637Y-102273860D01*
X85090000Y-103163223D01*
X85979363Y-102273860D01*
X85856947Y-102071725D01*
X85594782Y-101946471D01*
X85313219Y-101874769D01*
X85023078Y-101859375D01*
X84735508Y-101900880D01*
X84461561Y-101997690D01*
X84323053Y-102071725D01*
X84200637Y-102273860D01*
X76850000Y-102273860D01*
X76850000Y-93704159D01*
X105901736Y-93704159D01*
X105901736Y-93886369D01*
X105937283Y-94065077D01*
X106007011Y-94233416D01*
X106108241Y-94384917D01*
X106237083Y-94513759D01*
X106388584Y-94614989D01*
X106556923Y-94684717D01*
X106735631Y-94720264D01*
X106917841Y-94720264D01*
X107096549Y-94684717D01*
X107264888Y-94614989D01*
X107406654Y-94520264D01*
X108109116Y-94520264D01*
X108122347Y-94533495D01*
X108273848Y-94634725D01*
X108442187Y-94704453D01*
X108620895Y-94740000D01*
X108803105Y-94740000D01*
X108981813Y-94704453D01*
X109150152Y-94634725D01*
X109301653Y-94533495D01*
X109430495Y-94404653D01*
X109531725Y-94253152D01*
X109601453Y-94084813D01*
X109637000Y-93906105D01*
X109637000Y-93733160D01*
X115270735Y-93733160D01*
X115270735Y-93915370D01*
X115306282Y-94094078D01*
X115376010Y-94262417D01*
X115477240Y-94413918D01*
X115606082Y-94542760D01*
X115757583Y-94643990D01*
X115925922Y-94713718D01*
X116104630Y-94749265D01*
X116286840Y-94749265D01*
X116465548Y-94713718D01*
X116633887Y-94643990D01*
X116775653Y-94549265D01*
X117416948Y-94549265D01*
X117544848Y-94634725D01*
X117713187Y-94704453D01*
X117891895Y-94740000D01*
X118074105Y-94740000D01*
X118252813Y-94704453D01*
X118421152Y-94634725D01*
X118572653Y-94533495D01*
X118701495Y-94404653D01*
X118802725Y-94253152D01*
X118872453Y-94084813D01*
X118908000Y-93906105D01*
X118908000Y-93723895D01*
X119598000Y-93723895D01*
X119598000Y-93906105D01*
X119633547Y-94084813D01*
X119703275Y-94253152D01*
X119804505Y-94404653D01*
X119933347Y-94533495D01*
X120084848Y-94634725D01*
X120253187Y-94704453D01*
X120431895Y-94740000D01*
X120614105Y-94740000D01*
X120792813Y-94704453D01*
X120961152Y-94634725D01*
X121112653Y-94533495D01*
X121241495Y-94404653D01*
X121342725Y-94253152D01*
X121412453Y-94084813D01*
X121448000Y-93906105D01*
X121448000Y-93723895D01*
X121412453Y-93545187D01*
X121342725Y-93376848D01*
X121241495Y-93225347D01*
X121112653Y-93096505D01*
X120961152Y-92995275D01*
X120792813Y-92925547D01*
X120614105Y-92890000D01*
X120431895Y-92890000D01*
X120253187Y-92925547D01*
X120084848Y-92995275D01*
X119933347Y-93096505D01*
X119804505Y-93225347D01*
X119703275Y-93376848D01*
X119633547Y-93545187D01*
X119598000Y-93723895D01*
X118908000Y-93723895D01*
X118872453Y-93545187D01*
X118802725Y-93376848D01*
X118701495Y-93225347D01*
X118572653Y-93096505D01*
X118421152Y-92995275D01*
X118252813Y-92925547D01*
X118074105Y-92890000D01*
X117891895Y-92890000D01*
X117713187Y-92925547D01*
X117544848Y-92995275D01*
X117393347Y-93096505D01*
X117390587Y-93099265D01*
X116775653Y-93099265D01*
X116633887Y-93004540D01*
X116465548Y-92934812D01*
X116286840Y-92899265D01*
X116104630Y-92899265D01*
X115925922Y-92934812D01*
X115757583Y-93004540D01*
X115606082Y-93105770D01*
X115477240Y-93234612D01*
X115376010Y-93386113D01*
X115306282Y-93554452D01*
X115270735Y-93733160D01*
X109637000Y-93733160D01*
X109637000Y-93723895D01*
X109601453Y-93545187D01*
X109531725Y-93376848D01*
X109430495Y-93225347D01*
X109301653Y-93096505D01*
X109150152Y-92995275D01*
X108981813Y-92925547D01*
X108803105Y-92890000D01*
X108620895Y-92890000D01*
X108442187Y-92925547D01*
X108273848Y-92995275D01*
X108161619Y-93070264D01*
X107406654Y-93070264D01*
X107264888Y-92975539D01*
X107096549Y-92905811D01*
X106917841Y-92870264D01*
X106735631Y-92870264D01*
X106556923Y-92905811D01*
X106388584Y-92975539D01*
X106237083Y-93076769D01*
X106108241Y-93205611D01*
X106007011Y-93357112D01*
X105937283Y-93525451D01*
X105901736Y-93704159D01*
X76850000Y-93704159D01*
X76850000Y-92119895D01*
X93826000Y-92119895D01*
X93826000Y-92302105D01*
X93861547Y-92480813D01*
X93931275Y-92649152D01*
X94032505Y-92800653D01*
X94161347Y-92929495D01*
X94312848Y-93030725D01*
X94481187Y-93100453D01*
X94659895Y-93136000D01*
X94842105Y-93136000D01*
X95020813Y-93100453D01*
X95189152Y-93030725D01*
X95340653Y-92929495D01*
X95469495Y-92800653D01*
X95570725Y-92649152D01*
X95640453Y-92480813D01*
X95676000Y-92302105D01*
X95676000Y-92293304D01*
X97393503Y-90575801D01*
X107860000Y-90575801D01*
X107860000Y-90876199D01*
X107918605Y-91170826D01*
X108033562Y-91448358D01*
X108200455Y-91698131D01*
X108412869Y-91910545D01*
X108662642Y-92077438D01*
X108940174Y-92192395D01*
X109234801Y-92251000D01*
X109535199Y-92251000D01*
X109829826Y-92192395D01*
X110107358Y-92077438D01*
X110357131Y-91910545D01*
X110569545Y-91698131D01*
X110736438Y-91448358D01*
X110851395Y-91170826D01*
X110895448Y-90949355D01*
X120138422Y-90949355D01*
X120236668Y-91131016D01*
X120464704Y-91236266D01*
X120708890Y-91295007D01*
X120959844Y-91304981D01*
X121207923Y-91265804D01*
X121443592Y-91178983D01*
X121533332Y-91131016D01*
X121631578Y-90949355D01*
X120885000Y-90202777D01*
X120138422Y-90949355D01*
X110895448Y-90949355D01*
X110910000Y-90876199D01*
X110910000Y-90575801D01*
X110851395Y-90281174D01*
X110736438Y-90003642D01*
X110569545Y-89753869D01*
X110357131Y-89541455D01*
X110107358Y-89374562D01*
X109829826Y-89259605D01*
X109535199Y-89201000D01*
X109234801Y-89201000D01*
X108940174Y-89259605D01*
X108662642Y-89374562D01*
X108412869Y-89541455D01*
X108200455Y-89753869D01*
X108033562Y-90003642D01*
X107918605Y-90281174D01*
X107860000Y-90575801D01*
X97393503Y-90575801D01*
X98400589Y-89568716D01*
X98567813Y-89535453D01*
X98736152Y-89465725D01*
X98887653Y-89364495D01*
X99016495Y-89235653D01*
X99117725Y-89084152D01*
X99187453Y-88915813D01*
X99223000Y-88737105D01*
X99223000Y-88554895D01*
X99187453Y-88376187D01*
X99117725Y-88207848D01*
X99016495Y-88056347D01*
X98887653Y-87927505D01*
X98736152Y-87826275D01*
X98567813Y-87756547D01*
X98389105Y-87721000D01*
X98206895Y-87721000D01*
X98028187Y-87756547D01*
X97859848Y-87826275D01*
X97708347Y-87927505D01*
X97579505Y-88056347D01*
X97478275Y-88207848D01*
X97408547Y-88376187D01*
X97375284Y-88543411D01*
X94625942Y-91292754D01*
X94481187Y-91321547D01*
X94312848Y-91391275D01*
X94161347Y-91492505D01*
X94032505Y-91621347D01*
X93931275Y-91772848D01*
X93861547Y-91941187D01*
X93826000Y-92119895D01*
X76850000Y-92119895D01*
X76850000Y-81954000D01*
X78023976Y-81954000D01*
X78023976Y-83654000D01*
X78036043Y-83776521D01*
X78071781Y-83894334D01*
X78129817Y-84002911D01*
X78207920Y-84098080D01*
X78303089Y-84176183D01*
X78411666Y-84234219D01*
X78529479Y-84269957D01*
X78652000Y-84282024D01*
X80352000Y-84282024D01*
X80474521Y-84269957D01*
X80592334Y-84234219D01*
X80700911Y-84176183D01*
X80796080Y-84098080D01*
X80874183Y-84002911D01*
X80932219Y-83894334D01*
X80958787Y-83806752D01*
X81101742Y-83949707D01*
X81343325Y-84111128D01*
X81611758Y-84222317D01*
X81896725Y-84279000D01*
X82187275Y-84279000D01*
X82472242Y-84222317D01*
X82688550Y-84132719D01*
X82704525Y-84145829D01*
X85783284Y-87224589D01*
X85816547Y-87391813D01*
X85886275Y-87560152D01*
X85987505Y-87711653D01*
X86116347Y-87840495D01*
X86267848Y-87941725D01*
X86436187Y-88011453D01*
X86614895Y-88047000D01*
X86797105Y-88047000D01*
X86975813Y-88011453D01*
X87144152Y-87941725D01*
X87295653Y-87840495D01*
X87424495Y-87711653D01*
X87525725Y-87560152D01*
X87595453Y-87391813D01*
X87631000Y-87213105D01*
X87631000Y-87030895D01*
X87595453Y-86852187D01*
X87525725Y-86683848D01*
X87424495Y-86532347D01*
X87295653Y-86403505D01*
X87144152Y-86302275D01*
X86975813Y-86232547D01*
X86812154Y-86199994D01*
X86824495Y-86187653D01*
X86925725Y-86036152D01*
X86995453Y-85867813D01*
X87005958Y-85815000D01*
X90352082Y-85815000D01*
X90493848Y-85909725D01*
X90662187Y-85979453D01*
X90840895Y-86015000D01*
X91023105Y-86015000D01*
X91201813Y-85979453D01*
X91370152Y-85909725D01*
X91521653Y-85808495D01*
X91650495Y-85679653D01*
X91751725Y-85528152D01*
X91821453Y-85359813D01*
X91857000Y-85181105D01*
X91857000Y-84998895D01*
X91821453Y-84820187D01*
X91751725Y-84651848D01*
X91650495Y-84500347D01*
X91521653Y-84371505D01*
X91370152Y-84270275D01*
X91201813Y-84200547D01*
X91023105Y-84165000D01*
X90840895Y-84165000D01*
X90662187Y-84200547D01*
X90493848Y-84270275D01*
X90352082Y-84365000D01*
X86649596Y-84365000D01*
X86613999Y-84361494D01*
X86578402Y-84365000D01*
X86578393Y-84365000D01*
X86471875Y-84375491D01*
X86335212Y-84416947D01*
X86209263Y-84484269D01*
X86126525Y-84552170D01*
X86126523Y-84552172D01*
X86098868Y-84574868D01*
X86076172Y-84602523D01*
X86003411Y-84675284D01*
X85836187Y-84708547D01*
X85667848Y-84778275D01*
X85516347Y-84879505D01*
X85502578Y-84893274D01*
X84861588Y-84252284D01*
X85012242Y-84222317D01*
X85280675Y-84111128D01*
X85522258Y-83949707D01*
X85727707Y-83744258D01*
X85852000Y-83558241D01*
X85976293Y-83744258D01*
X86181742Y-83949707D01*
X86423325Y-84111128D01*
X86691758Y-84222317D01*
X86976725Y-84279000D01*
X87267275Y-84279000D01*
X87552242Y-84222317D01*
X87820675Y-84111128D01*
X88062258Y-83949707D01*
X88267707Y-83744258D01*
X88392000Y-83558241D01*
X88516293Y-83744258D01*
X88721742Y-83949707D01*
X88963325Y-84111128D01*
X89231758Y-84222317D01*
X89516725Y-84279000D01*
X89807275Y-84279000D01*
X90092242Y-84222317D01*
X90360675Y-84111128D01*
X90602258Y-83949707D01*
X90807707Y-83744258D01*
X90969128Y-83502675D01*
X91070332Y-83258347D01*
X91101973Y-83343056D01*
X91228274Y-83547303D01*
X91391995Y-83722985D01*
X91586844Y-83863351D01*
X91805333Y-83963007D01*
X91887907Y-83988049D01*
X92077000Y-83928323D01*
X92077000Y-82929000D01*
X92057000Y-82929000D01*
X92057000Y-82679000D01*
X92077000Y-82679000D01*
X92077000Y-81679677D01*
X91887907Y-81619951D01*
X91805333Y-81644993D01*
X91586844Y-81744649D01*
X91391995Y-81885015D01*
X91228274Y-82060697D01*
X91101973Y-82264944D01*
X91070332Y-82349653D01*
X90969128Y-82105325D01*
X90807707Y-81863742D01*
X90602258Y-81658293D01*
X90360675Y-81496872D01*
X90117531Y-81396158D01*
X90277156Y-81323351D01*
X90472005Y-81182985D01*
X90635726Y-81007303D01*
X90762027Y-80803056D01*
X90846055Y-80578094D01*
X91017945Y-80578094D01*
X91101973Y-80803056D01*
X91228274Y-81007303D01*
X91391995Y-81182985D01*
X91586844Y-81323351D01*
X91805333Y-81423007D01*
X91887907Y-81448049D01*
X92077000Y-81388323D01*
X92077000Y-80389000D01*
X91077138Y-80389000D01*
X91017945Y-80578094D01*
X90846055Y-80578094D01*
X90786862Y-80389000D01*
X89787000Y-80389000D01*
X89787000Y-80409000D01*
X89537000Y-80409000D01*
X89537000Y-80389000D01*
X88537138Y-80389000D01*
X88477945Y-80578094D01*
X88561973Y-80803056D01*
X88688274Y-81007303D01*
X88851995Y-81182985D01*
X89046844Y-81323351D01*
X89206469Y-81396158D01*
X88963325Y-81496872D01*
X88721742Y-81658293D01*
X88516293Y-81863742D01*
X88392000Y-82049759D01*
X88267707Y-81863742D01*
X88062258Y-81658293D01*
X87820675Y-81496872D01*
X87577531Y-81396158D01*
X87737156Y-81323351D01*
X87932005Y-81182985D01*
X88095726Y-81007303D01*
X88222027Y-80803056D01*
X88306055Y-80578094D01*
X88246862Y-80389000D01*
X87247000Y-80389000D01*
X87247000Y-80409000D01*
X86997000Y-80409000D01*
X86997000Y-80389000D01*
X85997138Y-80389000D01*
X85937945Y-80578094D01*
X86021973Y-80803056D01*
X86148274Y-81007303D01*
X86311995Y-81182985D01*
X86506844Y-81323351D01*
X86666469Y-81396158D01*
X86423325Y-81496872D01*
X86181742Y-81658293D01*
X85976293Y-81863742D01*
X85852000Y-82049759D01*
X85727707Y-81863742D01*
X85522258Y-81658293D01*
X85280675Y-81496872D01*
X85037531Y-81396158D01*
X85197156Y-81323351D01*
X85392005Y-81182985D01*
X85555726Y-81007303D01*
X85682027Y-80803056D01*
X85766055Y-80578094D01*
X85706862Y-80389000D01*
X84707000Y-80389000D01*
X84707000Y-80409000D01*
X84457000Y-80409000D01*
X84457000Y-80389000D01*
X83457138Y-80389000D01*
X83397945Y-80578094D01*
X83481973Y-80803056D01*
X83608274Y-81007303D01*
X83771995Y-81182985D01*
X83966844Y-81323351D01*
X84126469Y-81396158D01*
X83883325Y-81496872D01*
X83641742Y-81658293D01*
X83632671Y-81667364D01*
X82994927Y-81029621D01*
X83015726Y-81007303D01*
X83142027Y-80803056D01*
X83226055Y-80578094D01*
X83166862Y-80389000D01*
X82167000Y-80389000D01*
X82167000Y-80409000D01*
X81917000Y-80409000D01*
X81917000Y-80389000D01*
X81897000Y-80389000D01*
X81897000Y-80139000D01*
X81917000Y-80139000D01*
X81917000Y-79139677D01*
X82167000Y-79139677D01*
X82167000Y-80139000D01*
X83166862Y-80139000D01*
X83226055Y-79949906D01*
X83397945Y-79949906D01*
X83457138Y-80139000D01*
X84457000Y-80139000D01*
X84457000Y-79139677D01*
X84707000Y-79139677D01*
X84707000Y-80139000D01*
X85706862Y-80139000D01*
X85766055Y-79949906D01*
X85937945Y-79949906D01*
X85997138Y-80139000D01*
X86997000Y-80139000D01*
X86997000Y-79139677D01*
X87247000Y-79139677D01*
X87247000Y-80139000D01*
X88246862Y-80139000D01*
X88306055Y-79949906D01*
X88477945Y-79949906D01*
X88537138Y-80139000D01*
X89537000Y-80139000D01*
X89537000Y-79139677D01*
X89787000Y-79139677D01*
X89787000Y-80139000D01*
X90786862Y-80139000D01*
X90846055Y-79949906D01*
X91017945Y-79949906D01*
X91077138Y-80139000D01*
X92077000Y-80139000D01*
X92077000Y-79139677D01*
X92327000Y-79139677D01*
X92327000Y-80139000D01*
X92347000Y-80139000D01*
X92347000Y-80389000D01*
X92327000Y-80389000D01*
X92327000Y-81388323D01*
X92516093Y-81448049D01*
X92598667Y-81423007D01*
X92817156Y-81323351D01*
X93012005Y-81182985D01*
X93175726Y-81007303D01*
X93302027Y-80803056D01*
X93333668Y-80718347D01*
X93434872Y-80962675D01*
X93596293Y-81204258D01*
X93801742Y-81409707D01*
X93987759Y-81534000D01*
X93801742Y-81658293D01*
X93596293Y-81863742D01*
X93434872Y-82105325D01*
X93333668Y-82349653D01*
X93302027Y-82264944D01*
X93175726Y-82060697D01*
X93012005Y-81885015D01*
X92817156Y-81744649D01*
X92598667Y-81644993D01*
X92516093Y-81619951D01*
X92327000Y-81679677D01*
X92327000Y-82679000D01*
X92347000Y-82679000D01*
X92347000Y-82929000D01*
X92327000Y-82929000D01*
X92327000Y-83928323D01*
X92516093Y-83988049D01*
X92598667Y-83963007D01*
X92817156Y-83863351D01*
X93012005Y-83722985D01*
X93175726Y-83547303D01*
X93302027Y-83343056D01*
X93333668Y-83258347D01*
X93434872Y-83502675D01*
X93596293Y-83744258D01*
X93801742Y-83949707D01*
X94043325Y-84111128D01*
X94311758Y-84222317D01*
X94596725Y-84279000D01*
X94887275Y-84279000D01*
X95172242Y-84222317D01*
X95440675Y-84111128D01*
X95682258Y-83949707D01*
X95887707Y-83744258D01*
X96012000Y-83558241D01*
X96136293Y-83744258D01*
X96341742Y-83949707D01*
X96583325Y-84111128D01*
X96851758Y-84222317D01*
X97136725Y-84279000D01*
X97427275Y-84279000D01*
X97712242Y-84222317D01*
X97980675Y-84111128D01*
X98222258Y-83949707D01*
X98427707Y-83744258D01*
X98552000Y-83558241D01*
X98676293Y-83744258D01*
X98881742Y-83949707D01*
X99123325Y-84111128D01*
X99391758Y-84222317D01*
X99676725Y-84279000D01*
X99878790Y-84279000D01*
X99750082Y-84365000D01*
X96591918Y-84365000D01*
X96450152Y-84270275D01*
X96281813Y-84200547D01*
X96103105Y-84165000D01*
X95920895Y-84165000D01*
X95742187Y-84200547D01*
X95573848Y-84270275D01*
X95422347Y-84371505D01*
X95293505Y-84500347D01*
X95192275Y-84651848D01*
X95122547Y-84820187D01*
X95087000Y-84998895D01*
X95087000Y-85181105D01*
X95122547Y-85359813D01*
X95192275Y-85528152D01*
X95193947Y-85530654D01*
X95146810Y-85644453D01*
X95111263Y-85823161D01*
X95111263Y-86005371D01*
X95146810Y-86184079D01*
X95213903Y-86346056D01*
X95157452Y-86482340D01*
X95121905Y-86661048D01*
X95121905Y-86843258D01*
X95157452Y-87021966D01*
X95227180Y-87190305D01*
X95328410Y-87341806D01*
X95457252Y-87470648D01*
X95608753Y-87571878D01*
X95777092Y-87641606D01*
X95955800Y-87677153D01*
X96138010Y-87677153D01*
X96316718Y-87641606D01*
X96485057Y-87571878D01*
X96626823Y-87477153D01*
X99718514Y-87477153D01*
X99858377Y-87570607D01*
X100026716Y-87640335D01*
X100205424Y-87675882D01*
X100387634Y-87675882D01*
X100566342Y-87640335D01*
X100734681Y-87570607D01*
X100886182Y-87469377D01*
X101015024Y-87340535D01*
X101116254Y-87189034D01*
X101185982Y-87020695D01*
X101221529Y-86841987D01*
X101221529Y-86659777D01*
X101185982Y-86481069D01*
X101130770Y-86347775D01*
X101198376Y-86184560D01*
X101233923Y-86005852D01*
X101233923Y-85823642D01*
X101198376Y-85644934D01*
X101149864Y-85527816D01*
X101150616Y-85526000D01*
X106706976Y-85526000D01*
X106706976Y-87726000D01*
X106734415Y-88004594D01*
X106815678Y-88272481D01*
X106947641Y-88519368D01*
X107125235Y-88735765D01*
X107341632Y-88913359D01*
X107588519Y-89045322D01*
X107856406Y-89126585D01*
X108135000Y-89154024D01*
X109735000Y-89154024D01*
X110013594Y-89126585D01*
X110281481Y-89045322D01*
X110528368Y-88913359D01*
X110744765Y-88735765D01*
X110922359Y-88519368D01*
X111054322Y-88272481D01*
X111135585Y-88004594D01*
X111163024Y-87726000D01*
X111163024Y-85526000D01*
X118706976Y-85526000D01*
X118706976Y-87726000D01*
X118734415Y-88004594D01*
X118815678Y-88272481D01*
X118947641Y-88519368D01*
X119125235Y-88735765D01*
X119341632Y-88913359D01*
X119588519Y-89045322D01*
X119856406Y-89126585D01*
X119962932Y-89137077D01*
X119891115Y-89208894D01*
X119961644Y-89279423D01*
X119779984Y-89377668D01*
X119674734Y-89605704D01*
X119615993Y-89849890D01*
X119606019Y-90100844D01*
X119645196Y-90348923D01*
X119732017Y-90584592D01*
X119779984Y-90674332D01*
X119961645Y-90772578D01*
X120708223Y-90026000D01*
X120694081Y-90011858D01*
X120870858Y-89835081D01*
X120885000Y-89849223D01*
X120899142Y-89835081D01*
X121075919Y-90011858D01*
X121061777Y-90026000D01*
X121808355Y-90772578D01*
X121990016Y-90674332D01*
X122095266Y-90446296D01*
X122154007Y-90202110D01*
X122163981Y-89951156D01*
X122124804Y-89703077D01*
X122037983Y-89467408D01*
X121990016Y-89377668D01*
X121808356Y-89279423D01*
X121878885Y-89208894D01*
X121816034Y-89146043D01*
X122013594Y-89126585D01*
X122281481Y-89045322D01*
X122528368Y-88913359D01*
X122744765Y-88735765D01*
X122922359Y-88519368D01*
X123054322Y-88272481D01*
X123135585Y-88004594D01*
X123163024Y-87726000D01*
X123163024Y-85526000D01*
X123135585Y-85247406D01*
X123054322Y-84979519D01*
X122922359Y-84732632D01*
X122744765Y-84516235D01*
X122528368Y-84338641D01*
X122281481Y-84206678D01*
X122013594Y-84125415D01*
X121735000Y-84097976D01*
X120135000Y-84097976D01*
X119856406Y-84125415D01*
X119588519Y-84206678D01*
X119341632Y-84338641D01*
X119125235Y-84516235D01*
X118947641Y-84732632D01*
X118815678Y-84979519D01*
X118734415Y-85247406D01*
X118706976Y-85526000D01*
X111163024Y-85526000D01*
X111135585Y-85247406D01*
X111054322Y-84979519D01*
X110922359Y-84732632D01*
X110744765Y-84516235D01*
X110528368Y-84338641D01*
X110281481Y-84206678D01*
X110013594Y-84125415D01*
X109735000Y-84097976D01*
X108135000Y-84097976D01*
X107856406Y-84125415D01*
X107588519Y-84206678D01*
X107341632Y-84338641D01*
X107125235Y-84516235D01*
X106947641Y-84732632D01*
X106815678Y-84979519D01*
X106734415Y-85247406D01*
X106706976Y-85526000D01*
X101150616Y-85526000D01*
X101219453Y-85359813D01*
X101255000Y-85181105D01*
X101255000Y-84998895D01*
X101219453Y-84820187D01*
X101149725Y-84651848D01*
X101048495Y-84500347D01*
X100919653Y-84371505D01*
X100768152Y-84270275D01*
X100599813Y-84200547D01*
X100421105Y-84165000D01*
X100390617Y-84165000D01*
X100520675Y-84111128D01*
X100762258Y-83949707D01*
X100967707Y-83744258D01*
X101129128Y-83502675D01*
X101240317Y-83234242D01*
X101297000Y-82949275D01*
X101297000Y-82658725D01*
X101240317Y-82373758D01*
X101199742Y-82275801D01*
X107860000Y-82275801D01*
X107860000Y-82576199D01*
X107918605Y-82870826D01*
X108033562Y-83148358D01*
X108200455Y-83398131D01*
X108412869Y-83610545D01*
X108662642Y-83777438D01*
X108940174Y-83892395D01*
X109234801Y-83951000D01*
X109535199Y-83951000D01*
X109829826Y-83892395D01*
X110107358Y-83777438D01*
X110357131Y-83610545D01*
X110569545Y-83398131D01*
X110736438Y-83148358D01*
X110851395Y-82870826D01*
X110910000Y-82576199D01*
X110910000Y-82275801D01*
X118960000Y-82275801D01*
X118960000Y-82576199D01*
X119018605Y-82870826D01*
X119133562Y-83148358D01*
X119300455Y-83398131D01*
X119512869Y-83610545D01*
X119762642Y-83777438D01*
X120040174Y-83892395D01*
X120334801Y-83951000D01*
X120635199Y-83951000D01*
X120929826Y-83892395D01*
X121207358Y-83777438D01*
X121457131Y-83610545D01*
X121669545Y-83398131D01*
X121836438Y-83148358D01*
X121951395Y-82870826D01*
X121988216Y-82685712D01*
X122243000Y-82685712D01*
X122243000Y-82922288D01*
X122289154Y-83154319D01*
X122379688Y-83372887D01*
X122511122Y-83569593D01*
X122678407Y-83736878D01*
X122875113Y-83868312D01*
X123093681Y-83958846D01*
X123325712Y-84005000D01*
X123562288Y-84005000D01*
X123794319Y-83958846D01*
X124012887Y-83868312D01*
X124209593Y-83736878D01*
X124376878Y-83569593D01*
X124508312Y-83372887D01*
X124598846Y-83154319D01*
X124645000Y-82922288D01*
X124645000Y-82685712D01*
X124598846Y-82453681D01*
X124508312Y-82235113D01*
X124376878Y-82038407D01*
X124209593Y-81871122D01*
X124012887Y-81739688D01*
X123794319Y-81649154D01*
X123562288Y-81603000D01*
X123325712Y-81603000D01*
X123093681Y-81649154D01*
X122875113Y-81739688D01*
X122678407Y-81871122D01*
X122511122Y-82038407D01*
X122379688Y-82235113D01*
X122289154Y-82453681D01*
X122243000Y-82685712D01*
X121988216Y-82685712D01*
X122010000Y-82576199D01*
X122010000Y-82275801D01*
X121951395Y-81981174D01*
X121836438Y-81703642D01*
X121669545Y-81453869D01*
X121457131Y-81241455D01*
X121207358Y-81074562D01*
X120929826Y-80959605D01*
X120635199Y-80901000D01*
X120334801Y-80901000D01*
X120040174Y-80959605D01*
X119762642Y-81074562D01*
X119512869Y-81241455D01*
X119300455Y-81453869D01*
X119133562Y-81703642D01*
X119018605Y-81981174D01*
X118960000Y-82275801D01*
X110910000Y-82275801D01*
X110851395Y-81981174D01*
X110736438Y-81703642D01*
X110569545Y-81453869D01*
X110357131Y-81241455D01*
X110107358Y-81074562D01*
X109829826Y-80959605D01*
X109535199Y-80901000D01*
X109234801Y-80901000D01*
X108940174Y-80959605D01*
X108662642Y-81074562D01*
X108412869Y-81241455D01*
X108200455Y-81453869D01*
X108033562Y-81703642D01*
X107918605Y-81981174D01*
X107860000Y-82275801D01*
X101199742Y-82275801D01*
X101129128Y-82105325D01*
X100967707Y-81863742D01*
X100762258Y-81658293D01*
X100576241Y-81534000D01*
X100762258Y-81409707D01*
X100967707Y-81204258D01*
X101129128Y-80962675D01*
X101240317Y-80694242D01*
X101249245Y-80649355D01*
X114188422Y-80649355D01*
X114286668Y-80831016D01*
X114514704Y-80936266D01*
X114758890Y-80995007D01*
X115009844Y-81004981D01*
X115257923Y-80965804D01*
X115493592Y-80878983D01*
X115583332Y-80831016D01*
X115681578Y-80649355D01*
X114935000Y-79902777D01*
X114188422Y-80649355D01*
X101249245Y-80649355D01*
X101297000Y-80409275D01*
X101297000Y-80118725D01*
X101240317Y-79833758D01*
X101226684Y-79800844D01*
X113656019Y-79800844D01*
X113695196Y-80048923D01*
X113782017Y-80284592D01*
X113829984Y-80374332D01*
X114011645Y-80472578D01*
X114758223Y-79726000D01*
X115111777Y-79726000D01*
X115858355Y-80472578D01*
X116040016Y-80374332D01*
X116145266Y-80146296D01*
X116204007Y-79902110D01*
X116213981Y-79651156D01*
X116174804Y-79403077D01*
X116101870Y-79205102D01*
X121300000Y-79205102D01*
X121300000Y-79544898D01*
X121366290Y-79878164D01*
X121496324Y-80192094D01*
X121685105Y-80474624D01*
X121925376Y-80714895D01*
X122207906Y-80903676D01*
X122521836Y-81033710D01*
X122855102Y-81100000D01*
X123194898Y-81100000D01*
X123528164Y-81033710D01*
X123842094Y-80903676D01*
X124124624Y-80714895D01*
X124364895Y-80474624D01*
X124553676Y-80192094D01*
X124683710Y-79878164D01*
X124750000Y-79544898D01*
X124750000Y-79205102D01*
X124683710Y-78871836D01*
X124553676Y-78557906D01*
X124364895Y-78275376D01*
X124124624Y-78035105D01*
X123842094Y-77846324D01*
X123528164Y-77716290D01*
X123194898Y-77650000D01*
X122855102Y-77650000D01*
X122521836Y-77716290D01*
X122207906Y-77846324D01*
X121925376Y-78035105D01*
X121685105Y-78275376D01*
X121496324Y-78557906D01*
X121366290Y-78871836D01*
X121300000Y-79205102D01*
X116101870Y-79205102D01*
X116087983Y-79167408D01*
X116040016Y-79077668D01*
X115858355Y-78979422D01*
X115111777Y-79726000D01*
X114758223Y-79726000D01*
X114011645Y-78979422D01*
X113829984Y-79077668D01*
X113724734Y-79305704D01*
X113665993Y-79549890D01*
X113656019Y-79800844D01*
X101226684Y-79800844D01*
X101129128Y-79565325D01*
X100967707Y-79323742D01*
X100762258Y-79118293D01*
X100520675Y-78956872D01*
X100252242Y-78845683D01*
X100035874Y-78802645D01*
X114188422Y-78802645D01*
X114935000Y-79549223D01*
X115681578Y-78802645D01*
X115583332Y-78620984D01*
X115355296Y-78515734D01*
X115111110Y-78456993D01*
X114860156Y-78447019D01*
X114612077Y-78486196D01*
X114376408Y-78573017D01*
X114286668Y-78620984D01*
X114188422Y-78802645D01*
X100035874Y-78802645D01*
X99967275Y-78789000D01*
X99676725Y-78789000D01*
X99391758Y-78845683D01*
X99123325Y-78956872D01*
X98881742Y-79118293D01*
X98676293Y-79323742D01*
X98552000Y-79509759D01*
X98427707Y-79323742D01*
X98222258Y-79118293D01*
X97980675Y-78956872D01*
X97712242Y-78845683D01*
X97427275Y-78789000D01*
X97136725Y-78789000D01*
X96851758Y-78845683D01*
X96583325Y-78956872D01*
X96341742Y-79118293D01*
X96136293Y-79323742D01*
X96012000Y-79509759D01*
X95887707Y-79323742D01*
X95682258Y-79118293D01*
X95440675Y-78956872D01*
X95172242Y-78845683D01*
X94887275Y-78789000D01*
X94596725Y-78789000D01*
X94311758Y-78845683D01*
X94043325Y-78956872D01*
X93801742Y-79118293D01*
X93596293Y-79323742D01*
X93434872Y-79565325D01*
X93333668Y-79809653D01*
X93302027Y-79724944D01*
X93175726Y-79520697D01*
X93012005Y-79345015D01*
X92817156Y-79204649D01*
X92598667Y-79104993D01*
X92516093Y-79079951D01*
X92327000Y-79139677D01*
X92077000Y-79139677D01*
X91887907Y-79079951D01*
X91805333Y-79104993D01*
X91586844Y-79204649D01*
X91391995Y-79345015D01*
X91228274Y-79520697D01*
X91101973Y-79724944D01*
X91017945Y-79949906D01*
X90846055Y-79949906D01*
X90762027Y-79724944D01*
X90635726Y-79520697D01*
X90472005Y-79345015D01*
X90277156Y-79204649D01*
X90058667Y-79104993D01*
X89976093Y-79079951D01*
X89787000Y-79139677D01*
X89537000Y-79139677D01*
X89347907Y-79079951D01*
X89265333Y-79104993D01*
X89046844Y-79204649D01*
X88851995Y-79345015D01*
X88688274Y-79520697D01*
X88561973Y-79724944D01*
X88477945Y-79949906D01*
X88306055Y-79949906D01*
X88222027Y-79724944D01*
X88095726Y-79520697D01*
X87932005Y-79345015D01*
X87737156Y-79204649D01*
X87518667Y-79104993D01*
X87436093Y-79079951D01*
X87247000Y-79139677D01*
X86997000Y-79139677D01*
X86807907Y-79079951D01*
X86725333Y-79104993D01*
X86506844Y-79204649D01*
X86311995Y-79345015D01*
X86148274Y-79520697D01*
X86021973Y-79724944D01*
X85937945Y-79949906D01*
X85766055Y-79949906D01*
X85682027Y-79724944D01*
X85555726Y-79520697D01*
X85392005Y-79345015D01*
X85197156Y-79204649D01*
X84978667Y-79104993D01*
X84896093Y-79079951D01*
X84707000Y-79139677D01*
X84457000Y-79139677D01*
X84267907Y-79079951D01*
X84185333Y-79104993D01*
X83966844Y-79204649D01*
X83771995Y-79345015D01*
X83608274Y-79520697D01*
X83481973Y-79724944D01*
X83397945Y-79949906D01*
X83226055Y-79949906D01*
X83142027Y-79724944D01*
X83015726Y-79520697D01*
X82852005Y-79345015D01*
X82657156Y-79204649D01*
X82438667Y-79104993D01*
X82356093Y-79079951D01*
X82167000Y-79139677D01*
X81917000Y-79139677D01*
X81727907Y-79079951D01*
X81645333Y-79104993D01*
X81426844Y-79204649D01*
X81231995Y-79345015D01*
X81068274Y-79520697D01*
X80941973Y-79724944D01*
X80910332Y-79809653D01*
X80809128Y-79565325D01*
X80647707Y-79323742D01*
X80442258Y-79118293D01*
X80200675Y-78956872D01*
X79932242Y-78845683D01*
X79647275Y-78789000D01*
X79356725Y-78789000D01*
X79071758Y-78845683D01*
X78803325Y-78956872D01*
X78561742Y-79118293D01*
X78356293Y-79323742D01*
X78194872Y-79565325D01*
X78083683Y-79833758D01*
X78027000Y-80118725D01*
X78027000Y-80409275D01*
X78083683Y-80694242D01*
X78194872Y-80962675D01*
X78356293Y-81204258D01*
X78499248Y-81347213D01*
X78411666Y-81373781D01*
X78303089Y-81431817D01*
X78207920Y-81509920D01*
X78129817Y-81605089D01*
X78071781Y-81713666D01*
X78036043Y-81831479D01*
X78023976Y-81954000D01*
X76850000Y-81954000D01*
X76850000Y-78731792D01*
X76888291Y-78341273D01*
X76992471Y-77996209D01*
X77161691Y-77677951D01*
X77389507Y-77398622D01*
X77667237Y-77168864D01*
X77984306Y-76997426D01*
X78328633Y-76890839D01*
X78717191Y-76850000D01*
X123668208Y-76850000D01*
X124058727Y-76888291D01*
G37*
G04 #@! TD.AperFunction*
D18*
X91971943Y-107861549D02*
X91825385Y-107959476D01*
X91459476Y-108325385D01*
X91171983Y-108755649D01*
X90973954Y-109233732D01*
X90873000Y-109741263D01*
X90873000Y-110258737D01*
X90973954Y-110766268D01*
X91171983Y-111244351D01*
X91459476Y-111674615D01*
X91825385Y-112040524D01*
X92255649Y-112328017D01*
X92733732Y-112526046D01*
X93241263Y-112627000D01*
X93758737Y-112627000D01*
X94266268Y-112526046D01*
X94744351Y-112328017D01*
X95174615Y-112040524D01*
X95540524Y-111674615D01*
X95638451Y-111528057D01*
X95758000Y-111647606D01*
X95758000Y-121628000D01*
X83312000Y-121628000D01*
X83312000Y-119913712D01*
X85967893Y-119913712D01*
X86075726Y-120188338D01*
X86382384Y-120339216D01*
X86712585Y-120427369D01*
X87053639Y-120449409D01*
X87392439Y-120404489D01*
X87715966Y-120294336D01*
X87914274Y-120188338D01*
X88022107Y-119913712D01*
X91047893Y-119913712D01*
X91155726Y-120188338D01*
X91462384Y-120339216D01*
X91792585Y-120427369D01*
X92133639Y-120449409D01*
X92472439Y-120404489D01*
X92795966Y-120294336D01*
X92994274Y-120188338D01*
X93102107Y-119913712D01*
X92075000Y-118886605D01*
X91047893Y-119913712D01*
X88022107Y-119913712D01*
X86995000Y-118886605D01*
X85967893Y-119913712D01*
X83312000Y-119913712D01*
X83312000Y-118765639D01*
X85252591Y-118765639D01*
X85297511Y-119104439D01*
X85407664Y-119427966D01*
X85513662Y-119626274D01*
X85788288Y-119734107D01*
X86815395Y-118707000D01*
X87174605Y-118707000D01*
X88201712Y-119734107D01*
X88476338Y-119626274D01*
X88627216Y-119319616D01*
X88715369Y-118989415D01*
X88729830Y-118765639D01*
X90332591Y-118765639D01*
X90377511Y-119104439D01*
X90487664Y-119427966D01*
X90593662Y-119626274D01*
X90868288Y-119734107D01*
X91895395Y-118707000D01*
X92254605Y-118707000D01*
X93281712Y-119734107D01*
X93556338Y-119626274D01*
X93707216Y-119319616D01*
X93795369Y-118989415D01*
X93817409Y-118648361D01*
X93772489Y-118309561D01*
X93662336Y-117986034D01*
X93556338Y-117787726D01*
X93281712Y-117679893D01*
X92254605Y-118707000D01*
X91895395Y-118707000D01*
X90868288Y-117679893D01*
X90593662Y-117787726D01*
X90442784Y-118094384D01*
X90354631Y-118424585D01*
X90332591Y-118765639D01*
X88729830Y-118765639D01*
X88737409Y-118648361D01*
X88692489Y-118309561D01*
X88582336Y-117986034D01*
X88476338Y-117787726D01*
X88201712Y-117679893D01*
X87174605Y-118707000D01*
X86815395Y-118707000D01*
X85788288Y-117679893D01*
X85513662Y-117787726D01*
X85362784Y-118094384D01*
X85274631Y-118424585D01*
X85252591Y-118765639D01*
X83312000Y-118765639D01*
X83312000Y-117500288D01*
X85967893Y-117500288D01*
X86995000Y-118527395D01*
X88022107Y-117500288D01*
X91047893Y-117500288D01*
X92075000Y-118527395D01*
X93102107Y-117500288D01*
X92994274Y-117225662D01*
X92687616Y-117074784D01*
X92357415Y-116986631D01*
X92016361Y-116964591D01*
X91677561Y-117009511D01*
X91354034Y-117119664D01*
X91155726Y-117225662D01*
X91047893Y-117500288D01*
X88022107Y-117500288D01*
X87914274Y-117225662D01*
X87607616Y-117074784D01*
X87277415Y-116986631D01*
X86936361Y-116964591D01*
X86597561Y-117009511D01*
X86274034Y-117119664D01*
X86075726Y-117225662D01*
X85967893Y-117500288D01*
X83312000Y-117500288D01*
X83312000Y-112865000D01*
X83309560Y-112840224D01*
X83302333Y-112816399D01*
X83290597Y-112794443D01*
X83274803Y-112775197D01*
X82677000Y-112177394D01*
X82677000Y-109626712D01*
X84062893Y-109626712D01*
X84170726Y-109901338D01*
X84477384Y-110052216D01*
X84807585Y-110140369D01*
X85148639Y-110162409D01*
X85487439Y-110117489D01*
X85810966Y-110007336D01*
X86009274Y-109901338D01*
X86117107Y-109626712D01*
X85090000Y-108599605D01*
X84062893Y-109626712D01*
X82677000Y-109626712D01*
X82677000Y-108478639D01*
X83347591Y-108478639D01*
X83392511Y-108817439D01*
X83502664Y-109140966D01*
X83608662Y-109339274D01*
X83883288Y-109447107D01*
X84910395Y-108420000D01*
X85269605Y-108420000D01*
X86296712Y-109447107D01*
X86571338Y-109339274D01*
X86722216Y-109032616D01*
X86810369Y-108702415D01*
X86832409Y-108361361D01*
X86787489Y-108022561D01*
X86677336Y-107699034D01*
X86571338Y-107500726D01*
X86296712Y-107392893D01*
X85269605Y-108420000D01*
X84910395Y-108420000D01*
X83883288Y-107392893D01*
X83608662Y-107500726D01*
X83457784Y-107807384D01*
X83369631Y-108137585D01*
X83347591Y-108478639D01*
X82677000Y-108478639D01*
X82677000Y-107213288D01*
X84062893Y-107213288D01*
X85090000Y-108240395D01*
X86117107Y-107213288D01*
X86009274Y-106938662D01*
X85702616Y-106787784D01*
X85372415Y-106699631D01*
X85031361Y-106677591D01*
X84692561Y-106722511D01*
X84369034Y-106832664D01*
X84170726Y-106938662D01*
X84062893Y-107213288D01*
X82677000Y-107213288D01*
X82677000Y-106642000D01*
X90752394Y-106642000D01*
X91971943Y-107861549D01*
G04 #@! TA.AperFunction,Conductor*
D17*
G36*
X91971943Y-107861549D02*
G01*
X91825385Y-107959476D01*
X91459476Y-108325385D01*
X91171983Y-108755649D01*
X90973954Y-109233732D01*
X90873000Y-109741263D01*
X90873000Y-110258737D01*
X90973954Y-110766268D01*
X91171983Y-111244351D01*
X91459476Y-111674615D01*
X91825385Y-112040524D01*
X92255649Y-112328017D01*
X92733732Y-112526046D01*
X93241263Y-112627000D01*
X93758737Y-112627000D01*
X94266268Y-112526046D01*
X94744351Y-112328017D01*
X95174615Y-112040524D01*
X95540524Y-111674615D01*
X95638451Y-111528057D01*
X95758000Y-111647606D01*
X95758000Y-121628000D01*
X83312000Y-121628000D01*
X83312000Y-119913712D01*
X85967893Y-119913712D01*
X86075726Y-120188338D01*
X86382384Y-120339216D01*
X86712585Y-120427369D01*
X87053639Y-120449409D01*
X87392439Y-120404489D01*
X87715966Y-120294336D01*
X87914274Y-120188338D01*
X88022107Y-119913712D01*
X91047893Y-119913712D01*
X91155726Y-120188338D01*
X91462384Y-120339216D01*
X91792585Y-120427369D01*
X92133639Y-120449409D01*
X92472439Y-120404489D01*
X92795966Y-120294336D01*
X92994274Y-120188338D01*
X93102107Y-119913712D01*
X92075000Y-118886605D01*
X91047893Y-119913712D01*
X88022107Y-119913712D01*
X86995000Y-118886605D01*
X85967893Y-119913712D01*
X83312000Y-119913712D01*
X83312000Y-118765639D01*
X85252591Y-118765639D01*
X85297511Y-119104439D01*
X85407664Y-119427966D01*
X85513662Y-119626274D01*
X85788288Y-119734107D01*
X86815395Y-118707000D01*
X87174605Y-118707000D01*
X88201712Y-119734107D01*
X88476338Y-119626274D01*
X88627216Y-119319616D01*
X88715369Y-118989415D01*
X88729830Y-118765639D01*
X90332591Y-118765639D01*
X90377511Y-119104439D01*
X90487664Y-119427966D01*
X90593662Y-119626274D01*
X90868288Y-119734107D01*
X91895395Y-118707000D01*
X92254605Y-118707000D01*
X93281712Y-119734107D01*
X93556338Y-119626274D01*
X93707216Y-119319616D01*
X93795369Y-118989415D01*
X93817409Y-118648361D01*
X93772489Y-118309561D01*
X93662336Y-117986034D01*
X93556338Y-117787726D01*
X93281712Y-117679893D01*
X92254605Y-118707000D01*
X91895395Y-118707000D01*
X90868288Y-117679893D01*
X90593662Y-117787726D01*
X90442784Y-118094384D01*
X90354631Y-118424585D01*
X90332591Y-118765639D01*
X88729830Y-118765639D01*
X88737409Y-118648361D01*
X88692489Y-118309561D01*
X88582336Y-117986034D01*
X88476338Y-117787726D01*
X88201712Y-117679893D01*
X87174605Y-118707000D01*
X86815395Y-118707000D01*
X85788288Y-117679893D01*
X85513662Y-117787726D01*
X85362784Y-118094384D01*
X85274631Y-118424585D01*
X85252591Y-118765639D01*
X83312000Y-118765639D01*
X83312000Y-117500288D01*
X85967893Y-117500288D01*
X86995000Y-118527395D01*
X88022107Y-117500288D01*
X91047893Y-117500288D01*
X92075000Y-118527395D01*
X93102107Y-117500288D01*
X92994274Y-117225662D01*
X92687616Y-117074784D01*
X92357415Y-116986631D01*
X92016361Y-116964591D01*
X91677561Y-117009511D01*
X91354034Y-117119664D01*
X91155726Y-117225662D01*
X91047893Y-117500288D01*
X88022107Y-117500288D01*
X87914274Y-117225662D01*
X87607616Y-117074784D01*
X87277415Y-116986631D01*
X86936361Y-116964591D01*
X86597561Y-117009511D01*
X86274034Y-117119664D01*
X86075726Y-117225662D01*
X85967893Y-117500288D01*
X83312000Y-117500288D01*
X83312000Y-112865000D01*
X83309560Y-112840224D01*
X83302333Y-112816399D01*
X83290597Y-112794443D01*
X83274803Y-112775197D01*
X82677000Y-112177394D01*
X82677000Y-109626712D01*
X84062893Y-109626712D01*
X84170726Y-109901338D01*
X84477384Y-110052216D01*
X84807585Y-110140369D01*
X85148639Y-110162409D01*
X85487439Y-110117489D01*
X85810966Y-110007336D01*
X86009274Y-109901338D01*
X86117107Y-109626712D01*
X85090000Y-108599605D01*
X84062893Y-109626712D01*
X82677000Y-109626712D01*
X82677000Y-108478639D01*
X83347591Y-108478639D01*
X83392511Y-108817439D01*
X83502664Y-109140966D01*
X83608662Y-109339274D01*
X83883288Y-109447107D01*
X84910395Y-108420000D01*
X85269605Y-108420000D01*
X86296712Y-109447107D01*
X86571338Y-109339274D01*
X86722216Y-109032616D01*
X86810369Y-108702415D01*
X86832409Y-108361361D01*
X86787489Y-108022561D01*
X86677336Y-107699034D01*
X86571338Y-107500726D01*
X86296712Y-107392893D01*
X85269605Y-108420000D01*
X84910395Y-108420000D01*
X83883288Y-107392893D01*
X83608662Y-107500726D01*
X83457784Y-107807384D01*
X83369631Y-108137585D01*
X83347591Y-108478639D01*
X82677000Y-108478639D01*
X82677000Y-107213288D01*
X84062893Y-107213288D01*
X85090000Y-108240395D01*
X86117107Y-107213288D01*
X86009274Y-106938662D01*
X85702616Y-106787784D01*
X85372415Y-106699631D01*
X85031361Y-106677591D01*
X84692561Y-106722511D01*
X84369034Y-106832664D01*
X84170726Y-106938662D01*
X84062893Y-107213288D01*
X82677000Y-107213288D01*
X82677000Y-106642000D01*
X90752394Y-106642000D01*
X91971943Y-107861549D01*
G37*
G04 #@! TD.AperFunction*
D18*
X108585000Y-121628000D02*
X97917000Y-121628000D01*
X97917000Y-120055386D01*
X105859115Y-120055386D01*
X105985588Y-120297362D01*
X106309195Y-120402276D01*
X106647052Y-120442043D01*
X106986176Y-120415132D01*
X107313532Y-120322579D01*
X107374412Y-120297362D01*
X107500885Y-120055386D01*
X106680000Y-119234502D01*
X105859115Y-120055386D01*
X97917000Y-120055386D01*
X97917000Y-118674052D01*
X104944957Y-118674052D01*
X104971868Y-119013176D01*
X105064421Y-119340532D01*
X105089638Y-119401412D01*
X105331614Y-119527885D01*
X106152498Y-118707000D01*
X107207502Y-118707000D01*
X108028386Y-119527885D01*
X108270362Y-119401412D01*
X108375276Y-119077805D01*
X108415043Y-118739948D01*
X108388132Y-118400824D01*
X108295579Y-118073468D01*
X108270362Y-118012588D01*
X108028386Y-117886115D01*
X107207502Y-118707000D01*
X106152498Y-118707000D01*
X105331614Y-117886115D01*
X105089638Y-118012588D01*
X104984724Y-118336195D01*
X104944957Y-118674052D01*
X97917000Y-118674052D01*
X97917000Y-117358614D01*
X105859115Y-117358614D01*
X106680000Y-118179498D01*
X107500885Y-117358614D01*
X107374412Y-117116638D01*
X107050805Y-117011724D01*
X106712948Y-116971957D01*
X106373824Y-116998868D01*
X106046468Y-117091421D01*
X105985588Y-117116638D01*
X105859115Y-117358614D01*
X97917000Y-117358614D01*
X97917000Y-113627000D01*
X108585000Y-113627000D01*
X108585000Y-121628000D01*
G04 #@! TA.AperFunction,Conductor*
D17*
G36*
X108585000Y-121628000D02*
G01*
X97917000Y-121628000D01*
X97917000Y-120055386D01*
X105859115Y-120055386D01*
X105985588Y-120297362D01*
X106309195Y-120402276D01*
X106647052Y-120442043D01*
X106986176Y-120415132D01*
X107313532Y-120322579D01*
X107374412Y-120297362D01*
X107500885Y-120055386D01*
X106680000Y-119234502D01*
X105859115Y-120055386D01*
X97917000Y-120055386D01*
X97917000Y-118674052D01*
X104944957Y-118674052D01*
X104971868Y-119013176D01*
X105064421Y-119340532D01*
X105089638Y-119401412D01*
X105331614Y-119527885D01*
X106152498Y-118707000D01*
X107207502Y-118707000D01*
X108028386Y-119527885D01*
X108270362Y-119401412D01*
X108375276Y-119077805D01*
X108415043Y-118739948D01*
X108388132Y-118400824D01*
X108295579Y-118073468D01*
X108270362Y-118012588D01*
X108028386Y-117886115D01*
X107207502Y-118707000D01*
X106152498Y-118707000D01*
X105331614Y-117886115D01*
X105089638Y-118012588D01*
X104984724Y-118336195D01*
X104944957Y-118674052D01*
X97917000Y-118674052D01*
X97917000Y-117358614D01*
X105859115Y-117358614D01*
X106680000Y-118179498D01*
X107500885Y-117358614D01*
X107374412Y-117116638D01*
X107050805Y-117011724D01*
X106712948Y-116971957D01*
X106373824Y-116998868D01*
X106046468Y-117091421D01*
X105985588Y-117116638D01*
X105859115Y-117358614D01*
X97917000Y-117358614D01*
X97917000Y-113627000D01*
X108585000Y-113627000D01*
X108585000Y-121628000D01*
G37*
G04 #@! TD.AperFunction*
D18*
X120523000Y-121628000D02*
X109347000Y-121628000D01*
X109347000Y-120055386D01*
X110939115Y-120055386D01*
X111065588Y-120297362D01*
X111389195Y-120402276D01*
X111727052Y-120442043D01*
X112066176Y-120415132D01*
X112393532Y-120322579D01*
X112454412Y-120297362D01*
X112580885Y-120055386D01*
X111760000Y-119234502D01*
X110939115Y-120055386D01*
X109347000Y-120055386D01*
X109347000Y-118674052D01*
X110024957Y-118674052D01*
X110051868Y-119013176D01*
X110144421Y-119340532D01*
X110169638Y-119401412D01*
X110411614Y-119527885D01*
X111232498Y-118707000D01*
X112287502Y-118707000D01*
X113108386Y-119527885D01*
X113350362Y-119401412D01*
X113455276Y-119077805D01*
X113495043Y-118739948D01*
X113468132Y-118400824D01*
X113375579Y-118073468D01*
X113350362Y-118012588D01*
X113108386Y-117886115D01*
X112287502Y-118707000D01*
X111232498Y-118707000D01*
X110411614Y-117886115D01*
X110169638Y-118012588D01*
X110064724Y-118336195D01*
X110024957Y-118674052D01*
X109347000Y-118674052D01*
X109347000Y-117358614D01*
X110939115Y-117358614D01*
X111760000Y-118179498D01*
X112580885Y-117358614D01*
X112454412Y-117116638D01*
X112130805Y-117011724D01*
X111792948Y-116971957D01*
X111453824Y-116998868D01*
X111126468Y-117091421D01*
X111065588Y-117116638D01*
X110939115Y-117358614D01*
X109347000Y-117358614D01*
X109347000Y-113627000D01*
X120523000Y-113627000D01*
X120523000Y-121628000D01*
G04 #@! TA.AperFunction,Conductor*
D17*
G36*
X120523000Y-121628000D02*
G01*
X109347000Y-121628000D01*
X109347000Y-120055386D01*
X110939115Y-120055386D01*
X111065588Y-120297362D01*
X111389195Y-120402276D01*
X111727052Y-120442043D01*
X112066176Y-120415132D01*
X112393532Y-120322579D01*
X112454412Y-120297362D01*
X112580885Y-120055386D01*
X111760000Y-119234502D01*
X110939115Y-120055386D01*
X109347000Y-120055386D01*
X109347000Y-118674052D01*
X110024957Y-118674052D01*
X110051868Y-119013176D01*
X110144421Y-119340532D01*
X110169638Y-119401412D01*
X110411614Y-119527885D01*
X111232498Y-118707000D01*
X112287502Y-118707000D01*
X113108386Y-119527885D01*
X113350362Y-119401412D01*
X113455276Y-119077805D01*
X113495043Y-118739948D01*
X113468132Y-118400824D01*
X113375579Y-118073468D01*
X113350362Y-118012588D01*
X113108386Y-117886115D01*
X112287502Y-118707000D01*
X111232498Y-118707000D01*
X110411614Y-117886115D01*
X110169638Y-118012588D01*
X110064724Y-118336195D01*
X110024957Y-118674052D01*
X109347000Y-118674052D01*
X109347000Y-117358614D01*
X110939115Y-117358614D01*
X111760000Y-118179498D01*
X112580885Y-117358614D01*
X112454412Y-117116638D01*
X112130805Y-117011724D01*
X111792948Y-116971957D01*
X111453824Y-116998868D01*
X111126468Y-117091421D01*
X111065588Y-117116638D01*
X110939115Y-117358614D01*
X109347000Y-117358614D01*
X109347000Y-113627000D01*
X120523000Y-113627000D01*
X120523000Y-121628000D01*
G37*
G04 #@! TD.AperFunction*
M02*
