%FSLAX45Y45*%
G04 Gerber Fmt 4.5, Leading zero omitted, Abs format (unit mm)*
G04 Created by KiCad (PCBNEW 5.1.10) date 2021-12-19 01:12:47*
%MOMM*%
%LPD*%
G01*
G04 APERTURE LIST*
%TA.AperFunction,Profile*%
%ADD10C,0.050000*%
%TD*%
%ADD11C,0.200000*%
%ADD12C,0.300000*%
G04 APERTURE END LIST*
D10*
X8441500Y-14732000D02*
G75*
G02*
X8191500Y-14482000I0J250000D01*
G01*
X8191500Y-9982000D02*
G75*
G02*
X8441500Y-9732000I250000J0D01*
G01*
X12941500Y-9732000D02*
G75*
G02*
X13191500Y-9982000I0J-250000D01*
G01*
X13191500Y-14482000D02*
G75*
G02*
X12941500Y-14732000I-250000J0D01*
G01*
X8191500Y-9982000D02*
X8191500Y-14482000D01*
X12941500Y-9732000D02*
X8441500Y-9732000D01*
X13191500Y-14482000D02*
X13191500Y-9982000D01*
X8441500Y-14732000D02*
X12941500Y-14732000D01*
D11*
X8379700Y-10678400D02*
X8409700Y-10708400D01*
X8409700Y-10678400D02*
X8379700Y-10708400D01*
X8379700Y-10767300D02*
X8409700Y-10797300D01*
X8409700Y-10767300D02*
X8379700Y-10797300D01*
X8414300Y-10843500D02*
X8444300Y-10873500D01*
X8444300Y-10843500D02*
X8414300Y-10873500D01*
X8414300Y-10940774D02*
X8444300Y-10970774D01*
X8444300Y-10940774D02*
X8414300Y-10970774D01*
X8494000Y-11351500D02*
X8524000Y-11381500D01*
X8524000Y-11351500D02*
X8494000Y-11381500D01*
X8494000Y-11478500D02*
X8524000Y-11508500D01*
X8524000Y-11478500D02*
X8494000Y-11508500D01*
X8494000Y-11605500D02*
X8524000Y-11635500D01*
X8524000Y-11605500D02*
X8494000Y-11635500D01*
X8494000Y-11732500D02*
X8524000Y-11762500D01*
X8524000Y-11732500D02*
X8494000Y-11762500D01*
X8494000Y-11859500D02*
X8524000Y-11889500D01*
X8524000Y-11859500D02*
X8494000Y-11889500D01*
X8494000Y-11986500D02*
X8524000Y-12016500D01*
X8524000Y-11986500D02*
X8494000Y-12016500D01*
X8494000Y-12113500D02*
X8524000Y-12143500D01*
X8524000Y-12113500D02*
X8494000Y-12143500D01*
X8494000Y-12240500D02*
X8524000Y-12270500D01*
X8524000Y-12240500D02*
X8494000Y-12270500D01*
X8494000Y-12367500D02*
X8524000Y-12397500D01*
X8524000Y-12367500D02*
X8494000Y-12397500D01*
X8494000Y-12494500D02*
X8524000Y-12524500D01*
X8524000Y-12494500D02*
X8494000Y-12524500D01*
X8494000Y-12621500D02*
X8524000Y-12651500D01*
X8524000Y-12621500D02*
X8494000Y-12651500D01*
X8494000Y-12748500D02*
X8524000Y-12778500D01*
X8524000Y-12748500D02*
X8494000Y-12778500D01*
X8494000Y-12875500D02*
X8524000Y-12905500D01*
X8524000Y-12875500D02*
X8494000Y-12905500D01*
X8494000Y-13002500D02*
X8524000Y-13032500D01*
X8524000Y-13002500D02*
X8494000Y-13032500D01*
X8494000Y-13129500D02*
X8524000Y-13159500D01*
X8524000Y-13129500D02*
X8494000Y-13159500D01*
X8494000Y-13256500D02*
X8524000Y-13286500D01*
X8524000Y-13256500D02*
X8494000Y-13286500D01*
X8494000Y-13383500D02*
X8524000Y-13413500D01*
X8524000Y-13383500D02*
X8494000Y-13413500D01*
X8494000Y-13510500D02*
X8524000Y-13540500D01*
X8524000Y-13510500D02*
X8494000Y-13540500D01*
X8494000Y-13637500D02*
X8524000Y-13667500D01*
X8524000Y-13637500D02*
X8494000Y-13667500D01*
X8494000Y-13764500D02*
X8524000Y-13794500D01*
X8524000Y-13764500D02*
X8494000Y-13794500D01*
X8494000Y-13891500D02*
X8524000Y-13921500D01*
X8524000Y-13891500D02*
X8494000Y-13921500D01*
X8494000Y-14018500D02*
X8524000Y-14048500D01*
X8524000Y-14018500D02*
X8494000Y-14048500D01*
X8549700Y-10749133D02*
X8579700Y-10779133D01*
X8579700Y-10749133D02*
X8549700Y-10779133D01*
X8557500Y-11062900D02*
X8587500Y-11092900D01*
X8587500Y-11062900D02*
X8557500Y-11092900D01*
X8621000Y-13002500D02*
X8651000Y-13032500D01*
X8651000Y-13002500D02*
X8621000Y-13032500D01*
X8621000Y-13129500D02*
X8651000Y-13159500D01*
X8651000Y-13129500D02*
X8621000Y-13159500D01*
X8621000Y-13256500D02*
X8651000Y-13286500D01*
X8651000Y-13256500D02*
X8621000Y-13286500D01*
X8621000Y-13383500D02*
X8651000Y-13413500D01*
X8651000Y-13383500D02*
X8621000Y-13413500D01*
X8621000Y-13637500D02*
X8651000Y-13667500D01*
X8651000Y-13637500D02*
X8621000Y-13667500D01*
X8621000Y-13764500D02*
X8651000Y-13794500D01*
X8651000Y-13764500D02*
X8621000Y-13794500D01*
X8621000Y-13891500D02*
X8651000Y-13921500D01*
X8651000Y-13891500D02*
X8621000Y-13921500D01*
X8621000Y-14018500D02*
X8651000Y-14048500D01*
X8651000Y-14018500D02*
X8621000Y-14048500D01*
X8633700Y-10714998D02*
X8663700Y-10744998D01*
X8663700Y-10714998D02*
X8633700Y-10744998D01*
X8646400Y-10322800D02*
X8676400Y-10352800D01*
X8676400Y-10322800D02*
X8646400Y-10352800D01*
X8748000Y-13637500D02*
X8778000Y-13667500D01*
X8778000Y-13637500D02*
X8748000Y-13667500D01*
X8748000Y-13764500D02*
X8778000Y-13794500D01*
X8778000Y-13764500D02*
X8748000Y-13794500D01*
X8748000Y-13891500D02*
X8778000Y-13921500D01*
X8778000Y-13891500D02*
X8748000Y-13921500D01*
X8938500Y-13002500D02*
X8968500Y-13032500D01*
X8968500Y-13002500D02*
X8938500Y-13032500D01*
X9002000Y-14526500D02*
X9032000Y-14556500D01*
X9032000Y-14526500D02*
X9002000Y-14556500D01*
X9065500Y-11161000D02*
X9095500Y-11191000D01*
X9095500Y-11161000D02*
X9065500Y-11191000D01*
X9065500Y-13002500D02*
X9095500Y-13032500D01*
X9095500Y-13002500D02*
X9065500Y-13032500D01*
X9065500Y-13637500D02*
X9095500Y-13667500D01*
X9095500Y-13637500D02*
X9065500Y-13667500D01*
X9065500Y-13764500D02*
X9095500Y-13794500D01*
X9095500Y-13764500D02*
X9065500Y-13794500D01*
X9129000Y-14526500D02*
X9159000Y-14556500D01*
X9159000Y-14526500D02*
X9129000Y-14556500D01*
X9192500Y-13002500D02*
X9222500Y-13032500D01*
X9222500Y-13002500D02*
X9192500Y-13032500D01*
X9192500Y-13637500D02*
X9222500Y-13667500D01*
X9222500Y-13637500D02*
X9192500Y-13667500D01*
X9192500Y-13764500D02*
X9222500Y-13794500D01*
X9222500Y-13764500D02*
X9192500Y-13794500D01*
X9202801Y-10564100D02*
X9232801Y-10594100D01*
X9232801Y-10564100D02*
X9202801Y-10594100D01*
X9256000Y-14526500D02*
X9286000Y-14556500D01*
X9286000Y-14526500D02*
X9256000Y-14556500D01*
X9319500Y-13002500D02*
X9349500Y-13032500D01*
X9349500Y-13002500D02*
X9319500Y-13032500D01*
X9319500Y-13637500D02*
X9349500Y-13667500D01*
X9349500Y-13637500D02*
X9319500Y-13667500D01*
X9319500Y-13764500D02*
X9349500Y-13794500D01*
X9349500Y-13764500D02*
X9319500Y-13794500D01*
X9383000Y-14526500D02*
X9413000Y-14556500D01*
X9413000Y-14526500D02*
X9383000Y-14556500D01*
X9446500Y-11542000D02*
X9476500Y-11572000D01*
X9476500Y-11542000D02*
X9446500Y-11572000D01*
X9446500Y-13002500D02*
X9476500Y-13032500D01*
X9476500Y-13002500D02*
X9446500Y-13032500D01*
X9446500Y-13637500D02*
X9476500Y-13667500D01*
X9476500Y-13637500D02*
X9446500Y-13667500D01*
X9446500Y-13764500D02*
X9476500Y-13794500D01*
X9476500Y-13764500D02*
X9446500Y-13794500D01*
X9510000Y-14526500D02*
X9540000Y-14556500D01*
X9540000Y-14526500D02*
X9510000Y-14556500D01*
X9573500Y-13002500D02*
X9603500Y-13032500D01*
X9603500Y-13002500D02*
X9573500Y-13032500D01*
X9573500Y-13637500D02*
X9603500Y-13667500D01*
X9603500Y-13637500D02*
X9573500Y-13667500D01*
X9573500Y-13764500D02*
X9603500Y-13794500D01*
X9603500Y-13764500D02*
X9573500Y-13794500D01*
X9637000Y-14526500D02*
X9667000Y-14556500D01*
X9667000Y-14526500D02*
X9637000Y-14556500D01*
X9700500Y-13002500D02*
X9730500Y-13032500D01*
X9730500Y-13002500D02*
X9700500Y-13032500D01*
X9700500Y-13637500D02*
X9730500Y-13667500D01*
X9730500Y-13637500D02*
X9700500Y-13667500D01*
X9700500Y-13764500D02*
X9730500Y-13794500D01*
X9730500Y-13764500D02*
X9700500Y-13794500D01*
X9764000Y-14526500D02*
X9794000Y-14556500D01*
X9794000Y-14526500D02*
X9764000Y-14556500D01*
X9827500Y-13637500D02*
X9857500Y-13667500D01*
X9857500Y-13637500D02*
X9827500Y-13667500D01*
X9827500Y-13764500D02*
X9857500Y-13794500D01*
X9857500Y-13764500D02*
X9827500Y-13794500D01*
X9891000Y-14526500D02*
X9921000Y-14556500D01*
X9921000Y-14526500D02*
X9891000Y-14556500D01*
X9954500Y-13637500D02*
X9984500Y-13667500D01*
X9984500Y-13637500D02*
X9954500Y-13667500D01*
X9954500Y-13764500D02*
X9984500Y-13794500D01*
X9984500Y-13764500D02*
X9954500Y-13794500D01*
X10018000Y-14526500D02*
X10048000Y-14556500D01*
X10048000Y-14526500D02*
X10018000Y-14556500D01*
X10081500Y-10703800D02*
X10111500Y-10733800D01*
X10111500Y-10703800D02*
X10081500Y-10733800D01*
X10145000Y-13002500D02*
X10175000Y-13032500D01*
X10175000Y-13002500D02*
X10145000Y-13032500D01*
X10145000Y-14526500D02*
X10175000Y-14556500D01*
X10175000Y-14526500D02*
X10145000Y-14556500D01*
X10157700Y-11237200D02*
X10187700Y-11267200D01*
X10187700Y-11237200D02*
X10157700Y-11267200D01*
X10272000Y-13002500D02*
X10302000Y-13032500D01*
X10302000Y-13002500D02*
X10272000Y-13032500D01*
X10272000Y-14526500D02*
X10302000Y-14556500D01*
X10302000Y-14526500D02*
X10272000Y-14556500D01*
X10399000Y-13002500D02*
X10429000Y-13032500D01*
X10429000Y-13002500D02*
X10399000Y-13032500D01*
X10399000Y-14526500D02*
X10429000Y-14556500D01*
X10429000Y-14526500D02*
X10399000Y-14556500D01*
X10462500Y-11288000D02*
X10492500Y-11318000D01*
X10492500Y-11288000D02*
X10462500Y-11318000D01*
X10526000Y-13002500D02*
X10556000Y-13032500D01*
X10556000Y-13002500D02*
X10526000Y-13032500D01*
X10526000Y-14526500D02*
X10556000Y-14556500D01*
X10556000Y-14526500D02*
X10526000Y-14556500D01*
X10576800Y-13637500D02*
X10606800Y-13667500D01*
X10606800Y-13637500D02*
X10576800Y-13667500D01*
X10576800Y-13764500D02*
X10606800Y-13794500D01*
X10606800Y-13764500D02*
X10576800Y-13794500D01*
X10653000Y-13002500D02*
X10683000Y-13032500D01*
X10683000Y-13002500D02*
X10653000Y-13032500D01*
X10653000Y-14526500D02*
X10683000Y-14556500D01*
X10683000Y-14526500D02*
X10653000Y-14556500D01*
X10703800Y-13637500D02*
X10733800Y-13667500D01*
X10733800Y-13637500D02*
X10703800Y-13667500D01*
X10703800Y-13764500D02*
X10733800Y-13794500D01*
X10733800Y-13764500D02*
X10703800Y-13794500D01*
X10716500Y-11161000D02*
X10746500Y-11191000D01*
X10746500Y-11161000D02*
X10716500Y-11191000D01*
X10780000Y-13002500D02*
X10810000Y-13032500D01*
X10810000Y-13002500D02*
X10780000Y-13032500D01*
X10780000Y-14526500D02*
X10810000Y-14556500D01*
X10810000Y-14526500D02*
X10780000Y-14556500D01*
X10830800Y-13637500D02*
X10860800Y-13667500D01*
X10860800Y-13637500D02*
X10830800Y-13667500D01*
X10830800Y-13764500D02*
X10860800Y-13794500D01*
X10860800Y-13764500D02*
X10830800Y-13794500D01*
X10907000Y-13002500D02*
X10937000Y-13032500D01*
X10937000Y-13002500D02*
X10907000Y-13032500D01*
X10907000Y-14526500D02*
X10937000Y-14556500D01*
X10937000Y-14526500D02*
X10907000Y-14556500D01*
X10957800Y-13637500D02*
X10987800Y-13667500D01*
X10987800Y-13637500D02*
X10957800Y-13667500D01*
X10957800Y-13764500D02*
X10987800Y-13794500D01*
X10987800Y-13764500D02*
X10957800Y-13794500D01*
X11008600Y-12164300D02*
X11038600Y-12194300D01*
X11038600Y-12164300D02*
X11008600Y-12194300D01*
X11034000Y-13002500D02*
X11064000Y-13032500D01*
X11064000Y-13002500D02*
X11034000Y-13032500D01*
X11034000Y-14526500D02*
X11064000Y-14556500D01*
X11064000Y-14526500D02*
X11034000Y-14556500D01*
X11058100Y-11575300D02*
X11088100Y-11605300D01*
X11088100Y-11575300D02*
X11058100Y-11605300D01*
X11059400Y-11389600D02*
X11089400Y-11419600D01*
X11089400Y-11389600D02*
X11059400Y-11419600D01*
X11084800Y-13637500D02*
X11114800Y-13667500D01*
X11114800Y-13637500D02*
X11084800Y-13667500D01*
X11084800Y-13764500D02*
X11114800Y-13794500D01*
X11114800Y-13764500D02*
X11084800Y-13794500D01*
X11161000Y-10640300D02*
X11191000Y-10670300D01*
X11191000Y-10640300D02*
X11161000Y-10670300D01*
X11161000Y-10830800D02*
X11191000Y-10860800D01*
X11191000Y-10830800D02*
X11161000Y-10860800D01*
X11161000Y-11021300D02*
X11191000Y-11051300D01*
X11191000Y-11021300D02*
X11161000Y-11051300D01*
X11161000Y-11618200D02*
X11191000Y-11648200D01*
X11191000Y-11618200D02*
X11161000Y-11648200D01*
X11161000Y-13002500D02*
X11191000Y-13032500D01*
X11191000Y-13002500D02*
X11161000Y-13032500D01*
X11161000Y-14526500D02*
X11191000Y-14556500D01*
X11191000Y-14526500D02*
X11161000Y-14556500D01*
X11211800Y-13637500D02*
X11241800Y-13667500D01*
X11241800Y-13637500D02*
X11211800Y-13667500D01*
X11211800Y-13764500D02*
X11241800Y-13794500D01*
X11241800Y-13764500D02*
X11211800Y-13794500D01*
X11288000Y-13002500D02*
X11318000Y-13032500D01*
X11318000Y-13002500D02*
X11288000Y-13032500D01*
X11288000Y-14526500D02*
X11318000Y-14556500D01*
X11318000Y-14526500D02*
X11288000Y-14556500D01*
X11326100Y-11669000D02*
X11356100Y-11699000D01*
X11356100Y-11669000D02*
X11326100Y-11699000D01*
X11338800Y-13637500D02*
X11368800Y-13667500D01*
X11368800Y-13637500D02*
X11338800Y-13667500D01*
X11338800Y-13764500D02*
X11368800Y-13794500D01*
X11368800Y-13764500D02*
X11338800Y-13794500D01*
X11415000Y-13002500D02*
X11445000Y-13032500D01*
X11445000Y-13002500D02*
X11415000Y-13032500D01*
X11415000Y-14526500D02*
X11445000Y-14556500D01*
X11445000Y-14526500D02*
X11415000Y-14556500D01*
X11432700Y-13251500D02*
X11462700Y-13281500D01*
X11462700Y-13251500D02*
X11432700Y-13281500D01*
X11441100Y-11542000D02*
X11471100Y-11572000D01*
X11471100Y-11542000D02*
X11441100Y-11572000D01*
X11516600Y-12164300D02*
X11546600Y-12194300D01*
X11546600Y-12164300D02*
X11516600Y-12194300D01*
X11542000Y-13002500D02*
X11572000Y-13032500D01*
X11572000Y-13002500D02*
X11542000Y-13032500D01*
X11542000Y-14526500D02*
X11572000Y-14556500D01*
X11572000Y-14526500D02*
X11542000Y-14556500D01*
X11618200Y-11796000D02*
X11648200Y-11826000D01*
X11648200Y-11796000D02*
X11618200Y-11826000D01*
X11618200Y-13637500D02*
X11648200Y-13667500D01*
X11648200Y-13637500D02*
X11618200Y-13667500D01*
X11618200Y-13764500D02*
X11648200Y-13794500D01*
X11648200Y-13764500D02*
X11618200Y-13794500D01*
X11669000Y-13002500D02*
X11699000Y-13032500D01*
X11699000Y-13002500D02*
X11669000Y-13032500D01*
X11669000Y-14526500D02*
X11699000Y-14556500D01*
X11699000Y-14526500D02*
X11669000Y-14556500D01*
X11745200Y-12037300D02*
X11775200Y-12067300D01*
X11775200Y-12037300D02*
X11745200Y-12067300D01*
X11745200Y-13637500D02*
X11775200Y-13667500D01*
X11775200Y-13637500D02*
X11745200Y-13667500D01*
X11745200Y-13764500D02*
X11775200Y-13794500D01*
X11775200Y-13764500D02*
X11745200Y-13794500D01*
X11796000Y-12342100D02*
X11826000Y-12372100D01*
X11826000Y-12342100D02*
X11796000Y-12372100D01*
X11796000Y-13002500D02*
X11826000Y-13032500D01*
X11826000Y-13002500D02*
X11796000Y-13032500D01*
X11796000Y-14526500D02*
X11826000Y-14556500D01*
X11826000Y-14526500D02*
X11796000Y-14556500D01*
X11872200Y-13637500D02*
X11902200Y-13667500D01*
X11902200Y-13637500D02*
X11872200Y-13667500D01*
X11872200Y-13764500D02*
X11902200Y-13794500D01*
X11902200Y-13764500D02*
X11872200Y-13794500D01*
X11923000Y-13002500D02*
X11953000Y-13032500D01*
X11953000Y-13002500D02*
X11923000Y-13032500D01*
X11923000Y-14526500D02*
X11953000Y-14556500D01*
X11953000Y-14526500D02*
X11923000Y-14556500D01*
X11973800Y-12291300D02*
X12003800Y-12321300D01*
X12003800Y-12291300D02*
X11973800Y-12321300D01*
X11999200Y-13637500D02*
X12029200Y-13667500D01*
X12029200Y-13637500D02*
X11999200Y-13667500D01*
X11999200Y-13764500D02*
X12029200Y-13794500D01*
X12029200Y-13764500D02*
X11999200Y-13794500D01*
X12050000Y-13002500D02*
X12080000Y-13032500D01*
X12080000Y-13002500D02*
X12050000Y-13032500D01*
X12050000Y-14526500D02*
X12080000Y-14556500D01*
X12080000Y-14526500D02*
X12050000Y-14556500D01*
X12126200Y-13637500D02*
X12156200Y-13667500D01*
X12156200Y-13637500D02*
X12126200Y-13667500D01*
X12126200Y-13764500D02*
X12156200Y-13794500D01*
X12156200Y-13764500D02*
X12126200Y-13794500D01*
X12177000Y-13002500D02*
X12207000Y-13032500D01*
X12207000Y-13002500D02*
X12177000Y-13032500D01*
X12177000Y-14526500D02*
X12207000Y-14556500D01*
X12207000Y-14526500D02*
X12177000Y-14556500D01*
X12202400Y-11757900D02*
X12232400Y-11787900D01*
X12232400Y-11757900D02*
X12202400Y-11787900D01*
X12207500Y-11605500D02*
X12237500Y-11635500D01*
X12237500Y-11605500D02*
X12207500Y-11635500D01*
X12253200Y-13637500D02*
X12283200Y-13667500D01*
X12283200Y-13637500D02*
X12253200Y-13667500D01*
X12253200Y-13764500D02*
X12283200Y-13794500D01*
X12283200Y-13764500D02*
X12253200Y-13794500D01*
X12304000Y-11846800D02*
X12334000Y-11876800D01*
X12334000Y-11846800D02*
X12304000Y-11876800D01*
X12304000Y-13002500D02*
X12334000Y-13032500D01*
X12334000Y-13002500D02*
X12304000Y-13032500D01*
X12304000Y-14526500D02*
X12334000Y-14556500D01*
X12334000Y-14526500D02*
X12304000Y-14556500D01*
X12380200Y-12037300D02*
X12410200Y-12067300D01*
X12410200Y-12037300D02*
X12380200Y-12067300D01*
X12380200Y-13637500D02*
X12410200Y-13667500D01*
X12410200Y-13637500D02*
X12380200Y-13667500D01*
X12380200Y-13764500D02*
X12410200Y-13794500D01*
X12410200Y-13764500D02*
X12380200Y-13794500D01*
X12431000Y-12342100D02*
X12461000Y-12372100D01*
X12461000Y-12342100D02*
X12431000Y-12372100D01*
X12431000Y-13002500D02*
X12461000Y-13032500D01*
X12461000Y-13002500D02*
X12431000Y-13032500D01*
X12431000Y-14526500D02*
X12461000Y-14556500D01*
X12461000Y-14526500D02*
X12431000Y-14556500D01*
X12558000Y-13002500D02*
X12588000Y-13032500D01*
X12588000Y-13002500D02*
X12558000Y-13032500D01*
X12608800Y-12291300D02*
X12638800Y-12321300D01*
X12638800Y-12291300D02*
X12608800Y-12321300D01*
X12685000Y-13002500D02*
X12715000Y-13032500D01*
X12715000Y-13002500D02*
X12685000Y-13032500D01*
X12769850Y-13069800D02*
X12799850Y-13099800D01*
X12799850Y-13069800D02*
X12769850Y-13099800D01*
X12812000Y-13383500D02*
X12842000Y-13413500D01*
X12842000Y-13383500D02*
X12812000Y-13413500D01*
X12812000Y-13510500D02*
X12842000Y-13540500D01*
X12842000Y-13510500D02*
X12812000Y-13540500D01*
X12812000Y-13637500D02*
X12842000Y-13667500D01*
X12842000Y-13637500D02*
X12812000Y-13667500D01*
X12812000Y-13764500D02*
X12842000Y-13794500D01*
X12842000Y-13764500D02*
X12812000Y-13794500D01*
X12812000Y-13891500D02*
X12842000Y-13921500D01*
X12842000Y-13891500D02*
X12812000Y-13921500D01*
X12812000Y-14018500D02*
X12842000Y-14048500D01*
X12842000Y-14018500D02*
X12812000Y-14048500D01*
X12837400Y-11757900D02*
X12867400Y-11787900D01*
X12867400Y-11757900D02*
X12837400Y-11787900D01*
X12939000Y-11097500D02*
X12969000Y-11127500D01*
X12969000Y-11097500D02*
X12939000Y-11127500D01*
X12939000Y-11224500D02*
X12969000Y-11254500D01*
X12969000Y-11224500D02*
X12939000Y-11254500D01*
X12939000Y-11351500D02*
X12969000Y-11381500D01*
X12969000Y-11351500D02*
X12939000Y-11381500D01*
X12939000Y-11478500D02*
X12969000Y-11508500D01*
X12969000Y-11478500D02*
X12939000Y-11508500D01*
X12939000Y-11605500D02*
X12969000Y-11635500D01*
X12969000Y-11605500D02*
X12939000Y-11635500D01*
X12939000Y-11732500D02*
X12969000Y-11762500D01*
X12969000Y-11732500D02*
X12939000Y-11762500D01*
X12939000Y-11859500D02*
X12969000Y-11889500D01*
X12969000Y-11859500D02*
X12939000Y-11889500D01*
X12939000Y-11986500D02*
X12969000Y-12016500D01*
X12969000Y-11986500D02*
X12939000Y-12016500D01*
X12939000Y-12113500D02*
X12969000Y-12143500D01*
X12969000Y-12113500D02*
X12939000Y-12143500D01*
X12939000Y-12240500D02*
X12969000Y-12270500D01*
X12969000Y-12240500D02*
X12939000Y-12270500D01*
X12939000Y-12367500D02*
X12969000Y-12397500D01*
X12969000Y-12367500D02*
X12939000Y-12397500D01*
X12939000Y-12494500D02*
X12969000Y-12524500D01*
X12969000Y-12494500D02*
X12939000Y-12524500D01*
X12939000Y-12621500D02*
X12969000Y-12651500D01*
X12969000Y-12621500D02*
X12939000Y-12651500D01*
X12939000Y-12748500D02*
X12969000Y-12778500D01*
X12969000Y-12748500D02*
X12939000Y-12778500D01*
X12939000Y-12875500D02*
X12969000Y-12905500D01*
X12969000Y-12875500D02*
X12939000Y-12905500D01*
X12939000Y-13002500D02*
X12969000Y-13032500D01*
X12969000Y-13002500D02*
X12939000Y-13032500D01*
X12939000Y-13129500D02*
X12969000Y-13159500D01*
X12969000Y-13129500D02*
X12939000Y-13159500D01*
X12939000Y-13256500D02*
X12969000Y-13286500D01*
X12969000Y-13256500D02*
X12939000Y-13286500D01*
X12939000Y-13383500D02*
X12969000Y-13413500D01*
X12969000Y-13383500D02*
X12939000Y-13413500D01*
X12939000Y-13510500D02*
X12969000Y-13540500D01*
X12969000Y-13510500D02*
X12939000Y-13540500D01*
X12939000Y-13637500D02*
X12969000Y-13667500D01*
X12969000Y-13637500D02*
X12939000Y-13667500D01*
X12939000Y-13764500D02*
X12969000Y-13794500D01*
X12969000Y-13764500D02*
X12939000Y-13794500D01*
X12939000Y-13891500D02*
X12969000Y-13921500D01*
X12969000Y-13891500D02*
X12939000Y-13921500D01*
X12939000Y-14018500D02*
X12969000Y-14048500D01*
X12969000Y-14018500D02*
X12939000Y-14048500D01*
X8508200Y-9994900D02*
G75*
G03*
X8508200Y-9994900I-50000J0D01*
G01*
X8762200Y-9994900D02*
G75*
G03*
X8762200Y-9994900I-50000J0D01*
G01*
X9016200Y-9994900D02*
G75*
G03*
X9016200Y-9994900I-50000J0D01*
G01*
X9270200Y-9994900D02*
G75*
G03*
X9270200Y-9994900I-50000J0D01*
G01*
X9524200Y-9994900D02*
G75*
G03*
X9524200Y-9994900I-50000J0D01*
G01*
X10083000Y-9994900D02*
G75*
G03*
X10083000Y-9994900I-50000J0D01*
G01*
X10083000Y-10248900D02*
G75*
G03*
X10083000Y-10248900I-50000J0D01*
G01*
X10337000Y-9994900D02*
G75*
G03*
X10337000Y-9994900I-50000J0D01*
G01*
X10337000Y-10248900D02*
G75*
G03*
X10337000Y-10248900I-50000J0D01*
G01*
X10591000Y-9994900D02*
G75*
G03*
X10591000Y-9994900I-50000J0D01*
G01*
X10591000Y-10248900D02*
G75*
G03*
X10591000Y-10248900I-50000J0D01*
G01*
X10845000Y-9994900D02*
G75*
G03*
X10845000Y-9994900I-50000J0D01*
G01*
X10845000Y-10248900D02*
G75*
G03*
X10845000Y-10248900I-50000J0D01*
G01*
X11099000Y-9994900D02*
G75*
G03*
X11099000Y-9994900I-50000J0D01*
G01*
X11099000Y-10248900D02*
G75*
G03*
X11099000Y-10248900I-50000J0D01*
G01*
X11510000Y-10299600D02*
X11510000Y-10409600D01*
X11455000Y-10354600D02*
X11565000Y-10354600D01*
X11510000Y-11129600D02*
X11510000Y-11239600D01*
X11455000Y-11184600D02*
X11565000Y-11184600D01*
X12065000Y-10029600D02*
X12065000Y-10139600D01*
X12010000Y-10084600D02*
X12120000Y-10084600D01*
X12620000Y-10299600D02*
X12620000Y-10409600D01*
X12565000Y-10354600D02*
X12675000Y-10354600D01*
X12660000Y-11059600D02*
X12660000Y-11169600D01*
X12605000Y-11114600D02*
X12715000Y-11114600D01*
X9249927Y-12107427D02*
X9249927Y-12022573D01*
X9165073Y-12022573D01*
X9165073Y-12107427D01*
X9249927Y-12107427D01*
X9249927Y-12615427D02*
X9249927Y-12530573D01*
X9165073Y-12530573D01*
X9165073Y-12615427D01*
X9249927Y-12615427D01*
X9313427Y-14088627D02*
X9313427Y-14003773D01*
X9228573Y-14003773D01*
X9228573Y-14088627D01*
X9313427Y-14088627D01*
X9821427Y-14088627D02*
X9821427Y-14003773D01*
X9736573Y-14003773D01*
X9736573Y-14088627D01*
X9821427Y-14088627D01*
X10456427Y-12107427D02*
X10456427Y-12022573D01*
X10371573Y-12022573D01*
X10371573Y-12107427D01*
X10456427Y-12107427D01*
X10456427Y-12615427D02*
X10456427Y-12530573D01*
X10371573Y-12530573D01*
X10371573Y-12615427D01*
X10456427Y-12615427D01*
X11281927Y-14088627D02*
X11281927Y-14003773D01*
X11197073Y-14003773D01*
X11197073Y-14088627D01*
X11281927Y-14088627D01*
X11789927Y-14088627D02*
X11789927Y-14003773D01*
X11705073Y-14003773D01*
X11705073Y-14088627D01*
X11789927Y-14088627D01*
X11417500Y-10884600D02*
X11527500Y-10774600D01*
X11417500Y-10664600D01*
X11307500Y-10774600D01*
X11417500Y-10884600D01*
X11407500Y-10874600D02*
X11427500Y-10874600D01*
X11407500Y-10674600D02*
X11427500Y-10674600D01*
X11427500Y-10874600D02*
G75*
G03*
X11427500Y-10674600I0J100000D01*
G01*
X11407500Y-10674600D02*
G75*
G03*
X11407500Y-10874600I0J-100000D01*
G01*
X12712500Y-10884600D02*
X12822500Y-10774600D01*
X12712500Y-10664600D01*
X12602500Y-10774600D01*
X12712500Y-10884600D01*
X12702500Y-10874600D02*
X12722500Y-10874600D01*
X12702500Y-10674600D02*
X12722500Y-10674600D01*
X12722500Y-10874600D02*
G75*
G03*
X12722500Y-10674600I0J100000D01*
G01*
X12702500Y-10674600D02*
G75*
G03*
X12702500Y-10874600I0J-100000D01*
G01*
D12*
X8475428Y-15200214D02*
X8475428Y-14900214D01*
X8546857Y-14900214D01*
X8589714Y-14914500D01*
X8618286Y-14943071D01*
X8632571Y-14971643D01*
X8646857Y-15028786D01*
X8646857Y-15071643D01*
X8632571Y-15128786D01*
X8618286Y-15157357D01*
X8589714Y-15185929D01*
X8546857Y-15200214D01*
X8475428Y-15200214D01*
X8775428Y-15200214D02*
X8775428Y-15000214D01*
X8775428Y-15057357D02*
X8789714Y-15028786D01*
X8804000Y-15014500D01*
X8832571Y-15000214D01*
X8861143Y-15000214D01*
X8961143Y-15200214D02*
X8961143Y-15000214D01*
X8961143Y-14900214D02*
X8946857Y-14914500D01*
X8961143Y-14928786D01*
X8975428Y-14914500D01*
X8961143Y-14900214D01*
X8961143Y-14928786D01*
X9146857Y-15200214D02*
X9118286Y-15185929D01*
X9104000Y-15157357D01*
X9104000Y-14900214D01*
X9304000Y-15200214D02*
X9275428Y-15185929D01*
X9261143Y-15157357D01*
X9261143Y-14900214D01*
X9646857Y-15200214D02*
X9646857Y-14900214D01*
X9746857Y-15114500D01*
X9846857Y-14900214D01*
X9846857Y-15200214D01*
X10118286Y-15200214D02*
X10118286Y-15043071D01*
X10104000Y-15014500D01*
X10075428Y-15000214D01*
X10018286Y-15000214D01*
X9989714Y-15014500D01*
X10118286Y-15185929D02*
X10089714Y-15200214D01*
X10018286Y-15200214D01*
X9989714Y-15185929D01*
X9975428Y-15157357D01*
X9975428Y-15128786D01*
X9989714Y-15100214D01*
X10018286Y-15085929D01*
X10089714Y-15085929D01*
X10118286Y-15071643D01*
X10261143Y-15000214D02*
X10261143Y-15300214D01*
X10261143Y-15014500D02*
X10289714Y-15000214D01*
X10346857Y-15000214D01*
X10375428Y-15014500D01*
X10389714Y-15028786D01*
X10404000Y-15057357D01*
X10404000Y-15143071D01*
X10389714Y-15171643D01*
X10375428Y-15185929D01*
X10346857Y-15200214D01*
X10289714Y-15200214D01*
X10261143Y-15185929D01*
X10532571Y-15171643D02*
X10546857Y-15185929D01*
X10532571Y-15200214D01*
X10518286Y-15185929D01*
X10532571Y-15171643D01*
X10532571Y-15200214D01*
X10532571Y-15014500D02*
X10546857Y-15028786D01*
X10532571Y-15043071D01*
X10518286Y-15028786D01*
X10532571Y-15014500D01*
X10532571Y-15043071D01*
X8159000Y-15679500D02*
X8189000Y-15709500D01*
X8189000Y-15679500D02*
X8159000Y-15709500D01*
X8532571Y-15530214D02*
X8561143Y-15530214D01*
X8589714Y-15544500D01*
X8604000Y-15558786D01*
X8618286Y-15587357D01*
X8632571Y-15644500D01*
X8632571Y-15715929D01*
X8618286Y-15773071D01*
X8604000Y-15801643D01*
X8589714Y-15815929D01*
X8561143Y-15830214D01*
X8532571Y-15830214D01*
X8504000Y-15815929D01*
X8489714Y-15801643D01*
X8475428Y-15773071D01*
X8461143Y-15715929D01*
X8461143Y-15644500D01*
X8475428Y-15587357D01*
X8489714Y-15558786D01*
X8504000Y-15544500D01*
X8532571Y-15530214D01*
X8761143Y-15801643D02*
X8775428Y-15815929D01*
X8761143Y-15830214D01*
X8746857Y-15815929D01*
X8761143Y-15801643D01*
X8761143Y-15830214D01*
X8875428Y-15530214D02*
X9061143Y-15530214D01*
X8961143Y-15644500D01*
X9004000Y-15644500D01*
X9032571Y-15658786D01*
X9046857Y-15673071D01*
X9061143Y-15701643D01*
X9061143Y-15773071D01*
X9046857Y-15801643D01*
X9032571Y-15815929D01*
X9004000Y-15830214D01*
X8918286Y-15830214D01*
X8889714Y-15815929D01*
X8875428Y-15801643D01*
X9246857Y-15530214D02*
X9275428Y-15530214D01*
X9304000Y-15544500D01*
X9318286Y-15558786D01*
X9332571Y-15587357D01*
X9346857Y-15644500D01*
X9346857Y-15715929D01*
X9332571Y-15773071D01*
X9318286Y-15801643D01*
X9304000Y-15815929D01*
X9275428Y-15830214D01*
X9246857Y-15830214D01*
X9218286Y-15815929D01*
X9204000Y-15801643D01*
X9189714Y-15773071D01*
X9175428Y-15715929D01*
X9175428Y-15644500D01*
X9189714Y-15587357D01*
X9204000Y-15558786D01*
X9218286Y-15544500D01*
X9246857Y-15530214D01*
X9532571Y-15530214D02*
X9561143Y-15530214D01*
X9589714Y-15544500D01*
X9604000Y-15558786D01*
X9618286Y-15587357D01*
X9632571Y-15644500D01*
X9632571Y-15715929D01*
X9618286Y-15773071D01*
X9604000Y-15801643D01*
X9589714Y-15815929D01*
X9561143Y-15830214D01*
X9532571Y-15830214D01*
X9504000Y-15815929D01*
X9489714Y-15801643D01*
X9475428Y-15773071D01*
X9461143Y-15715929D01*
X9461143Y-15644500D01*
X9475428Y-15587357D01*
X9489714Y-15558786D01*
X9504000Y-15544500D01*
X9532571Y-15530214D01*
X9761143Y-15830214D02*
X9761143Y-15630214D01*
X9761143Y-15658786D02*
X9775428Y-15644500D01*
X9804000Y-15630214D01*
X9846857Y-15630214D01*
X9875428Y-15644500D01*
X9889714Y-15673071D01*
X9889714Y-15830214D01*
X9889714Y-15673071D02*
X9904000Y-15644500D01*
X9932571Y-15630214D01*
X9975428Y-15630214D01*
X10004000Y-15644500D01*
X10018286Y-15673071D01*
X10018286Y-15830214D01*
X10161143Y-15830214D02*
X10161143Y-15630214D01*
X10161143Y-15658786D02*
X10175428Y-15644500D01*
X10204000Y-15630214D01*
X10246857Y-15630214D01*
X10275428Y-15644500D01*
X10289714Y-15673071D01*
X10289714Y-15830214D01*
X10289714Y-15673071D02*
X10304000Y-15644500D01*
X10332571Y-15630214D01*
X10375428Y-15630214D01*
X10404000Y-15644500D01*
X10418286Y-15673071D01*
X10418286Y-15830214D01*
X11004000Y-15515929D02*
X10746857Y-15901643D01*
X11389714Y-15530214D02*
X11418286Y-15530214D01*
X11446857Y-15544500D01*
X11461143Y-15558786D01*
X11475428Y-15587357D01*
X11489714Y-15644500D01*
X11489714Y-15715929D01*
X11475428Y-15773071D01*
X11461143Y-15801643D01*
X11446857Y-15815929D01*
X11418286Y-15830214D01*
X11389714Y-15830214D01*
X11361143Y-15815929D01*
X11346857Y-15801643D01*
X11332571Y-15773071D01*
X11318286Y-15715929D01*
X11318286Y-15644500D01*
X11332571Y-15587357D01*
X11346857Y-15558786D01*
X11361143Y-15544500D01*
X11389714Y-15530214D01*
X11618286Y-15801643D02*
X11632571Y-15815929D01*
X11618286Y-15830214D01*
X11604000Y-15815929D01*
X11618286Y-15801643D01*
X11618286Y-15830214D01*
X11818286Y-15530214D02*
X11846857Y-15530214D01*
X11875428Y-15544500D01*
X11889714Y-15558786D01*
X11904000Y-15587357D01*
X11918286Y-15644500D01*
X11918286Y-15715929D01*
X11904000Y-15773071D01*
X11889714Y-15801643D01*
X11875428Y-15815929D01*
X11846857Y-15830214D01*
X11818286Y-15830214D01*
X11789714Y-15815929D01*
X11775428Y-15801643D01*
X11761143Y-15773071D01*
X11746857Y-15715929D01*
X11746857Y-15644500D01*
X11761143Y-15587357D01*
X11775428Y-15558786D01*
X11789714Y-15544500D01*
X11818286Y-15530214D01*
X12204000Y-15830214D02*
X12032571Y-15830214D01*
X12118286Y-15830214D02*
X12118286Y-15530214D01*
X12089714Y-15573071D01*
X12061143Y-15601643D01*
X12032571Y-15615929D01*
X12489714Y-15830214D02*
X12318286Y-15830214D01*
X12404000Y-15830214D02*
X12404000Y-15530214D01*
X12375428Y-15573071D01*
X12346857Y-15601643D01*
X12318286Y-15615929D01*
X12661143Y-15658786D02*
X12632571Y-15644500D01*
X12618286Y-15630214D01*
X12604000Y-15601643D01*
X12604000Y-15587357D01*
X12618286Y-15558786D01*
X12632571Y-15544500D01*
X12661143Y-15530214D01*
X12718286Y-15530214D01*
X12746857Y-15544500D01*
X12761143Y-15558786D01*
X12775428Y-15587357D01*
X12775428Y-15601643D01*
X12761143Y-15630214D01*
X12746857Y-15644500D01*
X12718286Y-15658786D01*
X12661143Y-15658786D01*
X12632571Y-15673071D01*
X12618286Y-15687357D01*
X12604000Y-15715929D01*
X12604000Y-15773071D01*
X12618286Y-15801643D01*
X12632571Y-15815929D01*
X12661143Y-15830214D01*
X12718286Y-15830214D01*
X12746857Y-15815929D01*
X12761143Y-15801643D01*
X12775428Y-15773071D01*
X12775428Y-15715929D01*
X12761143Y-15687357D01*
X12746857Y-15673071D01*
X12718286Y-15658786D01*
X12889714Y-15530214D02*
X12889714Y-15587357D01*
X13004000Y-15530214D02*
X13004000Y-15587357D01*
X13446857Y-15944500D02*
X13432571Y-15930214D01*
X13404000Y-15887357D01*
X13389714Y-15858786D01*
X13375428Y-15815929D01*
X13361143Y-15744500D01*
X13361143Y-15687357D01*
X13375428Y-15615929D01*
X13389714Y-15573071D01*
X13404000Y-15544500D01*
X13432571Y-15501643D01*
X13446857Y-15487357D01*
X13546857Y-15558786D02*
X13561143Y-15544500D01*
X13589714Y-15530214D01*
X13661143Y-15530214D01*
X13689714Y-15544500D01*
X13704000Y-15558786D01*
X13718286Y-15587357D01*
X13718286Y-15615929D01*
X13704000Y-15658786D01*
X13532571Y-15830214D01*
X13718286Y-15830214D01*
X13904000Y-15530214D02*
X13932571Y-15530214D01*
X13961143Y-15544500D01*
X13975428Y-15558786D01*
X13989714Y-15587357D01*
X14004000Y-15644500D01*
X14004000Y-15715929D01*
X13989714Y-15773071D01*
X13975428Y-15801643D01*
X13961143Y-15815929D01*
X13932571Y-15830214D01*
X13904000Y-15830214D01*
X13875428Y-15815929D01*
X13861143Y-15801643D01*
X13846857Y-15773071D01*
X13832571Y-15715929D01*
X13832571Y-15644500D01*
X13846857Y-15587357D01*
X13861143Y-15558786D01*
X13875428Y-15544500D01*
X13904000Y-15530214D01*
X14289714Y-15830214D02*
X14118286Y-15830214D01*
X14204000Y-15830214D02*
X14204000Y-15530214D01*
X14175428Y-15573071D01*
X14146857Y-15601643D01*
X14118286Y-15615929D01*
X14646857Y-15830214D02*
X14646857Y-15530214D01*
X14775428Y-15830214D02*
X14775428Y-15673071D01*
X14761143Y-15644500D01*
X14732571Y-15630214D01*
X14689714Y-15630214D01*
X14661143Y-15644500D01*
X14646857Y-15658786D01*
X14961143Y-15830214D02*
X14932571Y-15815929D01*
X14918286Y-15801643D01*
X14904000Y-15773071D01*
X14904000Y-15687357D01*
X14918286Y-15658786D01*
X14932571Y-15644500D01*
X14961143Y-15630214D01*
X15004000Y-15630214D01*
X15032571Y-15644500D01*
X15046857Y-15658786D01*
X15061143Y-15687357D01*
X15061143Y-15773071D01*
X15046857Y-15801643D01*
X15032571Y-15815929D01*
X15004000Y-15830214D01*
X14961143Y-15830214D01*
X15232571Y-15830214D02*
X15204000Y-15815929D01*
X15189714Y-15787357D01*
X15189714Y-15530214D01*
X15461143Y-15815929D02*
X15432571Y-15830214D01*
X15375428Y-15830214D01*
X15346857Y-15815929D01*
X15332571Y-15787357D01*
X15332571Y-15673071D01*
X15346857Y-15644500D01*
X15375428Y-15630214D01*
X15432571Y-15630214D01*
X15461143Y-15644500D01*
X15475428Y-15673071D01*
X15475428Y-15701643D01*
X15332571Y-15730214D01*
X15589714Y-15815929D02*
X15618286Y-15830214D01*
X15675428Y-15830214D01*
X15704000Y-15815929D01*
X15718286Y-15787357D01*
X15718286Y-15773071D01*
X15704000Y-15744500D01*
X15675428Y-15730214D01*
X15632571Y-15730214D01*
X15604000Y-15715929D01*
X15589714Y-15687357D01*
X15589714Y-15673071D01*
X15604000Y-15644500D01*
X15632571Y-15630214D01*
X15675428Y-15630214D01*
X15704000Y-15644500D01*
X15818286Y-15944500D02*
X15832571Y-15930214D01*
X15861143Y-15887357D01*
X15875428Y-15858786D01*
X15889714Y-15815929D01*
X15904000Y-15744500D01*
X15904000Y-15687357D01*
X15889714Y-15615929D01*
X15875428Y-15573071D01*
X15861143Y-15544500D01*
X15832571Y-15501643D01*
X15818286Y-15487357D01*
X8189000Y-16090500D02*
G75*
G03*
X8189000Y-16090500I-50000J0D01*
G01*
X8632571Y-16226214D02*
X8461143Y-16226214D01*
X8546857Y-16226214D02*
X8546857Y-15926214D01*
X8518286Y-15969071D01*
X8489714Y-15997643D01*
X8461143Y-16011929D01*
X8761143Y-16197643D02*
X8775428Y-16211929D01*
X8761143Y-16226214D01*
X8746857Y-16211929D01*
X8761143Y-16197643D01*
X8761143Y-16226214D01*
X8961143Y-15926214D02*
X8989714Y-15926214D01*
X9018286Y-15940500D01*
X9032571Y-15954786D01*
X9046857Y-15983357D01*
X9061143Y-16040500D01*
X9061143Y-16111929D01*
X9046857Y-16169071D01*
X9032571Y-16197643D01*
X9018286Y-16211929D01*
X8989714Y-16226214D01*
X8961143Y-16226214D01*
X8932571Y-16211929D01*
X8918286Y-16197643D01*
X8904000Y-16169071D01*
X8889714Y-16111929D01*
X8889714Y-16040500D01*
X8904000Y-15983357D01*
X8918286Y-15954786D01*
X8932571Y-15940500D01*
X8961143Y-15926214D01*
X9246857Y-15926214D02*
X9275428Y-15926214D01*
X9304000Y-15940500D01*
X9318286Y-15954786D01*
X9332571Y-15983357D01*
X9346857Y-16040500D01*
X9346857Y-16111929D01*
X9332571Y-16169071D01*
X9318286Y-16197643D01*
X9304000Y-16211929D01*
X9275428Y-16226214D01*
X9246857Y-16226214D01*
X9218286Y-16211929D01*
X9204000Y-16197643D01*
X9189714Y-16169071D01*
X9175428Y-16111929D01*
X9175428Y-16040500D01*
X9189714Y-15983357D01*
X9204000Y-15954786D01*
X9218286Y-15940500D01*
X9246857Y-15926214D01*
X9532571Y-15926214D02*
X9561143Y-15926214D01*
X9589714Y-15940500D01*
X9604000Y-15954786D01*
X9618286Y-15983357D01*
X9632571Y-16040500D01*
X9632571Y-16111929D01*
X9618286Y-16169071D01*
X9604000Y-16197643D01*
X9589714Y-16211929D01*
X9561143Y-16226214D01*
X9532571Y-16226214D01*
X9504000Y-16211929D01*
X9489714Y-16197643D01*
X9475428Y-16169071D01*
X9461143Y-16111929D01*
X9461143Y-16040500D01*
X9475428Y-15983357D01*
X9489714Y-15954786D01*
X9504000Y-15940500D01*
X9532571Y-15926214D01*
X9761143Y-16226214D02*
X9761143Y-16026214D01*
X9761143Y-16054786D02*
X9775428Y-16040500D01*
X9804000Y-16026214D01*
X9846857Y-16026214D01*
X9875428Y-16040500D01*
X9889714Y-16069071D01*
X9889714Y-16226214D01*
X9889714Y-16069071D02*
X9904000Y-16040500D01*
X9932571Y-16026214D01*
X9975428Y-16026214D01*
X10004000Y-16040500D01*
X10018286Y-16069071D01*
X10018286Y-16226214D01*
X10161143Y-16226214D02*
X10161143Y-16026214D01*
X10161143Y-16054786D02*
X10175428Y-16040500D01*
X10204000Y-16026214D01*
X10246857Y-16026214D01*
X10275428Y-16040500D01*
X10289714Y-16069071D01*
X10289714Y-16226214D01*
X10289714Y-16069071D02*
X10304000Y-16040500D01*
X10332571Y-16026214D01*
X10375428Y-16026214D01*
X10404000Y-16040500D01*
X10418286Y-16069071D01*
X10418286Y-16226214D01*
X11004000Y-15911929D02*
X10746857Y-16297643D01*
X11389714Y-15926214D02*
X11418286Y-15926214D01*
X11446857Y-15940500D01*
X11461143Y-15954786D01*
X11475428Y-15983357D01*
X11489714Y-16040500D01*
X11489714Y-16111929D01*
X11475428Y-16169071D01*
X11461143Y-16197643D01*
X11446857Y-16211929D01*
X11418286Y-16226214D01*
X11389714Y-16226214D01*
X11361143Y-16211929D01*
X11346857Y-16197643D01*
X11332571Y-16169071D01*
X11318286Y-16111929D01*
X11318286Y-16040500D01*
X11332571Y-15983357D01*
X11346857Y-15954786D01*
X11361143Y-15940500D01*
X11389714Y-15926214D01*
X11618286Y-16197643D02*
X11632571Y-16211929D01*
X11618286Y-16226214D01*
X11604000Y-16211929D01*
X11618286Y-16197643D01*
X11618286Y-16226214D01*
X11818286Y-15926214D02*
X11846857Y-15926214D01*
X11875428Y-15940500D01*
X11889714Y-15954786D01*
X11904000Y-15983357D01*
X11918286Y-16040500D01*
X11918286Y-16111929D01*
X11904000Y-16169071D01*
X11889714Y-16197643D01*
X11875428Y-16211929D01*
X11846857Y-16226214D01*
X11818286Y-16226214D01*
X11789714Y-16211929D01*
X11775428Y-16197643D01*
X11761143Y-16169071D01*
X11746857Y-16111929D01*
X11746857Y-16040500D01*
X11761143Y-15983357D01*
X11775428Y-15954786D01*
X11789714Y-15940500D01*
X11818286Y-15926214D01*
X12018286Y-15926214D02*
X12204000Y-15926214D01*
X12104000Y-16040500D01*
X12146857Y-16040500D01*
X12175428Y-16054786D01*
X12189714Y-16069071D01*
X12204000Y-16097643D01*
X12204000Y-16169071D01*
X12189714Y-16197643D01*
X12175428Y-16211929D01*
X12146857Y-16226214D01*
X12061143Y-16226214D01*
X12032571Y-16211929D01*
X12018286Y-16197643D01*
X12346857Y-16226214D02*
X12404000Y-16226214D01*
X12432571Y-16211929D01*
X12446857Y-16197643D01*
X12475428Y-16154786D01*
X12489714Y-16097643D01*
X12489714Y-15983357D01*
X12475428Y-15954786D01*
X12461143Y-15940500D01*
X12432571Y-15926214D01*
X12375428Y-15926214D01*
X12346857Y-15940500D01*
X12332571Y-15954786D01*
X12318286Y-15983357D01*
X12318286Y-16054786D01*
X12332571Y-16083357D01*
X12346857Y-16097643D01*
X12375428Y-16111929D01*
X12432571Y-16111929D01*
X12461143Y-16097643D01*
X12475428Y-16083357D01*
X12489714Y-16054786D01*
X12746857Y-16026214D02*
X12746857Y-16226214D01*
X12675428Y-15911929D02*
X12604000Y-16126214D01*
X12789714Y-16126214D01*
X12889714Y-15926214D02*
X12889714Y-15983357D01*
X13004000Y-15926214D02*
X13004000Y-15983357D01*
X13446857Y-16340500D02*
X13432571Y-16326214D01*
X13404000Y-16283357D01*
X13389714Y-16254786D01*
X13375428Y-16211929D01*
X13361143Y-16140500D01*
X13361143Y-16083357D01*
X13375428Y-16011929D01*
X13389714Y-15969071D01*
X13404000Y-15940500D01*
X13432571Y-15897643D01*
X13446857Y-15883357D01*
X13718286Y-16226214D02*
X13546857Y-16226214D01*
X13632571Y-16226214D02*
X13632571Y-15926214D01*
X13604000Y-15969071D01*
X13575428Y-15997643D01*
X13546857Y-16011929D01*
X13989714Y-15926214D02*
X13846857Y-15926214D01*
X13832571Y-16069071D01*
X13846857Y-16054786D01*
X13875428Y-16040500D01*
X13946857Y-16040500D01*
X13975428Y-16054786D01*
X13989714Y-16069071D01*
X14004000Y-16097643D01*
X14004000Y-16169071D01*
X13989714Y-16197643D01*
X13975428Y-16211929D01*
X13946857Y-16226214D01*
X13875428Y-16226214D01*
X13846857Y-16211929D01*
X13832571Y-16197643D01*
X14361143Y-16226214D02*
X14361143Y-15926214D01*
X14489714Y-16226214D02*
X14489714Y-16069071D01*
X14475428Y-16040500D01*
X14446857Y-16026214D01*
X14404000Y-16026214D01*
X14375428Y-16040500D01*
X14361143Y-16054786D01*
X14675428Y-16226214D02*
X14646857Y-16211929D01*
X14632571Y-16197643D01*
X14618286Y-16169071D01*
X14618286Y-16083357D01*
X14632571Y-16054786D01*
X14646857Y-16040500D01*
X14675428Y-16026214D01*
X14718286Y-16026214D01*
X14746857Y-16040500D01*
X14761143Y-16054786D01*
X14775428Y-16083357D01*
X14775428Y-16169071D01*
X14761143Y-16197643D01*
X14746857Y-16211929D01*
X14718286Y-16226214D01*
X14675428Y-16226214D01*
X14946857Y-16226214D02*
X14918286Y-16211929D01*
X14904000Y-16183357D01*
X14904000Y-15926214D01*
X15175428Y-16211929D02*
X15146857Y-16226214D01*
X15089714Y-16226214D01*
X15061143Y-16211929D01*
X15046857Y-16183357D01*
X15046857Y-16069071D01*
X15061143Y-16040500D01*
X15089714Y-16026214D01*
X15146857Y-16026214D01*
X15175428Y-16040500D01*
X15189714Y-16069071D01*
X15189714Y-16097643D01*
X15046857Y-16126214D01*
X15304000Y-16211929D02*
X15332571Y-16226214D01*
X15389714Y-16226214D01*
X15418286Y-16211929D01*
X15432571Y-16183357D01*
X15432571Y-16169071D01*
X15418286Y-16140500D01*
X15389714Y-16126214D01*
X15346857Y-16126214D01*
X15318286Y-16111929D01*
X15304000Y-16083357D01*
X15304000Y-16069071D01*
X15318286Y-16040500D01*
X15346857Y-16026214D01*
X15389714Y-16026214D01*
X15418286Y-16040500D01*
X15532571Y-16340500D02*
X15546857Y-16326214D01*
X15575428Y-16283357D01*
X15589714Y-16254786D01*
X15604000Y-16211929D01*
X15618286Y-16140500D01*
X15618286Y-16083357D01*
X15604000Y-16011929D01*
X15589714Y-15969071D01*
X15575428Y-15940500D01*
X15546857Y-15897643D01*
X15532571Y-15883357D01*
X8134000Y-16431500D02*
X8134000Y-16541500D01*
X8079000Y-16486500D02*
X8189000Y-16486500D01*
X8632571Y-16622214D02*
X8461143Y-16622214D01*
X8546857Y-16622214D02*
X8546857Y-16322214D01*
X8518286Y-16365071D01*
X8489714Y-16393643D01*
X8461143Y-16407929D01*
X8761143Y-16593643D02*
X8775428Y-16607929D01*
X8761143Y-16622214D01*
X8746857Y-16607929D01*
X8761143Y-16593643D01*
X8761143Y-16622214D01*
X9061143Y-16622214D02*
X8889714Y-16622214D01*
X8975428Y-16622214D02*
X8975428Y-16322214D01*
X8946857Y-16365071D01*
X8918286Y-16393643D01*
X8889714Y-16407929D01*
X9246857Y-16322214D02*
X9275428Y-16322214D01*
X9304000Y-16336500D01*
X9318286Y-16350786D01*
X9332571Y-16379357D01*
X9346857Y-16436500D01*
X9346857Y-16507929D01*
X9332571Y-16565071D01*
X9318286Y-16593643D01*
X9304000Y-16607929D01*
X9275428Y-16622214D01*
X9246857Y-16622214D01*
X9218286Y-16607929D01*
X9204000Y-16593643D01*
X9189714Y-16565071D01*
X9175428Y-16507929D01*
X9175428Y-16436500D01*
X9189714Y-16379357D01*
X9204000Y-16350786D01*
X9218286Y-16336500D01*
X9246857Y-16322214D01*
X9532571Y-16322214D02*
X9561143Y-16322214D01*
X9589714Y-16336500D01*
X9604000Y-16350786D01*
X9618286Y-16379357D01*
X9632571Y-16436500D01*
X9632571Y-16507929D01*
X9618286Y-16565071D01*
X9604000Y-16593643D01*
X9589714Y-16607929D01*
X9561143Y-16622214D01*
X9532571Y-16622214D01*
X9504000Y-16607929D01*
X9489714Y-16593643D01*
X9475428Y-16565071D01*
X9461143Y-16507929D01*
X9461143Y-16436500D01*
X9475428Y-16379357D01*
X9489714Y-16350786D01*
X9504000Y-16336500D01*
X9532571Y-16322214D01*
X9761143Y-16622214D02*
X9761143Y-16422214D01*
X9761143Y-16450786D02*
X9775428Y-16436500D01*
X9804000Y-16422214D01*
X9846857Y-16422214D01*
X9875428Y-16436500D01*
X9889714Y-16465071D01*
X9889714Y-16622214D01*
X9889714Y-16465071D02*
X9904000Y-16436500D01*
X9932571Y-16422214D01*
X9975428Y-16422214D01*
X10004000Y-16436500D01*
X10018286Y-16465071D01*
X10018286Y-16622214D01*
X10161143Y-16622214D02*
X10161143Y-16422214D01*
X10161143Y-16450786D02*
X10175428Y-16436500D01*
X10204000Y-16422214D01*
X10246857Y-16422214D01*
X10275428Y-16436500D01*
X10289714Y-16465071D01*
X10289714Y-16622214D01*
X10289714Y-16465071D02*
X10304000Y-16436500D01*
X10332571Y-16422214D01*
X10375428Y-16422214D01*
X10404000Y-16436500D01*
X10418286Y-16465071D01*
X10418286Y-16622214D01*
X11004000Y-16307929D02*
X10746857Y-16693643D01*
X11389714Y-16322214D02*
X11418286Y-16322214D01*
X11446857Y-16336500D01*
X11461143Y-16350786D01*
X11475428Y-16379357D01*
X11489714Y-16436500D01*
X11489714Y-16507929D01*
X11475428Y-16565071D01*
X11461143Y-16593643D01*
X11446857Y-16607929D01*
X11418286Y-16622214D01*
X11389714Y-16622214D01*
X11361143Y-16607929D01*
X11346857Y-16593643D01*
X11332571Y-16565071D01*
X11318286Y-16507929D01*
X11318286Y-16436500D01*
X11332571Y-16379357D01*
X11346857Y-16350786D01*
X11361143Y-16336500D01*
X11389714Y-16322214D01*
X11618286Y-16593643D02*
X11632571Y-16607929D01*
X11618286Y-16622214D01*
X11604000Y-16607929D01*
X11618286Y-16593643D01*
X11618286Y-16622214D01*
X11818286Y-16322214D02*
X11846857Y-16322214D01*
X11875428Y-16336500D01*
X11889714Y-16350786D01*
X11904000Y-16379357D01*
X11918286Y-16436500D01*
X11918286Y-16507929D01*
X11904000Y-16565071D01*
X11889714Y-16593643D01*
X11875428Y-16607929D01*
X11846857Y-16622214D01*
X11818286Y-16622214D01*
X11789714Y-16607929D01*
X11775428Y-16593643D01*
X11761143Y-16565071D01*
X11746857Y-16507929D01*
X11746857Y-16436500D01*
X11761143Y-16379357D01*
X11775428Y-16350786D01*
X11789714Y-16336500D01*
X11818286Y-16322214D01*
X12175428Y-16422214D02*
X12175428Y-16622214D01*
X12104000Y-16307929D02*
X12032571Y-16522214D01*
X12218286Y-16522214D01*
X12304000Y-16322214D02*
X12489714Y-16322214D01*
X12389714Y-16436500D01*
X12432571Y-16436500D01*
X12461143Y-16450786D01*
X12475428Y-16465071D01*
X12489714Y-16493643D01*
X12489714Y-16565071D01*
X12475428Y-16593643D01*
X12461143Y-16607929D01*
X12432571Y-16622214D01*
X12346857Y-16622214D01*
X12318286Y-16607929D01*
X12304000Y-16593643D01*
X12589714Y-16322214D02*
X12775428Y-16322214D01*
X12675428Y-16436500D01*
X12718286Y-16436500D01*
X12746857Y-16450786D01*
X12761143Y-16465071D01*
X12775428Y-16493643D01*
X12775428Y-16565071D01*
X12761143Y-16593643D01*
X12746857Y-16607929D01*
X12718286Y-16622214D01*
X12632571Y-16622214D01*
X12604000Y-16607929D01*
X12589714Y-16593643D01*
X12889714Y-16322214D02*
X12889714Y-16379357D01*
X13004000Y-16322214D02*
X13004000Y-16379357D01*
X13446857Y-16736500D02*
X13432571Y-16722214D01*
X13404000Y-16679357D01*
X13389714Y-16650786D01*
X13375428Y-16607929D01*
X13361143Y-16536500D01*
X13361143Y-16479357D01*
X13375428Y-16407929D01*
X13389714Y-16365071D01*
X13404000Y-16336500D01*
X13432571Y-16293643D01*
X13446857Y-16279357D01*
X13704000Y-16322214D02*
X13561143Y-16322214D01*
X13546857Y-16465071D01*
X13561143Y-16450786D01*
X13589714Y-16436500D01*
X13661143Y-16436500D01*
X13689714Y-16450786D01*
X13704000Y-16465071D01*
X13718286Y-16493643D01*
X13718286Y-16565071D01*
X13704000Y-16593643D01*
X13689714Y-16607929D01*
X13661143Y-16622214D01*
X13589714Y-16622214D01*
X13561143Y-16607929D01*
X13546857Y-16593643D01*
X14075428Y-16622214D02*
X14075428Y-16322214D01*
X14204000Y-16622214D02*
X14204000Y-16465071D01*
X14189714Y-16436500D01*
X14161143Y-16422214D01*
X14118286Y-16422214D01*
X14089714Y-16436500D01*
X14075428Y-16450786D01*
X14389714Y-16622214D02*
X14361143Y-16607929D01*
X14346857Y-16593643D01*
X14332571Y-16565071D01*
X14332571Y-16479357D01*
X14346857Y-16450786D01*
X14361143Y-16436500D01*
X14389714Y-16422214D01*
X14432571Y-16422214D01*
X14461143Y-16436500D01*
X14475428Y-16450786D01*
X14489714Y-16479357D01*
X14489714Y-16565071D01*
X14475428Y-16593643D01*
X14461143Y-16607929D01*
X14432571Y-16622214D01*
X14389714Y-16622214D01*
X14661143Y-16622214D02*
X14632571Y-16607929D01*
X14618286Y-16579357D01*
X14618286Y-16322214D01*
X14889714Y-16607929D02*
X14861143Y-16622214D01*
X14804000Y-16622214D01*
X14775428Y-16607929D01*
X14761143Y-16579357D01*
X14761143Y-16465071D01*
X14775428Y-16436500D01*
X14804000Y-16422214D01*
X14861143Y-16422214D01*
X14889714Y-16436500D01*
X14904000Y-16465071D01*
X14904000Y-16493643D01*
X14761143Y-16522214D01*
X15018286Y-16607929D02*
X15046857Y-16622214D01*
X15104000Y-16622214D01*
X15132571Y-16607929D01*
X15146857Y-16579357D01*
X15146857Y-16565071D01*
X15132571Y-16536500D01*
X15104000Y-16522214D01*
X15061143Y-16522214D01*
X15032571Y-16507929D01*
X15018286Y-16479357D01*
X15018286Y-16465071D01*
X15032571Y-16436500D01*
X15061143Y-16422214D01*
X15104000Y-16422214D01*
X15132571Y-16436500D01*
X15246857Y-16736500D02*
X15261143Y-16722214D01*
X15289714Y-16679357D01*
X15304000Y-16650786D01*
X15318286Y-16607929D01*
X15332571Y-16536500D01*
X15332571Y-16479357D01*
X15318286Y-16407929D01*
X15304000Y-16365071D01*
X15289714Y-16336500D01*
X15261143Y-16293643D01*
X15246857Y-16279357D01*
X8171427Y-16924927D02*
X8171427Y-16840073D01*
X8086573Y-16840073D01*
X8086573Y-16924927D01*
X8171427Y-16924927D01*
X8632571Y-17018214D02*
X8461143Y-17018214D01*
X8546857Y-17018214D02*
X8546857Y-16718214D01*
X8518286Y-16761071D01*
X8489714Y-16789643D01*
X8461143Y-16803929D01*
X8761143Y-16989643D02*
X8775428Y-17003929D01*
X8761143Y-17018214D01*
X8746857Y-17003929D01*
X8761143Y-16989643D01*
X8761143Y-17018214D01*
X8889714Y-16746786D02*
X8904000Y-16732500D01*
X8932571Y-16718214D01*
X9004000Y-16718214D01*
X9032571Y-16732500D01*
X9046857Y-16746786D01*
X9061143Y-16775357D01*
X9061143Y-16803929D01*
X9046857Y-16846786D01*
X8875428Y-17018214D01*
X9061143Y-17018214D01*
X9246857Y-16718214D02*
X9275428Y-16718214D01*
X9304000Y-16732500D01*
X9318286Y-16746786D01*
X9332571Y-16775357D01*
X9346857Y-16832500D01*
X9346857Y-16903929D01*
X9332571Y-16961072D01*
X9318286Y-16989643D01*
X9304000Y-17003929D01*
X9275428Y-17018214D01*
X9246857Y-17018214D01*
X9218286Y-17003929D01*
X9204000Y-16989643D01*
X9189714Y-16961072D01*
X9175428Y-16903929D01*
X9175428Y-16832500D01*
X9189714Y-16775357D01*
X9204000Y-16746786D01*
X9218286Y-16732500D01*
X9246857Y-16718214D01*
X9532571Y-16718214D02*
X9561143Y-16718214D01*
X9589714Y-16732500D01*
X9604000Y-16746786D01*
X9618286Y-16775357D01*
X9632571Y-16832500D01*
X9632571Y-16903929D01*
X9618286Y-16961072D01*
X9604000Y-16989643D01*
X9589714Y-17003929D01*
X9561143Y-17018214D01*
X9532571Y-17018214D01*
X9504000Y-17003929D01*
X9489714Y-16989643D01*
X9475428Y-16961072D01*
X9461143Y-16903929D01*
X9461143Y-16832500D01*
X9475428Y-16775357D01*
X9489714Y-16746786D01*
X9504000Y-16732500D01*
X9532571Y-16718214D01*
X9761143Y-17018214D02*
X9761143Y-16818214D01*
X9761143Y-16846786D02*
X9775428Y-16832500D01*
X9804000Y-16818214D01*
X9846857Y-16818214D01*
X9875428Y-16832500D01*
X9889714Y-16861072D01*
X9889714Y-17018214D01*
X9889714Y-16861072D02*
X9904000Y-16832500D01*
X9932571Y-16818214D01*
X9975428Y-16818214D01*
X10004000Y-16832500D01*
X10018286Y-16861072D01*
X10018286Y-17018214D01*
X10161143Y-17018214D02*
X10161143Y-16818214D01*
X10161143Y-16846786D02*
X10175428Y-16832500D01*
X10204000Y-16818214D01*
X10246857Y-16818214D01*
X10275428Y-16832500D01*
X10289714Y-16861072D01*
X10289714Y-17018214D01*
X10289714Y-16861072D02*
X10304000Y-16832500D01*
X10332571Y-16818214D01*
X10375428Y-16818214D01*
X10404000Y-16832500D01*
X10418286Y-16861072D01*
X10418286Y-17018214D01*
X11004000Y-16703929D02*
X10746857Y-17089643D01*
X11389714Y-16718214D02*
X11418286Y-16718214D01*
X11446857Y-16732500D01*
X11461143Y-16746786D01*
X11475428Y-16775357D01*
X11489714Y-16832500D01*
X11489714Y-16903929D01*
X11475428Y-16961072D01*
X11461143Y-16989643D01*
X11446857Y-17003929D01*
X11418286Y-17018214D01*
X11389714Y-17018214D01*
X11361143Y-17003929D01*
X11346857Y-16989643D01*
X11332571Y-16961072D01*
X11318286Y-16903929D01*
X11318286Y-16832500D01*
X11332571Y-16775357D01*
X11346857Y-16746786D01*
X11361143Y-16732500D01*
X11389714Y-16718214D01*
X11618286Y-16989643D02*
X11632571Y-17003929D01*
X11618286Y-17018214D01*
X11604000Y-17003929D01*
X11618286Y-16989643D01*
X11618286Y-17018214D01*
X11818286Y-16718214D02*
X11846857Y-16718214D01*
X11875428Y-16732500D01*
X11889714Y-16746786D01*
X11904000Y-16775357D01*
X11918286Y-16832500D01*
X11918286Y-16903929D01*
X11904000Y-16961072D01*
X11889714Y-16989643D01*
X11875428Y-17003929D01*
X11846857Y-17018214D01*
X11818286Y-17018214D01*
X11789714Y-17003929D01*
X11775428Y-16989643D01*
X11761143Y-16961072D01*
X11746857Y-16903929D01*
X11746857Y-16832500D01*
X11761143Y-16775357D01*
X11775428Y-16746786D01*
X11789714Y-16732500D01*
X11818286Y-16718214D01*
X12175428Y-16818214D02*
X12175428Y-17018214D01*
X12104000Y-16703929D02*
X12032571Y-16918214D01*
X12218286Y-16918214D01*
X12304000Y-16718214D02*
X12504000Y-16718214D01*
X12375428Y-17018214D01*
X12604000Y-16746786D02*
X12618286Y-16732500D01*
X12646857Y-16718214D01*
X12718286Y-16718214D01*
X12746857Y-16732500D01*
X12761143Y-16746786D01*
X12775428Y-16775357D01*
X12775428Y-16803929D01*
X12761143Y-16846786D01*
X12589714Y-17018214D01*
X12775428Y-17018214D01*
X12889714Y-16718214D02*
X12889714Y-16775357D01*
X13004000Y-16718214D02*
X13004000Y-16775357D01*
X13446857Y-17132500D02*
X13432571Y-17118214D01*
X13404000Y-17075357D01*
X13389714Y-17046786D01*
X13375428Y-17003929D01*
X13361143Y-16932500D01*
X13361143Y-16875357D01*
X13375428Y-16803929D01*
X13389714Y-16761071D01*
X13404000Y-16732500D01*
X13432571Y-16689643D01*
X13446857Y-16675357D01*
X13604000Y-16846786D02*
X13575428Y-16832500D01*
X13561143Y-16818214D01*
X13546857Y-16789643D01*
X13546857Y-16775357D01*
X13561143Y-16746786D01*
X13575428Y-16732500D01*
X13604000Y-16718214D01*
X13661143Y-16718214D01*
X13689714Y-16732500D01*
X13704000Y-16746786D01*
X13718286Y-16775357D01*
X13718286Y-16789643D01*
X13704000Y-16818214D01*
X13689714Y-16832500D01*
X13661143Y-16846786D01*
X13604000Y-16846786D01*
X13575428Y-16861072D01*
X13561143Y-16875357D01*
X13546857Y-16903929D01*
X13546857Y-16961072D01*
X13561143Y-16989643D01*
X13575428Y-17003929D01*
X13604000Y-17018214D01*
X13661143Y-17018214D01*
X13689714Y-17003929D01*
X13704000Y-16989643D01*
X13718286Y-16961072D01*
X13718286Y-16903929D01*
X13704000Y-16875357D01*
X13689714Y-16861072D01*
X13661143Y-16846786D01*
X14075428Y-17018214D02*
X14075428Y-16718214D01*
X14204000Y-17018214D02*
X14204000Y-16861072D01*
X14189714Y-16832500D01*
X14161143Y-16818214D01*
X14118286Y-16818214D01*
X14089714Y-16832500D01*
X14075428Y-16846786D01*
X14389714Y-17018214D02*
X14361143Y-17003929D01*
X14346857Y-16989643D01*
X14332571Y-16961072D01*
X14332571Y-16875357D01*
X14346857Y-16846786D01*
X14361143Y-16832500D01*
X14389714Y-16818214D01*
X14432571Y-16818214D01*
X14461143Y-16832500D01*
X14475428Y-16846786D01*
X14489714Y-16875357D01*
X14489714Y-16961072D01*
X14475428Y-16989643D01*
X14461143Y-17003929D01*
X14432571Y-17018214D01*
X14389714Y-17018214D01*
X14661143Y-17018214D02*
X14632571Y-17003929D01*
X14618286Y-16975357D01*
X14618286Y-16718214D01*
X14889714Y-17003929D02*
X14861143Y-17018214D01*
X14804000Y-17018214D01*
X14775428Y-17003929D01*
X14761143Y-16975357D01*
X14761143Y-16861072D01*
X14775428Y-16832500D01*
X14804000Y-16818214D01*
X14861143Y-16818214D01*
X14889714Y-16832500D01*
X14904000Y-16861072D01*
X14904000Y-16889643D01*
X14761143Y-16918214D01*
X15018286Y-17003929D02*
X15046857Y-17018214D01*
X15104000Y-17018214D01*
X15132571Y-17003929D01*
X15146857Y-16975357D01*
X15146857Y-16961072D01*
X15132571Y-16932500D01*
X15104000Y-16918214D01*
X15061143Y-16918214D01*
X15032571Y-16903929D01*
X15018286Y-16875357D01*
X15018286Y-16861072D01*
X15032571Y-16832500D01*
X15061143Y-16818214D01*
X15104000Y-16818214D01*
X15132571Y-16832500D01*
X15246857Y-17132500D02*
X15261143Y-17118214D01*
X15289714Y-17075357D01*
X15304000Y-17046786D01*
X15318286Y-17003929D01*
X15332571Y-16932500D01*
X15332571Y-16875357D01*
X15318286Y-16803929D01*
X15304000Y-16761071D01*
X15289714Y-16732500D01*
X15261143Y-16689643D01*
X15246857Y-16675357D01*
X8079000Y-17388500D02*
X8189000Y-17278500D01*
X8079000Y-17168500D01*
X7969000Y-17278500D01*
X8079000Y-17388500D01*
X8461143Y-17142786D02*
X8475428Y-17128500D01*
X8504000Y-17114214D01*
X8575428Y-17114214D01*
X8604000Y-17128500D01*
X8618286Y-17142786D01*
X8632571Y-17171357D01*
X8632571Y-17199929D01*
X8618286Y-17242786D01*
X8446857Y-17414214D01*
X8632571Y-17414214D01*
X8761143Y-17385643D02*
X8775428Y-17399929D01*
X8761143Y-17414214D01*
X8746857Y-17399929D01*
X8761143Y-17385643D01*
X8761143Y-17414214D01*
X8889714Y-17142786D02*
X8904000Y-17128500D01*
X8932571Y-17114214D01*
X9004000Y-17114214D01*
X9032571Y-17128500D01*
X9046857Y-17142786D01*
X9061143Y-17171357D01*
X9061143Y-17199929D01*
X9046857Y-17242786D01*
X8875428Y-17414214D01*
X9061143Y-17414214D01*
X9246857Y-17114214D02*
X9275428Y-17114214D01*
X9304000Y-17128500D01*
X9318286Y-17142786D01*
X9332571Y-17171357D01*
X9346857Y-17228500D01*
X9346857Y-17299929D01*
X9332571Y-17357072D01*
X9318286Y-17385643D01*
X9304000Y-17399929D01*
X9275428Y-17414214D01*
X9246857Y-17414214D01*
X9218286Y-17399929D01*
X9204000Y-17385643D01*
X9189714Y-17357072D01*
X9175428Y-17299929D01*
X9175428Y-17228500D01*
X9189714Y-17171357D01*
X9204000Y-17142786D01*
X9218286Y-17128500D01*
X9246857Y-17114214D01*
X9532571Y-17114214D02*
X9561143Y-17114214D01*
X9589714Y-17128500D01*
X9604000Y-17142786D01*
X9618286Y-17171357D01*
X9632571Y-17228500D01*
X9632571Y-17299929D01*
X9618286Y-17357072D01*
X9604000Y-17385643D01*
X9589714Y-17399929D01*
X9561143Y-17414214D01*
X9532571Y-17414214D01*
X9504000Y-17399929D01*
X9489714Y-17385643D01*
X9475428Y-17357072D01*
X9461143Y-17299929D01*
X9461143Y-17228500D01*
X9475428Y-17171357D01*
X9489714Y-17142786D01*
X9504000Y-17128500D01*
X9532571Y-17114214D01*
X9761143Y-17414214D02*
X9761143Y-17214214D01*
X9761143Y-17242786D02*
X9775428Y-17228500D01*
X9804000Y-17214214D01*
X9846857Y-17214214D01*
X9875428Y-17228500D01*
X9889714Y-17257072D01*
X9889714Y-17414214D01*
X9889714Y-17257072D02*
X9904000Y-17228500D01*
X9932571Y-17214214D01*
X9975428Y-17214214D01*
X10004000Y-17228500D01*
X10018286Y-17257072D01*
X10018286Y-17414214D01*
X10161143Y-17414214D02*
X10161143Y-17214214D01*
X10161143Y-17242786D02*
X10175428Y-17228500D01*
X10204000Y-17214214D01*
X10246857Y-17214214D01*
X10275428Y-17228500D01*
X10289714Y-17257072D01*
X10289714Y-17414214D01*
X10289714Y-17257072D02*
X10304000Y-17228500D01*
X10332571Y-17214214D01*
X10375428Y-17214214D01*
X10404000Y-17228500D01*
X10418286Y-17257072D01*
X10418286Y-17414214D01*
X11004000Y-17099929D02*
X10746857Y-17485643D01*
X11389714Y-17114214D02*
X11418286Y-17114214D01*
X11446857Y-17128500D01*
X11461143Y-17142786D01*
X11475428Y-17171357D01*
X11489714Y-17228500D01*
X11489714Y-17299929D01*
X11475428Y-17357072D01*
X11461143Y-17385643D01*
X11446857Y-17399929D01*
X11418286Y-17414214D01*
X11389714Y-17414214D01*
X11361143Y-17399929D01*
X11346857Y-17385643D01*
X11332571Y-17357072D01*
X11318286Y-17299929D01*
X11318286Y-17228500D01*
X11332571Y-17171357D01*
X11346857Y-17142786D01*
X11361143Y-17128500D01*
X11389714Y-17114214D01*
X11618286Y-17385643D02*
X11632571Y-17399929D01*
X11618286Y-17414214D01*
X11604000Y-17399929D01*
X11618286Y-17385643D01*
X11618286Y-17414214D01*
X11818286Y-17114214D02*
X11846857Y-17114214D01*
X11875428Y-17128500D01*
X11889714Y-17142786D01*
X11904000Y-17171357D01*
X11918286Y-17228500D01*
X11918286Y-17299929D01*
X11904000Y-17357072D01*
X11889714Y-17385643D01*
X11875428Y-17399929D01*
X11846857Y-17414214D01*
X11818286Y-17414214D01*
X11789714Y-17399929D01*
X11775428Y-17385643D01*
X11761143Y-17357072D01*
X11746857Y-17299929D01*
X11746857Y-17228500D01*
X11761143Y-17171357D01*
X11775428Y-17142786D01*
X11789714Y-17128500D01*
X11818286Y-17114214D01*
X12089714Y-17242786D02*
X12061143Y-17228500D01*
X12046857Y-17214214D01*
X12032571Y-17185643D01*
X12032571Y-17171357D01*
X12046857Y-17142786D01*
X12061143Y-17128500D01*
X12089714Y-17114214D01*
X12146857Y-17114214D01*
X12175428Y-17128500D01*
X12189714Y-17142786D01*
X12204000Y-17171357D01*
X12204000Y-17185643D01*
X12189714Y-17214214D01*
X12175428Y-17228500D01*
X12146857Y-17242786D01*
X12089714Y-17242786D01*
X12061143Y-17257072D01*
X12046857Y-17271357D01*
X12032571Y-17299929D01*
X12032571Y-17357072D01*
X12046857Y-17385643D01*
X12061143Y-17399929D01*
X12089714Y-17414214D01*
X12146857Y-17414214D01*
X12175428Y-17399929D01*
X12189714Y-17385643D01*
X12204000Y-17357072D01*
X12204000Y-17299929D01*
X12189714Y-17271357D01*
X12175428Y-17257072D01*
X12146857Y-17242786D01*
X12461143Y-17114214D02*
X12404000Y-17114214D01*
X12375428Y-17128500D01*
X12361143Y-17142786D01*
X12332571Y-17185643D01*
X12318286Y-17242786D01*
X12318286Y-17357072D01*
X12332571Y-17385643D01*
X12346857Y-17399929D01*
X12375428Y-17414214D01*
X12432571Y-17414214D01*
X12461143Y-17399929D01*
X12475428Y-17385643D01*
X12489714Y-17357072D01*
X12489714Y-17285643D01*
X12475428Y-17257072D01*
X12461143Y-17242786D01*
X12432571Y-17228500D01*
X12375428Y-17228500D01*
X12346857Y-17242786D01*
X12332571Y-17257072D01*
X12318286Y-17285643D01*
X12746857Y-17114214D02*
X12689714Y-17114214D01*
X12661143Y-17128500D01*
X12646857Y-17142786D01*
X12618286Y-17185643D01*
X12604000Y-17242786D01*
X12604000Y-17357072D01*
X12618286Y-17385643D01*
X12632571Y-17399929D01*
X12661143Y-17414214D01*
X12718286Y-17414214D01*
X12746857Y-17399929D01*
X12761143Y-17385643D01*
X12775428Y-17357072D01*
X12775428Y-17285643D01*
X12761143Y-17257072D01*
X12746857Y-17242786D01*
X12718286Y-17228500D01*
X12661143Y-17228500D01*
X12632571Y-17242786D01*
X12618286Y-17257072D01*
X12604000Y-17285643D01*
X12889714Y-17114214D02*
X12889714Y-17171357D01*
X13004000Y-17114214D02*
X13004000Y-17171357D01*
X13446857Y-17528500D02*
X13432571Y-17514214D01*
X13404000Y-17471357D01*
X13389714Y-17442786D01*
X13375428Y-17399929D01*
X13361143Y-17328500D01*
X13361143Y-17271357D01*
X13375428Y-17199929D01*
X13389714Y-17157072D01*
X13404000Y-17128500D01*
X13432571Y-17085643D01*
X13446857Y-17071357D01*
X13618286Y-17114214D02*
X13646857Y-17114214D01*
X13675428Y-17128500D01*
X13689714Y-17142786D01*
X13704000Y-17171357D01*
X13718286Y-17228500D01*
X13718286Y-17299929D01*
X13704000Y-17357072D01*
X13689714Y-17385643D01*
X13675428Y-17399929D01*
X13646857Y-17414214D01*
X13618286Y-17414214D01*
X13589714Y-17399929D01*
X13575428Y-17385643D01*
X13561143Y-17357072D01*
X13546857Y-17299929D01*
X13546857Y-17228500D01*
X13561143Y-17171357D01*
X13575428Y-17142786D01*
X13589714Y-17128500D01*
X13618286Y-17114214D01*
X14075428Y-17414214D02*
X14075428Y-17114214D01*
X14204000Y-17414214D02*
X14204000Y-17257072D01*
X14189714Y-17228500D01*
X14161143Y-17214214D01*
X14118286Y-17214214D01*
X14089714Y-17228500D01*
X14075428Y-17242786D01*
X14389714Y-17414214D02*
X14361143Y-17399929D01*
X14346857Y-17385643D01*
X14332571Y-17357072D01*
X14332571Y-17271357D01*
X14346857Y-17242786D01*
X14361143Y-17228500D01*
X14389714Y-17214214D01*
X14432571Y-17214214D01*
X14461143Y-17228500D01*
X14475428Y-17242786D01*
X14489714Y-17271357D01*
X14489714Y-17357072D01*
X14475428Y-17385643D01*
X14461143Y-17399929D01*
X14432571Y-17414214D01*
X14389714Y-17414214D01*
X14661143Y-17414214D02*
X14632571Y-17399929D01*
X14618286Y-17371357D01*
X14618286Y-17114214D01*
X14889714Y-17399929D02*
X14861143Y-17414214D01*
X14804000Y-17414214D01*
X14775428Y-17399929D01*
X14761143Y-17371357D01*
X14761143Y-17257072D01*
X14775428Y-17228500D01*
X14804000Y-17214214D01*
X14861143Y-17214214D01*
X14889714Y-17228500D01*
X14904000Y-17257072D01*
X14904000Y-17285643D01*
X14761143Y-17314214D01*
X15018286Y-17399929D02*
X15046857Y-17414214D01*
X15104000Y-17414214D01*
X15132571Y-17399929D01*
X15146857Y-17371357D01*
X15146857Y-17357072D01*
X15132571Y-17328500D01*
X15104000Y-17314214D01*
X15061143Y-17314214D01*
X15032571Y-17299929D01*
X15018286Y-17271357D01*
X15018286Y-17257072D01*
X15032571Y-17228500D01*
X15061143Y-17214214D01*
X15104000Y-17214214D01*
X15132571Y-17228500D01*
X15504000Y-17299929D02*
X15732571Y-17299929D01*
X15618286Y-17414214D02*
X15618286Y-17185643D01*
X16089714Y-17142786D02*
X16104000Y-17128500D01*
X16132571Y-17114214D01*
X16204000Y-17114214D01*
X16232571Y-17128500D01*
X16246857Y-17142786D01*
X16261143Y-17171357D01*
X16261143Y-17199929D01*
X16246857Y-17242786D01*
X16075428Y-17414214D01*
X16261143Y-17414214D01*
X16604000Y-17399929D02*
X16632571Y-17414214D01*
X16689714Y-17414214D01*
X16718286Y-17399929D01*
X16732571Y-17371357D01*
X16732571Y-17357072D01*
X16718286Y-17328500D01*
X16689714Y-17314214D01*
X16646857Y-17314214D01*
X16618286Y-17299929D01*
X16604000Y-17271357D01*
X16604000Y-17257072D01*
X16618286Y-17228500D01*
X16646857Y-17214214D01*
X16689714Y-17214214D01*
X16718286Y-17228500D01*
X16904000Y-17414214D02*
X16875428Y-17399929D01*
X16861143Y-17371357D01*
X16861143Y-17114214D01*
X17061143Y-17414214D02*
X17032571Y-17399929D01*
X17018286Y-17385643D01*
X17004000Y-17357072D01*
X17004000Y-17271357D01*
X17018286Y-17242786D01*
X17032571Y-17228500D01*
X17061143Y-17214214D01*
X17104000Y-17214214D01*
X17132571Y-17228500D01*
X17146857Y-17242786D01*
X17161143Y-17271357D01*
X17161143Y-17357072D01*
X17146857Y-17385643D01*
X17132571Y-17399929D01*
X17104000Y-17414214D01*
X17061143Y-17414214D01*
X17246857Y-17214214D02*
X17361143Y-17214214D01*
X17289714Y-17114214D02*
X17289714Y-17371357D01*
X17304000Y-17399929D01*
X17332571Y-17414214D01*
X17361143Y-17414214D01*
X17446857Y-17399929D02*
X17475428Y-17414214D01*
X17532571Y-17414214D01*
X17561143Y-17399929D01*
X17575428Y-17371357D01*
X17575428Y-17357072D01*
X17561143Y-17328500D01*
X17532571Y-17314214D01*
X17489714Y-17314214D01*
X17461143Y-17299929D01*
X17446857Y-17271357D01*
X17446857Y-17257072D01*
X17461143Y-17228500D01*
X17489714Y-17214214D01*
X17532571Y-17214214D01*
X17561143Y-17228500D01*
X17675428Y-17528500D02*
X17689714Y-17514214D01*
X17718286Y-17471357D01*
X17732571Y-17442786D01*
X17746857Y-17399929D01*
X17761143Y-17328500D01*
X17761143Y-17271357D01*
X17746857Y-17199929D01*
X17732571Y-17157072D01*
X17718286Y-17128500D01*
X17689714Y-17085643D01*
X17675428Y-17071357D01*
M02*
