%TF.GenerationSoftware,KiCad,Pcbnew,5.1.10*%
%TF.CreationDate,2021-12-19T01:12:45+02:00*%
%TF.ProjectId,pwm-controller,70776d2d-636f-46e7-9472-6f6c6c65722e,rev?*%
%TF.SameCoordinates,Original*%
%TF.FileFunction,Legend,Top*%
%TF.FilePolarity,Positive*%
%FSLAX46Y46*%
G04 Gerber Fmt 4.6, Leading zero omitted, Abs format (unit mm)*
G04 Created by KiCad (PCBNEW 5.1.10) date 2021-12-19 01:12:45*
%MOMM*%
%LPD*%
G01*
G04 APERTURE LIST*
%ADD10C,0.200000*%
%ADD11C,0.120000*%
%ADD12C,1.524000*%
%ADD13C,1.800000*%
%ADD14C,0.100000*%
%ADD15R,1.300000X0.900000*%
%ADD16R,0.900000X1.300000*%
%ADD17R,0.800000X0.900000*%
%ADD18C,2.000000*%
%ADD19C,2.200000*%
%ADD20O,1.700000X1.700000*%
%ADD21R,1.700000X1.700000*%
%ADD22C,1.310000*%
G04 APERTURE END LIST*
D10*
X112953571Y-99401380D02*
X113048809Y-99401380D01*
X113144047Y-99449000D01*
X113191666Y-99496619D01*
X113239285Y-99591857D01*
X113286904Y-99782333D01*
X113286904Y-100020428D01*
X113239285Y-100210904D01*
X113191666Y-100306142D01*
X113144047Y-100353761D01*
X113048809Y-100401380D01*
X112953571Y-100401380D01*
X112858333Y-100353761D01*
X112810714Y-100306142D01*
X112763095Y-100210904D01*
X112715476Y-100020428D01*
X112715476Y-99782333D01*
X112763095Y-99591857D01*
X112810714Y-99496619D01*
X112858333Y-99449000D01*
X112953571Y-99401380D01*
X113572619Y-99401380D02*
X113905952Y-100401380D01*
X114239285Y-99401380D01*
X83527047Y-102893761D02*
X83669904Y-102941380D01*
X83908000Y-102941380D01*
X84003238Y-102893761D01*
X84050857Y-102846142D01*
X84098476Y-102750904D01*
X84098476Y-102655666D01*
X84050857Y-102560428D01*
X84003238Y-102512809D01*
X83908000Y-102465190D01*
X83717523Y-102417571D01*
X83622285Y-102369952D01*
X83574666Y-102322333D01*
X83527047Y-102227095D01*
X83527047Y-102131857D01*
X83574666Y-102036619D01*
X83622285Y-101989000D01*
X83717523Y-101941380D01*
X83955619Y-101941380D01*
X84098476Y-101989000D01*
X84431809Y-101941380D02*
X84669904Y-102941380D01*
X84860380Y-102227095D01*
X85050857Y-102941380D01*
X85288952Y-101941380D01*
X87003238Y-102941380D02*
X86669904Y-102465190D01*
X86431809Y-102941380D02*
X86431809Y-101941380D01*
X86812761Y-101941380D01*
X86908000Y-101989000D01*
X86955619Y-102036619D01*
X87003238Y-102131857D01*
X87003238Y-102274714D01*
X86955619Y-102369952D01*
X86908000Y-102417571D01*
X86812761Y-102465190D01*
X86431809Y-102465190D01*
X87336571Y-101941380D02*
X88003238Y-102941380D01*
X88003238Y-101941380D02*
X87336571Y-102941380D01*
X89003238Y-101941380D02*
X89574666Y-101941380D01*
X89288952Y-102941380D02*
X89288952Y-101941380D01*
X89812761Y-101941380D02*
X90479428Y-102941380D01*
X90479428Y-101941380D02*
X89812761Y-102941380D01*
X91384190Y-101509000D02*
X91860380Y-101509000D01*
X91622285Y-102941380D02*
X91622285Y-101941380D01*
X91860380Y-101509000D02*
X92908000Y-101509000D01*
X92098476Y-102941380D02*
X92098476Y-101941380D01*
X92669904Y-102941380D01*
X92669904Y-101941380D01*
X94098476Y-101941380D02*
X94193714Y-101941380D01*
X94288952Y-101989000D01*
X94336571Y-102036619D01*
X94384190Y-102131857D01*
X94431809Y-102322333D01*
X94431809Y-102560428D01*
X94384190Y-102750904D01*
X94336571Y-102846142D01*
X94288952Y-102893761D01*
X94193714Y-102941380D01*
X94098476Y-102941380D01*
X94003238Y-102893761D01*
X93955619Y-102846142D01*
X93908000Y-102750904D01*
X93860380Y-102560428D01*
X93860380Y-102322333D01*
X93908000Y-102131857D01*
X93955619Y-102036619D01*
X94003238Y-101989000D01*
X94098476Y-101941380D01*
X94717523Y-101941380D02*
X95050857Y-102941380D01*
X95384190Y-101941380D01*
X100148095Y-105386142D02*
X100100476Y-105433761D01*
X99957619Y-105481380D01*
X99862380Y-105481380D01*
X99719523Y-105433761D01*
X99624285Y-105338523D01*
X99576666Y-105243285D01*
X99529047Y-105052809D01*
X99529047Y-104909952D01*
X99576666Y-104719476D01*
X99624285Y-104624238D01*
X99719523Y-104529000D01*
X99862380Y-104481380D01*
X99957619Y-104481380D01*
X100100476Y-104529000D01*
X100148095Y-104576619D01*
X101052857Y-105481380D02*
X100576666Y-105481380D01*
X100576666Y-104481380D01*
X102148095Y-105481380D02*
X102148095Y-104481380D01*
X102386190Y-104481380D01*
X102529047Y-104529000D01*
X102624285Y-104624238D01*
X102671904Y-104719476D01*
X102719523Y-104909952D01*
X102719523Y-105052809D01*
X102671904Y-105243285D01*
X102624285Y-105338523D01*
X102529047Y-105433761D01*
X102386190Y-105481380D01*
X102148095Y-105481380D01*
X103100476Y-105195666D02*
X103576666Y-105195666D01*
X103005238Y-105481380D02*
X103338571Y-104481380D01*
X103671904Y-105481380D01*
X104719523Y-105195666D02*
X105195714Y-105195666D01*
X104624285Y-105481380D02*
X104957619Y-104481380D01*
X105290952Y-105481380D01*
X105576666Y-104576619D02*
X105624285Y-104529000D01*
X105719523Y-104481380D01*
X105957619Y-104481380D01*
X106052857Y-104529000D01*
X106100476Y-104576619D01*
X106148095Y-104671857D01*
X106148095Y-104767095D01*
X106100476Y-104909952D01*
X105529047Y-105481380D01*
X106148095Y-105481380D01*
X107290952Y-105195666D02*
X107767142Y-105195666D01*
X107195714Y-105481380D02*
X107529047Y-104481380D01*
X107862380Y-105481380D01*
X108719523Y-105481380D02*
X108148095Y-105481380D01*
X108433809Y-105481380D02*
X108433809Y-104481380D01*
X108338571Y-104624238D01*
X108243333Y-104719476D01*
X108148095Y-104767095D01*
X109862380Y-105195666D02*
X110338571Y-105195666D01*
X109767142Y-105481380D02*
X110100476Y-104481380D01*
X110433809Y-105481380D01*
X110957619Y-104481380D02*
X111052857Y-104481380D01*
X111148095Y-104529000D01*
X111195714Y-104576619D01*
X111243333Y-104671857D01*
X111290952Y-104862333D01*
X111290952Y-105100428D01*
X111243333Y-105290904D01*
X111195714Y-105386142D01*
X111148095Y-105433761D01*
X111052857Y-105481380D01*
X110957619Y-105481380D01*
X110862380Y-105433761D01*
X110814761Y-105386142D01*
X110767142Y-105290904D01*
X110719523Y-105100428D01*
X110719523Y-104862333D01*
X110767142Y-104671857D01*
X110814761Y-104576619D01*
X110862380Y-104529000D01*
X110957619Y-104481380D01*
X95996380Y-116657380D02*
X95424952Y-116657380D01*
X95710666Y-116657380D02*
X95710666Y-115657380D01*
X95615428Y-115800238D01*
X95520190Y-115895476D01*
X95424952Y-115943095D01*
X96377333Y-115752619D02*
X96424952Y-115705000D01*
X96520190Y-115657380D01*
X96758285Y-115657380D01*
X96853523Y-115705000D01*
X96901142Y-115752619D01*
X96948761Y-115847857D01*
X96948761Y-115943095D01*
X96901142Y-116085952D01*
X96329714Y-116657380D01*
X96948761Y-116657380D01*
X97377333Y-116562142D02*
X97424952Y-116609761D01*
X97377333Y-116657380D01*
X97329714Y-116609761D01*
X97377333Y-116562142D01*
X97377333Y-116657380D01*
X97853523Y-116562142D02*
X97901142Y-116609761D01*
X97853523Y-116657380D01*
X97805904Y-116609761D01*
X97853523Y-116562142D01*
X97853523Y-116657380D01*
X98282095Y-115752619D02*
X98329714Y-115705000D01*
X98424952Y-115657380D01*
X98663047Y-115657380D01*
X98758285Y-115705000D01*
X98805904Y-115752619D01*
X98853523Y-115847857D01*
X98853523Y-115943095D01*
X98805904Y-116085952D01*
X98234476Y-116657380D01*
X98853523Y-116657380D01*
X99710666Y-115990714D02*
X99710666Y-116657380D01*
X99472571Y-115609761D02*
X99234476Y-116324047D01*
X99853523Y-116324047D01*
X100091619Y-115657380D02*
X100424952Y-116657380D01*
X100758285Y-115657380D01*
D11*
%TO.C,R22*%
X99844641Y-107568000D02*
X99537359Y-107568000D01*
X99844641Y-106808000D02*
X99537359Y-106808000D01*
%TO.C,R21*%
X99537359Y-108078000D02*
X99844641Y-108078000D01*
X99537359Y-108838000D02*
X99844641Y-108838000D01*
%TO.C,R12*%
X99844641Y-110108000D02*
X99537359Y-110108000D01*
X99844641Y-109348000D02*
X99537359Y-109348000D01*
D10*
%TO.C,C23*%
X110597836Y-110723000D02*
X110382164Y-110723000D01*
X110597836Y-110003000D02*
X110382164Y-110003000D01*
%TO.C,C22*%
X110597836Y-108818000D02*
X110382164Y-108818000D01*
X110597836Y-108098000D02*
X110382164Y-108098000D01*
%TO.C,C21*%
X110597836Y-106913000D02*
X110382164Y-106913000D01*
X110597836Y-106193000D02*
X110382164Y-106193000D01*
%TO.C,C20*%
X103366835Y-139340000D02*
X103135165Y-139340000D01*
X103366835Y-140060000D02*
X103135165Y-140060000D01*
%TO.C,C19*%
X103366835Y-138324000D02*
X103135165Y-138324000D01*
X103366835Y-139044000D02*
X103135165Y-139044000D01*
%TO.C,C18*%
X103366835Y-137308000D02*
X103135165Y-137308000D01*
X103366835Y-138028000D02*
X103135165Y-138028000D01*
%TO.C,C17*%
X103366835Y-136292000D02*
X103135165Y-136292000D01*
X103366835Y-137012000D02*
X103135165Y-137012000D01*
%TO.C,C16*%
X126443665Y-137012000D02*
X126675335Y-137012000D01*
X126443665Y-136292000D02*
X126675335Y-136292000D01*
%TO.C,C15*%
X126443665Y-138028000D02*
X126675335Y-138028000D01*
X126443665Y-137308000D02*
X126675335Y-137308000D01*
%TO.C,C14*%
X126443665Y-139044000D02*
X126675335Y-139044000D01*
X126443665Y-138324000D02*
X126675335Y-138324000D01*
%TO.C,C13*%
X126443665Y-140060000D02*
X126675335Y-140060000D01*
X126443665Y-139340000D02*
X126675335Y-139340000D01*
%TO.C,R19*%
X121668621Y-125640000D02*
X121333379Y-125640000D01*
X121668621Y-124880000D02*
X121333379Y-124880000D01*
%TO.C,R17*%
X121668621Y-123608000D02*
X121333379Y-123608000D01*
X121668621Y-122848000D02*
X121333379Y-122848000D01*
%TO.C,R3*%
X128018621Y-125640000D02*
X127683379Y-125640000D01*
X128018621Y-124880000D02*
X127683379Y-124880000D01*
%TO.C,R1*%
X128018621Y-123608000D02*
X127683379Y-123608000D01*
X128018621Y-122848000D02*
X127683379Y-122848000D01*
%TO.C,SW1*%
X125650000Y-104196000D02*
X126150000Y-104196000D01*
X125650000Y-105196000D02*
X125650000Y-104196000D01*
X124650000Y-105196000D02*
X125650000Y-105196000D01*
X124650000Y-104196000D02*
X124650000Y-105196000D01*
X123650000Y-104196000D02*
X124650000Y-104196000D01*
X123650000Y-105196000D02*
X123650000Y-104196000D01*
X122650000Y-105196000D02*
X123650000Y-105196000D01*
X117650000Y-104196000D02*
X118650000Y-104196000D01*
X117650000Y-105196000D02*
X117650000Y-104196000D01*
X116650000Y-105196000D02*
X117650000Y-105196000D01*
X116650000Y-104196000D02*
X116650000Y-105196000D01*
X115650000Y-104196000D02*
X116650000Y-104196000D01*
X115650000Y-105196000D02*
X115650000Y-104196000D01*
X115150000Y-105196000D02*
X115650000Y-105196000D01*
X119150000Y-111196000D02*
X122150000Y-112196000D01*
X125650000Y-111196000D02*
X122150000Y-111196000D01*
X115650000Y-111196000D02*
X119150000Y-111196000D01*
X120150000Y-107696000D02*
X121150000Y-107696000D01*
X120650000Y-107196000D02*
X120650000Y-108196000D01*
X123650000Y-107696000D02*
G75*
G03*
X123650000Y-107696000I-3000000J0D01*
G01*
X128929387Y-107696000D02*
G75*
G03*
X128929387Y-107696000I-8279387J0D01*
G01*
%TO.C,U4*%
X102480000Y-108805000D02*
X102480000Y-107495000D01*
X102480000Y-107495000D02*
X105200000Y-107495000D01*
X106340000Y-111985000D02*
X105200000Y-111985000D01*
X102480000Y-112215000D02*
X102480000Y-110905000D01*
X105200000Y-112215000D02*
X102480000Y-112215000D01*
X105200000Y-112215000D02*
X105200000Y-111985000D01*
X105200000Y-107495000D02*
X105200000Y-107725000D01*
%TO.C,R20*%
X112876359Y-115444000D02*
X113183641Y-115444000D01*
X112876359Y-116204000D02*
X113183641Y-116204000D01*
%TO.C,C10*%
X118366000Y-118604420D02*
X118366000Y-118885580D01*
X117346000Y-118604420D02*
X117346000Y-118885580D01*
%TO.C,U1*%
X111711000Y-122555500D02*
X110401000Y-122555500D01*
X110401000Y-122555500D02*
X110401000Y-119835500D01*
X114891000Y-118695500D02*
X114891000Y-119835500D01*
X115121000Y-122555500D02*
X113811000Y-122555500D01*
X115121000Y-119835500D02*
X115121000Y-122555500D01*
X115121000Y-119835500D02*
X114891000Y-119835500D01*
X110401000Y-119835500D02*
X110631000Y-119835500D01*
%TO.C,U5*%
X122464000Y-120396000D02*
X122464000Y-118596000D01*
X122464000Y-120396000D02*
X122464000Y-121196000D01*
X119344000Y-120396000D02*
X119344000Y-119596000D01*
X119344000Y-120396000D02*
X119344000Y-121196000D01*
%TO.C,R18*%
X118490000Y-122147359D02*
X118490000Y-122454641D01*
X117730000Y-122147359D02*
X117730000Y-122454641D01*
%TO.C,Q6*%
X103322000Y-133475000D02*
X103322000Y-132015000D01*
X106482000Y-133475000D02*
X106482000Y-131315000D01*
X106482000Y-133475000D02*
X105552000Y-133475000D01*
X103322000Y-133475000D02*
X104252000Y-133475000D01*
%TO.C,Q5*%
X107132000Y-133475000D02*
X107132000Y-132015000D01*
X110292000Y-133475000D02*
X110292000Y-131315000D01*
X110292000Y-133475000D02*
X109362000Y-133475000D01*
X107132000Y-133475000D02*
X108062000Y-133475000D01*
%TO.C,Q4*%
X110942000Y-133475000D02*
X110942000Y-132015000D01*
X114102000Y-133475000D02*
X114102000Y-131315000D01*
X114102000Y-133475000D02*
X113172000Y-133475000D01*
X110942000Y-133475000D02*
X111872000Y-133475000D01*
%TO.C,C12*%
X121616835Y-124604000D02*
X121385165Y-124604000D01*
X121616835Y-123884000D02*
X121385165Y-123884000D01*
%TO.C,C11*%
X120796164Y-117369000D02*
X121011836Y-117369000D01*
X120796164Y-118089000D02*
X121011836Y-118089000D01*
%TO.C,R2*%
X124840000Y-122147359D02*
X124840000Y-122454641D01*
X124080000Y-122147359D02*
X124080000Y-122454641D01*
%TO.C,C2*%
X114788836Y-117708000D02*
X114573164Y-117708000D01*
X114788836Y-116988000D02*
X114573164Y-116988000D01*
%TO.C,C1*%
X111365420Y-116838000D02*
X111646580Y-116838000D01*
X111365420Y-117858000D02*
X111646580Y-117858000D01*
%TO.C,R16*%
X101446359Y-114174000D02*
X101753641Y-114174000D01*
X101446359Y-114934000D02*
X101753641Y-114934000D01*
%TO.C,D2*%
X90970000Y-112930000D02*
X88685000Y-112930000D01*
X88685000Y-112930000D02*
X88685000Y-114400000D01*
X88685000Y-114400000D02*
X90970000Y-114400000D01*
%TO.C,R15*%
X104293641Y-114934000D02*
X103986359Y-114934000D01*
X104293641Y-114174000D02*
X103986359Y-114174000D01*
%TO.C,D1*%
X106515000Y-114400000D02*
X108800000Y-114400000D01*
X108800000Y-114400000D02*
X108800000Y-112930000D01*
X108800000Y-112930000D02*
X106515000Y-112930000D01*
%TO.C,C5*%
X127966835Y-124604000D02*
X127735165Y-124604000D01*
X127966835Y-123884000D02*
X127735165Y-123884000D01*
%TO.C,J5*%
X99060000Y-145542000D02*
X100330000Y-145542000D01*
X99060000Y-144272000D02*
X99060000Y-145542000D01*
X96520000Y-144272000D02*
X99060000Y-144272000D01*
X96520000Y-145542000D02*
X96520000Y-144272000D01*
X93980000Y-145542000D02*
X96520000Y-145542000D01*
X93980000Y-144272000D02*
X93980000Y-145542000D01*
X91440000Y-144272000D02*
X93980000Y-144272000D01*
X91440000Y-145542000D02*
X91440000Y-144272000D01*
X90170000Y-145542000D02*
X91440000Y-145542000D01*
X100330000Y-145542000D02*
X100330000Y-135382000D01*
X90170000Y-135382000D02*
X90170000Y-145542000D01*
X100330000Y-135382000D02*
X90170000Y-135382000D01*
%TO.C,J4*%
X97155000Y-128270000D02*
X97155000Y-118110000D01*
X97155000Y-118110000D02*
X86995000Y-118110000D01*
X86995000Y-128270000D02*
X97155000Y-128270000D01*
X86995000Y-118110000D02*
X86995000Y-119380000D01*
X86995000Y-119380000D02*
X88265000Y-119380000D01*
X88265000Y-119380000D02*
X88265000Y-121920000D01*
X88265000Y-121920000D02*
X86995000Y-121920000D01*
X86995000Y-121920000D02*
X86995000Y-124460000D01*
X86995000Y-124460000D02*
X88265000Y-124460000D01*
X88265000Y-124460000D02*
X88265000Y-127000000D01*
X88265000Y-127000000D02*
X86995000Y-127000000D01*
X86995000Y-127000000D02*
X86995000Y-128270000D01*
%TO.C,J2*%
X118745000Y-145542000D02*
X120015000Y-145542000D01*
X118745000Y-144272000D02*
X118745000Y-145542000D01*
X116205000Y-144272000D02*
X118745000Y-144272000D01*
X116205000Y-145542000D02*
X116205000Y-144272000D01*
X113665000Y-145542000D02*
X116205000Y-145542000D01*
X113665000Y-144272000D02*
X113665000Y-145542000D01*
X111125000Y-144272000D02*
X113665000Y-144272000D01*
X111125000Y-145542000D02*
X111125000Y-144272000D01*
X109855000Y-145542000D02*
X111125000Y-145542000D01*
X120015000Y-145542000D02*
X120015000Y-135382000D01*
X109855000Y-135382000D02*
X109855000Y-145542000D01*
X120015000Y-135382000D02*
X109855000Y-135382000D01*
%TO.C,J1*%
X99060000Y-118110000D02*
X99060000Y-128270000D01*
X99060000Y-128270000D02*
X109220000Y-128270000D01*
X109220000Y-118110000D02*
X99060000Y-118110000D01*
X109220000Y-128270000D02*
X109220000Y-127000000D01*
X109220000Y-127000000D02*
X107950000Y-127000000D01*
X107950000Y-127000000D02*
X107950000Y-124460000D01*
X107950000Y-124460000D02*
X109220000Y-124460000D01*
X109220000Y-124460000D02*
X109220000Y-121920000D01*
X109220000Y-121920000D02*
X107950000Y-121920000D01*
X107950000Y-121920000D02*
X107950000Y-119380000D01*
X107950000Y-119380000D02*
X109220000Y-119380000D01*
X109220000Y-119380000D02*
X109220000Y-118110000D01*
%TO.C,R14*%
X85065359Y-104012000D02*
X85372641Y-104012000D01*
X85065359Y-103252000D02*
X85372641Y-103252000D01*
%TO.C,R13*%
X85370641Y-104268000D02*
X85063359Y-104268000D01*
X85370641Y-105028000D02*
X85063359Y-105028000D01*
%TO.C,C3*%
X124716000Y-118604420D02*
X124716000Y-118885580D01*
X123696000Y-118604420D02*
X123696000Y-118885580D01*
%TO.C,J7*%
X99000000Y-103819000D02*
X99000000Y-102489000D01*
X100330000Y-103819000D02*
X99000000Y-103819000D01*
X99000000Y-101219000D02*
X99000000Y-98619000D01*
X101600000Y-101219000D02*
X99000000Y-101219000D01*
X101600000Y-103819000D02*
X101600000Y-101219000D01*
X99000000Y-98619000D02*
X111820000Y-98619000D01*
X101600000Y-103819000D02*
X111820000Y-103819000D01*
X111820000Y-103819000D02*
X111820000Y-98619000D01*
%TO.C,J6*%
X83252000Y-101279000D02*
X83252000Y-99949000D01*
X84582000Y-101279000D02*
X83252000Y-101279000D01*
X85852000Y-101279000D02*
X85852000Y-98619000D01*
X85852000Y-98619000D02*
X96072000Y-98619000D01*
X85852000Y-101279000D02*
X96072000Y-101279000D01*
X96072000Y-101279000D02*
X96072000Y-98619000D01*
%TO.C,C9*%
X99820000Y-111873420D02*
X99820000Y-112154580D01*
X100840000Y-111873420D02*
X100840000Y-112154580D01*
%TO.C,U3*%
X90586000Y-104049000D02*
X86986000Y-104049000D01*
X90586000Y-104049000D02*
X92786000Y-104049000D01*
X90586000Y-110819000D02*
X88386000Y-110819000D01*
X90586000Y-110819000D02*
X92786000Y-110819000D01*
%TO.C,R11*%
X95473359Y-108203000D02*
X95780641Y-108203000D01*
X95473359Y-107443000D02*
X95780641Y-107443000D01*
%TO.C,R10*%
X95471359Y-105701000D02*
X95778641Y-105701000D01*
X95471359Y-104941000D02*
X95778641Y-104941000D01*
%TO.C,R9*%
X97505359Y-108838000D02*
X97812641Y-108838000D01*
X97505359Y-108078000D02*
X97812641Y-108078000D01*
%TO.C,R8*%
X95473359Y-106933000D02*
X95780641Y-106933000D01*
X95473359Y-106173000D02*
X95780641Y-106173000D01*
%TO.C,R7*%
X95473359Y-109473000D02*
X95780641Y-109473000D01*
X95473359Y-108713000D02*
X95780641Y-108713000D01*
%TO.C,R6*%
X97505359Y-107568000D02*
X97812641Y-107568000D01*
X97505359Y-106808000D02*
X97812641Y-106808000D01*
%TO.C,R5*%
X95473359Y-110743000D02*
X95780641Y-110743000D01*
X95473359Y-109983000D02*
X95780641Y-109983000D01*
%TO.C,R4*%
X97505359Y-110108000D02*
X97812641Y-110108000D01*
X97505359Y-109348000D02*
X97812641Y-109348000D01*
%TO.C,C8*%
X85417164Y-110320000D02*
X85632836Y-110320000D01*
X85417164Y-109600000D02*
X85632836Y-109600000D01*
%TO.C,C7*%
X85632836Y-106100000D02*
X85417164Y-106100000D01*
X85632836Y-106820000D02*
X85417164Y-106820000D01*
%TO.C,C6*%
X85632836Y-108550000D02*
X85417164Y-108550000D01*
X85632836Y-109270000D02*
X85417164Y-109270000D01*
%TO.C,C4*%
X127146164Y-117369000D02*
X127361836Y-117369000D01*
X127146164Y-118089000D02*
X127361836Y-118089000D01*
%TO.C,Q1*%
X123515000Y-133475000D02*
X123515000Y-132015000D01*
X126675000Y-133475000D02*
X126675000Y-131315000D01*
X126675000Y-133475000D02*
X125745000Y-133475000D01*
X123515000Y-133475000D02*
X124445000Y-133475000D01*
%TO.C,Q2*%
X119705000Y-133475000D02*
X119705000Y-132015000D01*
X122865000Y-133475000D02*
X122865000Y-131315000D01*
X122865000Y-133475000D02*
X121935000Y-133475000D01*
X119705000Y-133475000D02*
X120635000Y-133475000D01*
%TO.C,Q3*%
X115895000Y-133475000D02*
X115895000Y-132015000D01*
X119055000Y-133475000D02*
X119055000Y-131315000D01*
X119055000Y-133475000D02*
X118125000Y-133475000D01*
X115895000Y-133475000D02*
X116825000Y-133475000D01*
%TO.C,U2*%
X128814000Y-120396000D02*
X128814000Y-118596000D01*
X128814000Y-120396000D02*
X128814000Y-121196000D01*
X125694000Y-120396000D02*
X125694000Y-119596000D01*
X125694000Y-120396000D02*
X125694000Y-121196000D01*
%TO.C,SW1*%
X119316666Y-109459761D02*
X119459523Y-109507380D01*
X119697619Y-109507380D01*
X119792857Y-109459761D01*
X119840476Y-109412142D01*
X119888095Y-109316904D01*
X119888095Y-109221666D01*
X119840476Y-109126428D01*
X119792857Y-109078809D01*
X119697619Y-109031190D01*
X119507142Y-108983571D01*
X119411904Y-108935952D01*
X119364285Y-108888333D01*
X119316666Y-108793095D01*
X119316666Y-108697857D01*
X119364285Y-108602619D01*
X119411904Y-108555000D01*
X119507142Y-108507380D01*
X119745238Y-108507380D01*
X119888095Y-108555000D01*
X120221428Y-108507380D02*
X120459523Y-109507380D01*
X120650000Y-108793095D01*
X120840476Y-109507380D01*
X121078571Y-108507380D01*
X121983333Y-109507380D02*
X121411904Y-109507380D01*
X121697619Y-109507380D02*
X121697619Y-108507380D01*
X121602380Y-108650238D01*
X121507142Y-108745476D01*
X121411904Y-108793095D01*
X120388095Y-104053142D02*
X120340476Y-104100761D01*
X120197619Y-104148380D01*
X120102380Y-104148380D01*
X119959523Y-104100761D01*
X119864285Y-104005523D01*
X119816666Y-103910285D01*
X119769047Y-103719809D01*
X119769047Y-103576952D01*
X119816666Y-103386476D01*
X119864285Y-103291238D01*
X119959523Y-103196000D01*
X120102380Y-103148380D01*
X120197619Y-103148380D01*
X120340476Y-103196000D01*
X120388095Y-103243619D01*
X120721428Y-103148380D02*
X120959523Y-104148380D01*
X121150000Y-103434095D01*
X121340476Y-104148380D01*
X121578571Y-103148380D01*
%TO.C,J5*%
X94916666Y-139787380D02*
X94916666Y-140501666D01*
X94869047Y-140644523D01*
X94773809Y-140739761D01*
X94630952Y-140787380D01*
X94535714Y-140787380D01*
X95869047Y-139787380D02*
X95392857Y-139787380D01*
X95345238Y-140263571D01*
X95392857Y-140215952D01*
X95488095Y-140168333D01*
X95726190Y-140168333D01*
X95821428Y-140215952D01*
X95869047Y-140263571D01*
X95916666Y-140358809D01*
X95916666Y-140596904D01*
X95869047Y-140692142D01*
X95821428Y-140739761D01*
X95726190Y-140787380D01*
X95488095Y-140787380D01*
X95392857Y-140739761D01*
X95345238Y-140692142D01*
X86373333Y-134834380D02*
X86563809Y-134834380D01*
X86659047Y-134882000D01*
X86754285Y-134977238D01*
X86801904Y-135167714D01*
X86801904Y-135501047D01*
X86754285Y-135691523D01*
X86659047Y-135786761D01*
X86563809Y-135834380D01*
X86373333Y-135834380D01*
X86278095Y-135786761D01*
X86182857Y-135691523D01*
X86135238Y-135501047D01*
X86135238Y-135167714D01*
X86182857Y-134977238D01*
X86278095Y-134882000D01*
X86373333Y-134834380D01*
X87230476Y-134834380D02*
X87230476Y-135643904D01*
X87278095Y-135739142D01*
X87325714Y-135786761D01*
X87420952Y-135834380D01*
X87611428Y-135834380D01*
X87706666Y-135786761D01*
X87754285Y-135739142D01*
X87801904Y-135643904D01*
X87801904Y-134834380D01*
X88135238Y-134834380D02*
X88706666Y-134834380D01*
X88420952Y-135834380D02*
X88420952Y-134834380D01*
X89040000Y-135453428D02*
X89801904Y-135453428D01*
X89420952Y-135834380D02*
X89420952Y-135072476D01*
%TO.C,J4*%
X91741666Y-122642380D02*
X91741666Y-123356666D01*
X91694047Y-123499523D01*
X91598809Y-123594761D01*
X91455952Y-123642380D01*
X91360714Y-123642380D01*
X92646428Y-122975714D02*
X92646428Y-123642380D01*
X92408333Y-122594761D02*
X92170238Y-123309047D01*
X92789285Y-123309047D01*
X90932142Y-116657380D02*
X90932142Y-115657380D01*
X91408333Y-116657380D02*
X91408333Y-115657380D01*
X91979761Y-116657380D01*
X91979761Y-115657380D01*
X92455952Y-116276428D02*
X93217857Y-116276428D01*
X92836904Y-116657380D02*
X92836904Y-115895476D01*
%TO.C,J2*%
X114601666Y-139787380D02*
X114601666Y-140501666D01*
X114554047Y-140644523D01*
X114458809Y-140739761D01*
X114315952Y-140787380D01*
X114220714Y-140787380D01*
X115030238Y-139882619D02*
X115077857Y-139835000D01*
X115173095Y-139787380D01*
X115411190Y-139787380D01*
X115506428Y-139835000D01*
X115554047Y-139882619D01*
X115601666Y-139977857D01*
X115601666Y-140073095D01*
X115554047Y-140215952D01*
X114982619Y-140787380D01*
X115601666Y-140787380D01*
X120573571Y-134834380D02*
X120764047Y-134834380D01*
X120859285Y-134882000D01*
X120954523Y-134977238D01*
X121002142Y-135167714D01*
X121002142Y-135501047D01*
X120954523Y-135691523D01*
X120859285Y-135786761D01*
X120764047Y-135834380D01*
X120573571Y-135834380D01*
X120478333Y-135786761D01*
X120383095Y-135691523D01*
X120335476Y-135501047D01*
X120335476Y-135167714D01*
X120383095Y-134977238D01*
X120478333Y-134882000D01*
X120573571Y-134834380D01*
X121430714Y-134834380D02*
X121430714Y-135643904D01*
X121478333Y-135739142D01*
X121525952Y-135786761D01*
X121621190Y-135834380D01*
X121811666Y-135834380D01*
X121906904Y-135786761D01*
X121954523Y-135739142D01*
X122002142Y-135643904D01*
X122002142Y-134834380D01*
X122335476Y-134834380D02*
X122906904Y-134834380D01*
X122621190Y-135834380D02*
X122621190Y-134834380D01*
X123192619Y-134929619D02*
X123240238Y-134882000D01*
X123335476Y-134834380D01*
X123573571Y-134834380D01*
X123668809Y-134882000D01*
X123716428Y-134929619D01*
X123764047Y-135024857D01*
X123764047Y-135120095D01*
X123716428Y-135262952D01*
X123145000Y-135834380D01*
X123764047Y-135834380D01*
X124192619Y-135453428D02*
X124954523Y-135453428D01*
X105105952Y-134834380D02*
X105296428Y-134834380D01*
X105391666Y-134882000D01*
X105486904Y-134977238D01*
X105534523Y-135167714D01*
X105534523Y-135501047D01*
X105486904Y-135691523D01*
X105391666Y-135786761D01*
X105296428Y-135834380D01*
X105105952Y-135834380D01*
X105010714Y-135786761D01*
X104915476Y-135691523D01*
X104867857Y-135501047D01*
X104867857Y-135167714D01*
X104915476Y-134977238D01*
X105010714Y-134882000D01*
X105105952Y-134834380D01*
X105963095Y-134834380D02*
X105963095Y-135643904D01*
X106010714Y-135739142D01*
X106058333Y-135786761D01*
X106153571Y-135834380D01*
X106344047Y-135834380D01*
X106439285Y-135786761D01*
X106486904Y-135739142D01*
X106534523Y-135643904D01*
X106534523Y-134834380D01*
X106867857Y-134834380D02*
X107439285Y-134834380D01*
X107153571Y-135834380D02*
X107153571Y-134834380D01*
X108296428Y-135834380D02*
X107725000Y-135834380D01*
X108010714Y-135834380D02*
X108010714Y-134834380D01*
X107915476Y-134977238D01*
X107820238Y-135072476D01*
X107725000Y-135120095D01*
X108725000Y-135453428D02*
X109486904Y-135453428D01*
%TO.C,J1*%
X103806666Y-122642380D02*
X103806666Y-123356666D01*
X103759047Y-123499523D01*
X103663809Y-123594761D01*
X103520952Y-123642380D01*
X103425714Y-123642380D01*
X104806666Y-123642380D02*
X104235238Y-123642380D01*
X104520952Y-123642380D02*
X104520952Y-122642380D01*
X104425714Y-122785238D01*
X104330476Y-122880476D01*
X104235238Y-122928095D01*
X102997142Y-116657380D02*
X102997142Y-115657380D01*
X103473333Y-116657380D02*
X103473333Y-115657380D01*
X104044761Y-116657380D01*
X104044761Y-115657380D01*
X104520952Y-116276428D02*
X105282857Y-116276428D01*
%TD*%
%LPC*%
%TO.C,R22*%
G36*
G01*
X99451000Y-107003000D02*
X99451000Y-107373000D01*
G75*
G02*
X99316000Y-107508000I-135000J0D01*
G01*
X99046000Y-107508000D01*
G75*
G02*
X98911000Y-107373000I0J135000D01*
G01*
X98911000Y-107003000D01*
G75*
G02*
X99046000Y-106868000I135000J0D01*
G01*
X99316000Y-106868000D01*
G75*
G02*
X99451000Y-107003000I0J-135000D01*
G01*
G37*
G36*
G01*
X100471000Y-107003000D02*
X100471000Y-107373000D01*
G75*
G02*
X100336000Y-107508000I-135000J0D01*
G01*
X100066000Y-107508000D01*
G75*
G02*
X99931000Y-107373000I0J135000D01*
G01*
X99931000Y-107003000D01*
G75*
G02*
X100066000Y-106868000I135000J0D01*
G01*
X100336000Y-106868000D01*
G75*
G02*
X100471000Y-107003000I0J-135000D01*
G01*
G37*
%TD*%
%TO.C,R21*%
G36*
G01*
X99931000Y-108643000D02*
X99931000Y-108273000D01*
G75*
G02*
X100066000Y-108138000I135000J0D01*
G01*
X100336000Y-108138000D01*
G75*
G02*
X100471000Y-108273000I0J-135000D01*
G01*
X100471000Y-108643000D01*
G75*
G02*
X100336000Y-108778000I-135000J0D01*
G01*
X100066000Y-108778000D01*
G75*
G02*
X99931000Y-108643000I0J135000D01*
G01*
G37*
G36*
G01*
X98911000Y-108643000D02*
X98911000Y-108273000D01*
G75*
G02*
X99046000Y-108138000I135000J0D01*
G01*
X99316000Y-108138000D01*
G75*
G02*
X99451000Y-108273000I0J-135000D01*
G01*
X99451000Y-108643000D01*
G75*
G02*
X99316000Y-108778000I-135000J0D01*
G01*
X99046000Y-108778000D01*
G75*
G02*
X98911000Y-108643000I0J135000D01*
G01*
G37*
%TD*%
%TO.C,R12*%
G36*
G01*
X99451000Y-109543000D02*
X99451000Y-109913000D01*
G75*
G02*
X99316000Y-110048000I-135000J0D01*
G01*
X99046000Y-110048000D01*
G75*
G02*
X98911000Y-109913000I0J135000D01*
G01*
X98911000Y-109543000D01*
G75*
G02*
X99046000Y-109408000I135000J0D01*
G01*
X99316000Y-109408000D01*
G75*
G02*
X99451000Y-109543000I0J-135000D01*
G01*
G37*
G36*
G01*
X100471000Y-109543000D02*
X100471000Y-109913000D01*
G75*
G02*
X100336000Y-110048000I-135000J0D01*
G01*
X100066000Y-110048000D01*
G75*
G02*
X99931000Y-109913000I0J135000D01*
G01*
X99931000Y-109543000D01*
G75*
G02*
X100066000Y-109408000I135000J0D01*
G01*
X100336000Y-109408000D01*
G75*
G02*
X100471000Y-109543000I0J-135000D01*
G01*
G37*
%TD*%
%TO.C,C23*%
G36*
G01*
X110290000Y-110193000D02*
X110290000Y-110533000D01*
G75*
G02*
X110150000Y-110673000I-140000J0D01*
G01*
X109870000Y-110673000D01*
G75*
G02*
X109730000Y-110533000I0J140000D01*
G01*
X109730000Y-110193000D01*
G75*
G02*
X109870000Y-110053000I140000J0D01*
G01*
X110150000Y-110053000D01*
G75*
G02*
X110290000Y-110193000I0J-140000D01*
G01*
G37*
G36*
G01*
X111250000Y-110193000D02*
X111250000Y-110533000D01*
G75*
G02*
X111110000Y-110673000I-140000J0D01*
G01*
X110830000Y-110673000D01*
G75*
G02*
X110690000Y-110533000I0J140000D01*
G01*
X110690000Y-110193000D01*
G75*
G02*
X110830000Y-110053000I140000J0D01*
G01*
X111110000Y-110053000D01*
G75*
G02*
X111250000Y-110193000I0J-140000D01*
G01*
G37*
%TD*%
%TO.C,C22*%
G36*
G01*
X110290000Y-108288000D02*
X110290000Y-108628000D01*
G75*
G02*
X110150000Y-108768000I-140000J0D01*
G01*
X109870000Y-108768000D01*
G75*
G02*
X109730000Y-108628000I0J140000D01*
G01*
X109730000Y-108288000D01*
G75*
G02*
X109870000Y-108148000I140000J0D01*
G01*
X110150000Y-108148000D01*
G75*
G02*
X110290000Y-108288000I0J-140000D01*
G01*
G37*
G36*
G01*
X111250000Y-108288000D02*
X111250000Y-108628000D01*
G75*
G02*
X111110000Y-108768000I-140000J0D01*
G01*
X110830000Y-108768000D01*
G75*
G02*
X110690000Y-108628000I0J140000D01*
G01*
X110690000Y-108288000D01*
G75*
G02*
X110830000Y-108148000I140000J0D01*
G01*
X111110000Y-108148000D01*
G75*
G02*
X111250000Y-108288000I0J-140000D01*
G01*
G37*
%TD*%
%TO.C,C21*%
G36*
G01*
X110290000Y-106383000D02*
X110290000Y-106723000D01*
G75*
G02*
X110150000Y-106863000I-140000J0D01*
G01*
X109870000Y-106863000D01*
G75*
G02*
X109730000Y-106723000I0J140000D01*
G01*
X109730000Y-106383000D01*
G75*
G02*
X109870000Y-106243000I140000J0D01*
G01*
X110150000Y-106243000D01*
G75*
G02*
X110290000Y-106383000I0J-140000D01*
G01*
G37*
G36*
G01*
X111250000Y-106383000D02*
X111250000Y-106723000D01*
G75*
G02*
X111110000Y-106863000I-140000J0D01*
G01*
X110830000Y-106863000D01*
G75*
G02*
X110690000Y-106723000I0J140000D01*
G01*
X110690000Y-106383000D01*
G75*
G02*
X110830000Y-106243000I140000J0D01*
G01*
X111110000Y-106243000D01*
G75*
G02*
X111250000Y-106383000I0J-140000D01*
G01*
G37*
%TD*%
%TO.C,C20*%
G36*
G01*
X104186000Y-139545000D02*
X104186000Y-139855000D01*
G75*
G02*
X104031000Y-140010000I-155000J0D01*
G01*
X103606000Y-140010000D01*
G75*
G02*
X103451000Y-139855000I0J155000D01*
G01*
X103451000Y-139545000D01*
G75*
G02*
X103606000Y-139390000I155000J0D01*
G01*
X104031000Y-139390000D01*
G75*
G02*
X104186000Y-139545000I0J-155000D01*
G01*
G37*
G36*
G01*
X103051000Y-139545000D02*
X103051000Y-139855000D01*
G75*
G02*
X102896000Y-140010000I-155000J0D01*
G01*
X102471000Y-140010000D01*
G75*
G02*
X102316000Y-139855000I0J155000D01*
G01*
X102316000Y-139545000D01*
G75*
G02*
X102471000Y-139390000I155000J0D01*
G01*
X102896000Y-139390000D01*
G75*
G02*
X103051000Y-139545000I0J-155000D01*
G01*
G37*
%TD*%
%TO.C,C19*%
G36*
G01*
X104186000Y-138529000D02*
X104186000Y-138839000D01*
G75*
G02*
X104031000Y-138994000I-155000J0D01*
G01*
X103606000Y-138994000D01*
G75*
G02*
X103451000Y-138839000I0J155000D01*
G01*
X103451000Y-138529000D01*
G75*
G02*
X103606000Y-138374000I155000J0D01*
G01*
X104031000Y-138374000D01*
G75*
G02*
X104186000Y-138529000I0J-155000D01*
G01*
G37*
G36*
G01*
X103051000Y-138529000D02*
X103051000Y-138839000D01*
G75*
G02*
X102896000Y-138994000I-155000J0D01*
G01*
X102471000Y-138994000D01*
G75*
G02*
X102316000Y-138839000I0J155000D01*
G01*
X102316000Y-138529000D01*
G75*
G02*
X102471000Y-138374000I155000J0D01*
G01*
X102896000Y-138374000D01*
G75*
G02*
X103051000Y-138529000I0J-155000D01*
G01*
G37*
%TD*%
%TO.C,C18*%
G36*
G01*
X104186000Y-137513000D02*
X104186000Y-137823000D01*
G75*
G02*
X104031000Y-137978000I-155000J0D01*
G01*
X103606000Y-137978000D01*
G75*
G02*
X103451000Y-137823000I0J155000D01*
G01*
X103451000Y-137513000D01*
G75*
G02*
X103606000Y-137358000I155000J0D01*
G01*
X104031000Y-137358000D01*
G75*
G02*
X104186000Y-137513000I0J-155000D01*
G01*
G37*
G36*
G01*
X103051000Y-137513000D02*
X103051000Y-137823000D01*
G75*
G02*
X102896000Y-137978000I-155000J0D01*
G01*
X102471000Y-137978000D01*
G75*
G02*
X102316000Y-137823000I0J155000D01*
G01*
X102316000Y-137513000D01*
G75*
G02*
X102471000Y-137358000I155000J0D01*
G01*
X102896000Y-137358000D01*
G75*
G02*
X103051000Y-137513000I0J-155000D01*
G01*
G37*
%TD*%
%TO.C,C17*%
G36*
G01*
X104186000Y-136497000D02*
X104186000Y-136807000D01*
G75*
G02*
X104031000Y-136962000I-155000J0D01*
G01*
X103606000Y-136962000D01*
G75*
G02*
X103451000Y-136807000I0J155000D01*
G01*
X103451000Y-136497000D01*
G75*
G02*
X103606000Y-136342000I155000J0D01*
G01*
X104031000Y-136342000D01*
G75*
G02*
X104186000Y-136497000I0J-155000D01*
G01*
G37*
G36*
G01*
X103051000Y-136497000D02*
X103051000Y-136807000D01*
G75*
G02*
X102896000Y-136962000I-155000J0D01*
G01*
X102471000Y-136962000D01*
G75*
G02*
X102316000Y-136807000I0J155000D01*
G01*
X102316000Y-136497000D01*
G75*
G02*
X102471000Y-136342000I155000J0D01*
G01*
X102896000Y-136342000D01*
G75*
G02*
X103051000Y-136497000I0J-155000D01*
G01*
G37*
%TD*%
%TO.C,C16*%
G36*
G01*
X125624500Y-136807000D02*
X125624500Y-136497000D01*
G75*
G02*
X125779500Y-136342000I155000J0D01*
G01*
X126204500Y-136342000D01*
G75*
G02*
X126359500Y-136497000I0J-155000D01*
G01*
X126359500Y-136807000D01*
G75*
G02*
X126204500Y-136962000I-155000J0D01*
G01*
X125779500Y-136962000D01*
G75*
G02*
X125624500Y-136807000I0J155000D01*
G01*
G37*
G36*
G01*
X126759500Y-136807000D02*
X126759500Y-136497000D01*
G75*
G02*
X126914500Y-136342000I155000J0D01*
G01*
X127339500Y-136342000D01*
G75*
G02*
X127494500Y-136497000I0J-155000D01*
G01*
X127494500Y-136807000D01*
G75*
G02*
X127339500Y-136962000I-155000J0D01*
G01*
X126914500Y-136962000D01*
G75*
G02*
X126759500Y-136807000I0J155000D01*
G01*
G37*
%TD*%
%TO.C,C15*%
G36*
G01*
X125624500Y-137823000D02*
X125624500Y-137513000D01*
G75*
G02*
X125779500Y-137358000I155000J0D01*
G01*
X126204500Y-137358000D01*
G75*
G02*
X126359500Y-137513000I0J-155000D01*
G01*
X126359500Y-137823000D01*
G75*
G02*
X126204500Y-137978000I-155000J0D01*
G01*
X125779500Y-137978000D01*
G75*
G02*
X125624500Y-137823000I0J155000D01*
G01*
G37*
G36*
G01*
X126759500Y-137823000D02*
X126759500Y-137513000D01*
G75*
G02*
X126914500Y-137358000I155000J0D01*
G01*
X127339500Y-137358000D01*
G75*
G02*
X127494500Y-137513000I0J-155000D01*
G01*
X127494500Y-137823000D01*
G75*
G02*
X127339500Y-137978000I-155000J0D01*
G01*
X126914500Y-137978000D01*
G75*
G02*
X126759500Y-137823000I0J155000D01*
G01*
G37*
%TD*%
%TO.C,C14*%
G36*
G01*
X125624500Y-138839000D02*
X125624500Y-138529000D01*
G75*
G02*
X125779500Y-138374000I155000J0D01*
G01*
X126204500Y-138374000D01*
G75*
G02*
X126359500Y-138529000I0J-155000D01*
G01*
X126359500Y-138839000D01*
G75*
G02*
X126204500Y-138994000I-155000J0D01*
G01*
X125779500Y-138994000D01*
G75*
G02*
X125624500Y-138839000I0J155000D01*
G01*
G37*
G36*
G01*
X126759500Y-138839000D02*
X126759500Y-138529000D01*
G75*
G02*
X126914500Y-138374000I155000J0D01*
G01*
X127339500Y-138374000D01*
G75*
G02*
X127494500Y-138529000I0J-155000D01*
G01*
X127494500Y-138839000D01*
G75*
G02*
X127339500Y-138994000I-155000J0D01*
G01*
X126914500Y-138994000D01*
G75*
G02*
X126759500Y-138839000I0J155000D01*
G01*
G37*
%TD*%
%TO.C,C13*%
G36*
G01*
X125624500Y-139855000D02*
X125624500Y-139545000D01*
G75*
G02*
X125779500Y-139390000I155000J0D01*
G01*
X126204500Y-139390000D01*
G75*
G02*
X126359500Y-139545000I0J-155000D01*
G01*
X126359500Y-139855000D01*
G75*
G02*
X126204500Y-140010000I-155000J0D01*
G01*
X125779500Y-140010000D01*
G75*
G02*
X125624500Y-139855000I0J155000D01*
G01*
G37*
G36*
G01*
X126759500Y-139855000D02*
X126759500Y-139545000D01*
G75*
G02*
X126914500Y-139390000I155000J0D01*
G01*
X127339500Y-139390000D01*
G75*
G02*
X127494500Y-139545000I0J-155000D01*
G01*
X127494500Y-139855000D01*
G75*
G02*
X127339500Y-140010000I-155000J0D01*
G01*
X126914500Y-140010000D01*
G75*
G02*
X126759500Y-139855000I0J155000D01*
G01*
G37*
%TD*%
%TO.C,R19*%
G36*
G01*
X121261000Y-125100000D02*
X121261000Y-125420000D01*
G75*
G02*
X121101000Y-125580000I-160000J0D01*
G01*
X120706000Y-125580000D01*
G75*
G02*
X120546000Y-125420000I0J160000D01*
G01*
X120546000Y-125100000D01*
G75*
G02*
X120706000Y-124940000I160000J0D01*
G01*
X121101000Y-124940000D01*
G75*
G02*
X121261000Y-125100000I0J-160000D01*
G01*
G37*
G36*
G01*
X122456000Y-125100000D02*
X122456000Y-125420000D01*
G75*
G02*
X122296000Y-125580000I-160000J0D01*
G01*
X121901000Y-125580000D01*
G75*
G02*
X121741000Y-125420000I0J160000D01*
G01*
X121741000Y-125100000D01*
G75*
G02*
X121901000Y-124940000I160000J0D01*
G01*
X122296000Y-124940000D01*
G75*
G02*
X122456000Y-125100000I0J-160000D01*
G01*
G37*
%TD*%
%TO.C,R17*%
G36*
G01*
X121261000Y-123068000D02*
X121261000Y-123388000D01*
G75*
G02*
X121101000Y-123548000I-160000J0D01*
G01*
X120706000Y-123548000D01*
G75*
G02*
X120546000Y-123388000I0J160000D01*
G01*
X120546000Y-123068000D01*
G75*
G02*
X120706000Y-122908000I160000J0D01*
G01*
X121101000Y-122908000D01*
G75*
G02*
X121261000Y-123068000I0J-160000D01*
G01*
G37*
G36*
G01*
X122456000Y-123068000D02*
X122456000Y-123388000D01*
G75*
G02*
X122296000Y-123548000I-160000J0D01*
G01*
X121901000Y-123548000D01*
G75*
G02*
X121741000Y-123388000I0J160000D01*
G01*
X121741000Y-123068000D01*
G75*
G02*
X121901000Y-122908000I160000J0D01*
G01*
X122296000Y-122908000D01*
G75*
G02*
X122456000Y-123068000I0J-160000D01*
G01*
G37*
%TD*%
%TO.C,R3*%
G36*
G01*
X127611000Y-125100000D02*
X127611000Y-125420000D01*
G75*
G02*
X127451000Y-125580000I-160000J0D01*
G01*
X127056000Y-125580000D01*
G75*
G02*
X126896000Y-125420000I0J160000D01*
G01*
X126896000Y-125100000D01*
G75*
G02*
X127056000Y-124940000I160000J0D01*
G01*
X127451000Y-124940000D01*
G75*
G02*
X127611000Y-125100000I0J-160000D01*
G01*
G37*
G36*
G01*
X128806000Y-125100000D02*
X128806000Y-125420000D01*
G75*
G02*
X128646000Y-125580000I-160000J0D01*
G01*
X128251000Y-125580000D01*
G75*
G02*
X128091000Y-125420000I0J160000D01*
G01*
X128091000Y-125100000D01*
G75*
G02*
X128251000Y-124940000I160000J0D01*
G01*
X128646000Y-124940000D01*
G75*
G02*
X128806000Y-125100000I0J-160000D01*
G01*
G37*
%TD*%
%TO.C,R1*%
G36*
G01*
X127611000Y-123068000D02*
X127611000Y-123388000D01*
G75*
G02*
X127451000Y-123548000I-160000J0D01*
G01*
X127056000Y-123548000D01*
G75*
G02*
X126896000Y-123388000I0J160000D01*
G01*
X126896000Y-123068000D01*
G75*
G02*
X127056000Y-122908000I160000J0D01*
G01*
X127451000Y-122908000D01*
G75*
G02*
X127611000Y-123068000I0J-160000D01*
G01*
G37*
G36*
G01*
X128806000Y-123068000D02*
X128806000Y-123388000D01*
G75*
G02*
X128646000Y-123548000I-160000J0D01*
G01*
X128251000Y-123548000D01*
G75*
G02*
X128091000Y-123388000I0J160000D01*
G01*
X128091000Y-123068000D01*
G75*
G02*
X128251000Y-122908000I160000J0D01*
G01*
X128646000Y-122908000D01*
G75*
G02*
X128806000Y-123068000I0J-160000D01*
G01*
G37*
%TD*%
D12*
%TO.C,SW1*%
X115100000Y-111846000D03*
X126600000Y-111146000D03*
D13*
X126200000Y-103546000D03*
X115100000Y-103546000D03*
X120650000Y-100846000D03*
G36*
G01*
X112675000Y-108446000D02*
X112675000Y-107046000D01*
G75*
G02*
X113375000Y-106346000I700000J0D01*
G01*
X114975000Y-106346000D01*
G75*
G02*
X115675000Y-107046000I0J-700000D01*
G01*
X115675000Y-108446000D01*
G75*
G02*
X114975000Y-109146000I-700000J0D01*
G01*
X113375000Y-109146000D01*
G75*
G02*
X112675000Y-108446000I0J700000D01*
G01*
G37*
G36*
G01*
X125625000Y-108446000D02*
X125625000Y-107046000D01*
G75*
G02*
X126325000Y-106346000I700000J0D01*
G01*
X127925000Y-106346000D01*
G75*
G02*
X128625000Y-107046000I0J-700000D01*
G01*
X128625000Y-108446000D01*
G75*
G02*
X127925000Y-109146000I-700000J0D01*
G01*
X126325000Y-109146000D01*
G75*
G02*
X125625000Y-108446000I0J700000D01*
G01*
G37*
%TD*%
D14*
%TO.C,U4*%
G36*
X101840000Y-108988500D02*
G01*
X104965000Y-108988500D01*
X104965000Y-109405000D01*
X106440000Y-109405000D01*
X106440000Y-110305000D01*
X104965000Y-110305000D01*
X104965000Y-110721500D01*
X101840000Y-110721500D01*
X101840000Y-108988500D01*
G37*
D15*
X105790000Y-108355000D03*
X105790000Y-111355000D03*
%TD*%
%TO.C,R20*%
G36*
G01*
X113270000Y-116009000D02*
X113270000Y-115639000D01*
G75*
G02*
X113405000Y-115504000I135000J0D01*
G01*
X113675000Y-115504000D01*
G75*
G02*
X113810000Y-115639000I0J-135000D01*
G01*
X113810000Y-116009000D01*
G75*
G02*
X113675000Y-116144000I-135000J0D01*
G01*
X113405000Y-116144000D01*
G75*
G02*
X113270000Y-116009000I0J135000D01*
G01*
G37*
G36*
G01*
X112250000Y-116009000D02*
X112250000Y-115639000D01*
G75*
G02*
X112385000Y-115504000I135000J0D01*
G01*
X112655000Y-115504000D01*
G75*
G02*
X112790000Y-115639000I0J-135000D01*
G01*
X112790000Y-116009000D01*
G75*
G02*
X112655000Y-116144000I-135000J0D01*
G01*
X112385000Y-116144000D01*
G75*
G02*
X112250000Y-116009000I0J135000D01*
G01*
G37*
%TD*%
%TO.C,C10*%
G36*
G01*
X117606000Y-119070000D02*
X118106000Y-119070000D01*
G75*
G02*
X118331000Y-119295000I0J-225000D01*
G01*
X118331000Y-119745000D01*
G75*
G02*
X118106000Y-119970000I-225000J0D01*
G01*
X117606000Y-119970000D01*
G75*
G02*
X117381000Y-119745000I0J225000D01*
G01*
X117381000Y-119295000D01*
G75*
G02*
X117606000Y-119070000I225000J0D01*
G01*
G37*
G36*
G01*
X117606000Y-117520000D02*
X118106000Y-117520000D01*
G75*
G02*
X118331000Y-117745000I0J-225000D01*
G01*
X118331000Y-118195000D01*
G75*
G02*
X118106000Y-118420000I-225000J0D01*
G01*
X117606000Y-118420000D01*
G75*
G02*
X117381000Y-118195000I0J225000D01*
G01*
X117381000Y-117745000D01*
G75*
G02*
X117606000Y-117520000I225000J0D01*
G01*
G37*
%TD*%
D14*
%TO.C,U1*%
G36*
X111894500Y-123195500D02*
G01*
X111894500Y-120070500D01*
X112311000Y-120070500D01*
X112311000Y-118595500D01*
X113211000Y-118595500D01*
X113211000Y-120070500D01*
X113627500Y-120070500D01*
X113627500Y-123195500D01*
X111894500Y-123195500D01*
G37*
D16*
X111261000Y-119245500D03*
X114261000Y-119245500D03*
%TD*%
%TO.C,U5*%
G36*
G01*
X121704000Y-118596000D02*
X122004000Y-118596000D01*
G75*
G02*
X122154000Y-118746000I0J-150000D01*
G01*
X122154000Y-119771000D01*
G75*
G02*
X122004000Y-119921000I-150000J0D01*
G01*
X121704000Y-119921000D01*
G75*
G02*
X121554000Y-119771000I0J150000D01*
G01*
X121554000Y-118746000D01*
G75*
G02*
X121704000Y-118596000I150000J0D01*
G01*
G37*
G36*
G01*
X120754000Y-118596000D02*
X121054000Y-118596000D01*
G75*
G02*
X121204000Y-118746000I0J-150000D01*
G01*
X121204000Y-119771000D01*
G75*
G02*
X121054000Y-119921000I-150000J0D01*
G01*
X120754000Y-119921000D01*
G75*
G02*
X120604000Y-119771000I0J150000D01*
G01*
X120604000Y-118746000D01*
G75*
G02*
X120754000Y-118596000I150000J0D01*
G01*
G37*
G36*
G01*
X119804000Y-118596000D02*
X120104000Y-118596000D01*
G75*
G02*
X120254000Y-118746000I0J-150000D01*
G01*
X120254000Y-119771000D01*
G75*
G02*
X120104000Y-119921000I-150000J0D01*
G01*
X119804000Y-119921000D01*
G75*
G02*
X119654000Y-119771000I0J150000D01*
G01*
X119654000Y-118746000D01*
G75*
G02*
X119804000Y-118596000I150000J0D01*
G01*
G37*
G36*
G01*
X119804000Y-120871000D02*
X120104000Y-120871000D01*
G75*
G02*
X120254000Y-121021000I0J-150000D01*
G01*
X120254000Y-122046000D01*
G75*
G02*
X120104000Y-122196000I-150000J0D01*
G01*
X119804000Y-122196000D01*
G75*
G02*
X119654000Y-122046000I0J150000D01*
G01*
X119654000Y-121021000D01*
G75*
G02*
X119804000Y-120871000I150000J0D01*
G01*
G37*
G36*
G01*
X121704000Y-120871000D02*
X122004000Y-120871000D01*
G75*
G02*
X122154000Y-121021000I0J-150000D01*
G01*
X122154000Y-122046000D01*
G75*
G02*
X122004000Y-122196000I-150000J0D01*
G01*
X121704000Y-122196000D01*
G75*
G02*
X121554000Y-122046000I0J150000D01*
G01*
X121554000Y-121021000D01*
G75*
G02*
X121704000Y-120871000I150000J0D01*
G01*
G37*
%TD*%
%TO.C,R18*%
G36*
G01*
X117925000Y-122541000D02*
X118295000Y-122541000D01*
G75*
G02*
X118430000Y-122676000I0J-135000D01*
G01*
X118430000Y-122946000D01*
G75*
G02*
X118295000Y-123081000I-135000J0D01*
G01*
X117925000Y-123081000D01*
G75*
G02*
X117790000Y-122946000I0J135000D01*
G01*
X117790000Y-122676000D01*
G75*
G02*
X117925000Y-122541000I135000J0D01*
G01*
G37*
G36*
G01*
X117925000Y-121521000D02*
X118295000Y-121521000D01*
G75*
G02*
X118430000Y-121656000I0J-135000D01*
G01*
X118430000Y-121926000D01*
G75*
G02*
X118295000Y-122061000I-135000J0D01*
G01*
X117925000Y-122061000D01*
G75*
G02*
X117790000Y-121926000I0J135000D01*
G01*
X117790000Y-121656000D01*
G75*
G02*
X117925000Y-121521000I135000J0D01*
G01*
G37*
%TD*%
D17*
%TO.C,Q6*%
X105852000Y-131715000D03*
X103952000Y-131715000D03*
X104902000Y-133715000D03*
%TD*%
%TO.C,Q5*%
X109662000Y-131715000D03*
X107762000Y-131715000D03*
X108712000Y-133715000D03*
%TD*%
%TO.C,Q4*%
X113472000Y-131715000D03*
X111572000Y-131715000D03*
X112522000Y-133715000D03*
%TD*%
%TO.C,C12*%
G36*
G01*
X121301000Y-124089000D02*
X121301000Y-124399000D01*
G75*
G02*
X121146000Y-124554000I-155000J0D01*
G01*
X120721000Y-124554000D01*
G75*
G02*
X120566000Y-124399000I0J155000D01*
G01*
X120566000Y-124089000D01*
G75*
G02*
X120721000Y-123934000I155000J0D01*
G01*
X121146000Y-123934000D01*
G75*
G02*
X121301000Y-124089000I0J-155000D01*
G01*
G37*
G36*
G01*
X122436000Y-124089000D02*
X122436000Y-124399000D01*
G75*
G02*
X122281000Y-124554000I-155000J0D01*
G01*
X121856000Y-124554000D01*
G75*
G02*
X121701000Y-124399000I0J155000D01*
G01*
X121701000Y-124089000D01*
G75*
G02*
X121856000Y-123934000I155000J0D01*
G01*
X122281000Y-123934000D01*
G75*
G02*
X122436000Y-124089000I0J-155000D01*
G01*
G37*
%TD*%
%TO.C,C11*%
G36*
G01*
X121104000Y-117899000D02*
X121104000Y-117559000D01*
G75*
G02*
X121244000Y-117419000I140000J0D01*
G01*
X121524000Y-117419000D01*
G75*
G02*
X121664000Y-117559000I0J-140000D01*
G01*
X121664000Y-117899000D01*
G75*
G02*
X121524000Y-118039000I-140000J0D01*
G01*
X121244000Y-118039000D01*
G75*
G02*
X121104000Y-117899000I0J140000D01*
G01*
G37*
G36*
G01*
X120144000Y-117899000D02*
X120144000Y-117559000D01*
G75*
G02*
X120284000Y-117419000I140000J0D01*
G01*
X120564000Y-117419000D01*
G75*
G02*
X120704000Y-117559000I0J-140000D01*
G01*
X120704000Y-117899000D01*
G75*
G02*
X120564000Y-118039000I-140000J0D01*
G01*
X120284000Y-118039000D01*
G75*
G02*
X120144000Y-117899000I0J140000D01*
G01*
G37*
%TD*%
%TO.C,R2*%
G36*
G01*
X124275000Y-122541000D02*
X124645000Y-122541000D01*
G75*
G02*
X124780000Y-122676000I0J-135000D01*
G01*
X124780000Y-122946000D01*
G75*
G02*
X124645000Y-123081000I-135000J0D01*
G01*
X124275000Y-123081000D01*
G75*
G02*
X124140000Y-122946000I0J135000D01*
G01*
X124140000Y-122676000D01*
G75*
G02*
X124275000Y-122541000I135000J0D01*
G01*
G37*
G36*
G01*
X124275000Y-121521000D02*
X124645000Y-121521000D01*
G75*
G02*
X124780000Y-121656000I0J-135000D01*
G01*
X124780000Y-121926000D01*
G75*
G02*
X124645000Y-122061000I-135000J0D01*
G01*
X124275000Y-122061000D01*
G75*
G02*
X124140000Y-121926000I0J135000D01*
G01*
X124140000Y-121656000D01*
G75*
G02*
X124275000Y-121521000I135000J0D01*
G01*
G37*
%TD*%
%TO.C,C2*%
G36*
G01*
X114481000Y-117178000D02*
X114481000Y-117518000D01*
G75*
G02*
X114341000Y-117658000I-140000J0D01*
G01*
X114061000Y-117658000D01*
G75*
G02*
X113921000Y-117518000I0J140000D01*
G01*
X113921000Y-117178000D01*
G75*
G02*
X114061000Y-117038000I140000J0D01*
G01*
X114341000Y-117038000D01*
G75*
G02*
X114481000Y-117178000I0J-140000D01*
G01*
G37*
G36*
G01*
X115441000Y-117178000D02*
X115441000Y-117518000D01*
G75*
G02*
X115301000Y-117658000I-140000J0D01*
G01*
X115021000Y-117658000D01*
G75*
G02*
X114881000Y-117518000I0J140000D01*
G01*
X114881000Y-117178000D01*
G75*
G02*
X115021000Y-117038000I140000J0D01*
G01*
X115301000Y-117038000D01*
G75*
G02*
X115441000Y-117178000I0J-140000D01*
G01*
G37*
%TD*%
%TO.C,C1*%
G36*
G01*
X111831000Y-117598000D02*
X111831000Y-117098000D01*
G75*
G02*
X112056000Y-116873000I225000J0D01*
G01*
X112506000Y-116873000D01*
G75*
G02*
X112731000Y-117098000I0J-225000D01*
G01*
X112731000Y-117598000D01*
G75*
G02*
X112506000Y-117823000I-225000J0D01*
G01*
X112056000Y-117823000D01*
G75*
G02*
X111831000Y-117598000I0J225000D01*
G01*
G37*
G36*
G01*
X110281000Y-117598000D02*
X110281000Y-117098000D01*
G75*
G02*
X110506000Y-116873000I225000J0D01*
G01*
X110956000Y-116873000D01*
G75*
G02*
X111181000Y-117098000I0J-225000D01*
G01*
X111181000Y-117598000D01*
G75*
G02*
X110956000Y-117823000I-225000J0D01*
G01*
X110506000Y-117823000D01*
G75*
G02*
X110281000Y-117598000I0J225000D01*
G01*
G37*
%TD*%
%TO.C,R16*%
G36*
G01*
X101840000Y-114739000D02*
X101840000Y-114369000D01*
G75*
G02*
X101975000Y-114234000I135000J0D01*
G01*
X102245000Y-114234000D01*
G75*
G02*
X102380000Y-114369000I0J-135000D01*
G01*
X102380000Y-114739000D01*
G75*
G02*
X102245000Y-114874000I-135000J0D01*
G01*
X101975000Y-114874000D01*
G75*
G02*
X101840000Y-114739000I0J135000D01*
G01*
G37*
G36*
G01*
X100820000Y-114739000D02*
X100820000Y-114369000D01*
G75*
G02*
X100955000Y-114234000I135000J0D01*
G01*
X101225000Y-114234000D01*
G75*
G02*
X101360000Y-114369000I0J-135000D01*
G01*
X101360000Y-114739000D01*
G75*
G02*
X101225000Y-114874000I-135000J0D01*
G01*
X100955000Y-114874000D01*
G75*
G02*
X100820000Y-114739000I0J135000D01*
G01*
G37*
%TD*%
%TO.C,D2*%
G36*
G01*
X90520000Y-113921250D02*
X90520000Y-113408750D01*
G75*
G02*
X90738750Y-113190000I218750J0D01*
G01*
X91176250Y-113190000D01*
G75*
G02*
X91395000Y-113408750I0J-218750D01*
G01*
X91395000Y-113921250D01*
G75*
G02*
X91176250Y-114140000I-218750J0D01*
G01*
X90738750Y-114140000D01*
G75*
G02*
X90520000Y-113921250I0J218750D01*
G01*
G37*
G36*
G01*
X88945000Y-113921250D02*
X88945000Y-113408750D01*
G75*
G02*
X89163750Y-113190000I218750J0D01*
G01*
X89601250Y-113190000D01*
G75*
G02*
X89820000Y-113408750I0J-218750D01*
G01*
X89820000Y-113921250D01*
G75*
G02*
X89601250Y-114140000I-218750J0D01*
G01*
X89163750Y-114140000D01*
G75*
G02*
X88945000Y-113921250I0J218750D01*
G01*
G37*
%TD*%
%TO.C,R15*%
G36*
G01*
X103900000Y-114369000D02*
X103900000Y-114739000D01*
G75*
G02*
X103765000Y-114874000I-135000J0D01*
G01*
X103495000Y-114874000D01*
G75*
G02*
X103360000Y-114739000I0J135000D01*
G01*
X103360000Y-114369000D01*
G75*
G02*
X103495000Y-114234000I135000J0D01*
G01*
X103765000Y-114234000D01*
G75*
G02*
X103900000Y-114369000I0J-135000D01*
G01*
G37*
G36*
G01*
X104920000Y-114369000D02*
X104920000Y-114739000D01*
G75*
G02*
X104785000Y-114874000I-135000J0D01*
G01*
X104515000Y-114874000D01*
G75*
G02*
X104380000Y-114739000I0J135000D01*
G01*
X104380000Y-114369000D01*
G75*
G02*
X104515000Y-114234000I135000J0D01*
G01*
X104785000Y-114234000D01*
G75*
G02*
X104920000Y-114369000I0J-135000D01*
G01*
G37*
%TD*%
%TO.C,D1*%
G36*
G01*
X106965000Y-113408750D02*
X106965000Y-113921250D01*
G75*
G02*
X106746250Y-114140000I-218750J0D01*
G01*
X106308750Y-114140000D01*
G75*
G02*
X106090000Y-113921250I0J218750D01*
G01*
X106090000Y-113408750D01*
G75*
G02*
X106308750Y-113190000I218750J0D01*
G01*
X106746250Y-113190000D01*
G75*
G02*
X106965000Y-113408750I0J-218750D01*
G01*
G37*
G36*
G01*
X108540000Y-113408750D02*
X108540000Y-113921250D01*
G75*
G02*
X108321250Y-114140000I-218750J0D01*
G01*
X107883750Y-114140000D01*
G75*
G02*
X107665000Y-113921250I0J218750D01*
G01*
X107665000Y-113408750D01*
G75*
G02*
X107883750Y-113190000I218750J0D01*
G01*
X108321250Y-113190000D01*
G75*
G02*
X108540000Y-113408750I0J-218750D01*
G01*
G37*
%TD*%
%TO.C,C5*%
G36*
G01*
X127651000Y-124089000D02*
X127651000Y-124399000D01*
G75*
G02*
X127496000Y-124554000I-155000J0D01*
G01*
X127071000Y-124554000D01*
G75*
G02*
X126916000Y-124399000I0J155000D01*
G01*
X126916000Y-124089000D01*
G75*
G02*
X127071000Y-123934000I155000J0D01*
G01*
X127496000Y-123934000D01*
G75*
G02*
X127651000Y-124089000I0J-155000D01*
G01*
G37*
G36*
G01*
X128786000Y-124089000D02*
X128786000Y-124399000D01*
G75*
G02*
X128631000Y-124554000I-155000J0D01*
G01*
X128206000Y-124554000D01*
G75*
G02*
X128051000Y-124399000I0J155000D01*
G01*
X128051000Y-124089000D01*
G75*
G02*
X128206000Y-123934000I155000J0D01*
G01*
X128631000Y-123934000D01*
G75*
G02*
X128786000Y-124089000I0J-155000D01*
G01*
G37*
%TD*%
D18*
%TO.C,J5*%
X97790000Y-140462000D03*
X92710000Y-140462000D03*
%TD*%
%TO.C,J4*%
X92075000Y-120650000D03*
X92075000Y-125730000D03*
%TD*%
%TO.C,J2*%
X117475000Y-140462000D03*
X112395000Y-140462000D03*
%TD*%
%TO.C,J1*%
X104140000Y-125730000D03*
X104140000Y-120650000D03*
%TD*%
%TO.C,R14*%
G36*
G01*
X85459000Y-103817000D02*
X85459000Y-103447000D01*
G75*
G02*
X85594000Y-103312000I135000J0D01*
G01*
X85864000Y-103312000D01*
G75*
G02*
X85999000Y-103447000I0J-135000D01*
G01*
X85999000Y-103817000D01*
G75*
G02*
X85864000Y-103952000I-135000J0D01*
G01*
X85594000Y-103952000D01*
G75*
G02*
X85459000Y-103817000I0J135000D01*
G01*
G37*
G36*
G01*
X84439000Y-103817000D02*
X84439000Y-103447000D01*
G75*
G02*
X84574000Y-103312000I135000J0D01*
G01*
X84844000Y-103312000D01*
G75*
G02*
X84979000Y-103447000I0J-135000D01*
G01*
X84979000Y-103817000D01*
G75*
G02*
X84844000Y-103952000I-135000J0D01*
G01*
X84574000Y-103952000D01*
G75*
G02*
X84439000Y-103817000I0J135000D01*
G01*
G37*
%TD*%
%TO.C,R13*%
G36*
G01*
X84977000Y-104463000D02*
X84977000Y-104833000D01*
G75*
G02*
X84842000Y-104968000I-135000J0D01*
G01*
X84572000Y-104968000D01*
G75*
G02*
X84437000Y-104833000I0J135000D01*
G01*
X84437000Y-104463000D01*
G75*
G02*
X84572000Y-104328000I135000J0D01*
G01*
X84842000Y-104328000D01*
G75*
G02*
X84977000Y-104463000I0J-135000D01*
G01*
G37*
G36*
G01*
X85997000Y-104463000D02*
X85997000Y-104833000D01*
G75*
G02*
X85862000Y-104968000I-135000J0D01*
G01*
X85592000Y-104968000D01*
G75*
G02*
X85457000Y-104833000I0J135000D01*
G01*
X85457000Y-104463000D01*
G75*
G02*
X85592000Y-104328000I135000J0D01*
G01*
X85862000Y-104328000D01*
G75*
G02*
X85997000Y-104463000I0J-135000D01*
G01*
G37*
%TD*%
D19*
%TO.C,H4*%
X128740000Y-100495000D03*
%TD*%
%TO.C,C3*%
G36*
G01*
X123956000Y-119070000D02*
X124456000Y-119070000D01*
G75*
G02*
X124681000Y-119295000I0J-225000D01*
G01*
X124681000Y-119745000D01*
G75*
G02*
X124456000Y-119970000I-225000J0D01*
G01*
X123956000Y-119970000D01*
G75*
G02*
X123731000Y-119745000I0J225000D01*
G01*
X123731000Y-119295000D01*
G75*
G02*
X123956000Y-119070000I225000J0D01*
G01*
G37*
G36*
G01*
X123956000Y-117520000D02*
X124456000Y-117520000D01*
G75*
G02*
X124681000Y-117745000I0J-225000D01*
G01*
X124681000Y-118195000D01*
G75*
G02*
X124456000Y-118420000I-225000J0D01*
G01*
X123956000Y-118420000D01*
G75*
G02*
X123731000Y-118195000I0J225000D01*
G01*
X123731000Y-117745000D01*
G75*
G02*
X123956000Y-117520000I225000J0D01*
G01*
G37*
%TD*%
D20*
%TO.C,J7*%
X110490000Y-99949000D03*
X110490000Y-102489000D03*
X107950000Y-99949000D03*
X107950000Y-102489000D03*
X105410000Y-99949000D03*
X105410000Y-102489000D03*
X102870000Y-99949000D03*
X102870000Y-102489000D03*
X100330000Y-99949000D03*
D21*
X100330000Y-102489000D03*
%TD*%
D20*
%TO.C,J6*%
X94742000Y-99949000D03*
X92202000Y-99949000D03*
X89662000Y-99949000D03*
X87122000Y-99949000D03*
D21*
X84582000Y-99949000D03*
%TD*%
%TO.C,C9*%
G36*
G01*
X100080000Y-112339000D02*
X100580000Y-112339000D01*
G75*
G02*
X100805000Y-112564000I0J-225000D01*
G01*
X100805000Y-113014000D01*
G75*
G02*
X100580000Y-113239000I-225000J0D01*
G01*
X100080000Y-113239000D01*
G75*
G02*
X99855000Y-113014000I0J225000D01*
G01*
X99855000Y-112564000D01*
G75*
G02*
X100080000Y-112339000I225000J0D01*
G01*
G37*
G36*
G01*
X100080000Y-110789000D02*
X100580000Y-110789000D01*
G75*
G02*
X100805000Y-111014000I0J-225000D01*
G01*
X100805000Y-111464000D01*
G75*
G02*
X100580000Y-111689000I-225000J0D01*
G01*
X100080000Y-111689000D01*
G75*
G02*
X99855000Y-111464000I0J225000D01*
G01*
X99855000Y-111014000D01*
G75*
G02*
X100080000Y-110789000I225000J0D01*
G01*
G37*
%TD*%
%TO.C,U3*%
G36*
G01*
X92711000Y-104609000D02*
X92711000Y-104409000D01*
G75*
G02*
X92811000Y-104309000I100000J0D01*
G01*
X94086000Y-104309000D01*
G75*
G02*
X94186000Y-104409000I0J-100000D01*
G01*
X94186000Y-104609000D01*
G75*
G02*
X94086000Y-104709000I-100000J0D01*
G01*
X92811000Y-104709000D01*
G75*
G02*
X92711000Y-104609000I0J100000D01*
G01*
G37*
G36*
G01*
X92711000Y-105259000D02*
X92711000Y-105059000D01*
G75*
G02*
X92811000Y-104959000I100000J0D01*
G01*
X94086000Y-104959000D01*
G75*
G02*
X94186000Y-105059000I0J-100000D01*
G01*
X94186000Y-105259000D01*
G75*
G02*
X94086000Y-105359000I-100000J0D01*
G01*
X92811000Y-105359000D01*
G75*
G02*
X92711000Y-105259000I0J100000D01*
G01*
G37*
G36*
G01*
X92711000Y-105909000D02*
X92711000Y-105709000D01*
G75*
G02*
X92811000Y-105609000I100000J0D01*
G01*
X94086000Y-105609000D01*
G75*
G02*
X94186000Y-105709000I0J-100000D01*
G01*
X94186000Y-105909000D01*
G75*
G02*
X94086000Y-106009000I-100000J0D01*
G01*
X92811000Y-106009000D01*
G75*
G02*
X92711000Y-105909000I0J100000D01*
G01*
G37*
G36*
G01*
X92711000Y-106559000D02*
X92711000Y-106359000D01*
G75*
G02*
X92811000Y-106259000I100000J0D01*
G01*
X94086000Y-106259000D01*
G75*
G02*
X94186000Y-106359000I0J-100000D01*
G01*
X94186000Y-106559000D01*
G75*
G02*
X94086000Y-106659000I-100000J0D01*
G01*
X92811000Y-106659000D01*
G75*
G02*
X92711000Y-106559000I0J100000D01*
G01*
G37*
G36*
G01*
X92711000Y-107209000D02*
X92711000Y-107009000D01*
G75*
G02*
X92811000Y-106909000I100000J0D01*
G01*
X94086000Y-106909000D01*
G75*
G02*
X94186000Y-107009000I0J-100000D01*
G01*
X94186000Y-107209000D01*
G75*
G02*
X94086000Y-107309000I-100000J0D01*
G01*
X92811000Y-107309000D01*
G75*
G02*
X92711000Y-107209000I0J100000D01*
G01*
G37*
G36*
G01*
X92711000Y-107859000D02*
X92711000Y-107659000D01*
G75*
G02*
X92811000Y-107559000I100000J0D01*
G01*
X94086000Y-107559000D01*
G75*
G02*
X94186000Y-107659000I0J-100000D01*
G01*
X94186000Y-107859000D01*
G75*
G02*
X94086000Y-107959000I-100000J0D01*
G01*
X92811000Y-107959000D01*
G75*
G02*
X92711000Y-107859000I0J100000D01*
G01*
G37*
G36*
G01*
X92711000Y-108509000D02*
X92711000Y-108309000D01*
G75*
G02*
X92811000Y-108209000I100000J0D01*
G01*
X94086000Y-108209000D01*
G75*
G02*
X94186000Y-108309000I0J-100000D01*
G01*
X94186000Y-108509000D01*
G75*
G02*
X94086000Y-108609000I-100000J0D01*
G01*
X92811000Y-108609000D01*
G75*
G02*
X92711000Y-108509000I0J100000D01*
G01*
G37*
G36*
G01*
X92711000Y-109159000D02*
X92711000Y-108959000D01*
G75*
G02*
X92811000Y-108859000I100000J0D01*
G01*
X94086000Y-108859000D01*
G75*
G02*
X94186000Y-108959000I0J-100000D01*
G01*
X94186000Y-109159000D01*
G75*
G02*
X94086000Y-109259000I-100000J0D01*
G01*
X92811000Y-109259000D01*
G75*
G02*
X92711000Y-109159000I0J100000D01*
G01*
G37*
G36*
G01*
X92711000Y-109809000D02*
X92711000Y-109609000D01*
G75*
G02*
X92811000Y-109509000I100000J0D01*
G01*
X94086000Y-109509000D01*
G75*
G02*
X94186000Y-109609000I0J-100000D01*
G01*
X94186000Y-109809000D01*
G75*
G02*
X94086000Y-109909000I-100000J0D01*
G01*
X92811000Y-109909000D01*
G75*
G02*
X92711000Y-109809000I0J100000D01*
G01*
G37*
G36*
G01*
X92711000Y-110459000D02*
X92711000Y-110259000D01*
G75*
G02*
X92811000Y-110159000I100000J0D01*
G01*
X94086000Y-110159000D01*
G75*
G02*
X94186000Y-110259000I0J-100000D01*
G01*
X94186000Y-110459000D01*
G75*
G02*
X94086000Y-110559000I-100000J0D01*
G01*
X92811000Y-110559000D01*
G75*
G02*
X92711000Y-110459000I0J100000D01*
G01*
G37*
G36*
G01*
X86986000Y-110459000D02*
X86986000Y-110259000D01*
G75*
G02*
X87086000Y-110159000I100000J0D01*
G01*
X88361000Y-110159000D01*
G75*
G02*
X88461000Y-110259000I0J-100000D01*
G01*
X88461000Y-110459000D01*
G75*
G02*
X88361000Y-110559000I-100000J0D01*
G01*
X87086000Y-110559000D01*
G75*
G02*
X86986000Y-110459000I0J100000D01*
G01*
G37*
G36*
G01*
X86986000Y-109809000D02*
X86986000Y-109609000D01*
G75*
G02*
X87086000Y-109509000I100000J0D01*
G01*
X88361000Y-109509000D01*
G75*
G02*
X88461000Y-109609000I0J-100000D01*
G01*
X88461000Y-109809000D01*
G75*
G02*
X88361000Y-109909000I-100000J0D01*
G01*
X87086000Y-109909000D01*
G75*
G02*
X86986000Y-109809000I0J100000D01*
G01*
G37*
G36*
G01*
X86986000Y-109159000D02*
X86986000Y-108959000D01*
G75*
G02*
X87086000Y-108859000I100000J0D01*
G01*
X88361000Y-108859000D01*
G75*
G02*
X88461000Y-108959000I0J-100000D01*
G01*
X88461000Y-109159000D01*
G75*
G02*
X88361000Y-109259000I-100000J0D01*
G01*
X87086000Y-109259000D01*
G75*
G02*
X86986000Y-109159000I0J100000D01*
G01*
G37*
G36*
G01*
X86986000Y-108509000D02*
X86986000Y-108309000D01*
G75*
G02*
X87086000Y-108209000I100000J0D01*
G01*
X88361000Y-108209000D01*
G75*
G02*
X88461000Y-108309000I0J-100000D01*
G01*
X88461000Y-108509000D01*
G75*
G02*
X88361000Y-108609000I-100000J0D01*
G01*
X87086000Y-108609000D01*
G75*
G02*
X86986000Y-108509000I0J100000D01*
G01*
G37*
G36*
G01*
X86986000Y-107859000D02*
X86986000Y-107659000D01*
G75*
G02*
X87086000Y-107559000I100000J0D01*
G01*
X88361000Y-107559000D01*
G75*
G02*
X88461000Y-107659000I0J-100000D01*
G01*
X88461000Y-107859000D01*
G75*
G02*
X88361000Y-107959000I-100000J0D01*
G01*
X87086000Y-107959000D01*
G75*
G02*
X86986000Y-107859000I0J100000D01*
G01*
G37*
G36*
G01*
X86986000Y-107209000D02*
X86986000Y-107009000D01*
G75*
G02*
X87086000Y-106909000I100000J0D01*
G01*
X88361000Y-106909000D01*
G75*
G02*
X88461000Y-107009000I0J-100000D01*
G01*
X88461000Y-107209000D01*
G75*
G02*
X88361000Y-107309000I-100000J0D01*
G01*
X87086000Y-107309000D01*
G75*
G02*
X86986000Y-107209000I0J100000D01*
G01*
G37*
G36*
G01*
X86986000Y-106559000D02*
X86986000Y-106359000D01*
G75*
G02*
X87086000Y-106259000I100000J0D01*
G01*
X88361000Y-106259000D01*
G75*
G02*
X88461000Y-106359000I0J-100000D01*
G01*
X88461000Y-106559000D01*
G75*
G02*
X88361000Y-106659000I-100000J0D01*
G01*
X87086000Y-106659000D01*
G75*
G02*
X86986000Y-106559000I0J100000D01*
G01*
G37*
G36*
G01*
X86986000Y-105909000D02*
X86986000Y-105709000D01*
G75*
G02*
X87086000Y-105609000I100000J0D01*
G01*
X88361000Y-105609000D01*
G75*
G02*
X88461000Y-105709000I0J-100000D01*
G01*
X88461000Y-105909000D01*
G75*
G02*
X88361000Y-106009000I-100000J0D01*
G01*
X87086000Y-106009000D01*
G75*
G02*
X86986000Y-105909000I0J100000D01*
G01*
G37*
G36*
G01*
X86986000Y-105259000D02*
X86986000Y-105059000D01*
G75*
G02*
X87086000Y-104959000I100000J0D01*
G01*
X88361000Y-104959000D01*
G75*
G02*
X88461000Y-105059000I0J-100000D01*
G01*
X88461000Y-105259000D01*
G75*
G02*
X88361000Y-105359000I-100000J0D01*
G01*
X87086000Y-105359000D01*
G75*
G02*
X86986000Y-105259000I0J100000D01*
G01*
G37*
G36*
G01*
X86986000Y-104609000D02*
X86986000Y-104409000D01*
G75*
G02*
X87086000Y-104309000I100000J0D01*
G01*
X88361000Y-104309000D01*
G75*
G02*
X88461000Y-104409000I0J-100000D01*
G01*
X88461000Y-104609000D01*
G75*
G02*
X88361000Y-104709000I-100000J0D01*
G01*
X87086000Y-104709000D01*
G75*
G02*
X86986000Y-104609000I0J100000D01*
G01*
G37*
%TD*%
%TO.C,R11*%
G36*
G01*
X95867000Y-108008000D02*
X95867000Y-107638000D01*
G75*
G02*
X96002000Y-107503000I135000J0D01*
G01*
X96272000Y-107503000D01*
G75*
G02*
X96407000Y-107638000I0J-135000D01*
G01*
X96407000Y-108008000D01*
G75*
G02*
X96272000Y-108143000I-135000J0D01*
G01*
X96002000Y-108143000D01*
G75*
G02*
X95867000Y-108008000I0J135000D01*
G01*
G37*
G36*
G01*
X94847000Y-108008000D02*
X94847000Y-107638000D01*
G75*
G02*
X94982000Y-107503000I135000J0D01*
G01*
X95252000Y-107503000D01*
G75*
G02*
X95387000Y-107638000I0J-135000D01*
G01*
X95387000Y-108008000D01*
G75*
G02*
X95252000Y-108143000I-135000J0D01*
G01*
X94982000Y-108143000D01*
G75*
G02*
X94847000Y-108008000I0J135000D01*
G01*
G37*
%TD*%
%TO.C,R10*%
G36*
G01*
X95865000Y-105506000D02*
X95865000Y-105136000D01*
G75*
G02*
X96000000Y-105001000I135000J0D01*
G01*
X96270000Y-105001000D01*
G75*
G02*
X96405000Y-105136000I0J-135000D01*
G01*
X96405000Y-105506000D01*
G75*
G02*
X96270000Y-105641000I-135000J0D01*
G01*
X96000000Y-105641000D01*
G75*
G02*
X95865000Y-105506000I0J135000D01*
G01*
G37*
G36*
G01*
X94845000Y-105506000D02*
X94845000Y-105136000D01*
G75*
G02*
X94980000Y-105001000I135000J0D01*
G01*
X95250000Y-105001000D01*
G75*
G02*
X95385000Y-105136000I0J-135000D01*
G01*
X95385000Y-105506000D01*
G75*
G02*
X95250000Y-105641000I-135000J0D01*
G01*
X94980000Y-105641000D01*
G75*
G02*
X94845000Y-105506000I0J135000D01*
G01*
G37*
%TD*%
%TO.C,R9*%
G36*
G01*
X97899000Y-108643000D02*
X97899000Y-108273000D01*
G75*
G02*
X98034000Y-108138000I135000J0D01*
G01*
X98304000Y-108138000D01*
G75*
G02*
X98439000Y-108273000I0J-135000D01*
G01*
X98439000Y-108643000D01*
G75*
G02*
X98304000Y-108778000I-135000J0D01*
G01*
X98034000Y-108778000D01*
G75*
G02*
X97899000Y-108643000I0J135000D01*
G01*
G37*
G36*
G01*
X96879000Y-108643000D02*
X96879000Y-108273000D01*
G75*
G02*
X97014000Y-108138000I135000J0D01*
G01*
X97284000Y-108138000D01*
G75*
G02*
X97419000Y-108273000I0J-135000D01*
G01*
X97419000Y-108643000D01*
G75*
G02*
X97284000Y-108778000I-135000J0D01*
G01*
X97014000Y-108778000D01*
G75*
G02*
X96879000Y-108643000I0J135000D01*
G01*
G37*
%TD*%
%TO.C,R8*%
G36*
G01*
X95867000Y-106738000D02*
X95867000Y-106368000D01*
G75*
G02*
X96002000Y-106233000I135000J0D01*
G01*
X96272000Y-106233000D01*
G75*
G02*
X96407000Y-106368000I0J-135000D01*
G01*
X96407000Y-106738000D01*
G75*
G02*
X96272000Y-106873000I-135000J0D01*
G01*
X96002000Y-106873000D01*
G75*
G02*
X95867000Y-106738000I0J135000D01*
G01*
G37*
G36*
G01*
X94847000Y-106738000D02*
X94847000Y-106368000D01*
G75*
G02*
X94982000Y-106233000I135000J0D01*
G01*
X95252000Y-106233000D01*
G75*
G02*
X95387000Y-106368000I0J-135000D01*
G01*
X95387000Y-106738000D01*
G75*
G02*
X95252000Y-106873000I-135000J0D01*
G01*
X94982000Y-106873000D01*
G75*
G02*
X94847000Y-106738000I0J135000D01*
G01*
G37*
%TD*%
%TO.C,R7*%
G36*
G01*
X95867000Y-109278000D02*
X95867000Y-108908000D01*
G75*
G02*
X96002000Y-108773000I135000J0D01*
G01*
X96272000Y-108773000D01*
G75*
G02*
X96407000Y-108908000I0J-135000D01*
G01*
X96407000Y-109278000D01*
G75*
G02*
X96272000Y-109413000I-135000J0D01*
G01*
X96002000Y-109413000D01*
G75*
G02*
X95867000Y-109278000I0J135000D01*
G01*
G37*
G36*
G01*
X94847000Y-109278000D02*
X94847000Y-108908000D01*
G75*
G02*
X94982000Y-108773000I135000J0D01*
G01*
X95252000Y-108773000D01*
G75*
G02*
X95387000Y-108908000I0J-135000D01*
G01*
X95387000Y-109278000D01*
G75*
G02*
X95252000Y-109413000I-135000J0D01*
G01*
X94982000Y-109413000D01*
G75*
G02*
X94847000Y-109278000I0J135000D01*
G01*
G37*
%TD*%
%TO.C,R6*%
G36*
G01*
X97899000Y-107373000D02*
X97899000Y-107003000D01*
G75*
G02*
X98034000Y-106868000I135000J0D01*
G01*
X98304000Y-106868000D01*
G75*
G02*
X98439000Y-107003000I0J-135000D01*
G01*
X98439000Y-107373000D01*
G75*
G02*
X98304000Y-107508000I-135000J0D01*
G01*
X98034000Y-107508000D01*
G75*
G02*
X97899000Y-107373000I0J135000D01*
G01*
G37*
G36*
G01*
X96879000Y-107373000D02*
X96879000Y-107003000D01*
G75*
G02*
X97014000Y-106868000I135000J0D01*
G01*
X97284000Y-106868000D01*
G75*
G02*
X97419000Y-107003000I0J-135000D01*
G01*
X97419000Y-107373000D01*
G75*
G02*
X97284000Y-107508000I-135000J0D01*
G01*
X97014000Y-107508000D01*
G75*
G02*
X96879000Y-107373000I0J135000D01*
G01*
G37*
%TD*%
%TO.C,R5*%
G36*
G01*
X95867000Y-110548000D02*
X95867000Y-110178000D01*
G75*
G02*
X96002000Y-110043000I135000J0D01*
G01*
X96272000Y-110043000D01*
G75*
G02*
X96407000Y-110178000I0J-135000D01*
G01*
X96407000Y-110548000D01*
G75*
G02*
X96272000Y-110683000I-135000J0D01*
G01*
X96002000Y-110683000D01*
G75*
G02*
X95867000Y-110548000I0J135000D01*
G01*
G37*
G36*
G01*
X94847000Y-110548000D02*
X94847000Y-110178000D01*
G75*
G02*
X94982000Y-110043000I135000J0D01*
G01*
X95252000Y-110043000D01*
G75*
G02*
X95387000Y-110178000I0J-135000D01*
G01*
X95387000Y-110548000D01*
G75*
G02*
X95252000Y-110683000I-135000J0D01*
G01*
X94982000Y-110683000D01*
G75*
G02*
X94847000Y-110548000I0J135000D01*
G01*
G37*
%TD*%
%TO.C,R4*%
G36*
G01*
X97899000Y-109913000D02*
X97899000Y-109543000D01*
G75*
G02*
X98034000Y-109408000I135000J0D01*
G01*
X98304000Y-109408000D01*
G75*
G02*
X98439000Y-109543000I0J-135000D01*
G01*
X98439000Y-109913000D01*
G75*
G02*
X98304000Y-110048000I-135000J0D01*
G01*
X98034000Y-110048000D01*
G75*
G02*
X97899000Y-109913000I0J135000D01*
G01*
G37*
G36*
G01*
X96879000Y-109913000D02*
X96879000Y-109543000D01*
G75*
G02*
X97014000Y-109408000I135000J0D01*
G01*
X97284000Y-109408000D01*
G75*
G02*
X97419000Y-109543000I0J-135000D01*
G01*
X97419000Y-109913000D01*
G75*
G02*
X97284000Y-110048000I-135000J0D01*
G01*
X97014000Y-110048000D01*
G75*
G02*
X96879000Y-109913000I0J135000D01*
G01*
G37*
%TD*%
%TO.C,C8*%
G36*
G01*
X85725000Y-110130000D02*
X85725000Y-109790000D01*
G75*
G02*
X85865000Y-109650000I140000J0D01*
G01*
X86145000Y-109650000D01*
G75*
G02*
X86285000Y-109790000I0J-140000D01*
G01*
X86285000Y-110130000D01*
G75*
G02*
X86145000Y-110270000I-140000J0D01*
G01*
X85865000Y-110270000D01*
G75*
G02*
X85725000Y-110130000I0J140000D01*
G01*
G37*
G36*
G01*
X84765000Y-110130000D02*
X84765000Y-109790000D01*
G75*
G02*
X84905000Y-109650000I140000J0D01*
G01*
X85185000Y-109650000D01*
G75*
G02*
X85325000Y-109790000I0J-140000D01*
G01*
X85325000Y-110130000D01*
G75*
G02*
X85185000Y-110270000I-140000J0D01*
G01*
X84905000Y-110270000D01*
G75*
G02*
X84765000Y-110130000I0J140000D01*
G01*
G37*
%TD*%
%TO.C,C7*%
G36*
G01*
X85325000Y-106290000D02*
X85325000Y-106630000D01*
G75*
G02*
X85185000Y-106770000I-140000J0D01*
G01*
X84905000Y-106770000D01*
G75*
G02*
X84765000Y-106630000I0J140000D01*
G01*
X84765000Y-106290000D01*
G75*
G02*
X84905000Y-106150000I140000J0D01*
G01*
X85185000Y-106150000D01*
G75*
G02*
X85325000Y-106290000I0J-140000D01*
G01*
G37*
G36*
G01*
X86285000Y-106290000D02*
X86285000Y-106630000D01*
G75*
G02*
X86145000Y-106770000I-140000J0D01*
G01*
X85865000Y-106770000D01*
G75*
G02*
X85725000Y-106630000I0J140000D01*
G01*
X85725000Y-106290000D01*
G75*
G02*
X85865000Y-106150000I140000J0D01*
G01*
X86145000Y-106150000D01*
G75*
G02*
X86285000Y-106290000I0J-140000D01*
G01*
G37*
%TD*%
%TO.C,C6*%
G36*
G01*
X85325000Y-108740000D02*
X85325000Y-109080000D01*
G75*
G02*
X85185000Y-109220000I-140000J0D01*
G01*
X84905000Y-109220000D01*
G75*
G02*
X84765000Y-109080000I0J140000D01*
G01*
X84765000Y-108740000D01*
G75*
G02*
X84905000Y-108600000I140000J0D01*
G01*
X85185000Y-108600000D01*
G75*
G02*
X85325000Y-108740000I0J-140000D01*
G01*
G37*
G36*
G01*
X86285000Y-108740000D02*
X86285000Y-109080000D01*
G75*
G02*
X86145000Y-109220000I-140000J0D01*
G01*
X85865000Y-109220000D01*
G75*
G02*
X85725000Y-109080000I0J140000D01*
G01*
X85725000Y-108740000D01*
G75*
G02*
X85865000Y-108600000I140000J0D01*
G01*
X86145000Y-108600000D01*
G75*
G02*
X86285000Y-108740000I0J-140000D01*
G01*
G37*
%TD*%
D19*
%TO.C,H4*%
X128740000Y-144145000D03*
%TD*%
%TO.C,H2*%
X85090000Y-144145000D03*
%TD*%
D22*
%TO.C,H5*%
X88265000Y-141605000D03*
%TD*%
%TO.C,H1*%
X129375000Y-104305000D03*
%TD*%
%TO.C,C4*%
G36*
G01*
X127454000Y-117899000D02*
X127454000Y-117559000D01*
G75*
G02*
X127594000Y-117419000I140000J0D01*
G01*
X127874000Y-117419000D01*
G75*
G02*
X128014000Y-117559000I0J-140000D01*
G01*
X128014000Y-117899000D01*
G75*
G02*
X127874000Y-118039000I-140000J0D01*
G01*
X127594000Y-118039000D01*
G75*
G02*
X127454000Y-117899000I0J140000D01*
G01*
G37*
G36*
G01*
X126494000Y-117899000D02*
X126494000Y-117559000D01*
G75*
G02*
X126634000Y-117419000I140000J0D01*
G01*
X126914000Y-117419000D01*
G75*
G02*
X127054000Y-117559000I0J-140000D01*
G01*
X127054000Y-117899000D01*
G75*
G02*
X126914000Y-118039000I-140000J0D01*
G01*
X126634000Y-118039000D01*
G75*
G02*
X126494000Y-117899000I0J140000D01*
G01*
G37*
%TD*%
D17*
%TO.C,Q1*%
X126045000Y-131715000D03*
X124145000Y-131715000D03*
X125095000Y-133715000D03*
%TD*%
%TO.C,Q2*%
X122235000Y-131715000D03*
X120335000Y-131715000D03*
X121285000Y-133715000D03*
%TD*%
%TO.C,Q3*%
X118425000Y-131715000D03*
X116525000Y-131715000D03*
X117475000Y-133715000D03*
%TD*%
%TO.C,U2*%
G36*
G01*
X128054000Y-118596000D02*
X128354000Y-118596000D01*
G75*
G02*
X128504000Y-118746000I0J-150000D01*
G01*
X128504000Y-119771000D01*
G75*
G02*
X128354000Y-119921000I-150000J0D01*
G01*
X128054000Y-119921000D01*
G75*
G02*
X127904000Y-119771000I0J150000D01*
G01*
X127904000Y-118746000D01*
G75*
G02*
X128054000Y-118596000I150000J0D01*
G01*
G37*
G36*
G01*
X127104000Y-118596000D02*
X127404000Y-118596000D01*
G75*
G02*
X127554000Y-118746000I0J-150000D01*
G01*
X127554000Y-119771000D01*
G75*
G02*
X127404000Y-119921000I-150000J0D01*
G01*
X127104000Y-119921000D01*
G75*
G02*
X126954000Y-119771000I0J150000D01*
G01*
X126954000Y-118746000D01*
G75*
G02*
X127104000Y-118596000I150000J0D01*
G01*
G37*
G36*
G01*
X126154000Y-118596000D02*
X126454000Y-118596000D01*
G75*
G02*
X126604000Y-118746000I0J-150000D01*
G01*
X126604000Y-119771000D01*
G75*
G02*
X126454000Y-119921000I-150000J0D01*
G01*
X126154000Y-119921000D01*
G75*
G02*
X126004000Y-119771000I0J150000D01*
G01*
X126004000Y-118746000D01*
G75*
G02*
X126154000Y-118596000I150000J0D01*
G01*
G37*
G36*
G01*
X126154000Y-120871000D02*
X126454000Y-120871000D01*
G75*
G02*
X126604000Y-121021000I0J-150000D01*
G01*
X126604000Y-122046000D01*
G75*
G02*
X126454000Y-122196000I-150000J0D01*
G01*
X126154000Y-122196000D01*
G75*
G02*
X126004000Y-122046000I0J150000D01*
G01*
X126004000Y-121021000D01*
G75*
G02*
X126154000Y-120871000I150000J0D01*
G01*
G37*
G36*
G01*
X128054000Y-120871000D02*
X128354000Y-120871000D01*
G75*
G02*
X128504000Y-121021000I0J-150000D01*
G01*
X128504000Y-122046000D01*
G75*
G02*
X128354000Y-122196000I-150000J0D01*
G01*
X128054000Y-122196000D01*
G75*
G02*
X127904000Y-122046000I0J150000D01*
G01*
X127904000Y-121021000D01*
G75*
G02*
X128054000Y-120871000I150000J0D01*
G01*
G37*
%TD*%
M02*
