M48
; DRILL file {KiCad 5.1.10} date Mon Dec 20 01:15:16 2021
; FORMAT={-:-/ absolute / metric / decimal}
; #@! TF.CreationDate,2021-12-20T01:15:16+02:00
; #@! TF.GenerationSoftware,Kicad,Pcbnew,5.1.10
; #@! TF.FileFunction,Plated,1,2,PTH
FMAT,2
METRIC
T1C0.300
T2C1.000
T3C1.100
T4C1.200
T5C2.100
%
G90
G05
T1
X78.232Y-85.814
X78.232Y-86.703
X78.578Y-87.465
X78.578Y-88.438
X79.375Y-92.545
X79.375Y-93.815
X79.375Y-95.085
X79.375Y-96.355
X79.375Y-97.625
X79.375Y-98.895
X79.375Y-100.165
X79.375Y-101.435
X79.375Y-102.705
X79.375Y-103.975
X79.375Y-105.245
X79.375Y-106.515
X79.375Y-107.785
X79.375Y-109.055
X79.375Y-110.325
X79.375Y-111.595
X79.375Y-112.865
X79.375Y-114.135
X79.375Y-115.405
X79.375Y-116.675
X79.375Y-117.945
X79.375Y-119.215
X79.932Y-86.521
X80.01Y-89.659
X80.645Y-93.815
X80.645Y-95.085
X80.645Y-96.355
X80.645Y-97.625
X80.645Y-98.895
X80.645Y-100.165
X80.645Y-101.435
X80.645Y-102.705
X80.645Y-103.975
X80.645Y-105.245
X80.645Y-106.515
X80.645Y-107.785
X80.645Y-109.055
X80.645Y-110.325
X80.645Y-111.595
X80.645Y-112.865
X80.645Y-115.405
X80.645Y-116.675
X80.645Y-117.945
X80.645Y-119.215
X80.772Y-86.18
X80.899Y-82.258
X81.915Y-115.405
X81.915Y-116.675
X81.915Y-117.945
X83.82Y-109.055
X84.455Y-90.005
X84.455Y-124.295
X85.09Y-109.055
X85.09Y-114.135
X85.09Y-115.405
X85.09Y-116.675
X85.725Y-124.295
X86.36Y-109.055
X86.36Y-114.135
X86.36Y-115.405
X86.36Y-116.675
X86.463Y-84.671
X86.995Y-124.295
X87.63Y-109.055
X87.63Y-114.135
X87.63Y-115.405
X87.63Y-116.675
X88.265Y-124.295
X88.9Y-94.45
X88.9Y-109.055
X88.9Y-114.135
X88.9Y-115.405
X88.9Y-116.675
X89.535Y-124.295
X90.17Y-109.055
X90.17Y-114.135
X90.17Y-115.405
X90.17Y-116.675
X90.805Y-124.295
X91.44Y-109.055
X91.44Y-114.135
X91.44Y-115.405
X91.44Y-116.675
X92.075Y-124.295
X92.71Y-114.135
X92.71Y-115.405
X92.71Y-116.675
X93.345Y-96.355
X93.345Y-124.295
X93.98Y-86.068
X93.98Y-114.135
X93.98Y-115.405
X93.98Y-116.675
X94.615Y-124.295
X95.377Y-91.656
X95.885Y-109.055
X95.885Y-124.295
X97.155Y-109.055
X97.155Y-124.295
X97.79Y-93.815
X97.79Y-95.085
X98.425Y-109.055
X98.425Y-124.295
X99.06Y-91.91
X99.695Y-109.055
X99.695Y-124.295
X100.203Y-114.135
X100.203Y-115.405
X100.203Y-116.675
X100.457Y-101.562
X100.965Y-109.055
X100.965Y-124.295
X101.473Y-99.022
X101.473Y-114.135
X101.473Y-115.405
X101.473Y-116.675
X101.6Y-90.64
X101.727Y-97.498
X102.235Y-109.055
X102.235Y-124.295
X102.743Y-114.135
X102.743Y-115.405
X102.743Y-116.675
X103.505Y-109.055
X103.505Y-124.295
X104.013Y-114.135
X104.013Y-115.405
X104.013Y-116.675
X104.521Y-96.355
X104.521Y-102.705
X104.775Y-109.055
X104.775Y-124.295
X105.283Y-114.135
X105.283Y-115.405
X105.283Y-116.675
X106.045Y-85.433
X106.045Y-87.338
X106.045Y-89.243
X106.045Y-109.055
X106.045Y-124.295
X106.426Y-103.34
X106.553Y-114.135
X106.553Y-115.405
X106.553Y-116.675
X107.315Y-109.055
X107.315Y-124.295
X107.823Y-114.135
X107.823Y-115.405
X107.823Y-116.675
X108.585Y-109.055
X108.585Y-124.295
X108.762Y-111.545
X109.601Y-95.085
X109.855Y-104.61
X109.855Y-109.055
X109.855Y-124.295
X110.617Y-114.135
X110.617Y-115.405
X110.617Y-116.675
X111.125Y-109.055
X111.125Y-124.295
X111.887Y-102.578
X111.887Y-114.135
X111.887Y-115.405
X111.887Y-116.675
X112.014Y-96.355
X112.395Y-109.055
X112.395Y-124.295
X113.157Y-114.135
X113.157Y-115.405
X113.157Y-116.675
X113.665Y-109.055
X113.665Y-124.295
X114.427Y-114.135
X114.427Y-115.405
X114.427Y-116.675
X114.935Y-109.055
X114.935Y-124.295
X115.57Y-96.355
X115.57Y-102.705
X115.697Y-114.135
X115.697Y-115.405
X115.697Y-116.675
X116.205Y-109.055
X116.205Y-124.295
X116.967Y-114.135
X116.967Y-115.405
X116.967Y-116.675
X117.475Y-103.34
X117.475Y-109.055
X117.475Y-124.295
X118.237Y-114.135
X118.237Y-115.405
X118.237Y-116.675
X118.745Y-109.055
X118.745Y-124.295
X120.015Y-109.055
X120.65Y-95.085
X120.861Y-105.034
X121.92Y-109.69
X122.301Y-103.594
X122.555Y-112.865
X122.555Y-114.135
X122.555Y-115.405
X122.555Y-116.675
X122.555Y-117.945
X122.555Y-119.215
X123.063Y-96.355
X123.825Y-90.005
X123.825Y-91.275
X123.825Y-92.545
X123.825Y-93.815
X123.825Y-95.085
X123.825Y-111.595
X123.825Y-112.865
X123.825Y-114.135
X123.825Y-115.405
X123.825Y-116.675
X123.825Y-117.945
X123.825Y-119.215
T2
X78.867Y-78.829
X81.407Y-78.829
X83.947Y-78.829
X86.487Y-78.829
X89.027Y-78.829
X94.615Y-78.829
X94.615Y-81.369
X97.155Y-78.829
X97.155Y-81.369
X99.695Y-78.829
X99.695Y-81.369
X102.235Y-78.829
X102.235Y-81.369
X104.775Y-78.829
X104.775Y-81.369
T3
X114.935Y-79.726
T4
X86.995Y-118.707
X88.265Y-100.8
X88.265Y-105.88
X92.075Y-118.707
X106.68Y-118.707
X109.385Y-82.426
X109.385Y-90.726
X111.76Y-118.707
X120.485Y-82.426
X120.885Y-90.026
T5
X108.935Y-86.076G85X108.935Y-87.176
G05
X120.935Y-86.076G85X120.935Y-87.176
G05
T0
M30
